<svg id="Layer_1" data-name="Layer 1" xmlns="http://www.w3.org/2000/svg" xmlns:xlink="http://www.w3.org/1999/xlink" viewBox="0 0 504 504"><defs><style>.cls-1{fill:url(#linear-gradient);}.cls-2{fill:#5c0f8b;}.cls-3{fill:url(#linear-gradient-2);}.cls-4{fill:url(#linear-gradient-3);}.cls-5{fill:url(#linear-gradient-4);}.cls-6{fill:url(#linear-gradient-5);}.cls-7{fill:url(#linear-gradient-6);}.cls-8{fill:url(#linear-gradient-7);}.cls-9{fill:url(#linear-gradient-8);}.cls-10{fill:url(#linear-gradient-9);}.cls-11{fill:url(#linear-gradient-10);}.cls-12{fill:url(#linear-gradient-11);}.cls-13{fill:url(#linear-gradient-12);}.cls-14{fill:url(#linear-gradient-13);}.cls-15{fill:url(#linear-gradient-14);}.cls-16{fill:url(#linear-gradient-15);}.cls-17{fill:url(#linear-gradient-16);}.cls-18{fill:url(#linear-gradient-17);}.cls-19{fill:url(#linear-gradient-18);}.cls-20{fill:url(#linear-gradient-19);}.cls-21{fill:url(#linear-gradient-20);}.cls-22{fill:url(#linear-gradient-21);}.cls-23{fill:url(#linear-gradient-22);}.cls-24{fill:url(#linear-gradient-23);}.cls-25{fill:url(#linear-gradient-24);}.cls-26{fill:url(#linear-gradient-25);}.cls-27{fill:url(#linear-gradient-26);}.cls-28{fill:url(#linear-gradient-27);}.cls-29{fill:url(#linear-gradient-28);}.cls-30{fill:url(#linear-gradient-29);}.cls-31{fill:url(#linear-gradient-30);}.cls-32{fill:url(#linear-gradient-31);}.cls-33{fill:url(#linear-gradient-32);}.cls-34{fill:url(#linear-gradient-33);}.cls-35{fill:url(#linear-gradient-34);}.cls-36{fill:url(#linear-gradient-35);}.cls-37{fill:url(#linear-gradient-36);}.cls-38{fill:url(#linear-gradient-37);}.cls-39{fill:url(#linear-gradient-38);}.cls-40{fill:url(#linear-gradient-39);}.cls-41{fill:url(#linear-gradient-40);}.cls-42{fill:url(#linear-gradient-41);}.cls-43{fill:url(#linear-gradient-42);}.cls-44{fill:url(#linear-gradient-43);}.cls-45{fill:url(#linear-gradient-44);}.cls-46{fill:url(#linear-gradient-45);}.cls-47{fill:url(#linear-gradient-46);}.cls-48{fill:url(#linear-gradient-47);}.cls-49{fill:url(#linear-gradient-48);}.cls-50{fill:url(#linear-gradient-49);}.cls-51{fill:url(#linear-gradient-50);}.cls-52{fill:url(#linear-gradient-51);}.cls-53{fill:url(#linear-gradient-52);}.cls-54{fill:url(#linear-gradient-53);}.cls-55{fill:url(#linear-gradient-54);}.cls-56{fill:url(#linear-gradient-55);}.cls-57{fill:url(#linear-gradient-56);}.cls-58{fill:url(#linear-gradient-57);}.cls-59{fill:url(#linear-gradient-58);}.cls-60{fill:url(#linear-gradient-59);}.cls-61{fill:url(#linear-gradient-60);}.cls-62{fill:url(#linear-gradient-61);}.cls-63{fill:url(#linear-gradient-62);}.cls-64{fill:url(#linear-gradient-63);}.cls-65{fill:url(#linear-gradient-64);}.cls-66{fill:url(#linear-gradient-65);}.cls-67{fill:url(#linear-gradient-66);}.cls-68{fill:url(#linear-gradient-67);}.cls-69{fill:url(#linear-gradient-68);}.cls-70{fill:url(#linear-gradient-69);}.cls-71{fill:url(#linear-gradient-70);}.cls-72{fill:url(#linear-gradient-71);}.cls-73{fill:url(#linear-gradient-72);}.cls-74{fill:url(#linear-gradient-73);}.cls-75{fill:url(#linear-gradient-74);}.cls-76{fill:url(#linear-gradient-75);}.cls-77{fill:url(#linear-gradient-76);}.cls-78{fill:url(#linear-gradient-77);}.cls-79{fill:url(#linear-gradient-78);}.cls-80{fill:url(#linear-gradient-79);}.cls-81{fill:url(#linear-gradient-80);}.cls-82{fill:url(#linear-gradient-81);}.cls-83{fill:url(#linear-gradient-82);}.cls-84{fill:url(#linear-gradient-83);}.cls-85{fill:url(#linear-gradient-84);}.cls-86{fill:url(#linear-gradient-85);}.cls-87{fill:url(#linear-gradient-86);}.cls-88{fill:url(#linear-gradient-87);}.cls-89{fill:url(#linear-gradient-88);}.cls-90{fill:url(#linear-gradient-89);}.cls-91{fill:url(#linear-gradient-90);}.cls-92{fill:url(#linear-gradient-91);}.cls-93{fill:url(#linear-gradient-92);}.cls-94{fill:url(#linear-gradient-93);}.cls-95{fill:url(#linear-gradient-94);}.cls-96{fill:url(#linear-gradient-95);}</style><linearGradient id="linear-gradient" x1="92.37429" y1="-60.85956" x2="541.95857" y2="105.50032" gradientTransform="matrix(1, 0, 0, -1, 0, 474.50233)" gradientUnits="userSpaceOnUse"><stop offset="0" stop-color="#65318f"/><stop offset="0.21076" stop-color="#633592"/><stop offset="0.43565" stop-color="#5c4299"/><stop offset="0.6663" stop-color="#5257a6"/><stop offset="0.81351" stop-color="#4969b1"/></linearGradient><linearGradient id="linear-gradient-2" x1="-11.64751" y1="213.6303" x2="441.51406" y2="381.31392" xlink:href="#linear-gradient"/><linearGradient id="linear-gradient-3" x1="6.97387" y1="163.30645" x2="460.13543" y2="330.99009" xlink:href="#linear-gradient"/><linearGradient id="linear-gradient-4" x1="13.35496" y1="146.0617" x2="466.51647" y2="313.74534" xlink:href="#linear-gradient"/><linearGradient id="linear-gradient-5" x1="22.1841" y1="122.20111" x2="475.34565" y2="289.88477" xlink:href="#linear-gradient"/><linearGradient id="linear-gradient-6" x1="12.80481" y1="147.54843" x2="465.96637" y2="315.23206" xlink:href="#linear-gradient"/><linearGradient id="linear-gradient-7" x1="38.12345" y1="79.12538" x2="491.28502" y2="246.809" xlink:href="#linear-gradient"/><linearGradient id="linear-gradient-8" x1="-38.29231" y1="285.63732" x2="414.86926" y2="453.32096" xlink:href="#linear-gradient"/><linearGradient id="linear-gradient-9" x1="51.64135" y1="42.59349" x2="504.80291" y2="210.27713" xlink:href="#linear-gradient"/><linearGradient id="linear-gradient-10" x1="-9.7919" y1="208.61565" x2="443.36966" y2="376.29929" xlink:href="#linear-gradient"/><linearGradient id="linear-gradient-11" x1="-43.20549" y1="298.91516" x2="409.95607" y2="466.5988" xlink:href="#linear-gradient"/><linearGradient id="linear-gradient-12" x1="-7.75544" y1="203.11208" x2="445.40612" y2="370.79572" xlink:href="#linear-gradient"/><linearGradient id="linear-gradient-13" x1="-44.62902" y1="302.76223" x2="408.53254" y2="470.44587" xlink:href="#linear-gradient"/><linearGradient id="linear-gradient-14" x1="32.58565" y1="94.09114" x2="485.74721" y2="261.77478" xlink:href="#linear-gradient"/><linearGradient id="linear-gradient-15" x1="-23.88753" y1="246.70872" x2="429.27404" y2="414.39236" xlink:href="#linear-gradient"/><linearGradient id="linear-gradient-16" x1="-29.68797" y1="262.38431" x2="423.47359" y2="430.06795" xlink:href="#linear-gradient"/><linearGradient id="linear-gradient-17" x1="60.74512" y1="17.99073" x2="513.90669" y2="185.67436" xlink:href="#linear-gradient"/><linearGradient id="linear-gradient-18" x1="16.41605" y1="137.7892" x2="469.57761" y2="305.47284" xlink:href="#linear-gradient"/><linearGradient id="linear-gradient-19" x1="68.4738" y1="-2.89584" x2="521.63536" y2="164.78778" xlink:href="#linear-gradient"/><linearGradient id="linear-gradient-20" x1="72.19275" y1="-12.94622" x2="525.35432" y2="154.7374" xlink:href="#linear-gradient"/><linearGradient id="linear-gradient-21" x1="-7.32829" y1="201.95775" x2="445.83326" y2="369.6414" xlink:href="#linear-gradient"/><linearGradient id="linear-gradient-22" x1="78.16425" y1="-29.08411" x2="531.32582" y2="138.59951" xlink:href="#linear-gradient"/><linearGradient id="linear-gradient-23" x1="62.23758" y1="13.95738" x2="515.39914" y2="181.64102" xlink:href="#linear-gradient"/><linearGradient id="linear-gradient-24" x1="60.3074" y1="19.17369" x2="513.46896" y2="186.85732" xlink:href="#linear-gradient"/><linearGradient id="linear-gradient-25" x1="15.42047" y1="140.47972" x2="468.58202" y2="308.16337" xlink:href="#linear-gradient"/><linearGradient id="linear-gradient-26" x1="37.01754" y1="82.11402" x2="490.1791" y2="249.79767" xlink:href="#linear-gradient"/><linearGradient id="linear-gradient-27" x1="82.24866" y1="-40.12215" x2="535.41021" y2="127.56151" xlink:href="#linear-gradient"/><linearGradient id="linear-gradient-28" x1="18.24567" y1="132.84467" x2="471.40723" y2="300.52832" xlink:href="#linear-gradient"/><linearGradient id="linear-gradient-29" x1="47.66008" y1="53.35277" x2="500.82165" y2="221.03639" xlink:href="#linear-gradient"/><linearGradient id="linear-gradient-30" x1="37.93638" y1="79.63095" x2="491.09794" y2="247.31459" xlink:href="#linear-gradient"/><linearGradient id="linear-gradient-31" x1="57.85357" y1="25.80514" x2="511.01513" y2="193.48878" xlink:href="#linear-gradient"/><linearGradient id="linear-gradient-32" x1="59.26851" y1="21.98128" x2="512.43008" y2="189.6649" xlink:href="#linear-gradient"/><linearGradient id="linear-gradient-33" x1="55.74307" y1="31.50872" x2="508.90464" y2="199.19234" xlink:href="#linear-gradient"/><linearGradient id="linear-gradient-34" x1="11.39597" y1="151.3558" x2="464.55754" y2="319.03942" xlink:href="#linear-gradient"/><linearGradient id="linear-gradient-35" x1="-8.05134" y1="203.91177" x2="445.11022" y2="371.5954" xlink:href="#linear-gradient"/><linearGradient id="linear-gradient-36" x1="44.39767" y1="62.16942" x2="497.55918" y2="229.85307" xlink:href="#linear-gradient"/><linearGradient id="linear-gradient-37" x1="-16.65891" y1="227.17358" x2="436.50265" y2="394.85722" xlink:href="#linear-gradient"/><linearGradient id="linear-gradient-38" x1="-11.23756" y1="212.52243" x2="441.924" y2="380.20607" xlink:href="#linear-gradient"/><linearGradient id="linear-gradient-39" x1="39.51724" y1="75.35868" x2="492.6151" y2="243.01873" xlink:href="#linear-gradient"/><linearGradient id="linear-gradient-40" x1="43.95718" y1="63.35978" x2="497.11874" y2="231.04343" xlink:href="#linear-gradient"/><linearGradient id="linear-gradient-41" x1="5.01612" y1="168.59724" x2="458.17768" y2="336.28087" xlink:href="#linear-gradient"/><linearGradient id="linear-gradient-42" x1="83.19137" y1="-42.66977" x2="536.35293" y2="125.01387" xlink:href="#linear-gradient"/><linearGradient id="linear-gradient-43" x1="56.01715" y1="30.76797" x2="509.17871" y2="198.4516" xlink:href="#linear-gradient"/><linearGradient id="linear-gradient-44" x1="83.06012" y1="-42.31507" x2="536.22168" y2="125.36857" xlink:href="#linear-gradient"/><linearGradient id="linear-gradient-45" x1="47.41237" y1="54.02228" x2="500.57388" y2="221.70591" xlink:href="#linear-gradient"/><linearGradient id="linear-gradient-46" x1="-0.09677" y1="182.41468" x2="453.0648" y2="350.09829" xlink:href="#linear-gradient"/><linearGradient id="linear-gradient-47" x1="22.91918" y1="120.21457" x2="476.08075" y2="287.8982" xlink:href="#linear-gradient"/><linearGradient id="linear-gradient-48" x1="-5.12027" y1="195.99066" x2="448.04129" y2="363.6743" xlink:href="#linear-gradient"/><linearGradient id="linear-gradient-49" x1="77.12338" y1="-26.2712" x2="530.28495" y2="141.41244" xlink:href="#linear-gradient"/><linearGradient id="linear-gradient-50" x1="61.04058" y1="17.19231" x2="514.20214" y2="184.87595" xlink:href="#linear-gradient"/><linearGradient id="linear-gradient-51" x1="-19.90355" y1="235.94214" x2="433.25801" y2="403.62577" xlink:href="#linear-gradient"/><linearGradient id="linear-gradient-52" x1="69.95096" y1="-6.8878" x2="523.11253" y2="160.79582" xlink:href="#linear-gradient"/><linearGradient id="linear-gradient-53" x1="-26.58257" y1="253.99207" x2="426.57899" y2="421.67571" xlink:href="#linear-gradient"/><linearGradient id="linear-gradient-54" x1="-15.78885" y1="224.82219" x2="437.37271" y2="392.50583" xlink:href="#linear-gradient"/><linearGradient id="linear-gradient-55" x1="-28.27825" y1="258.57459" x2="424.88331" y2="426.25823" xlink:href="#linear-gradient"/><linearGradient id="linear-gradient-56" x1="-33.32464" y1="272.21238" x2="419.83694" y2="439.89599" xlink:href="#linear-gradient"/><linearGradient id="linear-gradient-57" x1="46.29781" y1="57.03429" x2="499.45938" y2="224.71793" xlink:href="#linear-gradient"/><linearGradient id="linear-gradient-58" x1="35.97162" y1="84.94066" x2="489.13318" y2="252.6243" xlink:href="#linear-gradient"/><linearGradient id="linear-gradient-59" x1="-38.63138" y1="286.55372" x2="414.53018" y2="454.23735" xlink:href="#linear-gradient"/><linearGradient id="linear-gradient-60" x1="44.92715" y1="60.73853" x2="498.08871" y2="228.42218" xlink:href="#linear-gradient"/><linearGradient id="linear-gradient-61" x1="12.28031" y1="148.96588" x2="465.44188" y2="316.64952" xlink:href="#linear-gradient"/><linearGradient id="linear-gradient-62" x1="16.5815" y1="137.34203" x2="469.74307" y2="305.02567" xlink:href="#linear-gradient"/><linearGradient id="linear-gradient-63" x1="-19.91542" y1="235.97425" x2="433.24615" y2="403.65786" xlink:href="#linear-gradient"/><linearGradient id="linear-gradient-64" x1="64.12903" y1="8.84578" x2="517.29059" y2="176.52942" xlink:href="#linear-gradient"/><linearGradient id="linear-gradient-65" x1="2.98121" y1="174.09654" x2="456.14277" y2="341.78018" xlink:href="#linear-gradient"/><linearGradient id="linear-gradient-66" x1="91.56836" y1="-65.30836" x2="544.72994" y2="102.37524" xlink:href="#linear-gradient"/><linearGradient id="linear-gradient-67" x1="-25.97724" y1="252.3561" x2="427.18432" y2="420.03973" xlink:href="#linear-gradient"/><linearGradient id="linear-gradient-68" x1="22.60482" y1="121.0641" x2="475.76638" y2="288.74774" xlink:href="#linear-gradient"/><linearGradient id="linear-gradient-69" x1="-26.99876" y1="255.11675" x2="426.1628" y2="422.80039" xlink:href="#linear-gradient"/><linearGradient id="linear-gradient-70" x1="55.50645" y1="32.14813" x2="508.66802" y2="199.83175" xlink:href="#linear-gradient"/><linearGradient id="linear-gradient-71" x1="-10.95692" y1="211.76405" x2="442.20465" y2="379.44769" xlink:href="#linear-gradient"/><linearGradient id="linear-gradient-72" x1="46.92361" y1="55.3431" x2="500.08517" y2="223.02674" xlink:href="#linear-gradient"/><linearGradient id="linear-gradient-73" x1="-46.38464" y1="307.50677" x2="406.77692" y2="475.19041" xlink:href="#linear-gradient"/><linearGradient id="linear-gradient-74" x1="-45.04297" y1="303.8809" x2="408.1186" y2="471.56453" xlink:href="#linear-gradient"/><linearGradient id="linear-gradient-75" x1="12.23629" y1="149.08489" x2="465.39785" y2="316.76853" xlink:href="#linear-gradient"/><linearGradient id="linear-gradient-76" x1="35.55572" y1="86.06459" x2="488.71727" y2="253.74824" xlink:href="#linear-gradient"/><linearGradient id="linear-gradient-77" x1="9.37115" y1="156.82789" x2="462.53273" y2="324.51149" xlink:href="#linear-gradient"/><linearGradient id="linear-gradient-78" x1="-15.4521" y1="223.91216" x2="437.70946" y2="391.5958" xlink:href="#linear-gradient"/><linearGradient id="linear-gradient-79" x1="-20.0346" y1="236.2963" x2="433.12697" y2="403.97991" xlink:href="#linear-gradient"/><linearGradient id="linear-gradient-80" x1="13.33255" y1="146.12222" x2="466.49411" y2="313.80585" xlink:href="#linear-gradient"/><linearGradient id="linear-gradient-81" x1="9.06716" y1="157.64933" x2="462.22872" y2="325.33298" xlink:href="#linear-gradient"/><linearGradient id="linear-gradient-82" x1="-31.23642" y1="266.56892" x2="421.92514" y2="434.25255" xlink:href="#linear-gradient"/><linearGradient id="linear-gradient-83" x1="10.22147" y1="154.52992" x2="463.38304" y2="322.21354" xlink:href="#linear-gradient"/><linearGradient id="linear-gradient-84" x1="-6.48184" y1="199.67019" x2="446.67972" y2="367.35383" xlink:href="#linear-gradient"/><linearGradient id="linear-gradient-85" x1="16.23157" y1="138.28769" x2="469.39313" y2="305.97131" xlink:href="#linear-gradient"/><linearGradient id="linear-gradient-86" x1="49.31507" y1="48.88022" x2="502.47663" y2="216.56385" xlink:href="#linear-gradient"/><linearGradient id="linear-gradient-87" x1="31.58048" y1="96.80763" x2="484.74205" y2="264.49124" xlink:href="#linear-gradient"/><linearGradient id="linear-gradient-88" x1="44.22397" y1="62.63883" x2="497.38554" y2="230.32245" xlink:href="#linear-gradient"/><linearGradient id="linear-gradient-89" x1="45.80264" y1="58.37253" x2="498.9642" y2="226.05616" xlink:href="#linear-gradient"/><linearGradient id="linear-gradient-90" x1="24.98655" y1="114.62753" x2="478.14811" y2="282.31116" xlink:href="#linear-gradient"/><linearGradient id="linear-gradient-91" x1="83.37556" y1="-43.16753" x2="536.53713" y2="124.51611" xlink:href="#linear-gradient"/><linearGradient id="linear-gradient-92" x1="84.30814" y1="-45.68784" x2="537.46974" y2="121.99583" xlink:href="#linear-gradient"/><linearGradient id="linear-gradient-93" x1="80.29775" y1="-34.84979" x2="533.45931" y2="132.83385" xlink:href="#linear-gradient"/><linearGradient id="linear-gradient-94" x1="97.12802" y1="-80.3333" x2="550.28962" y2="87.35037" xlink:href="#linear-gradient"/><linearGradient id="linear-gradient-95" x1="84.50676" y1="-46.22464" x2="537.66832" y2="121.45903" xlink:href="#linear-gradient"/></defs><title>acumosAI-icon-color</title><path class="cls-1" d="M362.015,435.93034c-.54138-.03759-1.08389-.0455-1.62617-.08575A13.64046,13.64046,0,0,0,362.015,435.93034Z"/><polygon class="cls-2" points="351.869 359.395 350.187 356.033 347.157 349.983 343.418 342.515 325.951 307.665 324.049 303.861 322.647 301.07 321.303 298.375 319.343 294.478 279.062 214.067 265.159 239.479 263.274 242.931 263.403 243.192 264.579 245.545 265.794 247.963 278.804 273.933 280.419 277.159 281.759 279.835 282.037 280.386 282.543 281.401 302.943 322.118 303.9 324.026 304.558 325.344 305.244 326.708 306.176 328.571 314.721 345.625 316.552 349.277 318.034 352.239 318.856 353.883 322.702 361.555 327.527 371.189 334.47 385.049 337.577 385.049 339.74 385.049 352.959 385.049 354.825 385.049 364.72 385.049 359.724 375.07 351.869 359.395"/><polygon class="cls-2" points="273.318 202.601 270.014 196.007 251.809 159.667 250.071 163.145 248.199 166.887 247.779 167.726 246.751 169.785 239.731 183.823 236.066 191.156 258.758 234.954 259.274 234.315 260.047 235.379 275.548 207.05 273.318 202.601"/><polygon class="cls-2" points="258.758 234.954 258.752 234.963 259.512 236.485 260.047 235.379 259.274 234.315 258.758 234.954"/><path class="cls-3" d="M35.90848,254.609a8.32157,8.32157,0,0,1-.03037-1.30308,8.83893,8.83893,0,0,1,.57962-2.43013L13.502,240.23184a75.7592,75.7592,0,0,0-7.12372,19.76348l22.19349-4.04522Z"/><path class="cls-4" d="M32.80033,323.248,7.064,291.04218l-.91451-1.14991a75.43813,75.43813,0,0,0,7.116,20.55532l3.15424,2.06509Z"/><path class="cls-5" d="M15.40631,314.27967a76.52083,76.52083,0,0,0,17.58438,20.297l.97524-1.96538,2.30846-4.648Z"/><polygon class="cls-6" points="270.594 273.936 259.138 251.067 247.638 273.936 270.594 273.936"/><polygon class="cls-7" points="260.047 235.379 260.047 235.379 259.928 235.598 260.047 235.379"/><path class="cls-8" d="M422.43791,283.38562l-9.79813-52.44478a8.77222,8.77222,0,0,1-6.55187-1.93874l-5.90507,7.13062L413.356,264.72694l8.63957,18.74987C422.1407,283.44659,422.28589,283.416,422.43791,283.38562Z"/><path class="cls-9" d="M238.007,95.93392l20.43452-23.96836c-.991-.43066-1.95047-.80037-2.90312-1.135L244.89541,86.068Z"/><path class="cls-10" d="M205.22348,383.32288l2.58239-3.635,6.94111-9.75913a9.167,9.167,0,0,1-2.56755-3.83294l-12.40072,2.75354-5.624,10.87623Z"/><path class="cls-11" d="M378.97208,118.95074l7.16215-.2285,11.70962-.373a30.26326,30.26326,0,0,0-1.5462-5.56955l-17.37135,5.96917C378.93394,118.8212,378.96431,118.88192,378.97208,118.95074Z"/><path class="cls-12" d="M101.05075,119.27845a75.7063,75.7063,0,0,0-28.09887,16.33513L116.55515,115.918Z"/><path class="cls-13" d="M399.11625,124.22316l5.77569,1.0586a8.13626,8.13626,0,0,1,7.96863-4.575,8.58736,8.58736,0,0,1,1.13594.2099l.26593-.50312c-.54057-.18263-1.0812-.35421-1.62974-.50248l-31.5501,1.0136Z"/><path class="cls-14" d="M204.64452,84.6277l23.69473-14.27007a44.25347,44.25347,0,0,0-13.699,6.903,1.01583,1.01583,0,0,1-.78487.19017,73.65111,73.65111,0,0,0-14.73464-1.032l-.457,4.26979A9.106,9.106,0,0,1,204.64452,84.6277Z"/><path class="cls-15" d="M133.66674,340.07c.37371,1.82857.81523,3.6339,1.30286,5.394l20.41117-8.74285,1.10646-2.21313Z"/><path class="cls-16" d="M236.9181,136.95789l3.3063-3.69108a9.11351,9.11351,0,0,1-2.31644-6.83427,9.23207,9.23207,0,0,1,.97526-3.428l-5.4011-3.58107-2.46142-1.62267a6.61789,6.61789,0,0,1-5.72891,2.49882c-.1146-.00773-.22145-.04609-.32758-.05763l-4.54133,29.85086a9.09952,9.09952,0,0,1,3.10878,1.81706Z"/><path class="cls-17" d="M202.79335,96.75712a9.05853,9.05853,0,0,1-2.78921,1.56194l6.537,21.11543,9.37938,30.308a8.87555,8.87555,0,0,1,2.30068-.13719c.06871.004.13744.03037.2063.0381l4.56326-29.97656a6.60944,6.60944,0,0,1-3.76356-6.49093,6.51,6.51,0,0,1,1.02114-2.97161Z"/><path class="cls-18" d="M424.64753,331.40763l-.13742-13.67641-.16776-16.29613c-.26687,0-.52578.03745-.79973.01485a8.58808,8.58808,0,0,1-1.40192-.25912l-18.49092,35.20684-9.66868,18.3998,23.314-11.36715a9.12956,9.12956,0,0,1,7.35234-12.0226Z"/><path class="cls-19" d="M364.755,168.74363c-.06072.04232-.11394.08818-.17468.12654l21.88145,41.30546,12.70837,23.98023,5.47756-6.6166a9.0709,9.0709,0,0,1,.94486-12.41114Z"/><path class="cls-20" d="M312.627,360.82418l-5.50882,45.98732a49.84446,49.84446,0,0,0,4.89939,1.49321,1.00718,1.00718,0,0,1,.72324.66319c.40407,1.21087.88393,2.45293,1.44026,3.74094l5.71392-22.04146,3.05542-11.77833-9.19482-18.26679A8.99264,8.99264,0,0,1,312.627,360.82418Z"/><path class="cls-21" d="M485.24823,339.49125l1.60717-2.5372,1.44024-2.27808a52.39318,52.39318,0,0,0-1.90438-5.37936Z"/><path class="cls-22" d="M343.21665,126.24214a9.109,9.109,0,0,1-3.94685-1.30282l-14.42214,18.8949-5.867,7.68719a9.15461,9.15461,0,0,1,2.80386,6.11038l27.03939,1.61867,2.00432.11859a9.15669,9.15669,0,0,1,4.571-6.30829l-2.552-7.31412-6.87263-19.74876A8.95993,8.95993,0,0,1,343.21665,126.24214Z"/><path class="cls-23" d="M368.51165,351.09454a9.185,9.185,0,0,1-4.28951,4.54067l2.42236,6.59087,25.75206,70.1393-1.7601-74.52766Z"/><path class="cls-24" d="M310.57735,360.77033a9.17822,9.17822,0,0,1-7.51225-6.23206l-36.97472,4.32767-36.12847,4.22858c0,.2589.03059.51025.01485.7768a9.13848,9.13848,0,0,1-3.42022,6.39208l17.87384,28.22828a81.5268,81.5268,0,0,0,30.56643-22.28581.982.982,0,0,1,.85356-.35021.396.396,0,0,1,.09908.00777,1.01858,1.01858,0,0,1,.7768.65519,50.43691,50.43691,0,0,0,28.41869,29.53046l2.98647-24.875Z"/><path class="cls-25" d="M374.76631,350.87381l16.35775,4.98993,6.37725-12.14406,22.69689-43.2146a9.45157,9.45157,0,0,1-1.2951-.81519l-9.52371,7.95468-41.63793,34.80281a9.07812,9.07812,0,0,1,1.53157,5.76769c-.03037.31984-.1139.61706-.17489.92915Z"/><path class="cls-26" d="M140.95031,255.013a8.15589,8.15589,0,0,1-.89083.731l28.77332,54.071,11.26256-22.5271Z"/><path class="cls-27" d="M135.54853,347.44491a80.8678,80.8678,0,0,0,6.68188,15.57891L153.969,339.54521Z"/><path class="cls-28" d="M467.38151,391.17763a50.20882,50.20882,0,0,0,20.89156-27.984l-4.65532-16.1521Z"/><path class="cls-29" d="M166.10787,309.03061,138.28365,256.7574a8.95242,8.95242,0,0,1-4.34228.75448,8.11132,8.11132,0,0,1-1.31081-.23627L89.53063,348.72513l27.74767-6.75778a75.82676,75.82676,0,0,0,13.5391-9.55409,1.02054,1.02054,0,0,1,1.68362.64765c.18263,1.53843.43466,3.1846.76934,5.00545l9.43221-2.2936L157.6822,332.118l10.03264-20.0668Z"/><polygon class="cls-30" points="477.004 263.309 491.953 255.051 487.808 250.951 479.785 256.508 442.385 282.42 477.004 263.309"/><path class="cls-31" d="M416.18261,288.04086a9.17768,9.17768,0,0,1,3.90851-3.84l-21.68326-47.04678-60.66944,13.64923a9.02658,9.02658,0,0,1-1.00565,3.318L374.60639,270.289Z"/><path class="cls-32" d="M220.09509,372.26782a9.17624,9.17624,0,0,1-3.69486-1.143l-4.053,5.7061-5.40974,7.61155,17.95026,19.44333a81.81363,81.81363,0,0,0,17.61474-4.6169l-17.6757-27.93106A9.01907,9.01907,0,0,1,220.09509,372.26782Z"/><path class="cls-33" d="M200.75862,394.79689l-4.78491,8.12848a81.33163,81.33163,0,0,0,26.45332,1.296l-16.62462-17.9962Z"/><path class="cls-34" d="M185.13515,392.69437l5.23156,8.79939c1.16541.34266,2.33882.66248,3.527.952L204.103,385.09764l-9.912-3.22274-.98236-.31984-5.76,11.13931Z"/><path class="cls-35" d="M125.83441,250.62065l-71.69325,3.84381c-.00777.10617.01483.213.00709.32007a9.11593,9.11593,0,0,1-4.19027,6.92556L82.445,335.7344l5.28738,12.03035,42.95561-91.1594A9.14368,9.14368,0,0,1,125.83441,250.62065Z"/><path class="cls-36" d="M363.80324,120.36827l-10.956-1.23451a9.11926,9.11926,0,0,1-4.95247,6.2016l8.32749,23.92323,1.06655,3.04743a8.98318,8.98318,0,0,1,3.2376-.35044c.10707.008.19816.04544.29724.05322l7.61155-25.10377A7.61387,7.61387,0,0,1,363.80324,120.36827Z"/><path class="cls-37" d="M214.41162,356.6643a9.14039,9.14039,0,0,1,2.75794-1.88267l-3.8008-12.215-4.84294,9.36615Z"/><path class="cls-38" d="M256.91043,153.3416l-5.00611-11.93745-2.2936-5.4596a8.89519,8.89519,0,0,1-7.86271-1.32945l-15.5042,17.32517-1.34049,1.501a9.08581,9.08581,0,0,1,1.70622,6.03476,8.94794,8.94794,0,0,1-.922,3.28373l3.57317,1.95048,9.52308,5.1921,13.20748-26.41722Z"/><path class="cls-39" d="M297.55714,169.03l7.428-6.01143a8.77256,8.77256,0,0,1-.95974-7.85937L272.5823,140.34054,254.79982,131.964a9.10248,9.10248,0,0,1-3.30655,3.20717l19.254,45.89445,3.43151,6.87549Z"/><path class="cls-40" d="M431.85458,287.23275l29.57657-20.4866,24.31177-16.85338-65.3772-24.9406a9.17781,9.17781,0,0,1-5.72181,5.59615l9.828,52.63914c.1902.00777.36573-.02257.55612-.00774A9.10943,9.10943,0,0,1,431.85458,287.23275Z"/><path class="cls-41" d="M356.33616,339.1859l-26.39184-80.31021c-.02257,0-.04512.01483-.07559.01483l.95408,42.54536,21.07,42.21708A9.22277,9.22277,0,0,1,356.33616,339.1859Z"/><path class="cls-42" d="M198.58735,212.47634l-.63986-19.82412c-.28926.00377-.57185.03813-.86133.0155a9.00411,9.00411,0,0,1-3.66416-1.12019L142.35244,243.44a8.92261,8.92261,0,0,1-.09132,10.0182L156.394,265.10772l24.63739,20.308,18.70744-37.41744Z"/><path class="cls-43" d="M482.307,344.71756,434.94035,341.99a9.13588,9.13588,0,0,1-6.30852,7.20727l7.002,33.40936,9.56186,45.6371a50.34784,50.34784,0,0,0,14.55958-32.38816,1.01063,1.01063,0,0,1,.59443-.86133l.31984-.13653c.45726-.21363.92135-.42667,1.37866-.64743.8613-.4198,1.71478-.86929,2.545-1.349l3.375-9.18036Z"/><path class="cls-44" d="M496.32592,277.22141a1.015,1.015,0,0,1,.01485-.91363,25.59334,25.59334,0,0,0,1.04373-21.34861l-2.15557.81523-.64759.25141-5.94328,53.08136a25.99067,25.99067,0,0,0,10.1102-23.64156A25.44872,25.44872,0,0,0,496.32592,277.22141Z"/><path class="cls-45" d="M425.2185,349.57871a9.15033,9.15033,0,0,1-7.03176-4.3206l-9.36345,4.564-15.71054,7.66455,9.22659,14.25523,38.9017,60.08984c.76225-.62483,1.501-1.26473,2.21739-1.927l-16.83805-80.34946A9.62383,9.62383,0,0,1,425.2185,349.57871Z"/><path class="cls-46" d="M214.70331,339.98606l4.41655,14.18631a8.942,8.942,0,0,1,10.60454,6.88925l.00126.00595,63.60979-7.44357,9.3411-1.09692a8.63414,8.63414,0,0,1-.03037-1.54719,9.28649,9.28649,0,0,1,.305-1.67585l-43.88182-19.1012H219.762Z"/><path class="cls-47" d="M219.55452,198.789l-14.9029-9.196a9.1674,9.1674,0,0,1-4.67786,2.80781l1.18894,36.63559.49248,15.1285,21.55736-43.1183Z"/><path class="cls-48" d="M320.56587,254.09075a9.07561,9.07561,0,0,1-1.05147-5.00544c0-.02256.0155-.0421.0155-.06472l-18.85239-7.98505,8.82442,17.681Z"/><path class="cls-49" d="M378.53765,122.52778a7.63021,7.63021,0,0,1-7.76364,4.99084c-.12945-.01177-.24336-.05012-.37281-.06872l-7.581,25.032a9.09473,9.09473,0,0,1,3.76354,2.50659l21.94239-13.958,15.84774-10.07983a8.03368,8.03368,0,0,1-.29035-2.78057,7.80491,7.80491,0,0,1,.16781-.93778Z"/><path class="cls-50" d="M484.84414,343.94044l4.41879,15.32888a50.11592,50.11592,0,0,0-.2589-21.90427Z"/><path class="cls-51" d="M492.40939,257.13817l-59.32823,32.74638a9.1404,9.1404,0,0,1,.33524,3.17683,9.04337,9.04337,0,0,1-1.55395,4.33533l34.62028,30.0563,16.45708,14.29358.68576-6.12585,1.10466-9.85133a50.52564,50.52564,0,0,0-7.002-10.28576,1.01763,1.01763,0,0,1,.56409-1.6681,25.584,25.584,0,0,0,8.12933-3.20034l2.95613-26.43764Z"/><path class="cls-52" d="M353.068,117.10718l10.8873,1.22636a7.61945,7.61945,0,0,1,5.64533-5.8169l-2.33883-20.00372a29.6729,29.6729,0,0,0-17.72866-10.87576,1.07094,1.07094,0,0,1-.35107-.14121c-.44949-.28172-.91361-.55544-1.37864-.81143l-2.13383,27.47A9.11027,9.11027,0,0,1,353.068,117.10718Z"/><path class="cls-53" d="M362.30221,356.32874a8.02257,8.02257,0,0,1-4.03729.09153l15.40625,30.869Z"/><path class="cls-54" d="M338.48493,109.80792a9.09014,9.09014,0,0,1,5.15081-1.8133l1.02115-13.08893,1.1805-15.20721a29.46233,29.46233,0,0,0-15.95391-2.583c-.00777,0-.47189.07645-.49537.08422a.97284.97284,0,0,1-.6778-.15294,29.90843,29.90843,0,0,0-19.48191-4.48746,29.45076,29.45076,0,0,0-4.82205.99851l11.73277,12.4796Z"/><path class="cls-55" d="M372.01614,112.29191a7.61635,7.61635,0,0,1,6.31626,4.50319l7.268-2.49573,9.88942-3.39786a29.54284,29.54284,0,0,0-26.03352-17.18095l2.17123,18.579C371.757,112.30364,371.88669,112.28015,372.01614,112.29191Z"/><path class="cls-56" d="M251.46211,119.17137a9.1776,9.1776,0,0,1,4.4875,6.05333l20.55595-2.13688,58.3306-6.05717c0-.22076-.0306-.43775-.01574-.66251a9.10656,9.10656,0,0,1,2.17128-5.181L301.96816,73.93857A44.172,44.172,0,0,0,275.5,68.76519c-1.07431.12571-2.19387.30522-3.322.51821l-18.97041,45.6829Z"/><path class="cls-57" d="M232.42263,114.24239a6.75115,6.75115,0,0,1-.419,1.76787l8.0154,5.30266a9.12922,9.12922,0,0,1,7.75587-3.26883,9.36654,9.36654,0,0,1,1.81307.33558l15.81733-38.09448,4.3425-10.45354a44.07387,44.07387,0,0,0-8.36586,3.04433,1.048,1.048,0,0,1-.891,0,1.02684,1.02684,0,0,0-.09908-.04609l-30.44541,35.69845A6.63758,6.63758,0,0,1,232.42263,114.24239Z"/><path class="cls-58" d="M494.61193,253.58763l1.73662-.9675a24.36592,24.36592,0,0,0-1.85142-3.00907l.01574.55634Z"/><path class="cls-59" d="M420.89857,221.52018a8.08013,8.08013,0,0,1,.02351,1.05859c-.00772.12967-.05386.252-.06871.3777l1.1805.44927,65.08063,24.826.0991-.62793.74651-4.66323a1.031,1.031,0,0,1-.20524-.70438,25.74818,25.74818,0,0,0-5.08188-21.177l-60.8598.45328Z"/><path class="cls-60" d="M206.16835,90.39564a9.13155,9.13155,0,0,1-1.92788,4.90636l17.32518,13.348a6.59926,6.59926,0,0,1,4.79268-1.53935,6.51714,6.51714,0,0,1,1.20377.22167l25.94253-37.14249a44.15385,44.15385,0,0,0-17.47845-1.45112c-.365.0421-.71611.10282-1.06632.156l-.30433.04587-29.074,17.50012A9.03924,9.03924,0,0,1,206.16835,90.39564Z"/><path class="cls-61" d="M492.47038,249.67977l-.068-2.67439a27.60374,27.60374,0,0,0-2.636-2.49507l-.76224,4.7614,3.54283,3.50845Z"/><path class="cls-62" d="M474.26188,197.41431a38.34826,38.34826,0,0,0-17.341-20.30861,1.04433,1.04433,0,0,1-.52578-.86445c-.02257-1.143-.09905-2.29759-.23558-3.45146a37.9673,37.9673,0,0,0-21.813-30.1898,1.0197,1.0197,0,0,1-.56409-.69352,29.81517,29.81517,0,0,0-1.53157-4.76144l-.18242-.07645-12.3963-5.10475a8.01058,8.01058,0,0,1-1.11243,1.9505l22.10206,25.20346Z"/><path class="cls-63" d="M412.724,195.07149l.02258,17.67944a9.14009,9.14009,0,0,1,7.86271,6.73518l60.28087-.45394a25.27178,25.27178,0,0,0-4.10692-3.44682,1.0379,1.0379,0,0,1-.44924-.96055,38.53718,38.53718,0,0,0-.02258-8.5866c-.15291-1.26849-.38166-2.57541-.69373-3.98434l-4.43448-5.05953L417.07431,135.3086a8.09221,8.09221,0,0,1-4.42676,1.61486Z"/><path class="cls-64" d="M141.04936,241.85851l50.70352-51.515a9.04268,9.04268,0,0,1-1.249-12.2666l-59.26751-58.372a9.13572,9.13572,0,0,1-3.84,1.94251l4.66323,66.11283,3.63391,51.54224A9.05216,9.05216,0,0,1,141.04936,241.85851Z"/><path class="cls-65" d="M426.69686,331.33118a9.13539,9.13539,0,0,1,8.36586,8.62493l45.751,2.6354L445.14183,311.621l-14.59789-12.67023a9.04045,9.04045,0,0,1-4.167,2.24l.3043,30.14043Z"/><path class="cls-66" d="M40.16054,293.755l3.26819-30.72715a9.13158,9.13158,0,0,1-7.18471-6.4076L5.95931,262.14387a75.82183,75.82183,0,0,0-.68575,22.20125c.0381.35818.09905.71638.14427,1.06654l.06163.38147,31.359,39.24436Z"/><path class="cls-67" d="M363.35462,439.588c-.54569-.0379-1.09252-.04586-1.63912-.08644A13.74818,13.74818,0,0,0,363.35462,439.588Z"/><path class="cls-68" d="M37.3791,249.05871a8.98557,8.98557,0,0,1,11.51236-3.2837l71.3969-125.34978a9.1933,9.1933,0,0,1-2.72046-2.72758L94.84841,127.96011,68.80689,139.7196a76.2895,76.2895,0,0,0-17.91906,32.27355,1.02181,1.02181,0,0,1-.38856.57185,76.34051,76.34051,0,0,0-31.93091,59.0654.85442.85442,0,0,1-.18328.54058c-1.356,1.95824-2.666,4.061-3.901,6.27038l21.82068,10.1179Z"/><path class="cls-69" d="M38.05712,328.9385l-.49471,1.00627L34.62922,335.857a75.69819,75.69819,0,0,0,36.54,14.948l1.47772-.145,11.14642-1.08142L67.9994,342.455Z"/><path class="cls-70" d="M198.56475,174.40072a9.08986,9.08986,0,0,1,5.14288,2.13778l8.13642-10.587a9.14027,9.14027,0,0,1-3.4967-7.95388,9.28443,9.28443,0,0,1,.34244-1.8552L132.9504,117.67815c-.11371.17555-.22076.35108-.34244.518l59.27459,58.37672A9.11338,9.11338,0,0,1,198.56475,174.40072Z"/><path class="cls-71" d="M187.44874,400.57944l-4.68518-7.88507H170.66427A81.68759,81.68759,0,0,0,187.44874,400.57944Z"/><path class="cls-72" d="M224.5983,164.48866a9.0311,9.0311,0,0,1-11.00211,2.51836l-8.47956,11.04333a9.07723,9.07723,0,0,1,1.84343,6.22516l23.80932,1.65639,7.10246-14.2058Z"/><path class="cls-73" d="M211.73791,364.10787a8.61764,8.61764,0,0,1-.03125-1.72174,9.0713,9.0713,0,0,1,1.42541-4.13724l-5.5611-4.46908-6.57609,12.71741Z"/><path class="cls-74" d="M125.99444,103.64435a9.0967,9.0967,0,0,1,4.80041,1.85916l10.026-11.57683a72.91618,72.91618,0,0,0-19.00127,8.33542l.83005,1.75234A8.977,8.977,0,0,1,125.99444,103.64435Z"/><path class="cls-75" d="M133.6971,109.3203l26.78029-8.39557,27.78654-8.716a8.93727,8.93727,0,0,1-.35779-3.29169,9.13606,9.13606,0,0,1,8.723-8.36894l.42667-4.0342c-1.3784.08355-2.79607.20526-4.20506.373A73.48463,73.48463,0,0,0,157.217,91.13815a.95281.95281,0,0,1-.54834.20214c-1.55485.08354-3.09352.19749-4.6475.3808a75.85324,75.85324,0,0,0-7.75651,1.34117l-11.992,13.84341A9.0415,9.0415,0,0,1,133.6971,109.3203Z"/><path class="cls-76" d="M48.14472,262.6315a9.06108,9.06108,0,0,1-2.68148.52574l-1.19668,11.25324L38.682,326.9809l16.21281,7.32125,30.80359,13.89728-29.3711-66.91635Z"/><polygon class="cls-77" points="327.927 263.057 323.981 287.732 328.69 297.163 327.927 263.057"/><path class="cls-78" d="M327.83413,240.71946a8.89065,8.89065,0,0,1,1.554-.03036,9.0077,9.0077,0,0,1,1.83655.34311l21.71386-64.69188,2.43013-7.24162a9.14629,9.14629,0,0,1-4.70046-7.6956L321.655,159.66649a9.13561,9.13561,0,0,1-6.44572,7.21885l2.40045,14.04154Z"/><path class="cls-79" d="M304.90876,153.31965a9.12054,9.12054,0,0,1,8.503-4.34251,8.90513,8.90513,0,0,1,3.94621,1.30221l20.28911-26.5899a9.11261,9.11261,0,0,1-2.598-4.63186L256.15547,127.248a6.56479,6.56479,0,0,1,.01574.66625,8.82082,8.82082,0,0,1-.48763,2.2065Z"/><path class="cls-80" d="M133.64414,239.287l-8.27452-117.3911c-.28171.00377-.56344.04123-.85288.01863a8.97328,8.97328,0,0,1-2.40754-.571L50.63581,246.82584a9.18056,9.18056,0,0,1,3.3604,5.6041l54.45994-2.918,17.11159-.91828c-.0071-.31588-.04513-.6288-.02256-.95265A9.16854,9.16854,0,0,1,133.64414,239.287Z"/><path class="cls-81" d="M319.9559,246.98966a9.16346,9.16346,0,0,1,1.09763-2.20941l-.99855-1.11954-40.88476-45.71823,20.10672,40.28657Z"/><path class="cls-82" d="M321.41871,242.13712l.95242,1.06632a9.10823,9.10823,0,0,1,3.45946-2.09542L313.191,167.21623a8.53139,8.53139,0,0,1-1.25762.02328,9.05693,9.05693,0,0,1-5.66109-2.644l-31.15867,25.219.60274,1.20818Z"/><path class="cls-83" d="M189.03327,94.106,134.269,111.27854a9.19186,9.19186,0,0,1,.12168,2.2475,9.33823,9.33823,0,0,1-.53352,2.32042L209.505,154.26452a9.18224,9.18224,0,0,1,4.465-3.94685L207.92034,130.775l-9.91193-32.01446a8.85648,8.85648,0,0,1-1.714.03436A9.15032,9.15032,0,0,1,189.03327,94.106Z"/><path class="cls-84" d="M405.143,132.8745l-37.35552,23.7632a9.05516,9.05516,0,0,1-1.46286,10.80708l26.39172,29.97264,14.51445,16.48744a9.139,9.139,0,0,1,3.482-1.16164l-.09905-75.97171A8.12452,8.12452,0,0,1,405.143,132.8745Z"/><path class="cls-85" d="M206.54894,186.29052a9.32047,9.32047,0,0,1-.70065,1.63775l18.28144,11.28425,5.65246-11.30574Z"/><path class="cls-86" d="M359.04093,170.226a9.309,9.309,0,0,1-1.79047-.32759l-9.02814,26.9137-15.116,45.03159a9.18116,9.18116,0,0,1,4.63972,6.87169l59.71678-13.43911-14.93232-28.18241-19.78689-37.33666A9.08291,9.08291,0,0,1,359.04093,170.226Z"/><path class="cls-87" d="M264.16893,330.203l38.9875,16.9682.54835.23559a9.19052,9.19052,0,0,1,2.09787-2.58418L298.44389,330.203Z"/><path class="cls-88" d="M326.55391,258.70789a9.11188,9.11188,0,0,1-4.82237-2.89516l-11.31777,4.73108,12.00307,24.04978Z"/><path class="cls-89" d="M358.27178,338.554a8.9626,8.9626,0,0,1,2.60571-.20591,9.05709,9.05709,0,0,1,5.554,2.53718l30.89427-25.82075,20.0456-16.75338A9.14144,9.14144,0,0,1,415.154,291.576a8.79779,8.79779,0,0,1,.29746-1.63066L335.53673,255.8205a9.13238,9.13238,0,0,1-3.61927,2.52145L350.211,314.02084Z"/><path class="cls-90" d="M147.79254,371.71856a81.57886,81.57886,0,0,0,8.79957,10.08761l12.95948-7.35232-7.80951-.98209Z"/><polygon class="cls-91" points="188.387 376.108 189.177 374.535 190.959 370.996 191.968 368.988 202.07 348.9 202.876 347.304 210.689 331.768 211.821 329.518 212.085 328.993 213.706 325.77 215.327 322.546 215.34 322.546 218.941 322.546 222.551 322.546 223.544 322.546 225.439 322.546 229.813 322.546 282.688 322.546 294.878 322.546 295.868 322.546 276.921 284.715 276.412 283.703 274.965 280.811 273.972 280.811 244.534 280.811 243.544 280.811 239.928 280.811 236.34 280.811 236.317 280.811 237.942 277.588 239.563 274.362 251.728 250.184 255.461 242.757 253.913 239.772 232.643 198.717 232.643 198.717 226.109 211.788 225.639 212.719 221.513 220.971 221.158 221.687 199.279 265.446 194.821 274.362 193.206 277.588 191.594 280.811 184.726 294.549 184.116 295.767 184.116 295.767 183.072 297.856 174.946 314.108 174.231 315.545 171.926 320.148 170.727 322.546 169.115 325.77 167.507 328.993 164.222 335.559 163.136 337.718 162.114 339.768 162.053 339.891 159.474 345.055 152.119 359.763 139.261 385.475 173.544 385.475 183.672 385.475 185.125 382.593 186.054 380.743 188.387 376.108"/><path class="cls-92" d="M383.42142,429.34682a9.15716,9.15716,0,0,1,2.52316.39243l-26.8643-37.0449h-6.03506L374.903,434.98528A9.25348,9.25348,0,0,1,383.42142,429.34682Z"/><polygon class="cls-93" points="385.395 419.216 375.657 392.695 361.603 392.695 390.065 431.938 385.395 419.216"/><path class="cls-94" d="M350.74811,392.69437H329.8992l-5.55926-11.04419-8.803,33.95284a50.799,50.799,0,0,0,11.21552,14.76121c11.12936,2.12325,21.72495,6.28274,32.92518,8.673.69407.14807,3.73843.49639,3.677.55061.93818.06527,1.875.1507,2.81861.14888.76913.00052,1.53728-.0302,2.30488-.07793l.2575-.048c1.42037-.43758,2.85832-.86462,4.28157-1.29318.3883-.11688.77036-.21274,1.152-.30806Z"/><polygon class="cls-95" points="394.552 437.553 426.424 440.213 420.045 439.681 394.552 437.553"/><path class="cls-96" d="M403.45937,377.22723,392.739,360.664l1.81386,76.88935,25.49245,2.12608,6.37693.5328a49.96346,49.96346,0,0,0,13.20379-7.11588Z"/></svg>