<?xml version="1.0" encoding="UTF-8"?><svg id="a" xmlns="http://www.w3.org/2000/svg" viewBox="0 0 1554.80005 628.79999"><defs><style>.b{fill:none;}.c{fill:#fff;}</style></defs><path class="b" d="M570.63169,355.2857c-1.17008,3.49514-3.82405,7.13095,1.09597,10.29071,13.76105,8.8373,37.78739-2.07321,39.17929-18.03818,4.02638-46.18645,7.99417-92.3778,11.90326-138.57442-1.00375-.07538-2.00756-.1508-3.01144-.22618-16.39858,48.84608-32.78761,97.69544-49.16708,146.54807Z"/><polygon class="c" points="751.82029 179.43848 751.82023 179.43848 751.82023 179.43854 751.82029 179.43848"/><path class="c" d="M1208.5755,412.91242c18.83071,9.34871,37.23198,19.56283,55.37021,30.30668h.00013c7.36576-.02802,12.70638,4.6957,18.53348,8.27822-5.82698-3.58259-11.16772-8.3063-18.53336-8.27822-18.1381-10.74373-36.53931-20.95784-55.37046-30.30668Z"/><path class="c" d="M371.30178,273.31432c.10616-.65723,.24529-1.30867,.41685-1.95185,3.32889-11.12032-.15878-15.58902-12.3458-15.28663-27.29188,.67703-54.65647-.72485-81.90511,.55492-17.01279,.79901-19.90596-4.83065-16.37764-20.39021,9.11078-40.18011,16.84798-80.67159,25.13399-121.03871-1.55849,.40067-2.97272,.9841-4.28647,1.69349,1.31375-.70942,2.72798-1.29288,4.28647-1.69355h.00006c2.50029-4.78417,3.19394-11.14657,10.36073-11.85374,38.3741,.45859,76.74991,.80864,115.1206,1.46879,7.54892,.12982,10.45334-3.414,11.79832-10.26985,3.31325-16.88929,6.52168-33.83662,10.88449-50.46899,2.78781-10.62861-1.30251-12.70304-10.63139-12.39034-18.52424,.62103-37.06782,.66143-55.60311,.94177-51.86516-.27615-103.73256-.95284-155.59345-.6189-19.07037,.12277-43.30689-8.32003-55.7982,3.68332-11.23383,10.79512-10.40567,34.46453-14.21308,52.59891-14.06248,67.62075-28.10139,135.24617-42.11681,202.87617l-.00028,.00025c-21.31573,97.44071-42.48924,194.91259-64.13454,292.27951-2.58475,11.62714,3.02313,11.61291,11.36104,11.56777,39.29697-.21242,78.61387-.78151,117.88434,.25927,14.65664,.38833,20.41682-3.82948,23.43591-18.6074,16.11801-78.89136,33.75718-157.47149,50.09133-236.32057,2.39096-11.54151,6.76071-15.58153,18.2827-15.01027,16.61084,.82372,33.29292,.21246,49.94466,.21255q53.96329,.00025,64.0044-52.2357Z"/><path class="c" d="M1132.31501,105.22024c18.20169,1.71664,41.08413,7.95191,54.28152-2.81061,13.11001-10.69101,9.31648-34.70805,15.03555-52.23461,5.27602-16.16826-.56827-18.80377-15.60155-18.68636-80.59308,.62973-161.19365,.22339-241.79149,.35559-18.5728,.03042-41.68655-5.8428-54.49838,2.95474-14.11937,9.69549-9.81886,35.47971-15.57441,53.70523-3.91627,12.40128-2.03682,18.66014,13.04214,17.55164,15.23793-1.1202,30.69999,.71726,45.92202-.50575,17.15877-1.3788,21.70693,3.15489,17.52318,21.04137-11.20443,47.90082-20.28887,96.29741-30.21542,144.49706h.00006c-22.53009,103.833-45.1911,207.63722-67.98303,311.41286-2.1922,9.98202,1.14982,12.65425,10.87336,12.5656,41.90203-.41534,83.80071-.40571,125.69613,.0289,9.34015,.0967,12.65935-3.7295,14.41949-12.22581,17.23596-82.56961,34.51417-165.13129,51.83462-247.68498l-.00013-.00006c14.81727-67.58333,30.58899-134.98105,43.8824-202.86375,4.09007-20.88568,11.08065-29.18283,33.15394-27.10105Z"/><path class="c" d="M1513.58808,31.61259c-89.87858,.57466-179.76006,.72499-269.64041,1.00015-9.26271-2.61648-11.10898,2.75732-12.58657,10.40413-4.03875,20.89767-8.94905,41.62541-13.34333,62.45646-20.01975,95.03632-40.03397,190.07386-60.04245,285.11259l.00428,.00167c-15.7568,65.07404-29.97665,130.47632-41.98268,196.35148l-.00025,.00013c-3.23105,15.95959,9.42697,7.52265,13.64428,7.55533,74.51905,.57702,149.04383,.41735,223.56723,.41729,56.57826-.00019,56.21839-.06724,66.66177-55.99791,2.28617-12.24552,.74757-16.31242-12.76298-15.98289-36.57469,.89207-73.19433-.15828-109.77702,.55341-13.61916,.26506-19.48882-1.69826-14.85964-17.39405,4.85445-16.4605,6.74234-33.79552,9.92743-50.74959h-.00013c10.04907-36.74046,18.01583-74.01894,23.86201-111.65754,2.37859-15.21388,10.92722-19.89144,26.22184-18.51016,17.83476,1.61084,35.92678,.3769,53.9071,.37694,54.33554,.00013,53.80234-.11222,65.10587-53.74187,2.89114-13.71753-1.13011-15.93643-13.27414-15.71597-31.28878,.56792-62.60249-.21724-93.8897,.39504-12.68472,.24825-18.07124-2.14344-14.67422-16.62649,9.42011-40.16417,17.99292-80.54139,26.01502-121.00993,2.33653-11.78767,7.93522-14.71016,19.09382-14.34369,23.28248,.76486,46.60783,.23514,69.91562,.23545q57.46359,.0006,68.38445-56.71271c.1375-1.32444,.37095-2.63718,.69872-3.92777,3.44889-9.79283-.16218-12.55344-10.17593-12.48948Z"/><path class="c" d="M601.44738,586.06853c-.75625,.29868-1.54808,.55228-2.39065,.74134v.00006c.84256-.18907,1.6344-.44266,2.39065-.7414Z"/><path class="c" d="M625.57337,118.71015c-7.52105-3.9768-15.05492-7.92793-22.61796-11.82138,7.56304,3.89345,15.09691,7.84464,22.61796,11.82138Z"/><path class="c" d="M747.75604,447.11504c3.01095-89.20051,4.6465-178.42165,4.06413-267.67656h.00006c1.04553-43.89537,1.56585-87.81307,3.44014-131.67292,.60176-14.08543-4.89994-16.39201-17.24182-16.20926-42.59476,.63094-85.20446,.24433-127.8085,.24463q-48.50475,.00025-64.61655,45.4862c-.13853,.65205-.19169,1.31945-.15823,1.98524-2.31584,4.77863-4.88133,9.45475-6.91195,14.35263-59.36807,143.23829-118.71223,286.4865-178.03255,429.74459-9.59315,23.16701-19.09215,46.37324-29.44685,71.53574,48.12841,0,93.37814-.24982,138.62104,.20159,9.54985,.09532,12.27371-4.94461,15.04022-12.39599,11.58028-31.1905,23.67213-62.19061,35.45737-93.30563,17.52329-46.26489,17.48611-45.54826,66.26146-45.94059,16.04536-.129,18.66301,5.57779,17.82516,19.78171-2.4271,41.14677-3.55466,82.37016-5.19245,123.56346,.84256-.18907,1.6344-.44266,2.39065-.74134-.75625,.29874-1.54808,.55234-2.39065,.7414v-.00006c-3.14467,9.20038,3.75407,8.01184,8.70584,8.02532,42.39951,.1154,84.80176-.16741,127.19743,.24686,9.85484,.09626,12.37169-3.88501,12.3534-12.91244-.09101-45.01768,.25218-90.03639,.4427-135.05457m-132.88708,127.19313-3.96207-226.76995c-1.3919,15.96498-25.41823,26.87548-39.17929,18.03818-4.92002-3.15975-2.26605-6.79557-1.09597-10.29071,16.37947-48.85263,32.7685-97.70199,49.16708-146.54807,1.00388,.07538,2.00768,.1508,3.01144,.22618-3.90909,46.19661-7.87687,92.38797-11.90326,138.57442Z"/></svg>