<?xml version="1.0" encoding="UTF-8" standalone="no"?>
<svg
   xmlns:dc="http://purl.org/dc/elements/1.1/"
   xmlns:cc="http://creativecommons.org/ns#"
   xmlns:rdf="http://www.w3.org/1999/02/22-rdf-syntax-ns#"
   xmlns:svg="http://www.w3.org/2000/svg"
   xmlns="http://www.w3.org/2000/svg"
   xmlns:sodipodi="http://sodipodi.sourceforge.net/DTD/sodipodi-0.dtd"
   xmlns:inkscape="http://www.inkscape.org/namespaces/inkscape"
   id="Layer_1"
   data-name="Layer 1"
   viewBox="0 0 445.44888 161.43843"
   version="1.1"
   sodipodi:docname="datapractices-stacked-white.svg"
   inkscape:version="1.0.1 (c497b03c, 2020-09-10)"
   inkscape:export-filename="/Users/johnmertic/Code/lfaidata-artwork/projects/datapractices/stacked/white/datapractices-stacked-white.png"
   inkscape:export-xdpi="798.66998"
   inkscape:export-ydpi="798.66998">
  <metadata
     id="metadata54">
    <rdf:RDF>
      <cc:Work
         rdf:about="">
        <dc:format>image/svg+xml</dc:format>
        <dc:type
           rdf:resource="http://purl.org/dc/dcmitype/StillImage" />
      </cc:Work>
    </rdf:RDF>
  </metadata>
  <defs
     id="defs52" />
  <sodipodi:namedview
     pagecolor="#ffffff"
     bordercolor="#666666"
     borderopacity="1"
     objecttolerance="10"
     gridtolerance="10"
     guidetolerance="10"
     inkscape:pageopacity="0"
     inkscape:pageshadow="2"
     inkscape:window-width="1300"
     inkscape:window-height="962"
     id="namedview50"
     showgrid="false"
     inkscape:zoom="2.4604394"
     inkscape:cx="215.40868"
     inkscape:cy="80.719215"
     inkscape:window-x="41"
     inkscape:window-y="25"
     inkscape:window-maximized="0"
     inkscape:current-layer="Layer_1" />
  <rect
     x="179.50846"
     y="17.18949"
     width="57.52767"
     height="16.5392"
     id="rect2"
     style="fill:#ffffff" />
  <rect
     x="206.81151"
     y="45.23784"
     width="57.52768"
     height="16.5392"
     id="rect4"
     style="fill:#ffffff" />
  <rect
     x="179.50846"
     y="73.30877"
     width="57.52767"
     height="16.5392"
     id="rect6"
     style="fill:#ffffff" />
  <rect
     x="179.50846"
     y="45.01696"
     width="16.98096"
     height="16.98096"
     id="rect8"
     style="fill:#ffffff" />
  <rect
     x="247.35822"
     y="16.96862"
     width="16.98096"
     height="16.98096"
     id="rect10"
     style="fill:#ffffff" />
  <rect
     x="247.35822"
     y="73.30877"
     width="16.98096"
     height="16.98096"
     id="rect12"
     style="fill:#ffffff" />
  <g
     id="ynyR6f.tif"
     style="fill:#ffffff">
    <path
       d="M346.72685,134.64523c.004-8.30235,5.96625-14.03084,14.486-13.97323,4.16971.02819,7.918,1.17421,10.89242,4.23549a11.702,11.702,0,0,1,3.09226,5.81865,16.30129,16.30129,0,0,1-.72235,9.90808,12.28184,12.28184,0,0,1-8.3156,7.32327c-4.84371,1.3701-9.57772,1.126-13.89363-1.73154-3.57422-2.36648-5.19487-5.88083-5.53353-10.05072C346.69133,135.66839,346.72685,135.15538,346.72685,134.64523Zm20.57584-.03336.236-.0516a33.14116,33.14116,0,0,0-1.04614-4.236,5.07844,5.07844,0,0,0-4.431-3.37874c-2.33322-.2488-4.46465.22678-5.73821,2.39133a10.10572,10.10572,0,0,0-.2907,10.08012,5.77512,5.77512,0,0,0,10.23278.06808A9.09424,9.09424,0,0,0,367.30269,134.61187Z"
       id="path14"
       style="fill:#ffffff" />
    <path
       d="M431.58773,130.74976c-.86208,0-1.72893,0-2.59579,0-1.47993-.00005-2.96-.01-4.43979.0055-.47579.005-.73576-.08016-.87517-.63728a3.93033,3.93033,0,0,0-3.95821-3.18982c-3.61921-.20673-5.85929,1.55757-6.55859,5.15732a13.36323,13.36323,0,0,0,.24418,6.50541c1.43675,4.748,6.861,4.77316,9.41868,3.07149a3.51433,3.51433,0,0,0,1.58669-2.928h-4.97181v-5.53647c.28767-.02188.55056-.059.81345-.05927,3.715-.00381,7.43.013,11.14479-.01642.70174-.00555.97834.18486.92919.91159a47.1154,47.1154,0,0,1-.32041,5.38493,10.39461,10.39461,0,0,1-7.76457,8.52958,17.15909,17.15909,0,0,1-12.37249-.6696c-4.56447-2.10748-6.73534-5.92031-7.18052-10.785a15.06918,15.06918,0,0,1,1.08887-7.85368c2.27011-4.906,6.25641-7.4,11.54435-7.9336a15.99147,15.99147,0,0,1,9.05819,1.562A9.54014,9.54014,0,0,1,431.58773,130.74976Z"
       id="path16"
       style="fill:#ffffff" />
    <path
       d="M11.53518,148.242v-1.10585c0-8.32884.01246-16.65772-.01836-24.98645-.00325-.87779.17263-1.19291,1.13582-1.165,3.83083.11094,7.67442-.025,11.49424.22222,4.3568.282,8.08646,1.93178,10.35842,5.93609a13.54578,13.54578,0,0,1,1.63073,7.65547,20.9981,20.9981,0,0,1-1.06686,5.80317c-1.48155,4.07671-4.721,6.26666-8.8632,7.15769a23.44508,23.44508,0,0,1-4.39075.46178c-3.07846.06814-6.1595.02081-9.23949.02089Zm8.069-6.04421c1.16448-.06236,2.22477-.04467,3.26217-.18952a5.20793,5.20793,0,0,0,4.66772-4.247,13.5435,13.5435,0,0,0-.00706-6.411,4.818,4.818,0,0,0-2.30418-3.29971c-1.76726-.98464-3.67766-.92052-5.61865-.82526Z"
       id="path18"
       style="fill:#ffffff" />
    <path
       d="M387.48964,148.194h-7.87275V121.08148c.27431-.02714.50375-.06945.7332-.0696,3.441-.00225,6.88263-.03628,10.32284.01725a16.22618,16.22618,0,0,1,5.92556,1.06551,7.29779,7.29779,0,0,1,4.82263,6.95294c.04212,1.82481.03641,3.6724-1.19,5.14179a20.42984,20.42984,0,0,1-2.76082,2.40672,5.43331,5.43331,0,0,1-.83915.46577c2.14977,3.7128,4.26587,7.36752,6.47347,11.1802h-3.53157c-1.32814,0-2.65769-.03661-3.98374.01551a1.268,1.268,0,0,1-1.33941-.76721c-1.44879-2.63282-2.95248-5.23572-4.44338-7.84546-.68364-1.19672-.79492-1.23626-2.31692-.91652Zm.05123-21.04564v6.36248a37.90622,37.90622,0,0,0,4.08634-.39431,2.7666,2.7666,0,0,0,2.17021-3.10394c-.05685-1.67336-.79288-2.6435-2.42784-2.83543A33.49532,33.49532,0,0,0,387.54087,127.1484Z"
       id="path20"
       style="fill:#ffffff" />
    <path
       d="M148.14,138.7149v9.47481h-7.82048V121.08713a5.985,5.985,0,0,1,.67925-.07468c3.503-.00227,7.01042-.10041,10.50734.04665a18.35408,18.35408,0,0,1,5.39281.95489c3.78248,1.36474,5.24683,3.90561,5.21306,7.93509a7.13325,7.13325,0,0,1-4.37865,6.86209c-.12888.06245-.2483.14423-.43462.25374,2.14042,3.69714,4.25694,7.353,6.47088,11.17715h-3.37171c-1.29853,0-2.5995-.04781-3.89471.0174a1.57545,1.57545,0,0,1-1.69573-.94479c-1.37217-2.53876-2.896-4.99725-4.2343-7.55269A1.77881,1.77881,0,0,0,148.14,138.7149Zm.059-5.24919c1.29913-.07115,2.47761-.07675,3.64032-.21436a2.74024,2.74024,0,0,0,2.54057-2.42322c.24811-1.6458-.18178-2.8388-1.32141-3.34161-1.56984-.69262-3.2252-.43612-4.85948-.42333Z"
       id="path22"
       style="fill:#ffffff" />
    <path
       d="M285.93313,131.20449q-2.25925,0-4.51384-.00006c-.9662-.00015-1.93428.03145-2.89728-.02417a.88428.88428,0,0,1-.66868-.48145c-.39583-2.08219-1.4846-3.47407-3.68833-3.74649a4.79026,4.79026,0,0,0-5.374,2.80469,11.079,11.079,0,0,0,.31641,10.3079c1.18,2.0981,3.23554,2.49306,5.4248,2.19567a4.32554,4.32554,0,0,0,3.86175-3.63946c.06137-.2675.4077-.66671.62881-.67116,2.40846-.04844,4.81829-.03032,7.316-.03032a10.15029,10.15029,0,0,1-1.30625,5.04128,10.55078,10.55078,0,0,1-7.73221,5.39543,18.28972,18.28972,0,0,1-9.821-.60573c-4.74392-1.71082-7.20589-5.2768-7.85983-10.11361a16.13629,16.13629,0,0,1,1.162-9.52259c2.24615-4.56741,6.02955-6.91472,11.00422-7.40143a14.51068,14.51068,0,0,1,10.04033,2.19307,10.15967,10.15967,0,0,1,4.1921,7.849A2.02384,2.02384,0,0,1,285.93313,131.20449Z"
       id="path24"
       style="fill:#ffffff" />
    <path
       d="M219.99535,137.92147a10.15563,10.15563,0,0,1-6.47427,9.61974,16.92023,16.92023,0,0,1-14.20034-.62516,10.48128,10.48128,0,0,1-5.45354-6.766c-1.15627-4.07191-1.2515-8.14079.60837-12.04926,2.18748-4.597,6.02736-6.91112,11.00247-7.38951,3.59071-.34526,7.0852.10095,10.10944,2.26186,2.73951,1.95748,3.86158,4.79658,4.13,8.10815a4.33113,4.33113,0,0,1-.66853.11685c-2.2646.00761-4.52954.02194-6.79348-.01747a.96938.96938,0,0,1-.73809-.50761c-.73417-2.47447-1.75415-3.52912-3.70695-3.72934-2.43193-.24935-4.39754.62645-5.36248,2.83459a11.13551,11.13551,0,0,0,.29212,10.231c1.03867,1.886,3.12119,2.66683,5.48634,2.262a4.4022,4.4022,0,0,0,3.83786-3.67508c.05628-.25362.36381-.64212.56083-.64572C215.06236,137.906,217.50068,137.92147,219.99535,137.92147Z"
       id="path26"
       style="fill:#ffffff" />
    <path
       d="M192.46616,148.21089h-8.33495l-1.44959-5.01136h-3.05284c-1.6299,0-3.26071.03124-4.88929-.015-.67454-.01915-1.019.12567-1.17943.852a34.47466,34.47466,0,0,1-1.05746,3.62575.9911.9911,0,0,1-.71756.55441c-2.23094.04315-4.46308.02512-6.77444.02512a4.95343,4.95343,0,0,1,.11072-.61384q4.14549-12.90132,8.285-25.80455a.9825.9825,0,0,1,1.12651-.83139c2.86688.03952,5.73473.029,8.602.00611a.8381.8381,0,0,1,.972.66866q4.1453,13.08816,8.32356,26.166A2.33112,2.33112,0,0,1,192.46616,148.21089Zm-11.34332-10.49754c-.94446-3.30958-1.86143-6.52287-2.77841-9.73617l-.17208.02943-2.79331,9.70674Z"
       id="path28"
       style="fill:#ffffff" />
    <path
       d="M111.82377,148.24121c-2.70049,0-5.2949.0136-7.88854-.02486a.91506.91506,0,0,1-.621-.55515c-.4652-1.45679-.87265-2.93186-1.31652-4.46026-2.81863,0-5.62316-.01284-8.427.02625-.20707.00288-.51826.34532-.59518.58826-.46027,1.45343-.866,2.924-1.29262,4.39773h-7.41c.45457-1.43809.88723-2.82812,1.3331-4.21393,2.37229-7.3732,4.75744-14.74233,7.10582-22.12307.20777-.653.4713-.89577,1.17863-.88508,2.8372.04288,5.67557.03152,8.5132.006.56068-.005.86072.1252,1.04333.70285q4.12536,13.05025,8.29,26.08821C111.77217,147.89873,111.78178,148.01735,111.82377,148.24121ZM97.67216,127.97537l-.1685-.0115-2.79884,9.7428H100.438Z"
       id="path30"
       style="fill:#ffffff" />
    <path
       d="M64.19224,148.19845h-8.3478L54.396,143.22323H45.535c-.40523,1.38114-.848,2.77224-1.2116,4.18355-.16065.62352-.4097.86937-1.09518.85347-2.14049-.04966-4.28288-.01823-6.50434-.01823a6.26514,6.26514,0,0,1,.13717-.72062q4.10665-12.78018,8.20569-25.56276a1.13214,1.13214,0,0,1,1.30379-.97105c2.80771.05422,5.61729.03745,8.42573.00787a.8861.8861,0,0,1,1.03163.71143q4.08675,12.92718,8.20815,25.84351C64.09747,147.7437,64.132,147.94547,64.19224,148.19845ZM52.83387,137.71173l-2.77846-9.74621-.16305.021-2.80075,9.72521Z"
       id="path32"
       style="fill:#ffffff" />
    <path
       d="M334.02546,129.24008h-7.2004c-.06429-.16722-.12466-.30428-.17034-.446a3.61739,3.61739,0,0,0-5.25128-2.08894,2.0401,2.0401,0,0,0-1.16173,1.97934A1.81484,1.81484,0,0,0,321.625,130.486a34.56479,34.56479,0,0,0,3.42787.75685c1.4442.29566,2.9132.497,4.3329.88066,4.39559,1.18789,5.86909,4.47134,5.4044,8.54548-.46988,4.11978-3.109,6.50873-6.94391,7.50964a16.42082,16.42082,0,0,1-11.14872-.83816,8.00226,8.00226,0,0,1-4.56381-7.72665,5.85453,5.85453,0,0,1,.67911-.07773c1.99322-.00642,3.98655.00793,5.97961-.01153.55317-.00541.83659.08331.95255.74389a2.98375,2.98375,0,0,0,2.72909,2.61289,9.62519,9.62519,0,0,0,2.94922-.09668,2.39884,2.39884,0,0,0,1.8539-2.38292,1.99266,1.99266,0,0,0-1.84407-2.01716c-1.76132-.39152-3.56069-.61107-5.32689-.98361a18.766,18.766,0,0,1-3.02415-.90368c-2.82921-1.12039-4.14089-3.28978-4.36046-6.2695-.42394-5.75255,3.43275-8.63055,7.894-9.35559a16.307,16.307,0,0,1,7.87055.54012A7.96428,7.96428,0,0,1,334.02546,129.24008Z"
       id="path34"
       style="fill:#ffffff" />
    <path
       d="M308.97291,121.06511c0,1.92044.00484,3.77665-.00263,5.63281-.00261.64492-.51411.47246-.86593.47377-3.01946.01126-6.039.00657-9.05848.00664h-1.06493V131.632H306.646v5.70542h-8.68912v4.78967h11.54364v6.05626H290.05674V121.06511Z"
       id="path36"
       style="fill:#ffffff" />
    <path
       d="M123.05,139.26359v8.90551h-7.86972V121.11a3.18789,3.18789,0,0,1,.57759-.09585c4.07468.04562,8.15671-.03366,12.22162.19171,3.42441.18985,6.40277,1.48517,7.79649,4.92331a10.09322,10.09322,0,0,1-.22888,8.56473c-1.30945,2.61673-3.73168,3.78581-6.51043,4.1633C127.10349,139.1198,125.1359,139.13139,123.05,139.26359Zm-.0191-12.279c0,2.17827.00919,4.15375-.00641,6.129-.00393.499.249.61272.67428.59305.871-.04027,1.74917-.01512,2.61235-.11753,1.68957-.20045,2.59852-1.33216,2.64607-3.18581.04854-1.89118-.70492-2.98462-2.40463-3.2349C125.43532,127.00391,124.28786,127.04258,123.03093,126.98458Z"
       id="path38"
       style="fill:#ffffff" />
    <path
       d="M243.4605,127.17131h-6.93344v21.0092h-7.99523V127.2279H221.5531V121.071h21.9074Z"
       id="path40"
       style="fill:#ffffff" />
    <path
       d="M63.30515,127.17612v-6.11884H85.202v6.081H78.28738v21.046H70.24632V127.17612Z"
       id="path42"
       style="fill:#ffffff" />
    <path
       d="M255.21319,121.00882v27.15565h-7.93962c-.01205-.25741-.03729-.5457-.03738-.834-.00213-8.4475.00971-16.895-.02011-25.34242-.00286-.80694.22767-1.01585,1.01874-.99776C250.52252,121.04263,252.81219,121.00882,255.21319,121.00882Z"
       id="path44"
       style="fill:#ffffff" />
    <path
       d="M345.25318,144.8341a4.00019,4.00019,0,0,1-7.99642-.10458,3.9995,3.9995,0,0,1,7.99642.10458Z"
       id="path46"
       style="fill:#ffffff" />
  </g>
</svg>
