<svg id="Layer_1" data-name="Layer 1" xmlns="http://www.w3.org/2000/svg" viewBox="0 0 579.80865 448.95034"><defs><style>.cls-1{fill:none;}</style></defs><path d="M100.827,332.9936l-5.24742,11.57307a55.82491,55.82491,0,0,0-29.78527-9.1051c-13.89027,0-22.99736,5.24841-22.99736,14.35451,0,27.77776,60.80751,13.27238,60.65473,52.473,0,18.05657-15.898,29.63172-39.04709,29.63172a61.66376,61.66376,0,0,1-41.36132-16.51318l5.55492-11.11181c10.03457,9.7223,23.76909,15.27909,35.96015,15.27909,15.58847,0,25.31158-6.32754,25.31158-16.6705.15276-28.39535-60.65276-13.2704-60.65276-52.00812,0-16.97623,14.96951-27.93529,37.34789-27.93529,12.50155,0,25.31059,4.01244,34.262,10.03259m45.67928,44.44717c0,23.76721,20.06416,42.75223,44.13978,42.75223,24.07662,0,43.8293-18.985,43.8293-42.75223,0-23.768-19.75268-42.59521-43.8293-42.59521C166.57041,334.84558,146.50625,353.67279,146.50625,377.44079Zm100.62438,0c0,30.40326-25.00209,54.6347-56.4846,54.6347-31.63823,0-56.64131-24.23145-56.64131-54.6347,0-30.5579,25.00308-54.326,56.64131-54.326,31.48251,0,56.4846,23.92284,56.4846,54.326m74.07582-39.97151-24.07562,54.78757h48.46269Zm-29.324,66.67081-12.03633,27.31929H266.72556L315.1873,323.42426h12.811l48.305,108.03512h-13.425l-12.03829-27.3193H291.88241m161.27515-5.09148c0,20.98748-11.57507,33.02686-30.86749,33.02686-12.03633,0-22.37736-5.71144-29.938-15.43374l6.17189-9.878c6.79187,8.17971,15.28,12.50164,23.61336,12.50164,11.88258,0,18.51869-7.10018,18.51869-20.52632V335.30682H402.07513V323.42426h51.08243v75.62436m111.888-66.055-5.24842,11.57307a55.828,55.828,0,0,0-29.78625-9.1051c-13.88929,0-22.99638,5.24841-22.99638,14.3545,0,27.77777,60.80953,13.27239,60.65378,52.473,0,18.05657-15.894,29.63172-39.0451,29.63172a61.67283,61.67283,0,0,1-41.36332-16.51318l5.55693-11.11181c10.03357,9.7223,23.7681,15.27909,35.96114,15.27909,15.5885,0,25.31161-6.32754,25.31161-16.6705.15275-28.39535-60.65278-13.2704-60.65278-52.00812,0-16.97623,14.96952-27.93529,37.34689-27.93529,12.50155,0,25.3106,4.01244,34.26194,10.03259"/><path class="cls-1" d="M348.50391,146.31214c0,6.481,5.54574,11.75144,12.36334,11.75144s12.36328-5.27048,12.36328-11.75144c0-6.47858-5.54574-11.74959-12.36328-11.74959S348.50391,139.83356,348.50391,146.31214Zm18.31279,0c0,2.94361-2.669,5.33868-5.94945,5.33868-3.2819,0-5.951-2.39507-5.951-5.33868,0-2.94188,2.66907-5.33622,5.951-5.33622C364.1477,140.97592,366.8167,143.37026,366.8167,146.31214Z"/><path class="cls-1" d="M366.1275,120.0186a22.40254,22.40254,0,0,0,4.11672-10.66341l.08363-.76564-.26958-.721a39.01567,39.01567,0,0,0-36.50592-25.24,36.83547,36.83547,0,0,0-36.52921,33.69123A42.7667,42.7667,0,0,0,257.816,153.0168a30.43133,30.43133,0,1,0-24.42747,48.57281H336.06426v-6.41837h-16.4025a29.17913,29.17913,0,0,0,10.63035-27.0405,37.86609,37.86609,0,0,0,18.49154,4.77977l11.36694.14707h.06053c.21631.00621.43553.0101.65613.0101,15.68267,0,28.44391-12.00194,28.44391-26.75554,0-13.06092-10.00425-23.96566-23.18372-26.29354ZM257.4286,195.17117H233.38847a24.02168,24.02168,0,1,1,24.04013-24.01524Zm68.4353-38.69325a29.04688,29.04688,0,0,0-2.57244-3.36091,25.98144,25.98144,0,0,1-4.21949-14.13113H312.6592a31.93478,31.93478,0,0,0,.74967,6.85661,29.21971,29.21971,0,0,0-11.94729-2.57646v6.41508a22.794,22.794,0,0,1,16.74858,7.3629,33.57179,33.57179,0,0,0,2.51837,3.30078,22.75366,22.75366,0,0,1-19.28438,34.81965l-37.63275.01023V158.89992a36.3249,36.3249,0,0,1,36.28815-36.27225h3.2118V119.417a30.40152,30.40152,0,0,1,30.2511-30.37454,32.76035,32.76035,0,0,1,30.20748,20.35313,16.06482,16.06482,0,0,1-6.27686,10.35205c-.7397.08106-1.4722.18865-2.19031.3239a29.3137,29.3137,0,0,0-8.93,3.2157l-.44265.22363-.06634.06806a27.74259,27.74259,0,0,0-9.59183,9.28488,25.53138,25.53138,0,0,0-3.84858,13.44833,25.815,25.815,0,0,0,8.16141,18.763q.2618.24912.5321.49388A29.98752,29.98752,0,0,1,325.8639,156.47792ZM382.896,146.31214c0,11.21519-9.87593,20.33828-22.02005,20.3429l-.48451-.00739c-.03168,0-.062,0-.098-.00172v.00172h-.03749v-.00172c-12.00426-.29572-21.426-9.22455-21.426-20.33379a19.94222,19.94222,0,0,1,10.60124-17.38893l.21631-.119a23.15508,23.15508,0,0,1,9.25155-2.7498l.02158-.00178c.62874-.05287,1.2848-.07928,1.94667-.07928C373.01283,125.9734,382.896,135.097,382.896,146.31214Z"/><path d="M358.92058,126.05268l-.02158.00178a23.15508,23.15508,0,0,0-9.25155,2.7498l-.21631.119a19.94222,19.94222,0,0,0-10.60124,17.38893c0,11.10924,9.42172,20.03807,21.426,20.33379v.00172h.03749v-.00172c.036.00172.06634.00172.098.00172l.48451.00739c12.14412-.00462,22.02005-9.12771,22.02005-20.3429s-9.88312-20.33874-22.0287-20.33874C360.20538,125.9734,359.54932,125.99981,358.92058,126.05268Zm14.31,20.25946c0,6.481-5.54574,11.75144-12.36328,11.75144s-12.36334-5.27048-12.36334-11.75144c0-6.47858,5.5458-11.74959,12.36334-11.74959S373.23053,139.83356,373.23053,146.31214Z"/><path d="M233.397,147.12782a24.02168,24.02168,0,1,0-.00852,48.04335H257.4286V171.15593A24.061,24.061,0,0,0,233.397,147.12782Z"/><path d="M332.42334,146.31214a25.53138,25.53138,0,0,1,3.84858-13.44833,27.74259,27.74259,0,0,1,9.59183-9.28488l.06634-.06806.44265-.22363a29.3137,29.3137,0,0,1,8.93-3.2157c.71811-.13525,1.45061-.24284,2.19031-.3239a16.06482,16.06482,0,0,0,6.27686-10.35205,32.76035,32.76035,0,0,0-30.20748-20.35313,30.40152,30.40152,0,0,0-30.2511,30.37454v3.21067h-3.2118a36.3249,36.3249,0,0,0-36.28815,36.27225v36.27475l37.63275-.01023a22.75366,22.75366,0,0,0,19.28438-34.81965,33.57179,33.57179,0,0,1-2.51837-3.30078,22.794,22.794,0,0,0-16.74858-7.3629V143.266a29.21971,29.21971,0,0,1,11.94729,2.57646,31.93478,31.93478,0,0,1-.74967-6.85661H319.072a25.98144,25.98144,0,0,0,4.21949,14.13113,29.04688,29.04688,0,0,1,2.57244,3.36091,29.98752,29.98752,0,0,0,15.25295,9.09108q-.2704-.24505-.5321-.49388A25.815,25.815,0,0,1,332.42334,146.31214Z"/><path d="M296.13083,23.14811a118.961,118.961,0,1,0,118.961,118.96045A118.961,118.961,0,0,0,296.13083,23.14811Zm93.18033,123.164c0,14.7536-12.76124,26.75554-28.44391,26.75554-.2206,0-.43982-.00389-.65613-.0101h-.06053l-11.36694-.14707a37.86609,37.86609,0,0,1-18.49154-4.77977,29.17913,29.17913,0,0,1-10.63035,27.0405h16.4025v6.41837H233.38854A30.43643,30.43643,0,1,1,257.816,153.0168a42.7667,42.7667,0,0,1,39.20713-36.69694,36.83547,36.83547,0,0,1,36.52921-33.69123,39.01567,39.01567,0,0,1,36.50592,25.24l.26958.721-.08363.76564a22.40254,22.40254,0,0,1-4.11672,10.66341h-.00006C379.30691,122.34648,389.31116,133.25122,389.31116,146.31214Z"/><path d="M354.91628,146.31214c0,2.94361,2.66907,5.33868,5.951,5.33868,3.28045,0,5.94945-2.39507,5.94945-5.33868,0-2.94188-2.669-5.33622-5.94945-5.33622C357.58535,140.97592,354.91628,143.37026,354.91628,146.31214Z"/></svg>