<?xml version="1.0" encoding="UTF-8"?>
<svg id="Layer_1" data-name="Layer 1" xmlns="http://www.w3.org/2000/svg" viewBox="0 0 80 80">
  <defs>
    <style>
      .cls-1 {
        fill: #6fdc8c;
      }
    </style>
  </defs>
  <path d="M30.42,31.28h0s0,0,0,0c.03,13.39,10.87,24.23,24.26,24.26h0s0,0,0,0c-13.39.03-24.23,10.87-24.26,24.26h0c13.4,0,24.26-10.86,24.26-24.26s-10.86-24.26-24.26-24.26Z"/>
  <path d="M27.37,68.07c-5.22,1.35-9.08,6.09-9.08,11.73h12.13s0,0,0,0c0-4.26-1.12-8.25-3.05-11.73Z"/>
  <path d="M30.42.2v10.61c2.93,0,5.31-2.38,5.31-5.31S33.35.2,30.42.2Z"/>
  <path d="M73.84,14.95c0-8.15-6.6-14.75-14.75-14.75s-14.75,6.6-14.75,14.75,14.75,39.31,14.75,39.31c0,0,14.75-31.16,14.75-39.31Z"/>
  <path d="M30.42,10.81c-11.3,0-20.47,9.16-20.47,20.47h20.47V10.81Z"/>
  <path class="cls-1" d="M6.16,55.54c13.39.03,24.23,10.87,24.26,24.26h0s0,0,0,0c.03-13.39,10.87-24.23,24.26-24.26h0s0,0,0,0c-13.39-.03-24.23-10.87-24.26-24.26h0s0,0,0,0c-.03,13.39-10.87,24.23-24.26,24.26h0s0,0,0,0Z"/>
</svg>