<svg id="Layer_1" data-name="Layer 1" xmlns="http://www.w3.org/2000/svg" xmlns:xlink="http://www.w3.org/1999/xlink" viewBox="0 0 2317 574"><defs><style>.cls-1{fill:#3968f6;}.cls-2{fill:url(#linear-gradient);}.cls-3{fill:#fff;}.cls-4{fill:url(#linear-gradient-2);}</style><linearGradient id="linear-gradient" x1="75.99214" y1="295.64313" x2="485.67408" y2="295.64313" gradientUnits="userSpaceOnUse"><stop offset="0" stop-color="#44a2eb"/><stop offset="1" stop-color="#3968f6"/></linearGradient><linearGradient id="linear-gradient-2" x1="4240.52247" y1="-2847.86825" x2="4773.45017" y2="-2847.86825" gradientTransform="matrix(-0.20036, 0.97972, 0.97972, 0.20036, 3975.63122, -3556.27146)" xlink:href="#linear-gradient"/></defs><path class="cls-1" d="M724.533,311.55957H670.48413l-13.65356,38.88867H639.03394l50.09423-135.876h16.76075l50.09423,135.876H738.18652Zm-49.05835-14.40723h44.06787L697.791,235.19385h-.56495Z"/><path class="cls-1" d="M771.52466,350.44824v-135.876h16.94922v135.876Z"/><path class="cls-1" d="M938.57129,350.44824H854.39038v-135.876h84.18091v15.25439H871.3396v43.59717h63.7478v15.06592H871.3396v46.7041h67.23169Z"/><path class="cls-1" d="M992.624,313.16016l-23.63427,37.28808H950.81641l33.33349-48.96435-32.76855-48.96436h18.26758l23.54052,36.72363h.37647l23.25781-36.72363h18.26758l-33.05078,48.30518,32.58008,49.62353h-18.17334L993.001,313.16016Z"/><path class="cls-1" d="M1138.29639,301.48389c0,30.69677-16.855,50.65918-41.52539,50.65918-14.03028,0-25.32959-6.87354-31.16748-17.6084h-.377v48.58789h-16.38427v-130.603h15.5371v16.57276h.37647c6.02637-11.01709,17.41992-18.26758,31.63818-18.26758C1121.34717,250.82471,1138.29639,270.78711,1138.29639,301.48389Zm-16.76075,0c0-22.12793-10.92285-36.25244-28.34277-36.25244-16.76074,0-28.06055,14.501-28.06055,36.25244,0,21.8457,11.29981,36.25244,28.06055,36.25244C1110.61279,337.73633,1121.53564,323.70605,1121.53564,301.48389Z"/><path class="cls-1" d="M1155.62646,214.57227h16.38428v135.876h-16.38428Z"/><path class="cls-1" d="M1190.18555,322.76465c0-16.76074,12.90039-27.30713,35.499-28.62549l28.06006-1.60059v-8.19189c0-11.9585-7.90918-19.11523-21.46875-19.11523-12.61768,0-20.52734,5.93261-22.59863,15.5371h-15.81934c1.12988-16.94921,15.63086-29.94384,38.79443-29.94384,22.97559,0,37.47657,12.42968,37.47657,31.9209v67.70263h-15.53662v-16.855h-.37647c-5.83838,11.20508-18.26758,18.54981-31.4502,18.54981C1203.27393,352.14307,1190.18555,340.37305,1190.18555,322.76465Zm63.55908-9.51026v-8.0039l-26.17676,1.60058c-13.18262.84766-20.71582,6.68555-20.71582,15.91358,0,9.32178,7.81543,15.44238,19.58594,15.44238C1241.88037,338.207,1253.74463,327.37842,1253.74463,313.25439Z"/><path class="cls-1" d="M1289.71826,224.83594a10.26368,10.26368,0,1,1,10.26367,10.26367A10.22788,10.22788,0,0,1,1289.71826,224.83594Zm2.07178,27.68359h16.38428v97.92871H1291.79Z"/><path class="cls-1" d="M1330.30371,252.51953h15.44287v15.63135h.37647c5.46142-10.54639,15.91357-17.32617,31.07373-17.32617,21.46875,0,33.898,13.84179,33.898,36.064v63.55957h-16.38428V289.80811c0-15.81934-7.43848-24.48243-22.5044-24.48243-15.44287,0-25.51806,10.92286-25.51806,27.49561v57.627h-16.38428Z"/><path class="cls-1" d="M1427.95361,322.76465c0-16.76074,12.89991-27.30713,35.499-28.62549l28.06006-1.60059v-8.19189c0-11.9585-7.90918-19.11523-21.46875-19.11523-12.61768,0-20.52735,5.93261-22.59864,15.5371H1431.626c1.12988-16.94921,15.63086-29.94384,38.79443-29.94384,22.97559,0,37.47656,12.42968,37.47656,31.9209v67.70263h-15.53662v-16.855h-.37646c-5.83838,11.20508-18.26758,18.54981-31.4502,18.54981C1441.042,352.14307,1427.95361,340.37305,1427.95361,322.76465Zm63.55909-9.51026v-8.0039l-26.17676,1.60058c-13.18262.84766-20.71582,6.68555-20.71582,15.91358,0,9.32178,7.81543,15.44238,19.58593,15.44238C1479.64844,338.207,1491.5127,327.37842,1491.5127,313.25439Z"/><path class="cls-1" d="M1545.56543,333.876h-.37647v16.57226h-15.63085v-135.876h16.38427v54.33154h.37647c6.1206-11.20508,17.51416-18.0791,31.35595-18.0791,24.67041,0,41.33692,19.9624,41.33692,50.65918,0,30.791-16.57227,50.65918-41.61914,50.65918C1563.07959,352.14307,1551.87451,345.17529,1545.56543,333.876Zm.28271-32.39209c0,21.8457,11.77,36.25244,28.34278,36.25244,17.32568,0,28.06006-13.8418,28.06006-36.25244,0-22.22217-10.73438-36.25244-28.06006-36.25244C1557.61816,265.23145,1545.84814,279.73242,1545.84814,301.48389Z"/><path class="cls-1" d="M1634.36426,224.83594a10.26367,10.26367,0,1,1,10.26367,10.26367A10.22788,10.22788,0,0,1,1634.36426,224.83594Zm2.07178,27.68359h16.38427v97.92871H1636.436Z"/><path class="cls-1" d="M1675.79736,214.57227h16.38428v135.876h-16.38428Z"/><path class="cls-1" d="M1713.08691,224.83594a10.26368,10.26368,0,1,1,10.26368,10.26367A10.22788,10.22788,0,0,1,1713.08691,224.83594Zm2.07178,27.68359H1731.543v97.92871h-16.38428Z"/><path class="cls-1" d="M1775.32959,228.88525v23.63428h19.021v13.46533h-19.021v58.19239c0,8.94531,3.7666,12.99414,12.147,12.99414a63.84232,63.84232,0,0,0,6.77979-.47071v13.74756a58.38168,58.38168,0,0,1-10.35791.75342c-17.98487,0-24.95264-7.34473-24.95264-26.17725V265.98486h-14.59521V252.51953h14.59521V228.88525Z"/><path class="cls-1" d="M1812.90234,386.51221V372.76465a34.72912,34.72912,0,0,0,6.40332.4707c9.13379,0,14.21827-4.42529,17.98487-15.81933l2.25976-6.87354-36.1582-98.023h17.51416L1848.0249,334.064h.28272l27.11865-81.54443h17.23144l-38.5122,104.80274c-8.38037,22.88134-16.47852,29.75488-34.18067,29.75488A42.8803,42.8803,0,0,1,1812.90234,386.51221Z"/><path class="cls-1" d="M1973.17139,273.14111h16.29c16.1958,0,27.49511-9.981,27.49511-23.54052,0-13.46485-8.47461-22.59864-25.89453-22.59864-16.00732,0-27.87207,8.47461-28.90771,23.16358h-16.29c1.8833-23.06934,19.77392-37.853,45.19775-37.853,27.21289,0,42.938,15.63086,42.938,35.02832,0,16.855-11.77051,28.437-28.81348,32.01514v.37646c19.77393,1.69531,33.23926,14.03028,33.23926,33.3335,0,23.35205-20.52734,39.64209-47.17529,39.64209-28.15479,0-46.89258-15.7251-48.1167-38.22949h16.29c1.03564,14.40673,13.74756,23.54052,31.82666,23.54052,17.89062,0,29.84912-10.16943,29.94336-24.38818.09424-16.76074-11.86426-26.17676-30.979-26.17676h-17.04345Z"/><path class="cls-1" d="M2057.16846,284.81738c0-45.76269,19.49121-72.59912,52.73047-72.59912,23.06982,0,40.86621,13.46533,45.10351,34.2749H2137.771c-3.95459-12.24072-14.12452-19.30273-28.06006-19.30273-22.69336,0-35.59326,20.15039-36.15821,56.30859h.28223c5.55566-12.24121,19.4917-22.03369,37.94727-22.03369,25.89453,0,45.10351,19.11475,45.10351,44.915,0,26.83643-20.24463,46.42188-48.1167,46.42188C2083.72217,352.80225,2057.16846,335.38232,2057.16846,284.81738Zm82.48584,22.12793c0-17.79638-12.80616-30.60254-30.791-30.60254s-31.26172,12.80616-31.26172,30.13184a31.02726,31.02726,0,0,0,62.05274.4707Z"/><path class="cls-1" d="M2172.52148,282.46338c0-42.56152,18.54981-70.15088,50.09424-70.15088,31.544,0,49.90576,27.40137,49.90576,70.05664,0,42.938-18.26757,70.33887-49.90576,70.33887C2190.88281,352.708,2172.52148,325.40137,2172.52148,282.46338Zm82.95655,0c0-33.42774-11.86426-55.27295-32.86231-55.27295s-33.05078,22.03369-33.05078,55.17871c0,33.89844,11.77,55.55566,33.05078,55.55566C2243.80225,337.9248,2255.478,316.36182,2255.478,282.46338Z"/><circle class="cls-2" cx="280.83311" cy="295.64313" r="204.84097"/><path class="cls-3" d="M280.75212,176.16854c15.03624-.00135,30.07261.028,45.1086-.03305a13.75516,13.75516,0,0,1,6.31514,1.43961q25.36278,12.44556,50.78082,24.77819a13.59983,13.59983,0,0,1,3.83036,2.90236c9.34635,9.62012,18.6658,19.26741,28.1155,28.78524,1.64491,1.65682,1.71338,2.62122.29424,4.49638q-65.40388,86.422-130.68713,172.93519c-3.68227,4.87459-3.76,4.89489-7.37654.11758q-31.29556-41.3403-62.5447-82.71575-33.90511-44.87946-67.85183-89.72711c-1.79372-2.35914-1.70116-3.56727.33612-5.6076,9.15-9.1636,18.1337-18.49347,27.14942-27.79054a18.5133,18.5133,0,0,1,5.252-3.88452q24.94746-12.10113,49.8514-24.29158a13.76083,13.76083,0,0,1,6.31772-1.43342C250.67934,176.19816,265.7158,176.1699,280.75212,176.16854Zm-.06169,222.22466c.73618-1.31482,1.2055-2.07626,1.60279-2.87359q27.27043-54.73055,54.52605-109.46854c1.93588-3.888,1.91609-3.90651-2.28219-3.90664q-46.94539-.00139-93.89074.00352c-5.74913.00025-11.49829,0-17.9033,0C242.13057,321.04022,261.26378,359.42237,280.69043,398.3932Zm84.134-194.23844c-1.16487-1.42181-2.55583-1.76757-3.765-2.36028-10.27186-5.03464-20.58389-9.98784-30.83752-15.059a14.48529,14.48529,0,0,0-6.66014-1.51686c-23.02036.04149-46.0583.56746-69.05471-.17474-13.68994-.44186-26.32356,1.40359-37.91859,8.87746a29.78943,29.78943,0,0,1-3.12139,1.50139c-5.5559,2.718-11.1088,5.44222-17.12106,8.38894,1.52758.832,2.49016,1.4052,3.49346,1.89512,10.3841,5.07086,20.79469,10.08808,31.1479,15.2212a15.14966,15.14966,0,0,0,6.97158,1.6c26.25648-.00072,52.51339.16385,78.769.04046,3.97066-.01868,8.11754,1.07534,11.98846-.80948C340.66073,215.943,352.59958,210.11592,364.82439,204.15476ZM222.06274,272.82791a2.56345,2.56345,0,0,0,.49186.13725q57.38643.051,114.77276.1383c2.5805.00636,2.16041-1.12436,1.62546-2.718-4.07812-12.14829-8.16276-24.29459-12.16795-36.467-.54229-1.648-1.21538-2.41392-3.118-2.40964q-42.8262.09691-85.65264.00156c-2.01766-.00462-2.75334.74589-3.34,2.56245-3.08613,9.5569-6.35785,19.05381-9.48067,28.59914C224.09307,266.036,222.61329,269.29954,222.06274,272.82791Zm4.4985-42.86539c.12351-1.643-1.30737-1.72834-2.25368-2.19245-12.344-6.0537-24.73335-12.016-37.03075-18.16241-2.15618-1.07766-3.39088-.84309-5.02362.8775q-10.98322,11.574-22.24969,22.87671c-1.93024,1.92762-1.87878,2.67579.47723,4.14655q25.14977,15.6999,50.09906,31.71917c2.43846,1.56715,2.77253.37656,3.38371-1.47292q5.9788-18.09226,12.02689-36.16165C226.17289,231.04519,226.37166,230.50282,226.56124,229.96252Zm176.93241,5.67828c-.484-.56339-.8219-1.00207-1.20533-1.39639-7.89971-8.12255-15.82361-16.22166-23.68743-24.37878a2.63794,2.63794,0,0,0-3.60714-.60445q-19.11766,9.42148-38.31571,18.679c-1.58266.7636-1.88935,1.55813-1.321,3.228q6.30576,18.52829,12.40719,37.12563c.56029,1.70838.99694,2.2988,2.75172,1.18156q25.59312-16.29507,51.24658-32.49527C402.326,236.62291,402.82421,236.16275,403.49365,235.6408ZM170.84341,254.7624l-.5418.3789q41.30685,54.70282,82.61374,109.40558c.34254-.57186.30517-.89495.1689-1.16872q-20.12463-40.42221-40.24884-80.8447a6.58135,6.58135,0,0,0-2.45278-2.798Q190.59442,267.27853,170.84341,254.7624Zm220.16136.64737-.42084-.57228q-19.1438,12.08645-38.30482,24.14535a10.65153,10.65153,0,0,0-4.09354,4.49392q-14.60129,29.50143-29.31181,58.94866-5.43518,10.92-10.85851,21.84587l.53356.31084Q349.77682,309.99593,391.00477,255.40977Z"/><g id="vhMTIq"><path class="cls-4" d="M381.45227,64.13718c9.174,4.93659,18.68388,9.34136,27.4699,14.892,89.003,56.2279,132.621,137.19879,122.41023,241.97287C517.381,464.15769,389.95038,555.10775,261.5408,542.81443,136.892,530.88114,41.47387,427.28854,38.16933,304.51577,34.65851,174.07971,135.4186,62.65762,265.09375,54.16592c8.2404-.53962,13.44825.4423,11.83464,10.58553-.92358,5.80563,2.508,6.39354,6.97507,4.30114q19.00059-8.89989,37.96873-17.869c4.7262-2.23876,5.36421-5.17.89969-8.32448q-17.12974-12.10341-34.3992-24.0088c-4.14843-2.87152-7.66494-2.302-7.69293,3.23005-.05424,10.72592-6.93531,11.16047-15.07087,12.00347C162.18716,44.80043,86.81518,96.5759,44.17025,191.4756-17.92731,329.66414,55.68066,493.78476,199.41754,541.77579,332.3256,586.15133,476.7846,516.6376,524.41,385.38933c43.78988-120.678-9.495-256.24834-123.86861-314.94611-5.91829-3.03733-12.207-5.353-18.32327-8.00459Q381.83518,63.2879,381.45227,64.13718Z"/></g></svg>