<svg id="Layer_1" data-name="Layer 1" xmlns="http://www.w3.org/2000/svg" viewBox="0 0 358.97 67.97"><defs><style>.cls-1{fill:#fff;}</style></defs><path class="cls-1" d="M33.39232,42.17224a17,17,0,0,1-15.51,9.3,17,17,0,0,1-15.51-9.3,20.74,20.74,0,0,1-2.29-9.82,20.91,20.91,0,0,1,2.29-9.89,17.0001,17.0001,0,0,1,6.32-6.8,17.3701,17.3701,0,0,1,9.19-2.44,17.39007,17.39007,0,0,1,9.2,2.44,17,17,0,0,1,6.32,6.8,20.91,20.91,0,0,1,2.29,9.89A20.73992,20.73992,0,0,1,33.39232,42.17224Zm-3-18.09a13.59,13.59,0,0,0-12.51-7.67,13.59,13.59,0,0,0-12.57,7.67,18.16012,18.16012,0,0,0-1.83,8.27,18.1501,18.1501,0,0,0,1.83,8.26,13.94011,13.94011,0,0,0,5.1,5.66,14,14,0,0,0,7.47,2,13.55,13.55,0,0,0,12.56-7.67,17.99992,17.99992,0,0,0,1.84-8.26,18,18,0,0,0-1.84-8.26Z"/><path class="cls-1" d="M61.71232,25.36224a12.28009,12.28009,0,0,1,4.49,4.94,15.32011,15.32011,0,0,1,1.62,7.09,15.46016,15.46016,0,0,1-1.62,7.15,12.57007,12.57007,0,0,1-4.46,5,11.63,11.63,0,0,1-6.35,1.8,11.21013,11.21013,0,0,1-5.66-1.46,11.42993,11.42993,0,0,1-4.12-3.9v14a1.58,1.58,0,0,1-.45,1.15,1.67,1.67,0,0,1-2.28,0,1.59,1.59,0,0,1-.46-1.15v-34.65a1.66,1.66,0,0,1,.46-1.17,1.62,1.62,0,0,1,2.28,0,1.65,1.65,0,0,1,.45,1.17v3.62a9.89,9.89,0,0,1,4-3.94,12.26,12.26,0,0,1,12.11.35Zm-1.63,21.57a9.58993,9.58993,0,0,0,3.45-3.91,12.43,12.43,0,0,0,1.25-5.63,12.18,12.18,0,0,0-1.25-5.55,9.63,9.63,0,0,0-3.45-3.88,9,9,0,0,0-5-1.41,9.33,9.33,0,0,0-5.05,1.39,9.15012,9.15012,0,0,0-3.45,3.85,12.36018,12.36018,0,0,0-1.22,5.6,12.55,12.55,0,0,0,1.22,5.63,9.21,9.21,0,0,0,8.5,5.32A9,9,0,0,0,60.08232,46.93224Z"/><path class="cls-1" d="M96.88233,36.89224a1.57,1.57,0,0,1-1.11.45h-20.09a12.22981,12.22981,0,0,0,1.31,5.71,9.84,9.84,0,0,0,3.71,4,10.91,10.91,0,0,0,5.72,1.46,9.6599,9.6599,0,0,0,4.57-1.07,9.39991,9.39991,0,0,0,3.24-2.7,1.83007,1.83007,0,0,1,1.11-.47,1.44,1.44,0,0,1,1.38,1.38,1.53,1.53,0,0,1-.53,1.09,13.19989,13.19989,0,0,1-4.27,3.4,11.7,11.7,0,0,1-5.45,1.33,14.54994,14.54994,0,0,1-7.23-1.73,12.35,12.35,0,0,1-4.88-4.92,14.76993,14.76993,0,0,1-1.76-7.3,16.1399,16.1399,0,0,1,1.73-7.63,12.4901,12.4901,0,0,1,4.59-5,11.69019,11.69019,0,0,1,6.16-1.74,12.53,12.53,0,0,1,6,1.49,11.71,11.71,0,0,1,4.54,4.36,13.07,13.07,0,0,1,1.81,6.8A1.45,1.45,0,0,1,96.88233,36.89224Zm-17.56-8.53a9.88,9.88,0,0,0-3.37,6.11h18.13v-.42a8.4,8.4,0,0,0-1.6-4.18,8.63,8.63,0,0,0-3.32-2.7,9.64008,9.64008,0,0,0-4.08-.93A8.9,8.9,0,0,0,79.32232,28.36224Z"/><path class="cls-1" d="M124.01232,26.05224a12,12,0,0,1,2.31,7.69v15.61a1.5,1.5,0,0,1-.48,1.14,1.58,1.58,0,0,1-1.12.45,1.54,1.54,0,0,1-1.59-1.48832q-.00168-.05083,0-.10168v-15.46a8.7,8.7,0,0,0-1.73-5.61,6.45,6.45,0,0,0-5.32-2.15,9.27012,9.27012,0,0,0-4.33,1.06,9.3701,9.3701,0,0,0-3.32,2.84,6.5101,6.5101,0,0,0-1.27,3.86v15.46a1.54,1.54,0,0,1-.45,1.14,1.58,1.58,0,0,1-1.15.45,1.54,1.54,0,0,1-1.59-1.48832q-.00168-.05083,0-.10168v-23.81a1.54,1.54,0,0,1,1.48832-1.59q.05082-.00168.10168,0a1.58,1.58,0,0,1,1.15.45,1.54,1.54,0,0,1,.45,1.14v2.93a11.21019,11.21019,0,0,1,4.11-3.8,11.09011,11.09011,0,0,1,5.5-1.52Q121.70231,23.15224,124.01232,26.05224Z"/><path class="cls-1" d="M260.17233,27.88722a8.83033,8.83033,0,0,0-5-1.46,8.99972,8.99972,0,0,0-5,1.43,9.80007,9.80007,0,0,0-3.45,4,12.74011,12.74011,0,0,0-1.25,5.71,13.36946,13.36946,0,0,0,1.22,5.77,9.78972,9.78972,0,0,0,3.43,4,9.26979,9.26979,0,0,0,9.99994,0l.05-.05a9.90044,9.90044,0,0,0,3.45-4,13.00035,13.00035,0,0,0,1.25-5.77,12.54076,12.54076,0,0,0-1.25-5.63A10.00054,10.00054,0,0,0,260.17233,27.88722Z"/><path class="cls-1" d="M229.16232,27.41725a9.58944,9.58944,0,0,0-4.08-.93,8.85959,8.85959,0,0,0-5.71,2.12,9.84006,9.84006,0,0,0-3.38,6.11h18.09v-.42a8.4801,8.4801,0,0,0-1.59-4.18A8.74005,8.74005,0,0,0,229.16232,27.41725Z"/><path class="cls-1" d="M292.84232,27.73726a9.83,9.83,0,0,0-5.23-1.41,9.52978,9.52978,0,0,0-5.18,1.46,10.08948,10.08948,0,0,0-3.61,4,12.30911,12.30911,0,0,0-1.3,5.69,12.389,12.389,0,0,0,1.3,5.73,10.11937,10.11937,0,0,0,3.61,4,9.52977,9.52977,0,0,0,5.18,1.46,9.83013,9.83013,0,0,0,5.23-1.33,9.59961,9.59961,0,0,0,3.62-4,12.76923,12.76923,0,0,0,1.3-5.81,12.64955,12.64955,0,0,0-1.3-5.79A9.63956,9.63956,0,0,0,292.84232,27.73726Z"/><path class="cls-1" d="M334.04233-.01274h-198.46v67.97h200.44l23.03-33.99Zm-168.46832,51.2q-.05082.00165-.10169,0h-19a1.56,1.56,0,0,1-1.59979-1.51917q-.00092-.03543-.00018-.07086v-34a1.5,1.5,0,0,1,.48-1.14,1.71993,1.71993,0,0,1,1.22-.44995,1.6302,1.6302,0,0,1,1.17.44995,1.5,1.5,0,0,1,.48,1.14v32.46h17.22a1.61,1.61,0,0,1,1.17.42,1.4803,1.4803,0,0,1,.45,1.12A1.54007,1.54007,0,0,1,165.574,51.18727Zm9.87829-1.59a1.54006,1.54006,0,0,1-.45,1.14,1.59,1.59,0,0,1-2.73-1.14v-24.44a1.57986,1.57986,0,0,1,.45-1.15,1.67,1.67,0,0,1,2.28,0,1.57981,1.57981,0,0,1,.45,1.15Zm.59-31.53a1.87992,1.87992,0,0,1-.56,1.46,2.31005,2.31005,0,0,1-1.62.5,2.43016,2.43016,0,0,1-1.65-.53,1.82,1.82,0,0,1-.57995-1.46v-.53a1.75986,1.75986,0,0,1,.61-1.46,2.53994,2.53994,0,0,1,1.67-.51c1.42,0,2.13.66,2.13,2Zm30.04,15.92v15.61a1.50006,1.50006,0,0,1-.48,1.14,1.64008,1.64008,0,0,1-2.26,0,1.54,1.54,0,0,1-.45-1.14v-15.46a8.70023,8.70023,0,0,0-1.72-5.61,6.4699,6.4699,0,0,0-5.34-2.15,9.52991,9.52991,0,0,0-7.65,3.9,6.45,6.45,0,0,0-1.28,3.86v15.46a1.54008,1.54008,0,0,1-1.48835,1.59q-.0508.00165-.10168,0a1.56994,1.56994,0,0,1-1.15-.45,1.53989,1.53989,0,0,1-.45-1.14v-23.81a1.53989,1.53989,0,0,1,.45-1.14,1.56994,1.56994,0,0,1,1.15-.45,1.54006,1.54006,0,0,1,1.59,1.48834q.00164.05082,0,.10169v2.93a11.24961,11.24961,0,0,1,4.12-3.8,11.06058,11.06058,0,0,1,5.5-1.52q4.96,0,7.28,2.9A12.00018,12.00018,0,0,1,206.08231,33.98726Zm30.85,3.15a1.59978,1.59978,0,0,1-1.12.45h-20.08a12.22006,12.22006,0,0,0,1.3,5.71,9.93,9.93,0,0,0,3.72,4,10.84952,10.84952,0,0,0,5.71,1.46,9.66023,9.66023,0,0,0,4.62-1.08,9.39966,9.39966,0,0,0,3.19-2.69,1.83011,1.83011,0,0,1,1.12-.47,1.32007,1.32007,0,0,1,.95.42,1.34987,1.34987,0,0,1,.43,1,1.55,1.55,0,0,1-.54,1.11,13.09907,13.09907,0,0,1-4.27,3.4,11.7,11.7,0,0,1-5.45,1.33,14.51056,14.51056,0,0,1-7.22-1.79,12.44041,12.44041,0,0,1-4.89-4.92,14.77085,14.77085,0,0,1-1.75-7.3,16.14,16.14,0,0,1,1.72-7.63,12.51031,12.51031,0,0,1,4.6-5,11.66024,11.66024,0,0,1,6.11-1.74,12.52052,12.52052,0,0,1,6,1.49,11.81046,11.81046,0,0,1,4.55,4.36005,13.07023,13.07023,0,0,1,1.8,6.8A1.48,1.48,0,0,1,236.93234,37.13722Zm30.92,12.46a1.53989,1.53989,0,0,1-.45,1.14,1.58,1.58,0,0,1-1.15.45,1.54,1.54,0,0,1-1.59-1.48834q-.00164-.05082,0-.10169v-3.56a11.15992,11.15992,0,0,1-4,4,10.84,10.84,0,0,1-5.79,1.64,11.45041,11.45041,0,0,1-6.4-1.86,12.81006,12.81006,0,0,1-4.46-5.1,15.99919,15.99919,0,0,1-1.62-7.28,15.64,15.64,0,0,1,1.68994-7.21,12.57,12.57,0,0,1,4.48-5,11.86,11.86,0,0,1,12.11-.24,10.19,10.19,0,0,1,4,4v-3.3a1.65,1.65,0,0,1,.45-1.17,1.4999,1.4999,0,0,1,1.14-.48,1.53,1.53,0,0,1,1.13995.48,1.65,1.65,0,0,1,.45,1.17Zm32.88-.91a13.8296,13.8296,0,0,1-1.72,7.1,11.49,11.49,0,0,1-4.73,4.49,15.00027,15.00027,0,0,1-6.88,1.54,17.1816,17.1816,0,0,1-3.91-.48,15.83671,15.83671,0,0,1-3.5-1.22c-1-.5-1.54-1-1.68-1.54a1.15962,1.15962,0,0,1-.37-.85,1,1,0,0,1,.48-.85.84027.84027,0,0,1,.53-.16,4.00025,4.00025,0,0,1,1.22.37l1.12.48a17.08932,17.08932,0,0,0,6.16,1.27,9.99976,9.99976,0,0,0,7.41-2.68,9.8,9.8,0,0,0,2.69-7.25v-3.3a9.79967,9.79967,0,0,1-4.2,4.49,11.99945,11.99945,0,0,1-6,1.62,12.29956,12.29956,0,0,1-6.62-1.83,12.99962,12.99962,0,0,1-4.65-5.06995,15.48089,15.48089,0,0,1-1.7-7.28,15.36088,15.36088,0,0,1,1.7-7.23,12.99983,12.99983,0,0,1,4.65-5.07,12.12041,12.12041,0,0,1,6.56-1.84,11.69036,11.69036,0,0,1,6.14,1.68,11.1902,11.1902,0,0,1,4.12,4V25.68727a1.65,1.65,0,0,1,.45-1.17,1.49994,1.49994,0,0,1,1.14-.48,1.54,1.54,0,0,1,1.13995.45,1.61971,1.61971,0,0,1,.45,1.2Zm29.81-11.55a1.57975,1.57975,0,0,1-1.12.45h-20.08a12.22017,12.22017,0,0,0,1.3,5.71,9.93006,9.93006,0,0,0,3.72,4,10.86969,10.86969,0,0,0,5.72,1.45,9.6305,9.6305,0,0,0,4.57-1.07,9.22031,9.22031,0,0,0,3.23-2.69,1.85019,1.85019,0,0,1,1.12-.47,1.36,1.36,0,0,1,1,.42,1.33988,1.33988,0,0,1,.42,1,1.5701,1.5701,0,0,1-.53,1.11,13.13876,13.13876,0,0,1-4.28,3.4,11.65991,11.65991,0,0,1-5.44,1.33,14.54985,14.54985,0,0,1-7.27-1.79,12.44038,12.44038,0,0,1-4.89-4.92,14.77085,14.77085,0,0,1-1.75-7.3,16.14,16.14,0,0,1,1.73-7.63,12.49068,12.49068,0,0,1,4.59-5,11.66064,11.66064,0,0,1,6.11-1.73,12.53,12.53,0,0,1,6,1.49,11.78014,11.78014,0,0,1,4.54,4.36005,13.16966,13.16966,0,0,1,1.81,6.8A1.44991,1.44991,0,0,1,330.54233,37.13722Z"/><path class="cls-1" d="M322.81229,27.41725a9.6403,9.6403,0,0,0-4.12-.93,8.88,8.88,0,0,0-5.71,2.12,9.8298,9.8298,0,0,0-3.37,6.11h18.12v-.42a8.40011,8.40011,0,0,0-1.6-4.18A8.71,8.71,0,0,0,322.81229,27.41725Z"/></svg>