<svg id="Layer_1" data-name="Layer 1" xmlns="http://www.w3.org/2000/svg" xmlns:xlink="http://www.w3.org/1999/xlink" viewBox="0 0 2317 700"><defs><style>.cls-1{fill:#3968f6;}.cls-2{fill:url(#linear-gradient);}.cls-3{fill:#fff;}.cls-4{fill:url(#linear-gradient-2);}</style><linearGradient id="linear-gradient" x1="87.58538" y1="360.6483" x2="577.64681" y2="360.6483" gradientUnits="userSpaceOnUse"><stop offset="0" stop-color="#44a2eb"/><stop offset="1" stop-color="#3968f6"/></linearGradient><linearGradient id="linear-gradient-2" x1="5884.79813" y1="-4128.72396" x2="6522.2861" y2="-4128.72396" gradientTransform="matrix(-0.20036, 0.97972, 0.97972, 0.20036, 5622.54446, -4900.4662)" xlink:href="#linear-gradient"/></defs><path class="cls-1" d="M863.38086,388.64453H798.72534l-16.333,46.52051H761.10327l59.92481-162.54h20.05l59.92481,162.54H879.71387Zm-58.68555-17.23437h52.71558l-26.02-74.11719h-.67578Z"/><path class="cls-1" d="M919.58887,435.165V272.625h20.27539v162.54Z"/><path class="cls-1" d="M1018.71289,435.165V272.625h98.67285v18.24756h-78.39746v55.86963h71.977v18.02246h-71.977V435.165Z"/><path class="cls-1" d="M1124.8208,402.04883c0-20.04981,15.43164-32.666,42.46533-34.24219l33.5669-1.916V356.0918c0-14.30567-9.46192-22.86621-25.68213-22.86621-15.09375,0-24.55567,7.09619-27.03369,18.585h-18.92334c1.35156-20.27442,18.69824-35.81885,46.40771-35.81885,27.48438,0,44.83057,14.86816,44.83057,38.18506V435.165H1201.8667V415.002h-.45068c-6.9834,13.4043-21.85206,22.19043-37.62159,22.19043C1140.47754,437.19238,1124.8208,423.1123,1124.8208,402.04883Zm76.03223-11.377v-9.57422l-31.314,1.915c-15.76953,1.01367-24.78125,7.99707-24.78125,19.03613,0,11.15137,9.34961,18.47265,23.42969,18.47265C1186.66016,420.52148,1200.853,407.56836,1200.853,390.67188Z"/><path class="cls-1" d="M1243.88232,284.90283a12.27784,12.27784,0,1,1,12.27784,12.27783A12.23438,12.23438,0,0,1,1243.88232,284.90283Zm2.478,33.11621H1265.96V435.165h-19.59961Z"/><path class="cls-1" d="M1292.43066,318.019h18.47266V337.168h.45068c3.83008-12.95361,14.64356-21.17627,28.38526-21.17627a50.53614,50.53614,0,0,1,7.88525.78809v19.03662a39.4397,39.4397,0,0,0-10.47558-1.12647c-15.20655,0-25.11914,10.92578-25.11914,27.48389V435.165h-19.59913Z"/><path class="cls-1" d="M1363.50732,318.019H1381.98v18.69825h.45068c6.53321-12.61573,19.03614-20.72559,37.17139-20.72559,25.68213,0,40.55078,16.5581,40.55078,43.14111V435.165h-19.59961v-72.54c0-18.92383-8.89843-29.28711-26.9209-29.28711-18.47314,0-30.52587,13.06641-30.52587,32.89063V435.165h-19.59913Z"/><path class="cls-1" d="M1582.03027,401.59766c-3.37939,20.501-23.2041,35.59472-48.77343,35.59472-33.5669,0-53.95459-23.3164-53.95459-60.14941,0-36.3833,20.72558-61.05127,53.05322-61.05127,31.65234,0,51.13916,22.97851,51.13916,58.45947v7.43555h-84.02979v1.126c0,22.415,13.17871,37.17089,34.24268,37.17089,14.86816,0,25.79443-7.54687,29.061-18.58593Zm-82.45312-35.03125h63.64209C1562.76855,346.96777,1550.49072,333,1532.01758,333,1513.65723,333,1500.81641,347.08008,1499.57715,366.56641Z"/><path class="cls-1" d="M1644.208,315.9917c25.68213,0,42.80322,15.09375,43.59179,35.81885h-18.69824c-1.46435-12.27735-10.47558-19.82422-24.89355-19.82422-14.30518,0-23.76709,7.09668-23.76709,17.34668,0,8.11035,5.96972,13.62988,19.03613,16.78418l18.58545,4.50488c23.65479,5.74512,32.21533,14.98145,32.21533,31.76465,0,20.38769-19.26123,34.80566-45.394,34.80566-27.48438,0-44.60547-13.85449-46.8584-35.81933H1617.625c2.36523,13.40429,11.37646,19.82422,27.25879,19.82422s25.68213-6.75782,25.68213-17.34571c0-8.44922-4.61817-13.292-18.02246-16.55859l-18.58594-4.50586c-22.07715-5.29395-32.77832-15.54492-32.77832-32.44043C1601.1792,330.29688,1618.86377,315.9917,1644.208,315.9917Z"/><path class="cls-1" d="M1751.55469,315.9917c25.68213,0,42.80322,15.09375,43.59179,35.81885h-18.69824c-1.46435-12.27735-10.47558-19.82422-24.89355-19.82422-14.30518,0-23.76709,7.09668-23.76709,17.34668,0,8.11035,5.96972,13.62988,19.03613,16.78418l18.58545,4.50488c23.65478,5.74512,32.21533,14.98145,32.21533,31.76465,0,20.38769-19.26123,34.80566-45.394,34.80566-27.48438,0-44.60547-13.85449-46.8584-35.81933h19.59961c2.36523,13.40429,11.37646,19.82422,27.25879,19.82422s25.68213-6.75782,25.68213-17.34571c0-8.44922-4.61817-13.292-18.02246-16.55859l-18.58594-4.50586c-22.07715-5.29395-32.77832-15.54492-32.77832-32.44043C1708.52588,330.29688,1726.21045,315.9917,1751.55469,315.9917Z"/><path class="cls-1" d="M1898.77686,342.6875h19.48681c19.374,0,32.89063-11.93994,32.89063-28.16016,0-16.10791-10.1377-27.03369-30.97608-27.03369-19.14892,0-33.34131,10.1377-34.58056,27.70947h-19.48682c2.25293-27.59716,23.65478-45.28173,54.06738-45.28173,32.55323,0,51.36426,18.69873,51.36426,41.90234,0,20.1626-14.08008,34.01758-34.46826,38.29785v.45069c23.65478,2.02734,39.76221,16.7832,39.76221,39.875,0,27.93457-24.55567,47.42089-56.43262,47.42089-33.67969,0-56.09522-18.81054-57.55957-45.73144h19.48681c1.23926,17.23437,16.44581,28.16016,38.07276,28.16016,21.40137,0,35.70654-12.166,35.81933-29.17383.1128-20.05078-14.19238-31.31446-37.05859-31.31446h-20.38769Z"/><path class="cls-1" d="M1999.25244,356.6543c0-54.74268,23.31641-86.84522,63.07861-86.84522,27.59668,0,48.88575,16.10742,53.95459,41.001h-20.61328c-4.731-14.64307-16.896-23.09131-33.56689-23.09131-27.14649,0-42.57813,24.105-43.25391,67.35937h.33789c6.646-14.64355,23.3169-26.35839,45.39405-26.35839,30.97607,0,53.95507,22.86621,53.95507,53.72949,0,32.10254-24.21777,55.53125-57.55957,55.53125C2031.0166,437.98047,1999.25244,417.14258,1999.25244,356.6543Zm98.67285,26.4707c0-21.28906-15.31933-36.60791-36.83349-36.60791s-37.39649,15.31885-37.39649,36.04541c0,20.83789,16.22022,37.39648,37.0586,37.39648A36.77926,36.77926,0,0,0,2097.92529,383.125Z"/><path class="cls-1" d="M2137.2373,353.83887c0-50.91358,22.19-83.91748,59.92481-83.91748,37.73437,0,59.69922,32.77881,59.69922,83.80517,0,51.36328-21.852,84.1416-59.69922,84.1416C2159.20215,437.86816,2137.2373,405.20312,2137.2373,353.83887Zm99.23633,0c0-39.98731-14.19287-66.12012-39.31152-66.12012-25.11914,0-39.53711,26.35791-39.53711,66.00781,0,40.54981,14.08008,66.457,39.53711,66.457C2222.50586,420.18359,2236.47363,394.38867,2236.47363,353.83887Z"/><circle class="cls-2" cx="332.6161" cy="360.6483" r="245.03072"/><path class="cls-3" d="M481.88767,351.24276c-10.06894.00113-20.14014-.11436-30.2057.07042-3.01511.05521-4.25563-.79941-4.94293-3.85113-5.9288-26.31176-12.0362-52.58295-18.10979-78.862-1.74134-7.5372-1.77064-7.55973,5.87642-7.51185,2.50076.01522,4.86912-.44618,6.94567,2.20838a15.66472,15.66472,0,0,0,23.51185,1.543c6.26852-5.98627,6.45443-16.55773.39379-22.35133a16.47741,16.47741,0,0,0-23.96254,1.59375,5.05471,5.05471,0,0,1-4.46407,2.11767q-40.86872-.071-81.73742.013a3.83808,3.83808,0,0,1-3.99536-2.53118c-4.30069-8.55463-11.26158-13.315-20.93166-13.36291-9.67516-.04789-16.71266,4.63364-21.02743,13.18432-1.09968,2.17908-2.36443,2.716-4.6252,2.71033q-40.33548-.10563-80.671-.00563a6.06876,6.06876,0,0,1-5.357-2.5109,15.80294,15.80294,0,0,0-22.81159-1.51938,16.37426,16.37426,0,0,0-1.03828,22.99863c6.16711,6.5378,16.85519,7.02173,22.81836.37463a9.87343,9.87343,0,0,1,9.17208-3.65452,20.45589,20.45589,0,0,0,3.90465-.0045c2.37738-.23211,2.681.66758,2.17119,2.85511q-9.83374,42.176-19.46411,84.3993c-.52956,2.32612-1.538,2.97342-3.83874,2.9492-10.89652-.11493-21.79642.01014-32.69407-.09183-2.7723-.02592-3.259.69744-2.10753,3.22411,5.11644,11.22383,12.755,20.36718,23.48087,26.34331,24.42619,13.61022,49.78812,13.97021,75.19568,3.18862,13.17532-5.59136,22.85273-15.43383,28.82547-28.6283,1.81572-4.01225,1.74473-4.07986-2.51822-4.0838-10.54329-.00958-21.08715-.07324-31.62875.05239-2.42471.0293-3.50861-.58082-4.08211-3.10862q-9.5346-42.05853-19.3582-84.05115c-.57463-2.45569-.12225-3.07313,2.35541-3.06355q28.96293.11577,57.92643.009a3.46722,3.46722,0,0,1,3.68212,2.48386,20.27369,20.27369,0,0,0,8.46281,9.77768c1.84444,1.04842,2.29738,2.32668,2.29682,4.29675q-.0583,93.11.02986,186.21941c.00281,2.45288-.74589,3.46749-3.06976,4.23366-21.0156,6.931-41.985,14.00233-62.96794,21.03419-6.43076,2.15486-6.42963,2.15767-6.43245,8.84927l166.58291-3.24665c.2738-2.83088-.99151-3.81451-3.494-4.637-22.03247-7.24256-43.99846-14.68681-66.04389-21.88825-2.68047-.87546-3.37453-2.08218-3.36721-4.74124q.13184-46.37668.05634-92.75394h.01465q0-46.55584.03155-93.11c.00169-1.40333-.65407-3.023,1.22193-4.0714a22.56163,22.56163,0,0,0,9.48192-10.73371c.78589-1.72389,1.94134-2.01176,3.63311-2.00782,19.18863.04732,38.37894.09859,57.567-.03324,3.07145-.02141,3.16327,1.03546,2.5847,3.50917q-9.696,41.478-19.21059,82.99767c-.53858,2.35428-1.414,3.28157-3.98522,3.24439-10.77765-.15661-21.56093.05577-32.33746-.13408-3.50861-.062-3.37566,1.08165-2.183,3.6348,5.65727,12.11113,14.24908,21.57446,26.15232,27.554,22.15022,11.12694,45.10772,11.65368,68.22241,3.42749a56.77331,56.77331,0,0,0,32.95828-29.61362C487.17988,351.25459,487.15115,351.24163,481.88767,351.24276ZM247.39221,299.0412c3.77395,16.37126,7.48818,32.75548,11.33312,49.10927.5459,2.31992.24844,3.16553-2.347,3.14187q-17.7653-.15972-35.53284-.018c-2.23654.01465-2.86131-.47886-2.31429-2.82469Q228.27794,306.6184,237.868,264.75c.15493-.67378.18816-1.43263,1.12785-1.93853Q243.2101,280.99085,247.39221,299.0412Zm191.40965,52.26522c-11.58946-.15211-23.18286-.10309-34.77344-.02422-2.365.01633-3.05848-.50365-2.46752-3.03821q9.9436-42.61457,19.69115-85.27533.3735-.0338.747-.06929,2.5816,11.17566,5.16208,22.35077c4.81,20.83589,9.56586,41.6853,14.4885,62.49472C442.33807,350.65405,441.75837,351.34529,438.80186,351.30642Z"/><g id="vhMTIq"><path class="cls-4" d="M452.97671,81.39972c10.97389,5.90515,22.34965,11.17413,32.85949,17.81376,106.46531,67.2598,158.64124,164.11716,146.42708,289.44788-16.68865,171.24278-169.12114,280.03722-322.72464,265.332-149.10492-14.2746-263.244-138.192-267.1969-285.05279C38.1421,212.913,158.6713,79.62987,313.78868,69.4721c9.85716-.64549,16.0868.52908,14.1566,12.66241-1.1048,6.94469,3,7.64795,8.34357,5.145q22.72851-10.646,45.41818-21.37487c5.65349-2.678,6.41667-6.18432,1.07621-9.95774q-20.4906-14.47811-41.14831-28.71932c-4.96235-3.43491-9.1688-2.75364-9.20228,3.86379-.06488,12.83034-8.296,13.35014-18.02777,14.35855-123.713,12.81917-213.873,74.753-264.88483,188.272C-24.761,399.023,63.2888,595.344,235.22681,652.7509c158.98459,53.082,331.78641-30.0703,388.75589-187.06944,52.38144-144.355-11.35786-306.5242-148.1716-376.73846-7.07946-3.63326-14.602-6.40321-21.91829-9.57509Q453.43474,80.38382,452.97671,81.39972Z"/></g></svg>