<svg id="Layer_1" data-name="Layer 1" xmlns="http://www.w3.org/2000/svg" viewBox="0 0 185 52"><path d="M50.78949,14.21269,30.34277.26006a1.49563,1.49563,0,0,0-1.68554,0L8.21051,14.21269a5.05128,5.05128,0,0,0-2.03229,5.5196V32.26757a5.05121,5.05121,0,0,0,2.03229,5.51959l20.44672,13.9527a1.49563,1.49563,0,0,0,1.68554,0l20.44672-13.9527a5.05848,5.05848,0,0,0,0-8.36115L45.76892,26l5.02057-3.42609A5.05853,5.05853,0,0,0,50.78949,14.21269ZM9.89606,16.67186,28.00708,4.313V15.917L15.87579,24.1953,9.89606,20.11479a2.0682,2.0682,0,0,1-.732-.87451V17.97069h-.1355A2.064,2.064,0,0,1,9.89606,16.67186ZM13.23114,26,9.16406,28.77526V23.2246ZM28.00708,47.68688,9.89606,35.328a2.07755,2.07755,0,0,1-.8675-2.144h.1355v-.42444a2.068,2.068,0,0,1,.732-.87439l5.97973-4.08057L28.00708,36.083ZM29.5,33.49236,18.52039,26,29.5,18.50762,40.47961,26Zm19.604-1.60718a2.08286,2.08286,0,0,1,0,3.44281L30.99292,47.68688V36.083l12.13129-8.27839Zm0-11.77039L43.12421,24.1953,30.99292,15.917V4.313L49.104,16.67186A2.083,2.083,0,0,1,49.104,20.11479Z"/><path d="M81.504,17.372a5.923,5.923,0,0,0-2.232-1.776,7.39905,7.39905,0,0,0-3.144-.624,6.40542,6.40542,0,0,0-5.28,2.28A9.9487,9.9487,0,0,0,69,23.708a13.77547,13.77547,0,0,0,.432,3.576,8.00969,8.00969,0,0,0,1.296,2.76A5.92259,5.92259,0,0,0,72.96,31.82a7.46048,7.46048,0,0,0,3.168.624,6.40826,6.40826,0,0,0,5.256-2.256,9.96011,9.96011,0,0,0,1.87195-6.48,13.77516,13.77516,0,0,0-.432-3.576A7.762,7.762,0,0,0,81.504,17.372ZM78.84,28.148a3.12,3.12,0,0,1-2.712,1.368,3.07672,3.07672,0,0,1-1.656-.432,3.45794,3.45794,0,0,1-1.152-1.2,6.26523,6.26523,0,0,1-.648-1.824,12.00372,12.00372,0,0,1-.216-2.352,7.873,7.873,0,0,1,.96-4.392A3.08834,3.08834,0,0,1,76.128,17.9a3.04275,3.04275,0,0,1,1.704.456A3.21457,3.21457,0,0,1,78.96,19.58a6.12719,6.12719,0,0,1,.624,1.848,11.373,11.373,0,0,1,.216,2.28A7.91154,7.91154,0,0,1,78.84,28.148Z"/><path d="M91.82208,19.772a4.62821,4.62821,0,0,0-2.088.432,4.00876,4.00876,0,0,0-1.46405,1.344h-.09595l-.36-1.44h-2.28V36.908h3.12v-4.92a3.81812,3.81812,0,0,0,.96.336,5.17254,5.17254,0,0,0,1.224.12,5.59632,5.59632,0,0,0,2.328-.456,4.54057,4.54057,0,0,0,1.728-1.32,5.75,5.75,0,0,0,1.08-2.088,10.03311,10.03311,0,0,0,.36-2.784,7.38884,7.38884,0,0,0-1.128-4.584A4.03463,4.03463,0,0,0,91.82208,19.772Zm.624,9.096a2.31921,2.31921,0,0,1-2.016.936,3.23167,3.23167,0,0,1-1.056-.144,3.30858,3.30858,0,0,1-.72-.432V24.236a3.03585,3.03585,0,0,1,.792-1.368,2.12956,2.12956,0,0,1,1.44-.456,1.84528,1.84528,0,0,1,1.704.864,4.7148,4.7148,0,0,1,.528,2.448A5.62812,5.62812,0,0,1,92.44611,28.868Z"/><path d="M106.991,20.804a4.13231,4.13231,0,0,0-1.536-.792,6.60261,6.60261,0,0,0-1.77594-.24005,5.59349,5.59349,0,0,0-4.248,1.58405,6.64555,6.64555,0,0,0-1.512,4.75195,7.3268,7.3268,0,0,0,1.344,4.656,5.11551,5.11551,0,0,0,4.248,1.68,8.69186,8.69186,0,0,0,2.6159-.384,6.26241,6.26241,0,0,0,1.968-.984l-1.032-2.04a5.10117,5.10117,0,0,1-1.2.624,4.96573,4.96573,0,0,1-1.7519.288,3.03075,3.03075,0,0,1-2.304-.768,3.55853,3.55853,0,0,1-.768-2.28H108.239a11.34783,11.34783,0,0,0,.168-1.2,8.72706,8.72706,0,0,0,.072-1.08,5.83458,5.83458,0,0,0-.408-2.328A3.8958,3.8958,0,0,0,106.991,20.804Zm-1.416,4.152h-4.46393a3.61186,3.61186,0,0,1,.696-1.944,2.2033,2.2033,0,0,1,1.824-.744,1.73275,1.73275,0,0,1,1.53589.696A2.97148,2.97148,0,0,1,105.575,24.956Z"/><path d="M120.187,20.804a2.69592,2.69592,0,0,0-1.176-.792,4.845,4.845,0,0,0-1.584-.24005,4.34013,4.34013,0,0,0-2.352.576,5.17159,5.17159,0,0,0-1.464,1.344h-.096l-.36-1.584h-2.472v12h3.12V24.332a2.827,2.827,0,0,1,.864-1.272,2.26252,2.26252,0,0,1,1.512-.528,1.54042,1.54042,0,0,1,1.416.648,3.92949,3.92949,0,0,1,.432,2.112v6.816H121.147V24.644a9.54607,9.54607,0,0,0-.24-2.328A3.603,3.603,0,0,0,120.187,20.804Z"/><path d="M134.633,24.452a3.50988,3.50988,0,0,0-1.128-.792,5.63428,5.63428,0,0,0-1.368-.408v-.144a4.23751,4.23751,0,0,0,1.392-.576,3.91234,3.91234,0,0,0,.936-.912,3.37442,3.37442,0,0,0,.504-1.152,4.78278,4.78278,0,0,0,.168-1.248,3.73009,3.73009,0,0,0-.528-2.064,3.62657,3.62657,0,0,0-1.416-1.272,6.1944,6.1944,0,0,0-1.992-.624,13.28594,13.28594,0,0,0-2.28-.192q-.696,0-1.416.024-.696.024-1.368.072-.672.048-1.272.12-.576.072-1.032.144v16.56a10.66634,10.66634,0,0,0,1.368.216q.768.072,1.488.096.744.048,1.368.048h1.056a10.15236,10.15236,0,0,0,2.424-.288,6.63663,6.63663,0,0,0,2.088-.888,4.55115,4.55115,0,0,0,1.488-1.536,4.44778,4.44778,0,0,0,.55194-2.256,4.57668,4.57668,0,0,0-.288-1.704A3.49162,3.49162,0,0,0,134.633,24.452ZM127.001,17.876a7.31121,7.31121,0,0,1,.816-.072q.528-.024,1.152-.024a5.63882,5.63882,0,0,1,1.056.09594,2.56535,2.56535,0,0,1,.888.336,1.79742,1.79742,0,0,1,.648.648,2.01041,2.01041,0,0,1,.24006,1.032,1.895,1.895,0,0,1-.672,1.512,4.23086,4.23086,0,0,1-1.56.864,6.90708,6.90708,0,0,1-.744.072q-.432.024-.768.024h-1.056Zm4.992,10.416a2.455,2.455,0,0,1-.696.768,3.2,3.2,0,0,1-1.008.432,4.54508,4.54508,0,0,1-1.152.144H128.561q-.31191-.024-.624-.024-.288-.024-.552-.048a1.48528,1.48528,0,0,1-.384-.072V24.86h1.752a10.87129,10.87129,0,0,1,1.248.072,3.198,3.198,0,0,1,1.12805.336,2.0263,2.0263,0,0,1,.816.696,2.18228,2.18228,0,0,1,.312,1.248A2.11831,2.11831,0,0,1,131.993,28.292Z"/><path d="M154.547,29.588a3.0054,3.0054,0,0,1-.816.096.97626.97626,0,0,1-.96-.528,4.87842,4.87842,0,0,1-.24-1.8V22.748h2.928v-2.64h-2.928V16.964l-3.12.888v2.256H145.02l-1.824,6.72-.31195,1.896h-.144l-.432-1.872L140.1,20.108h-3.744l5.016,12a3.04569,3.04569,0,0,1-.792,1.68005,1.52387,1.52387,0,0,1-1.056.48,1.92684,1.92684,0,0,1-.72-.144l-.576,2.496a4.14938,4.14938,0,0,0,1.992.408,2.311,2.311,0,0,0,1.44-.456,4.11277,4.11277,0,0,0,1.128-1.248,10.50211,10.50211,0,0,0,.912-1.944q.432-1.104.888-2.448l3.167-9.39679V22.748h1.656v6.048a4.17862,4.17862,0,0,0,.768,2.808,3.21839,3.21839,0,0,0,2.448.84,7.19791,7.19791,0,0,0,1.752-.21595,7.92358,7.92358,0,0,0,1.512-.528l-.552-2.4A5.40457,5.40457,0,0,1,154.547,29.588Z"/><path d="M177.12,26.804a3.4428,3.4428,0,0,0-1.008-1.08,5.464,5.464,0,0,0-1.32-.696q-.72-.264-1.32-.48a5.90255,5.90255,0,0,1-1.008-.504.79856.79856,0,0,1-.408-.696q0-1.08,1.392-1.08a6.17467,6.17467,0,0,1,1.704.24q.84009.24,1.392.456l.696-2.256a7.15236,7.15236,0,0,0-1.728-.648,9.79986,9.79986,0,0,0-2.472-.288,4.454,4.454,0,0,0-3.048.936,3.433,3.433,0,0,0-1.056,2.712,3.47381,3.47381,0,0,0,.40795,1.776,4.02146,4.02146,0,0,0,1.008,1.128,5.46856,5.46856,0,0,0,1.32.696q.72.24,1.32.48a4.91159,4.91159,0,0,1,1.008.528.89568.89568,0,0,1,.408.768.95779.95779,0,0,1-.432.888,2.01322,2.01322,0,0,1-1.104.264A6.17975,6.17975,0,0,1,171,29.66a8.88748,8.88748,0,0,1-1.464-.624l-.864,2.328a7.093,7.093,0,0,0,1.8.744,8.36622,8.36622,0,0,0,2.4.336,5.08058,5.08058,0,0,0,3.48-1.032,3.67521,3.67521,0,0,0,1.176-2.88A3.28866,3.28866,0,0,0,177.12,26.804Z"/><path d="M165.749,20.804a4.13224,4.13224,0,0,0-1.536-.792,6.6037,6.6037,0,0,0-1.776-.24005,5.59347,5.59347,0,0,0-4.248,1.58405,6.64552,6.64552,0,0,0-1.512,4.75195,7.32674,7.32674,0,0,0,1.344,4.656,5.11549,5.11549,0,0,0,4.248,1.68,8.69215,8.69215,0,0,0,2.616-.384,6.26241,6.26241,0,0,0,1.968-.984l-1.032-2.04a5.10159,5.10159,0,0,1-1.2.624,4.9666,4.9666,0,0,1-1.752.288,3.03084,3.03084,0,0,1-2.304-.768,3.55915,3.55915,0,0,1-.768-2.28h7.2a11.34783,11.34783,0,0,0,.168-1.2,8.729,8.729,0,0,0,.072-1.08,5.83475,5.83475,0,0,0-.408-2.328A3.89582,3.89582,0,0,0,165.749,20.804Zm-1.416,4.152h-4.464a3.61232,3.61232,0,0,1,.696-1.944,2.20346,2.20346,0,0,1,1.824-.744,1.733,1.733,0,0,1,1.536.696A2.9712,2.9712,0,0,1,164.333,24.956Z"/></svg>