<?xml version="1.0" encoding="UTF-8"?><svg id="Layer_1" xmlns="http://www.w3.org/2000/svg" viewBox="0 0 500 500"><defs><style>.cls-1{fill:none;}.cls-2{fill:#fff;}</style></defs><rect class="cls-1" x="357.32324" y="185.19141" width="39.86206" height="39.8623"/><path class="cls-1" d="m234.69092,109.49756c-11.44971,0-20.76465,9.31494-20.76465,20.76416s9.31494,20.7666,20.76465,20.7666,20.76636-9.31689,20.76636-20.7666-9.31689-20.76416-20.76636-20.76416Z"/><rect class="cls-1" x="92.61914" y="245.90186" width="38.78003" height="38.78174"/><path class="cls-1" d="m249.03271,27.10742C125.57788,27.10742,25.14111,127.5459,25.14111,251.00098s100.43677,223.8916,223.8916,223.8916,223.89307-100.43701,223.89307-223.8916S372.4873,27.10742,249.03271,27.10742Zm-114.89038,355.62549h-14.5354v-38.59619h14.5354v38.59619Zm25.79688,0h-14.53516v-20.76465h14.53516v20.76465Zm24.03784,0h-14.53491v-59.36084h14.53491v59.36084Zm29.07031-109.38965v109.38965h-14.53516v-109.38965h-51.90625v26.54688h-69.19336v-69.19531h69.19336v28.11279h66.44141v14.53564Zm29.94995-106.66748v216.05713h-14.5354v-215.65674c-17.64746-2.97949-31.14575-18.33008-31.14575-36.81445,0-20.6084,16.76611-37.37451,37.37476-37.37451,20.61035,0,37.37646,16.76611,37.37646,37.37451,0,17.75293-12.4502,32.62256-29.07007,36.41406Zm60.2168,216.05713h-14.5354v-43.60547h14.5354v43.60547Zm24.91748,0h-14.53516v-33.22314h14.53516v33.22314Zm24.91699,0h-14.53491v-51.91113h14.53491v51.91113Zm22.84106,0h-14.53491v-31.14697h14.53491v31.14697Zm-33.77319-142.47266v-25.95459h-67.97266v168.42725h-14.53491v-182.96289h82.50757v-29.78516h70.27563v70.27539h-70.27563Z"/><path class="cls-2" d="m249.03271,10C116.146,10,8.03345,118.1123,8.03345,251.00098s108.11255,240.99902,240.99927,240.99902,241.00073-108.1123,241.00073-240.99902S381.9209,10,249.03271,10Zm0,464.89258c-123.45483,0-223.8916-100.43701-223.8916-223.8916S125.57788,27.10742,249.03271,27.10742s223.89307,100.43848,223.89307,223.89355-100.43848,223.8916-223.89307,223.8916Z"/><path class="cls-2" d="m272.06738,130.26172c0-20.6084-16.76611-37.37451-37.37646-37.37451-20.60864,0-37.37476,16.76611-37.37476,37.37451,0,18.48438,13.49829,33.83496,31.14575,36.81445v215.65674h14.5354v-216.05713c16.61987-3.7915,29.07007-18.66113,29.07007-36.41406Zm-37.37646,20.7666c-11.44971,0-20.76465-9.31689-20.76465-20.7666s9.31494-20.76416,20.76465-20.76416,20.76636,9.31494,20.76636,20.76416-9.31689,20.7666-20.76636,20.7666Z"/><rect class="cls-2" x="288.67871" y="339.12744" width="14.5354" height="43.60547"/><rect class="cls-2" x="313.59644" y="349.50977" width="14.53516" height="33.22314"/><rect class="cls-2" x="338.51367" y="330.82178" width="14.53491" height="51.91113"/><rect class="cls-2" x="361.35474" y="351.58594" width="14.53491" height="31.14697"/><rect class="cls-2" x="169.44214" y="323.37207" width="14.53491" height="59.36084"/><rect class="cls-2" x="145.40405" y="361.96826" width="14.53516" height="20.76465"/><rect class="cls-2" x="119.60693" y="344.13672" width="14.5354" height="38.59619"/><path class="cls-2" d="m146.60596,258.80762v-28.11279h-69.19336v69.19531h69.19336v-26.54688h51.90625v109.38965h14.53516v-123.92529h-66.44141Zm-15.20679,25.87598h-38.78003v-38.78174h38.78003v38.78174Z"/><path class="cls-2" d="m342.11646,169.98486v29.78516h-82.50757v182.96289h14.53491v-168.42725h67.97266v25.95459h70.27563v-70.27539h-70.27563Zm55.06885,55.06885h-39.86206v-39.8623h39.86206v39.8623Z"/></svg>