<svg id="Layer_1" data-name="Layer 1" xmlns="http://www.w3.org/2000/svg" viewBox="0 0 400 249"><defs><style>.cls-1{fill:#009ade;}.cls-2{fill:#093b60;}</style></defs><title>lfdl-stacked-color</title><polygon class="cls-1" points="22.073 60.147 22.073 36.653 9.488 36.653 9.488 71.895 47.036 71.895 47.036 60.147 22.073 60.147"/><polygon class="cls-2" points="72.104 13.157 9.488 13.157 9.488 30.779 21.968 30.779 21.968 24.905 59.518 24.905 59.518 60.147 53.329 60.147 53.329 71.895 72.104 71.895 72.104 13.157"/><path class="cls-2" d="M88.571,13.78706H107.6602V56.99992h27.37511V71.89368H88.571Z"/><path class="cls-2" d="M143.11151,13.78706h47.82784V28.68082H162.20071v7.2371h24.64811v13.8449H162.20071V71.89368H143.11152Z"/><path class="cls-1" d="M9.48728,96.01736H29.73019c17.72567.41955,26.85071,9.75434,26.85071,28.63376s-9.12505,28.21422-26.85071,28.63377H9.48728Zm5.55893,52.65257H26.89833c16.78168,0,24.01878-6.81757,24.01878-24.01881S43.68,100.63233,26.89833,100.63233H15.04621Z"/><path class="cls-1" d="M65.60106,96.01736H105.982v4.615H71.16V121.2948h32.61942v4.615H71.16v22.65531h35.24156v4.615H65.60106Z"/><path class="cls-1" d="M114.16308,96.01736h40.381v4.615H119.722V121.2948h32.61942v4.615H119.722v22.65531h35.24156v4.615h-40.8005Z"/><path class="cls-1" d="M162.72511,96.01736h25.90676c10.48855,0,17.30611,5.97847,17.30611,16.36216s-6.92244,16.36207-17.30611,16.36207H168.28405V153.2848h-5.55894Zm5.55894,28.10933h19.19407c7.76153,0,13.00579-3.77589,13.00579-11.74718s-5.24426-11.74718-13.00579-11.74718H168.28405Z"/><path class="cls-1" d="M9.3824,176.47384h5.55893v52.65255h32.7243v4.615H9.3824Z"/><path class="cls-1" d="M53.43434,176.47384H93.7104v4.615h-34.822v20.66248H91.5078v4.615H58.88836v22.65532H94.12992v4.615H53.32946v-57.1627Z"/><path class="cls-1" d="M119.09272,176.47384H125.281l22.96994,57.26753h-5.97849l-7.13222-17.83056H108.49927l-7.02734,17.83056H95.49344Zm-8.91528,34.822h22.96994L121.81976,181.9279Z"/><path class="cls-1" d="M153.49515,176.47384H180.241c9.5447,0,17.72566,4.615,17.72566,14.89374,0,7.342-3.88077,13.11061-11.43252,14.57907v.20977c7.65663,1.04884,9.85917,5.97846,10.27877,12.901.20978,3.88076.20978,11.85207,2.72705,14.684H193.3517c-1.25863-2.20259-1.25863-6.50291-1.57327-8.91527-.41955-7.97131-1.25865-16.88657-11.7472-16.57192h-21.082v25.3823h-5.454Zm5.55893,27.16537h20.76734c6.81756,0,12.58627-4.19541,12.58627-11.11788,0-7.02732-4.19544-11.43253-12.58627-11.43253H159.05409Z"/><path class="cls-1" d="M208.03568,176.47384h6.18826L248.31175,224.931h.20978V176.47384h5.55887v57.26753h-6.18826l-34.08781-48.45713h-.20978v48.45713h-5.55892Z"/><path class="cls-1" d="M266.14229,176.47384h5.55893v57.26753h-5.55893Z"/><path class="cls-1" d="M283.868,176.47384h6.18823L324.144,224.931h.20977V176.47384h5.5589v57.26753h-6.18829l-34.08768-48.45713h-.20976v48.45713H283.868V176.47384Z"/><path class="cls-1" d="M391.58544,233.74137H387.5998l-.73421-10.38367h-.20977C382.775,231.53878,374.90861,235,366.41294,235c-18.45982,0-27.58488-14.15957-27.58488-29.89239s9.12506-29.78752,27.58488-29.78752c12.27163,0,22.23576,6.5029,24.43832,18.98429h-5.55893c-.62927-6.60773-7.76157-14.36933-18.87939-14.36933-15.52305,0-22.026,12.69114-22.026,25.17253s6.50291,25.17254,22.026,25.17254c12.901,0,20.45268-8.81041,20.24288-20.97713H366.72756v-4.61494h24.85788Z"/></svg>