<?xml version="1.0" encoding="UTF-8"?><svg id="Layer_1" xmlns="http://www.w3.org/2000/svg" viewBox="0 0 83.19983 35.38816"><defs><style>.cls-1{fill:#810202;}.cls-2{fill:#423c09;}</style></defs><path class="cls-1" d="M14.17164,32.27323l.13158-.01,.12967-.01648,.12759-.02278,.2483-.06384,.23803-.08712,.22648-.10911,.21363-.12977,.19945-.14915,.18401-.16722,.16722-.18399,.14915-.19947,.12977-.21363,.10911-.22648,.08712-.23803,.06384-.2483,.02278-.12759,.01648-.12967,.01-.13157,.00339-.13333V5.14636l-.00339-.13331-.01-.13158-.01648-.12967-.02278-.12759-.06384-.2483-.08712-.23803-.10911-.22648-.12977-.21363-.14915-.19945-.16722-.184-.18401-.16722-.19945-.14915-.21363-.12977-.22648-.10911-.23803-.08713-.2483-.06384-.12759-.02278-.12967-.01648-.13158-.01-.13331-.00339H4.51935l-.13333,.00339-.13158,.01-.12967,.01648-.12759,.02278-.2483,.06384-.23804,.08713-.22648,.10911-.21363,.12977-.19945,.14915-.18401,.16722-.16722,.184-.14915,.19945-.12977,.21363-.10911,.22648-.08712,.23803-.06384,.2483-.02278,.12759-.01648,.12967-.01,.13158-.00337,.13331V29.68571l.00337,.13333,.01,.13157,.01648,.12967,.02278,.12759,.06384,.2483,.08712,.23803,.10911,.22648,.12977,.21363,.14915,.19947,.16722,.18399,.18401,.16722,.19945,.14915,.21363,.12977,.22648,.10911,.23804,.08712,.2483,.06384,.12759,.02278,.12967,.01648,.13158,.01,.13333,.00339H14.03833l.13331-.00339Zm-4.96252-16.01749l-.15345-.00352-.15145-.00705-.14944-.01057-.14744-.01408-.14544-.01762-.14343-.02112-.14143-.02467-.13943-.02817-.1374-.03169-.13542-.03522-.13341-.03874-.13141-.04227-.12941-.04579-.12739-.0493-.1254-.05284-.06196-.02774-.06139-.0285-.12096-.05897-.11853-.06156-.11611-.06418-.11369-.06681-.11124-.0694-.10882-.07203-.1064-.07462-.10395-.07724-.10153-.07985-.09911-.08246-.09668-.08509-.09424-.08768-.09182-.0903-.08939-.09291-.08695-.09552-.04258-.04874-.04194-.04933-.08205-.10032-.07956-.1025-.07705-.10469-.07457-.10688-.07208-.10906-.06959-.11125-.0671-.11343-.0646-.11561-.06213-.11782-.05963-.11999-.05714-.12217-.05465-.12436-.05216-.12656-.04968-.12873-.04719-.13091-.02266-.06629-.02199-.06669-.0419-.13426-.03911-.13542-.03631-.13657-.03353-.13772-.03073-.13887-.02793-.14003-.02513-.14119-.02235-.14235-.01955-.14348-.01677-.14466-.01396-.1458-.01118-.14694-.00838-.14811-.0056-.14925-.00278-.15043-.00036-.07564,.00036-.07564,.00278-.15041,.0056-.14927,.00838-.1481,.01118-.14696,.01396-.1458,.01677-.14464,.01955-.1435,.02235-.14233,.02513-.14119,.02793-.14003,.03073-.13887,.03353-.13773,.03631-.13656,.03911-.13542,.0419-.13426,.02199-.06671,.02266-.06628,.04719-.13093,.04968-.12873,.05216-.12654,.05465-.12436,.05714-.12219,.05963-.11999,.06213-.1178,.0646-.11562,.0671-.11343,.06959-.11125,.07208-.10906,.07457-.10687,.07705-.10469,.07956-.10251,.08205-.1003,.04194-.04935,.04258-.04873,.08695-.09554,.08939-.09289,.09182-.0903,.09424-.08769,.09668-.08507,.09911-.08246,.10153-.07985,.10395-.07724,.1064-.07464,.10882-.07203,.11124-.0694,.11369-.06679,.11611-.06418,.11853-.06158,.12096-.05897,.06139-.0285,.06196-.02774,.1254-.05282,.12739-.04931,.12941-.04579,.13141-.04225,.13341-.03874,.13542-.03522,.1374-.03171,.13943-.02817,.14143-.02465,.14343-.02114,.14544-.0176,.14744-.0141,.14944-.01057,.15145-.00703,.15345-.00352,.07747-.00045,.07747,.00045,.1534,.00352,.15133,.00703,.14925,.01057,.1472,.0141,.14514,.0176,.14305,.02114,.14101,.02465,.13892,.02817,.13689,.03171,.1348,.03522,.13274,.03874,.13069,.04225,.12861,.04579,.12656,.04931,.12448,.05282,.06146,.02774,.06092,.0285,.12005,.05897,.1177,.06158,.11531,.06418,.11295,.06679,.11058,.0694,.10821,.07203,.10583,.07464,.10348,.07724,.10111,.07985,.09873,.08246,.09636,.08507,.09402,.08769,.09163,.0903,.08927,.09289,.08688,.09554,.04256,.04873,.04195,.04935,.08205,.1003,.07954,.10251,.07707,.10469,.07457,.10687,.07208,.10906,.06959,.11125,.06711,.11343,.0646,.11562,.06213,.1178,.05963,.11999,.05714,.12219,.05465,.12436,.05216,.12654,.04968,.12873,.04719,.13093,.02265,.06628,.022,.06671,.0419,.13426,.03911,.13542,.03631,.13656,.03353,.13773,.03073,.13887,.02793,.14003,.02513,.14119,.02235,.14233,.01955,.1435,.01675,.14464,.01397,.1458,.01118,.14696,.00838,.1481,.00558,.14927,.0028,.15041,.00035,.07564-.00035,.07564-.0028,.15043-.00558,.14925-.00838,.14811-.01118,.14694-.01397,.1458-.01675,.14466-.01955,.14348-.02235,.14235-.02513,.14119-.02793,.14003-.03073,.13887-.03353,.13772-.03631,.13657-.03911,.13542-.0419,.13426-.022,.06669-.02265,.06629-.04719,.13091-.04968,.12873-.05216,.12656-.05465,.12436-.05714,.12217-.05963,.11999-.06213,.11782-.0646,.11561-.06711,.11343-.06959,.11125-.07208,.10906-.07457,.10688-.07707,.10469-.07954,.1025-.08205,.10032-.04195,.04933-.04256,.04874-.08688,.09552-.08927,.09291-.09163,.0903-.09402,.08768-.09636,.08509-.09873,.08246-.10111,.07985-.10348,.07724-.10583,.07462-.10821,.07203-.11058,.0694-.11295,.06681-.11531,.06418-.1177,.06156-.12005,.05897-.06092,.0285-.06146,.02774-.12448,.05284-.12656,.0493-.12861,.04579-.13069,.04227-.13274,.03874-.1348,.03522-.13689,.03169-.13892,.02817-.14101,.02467-.14305,.02112-.14514,.01762-.1472,.01408-.14925,.01057-.15133,.00705-.1534,.00352-.07747,.00043-.07747-.00043Zm.14525-.59069l.13414-.00328,.13226-.00656,.13037-.00985,.12849-.01311,.12663-.01639,.12473-.01967,.12284-.02295,.12096-.02624,.11908-.0295,.11719-.0328,.11531-.03607,.11345-.03935,.11155-.04263,.10966-.04591,.10778-.04919,.05318-.02582,.10491-.05358,.20378-.11393,.19577-.12289,.18777-.13189,.17974-.14088,.17173-.14988,.16371-.15886,.1557-.16784,.07484-.0873,.07275-.08935,.13894-.18435,.13018-.1919,.12146-.19941,.1127-.20695,.10395-.21449,.09522-.22201,.08647-.22954,.03995-.11759,.03765-.11901,.06802-.24095,.0583-.24484,.04857-.24873,.03886-.25261,.02916-.2565,.01943-.26039,.00971-.26427,.00121-.1336-.00121-.13359-.00971-.26427-.01943-.26038-.02916-.2565-.03886-.25261-.04857-.24873-.0583-.24484-.06802-.24095-.03765-.11902-.03995-.11759-.08647-.22954-.09522-.22201-.10395-.21447-.1127-.20694-.12146-.19943-.13018-.19188-.13894-.18437-.07275-.08935-.07484-.08728-.1557-.16786-.16371-.15886-.17173-.14986-.17974-.14088-.18777-.13189-.19577-.12291-.20378-.11391-.10491-.0536-.05318-.02582-.10778-.04918-.10966-.04591-.11155-.04263-.11345-.03935-.11531-.03608-.11719-.03278-.11908-.02952-.12096-.02622-.12284-.02295-.12473-.01967-.12663-.01641-.12849-.01311-.13037-.00985-.13226-.00654-.13414-.00328-.06778-.00041-.06778,.00041-.13419,.00328-.13238,.00654-.13056,.00985-.12873,.01311-.12692,.01641-.12509,.01967-.12328,.02295-.12144,.02622-.11963,.02952-.1178,.03278-.11599,.03608-.11416,.03935-.11234,.04263-.11053,.04591-.1087,.04918-.05367,.02582-.10583,.0536-.20549,.11391-.19724,.12291-.18898,.13189-.18071,.14088-.17245,.14986-.16421,.15886-.15594,.16786-.07488,.08728-.07274,.08935-.13894,.18437-.1302,.19188-.12144,.19943-.1127,.20694-.10396,.21447-.09521,.22201-.08647,.22954-.03997,.11759-.03764,.11902-.06802,.24095-.0583,.24484-.04857,.24873-.03886,.25261-.02916,.2565-.01943,.26038-.00971,.26427-.00123,.13359,.00123,.1336,.00971,.26427,.01943,.26039,.02916,.2565,.03886,.25261,.04857,.24873,.0583,.24484,.06802,.24095,.03764,.11901,.03997,.11759,.08647,.22954,.09521,.22201,.10396,.21449,.1127,.20695,.12144,.19941,.1302,.1919,.13894,.18435,.07274,.08935,.07488,.0873,.15594,.16784,.16421,.15886,.17245,.14988,.18071,.14088,.18898,.13189,.19724,.12289,.20549,.11393,.10583,.05358,.05367,.02582,.1087,.04919,.11053,.04591,.11234,.04263,.11416,.03935,.11599,.03607,.1178,.0328,.11963,.0295,.12144,.02624,.12328,.02295,.12509,.01967,.12692,.01639,.12873,.01311,.13056,.00985,.13238,.00656,.13419,.00328,.06778,.0004,.06778-.0004Zm-4.45936,14.53885v-11.09944h3.63763l.09279,.00045,.18259,.00365,.17865,.00729,.17471,.01093,.17076,.01456,.1668,.01822,.16286,.02187,.15891,.02549,.15497,.02916,.15103,.03278,.14708,.03643,.14312,.04009,.13918,.04372,.13523,.04736,.13129,.05101,.12733,.05465,.06218,.02871,.06132,.02945,.12029,.06071,.1172,.06315,.1141,.06558,.11101,.06802,.1079,.07044,.10481,.07287,.10172,.07529,.09861,.07773,.09552,.08016,.09243,.08258,.08933,.08502,.08623,.08743,.08313,.08987,.08002,.09231,.07695,.09474,.03729,.04828,.03658,.04878,.07111,.09887,.06838,.10056,.06564,.10225,.06291,.10397,.06018,.10566,.05745,.10737,.0547,.10906,.05199,.11075,.04924,.11246,.04651,.11416,.04379,.11587,.04104,.11756,.03833,.11927,.03558,.12096,.03285,.12267,.01539,.06197,.02919,.12461,.0527,.25066,.04518,.25261,.03765,.25456,.03011,.2565,.02259,.25843,.01506,.26039,.00753,.26234,.00093,.13189-.00117,.14704-.00948,.29025-.01893,.28517-.02843,.28006-.0379,.27495-.04736,.26987-.05683,.26476-.06631,.25966-.03672,.12792-.01926,.06337-.0405,.12514-.04311,.12303-.04574,.12089-.04833,.11878-.05096,.11666-.05354,.11452-.05617,.11239-.0588,.11029-.06139,.10814-.064,.10602-.06662,.10391-.06923,.10177-.07184,.09965-.07445,.09752-.07705,.0954-.03952,.04691-.04016,.04633-.08227,.09077-.0849,.0883-.0875,.08581-.09011,.08331-.09274,.08082-.09533,.07835-.09795,.07584-.10056,.07334-.10317,.07087-.10578,.06838-.1084,.06588-.11099,.06341-.11362,.0609-.11623,.05842-.11884,.05593-.0604,.02703-.06108,.02629-.12429,.05011-.12716,.04676-.13001,.04341-.13286,.04009-.13573,.03674-.13856,.03339-.14143,.03005-.14428,.02672-.14715,.02339-.14998,.02004-.15285,.0167-.1557,.01335-.15855,.01002-.16141,.00668-.16426,.00333-.0832,.00043h-3.60654Zm3.76592-.59168l.19456-.00753,.1948-.01506,.19506-.02259,.19529-.03011,.19553-.03765,.19577-.04519,.19603-.0527,.09809-.02917,.09756-.0314,.19166-.07044,.18703-.08065,.18242-.09084,.17779-.10105,.17319-.11125,.16856-.12144,.16397-.13165,.08023-.06964,.03961-.03586,.0778-.07396,.0759-.07698,.07403-.08004,.07213-.08306,.07027-.08612,.06836-.08913,.0665-.09218,.06462-.09522,.06272-.09825,.06085-.10129,.05897-.10433,.05707-.10737,.0552-.11039,.05332-.11343,.05142-.11647,.02501-.05937,.02439-.06025,.04646-.12333,.04335-.12714,.04026-.131,.03715-.1348,.03408-.13865,.03097-.14245,.02786-.14628,.02479-.15012,.02168-.15393,.01858-.15777,.01548-.16159,.01238-.1654,.00929-.16924,.0062-.17307,.00309-.17689,.00038-.08987-.00088-.14058-.00703-.27351-.01409-.26329-.02113-.2531-.02819-.24291-.03522-.2327-.04227-.22249-.0493-.2123-.02731-.10231-.02871-.10004-.06073-.19408-.0651-.18606-.06947-.17805-.07384-.17003-.07821-.16202-.08258-.15399-.08695-.14599-.04513-.06997-.04608-.06807-.09472-.13069-.09814-.1234-.10153-.11611-.10493-.10882-.10833-.10153-.11172-.09424-.11514-.08695-.05885-.04075-.05938-.03926-.11951-.07507-.12048-.07044-.12144-.06583-.12241-.0612-.1234-.0566-.12436-.05197-.12533-.04738-.06305-.02194-.06315-.02093-.1263-.0391-.12632-.03546-.1263-.03182-.12632-.02817-.1263-.02454-.12632-.02088-.1263-.01724-.06317-.00725-.12473-.01276-.23997-.0204-.22736-.01361-.21472-.00679-.10263-.00085h-2.84481v9.91798h2.98472l.09719-.00095Z"/><path class="cls-2" d="M17.91433,24.63861c.03109-.51818,.16064-.94827,.38864-1.29027,.228-.342,.51818-.61663,.87054-.82391,.35236-.20727,.74877-.35495,1.18923-.44304,.44045-.08809,.8835-.13214,1.32913-.13214,.40418,0,.81354,.0285,1.22809,.0855,.41454,.057,.79282,.16841,1.13482,.33423,.342,.16582,.62182,.39641,.83945,.69177,.21764,.29536,.32645,.68659,.32645,1.17368v4.18172c0,.36273,.02073,.70991,.06218,1.04154,.04145,.33164,.114,.58036,.21764,.74618h-2.23854c-.04145-.12436-.07514-.25132-.10105-.38086s-.04404-.26168-.05441-.39641c-.35236,.36273-.76691,.61664-1.24363,.76173s-.96382,.21764-1.46127,.21764c-.38345,0-.741-.04664-1.07263-.13991s-.62182-.23836-.87054-.43527c-.24873-.19691-.44304-.44564-.58295-.74618-.13991-.30054-.20986-.65809-.20986-1.07263,0-.456,.08032-.83168,.24095-1.12704,.16064-.29536,.36791-.53114,.62182-.70732,.25391-.17618,.54409-.30832,.87054-.39641s.6555-.15804,.98713-.20986c.33164-.05182,.65809-.09327,.97936-.12436,.32127-.03109,.60627-.07773,.855-.13991,.24873-.06218,.44564-.15286,.59073-.27204s.21245-.29277,.20209-.52077c0-.23836-.03886-.4275-.11659-.56741-.07773-.13991-.18136-.24873-.31091-.32645s-.27982-.12954-.45082-.15545-.35495-.03886-.55186-.03886c-.43527,0-.77727,.09327-1.026,.27982-.24873,.18655-.39382,.49745-.43527,.93273h-2.20745Zm5.0989,1.63227c-.09327,.08291-.20986,.14768-.34977,.19432-.13991,.04664-.29018,.0855-.45082,.11659-.16064,.03109-.32905,.057-.50523,.07773s-.35236,.04664-.52854,.07773c-.16582,.03109-.32905,.07255-.48968,.12436s-.30054,.12177-.41973,.20986c-.11918,.08809-.21505,.1995-.28759,.33423s-.10882,.30573-.10882,.513c0,.19691,.03627,.36273,.10882,.49745,.07255,.13473,.171,.24095,.29536,.31868,.12436,.07773,.26945,.13214,.43527,.16323,.16582,.03109,.33682,.04664,.513,.04664,.43527,0,.77209-.07255,1.01045-.21764,.23836-.14509,.41455-.31868,.52854-.52077,.114-.20209,.18395-.40677,.20986-.61404,.02591-.20727,.03886-.37309,.03886-.49745v-.82391Zm6.71563-4.10399v-2.40954h-2.20745v2.40954h-1.33691v1.47682h1.33691v4.74136c0,.40418,.06736,.73064,.20209,.97936,.13473,.24873,.31868,.44045,.55186,.57518,.23318,.13473,.50264,.22541,.80836,.27205,.30573,.04664,.62959,.06995,.97159,.06995,.21764,0,.44045-.00518,.66845-.01555,.228-.01036,.43527-.03109,.62182-.06218v-1.71c-.10364,.02073-.21245,.03627-.32645,.04664-.114,.01036-.23318,.01555-.35754,.01555-.37309,0-.62182-.06218-.74618-.18655-.12436-.12436-.18655-.37309-.18655-.74618v-3.97963h1.61672v-1.47682h-1.61672Zm2.58054,2.47172c.03109-.51818,.16064-.94827,.38864-1.29027,.228-.342,.51818-.61663,.87054-.82391,.35236-.20727,.74877-.35495,1.18923-.44304s.8835-.13214,1.32913-.13214c.40418,0,.81355,.0285,1.22809,.0855,.41455,.057,.79282,.16841,1.13482,.33423,.342,.16582,.62182,.39641,.83945,.69177s.32645,.68659,.32645,1.17368v4.18172c0,.36273,.02073,.70991,.06218,1.04154,.04146,.33164,.114,.58036,.21764,.74618h-2.23854c-.04145-.12436-.07514-.25132-.10105-.38086s-.04404-.26168-.05441-.39641c-.35236,.36273-.76691,.61664-1.24363,.76173-.47673,.14509-.96382,.21764-1.46127,.21764-.38345,0-.741-.04664-1.07263-.13991-.33164-.09327-.62182-.23836-.87054-.43527-.24873-.19691-.44305-.44564-.58295-.74618-.13991-.30054-.20986-.65809-.20986-1.07263,0-.456,.08032-.83168,.24095-1.12704,.16064-.29536,.36791-.53114,.62182-.70732s.54409-.30832,.87054-.39641,.6555-.15804,.98713-.20986c.33164-.05182,.65809-.09327,.97936-.12436s.60627-.07773,.855-.13991c.24873-.06218,.44564-.15286,.59073-.27204,.14509-.11918,.21246-.29277,.20209-.52077,0-.23836-.03886-.4275-.11659-.56741s-.18137-.24873-.31091-.32645c-.12955-.07773-.27982-.12954-.45082-.15545s-.35495-.03886-.55186-.03886c-.43527,0-.77727,.09327-1.026,.27982-.24873,.18655-.39382,.49745-.43527,.93273h-2.20745Zm5.0989,1.63227c-.09327,.08291-.20986,.14768-.34977,.19432-.13991,.04664-.29018,.0855-.45082,.11659-.16064,.03109-.32904,.057-.50523,.07773-.17618,.02073-.35236,.04664-.52854,.07773-.16582,.03109-.32904,.07255-.48968,.12436s-.30054,.12177-.41973,.20986-.21504,.1995-.28759,.33423-.10882,.30573-.10882,.513c0,.19691,.03627,.36273,.10882,.49745,.07255,.13473,.171,.24095,.29536,.31868s.26945,.13214,.43527,.16323c.16582,.03109,.33682,.04664,.513,.04664,.43527,0,.77209-.07255,1.01045-.21764s.41455-.31868,.52854-.52077c.114-.20209,.18395-.40677,.20986-.61404,.02591-.20727,.03887-.37309,.03886-.49745v-.82391Zm5.87617-.07773c0-.32127,.03109-.63736,.09327-.94827,.06218-.31091,.16841-.58554,.31868-.82391s.34977-.43268,.5985-.58295,.55964-.22541,.93273-.22541c.37309,0,.68659,.07514,.9405,.22541s.456,.34459,.60627,.58295c.15027,.23836,.2565,.513,.31868,.82391,.06218,.31091,.09327,.627,.09327,.94827,0,.32127-.03109,.63477-.09327,.9405-.06218,.30573-.16841,.58036-.31868,.82391-.15027,.24355-.35236,.43786-.60627,.58295s-.56741,.21764-.9405,.21764-.684-.07255-.93273-.21764-.44823-.33941-.5985-.58295c-.15027-.24355-.2565-.51818-.31868-.82391-.06218-.30573-.09327-.61923-.09327-.9405Zm-2.20745,0c0,.64254,.09846,1.22291,.29536,1.74109,.19691,.51818,.47673,.96123,.83945,1.32913,.36273,.36791,.798,.65032,1.30582,.84723,.50782,.19691,1.07782,.29536,1.71,.29536s1.20477-.09845,1.71777-.29536c.513-.19691,.95086-.47932,1.31359-.84723,.36273-.36791,.64255-.81095,.83945-1.32913,.19691-.51818,.29536-1.09854,.29536-1.74109s-.09846-1.2255-.29536-1.74886c-.19691-.52336-.47672-.969-.83945-1.33691-.36273-.36791-.80059-.65291-1.31359-.855-.513-.20209-1.08559-.30314-1.71777-.30314s-1.20218,.10105-1.71,.30314c-.50782,.20209-.94309,.48709-1.30582,.855-.36273,.36791-.64254,.81354-.83945,1.33691s-.29536,1.10632-.29536,1.74886Zm9.80917-7.08872v11.09944h2.20745v-11.09944h-2.20745Zm5.90726,7.08872c0-.32127,.03109-.63736,.09327-.94827,.06218-.31091,.16841-.58554,.31868-.82391s.34977-.43268,.5985-.58295c.24872-.15027,.55963-.22541,.93272-.22541,.37309,0,.68659,.07514,.9405,.22541,.25391,.15027,.456,.34459,.60627,.58295,.15027,.23836,.2565,.513,.31868,.82391,.06218,.31091,.09327,.627,.09327,.94827s-.03109,.63477-.09327,.9405c-.06218,.30573-.16841,.58036-.31868,.82391-.15027,.24355-.35236,.43786-.60627,.58295-.25391,.14509-.56741,.21764-.9405,.21764s-.684-.07255-.93272-.21764c-.24873-.14509-.44823-.33941-.5985-.58295-.15027-.24355-.2565-.51818-.31868-.82391-.06218-.30573-.09328-.61923-.09327-.9405Zm-2.20745,0c0,.64254,.09846,1.22291,.29536,1.74109,.19691,.51818,.47673,.96123,.83945,1.32913,.36273,.36791,.798,.65032,1.30582,.84723,.50782,.19691,1.07781,.29536,1.71,.29536s1.20477-.09845,1.71777-.29536c.513-.19691,.95086-.47932,1.31359-.84723,.36273-.36791,.64255-.81095,.83946-1.32913,.19691-.51818,.29536-1.09854,.29536-1.74109s-.09846-1.2255-.29536-1.74886-.47672-.969-.83946-1.33691c-.36273-.36791-.80059-.65291-1.31359-.855-.513-.20209-1.08559-.30314-1.71777-.30314s-1.20218,.10105-1.71,.30314c-.50782,.20209-.94309,.48709-1.30582,.855-.36273,.36791-.64255,.81354-.83945,1.33691-.19691,.52336-.29536,1.10632-.29536,1.74886Zm13.49343,2.11418c-.342,0-.627-.07255-.855-.21764-.228-.14509-.41196-.33164-.55186-.55964s-.23836-.4845-.29536-.7695c-.057-.285-.0855-.57259-.0855-.86277,0-.30055,.03368-.58814,.10105-.86277,.06736-.27464,.17618-.51818,.32645-.73064,.15027-.21245,.33681-.38086,.55963-.50523s.48968-.18655,.80059-.18654c.36273,0,.66327,.06736,.90164,.20209,.23836,.13473,.43009,.31609,.57518,.54409,.14509,.228,.24872,.48968,.31091,.78504,.06218,.29536,.09327,.60886,.09327,.9405,0,.29018-.03886,.56741-.11659,.83168-.07772,.26427-.19432,.50004-.34977,.70732s-.35236,.37309-.59072,.49745c-.23836,.12436-.513,.18655-.82391,.18655Zm3.97963,1.38354v-7.52399h-2.09863v1.07264h-.03109c-.26945-.46636-.60368-.798-1.00268-.99491-.399-.19691-.86277-.29536-1.39131-.29536-.55964,0-1.0545,.10882-1.48459,.32645-.43009,.21764-.79022,.51041-1.08041,.87832-.29018,.36791-.51041,.79282-.66068,1.27473-.15027,.48191-.22541,.98195-.22541,1.50013,0,.54927,.06477,1.07004,.19432,1.56232,.12955,.49227,.33423,.92236,.61405,1.29027,.27982,.36791,.63736,.65809,1.07263,.87054,.43527,.21245,.95345,.31868,1.55454,.31868,.48709,0,.95086-.10105,1.39131-.30314,.44046-.20209,.77986-.51559,1.01822-.9405h.03109v1.05709c.01036,.57-.12696,1.04154-.41196,1.41463-.285,.37309-.73841,.55964-1.36023,.55964-.39382,0-.741-.08032-1.04154-.24095-.30055-.16064-.50264-.44823-.60627-.86277h-2.19191c.03109,.456,.15805,.84723,.38087,1.17368,.22282,.32645,.50264,.59332,.83945,.80059,.33682,.20727,.70991,.36014,1.11927,.45859,.40936,.09845,.81095,.14768,1.20477,.14768,.92236,0,1.65818-.12436,2.20745-.37309,.54927-.24873,.969-.55186,1.25918-.90941,.29019-.35754,.47932-.74359,.56741-1.15813,.08809-.41454,.13214-.78245,.13214-1.10373Zm5.73626,1.50791l3.35781-9.0319h-2.28518l-1.75663,5.50308h-.03109l-1.81882-5.50308h-2.34736l2.81372,7.53953c.06218,.15545,.09327,.32127,.09327,.49745,0,.23836-.06995,.456-.20986,.65291-.13991,.19691-.35495,.31091-.64514,.342-.21763,.01036-.43527,.00518-.65291-.01555-.21764-.02073-.43009-.04145-.63736-.06218v1.81882c.228,.02073,.45341,.03886,.67623,.05441s.44823,.02332,.67623,.02332c.75655,0,1.34727-.13991,1.77218-.41973,.42491-.27982,.75655-.74618,.99491-1.39909Z"/><path class="cls-2" d="M21.72296,14.54617c-.35236,0-.65291-.07255-.90163-.21764s-.44823-.33423-.5985-.56741c-.15027-.23318-.25909-.50523-.32645-.81614-.06736-.31091-.10105-.627-.10105-.94827,0-.33164,.03109-.65291,.09327-.96382,.06218-.31091,.16841-.58554,.31868-.82391,.15027-.23836,.34718-.43268,.59073-.58295,.24355-.15027,.54668-.22541,.90941-.22541,.35236,0,.65032,.07514,.89386,.22541,.24355,.15027,.44304,.34718,.5985,.59073,.15545,.24354,.26686,.52077,.33423,.83168,.06736,.31091,.10105,.627,.10105,.94827s-.03109,.63736-.09327,.94827-.16841,.58295-.31868,.81614c-.15027,.23318-.34718,.42232-.59073,.56741-.24355,.14509-.54668,.21764-.90941,.21764Zm-4.05736-6.59126v10.85071h2.20745v-3.80863h.03109c.26945,.39382,.61404,.69177,1.03377,.89386s.87832,.30314,1.37577,.30314c.59073,0,1.10632-.114,1.54677-.342,.44045-.228,.80836-.53373,1.10373-.91718,.29536-.38345,.51559-.82391,.66068-1.32136s.21764-1.01564,.21764-1.55454c0-.57-.07255-1.11668-.21764-1.64004s-.36791-.98195-.66845-1.37577-.67882-.70991-1.13482-.94827c-.456-.23836-1.00009-.35755-1.63227-.35755-.49745,0-.95345,.09845-1.368,.29536-.41454,.19691-.75654,.513-1.026,.94827h-.03109v-1.026h-2.09863Zm14.90807,3.15572h-3.59099c.01036-.15545,.04405-.33164,.10105-.52854,.057-.19691,.15545-.38345,.29536-.55964,.13991-.17618,.32645-.32386,.55964-.44305,.23318-.11918,.52595-.17877,.87832-.17877,.53891,0,.9405,.14509,1.20477,.43527s.44823,.71509,.55186,1.27473Zm-3.59099,1.39909h5.79845c.04145-.62182-.01036-1.21773-.15545-1.78772-.14509-.57-.38086-1.07782-.70732-1.52345s-.74359-.80059-1.25141-1.06486c-.50782-.26427-1.10373-.39641-1.78772-.39641-.61145,0-1.1685,.10882-1.67113,.32645-.50263,.21764-.93532,.51559-1.29804,.89386s-.64254,.8265-.83945,1.34468-.29536,1.07782-.29536,1.67891c0,.62182,.09586,1.19182,.28759,1.71,.19173,.51818,.46377,.96382,.81614,1.33691,.35236,.37309,.78245,.66068,1.29027,.86277s1.07782,.30314,1.71,.30314c.912,0,1.68927-.20727,2.33181-.62182,.64254-.41455,1.11927-1.10373,1.43018-2.06754h-1.94318c-.07254,.24873-.26945,.4845-.59073,.70732-.32127,.22282-.70473,.33423-1.15036,.33423-.62182,0-1.09854-.16064-1.43018-.48191-.33164-.32127-.513-.83945-.54409-1.55454Zm7.10426-4.55481V15.99189h2.20745v-4.21281c0-.81873,.13473-1.40686,.40418-1.76441s.70473-.53632,1.30582-.53632c.52854,0,.89645,.16323,1.10373,.48968,.20727,.32645,.31091,.82132,.31091,1.48459v4.53927h2.20745v-4.94345c0-.49745-.04405-.95086-.13214-1.36023-.08809-.40936-.24095-.75654-.45859-1.04154s-.51559-.50782-.89386-.66845c-.37827-.16064-.86277-.24095-1.4535-.24095-.46636,0-.92236,.10623-1.368,.31868-.44564,.21245-.80836,.55186-1.08818,1.01823h-.04664v-1.11927h-2.09863Z"/></svg>