<?xml version="1.0" encoding="UTF-8"?><svg id="Layer_1" xmlns="http://www.w3.org/2000/svg" viewBox="0 0 1821 479"><defs><style>.cls-1{fill:none;}.cls-2{fill:#b23481;}.cls-3,.cls-4{fill:#a42e76;}.cls-4{opacity:.7;}</style></defs><g><path class="cls-3" d="m576.72203,161.63144c0-34.23231,26.96542-59.09884,63.78173-59.09884s63.78336,24.86653,63.78336,59.09884-26.96705,59.10047-63.78336,59.10047-63.78173-24.86816-63.78173-59.10047Zm89.13337,0c0-17.59963-11.30297-28.25742-25.35164-28.25742-14.04704,0-25.35164,10.65778-25.35164,28.25742,0,17.60127,11.3046,28.25905,25.35164,28.25905,14.04867,0,25.35164-10.65778,25.35164-28.25905Z"/><path class="cls-3" d="m840.2445,147.74448c0,26.16016-20.02357,42.6295-51.51017,42.6295h-16.30927v27.77394h-38.10831v-113.03294h54.41758c31.4866,0,51.51017,16.47097,51.51017,42.6295Zm-38.43172,0c0-8.23549-5.00467-13.24015-15.50075-13.24015h-13.88697v26.48194h13.88697c10.49608,0,15.50075-5.0063,15.50075-13.24179Z"/><path class="cls-3" d="m962.80166,189.40538v28.74253h-93.97797v-113.03294h91.87908v28.74253h-54.41758v13.24179h47.79751v27.45053h-47.79751v14.85556h56.51647Z"/><path class="cls-3" d="m1105.05572,105.11497v113.03294h-31.32653l-42.95128-51.34847v51.34847h-37.13972v-113.03294h31.32653l42.95128,51.3501v-51.3501h37.13972Z"/><path class="cls-3" d="m581.24321,274.67685h55.70795c37.78654,0,63.78336,21.47727,63.78336,56.51647s-25.99683,56.51647-63.78336,56.51647h-55.70795v-113.03294Zm54.09417,83.32182c15.98586,0,26.96542-9.52749,26.96542-26.80535s-10.97956-26.80371-26.96542-26.80371h-15.98586v53.60906h15.98586Z"/><path class="cls-3" d="m806.1739,368.00963h-42.95291l-7.58867,19.70016h-38.7535l49.41128-113.03294h37.4615l49.41128,113.03294h-39.40032l-7.58867-19.70016Zm-10.49608-27.45053l-10.97956-28.41912-10.98119,28.41912h21.96075Z"/><path class="cls-3" d="m894.33868,304.2279h-33.10365v-29.55105h104.31398v29.55105h-33.10365v83.48189h-38.10668v-83.48189Z"/><path class="cls-3" d="m1062.91623,368.00963h-42.95291l-7.58867,19.70016h-38.7535l49.41128-113.03294h37.4615l49.41128,113.03294h-39.40032l-7.58867-19.70016Zm-10.49608-27.45053l-10.97956-28.41912-10.98119,28.41912h21.96075Z"/><path class="cls-3" d="m1126.05114,331.19332c0-34.23231,26.96542-59.09884,63.78173-59.09884s63.78336,24.86653,63.78336,59.09884-26.96705,59.10047-63.78336,59.10047-63.78173-24.86816-63.78173-59.10047Zm89.13337,0c0-17.59963-11.30297-28.25742-25.35164-28.25742-14.04704,0-25.35164,10.65778-25.35164,28.25742,0,17.60127,11.3046,28.25905,25.35164,28.25905,14.04867,0,25.35164-10.65778,25.35164-28.25905Z"/><path class="cls-3" d="m1283.64587,274.67685h38.10831v83.48352h51.02506v29.54942h-89.13337v-113.03294Z"/><path class="cls-3" d="m1393.28465,331.19332c0-34.23231,26.96542-59.09884,63.78173-59.09884s63.78336,24.86653,63.78336,59.09884-26.96705,59.10047-63.78336,59.10047-63.78173-24.86816-63.78173-59.10047Zm89.13337,0c0-17.59963-11.30297-28.25742-25.35164-28.25742-14.04704,0-25.35164,10.65778-25.35164,28.25742,0,17.60127,11.3046,28.25905,25.35164,28.25905,14.04867,0,25.35164-10.65778,25.35164-28.25905Z"/><path class="cls-3" d="m1625.6423,328.12583h33.10201v47.79587c-13.72527,9.36578-32.61853,14.37208-49.24958,14.37208-36.4929,0-63.13655-24.38305-63.13655-59.10047s26.64364-59.09884,63.94343-59.09884c22.28416,0,40.2072,7.75037,51.67187,21.79905l-24.38305,21.47564c-7.10356-8.23549-15.33904-12.43326-25.35001-12.43326-16.79438,0-27.45216,10.81785-27.45216,28.25742,0,16.95445,10.65778,28.25905,26.96705,28.25905,4.68289,0,9.20408-.80852,13.88697-2.74571v-28.58083Z"/><path class="cls-3" d="m1758.3705,346.69569v41.01409h-38.10668v-41.4992l-42.6295-71.53374h40.2072l23.09105,39.07691,23.25112-39.07691h36.81631l-42.6295,72.01885Z"/></g><g><path class="cls-1" d="m216.28645,268.21464v-26.71419c0-30.82806-.0005-61.65612-.001-92.48418v-16.14718c0-1.20698-.04432-2.41477-.01195-3.62069.05179-1.91735-.82963-2.40624-2.70303-2.30334-1.7265.0948-3.43755.24021-5.14114.4094-3.28019.32568-6.51855.78351-9.7126,1.38351-3.30758.62142-6.57134,1.38295-9.7858,2.29674-3.34045.94965-6.6301,2.05585-9.86797,3.31904v.00006c-3.3773,1.31753-6.69683,2.80798-9.96059,4.4642-3.09196,1.56907-6.13362,3.28598-9.12199,5.15683-.3202.20031-.62646.41538-.94367.61855l-.0005.00006c-3.55657,2.27627-6.96076,4.72072-10.19116,7.33319v.00006c-3.6726,2.97001-7.13306,6.14302-10.36595,9.50058-3.87876,4.02816-7.4189,8.32691-10.63486,12.83381v.00006c-4.36031,6.11083-8.09416,12.61937-11.16471,19.42351-10.66872,23.63929-13.311,50.80396-6.20184,77.00448.07768.28709.14192.57542.2221.86225,2.01831,7.21579,4.57245,14.03929,7.66092,20.46927,0,0-.0005,0,0,.00006,2.46251,5.12795,5.27759,9.99632,8.42333,14.61944,2.65622,3.90348,5.55696,7.62544,8.7012,11.16601,0,0,.0005-.00006.0005,0,2.76976,3.11891,5.73125,6.09527,8.88147,8.93064,2.84595,2.56161,5.85375,5.00214,9.01045,7.33088,2.47894,1.82852,5.03059,3.60195,7.70175,5.28618.46511.29343.9362.57087,1.4043.8564,3.00929,1.83518,6.07486,3.50858,9.19669,5.02051,3.04216,1.47365,6.13611,2.7989,9.28085,3.97407,3.07204,1.14803,6.19138,2.15712,9.35704,3.02828,3.09843.85279,6.24118,1.57436,9.42576,2.16945l.0005.00006c3.12283.58357,6.28699,1.04321,9.489,1.386.25995.02782.5179.06243.77834.0887,6.2367.62901,6.27504.49418,6.27504-5.7455.001-27.3056,0-54.61114-.0005-81.91674v-.0005Z"/><path class="cls-2" d="m308.66668,313.26587c2.33901-3.06326,4.59038-6.27398,6.74563-9.64394,1.51685-2.37088,2.90621-4.77625,4.21241-7.20415,10.72698-19.94278,14.47079-41.76145,12.83493-64.78928-.70116-9.87145-2.49936-19.25345-5.3498-28.15441-2.10446-6.57221-4.79455-12.87657-8.07823-18.9053-2.50185-4.59355-5.34033-9.03018-8.5294-13.30204-2.67565-3.58402-5.60177-7.0499-8.76295-10.40404-.70564-.74865-1.39783-1.50377-2.12737-2.24091-2.20705-2.22921-4.47086-4.3333-6.78348-6.32739-2.92912-2.52544-5.94189-4.86246-9.03584-7.01641-2.97294-2.06992-6.02107-3.96983-9.14141-5.70224-3.01128-1.67166-6.08979-3.18794-9.23454-4.55035-3.04515-1.31927-6.15005-2.4983-9.3167-3.53217-3.07403-1.0038-6.20533-1.87272-9.3904-2.61159-3.10092-.71927-6.25413-1.31255-9.45713-1.78463-3.12532-.46063-6.29795-.80635-9.51739-1.03511-2.04421-.14529-4.10535-.24874-6.1869-.30165-1.5786-.04015-2.63531-.2953-3.31754-.89487-.75394-.66262-1.04825-1.74859-1.02036-3.48698.16882-10.62247.06275-21.24929.06275-31.8745-.00299-10.86667-.07918-21.7342.04781-32.59937.02988-2.58557-.59558-3.73149-2.90322-3.90702-.29879-.02272-.61799-.03349-.97554-.02453-2.89177.07233-5.77507.21164-8.65489.39141-3.22591.20143-6.44734.47202-9.66579.80965-.86897.09113-1.73795.17218-2.60643.27333-2.37835.27688-4.74176.58961-7.09173.93496-3.27322.48092-6.51656,1.03343-9.73401,1.64906-3.28567.62876-6.54296,1.3283-9.76986,2.09998-3.30111.7893-6.57184,1.65143-9.8097,2.59279-3.31754.9644-6.60271,2.00648-9.85303,3.13329-3.33646,1.1565-6.63757,2.39808-9.90133,3.72862-3.35688,1.36832-6.67492,2.83058-9.95412,4.38621-3.38029,1.60343-6.71675,3.31044-10.01288,5.11631-3.40568,1.86593-6.76456,3.84422-10.07861,5.93019-3.43357,2.16123-6.81834,4.44005-10.15182,6.84174-3.23388,2.33011-6.42294,4.76834-9.56121,7.32883-.22857.18643-.44818.3799-.67576.5672-3.58346,2.95159-7.02898,6.0118-10.33955,9.17671-3.66314,3.50148-7.15448,7.13605-10.47899,10.89928-3.77618,4.27528-7.34172,8.7129-10.6742,13.327-3.98932,5.52365-7.65345,11.29356-10.9944,17.30424-2.72594,4.90417-5.24373,9.96339-7.53045,15.19274-1.47701,3.37817-2.84446,6.77221-4.11381,10.1802-11.21201,30.10313-14.34381,61.35963-9.74995,93.57625.43125,3.02292.93272,6.01317,1.49045,8.97745,1.79422,9.53855,4.24627,18.77116,7.37159,27.68245,2.31262,6.59462,4.99424,13.01314,8.05034,19.24966,2.53472,5.17227,5.32789,10.2191,8.382,15.13722,2.66419,4.2901,5.52359,8.48383,8.58816,12.57548,2.74785,3.66924,5.66004,7.25669,8.73407,10.76284,1.81464,2.07016,3.67957,4.11493,5.60924,6.12727,1.06916,1.11554,2.14878,2.20829,3.23288,3.29077,2.92165,2.91717,5.89907,5.70859,8.92529,8.38903,2.94953,2.6124,5.94936,5.1117,8.9965,7.50325,2.97593,2.33553,5.99418,4.5755,9.06124,6.70411,2.99734,2.0805,6.0385,4.06196,9.1215,5.94831,3.01826,1.84657,6.07934,3.59523,9.17727,5.25904,3.03817,1.63132,6.11469,3.17387,9.22806,4.63258,3.0556,1.43182,6.14756,2.7814,9.27487,4.04976,3.07204,1.24619,6.17843,2.41502,9.3182,3.50615,3.08797,1.07315,6.20782,2.07259,9.35953,2.9984,3.10192.9113,6.23471,1.75196,9.39738,2.52301,3.11586.75954,6.2606,1.45149,9.43373,2.07738,3.12831.617,6.2845,1.16938,9.46709,1.65877,3.14026.48279,6.30691.90427,9.49896,1.26506,3.15171.35612,6.32783.65478,9.52934.89406,2.81159.21021,5.63713.38662,8.48657.50825.38494.01643.73701.03,1.06966.04102,4.40314.14585,4.42505-.32674,4.42654-5.29471.00398-16.57613.00249-33.15226.00498-49.72832.0005-4.31207-.0005-8.62408.00149-12.93614.00149-3.32209.02042-4.42548,1.4297-4.83395.73352-.21258,1.83605-.24034,3.5237-.28733,2.0696-.05764,4.10684-.17205,6.12615-.31945,3.29613-.24059,6.52553-.59901,9.6877-1.07694,3.32352-.5024,6.57682-1.12892,9.75293-1.89089,3.35838-.80579,6.63558-1.75407,9.83012-2.84714,3.4007-1.16365,6.7058-2.49469,9.92175-3.98035,3.45-1.59403,6.79195-3.37661,10.03031-5.33685,3.51175-2.12569,6.9015-4.46196,10.16576-7.01261,3.59691-2.81047,7.04343-5.87784,10.34155-9.19688,3.71493-3.73821,7.24212-7.79419,10.58058-12.16683Zm-98.65477,42.6115c-.26044-.02627-.5184-.06088-.77834-.0887-3.20201-.3428-6.36617-.80243-9.489-1.386l-.0005-.00006c-3.18458-.59509-6.32733-1.31666-9.42576-2.16945-3.16566-.87115-6.285-1.88025-9.35704-3.02828-3.14474-1.17517-6.23869-2.50042-9.28085-3.97407-3.12184-1.51193-6.1874-3.18533-9.19669-5.02051-.4681-.28553-.93919-.56297-1.4043-.8564-2.67116-1.68423-5.22281-3.45766-7.70175-5.28618-3.15669-2.32874-6.16449-4.76928-9.01045-7.33088-3.15022-2.83537-6.11171-5.81173-8.88147-8.93064,0-.00006-.0005,0-.0005,0-3.14424-3.54057-6.04498-7.26254-8.7012-11.16601-3.14574-4.62312-5.96082-9.49149-8.42333-14.61944-.0005-.00006,0-.00006,0-.00006-3.08847-6.42998-5.64261-13.25348-7.66092-20.46927-.08017-.28684-.14441-.57517-.2221-.86225-7.10916-26.20052-4.46688-53.36519,6.20184-77.00448,3.07054-6.80415,6.8044-13.31268,11.16471-19.42351v-.00006c3.21595-4.5069,6.75609-8.80565,10.63486-12.83381,3.23288-3.35757,6.69335-6.53057,10.36595-9.50058v-.00006c3.23039-2.61246,6.63458-5.05692,10.19116-7.33319l.0005-.00006c.31721-.20318.62347-.41824.94367-.61855,2.98838-1.87085,6.03004-3.58776,9.12199-5.15683,3.26376-1.65622,6.58329-3.14667,9.96059-4.4642v-.00006c3.23786-1.26319,6.52752-2.36939,9.86797-3.31904,3.21446-.91379,6.47822-1.67533,9.7858-2.29674,3.19404-.6,6.4324-1.05783,9.7126-1.38351,1.70359-.16919,3.41465-.3146,5.14114-.4094,1.8734-.1029,2.75482.386,2.70303,2.30334-.03237,1.20592.01195,2.41371.01195,3.62069v16.14718c.0005,30.82806.001,61.65612.001,92.48418v26.71468c.0005,27.3056.00149,54.61114.0005,81.91674,0,6.23969-.03834,6.37451-6.27504,5.7455Z"/><path class="cls-4" d="m418.05042,287.55238c-12.3992-10.47681-19.80216-23.47078-21.45845-39.43888-2.21103-21.31229,4.66756-39.28369,21.34839-53.14085,3.10341-2.57785,5.89409-5.51133,7.99258-8.8529,8.47611-13.49731,9.78729-27.69938,2.12289-41.87761-7.66241-14.17506-19.92965-21.68926-36.17823-21.7741-31.58437-.16502-51.32628,33.89263-35.64091,61.26807,2.57904,4.5008,5.99866,8.31085,9.96159,11.61326,2.37238,1.97679,4.67503,4.00432,6.70131,6.3358,22.63069,26.0393,17.83166,66.00367-7.03098,85.65669-10.14385,8.01785-14.94089,19.00272-15.11717,32.03037.08715,1.53365.07071,3.14101.28335,4.71742,3.34443,24.78427,27.29029,40.99867,51.42985,34.37392,15.84572-4.34867,26.04285-14.94201,29.49534-31.03541,3.40021-15.8515-1.62541-29.49584-13.90957-39.87579Z"/><path class="cls-4" d="m313.59469,127.2212c24.21476-.09773,41.50661-20.31838,40.92049-41.25955-.04034-22.66244-18.25843-40.89665-40.90754-40.94365-22.69045-.04712-41.15404,18.39101-41.18492,41.1279-.03038,22.72045,18.40185,41.16711,41.17197,41.0753Z"/><path class="cls-4" d="m469.13069,202.19273c-22.83436-.05826-41.13213,18.07915-41.19189,40.95734-.06026,22.89723,18.08264,41.1091,40.98573,41.1424,22.71933.03305,40.74221-18.11152,41.07138-40.75971.31223-21.51042-17.28289-41.27984-40.86521-41.34004Z"/><path class="cls-4" d="m329.24519,356.90714c-22.69095-.04706-41.15404,18.39108-41.18492,41.12796-.03038,22.72039,18.40135,41.16711,41.17197,41.07524,24.21476-.09767,41.50661-20.31838,40.92049-41.25949-.04034-22.6625-18.25843-40.89665-40.90754-40.94371Z"/></g></svg>