<svg id="Layer_1" data-name="Layer 1" xmlns="http://www.w3.org/2000/svg" viewBox="0 0 615.67999 198.64"><defs><style>.cls-1{fill:#fff;}</style></defs><title>angelML-horizontal-white</title><path class="cls-1" d="M135.903,75.06853c.02557-4.42066-1.1474-5.592-5.5636-5.5553-21.6521.18011-43.30725-.0069-64.96137-.06421-.22424,3.34082-.99469,6.50269-5.14685,6.37366a4.233,4.233,0,0,1-4.30365-3.50751,16.34217,16.34217,0,0,1-.46515-2.81311V69.502c-12.65875.03943-25.31915.19232-37.97619.04748-3.65577-.0418-5.18933.54718-5.16333,4.8255.2033,33.48456.09057,66.971.12616,100.45667.01153,10.84741,7.67517,18.39209,18.60949,18.40063,28.32129.02222,56.64752-.29541,84.96155.159,11.14923.179,20.08173-8.09112,19.92822-19.86713C135.52069,140.71037,135.71283,107.88683,135.903,75.06853Zm-2.25922,69.63159a3.89041,3.89041,0,0,1-.49451,1.39728,7.12812,7.12812,0,0,1-1.57287,1.812,3.99059,3.99059,0,0,1-2.19245.971,5.77332,5.77332,0,0,1-1.535-.04694,18.57988,18.57988,0,0,1-2.33386-.57257c.00256,8.82318.04748,17.64667-.00733,26.46954-.03607,5.80353-1.9812,7.7414-7.84265,7.74756q-43.45056.04569-86.90112.00177c-5.8913-.00592-8.15747-2.20117-8.16779-8.14776-.05237-30.13227.01087-60.26484-.07849-90.397-.00891-2.999.84937-4.04309,3.942-4.03412q47.44565.13806,94.89154-.02282c3.82965-.01709,4.24444,1.615,4.22473,4.76922q-.0433,6.93118-.05939,13.86243c-.03546,13.85748-.00952,27.715-.01312,41.57049,2.45551-.71612,4.81067-.98449,6.55164.71418a5.56011,5.56011,0,0,1,.758.9292q.17771.27007.34284.57971a4.112,4.112,0,0,1,.51953,1.83215A3.41753,3.41753,0,0,1,133.6438,144.70012Z"/><path class="cls-1" d="M163.81366,129.69084a4.7711,4.7711,0,0,0-5.167,4.88922,4.70115,4.70115,0,0,0,4.91381,5.10755c3.02454.0921,4.80219-1.81238,5.21717-4.82367C168.57178,131.70262,166.78522,129.7794,163.81366,129.69084Z"/><path class="cls-1" d="M85.39343,27.9666a5.35626,5.35626,0,0,0,5.543-4.40491,4.7187,4.7187,0,0,0,.00141-.59839c.00512-2.999-1.90192-4.78125-5.02375-5.08209-3.03363.3092-5.00232,2.035-5.026,5.04169A4.78212,4.78212,0,0,0,85.39343,27.9666Z"/><path class="cls-1" d="M195.62018,85.60551a4.78467,4.78467,0,0,0-4.804,5.236,4.693,4.693,0,0,0,5.20874,4.79052c3.04834-.13513,4.61951-2.17572,4.8675-5.189C200.33075,87.48424,198.73267,85.4525,195.62018,85.60551Z"/><path class="cls-1" d="M188.61505,53.218a4.76221,4.76221,0,0,0,.00354.54175,4.72112,4.72112,0,0,0,5.03064,4.975c3.05151.01526,4.78973-1.83039,4.89624-5.01532-.145-3.15076-1.99078-5.00745-4.94952-5.00238A4.747,4.747,0,0,0,188.61505,53.218Z"/><path class="cls-1" d="M143.62091,8.68028c.06989-3.15936-2.04254-4.98736-5.06775-5.021A4.67374,4.67374,0,0,0,133.632,8.0717q-.00705.12936-.007.259c-.20715,3.14936,1.77277,4.82325,4.75775,5.351C141.49719,13.394,143.55225,11.7841,143.62091,8.68028Z"/><path class="cls-1" d="M184.86646,42.17424q.18913-.00312.37756-.02179c3.16571-.11133,4.69128-2.118,5.0473-5.3977-.78363-2.60651-2.19049-4.78125-5.48376-4.48365-3.14557.28424-4.90314,2.2713-4.61072,5.385A4.59453,4.59453,0,0,0,184.86646,42.17424Z"/><path class="cls-1" d="M63.82025,57.93382q.16782.00723.33588.00214a4.729,4.729,0,0,0,5.111-4.991c.04315-3.13379-1.95148-4.76068-5.22906-5.18146-2.7367.61127-4.72236,2.18793-4.63684,5.35712A4.62022,4.62022,0,0,0,63.82025,57.93382Z"/><path class="cls-1" d="M60.2312,75.82268c4.15216.129,4.92261-3.03284,5.14685-6.37366-3.99481-4.64453-6.00567-4.63379-9.91565.053a16.34217,16.34217,0,0,0,.46515,2.81311A4.233,4.233,0,0,0,60.2312,75.82268Z"/><path class="cls-1" d="M72.76733,41.33849c3.21271.21,4.79224-1.79383,5.4347-4.77015-.33-3.04278-1.95588-5.01373-5.06379-5.09393a4.58759,4.58759,0,0,0-4.999,4.13556q-.018.19089-.02014.38281C67.89325,39.07372,69.58923,41.13072,72.76733,41.33849Z"/><path class="cls-1" d="M161.469,13.76836c-.014-3.18683-2.06158-4.69092-5.06591-5.1944-2.8993.63287-4.9881,2.23834-4.83094,5.37073.15577,3.10479,2.25049,4.87848,5.32782,4.74615C159.78827,18.56664,161.48181,16.67625,161.469,13.76836Z"/><path class="cls-1" d="M189.017,103.11064a4.71482,4.71482,0,0,0-4.60407,5.4516,4.5403,4.5403,0,0,0,4.56464,4.51593q.22614-.00118.45136-.0249c3.09515-.07507,4.73559-2.07837,4.96673-5.60138C193.78247,104.89977,192.179,102.826,189.017,103.11064Z"/><path class="cls-1" d="M197.97437,67.07414q-.18219-.01281-.36493-.01111a4.6169,4.6169,0,0,0-5.24,4.77924c-.13324,3.19159,1.87957,4.76135,4.90167,5.30157,2.952-.46679,4.97949-1.96991,4.95971-5.16961A4.58958,4.58958,0,0,0,197.97437,67.07414Z"/><path class="cls-1" d="M119.67078,13.41338q.17945-.00486.35809-.02362c3.1709-.0907,4.70563-2.06519,5.05652-5.11384-.63593-2.9638-2.33313-4.94928-5.45477-4.72338a4.71971,4.71971,0,0,0-4.68134,5.38586A4.59992,4.59992,0,0,0,119.67078,13.41338Z"/><path class="cls-1" d="M177.36713,23.42107c-.04993-3.16663-2.05347-4.936-5.112-4.88123a4.58172,4.58172,0,0,0-4.74927,4.40772q-.00669.17954.00067.35931c-.11273,3.16132,1.80786,4.79382,4.88855,5.16717C175.4975,28.193,177.41718,26.59654,177.36713,23.42107Z"/><path class="cls-1" d="M102.157,18.38579c3.06488-.47736,5.03681-2.24433,4.78906-5.32538a4.9986,4.9986,0,0,0-9.98315.3916C97.06128,16.47563,98.99414,18.22942,102.157,18.38579Z"/><path class="cls-1" d="M178.11414,118.16747c-3.03394.46655-4.90174,2.16534-4.69477,5.31329a4.58272,4.58272,0,0,0,4.52753,4.63721q.1767.0021.35321-.0094a4.66108,4.66108,0,0,0,4.97961-5.04816C183.27722,119.89012,181.23944,118.36839,178.11414,118.16747Z"/><path class="cls-1" d="M146.46478,136.90727a4.94189,4.94189,0,0,0-.24109,9.879c3.08808.148,4.83057-1.73926,5.25824-4.69867C151.32,138.77489,149.43665,136.92174,146.46478,136.90727Z"/><path class="cls-1" d="M132.81317,141.72362a5.55671,5.55671,0,0,0-.75806-.9292c-1.741-1.69867-4.09613-1.4303-6.55163-.71417l-.00244.00293c-2.43091,2.7265-2.12262,5.45318.0141,8.17773a18.57988,18.57988,0,0,0,2.33386.57257,5.77332,5.77332,0,0,0,1.535.04694,3.99059,3.99059,0,0,0,2.19245-.971,7.12812,7.12812,0,0,0,1.57287-1.812,3.89041,3.89041,0,0,0,.49451-1.39728,3.41753,3.41753,0,0,0,.0318-.5647,4.11129,4.11129,0,0,0-.51959-1.83209Q132.991,141.99324,132.81317,141.72362Z"/><path class="cls-1" d="M66.65955,89.75713c-.12653-3.03339-1.923-4.96686-4.86615-5.07825a4.757,4.757,0,0,0-5.15772,4.88006,4.67634,4.67634,0,0,0,4.86371,5.124C64.58325,94.80132,66.33569,92.97844,66.65955,89.75713Z"/><path class="cls-1" d="M68.14465,102.31108q-.125.00165-.24975.01007c-3.13739.04523-5.098,2.04431-5.02234,5.06091.0755,3.00757,2.154,4.70319,5.27417,4.94208,3.01306-.55713,4.96863-2.322,4.73645-5.40271A4.67483,4.67483,0,0,0,68.14465,102.31108Z"/><path class="cls-1" d="M78.5155,117.50151a4.9366,4.9366,0,0,0,.08887,9.87177c3.22083.06567,4.723-1.953,5.1958-5.1493C83.18427,119.50774,81.70282,117.383,78.5155,117.50151Z"/><path class="cls-1" d="M93.28186,129.31206a4.48474,4.48474,0,0,0-4.98,4.47424c-.25458,3.18158,1.52234,5.17065,4.5954,5.37164,3.09106.20209,4.85748-1.69946,5.39721-4.76507C98.01111,131.32555,96.43555,129.3889,93.28186,129.31206Z"/><path class="cls-1" d="M110.22388,136.61974a4.65695,4.65695,0,0,0-4.85157,5.19653,4.58075,4.58075,0,0,0,4.41272,4.7428q.19006.00686.38013-.00208c3.13593.07544,4.79926-1.84759,5.23071-5.09125C114.94269,138.6165,113.31531,136.54185,110.22388,136.61974Z"/><path class="cls-1" d="M282.46387,52.17284l-31.27393,92.04492h12.291l9.55957-28.95215h32.63965l9.83252,28.95215h12.70117L296.80322,52.17284Zm19.097,53.80664H275.499l9.01319-26.63037c1.36548-4.3064,2.56714-8.61127,3.67151-12.85547q.49731-1.91108.97155-3.80518h.27344c1.36572,5.32568,2.731,10.78858,4.77979,16.79736l9.01318,26.49366Z"/><path class="cls-1" d="M380.9248,76.61815c-10.92578,0-18.57324,6.14551-21.85058,12.42724h-.27344l-.68262-10.92529H347.46582c.41016,5.46289.5459,11.062.5459,17.89014v48.20752h12.01855V104.47752a17.25817,17.25817,0,0,1,.81934-5.59912,17.07275,17.07275,0,0,1,16.11426-12.291c11.335,0,15.2959,8.877,15.2959,19.52881v38.10156h12.01757V104.75C404.27734,82.08055,390.07422,76.61815,380.9248,76.61815Z"/><path class="cls-1" d="M476.78906,88.08934h-.27344c-2.86816-5.4624-9.15039-11.47119-20.62207-11.47119-15.1582,0-29.77148,12.70068-29.77148,35.09668,0,18.2998,11.74512,32.23047,28.13281,32.23047,10.24317,0,17.34473-4.917,21.03125-11.0625h.27344v7.375c0,16.66113-9.01367,23.0791-21.30469,23.0791a37.27364,37.27364,0,0,1-19.39258-5.18945l-3.0039,9.15039c5.32617,3.55078,14.0664,5.46191,21.9873,5.46191,8.33008,0,17.61719-1.91113,24.03516-7.91992,6.41894-5.73633,9.42383-15.02246,9.42383-30.18164V96.28368c0-8.05762.27246-13.38379.5459-18.16358H477.335ZM475.42285,116.085a20.9173,20.9173,0,0,1-.95605,6.41894,17.56859,17.56859,0,0,1-16.66114,12.291c-10.62451,0-16.94171-7.23737-18.8822-16.983a34.771,34.771,0,0,1-.64709-6.77973c0-15.29492,8.19433-24.99121,19.666-24.99121a16.76109,16.76109,0,0,1,12.44043,5.22131,19.15587,19.15587,0,0,1,4.35742,7.47937,17.12059,17.12059,0,0,1,.68262,5.46241Z"/><path class="cls-1" d="M540.55957,76.61815c-19.25586,0-31.001,15.70508-31.001,35.64355s12.1543,33.32227,32.50293,33.32227c10.51563,0,17.75391-2.18555,21.98731-4.09766L562,132.8828c-4.50684,1.91211-9.69629,3.41406-18.2998,3.41406-12.01758,0-22.39649-6.69141-22.66993-22.94238h46.43262a45.33586,45.33586,0,0,0,.40918-5.59961C567.87207,95.60057,562.13672,76.61815,540.55957,76.61815ZM521.167,104.75c.92859-8.09069,5.98114-18.88476,17.40692-19.49859.33808-.01819.6803-.02973,1.02961-.02973,9.608,0,14.04,6.001,15.75341,12.21814a26.22814,26.22814,0,0,1,.90772,7.31018Z"/><rect class="cls-1" x="589.85449" y="47.25633" width="12.01758" height="96.96143"/></svg>