<svg id="Layer_1" data-name="Layer 1" xmlns="http://www.w3.org/2000/svg" viewBox="0 0 576 576"><defs><style>.cls-1{fill:#fff;}</style></defs><title>angelML-icon-white</title><path class="cls-1" d="M360.39694,418.63757a11.03137,11.03137,0,0,0-1.3938-6.72223L359,411.91l.00311.00556A11.0309,11.0309,0,0,1,360.39694,418.63757Z"/><path class="cls-1" d="M359.975,420.4621a10.19027,10.19027,0,0,0,.37518-1.53351A10.19027,10.19027,0,0,1,359.975,420.4621Z"/><path class="cls-1" d="M161.39474,219.90875a10.48487,10.48487,0,0,1-3.35021,2.08936A10.4841,10.4841,0,0,0,161.39474,219.90875Z"/><path class="cls-1" d="M366.81009,220.83228c.07269-12.5636-3.26093-15.89264-15.81189-15.78833-61.53589.512-123.08038-.0196-184.62195-.18244-.39831,5.93421-1.403,11.66962-4.98151,15.04724a10.4841,10.4841,0,0,1-3.35021,2.08936,15.474,15.474,0,0,1-6.29578.97748h-.00006c-10.90015-.33875-12.70917-9.169-13.553-17.9635-35.97656.112-71.95777.54657-107.92945.13494-10.38977-.11883-14.74823,1.55512-14.67431,13.71424.57782,95.164.25738,190.33325.35852,285.50055.03277,30.82867,21.81305,52.27087,52.88873,52.29516,80.48987.06311,160.99384-.8396,241.46308.45185,31.68646.50872,57.07281-22.99518,56.63659-56.463C365.7236,407.38824,366.26962,314.10278,366.81009,220.83228ZM354.51382,427.84814c-5.29773,4.54249-11.357,2.69568-17.22631.999l-.00006-.00006h0c.00732,25.07574.13494,50.15234-.02082,75.22717-.10248,16.49383-5.63061,22.00128-22.289,22.01874q-123.48778.12981-246.97546.00506c-16.74323-.01684-23.18378-6.2558-23.21308-23.15619C44.64023,417.30512,44.82,331.66748,44.566,246.031c-.02533-8.52326,2.41394-11.49054,11.20331-11.46509q134.84188.39238,269.68438-.06482c10.884-.04859,12.06287,4.58984,12.00684,13.55426q-.123,19.69857-.16876,39.39734c-.10077,39.38342-.027,78.76684-.03729,118.14459,6.97857-2.03528,13.672-2.798,18.61993,2.02966a15.796,15.796,0,0,1,2.15442,2.64081l.00427.0072q.50143.761.96686,1.635l.00317.00537a11.03137,11.03137,0,0,1,1.3938,6.72223c-.01275.09772-.03113.194-.04675.291a10.19027,10.19027,0,0,1-.37518,1.53351A17.19578,17.19578,0,0,1,354.51382,427.84814Z"/><path class="cls-1" d="M446.133,376.07043a13.55862,13.55862,0,0,0-14.68494,13.89533,13.36166,13.36166,0,0,0,13.96521,14.51581c8.59582.26172,13.64795-5.15088,14.82733-13.709C459.65573,381.788,454.57828,376.32214,446.133,376.07043Z"/><path class="cls-1" d="M223.26047,86.96735a13.58948,13.58948,0,0,0,1.46649.00341,13.4339,13.4339,0,0,0,14.29083-14.223c.01453-8.52325-5.40527-13.58844-14.27765-14.44348-8.62164.87879-14.21673,5.78351-14.284,14.32861A13.5909,13.5909,0,0,0,223.26047,86.96735Z"/><path class="cls-1" d="M536.52805,250.77869a13.59822,13.59822,0,0,0-13.65314,14.88086,13.33786,13.33786,0,0,0,14.8034,13.6148c8.66346-.384,13.12873-6.18341,13.83356-14.74725C549.91562,256.118,545.37381,250.34381,536.52805,250.77869Z"/><path class="cls-1" d="M516.61923,158.73254a13.49737,13.49737,0,0,0,.01007,1.53962,13.41773,13.41773,0,0,0,14.29724,14.1391c8.67249.04333,13.61255-5.202,13.91523-14.25373-.41211-8.95434-5.65784-14.23114-14.06665-14.21686A13.49115,13.49115,0,0,0,516.61923,158.73254Z"/><path class="cls-1" d="M388.74466,32.155c.19861-8.979-5.805-14.17419-14.40271-14.27a13.2828,13.2828,0,0,0-13.98608,12.54028q-.02006.36768-.01972.73609c-.58874,8.95056,5.03827,13.70782,13.52167,15.20758C382.709,45.55145,388.54947,40.9762,388.74466,32.155Z"/><path class="cls-1" d="M505.96548,127.34576q.5376-.00877,1.07312-.06189c8.997-.3164,13.33277-6.0194,14.34455-15.34045-2.227-7.40778-6.2254-13.58844-15.585-12.74261-8.93976.80786-13.93482,6.45514-13.1037,15.30413A13.05761,13.05761,0,0,0,505.96548,127.34576Z"/><path class="cls-1" d="M161.94888,172.135q.47709.02041.95459.006a13.44037,13.44037,0,0,0,14.52564-14.18457c.12262-8.90631-5.54621-13.53-14.86121-14.72583-7.77771,1.73725-13.421,6.21814-13.178,15.225A13.13118,13.13118,0,0,0,161.94888,172.135Z"/><path class="cls-1" d="M158.04453,221.99811a10.48487,10.48487,0,0,0,3.35021-2.08936c3.57856-3.37762,4.5832-9.113,4.98151-15.04724h0c-11.35339-13.19989-17.0683-13.16937-28.18054.15064.84387,8.79449,2.65289,17.62469,13.553,17.96344h0A15.474,15.474,0,0,0,158.04453,221.99811Z"/><path class="cls-1" d="M187.3768,124.97058c9.13062.5968,13.61963-5.09808,15.44556-13.55688-.93787-8.64771-5.55866-14.24921-14.39142-14.47712a13.03828,13.03828,0,0,0-14.20746,11.75336q-.05127.54255-.05713,1.088C173.52451,118.53406,178.34451,124.38007,187.3768,124.97058Z"/><path class="cls-1" d="M439.46933,46.61548c-.0398-9.05707-5.85907-13.33173-14.39746-14.76264-8.23987,1.79871-14.17633,6.36145-13.72968,15.2638.44269,8.82391,6.396,13.86474,15.14185,13.48865C434.69272,60.25232,439.50583,54.87976,439.46933,46.61548Z"/><path class="cls-1" d="M517.76157,300.52875a13.40016,13.40016,0,0,0-13.0849,15.49359,12.90387,12.90387,0,0,0,12.9729,12.83441q.64278-.00348,1.28271-.07086c8.79651-.21338,13.45874-5.9068,14.1156-15.91925C531.30521,305.61353,526.74808,299.71973,517.76157,300.52875Z"/><path class="cls-1" d="M543.21866,198.112q-.51774-.03644-1.03711-.03156a13.12111,13.12111,0,0,0-14.89227,13.58271c-.37867,9.07061,5.34185,13.53192,13.93072,15.06726,8.38965-1.32666,14.15186-5.59851,14.09564-14.6922A13.04371,13.04371,0,0,0,543.21866,198.112Z"/><path class="cls-1" d="M320.67764,45.60657q.51-.01365,1.01776-.06708c9.01178-.25775,13.37348-5.86932,14.37079-14.53363-1.80737-8.42322-6.63086-14.066-15.50268-13.424a13.41307,13.41307,0,0,0-13.30445,15.30676A13.073,13.073,0,0,0,320.67764,45.60657Z"/><path class="cls-1" d="M484.65231,74.04877c-.14184-8.99964-5.83612-14.02826-14.52844-13.87262a13.02131,13.02131,0,0,0-13.49762,12.52679q-.019.51041.002,1.02118c-.32044,8.98456,5.13793,13.62421,13.89337,14.68524C479.33878,87.61084,484.79459,83.07355,484.65231,74.04877Z"/><path class="cls-1" d="M270.903,59.73834c8.71051-1.35669,14.3147-6.37842,13.61066-15.13489a14.20616,14.20616,0,0,0-28.37237,1.113C256.42087,54.30963,261.91409,59.294,270.903,59.73834Z"/><path class="cls-1" d="M486.77536,343.32068c-8.62256,1.326-13.93085,6.154-13.34265,15.10052A13.02408,13.02408,0,0,0,486.3,371.60028q.50226.006,1.004-.02667a13.24772,13.24772,0,0,0,14.15217-14.347C501.449,348.21649,495.65756,343.89172,486.77536,343.32068Z"/><path class="cls-1" d="M396.827,396.57965a14.045,14.045,0,0,0-.68518,28.07636c8.77642.42059,13.72863-4.943,14.94409-13.35376C410.62558,401.88757,405.2731,396.62085,396.827,396.57965Z"/><path class="cls-1" d="M360.39694,418.63757a11.0309,11.0309,0,0,0-1.39386-6.722L359,411.91q-.46518-.87423-.96686-1.635l-.00439-.007a15.79255,15.79255,0,0,0-2.15442-2.6408c-4.94794-4.8277-11.6413-4.06494-18.61987-2.02973l-.007.00836c-6.90869,7.74878-6.0326,15.498.04,23.24128l.00006.00006c5.86932,1.69671,11.92858,3.54352,17.22631-.999a17.19578,17.19578,0,0,0,5.46119-7.386,10.19027,10.19027,0,0,0,.37518-1.53351C360.36581,418.8316,360.38419,418.73529,360.39694,418.63757Z"/><path class="cls-1" d="M170.01828,262.5777c-.35956-8.621-5.46521-14.116-13.82977-14.4325a13.51942,13.51942,0,0,0-14.65833,13.86927A13.28975,13.28975,0,0,0,155.353,276.577C164.1174,276.91345,169.09787,271.73279,170.01828,262.5777Z"/><path class="cls-1" d="M174.23892,298.25629q-.35522.00485-.70978.02874c-8.9165.12854-14.48864,5.81-14.27356,14.38324.21454,8.54761,6.12171,13.36658,14.98932,14.04554,8.56317-1.58338,14.121-6.59919,13.46112-15.35468A13.28619,13.28619,0,0,0,174.23892,298.25629Z"/><path class="cls-1" d="M203.71323,341.428a14.03,14.03,0,0,0,.25256,28.05585c9.15369.18664,13.42291-5.55048,14.7666-14.63446C216.982,347.12976,212.7717,341.09131,203.71323,341.428Z"/><path class="cls-1" d="M245.67966,374.994a12.74582,12.74582,0,0,0-14.15332,12.71588c-.72351,9.04217,4.32653,14.69519,13.06024,15.26623,8.78491.57435,13.80511-4.82977,15.33905-13.54248C259.12033,380.71631,254.64249,375.21228,245.67966,374.994Z"/><path class="cls-1" d="M293.82932,395.76257a13.23482,13.23482,0,0,0-13.78827,14.76868,13.01858,13.01858,0,0,0,12.54107,13.47919q.54008.01941,1.08033-.00592c8.91235.21441,13.63958-5.25092,14.86584-14.46961C307.24033,401.43738,302.61526,395.54126,293.82932,395.76257Z"/></svg>