<svg id="Layer_1" data-name="Layer 1" xmlns="http://www.w3.org/2000/svg" viewBox="0 0 360 333.48379"><path d="M90.96475,170.81334c7.62777-18.127,11.51047-36.77655,15.0064-55.49289,5.96037-31.9102,9.99-64.0323,8.63621-96.59475-.25723-6.18742,1.48495-8.48763,8.1493-7.85823,18.04465,1.70425,35.93746,3.76657,52.159,12.65286,4.29425,2.35241,8.06272,1.08949,12.1683-.0681,31.04859-8.7544,62.53272-14.69146,94.96825-14.02456,21.314.4382,41.98425,3.87891,61.64379,12.70276,6.42729,2.88479,8.80869,6.98641,8.21657,13.81-1.59338,18.36084-8.93345,34.81751-16.55571,51.18038-2.08375,4.47313-5.1132,1.90063-7.68417.27686-25.87033-16.33886-53.651-28.70063-82.264-39.25516-20.30906-7.49146-40.84768-14.30973-63.05823-17.71293,6.85388,6.78182,13.46407,13.83266,20.60355,20.29912,31.60979,28.63,64.55185,55.494,102.6243,75.31764,4.20052,2.18712,5.21946,4.42942,2.33732,8.52213-10.58374,15.02908-21.41085,29.87331-37.29064,39.82312-4.72283,2.95918-5.85246,7.16838-7.02283,11.8422-9.10433,36.35929-22.332,70.95581-44.02531,101.86507a141.32545,141.32545,0,0,1-32.7932,33.84521c-5.80209,4.19811-10.96984,4.692-16.8508.2718-14.19047-10.66589-24.86019-24.40093-34.75184-38.877-2.71837-3.97833-.78886-6.15612,2.7084-7.955,28.51183-14.66527,53.84495-33.91967,78.26436-54.4537a452.869,452.869,0,0,0,42.52409-40.06c-2.80337-2.67141-5.20782-.70529-7.3048-.14617-47.052,12.545-92.37254,29.38921-134.04082,55.0109-5.69515,3.50193-8.72346,3.06616-11.49985-3.33937-7.09268-16.36367-13.66734-32.86751-14.77419-50.86936-.36268-5.89814-3.96836-9.07555-7.56264-12.56846-25.65123-24.92717-47.961-52.37483-63.48486-84.8437C12.42829,68.255,6.88919,51.80014,6.21089,33.93381c-.269-7.08606,2.60368-11.03925,9.00147-13.3449a168.24491,168.24491,0,0,1,46.156-9.68414c6.32015-.42162,7.8731,1.80433,7.70768,7.50668-1.16841,40.2806,4.98923,79.755,13.57646,118.923,2.46152,11.22741,5.52486,22.32294,8.31227,33.47884ZM179.41369,39.508C169.096,92.96161,136.67685,132.90421,100.13213,170.5282c49.89177-20.371,99.62857-11.2357,149.82543-1.32076C211.44387,133.75969,193.98926,87.71363,179.41369,39.508Z"/></svg>