<svg id="Layer_1" data-name="Layer 1" xmlns="http://www.w3.org/2000/svg" viewBox="0 0 993 1450"><defs><style>.cls-1{fill:#fff;}</style></defs><path class="cls-1" d="M538.35156,466.2522c.14014-1.05884,1.46436-.375,1.61182-1.27a.21917.21917,0,0,1,.06348-.09351c1.00293-1.0979,2.12475-2.07324,3.12158-3.1875,1.13574-1.27,2.57959-2.24463,3.55761-3.70605.19141-.28614.041-.82056.35108-.78858,1.17822.12158,1.3977-.91333,2.00146-1.49633.82642-.7981,1.56348-1.72437,2.374-2.46729.92163-.84448,2.19824-1.24805,2.28051-2.76855.00611-.11255.17554-.27491.30005-.31348,1.55689-.48389,2.46729-1.72315,3.53589-2.8374,2.18994-2.283,4.51416-4.43726,6.77564-6.6521.23828-.2334.64209-.51245.50244-.8357-.36255-.83862.01245-.89673.67041-.7644.41748.08374.62646-.219.852-.46436,1.25391-1.365,2.75977-2.4375,3.658-4.21679.46216-.91553.73511-1.81617,1.0708-2.63037a10.03438,10.03438,0,0,0-.31226-1.56812c-.46362-1.22681-1.48242-1.34424-2.28344-.28955a2.60132,2.60132,0,0,0-.40332.68677c-.85816,2.446-2.7732,3.81006-4.95386,4.93457a9.70234,9.70234,0,0,0-4.03931,3.24853c-.63135.99585-1.301,1.96851-1.90747,2.97925a9.97962,9.97962,0,0,1-4.332,4.24487,12.73486,12.73486,0,0,0-6.39038,6.39331,9.42614,9.42614,0,0,1-4.24146,4.30713c-1.84277.98951-3.74023,1.97388-4.86792,3.84156a28.64318,28.64318,0,0,1-6.30493,7.72509,1.438,1.438,0,0,0-.22729.25537,1.37115,1.37115,0,0,0,.77685,2.28711,3.69859,3.69859,0,0,0,3.37891-.86352,14.26845,14.26845,0,0,0,1.72851-1.7771C537.2627,467.53125,538.2312,467.16309,538.35156,466.2522Z"/><path class="cls-1" d="M578.64648,437.61108c-.60278-.40014-1.32959.04175-1.88794.45a14.41056,14.41056,0,0,0-1.36474,1.20532c-2.43067,2.30444-4.43359,5.01513-6.8523,7.32251-3.38134,3.22558-6.844,6.35888-9.93115,9.8855-2.0769,2.37231-4.69238,4.20385-6.80762,6.55834-2.00512,2.23218-4.03808,4.44288-6.23437,6.49732a84.05779,84.05779,0,0,0-7.06787,6.94726,2.237,2.237,0,0,0-.68848,2.179c.30249.82178,1.25879.4585,1.82959.64575a5.85264,5.85264,0,0,0,2.5127-.54,10.136,10.136,0,0,0,4.81469-4.83862,11.62669,11.62669,0,0,1,5.66724-5.67725,9.997,9.997,0,0,0,4.80591-4.85473,10.59022,10.59022,0,0,1,5.22681-5.324,11.11137,11.11137,0,0,0,5.40234-5.50049,10.95167,10.95167,0,0,1,4.89746-4.89184c3.17627-1.74829,5.71753-4.09888,6.22681-7.98145C579.29785,438.91309,579.30444,438.04785,578.64648,437.61108Z"/><path class="cls-1" d="M623.44238,461.34839c-3.85058,2.08105-4.95947,8.345-2.10083,11.7583a.84265.84265,0,0,0,.887.29712,7.45905,7.45905,0,0,0,6.33862-7.104,6.6406,6.6406,0,0,0-1.45288-4.10717A2.52435,2.52435,0,0,0,623.44238,461.34839Z"/><path class="cls-1" d="M476.40234,439.27222c-.2705-2.04859-.73681-2.47852-2.83105-2.57007-1.79419-.07861-3.56934.25049-5.35425.25561-10.88525.03174-21.77051.012-32.65552.05518a16.0772,16.0772,0,0,1-6.37451-.96191,10.72744,10.72744,0,0,0-2.10254-.49366c-2.05127-.39087-4.17773-.32837-6.18335-.97827-1.66748-.54028-2.16308-1.50976-1.3623-3.03808,2.28149-4.35425,3.51025-9.12476,5.48974-13.59522.14087-.31836.21021-.67236.67115-.624a6.756,6.756,0,0,1,3.29223.70312,6.90468,6.90468,0,0,0,3.91626,1.40943,20.77634,20.77634,0,0,1,7.25513,1.30786,5.29077,5.29077,0,0,0,1.76587.41479c3.20557-.09985,6.36816.51465,9.56348.52,4.87158.00781,9.7434.01416,14.615-.00952a28.59984,28.59984,0,0,0,6.57006-.656c2.97583-.71386,3.99756-1.97241,4.00123-5.0476q.01867-16.09936.01928-32.19873.00109-8.73487-.02026-17.46924c-.00269-1.57861-.34448-2.00781-1.92359-2.27661a27.08183,27.08183,0,0,0-3.989-.1023,6.34315,6.34315,0,0,1-3.70166-.94336,6.2296,6.2296,0,0,0-2.97681-1.05908,12.98337,12.98337,0,0,1-4.27148-1.155,9.87039,9.87039,0,0,0-2.49951-.76855,13.4379,13.4379,0,0,1-3.687-1.16333,9.56107,9.56107,0,0,0-4.2732-1.09253,7.49483,7.49483,0,0,1-4.91821-1.801,10.00765,10.00765,0,0,0-6.81567-2.48511,3.541,3.541,0,0,1-2.06519-.5664,6.862,6.862,0,0,0-4.01807-1.04077c-4.22265.00049-8.45361-.16944-12.66552.04248a7.54348,7.54348,0,0,1-6.46924-2.47949,1.84744,1.84744,0,0,1-.64234-1.35279c.022-4.83349.03028-9.66723-.00976-14.50024-.00708-.85376.23779-1.10547,1.09033-1.09009,6.65527.12036,13.31226-.14917,19.96826.322,5.3916.38135,10.80518.08447,16.20825.16113a7.83878,7.83878,0,0,1,3.98682.76,8.28956,8.28956,0,0,0,3.70947.98926c3.031.20435,6.07325.36206,8.87867,1.75244a6.05713,6.05713,0,0,0,2.64428.64624,11.04872,11.04872,0,0,1,5.94556,1.66211c.85522.52466,1.616.11426,2.06738-.77148a5.0123,5.0123,0,0,0,.41114-2.33936q-.00147-16.21325-.01563-32.42627a3.8547,3.8547,0,0,0-.396-1.75,14.86765,14.86765,0,0,0-6.282-6.12085c-4.12695-2.425-8.12939-5.05444-12.38916-7.26635-2.48535-1.29053-4.69507-3.127-7.60254-3.49366a2.30653,2.30653,0,0,1-.74731-.27417,12.999,12.999,0,0,0-5.05274-1.283,15.25683,15.25683,0,0,1-5.9729-1.30909,10.57947,10.57947,0,0,0-3.53027-.85424,8.93311,8.93311,0,0,1-2.31836-.57105c-2.877-1.23828-5.92358-1.24536-8.96533-1.33252a13.91516,13.91516,0,0,0-5.91895.959,20.60065,20.60065,0,0,1-2.65014,1.03442c-1.88282.50244-3.39746,1.87207-5.38208,2.14648a6.87093,6.87093,0,0,0-4.46485,2.50733,27.61862,27.61862,0,0,0-2.43774,3.84643c-1.05029,1.79932-1.03443,1.78662.52661,3.05493a25.89793,25.89793,0,0,1,5.40942,5.66041c1.37037,2.05957,2.7981,4.07031,5.34693,4.88134a3.48306,3.48306,0,0,1,1.6145,1.41089c1.27075,1.75488,2.5249,3.52149,3.7832,5.28516.429.60132.47705.98266-.28174,1.52-2.96948,2.10327-6.053,4.09009-8.0271,7.321a7.88772,7.88772,0,0,1-2.91772,2.50708c-.34131.199-.65161.41724-.98828-.00805-1.35693-1.71363-3.27857-2.98243-4.04395-5.16456a1.70825,1.70825,0,0,0-.85131-1.03,18.90268,18.90268,0,0,1-5.99219-5.021,1.93936,1.93936,0,0,0-2.70655-.47485,48.49646,48.49646,0,0,0-7.07275,4.5708c-1.33105.9934-2.86352,1.76855-3.55371,3.41821a40.45391,40.45391,0,0,1-2.78833,5.228c-2.80518,4.65088-4.29126,9.59887-3.60986,15.105a10.67131,10.67131,0,0,0,3.67749,7.33716,10.6011,10.6011,0,0,1,3.01635,3.51709,22.02923,22.02923,0,0,0,7.19507,8.54492,7.01968,7.01968,0,0,1,2.887,3.84326,9.86922,9.86922,0,0,0,1.06958,2.26c1.133,1.9685,2.93652,3.26514,4.58911,4.718a15.06826,15.06826,0,0,1,4.22851,5.31713,6.61526,6.61526,0,0,0,3.56909,3.71778,26.14764,26.14764,0,0,0,10.6272,2.71631,99.3764,99.3764,0,0,0,11.06177-.2312,3.72422,3.72422,0,0,1,3.6792,2.79394c.571,4.1272.25342,8.2793.20068,12.42017a2.19514,2.19514,0,0,1-2.20117,2.00464c-1.48145.0354-2.96533-.02271-4.448-.02979-4.06518-.019-8.13159.1897-12.16772-.6355-2.17676-.44507-3.84448.58008-4.99024,2.436-1.39721,2.26294-2.749,4.55395-4.15918,6.80884-2.313,3.69824-4.33325,7.61889-7.87256,10.39575a6.58847,6.58847,0,0,0-1.34375,1.83227c-.22314.3584-.48046.8667-.853.8689-1.61255.00928-3.39331.46484-4.78784-.44678a77.66816,77.66816,0,0,0-8.09644-4.437,9.51127,9.51127,0,0,1-3.05518-2.15918c-1.18652-1.35791-1.20825-1.63257.02979-2.96777a11.806,11.806,0,0,0,3.12988-4.96265A12.375,12.375,0,0,1,385.562,396.731a20.5663,20.5663,0,0,0,5.707-8.25684,2.66624,2.66624,0,0,0-.42309-2.959,6.62677,6.62677,0,0,0-2.13111-1.6958,10.65987,10.65987,0,0,1-2.77929-2.323,95.95251,95.95251,0,0,1-6.24292-7.85279c-3.14087-4.261-6.73047-8.1499-10.01612-12.28662-1.5769-1.9851-2.7312-4.29248-4.56225-6.10644-1.1167-1.10645-1.57349-1.11524-2.45972.19018a2.45955,2.45955,0,0,0-.3728.92969c-.60083,3.04712-2.26026,5.75049-2.84888,8.81568-.248,1.29174-.86279,2.5083-1.20727,3.7871a9.013,9.013,0,0,0,.36743,5.17212c.69629,2.19556.91015,4.5625,1.99634,6.61084a10.64769,10.64769,0,0,1,1.24145,4.905c.03931,1.856-.3186,2.30908-1.99951,3.145-2.57153,1.2793-5.36768,2.21387-7.33984,4.48535a9.80358,9.80358,0,0,1-3.29712,2.39746,10.85284,10.85284,0,0,0-4.45459,4.13819c-.82251,1.27954-1.553,2.6123-2.251,3.967a13.09875,13.09875,0,0,0-1.47192,6.57812c.12182,4.01026.0625,8.02808-.009,12.04126-.05542,3.115,1.38892,4.69532,4.49048,4.70337.22827.00074.45654-.011.68482-.01489,1.8247-.03125,3.6499-.04517,5.47412-.09619,3.19165-.08936,6.39013.394,9.57422-.06567,1.81738-.26246,3.64257-.20435,5.46386-.3.60254-.03174.78809.1709.80176.76391q.1626,7.188.37866,14.375c.01685.5857-.13843.93262-.77783,1.01465a47.4751,47.4751,0,0,1-6.21313.79126c-4.33838-.01514-8.67774.08106-13.01441.001a4.05185,4.05185,0,0,0-3.32031,1.60034,13.52408,13.52408,0,0,0-3.48877,8.61182c-.16919,5.52734-.53906,11.08911.25024,16.58862a13.4826,13.4826,0,0,0,3.7312,8.00268,20.16606,20.16606,0,0,0,3.58912,2.61524,1.159,1.159,0,0,0,1.36059-.0188,28.70656,28.70656,0,0,0,7.97241-6.56494c1.36182-1.68311,2.68091-3.43189,4.97852-3.94531a1.39933,1.39933,0,0,0,.5-.269c2.49023-1.86059,5.46118-2.61133,8.31787-3.63183a.80431.80431,0,0,1,.99854.19482c3.4436,3.502,6.45,7.37256,9.58056,11.21411-.30029.1648-.52246.30811-.761.4148a21.25708,21.25708,0,0,0-7.87867,6.07007,12.30839,12.30839,0,0,1-4.00634,3.15356,18.46957,18.46957,0,0,0-6.87305,5.85742,22.25941,22.25941,0,0,1-3.31421,3.90528,2.93028,2.93028,0,0,0-.76636,3.32641,26.28973,26.28973,0,0,1,.75269,2.981,11.03928,11.03928,0,0,0,1.41723,4.28955,6.63579,6.63579,0,0,1,.90284,2.5647c.57226,3.49121,2.16967,6.33691,5.49951,7.85351a22.52689,22.52689,0,0,1,5.13525,3.34107c.66748.55932,1.35938,1.09155,2.05786,1.6123,3.2002,2.385,7.29322,2.06812,10.80371,3.53516a5.46158,5.46158,0,0,0,1.92652.10742c1.67285.02417,3.34668.01318,5.019.05835.96216.02588,2.50879,1.13574,2.60523,2.05981.24926,2.39258,1.47045,4.439,2.19116,6.65943a5.77923,5.77923,0,0,0,1.34765,2.20581,27.12308,27.12308,0,0,1,4.21973,5.27368,21.53945,21.53945,0,0,0,2.93311,4.10913,9.48667,9.48667,0,0,0,5.59106,2.74048c.68774.12085.51-.3811.51367-.72046.03882-3.65259-.04077-7.3103.13037-10.9563a13.0666,13.0666,0,0,0-4.02929-10.1687,57.154,57.154,0,0,1-4.97266-5.498,12.78691,12.78691,0,0,0-4.04687-3.78759,7.3649,7.3649,0,0,1-1.49146-1.39722c-.5896-.58057-.41846-.93286.10181-1.4668,2.33813-2.39844,5.134-4.2832,7.4292-6.73462,1.55761-1.66382,3.27514-3.17676,4.89819-4.78076a.89082.89082,0,0,1,1.26123-.18457q3.70605,2.01893,7.47559,3.92065a7.808,7.808,0,0,1,3.968,4.20826,12.70349,12.70349,0,0,0,3.06519,4.62475,19.14033,19.14033,0,0,1,4.98047,8.95362,6.55641,6.55641,0,0,0,.81714,1.99707,6.25256,6.25256,0,0,1,1.0271,3.67163q.02892,2.39685.03076,4.79443c.00635,3.53784.03735,7.07617-.00562,10.61353a2.8816,2.8816,0,0,0,2.46851,3.01342,23.41919,23.41919,0,0,0,5.89355-.44262c2.42774-.57764,4.53907-1.92627,6.84473-2.7793a44.30913,44.30913,0,0,0,10.03174-5.08911,11.388,11.388,0,0,1,5.26343-2.07153,4.5261,4.5261,0,0,0,1.824-.62549,47.65439,47.65439,0,0,0,10.68994-8.29,4.84328,4.84328,0,0,0,1.37964-3.57422c-.04272-11.26514-.01-22.53076-.01514-33.79614-.00171-3.52076-.57373-4.0774-4.137-4.08081-10.65674-.00977-21.31372.03418-31.97021-.02661-6.99707-.0398-13.99244.177-20.99366-.332-3.60156-.26171-6.65527-1.2561-9.21777-3.80542A36.63021,36.63021,0,0,0,405.4751,481.54a15.0466,15.0466,0,0,1-3.9209-3.61426q-4.27368-6.19959-8.575-12.37988a3.37,3.37,0,0,1-.62842-1.80493,9.22305,9.22305,0,0,0-1.38818-4.52368c-.61621-1.0022-1.02515-2.14356-1.7107-3.08936-1.45678-2.00806-1.47485-4.33252-1.70752-6.62939a.88618.88618,0,0,1,.62989-1.04346,15.46,15.46,0,0,0,3.01367-1.59888,23.64486,23.64486,0,0,1,10.32568-4.55249c1.68189-.231,2.56885-.00293,3.30737,1.48975a42.55347,42.55347,0,0,0,3.47071,5.61645,17.76725,17.76725,0,0,1,2.6897,5.00562,42.22147,42.22147,0,0,0,2.85034,7.07666c1.62085,3.16308,3.80395,5.86719,7.281,7.21728a17.251,17.251,0,0,1,3.32178,1.49878,7.7291,7.7291,0,0,0,4.43726,1.17871q22.481-.05346,44.9624-.02832c1.95679-.00024,2.83716-.85107,2.83984-2.76.00757-5.51855.06714-11.03784-.00171-16.55542C476.61914,447.78638,476.96387,443.51953,476.40234,439.27222Z"/><path class="cls-1" d="M505.55762,418.91235h.0271q0,64.79042-.01343,129.58081a2.8519,2.8519,0,0,0,1.32959,2.48291,7.64227,7.64227,0,0,0,4.32226,1.249c6.65723.22387,13.30762-.19043,19.96216-.27051,1.85449-.02246,3.75342.12378,5.46021-.846a6.2759,6.2759,0,0,1,3.52026-.729c.68311.03369,1.36963.01147,2.0542-.001,4.907-.09033,9.81421-.166,14.49439-1.95825a5.86875,5.86875,0,0,1,1.45507-.25122,10.02284,10.02284,0,0,0,2.76123-.66113c2.97925-1.22486,6.10181-2.09156,8.95581-3.6316,2.17334-1.17309,4.6355-1.70971,6.75879-2.98413a9.45569,9.45569,0,0,1,3.61914-1.29565,9.02481,9.02481,0,0,0,1.98047-.51636c4.21289-1.60571,7.52271-4.69336,11.34229-6.94873a62.42089,62.42089,0,0,1,6.36987-3.75073A17.68835,17.68835,0,0,0,607.481,522.469a12.2206,12.2206,0,0,1,5.40722-4.20849,9.83835,9.83835,0,0,0,5.50733-5.478,8.58492,8.58492,0,0,1,4.05932-4.31763,10.91615,10.91615,0,0,0,5.02662-4.77856,11.92284,11.92284,0,0,1,2.30639-3.51733c2.7251-2.60328,4.63526-5.81275,6.75293-8.86939,1.342-1.937,2.72852-3.84814,3.06714-6.29028A4.4623,4.4623,0,0,1,640.27,483.574a46.07744,46.07744,0,0,1,4.35962-6.53491,9.53337,9.53337,0,0,0,.96509-1.67334c1.19287-2.29834,2.03271-4.74145,3.03222-7.11914a11.96672,11.96672,0,0,0,1.117-4.49023,10.40179,10.40179,0,0,1,.97851-4.50879,28.83813,28.83813,0,0,0,3.13452-8.87671,10.51266,10.51266,0,0,1,.95288-3.14966,12.13573,12.13573,0,0,0,1.08081-4.38965c.12085-1.6914-.06152-3.47412.70972-5.05346a16.54027,16.54027,0,0,0,1.48438-7.42115c.00561-8.5935.03222-17.18676.01489-25.78a17.59847,17.59847,0,0,0-1.10181-7.38452A10.29571,10.29571,0,0,1,656,392.55981a10.19064,10.19064,0,0,0-.9292-4.5415,20.50346,20.50346,0,0,1-1.23975-3.66626c-.72583-3.0249-1.96923-5.87939-2.97241-8.813-.3291-.96289-1.05346-1.801-1.02392-2.87622a17.24292,17.24292,0,0,0-2.42578-8.66089c-1.93409-3.65185-3.3733-7.57812-6.06128-10.79809a8.50606,8.50606,0,0,1-2.11133-4.92725,3.52248,3.52248,0,0,0-.83838-2.09326c-3.29883-3.69312-5.82178-7.98169-9.03906-11.73926a26.24275,26.24275,0,0,1-2.27759-3.272A15.90694,15.90694,0,0,0,620.592,324.939a5.12243,5.12243,0,0,1-2.33862-2.38989,16.66233,16.66233,0,0,0-7.15039-7.292,14.64914,14.64914,0,0,1-4.17823-3.12085,36.11707,36.11707,0,0,0-10.95336-7.88892,60.04817,60.04817,0,0,1-10.14991-6.06543,25.361,25.361,0,0,0-11.65014-4.88012,15.17307,15.17307,0,0,1-4.30933-1.33863c-1.87866-.91333-3.72436-2.10742-5.71973-2.512a30.27254,30.27254,0,0,1-6.384-1.93774,5.65243,5.65243,0,0,0-1.33276-.29517,15.46488,15.46488,0,0,1-4.12622-1.27588,8.27425,8.27425,0,0,0-1.84009-.58471c-2.09448-.46167-4.24194-.2544-6.34985-.56421-3.08082-.45313-6.09156-1.37427-9.24073-1.37207q-12.54675.00951-25.0935.00952c-.37159.00024-.78809-.06348-1.03492.32519-1.54052,2.42456-3.26684,4.57251-3.258,7.85816Q505.6532,355.26319,505.55762,418.91235ZM588.64331,441.478c-1.29517,1.69018-2.58935,3.38159-3.90308,5.05713a3.77368,3.77368,0,0,1-.90283.85473,12.49584,12.49584,0,0,0-4.43066,5.11157,9.74578,9.74578,0,0,1-4.63526,4.68213,12.761,12.761,0,0,0-6.19238,6.14161,9.90832,9.90832,0,0,1-4.83545,4.80444,12.07348,12.07348,0,0,0-5.93847,5.92456,10.07845,10.07845,0,0,1-4.801,4.83984,13.15477,13.15477,0,0,0-4.55151,3.56006,6.49037,6.49037,0,0,1-6.27735,2.60938,8.97586,8.97586,0,0,1-7.13134-2.46338,20.50265,20.50265,0,0,0-2.92286-2.17945c-3.07031-1.9038-4.42309-4.81567-5.47216-8.15332-.96778-3.07837-.55518-5.86035.11962-8.87573a7.846,7.846,0,0,1,4.2-5.68066,14.38684,14.38684,0,0,0,5.98974-6.24317,10.49214,10.49214,0,0,1,4.18067-3.92773,18.10088,18.10088,0,0,0,6.65942-7.17871,5.471,5.471,0,0,1,2.36963-2.39527,18.93565,18.93565,0,0,0,8.25586-8.39526,3.96848,3.96848,0,0,1,1.47485-1.552,31.051,31.051,0,0,0,6.85425-5.43848,2.24645,2.24645,0,0,1,1.81665-.76245c.87451.01587,1.74976.0459,2.62378.02515a4.29646,4.29646,0,0,1,2.78369,1.11059c5.19531,3.9878,9.03638,9.3208,13.74854,13.78687a7.43727,7.43727,0,0,1,1.042,1.35229C589.67383,439.47852,589.64111,440.17627,588.64331,441.478Zm48.25317,29.55371a2.67344,2.67344,0,0,1-.28466.85791c-.2566.5083-.55811.99365-.83423,1.49219-1.99927,3.6123-4.66553,6.04736-8.65308,5.15991a14.41026,14.41026,0,0,1-7.61621-1.35645,15.83878,15.83878,0,0,0-1.77563-.77539,17.276,17.276,0,0,1-7.89771-6.11743c-3.75952-4.89819-8.34228-9.05615-12.54687-13.55469-2.20752-2.36157-4.46314-4.67871-6.64649-7.06225-1.25732-1.37281-1.207-1.44776-.33252-3.0542a35.58426,35.58426,0,0,1,2.07764-2.98755,6.25949,6.25949,0,0,0,.55395-6.87451,14.96958,14.96958,0,0,0-2.64746-3.27515c-1.44653-1.46045-1.26733-2.87183.43042-4.05127q1.17-.813,2.31739-1.65893a1.80076,1.80076,0,0,1,1.02392-.45557c3.155-.05322,6.26416.06885,8.78174,2.37793a30.84551,30.84551,0,0,1,2.687,2.46582c3.311,3.85864,7.36524,6.916,11.04736,10.37256,2.24659,2.10888,3.98194,4.73242,6.49024,6.56006a35.90038,35.90038,0,0,1,6.31689,5.741,76.192,76.192,0,0,0,5.83692,6.24683,5.80206,5.80206,0,0,1,1.88891,4.14331A36.30478,36.30478,0,0,1,636.89648,471.03174Zm-46.33789-57.03467c4.854-4.10645,9.12549-8.83716,13.63526-13.311,6.94311-6.88794,13.81665-13.8462,20.72656-20.76758a6.85644,6.85644,0,0,0,1.79932-2.98731c.75048-2.58618,2.22558-4.92016,2.6687-7.61694.08374-.50977.56128-.5918.92944-.74829,1.32788-.56494,2.68286-1.06763,3.999-1.65772a1.82273,1.82273,0,0,1,1.90479.37354,16.08444,16.08444,0,0,1,6.21484,6.94653c.9585,2.27222.979,2.40723-.84619,4.04566a12.2159,12.2159,0,0,1-4.49609,2.61377c-3.80762,1.21875-6.68164,3.83959-9.41919,6.60888-3.04834,3.084-5.84766,6.41773-9.14526,9.24951-3.10108,2.66285-5.62793,5.88257-8.57032,8.69239-3.438,3.283-7.06933,6.37011-10.40527,9.751-2.77588,2.81348-5.33984,5.83936-8.32349,8.44922a16.86271,16.86271,0,0,0-3.18969,3.23755c-.50342.76074-1.37647.48755-2.08619.64453a5.92249,5.92249,0,0,1-1.395-.082,2.723,2.723,0,0,1-3.011-1.46387,1.75364,1.75364,0,0,1,.08764-2.2561A70.22649,70.22649,0,0,1,590.55859,413.99707ZM517.60938,378.752c.23583-.49707.59912-.15844.87084-.0415a13.042,13.042,0,0,1,4.37525,3.23828,29.66159,29.66159,0,0,0,9.06836,6.60132c1.57007.75659,3.15185.73828,4.28345-.53955,2.57763-2.91016,5.53686-5.43262,8.18725-8.26441.23389-.24975.46607-.50293.67749-.77148,1.29663-1.646,1.31934-2.91553-.09253-4.4917-2.97217-3.31836-5.55615-6.94434-8.36792-10.38818a.93476.93476,0,0,1-.04126-1.35791c1.26953-1.8938,1.5542-2.03125,3.61548-.92163a11.416,11.416,0,0,0,4.97852,1.467,5.53518,5.53518,0,0,1,2.50122.71655,10.91264,10.91264,0,0,0,4.91113,1.302c3.0127.15918,4.33374,1.48145,4.37891,4.52a22.21923,22.21923,0,0,0,1.39868,7.80982,27.46391,27.46391,0,0,1,1.32666,6.00073,8.04485,8.04485,0,0,1-.29663,2.93481,4.164,4.164,0,0,0,1.05859,3.89966A50.90252,50.90252,0,0,0,567.042,396.074a19.51354,19.51354,0,0,1,2.67627,2.47413c3.18262,3.66577,7.12085,6.519,10.60425,9.86157,1.28979,1.2373,2.61938,2.43359,3.91406,3.66577,1.12476,1.07056,1.073,1.52808-.24658,2.2854a6.92094,6.92094,0,0,0-2.38525,1.91626,3.19806,3.19806,0,0,1-3.30469,1.44751c-.99194.34106-1.69165-.25269-2.42432-.71753a20.37272,20.37272,0,0,0-5.27417-2.65454,3.17963,3.17963,0,0,0-2.71826.34619c-1.03125.645-2.09546,1.24512-3.08154,1.9541a7.17419,7.17419,0,0,1-4.03125.957c-.54053.03345-.79492-.385-1.09815-.71679-2.48681-2.72339-4.8955-5.52344-7.48266-8.14746-1.80616-1.832-3.91529-3.34351-5.449-5.47754a2.36939,2.36939,0,0,0-3.11841-.57764,6.43921,6.43921,0,0,1-6.2185-.18189c-1.61792-.83886-3.31152-1.532-4.96777-2.29711a9.32122,9.32122,0,0,0-2.70313-.85962,15.695,15.695,0,0,1-5.36645-2.13135,2.46244,2.46244,0,0,1-1.05-1.011c-.84937-1.86059-1.91333-3.65234-2.209-5.72021-.3042-2.126-1.668-3.81348-2.31933-5.79639a37.00609,37.00609,0,0,0-1.5354-3.926C516.876,379.94922,517.3103,379.38208,517.60938,378.752Z"/><path class="cls-1" d="M211.01538,421.53589c0,156.38208,126.77271,283.15454,283.15454,283.15454,156.38208,0,283.15479-126.77246,283.15479-283.15454S650.552,138.38135,494.16992,138.38135C337.78809,138.38135,211.01538,265.15381,211.01538,421.53589ZM504.74243,250.43066a13.28408,13.28408,0,0,0,4.04614-1.11816,7.98914,7.98914,0,0,1,3.42725-.73828q13.017-.00587,26.03418-.00073a7.5,7.5,0,0,1,2.91675.46093c2.90576,1.22339,6.00122,1.2898,9.05981,1.58448a13.54743,13.54743,0,0,1,4.21778.89111,11.532,11.532,0,0,0,3.83715,1.03833c2.449.16235,4.51392,1.56665,6.85376,2.04541a18.403,18.403,0,0,1,5.60132,1.85229,5.38894,5.38894,0,0,0,1.95459.58008,15.08838,15.08838,0,0,1,4.60254,1.22974c1.87818.91894,3.97168.9751,6.00025,1.26025a4.96061,4.96061,0,0,1,1.82885.5791,116.09467,116.09467,0,0,0,11.88794,6.29541,31.18674,31.18674,0,0,1,4.04029,2.34864,8.43519,8.43519,0,0,0,3.824,1.37158,5.03452,5.03452,0,0,1,3.18921,1.34863c3.61011,3.43311,7.85864,5.949,12.04565,8.59131a59.525,59.525,0,0,1,11.92578,9.49683,15.55837,15.55837,0,0,0,2.64844,2.15869,27.75131,27.75131,0,0,1,7.40967,7.34546,22.87536,22.87536,0,0,0,4.48853,4.36328,27.18489,27.18489,0,0,1,6.074,7.05371c1.46631,2.51318,3.53027,4.56787,5.273,6.86865,2.74707,3.6272,5.69141,7.12964,7.33057,11.47315a8.84326,8.84326,0,0,0,1.947,2.93286,22.18927,22.18927,0,0,1,4.69384,8.36377,89.2193,89.2193,0,0,0,7.05445,15.647c1.479,2.5415,2.13086,5.42993,3.24316,8.12427.80786,1.95752.594,4.33887.81885,6.5332a5.04908,5.04908,0,0,0,.5188,1.97339,10.74438,10.74438,0,0,1,1.26489,4.80933,14.405,14.405,0,0,0,1.19653,4.96045c1.00831,2.35961.91089,4.91381,1.34693,7.37353a5.14076,5.14076,0,0,0,.13647.90039c2.2378,5.96021,1.57373,12.23242,1.99,18.38818.38282,5.66163.09473,11.32618-.07177,16.98169-.10743,3.64283-.53565,7.27906-.45826,10.9358a2.16406,2.16406,0,0,1-.17724.88964c-1.342,3.0459-1.65137,6.30494-1.9895,9.55738a4.72461,4.72461,0,0,1-.4314,1.64624A20.14986,20.14986,0,0,0,684.646,456.106a7.7565,7.7565,0,0,1-.77417,2.96093c-1.09156,2.05713-1.01075,4.3501-1.24073,6.56641a20.81863,20.81863,0,0,1-1.25366,4.7898c-1.77466,5.05371-4.62305,9.56225-6.88061,14.36352a54.6,54.6,0,0,0-2.31128,6.53565,31.88018,31.88018,0,0,1-5.02344,9.14209,22.41309,22.41309,0,0,0-3.9375,7.28149,2.69411,2.69411,0,0,1-.71631,1.281c-4.25952,4.00268-7.08057,9.11669-10.616,13.67822a58.31486,58.31486,0,0,1-7.41723,8.19385,46.65342,46.65342,0,0,0-3.58716,3.82373c-4.3606,4.82031-9.80029,8.40625-14.56812,12.75732a59.545,59.545,0,0,1-11.3042,7.65967A21.32848,21.32848,0,0,0,610.054,558.936a12.83735,12.83735,0,0,1-6.59717,3.626,4.31818,4.31818,0,0,0-1.20533.33252c-3.91894,2.25977-8.25292,3.71265-12.07641,6.135a48.27408,48.27408,0,0,1-7.72876,3.88477c-1.45215.59008-3.06738.4895-4.58521.835a48.36794,48.36794,0,0,0-10.09741,3.08252,11.85206,11.85206,0,0,1-3.96289.94262,11.26784,11.26784,0,0,0-4.02637,1.16895c-1.8479.94482-3.88476.99976-5.88256,1.209a10.52739,10.52739,0,0,0-3.51539.90088,10.2054,10.2054,0,0,1-4.05859.98609,63.7137,63.7137,0,0,0-14.21265,1.89331,5.83148,5.83148,0,0,1-1.57763.22339c-4.033-.0293-8.06812.13842-12.09863-.09351a4.72684,4.72684,0,0,1-1.78516-.30713c-3.14868-1.56055-6.59473-1.35083-9.93652-1.73975a5.60955,5.60955,0,0,1-2.49048-.70629c-1.87085-1.199-4.02686-1.28785-6.1333-1.55567a6.29376,6.29376,0,0,1-1.64746-.43506q-5.837-2.43933-11.66993-4.88891a10.34552,10.34552,0,0,0-3.38965-.95069,7.07691,7.07691,0,0,1-4.21044-2.08349c-2.25-1.93238-2.49268-1.99072-4.91358-.26367-1.79346,1.27929-3.59277,2.41772-5.884,2.47192a2.09527,2.09527,0,0,0-.86841.26147,59.01076,59.01076,0,0,1-7.5874,3.11329c-3.21363,1.13037-6.39209,2.38037-9.59351,3.53027-3.396,1.21973-7.07812,1.43433-10.29809,3.20068a7.82929,7.82929,0,0,1-3.70337.50586c-4.06958.04932-8.13941.148-12.20655.22412-4.666.08741-9.34643-.22485-14.02319-.25512a4.74462,4.74462,0,0,1-1.89014-.384c-4.24536-1.86743-8.50439-3.70556-12.59106-5.90991a9.68235,9.68235,0,0,1-1.54858-.96045,23.58628,23.58628,0,0,0-6.42579-3.821c-2.4292-.9441-3.89746-3.08326-5.146-5.30616a10.82306,10.82306,0,0,0-3.53638-3.96508c-2.42944-1.55176-3.63086-4.04956-5.0376-6.38062a7.52753,7.52753,0,0,0-4.65991-3.709c-2.602-.69776-5.12012-1.69873-7.84033-1.93531a3.73025,3.73025,0,0,1-1.62256-.49707c-3.8103-2.41137-7.96826-4.3479-10.9209-7.94555a9.94781,9.94781,0,0,0-3.14087-2.2024,11.25872,11.25872,0,0,1-5.72339-6.20605,11.56636,11.56636,0,0,0-2.46972-3.9353,18.56715,18.56715,0,0,1-3.09693-4.75977,67.78844,67.78844,0,0,0-3.99145-7.29419,7.20637,7.20637,0,0,1-1.04517-3.999,30.69454,30.69454,0,0,0-.61157-7.82764,8.4091,8.4091,0,0,0-3.29346-5.042c-.3396-.2439-.65039-.52832-.99267-.76807-2.11035-1.47876-3.947-3.061-4.54932-5.834-.38281-1.76294-1.75708-3.17944-2.856-4.63159a35.85292,35.85292,0,0,1-6.88354-16.34473,68.358,68.358,0,0,1-.52319-13.30542c.13379-2.89185.13183-5.77808.17846-8.6665a10.82652,10.82652,0,0,1,1.2-5.021c1.1167-2.13818,1.71827-4.52075,2.81665-6.7a3.84387,3.84387,0,0,0-.574-4.0022,11.80282,11.80282,0,0,1-1.68921-3.83813,4.26471,4.26471,0,0,0-.35425-1.08106c-1.42431-2.41137-1.40088-5.08032-1.44824-7.74658-.03662-2.0542-.21167-4.10889-.17773-6.16089.08154-4.9414.2456-9.88135.39038-14.82153a3.01372,3.01372,0,0,1,.21264-1.10742,95.836,95.836,0,0,1,5.09253-10.93457A57.31891,57.31891,0,0,1,316.98,385.356a6.66415,6.66415,0,0,0,1.0127-1.64795,17.78416,17.78416,0,0,1,6.029-7.5979,7.38555,7.38555,0,0,0,2.98657-6.637c-.22729-5.0249.2334-10.03857.45606-15.05517a2.832,2.832,0,0,1,.28515-1.43726c1.6167-2.2727,1.88745-5.12011,3.28418-7.48925a14.53536,14.53536,0,0,1,2.22388-3.29c2.06689-1.98487,3.12671-4.56763,4.217-7.1084a7.74893,7.74893,0,0,1,3.16479-3.7395,22.129,22.129,0,0,0,3.51221-2.72193,7.30967,7.30967,0,0,0,2.62476-5.50024,22.91215,22.91215,0,0,1,1.41113-7.46143,19.77941,19.77941,0,0,0,.67578-3.81006,16.89653,16.89653,0,0,1,4.56836-9.385,37.60048,37.60048,0,0,0,6.34815-8.97876,4.18362,4.18362,0,0,1,2.05615-2.03613,17.98675,17.98675,0,0,0,3.68969-2.261,7.0815,7.0815,0,0,0,2.87183-4.87377,9.96872,9.96872,0,0,1,1.00415-3.48316,25.76289,25.76289,0,0,0,1.48047-4.29077,14.88166,14.88166,0,0,1,3.6355-5.8584,15.93841,15.93841,0,0,1,1.77954-1.60327,15.69,15.69,0,0,0,4.63428-5.70435,7.12986,7.12986,0,0,1,5.10888-4.31445,6.46856,6.46856,0,0,0,2.5437-1.24683c3.19117-2.45434,6.34522-4.967,10.23438-6.28515a1.46325,1.46325,0,0,0,.40088-.21558c3.78979-2.83691,8.23926-3.04931,12.7-3.15283,2.66284-.06152,5.32837-.01123,9.0896-.01123,6.09888-.321,13.271.62329,20.46484.39648a2.7629,2.7629,0,0,1,1.54981.29932,16.81916,16.81916,0,0,0,6.85815,1.9436,2.842,2.842,0,0,1,.7832.13916c4.37281,1.93335,9.19214,2.62452,13.43482,4.96021a32.07256,32.07256,0,0,0,8.85693,3.2373c4.07032.85083,8.15039.80371,12.03467-1.40185a84.59545,84.59545,0,0,1,15.8169-6.668A20.88163,20.88163,0,0,1,504.74243,250.43066Z"/><path class="cls-1" d="M659.64453,107.04883c-8.18091-4.19873-16.874-7.39942-25.32861-11.06494q-.52919,1.17406-1.0586,2.3479c12.6814,6.824,25.82715,12.91284,37.97217,20.58545,123.03,77.72461,183.32373,189.65185,169.20923,334.48266C821.15356,651.28589,645.00439,777.00781,467.502,760.01416,295.19824,743.51855,163.30029,600.32129,158.73242,430.6106c-4.853-180.30347,134.429-334.324,313.68091-346.06226,11.39087-.74585,18.5896.61157,16.35913,14.63257-1.27661,8.02514,3.4668,8.83789,9.64185,5.94555Q524.679,92.824,550.89893,80.426c6.5332-3.09473,7.415-7.14673,1.24365-11.50708Q528.46411,52.18824,504.592,35.7312c-5.73437-3.96948-10.59546-3.18213-10.634,4.46509-.075,14.82642-9.58667,15.42725-20.83252,16.59228-142.96143,14.814-247.14917,86.38379-306.0979,217.565-85.83838,191.02,15.91089,417.88623,214.60058,484.22509,183.72071,61.34082,383.40845-34.749,449.2417-216.17529C891.40137,375.58838,817.74487,188.1875,659.64453,107.04883Z"/><path class="cls-1" d="M150.179,953.60514H97.92965L84.73082,991.19921H67.52718l48.426-131.35128h16.20267l48.426,131.35128H163.3778Zm-47.42459-13.9268h42.60033L124.32778,879.7829h-.54646Z"/><path class="cls-1" d="M186.68108,943.86562c0-29.675,16.29367-48.97248,40.14246-48.97248,13.56329,0,24.48624,6.64467,30.12995,17.02212h.364V859.84793h15.83868V991.19921H258.04593V975.17853h-.273c-6.09917,10.923-16.93113,17.6591-30.58494,17.6591C203.06575,992.83763,186.68108,973.54011,186.68108,943.86562Zm16.20267,0c0,21.48192,10.559,35.04521,27.3081,35.04521,16.29367,0,27.21662-13.83628,27.21662-35.04521,0-21.1184-10.923-35.04568-27.21662-35.04568C213.44272,908.81994,202.88375,922.47423,202.88375,943.86562Z"/><path class="cls-1" d="M337.42135,991.19921H321.21868l-34.86322-94.66765H303.0136l26.12466,77.82753h.364l26.21565-77.82753h16.47567Z"/><path class="cls-1" d="M460.217,964.07311c-2.73086,16.56714-18.75154,28.76452-39.41449,28.76452-27.1261,0-43.60176-18.84253-43.60176-48.608,0-29.4015,16.74865-49.33647,42.87331-49.33647,25.57868,0,41.32637,18.56954,41.32637,47.24259v6.0077h-67.906v.91044c0,18.11456,10.65,30.039,27.67208,30.039,12.01539,0,20.84494-6.0987,23.4848-15.01972Zm-66.63159-28.30906h51.42988c-.364-15.83869-10.286-27.1261-25.21422-27.1261C404.96386,908.638,394.58688,920.01636,393.58544,935.76405Z"/><path class="cls-1" d="M477.33014,896.53156h14.92824v15.4747h.36447a23.1842,23.1842,0,0,1,22.93834-17.11312,40.82382,40.82382,0,0,1,6.37216.637v15.3837a31.88608,31.88608,0,0,0-8.46556-.91044c-12.28886,0-20.299,8.82954-20.299,22.21084v58.985H477.33014Z"/><path class="cls-1" d="M567.902,894.89314c20.75394,0,34.59022,12.19738,35.2272,28.94652H588.019c-1.18343-9.922-8.46556-16.02068-20.117-16.02068-11.56041,0-19.20652,5.7347-19.20652,14.01779,0,6.55415,4.82426,11.01443,15.38322,13.56329l15.01972,3.64083c19.11552,4.64226,26.03318,12.10638,26.03318,25.66967,0,16.47567-15.56521,28.12707-36.68362,28.12707-22.21037,0-36.04665-11.19642-37.86706-28.94651h15.83868c1.91141,10.83243,9.19354,16.02068,22.02838,16.02068s20.75394-5.46172,20.75394-14.0178c0-6.82714-3.73182-10.74144-14.56425-13.3813l-15.01924-3.64082c-17.84109-4.27828-26.48865-12.56185-26.48865-26.21566C533.12977,906.45355,547.421,894.89314,567.902,894.89314Z"/><path class="cls-1" d="M617.69344,964.43757c0-16.20315,12.47085-26.39765,34.31724-27.67208l27.1261-1.54742v-7.91958c0-11.56041-7.64659-18.47855-20.75442-18.47855-12.19739,0-19.8435,5.73471-21.84638,15.01972H621.24375c1.09244-16.38515,15.11023-28.94652,37.50307-28.94652,22.21037,0,36.22817,12.01539,36.22817,30.85792v65.44815H679.95575V974.90554h-.364c-5.64371,10.832-17.6591,17.93209-30.40294,17.93209C630.34629,992.83763,617.69344,981.45922,617.69344,964.43757Zm61.44334-9.194v-7.73711l-25.30569,1.54742c-12.74337.81945-20.026,6.46316-20.026,15.3837,0,9.01155,7.55559,14.92825,18.934,14.92825C667.66737,979.36582,679.13678,968.89785,679.13678,955.24356Z"/><path class="cls-1" d="M715.09243,896.53156h14.92824v15.4747h.36447a23.18419,23.18419,0,0,1,22.93834-17.11312,40.82382,40.82382,0,0,1,6.37216.637v15.3837a31.88887,31.88887,0,0,0-8.46556-.91044c-12.28886,0-20.299,8.82954-20.299,22.21084v58.985H715.09243Z"/><path class="cls-1" d="M771.347,869.76992a9.922,9.922,0,1,1,9.922,9.92151A9.887,9.887,0,0,1,771.347,869.76992Zm2.00288,26.76164h15.83869v94.66765H773.34992Z"/><path class="cls-1" d="M806.75624,964.43757c0-16.20315,12.47085-26.39765,34.31723-27.67208l27.1261-1.54742v-7.91958c0-11.56041-7.64659-18.47855-20.75442-18.47855-12.19738,0-19.8435,5.73471-21.84638,15.01972H810.30654c1.09244-16.38515,15.11024-28.94652,37.50308-28.94652,22.21036,0,36.22816,12.01539,36.22816,30.85792v65.44815H869.01854V974.90554h-.364c-5.64371,10.832-17.6591,17.93209-30.40294,17.93209C819.40908,992.83763,806.75624,981.45922,806.75624,964.43757Zm61.44333-9.194v-7.73711l-25.30569,1.54742c-12.74336.81945-20.026,6.46316-20.026,15.3837,0,9.01155,7.5556,14.92825,18.934,14.92825C856.73016,979.36582,868.19957,968.89785,868.19957,955.24356Z"/><path class="cls-1" d="M904.97467,859.84793h15.83821V991.19921H904.97467Z"/><path class="cls-1" d="M58.83389,1184.28016H42.44922V1052.92888H91.6947c25.30521,0,41.87187,15.47422,41.87187,39.14149,0,18.29608-9.922,32.49635-26.39765,37.68507l30.40294,54.52472H118.36534l-28.12707-51.97633H58.83389Zm0-66.44959H90.23827c16.83965,0,26.39766-9.10254,26.39766-25.21422,0-15.74769-10.195-25.12322-27.12611-25.12322H58.83389Z"/><path class="cls-1" d="M147.03934,1136.94657c0-30.221,17.6591-48.97248,43.87476-48.97248,26.12466,0,43.78376,18.75153,43.78376,48.97248,0,30.12947-17.6591,48.972-43.78376,48.972C164.69844,1185.91858,147.03934,1167.076,147.03934,1136.94657Zm71.54684,0c0-22.30184-10.92343-35.04568-27.67208-35.04568s-27.76308,12.74384-27.76308,35.04568c0,22.30137,11.01442,35.04521,27.76308,35.04521S218.58618,1159.24794,218.58618,1136.94657Z"/><path class="cls-1" d="M266.92121,1168.25948h-.364v16.02068H251.447V1052.92888H267.2852v52.52231h.36446c5.9167-10.83243,16.93065-17.4771,30.312-17.4771,23.84879,0,39.96046,19.29751,39.96046,48.97248,0,29.76549-16.02068,48.972-40.23393,48.972C283.85234,1185.91858,273.0199,1179.18243,266.92121,1168.25948Zm.273-31.31291c0,21.11793,11.37842,35.04521,27.3991,35.04521,16.74913,0,27.1261-13.3813,27.1261-35.04521,0-21.48239-10.377-35.04568-27.1261-35.04568C278.57262,1101.90089,267.1942,1115.91916,267.1942,1136.94657Z"/><path class="cls-1" d="M431.67976,1184.28016H416.66052v-15.3837h-.364c-5.64371,10.92343-15.4747,17.02212-30.03895,17.02212-20.663,0-32.76934-13.38082-32.76934-34.86322V1089.6125h15.83869v58.621c0,15.3837,7.19113,23.66727,21.84638,23.66727,15.38323,0,24.66824-10.55944,24.66824-26.67112V1089.6125h15.83821Z"/><path class="cls-1" d="M485.295,1087.97409c20.75395,0,34.59023,12.19738,35.22721,28.94651H505.412c-1.18343-9.922-8.46556-16.02068-20.117-16.02068-11.5604,0-19.20652,5.73471-19.20652,14.0178,0,6.55415,4.82426,11.01442,15.38323,13.56329l15.01971,3.64082c19.11553,4.64227,26.03319,12.10639,26.03319,25.66968,0,16.47566-15.56522,28.12707-36.68362,28.12707-22.21037,0-36.04665-11.19642-37.86707-28.94652h15.83869c1.91141,10.83243,9.19354,16.02068,22.02838,16.02068s20.75394-5.46171,20.75394-14.01779c0-6.82715-3.73182-10.74144-14.56426-13.3813l-15.01923-3.64083c-17.8411-4.27828-26.48865-12.56184-26.48865-26.21565C450.52277,1099.53449,464.814,1087.97409,485.295,1087.97409Z"/><path class="cls-1" d="M559.84615,1066.76468v22.84782H578.2337v13.01684H559.84615V1158.884c0,8.64708,3.6413,12.56137,11.74288,12.56137a61.6485,61.6485,0,0,0,6.55367-.455v13.28982a56.44607,56.44607,0,0,1-10.013.728c-17.38611,0-24.12178-7.09965-24.12178-25.30521v-57.07358H529.89867V1089.6125h14.10927v-22.84782Z"/><path class="cls-1" d="M595.07383,1089.6125h14.92824v15.11024h.36446c5.27925-10.195,15.38323-16.74865,30.03848-16.74865,20.75394,0,32.76981,13.38082,32.76981,34.86321v61.44286H657.33613v-58.621c0-15.2927-7.19113-23.66679-21.75538-23.66679-14.92824,0-24.66824,10.559-24.66824,26.57964v55.70816H595.07383Z"/><path class="cls-1" d="M771.66577,1157.15406c-2.73086,16.56713-18.75154,28.76452-39.41448,28.76452-27.12611,0-43.60177-18.84254-43.60177-48.608,0-29.4015,16.74865-49.33647,42.87331-49.33647,25.57868,0,41.32637,18.56954,41.32637,47.24259v6.00769h-67.906v.91045c0,18.11456,10.65,30.039,27.67208,30.039,12.01539,0,20.84494-6.09869,23.4848-15.01971ZM705.03419,1128.845h51.42987c-.364-15.83868-10.286-27.1261-25.21422-27.1261C716.4126,1101.71889,706.03563,1113.09731,705.03419,1128.845Z"/><path class="cls-1" d="M821.91268,1087.97409c20.754,0,34.59023,12.19738,35.22721,28.94651H842.02965c-1.18343-9.922-8.46556-16.02068-20.117-16.02068-11.5604,0-19.20652,5.73471-19.20652,14.0178,0,6.55415,4.82426,11.01442,15.38323,13.56329l15.01971,3.64082c19.11553,4.64227,26.03319,12.10639,26.03319,25.66968,0,16.47566-15.56522,28.12707-36.68362,28.12707-22.21037,0-36.04665-11.19642-37.86707-28.94652h15.83869c1.91141,10.83243,9.19354,16.02068,22.02838,16.02068s20.75394-5.46171,20.75394-14.01779c0-6.82715-3.73182-10.74144-14.56426-13.3813l-15.01923-3.64083c-17.8411-4.27828-26.48865-12.56184-26.48865-26.21565C787.14047,1099.53449,801.43173,1087.97409,821.91268,1087.97409Z"/><path class="cls-1" d="M908.66123,1087.97409c20.75395,0,34.59023,12.19738,35.2272,28.94651H928.7782c-1.18344-9.922-8.46556-16.02068-20.117-16.02068-11.5604,0-19.20652,5.73471-19.20652,14.0178,0,6.55415,4.82426,11.01442,15.38323,13.56329l15.01924,3.64082c19.116,4.64227,26.03366,12.10639,26.03366,25.66968,0,16.47566-15.56522,28.12707-36.68363,28.12707-22.21036,0-36.04664-11.19642-37.86706-28.94652h15.83869c1.91141,10.83243,9.19354,16.02068,22.02837,16.02068s20.75395-5.46171,20.75395-14.01779c0-6.82715-3.73182-10.74144-14.56426-13.3813l-15.01923-3.64083c-17.8411-4.27828-26.48865-12.56184-26.48865-26.21565C873.889,1099.53449,888.18028,1087.97409,908.66123,1087.97409Z"/><path class="cls-1" d="M235.56281,1377.36158v-116.605H194.14544V1246.0103h99.21892v14.74625H251.94747v116.605Z"/><path class="cls-1" d="M278.98258,1330.02752c0-30.22047,17.6591-48.972,43.87475-48.972,26.12467,0,43.78377,18.75154,43.78377,48.972,0,30.13-17.6591,48.97248-43.78377,48.97248C296.64168,1379,278.98258,1360.15747,278.98258,1330.02752Zm71.54684,0c0-22.30137-10.923-35.04521-27.67209-35.04521s-27.76308,12.74384-27.76308,35.04521c0,22.30184,11.014,35.04568,27.76308,35.04568S350.52942,1352.32936,350.52942,1330.02752Z"/><path class="cls-1" d="M377.929,1330.02752c0-30.22047,17.6591-48.972,43.87475-48.972,26.12467,0,43.78376,18.75154,43.78376,48.972,0,30.13-17.65909,48.97248-43.78376,48.97248C395.58809,1379,377.929,1360.15747,377.929,1330.02752Zm71.54684,0c0-22.30137-10.92295-35.04521-27.67209-35.04521s-27.76308,12.74384-27.76308,35.04521c0,22.30184,11.014,35.04568,27.76308,35.04568S449.47583,1352.32936,449.47583,1330.02752Z"/><path class="cls-1" d="M482.33711,1246.0103h15.83821v131.35128H482.33711Z"/><path class="cls-1" d="M535.86039,1361.3409h-.364v16.02068H520.38617V1246.0103h15.83821v52.52231h.36446c5.9167-10.83243,16.93065-17.4771,30.31194-17.4771,23.84879,0,39.96047,19.29752,39.96047,48.972,0,29.766-16.02068,48.97248-40.23393,48.97248C552.79151,1379,541.95908,1372.26433,535.86039,1361.3409Zm.273-31.31338c0,21.1184,11.37841,35.04568,27.39909,35.04568,16.74913,0,27.12611-13.3813,27.12611-35.04568,0-21.48192-10.377-35.04521-27.12611-35.04521C547.51179,1294.98231,536.13338,1309.00058,536.13338,1330.02752Z"/><path class="cls-1" d="M618.24014,1330.02752c0-30.22047,17.6591-48.972,43.87476-48.972,26.12466,0,43.78376,18.75154,43.78376,48.972,0,30.13-17.6591,48.97248-43.78376,48.97248C635.89924,1379,618.24014,1360.15747,618.24014,1330.02752Zm71.54684,0c0-22.30137-10.92343-35.04521-27.67208-35.04521s-27.76308,12.74384-27.76308,35.04521c0,22.30184,11.01442,35.04568,27.76308,35.04568S689.787,1352.32936,689.787,1330.02752Z"/><path class="cls-1" d="M753.14172,1341.31493l-22.84782,36.04665H712.7258l32.22335-47.33406-31.67737-47.33359h17.65957l22.75635,35.50019h.364l22.48384-35.50019h17.6591l-31.95037,46.69661,31.49538,47.971h-17.5681l-22.66583-36.04665Z"/></svg>