<svg id="Layer_1" data-name="Layer 1" xmlns="http://www.w3.org/2000/svg" viewBox="0 0 300 300"><defs><style>.cls-1{fill:#015e42;}.cls-2{fill:#dbd6d0;}.cls-3{fill:#015d41;}.cls-4{fill:#005a3f;}.cls-5{fill:#001c13;}.cls-6{fill:#020202;}.cls-7{fill:#fefefe;}</style></defs><path class="cls-1" d="M121.42831,3.479c-.215-.05465-.40818-.18391-.2298-.39412.16213-.19106.36043-.01953.50976.12224C121.61861,3.30018,121.525,3.39123,121.42831,3.479Z"/><path class="cls-2" d="M248.78558,128.59481c.01576.65114.04533,1.30225.04533,1.95339q.00318,79.61795-.00048,159.23589c-.00009,1.96967.21308,1.76487-1.76469,1.76461q-17.99187-.00243-35.98373-.01714c.00914-.28525.02625-.57053.02627-.85578q.002-35.38557-.001-70.77113c-.00006-.53-.036-1.06-.05512-1.58994a2.74079,2.74079,0,0,0-.34374-2.07427c-9.74471-13.72405-19.7521-27.25952-29.35957-41.083-5.676-8.16681-11.60089-16.16076-17.42155-24.2269q-7.5138-10.41246-15.0446-20.81266a36.25669,36.25669,0,0,1,1.01264-5.76692c2.88614-12.51252,8.32792-23.6747,18.36874-31.96268,14.93658-12.32905,31.622-15.03834,49.50161-7.31815,12.78356,5.51978,20.99726,15.6533,26.41116,28.24122A85.84268,85.84268,0,0,1,248.78558,128.59481Zm-56.874,15.23688a11.81329,11.81329,0,1,0-11.81345-11.875A11.90706,11.90706,0,0,0,191.91161,143.83169Z"/><path class="cls-2" d="M86.48876,291.53165q-18.3594.00964-36.71879.03361c-.80015.00176-1.13452-.2445-1.03673-1.04719a7.12677,7.12677,0,0,0,.00514-.85614q-.00063-80.10909.0007-160.2182c0-.284.02937-.56806.045-.85207.15118-.62883.31432-1.255.45177-1.88687,2.43139-11.1763,6.90123-21.33628,14.57214-29.9925a46.54133,46.54133,0,0,1,61.66372-7.36669c10.4452,7.30539,16.91837,17.46106,20.71887,29.4553a55.6544,55.6544,0,0,1,2.48224,11.30818,1.72913,1.72913,0,0,0-.2625.24389c-11.04,15.56408-22.407,30.89234-33.33068,46.54215-9.167,13.13316-18.63867,26.05382-28.00658,39.04612a2.81014,2.81014,0,0,0-.55362,2.37377c-.01923.734-.05516,1.46807-.05527,2.20209q-.00445,32.63057-.00119,65.26114C86.46319,287.696,86.47979,289.61386,86.48876,291.53165Zm20.6946-171.16226a11.77064,11.77064,0,1,0,10.26132,11.80449,10.33049,10.33049,0,0,0-3.59073-8.44524c-.35883-.47883-.50712-1.06518-.91979-1.53648A5.65775,5.65775,0,0,0,107.18336,120.36939Z"/><path class="cls-3" d="M148.67319,130.10877a55.6789,55.6789,0,0,0-2.48257-11.30787c-3.8005-11.99424-10.27367-22.14991-20.71887-29.4553A46.54133,46.54133,0,0,0,63.808,96.71229c-7.67091,8.65622-12.14075,18.8162-14.57214,29.9925-.13745.63182-.30059,1.258-.45177,1.88687a93.51058,93.51058,0,0,1,4.12962-27.57987C60.04342,77.68446,73.53675,58.99336,93.80612,45.3a98.73544,98.73544,0,0,1,35.66665-14.78254c.312-.06464.6336-.08283,1.08755-.13988l-9.47007-17.651a.74738.74738,0,0,0,.145-.14191c4.346,2.30271,8.48435,4.96044,12.72267,7.44715,3.15077,1.84863,6.27553,3.74164,9.51574,5.67693,1.75711-5.359,3.48294-10.62267,5.31176-16.20045.99344,3.41593,1.89857,6.5315,2.80576,9.64646.63417,2.17749,1.32929,4.33962,1.87914,6.53814.22934.917.485.884,1.19187.47145,3.89259-2.272,7.81023-4.501,11.958-6.88179-.49811,2.27383-.94072,4.3137-1.393,6.35143-.25588,1.15279-.50742,2.30724-.80049,3.4508-.15005.5855-.10587.80331.61657.9218a96.56622,96.56622,0,0,1,47.33245,21.73014c18.4525,15.52408,29.83819,35.29564,34.64766,58.87291a85.23768,85.23768,0,0,1,1.76211,17.98525,85.84239,85.84239,0,0,0-4.60873-15.2835c-5.4139-12.58792-13.6276-22.72144-26.41116-28.24122-17.87965-7.72019-34.565-5.0109-49.50161,7.31815-10.04082,8.288-15.4826,19.45016-18.36874,31.96268a36.22863,36.22863,0,0,0-1.01242,5.76729A.38083.38083,0,0,1,148.67319,130.10877Z"/><path class="cls-4" d="M153.06957,291.49461l-3.18963-.00493q.00513-44.81988.012-89.63982c.00032-1.71359.02413-3.42717.037-5.14076q1.66891,4.18614,3.33783,8.37235c-.30108.30187-.20378.68778-.2038,1.04383Q153.06225,248.80994,153.06957,291.49461Z"/><path class="cls-4" d="M147.685,291.49407q-1.58907.00284-3.17834.00568.00231-42.626,0-85.252c-.00006-.394.12319-.823-.20121-1.16643q1.66466-4.18779,3.32949-8.3761c.01493.529.04288,1.058.04294,1.587Q147.6837,244.89319,147.685,291.49407Z"/><path class="cls-4" d="M157.729,291.49153q-1.5928.0023-3.18571.00455.00215-41.71946.00448-83.43915,1.70691,3.40931,3.414,6.81915c-.3738.32043-.23633.7569-.23638,1.14681Q157.72069,253.75722,157.729,291.49153Z"/><path class="cls-4" d="M143.02158,291.50047q-1.588-.00242-3.17609-.00481.0027-37.83349.0021-75.667a1.9217,1.9217,0,0,0-.16229-1.18967q1.64053-3.22077,3.28136-6.442c.01662.56992.04768,1.13982.04776,1.70974Q143.02054,250.70355,143.02158,291.50047Z"/><path class="cls-3" d="M162.39074,291.48585q-1.48593-.00278-2.97173-.00562.003-31.63819.00691-63.2763c.00069-3.54892.01558-7.09785.024-10.64671l3.161,4.91943c-.35375.3306-.22015.76377-.22023,1.155Q162.38431,257.55875,162.39074,291.48585Z"/><path class="cls-3" d="M138.148,291.48316q-1.48167.00269-2.96335.00544.00053-33.80565-.0071-67.61132c-.00019-.46821.17786-.98466-.21675-1.39987q1.58083-2.46039,3.16188-4.921c.008.44838.0229.89677.02293,1.34515Q138.148,255.19237,138.148,291.48316Z"/><path class="cls-4" d="M209.64593,291.513q-1.58869.00054-3.17752.00107.00349-28.44381.00157-56.88762c-.00009-.38862.1421-.828-.24935-1.13891a32.45539,32.45539,0,0,0,3.38816-7.37584c.01009.40671.02891.81342.029,1.22013Q209.64335,259.42242,209.64593,291.513Z"/><path class="cls-4" d="M91.10209,291.51419q-1.58874-.00057-3.17757-.00113.00342-31.66156.00835-63.32316c.00013-.69192.0198-1.38385.03032-2.07588a32.35872,32.35872,0,0,0,3.389,7.37384c-.39332.30994-.251.74966-.25105,1.13811Q91.09471,263.07009,91.10209,291.51419Z"/><path class="cls-3" d="M167.05535,291.48l-2.97544.00664q.00439-32.6314.01027-65.26278c.00012-.53007.02318-1.06013.03554-1.59018l3.13789,3.73513c-.3403.33789-.20926.76963-.20934,1.16253Q167.04845,260.50567,167.05535,291.48Z"/><path class="cls-3" d="M133.48507,291.48953q-1.48382-.00529-2.96753-.01056.0025-30.9741-.0005-61.94816c-.00009-.393.131-.82456-.20861-1.1628l3.13686-3.73375c.01252.53007.03591,1.06013.036,1.5902Q133.48512,258.857,133.48507,291.48953Z"/><path class="cls-4" d="M171.92552,291.5141l-3.17593-.00071q.00268-29.84454.00768-59.689c.00015-.6108.03159-1.22159.04842-1.83239q1.568,1.36759,3.13605,2.73523Q171.93363,262.12067,171.92552,291.5141Z"/><path class="cls-4" d="M128.82189,291.51366q-1.58829.00027-3.17669.00053.00315-6.41656.006-12.83316-.00837-22.97741-.0205-45.95479l3.13516-2.7341c.01671.6108.04792,1.22162.04806,1.83242Q128.82067,261.6691,128.82189,291.51366Z"/><path class="cls-4" d="M176.58991,291.51055q-1.5897.00277-3.1796.00562-.00209-28.87555-.00388-57.75121l3.44168,2.15624c-.41272.35339-.25551.83432-.25566,1.26274Q176.58317,264.34725,176.58991,291.51055Z"/><path class="cls-4" d="M124.16034,291.51617l-3.18006-.00565q.00257-27.1636-.00139-54.32722c-.00013-.42816.15864-.90942-.256-1.2621q1.72065-1.07831,3.44178-2.15681Z"/><path class="cls-4" d="M204.98572,291.51545q-1.59-.00211-3.18007-.00428-.00538-26.81167-.01062-53.62343,1.57383-1.36443,3.1474-2.72877c.012.61083.03449,1.22165.03464,1.83248Q204.98342,264.25344,204.98572,291.51545Z"/><path class="cls-4" d="M95.76521,291.51108l-3.18.00431q.00347-26.28447.00882-52.569c.00035-1.26285.023-2.5257.03528-3.78864q1.57314,1.36562,3.14641,2.73141Q95.77046,264.70015,95.76521,291.51108Z"/><path class="cls-4" d="M114.62094,291.512l-3.17746.00332q.00354-15.5256.00717-31.05117.0016-9.65769-.01164-19.3153c-.00126-.46766.28985-1.11538-.50331-1.30571l3.672-.98622Z"/><path class="cls-4" d="M186.128,291.51518q-1.58954-.00176-3.17915-.00344.00768-26.32684.01543-52.65368,1.60138.42609,3.20269.852c-.01533.32525-.044.6505-.044.97576Q186.12313,266.10051,186.128,291.51518Z"/><path class="cls-4" d="M190.78928,291.5124l-3.179.002q.00336-2.6918.00675-5.38355.00983-23.0636.01887-46.12694,1.58448.15982,3.16867.31927Z"/><path class="cls-4" d="M109.96066,291.51428l-3.17927-.00179q-.00675-25.59469-.01327-51.18943,1.58353-.15924,3.16684-.3185c.00634.61167.01814,1.22334.01826,1.835Q109.958,266.67692,109.96066,291.51428Z"/><path class="cls-3" d="M181.25448,291.50741l-2.9697.00107q.00109-27.38154.00208-54.76313,1.48453.71844,2.96907,1.43684Q181.25521,264.84478,181.25448,291.50741Z"/><path class="cls-3" d="M119.28609,291.50845q-1.48489-.00054-2.96966-.00113-.00123-26.66222-.00251-53.32443,1.48535-.7191,2.97032-1.43821Q119.28516,264.12658,119.28609,291.50845Z"/><path class="cls-3" d="M200.11688,291.50627q-1.4875.00086-2.97492.00165.00307-25.17243.00589-50.34486c0-.20366-.01887-.409.00078-.61063.05562-.57062-.31272-.67744-.75448-.71418q1.843-.51161,3.6864-1.0233c.0106.57017.03036,1.14034.03048,1.71052Q200.11574,266.01586,200.11688,291.50627Z"/><path class="cls-3" d="M100.42874,291.508q-1.48728-.00095-2.97441-.00186.00243-17.35953.00586-34.7191.00456-8.98485.02988-17.96954,1.84164.51094,3.68289,1.02145c-1.00269.01746-.74326.77153-.74345,1.32763Q100.42085,266.33725,100.42874,291.508Z"/><path class="cls-3" d="M105.08766,291.50636q-1.48486.00162-2.96972.00317-.00737-25.77829-.01463-51.55651,1.9985.18006,3.9966.36009c-.994-.05224-1.02971.56449-1.02892,1.33754Q105.09639,266.57849,105.08766,291.50636Z"/><path class="cls-3" d="M195.45264,291.5095q-1.4847-.00149-2.96926-.003.00267-24.92856.01684-49.85705c.0008-.77494-.03781-1.3885-1.03027-1.33647l3.99943-.36066Q195.461,265.73093,195.45264,291.5095Z"/><path class="cls-5" d="M138.148,291.48316q-.00069-36.29079-.00239-72.58158c0-.44838-.01495-.89677-.023-1.34508a22.15372,22.15372,0,0,1,1.56279-2.91783,1.92358,1.92358,0,0,1,.16217,1.18994q.003,37.83354-.0021,75.667Q138.99683,291.48942,138.148,291.48316Z"/><path class="cls-5" d="M159.44984,217.55716c-.00834,3.54892-.02323,7.09785-.02392,10.64677q-.00614,31.63815-.00691,63.2763-.8451.0057-1.69.0113-.00466-37.73433-.00368-75.46864c0-.38991-.13742-.82638.23647-1.1466Q158.70592,216.21693,159.44984,217.55716Z"/><path class="cls-5" d="M154.5478,208.0572q-.00234,41.71946-.00456,83.43888-.73661-.00077-1.47355-.00144-.00525-42.68471-.00675-85.36936c0-.35605-.09728-.742.20389-1.04357Q153.90741,206.56973,154.5478,208.0572Z"/><path class="cls-5" d="M143.02158,291.50047q-.00253-40.79691-.00716-81.59383c-.00008-.56992-.03114-1.13982-.04775-1.70977q.66947-1.55793,1.33891-3.1158c.32431.34376.20106.7727.20112,1.16672q.00557,42.626,0,85.252Q143.76431,291.50006,143.02158,291.50047Z"/><path class="cls-5" d="M133.48507,291.48953q-.00113-32.63252-.00381-65.26507c-.00006-.53007-.02345-1.06013-.036-1.59018a11.8085,11.8085,0,0,1,1.51557-2.157c.39454.41533.21649.93178.21668,1.4q.0135,33.80569.0071,67.61135Z"/><path class="cls-5" d="M164.12572,224.63368c-.01236.53007-.03542,1.06013-.03554,1.5902q-.00707,32.63137-.01027,65.26278l-1.68919-.00081q-.00271-33.92709-.00006-67.85416c.00008-.39127-.13352-.82444.22031-1.15489A11.89157,11.89157,0,0,1,164.12572,224.63368Z"/><path class="cls-5" d="M128.82189,291.51366q-.003-29.84454-.008-59.6891c-.00014-.6108-.03135-1.22162-.04806-1.83241l1.54259-1.62414c.33962.33824.20852.76984.20861,1.1628q.00664,30.97407.0005,61.94816Q129.66959,291.49633,128.82189,291.51366Z"/><path class="cls-5" d="M168.80567,229.992c-.01681.61079-.04825,1.22158-.0484,1.83238q-.00666,29.84454-.00768,59.689l-1.69439-.0334q-.003-30.97429-.00093-61.94863c.00008-.3929-.131-.82464.20933-1.16254Q168.03462,229.1804,168.80567,229.992Z"/><path class="cls-5" d="M87.96323,226.11414c-.01056.69191-.03023,1.38384-.03036,2.07576q-.006,31.66158-.00835,63.32319l-1.43576.01856c-.009-1.91779-.02557-3.83562-.02574-5.75341q-.0028-32.63055.00119-65.26114c.00011-.734.036-1.46806.05527-2.20207l.11568-.0003A53.13391,53.13391,0,0,0,87.96323,226.11414Z"/><path class="cls-5" d="M209.64593,291.513q-.00346-32.09061-.00815-64.18117c-.00008-.40671-.0189-.81342-.029-1.22023a52.9759,52.9759,0,0,0,1.32695-7.7974l.11639.00051c.01917.53.05506,1.06.05512,1.58994q.004,35.38556.001,70.77113c0,.28525-.01713.57053-.02627.85581Q210.364,291.52232,209.64593,291.513Z"/><path class="cls-5" d="M119.28609,291.50845q-.00091-27.3819-.00185-54.76374l1.4389-.82361c.41439.35278.25562.834.25575,1.2622q.00882,27.16359.00139,54.32722Z"/><path class="cls-5" d="M178.28686,236.74535q-.001,27.38157-.00208,54.76313l-1.69485.00207q-.002-27.16329.00252-54.32661c.00015-.42842-.15706-.90935.25588-1.26262Z"/><path class="cls-5" d="M147.685,291.49407q-.0026-46.60089-.00709-93.20177c-.00006-.529-.028-1.058-.04291-1.5871a10.72014,10.72014,0,0,1,.82313-2.6545c.38729.466.20568,1.02014.20587,1.53082q.01806,47.95542.0161,95.91085Z"/><path class="cls-5" d="M149.92893,196.70911c-.01289,1.71358-.0367,3.42716-.037,5.14075q-.00856,44.81991-.012,89.63982-.49188-.00023-.98352-.00042.00144-47.93951.01036-95.87907c.00015-.51388-.16992-1.06484.18879-1.54095Z"/><path class="cls-5" d="M200.11688,291.50627q-.00225-25.49038-.00585-50.9808c-.00012-.57018-.01988-1.14035-.03067-1.71028q.8571-.46347,1.71455-.92739.00537,26.81169.01074,53.62337Q200.96128,291.50871,200.11688,291.50627Z"/><path class="cls-5" d="M97.48989,238.81725q-.01548,8.98485-.0297,17.96974-.00879,17.35953-.00586,34.7191-.84468.00252-1.68909.005.0052-26.811.01034-53.62195Z"/><path class="cls-5" d="M181.25448,291.50741q.00072-26.66262.00129-53.32524a5.0627,5.0627,0,0,1,1.70845.67588q-.00771,26.32683-.0154,52.65369Z"/><path class="cls-5" d="M116.31374,238.18292q.0014,26.66222.00269,53.3244-.84781.00237-1.69543.00469-.00669-26.32752-.01329-52.655A5.04874,5.04874,0,0,1,116.31374,238.18292Z"/><path class="cls-5" d="M102.10312,239.953q.00744,25.77825.01482,51.55654-.84471-.00081-1.68929-.00155-.00257-25.17078.00086-50.34145c.00019-.5561-.25924-1.31017.74371-1.32757Z"/><path class="cls-5" d="M195.45264,291.5095q.00837-25.77861.01653-51.55717l.92519-.11414c.44155.0368.80989.14362.75427.71424-.01965.20166-.00077.407-.00078.61063q-.00278,25.17243-.00589,50.34486Z"/><path class="cls-5" d="M191.47006,240.31293c.99235-.052,1.031.56156,1.03016,1.3365q-.02577,24.9285-.01684,49.85705l-1.694.00592q.0075-25.59465.01505-51.18925Z"/><path class="cls-5" d="M105.08766,291.50636q-.00253-24.92784-.01667-49.85571c-.00079-.77305.03494-1.38978,1.029-1.33751l.668.00992q.00666,25.5947.01338,51.1894Q105.9346,291.50942,105.08766,291.50636Z"/><path class="cls-5" d="M173.40655,233.765q.00177,28.87557.00376,57.75114l-1.48467-.00207q.00792-29.39346.01607-58.78694Z"/><path class="cls-5" d="M124.16034,291.51617q.00217-28.87591.00447-57.75185l1.46584-1.038q.01055,22.97735.02053,45.95476.00233,6.41656-.006,12.83313Q124.90288,291.51515,124.16034,291.51617Z"/><path class="cls-5" d="M204.98572,291.51545q-.00357-27.262-.00865-54.524c-.00015-.61083-.02259-1.22165-.03457-1.83256l1.27827-1.67153c.39131.31114.24912.75047.24921,1.13909q.006,28.44381-.00157,56.88762Q205.72718,291.5147,204.98572,291.51545Z"/><path class="cls-5" d="M92.62934,235.15786c-.01231,1.26285-.035,2.5257-.03534,3.78855q-.00717,26.28452-.00882,52.569l-1.483-.0012q-.00351-28.44412-.00109-56.88822c.00009-.38845-.14227-.82817.25117-1.13795Q91.99092,234.32311,92.62934,235.15786Z"/><path class="cls-5" d="M109.96066,291.51428q-.00332-24.83733-.00744-49.67471c-.00012-.61167-.01192-1.22334-.01839-1.8348l.05755-.03838.06932.00322a.26567.26567,0,0,0,.376-.0522l.49828-.07432c.79283.19039.50172.83811.503,1.30577q.026,9.65758.01164,19.3153-.00255,15.5256-.00717,31.05117Z"/><path class="cls-5" d="M187.63571,240.00364q-.00924,23.06358-.01872,46.12718-.00114,2.69175-.00675,5.38352l-1.4821.00087q-.00375-25.41468-.00525-50.82934c0-.32526.02872-.65051.044-.97576l.96887.20841a.26349.26349,0,0,0,.37358.05077l.06887-.00365Z"/><path class="cls-4" d="M149.09552,194.06906c-.35866.47629-.18859,1.02725-.18874,1.54113q-.01442,47.93954-.01036,95.87907l-.10814.033-.10848-.02984q-.0033-47.95551-.01579-95.91091c-.00019-.51068.18142-1.0648-.20593-1.53046-.08165-.31972.16463-.516.28679-.75914A1.008,1.008,0,0,1,149.09552,194.06906Z"/><path class="cls-3" d="M121.09025,12.72652c-.07841-.10168-.13732-.207.0023-.29934a1.2717,1.2717,0,0,1,.14274.15743A.74738.74738,0,0,1,121.09025,12.72652Z"/><path class="cls-6" d="M211.05216,218.31471l-.11639-.00049c-.25474-.36866-.50371-.7415-.765-1.10547q-14.37339-20.01944-28.72853-40.0519a2.25754,2.25754,0,0,0-2.1039-1.06088q-30.66606.06657-61.33226.07619a.77192.77192,0,0,1-.12228-.00085,1.50122,1.50122,0,0,0-1.606.79158c-1.52852,2.21406-3.126,4.38051-4.69438,6.56711q-12.47492,17.39183-24.94827,34.78473l-.11568.0003a2.81016,2.81016,0,0,1,.55362-2.37379c9.36791-12.9923,18.83958-25.913,28.00658-39.04612,10.92364-15.64981,22.29072-30.97807,33.33068-46.54215a1.72913,1.72913,0,0,1,.2625-.24389.385.385,0,0,0,.21006.00915q7.52259,10.40533,15.04438,20.81229c5.82066,8.06614,11.74553,16.06009,17.42155,24.2269,9.60747,13.8235,19.61486,27.359,29.35957,41.083A2.74079,2.74079,0,0,1,211.05216,218.31471Zm-73.174-51.13026a2.81121,2.81121,0,0,0-5.62082-.08032,2.81134,2.81134,0,1,0,5.62082.08032Zm27.43658.03709a2.81252,2.81252,0,0,0-5.62184-.15445,2.81258,2.81258,0,1,0,5.62184.15445Z"/><path class="cls-6" d="M191.91161,143.83169a11.81329,11.81329,0,1,1,11.80877-11.88216A11.89961,11.89961,0,0,1,191.91161,143.83169Zm10.89032-13.93548a5.42557,5.42557,0,1,0-5.48214,5.39555A5.401,5.401,0,0,0,202.80193,129.89621Z"/><path class="cls-6" d="M113.854,123.72864a10.33049,10.33049,0,0,1,3.59073,8.44524,11.777,11.777,0,1,1-10.26132-11.80449c-.15256.30464-.49233.241-.7373.35953a5.45533,5.45533,0,1,0,7.58133,6.32359A7.61205,7.61205,0,0,0,113.854,123.72864Z"/><path class="cls-7" d="M113.854,123.72864a7.61205,7.61205,0,0,1,.17344,3.32387,5.459,5.459,0,1,1-7.58133-6.32359c.245-.11852.58474-.05489.7373-.35953a5.65775,5.65775,0,0,1,5.7508,1.82277C113.34683,122.66346,113.49512,123.24981,113.854,123.72864Z"/><path class="cls-2" d="M86.63516,218.31473q12.474-17.39247,24.94827-34.78473c1.5684-2.1866,3.16586-4.353,4.69438-6.56711a1.50122,1.50122,0,0,1,1.606-.79158.77192.77192,0,0,0,.12228.00085q30.66615-.02842,61.33226-.07619a2.25754,2.25754,0,0,1,2.1039,1.06088q14.33207,20.049,28.72853,40.0519c.26132.364.51029.73681.765,1.10547a52.97608,52.97608,0,0,1-1.32695,7.79738,32.45632,32.45632,0,0,1-3.38817,7.37594l-1.27815,1.67135q-1.57376,1.36446-3.14747,2.72885-.85753.46392-1.71467.92745-1.843.51129-3.68621,1.02306l-.925.11408q-1.99945.18028-3.99922.36063l-.66554.01019q-1.58408-.15956-3.16855-.31927l-.05769-.03824-.06905.00383q-.18687-.02531-.3734-.051l-.96887-.20841q-1.60118-.426-3.2026-.852a5.06291,5.06291,0,0,0-1.70848-.67589q-1.4843-.71838-2.96891-1.43682l-1.43853-.824-3.4419-2.15636q-.73226-.51885-1.46472-1.0378-1.568-1.36758-3.136-2.73519-.771-.81158-1.54207-1.62315-1.56891-1.86754-3.13788-3.73512a11.89186,11.89186,0,0,0-1.51475-2.15692l-3.1611-4.91956q-.744-1.34043-1.48807-2.68093-1.70717-3.41-3.41408-6.81936-.64031-1.4872-1.28089-2.97522-1.669-4.18659-3.33792-8.37261-.41662-1.31985-.83334-2.63986a1.00835,1.00835,0,0,0-.3507-.77732c-.12216.24314-.36844.43942-.28679.75914a10.71519,10.71519,0,0,0-.82307,2.65414q-1.66485,4.18827-3.32952,8.37616-.66933,1.55745-1.33882,3.11551-1.64076,3.22119-3.28137,6.44207a22.14936,22.14936,0,0,0-1.56269,2.91756q-1.58093,2.46043-3.16183,4.92091a11.80656,11.80656,0,0,0-1.5155,2.15687q-1.5684,1.86686-3.13685,3.73373l-1.54259,1.62414q-1.56758,1.367-3.13516,2.73409l-1.46587,1.03808q-1.72119,1.07856-3.4419,2.1569l-1.43867.82347q-1.48507.71909-2.97032,1.4382a5.04887,5.04887,0,0,0-1.70621.67407q-1.83614.49313-3.672.98619l-.49768.07423-.37632.05223-.06932-.00322-.05755.03838q-1.58318.15894-3.16671.31829l-.66809-.00992q-1.99838-.1801-3.99671-.36012l-.9301-.11406q-1.84174-.5107-3.68315-1.0215-.85749-.4644-1.71449-.92833-1.57306-1.36567-3.1463-2.73136-.63837-.83469-1.277-1.66975a32.35829,32.35829,0,0,1-3.38911-7.374A53.13483,53.13483,0,0,1,86.63516,218.31473Zm102.90033-5.05464a2.455,2.455,0,0,0,2.43912-2.509,2.54282,2.54282,0,0,0-2.57623-2.40576,2.46084,2.46084,0,0,0-2.34888,2.47977A2.39633,2.39633,0,0,0,189.53549,213.26009Zm-79.01539-2.39892a2.45427,2.45427,0,0,0-2.432-2.5171,2.554,2.554,0,0,0-2.49527,2.49261A2.459,2.459,0,0,0,108,213.26013,2.39467,2.39467,0,0,0,110.5201,210.86117Zm11.75658-23.02728a2.45423,2.45423,0,0,0-2.43711-2.51272,2.5573,2.5573,0,0,0-2.49089,2.49722,2.46354,2.46354,0,0,0,2.412,2.42A2.39608,2.39608,0,0,0,122.27668,187.83389Zm42.73559,14.64966a2.46009,2.46009,0,0,0,2.47176-2.47785,2.54543,2.54543,0,0,0-2.54634-2.43949,2.46322,2.46322,0,0,0-2.38013,2.45086A2.39907,2.39907,0,0,0,165.01227,202.48355ZM135.012,200.01382a2.447,2.447,0,0,0-2.50248-2.44172,2.53433,2.53433,0,0,0-2.42251,2.43645,2.46281,2.46281,0,0,0,2.47546,2.4757A2.394,2.394,0,0,0,135.012,200.01382Zm40.28213-12.25934a2.39842,2.39842,0,0,0,2.43656,2.48483,2.46283,2.46283,0,0,0,2.48976-2.46216,2.53567,2.53567,0,0,0-2.40842-2.45041A2.45137,2.45137,0,0,0,175.29413,187.75448Z"/><path class="cls-4" d="M110.0617,239.96961l.37632-.05223A.266.266,0,0,1,110.0617,239.96961Z"/><path class="cls-4" d="M187.13572,239.91852q.1866.02556.3734.051A.26348.26348,0,0,1,187.13572,239.91852Z"/><path class="cls-2" d="M137.87813,167.18445a2.81134,2.81134,0,1,1-5.62082-.08032,2.81121,2.81121,0,0,1,5.62082.08032Z"/><path class="cls-2" d="M165.31471,167.22154a2.81258,2.81258,0,1,1-5.62184-.15445,2.81252,2.81252,0,0,1,5.62184.15445Z"/><path class="cls-7" d="M202.80193,129.89621a5.42557,5.42557,0,1,1-10.85054-.10437,5.42552,5.42552,0,1,1,10.85054.10437Z"/><path class="cls-6" d="M189.53549,213.26009a2.39633,2.39633,0,0,1-2.486-2.435,2.46084,2.46084,0,0,1,2.34888-2.47977,2.54282,2.54282,0,0,1,2.57623,2.40576A2.455,2.455,0,0,1,189.53549,213.26009Z"/><path class="cls-6" d="M110.5201,210.86117A2.39467,2.39467,0,0,1,108,213.26013a2.459,2.459,0,0,1-2.40722-2.42345,2.554,2.554,0,0,1,2.49527-2.49261A2.45427,2.45427,0,0,1,110.5201,210.86117Z"/><path class="cls-6" d="M122.27668,187.83389a2.39608,2.39608,0,0,1-2.516,2.40446,2.46354,2.46354,0,0,1-2.412-2.42,2.5573,2.5573,0,0,1,2.49089-2.49722A2.45423,2.45423,0,0,1,122.27668,187.83389Z"/><path class="cls-6" d="M165.01227,202.48355a2.39907,2.39907,0,0,1-2.45471-2.46648,2.46322,2.46322,0,0,1,2.38013-2.45086,2.54543,2.54543,0,0,1,2.54634,2.43949A2.46009,2.46009,0,0,1,165.01227,202.48355Z"/><path class="cls-6" d="M135.012,200.01382a2.394,2.394,0,0,1-2.44953,2.47043,2.46281,2.46281,0,0,1-2.47546-2.4757,2.53433,2.53433,0,0,1,2.42251-2.43645A2.447,2.447,0,0,1,135.012,200.01382Z"/><path class="cls-6" d="M175.29413,187.75448a2.45137,2.45137,0,0,1,2.5179-2.42774,2.53567,2.53567,0,0,1,2.40842,2.45041,2.46283,2.46283,0,0,1-2.48976,2.46216A2.39842,2.39842,0,0,1,175.29413,187.75448Z"/></svg>