<svg id="Layer_1" data-name="Layer 1" xmlns="http://www.w3.org/2000/svg" xmlns:xlink="http://www.w3.org/1999/xlink" viewBox="0 0 504 543.19831"><defs><style>.cls-1{fill:none;}.cls-2{fill:url(#linear-gradient);}.cls-3{fill:url(#linear-gradient-2);}</style><linearGradient id="linear-gradient" x1="92.37429" y1="38.73959" x2="541.95857" y2="205.09947" gradientTransform="matrix(1, 0, 0, -1, 0, 513.70064)" gradientUnits="userSpaceOnUse"><stop offset="0" stop-color="#65318f"/><stop offset="0.21076" stop-color="#633592"/><stop offset="0.43565" stop-color="#5c4299"/><stop offset="0.6663" stop-color="#5257a6"/><stop offset="0.81351" stop-color="#4969b1"/></linearGradient><linearGradient id="linear-gradient-2" x1="97.89006" y1="23.83325" x2="547.47436" y2="190.19321" xlink:href="#linear-gradient"/></defs><title>acumosAI-stacked-black</title><path class="cls-1" d="M400.07628,500.21463a18.02545,18.02545,0,0,1-2.21454,1.84137A18.03176,18.03176,0,0,0,400.07628,500.21463Z"/><polygon class="cls-1" points="39.894 479.542 39.774 480.082 70.348 480.082 70.228 479.542 39.894 479.542"/><path class="cls-1" d="M387.30656,505.42337h0a17.51392,17.51392,0,0,0,7.104-1.43311,17.98712,17.98712,0,0,0,2.50067-1.30969,17.99231,17.99231,0,0,1-2.50073,1.30969A17.51364,17.51364,0,0,1,387.30656,505.42337Z"/><path class="cls-1" d="M400.19682,425.86019a17.98572,17.98572,0,0,1,3.87879,5.78626,17.78686,17.78686,0,0,1,1.43573,7.10529v48.46551a17.74672,17.74672,0,0,1-1.43573,7.104,18.03253,18.03253,0,0,1-3.88092,5.78577,18.03107,18.03107,0,0,0,3.881-5.78577,17.74693,17.74693,0,0,0,1.43573-7.104V438.75174a17.78746,17.78746,0,0,0-1.43567-7.10517A17.98576,17.98576,0,0,0,400.19682,425.86019Z"/><path d="M55.92369,391.1921H47.18028L15.0789,535.86184H27.47057l9.69207-43.72265H72.95958l9.69208,43.72265H95.04332L62.94188,391.1921Zm-16.15,88.89.1203-.5401,15.16577-68.08258L70.22807,479.542l.1203.54Z"/><path d="M145.85826,487.21725a17.77941,17.77941,0,0,1-1.433,7.104,18.19607,18.19607,0,0,1-33.54352.00129,17.784,17.784,0,0,1-1.43183-7.10529V438.75174a17.80007,17.80007,0,0,1,1.43055-7.10132,18.02915,18.02915,0,0,1,9.669-9.66773,18.277,18.277,0,0,1,19.99305,3.88013,18.604,18.604,0,0,1,3.8814,5.78375,17.819,17.819,0,0,1,1.43439,7.10529V441.377h12.05707v-2.6253a29.92248,29.92248,0,0,0-2.37781-11.861,29.87424,29.87424,0,0,0-16.02435-16.02313,30.91823,30.91823,0,0,0-23.71936,0,30.13058,30.13058,0,0,0-18.40088,27.884v48.46558a30.12736,30.12736,0,0,0,18.39966,27.88409,30.74333,30.74333,0,0,0,23.7232,0,30.12731,30.12731,0,0,0,18.39972-27.88409V484.592H145.85826Z"/><path d="M215.568,486.70193a17.78051,17.78051,0,0,1-1.43311,7.104,18.04331,18.04331,0,0,1-9.66656,9.669,17.53654,17.53654,0,0,1-7.10529,1.43311,17.73862,17.73862,0,0,1-7.10272-1.43183,18.04841,18.04841,0,0,1-9.669-9.66894,17.7845,17.7845,0,0,1-1.43182-7.10535V409.00637H167.1024v77.69556A30.14052,30.14052,0,0,0,197.363,516.96646a29.11158,29.11158,0,0,0,12.689-2.83808,33.11613,33.11613,0,0,0,5.51581-3.34558v5.15045h12.05706V409.00637H215.56786Z"/><path d="M339.04741,417.81912a30.39463,30.39463,0,0,0-9.58826-6.43488,29.9834,29.9834,0,0,0-11.85974-2.37658,29.4,29.4,0,0,0-15.60266,4.30572,30.40685,30.40685,0,0,0-8.53333,7.71546,30.49667,30.49667,0,0,0-42.53314-5.97083V410.0383H238.87193V516.96518h12.05841V439.26834a17.78176,17.78176,0,0,1,1.43055-7.10407,18.19323,18.19323,0,0,1,33.54089-.00256,17.84047,17.84047,0,0,1,1.43573,7.10663v77.69684h12.05707V439.26834a17.79929,17.79929,0,0,1,5.38891-12.85956,20.12885,20.12885,0,0,1,5.84009-3.92114,18.14376,18.14376,0,0,1,23.74512,9.67541,17.78735,17.78735,0,0,1,1.43573,7.10535v77.69678H347.8615V439.26834a29.89072,29.89072,0,0,0-2.37915-11.861A30.317,30.317,0,0,0,339.04741,417.81912Z"/><path d="M408.757,417.30124a30.45915,30.45915,0,0,0-9.59076-6.4336,30.91823,30.91823,0,0,0-23.71936,0,30.14,30.14,0,0,0-18.40228,27.8841v48.46551a30.13411,30.13411,0,0,0,18.39972,27.88409,30.74655,30.74655,0,0,0,23.72449,0,30.13136,30.13136,0,0,0,18.39972-27.88409V438.75174a29.89205,29.89205,0,0,0-2.37915-11.861A30.46011,30.46011,0,0,0,408.757,417.30124Zm-3.2456,21.45062v48.46539a17.74693,17.74693,0,0,1-1.43573,7.104,18.03107,18.03107,0,0,1-3.881,5.78577c-.03766.03772-.08039.07019-.11841.10761a18.03176,18.03176,0,0,1-2.21454,1.84137c-.30908.21917-.62714.42468-.9505.62457a17.98712,17.98712,0,0,1-2.50067,1.30969,17.51392,17.51392,0,0,1-7.104,1.43311h0a17.71227,17.71227,0,0,1-7.104-1.43311,18.05517,18.05517,0,0,1-9.66772-9.66772,17.77256,17.77256,0,0,1-1.43311-7.10529V438.75174a17.80973,17.80973,0,0,1,1.43054-7.10132,18.01154,18.01154,0,0,1,9.67029-9.669,18.324,18.324,0,0,1,14.20807,0,17.98926,17.98926,0,0,1,9.6651,9.66516,17.78746,17.78746,0,0,1,1.43567,7.10517Z"/><path d="M484.54,476.50222a33.31955,33.31955,0,0,0-6.6015-7.95129,49.4631,49.4631,0,0,0-8.82434-6.21442c-3.102-1.72027-6.222-3.36743-9.27289-4.89538l-.04864-.02307c-2.8457-1.3562-5.61707-2.75983-8.23725-4.16986a49.84253,49.84253,0,0,1-6.85534-4.40455,18.293,18.293,0,0,1-4.42749-4.77746,9.75085,9.75085,0,0,1-1.46137-5.31586,17.79369,17.79369,0,0,1,1.43311-7.104,18.19545,18.19545,0,0,1,33.541-.00257,17.79973,17.79973,0,0,1,1.43567,7.10657v2.62525h12.05713v-2.62513a29.91129,29.91129,0,0,0-2.38171-11.85968,29.8823,29.8823,0,0,0-16.023-16.02569,30.94694,30.94694,0,0,0-23.7168.00128,30.14,30.14,0,0,0-18.40228,27.88409,20.79919,20.79919,0,0,0,2.73553,10.71888,31.56825,31.56825,0,0,0,6.63227,7.87439,52.76788,52.76788,0,0,0,8.79077,6.07855c3.15588,1.75482,6.36047,3.411,9.437,4.87488q4.3146,2.26694,8.3294,4.42364a44.83088,44.83088,0,0,1,6.71949,4.3775,19.20651,19.20651,0,0,1,4.36084,4.80054,9.819,9.819,0,0,1,1.46136,5.31714,17.7469,17.7469,0,0,1-1.43567,7.104,17.98324,17.98324,0,0,1-9.66516,9.66773,18.29111,18.29111,0,0,1-19.99432-3.87628,18.5837,18.5837,0,0,1-3.88147-5.79017,17.77367,17.77367,0,0,1-1.43311-7.10528v-2.62525H426.75414V487.216a30.13958,30.13958,0,0,0,18.39978,27.88409,30.74637,30.74637,0,0,0,23.72442,0A30.14706,30.14706,0,0,0,487.27812,487.216,20.78925,20.78925,0,0,0,484.54,476.50222Z"/><path class="cls-2" d="M362.015,375.5295c-.54138-.0376-1.08389-.0455-1.62617-.08576A13.63837,13.63837,0,0,0,362.015,375.5295Z"/><polygon class="cls-3" points="418.258 375.621 424.586 376.149 392.966 373.511 418.258 375.621"/><polygon points="313.765 282.308 315.581 285.932 317.052 288.87 317.868 290.501 321.683 298.112 326.47 307.671 333.358 321.421 336.441 321.421 338.587 321.421 351.701 321.421 353.553 321.421 363.37 321.421 358.413 311.521 350.62 295.97 348.951 292.634 345.945 286.632 342.235 279.222 324.906 244.647 323.02 240.874 321.629 238.105 320.295 235.431 318.351 231.565 278.387 151.789 264.595 177 262.724 180.425 262.852 180.684 264.019 183.019 265.225 185.417 278.132 211.182 279.734 214.383 281.064 217.037 281.339 217.584 281.841 218.591 302.08 258.987 303.03 260.88 303.682 262.188 304.363 263.54 305.288 265.389 313.765 282.308"/><polygon points="258.992 174.03 259.523 172.933 274.902 144.827 272.689 140.414 269.411 133.871 251.35 97.819 249.626 101.269 247.768 104.982 247.352 105.813 246.332 107.857 239.367 121.783 235.731 129.058 258.244 172.511 258.238 172.52 258.992 174.03"/><path d="M37.15379,192.01077a8.25378,8.25378,0,0,1-.03009-1.29279,8.76709,8.76709,0,0,1,.575-2.411L14.92418,177.7471a75.16209,75.16209,0,0,0-7.06751,19.60748L29.875,193.34127Z"/><path d="M34.07018,260.10788,8.537,228.15634l-.90728-1.14081a74.841,74.841,0,0,0,7.05981,20.393l3.12933,2.04883Z"/><path d="M16.81346,251.21041a75.91656,75.91656,0,0,0,17.44562,20.13678l.96753-1.94982,2.29022-4.61133Z"/><polygon points="269.987 211.185 258.622 188.497 247.212 211.185 269.987 211.185"/><path d="M420.63194,220.56021l-9.72082-52.03076A8.70288,8.70288,0,0,1,404.411,166.606l-5.85846,7.07428,13.06915,28.36853,8.57135,18.60187C420.33708,220.62069,420.48112,220.59036,420.63194,220.56021Z"/><path d="M237.657,34.58828l20.27319-23.77911c-.98315-.42731-1.93506-.79407-2.88019-1.1261L244.491,24.8002Z"/><path d="M194.15074,316.13967l10.98145,3.56891,2.562-3.60632,6.88635-9.68207a9.09468,9.09468,0,0,1-2.5473-3.80267l-12.30286,2.73175Z"/><path d="M377.5092,57.42343l7.10565-.22669,11.61719-.37011a30.02764,30.02764,0,0,0-1.534-5.52558l-17.23425,5.92206C377.47136,57.29489,377.50151,57.35513,377.5092,57.42343Z"/><path d="M101.78185,57.74856A75.10836,75.10836,0,0,0,73.90477,73.95474l43.25909-19.5401Z"/><path d="M397.49437,62.6542l5.7301,1.05023a8.072,8.072,0,0,1,7.9057-4.53888,8.52047,8.52047,0,0,1,1.127.20819l.26379-.49914c-.53632-.18115-1.07263-.35138-1.61688-.49847l-31.301,1.00555Z"/><path d="M204.55779,23.3713,228.06548,9.21389a43.90472,43.90472,0,0,0-13.59082,6.84851,1.00785,1.00785,0,0,1-.77869.18866,73.07163,73.07163,0,0,0-14.61829-1.02386l-.45343,4.23608A9.03424,9.03424,0,0,1,204.55779,23.3713Z"/><path d="M156.78069,271.27908l-22.64032,5.51813c.37072,1.81408.80877,3.60516,1.29254,5.35138l20.25006-8.67383Z"/><path d="M238.52623,61.44522l-5.35846-3.5528-2.442-1.60986a6.56573,6.56573,0,0,1-5.68371,2.47906c-.11371-.00763-.21973-.04571-.325-.05713l-4.5055,29.61518a9.02785,9.02785,0,0,1,3.08429,1.80273l13.28076-14.834,3.28022-3.66193a9.04122,9.04122,0,0,1-2.29816-6.78033A9.15864,9.15864,0,0,1,238.52623,61.44522Z"/><path d="M220.0385,48.746,202.72124,35.405a8.9876,8.9876,0,0,1-2.76715,1.54963l6.48541,20.94873,9.30536,30.06872a8.80735,8.80735,0,0,1,2.28247-.13611c.06817.004.13635.03016.20471.03778l4.52722-29.73992a6.5571,6.5571,0,0,1-3.73382-6.43964A6.45764,6.45764,0,0,1,220.0385,48.746Z"/><path d="M421.13121,268.61129a9.06012,9.06012,0,0,1,1.69287-.40808v-.00006l-.13629-13.56848-.16644-16.16748c-.26477,0-.52167.03717-.79346.01477a8.52207,8.52207,0,0,1-1.39081-.25708l-18.345,34.92889-9.59234,18.25458,23.13-11.27746A9.05753,9.05753,0,0,1,421.13121,268.61129Z"/><path d="M363.40434,106.82321c-.06024.042-.113.08752-.17328.12555l21.70868,40.97943,12.608,23.79089,5.43432-6.56433a8.99931,8.99931,0,0,1,.93744-12.31317Z"/><path d="M321.92973,315.30972l-9.12225-18.12256a8.92407,8.92407,0,0,1-1.11963.20032l-5.46533,45.62427a49.44386,49.44386,0,0,0,4.86066,1.48144.999.999,0,0,1,.71752.658c.40088,1.20129.877,2.43353,1.4289,3.71136l5.66882-21.86743Z"/><path d="M482.9464,276.22293l1.59448-2.51715,1.42889-2.26007a51.9813,51.9813,0,0,0-1.88934-5.33692Z"/><path d="M342.03606,64.65725a9.03712,9.03712,0,0,1-3.91571-1.29254L323.81206,82.11044,317.99138,89.737a9.0825,9.0825,0,0,1,2.78174,6.06214L347.599,97.405l1.98847.11768a9.08447,9.08447,0,0,1,4.535-6.25848l-2.53186-7.25641-6.81836-19.59284A8.89024,8.89024,0,0,1,342.03606,64.65725Z"/><path d="M367.13139,287.73465a9.11288,9.11288,0,0,1-4.25567,4.50482l2.40326,6.53888,25.54876,69.58557-1.74621-73.93933Z"/><path d="M309.6544,297.33407a9.10583,9.10583,0,0,1-7.45294-6.18286l-36.68286,4.29352-35.84326,4.19519c0,.25684.03033.50622.01477.77063a9.06624,9.06624,0,0,1-3.39325,6.34161l17.73273,28.00543a80.88308,80.88308,0,0,0,30.32513-22.10986.9742.9742,0,0,1,.84686-.34741.3905.3905,0,0,1,.09827.00769,1.01053,1.01053,0,0,1,.77069.65,50.0386,50.0386,0,0,0,28.19434,29.29731l2.96289-24.67859Z"/><path d="M367.71324,285.79971l5.62341,1.71594,16.22864,4.95056L395.8922,280.418l22.5177-42.87348a9.37323,9.37323,0,0,1-1.28485-.80871l-9.44855,7.89184-41.30927,34.52808a9.00633,9.00633,0,0,1,1.51953,5.72217C367.85661,285.19522,367.77373,285.49008,367.71324,285.79971Z"/><path d="M180.20244,224.43173l-38.836-32.02014a8.09784,8.09784,0,0,1-.88379.72528L169.02879,246.781Z"/><path d="M154.28233,276.27652l-18.27508,7.83728a80.2307,80.2307,0,0,0,6.62915,15.45593Z"/><path d="M465.22075,327.50131a49.8127,49.8127,0,0,0,20.72662-27.76312l-4.61859-16.0246Z"/><path d="M157.96623,268.90792l9.95343-19.90838-1.5943-2.99677-27.60455-51.86053a8.88139,8.88139,0,0,1-4.308.74847,8.04817,8.04817,0,0,1-1.30048-.23437l-42.7597,90.7276,27.52862-6.70441a75.22727,75.22727,0,0,0,13.43225-9.4787,1.01246,1.01246,0,0,1,1.67029.64252c.18121,1.52631.43121,3.15948.76331,4.96594l9.35772-2.27545Z"/><polygon points="474.767 200.642 489.598 192.449 485.486 188.381 477.527 193.894 440.422 219.602 474.767 200.642"/><path d="M414.426,225.17874a9.10529,9.10529,0,0,1,3.87769-3.80976l-21.51215-46.67535-60.19049,13.5415a8.95631,8.95631,0,0,1-.99768,3.29181l37.57458,16.04Z"/><path d="M219.8864,308.74081a9.10433,9.10433,0,0,1-3.66565-1.134l-4.02106,5.661-5.367,7.55145,17.80853,19.28986a81.16788,81.16788,0,0,0,17.47571-4.58045l-17.5362-27.71057A8.94756,8.94756,0,0,1,219.8864,308.74081Z"/><path d="M200.70256,331.092l-4.74713,8.06427a80.6895,80.6895,0,0,0,26.24451,1.28576l-16.49335-17.85412Z"/><path d="M194.18681,318.272l-.97461-.31732-5.71453,11.05139h-2.29523l5.19024,8.72992q1.73438.50994,3.49921.94446l10.12872-17.21112Z"/><path d="M126.36986,188.05392,55.24254,191.8674c-.00769.10528.01471.2113.007.3175a9.04387,9.04387,0,0,1-4.15717,6.87091L83.323,272.49575l5.24567,11.93537,42.61652-90.43976A9.07146,9.07146,0,0,1,126.36986,188.05392Z"/><path d="M362.46013,58.82974,351.59068,57.605a9.04745,9.04745,0,0,1-4.91339,6.15265L354.939,87.492l1.05817,3.02338a8.91244,8.91244,0,0,1,3.212-.34772c.1062.00793.1966.04511.29486.0528l7.55152-24.90558A7.5537,7.5537,0,0,1,362.46013,58.82974Z"/><path d="M213.21318,279.27407l-4.80469,9.29224,5.83936,4.69415a9.06842,9.06842,0,0,1,2.73614-1.86786Z"/><path d="M241.36839,72.96414,225.98662,90.15249l-1.33,1.48914a9.01438,9.01438,0,0,1,1.69281,5.98718,8.87778,8.87778,0,0,1-.91479,3.25775l3.545,1.93512,9.44788,5.15112,13.10321-26.20867,4.88037,9.77868-4.96656-11.84326-2.27551-5.4165A8.825,8.825,0,0,1,241.36839,72.96414Z"/><path d="M251.03673,73.51577l19.102,45.53217,3.40442,6.82117L296.737,107.10733l7.36939-5.964a8.70329,8.70329,0,0,1-.95215-7.79731l-31.195-14.70166-17.64209-8.31048A9.03065,9.03065,0,0,1,251.03673,73.51577Z"/><path d="M429.97423,224.377l29.34314-20.32489,24.11981-16.72034L418.5761,162.588a9.10545,9.10545,0,0,1-5.67664,5.552l9.75043,52.22357c.18872.00775.36285-.0224.55175-.00769A9.03756,9.03756,0,0,1,429.97423,224.377Z"/><path d="M329.74,238.468l20.90362,41.88385A9.15,9.15,0,0,1,355.052,275.92L328.86852,196.2438c-.0224,0-.0448.01471-.075.01471Z"/><path d="M199.69084,185.45224l-1.14239-35.24152-.63477-19.66766c-.287.00378-.56738.03784-.85455.01538a8.93318,8.93318,0,0,1-3.63526-1.11133L142.75749,180.9299a8.85213,8.85213,0,0,1-.09064,9.93915l14.02131,11.55755L181.131,222.57425Z"/><path d="M480.02837,281.408l-46.99268-2.70606a9.06389,9.06389,0,0,1-6.25873,7.15039l6.94678,33.14557,9.48639,45.27686a49.95059,49.95059,0,0,0,14.44464-32.13251,1.00252,1.00252,0,0,1,.58972-.85449l.31732-.1355c.45362-.21192.91407-.42328,1.36774-.64227.85455-.41651,1.70129-.86243,2.5249-1.33832l3.34839-9.10791Z"/><path d="M493.93663,214.44467a1.00713,1.00713,0,0,1,.01477-.90644,25.39122,25.39122,0,0,0,1.03546-21.18l-2.13855.80878-.64245.24945-5.89637,52.66229a25.7855,25.7855,0,0,0,10.0304-23.45489A25.24742,25.24742,0,0,0,493.93663,214.44467Z"/><path d="M423.39055,286.2308a9.0783,9.0783,0,0,1-6.97626-4.2865l-9.28949,4.52789-15.58655,7.60407L400.692,308.219l38.59461,59.61548c.75622-.61987,1.48913-1.25476,2.19989-1.91181l-16.70514-79.71514A9.54939,9.54939,0,0,1,423.39055,286.2308Z"/><path d="M302.08842,285.95828,258.553,267.00784H219.55589l-5.01867,9.706,4.38165,14.07434a8.87148,8.87148,0,0,1,10.52087,6.83484l.00122.00592,63.10767-7.38482,9.26733-1.08826a8.56857,8.56857,0,0,1-.03015-1.535A9.21358,9.21358,0,0,1,302.08842,285.95828Z"/><path d="M201.59209,181.64907l21.38714-42.778-3.62909-2.23975L204.56487,127.508a9.09532,9.09532,0,0,1-4.64094,2.78565L201.1035,166.64Z"/><path d="M319.56407,191.49661a9.004,9.004,0,0,1-1.04315-4.96594c0-.02234.01538-.04175.01538-.06421l-18.70361-7.922,8.75476,17.54144Z"/><path d="M402.589,65.63967l-25.51074-4.66748a7.57,7.57,0,0,1-7.70239,4.95148c-.12842-.01172-.24139-.04974-.36981-.06817l-7.52112,24.83441a9.02362,9.02362,0,0,1,3.73382,2.48681L386.9879,79.32888l15.72266-10.00024a7.96884,7.96884,0,0,1-.28809-2.75861A7.73925,7.73925,0,0,1,402.589,65.63967Z"/><path d="M482.54552,280.637l4.38391,15.20789a49.7203,49.7203,0,0,0-.25684-21.73133Z"/><path d="M490.05107,194.52l-58.85992,32.48785a9.06771,9.06771,0,0,1,.33258,3.15179,8.97194,8.97194,0,0,1-1.54169,4.30109l34.347,29.819,16.3272,14.18073.68036-6.07746,1.09589-9.77356a50.12439,50.12439,0,0,0-6.94678-10.20459,1.00957,1.00957,0,0,1,.55963-1.6549,25.38273,25.38273,0,0,0,8.06519-3.17511l2.9328-26.22895Z"/><path d="M351.80962,55.59439,362.611,56.81106a7.55926,7.55926,0,0,1,5.60077-5.77093L365.89134,31.1943a29.43874,29.43874,0,0,0-17.58868-10.78992,1.06286,1.06286,0,0,1-.34833-.14007c-.44592-.27948-.90637-.55109-1.36774-.805l-2.117,27.25317A9.03839,9.03839,0,0,1,351.80962,55.59439Z"/><path d="M360.97093,292.92752a7.959,7.959,0,0,1-4.00543.09082l15.28467,30.6253Z"/><path d="M337.34166,48.35275a9.01851,9.01851,0,0,1,5.11017-1.79895l1.01306-12.9856,1.1712-15.08716a29.22916,29.22916,0,0,0-15.82794-2.56268c-.00775,0-.4682.07587-.49151.08356a.96506.96506,0,0,1-.67243-.15173,29.67225,29.67225,0,0,0-19.32812-4.452,29.21709,29.21709,0,0,0-4.78394.9906l11.64014,12.3811Z"/><path d="M370.6082,50.81717a7.5563,7.5563,0,0,1,6.26642,4.46765l7.21063-2.47608,9.81134-3.371a29.30963,29.30963,0,0,0-25.828-17.04529l2.15411,18.43231C370.35112,50.82876,370.47978,50.80551,370.6082,50.81717Z"/><path d="M251.00584,57.6423a9.105,9.105,0,0,1,4.452,6.00555l20.39374-2.12,57.87012-6.0094c0-.219-.0304-.43427-.01563-.65729a9.03481,9.03481,0,0,1,2.15411-5.14007L301.11314,12.76657a43.82289,43.82289,0,0,0-26.25921-5.13251c-1.0658.12469-2.17658.3028-3.29584.5141L252.73747,53.47042Z"/><path d="M232.11662,52.75222a6.69665,6.69665,0,0,1-.41571,1.75391l7.95215,5.2608a9.05725,9.05725,0,0,1,7.69464-3.243,9.29561,9.29561,0,0,1,1.79877.33295l15.69244-37.79376,4.30823-10.371a43.728,43.728,0,0,0-8.2998,3.02033,1.03992,1.03992,0,0,1-.884,0,1.01833,1.01833,0,0,0-.09832-.04572L229.66,47.08328A6.58516,6.58516,0,0,1,232.11662,52.75222Z"/><path d="M492.23619,190.99746l1.7229-.95984a24.17188,24.17188,0,0,0-1.83679-2.98535l.01562.55194Z"/><path d="M419.10472,159.18313a8.01211,8.01211,0,0,1,.02332,1.05023c-.00763.12867-.05341.25006-.06812.37476l1.17114.44574,64.5669,24.63.09833-.623.7406-4.62641a1.02269,1.02269,0,0,1-.20362-.69879,25.54512,25.54512,0,0,0-5.04174-21.00982l-60.3794.4497Z"/><path d="M206.06963,29.09372a9.059,9.059,0,0,1-1.91266,4.86761L221.34538,47.204a6.54719,6.54719,0,0,1,4.75482-1.52723,6.46444,6.46444,0,0,1,1.19428.22L253.03221,9.04745a43.8061,43.8061,0,0,0-17.34045-1.4397c-.36219.04181-.71045.10205-1.05793.15485l-.30194.04547-28.84448,17.362A8.96869,8.96869,0,0,1,206.06963,29.09372Z"/><path d="M490.11156,187.12045l-.06751-2.65326a27.39037,27.39037,0,0,0-2.61523-2.4754l-.75623,4.72381,3.51489,3.48078Z"/><path d="M472.0468,135.2676a38.04563,38.04563,0,0,0-17.2041-20.14831,1.03623,1.03623,0,0,1-.52167-.85761c-.02234-1.134-.09827-2.27948-.2337-3.42425a37.66762,37.66762,0,0,0-21.64075-29.95148,1.01152,1.01152,0,0,1-.55963-.688,29.58119,29.58119,0,0,0-1.51947-4.72381l-.181-.07587-12.2984-5.06445a7.94762,7.94762,0,0,1-1.10364,1.93512L438.712,97.2734Z"/><path d="M410.99474,132.94326l.0224,17.53986a9.06807,9.06807,0,0,1,7.80065,6.682l59.805-.45032a25.07194,25.07194,0,0,0-4.07453-3.41962,1.02985,1.02985,0,0,1-.44568-.953,38.23461,38.23461,0,0,0-.0224-8.5188c-.15173-1.25848-.37866-2.555-.68823-3.95288l-4.39947-5.01959L415.31065,73.65213a8.02834,8.02834,0,0,1-4.39178,1.60211Z"/><path d="M141.46471,179.36093l50.30322-51.10828a8.97139,8.97139,0,0,1-1.23914-12.1698L131.72917,58.17172a9.064,9.064,0,0,1-3.80975,1.92718l4.62646,65.591,3.60523,51.13531A8.98094,8.98094,0,0,1,141.46471,179.36093Z"/><path d="M424.85722,268.12728a9.06336,9.06336,0,0,1,8.29987,8.55689l45.38983,2.61456-35.39032-30.726-14.48267-12.57019a8.96962,8.96962,0,0,1-4.134,2.22229l.30188,29.90246Z"/><path d="M41.3723,230.84768l3.24237-30.48456a9.05957,9.05957,0,0,1-7.128-6.35705l-30.04559,5.4801a75.22109,75.22109,0,0,0-.68036,22.026c.03778.35535.09826.7107.14312,1.05811l.06116.37848,31.11145,38.93451Z"/><path d="M38.61284,186.5043a8.91454,8.91454,0,0,1,11.42145-3.25775L120.8676,58.88626a9.12125,9.12125,0,0,1-2.699-2.70606L95.62846,66.36166,69.79253,78.02835a75.687,75.687,0,0,0-17.77765,32.01873,1.01345,1.01345,0,0,1-.3855.56733,75.73824,75.73824,0,0,0-31.67883,58.59918.84755.84755,0,0,1-.18183.53631c-1.34533,1.94275-2.64489,4.02894-3.87018,6.22089l21.64844,10.038Z"/><path d="M39.28551,265.75351l-.49085.99835-2.91,5.86554a75.10135,75.10135,0,0,0,36.25152,14.82995l1.46607-.14386,11.05841-1.07293L68.99138,279.1633Z"/><path d="M211.70049,104.05319a9.06817,9.06817,0,0,1-3.46906-7.89112,9.211,9.211,0,0,1,.33972-1.84057L133.42967,56.16085c-.11285.1742-.219.34833-.33978.51392l58.8067,57.91589a9.01751,9.01751,0,0,1,11.73175-.03411Z"/><path d="M170.84581,329.00607a81.04368,81.04368,0,0,0,16.652,7.82281l-4.6482-7.82281Z"/><path d="M237.52281,109.78213l-13.1687-7.1803a8.95976,8.95976,0,0,1-10.91528,2.49848l-8.41266,10.95617a9.0055,9.0055,0,0,1,1.82892,6.176l23.62134,1.64331Z"/><path d="M212.97838,294.83255l-5.51721-4.43384-6.52417,12.617,10.6582-2.37048a8.55335,8.55335,0,0,1-.031-1.70813A9.0001,9.0001,0,0,1,212.97838,294.83255Z"/><path d="M126.52861,42.23782a9.0253,9.0253,0,0,1,4.76251,1.84448L141.238,32.59689a72.33976,72.33976,0,0,0-18.85126,8.26965l.82349,1.73847A8.90807,8.90807,0,0,1,126.52861,42.23782Z"/><path d="M134.17046,47.869l26.5689-8.32928,27.5672-8.64722a8.86566,8.86566,0,0,1-.355-3.26568,9.064,9.064,0,0,1,8.65418-8.30292l.42328-4.00232c-1.3675.08289-2.774.20361-4.17188.37006a72.90446,72.90446,0,0,0-35.35241,14.13879.94564.94564,0,0,1-.54407.2005c-1.54254.08289-3.06909.19592-4.61078.37781a75.26169,75.26169,0,0,0-7.69531,1.33056L132.75731,45.47342A8.97113,8.97113,0,0,1,134.17046,47.869Z"/><path d="M49.29344,199.96994a8.98867,8.98867,0,0,1-2.66034.5216l-1.18719,11.16437-5.54053,52.15546,16.08484,7.26342,30.56042,13.7876L57.41136,218.47427Z"/><polygon points="326.867 200.393 322.952 224.872 327.625 234.229 326.867 200.393"/><path d="M354.09209,107.1755a9.07409,9.07409,0,0,1-4.66333-7.63482l-28.78412-1.7229a9.0636,9.0636,0,0,1-6.39484,7.16186l2.38147,13.93066L326.775,178.23086a8.81967,8.81967,0,0,1,1.54169-.03009,8.934,8.934,0,0,1,1.82208.34039L351.6812,114.36Z"/><path d="M304.03056,91.521a9.04864,9.04864,0,0,1,8.43592-4.30822,8.83417,8.83417,0,0,1,3.915,1.29193l20.129-26.38a9.04085,9.04085,0,0,1-2.57745-4.59527l-78.27087,8.12567a6.51116,6.51116,0,0,1,.01556.661,8.74914,8.74914,0,0,1-.48377,2.18908Z"/><path d="M134.1179,176.80966,125.90874,60.3453c-.27948.00373-.559.0409-.84619.01844a8.90036,8.90036,0,0,1-2.38849-.56647L51.76488,184.289a9.108,9.108,0,0,1,3.33386,5.55987l54.03-2.89489,16.9765-.91108c-.007-.31335-.04474-.62384-.0224-.94513A9.09625,9.09625,0,0,1,134.1179,176.80966Z"/><path d="M318.95891,184.45156a9.0906,9.0906,0,0,1,1.089-2.19195l-.99066-1.11072-40.562-45.3573,19.948,39.96851Z"/><path d="M321.35509,180.69528a9.03613,9.03613,0,0,1,3.43213-2.07892l-12.53974-73.30847a8.46485,8.46485,0,0,1-1.24774.02307,8.98544,8.98544,0,0,1-5.61639-2.62311l-30.91272,25.0199.598,1.19867,45.34155,50.71094Z"/><path d="M189.06981,32.77481l-54.332,17.037a9.12294,9.12294,0,0,1,.12073,2.22974,9.26672,9.26672,0,0,1-.5293,2.30212L209.38,92.4584a9.10957,9.10957,0,0,1,4.42975-3.91565l-6.00195-19.38837-9.83368-31.76171a8.79088,8.79088,0,0,1-1.70044.03405A9.07816,9.07816,0,0,1,189.06981,32.77481Z"/><path d="M403.47356,71.23727,366.413,94.81289a8.98367,8.98367,0,0,1-1.4513,10.72174l26.18335,29.736,14.39991,16.3573a9.06653,9.06653,0,0,1,3.45453-1.15247l-.09827-75.372A8.06051,8.06051,0,0,1,403.47356,71.23727Z"/><path d="M229.49706,125.83511l-23.04987-1.60352a9.2402,9.2402,0,0,1-.69513,1.62482l18.13715,11.19519Z"/><path d="M336.60863,186.16366l59.24542-13.333-14.81445-27.96-19.63074-37.04193a9.01065,9.01065,0,0,1-3.67346.46509,9.23229,9.23229,0,0,1-1.77631-.325l-8.95691,26.70123-14.99664,44.67609A9.10859,9.10859,0,0,1,336.60863,186.16366Z"/><path d="M302.83611,284.076a9.117,9.117,0,0,1,2.08129-2.56372L297.61674,267.008H263.61235L302.292,283.84225Z"/><path d="M325.50487,196.0773a9.03972,9.03972,0,0,1-4.7843-2.87232l-11.22846,4.69373,11.90833,23.85992Z"/><path d="M395.718,251.989l19.88739-16.62115a9.06931,9.06931,0,0,1-2.19989-6.682,8.72966,8.72966,0,0,1,.29511-1.61774l-79.28388-33.85541a9.06019,9.06019,0,0,1-3.5907,2.50153l18.14911,55.23932,7.9972,24.33954a8.889,8.889,0,0,1,2.58514-.20429,8.98525,8.98525,0,0,1,5.51019,2.51715Z"/><polygon points="183.75 321.843 185.193 318.984 186.114 317.149 188.429 312.55 189.212 310.99 190.981 307.479 191.982 305.486 202.004 285.557 202.803 283.975 210.555 268.561 211.677 266.329 211.939 265.808 213.548 262.61 215.156 259.412 215.169 259.412 218.741 259.412 222.323 259.412 223.308 259.412 225.188 259.412 229.528 259.412 281.985 259.412 294.079 259.412 295.061 259.412 276.264 221.879 275.759 220.875 274.323 218.006 273.338 218.006 244.132 218.006 243.15 218.006 239.562 218.006 236.003 218.006 235.981 218.006 237.593 214.808 239.201 211.607 251.27 187.62 254.973 180.253 253.438 177.291 232.335 136.56 225.853 149.528 225.386 150.452 221.293 158.638 220.941 159.348 199.234 202.762 194.812 211.607 193.21 214.808 191.611 218.006 184.796 231.635 184.192 232.844 183.156 234.916 175.094 251.04 174.384 252.466 172.097 257.033 170.908 259.412 169.309 262.61 167.713 265.808 164.455 272.322 163.377 274.464 162.363 276.498 162.302 276.619 159.744 281.742 152.447 296.334 139.691 321.843 173.703 321.843 183.75 321.843"/><path d="M351.787,329.00607l21.68518,41.95709a9.18041,9.18041,0,0,1,8.45124-5.594,9.08435,9.08435,0,0,1,2.50323.38934l-26.65222-36.75244Z"/><polygon points="374.22 329.006 360.278 329.006 388.515 367.94 383.881 355.318 374.22 329.006"/><path d="M328.82372,329.00607l-5.51539-10.957-8.73352,33.68481a50.39759,50.39759,0,0,0,11.127,14.64472c11.0415,2.1065,21.55346,6.23315,32.66528,8.60455.6886.14691,3.70892.49249,3.64795.54626.93079.06476,1.86023.14954,2.79639.14771.76306.00049,1.52514-.03,2.28668-.07733l.25543-.04761c1.40918-.43414,2.83582-.85779,4.2478-1.283.38526-.116.76429-.21106,1.143-.30566L349.508,329.00607Z"/><path d="M391.16747,297.2286,392.967,373.511l25.2912,2.10932,6.3266.52856a49.5687,49.5687,0,0,0,13.09955-7.05969l-35.8811-55.4281Z"/><path class="cls-1" d="M25.84594,541.25756a9.6044,9.6044,0,0,0-7.447,0,9.44056,9.44056,0,0,0-5.06859,5.06791,9.33494,9.33494,0,0,0-.7498,3.7221v25.40274a9.31545,9.31545,0,0,0,.75114,3.72418,9.46345,9.46345,0,0,0,5.06725,5.06724,9.28365,9.28365,0,0,0,3.72348.75115,9.18023,9.18023,0,0,0,3.72348-.75115,9.4533,9.4533,0,0,0,5.06588-5.06791,9.30192,9.30192,0,0,0,.75251-3.7235V550.04763a9.32319,9.32319,0,0,0-.75251-3.72417,9.429,9.429,0,0,0-5.06588-5.06589Z"/></svg>