<svg id="Layer_1" data-name="Layer 1" xmlns="http://www.w3.org/2000/svg" viewBox="0 0 504 544.67719"><title>acumos-stacked-black</title><polygon points="313.765 282.308 315.581 285.932 317.052 288.87 317.868 290.501 321.683 298.112 326.47 307.671 333.358 321.421 336.441 321.421 338.587 321.421 351.701 321.421 353.553 321.421 363.37 321.421 358.413 311.521 350.62 295.97 348.951 292.634 345.945 286.632 342.235 279.222 324.906 244.647 323.02 240.874 321.629 238.105 320.295 235.431 318.351 231.565 278.387 151.789 264.595 177 262.724 180.425 262.852 180.684 264.019 183.019 265.225 185.417 278.132 211.182 279.734 214.383 281.064 217.037 281.339 217.584 281.841 218.591 302.08 258.987 303.03 260.88 303.682 262.188 304.363 263.54 305.288 265.389 313.765 282.308"/><polygon points="272.689 140.414 269.411 133.871 251.35 97.819 249.626 101.269 247.768 104.982 247.352 105.813 246.332 107.857 239.367 121.783 235.731 129.058 258.244 172.511 258.756 171.877 259.523 172.933 274.902 144.827 272.689 140.414"/><polygon points="258.244 172.511 258.238 172.52 258.992 174.03 259.523 172.933 259.405 173.15 259.523 172.933 258.756 171.877 258.244 172.511"/><path d="M37.15379,192.01077a8.25378,8.25378,0,0,1-.03009-1.29279,8.76709,8.76709,0,0,1,.575-2.411L14.92418,177.7471a75.16209,75.16209,0,0,0-7.06751,19.60748L29.875,193.34127Z"/><path d="M8.537,228.15634l-.90728-1.14081a74.841,74.841,0,0,0,7.05981,20.393l3.12933,2.04883,16.25129,10.65052Z"/><path d="M34.25908,271.34719l.96753-1.94982,2.29022-4.61133L16.81346,251.21041A75.91656,75.91656,0,0,0,34.25908,271.34719Z"/><polygon points="247.212 211.185 269.987 211.185 258.622 188.497 247.212 211.185"/><path d="M404.411,166.606l-5.85846,7.07428,13.06915,28.36853,8.57135,18.60187c.144-.03.28808-.06036.4389-.09051l-9.72082-52.03076A8.70288,8.70288,0,0,1,404.411,166.606Z"/><path d="M237.657,34.58828l20.27319-23.77911c-.98315-.42731-1.93506-.79407-2.88019-1.1261L244.491,24.8002Z"/><path d="M207.6942,316.10226l6.88635-9.68207a9.09468,9.09468,0,0,1-2.5473-3.80267l-12.30286,2.73175-5.57965,10.7904,10.98145,3.56891Z"/><path d="M377.5092,57.42343l7.10565-.22669,11.61719-.37011a30.02764,30.02764,0,0,0-1.534-5.52558l-17.23425,5.92206C377.47136,57.29489,377.50151,57.35513,377.5092,57.42343Z"/><path d="M101.78185,57.74856A75.10836,75.10836,0,0,0,73.90477,73.95474l43.25909-19.5401Z"/><path d="M397.49437,62.6542l5.7301,1.05023a8.072,8.072,0,0,1,7.9057-4.53888,8.52047,8.52047,0,0,1,1.127.20819l.26379-.49914c-.53632-.18115-1.07263-.35138-1.61688-.49847l-31.301,1.00555Z"/><path d="M204.55779,23.3713,228.06548,9.21389a43.90472,43.90472,0,0,0-13.59082,6.84851,1.00785,1.00785,0,0,1-.77869.18866,73.07163,73.07163,0,0,0-14.61829-1.02386l-.45343,4.23608A9.03424,9.03424,0,0,1,204.55779,23.3713Z"/><path d="M155.683,273.47476l1.09772-2.19568-22.64032,5.51813c.37072,1.81408.80877,3.60516,1.29254,5.35138Z"/><path d="M238.52623,61.44522l-5.35846-3.5528-2.442-1.60986a6.56573,6.56573,0,0,1-5.68371,2.47906c-.11371-.00763-.21973-.04571-.325-.05713l-4.5055,29.61518a9.02785,9.02785,0,0,1,3.08429,1.80273l13.28076-14.834,3.28022-3.66193a9.04122,9.04122,0,0,1-2.29816-6.78033A9.15864,9.15864,0,0,1,238.52623,61.44522Z"/><path d="M220.0385,48.746,202.72124,35.405a8.9876,8.9876,0,0,1-2.76715,1.54963l6.48541,20.94873,9.30536,30.06872a8.80735,8.80735,0,0,1,2.28247-.13611c.06817.004.13635.03016.20471.03778l4.52722-29.73992a6.5571,6.5571,0,0,1-3.73382-6.43964A6.45764,6.45764,0,0,1,220.0385,48.746Z"/><path d="M421.13121,268.61129a9.06012,9.06012,0,0,1,1.69287-.40808v-.00006l-.13629-13.56848-.16644-16.16748c-.26477,0-.52167.03717-.79346.01477a8.52207,8.52207,0,0,1-1.39081-.25708l-18.345,34.92889-9.59234,18.25458,23.13-11.27746A9.05753,9.05753,0,0,1,421.13121,268.61129Z"/><path d="M363.40434,106.82321c-.06024.042-.113.08752-.17328.12555l21.70868,40.97943,12.608,23.79089,5.43432-6.56433a8.99931,8.99931,0,0,1,.93744-12.31317Z"/><path d="M311.08318,344.49319a.999.999,0,0,1,.71752.658c.40088,1.20129.877,2.43353,1.4289,3.71136l5.66882-21.86743,3.03131-11.68536-9.12225-18.12256a8.92407,8.92407,0,0,1-1.11963.20032l-5.46533,45.62427A49.44386,49.44386,0,0,0,311.08318,344.49319Z"/><path d="M482.9464,276.22293l1.59448-2.51715,1.42889-2.26007a51.9813,51.9813,0,0,0-1.88934-5.33692Z"/><path d="M342.03606,64.65725a9.03712,9.03712,0,0,1-3.91571-1.29254L323.81206,82.11044,317.99138,89.737a9.0825,9.0825,0,0,1,2.78174,6.06214L347.599,97.405l1.98847.11768a9.08447,9.08447,0,0,1,4.535-6.25848l-2.53186-7.25641-6.81836-19.59284A8.89024,8.89024,0,0,1,342.03606,64.65725Z"/><path d="M389.08153,294.42459l-21.95014-6.68994a9.11288,9.11288,0,0,1-4.25567,4.50482l2.40326,6.53888,25.54876,69.58557Z"/><path d="M307.22777,317.57675l2.42663-20.24268a9.10583,9.10583,0,0,1-7.45294-6.18286l-36.68286,4.29352-35.84326,4.19519c0,.25684.03033.50622.01477.77063a9.06624,9.06624,0,0,1-3.39325,6.34161l17.73273,28.00543a80.88308,80.88308,0,0,0,30.32513-22.10986.9742.9742,0,0,1,.84686-.34741.3905.3905,0,0,1,.09827.00769,1.01053,1.01053,0,0,1,.77069.65,50.0386,50.0386,0,0,0,28.19434,29.29731Z"/><path d="M418.4099,237.54452a9.37323,9.37323,0,0,1-1.28485-.80871l-9.44855,7.89184-41.30927,34.52808a9.00633,9.00633,0,0,1,1.51953,5.72217c-.03015.31732-.113.61218-.17352.92181l5.62341,1.71594,16.22864,4.95056L395.8922,280.418Z"/><path d="M140.48265,193.13687,169.02879,246.781l11.17365-22.3493-38.836-32.02014A8.09784,8.09784,0,0,1,140.48265,193.13687Z"/><path d="M154.28233,276.27652l-18.27508,7.83728a80.2307,80.2307,0,0,0,6.62915,15.45593Z"/><path d="M465.22075,327.50131a49.8127,49.8127,0,0,0,20.72662-27.76312l-4.61859-16.0246Z"/><path d="M131.31352,269.20083a1.01246,1.01246,0,0,1,1.67029.64252c.18121,1.52631.43121,3.15948.76331,4.96594l9.35772-2.27545,14.86139-3.62592,9.95343-19.90838-1.5943-2.99677-27.60455-51.86053a8.88139,8.88139,0,0,1-4.308.74847,8.04817,8.04817,0,0,1-1.30048-.23437l-42.7597,90.7276,27.52862-6.70441A75.22727,75.22727,0,0,0,131.31352,269.20083Z"/><polygon points="474.767 200.642 489.598 192.449 485.486 188.381 477.527 193.894 440.422 219.602 474.767 200.642"/><path d="M418.3037,221.369l-21.51215-46.67535-60.19049,13.5415a8.95631,8.95631,0,0,1-.99768,3.29181l37.57458,16.04L414.426,225.17874A9.10529,9.10529,0,0,1,418.3037,221.369Z"/><path d="M242.11693,335.52865l-17.5362-27.71057a8.94756,8.94756,0,0,1-4.69433.92273,9.10433,9.10433,0,0,1-3.66565-1.134l-4.02106,5.661-5.367,7.55145,17.80853,19.28986A81.16788,81.16788,0,0,0,242.11693,335.52865Z"/><path d="M195.95543,339.15628a80.6895,80.6895,0,0,0,26.24451,1.28576l-16.49335-17.85412-5.004,8.50409Z"/><path d="M204.02061,321.46933l-9.8338-3.19733-.97461-.31732-5.71453,11.05139h-2.29523l5.19024,8.72992q1.73438.50994,3.49921.94446Z"/><path d="M131.18517,193.99136a9.07146,9.07146,0,0,1-4.81531-5.93744L55.24254,191.8674c-.00769.10528.01471.2113.007.3175a9.04387,9.04387,0,0,1-4.15717,6.87091L83.323,272.49575l5.24567,11.93537Z"/><path d="M362.46013,58.82974,351.59068,57.605a9.04745,9.04745,0,0,1-4.91339,6.15265L354.939,87.492l1.05817,3.02338a8.91244,8.91244,0,0,1,3.212-.34772c.1062.00793.1966.04511.29486.0528l7.55152-24.90558A7.5537,7.5537,0,0,1,362.46013,58.82974Z"/><path d="M216.984,291.3926l-3.77081-12.11853-4.80469,9.29224,5.83936,4.69415A9.06842,9.06842,0,0,1,216.984,291.3926Z"/><path d="M241.36839,72.96414,225.98662,90.15249l-1.33,1.48914a9.01438,9.01438,0,0,1,1.69281,5.98718,8.87778,8.87778,0,0,1-.91479,3.25775l3.545,1.93512,9.44788,5.15112,13.10321-26.20867,4.88037,9.77868-4.96656-11.84326-2.27551-5.4165A8.825,8.825,0,0,1,241.36839,72.96414Z"/><path d="M251.03673,73.51577l19.102,45.53217,3.40442,6.82117L296.737,107.10733l7.36939-5.964a8.70329,8.70329,0,0,1-.95215-7.79731l-31.195-14.70166-17.64209-8.31048A9.03065,9.03065,0,0,1,251.03673,73.51577Z"/><path d="M412.89946,168.14l9.75043,52.22357c.18872.00775.36285-.0224.55175-.00769a9.03756,9.03756,0,0,1,6.77259,4.02106l29.34314-20.32489,24.11981-16.72034L418.5761,162.588A9.10545,9.10545,0,0,1,412.89946,168.14Z"/><path d="M350.64366,280.35183A9.15,9.15,0,0,1,355.052,275.92L328.86852,196.2438c-.0224,0-.0448.01471-.075.01471L329.74,238.468Z"/><path d="M199.69084,185.45224l-1.14239-35.24152-.63477-19.66766c-.287.00378-.56738.03784-.85455.01538a8.93318,8.93318,0,0,1-3.63526-1.11133L142.75749,180.9299a8.85213,8.85213,0,0,1-.09064,9.93915l14.02131,11.55755L181.131,222.57425Z"/><path d="M457.65477,332.14224a1.00252,1.00252,0,0,1,.58972-.85449l.31732-.1355c.45362-.21192.91407-.42328,1.36774-.64227.85455-.41651,1.70129-.86243,2.5249-1.33832l3.34839-9.10791L480.02837,281.408l-46.99268-2.70606a9.06389,9.06389,0,0,1-6.25873,7.15039l6.94678,33.14557,9.48639,45.27686A49.95059,49.95059,0,0,0,457.65477,332.14224Z"/><path d="M496.33989,222.62381a25.24742,25.24742,0,0,0-2.40326-8.17914,1.00713,1.00713,0,0,1,.01477-.90644,25.39122,25.39122,0,0,0,1.03546-21.18l-2.13855.80878-.64245.24945-5.89637,52.66229A25.7855,25.7855,0,0,0,496.33989,222.62381Z"/><path d="M441.4865,365.92263l-16.70514-79.71514a9.54939,9.54939,0,0,1-1.39081.02331,9.0783,9.0783,0,0,1-6.97626-4.2865l-9.28949,4.52789-15.58655,7.60407L400.692,308.219l38.59461,59.61548C440.04283,367.21457,440.77574,366.57968,441.4865,365.92263Z"/><path d="M302.08842,285.95828,258.553,267.00784H219.55589l-5.01867,9.706,4.38165,14.07434a8.87148,8.87148,0,0,1,10.52087,6.83484l.00122.00592,63.10767-7.38482,9.26733-1.08826a8.56857,8.56857,0,0,1-.03015-1.535A9.21358,9.21358,0,0,1,302.08842,285.95828Z"/><path d="M199.92393,130.29361,201.1035,166.64l.48859,15.00909,21.38714-42.778-3.62909-2.23975L204.56487,127.508A9.09532,9.09532,0,0,1,199.92393,130.29361Z"/><path d="M319.56407,191.49661a9.004,9.004,0,0,1-1.04315-4.96594c0-.02234.01538-.04175.01538-.06421l-18.70361-7.922,8.75476,17.54144Z"/><path d="M402.589,65.63967l-25.51074-4.66748a7.57,7.57,0,0,1-7.70239,4.95148c-.12842-.01172-.24139-.04974-.36981-.06817l-7.52112,24.83441a9.02362,9.02362,0,0,1,3.73382,2.48681L386.9879,79.32888l15.72266-10.00024a7.96884,7.96884,0,0,1-.28809-2.75861A7.73925,7.73925,0,0,1,402.589,65.63967Z"/><path d="M482.54552,280.637l4.38391,15.20789a49.7203,49.7203,0,0,0-.25684-21.73133Z"/><path d="M490.05107,194.52l-58.85992,32.48785a9.06771,9.06771,0,0,1,.33258,3.15179,8.97194,8.97194,0,0,1-1.54169,4.30109l34.347,29.819,16.3272,14.18073.68036-6.07746,1.09589-9.77356a50.12439,50.12439,0,0,0-6.94678-10.20459,1.00957,1.00957,0,0,1,.55963-1.6549,25.38273,25.38273,0,0,0,8.06519-3.17511l2.9328-26.22895Z"/><path d="M351.80962,55.59439,362.611,56.81106a7.55926,7.55926,0,0,1,5.60077-5.77093L365.89134,31.1943a29.43874,29.43874,0,0,0-17.58868-10.78992,1.06286,1.06286,0,0,1-.34833-.14007c-.44592-.27948-.90637-.55109-1.36774-.805l-2.117,27.25317A9.03839,9.03839,0,0,1,351.80962,55.59439Z"/><path d="M356.9655,293.01834l15.28467,30.6253-11.27924-30.71612A7.959,7.959,0,0,1,356.9655,293.01834Z"/><path d="M337.34166,48.35275a9.01851,9.01851,0,0,1,5.11017-1.79895l1.01306-12.9856,1.1712-15.08716a29.22916,29.22916,0,0,0-15.82794-2.56268c-.00775,0-.4682.07587-.49151.08356a.96506.96506,0,0,1-.67243-.15173,29.67225,29.67225,0,0,0-19.32812-4.452,29.21709,29.21709,0,0,0-4.78394.9906l11.64014,12.3811Z"/><path d="M370.6082,50.81717a7.5563,7.5563,0,0,1,6.26642,4.46765l7.21063-2.47608,9.81134-3.371a29.30963,29.30963,0,0,0-25.828-17.04529l2.15411,18.43231C370.35112,50.82876,370.47978,50.80551,370.6082,50.81717Z"/><path d="M251.00584,57.6423a9.105,9.105,0,0,1,4.452,6.00555l20.39374-2.12,57.87012-6.0094c0-.219-.0304-.43427-.01563-.65729a9.03481,9.03481,0,0,1,2.15411-5.14007L301.11314,12.76657a43.82289,43.82289,0,0,0-26.25921-5.13251c-1.0658.12469-2.17658.3028-3.29584.5141L252.73747,53.47042Z"/><path d="M232.11662,52.75222a6.69665,6.69665,0,0,1-.41571,1.75391l7.95215,5.2608a9.05725,9.05725,0,0,1,7.69464-3.243,9.29561,9.29561,0,0,1,1.79877.33295l15.69244-37.79376,4.30823-10.371a43.728,43.728,0,0,0-8.2998,3.02033,1.03992,1.03992,0,0,1-.884,0,1.01833,1.01833,0,0,0-.09832-.04572L229.66,47.08328A6.58516,6.58516,0,0,1,232.11662,52.75222Z"/><path d="M492.23619,190.99746l1.7229-.95984a24.17188,24.17188,0,0,0-1.83679-2.98535l.01562.55194Z"/><path d="M419.10472,159.18313a8.01211,8.01211,0,0,1,.02332,1.05023c-.00763.12867-.05341.25006-.06812.37476l1.17114.44574,64.5669,24.63.09833-.623.7406-4.62641a1.02269,1.02269,0,0,1-.20362-.69879,25.54512,25.54512,0,0,0-5.04174-21.00982l-60.3794.4497Z"/><path d="M206.06963,29.09372a9.059,9.059,0,0,1-1.91266,4.86761L221.34538,47.204a6.54719,6.54719,0,0,1,4.75482-1.52723,6.46444,6.46444,0,0,1,1.19428.22L253.03221,9.04745a43.8061,43.8061,0,0,0-17.34045-1.4397c-.36219.04181-.71045.10205-1.05793.15485l-.30194.04547-28.84448,17.362A8.96869,8.96869,0,0,1,206.06963,29.09372Z"/><path d="M490.11156,187.12045l-.06751-2.65326a27.39037,27.39037,0,0,0-2.61523-2.4754l-.75623,4.72381,3.51489,3.48078Z"/><path d="M472.0468,135.2676a38.04563,38.04563,0,0,0-17.2041-20.14831,1.03623,1.03623,0,0,1-.52167-.85761c-.02234-1.134-.09827-2.27948-.2337-3.42425a37.66762,37.66762,0,0,0-21.64075-29.95148,1.01152,1.01152,0,0,1-.55963-.688,29.58119,29.58119,0,0,0-1.51947-4.72381l-.181-.07587-12.2984-5.06445a7.94762,7.94762,0,0,1-1.10364,1.93512L438.712,97.2734Z"/><path d="M410.99474,132.94326l.0224,17.53986a9.06807,9.06807,0,0,1,7.80065,6.682l59.805-.45032a25.07194,25.07194,0,0,0-4.07453-3.41962,1.02985,1.02985,0,0,1-.44568-.953,38.23461,38.23461,0,0,0-.0224-8.5188c-.15173-1.25848-.37866-2.555-.68823-3.95288l-4.39947-5.01959L415.31065,73.65213a8.02834,8.02834,0,0,1-4.39178,1.60211Z"/><path d="M127.91942,60.0989l4.62646,65.591,3.60523,51.13531a8.98094,8.98094,0,0,1,5.3136,2.53577l50.30322-51.10828a8.97139,8.97139,0,0,1-1.23914-12.1698L131.72917,58.17172A9.064,9.064,0,0,1,127.91942,60.0989Z"/><path d="M424.84178,268.12728h.01544a9.06336,9.06336,0,0,1,8.29987,8.55689l45.38983,2.61456-35.39032-30.726-14.48267-12.57019a8.96962,8.96962,0,0,1-4.134,2.22229Z"/><path d="M6.90385,222.57028l.06116.37848,31.11145,38.93451,3.29584-31.03559,3.24237-30.48456a9.05957,9.05957,0,0,1-7.128-6.35705l-30.04559,5.4801a75.22109,75.22109,0,0,0-.68036,22.026C6.79851,221.86752,6.859,222.22287,6.90385,222.57028Z"/><path d="M38.61284,186.5043a8.91454,8.91454,0,0,1,11.42145-3.25775L120.8676,58.88626a9.12125,9.12125,0,0,1-2.699-2.70606L95.62846,66.36166,69.79253,78.02835a75.687,75.687,0,0,0-17.77765,32.01873,1.01345,1.01345,0,0,1-.3855.56733,75.73824,75.73824,0,0,0-31.67883,58.59918.84755.84755,0,0,1-.18183.53631c-1.34533,1.94275-2.64489,4.02894-3.87018,6.22089l21.64844,10.038Z"/><path d="M73.60222,287.30349l11.05841-1.07293L68.99138,279.1633,39.28551,265.75351l-.49085.99835-2.91,5.86554a75.10135,75.10135,0,0,0,36.25152,14.82995Z"/><path d="M208.57115,94.3215,133.42967,56.16085c-.11285.1742-.219.34833-.33978.51392l58.8067,57.91589a9.01751,9.01751,0,0,1,11.73175-.03411l8.07215-10.50336a9.06817,9.06817,0,0,1-3.46906-7.89112A9.211,9.211,0,0,1,208.57115,94.3215Z"/><path d="M170.84581,329.00607a81.04368,81.04368,0,0,0,16.652,7.82281l-4.6482-7.82281Z"/><path d="M205.02617,116.05648a9.0055,9.0055,0,0,1,1.82892,6.176l23.62134,1.64331,7.04638-14.09369-13.1687-7.1803a8.95976,8.95976,0,0,1-10.91528,2.49848Z"/><path d="M212.97838,294.83255l-5.51721-4.43384-6.52417,12.617,10.6582-2.37048a8.55335,8.55335,0,0,1-.031-1.70813A9.0001,9.0001,0,0,1,212.97838,294.83255Z"/><path d="M126.52861,42.23782a9.0253,9.0253,0,0,1,4.76251,1.84448L141.238,32.59689a72.33976,72.33976,0,0,0-18.85126,8.26965l.82349,1.73847A8.90807,8.90807,0,0,1,126.52861,42.23782Z"/><path d="M134.17046,47.869l26.5689-8.32928,27.5672-8.64722a8.86566,8.86566,0,0,1-.355-3.26568,9.064,9.064,0,0,1,8.65418-8.30292l.42328-4.00232c-1.3675.08289-2.774.20361-4.17188.37006a72.90446,72.90446,0,0,0-35.35241,14.13879.94564.94564,0,0,1-.54407.2005c-1.54254.08289-3.06909.19592-4.61078.37781a75.26169,75.26169,0,0,0-7.69531,1.33056L132.75731,45.47342A8.97113,8.97113,0,0,1,134.17046,47.869Z"/><path d="M57.41136,218.47427l-8.11792-18.50433a8.98867,8.98867,0,0,1-2.66034.5216l-1.18719,11.16437-5.54053,52.15546,16.08484,7.26342,30.56042,13.7876Z"/><polygon points="326.867 200.393 322.952 224.872 327.625 234.229 326.867 200.393"/><path d="M330.13872,178.54116,351.6812,114.36l2.41089-7.18445a9.07409,9.07409,0,0,1-4.66333-7.63482l-28.78412-1.7229a9.0636,9.0636,0,0,1-6.39484,7.16186l2.38147,13.93066L326.775,178.23086a8.81967,8.81967,0,0,1,1.54169-.03009A8.934,8.934,0,0,1,330.13872,178.54116Z"/><path d="M304.03056,91.521a9.04864,9.04864,0,0,1,8.43592-4.30822,8.83417,8.83417,0,0,1,3.915,1.29193l20.129-26.38a9.04085,9.04085,0,0,1-2.57745-4.59527l-78.27087,8.12567a6.51116,6.51116,0,0,1,.01556.661,8.74914,8.74914,0,0,1-.48377,2.18908Z"/><path d="M125.06255,60.36374a8.90036,8.90036,0,0,1-2.38849-.56647L51.76488,184.289a9.108,9.108,0,0,1,3.33386,5.55987l54.03-2.89489,16.9765-.91108c-.007-.31335-.04474-.62384-.0224-.94513a9.09625,9.09625,0,0,1,8.035-8.28814L125.90874,60.3453C125.62926,60.349,125.34972,60.3862,125.06255,60.36374Z"/><path d="M318.95891,184.45156a9.0906,9.0906,0,0,1,1.089-2.19195l-.99066-1.11072-40.562-45.3573,19.948,39.96851Z"/><path d="M320.4102,179.63736l.94489,1.05792a9.03613,9.03613,0,0,1,3.43213-2.07892l-12.53974-73.30847a8.46485,8.46485,0,0,1-1.24774.02307,8.98544,8.98544,0,0,1-5.61639-2.62311l-30.91272,25.0199.598,1.19867Z"/><path d="M189.06981,32.77481l-54.332,17.037a9.12294,9.12294,0,0,1,.12073,2.22974,9.26672,9.26672,0,0,1-.5293,2.30212L209.38,92.4584a9.10957,9.10957,0,0,1,4.42975-3.91565l-6.00195-19.38837-9.83368-31.76171a8.79088,8.79088,0,0,1-1.70044.03405A9.07816,9.07816,0,0,1,189.06981,32.77481Z"/><path d="M403.47356,71.23727,366.413,94.81289a8.98367,8.98367,0,0,1-1.4513,10.72174l26.18335,29.736,14.39991,16.3573a9.06653,9.06653,0,0,1,3.45453-1.15247l-.09827-75.372A8.06051,8.06051,0,0,1,403.47356,71.23727Z"/><path d="M229.49706,125.83511l-23.04987-1.60352a9.2402,9.2402,0,0,1-.69513,1.62482l18.13715,11.19519Z"/><path d="M357.7354,108.29385a9.23229,9.23229,0,0,1-1.77631-.325l-8.95691,26.70123-14.99664,44.67609a9.10859,9.10859,0,0,1,4.60309,6.81744l59.24542-13.333-14.81445-27.96-19.63074-37.04193A9.01065,9.01065,0,0,1,357.7354,108.29385Z"/><path d="M302.83611,284.076a9.117,9.117,0,0,1,2.08129-2.56372L297.61674,267.008H263.61235L302.292,283.84225Z"/><path d="M325.50487,196.0773a9.03972,9.03972,0,0,1-4.7843-2.87232l-11.22846,4.69373,11.90833,23.85992Z"/><path d="M395.718,251.989l19.88739-16.62115a9.06931,9.06931,0,0,1-2.19989-6.682,8.72966,8.72966,0,0,1,.29511-1.61774l-79.28388-33.85541a9.06019,9.06019,0,0,1-3.5907,2.50153l18.14911,55.23932,7.9972,24.33954a8.889,8.889,0,0,1,2.58514-.20429,8.98525,8.98525,0,0,1,5.51019,2.51715Z"/><polygon points="183.75 321.843 185.193 318.984 186.114 317.149 188.429 312.55 189.212 310.99 190.981 307.479 191.982 305.486 202.004 285.557 202.803 283.975 210.555 268.561 211.677 266.329 211.939 265.808 213.548 262.61 215.156 259.412 215.169 259.412 218.741 259.412 222.323 259.412 223.308 259.412 225.188 259.412 229.528 259.412 281.985 259.412 294.079 259.412 295.061 259.412 276.264 221.879 275.759 220.875 274.323 218.006 273.338 218.006 244.132 218.006 243.15 218.006 239.562 218.006 236.003 218.006 235.981 218.006 237.593 214.808 239.201 211.607 251.27 187.62 254.973 180.253 253.438 177.291 232.335 136.56 225.853 149.528 225.386 150.452 221.293 158.638 220.941 159.348 199.234 202.762 194.812 211.607 193.21 214.808 191.611 218.006 184.796 231.635 184.192 232.844 183.156 234.916 175.094 251.04 174.384 252.466 172.097 257.033 170.908 259.412 169.309 262.61 167.713 265.808 164.455 272.322 163.377 274.464 162.363 276.498 162.302 276.619 159.744 281.742 152.447 296.334 139.691 321.843 173.703 321.843 183.75 321.843"/><path d="M381.92345,365.36917a9.08435,9.08435,0,0,1,2.50323.38934l-26.65222-36.75244H351.787l21.68518,41.95709A9.18041,9.18041,0,0,1,381.92345,365.36917Z"/><polygon points="383.881 355.318 374.22 329.006 360.278 329.006 388.515 367.94 383.881 355.318"/><path d="M367.09807,375.59976l.25543-.04761c1.40918-.43414,2.83582-.85779,4.2478-1.283.38526-.116.76429-.21106,1.143-.30566L349.508,329.00607H328.82372l-5.51539-10.957-8.73352,33.68481a50.39759,50.39759,0,0,0,11.127,14.64472c11.0415,2.1065,21.55346,6.23315,32.66528,8.60455.6886.14691,3.70892.49249,3.64795.54626.93079.06476,1.86023.14954,2.79639.14771C365.57445,375.67758,366.33653,375.64712,367.09807,375.59976Z"/><polygon points="418.258 375.621 424.586 376.149 392.966 373.511 418.258 375.621"/><path d="M401.80321,313.661,391.16747,297.2286,392.967,373.511l25.2912,2.10932,6.3266.52856a49.5687,49.5687,0,0,0,13.09955-7.05969Z"/><path d="M146.43361,414.41708a32.07828,32.07828,0,0,0-9.641-6.56411c-7.38464-3.28208-16.41028-3.07694-24,0a28.73362,28.73362,0,0,0-9.641,6.56411,32.07924,32.07924,0,0,0-6.56411,9.641A29.42843,29.42843,0,0,0,94.126,435.95554v49.02572a30.43574,30.43574,0,0,0,9.02564,21.53848,32.07839,32.07839,0,0,0,9.641,6.56412,29.42929,29.42929,0,0,0,11.8974,2.46155,30.43587,30.43587,0,0,0,21.53849-9.02563,32.07916,32.07916,0,0,0,6.56411-9.641,29.42853,29.42853,0,0,0,2.46154-11.89746v-2.66671h-12.1026v2.66668a17.28013,17.28013,0,0,1-1.4359,7.17951,16.7186,16.7186,0,0,1-3.89743,5.74359,18.94324,18.94324,0,0,1-5.74361,3.89746,19.3058,19.3058,0,0,1-14.359,0,18.45329,18.45329,0,0,1-9.641-9.64105,17.28012,17.28012,0,0,1-1.43589-7.17951V436.16071a17.2799,17.2799,0,0,1,1.43589-7.17951,16.7185,16.7185,0,0,1,3.89743-5.74359,18.9428,18.9428,0,0,1,5.7436-3.89743,19.3058,19.3058,0,0,1,14.359,0,16.71835,16.71835,0,0,1,5.74361,3.89743,18.94294,18.94294,0,0,1,3.89743,5.74359,17.28006,17.28006,0,0,1,1.4359,7.17951v2.66665h12.10255v-2.66665a28.73042,28.73042,0,0,0-2.46153-11.89747A29.0895,29.0895,0,0,0,146.43361,414.41708Z"/><path d="M213.30553,484.36588a17.27992,17.27992,0,0,1-1.43593,7.1795,16.71891,16.71891,0,0,1-3.89743,5.74362,18.94265,18.94265,0,0,1-5.74358,3.89743,16.64768,16.64768,0,0,1-7.1795,1.43591,17.28,17.28,0,0,1-7.17949-1.43591A16.71823,16.71823,0,0,1,182.126,497.289a18.94271,18.94271,0,0,1-3.89743-5.74362,17.27988,17.27988,0,0,1-1.43589-7.1795V406.00681h-12.1026v78.35907a30.43585,30.43585,0,0,0,9.02564,21.53848,32.07819,32.07819,0,0,0,9.641,6.56408,29.78172,29.78172,0,0,0,24.61544-.41027,35.87233,35.87233,0,0,0,5.53849-3.28205v5.12824h12.10257V406.00681H213.51073v78.35907Z"/><path d="M337.81848,415.03247a32.07813,32.07813,0,0,0-9.64108-6.56412,29.42815,29.42815,0,0,0-11.8974-2.46154,29.95231,29.95231,0,0,0-15.79492,4.30767,28.65658,28.65658,0,0,0-8.61542,7.7949,31.331,31.331,0,0,0-8.61542-7.7949,29.952,29.952,0,0,0-15.79492-4.30767,29.47385,29.47385,0,0,0-12.718,2.66665,24.67762,24.67762,0,0,0-5.53848,3.28205V406.8273H237.10025V514.51978h12.10257V436.571a17.28022,17.28022,0,0,1,1.43591-7.1795,16.7185,16.7185,0,0,1,3.89743-5.74359,21.85327,21.85327,0,0,1,5.74356-3.89743,19.30583,19.30583,0,0,1,14.359,0,16.71689,16.71689,0,0,1,5.74356,3.89743,18.94366,18.94366,0,0,1,3.89743,5.74359,17.2801,17.2801,0,0,1,1.43595,7.1795v78.3591h12.10257V436.571a17.28009,17.28009,0,0,1,1.43594-7.1795,18.94294,18.94294,0,0,1,3.89743-5.74359,19.94048,19.94048,0,0,1,5.9487-3.89743,18.77778,18.77778,0,0,1,14.15387,0,16.717,16.717,0,0,1,5.74356,3.89743,18.944,18.944,0,0,1,3.89743,5.74359,17.28023,17.28023,0,0,1,1.43592,7.1795v78.3591h12.10256V436.571a28.73,28.73,0,0,0-2.46157-11.89746A25.07175,25.07175,0,0,0,337.81848,415.03247Z"/><path d="M408.17758,414.41708a32.07779,32.07779,0,0,0-9.641-6.56411c-7.38464-3.28208-16.41028-3.07694-24.00006,0a28.73478,28.73478,0,0,0-9.64108,6.56411,32.08019,32.08019,0,0,0-6.56412,9.641,29.42915,29.42915,0,0,0-2.46158,11.89747v49.02572a30.43584,30.43584,0,0,0,9.0257,21.53848,32.07758,32.07758,0,0,0,9.64108,6.56412,29.42753,29.42753,0,0,0,11.89743,2.46155,30.43583,30.43583,0,0,0,21.53848-9.02563,32.08093,32.08093,0,0,0,6.56415-9.641,29.42854,29.42854,0,0,0,2.46155-11.89746V436.16071a28.73012,28.73012,0,0,0-2.46155-11.89747A29.08912,29.08912,0,0,0,408.17758,414.41708Zm-3.28207,21.74363v48.82058a17.28015,17.28015,0,0,1-1.43592,7.17951,16.71832,16.71832,0,0,1-3.89743,5.74359,18.94368,18.94368,0,0,1-5.74356,3.89746,16.64826,16.64826,0,0,1-7.1795,1.43588,17.27963,17.27963,0,0,1-7.17951-1.43588,16.71786,16.71786,0,0,1-5.74356-3.89746,18.94294,18.94294,0,0,1-3.89743-5.74359,17.2803,17.2803,0,0,1-1.43591-7.17951V436.16071a17.28023,17.28023,0,0,1,1.43591-7.17951,16.7185,16.7185,0,0,1,3.89743-5.74359,18.94311,18.94311,0,0,1,5.74356-3.89743,18.66671,18.66671,0,0,1,14.359,0,16.717,16.717,0,0,1,5.74356,3.89743,21.85367,21.85367,0,0,1,3.89743,5.74359A20.34458,20.34458,0,0,1,404.89551,436.16071Z"/><path d="M478.33151,414.41708A30.45142,30.45142,0,0,0,444.6904,407.853a28.73478,28.73478,0,0,0-9.64108,6.56411,32.08019,32.08019,0,0,0-6.56412,9.641,29.42915,29.42915,0,0,0-2.46158,11.89747,23.03265,23.03265,0,0,0,2.66663,10.87179,30.58092,30.58092,0,0,0,6.76922,8,56.10663,56.10663,0,0,0,8.8205,6.15384c3.28207,1.84616,6.359,3.48718,9.43591,4.9231,2.8718,1.43591,5.74359,3.07693,8.41028,4.51281a43.12512,43.12512,0,0,1,6.76923,4.51282,16.22521,16.22521,0,0,1,4.3077,4.9231,9.47229,9.47229,0,0,1,1.436,5.33334,17.2801,17.2801,0,0,1-1.436,7.1795,16.71867,16.71867,0,0,1-3.89743,5.74363,21.85335,21.85335,0,0,1-5.74356,3.89743,19.30583,19.30583,0,0,1-14.359,0,18.94256,18.94256,0,0,1-5.74356-3.89743,21.85387,21.85387,0,0,1-3.89743-5.74363,17.28022,17.28022,0,0,1-1.43591-7.1795v-2.66666H426.22888v2.46155a30.43578,30.43578,0,0,0,9.0257,21.53848,32.07772,32.07772,0,0,0,9.64105,6.56409,29.42753,29.42753,0,0,0,11.89743,2.46155,30.43579,30.43579,0,0,0,21.53848-9.02564,32.07984,32.07984,0,0,0,6.56415-9.641,29.4291,29.4291,0,0,0,2.46158-11.89746,23.66347,23.66347,0,0,0-2.66666-10.87182,34.071,34.071,0,0,0-6.56411-8,57.0131,57.0131,0,0,0-8.8205-6.359c-3.07694-1.641-6.359-3.48719-9.43594-4.9231h0c-2.87177-1.43591-5.74356-2.87179-8.20514-4.10257a58.2628,58.2628,0,0,1-6.97437-4.51282,19.43235,19.43235,0,0,1-4.51285-4.718,9.47235,9.47235,0,0,1-1.43591-5.33335,17.28022,17.28022,0,0,1,1.43591-7.1795,18.45353,18.45353,0,0,1,9.641-9.641,19.3058,19.3058,0,0,1,14.359,0,16.71753,16.71753,0,0,1,5.74356,3.89746,18.94279,18.94279,0,0,1,3.89744,5.74359,17.28026,17.28026,0,0,1,1.43594,7.17951v2.66665h12.10257v-2.66665a28.73,28.73,0,0,0-2.46158-11.89747A33.07524,33.07524,0,0,0,478.33151,414.41708Z"/><path d="M59.86943,388.16061H43.86937L11.45909,534.007H23.97191l9.84619-44.1026H69.9207l9.84619,44.1026H92.27971ZM36.27959,477.80178l15.38464-69.12829,15.38464,69.12829Z"/></svg>