<?xml version="1.0" encoding="UTF-8"?><svg id="Layer_1" xmlns="http://www.w3.org/2000/svg" viewBox="0 0 400 400"><defs><style>.cls-1{fill:#1439c1;}</style></defs><path class="cls-1" d="M335.49279,258.89183c-.26373-14.15382-5.94285-19.78018-20.23731-20.09668-6.11866-.14066-26.79556-.05275-31.0329-.08792-13.69667-.12309-15.78897-16.10547-15.82415-25.61752-.01757-4.04395,.03517-27.35819-.01757-32.9494-.15824-16.73844-4.64175-21.34501-20.90545-21.4505-10.95382-.07032-85.46797-.03517-97.75805-.01757h0c-3.44615,0-7.20877-1.81098-10.30328-4.99339-3.67471-3.76263-5.92527-8.89668-5.85494-13.39777,.15824-12.20218,.12308-24.59776,.07033-36.18455-.01759-3.72746,1.8989-7.91207,5.13405-11.21757,2.95384-3.0066,6.59339-4.79998,9.75823-4.79998,23.47248-.07032,167.85902,.28132,167.85902,.28132,6.20658,.08792,11.00656-1.51209,14.25931-4.76484,3.23515-3.21758,4.87033-7.92965,4.87033-14.04832,0-9.63515-.05275-35.30543,0-38.2241,.08792-6.27691-1.49451-11.11207-4.71207-14.39998-3.18241-3.25274-7.85933-4.92307-13.90767-4.92307H148.53931c-11.74503,0-18.23294,6.55824-18.23294,18.44392,0,6.99779,.12308,32.29884,.12308,36.94059,0,4.72967-2.18021,9.75823-5.87251,13.45051-3.12966,3.12966-6.92746,4.85273-10.69009,4.85273h-.14066c-11.1824-.12309-22.29446-.07032-34.61972,.01757-6.15383,.03517-10.91866,1.74067-14.13624,5.04614-3.19999,3.27032-4.79999,8.01756-4.74725,14.10108,.05275,5.1868-.01758,27.65708,.05275,33.72303,.19341,15.4725,5.34504,20.76479,20.39557,20.97577,5.78461,.07032,26.44391,0,31.01532,.05275,11.21756,.08792,18.37359,8.1758,18.65491,21.08129,.12308,5.85494-.05275,28.32522-.05275,31.64829,0,19.69226,3.95604,23.68347,23.5604,23.68347,10.51427,0,72.47459-.05275,92.95806,.07032,3.58679,0,15.2791,1.88133,15.41976,24.94941,.05275,9.16043,.03517,18.97138-.07032,30.03071-.10549,11.83294-8.96703,21.13403-20.167,21.18678H75.85373c-5.08131,.28132-8.82635,1.82858-11.6747,4.65932-3.21758,3.21755-4.87032,7.92967-4.87032,14.04831,0,6.41756-.12308,30.55819-.22857,36.07903-.1055,6.15383,1.44175,10.95384,4.64175,14.25929,3.05933,3.16481,7.41977,4.80001,12.99338,4.80001H244.67979c5.81976-.0176,10.3736-1.63515,13.48569-4.81756,3.11209-3.18241,4.67692-7.78898,4.62418-13.69669,0,0-.19341-23.26151-.03517-33.63511,.15824-11.48129,9.37141-20.94063,20.53621-21.09886,7.8945-.10549,30.11863-.0176,33.31861-.0176h.03517c6.17141,0,10.93624-1.67035,14.15382-4.94065,3.20001-3.25275,4.79998-7.98242,4.74724-14.08348-.03517-4.83516,.07032-28.13181-.05275-34.95379"/></svg>