<svg id="Layer_1" data-name="Layer 1" xmlns="http://www.w3.org/2000/svg" viewBox="0 0 467 266"><defs><style>.cls-1{fill:#fff;}.cls-2{fill:none;}</style></defs><path class="cls-1" d="M267.16245,103.09762v31.00154l33.30913-31.00154h7.38385l-25.60255,23.816,26.80587,33.82552h-7.06341L278.15869,130.7057l-10.99624,10.25393V160.739h-5.45662V103.09748Z"/><path class="cls-1" d="M314.17192,146.9742a15.58562,15.58562,0,0,0,2.44822,5.286,14.016,14.016,0,0,0,4.25326,3.8775,11.85152,11.85152,0,0,0,6.18048,1.533,12.25435,12.25435,0,0,0,8.66789-2.907,15.3055,15.3055,0,0,0,4.33394-7.75039h5.05554a20.33808,20.33808,0,0,1-5.89917,10.9801,17.5166,17.5166,0,0,1-12.15809,3.87519,19.21,19.21,0,0,1-8.46733-1.73589,15.59769,15.59769,0,0,1-5.81855-4.76272,20.73808,20.73808,0,0,1-3.33115-7.02422,32.04025,32.04025,0,0,1-1.08352-8.43506,30.35756,30.35756,0,0,1,1.08352-8.07312,21.73747,21.73747,0,0,1,3.33115-7.06341,16.71,16.71,0,0,1,5.81855-5.00478,17.82,17.82,0,0,1,8.46733-1.89725,16.3509,16.3509,0,0,1,14.24669,7.30546,22.03054,22.03054,0,0,1,3.16977,7.506,33.24448,33.24448,0,0,1,.80224,8.59873H313.40908a22.641,22.641,0,0,0,.76288,5.69176Zm25.04006-15.54a15.2644,15.2644,0,0,0-2.60729-4.72123,12.90112,12.90112,0,0,0-4.09419-3.31039,11.65113,11.65113,0,0,0-5.45662-1.25408,11.83135,11.83135,0,0,0-5.53731,1.25408,12.90112,12.90112,0,0,0-4.09419,3.31039,16.49066,16.49066,0,0,0-2.688,4.76273,23.36937,23.36937,0,0,0-1.32554,5.52808h26.80821A18.519,18.519,0,0,0,339.212,131.43424Zm44.44252,29.30485v-7.91176h-.16137a11.92974,11.92974,0,0,1-2.36753,3.71152,15.2941,15.2941,0,0,1-3.5709,2.86778A18.55935,18.55935,0,0,1,373.26,161.2232a16.69119,16.69119,0,0,1-4.5345.64548,18.29786,18.29786,0,0,1-8.22528-1.73589,16.47134,16.47134,0,0,1-5.8197-4.76272,20.44274,20.44274,0,0,1-3.45333-7.02422,32.2487,32.2487,0,0,1,0-16.87011,20.44274,20.44274,0,0,1,3.45333-7.02422,16.8853,16.8853,0,0,1,5.8197-4.80422,17.93784,17.93784,0,0,1,8.22528-1.77522,18.25063,18.25063,0,0,1,4.5345.5648,15.13349,15.13349,0,0,1,4.13346,1.73588,14.63478,14.63478,0,0,1,3.41182,2.86548,12.05562,12.05562,0,0,1,2.28685,3.95587h.16137V103.09762h5.0555v57.64154ZM355.923,146.32642a17.76872,17.76872,0,0,0,2.409,5.69406,13.27409,13.27409,0,0,0,4.21291,4.07575,11.61214,11.61214,0,0,0,6.18049,1.57452,12.957,12.957,0,0,0,11.27747-5.65027,16.833,16.833,0,0,0,2.48741-5.69406,27.36233,27.36233,0,0,0,0-12.83355,16.84036,16.84036,0,0,0-2.48741-5.69176,12.96554,12.96554,0,0,0-11.27747-5.65257,11.59291,11.59291,0,0,0-6.18049,1.57689,13.25,13.25,0,0,0-4.21291,4.07575,17.77647,17.77647,0,0,0-2.409,5.69176,27.36233,27.36233,0,0,0,0,12.83355Zm46.00551-27.24392v9.76982h.16137a15.96254,15.96254,0,0,1,5.97992-7.83337,15.58841,15.58841,0,0,1,9.6708-2.5011v5.08547a15.14765,15.14765,0,0,0-6.26117.929,13.87409,13.87409,0,0,0-8.02471,7.91176,16.08635,16.08635,0,0,0-1.125,6.09511v22.19994h-5.05568V119.0825Zm44.87477.5648a18.3129,18.3129,0,0,1,6.14122,4.765,20.657,20.657,0,0,1,3.77145,6.98035,28.888,28.888,0,0,1,0,17.03378,20.6691,20.6691,0,0,1-3.77145,6.98272,17.8595,17.8595,0,0,1-6.14129,4.72361,21.12724,21.12724,0,0,1-16.77329,0,17.81621,17.81621,0,0,1-6.14129-4.72361,20.59,20.59,0,0,1-3.77146-6.98272,28.88817,28.88817,0,0,1,0-17.03378,20.57921,20.57921,0,0,1,3.77146-6.98035,18.268,18.268,0,0,1,6.14129-4.765,20.69982,20.69982,0,0,1,16.77329,0Zm-14.7285,4.03663a13.99933,13.99933,0,0,0-4.5345,4.03664,18.33386,18.33386,0,0,0-2.72716,5.69176,23.30442,23.30442,0,0,0,0,12.99722,18.295,18.295,0,0,0,2.72716,5.68945,13.29338,13.29338,0,0,0,21.75041,0,18.3,18.3,0,0,0,2.72946-5.68945,23.30442,23.30442,0,0,0,0-12.99722,18.33749,18.33749,0,0,0-2.72946-5.69176,13.2971,13.2971,0,0,0-17.21591-4.03664Z"/><polygon class="cls-2" points="158.027 132.918 162.107 136.998 170.412 145.302 185.686 130.028 173.302 117.645 160.818 130.127 158.027 132.918"/><polygon class="cls-2" points="41.974 132.918 39.183 130.127 26.699 117.645 14.316 130.028 29.59 145.302 37.894 136.998 41.974 132.918"/><polygon class="cls-1" points="100.001 6.848 98.344 8.505 101.657 8.505 100.001 6.848"/><polygon class="cls-1" points="101.657 8.505 98.344 8.505 83.141 23.708 116.86 23.708 101.657 8.505"/><polygon class="cls-1" points="100 37.273 101.638 38.911 132.063 38.911 116.86 23.708 83.141 23.708 67.938 38.911 98.363 38.911 100 37.273"/><polygon class="cls-1" points="116.841 54.113 147.266 54.113 132.063 38.911 101.638 38.911 116.841 54.113"/><polygon class="cls-1" points="98.363 38.911 67.938 38.911 52.736 54.113 83.16 54.113 98.363 38.911"/><polygon class="cls-1" points="132.044 69.316 162.469 69.316 147.266 54.113 116.841 54.113 132.044 69.316"/><polygon class="cls-1" points="83.16 54.113 52.736 54.113 37.533 69.316 67.957 69.316 83.16 54.113"/><polygon class="cls-1" points="67.957 69.316 37.533 69.316 22.33 84.519 52.755 84.519 67.957 69.316"/><polygon class="cls-1" points="147.247 84.519 177.671 84.519 162.469 69.316 132.044 69.316 147.247 84.519"/><polygon class="cls-1" points="52.755 84.519 22.33 84.519 7.951 98.898 8.774 99.722 37.552 99.722 52.755 84.519"/><polygon class="cls-1" points="162.45 99.722 191.227 99.722 192.051 98.898 177.671 84.519 147.247 84.519 162.45 99.722"/><polygon class="cls-1" points="176.838 114.11 191.227 99.722 162.45 99.722 176.838 114.11"/><polygon class="cls-1" points="8.774 99.722 23.164 114.11 37.552 99.722 8.774 99.722"/><polygon class="cls-1" points="98.896 76.003 101.105 76.003 100.001 74.898 98.896 76.003"/><polygon class="cls-1" points="101.105 76.003 98.896 76.003 90.379 84.519 109.622 84.519 101.105 76.003"/><polygon class="cls-1" points="109.622 84.519 90.379 84.519 83.646 91.252 116.356 91.252 109.622 84.519"/><polygon class="cls-1" points="116.356 91.252 83.646 91.252 75.175 99.722 124.827 99.722 116.356 91.252"/><polygon class="cls-1" points="124.827 99.722 75.175 99.722 68.395 106.5 131.606 106.5 124.827 99.722"/><polygon class="cls-1" points="131.606 106.5 68.395 106.5 59.97 114.924 140.031 114.924 131.606 106.5"/><polygon class="cls-1" points="140.031 114.924 59.97 114.924 53.145 121.749 146.857 121.749 140.031 114.924"/><polygon class="cls-1" points="37.894 136.998 46.055 136.998 41.974 132.918 37.894 136.998"/><polygon class="cls-1" points="162.107 136.998 158.027 132.918 153.947 136.998 162.107 136.998"/><polygon class="cls-1" points="146.857 121.749 53.145 121.749 44.766 130.127 155.236 130.127 146.857 121.749"/><polygon class="cls-1" points="158.027 132.918 155.236 130.127 44.766 130.127 41.974 132.918 46.055 136.998 153.947 136.998 158.027 132.918"/><polygon class="cls-1" points="26.054 148.837 22.644 152.247 29.464 152.247 26.054 148.837"/><polygon class="cls-1" points="153.947 136.998 145.614 145.33 138.697 152.247 163.467 152.247 170.412 145.302 162.107 136.998 153.947 136.998"/><polygon class="cls-1" points="54.387 145.33 46.055 136.998 37.894 136.998 29.59 145.302 36.534 152.247 61.305 152.247 54.387 145.33"/><polygon class="cls-1" points="177.358 152.247 173.948 148.837 170.538 152.247 177.358 152.247"/><polygon class="cls-1" points="153.947 136.998 46.055 136.998 54.387 145.33 145.614 145.33 153.947 136.998"/><polygon class="cls-1" points="145.614 145.33 54.387 145.33 61.305 152.247 138.697 152.247 145.614 145.33"/><polygon class="cls-1" points="170.538 152.247 155.289 167.496 191.493 167.496 192.051 166.938 177.358 152.247 170.538 152.247"/><polygon class="cls-1" points="130.41 160.533 123.446 167.496 148.219 167.496 163.467 152.247 138.697 152.247 130.41 160.533"/><polygon class="cls-1" points="29.464 152.247 22.644 152.247 7.951 166.938 8.508 167.496 44.713 167.496 29.464 152.247"/><polygon class="cls-1" points="76.555 167.496 69.592 160.533 61.305 152.247 36.534 152.247 51.783 167.496 76.555 167.496"/><polygon class="cls-1" points="138.697 152.247 61.305 152.247 69.592 160.533 130.41 160.533 138.697 152.247"/><polygon class="cls-1" points="130.41 160.533 69.592 160.533 76.555 167.496 123.446 167.496 130.41 160.533"/><polygon class="cls-1" points="115.205 175.736 108.196 182.744 132.97 182.744 148.219 167.496 123.446 167.496 115.205 175.736"/><polygon class="cls-1" points="84.796 175.736 76.555 167.496 51.783 167.496 67.032 182.744 91.806 182.744 84.796 175.736"/><polygon class="cls-1" points="44.713 167.496 8.508 167.496 23.757 182.744 59.961 182.744 44.713 167.496"/><polygon class="cls-1" points="140.04 182.744 176.245 182.744 191.493 167.496 155.289 167.496 140.04 182.744"/><polygon class="cls-1" points="115.205 175.736 123.446 167.496 76.555 167.496 84.796 175.736 115.205 175.736"/><polygon class="cls-1" points="91.806 182.744 108.196 182.744 115.205 175.736 84.796 175.736 91.806 182.744"/><polygon class="cls-1" points="124.791 197.993 160.996 197.993 176.245 182.744 140.04 182.744 124.791 197.993"/><polygon class="cls-1" points="100.001 190.938 91.806 182.744 67.032 182.744 82.28 197.993 117.721 197.993 132.97 182.744 108.196 182.744 100.001 190.938"/><polygon class="cls-1" points="59.961 182.744 23.757 182.744 39.006 197.993 75.21 197.993 59.961 182.744"/><polygon class="cls-1" points="100.001 190.938 108.196 182.744 91.806 182.744 100.001 190.938"/><polygon class="cls-1" points="97.529 213.242 102.472 213.242 117.721 197.993 82.28 197.993 97.529 213.242"/><polygon class="cls-1" points="75.21 197.993 39.006 197.993 54.254 213.242 90.459 213.242 75.21 197.993"/><polygon class="cls-1" points="109.542 213.242 145.747 213.242 160.996 197.993 124.791 197.993 109.542 213.242"/><polygon class="cls-1" points="100 215.714 102.472 213.242 97.529 213.242 100 215.714"/><polygon class="cls-1" points="100 222.784 90.459 213.242 54.254 213.242 69.503 228.491 130.498 228.491 145.747 213.242 109.542 213.242 100 222.784"/><polygon class="cls-1" points="84.752 243.74 115.25 243.74 130.498 228.491 69.503 228.491 84.752 243.74"/><polygon class="cls-1" points="100.001 258.988 115.25 243.74 84.752 243.74 100.001 258.988"/><polygon class="cls-1" points="173.302 117.645 185.686 130.028 170.412 145.302 173.948 148.837 192.756 130.028 176.838 114.11 176.023 114.924 173.302 117.645"/><polygon class="cls-1" points="14.316 130.028 26.699 117.645 23.979 114.924 23.164 114.11 7.246 130.028 26.054 148.837 29.59 145.302 14.316 130.028"/><polygon class="cls-1" points="100 37.273 98.363 38.911 101.638 38.911 100 37.273"/><polygon class="cls-1" points="100 44.344 109.77 54.113 116.841 54.113 101.638 38.911 98.363 38.911 83.16 54.113 90.231 54.113 100 44.344"/><polygon class="cls-1" points="124.973 69.316 132.044 69.316 116.841 54.113 109.77 54.113 124.973 69.316"/><polygon class="cls-1" points="90.231 54.113 83.16 54.113 67.957 69.316 75.028 69.316 90.231 54.113"/><polygon class="cls-1" points="75.028 69.316 67.957 69.316 52.755 84.519 59.825 84.519 75.028 69.316"/><polygon class="cls-1" points="140.176 84.519 147.247 84.519 132.044 69.316 124.973 69.316 140.176 84.519"/><polygon class="cls-1" points="52.755 84.519 37.552 99.722 44.623 99.722 59.825 84.519 52.755 84.519"/><polygon class="cls-1" points="155.379 99.722 162.45 99.722 147.247 84.519 140.176 84.519 155.379 99.722"/><polygon class="cls-1" points="29.42 114.924 44.623 99.722 37.552 99.722 23.164 114.11 23.979 114.924 29.42 114.924"/><polygon class="cls-1" points="155.379 99.722 170.582 114.924 176.023 114.924 176.838 114.11 162.45 99.722 155.379 99.722"/><polygon class="cls-1" points="23.979 114.924 26.699 117.645 29.42 114.924 23.979 114.924"/><polygon class="cls-1" points="176.023 114.924 170.582 114.924 173.302 117.645 176.023 114.924"/><polygon class="cls-1" points="36.534 152.247 29.59 145.302 26.054 148.837 29.464 152.247 36.534 152.247"/><polygon class="cls-1" points="163.467 152.247 170.538 152.247 173.948 148.837 170.412 145.302 163.467 152.247"/><polygon class="cls-1" points="36.534 152.247 29.464 152.247 44.713 167.496 51.783 167.496 36.534 152.247"/><polygon class="cls-1" points="148.219 167.496 155.289 167.496 170.538 152.247 163.467 152.247 148.219 167.496"/><polygon class="cls-1" points="132.97 182.744 140.04 182.744 155.289 167.496 148.219 167.496 132.97 182.744"/><polygon class="cls-1" points="51.783 167.496 44.713 167.496 59.961 182.744 67.032 182.744 51.783 167.496"/><polygon class="cls-1" points="117.721 197.993 124.791 197.993 140.04 182.744 132.97 182.744 117.721 197.993"/><polygon class="cls-1" points="67.032 182.744 59.961 182.744 75.21 197.993 82.28 197.993 67.032 182.744"/><polygon class="cls-1" points="82.28 197.993 75.21 197.993 90.459 213.242 97.529 213.242 82.28 197.993"/><polygon class="cls-1" points="102.472 213.242 109.542 213.242 124.791 197.993 117.721 197.993 102.472 213.242"/><polygon class="cls-1" points="100 215.714 97.529 213.242 90.459 213.242 100 222.784 109.542 213.242 102.472 213.242 100 215.714"/></svg>