<svg id="Layer_1" data-name="Layer 1" xmlns="http://www.w3.org/2000/svg" viewBox="0 0 360 360"><defs><style>.cls-1{fill:none;}.cls-2{fill:#3864ee;}</style></defs><title>nnstreamer-icon-color</title><path class="cls-1" d="M245.10339,132.0909a9.51287,9.51287,0,1,0,9.51238,9.5129A9.52388,9.52388,0,0,0,245.10339,132.0909Z"/><path class="cls-1" d="M179.5407,264.91525a9.51283,9.51283,0,1,0-9.5123-9.51283A9.52376,9.52376,0,0,0,179.5407,264.91525Z"/><circle class="cls-1" cx="48.1403" cy="179.47459" r="9.51283" transform="translate(-112.80773 86.60722) rotate(-45)"/><path class="cls-1" d="M114.01831,74.9756a9.5129,9.5129,0,1,0-9.51282-9.51282A9.5237,9.5237,0,0,0,114.01831,74.9756Z"/><path class="cls-1" d="M245.10339,75.14782A9.5129,9.5129,0,1,0,235.59,65.635,9.52355,9.52355,0,0,0,245.10339,75.14782Z"/><path class="cls-1" d="M310.75927,188.98743a9.51286,9.51286,0,1,0-9.51335-9.51282A9.52358,9.52358,0,0,0,310.75927,188.98743Z"/><path class="cls-1" d="M179.46331,94.21784a9.5129,9.5129,0,1,0,9.5123,9.513A9.52368,9.52368,0,0,0,179.46331,94.21784Z"/><path class="cls-1" d="M245.21,207.78476a9.5129,9.5129,0,1,0,9.51343,9.513A9.52365,9.52365,0,0,0,245.21,207.78476Z"/><circle class="cls-1" cx="113.74737" cy="141.60378" r="9.51289" transform="translate(-66.81316 121.90632) rotate(-45)"/><path class="cls-1" d="M245.21,283.86133a9.5129,9.5129,0,1,0,9.51343,9.5129A9.52354,9.52354,0,0,0,245.21,283.86133Z"/><path class="cls-1" d="M113.74735,226.81056a9.5129,9.5129,0,1,0-9.51283-9.51283A9.52366,9.52366,0,0,0,113.74735,226.81056Z"/><circle class="cls-1" cx="113.74737" cy="293.37423" r="9.51284" transform="matrix(0.98709, -0.16018, 0.16018, 0.98709, -45.52465, 22.00856)"/><circle class="cls-2" cx="179.91928" cy="27.74633" r="20.61783"/><circle class="cls-2" cx="310.75914" cy="103.79457" r="20.61788" transform="translate(17.6254 250.14062) rotate(-45)"/><circle class="cls-2" cx="48.19774" cy="103.79457" r="20.61788"/><circle class="cls-2" cx="48.1403" cy="255.40227" r="20.61781" transform="translate(-206.24312 202.13983) rotate(-67.49999)"/><circle class="cls-2" cx="310.75914" cy="255.40227" r="20.61781" transform="translate(-44.12421 444.76799) rotate(-67.49999)"/><circle class="cls-2" cx="179.46329" cy="331.68465" r="20.61787" transform="translate(-113.26944 93.92568) rotate(-22.50001)"/><circle class="cls-2" cx="179.54107" cy="179.71549" r="20.61789"/><path class="cls-2" d="M310.75927,194.73271a15.32008,15.32008,0,1,0-14.346-10.111l-39.41318,23.00271a15.22561,15.22561,0,0,0-23.41762-.18222l-26.66174-15.38633-2.87267,4.97669L230.7567,212.446a15.25372,15.25372,0,1,0,28.9909.22667l39.59541-23.109A15.21083,15.21083,0,0,0,310.75927,194.73271Zm0-24.771a9.51286,9.51286,0,1,1-9.51335,9.5129A9.5236,9.5236,0,0,1,310.75927,169.96171ZM245.21,226.81056a9.5129,9.5129,0,1,1,9.51343-9.51283A9.52358,9.52358,0,0,1,245.21,226.81056Z"/><path class="cls-2" d="M129.0056,293.37423a15.24345,15.24345,0,0,0-26.86583-9.878L74.49638,267.50629l-2.87719,4.9733,27.685,16.014a15.244,15.244,0,0,0,26.16057,14.638l26.69986,16.3176,2.99617-4.90269-26.91285-16.44777A15.17929,15.17929,0,0,0,129.0056,293.37423Zm-15.25825,9.5129a9.5129,9.5129,0,1,1,9.5129-9.5129A9.52365,9.52365,0,0,1,113.74735,302.88713Z"/><path class="cls-2" d="M113.74735,156.86191a15.23193,15.23193,0,0,0,11.81274-5.61586l26.273,16.34181,3.03414-4.87907-26.56652-16.52433a15.2612,15.2612,0,1,0-29.05844.13153L59.68116,169.52311a15.33632,15.33632,0,1,0,2.86839,4.97819l39.46883-23.153A15.23094,15.23094,0,0,0,113.74735,156.86191Zm0-24.771a9.51287,9.51287,0,1,1-9.51283,9.5129A9.52368,9.52368,0,0,1,113.74735,132.0909ZM48.14028,188.98743a9.51286,9.51286,0,1,1,9.5129-9.51282A9.52363,9.52363,0,0,1,48.14028,188.98743Z"/><path class="cls-2" d="M229.84476,65.635a15.24035,15.24035,0,0,0,27.29158,9.34714l24.4756,15.36219,3.05445-4.86673-24.909-15.63421A15.23733,15.23733,0,0,0,233.561,55.68463l-26.63473-16.992L203.836,43.53572l26.85523,17.13267A15.162,15.162,0,0,0,229.84476,65.635Zm15.25863-9.513A9.5129,9.5129,0,1,1,235.59,65.635,9.52363,9.52363,0,0,1,245.10339,56.122Z"/><path class="cls-2" d="M245.10339,126.34562a15.22782,15.22782,0,0,0-11.68827,5.4683l-39.2418-23.625-.2878.47808a15.28606,15.28606,0,1,0-2.49478,4.55193l39.22773,23.61646a15.26486,15.26486,0,1,0,29.27014,1.06911l27.88833-15.37978-2.77394-5.03054-27.54584,15.191A15.23379,15.23379,0,0,0,245.10339,126.34562Zm-65.64008-13.102a9.5129,9.5129,0,1,1,9.5123-9.51283A9.52366,9.52366,0,0,1,179.46331,113.24364Zm65.64008,37.873a9.51287,9.51287,0,1,1,9.51238-9.51283A9.52387,9.52387,0,0,1,245.10339,151.11663Z"/><path class="cls-2" d="M75.495,91.57416l27.14387-15.9824a15.23387,15.23387,0,0,0,25.85193-14.92992l26.28059-15.343-2.89629-4.9621-26.1917,15.2912A15.23359,15.23359,0,0,0,99.69124,70.66L72.57971,86.62334ZM114.01831,55.9498a9.5129,9.5129,0,1,1-9.51282,9.513A9.52374,9.52374,0,0,1,114.01831,55.9498Z"/><path class="cls-2" d="M282.209,268.3558l-25.64782,14.85764a15.22844,15.22844,0,0,0-25.74642,15.17079L203.12452,314.5157l2.89283,4.96427,27.679-16.12484a15.22959,15.22959,0,0,0,25.82659-15.2184l25.56532-14.80988ZM245.21,302.88713a9.5129,9.5129,0,1,1,9.51343-9.5129A9.52358,9.52358,0,0,1,245.21,302.88713Z"/><path class="cls-2" d="M74.5385,243.606l27.5-16.54163a15.21378,15.21378,0,0,0,23.88065-.60427l39.13335,24.18531a15.28136,15.28136,0,1,0,2.79484-5.02647L128.461,221.2772a15.25341,15.25341,0,1,0-29.20892.7592l-27.6749,16.64691Zm105.0022,2.2836a9.51283,9.51283,0,1,1-9.5123,9.51282A9.52376,9.52376,0,0,1,179.5407,245.8896Zm-65.79335-38.10484a9.5129,9.5129,0,1,1-9.51283,9.513A9.52373,9.52373,0,0,1,113.74735,207.78476Z"/></svg>