<svg id="Layer_1" data-name="Layer 1" xmlns="http://www.w3.org/2000/svg" viewBox="0 0 248.87822 183.15753"><title>lfai-stacked-black</title><polygon points="31.817 65.397 31.817 37.447 16.907 37.447 16.907 79.367 61.567 79.367 61.567 65.397 31.817 65.397"/><polygon points="91.317 9.477 16.917 9.477 16.917 30.447 31.797 30.447 31.797 23.517 76.437 23.517 76.437 65.397 69.007 65.397 69.007 79.367 91.317 79.367 91.317 9.477"/><path d="M110.97749,9.47746h22.67v51.98h32.56v17.91h-55.23Z"/><path d="M175.87749,9.47746h56.87v17.91h-34.2v8.71h29.36v16.64h-29.36v26.63h-22.67Z"/><path d="M121.23836,94.58291l30.81286,78.85329h-11.596L131.841,149.69157H98.48813L89.65272,173.4362H78.94011l30.7023-78.85329Zm7.28931,46.27326-13.14256-36.77562h-.22057L101.8014,140.85617Z"/><path d="M170.71487,94.58291V173.4362h-10.492V94.58291Z"/></svg>