<?xml version="1.0" encoding="UTF-8"?><svg id="Layer_1" xmlns="http://www.w3.org/2000/svg" viewBox="0 0 376 100"><g id="Icon-products-text"><g id="DocArray"><g id="docarra-horizontal-dark"><g id="docarray"><path id="doc" d="M146.06739,70.36525c2.56099,0,4.79734-.56587,6.70906-1.69761s3.35453-2.57784,4.32843-4.33832h0v5.5509h4.97769V29.99998h-4.97769v15.62874c-1.04604-1.72455-2.56099-3.11677-4.54485-4.17665s-4.13004-1.58982-6.43854-1.58982c-2.6692,0-5.07688,.62874-7.22306,1.88623-2.14618,1.25749-3.83246,3.02695-5.05885,5.30838-1.22639,2.28144-1.83958,4.93114-1.83958,7.9491,0,2.98204,.61319,5.64072,1.83958,7.97605,1.22639,2.33533,2.91267,4.1497,5.05885,5.44311,2.14618,1.29342,4.53583,1.94012,7.16896,1.94012Zm.9739-4.31137c-1.83958,0-3.51685-.44012-5.0318-1.32036-1.51495-.88024-2.7233-2.15569-3.62506-3.82635-.90176-1.67066-1.35263-3.63773-1.35263-5.9012,0-2.22754,.45088-4.16766,1.35263-5.82036,.90176-1.65269,2.11011-2.91018,3.62506-3.77246,1.51495-.86228,3.19221-1.29341,5.0318-1.29341s3.52586,.44012,5.05885,1.32036c1.53299,.88024,2.75035,2.14671,3.65211,3.7994,.90175,1.65269,1.35263,3.59281,1.35263,5.82036s-.45088,4.17665-1.35263,5.84731c-.90176,1.67066-2.11913,2.94611-3.65211,3.82635-1.53298,.88024-3.21927,1.32036-5.05885,1.32036Zm35.18526,4.31137c2.81348,0,5.37446-.62874,7.68296-1.88623s4.13906-3.04491,5.49169-5.36227c1.35263-2.31737,2.02895-5.00299,2.02895-8.05689s-.65829-5.73054-1.97485-8.02994c-1.31657-2.2994-3.11106-4.06886-5.38348-5.30838-2.27242-1.23952-4.81537-1.85928-7.62885-1.85928s-5.35643,.61976-7.62885,1.85928c-2.27243,1.23952-4.06692,3.01796-5.38348,5.33533-1.31656,2.31737-1.97484,4.98503-1.97484,8.00299,0,3.05389,.64024,5.73952,1.92074,8.05689,1.28049,2.31736,3.04794,4.10479,5.30232,5.36227,2.25439,1.25748,4.77029,1.88623,7.5477,1.88623Zm0-4.31137c-1.76744,0-3.3906-.40419-4.86948-1.21258s-2.66018-2.03892-3.5439-3.69162-1.32558-3.68263-1.32558-6.08982c0-2.37126,.45088-4.38323,1.35263-6.03593,.90175-1.65269,2.10109-2.88323,3.598-3.69162s3.14713-1.21257,4.95064-1.21257c1.76744,0,3.40864,.40419,4.92359,1.21257,1.51495,.80838,2.74134,2.03892,3.67916,3.69162s1.40674,3.66467,1.40674,6.03593-.47793,4.38323-1.43379,6.03593c-.95586,1.6527-2.2093,2.89222-3.76032,3.71856-1.55102,.82635-3.21025,1.23952-4.97769,1.23952Zm33.18336,4.31137c3.57095,0,6.54675-.90718,8.92738-2.72156,2.38063-1.81437,3.96772-4.23054,4.76127-7.2485h-5.30232c-.54105,1.86826-1.53299,3.30539-2.97579,4.31137-1.44281,1.00599-3.24632,1.50898-5.41054,1.50898-2.81348,0-5.0859-.97006-6.81727-2.91018-1.73138-1.94012-2.59706-4.68862-2.59706-8.24551,0-3.52096,.86568-6.24251,2.59706-8.16467,1.73137-1.92216,4.00379-2.88323,6.81727-2.88323,2.16422,0,3.97675,.52096,5.43758,1.56287,1.46085,1.04192,2.44376,2.46108,2.94875,4.25748h5.30232c-.75748-3.12575-2.31751-5.56886-4.68011-7.32934-2.36259-1.76048-5.36544-2.64072-9.00854-2.64072-2.81348,0-5.31134,.62874-7.49359,1.88623-2.18224,1.25749-3.88657,3.02695-5.11295,5.30838-1.22639,2.28144-1.83958,4.9491-1.83958,8.00299,0,3.08982,.61319,5.78443,1.83958,8.08383,1.22639,2.2994,2.93071,4.07785,5.11295,5.33533,2.18225,1.25748,4.68011,1.88623,7.49359,1.88623Z"/><path id="array" d="M245.77979,70.36525c2.23635,0,4.2112-.45808,5.92453-1.37425,1.71334-.91616,3.05695-2.07485,4.03085-3.47605h0v4.36527h7.62886v-29.85629h-7.62886v4.25748c-1.00996-1.36527-2.35358-2.49701-4.03085-3.39521-1.67726-.8982-3.63407-1.34731-5.87043-1.34731-2.56098,0-4.87849,.62874-6.95253,1.88623-2.07404,1.25748-3.71523,3.05389-4.92359,5.38922-1.20835,2.33533-1.81252,5.01198-1.81252,8.02994,0,3.05389,.60417,5.75749,1.81252,8.11078,1.20836,2.35329,2.84955,4.17665,4.92359,5.47006,2.07404,1.29342,4.37351,1.94012,6.89843,1.94012Zm2.00189-6.62874c-1.37067,0-2.66018-.35928-3.86853-1.07784-1.20835-.71856-2.18224-1.7515-2.92168-3.0988-.73944-1.34731-1.10916-2.91916-1.10916-4.71557s.36972-3.3503,1.10916-4.66168c.73944-1.31138,1.70432-2.30838,2.89463-2.99102,1.19032-.68263,2.48885-1.02395,3.89558-1.02395s2.7233,.3503,3.94969,1.0509c1.22639,.7006,2.20029,1.70659,2.92169,3.01796,.72141,1.31138,1.0821,2.88323,1.0821,4.71557s-.36069,3.40419-1.0821,4.71557c-.72141,1.31138-1.6953,2.31736-2.92169,3.01796-1.22639,.7006-2.54295,1.0509-3.94969,1.0509Zm29.4501,6.14371v-14.87425c0-2.76647,.60417-4.70659,1.81253-5.82036,1.20836-1.11377,3.00284-1.67066,5.38348-1.67066h2.00189v-7.92216c-2.01993,0-3.81442,.4491-5.38348,1.34731-1.56905,.8982-2.84053,2.13772-3.81442,3.71856h0v-4.63473h-7.57475v29.85629h7.57475Zm20.73914,0v-14.87425c0-2.76647,.60417-4.70659,1.81253-5.82036,1.20836-1.11377,3.00284-1.67066,5.38348-1.67066h2.00189v-7.92216c-2.01993,0-3.81442,.4491-5.38348,1.34731-1.56905,.8982-2.84053,2.13772-3.81442,3.71856h0v-4.63473h-7.57475v29.85629h7.57475Zm24.85114,.48503c2.23636,0,4.21121-.45808,5.92455-1.37425,1.71333-.91616,3.05695-2.07485,4.03084-3.47605h0v4.36527h7.62886v-29.85629h-7.62886v4.25748c-1.00996-1.36527-2.35358-2.49701-4.03084-3.39521-1.67728-.8982-3.63408-1.34731-5.87044-1.34731-2.56099,0-4.87849,.62874-6.95253,1.88623-2.07404,1.25748-3.71524,3.05389-4.92358,5.38922-1.20836,2.33533-1.81253,5.01198-1.81253,8.02994,0,3.05389,.60417,5.75749,1.81253,8.11078,1.20834,2.35329,2.84955,4.17665,4.92358,5.47006,2.07404,1.29342,4.37352,1.94012,6.89842,1.94012Zm2.00191-6.62874c-1.37067,0-2.66019-.35928-3.86853-1.07784-1.20836-.71856-2.18225-1.7515-2.92169-3.0988-.73944-1.34731-1.10916-2.91916-1.10916-4.71557s.36972-3.3503,1.10916-4.66168c.73944-1.31138,1.70432-2.30838,2.89464-2.99102,1.19031-.68263,2.48885-1.02395,3.89558-1.02395s2.7233,.3503,3.94969,1.0509c1.22638,.7006,2.20027,1.70659,2.92168,3.01796,.72141,1.31138,1.08211,2.88323,1.08211,4.71557s-.3607,3.40419-1.08211,4.71557c-.72141,1.31138-1.6953,2.31736-2.92168,3.01796-1.22639,.7006-2.54295,1.0509-3.94969,1.0509Zm31.99304,20.26347l18.55814-43.97605h-8.06171l-7.84528,20.85629-7.73706-20.85629h-8.49454l12.01138,29.1018-6.49263,14.87425h8.06169Z"/></g><g id="_编组-58"><g id="_编组-57"><path id="_形状" d="M36.04651,3.87595c0,2.14064,1.73533,3.87597,3.87597,3.87597h10.07752c22.86864,0,41.49349,18.16977,42.2257,40.86045l.0167,.68896,.00566,.69865c0,23.09963-18.53869,41.86932-41.54941,42.2424l-10.77617,.00417c-2.14088,.00082-3.87597,1.73658-3.87597,3.87746,0,2.14064,1.73533,3.87597,3.87597,3.87597h10.07752c27.33809,0,49.55176-21.94028,49.9933-49.17316l.0067-.82684C100,22.66189,78.05971,.44822,50.82684,.00668L39.92248,.00174c-2.13967,0-3.875,1.73279-3.87597,3.87246v.00176ZM6.97675-.00002C3.1664-.00002,.0695,3.05455,.00115,6.84856l-.00115,.12816V96.12401c0,2.10435,1.677,3.81702,3.76748,3.87448l.10849,.00149H20.93023c2.14064,0,3.87597-1.73533,3.87597-3.87597s-1.73533-3.87597-3.87597-3.87597H7.75194V7.75192h13.17829c2.14064,0,3.87597-1.73533,3.87597-3.87597S23.07087-.00002,20.93023-.00002H6.97675Z"/></g><path id="_路径备份" d="M45.22803,25.19378l.06833,.00197c.61039,.03537,1.09447,.54156,1.09447,1.16082l.00027,19.32364-.00695-.00146c-.15436-.03299-.30616-.06484-.45541-.09556l-.4401-.08873c-.07207-.01422-.14351-.02816-.21431-.04181l-.41714-.0785c-.06825-.01251-.13586-.02474-.20283-.03669l-.39418-.06826h0l-.37886-.06143c-.06187-.00967-.1231-.01905-.18369-.02816l-.3559-.05119h0l-.34059-.04436c-.66587-.08191-1.23989-.12286-1.72205-.12286l-.23236,.00145c-4.79604,.05968-9.28411,1.9651-12.63447,5.24084l-.1855,.18368-5.86695,.00039c-.64217,0-1.16277-.5206-1.16277-1.16279V26.35657c0-.64219,.5206-1.16279,1.16279-1.16279h22.86822Z"/><path id="_路径备份-2" d="M41.27907,48.83719c2.32733,0,4.52691,.54699,6.47718,1.51943l-.87272,1.48162c-1.63026,2.76632-.70931,6.33044,2.057,7.96071,.89442,.52711,1.91367,.8051,2.95185,.8051l3.65833,.00003c.17278,.89608,.26325,1.82148,.26325,2.768,0,8.0274-6.50749,14.53488-14.53489,14.53488s-14.53488-6.50748-14.53488-14.53488,6.50749-14.53489,14.53488-14.53489Z"/><path id="_路径-73备份" d="M65.21127,34.11789l11.00333,19.7282c.16096,.2886,.24545,.61356,.24545,.944,0,1.07032-.86766,1.93798-1.93798,1.93798h-22.6297c-.34606,0-.68581-.09266-.98395-.26837-.9221-.54342-1.22909-1.73146-.68567-2.65357l11.62637-19.7282c.17469-.29642,.42514-.54099,.72562-.70858,.93476-.52136,2.11517-.18623,2.63652,.74853Z"/></g></g></g></g></svg>