<?xml version="1.0" encoding="utf-8"?>
<!-- Generator: Adobe Illustrator 28.3.0, SVG Export Plug-In . SVG Version: 6.00 Build 0)  -->
<svg version="1.1" id="Layer_1" xmlns="http://www.w3.org/2000/svg" xmlns:xlink="http://www.w3.org/1999/xlink" x="0px" y="0px"
	 width="800px" height="648.5px" viewBox="0 0 800 648.5" style="enable-background:new 0 0 800 648.5;" xml:space="preserve">
<style type="text/css">
	.st0{fill:url(#SVGID_1_);}
	.st1{fill:url(#SVGID_00000066509437814675408080000014441713183101601955_);}
	.st2{fill:url(#SVGID_00000011001711463503748730000007933217947615455404_);}
	.st3{fill:url(#SVGID_00000138543542988816784650000001746154835936930951_);}
	.st4{fill:url(#SVGID_00000026162843586660365850000005216624605100197520_);}
	.st5{fill:url(#SVGID_00000098923945163000799880000008658299632008554646_);}
	.st6{fill:url(#SVGID_00000118362151967916967080000010485665626830101421_);}
	.st7{fill:url(#SVGID_00000053522057147916128100000008199062597512770993_);}
	.st8{fill:url(#SVGID_00000042732620052458833020000014999796905070904712_);}
	.st9{fill:url(#SVGID_00000078025452579461211970000002446768937460414901_);}
	.st10{fill:url(#SVGID_00000113334273809907932690000011513214075930627751_);}
	.st11{fill:url(#SVGID_00000008862081723389202530000015105118433646363286_);}
	.st12{fill:url(#SVGID_00000037689610129262854920000009700581731060777375_);}
	.st13{fill:url(#SVGID_00000029736180172177837290000017413370883549706677_);}
	.st14{fill:url(#SVGID_00000141437874431933869840000016339277758930660773_);}
	.st15{fill:url(#SVGID_00000011002360257993658610000002163417228508723871_);}
	.st16{fill:url(#SVGID_00000177457099642922507370000016910496080446163367_);}
	.st17{fill:url(#SVGID_00000048472252218461123720000008333631312371821223_);}
	.st18{fill:url(#SVGID_00000112598803402384938930000006402914662071736472_);}
	.st19{fill:url(#SVGID_00000037664004285855932690000015426588464009960869_);}
	.st20{fill:url(#SVGID_00000005231286720274527330000000365931063137256126_);}
	.st21{fill:url(#SVGID_00000024000844237240263380000006771129018446906783_);}
	.st22{fill:url(#SVGID_00000137814383368246043650000002774671157010101646_);}
	.st23{fill:url(#SVGID_00000103951060012996399400000015985251926450293131_);}
	.st24{fill:url(#SVGID_00000052798081325613639990000011406667184264108460_);}
	.st25{fill:#FFFFFF;}
	.st26{fill:url(#SVGID_00000173844263048622938890000009729400839949745312_);}
	.st27{fill:url(#SVGID_00000102534179715827051300000010710163706137787801_);}
	.st28{fill:url(#SVGID_00000145737177505869308950000002160468758742456742_);}
</style>
<g>
	<path class="st25" d="M0,0v129.7v129.8v129.7v129.7l224.6,129.8V518.8V389.1V259.4V129.7L112.4,64.8L0,0z M147.1,285.2l19.6-19.5
		l19.6,19.5l-19.6,19.5l-19.6,19.5l-19.6,19.5L108,363.3l-19.6,19.5l-19.6-19.5l-19.6-19.5l-19.6-19.5l19.6-19.5l19.6,19.5
		l19.6,19.5l19.6-19.5l19.6-19.5L147.1,285.2z"/>
	<path class="st25" d="M287.8,0v129.7v129.8v129.7v129.7l224.6,129.8V518.8V389.1V259.4V129.7L400,64.8L287.8,0z M435.2,285.2
		l19.6-19.5l19.6,19.5l-19.6,19.5l-19.6,19.5l-19.6,19.5l-19.6,19.5l-19.6,19.5l-19.6-19.5l-19.6-19.5l-19.6-19.5l19.6-19.5
		l19.6,19.5l19.6,19.5l19.6-19.5l19.6-19.5L435.2,285.2z"/>
	<path class="st25" d="M687.6,64.8L575.3,0v129.7v129.8v129.7v129.7L800,648.5V518.8V389.1V259.4V129.7L687.6,64.8z M746.3,304.7
		l-19.6,19.5l-19.6,19.5l-19.6,19.5l-19.6,19.5l-19.6-19.5L629,343.8l-19.6-19.5l19.6-19.5l19.6,19.5l19.6,19.5l19.6-19.5l19.6-19.5
		l19.6-19.5l19.6-19.5l19.6,19.5L746.3,304.7z"/>
</g>
</svg>
