<?xml version="1.0" encoding="UTF-8"?>
<svg id="Logos" xmlns="http://www.w3.org/2000/svg" viewBox="0 0 906.6648397 54.111254">
  <defs>
    <style>
      .cls-1 {
        fill: #fff;
      }
    </style>
  </defs>
  <g>
    <path class="cls-1" d="M93.4875274,44.8680575c-3,3.918457-7.592041,5.5102539-12.4287109,5.5102539-12.9187012,0-20.8781738-10.0410156-20.8781738-22.4697266,0-16.6535645,11.7553711-23.3271484,21.5515137-23.3271484,11.2043457,0,18.184082,6,20.1433105,16.3474121h-12.9187012c-.4897461-3.1838379-3.1835938-5.4492188-6.3674316-5.4492188-9.2451172,0-8.9389648,9.7348633-8.9389648,12.7348633,0,4.1022949,1.7143555,11.265625,9.8574219,11.265625,3.1225586,0,6.3061523-1.5917969,6.9797363-4.8369141h-5.9389648v-9.3674316h17.8779297v24.0617676h-8.5102539l-.4287109-4.4694824Z"/>
    <path class="cls-1" d="M110.9975371,5.6222079h36.1843262v11.2043457h-22.7148438v5.4492188h20.6333008v10.4084473h-20.6333008v5.4489746h23.3884277v11.2043457h-36.8579102V5.6222079Z"/>
    <path class="cls-1" d="M156.0585723,5.6222079h13.7758789l12.7351074,23.3884277h.1223145V5.6222079h12.7348633V49.33754h-13.1022949l-13.4084473-23.8781738h-.1223145v23.8781738h-12.7351074V5.6222079Z"/>
    <path class="cls-1" d="M204.3642363,5.6222079h36.1845703v11.2043457h-22.7148438v5.4492188h20.6333008v10.4084473h-20.6333008v5.4489746h23.3881836v11.2043457h-36.8579102V5.6222079Z"/>
    <path class="cls-1" d="M249.3642363,5.6222079h25.6538086c7.5917969,0,14.265625,4.2246094,14.265625,12.4902344,0,4.5305176-2.081543,9.3061523-6.5512695,10.9592285,3.6738281,1.4082031,5.9389648,5.4492188,6.4287109,10.8981934,.1835938,2.0817871,.1835938,7.4697266,1.4697266,9.3676758h-13.4697266c-.6738281-2.2041016-.918457-4.4694824-1.1020508-6.7348633-.3061523-4.1633301-.7348633-8.510498-6.0615234-8.510498h-7.1635742v15.2453613h-13.4697266V5.6222079Zm13.4697266,19.1025391h7.0410156c2.5102539,0,5.9389648-.4287109,5.9389648-4.347168,0-2.755127-1.5307617-4.3469238-6.6738281-4.3469238h-6.3061523v8.6940918Z"/>
    <path class="cls-1" d="M308.7529082,5.6222079h13.1635742l15.918457,43.715332h-13.9594727l-1.8369141-6.2451172h-13.8979492l-1.9594727,6.2451172h-13.5307617l16.1025391-43.715332Zm10.5917969,28.1027832l-3.918457-13.4697266h-.1225586l-4.2246094,13.4697266h8.265625Z"/>
    <path class="cls-1" d="M348.7934356,16.8265536h-12.2456055V5.6222079h37.9604492v11.2043457h-12.2456055V49.33754h-13.4692383V16.8265536Z"/>
    <path class="cls-1" d="M381.3647246,5.6222079h13.4697266V49.33754h-13.4697266V5.6222079Z"/>
    <path class="cls-1" d="M427.2226348,49.33754h-15.0615234l-13.0415039-43.715332h13.5922852l7.1635742,26.5107422h.1225586l7.0405273-26.5107422h13.8374023l-13.6533203,43.715332Z"/>
    <path class="cls-1" d="M445.2216582,5.6222079h36.1845703v11.2043457h-22.7148438v5.4492188h20.6333008v10.4084473h-20.6333008v5.4489746h23.3881836v11.2043457h-36.8579102V5.6222079Z"/>
    <path class="cls-1" d="M512.6918731,5.6222079h13.1635742l15.918457,43.715332h-13.9594727l-1.8369141-6.2451172h-13.8979492l-1.9594727,6.2451172h-13.5307617l16.1025391-43.715332Zm10.5917969,28.1027832l-3.918457-13.4697266h-.1225586l-4.2246094,13.4697266h8.265625Z"/>
    <path class="cls-1" d="M544.7724395,5.6222079h13.4697266V49.33754h-13.4697266V5.6222079Z"/>
    <path class="cls-1" d="M610.2831817,18.8470614c-1.4692383-6.7348633-7.0410156-10.592041-13.4086914-10.592041-11.5712891,0-16.4697266,9.673584-16.4697266,19.2248535s4.8984375,19.2248535,16.4697266,19.2248535c8.0820312,0,13.2250977-6.244873,14.0209961-14.0205078h4.1635742c-1.1635742,10.7756348-7.9594727,17.5717773-18.1845703,17.5717773-13.7753906,0-20.6328125-10.7758789-20.6328125-22.776123s6.8574219-22.776123,20.6328125-22.776123c8.3271484,0,16.4086914,5.020752,17.5722656,14.1433105h-4.1635742Z"/>
    <path class="cls-1" d="M641.6298613,4.7037509c13.7143555,0,20.5717773,10.7758789,20.5717773,22.776123s-6.8574219,22.776123-20.5717773,22.776123c-13.7758789,0-20.6333008-10.7758789-20.6333008-22.776123s6.8574219-22.776123,20.6333008-22.776123Zm0,42.0009766c11.5102539,0,16.4086914-9.673584,16.4086914-19.2248535s-4.8984375-19.2248535-16.4086914-19.2248535c-11.5717773,0-16.4697266,9.673584-16.4697266,19.2248535s4.8979492,19.2248535,16.4697266,19.2248535Z"/>
    <path class="cls-1" d="M670.4662871,5.6222079h6.1225586l15.1230469,38.3273926,15.0615234-38.3273926h6.1225586V49.33754h-4.1635742V11.5611728h-.1220703l-14.9394531,37.7763672h-3.918457l-15-37.7763672h-.1225586V49.33754h-4.1635742V5.6222079Z"/>
    <path class="cls-1" d="M723.3642363,5.6222079h6.1225586l15.1230469,38.3273926,15.0615234-38.3273926h6.1225586V49.33754h-4.1635742V11.5611728h-.1220703l-14.9394531,37.7763672h-3.918457l-15-37.7763672h-.1225586V49.33754h-4.1635742V5.6222079Z"/>
    <path class="cls-1" d="M794.6913848,4.7037509c13.7143555,0,20.5717773,10.7758789,20.5717773,22.776123s-6.8574219,22.776123-20.5717773,22.776123c-13.7758789,0-20.6333008-10.7758789-20.6333008-22.776123s6.8574219-22.776123,20.6333008-22.776123Zm0,42.0009766c11.5102539,0,16.4086914-9.673584,16.4086914-19.2248535s-4.8984375-19.2248535-16.4086914-19.2248535c-11.5717773,0-16.4697266,9.673584-16.4697266,19.2248535s4.8979492,19.2248535,16.4697266,19.2248535Z"/>
    <path class="cls-1" d="M823.589334,5.6222079h4.652832l25.4702148,36.9804688h.1225586V5.6222079h4.1630859V49.33754h-4.652832l-25.4702148-36.9804688h-.1225586V49.33754h-4.1630859V5.6222079Z"/>
    <path class="cls-1" d="M870.6098418,34.9493564c-.184082,9.0002441,6.2446289,11.7553711,14.265625,11.7553711,4.5917969,0,11.5712891-2.5102539,11.5712891-8.8776855,0-4.9592285-4.8979492-6.918457-9-7.8981934l-9.7348633-2.3876953c-5.1430664-1.2858887-9.8574219-3.673584-9.8574219-10.5307617,0-4.2858887,2.7553711-12.3066406,15.0615234-12.3066406,8.6943359,0,16.1635742,4.592041,16.1635742,13.5922852h-4.1630859c-.3061523-6.6123047-5.6943359-10.0410156-11.9389648-10.0410156-5.6943359,0-10.9594727,2.2041016-10.9594727,8.6940918,0,4.1020508,3,5.8776855,6.6123047,6.673584l10.6533203,2.6325684c6.1835938,1.6533203,11.3266602,4.4084473,11.3266602,11.510498,0,3.0002441-1.2246094,12.4902344-16.7148438,12.4902344-10.347168,0-17.9389648-4.6533203-17.4492188-15.3066406h4.1635742Z"/>
  </g>
  <polygon class="cls-1" points="13.5312284 40.4375529 13.5312284 22.6875529 4.5812276 22.6875529 4.5812276 49.3375544 31.2812265 49.3375544 31.2812265 40.4375529 13.5312284 40.4375529"/>
  <polygon class="cls-1" points="48.9812272 4.9375538 4.5812276 4.9375538 4.5812276 18.237554 13.431228 18.237554 13.431228 13.8375534 40.1312287 13.8375534 40.1312287 40.4375529 35.681228 40.4375529 35.681228 49.3375544 48.9812272 49.3375544 48.9812272 4.9375538"/>
</svg>