<?xml version="1.0" encoding="UTF-8"?>
<svg id="Logos" xmlns="http://www.w3.org/2000/svg" viewBox="0 0 631.826788 117.9997622">
  <defs>
    <style>
      .cls-1 {
        fill: #fff;
      }
    </style>
  </defs>
  <g>
    <path class="cls-1" d="M156.2756905,47.4015668c-3.0161448,3.9395446-7.6328983,5.5399079-12.4955973,5.5399079-12.9882244,0-20.9905318-10.0950524-20.9905318-22.5906496,0-16.7431873,11.8186338-23.4526858,21.6674953-23.4526858,11.264643,0,18.2819415,6.0322896,20.2517138,16.4353873h-12.9882244c-.4923817-3.200972-3.2007266-5.4785443-6.4016986-5.4785443-9.2948707,0-8.9870708,9.7872524-8.9870708,12.8033972,0,4.1243718,1.7235814,11.3262521,9.9104706,11.3262521,3.139363,0,6.3400895-1.6003633,7.0172985-4.8629444h-5.970926v-9.4178434h17.9741415v24.1912584h-8.5560527l-.4310181-4.4935354Z"/>
    <path class="cls-1" d="M173.8799321,7.9445117h36.3790557v11.264643h-22.8370859v5.4785443h20.7443409v10.4644614h-20.7443409v5.4782988h23.5142949v11.264643h-37.0562647V7.9445117Z"/>
    <path class="cls-1" d="M219.1834678,7.9445117h13.8500152l12.8036427,23.5142949h.1229727V7.9445117h12.8033972V51.8951022h-13.1728062l-13.4806062-24.0066766h-.1229727v24.0066766h-12.8036427V7.9445117Z"/>
    <path class="cls-1" d="M267.7490936,7.9445117h36.3793012v11.264643h-22.8370859v5.4785443h20.7443409v10.4644614h-20.7443409v5.4782988h23.5140494v11.264643h-37.0562647V7.9445117Z"/>
    <path class="cls-1" d="M312.9912655,7.9445117h25.7918671c7.6326529,0,14.3423969,4.2473445,14.3423969,12.5574518,0,4.554899-2.092745,9.3562343-6.5865258,11.0182067,3.6935992,1.4157815,5.970926,5.4785443,6.4633077,10.9568431,.1845818,2.0929905,.1845818,7.5099256,1.477636,9.4180889h-13.5422152c-.6774544-2.2159632-.9233998-4.4935354-1.1079816-6.7711076-.3077999-4.1857355-.738818-8.5562981-6.0941441-8.5562981h-7.2021257v15.3274058h-13.5422152V7.9445117Zm13.5422152,19.2053413h7.0789076c2.5237631,0,5.970926-.4310181,5.970926-4.3705627,0-2.7699539-1.5389997-4.3703172-6.709744-4.3703172h-6.3400895v8.7408799Z"/>
    <path class="cls-1" d="M372.6995435,7.9445117h13.2344153l16.0041238,43.9505904h-14.0345969l-1.8467996-6.2787259h-13.9727424l-1.9700178,6.2787259h-13.6035789l16.1891965-43.9505904Zm10.6487977,28.2540211l-3.9395446-13.5422152h-.1232182l-4.2473445,13.5422152h8.3101073Z"/>
    <path class="cls-1" d="M412.9555529,19.2091548h-12.3115064V7.9445117h38.1647372v11.264643h-12.3115064V51.8951022h-13.5417243V19.2091548Z"/>
    <path class="cls-1" d="M445.7021276,7.9445117h13.5422152V51.8951022h-13.5422152V7.9445117Z"/>
    <path class="cls-1" d="M491.8068267,51.8951022h-15.1425785l-13.1116881-43.9505904h13.6654334l7.2021257,26.6534124h.1232182l7.0784166-26.6534124h13.9118697l-13.726797,43.9505904Z"/>
    <path class="cls-1" d="M509.9027136,7.9445117h36.3793012v11.264643h-22.8370859v5.4785443h20.7443409v10.4644614h-20.7443409v5.4782988h23.5140494v11.264643h-37.0562647V7.9445117Z"/>
    <path class="cls-1" d="M577.7360262,7.9445117h13.2344153l16.0041238,43.9505904h-14.0345969l-1.8467996-6.2787259h-13.9727424l-1.9700178,6.2787259h-13.6035789l16.1891965-43.9505904Zm10.6487977,28.2540211l-3.9395446-13.5422152h-.1232182l-4.2473445,13.5422152h8.3101073Z"/>
    <path class="cls-1" d="M609.9892373,7.9445117h13.5422152V51.8951022h-13.5422152V7.9445117Z"/>
  </g>
  <g>
    <path class="cls-1" d="M157.1374812,77.0951785c-1.4773906-6.7711076-7.0789076-10.6490431-13.4806062-10.6490431-11.634052,0-16.55836,9.7256433-16.55836,19.328314s4.924308,19.328314,16.55836,19.328314c8.1252801,0,13.2960244-6.2784805,14.096206-14.0959606h4.1857355c-1.1695907,10.8336249-8.0023074,17.6663416-18.2819415,17.6663416-13.8500152,0-20.7440955-10.8338704-20.7440955-22.898695s6.8940803-22.898695,20.7440955-22.898695c8.3714709,0,16.496751,5.0477716,17.6663416,14.2194242h-4.1857355Z"/>
    <path class="cls-1" d="M188.6528562,62.8757544c13.7884061,0,20.6824864,10.8338704,20.6824864,22.898695s-6.8940803,22.898695-20.6824864,22.898695c-13.8500152,0-20.7440955-10.8338704-20.7440955-22.898695s6.8940803-22.898695,20.7440955-22.898695Zm0,42.227009c11.5724429,0,16.496751-9.7256433,16.496751-19.328314s-4.924308-19.328314-16.496751-19.328314c-11.634052,0-16.55836,9.7256433-16.55836,19.328314s4.924308,19.328314,16.55836,19.328314Z"/>
    <path class="cls-1" d="M217.6447135,63.7991541h6.1555078l15.2041876,38.5336553,15.1425785-38.5336553h6.1555078v43.9505904h-4.1859809v-37.9796645h-.1227272l-15.0196058,37.9796645h-3.9395446l-15.0812149-37.9796645h-.1229727v37.9796645h-4.1857355V63.7991541Z"/>
    <path class="cls-1" d="M270.8270929,63.7991541h6.1555078l15.2044331,38.5336553,15.1425785-38.5336553h6.1555078v43.9505904h-4.1859809v-37.9796645h-.1227272l-15.0198513,37.9796645h-3.9395446l-15.080724-37.9796645h-.1232182v37.9796645h-4.1859809V63.7991541Z"/>
    <path class="cls-1" d="M342.5380955,62.8757544c13.7881606,0,20.6824864,10.8338704,20.6824864,22.898695s-6.8943258,22.898695-20.6824864,22.898695c-13.8500152,0-20.7443409-10.8338704-20.7443409-22.898695s6.8943258-22.898695,20.7443409-22.898695Zm0,42.227009c11.5721975,0,16.4969964-9.7256433,16.4969964-19.328314s-4.9247989-19.328314-16.4969964-19.328314c-11.634052,0-16.55836,9.7256433-16.55836,19.328314s4.924308,19.328314,16.55836,19.328314Z"/>
    <path class="cls-1" d="M371.5915619,63.7991541h4.6778717l25.6072853,37.1794828h.1232182V63.7991541h4.18549v43.9505904h-4.6778717l-25.6072853-37.1794828h-.1232182v37.1794828h-4.18549V63.7991541Z"/>
    <path class="cls-1" d="M418.8651152,93.2841296c-.1850727,9.0486799,6.278235,11.8186338,14.3423969,11.8186338,4.6165081,0,11.6335611-2.5237631,11.6335611-8.9254617,0-4.9859171-4.924308-6.9556894-9.0484344-7.9406983l-9.7872524-2.4005449c-5.1707443-1.2928088-9.9104706-3.6933537-9.9104706-10.5874341,0-4.3089536,2.7701994-12.37287,15.1425785-12.37287,8.7411254,0,16.2505601,4.6167535,16.2505601,13.6654334h-4.18549c-.3077999-6.6478895-5.7249806-10.0950524-12.0032156-10.0950524-5.7249806,0-11.0184521,2.2159632-11.0184521,8.7408799,0,4.1241264,3.0161448,5.9093169,6.6478895,6.7094985l10.7106522,2.6467358c6.2168714,1.6622178,11.3876157,4.4321718,11.3876157,11.5724429,0,3.0163903-1.2311997,12.5574518-16.8047963,12.5574518-10.4028523,0-18.0355052-4.6783626-17.5431235-15.3890148h4.1859809Z"/>
  </g>
  <g>
    <polygon class="cls-1" points="29.9956098 87.618242 29.9956098 47.6001373 9.9406997 47.6001373 9.9406997 107.6425811 70.0137169 107.6425811 70.0137169 87.618242 29.9956098 87.618242"/>
    <polygon class="cls-1" points="110.0012483 7.5514591 9.9406997 7.5514591 9.9406997 37.572681 29.9650388 37.572681 29.9650388 27.6675136 90.0074826 27.6675136 90.0074826 87.618242 80.0105998 87.618242 80.0105998 107.6425811 110.0012483 107.6425811 110.0012483 7.5514591"/>
  </g>
</svg>