<svg id="Layer_1" data-name="Layer 1" xmlns="http://www.w3.org/2000/svg" viewBox="0 0 2317 700"><defs><style>.cls-1{fill:#fff;}</style></defs><path class="cls-1" d="M863.38086,388.64453H798.72534l-16.333,46.52051H761.10327l59.92481-162.54h20.05l59.92481,162.54H879.71387Zm-58.68555-17.23437h52.71558l-26.02-74.11719h-.67578Z"/><path class="cls-1" d="M919.58887,435.165V272.625h20.27539v162.54Z"/><path class="cls-1" d="M1018.71289,435.165V272.625h98.67285v18.24756h-78.39746v55.86963h71.977v18.02246h-71.977V435.165Z"/><path class="cls-1" d="M1124.8208,402.04883c0-20.04981,15.43164-32.666,42.46533-34.24219l33.5669-1.916V356.0918c0-14.30567-9.46192-22.86621-25.68213-22.86621-15.09375,0-24.55567,7.09619-27.03369,18.585h-18.92334c1.35156-20.27442,18.69824-35.81885,46.40771-35.81885,27.48438,0,44.83057,14.86816,44.83057,38.18506V435.165H1201.8667V415.002h-.45068c-6.9834,13.4043-21.85206,22.19043-37.62159,22.19043C1140.47754,437.19238,1124.8208,423.1123,1124.8208,402.04883Zm76.03223-11.377v-9.57422l-31.314,1.915c-15.76953,1.01367-24.78125,7.99707-24.78125,19.03613,0,11.15137,9.34961,18.47265,23.42969,18.47265C1186.66016,420.52148,1200.853,407.56836,1200.853,390.67188Z"/><path class="cls-1" d="M1243.88232,284.90283a12.27784,12.27784,0,1,1,12.27784,12.27783A12.23438,12.23438,0,0,1,1243.88232,284.90283Zm2.478,33.11621H1265.96V435.165h-19.59961Z"/><path class="cls-1" d="M1292.43066,318.019h18.47266V337.168h.45068c3.83008-12.95361,14.64356-21.17627,28.38526-21.17627a50.53614,50.53614,0,0,1,7.88525.78809v19.03662a39.4397,39.4397,0,0,0-10.47558-1.12647c-15.20655,0-25.11914,10.92578-25.11914,27.48389V435.165h-19.59913Z"/><path class="cls-1" d="M1363.50732,318.019H1381.98v18.69825h.45068c6.53321-12.61573,19.03614-20.72559,37.17139-20.72559,25.68213,0,40.55078,16.5581,40.55078,43.14111V435.165h-19.59961v-72.54c0-18.92383-8.89843-29.28711-26.9209-29.28711-18.47314,0-30.52587,13.06641-30.52587,32.89063V435.165h-19.59913Z"/><path class="cls-1" d="M1582.03027,401.59766c-3.37939,20.501-23.2041,35.59472-48.77343,35.59472-33.5669,0-53.95459-23.3164-53.95459-60.14941,0-36.3833,20.72558-61.05127,53.05322-61.05127,31.65234,0,51.13916,22.97851,51.13916,58.45947v7.43555h-84.02979v1.126c0,22.415,13.17871,37.17089,34.24268,37.17089,14.86816,0,25.79443-7.54687,29.061-18.58593Zm-82.45312-35.03125h63.64209C1562.76855,346.96777,1550.49072,333,1532.01758,333,1513.65723,333,1500.81641,347.08008,1499.57715,366.56641Z"/><path class="cls-1" d="M1644.208,315.9917c25.68213,0,42.80322,15.09375,43.59179,35.81885h-18.69824c-1.46435-12.27735-10.47558-19.82422-24.89355-19.82422-14.30518,0-23.76709,7.09668-23.76709,17.34668,0,8.11035,5.96972,13.62988,19.03613,16.78418l18.58545,4.50488c23.65479,5.74512,32.21533,14.98145,32.21533,31.76465,0,20.38769-19.26123,34.80566-45.394,34.80566-27.48438,0-44.60547-13.85449-46.8584-35.81933H1617.625c2.36523,13.40429,11.37646,19.82422,27.25879,19.82422s25.68213-6.75782,25.68213-17.34571c0-8.44922-4.61817-13.292-18.02246-16.55859l-18.58594-4.50586c-22.07715-5.29395-32.77832-15.54492-32.77832-32.44043C1601.1792,330.29688,1618.86377,315.9917,1644.208,315.9917Z"/><path class="cls-1" d="M1751.55469,315.9917c25.68213,0,42.80322,15.09375,43.59179,35.81885h-18.69824c-1.46435-12.27735-10.47558-19.82422-24.89355-19.82422-14.30518,0-23.76709,7.09668-23.76709,17.34668,0,8.11035,5.96972,13.62988,19.03613,16.78418l18.58545,4.50488c23.65478,5.74512,32.21533,14.98145,32.21533,31.76465,0,20.38769-19.26123,34.80566-45.394,34.80566-27.48438,0-44.60547-13.85449-46.8584-35.81933h19.59961c2.36523,13.40429,11.37646,19.82422,27.25879,19.82422s25.68213-6.75782,25.68213-17.34571c0-8.44922-4.61817-13.292-18.02246-16.55859l-18.58594-4.50586c-22.07715-5.29395-32.77832-15.54492-32.77832-32.44043C1708.52588,330.29688,1726.21045,315.9917,1751.55469,315.9917Z"/><path class="cls-1" d="M1898.77686,342.6875h19.48681c19.374,0,32.89063-11.93994,32.89063-28.16016,0-16.10791-10.1377-27.03369-30.97608-27.03369-19.14892,0-33.34131,10.1377-34.58056,27.70947h-19.48682c2.25293-27.59716,23.65478-45.28173,54.06738-45.28173,32.55323,0,51.36426,18.69873,51.36426,41.90234,0,20.1626-14.08008,34.01758-34.46826,38.29785v.45069c23.65478,2.02734,39.76221,16.7832,39.76221,39.875,0,27.93457-24.55567,47.42089-56.43262,47.42089-33.67969,0-56.09522-18.81054-57.55957-45.73144h19.48681c1.23926,17.23437,16.44581,28.16016,38.07276,28.16016,21.40137,0,35.70654-12.166,35.81933-29.17383.1128-20.05078-14.19238-31.31446-37.05859-31.31446h-20.38769Z"/><path class="cls-1" d="M1999.25244,356.6543c0-54.74268,23.31641-86.84522,63.07861-86.84522,27.59668,0,48.88575,16.10742,53.95459,41.001h-20.61328c-4.731-14.64307-16.896-23.09131-33.56689-23.09131-27.14649,0-42.57813,24.105-43.25391,67.35937h.33789c6.646-14.64355,23.3169-26.35839,45.39405-26.35839,30.97607,0,53.95507,22.86621,53.95507,53.72949,0,32.10254-24.21777,55.53125-57.55957,55.53125C2031.0166,437.98047,1999.25244,417.14258,1999.25244,356.6543Zm98.67285,26.4707c0-21.28906-15.31933-36.60791-36.83349-36.60791s-37.39649,15.31885-37.39649,36.04541c0,20.83789,16.22022,37.39648,37.0586,37.39648A36.77926,36.77926,0,0,0,2097.92529,383.125Z"/><path class="cls-1" d="M2137.2373,353.83887c0-50.91358,22.19-83.91748,59.92481-83.91748,37.73437,0,59.69922,32.77881,59.69922,83.80517,0,51.36328-21.852,84.1416-59.69922,84.1416C2159.20215,437.86816,2137.2373,405.20312,2137.2373,353.83887Zm99.23633,0c0-39.98731-14.19287-66.12012-39.31152-66.12012-25.11914,0-39.53711,26.35791-39.53711,66.00781,0,40.54981,14.08008,66.457,39.53711,66.457C2222.50586,420.18359,2236.47363,394.38867,2236.47363,353.83887Z"/><path class="cls-1" d="M237.86816,264.75q-9.654,41.85315-19.33691,83.69958c-.54712,2.34583.07764,2.83936,2.31421,2.82471q17.76636-.11746,35.533.018c2.59521.02368,2.89282-.8219,2.34692-3.14185-3.845-16.35376-7.55932-32.738-11.33325-49.10925q-4.16931-18.08726-8.39624-36.22974C238.05615,263.31738,238.023,264.07623,237.86816,264.75Z"/><path class="cls-1" d="M87.58545,360.64832c0,135.32672,109.70386,245.0307,245.03076,245.0307,135.32666,0,245.03052-109.704,245.03052-245.0307S467.94287,115.61761,332.61621,115.61761C197.28931,115.61761,87.58545,225.32153,87.58545,360.64832ZM351.19751,243.68146a3.8382,3.8382,0,0,0,3.99536,2.53113q40.86877-.10218,81.73755-.01294a5.055,5.055,0,0,0,4.46411-2.11768,16.47729,16.47729,0,0,1,23.9624-1.59375c6.06055,5.79364,5.87476,16.365-.3938,22.35132a15.66454,15.66454,0,0,1-23.51171-1.543c-2.07666-2.65454-4.44507-2.19318-6.9458-2.20838-7.647-.04785-7.61768-.02532-5.87623,7.51185,6.07349,26.27911,12.18091,52.55029,18.10962,78.86206.68726,3.05169,1.928,3.90631,4.94287,3.85113,10.06568-.18481,20.137-.06927,30.20582-.07043,5.26342-.0011,5.29223.01184,2.89331,4.9339a56.77272,56.77272,0,0,1-32.95826,29.61364c-23.11474,8.2262-46.07226,7.69947-68.22241-3.42749-11.90307-5.97949-20.49487-15.44287-26.15234-27.554-1.19263-2.55316-1.32544-3.69678,2.1831-3.63483,10.77661.18988,21.55982-.02252,32.33741.1341,2.57128.03717,3.44677-.89014,3.98535-3.24439q9.50646-41.52108,19.21045-82.99768c.57861-2.47369.48681-3.53058-2.58472-3.50916-19.188.13184-38.37842.08057-57.56689.03321-1.6919-.00391-2.84717.28393-3.63306,2.00781a22.56218,22.56218,0,0,1-9.48193,10.7337c-1.876,1.04847-1.22046,2.66809-1.22193,4.07142q-.06189,46.555-.03174,93.11h-.01465q0,46.3776-.05615,92.754c-.00732,2.65906.68653,3.86578,3.36719,4.74121,22.04541,7.20148,44.01123,14.64569,66.044,21.8883,2.50244.82251,3.76757,1.8061,3.49389,4.637l-166.583,3.24664c.00293-6.69165.00171-6.69446,6.43238-8.8493,20.98315-7.03186,41.95239-14.10315,62.968-21.03418,2.324-.76618,3.07251-1.78076,3.06983-4.23365q-.11169-93.11-.02979-186.21942c.00049-1.97009-.45239-3.24835-2.29687-4.29675a20.27307,20.27307,0,0,1-8.46289-9.77771,3.46712,3.46712,0,0,0-3.68213-2.48383q-28.96288.10474-57.92651-.009c-2.47754-.00958-2.92994.60785-2.35523,3.06354q9.81592,41.99433,19.35815,84.05115c.57349,2.52783,1.65748,3.13794,4.082,3.10864,10.54174-.12561,21.08545-.06195,31.6289-.05237,4.26294.00391,4.334.07153,2.51807,4.0838-5.97266,13.19446-15.65015,23.03693-28.82544,28.6283-25.40747,10.78155-50.76953,10.42157-75.19556-3.18866-10.72583-5.97614-18.3645-15.11945-23.481-26.34326-1.15137-2.52668-.6648-3.25006,2.10742-3.22412,10.8977.10192,21.7976-.02314,32.69433.09179,2.30054.02423,3.30909-.623,3.83863-2.94915q9.62072-42.225,19.46411-84.3993c.50976-2.18756.20605-3.08722-2.17114-2.85516a20.45654,20.45654,0,0,1-3.90479.00452,9.87374,9.87374,0,0,0-9.17212,3.65454c-5.96313,6.64709-16.65112,6.16314-22.81836-.37464a16.37438,16.37438,0,0,1,1.03833-22.99865,15.80317,15.80317,0,0,1,22.81177,1.51941,6.0685,6.0685,0,0,0,5.35693,2.51086q40.33447-.09292,80.6709.00568c2.26074.00561,3.52539-.53125,4.62525-2.71033,4.31469-8.55072,11.35229-13.23224,21.02734-13.18433C339.936,230.36639,346.897,235.12683,351.19751,243.68146Z"/><path class="cls-1" d="M404.02832,351.28217c11.59082-.07886,23.18408-.12787,34.77344.02423,2.95654.03888,3.53637-.65235,2.8479-3.56159-4.92261-20.80939-9.67847-41.65881-14.48853-62.49469q-2.57886-11.17566-5.16211-22.35077-.37353.03552-.74707.06928Q411.43274,305.61279,401.561,348.244C400.97,350.77856,401.66357,351.29852,404.02832,351.28217Z"/><path class="cls-1" d="M475.811,88.943c-7.07935-3.63324-14.60206-6.4032-21.91822-9.57507q-.45813,1.01587-.91626,2.0318c10.97412,5.90515,22.34986,11.17413,32.85962,17.81378,106.46533,67.25977,158.64136,164.11713,146.427,289.44782-16.68847,171.24279-169.12109,280.03723-322.72461,265.332-149.105-14.2746-263.24389-138.192-267.19677-285.0528C38.14209,212.9129,158.67139,79.62988,313.78857,69.47211c9.85718-.64551,16.08692.529,14.15674,12.66241-1.105,6.9447,3,7.648,8.34351,5.145q22.72851-10.646,45.41821-21.37488c5.65357-2.678,6.41675-6.18432,1.07617-9.95776Q362.2926,41.46884,341.635,27.2276c-4.9624-3.43494-9.16895-2.75366-9.20239,3.86377-.06494,12.83038-8.2959,13.35016-18.02783,14.35858C190.69189,58.2691,100.532,120.20288,49.52,233.72186-24.761,399.023,63.28882,595.34406,235.22681,652.75092c158.98462,53.082,331.78637-30.07032,388.75586-187.06946C676.36426,321.32648,612.62476,159.15729,475.811,88.943Z"/></svg>