<?xml version="1.0" encoding="UTF-8"?>
<svg id="AW" xmlns="http://www.w3.org/2000/svg" viewBox="0 0 123.3269974 115.3331009">
  <defs>
    <style>
      .cls-1 {
        fill: #fff;
      }
    </style>
  </defs>
  <path class="cls-1" d="M52.1075524,40.0116019l8.0600595,24.8063125h26.0829006l-21.1015098,15.3311443,8.0600595,24.8063125-21.1015098-15.3311443-21.1015098,15.3311443,8.0600595-24.8063125-21.1015098-15.3311443h26.0829006l8.0600595-24.8063125Zm39.0828944,43.9254039h-17.1942241l13.9104195,10.1065113-5.3133074,16.3526789,13.9104195-10.1065113,13.9104195,10.1065113-5.3133074-16.3526789,13.9104195-10.1065113h-17.1942241l-5.3133074-16.3526789-5.3133074,16.3526789ZM22.8593161,33.2525756H6.5948459l13.1582328,9.5600157-5.0259977,15.4684303,13.1582328-9.5600157,13.1582328,9.5600157-5.0259977-15.4684303,13.1582328-9.5600157h-16.2644702l-5.0259977-15.4684303-5.0259977,15.4684303Zm54.0456142-7.7598141h-22.4931295l18.197324,13.2211298-6.9507593,21.3922374,18.197324-13.2211298,18.197324,13.2211298-6.9507593-21.3922374,18.197324-13.2211298h-22.4931295l-6.9507593-21.3922374-6.9507593,21.3922374Z"/>
</svg>