<svg id="Layer_1" data-name="Layer 1" xmlns="http://www.w3.org/2000/svg" viewBox="0 0 300 300"><path d="M1.249,188.41844c.43152-1.04968.78115-2.1425,1.30878-3.14151a11.19979,11.19979,0,0,1,10.59155-6.43328c5.009.05644,8.58054,2.59313,10.63177,7.13.53641,1.18646.8169,2.04077,2.49463,2.03466,21.92787-.0799,43.85609-.05946,65.78423-.06788.2422-.00009.48439-.04862,1.3657-.143-5.09579-3.07152-9.41937-6.33942-12.82016-10.59989.30532-.7598.8786-.452,1.31206-.45251,12.61265-.01578,25.22542.0101,37.83783-.04795a2.50427,2.50427,0,0,1,2.83415,1.90444,11.73973,11.73973,0,0,0,11.77515,7.31543,11.96654,11.96654,0,0,0,10.60771-9.27,11.6338,11.6338,0,0,0-5.43671-12.49732c-6.28322-3.94959-14.03459-1.47253-16.93306,5.57506a2.51882,2.51882,0,0,1-2.839,1.876q-20.52636-.089-41.05315.00589c-1.61989.00857-2.67415-.35332-3.22944-1.90675a11.74155,11.74155,0,0,1-.74424-1.5517c-.74328-3.97258-3.41121-4.66761-6.856-4.12261a4.86649,4.86649,0,0,1-1.23175.05863c-3.99056-.40109-6.88683.24925-9.08169,4.55193-2.36667,4.63948-8.68625,5.815-13.56808,3.80013a11.66229,11.66229,0,0,1,3.0376-22.34993,11.3012,11.3012,0,0,1,11.99463,6.80029c.81265,2.10473,1.91837,2.43619,3.82824,2.35563,2.38049-.10044,4.77281.03331,7.15829.11586,1.18035.04085,1.68422-.30412,1.341-1.57806a25.35686,25.35686,0,0,1-.47129-2.92279c-.50052-3.41313-.32227-3.49141,3.22232-3.44831,6.73681.08194,13.47538.03655,20.21312.01589,2.32657-.00713,4.13267.00129,5.3435,2.90727,2.11419,5.074,9.564,7.78886,14.28606,5.86218,5.95249-2.42873,9.33762-8.89485,7.64912-14.611a12.54369,12.54369,0,0,0-10.83315-8.482,11.76355,11.76355,0,0,0-11.40758,7.14525,2.54476,2.54476,0,0,1-2.84506,1.93093q-11.97207-.10944-23.94549.0181c-1.84591.02207-2.26028-.63611-2.03283-2.306.21616-1.58705,1.36559-3.81473.37293-4.60463-1.0811-.86027-3.29313-.3519-5.01222-.354-12.28307-.01505-24.56627.01664-36.8491-.03894-1.56426-.00707-2.43662.27978-3.08046,1.92965a11.4895,11.4895,0,0,1-13.26561,6.96708,11.68128,11.68128,0,0,1-9.10083-11.189,11.53984,11.53984,0,0,1,9.41284-11.64807,11.39231,11.39231,0,0,1,12.88189,6.81548c.72611,1.81606,1.64693,2.19486,3.42925,2.18563q20.64986-.10692,41.30048-.00516a2.75356,2.75356,0,0,0,3.0902-2.00179c2.31989-5.77947,2.39849-5.74812,8.62625-5.74815,10.88166-.00006,21.76355.03517,32.64472-.03795a2.66365,2.66365,0,0,1,3.02434,1.98837,11.58948,11.58948,0,0,0,13.28968,6.935,11.72848,11.72848,0,0,0-.44858-23.04235,11.80144,11.80144,0,0,0-12.98483,7.17483c-.35836.8457-.36876,1.86917-1.83034,1.86172-10.88129-.05539-21.763-.02447-32.64461-.02072-.88276.0003-1.76552,0-3.13192,0A44.11889,44.11889,0,0,1,93.045,110.23024c-.60429-.80925-1.40285-.44526-2.0589-.44722-8.90307-.02654-17.80667.03107-26.709-.05183a2.51044,2.51044,0,0,0-2.79435,1.9478,11.56039,11.56039,0,0,1-13.29564,6.95127A11.64671,11.64671,0,0,1,48.489,95.80115a11.34547,11.34547,0,0,1,12.87382,6.81145c.79187,2.05838,1.907,2.21452,3.66729,2.213q51.31688-.044,102.63379-.02258c.80441,0,1.60883,0,3.0466,0-13.60962,11.97706-20.55186,26.67971-20.60561,44.14189-.05375,17.45751,7.11679,31.975,20.60241,43.99587-1.37664,0-2.23559,0-3.09455,0q-70.1124-.002-140.22476-.04254c-1.93544-.0021-3.01237.319-3.81305,2.36791A11.40227,11.40227,0,0,1,12.538,202.15676a11.93879,11.93879,0,0,1-10.61776-7.97408c-.2094-.60736-.09876-1.33763-.67128-1.8106Z"/><path d="M158.706,197.77977c6.29022,0,11.945.00344,17.59967-.00353a4.45065,4.45065,0,0,1,2.22914.96439,58.06162,58.06162,0,0,0,86.27241-39.21613c6.10158-31.40759-15.71745-62.52118-47.30842-67.581a57.7645,57.7645,0,0,0-39.24155,7.26913,4.82216,4.82216,0,0,1-2.53481.79034c-5.43838-.03575-10.87713-.01726-16.9861-.01726a42.59116,42.59116,0,0,1,3.65242-3.36057c1.35235-.97408,1.58326-1.86049.9257-3.466-1.993-4.86644-3.767-9.82283-5.60462-14.75222-1.15349-3.09411-.82248-4.02438,1.96292-5.64275,2.27764-1.32334,4.57875-2.60651,6.85134-3.93834a3.4255,3.4255,0,0,1,4.9762.91067c3.50744,4.36546,7.1261,8.64233,10.59682,13.03619a2.129,2.129,0,0,0,2.88694.82941A50.75989,50.75989,0,0,1,195.224,80.88084a2.00881,2.00881,0,0,0,1.95654-2.0135c.77657-5.2059,1.67448-10.39368,2.52068-15.58927.59673-3.66383,1.30173-4.276,4.98259-4.27911,2.39064-.002,4.7839.07053,7.17122-.01821,2.46561-.09164,3.81233.84716,4.18959,3.41734.81211,5.53247,1.84177,11.03279,2.69568,16.55963.17325,1.12153.44891,1.70141,1.6995,1.91719a55.197,55.197,0,0,1,10.9426,2.96373c1.37309.54305,1.77756-.30327,2.37651-1.02649,3.41467-4.12318,6.80683-8.265,10.21906-12.39018,2.13561-2.58187,3.18353-2.75278,6.11435-1.04379,2.13365,1.24414,4.22668,2.56372,6.40483,3.72405,2.21272,1.17874,2.79271,2.7334,1.848,5.09225-2.01729,5.037-3.83748,10.15309-5.8752,15.18145a2.443,2.443,0,0,0,.86439,3.32925,50.53662,50.53662,0,0,1,7.1459,7.16275,2.162,2.162,0,0,0,2.93.73257c4.98043-1.94084,10.00733-3.76312,15.02342-5.612,3.2416-1.19483,4.1022-.87469,5.81747,2.09011,1.195,2.06558,2.39463,4.12858,3.57617,6.20186,1.54418,2.70973,1.36,3.75823-1.02234,5.70253-4.21189,3.43742-8.40144,6.90376-12.67628,10.26154a2.094,2.094,0,0,0-.85169,2.84541,43.38274,43.38274,0,0,1,2.58886,9.75591c.22894,1.71113,1.0527,2.24836,2.6614,2.48735,5.37263.79814,10.71428,1.80272,16.08274,2.6316,2.38035.3675,3.44776,1.59849,3.38762,3.99107-.06618,2.63381.00039,5.27068-.01585,7.90607-.018,2.926-.73506,3.80159-3.62454,4.27865-5.36037.885-10.71856,1.79529-16.09958,2.53619a2.31948,2.31948,0,0,0-2.33355,2.25354,48.50293,48.50293,0,0,1-2.71023,9.9802c-.53063,1.36474-.135,2.04479.9013,2.87306,4.24658,3.39431,8.43329,6.86368,12.62531,10.32565,2.28353,1.88583,2.47745,3.00545,1.02726,5.50844-1.36115,2.34927-2.772,4.67071-4.0897,7.04388-1.11775,2.0131-2.6186,2.47325-4.75363,1.63911-5.2111-2.03591-10.47286-3.94251-15.68369-5.97907a2.16782,2.16782,0,0,0-2.93416.72493,50.22919,50.22919,0,0,1-7.52094,7.48411c-1.07221.85664-1.0202,1.60825-.59658,2.71169,1.94537,5.06746,3.84156,10.1539,5.73261,15.242,1.08948,2.93144.73681,3.91793-1.918,5.46523q-3.30708,1.92748-6.64431,3.80319c-2.54764,1.4329-3.60124,1.236-5.5059-1.07833-3.40176-4.13342-6.84591-8.23523-10.12554-12.4639a2.52651,2.52651,0,0,0-3.48926-.927,44.23667,44.23667,0,0,1-9.52939,2.51971,2.3112,2.3112,0,0,0-2.29483,2.26948c-.78662,5.20471-1.6971,10.3906-2.53336,15.588-.55627,3.45726-1.29954,4.10586-4.86191,4.102-2.55554-.00277-5.11114-.01846-7.66657-.00318-2.254.01348-3.44505-.99687-3.7821-3.30783-.77143-5.28915-1.76739-10.54574-2.528-15.83621-.25638-1.78307-.92254-2.68316-2.78446-2.9419a42.46546,42.46546,0,0,1-9.51083-2.57555,2.12311,2.12311,0,0,0-2.88774.79034c-3.3853,4.252-6.881,8.41653-10.35364,12.59872-1.97958,2.38407-2.99913,2.5454-5.70349.9999-2.14439-1.22549-4.29714-2.43657-6.43433-3.6745-2.73938-1.58673-3.08441-2.524-1.98045-5.43424,1.83636-4.84079,3.623-9.70238,5.57614-14.496.7167-1.75895.82045-3.02151-.99763-4.13849A26.1396,26.1396,0,0,1,158.706,197.77977Z"/><path d="M256.69643,148.99169c-.21656,27.22471-22.20179,49.10405-49.31851,48.645a48.70965,48.70965,0,0,1-48.31771-44.77629c-2.42086-29.26425,21.01426-52.916,49.03086-52.767C235.06139,100.2369,256.90881,122.29616,256.69643,148.99169Zm-48.82264-27.29352c-13.3422-.01878-27.26218,9.81553-27.387,27.24616-.11176,15.5998,12.228,26.9451,27.21735,27.10062a27.174,27.174,0,1,0,.16969-54.34678Z"/></svg>