<?xml version="1.0" encoding="utf-8"?>
<!-- Generator: Adobe Illustrator 28.0.0, SVG Export Plug-In . SVG Version: 6.00 Build 0)  -->
<svg version="1.2" baseProfile="tiny" id="Layer_1" xmlns="http://www.w3.org/2000/svg" xmlns:xlink="http://www.w3.org/1999/xlink"
	 x="0px" y="0px" width="1286.1px" height="249.8px" viewBox="0 0 1286.1 249.8" overflow="visible" xml:space="preserve">
<g>
	<path fill="#FFFFFF" d="M0.3,153.7c-0.3,0.9-0.4,1.8-0.1,2.7c1.8,0,3.6-0.5,5.3-1.1c2-0.7,3.9-1.5,6-1.8l0.1,0.1
		c-0.1,0.4-0.2,0.8-0.1,1.3c0.1,0.3,0.4,0.5,0.6,0.4c4-0.4,7.8-1.6,11.6-2.8c7.3-2.3,14.7-4.3,22.2-6.1c8.1-1.9,16.2-3.5,24.4-4.9
		c-10.2,6.9-20.1,14.2-29.9,21.6c-0.6,0.5-1.2,1-1.9,1.4c-1.7,1.1-3.5,1.9-5.3,2.9c-1.4,0.7-2.8,1.6-4.1,2.4c-4.9,2.8-10,5.2-15,7.9
		c-1.5,0.8-3,1.4-4.5,2.2c-1.2,0.6-2.3,1.5-3,2.6c-0.2,0.4-0.4,0.8-0.6,1.2c0.8,0.3,1.6,0.2,2.4,0c0.7-0.2,1.4-0.5,2.1-0.5
		c0.2,0.1,0.2,0.2,0.3,0.4c0.2,0.7,0,1.4,0.2,2c0.1,0.2,0.1,0.4,0.4,0.4c1.1-0.1,2.1-0.3,3.1-0.7c1.1-0.4,2.1-0.9,3.3-1.1
		c1.1-0.3,2.3-0.1,3.4,0.4c1.5-0.9,3-1.8,4.5-2.7c-0.1,0.9-0.1,2,0.4,2.8c0.5,0.7,1.4,0.9,2.2,0.9c1.6-0.1,3-0.7,4.4-1.4
		c0.8-0.4,1.5-0.9,2.1-1.5c0.4,0.6,0.6,1.4,0.8,2.1c1.8,0.3,3.6-0.1,5.2-1c2.2-1.2,3.9-2.9,6.1-4.1c0.4,0.6,0.5,1.4,1.3,1.6
		c1.9-0.8,3.5-2,5.3-3c2-1.1,4.1-2.2,6.2-3.3c0.2,0.2,0.1,0.4,0.1,0.7c0,0.2,0.2,0.5,0.4,0.5c0.9,0,1.7-0.2,2.5-0.6l0,0
		c1.5-0.7,2.8-2,4.4-2.6c2.2-1,4.6-1.4,6.8-2.5c1.9,0.8,4,1.2,6.1,1.1c3.9-0.1,7.7-1.3,11.4-2.5c1.8-0.5,3.6-1.1,5.4-1.4
		c2.3-0.5,4.6-0.9,6.8-1.5c3.9-1.1,7.8-2.2,11.8-2.6c2.2-0.2,4.4-0.2,6.6,0.4c1.6,0.4,3.1,1.3,4.2,2.5c0.5,0.6,0.9,1.2,1.3,1.9
		c0.3,0.4,0.7,0.9,1.3,1c0.7,0.1,1.3-0.2,1.9-0.4c1-0.4,1.9-1,2.8-1.5c0.9-0.5,1.9-0.9,2.8-1.4c1.4-0.7,2.8-1.5,4.4-1.8
		c1-0.3,2-0.4,3-0.3c0.8,0.1,1.5,0.4,2.1,0.8c0,0.6-0.8,0.8-1.1,1.2c-0.2,0.1-0.1,0.4,0,0.5c0.1,0,0.3-0.1,0.4,0
		c0.1,0.2-0.2,0.4-0.4,0.5c0,0.2,0,0.5,0.3,0.5c0.4-0.1,0.7-0.4,1.1-0.4c0,0.4-0.2,0.7-0.5,0.9c-1,0.9-2.4,1.3-3.1,2.4
		c0.1,0.1,0.2,0.3,0.4,0.2c0.5-0.1,0.7-0.6,1.2-0.6c-0.1,0.4-0.5,0.6-0.8,0.8c-0.1,0.1-0.1,0.2-0.1,0.3c0.2,0.1,0.3,0.1,0.5,0.1
		c0.2-0.2,0.4-0.4,0.7-0.4c-0.3,0.6-0.8,1-1.4,1.4c0.1,0.2,0.3,0.2,0.5,0.2c0.4-0.1,0.7-0.4,0.9-0.7c0.1,0.3,0.1,0.7,0.4,0.8
		c0.3-0.1,0.6-0.4,0.8-0.6c-0.4,4.1-1.2,8.2-1.3,12.4c0.2,0,0.5-0.1,0.6-0.3s0.3-0.4,0.5-0.6c0.4,1.7,1,3.3,1.8,4.9
		c1,2,2.2,3.8,3.5,5.6c0.6,0.8,1.3,1.6,1.7,2.5c0.5,1.1,0.9,2.3,1.2,3.4l0,0c0.3,1,0.6,2,1,3s0.8,2,1.3,3c0.9,2.1,1.8,4.2,2.4,6.3
		c1.3,3.7,0.6,7.6,0.7,11.5c0.3,2.1-1.5,3.3-2.9,4.4c-1.9,0.1-3.8-1.3-5.6-0.4c-4.1,1.4-5.6,6.2-5.6,10.2c1.8-0.7,1.8-2.9,2.6-4.4
		c1-2.5,4-3.1,6.4-2.6c0.3,0.8,0.6,1.6,1,2.4c3,0.7,5.3-1.7,7.9-2.6c1.5,1.8,2.2,4.4,4.3,5.7c2,1,1.4,3.9,3.4,4.8
		c1.1,0.9,2.5,0.2,3.7-0.1c2.2,2.3,2.2,4,3,6.9l0.6,1.9c0-1.2,0.1-2.5,0.1-3.7c0-2.9-0.9-5.8-2.7-8.1c-0.4-0.5-0.8-1-1.1-1.5
		c-1.1-1.9-2.3-3.8-3.1-5.8c1.9,1,3.1,3.5,5.5,3.4c1.2,0.2,1.4-1.3,2.3-1.7c1,0.4,2,0.8,2.5,1.8c0.7,1,1.2,1.1,2.4,2.8
		c-0.2-1.4-0.6-2.7-1.1-3.9c-0.7-1.6-2.2-2.8-4-3.1c-1.2-0.2-2.3-0.5-3.3-1.2c-2.5-1.7-5-3.3-7.5-5.1c-2.5-1.7-3.2-5-4.3-7.6
		c-0.6-1.8-1.2-3.6-1.7-5.4c-0.7-2.2-1.3-4.5-1.8-6.8c-0.7-3.3-1.3-6.6-2.2-9.9c-0.6-2.1-0.2-4.4,0.1-6.4c0.3-2.2,0.8-4.4,0.9-6.6
		c0.1-0.9,0.1-1.8-0.1-2.7c0.1,0.1,0.3,0.3,0.4,0.2c0.2-1-0.4-1.8-0.6-2.8c0-0.3,0.3-0.5,0.6-0.5c-0.2-0.2-0.4-0.4-0.4-0.6
		c0-0.6,0.5-1,0.4-1.6c0-0.9-0.4-1.7-0.6-2.6c-0.2-0.7-0.3-1.5-0.1-2.2c0.2-0.6,0.7-1.2,1.2-1.6c0.8-0.7,1.7-1.2,2.6-1.7
		c0.7-0.4,1.4-0.9,2.2-1.2c0.4-0.2,0.9-0.2,1.4,0.1c-0.4,2.1-1.5,4-1.7,6.1c0.5-0.2,0.6-0.8,1.1-1.1c0.1,0.5-0.3,0.9-0.4,1.3
		c0,0.2,0.1,0.3,0.2,0.4c0-0.1,0.1-0.2,0.1-0.2c0.1,0.1,0.3,0.3,0.4,0.4c0.2-0.3,0.3-0.6,0.5-0.8c0,0.4,0,0.8,0,1.2
		c0.4-0.1,0.5-0.5,0.7-0.8c0.1,0.1,0.1,0.1,0.2,0.2c-0.5,0.8-1.2,1.5-1.3,2.5c0.7-0.4,1-1.2,1.6-1.7c0.1-0.1,0.2-0.1,0.4-0.2
		c0,0.1-0.1,0.3-0.2,0.4c0.3,0,0.6-0.2,0.8,0.1c-1,1.3-1.8,2.7-2.1,4.2c0.2-0.1,0.5-0.4,0.7-0.1c-0.4,0.2-0.8,0.6-0.7,1.1
		c0.3-0.1,0.5-0.4,0.8-0.5c0.2,0.2,0,0.3-0.1,0.5c-0.2,0.4-0.2,0.8-0.2,1.2c0.3-0.1,0.4-0.4,0.6-0.6c0.3,0.4-0.1,0.7-0.1,1.1
		l0.2,0.1c0.2-0.1,0.3-0.3,0.5-0.3c0.2,0.1,0.3,0.3,0.5,0.4c1.2-1.6,2.5-3,3.7-4.5c0,0.2,0,0.5,0.2,0.7c0.3-0.3,0.4-0.7,0.8-1
		c0.1-0.1,0.2-0.1,0.4-0.1c-0.2,0.3-0.4,0.6-0.4,1c0,0.2,0.2,0.4,0.3,0.2c0.5-0.4,0.8-0.9,1.2-1.4c0.1-0.1,0.3-0.2,0.4-0.1
		c-0.2,0.4-0.6,0.7-0.5,1.2c0.4,0.1,0.5-0.3,0.7-0.5c0.2,0.2,0,0.4-0.1,0.6c-0.6,1.2-1.1,2.5-1.4,3.8c0.4-0.1,0.5-0.5,0.7-0.8
		c0,0,0.1,0.1,0.2,0.1c-0.3,0.3-0.4,0.7-0.4,1.1c0.6-0.2,0.7-0.9,1.1-1.3c0.1,0.5-0.4,0.7-0.4,1.2c0.2,0.1,0.3,0,0.5-0.1
		c0.3-0.2,0.4-0.6,0.6-0.8c0,0.3-0.2,0.6-0.3,0.9c0,0.2,0.2,0.2,0.3,0.3c0.2-0.4,0.4-0.9,0.7-1.3c0.1-0.2,0.3-0.4,0.5-0.6
		c0,0.2,0,0.4-0.1,0.6c1-0.6,1.3-1.9,2.2-2.5c-0.2,4.6-1,9.2-0.3,13.8c0.2,1.4,0.6,2.8,1.3,4.1c0.7,1.5,1.7,2.9,2.7,4.2
		c0.3,0.4,0.6,0.8,1,1.1c4,3.8,8.1,7.9,11.6,12.1c1,1.1,1.7,2.5,1.2,3.9c-1.4,1.6-3.7,0.6-5.4,0.2c-2.5-0.6-4.8-2.3-7.5-1.9
		c-1.7,0.1-3.2,1.5-4.1,3.1c-0.5,1.5-0.7,2.4-0.6,3.9c1.8-0.6,1.2-3,2.9-4c1.1-0.6,2.1-0.5,3.1-0.2c0.4,0.1,0.7,0.5,0.7,1
		c0,1.4,0.5,2.8,1.7,3.7c4,0.6,8.1-0.1,12-0.5c1.6-0.2,2.5,1.4,3.9,1.7c1.6,0.3,3.3,0.4,5,0.3c0.3-0.2,0.6-0.4,0.8-0.6
		c0.8-0.7,1.9-1,2.9-0.9c0.2,0,0.4,0,0.4,0c1.2,0.1,2.5,0.6,3.7,0.1c1.5-0.8,3.1,0.4,4.7,0.1c0.7-0.6,0.9-1.4,1.2-2.2
		c1.3,1.3,2.1,2.8,3.4,4.1c0.2-2.4-0.9-4.6-2.4-6.4c-0.8-0.8,0.3-1.8,1.2-1.8c2.3-0.5,4.2,1,5.7,2.6c-0.3-2.6-2.5-4.7-5.2-4.7
		c-2.2,0.2-3.9,1.8-6,2.5c-1.4,0.6-3,0.3-4.6,0.3c-2.4-0.2-4.9,0-7.3-0.7c-1-0.7-1-2.2-2-2.9s-2.2-1.2-3.2-2.1
		c-3.7-3.3-7.2-6.9-10.6-10.5c-0.7-0.7-1-1.7-1-2.6c0-1.2,0.2-2.5,0.4-3.7c0.3-2,0.7-3.9,1-5.9c1.2-8.3,2.9-16.5,5.2-24.5
		c1.4-5.2,3.6-10.1,5.8-14.9c1.6-3.5,3-7.1,4.8-10.5c1.6-3,3.7-5.7,5.8-8.3c1.2-1.6,2.5-3.1,3.7-4.7c1.2-1.5,2.3-3.2,3.3-4.8
		c0.8-1.3,1.5-2.7,2.4-4c1.2-1.7,3-2.8,4.5-4.1c1.1-0.8,1.9-1.8,2.9-2.8c1.9-2.1,3.7-4.5,4.8-7.1c1.6-3.5,2.4-7.4,2.2-11.2
		c0-0.9-0.4-1.7-0.4-2.6c-0.1-2.2,0.9-4.3,1.2-6.5c0.4,0.1,0.5-0.4,0.6-0.7c0.2-1.2,0.1-2.4,0.1-3.7c0.5,0.3,0.4,0.9,0.7,1.3
		c0.2,0,0.2-0.5,0.4-0.5c0.2,0.2,0.2,0.5,0.4,0.7c0.3-0.5,0.2-1.1,0.1-1.7c-0.1-0.6-0.2-1.2-0.2-1.9c0.4,0.3,0.4,0.8,0.5,1.2
		c0.5-0.5,0.6-1.2,0.7-1.9c0.1-0.7,0.1-1.5,0.3-2.2c0.6,0.5,0.5,1.4,0.9,2c0.3-3.3-0.7-6.5-1.1-9.7c0-0.2-0.1-0.4,0-0.6
		c0.2-0.2,0.3,0.1,0.4,0.2c-1-5.4-1.7-11-1.4-16.5c0.5,1,0.7,2.1,0.9,3.2c0.2,0.1,0.5,0,0.5-0.2c0.1-0.5-0.2-0.9-0.1-1.4
		c0.5,0.9,0.6,1.9,0.7,2.8h0.1c0.8-4.4-0.4-8.8,0.2-13.2c0.2-1.9,0.7-3.8,1.3-5.6c0.5-1.5,1.2-3,2.2-4.3c0.6-0.8,1.3-1.5,2.1-1.9
		c0.2-0.1,0.3-0.1,0.5-0.2c4.3-1,8.8-1.3,13.2-1.6c2.5-0.2,10-0.8,10-0.8c1.7-0.2,3.4-0.5,5.1-0.8c-1.2-3-3.4-5.4-5.9-7.2
		c-2.9-2.1-6.3-3.5-9.7-4.7c-3.4-1.2-6.8-2.2-10.4-3c-1.4-0.3-2.8-0.5-4.3-0.6c-0.4,0-0.8-0.1-1.2-0.1c-0.9,0-1.7,0.2-2.6,0
		c-0.8-0.2-1.6-0.7-2.3-1.1c-3.1-1.8-6.2-3.6-9.6-4.7c-4.2-1.4-8.8-1.5-13.2-0.7c-1.8,0.4-3.5,1.1-5.1,1.9c-1.5,0.8-3,1.5-4.4,2.5
		c-1.2,0.8-2.3,1.8-3.5,2.8c-2.6,2.3-4.8,4.9-6.8,7.7c-4.1,5.7-7.2,11.9-10.7,17.9c-1.2,2-2.4,4-3.6,6c-0.7,1.2-1.2,2.6-2,3.8
		c-0.8,1.1-1.9,1.9-3,2.6c-1.2,0.9-2.5,1.7-3.6,2.6c-9.2,6.9-18.1,14.1-27.1,21.3c-1.3,1.1-2.7,2.2-4.1,3.2c-1.5,1.1-3,2.2-4.4,3.4
		c-1.2,1-2.2,2.3-3.3,3.4c-1.1,1.2-2.4,2.3-3.9,2.9c-1.6,0.7-3.4,0.8-5.2,1c-2.3,0.2-4.7,0.3-7,0.9c-3.2,1-6.1,2.8-9,4.3
		c-3.5,1.8-7.3,3-11,4.4c-3.4,1.3-6.7,2.6-10,4.1c-3,1.5-6,3.2-8.5,5.6c-1,0.9-1.8,2-2.5,3.2s-1.4,2.5-2.3,3.5
		c-0.3,0.4,0.2,0.7,0.4,1.1c-1,1-1.7,2.3-2.3,3.6c-0.6,1.3-1.1,2.6-1.9,3.8c1.6,0.9,3.5,1.4,5.3,1.8c-1.8,0.9-3.7,1.5-5.5,2.3
		c-1.7,0.7-3.4,1.6-5,2.6c-2.8,1.8-5.5,3.7-8.7,4.7c-2.1,0.7-4.2,1.1-6.3,1.7c-7.8,2.3-15.8,4.1-23.6,6.3
		c-5.1,1.5-10.2,3.1-15.1,5.3c-1.6,0.7-3.2,1.4-4.7,2.2c-1.5,0.7-2.8,1.7-4.1,2.7c-1.4,1.1-2.8,2.2-3.9,3.5
		C1.1,152.1,0.6,152.9,0.3,153.7L0.3,153.7z"/>
	<g>
		<path fill="#FFFFFF" d="M392.6,94.1c0-24.9-17.7-33.7-41.9-33.7h-37.3v119.4h15.5v-50.4H350l28.7,50.4H396l-30.3-52.1
			C381.9,123.7,392.6,112.7,392.6,94.1z M328.9,72.8h19.7c18.6,0,28.8,5.6,28.8,21.3c0,15.3-10.2,22.9-28.8,22.9h-19.7V72.8z"/>
		<path fill="#FFFFFF" d="M487.2,135.4c-1.1,9.8-1.5,15.7-2.2,27.5h-0.7c-2.2-11.8-3.3-17.7-5.8-27.5L467.2,91h-14.6L441,135.4
			c-2.4,9.8-3.6,15.7-5.8,27.5h-0.5c-0.5-11.8-1.3-17.7-2.4-27.7l-8.7-75h-17.1l18.2,119.6h18.6l11.6-48.1
			c1.8-7.3,2.9-14.2,4.2-21.5h0.5c1.1,7.3,2.5,14.2,4.4,21.5l11.6,48.1h18.9L512,60.3h-16.4L487.2,135.4z"/>
		<polygon fill="#FFFFFF" points="615,60.4 597.5,60.4 547.5,120.1 546.9,120.1 546.9,60.4 531.5,60.4 531.5,179.9 546.9,179.9 
			546.9,141.8 567.5,117.2 602.1,179.9 619.4,179.9 577.1,105.7 		"/>
		<path fill="#FFFFFF" d="M699.8,60.4l-19.1,64.4c-4,14-7.1,25.5-11.5,39.3h-0.7c-4.4-13.8-7.3-25.3-11.5-39.3l-19.1-64.4h-16.4
			l38.2,119.4h17.8l37.9-119.4H699.8z"/>
	</g>
	<g>
		<path fill="#FFFFFF" d="M758.2,111.8l-2.9-12.1h-14.9l-3,12.1h-6.6l12.9-51.4h8.6l12.6,51.4H758.2z M748.1,66.5h-0.3l-6.5,28.1
			h13.1L748.1,66.5z"/>
		<path fill="#FFFFFF" d="M792.3,111.8l-8.7-22.9h-6v22.9h-6.4V60.4h13.3c1.9,0,3.7,0.3,5.4,0.8c1.7,0.5,3.1,1.3,4.4,2.4
			c1.3,1.1,2.3,2.6,3,4.4c0.7,1.8,1.1,3.9,1.1,6.5c0,2.1-0.3,3.9-0.8,5.4c-0.5,1.5-1.2,2.9-2.1,4c-0.9,1.1-1.8,1.9-2.8,2.6
			c-1,0.6-2,1-3,1.2l9.7,24.2H792.3z M791.9,74.6c0-1.7-0.2-3.2-0.7-4.3c-0.5-1.1-1.1-2-1.9-2.7c-0.8-0.7-1.7-1.2-2.7-1.4
			c-1-0.3-2-0.4-3-0.4h-5.9v17.9h6c2.5,0,4.5-0.8,6-2.4C791.1,79.8,791.9,77.5,791.9,74.6z"/>
		<path fill="#FFFFFF" d="M830.3,111.1c-2,1.2-4.5,1.9-7.4,1.9c-2.9,0-5.4-0.7-7.7-2c-2.3-1.4-4.2-3.2-5.7-5.7
			c-1.5-2.4-2.7-5.3-3.6-8.5c-0.8-3.3-1.2-6.8-1.2-10.7c0-3.9,0.4-7.5,1.3-10.7c0.8-3.3,2.1-6.1,3.6-8.5c1.6-2.4,3.5-4.3,5.7-5.6
			c2.3-1.4,4.8-2,7.6-2c2.6,0,5,0.5,7.2,1.5c2.2,1,4,2.6,5.4,4.6l-4.1,4.4c-1.1-1.5-2.3-2.7-3.7-3.4c-1.4-0.7-2.9-1.1-4.5-1.1
			c-2,0-3.7,0.6-5.2,1.7c-1.5,1.1-2.6,2.6-3.6,4.5c-0.9,1.9-1.7,4.1-2.1,6.6c-0.5,2.5-0.7,5.2-0.7,8.1c0,2.9,0.2,5.5,0.7,8.1
			c0.5,2.5,1.2,4.7,2.2,6.6c1,1.9,2.2,3.4,3.7,4.5c1.5,1.1,3.2,1.7,5.2,1.7c1.8,0,3.4-0.5,4.8-1.5c1.4-1,2.5-2.2,3.3-3.6l3.9,4.3
			C834,108.3,832.4,109.9,830.3,111.1z"/>
		<path fill="#FFFFFF" d="M866.7,111.8V88h-17.9v23.7h-6.5V60.4h6.5v21.9h17.9V60.4h6.5v51.4H866.7z"/>
		<path fill="#FFFFFF" d="M884.6,111.8V60.4h6.5v51.4H884.6z"/>
		<path fill="#FFFFFF" d="M913.1,65.9v45.8h-6.5V65.9h-9.8v-5.6h26.1v5.6H913.1z"/>
		<path fill="#FFFFFF" d="M928.5,111.8V60.4h21.6v5.8h-15.3v16.2h14.3v5.4h-14.3v18.1h16v5.9H928.5z"/>
		<path fill="#FFFFFF" d="M982.8,111.1c-2,1.2-4.5,1.9-7.4,1.9c-2.9,0-5.4-0.7-7.7-2c-2.3-1.4-4.2-3.2-5.7-5.7
			c-1.5-2.4-2.7-5.3-3.6-8.5c-0.8-3.3-1.2-6.8-1.2-10.7c0-3.9,0.4-7.5,1.3-10.7c0.8-3.3,2.1-6.1,3.6-8.5c1.6-2.4,3.5-4.3,5.7-5.6
			c2.3-1.4,4.8-2,7.6-2c2.6,0,5,0.5,7.2,1.5c2.2,1,4,2.6,5.4,4.6l-4.1,4.4c-1.1-1.5-2.3-2.7-3.7-3.4c-1.4-0.7-2.9-1.1-4.5-1.1
			c-2,0-3.7,0.6-5.2,1.7c-1.5,1.1-2.6,2.6-3.6,4.5c-0.9,1.9-1.7,4.1-2.1,6.6c-0.5,2.5-0.7,5.2-0.7,8.1c0,2.9,0.2,5.5,0.7,8.1
			c0.5,2.5,1.2,4.7,2.2,6.6c1,1.9,2.2,3.4,3.7,4.5c1.5,1.1,3.2,1.7,5.2,1.7c1.8,0,3.4-0.5,4.8-1.5c1.4-1,2.5-2.2,3.3-3.6l3.9,4.3
			C986.5,108.3,984.8,109.9,982.8,111.1z"/>
		<path fill="#FFFFFF" d="M1004.9,65.9v45.8h-6.5V65.9h-9.8v-5.6h26.1v5.6H1004.9z"/>
		<path fill="#FFFFFF" d="M1049.4,101.4c-0.5,2.3-1.4,4.3-2.6,6c-1.2,1.7-2.8,3.1-4.8,4.1c-2,1-4.4,1.5-7.2,1.5
			c-2.9,0-5.2-0.5-7.2-1.5c-1.9-1-3.5-2.3-4.7-4.1c-1.2-1.7-2.1-3.7-2.6-6c-0.5-2.3-0.8-4.7-0.8-7.3V60.4h6.5v33.1
			c0,1.7,0.1,3.4,0.4,5c0.3,1.6,0.7,3.1,1.4,4.3c0.7,1.3,1.5,2.3,2.7,3c1.1,0.8,2.6,1.1,4.3,1.1c1.7,0,3.2-0.4,4.3-1.1
			c1.1-0.7,2-1.8,2.7-3c0.7-1.3,1.1-2.7,1.4-4.3c0.3-1.6,0.4-3.3,0.4-5V60.4h6.5v33.8C1050.2,96.7,1049.9,99.2,1049.4,101.4z"/>
		<path fill="#FFFFFF" d="M1081.8,111.8l-8.7-22.9h-6v22.9h-6.4V60.4h13.3c1.9,0,3.7,0.3,5.4,0.8c1.7,0.5,3.1,1.3,4.4,2.4
			c1.3,1.1,2.3,2.6,3,4.4c0.7,1.8,1.1,3.9,1.1,6.5c0,2.1-0.3,3.9-0.8,5.4c-0.5,1.5-1.2,2.9-2.1,4c-0.9,1.1-1.8,1.9-2.8,2.6
			c-1,0.6-2,1-3,1.2l9.7,24.2H1081.8z M1081.4,74.6c0-1.7-0.2-3.2-0.7-4.3c-0.5-1.1-1.1-2-1.9-2.7c-0.8-0.7-1.7-1.2-2.7-1.4
			c-1-0.3-2-0.4-3-0.4h-5.9v17.9h6c2.5,0,4.5-0.8,6-2.4C1080.6,79.8,1081.4,77.5,1081.4,74.6z"/>
		<path fill="#FFFFFF" d="M1096.5,111.8V60.4h21.6v5.8h-15.3v16.2h14.3v5.4h-14.3v18.1h16v5.9H1096.5z"/>
		<path fill="#FFFFFF" d="M746.6,133.2V179H740v-45.8h-9.8v-5.6h26.1v5.6H746.6z"/>
		<path fill="#FFFFFF" d="M762,179v-51.4h21.6v5.8h-15.3v16.2h14.3v5.4h-14.3v18.1h16v5.9H762z"/>
		<path fill="#FFFFFF" d="M816.3,178.3c-2,1.2-4.5,1.9-7.4,1.9c-2.9,0-5.4-0.7-7.7-2c-2.3-1.4-4.2-3.2-5.7-5.7
			c-1.5-2.4-2.7-5.3-3.6-8.5c-0.8-3.3-1.2-6.8-1.2-10.7c0-3.9,0.4-7.5,1.3-10.7c0.8-3.3,2.1-6.1,3.6-8.5c1.6-2.4,3.5-4.3,5.7-5.6
			c2.3-1.4,4.8-2,7.6-2c2.6,0,5,0.5,7.2,1.5c2.2,1,4,2.6,5.4,4.6l-4.1,4.4c-1.1-1.5-2.3-2.7-3.7-3.4c-1.4-0.7-2.9-1.1-4.5-1.1
			c-2,0-3.7,0.6-5.2,1.7c-1.5,1.1-2.6,2.6-3.6,4.5c-0.9,1.9-1.7,4.1-2.1,6.6c-0.5,2.5-0.7,5.2-0.7,8.1c0,2.9,0.2,5.5,0.7,8.1
			c0.5,2.5,1.2,4.7,2.2,6.6c1,1.9,2.2,3.4,3.7,4.5c1.5,1.1,3.2,1.7,5.2,1.7c1.8,0,3.4-0.5,4.8-1.5s2.5-2.2,3.3-3.6l3.9,4.3
			C820,175.5,818.3,177.1,816.3,178.3z"/>
		<path fill="#FFFFFF" d="M852.6,179v-23.7h-17.9V179h-6.5v-51.4h6.5v21.9h17.9v-21.9h6.5V179H852.6z"/>
		<path fill="#FFFFFF" d="M893.1,179l-16.4-39.9h-0.2V179h-6v-51.4h7.8l16.2,39.9h0.2v-39.9h6V179H893.1z"/>
		<path fill="#FFFFFF" d="M945,153.2c0,4-0.4,7.7-1.2,11c-0.8,3.3-2,6.2-3.5,8.5c-1.5,2.4-3.4,4.2-5.5,5.5c-2.2,1.3-4.6,2-7.4,2
			c-2.8,0-5.2-0.7-7.4-2c-2.2-1.3-4-3.1-5.6-5.5c-1.5-2.4-2.7-5.2-3.5-8.5c-0.8-3.3-1.2-7-1.2-11c0-4,0.4-7.7,1.2-11
			c0.8-3.3,1.9-6.1,3.4-8.5c1.5-2.3,3.4-4.2,5.6-5.4c2.2-1.3,4.7-1.9,7.5-1.9c2.8,0,5.2,0.6,7.4,1.9c2.2,1.3,4,3.1,5.5,5.4
			c1.5,2.3,2.7,5.2,3.5,8.5C944.6,145.5,945,149.2,945,153.2z M938.1,153.2c0-2.9-0.2-5.6-0.7-8.2c-0.5-2.6-1.1-4.8-2-6.7
			c-0.9-1.9-2-3.4-3.3-4.5c-1.3-1.1-2.9-1.6-4.6-1.6c-1.8,0-3.4,0.5-4.7,1.6c-1.4,1.1-2.5,2.6-3.4,4.5c-0.9,1.9-1.6,4.1-2,6.7
			c-0.4,2.6-0.7,5.3-0.7,8.2c0,2.9,0.2,5.6,0.7,8.2c0.4,2.6,1.1,4.8,2,6.7c0.9,1.9,2,3.4,3.4,4.5c1.4,1.1,2.9,1.6,4.7,1.6
			c1.7,0,3.3-0.5,4.6-1.6c1.3-1.1,2.4-2.6,3.3-4.5c0.9-1.9,1.6-4.1,2-6.7C937.9,158.8,938.1,156.1,938.1,153.2z"/>
		<path fill="#FFFFFF" d="M954.1,179v-51.4h6.5v45.3h14.5v6.1H954.1z"/>
		<path fill="#FFFFFF" d="M1012,153.2c0,4-0.4,7.7-1.2,11c-0.8,3.3-2,6.2-3.5,8.5c-1.5,2.4-3.4,4.2-5.5,5.5c-2.2,1.3-4.6,2-7.4,2
			c-2.8,0-5.2-0.7-7.4-2c-2.2-1.3-4-3.1-5.6-5.5c-1.5-2.4-2.7-5.2-3.5-8.5c-0.8-3.3-1.2-7-1.2-11c0-4,0.4-7.7,1.2-11
			c0.8-3.3,1.9-6.1,3.4-8.5c1.5-2.3,3.4-4.2,5.6-5.4c2.2-1.3,4.7-1.9,7.5-1.9c2.8,0,5.2,0.6,7.4,1.9c2.2,1.3,4,3.1,5.5,5.4
			c1.5,2.3,2.7,5.2,3.5,8.5C1011.6,145.5,1012,149.2,1012,153.2z M1005.1,153.2c0-2.9-0.2-5.6-0.7-8.2c-0.5-2.6-1.1-4.8-2-6.7
			s-2-3.4-3.3-4.5c-1.3-1.1-2.9-1.6-4.6-1.6c-1.8,0-3.4,0.5-4.7,1.6c-1.4,1.1-2.5,2.6-3.4,4.5c-0.9,1.9-1.6,4.1-2,6.7
			c-0.4,2.6-0.7,5.3-0.7,8.2c0,2.9,0.2,5.6,0.7,8.2c0.4,2.6,1.1,4.8,2,6.7c0.9,1.9,2,3.4,3.4,4.5c1.4,1.1,2.9,1.6,4.7,1.6
			c1.7,0,3.3-0.5,4.6-1.6c1.3-1.1,2.4-2.6,3.3-4.5c0.9-1.9,1.6-4.1,2-6.7C1004.8,158.8,1005.1,156.1,1005.1,153.2z"/>
		<path fill="#FFFFFF" d="M1036.9,126.3c2.8,0,5.2,0.5,7.3,1.5c2.1,1,3.9,2.6,5.3,4.6l-4.1,4.4c-1.1-1.5-2.3-2.7-3.7-3.5
			c-1.4-0.8-2.9-1.2-4.6-1.2c-2,0-3.7,0.6-5.1,1.7c-1.4,1.1-2.6,2.6-3.6,4.5c-1,1.9-1.7,4.1-2.1,6.7c-0.5,2.5-0.7,5.2-0.7,8
			c0,3,0.3,5.7,0.8,8.2c0.5,2.5,1.3,4.7,2.3,6.6c1,1.9,2.2,3.3,3.7,4.4c1.5,1.1,3.3,1.6,5.3,1.6c2.7,0,4.8-0.6,6.2-1.7v-15.9h-6.8
			v-5.7h13.1v25c-1.5,1.3-3.3,2.3-5.3,3c-2,0.7-4.5,1.1-7.4,1.1c-3,0-5.6-0.6-7.9-1.9c-2.3-1.3-4.3-3.1-5.9-5.4
			c-1.6-2.3-2.9-5.1-3.7-8.4c-0.8-3.3-1.3-6.9-1.3-11c0-3.9,0.4-7.4,1.2-10.7c0.8-3.3,2-6.1,3.6-8.5c1.5-2.4,3.4-4.3,5.7-5.6
			C1031.5,127,1034.1,126.3,1036.9,126.3z"/>
		<path fill="#FFFFFF" d="M1071.6,158.4V179h-6.5v-20.5l-12.8-30.9h7.1l9,24.2l9.2-24.2h7L1071.6,158.4z"/>
		<path fill="#FFFFFF" d="M1117.8,126.3c2.8,0,5.2,0.5,7.3,1.5c2.1,1,3.9,2.6,5.3,4.6l-4.1,4.4c-1.1-1.5-2.3-2.7-3.7-3.5
			c-1.4-0.8-2.9-1.2-4.6-1.2c-2,0-3.7,0.6-5.1,1.7c-1.4,1.1-2.6,2.6-3.6,4.5c-1,1.9-1.7,4.1-2.1,6.7c-0.5,2.5-0.7,5.2-0.7,8
			c0,3,0.3,5.7,0.8,8.2c0.5,2.5,1.3,4.7,2.3,6.6c1,1.9,2.2,3.3,3.7,4.4c1.5,1.1,3.3,1.6,5.3,1.6c2.7,0,4.8-0.6,6.2-1.7v-15.9h-6.8
			v-5.7h13.1v25c-1.5,1.3-3.3,2.3-5.3,3c-2,0.7-4.5,1.1-7.4,1.1c-3,0-5.6-0.6-7.9-1.9c-2.3-1.3-4.3-3.1-5.9-5.4
			c-1.6-2.3-2.9-5.1-3.7-8.4c-0.8-3.3-1.3-6.9-1.3-11c0-3.9,0.4-7.4,1.2-10.7c0.8-3.3,2-6.1,3.6-8.5c1.5-2.4,3.4-4.3,5.7-5.6
			C1112.4,127,1115,126.3,1117.8,126.3z"/>
		<path fill="#FFFFFF" d="M1162.2,179l-8.7-22.9h-6V179h-6.4v-51.4h13.3c1.9,0,3.7,0.3,5.4,0.8c1.7,0.5,3.1,1.3,4.4,2.4
			c1.3,1.1,2.3,2.6,3,4.4c0.7,1.8,1.1,3.9,1.1,6.5c0,2.1-0.3,3.9-0.8,5.4c-0.5,1.6-1.2,2.9-2.1,4c-0.9,1.1-1.8,1.9-2.8,2.6
			c-1,0.6-2,1-3,1.2l9.7,24.2H1162.2z M1161.8,141.8c0-1.7-0.2-3.2-0.7-4.3c-0.5-1.1-1.1-2-1.9-2.7c-0.8-0.7-1.7-1.2-2.7-1.4
			c-1-0.3-2-0.4-3-0.4h-5.9v17.9h6c2.5,0,4.5-0.8,6-2.4C1161.1,147,1161.8,144.7,1161.8,141.8z"/>
		<path fill="#FFFFFF" d="M1209.9,153.2c0,4-0.4,7.7-1.2,11c-0.8,3.3-2,6.2-3.5,8.5c-1.5,2.4-3.4,4.2-5.5,5.5c-2.2,1.3-4.6,2-7.4,2
			c-2.8,0-5.2-0.7-7.4-2c-2.2-1.3-4-3.1-5.6-5.5c-1.5-2.4-2.7-5.2-3.5-8.5c-0.8-3.3-1.2-7-1.2-11c0-4,0.4-7.7,1.2-11
			c0.8-3.3,1.9-6.1,3.4-8.5c1.5-2.3,3.4-4.2,5.6-5.4c2.2-1.3,4.7-1.9,7.5-1.9c2.8,0,5.2,0.6,7.4,1.9c2.2,1.3,4,3.1,5.5,5.4
			c1.5,2.3,2.7,5.2,3.5,8.5C1209.5,145.5,1209.9,149.2,1209.9,153.2z M1203,153.2c0-2.9-0.2-5.6-0.7-8.2c-0.5-2.6-1.1-4.8-2-6.7
			s-2-3.4-3.3-4.5c-1.3-1.1-2.9-1.6-4.6-1.6c-1.8,0-3.4,0.5-4.7,1.6c-1.4,1.1-2.5,2.6-3.4,4.5s-1.6,4.1-2,6.7
			c-0.4,2.6-0.7,5.3-0.7,8.2c0,2.9,0.2,5.6,0.7,8.2c0.4,2.6,1.1,4.8,2,6.7c0.9,1.9,2,3.4,3.4,4.5c1.4,1.1,2.9,1.6,4.7,1.6
			c1.7,0,3.3-0.5,4.6-1.6c1.3-1.1,2.4-2.6,3.3-4.5c0.9-1.9,1.6-4.1,2-6.7C1202.7,158.8,1203,156.1,1203,153.2z"/>
		<path fill="#FFFFFF" d="M1248,168.7c-0.5,2.3-1.4,4.3-2.6,6c-1.2,1.7-2.8,3.1-4.8,4.1c-2,1-4.4,1.5-7.2,1.5s-5.2-0.5-7.2-1.5
			c-1.9-1-3.5-2.3-4.7-4.1c-1.2-1.7-2.1-3.7-2.6-6c-0.5-2.3-0.8-4.7-0.8-7.3v-33.8h6.5v33.1c0,1.7,0.1,3.4,0.4,5
			c0.3,1.6,0.7,3.1,1.4,4.3c0.7,1.3,1.5,2.3,2.7,3c1.1,0.8,2.6,1.1,4.3,1.1c1.7,0,3.2-0.4,4.3-1.1c1.1-0.7,2-1.8,2.7-3
			c0.7-1.3,1.1-2.7,1.4-4.3c0.3-1.6,0.4-3.3,0.4-5v-33.1h6.5v33.8C1248.8,163.9,1248.5,166.4,1248,168.7z"/>
		<path fill="#FFFFFF" d="M1286.1,142c0,2.5-0.4,4.6-1.1,6.5c-0.7,1.9-1.7,3.4-2.9,4.7c-1.2,1.2-2.6,2.2-4.2,2.8
			c-1.6,0.6-3.2,0.9-5,0.9h-7v22h-6.5v-51.4h13c1.6,0,3.1,0.2,4.8,0.7c1.6,0.5,3.1,1.2,4.4,2.4c1.3,1.1,2.4,2.6,3.2,4.5
			C1285.7,136.9,1286.1,139.3,1286.1,142z M1279.6,142.1c0-3.1-0.7-5.4-2.2-6.8c-1.4-1.4-3.3-2.1-5.6-2.1h-5.8v18.4h5.8
			c2.3,0,4.2-0.8,5.6-2.4C1278.8,147.6,1279.6,145.2,1279.6,142.1z"/>
	</g>
</g>
</svg>
