<?xml version="1.0" encoding="utf-8"?>
<!-- Generator: Adobe Illustrator 28.3.0, SVG Export Plug-In . SVG Version: 6.00 Build 0)  -->
<svg version="1.1" id="Layer_1" xmlns="http://www.w3.org/2000/svg" xmlns:xlink="http://www.w3.org/1999/xlink" x="0px" y="0px"
	 width="800px" height="223px" viewBox="0 0 800 223" style="enable-background:new 0 0 800 223;" xml:space="preserve">
<style type="text/css">
	.st0{fill:url(#SVGID_1_);}
	.st1{fill:url(#SVGID_00000079468033721887463280000017850450022383539624_);}
	.st2{fill:url(#SVGID_00000039093496315833945940000009894714539163571586_);}
	.st3{fill:url(#SVGID_00000116924162703853802730000001822552410276373149_);}
	.st4{fill:url(#SVGID_00000183238180697280166060000003698442218555031204_);}
	.st5{fill:url(#SVGID_00000088134671250444112410000017850687504093598909_);}
	.st6{fill:url(#SVGID_00000109731016322127528710000018019593246125040773_);}
	.st7{fill:url(#SVGID_00000072997214453377620230000013548858448375954605_);}
	.st8{fill:url(#SVGID_00000132066466717975049560000009571322858119450510_);}
	.st9{fill:url(#SVGID_00000059293670102877556440000010508495660214152858_);}
	.st10{fill:url(#SVGID_00000054944152121766727250000009754183546640900021_);}
	.st11{fill:url(#SVGID_00000122699341688574722070000004079776068546039718_);}
	.st12{fill:url(#SVGID_00000023256043124728834390000013613333299927866555_);}
	.st13{fill:url(#SVGID_00000075878961499965100570000013196046194728885421_);}
	.st14{fill:url(#SVGID_00000060022887919612195040000012968817224635171481_);}
	.st15{fill:url(#SVGID_00000084495800104067551010000011582547811625311650_);}
	.st16{fill:url(#SVGID_00000105404207349080125910000016426124396001904535_);}
	.st17{fill:url(#SVGID_00000146490334776361856060000014906117474958433706_);}
	.st18{fill:url(#SVGID_00000109739530387778812340000007231851775900383415_);}
	.st19{fill:url(#SVGID_00000006703223274049473660000014531388567668401304_);}
	.st20{fill:url(#SVGID_00000066494902444396889810000000396438441940176302_);}
	.st21{fill:url(#SVGID_00000109021850410623701640000000266886212181044639_);}
	.st22{fill:url(#SVGID_00000157302761396852438050000004922193640491801525_);}
	.st23{fill:url(#SVGID_00000095303638345877413500000013380231022998501020_);}
	.st24{fill:url(#SVGID_00000168795020510785720930000012604823288179187638_);}
	.st25{fill:#FFFFFF;}
	.st26{fill:url(#SVGID_00000016071227184798857460000000931410186600647587_);}
	.st27{fill:url(#SVGID_00000085240008379927659440000014402459298163262904_);}
	.st28{fill:url(#SVGID_00000173881728872513064530000010274202045274009258_);}
</style>
<g>
	<linearGradient id="SVGID_1_" gradientUnits="userSpaceOnUse" x1="-90.2619" y1="111.1588" x2="694.0414" y2="111.1588">
		<stop  offset="0" style="stop-color:#0022B6"/>
		<stop  offset="1" style="stop-color:#04DFC7"/>
	</linearGradient>
	<path class="st0" d="M0,0v44.5v44.5v44.5v44.5l77,44.5v-44.5v-44.5V88.9V44.5L38.5,22.2L0,0z M50.4,97.8l6.7-6.7l6.7,6.7l-6.7,6.7
		l-6.7,6.7l-6.7,6.7l-6.7,6.7l-6.7,6.7l-6.7-6.7l-6.7-6.7l-6.7-6.7l6.7-6.7l6.7,6.7l6.7,6.7l6.7-6.7l6.7-6.7L50.4,97.8z"/>
	
		<linearGradient id="SVGID_00000051358207904721193410000010648861799836464818_" gradientUnits="userSpaceOnUse" x1="-90.2619" y1="111.1588" x2="694.0414" y2="111.1588">
		<stop  offset="0" style="stop-color:#0022B6"/>
		<stop  offset="1" style="stop-color:#04DFC7"/>
	</linearGradient>
	<path style="fill:url(#SVGID_00000051358207904721193410000010648861799836464818_);" d="M98.6,0v44.5v44.5v44.5v44.5l77,44.5
		v-44.5v-44.5V88.9V44.5l-38.5-22.2L98.6,0z M149.2,97.8l6.7-6.7l6.7,6.7l-6.7,6.7l-6.7,6.7l-6.7,6.7l-6.7,6.7l-6.7,6.7l-6.7-6.7
		l-6.7-6.7l-6.7-6.7l6.7-6.7l6.7,6.7l6.7,6.7l6.7-6.7l6.7-6.7L149.2,97.8z"/>
	
		<linearGradient id="SVGID_00000124136029202449487870000005695929418834123444_" gradientUnits="userSpaceOnUse" x1="-90.2619" y1="111.1588" x2="694.0414" y2="111.1588">
		<stop  offset="0" style="stop-color:#0022B6"/>
		<stop  offset="1" style="stop-color:#04DFC7"/>
	</linearGradient>
	<path style="fill:url(#SVGID_00000124136029202449487870000005695929418834123444_);" d="M197.2,0v44.5v44.5v44.5v44.5l77,44.5
		v-44.5v-44.5V88.9V44.5l-38.5-22.2L197.2,0z M249.1,97.8l6.7-6.7l6.7,6.7l-6.7,6.7l-6.7,6.7l-6.7,6.7l-6.7,6.7l-6.7,6.7l-6.7-6.7
		l-6.7-6.7l-6.7-6.7l6.7-6.7l6.7,6.7l6.7,6.7l6.7-6.7l6.7-6.7L249.1,97.8z"/>
	
		<linearGradient id="SVGID_00000129202968034664265420000004650281384163597496_" gradientUnits="userSpaceOnUse" x1="-90.2619" y1="27.4265" x2="694.0414" y2="27.4265">
		<stop  offset="0" style="stop-color:#0022B6"/>
		<stop  offset="1" style="stop-color:#04DFC7"/>
	</linearGradient>
	<polygon style="fill:url(#SVGID_00000129202968034664265420000004650281384163597496_);" points="317.2,21.4 332.3,49 347.4,21.4 
		347.4,51.8 357.8,51.8 357.8,3 347.4,3 332.3,30.6 317.2,3 306.7,3 306.7,51.8 317.2,51.8 	"/>
	
		<linearGradient id="SVGID_00000058557785197689603460000005595576739956151940_" gradientUnits="userSpaceOnUse" x1="-90.2619" y1="27.4266" x2="694.0414" y2="27.4266">
		<stop  offset="0" style="stop-color:#0022B6"/>
		<stop  offset="1" style="stop-color:#04DFC7"/>
	</linearGradient>
	<path style="fill:url(#SVGID_00000058557785197689603460000005595576739956151940_);" d="M393.3,52.7c14.1,0,25.8-11.6,25.8-25.3
		c0-13.7-11.8-25.2-25.8-25.2s-26,11.5-26,25.2C367.3,41.1,379.2,52.7,393.3,52.7z M393.3,11.7c8.2,0,15.1,7.2,15.1,15.7
		c0,8.5-7,15.8-15.1,15.8c-8.2,0-15.2-7.2-15.2-15.8C378.1,18.9,385.1,11.7,393.3,11.7z"/>
	
		<linearGradient id="SVGID_00000031923589172556913590000011796239821309213066_" gradientUnits="userSpaceOnUse" x1="-90.2619" y1="27.4265" x2="694.0414" y2="27.4265">
		<stop  offset="0" style="stop-color:#0022B6"/>
		<stop  offset="1" style="stop-color:#04DFC7"/>
	</linearGradient>
	<path style="fill:url(#SVGID_00000031923589172556913590000011796239821309213066_);" d="M474.2,27.4c0-14.3-11.6-24.3-28-24.3
		h-17.5v48.8h17.5C462.6,51.8,474.2,41.7,474.2,27.4z M439.2,12.6h8.4c9.3,0,15.9,6.2,15.9,14.8c0,8.7-6.6,14.9-15.9,14.9h-8.4V12.6
		z"/>
	
		<linearGradient id="SVGID_00000073685129732258907150000011759261404379489947_" gradientUnits="userSpaceOnUse" x1="-90.2619" y1="27.4265" x2="694.0414" y2="27.4265">
		<stop  offset="0" style="stop-color:#0022B6"/>
		<stop  offset="1" style="stop-color:#04DFC7"/>
	</linearGradient>
	<polygon style="fill:url(#SVGID_00000073685129732258907150000011759261404379489947_);" points="521.1,42.4 494.1,42.4 
		494.1,31.6 518.6,31.6 518.6,22.2 494.1,22.2 494.1,12.5 521.1,12.5 521.1,3 483.6,3 483.6,51.8 521.1,51.8 	"/>
	
		<linearGradient id="SVGID_00000079459462046481702810000011523329066026224565_" gradientUnits="userSpaceOnUse" x1="-90.2619" y1="27.4265" x2="694.0414" y2="27.4265">
		<stop  offset="0" style="stop-color:#0022B6"/>
		<stop  offset="1" style="stop-color:#04DFC7"/>
	</linearGradient>
	<polygon style="fill:url(#SVGID_00000079459462046481702810000011523329066026224565_);" points="566.1,42.4 541.8,42.4 541.8,3 
		531.3,3 531.3,51.8 566.1,51.8 	"/>
	
		<linearGradient id="SVGID_00000121977223931745199440000004325067180134678954_" gradientUnits="userSpaceOnUse" x1="-90.2619" y1="112.5999" x2="694.0414" y2="112.5999">
		<stop  offset="0" style="stop-color:#0022B6"/>
		<stop  offset="1" style="stop-color:#04DFC7"/>
	</linearGradient>
	<path style="fill:url(#SVGID_00000121977223931745199440000004325067180134678954_);" d="M329.8,87.4c-14.1,0-26,11.5-26,25.2
		c0,13.7,11.9,25.3,26,25.3c14.1,0,25.8-11.6,25.8-25.3C355.6,98.9,343.8,87.4,329.8,87.4z M329.8,128.3c-8.2,0-15.2-7.2-15.2-15.8
		c0-8.4,7-15.7,15.2-15.7c8.2,0,15.1,7.2,15.1,15.7C344.9,121.1,337.9,128.3,329.8,128.3z"/>
	
		<linearGradient id="SVGID_00000083053744303161347010000016444503630368381069_" gradientUnits="userSpaceOnUse" x1="-90.2619" y1="112.5999" x2="694.0414" y2="112.5999">
		<stop  offset="0" style="stop-color:#0022B6"/>
		<stop  offset="1" style="stop-color:#04DFC7"/>
	</linearGradient>
	<path style="fill:url(#SVGID_00000083053744303161347010000016444503630368381069_);" d="M375.6,121.2h11.4
		c10.6,0,18.4-6.8,18.4-16.5c0-9.7-7.7-16.5-18.4-16.5h-21.9V137h10.5V121.2z M375.6,97.8H386c5.2,0,8.7,2.7,8.7,6.9
		c0,4.2-3.5,6.9-8.7,6.9h-10.4V97.8z"/>
	
		<linearGradient id="SVGID_00000085951848795931917270000003492630778512539828_" gradientUnits="userSpaceOnUse" x1="-90.2619" y1="112.5999" x2="694.0414" y2="112.5999">
		<stop  offset="0" style="stop-color:#0022B6"/>
		<stop  offset="1" style="stop-color:#04DFC7"/>
	</linearGradient>
	<polygon style="fill:url(#SVGID_00000085951848795931917270000003492630778512539828_);" points="414.5,137 452,137 452,127.5 
		425,127.5 425,116.8 449.5,116.8 449.5,107.4 425,107.4 425,97.7 452,97.7 452,88.2 414.5,88.2 	"/>
	
		<linearGradient id="SVGID_00000157989298584496385340000007529826577203506846_" gradientUnits="userSpaceOnUse" x1="-90.2619" y1="112.5999" x2="694.0414" y2="112.5999">
		<stop  offset="0" style="stop-color:#0022B6"/>
		<stop  offset="1" style="stop-color:#04DFC7"/>
	</linearGradient>
	<polygon style="fill:url(#SVGID_00000157989298584496385340000007529826577203506846_);" points="472.7,88.2 462.1,88.2 462.1,137 
		472.7,137 472.7,105.5 496.1,137 506.7,137 506.7,88.2 496.1,88.2 496.1,119.7 	"/>
	
		<linearGradient id="SVGID_00000121969586069355601440000018165612082205889207_" gradientUnits="userSpaceOnUse" x1="-90.2619" y1="112.5999" x2="694.0414" y2="112.5999">
		<stop  offset="0" style="stop-color:#0022B6"/>
		<stop  offset="1" style="stop-color:#04DFC7"/>
	</linearGradient>
	<polygon style="fill:url(#SVGID_00000121969586069355601440000018165612082205889207_);" points="553,119.7 529.5,88.2 519,88.2 
		519,137 529.5,137 529.5,105.5 553,137 563.5,137 563.5,88.2 553,88.2 	"/>
	
		<linearGradient id="SVGID_00000045602400300829786400000003080896950907564700_" gradientUnits="userSpaceOnUse" x1="-90.2619" y1="112.5999" x2="694.0414" y2="112.5999">
		<stop  offset="0" style="stop-color:#0022B6"/>
		<stop  offset="1" style="stop-color:#04DFC7"/>
	</linearGradient>
	<polygon style="fill:url(#SVGID_00000045602400300829786400000003080896950907564700_);" points="613.4,127.5 586.4,127.5 
		586.4,116.8 610.9,116.8 610.9,107.4 586.4,107.4 586.4,97.7 613.4,97.7 613.4,88.2 575.9,88.2 575.9,137 613.4,137 	"/>
	
		<linearGradient id="SVGID_00000134229423105501151490000011044356585688695194_" gradientUnits="userSpaceOnUse" x1="-90.2619" y1="112.5999" x2="694.0414" y2="112.5999">
		<stop  offset="0" style="stop-color:#0022B6"/>
		<stop  offset="1" style="stop-color:#04DFC7"/>
	</linearGradient>
	<path style="fill:url(#SVGID_00000134229423105501151490000011044356585688695194_);" d="M660.5,122.4c0-9-7-12.1-17.5-14.5
		c-7.5-1.7-10.5-2.8-10.5-6.4c0-2.9,2.8-5.3,7.2-5.3c4.7,0,9.6,1.9,14,5.5l5.5-7.6c-5-4.3-11.1-6.7-19.1-6.7
		c-10.7,0-18.1,6.2-18.1,15.2c0,9.4,7.4,12.3,17.7,14.7c7.5,1.7,10.3,2.8,10.3,6.2c0,3.1-2.7,5.5-8,5.5c-6.2,0-11.4-2.4-16-6.4
		l-6,7.2c5.7,5.3,13.1,8.1,21.6,8.1C653.4,137.8,660.5,131.7,660.5,122.4z"/>
	
		<linearGradient id="SVGID_00000084489047827832110530000011035219359988249240_" gradientUnits="userSpaceOnUse" x1="-90.2619" y1="112.5999" x2="694.0414" y2="112.5999">
		<stop  offset="0" style="stop-color:#0022B6"/>
		<stop  offset="1" style="stop-color:#04DFC7"/>
	</linearGradient>
	<path style="fill:url(#SVGID_00000084489047827832110530000011035219359988249240_);" d="M689.3,107.9c-7.5-1.7-10.5-2.8-10.5-6.4
		c0-2.9,2.8-5.3,7.2-5.3c4.7,0,9.6,1.9,14,5.5l5.5-7.6c-5-4.3-11.1-6.7-19.1-6.7c-10.7,0-18.1,6.2-18.1,15.2
		c0,9.4,7.4,12.3,17.7,14.7c7.5,1.7,10.3,2.8,10.3,6.2c0,3.1-2.7,5.5-8,5.5c-6.2,0-11.4-2.4-16-6.4l-6,7.2
		c5.7,5.3,13.1,8.1,21.6,8.1c11.9,0,19-6.2,19-15.5C706.8,113.3,699.9,110.2,689.3,107.9z"/>
	
		<linearGradient id="SVGID_00000021120591781087947010000013149529544679272111_" gradientUnits="userSpaceOnUse" x1="-90.2619" y1="197.7738" x2="694.0414" y2="197.7738">
		<stop  offset="0" style="stop-color:#0022B6"/>
		<stop  offset="1" style="stop-color:#04DFC7"/>
	</linearGradient>
	<polygon style="fill:url(#SVGID_00000021120591781087947010000013149529544679272111_);" points="306.7,222.2 317.2,222.2 
		317.2,202.8 341.8,202.8 341.8,193.4 317.2,193.4 317.2,182.8 344.3,182.8 344.3,173.4 306.7,173.4 	"/>
	
		<linearGradient id="SVGID_00000024702982974539783700000006036899142417400740_" gradientUnits="userSpaceOnUse" x1="-90.2619" y1="197.7738" x2="694.0414" y2="197.7738">
		<stop  offset="0" style="stop-color:#0022B6"/>
		<stop  offset="1" style="stop-color:#04DFC7"/>
	</linearGradient>
	<path style="fill:url(#SVGID_00000024702982974539783700000006036899142417400740_);" d="M393.6,189.9c0-9.7-7.7-16.5-18.4-16.5
		h-21.9v48.8h10.5v-15.8h6.3l11.1,15.8h11.9l-11.7-16.7C388.8,203.3,393.6,197.5,393.6,189.9z M374.1,196.7h-10.4V183h10.4
		c5.2,0,8.7,2.7,8.7,6.9S379.3,196.7,374.1,196.7z"/>
	
		<linearGradient id="SVGID_00000071542688327672421090000003924136171254786747_" gradientUnits="userSpaceOnUse" x1="-90.2619" y1="197.7738" x2="694.0414" y2="197.7738">
		<stop  offset="0" style="stop-color:#0022B6"/>
		<stop  offset="1" style="stop-color:#04DFC7"/>
	</linearGradient>
	<path style="fill:url(#SVGID_00000071542688327672421090000003924136171254786747_);" d="M418.7,173.4l-19.9,48.8h11.7l3.4-8.4
		h21.2l3.4,8.4h11.8l-19.9-48.8H418.7z M417.3,205.6l7.2-17.8l7.2,17.8H417.3z"/>
	
		<linearGradient id="SVGID_00000119102198797254071300000014895436113334190220_" gradientUnits="userSpaceOnUse" x1="-90.2619" y1="197.7738" x2="694.0414" y2="197.7738">
		<stop  offset="0" style="stop-color:#0022B6"/>
		<stop  offset="1" style="stop-color:#04DFC7"/>
	</linearGradient>
	<polygon style="fill:url(#SVGID_00000119102198797254071300000014895436113334190220_);" points="483.8,200.9 468.8,173.4 
		458.2,173.4 458.2,222.2 468.8,222.2 468.8,191.8 483.8,219.3 498.9,191.8 498.9,222.2 509.3,222.2 509.3,173.4 498.9,173.4 	"/>
	
		<linearGradient id="SVGID_00000083811660012448598650000011978784635105143970_" gradientUnits="userSpaceOnUse" x1="-90.2619" y1="197.7738" x2="694.0414" y2="197.7738">
		<stop  offset="0" style="stop-color:#0022B6"/>
		<stop  offset="1" style="stop-color:#04DFC7"/>
	</linearGradient>
	<polygon style="fill:url(#SVGID_00000083811660012448598650000011978784635105143970_);" points="521.8,222.2 559.3,222.2 
		559.3,212.7 532.3,212.7 532.3,202 556.8,202 556.8,192.6 532.3,192.6 532.3,182.8 559.3,182.8 559.3,173.4 521.8,173.4 	"/>
	
		<linearGradient id="SVGID_00000083088479014483719060000001597954958955182526_" gradientUnits="userSpaceOnUse" x1="-90.2619" y1="197.7738" x2="694.0414" y2="197.7738">
		<stop  offset="0" style="stop-color:#0022B6"/>
		<stop  offset="1" style="stop-color:#04DFC7"/>
	</linearGradient>
	<polygon style="fill:url(#SVGID_00000083088479014483719060000001597954958955182526_);" points="618.7,206.1 607.9,173.4 
		596.5,173.4 585.7,206.1 576.7,173.4 565.4,173.4 580.1,222.2 590.7,222.2 602.3,188.7 613.8,222.2 624.3,222.2 639.1,173.4 
		627.7,173.4 	"/>
	
		<linearGradient id="SVGID_00000033365290064348008560000015564043321740528017_" gradientUnits="userSpaceOnUse" x1="-90.2619" y1="197.7738" x2="694.0414" y2="197.7738">
		<stop  offset="0" style="stop-color:#0022B6"/>
		<stop  offset="1" style="stop-color:#04DFC7"/>
	</linearGradient>
	<path style="fill:url(#SVGID_00000033365290064348008560000015564043321740528017_);" d="M670.4,172.5c-14.1,0-26,11.5-26,25.2
		c0,13.7,11.9,25.3,26,25.3c14.1,0,25.8-11.6,25.8-25.3C696.2,184,684.4,172.5,670.4,172.5z M670.4,213.5c-8.2,0-15.2-7.2-15.2-15.8
		c0-8.4,7-15.7,15.2-15.7c8.2,0,15.1,7.2,15.1,15.7C685.5,206.3,678.6,213.5,670.4,213.5z"/>
	
		<linearGradient id="SVGID_00000017495842714194223630000005173176143046256784_" gradientUnits="userSpaceOnUse" x1="-90.2619" y1="197.7738" x2="694.0414" y2="197.7738">
		<stop  offset="0" style="stop-color:#0022B6"/>
		<stop  offset="1" style="stop-color:#04DFC7"/>
	</linearGradient>
	<path style="fill:url(#SVGID_00000017495842714194223630000005173176143046256784_);" d="M746.1,189.9c0-9.7-7.7-16.5-18.4-16.5
		h-21.9v48.8h10.5v-15.8h6.3l11.1,15.8h11.9l-11.7-16.7C741.2,203.3,746.1,197.5,746.1,189.9z M726.6,196.7h-10.4V183h10.4
		c5.2,0,8.7,2.7,8.7,6.9S731.8,196.7,726.6,196.7z"/>
	
		<linearGradient id="SVGID_00000110448319517257037170000012631268322473504660_" gradientUnits="userSpaceOnUse" x1="-90.2619" y1="197.7738" x2="694.0414" y2="197.7738">
		<stop  offset="0" style="stop-color:#0022B6"/>
		<stop  offset="1" style="stop-color:#04DFC7"/>
	</linearGradient>
	<polygon style="fill:url(#SVGID_00000110448319517257037170000012631268322473504660_);" points="779.6,194.5 798.6,173.4 
		785.9,173.4 766.2,195.8 766.2,173.4 755.7,173.4 755.7,222.2 766.2,222.2 766.2,208.5 772.3,202 787.2,222.2 800,222.2 	"/>
</g>
</svg>
