<?xml version="1.0" encoding="utf-8"?>
<!-- Generator: Adobe Illustrator 25.0.1, SVG Export Plug-In . SVG Version: 6.00 Build 0)  -->
<svg version="1.1" id="Layer_1" xmlns="http://www.w3.org/2000/svg" xmlns:xlink="http://www.w3.org/1999/xlink" x="0px" y="0px"
	 viewBox="0 0 250.5 325.8" style="enable-background:new 0 0 250.5 325.8;" xml:space="preserve">
<style type="text/css">
	.st0{fill:#FFFFFF;}
	.st1{fill:none;}
	.st2{fill:#231F20;}
	.st3{fill:#71CBDC;}
	.st4{fill:#70CDDC;}
</style>
<g>
	<rect x="3.5" y="105.8" class="st0" width="243.3" height="215.8"/>
	<path class="st1" d="M138.6,181.5c1.7,0,3.1-1.4,3.1-3.1c0-0.4-0.1-0.8-0.2-1.1c-1.1-0.3-2.2-0.6-3.2-0.7c-0.8-0.1-1.7-0.1-2.4,0.1
		c-0.3,0.5-0.5,1.1-0.5,1.7C135.5,180.1,136.9,181.5,138.6,181.5z"/>
	<path class="st1" d="M7.2,318.6h236.1V108.2H7.2V318.6z M149.6,235.7c-1.1,0.3-3,0.4-5.5,0.4c-7.4,0-19.1-1.2-24.2-1.7
		c-1.6,5.3-3.3,31.4,1.5,40.3c-4.4-1.5-7.2-9.6-8.4-14.2c-1.4-7.4-2-17.3,0.8-27.3c-2.5-1.1-4.4-2.8-5.9-4.7
		c-1.4-2.4-3.1-6.5-2-12.1c0,0,0,0,0,0c0.1,0.1,5.6,10,11,11.3c0.4,0.1,0.7,0.2,1.1,0.2c0,0,0,0,0.1,0c0,0,0,0,0,0
		c12,1.4,27.2,2.5,29.6,1.8c1-0.3,2.4-0.7,2.5-5.8c0-1.7,1.5-3.1,3.2-3c1.7,0,3.1,1.4,3,3.2C156.4,228.2,155.6,234,149.6,235.7z
		 M126.8,179.5c-1.5,0.1-3.2-0.4-4.3-1.3c-1.2-0.9-1.8-2.1-2.1-3.4c0.7,0.1,1.2,0.3,1.8,0.4c0.6,0.1,1.1,0.2,1.5,0.1
		c0.9,0,1.6-0.3,2.3-0.6c1.4-0.7,3-2,5.4-3.1c1.2-0.5,2.7-1,4.4-0.9c1.6,0.1,2.9,0.5,4.2,1.2c1.8,1,3.2,2.5,3.9,4.3
		c0.5,0.9,0.8,2,0.8,3.1c0,3.8-3,6.8-6.8,6.8c-3.8,0-6.8-3-6.8-6.8c0-0.3,0.1-0.6,0.1-0.9C129.9,179,128.5,179.5,126.8,179.5z
		 M162.3,207.7c-0.8-0.1-1.5-0.1-2.2,0c-1.3,0.2-2.5,0.8-3.6,1.6c-0.3,0.2-0.4,0.4-0.9,0.6c-0.4,0.3-0.8,0.5-1.2,0.8
		c-0.8,0.5-1.5,0.9-2.3,1.3c-0.1,0.1-0.3,0.1-0.4,0.2c0.1,0.1,0.2,0.2,0.4,0.4c0.4,0.4,0.8,0.9,1,1.1c0.4,0.6,0.8,1.1,1.6,1.6
		c0.8,0.5,1.8,0.8,3.2,1c-0.7,1.2-1.9,2.1-3.4,2.4c-1.5,0.3-3.3,0-4.6-0.8c-0.8-0.5-1.1-0.8-1.6-1.1c-0.5-0.3-0.9-0.7-1.3-1
		c-0.9-0.7-1.7-1.4-2.5-2.2l-3.6-3.5l4.5-1.7l4.6-1.8l2.2-0.9c0.4-0.1,0.7-0.3,1-0.4c0.3-0.1,0.9-0.4,1.4-0.6
		c1.9-0.7,4.1-0.9,6.1-0.3c2,0.6,3.6,2.1,4.2,3.7C163.8,208.1,163.1,207.8,162.3,207.7z M180,155.1c-1.1-1.7-0.7-3.9,1-5
		c1.7-1.1,3.9-0.7,5,1l41.1,61.2c0.8,1.2,0.8,2.8,0,4L186,277.4c-0.7,1-1.8,1.6-3,1.6c-0.7,0-1.4-0.2-2-0.6c-1.7-1.1-2.1-3.4-1-5
		l39.7-59.2L180,155.1z M129.9,142.2c9.5-6.6,17.7-12.3,20.5-19.3c0.6-1.6,2.4-2.4,4-1.8c1.6,0.6,2.4,2.4,1.8,4
		c-1.2,3.1-3.1,5.9-5.5,8.5c2.8,4.5,4.6,9.3,5.4,14.1c2.3,14.3,1.4,17.7,0.7,20.4c-0.3,1.2-0.5,1.8-0.2,3.8
		c0.7,5.6,4.3,10.7,9.7,13.5c2.6,1.3,3.4,3.4,3.7,4.8c0.9,4.9-3.7,10.3-4.7,11.3c-0.6,0.7-1.5,1-2.3,1c-0.7,0-1.5-0.3-2.1-0.8
		c-1.3-1.1-1.4-3.1-0.2-4.4c1.7-1.9,3.4-4.8,3.2-6.1c0-0.1,0-0.2-0.4-0.4c-7.2-3.7-12.1-10.6-13-18.2c-0.4-3.1,0-4.7,0.4-6.1
		c0.5-2,1.3-4.8-0.8-17.9c-0.6-3.6-1.9-7.2-3.9-10.7c-3.7,3.1-8,6.1-12.6,9.3c-21.3,14.8-47.8,33.3-45.8,84.4
		c1,25.9,14.3,37.7,26,48.1c9.7,8.7,18.9,16.9,19.4,31.3h-6.2c-0.5-11.6-8-18.3-17.4-26.6c-12-10.7-26.9-24-28-52.5
		C79.3,177.4,108.6,157.1,129.9,142.2z M22.8,212.2L63.9,151c1.1-1.7,3.4-2.1,5-1c1.7,1.1,2.1,3.4,1,5l-39.7,59.2l39.7,59.2
		c1.1,1.7,0.7,3.9-1,5c-0.6,0.4-1.3,0.6-2,0.6c-1.2,0-2.3-0.6-3-1.6l-41.1-61.2C22,215,22,213.4,22.8,212.2z"/>
	<path class="st2" d="M56.1,90.8c3.4,0,5.6-2.6,5.6-6.1c0-3.5-2.2-6.1-5.6-6.1c-3.5,0-5.7,2.6-5.7,6.1
		C50.5,88.1,52.7,90.8,56.1,90.8z"/>
	<polygon class="st2" points="175.6,79.3 172.7,87.3 178.5,87.3 	"/>
	<path class="st2" d="M160.5,39.9c0-4.4-3.2-7.4-7.8-7.4h-10.1v14.8h10.1C157.3,47.4,160.5,44.3,160.5,39.9z"/>
	<polygon class="st2" points="201.5,33.2 193.3,54.1 209.7,54.1 	"/>
	<path class="st2" d="M137.1,81.3c0-1.5-1.2-2.5-2.8-2.5h-4.2v5h4.2C135.9,83.9,137.1,82.9,137.1,81.3z"/>
	<path class="st2" d="M113.7,90.8c3.4,0,5.6-2.6,5.6-6.1c0-3.5-2.2-6.1-5.6-6.1c-3.5,0-5.7,2.6-5.7,6.1
		C108,88.1,110.2,90.8,113.7,90.8z"/>
	<path class="st0" d="M37.2,94.3c4.1,0,6.4-2.3,7.7-4.6l-3.4-1.6c-0.8,1.5-2.5,2.7-4.3,2.7c-3.4,0-5.9-2.6-5.9-6.1s2.5-6.1,5.9-6.1
		c1.9,0,3.6,1.2,4.3,2.7l3.4-1.7c-1.3-2.3-3.7-4.5-7.7-4.5c-5.6,0-9.9,3.9-9.9,9.6C27.3,90.4,31.6,94.3,37.2,94.3z"/>
	<path class="st0" d="M46.4,84.7c0,5.6,4.1,9.6,9.7,9.6c5.6,0,9.7-4,9.7-9.6c0-5.6-4.1-9.6-9.7-9.6C50.5,75.1,46.4,79.1,46.4,84.7z
		 M56.1,78.6c3.4,0,5.6,2.6,5.6,6.1c0,3.5-2.2,6.1-5.6,6.1c-3.5,0-5.7-2.6-5.7-6.1C50.5,81.2,52.7,78.6,56.1,78.6z"/>
	<polygon class="st0" points="81.3,87 72.7,75.4 68.6,75.4 68.6,94 72.6,94 72.6,81.8 81.5,94 85.3,94 85.3,75.4 81.3,75.4 	"/>
	<polygon class="st0" points="88.9,94 92.9,94 92.9,86.2 101.9,86.2 101.9,82.8 92.9,82.8 92.9,78.9 102.1,78.9 102.1,75.4 
		88.9,75.4 	"/>
	<path class="st0" d="M113.7,94.3c5.6,0,9.7-4,9.7-9.6c0-5.6-4.1-9.6-9.7-9.6c-5.6,0-9.7,4-9.7,9.6C104,90.3,108.1,94.3,113.7,94.3z
		 M113.7,78.6c3.4,0,5.6,2.6,5.6,6.1c0,3.5-2.2,6.1-5.6,6.1c-3.5,0-5.7-2.6-5.7-6.1C108,81.2,110.2,78.6,113.7,78.6z"/>
	<path class="st0" d="M126.2,94h4v-6.6h2.9l3.6,6.6h4.6l-4.2-7.1c2-0.5,4.1-2.3,4.1-5.5c0-3.5-2.4-6-6.3-6h-8.7V94z M130.1,78.9h4.2
		c1.6,0,2.8,0.9,2.8,2.5c0,1.6-1.2,2.5-2.8,2.5h-4.2V78.9z"/>
	<polygon class="st0" points="164.2,94 164.2,75.4 158.7,75.4 154.1,87 149.6,75.4 144.1,75.4 144.1,94 148,94 148,80.6 153.3,94 
		155,94 160.3,80.6 160.3,94 	"/>
	<path class="st0" d="M171.6,90.8h8l1.2,3.1h4.5l-7.2-18.6h-5L166,94h4.5L171.6,90.8z M175.6,79.3l2.9,8h-5.8L175.6,79.3z"/>
	<polygon class="st0" points="191,75.4 187,75.4 187,94 190.9,94 190.9,81.8 199.8,94 203.6,94 203.6,75.4 199.7,75.4 199.7,87 	"/>
	<polygon class="st0" points="215.6,94 215.6,78.9 221,78.9 221,75.4 206.1,75.4 206.1,78.9 211.6,78.9 211.6,94 	"/>
	<polygon class="st4" points="55.8,62.7 35.3,62.7 35.3,49.3 55.4,49.3 55.4,45 35.3,45 35.3,32.6 55.8,32.6 55.8,28.3 30.5,28.3 
		30.5,67 55.8,67 	"/>
	<path class="st4" d="M81.8,67.7c6.3,0,11.6-2.7,15.2-6.7V47.1H78.9v4.3h13.3v7.8c-2,2-5.8,4.2-10.4,4.2c-8.5,0-14.9-6.6-14.9-15.7
		c0-9.3,6.4-15.7,14.9-15.7c4.6,0,8.8,2.2,11.2,5.3l3.8-2.4c-3.4-4.2-8.1-7.2-15-7.2c-11,0-19.9,7.9-19.9,20
		C61.9,59.7,70.8,67.7,81.8,67.7z"/>
	<polygon class="st4" points="130.1,62.7 109.6,62.7 109.6,49.3 129.7,49.3 129.7,45 109.6,45 109.6,32.6 130.1,32.6 130.1,28.3 
		104.8,28.3 104.8,67 130.1,67 	"/>
	<path class="st4" d="M142.6,51.6h7.8l9.8,15.4h5.7l-10.4-15.8c5.3-0.5,10.1-4.3,10.1-11.3c0-7.1-5.1-11.7-12.2-11.7h-15.5V67h4.8
		V51.6z M142.6,32.6h10.1c4.6,0,7.8,3,7.8,7.4c0,4.3-3.2,7.4-7.8,7.4h-10.1V32.6z"/>
	<rect x="173.1" y="28.3" class="st4" width="4.8" height="38.7"/>
	<path class="st4" d="M191.9,58.3h19.3l3.4,8.6h5.5l-15.5-38.7h-6L183,67h5.5L191.9,58.3z M201.5,33.2l8.2,20.9h-16.4L201.5,33.2z"
		/>
	<path class="st2" d="M231.9,0H18.6C8.3,0,0,8.3,0,18.6v307.2h250.5V18.6C250.5,8.3,242.2,0,231.9,0z M206.1,78.9v-3.5H221v3.5h-5.4
		V94h-4V78.9H206.1z M198.6,28.3h6L220.1,67h-5.5l-3.4-8.6h-19.3l-3.4,8.6H183L198.6,28.3z M203.6,75.4V94h-3.8l-8.9-12.1V94h-4
		V75.4h4.1l8.6,11.7V75.4H203.6z M173.1,28.3h4.8V67h-4.8V28.3z M173.1,75.4h5l7.2,18.6h-4.5l-1.2-3.1h-8l-1.2,3.1H166L173.1,75.4z
		 M153.3,28.3c7.1,0,12.2,4.5,12.2,11.7c0,7-4.8,10.8-10.1,11.3L165.9,67h-5.7l-9.8-15.4h-7.8V67h-4.8V28.3H153.3z M155,94h-1.7
		L148,80.6V94h-4V75.4h5.5l4.5,11.6l4.5-11.6h5.6V94h-4V80.6L155,94z M101.9,82.8v3.5h-9V94h-4V75.4h13.2v3.5h-9.2v3.9H101.9z
		 M104.8,67V28.3h25.3v4.3h-20.5V45h20.1v4.3h-20.1v13.3h20.5V67H104.8z M123.4,84.7c0,5.6-4.1,9.6-9.7,9.6c-5.6,0-9.7-4-9.7-9.6
		c0-5.6,4.1-9.6,9.7-9.6C119.3,75.1,123.4,79.1,123.4,84.7z M126.2,75.4h8.7c3.9,0,6.3,2.5,6.3,6c0,3.3-2.1,5-4.1,5.5l4.2,7.1h-4.6
		l-3.6-6.6h-2.9V94h-4V75.4z M81.8,27.6c6.9,0,11.7,3,15,7.2L93,37.3c-2.4-3.1-6.6-5.3-11.2-5.3c-8.5,0-14.9,6.4-14.9,15.7
		c0,9.2,6.4,15.7,14.9,15.7c4.6,0,8.5-2.2,10.4-4.2v-7.8H78.9v-4.3H97V61c-3.6,4.1-8.9,6.7-15.2,6.7c-11,0-19.9-8.1-19.9-20.1
		C61.9,35.6,70.8,27.6,81.8,27.6z M85.3,75.4V94h-3.8l-8.9-12.1V94h-4V75.4h4.1L81.3,87V75.4H85.3z M65.8,84.7
		c0,5.6-4.1,9.6-9.7,9.6c-5.6,0-9.7-4-9.7-9.6c0-5.6,4.1-9.6,9.7-9.6C61.7,75.1,65.8,79.1,65.8,84.7z M30.5,28.3h25.3v4.3H35.3V45
		h20.1v4.3H35.3v13.3h20.5V67H30.5V28.3z M37.2,75.1c4.1,0,6.4,2.2,7.7,4.5l-3.4,1.7c-0.8-1.5-2.5-2.7-4.3-2.7
		c-3.4,0-5.9,2.6-5.9,6.1s2.5,6.1,5.9,6.1c1.9,0,3.6-1.2,4.3-2.7l3.4,1.6c-1.3,2.3-3.7,4.6-7.7,4.6c-5.6,0-9.9-3.9-9.9-9.6
		C27.3,78.9,31.6,75.1,37.2,75.1z M243.3,318.6H7.2V108.2h236.1V318.6z"/>
	<path class="st4" d="M180.9,278.4c0.6,0.4,1.3,0.6,2,0.6c1.2,0,2.3-0.6,3-1.6l41.1-61.2c0.8-1.2,0.8-2.8,0-4L186,151
		c-1.1-1.7-3.4-2.1-5-1c-1.7,1.1-2.1,3.4-1,5l39.7,59.2L180,273.4C178.8,275.1,179.3,277.3,180.9,278.4z"/>
	<path class="st4" d="M63.9,277.4c0.7,1,1.8,1.6,3,1.6c0.7,0,1.4-0.2,2-0.6c1.7-1.1,2.1-3.4,1-5l-39.7-59.2l39.7-59.2
		c1.1-1.7,0.7-3.9-1-5c-1.7-1.1-3.9-0.7-5,1l-41.1,61.2c-0.8,1.2-0.8,2.8,0,4L63.9,277.4z"/>
	<path class="st2" d="M153.4,220.9c-1.6-0.1-3.1,1.3-3.2,3c-0.1,5.1-1.5,5.5-2.5,5.8c-2.4,0.7-17.6-0.3-29.6-1.8c0,0,0,0,0,0
		c0,0,0,0-0.1,0c-0.4,0-0.8-0.1-1.1-0.2c-5.5-1.3-11-11.2-11-11.3c0,0,0,0,0,0c-1.1,5.6,0.5,9.7,2,12.1c1.5,1.9,3.4,3.6,5.9,4.7
		c-2.8,10-2.2,19.9-0.8,27.3c1.2,4.6,3.9,12.8,8.4,14.2c-4.8-8.9-3-35-1.5-40.3c5.1,0.6,16.9,1.7,24.2,1.7c2.4,0,4.4-0.1,5.5-0.4
		c6-1.8,6.8-7.5,6.9-11.7C156.5,222.4,155.1,221,153.4,220.9z"/>
	<path class="st2" d="M109.5,284.5c9.4,8.4,16.9,15,17.4,26.6h6.2c-0.5-14.4-9.7-22.6-19.4-31.3c-11.7-10.4-24.9-22.2-26-48.1
		c-2-51.1,24.5-69.6,45.8-84.4c4.6-3.2,8.9-6.2,12.6-9.3c2,3.5,3.3,7.1,3.9,10.7c2.1,13,1.3,15.8,0.8,17.9c-0.4,1.5-0.8,3-0.4,6.1
		c0.9,7.7,5.8,14.5,13,18.2c0.4,0.2,0.4,0.3,0.4,0.4c0.2,1.2-1.5,4.2-3.2,6.1c-1.1,1.3-1,3.2,0.2,4.4c0.6,0.5,1.3,0.8,2.1,0.8
		c0.8,0,1.7-0.3,2.3-1c0.9-1,5.6-6.4,4.7-11.3c-0.3-1.5-1.1-3.5-3.7-4.8c-5.4-2.8-9-7.8-9.7-13.5c-0.2-2-0.1-2.6,0.2-3.8
		c0.7-2.7,1.6-6.1-0.7-20.4c-0.8-4.9-2.6-9.6-5.4-14.1c2.4-2.6,4.3-5.4,5.5-8.5c0.6-1.6-0.2-3.4-1.8-4c-1.6-0.6-3.4,0.2-4,1.8
		c-2.7,7-10.9,12.7-20.5,19.3c-21.4,14.9-50.6,35.2-48.5,89.8C82.6,260.5,97.5,273.8,109.5,284.5z"/>
	<path class="st2" d="M137.9,186.2c3.8,0,6.8-3,6.8-6.8c0-1.1-0.3-2.2-0.8-3.1c-0.7-1.7-2.1-3.3-3.9-4.3c-1.3-0.7-2.6-1.1-4.2-1.2
		c-1.7-0.1-3.2,0.4-4.4,0.9c-2.4,1.1-4,2.4-5.4,3.1c-0.7,0.4-1.4,0.6-2.3,0.6c-0.5,0.1-1-0.1-1.5-0.1c-0.6-0.1-1.1-0.3-1.8-0.4
		c0.3,1.2,1,2.5,2.1,3.4c1.1,0.9,2.8,1.4,4.3,1.3c1.7-0.1,3.1-0.5,4.4-1c0,0.3-0.1,0.6-0.1,0.9C131.1,183.1,134.1,186.2,137.9,186.2
		z M136,176.6c0.6-0.1,1.5-0.1,2.4-0.1c1,0.1,2,0.3,3.2,0.7c0.1,0.3,0.2,0.7,0.2,1.1c0,1.7-1.4,3.1-3.1,3.1c-1.7,0-3.1-1.4-3.1-3.1
		C135.5,177.7,135.7,177.1,136,176.6z"/>
	<path class="st2" d="M160.5,204.7c-2-0.6-4.2-0.4-6.1,0.3c-0.5,0.2-1,0.4-1.4,0.6c-0.3,0.1-0.7,0.3-1,0.4l-2.2,0.9l-4.6,1.8
		l-4.5,1.7l3.6,3.5c0.8,0.8,1.6,1.5,2.5,2.2c0.4,0.3,0.9,0.7,1.3,1c0.5,0.3,0.8,0.6,1.6,1.1c1.4,0.8,3.2,1.1,4.6,0.8
		c1.5-0.4,2.7-1.2,3.4-2.4c-1.4-0.2-2.4-0.6-3.2-1c-0.8-0.5-1.2-1-1.6-1.6c-0.1-0.2-0.6-0.7-1-1.1c-0.1-0.1-0.2-0.2-0.4-0.4
		c0.1-0.1,0.3-0.1,0.4-0.2c0.8-0.4,1.5-0.8,2.3-1.3c0.4-0.2,0.8-0.5,1.2-0.8c0.4-0.3,0.5-0.4,0.9-0.6c1.1-0.8,2.3-1.4,3.6-1.6
		c0.7-0.1,1.4-0.1,2.2,0c0.8,0.1,1.6,0.4,2.4,0.7C164,206.8,162.5,205.3,160.5,204.7z"/>
</g>
</svg>
