<svg id="Layer_1" data-name="Layer 1" xmlns="http://www.w3.org/2000/svg" viewBox="0 0 841.71997 1084.71997"><defs><style>.cls-1{fill:#030404;}.cls-2{fill:#66cbde;}.cls-3{fill:#3d5aa9;}.cls-4{fill:#425eab;}.cls-5{fill:#e8eeae;}.cls-6{fill:#64c8db;}.cls-7{fill:#0a0a0a;}.cls-8{fill:#070707;}.cls-9{fill:#101010;}.cls-10{fill:#f8f8f8;}.cls-11{fill:#65cadd;}.cls-12{fill:#fbfbfb;}.cls-13{fill:#feffff;}.cls-14{fill:#fdfefe;}</style></defs><g id="背景"><path class="cls-1" d="M322.1447,382.734c-.30405,1.36673.84216,2.03857,1.47711,2.89966A99.23387,99.23387,0,0,1,339.989,420.25918a125.213,125.213,0,0,1,2.673,15.35093c.25388,1.99844.362,2.066,2.07416,1.824,4.68823-.66263,9.36966-1.37283,14.02377-2.05978.37763-.94742-.30917-1.39429-.75106-1.911-11.12885-13.01389-16.53635-28.27683-17.56653-45.193-1.3797-22.65475-1.74088-45.34088-1.79529-68.03234-.04645-19.366-.07175-38.73075.28177-58.09662a95.92668,95.92668,0,0,0-7.20575-38.916,63.91505,63.91505,0,0,0-5.87934-11.07244,42.76756,42.76756,0,0,0-8.712-9.57583c-12.05774-9.74715-25.38547-17.06006-40.46661-20.88163a85.6988,85.6988,0,0,0-56.7417,4.73926,107.54376,107.54376,0,0,0-32.37914,22.08057q-.64954.51-1.30167,1.02337c-1.48141,1.17043-1.87648,1.15111-3.22451-.15977-1.50272-1.46127-1.5161-1.66441-.31412-3.60489.29436-.47519.54987-.97449.82324-1.46269,1.46036-.74979,2.31478-2.13849,3.39429-3.27785a102.0667,102.0667,0,0,1,29.30014-21.98469,92.44194,92.44194,0,0,1,50.88731-9.03861c18.761,1.90889,35.88825,8.34525,51.74829,18.3196,14.39652,9.05392,23.13721,22.26,27.57053,38.49727a108.85235,108.85235,0,0,1,3.53772,22.20272q1.55167,25.74229,3.1868,51.47956c.63485,9.94806,1.23584,19.90085,2.0755,29.83264,1.21643,14.3891,2.35046,28.8002,5.09244,43.00534a79.10174,79.10174,0,0,0,21.02041,40.55856,45.07732,45.07732,0,0,0,7.93262,6.755c1.46423-.57859,1.95386-2.03055,2.77508-3.14545,9.98734-13.55853,22.54691-23.90585,38.11481-30.43707,30.0394-12.60242,64.23191-6.938,89.1644,14.69333A95.02335,95.02335,0,0,1,536.86525,422.009c.4704.72608.89911,1.482,1.41,2.178a.96139.96139,0,0,0,1.46277.30325,7.18578,7.18578,0,0,0,.68451-.529q3.484-3.21276,6.95941-6.43509c-1.18548-3.17358-3.58917-5.50586-5.69189-8.00842-15.69355-18.67874-35.1771-31.45273-58.90372-37.51489a109.36954,109.36954,0,0,0-45.11035-1.81308c-.50611.08233-1.02692.39581-1.52991-.0213-.0285-.84888.59793-1.29236,1.11572-1.76532,11.52726-10.52805,25.02973-16.58969,40.68174-16.86289,26.4501-.4617,46.62945,11.14124,61.049,33.04917a71.57716,71.57716,0,0,1,10.45007,26.40188c.23285,1.23837.56213,2.45862.86328,3.75855,1.57013-.3057,2.39453-1.37372,3.368-2.16776a232.09386,232.09386,0,0,1,20.515-15.22934A90.80451,90.80451,0,0,1,589.422,389.164a36.96444,36.96444,0,0,1,14.28491-3.10089,19.04366,19.04366,0,0,1,15.094,7.22037,33.79937,33.79937,0,0,1,5.06854,8.5335A80.19676,80.19676,0,0,1,629.042,421.4397a205.90294,205.90294,0,0,1,1.97509,22.86892c.35663,9.09565,1.06067,18.17017,3.24567,27.05661a53.38652,53.38652,0,0,0,3.68054,10.61319,26.39821,26.39821,0,0,0,4.00721,6.15192c4.33294,4.84851,9.70721,6.5314,16.03363,5.24872a38.03356,38.03356,0,0,0,11.20874-4.47522,86.38834,86.38834,0,0,0,12.04235-8.45175,188.46283,188.46283,0,0,0,17.87891-17.024,469.16553,469.16553,0,0,0,34.33643-41.86646c6.01739-8.125,11.88372-16.36251,17.77642-24.57934,9.69672-13.52124,20.022-26.51614,31.83332-38.27445a109.60718,109.60718,0,0,1,12.40161-10.81295,43.064,43.064,0,0,1,8.92383-5.27854,17.40312,17.40312,0,0,1,6.69543-1.53561,8.30108,8.30108,0,0,1,7.3042,3.88977,12.02766,12.02766,0,0,1,2.33283,6.8613,3.10251,3.10251,0,0,0,.78643,3.17639v17.34592c-.53167,1.86169-1.1701,3.70956-.73858,5.69625-.49774,8.392-2.27942,16.58457-3.987,24.7757-4.62708,22.19623-10.99732,43.93631-17.337,65.68454-9.77038,33.5173-19.62549,67.01138-28.64447,100.74222-4.24939,15.89288-8.29925,31.83752-11.28247,48.02813A173.45887,173.45887,0,0,0,756.25,647.82236a78.901,78.901,0,0,0,6.96821,33.213c1.775,3.94549,3.76971,7.7915,5.59179,11.71649,8.51984,18.35346,9.383,37.105,2.02655,55.92743-6.43634,16.46832-18.744,27.07141-35.25708,32.90088a83.9705,83.9705,0,0,1-23.30615,4.4848c-17.03479.97-33.6925-1.4635-50.15869-5.59033-2.51758-.63092-5.00726-1.3725-7.51611-2.03937a2.18276,2.18276,0,0,0-2.16291.17316c.39087.616.73676,1.23181,1.1485,1.79986,18.35925,25.32923,33.66022,52.4588,47.32788,80.54517,4.41986,9.08264,8.64313,18.25818,12.51569,27.59119.33154.79919.70825,1.58,1.02368,2.38519.87469,2.23267.629,2.59094-1.60547,2.3974-16.39758-1.41992-32.77423-3.06177-49.105-5.10333-31.51331-3.93958-62.8822-8.80072-93.93646-15.51538-24.69294-5.33918-49.13434-11.61213-72.78073-20.65039-4.848-1.853-9.62116-3.90638-14.39707-5.94184-3.54538-1.51111-3.52627-1.57257-7.19986.19849q-9.75128,4.70114-19.91611,8.42126a217.693,217.693,0,0,1-90.65939,12.6156,213.50139,213.50139,0,0,1-70.69433-17.38513,12.56132,12.56132,0,0,0-4.04227-1.45111q-.41342-.47745-.827-.95459-1.7346-.86535-3.46643-1.73614a2.05633,2.05633,0,0,0-1.7333-.86823,2.138,2.138,0,0,0-1.70234-.88086c-.67065-.90271-1.6698-.805-2.61923-.85968q-.42663-.42609-.852-.85388a2.07594,2.07594,0,0,0-1.7504-.89032,3.83957,3.83957,0,0,0-.5986-.55731.40509.40509,0,0,0-.65265.27307c-.01846.068.15674.2392.2728.28308a7.182,7.182,0,0,0,.80173.21161,2.1519,2.1519,0,0,0,1.77493.83386q.43446.4183.86762.8385c.64926.94135,1.65863.83264,2.60952.895a2.10888,2.10888,0,0,0,1.69431.88922q1.73478.8682,3.47449,1.72663a2.1872,2.1872,0,0,0,1.73477.86615q.03877.701.07766,1.402c-6.658,2.77161-13.53808,4.91742-20.37377,7.18018-35.04853,11.60187-70.62214,21.31659-106.59644,29.58258q-6.742,1.54917-13.49085,3.06793c-.67784.1521-1.379.2002-1.86473.26789-.8903-.56409-.62182-1.17139-.48114-1.68036,10.94167-39.582,24.96643-77.97882,44.02068-114.43659,1.40208-2.68268,2.924-5.30273,4.38957-7.9508q.84792.01711,1.69686.03253c-.10938,1.329.17585,2.3927,1.74186,2.5954-.06036.75085-.06466,1.47387.85523,1.74243a1.79118,1.79118,0,0,0,.84489,1.75024.99062.99062,0,0,0,.881.87171c.07443.50836.26433.89825.87648.85479-.08339,1.306.24316,2.34088,1.72536,2.61151l.3238,2.6944c-7.4777,14.96631-14.13809,30.29511-20.27495,45.85407-4.7595,12.067-9.22294,24.24218-13.19027,36.5957a20.50371,20.50371,0,0,0-.64,2.061,1.977,1.977,0,0,0,.12135,1.20984c.243.481.759.24372,1.11037.10083,1.06628-.43359,2.115-.91363,3.15512-1.408q27.13215-12.89739,54.26034-25.803,11.508-5.47247,23.018-10.94061c.10731-.07428.30308-.14612.30525-.22339a3.5922,3.5922,0,0,0-.10292-.69323.4483.4483,0,0,1-.42506-.47046l.00154-.02088a1.14467,1.14467,0,0,0-.50977-.39807,20.54519,20.54519,0,0,1-1.82211-1.13373,223.8933,223.8933,0,0,1-19.27045-16.73633,233.95332,233.95332,0,0,1-24.36987-28.08776,3.787,3.787,0,0,0-1.7392-2.54993,4.77039,4.77039,0,0,0-1.72413-2.60968,1.057,1.057,0,0,0-.87891-.85724c-.08485-.5-.27214-.89648-.87795-.87042.03835-.7417-.01341-1.43964-.85179-1.75556a2.11473,2.11473,0,0,0-.85214-1.74865,4.472,4.472,0,0,0-1.74512-2.5915c-.255-1.04846-.49247-2.1076-1.59787-2.641a196.39088,196.39088,0,0,1-13.06251-25.40143,90.56087,90.56087,0,0,1-3.2354-8.93353,22.72817,22.72817,0,0,1-.14929-12.8352c.56651-2.0755,1.44093-4.04938,1.61906-6.25452a6.649,6.649,0,0,1,1.32947-2.67877,31.58693,31.58693,0,0,1,5.77162-6.42883,61.17535,61.17535,0,0,1,9.37859-6.96448,6.33421,6.33421,0,0,0,3.47536-5.46735,37.07736,37.07736,0,0,1,3.30961-12.93524,9.48674,9.48674,0,0,1,.74884-1.53778,2.60386,2.60386,0,0,1,4.11484-.07916,37.008,37.008,0,0,1,1.73888,3.46624c1.13533,2.13056,1.48794,4.66,3.28373,6.45264,2.27839-.51843,4.15929-1.89148,6.17435-2.95068q8.81264-4.632,17.52434-9.45539a60.54721,60.54721,0,0,0,9.70325-6.49755,14.44244,14.44244,0,0,0,3.91058-4.57526,3.9738,3.9738,0,0,0-.4568-4.46619,12.21574,12.21574,0,0,0-4.46592-3.34784c-3.89137-1.96673-8.09283-3.03216-12.25509-4.21466a3.12661,3.12661,0,0,0-2.42636.50983c-3.17719,1.62054-4.47216,1.484-6.82907-1.09674a5.88058,5.88058,0,0,0-3.58391-2.13275q-10.2632-1.611-20.50926-3.32978a1.93547,1.93547,0,0,0-2.40424,1.25226c-.62868,1.45722-1.29271,2.89911-1.91566,4.35864-.64118,1.50239-1.30185,2.9964-3.31194,2.85871-1.76215-.12079-2.34463-1.4754-2.79625-2.893a35.61592,35.61592,0,0,1-1.58884-5.37921c-.24768-1.65021-1.04725-2.06433-2.51147-2.3053-4.41144-.726-8.8006-1.59021-13.19168-2.43567-1.27272-.245-2.53278-.57257-3.781-.92486-2.5802-.72821-2.53444-.7417-2.26716-3.60523a222.91743,222.91743,0,0,1,10.03611-49.13263,214.05558,214.05558,0,0,1,26.0125-53.12329c.80715-1.19616,1.60314-2.3999,2.37888-3.56189.01579-1.11035-.86341-1.45727-1.51741-1.946-21.28463-15.90475-34.03316-37.08261-38.04972-63.247-4.8414-31.53741,3.132-59.61581,24.57514-83.42853a83.189,83.189,0,0,1,45.70035-26.46927c25.46031-5.296,48.68135.03339,69.61756,15.41935A88.82954,88.82954,0,0,1,315.072,375.708a3.61857,3.61857,0,0,0,1.69681,1.26706c.59833.13836.70438-.3566,1.01947-.58625l.05408-.214c-.386.27317-.95657.36277-.80637,1.08854a1.44375,1.44375,0,0,0,1.63236,1.22638l.05163-.00831-.04943-.07382c-.20362,1.16745.46182,2.08881,1.49972,2.04856.112-.00431.21781-.16846.32648-.25846l-.07779-.10363c-.62808.88034-.4256,1.299.90616,1.87338l-.0824-.11148c-.02222.68634.07123,1.25332.99417.96451Zm-65.06162,446.7792.86573.84a2.045,2.045,0,0,0,1.73556.89337q.432.42105.864.84241a2.26482,2.26482,0,0,0,1.6854.942,2.21776,2.21776,0,0,0,1.78644.81555q.42746.42526.85492.85071a2.02073,2.02073,0,0,0,1.74655.8833l.86154.845a2.23068,2.23068,0,0,0,1.69388.931,2.4353,2.4353,0,0,0,1.73431.86737,2.19468,2.19468,0,0,0,1.77457.83539l.47873.305-.31244-.47424a2.13016,2.13016,0,0,0-1.754-.89069,2.09684,2.09684,0,0,0-1.72751-.87512,2.03038,2.03038,0,0,0-1.73291-.85443l-.85251-.85376a2.02415,2.02415,0,0,0-1.74578-.88379q-.42917-.42408-.85825-.8479a2.08865,2.08865,0,0,0-1.74136-.9021,2.01193,2.01193,0,0,0-1.73322-.85266l-.84882-.857a1.99413,1.99413,0,0,0-1.75253-.87738q-.42258-.42946-.8452-.85907l-.86429-.86853a2.08324,2.08324,0,0,0-1.74871-.88537q-.43113-.44074-.8628-.8805l-.51275-.29522.30259.50573.89041.85309a2.07529,2.07529,0,0,0,1.74036.89392Q256.64341,829.08713,257.08308,829.51321ZM210.345,740.099c-.18027-.3689-.30006-.4148-.30926-.13611-.001.03058.22076.06842.3392.103a1.23448,1.23448,0,0,0,.33356,1.664c.3215.64587.63258,1.29712.966,1.93683A204.36969,204.36969,0,0,0,254.18739,799.036c13.91236,12.94965,29.041,24.18774,45.97714,32.90253,27.2779,14.03637,56.45759,19.87683,86.91208,19.76635a220.426,220.426,0,0,0,63.48542-9.88171c30.23623-9.18054,58.00528-23.31811,83.78033-41.50079,1.41058-.99506,2.86762-1.92432,4.303-2.88422l.31158,1.8526c-.64239.77-1.24139,1.58148-1.93365,2.30365a215.48728,215.48728,0,0,1-40.16989,32.80219c-1.09662.6969-2.21131,1.36584-3.29581,2.081a.79614.79614,0,0,0,.02213,1.38989c2.09985.95563,4.19146,1.93543,6.32757,2.80432,18.59671,7.56391,38.05747,11.52857,57.90836,13.84314a357.0657,357.0657,0,0,0,40.19873,2.15863,471.95824,471.95824,0,0,0,62.61981-4.02111c3.8028-.49549,7.679-.75037,11.38263-1.9405-.10242-1.93743-1.05536-3.429-1.74463-4.989q-9.63226-21.80292-21.32635-42.57513c-9.87659-17.51178-20.70923-34.38806-33.517-49.93219A164.52769,164.52769,0,0,0,588.706,726.744a83.962,83.962,0,0,0-22.53986-12.711,8.55327,8.55327,0,0,1-1.9508-.90228,1.19223,1.19223,0,0,1-.24134-1.55512,1.02009,1.02009,0,0,1,.9347-.734,6.89039,6.89039,0,0,1,1.27972.16822,79.83783,79.83783,0,0,1,16.89862,5.28582,119.95836,119.95836,0,0,1,27.81537,17.40015c1.00824.82031,2.01874,1.63824,3.0141,2.47412a1.40047,1.40047,0,0,0,1.94214.07153c.57129-.44073,1.12365-.90612,1.68231-1.36316A364.204,364.204,0,0,0,647.6432,707.473c13.26709-13.58758,25.25757-28.16028,34.48487-44.85882a3.42409,3.42409,0,0,1,.583-.62067q.91124.01877,1.82233.0376a48.2486,48.2486,0,0,1-3.92981,8.64123C666.4355,698.14468,649.83443,723.933,628.19478,746.221c-1.64142,1.69067-1.61847,1.7265-.01312,3.50781,3.19122,3.54083,6.4118,7.05554,9.56781,10.62744a7.07869,7.07869,0,0,0,3.1853,2.11847c21.17157,6.985,42.64844,8.6582,64.44055,3.42713a85.898,85.898,0,0,0,33.07086-15.53913A57.60691,57.60691,0,0,0,754.93343,731.092c4.19628-8.22028,5.879-16.84931,4.16088-26.024a46.5093,46.5093,0,0,0-3.29791-10.27978,84.70881,84.70881,0,0,1-7.16113-34.517A188.62477,188.62477,0,0,1,751.66,628.39c2.52325-14.95452,5.99493-29.70788,9.7-44.40936,7.65564-30.37707,16.38025-60.45654,25.08887-90.541,5.50323-19.0112,10.51635-38.13642,12.9187-57.83625.9978-8.1821,1.658-16.38836.50513-24.62878a29.30913,29.30913,0,0,0-3.61145-11.48163,11.00935,11.00935,0,0,0-10.45685-5.69168,20.77582,20.77582,0,0,0-7.52625,1.80164,45.92734,45.92734,0,0,0-10.94024,6.93164,93.10954,93.10954,0,0,0-20.85785,24.715,342.23913,342.23913,0,0,1-28.51215,40.81409c-11.75342,14.5126-24.42029,28.15408-38.7746,40.15546a131.35221,131.35221,0,0,1-22.76629,15.74c-6.28955,3.32074-12.8114,5.98742-20.0163,6.56976-8.956.72382-16.09534-2.47754-21.34668-9.79785a35.55906,35.55906,0,0,1-3.59985-6.40955,61.907,61.907,0,0,1-4.10749-13.65277,146.76,146.76,0,0,1-1.99646-33.23685,143.16652,143.16652,0,0,0-.61627-21.64089c-.60516-5.471-1.634-10.85712-4.172-15.82605-3.70617-7.25617-9.59436-10.13114-17.51995-8.61426a45.25693,45.25693,0,0,0-12.52692,4.66873,136.04719,136.04719,0,0,0-20.48236,13.73035c-3.77594,2.95925-3.25537,2.11068-1.97174,6.37a102.1967,102.1967,0,0,1-.61933,62.24561c-1.93,3.191-.865,5.691,1.22657,8.54239a329.6075,329.6075,0,0,1,30.23785,49.97241,12.16461,12.16461,0,0,1,1.65808,3.965,1.61736,1.61736,0,0,1-1.55615.96283,11.20664,11.20664,0,0,1-.7619-1.049c-9.49353-16.71649-21.695-31.30633-35.20026-44.87164-.60345-.60614-1.26269-1.15662-1.8529-1.69385-.26355.12824-.43537.15491-.50122.25275-.63953.95038-1.296,1.892-1.88288,2.87469a93.19214,93.19214,0,0,1-22.98779,26.26093c-18.04611,13.97259-38.49466,20.14538-61.2066,18.02978-18.38132-1.71222-34.51172-9.0318-48.39872-21.17352-26.12564-22.84241-37.08331-57.75-31.57727-90.9259.40164-2.42008.94846-4.81574,1.3732-7.23236.20011-1.13874-.25281-1.688-1.36273-1.60108-5.18033.40592-10.36789.65567-15.53726,1.28229a162.89056,162.89056,0,0,0-57.93488,18.09344c-29.121,15.6225-53.173,37.14817-72.76553,63.67762A189.85361,189.85361,0,0,0,202.52364,582.544c-.37,1.02833-1.21842,2.02765-.59215,3.27326,1.28007.19281,2.14192-.706,3.11471-1.20764a63.7595,63.7595,0,0,1,10.79273-4.4422c9.197-2.77844,18.44244-3.315,27.72647-.51825,3.86522,1.16443,7.72314,2.38775,11.49632,3.817,14.6102,5.5346,28.46924,12.67584,42.21066,20.04522,22.78269,12.218,44.95841,25.49158,67.12717,38.77588,13.25107,7.94055,26.37039,16.10706,39.88721,23.59454,8.21075,4.54816,8.265,4.51319,18.58218,2.73121.28324-.049.55475-.16211.836-.22644a148.50772,148.50772,0,0,0,28.98044-10.07239q19.088-8.7876,37.23279-19.4112a91.53163,91.53163,0,0,1,10.39111-5.337c.92868-.39649,1.85367-.80432,2.76309-1.24286a4.6975,4.6975,0,0,0,2.93939-5.24432c-.55349-3.98951-1.22372-7.94239-4.8222-10.628,7.6907-1.93268,12.47345,1.46722,13.2377,9.25256a13.47591,13.47591,0,0,0,.44147,2.5509c2.99536,9.97717,2.599,19.99542.15057,29.96686a118.8907,118.8907,0,0,1-19.34646,41.32721c-5.3346,7.415-11.63172,13.9715-17.97467,20.51306a55.71138,55.71138,0,0,1-14.21918,10.494,186.95992,186.95992,0,0,1-21.76825,9.61407A553.29592,553.29592,0,0,1,348.7885,765.8389a107.105,107.105,0,0,1-17.61179,2.12439c-9.24127.17077-18.48154.40545-27.7233.54-13.87606.20209-27.72738-.11529-41.46081-2.39959-11.50937-1.91443-22.36322-5.54712-32.25154-11.92523-6.08039-3.92194-11.84912-8.24628-17.55385-12.67371a2.28932,2.28932,0,0,0-1.84232-1.40576ZM208.1693,607.6785a38.60531,38.60531,0,0,0-8.29821,4.554c-1.68536,1.12494-3.33159,2.21186-5.45511,2.36676a2.17193,2.17193,0,0,0-2.09088,2.25006l.00263.05347a85.37054,85.37054,0,0,0,.31369,18.9765c.09952.69745.00194,1.59229.93,2.19324,1.87891-3.96008,3.63979-7.72852,5.44972-11.47321,3.0084-6.22424,6.12331-12.39,10.33721-17.91949.44189-.36347.78727-.77844.22845-1.28162C209.03293,606.89963,208.61868,607.456,208.1693,607.6785Zm4.78227-.97773c2.41755.43628,3.67105,1.98157,4.324,4.27253,1.10555,3.87884,2.31977,7.72717,3.51493,11.58,1.66462,5.36628,3.31674,10.737,5.05658,16.079.479,1.47083.831,3.08551,2.47818,4.21332,6.03907-12.67041,10.94226-25.75934,16.74093-38.46735-9.93742-3.7351-24.266-2.28137-32.22111,1.35187a3.65646,3.65646,0,0,0-2.36866.8357.72181.72181,0,0,0-.16671.69677.77021.77021,0,0,0,.6938.26313c.66711-.22162,1.30134-.54212,1.94809-.825ZM531.10579,480.29629c0-2.45449.01556-4.90918-.00842-7.36343a22.04814,22.04814,0,0,0-.181-2.5929c-1.96985-15.295-6.99567-29.47009-15.93244-42.0903-13.9714-19.73007-32.59787-31.99435-56.95593-34.6296a67.08756,67.08756,0,0,0-36.668,6.17773c-17.67648,8.42084-29.68481,22.17841-36.74078,40.25079-7.75855,19.872-7.7732,40.08951-1.32,60.2677,6.4321,20.112,18.40585,36.16568,36.462,47.35312,16.25956,10.07434,33.9599,13.61164,52.749,10.06244,20.08838-3.79468,35.41525-14.92663,46.264-32.14685C527.4687,511.78448,531.31386,496.5517,531.10579,480.29629ZM169.17686,440.25363a93.7453,93.7453,0,0,0,2.22568,20.19943c5.29833,22.46576,17.25516,40.44486,36.35054,53.50641,5.13873,3.515,3.825,3.4559,7.67487-1.1243,28.965-34.46032,64.89-58.22369,108.26484-70.54489.9711-.27585,1.95884-.49548,2.923-.79254,1.37024-.42218,1.64972-.83218,1.56338-2.15817-.02813-.43222-.06958-.865-.13354-1.29328-2.25965-15.12542-7.5314-29.09759-16.84262-41.26406-18.84824-24.6279-43.58829-36.826-74.86322-34.00687-18.93773,1.70706-34.80074,10.04593-47.40694,24.25912-13.53795,15.26371-19.58141,33.40564-19.756,53.21912ZM303.52614,697.47586a9.813,9.813,0,0,0-1.40964,3.68445c-1.10522,5.07477-2.20517,10.15149-3.39352,15.20715a149.28981,149.28981,0,0,1-5.04386,18.35211,20.02315,20.02315,0,0,1-2.25146,4.66388c-2.64,3.72479-6.52857,3.8736-9.33408.25556a21.07376,21.07376,0,0,1-2.561-4.49421q-4.32175-9.91937-8.487-19.907c-4.18045-9.98016-8.30661-19.98309-12.479-29.96661a42.0349,42.0349,0,0,0-1.8851-3.89337c-1.08829-1.99677-1.79826-2.03186-2.91369-.19788a37.019,37.019,0,0,0-3.499,7.90125c-2.39631,7.411-4.66989,14.86157-7.038,22.28173-1.57854,4.946-3.31305,9.84327-4.83373,14.80652-1.25947,4.11072-5.14123,4.724-8.105,1.83484a24.41849,24.41849,0,0,1-4.01325-5.09033c-2.19647-3.7287-4.374-7.4762-6.36452-11.317-4.38371-8.45886-8.23114-17.17321-12.041-25.9024-.36848-.84436-.41465-1.96344-1.60435-2.15662a51.24984,51.24984,0,0,0-1.6116,9.857,105.52481,105.52481,0,0,0-.6149,18.172,4.63769,4.63769,0,0,0,1.54164,3.39478c9.25369,8.52856,18.86111,16.59723,29.54465,23.31659a71.85327,71.85327,0,0,0,24.87155,9.62823A160.01948,160.01948,0,0,0,291.01,750.6896c13.4311-.03625,26.86322-.1195,40.29184-.35589a118.14185,118.14185,0,0,0,12.50476-1.11127c11.3169-1.41235,22.53467-3.44421,33.712-5.69269,20.37244-4.098,40.57819-8.89013,60.478-14.89972a180.07493,180.07493,0,0,0,23.17791-8.37164,11.78166,11.78166,0,0,0,4.11606-2.35852c-3.93738-2.68237-7.74194-5.27612-11.5484-7.86688a152.596,152.596,0,0,0-13.59149-8.47083,44.8352,44.8352,0,0,0-7.49179-3.35852,11.81033,11.81033,0,0,0-3.37842-.67108,1.64363,1.64363,0,0,0-1.87466,1.37427l-.00168.01111c-.16013.84826-.21079,1.7171-.30972,2.5769-.57785,5.02063-1.1717,10.03949-1.7226,15.06305a10.803,10.803,0,0,1-1.02023,3.74133,3.25834,3.25834,0,0,1-4.04145,1.63215,6.08682,6.08682,0,0,1-2.20544-1.29291c-1.764-1.70148-3.51471-3.43293-5.10666-5.29309-2.441-2.85212-4.7232-5.83954-7.11413-8.73536a46.68017,46.68017,0,0,0-6.28693-6.5617c-.75156-.61524-1.45969-1.42633-2.63312-1.15027a17.43879,17.43879,0,0,0-1.1427,5.92572c-.28125,5.3374-.59262,10.67334-.83581,16.01245a21.04318,21.04318,0,0,1-.87543,5.97864,10.88626,10.88626,0,0,1-5.42828,6.45727,6.98952,6.98952,0,0,1-8.70344-1.35333c-1.80175-1.87-3.41043-3.92468-5.14358-5.86267q-6.49914-7.26709-13.04053-14.49621a27.68266,27.68266,0,0,0-2.47436-2.42573,2.56083,2.56083,0,0,0-3.86878-.02136,9.27669,9.27669,0,0,0-2.977,6.06128,89.69888,89.69888,0,0,1-5.15741,18.74347,58.05392,58.05392,0,0,1-2.79162,5.85028,8.59253,8.59253,0,0,1-2.52262,2.9361,4.37035,4.37035,0,0,1-5.90255-.33814,20.519,20.519,0,0,1-2.20731-2.66607c-2.79279-3.861-5.58578-7.7226-8.31845-11.62616-6.29382-8.99054-12.53857-18.01544-18.84152-26.99951a11.0663,11.0663,0,0,0-3.2063-3.59821ZM301.3427,639.704c-1.04782.73822-2.086,1.47174-3.12644,2.202a19.39845,19.39845,0,0,1-4.86157,2.78515c-3.71417,1.24957-6.88675.28058-9.08331-2.95483a20.60473,20.60473,0,0,1-1.934-3.854c-2.33081-5.75293-4.23041-11.65741-6.05515-17.58648-.33951-1.10315-.62045-2.23041-1.04452-3.30036-1.138-2.87146-1.48648-4.52569-5.72571-2.877-2.14972.83606-4.2956,1.68555-6.46918,2.45544a28.20244,28.20244,0,0,1-4.54884,1.35431c-2.91045.502-5.4442-.17944-7.13195-2.87652-.61178-.97773-1.28213-1.92151-1.96986-2.848-.71684-.96569-1.39632-.92749-1.85448.14191q-4.77147,11.13785-9.49641,22.29547a1.66579,1.66579,0,0,0-.24538.818c.07268.3877.21511.92719.50031,1.07953a20.58173,20.58173,0,0,0,2.779,1.16211c5.29829,1.89557,10.54231,3.92884,15.63061,6.336a52.40337,52.40337,0,0,1,10.04478,5.93067,15.52384,15.52384,0,0,1,4.30375,4.79864,6.487,6.487,0,0,1,.19281,6.22015,24.35,24.35,0,0,1-3.37909,5.01038,82.59177,82.59177,0,0,1-7.90943,8.002c-.69626.63678-1.12655,1.27362-.30706,2.17548a21.04574,21.04574,0,0,1,3.41949,5.99023q3.19408,7.3407,6.27045,14.73255c4.7182,11.3175,9.392,22.65362,14.12256,33.966a48.69178,48.69178,0,0,0,2.34576,4.62305.9292.9292,0,0,0,1.69665-.11829,45.04824,45.04824,0,0,0,3.39658-9.79138c1.9697-7.68359,3.90027-15.37848,5.38358-23.17847.37582-1.97638,1.00555-3.90771,1.57824-5.842a8.695,8.695,0,0,1,1.88919-3.375,4.67216,4.67216,0,0,1,6.24241-.95068,10.79208,10.79208,0,0,1,3.09979,2.98126c1.467,1.967,2.91272,3.94989,4.38135,5.91565.32659.43713.60318,1.03394,1.3461.72546,2.59274-18.36077-4.37092-46.45629-13.48108-62.14843Zm-21.37741-26.54486a202.84087,202.84087,0,0,0,7.55081,23.20044c.229.52893.45666,1.06213.73657,1.56469,1.06531,1.913,2.32761,2.31073,4.30981,1.24573a21.92869,21.92869,0,0,0,2.87293-1.92926c2.41022-1.83911,4.77649-3.73565,7.184-5.57831a33.19814,33.19814,0,0,1,3.52756-2.499c4.06439-2.34015,7.36-1.25134,9.0148,3.10358a63.87449,63.87449,0,0,1,1.80749,6.6748c1.05127,4.04706,1.9451,8.14215,3.17389,12.13428,1.48715,4.83154,2.13562,5.04694,6.77,3.03387,3.43817-1.4934,6.83612-3.07946,10.27313-4.57556a19.92658,19.92658,0,0,1,6.25986-1.60022,10.45156,10.45156,0,0,1,9.24493,3.73493,34.05694,34.05694,0,0,1,4.02,6.14752c1.53824,2.77612,3.0593,5.5636,4.67853,8.29224a13.541,13.541,0,0,0,2.17026,2.67047,1.86164,1.86164,0,0,0,2.38861.28625,10.00188,10.00188,0,0,0,2.12924-1.45117,84.06531,84.06531,0,0,0,8.30478-10.42645c-29.9696-19.31263-62.48428-32.44977-96.4172-44.02875ZM233.425,722.82449c1.53893-2.74286,11.07665-33.12719,11.30667-36.01971-2.87144,1.70868-21.15533,14.9845-22.64947,16.44574C224.75325,710.517,230.25467,720.01059,233.425,722.82449Zm-16.44479-93.7799c-1.42149-4.9527-2.55712-9.81171-4.417-14.57288a28.62894,28.62894,0,0,0-6.68074,11.76489c2.85545.91339,5.722,1.85193,8.60511,2.73615a3.04322,3.04322,0,0,0,2.49263.07184Zm35.09088-23.51392a8.13649,8.13649,0,0,0,.5009,1.48028c.90924,1.46155,1.81912,2.92634,2.81245,4.33069,1.02091,1.44342,1.58532,1.66059,3.3,1.06421,2.38646-.8302,4.72163-1.808,7.75667-2.98565A69.61868,69.61868,0,0,0,252.07109,605.53067Z"/><path class="cls-2" d="M311.77553,1064.45608a2.13351,2.13351,0,0,0-1.44315-.82617c-8.92-2.19458-15.121-9.2605-15.81274-19.81494-.04718-.72-.026-1.44458-.02655-2.16711q-.02655-36.632-.04352-73.26392a24.71016,24.71016,0,0,1,.49386-5.58606,17.16874,17.16874,0,0,1,16.37034-13.0014c6.34985.18084,12.70919.0235,19.06436.02289q28.81516-.003,57.63031.00054a21.65643,21.65643,0,0,1,7.68277.98511,16.0517,16.0517,0,0,1,10.704,14.41156c.03131.57691.0325,1.1554.05041,1.7331.62229,20.07147.53974,40.1499.58246,60.227.01013,4.76867-.01959,9.53772.03409,14.30578a26.9664,26.9664,0,0,1-1.22467,8.10132,19.76626,19.76626,0,0,1-12.55683,13.365c-1.17034.44373-2.63577.30212-3.48541,1.50745Zm51.023-57.30926h.04794q0-12.78059-.00034-25.56128c-.00054-4.47687.02756-8.954-.01974-13.43048-.024-2.27478-.28586-2.55426-2.47916-2.57269-5.48477-.04615-10.97018-.02265-16.45532-.02192-5.55545.00086-5.11322-.36145-5.118,5.17731q-.03076,35.95926-.04947,71.91828c-.00076,1.15539-.02716,2.31164.01309,3.46582.07892,2.262.31092,2.55859,2.48841,2.57434,5.9179.0426,11.83633.03576,17.75445.014,3.77036-.01391,3.80618-.04138,3.81156-3.87133q.0264-18.846.00662-37.69214Zm65.13977,57.30926c.02682-1.44274.0766-2.88525.07712-4.328q.01844-52.4177.02963-104.83545c.0021-5.86847-.46079-5.47333,5.274-5.47363q43.51651-.00247,87.033.00128c1.29888.00012,2.59777.0285,3.89672.03217A16.18975,16.18975,0,0,1,539.92464,965.294c.00451.28858.0346.57679.03949.86542.16186,9.52075.42718,19.0412.4613,28.56256.07819,21.80426.04059,43.609.061,65.41358.00135,1.44018.096,2.88037.14716,4.32055H496.42235c-.025-1.87548-.072-3.751-.07175-5.62646q.00728-43.94129.02234-87.88263c.00021-1.29736-.01444-2.5965-.08487-3.89142a1.38281,1.38281,0,0,0-1.35287-1.39941c-1.00351-.082-2.01484-.09082-3.02283-.09265q-7.13983-.01292-14.2796-.00177c-5.765.01239-5.33335-.49463-5.33561,5.388q-.01689,43.94138-.02978,87.88256c-.001,1.87452-.07684,3.74927-.11783,5.62378Z"/><path class="cls-3" d="M590.91292,1064.45608c.05-2.45056.13989-4.901.14325-7.35168.01544-11.26709-.02991-22.5343.03338-33.80115a19.62687,19.62687,0,0,0-1.44067-7.562q-17.80609-44.63535-35.46845-89.328c-.62011-1.56677-1.71264-3.04749-1.3717-4.86786a4.64585,4.64585,0,0,1,2.98029-.48847q20.35765-.01812,40.71551-.00878c.43311,0,.86743.024,1.2992.00085a2.63127,2.63127,0,0,1,2.87359,2.0141c3.932,10.08356,7.9607,20.12939,11.95331,30.18933q7.26681,18.31,14.53052,36.62091c.42431,1.068.87488,2.13031,1.39856,3.15167a.59088.59088,0,0,0,1.02887.08478,28.31452,28.31452,0,0,0,1.40374-3.1499q12.45868-31.8524,24.91645-63.70526c2.402-6.11377,1.02691-5.118,7.62115-5.1966,3.89746-.04644,7.79633-.018,11.69391.03217,1.4071.01813,1.77252.61572,1.30823,1.9668-.328.95471-.73566,1.88208-1.104,2.82293q-17.67433,45.15327-35.37854,90.29468a18.72518,18.72518,0,0,0-1.38232,7.13452c.07159,11.84448.04083,23.68945.02081,35.5343-.00268,1.58057-.15228,3.16077-.23382,4.74121l-32.30188-.00036q-5.38377,0-10.76734.00171c-1.00268.00073-2.034-.07679-2.73816.87Zm-394.43329,0c.06439-3.60449.18783-7.209.18408-10.81335q-.05688-54.8313-.152-109.6626c-.009-5.68451.4976-5.10687-5.09575-5.11981-8.37611-.01929-16.75229-.00421-25.12845-.00592-1.15524-.00031-2.31174.01813-3.46545-.02765-1.522-.06036-1.90258-.3468-1.91817-1.7027q-.08221-7.15073-.04938-14.30285c.00545-1.34162.41619-1.67359,1.89455-1.73774,1.15341-.05017,2.31-.03418,3.46522-.03418q54.1562-.002,108.31237.00678c5.99933.00275,5.369-.63123,5.40912,5.245.02465,3.61158.02587,7.22327.02182,10.835a1.45435,1.45435,0,0,1-1.52622,1.6679q-1.73136.04881-3.46408.04932-12.99752.006-25.995.007c-1.15228.00128-2.30647.03876-3.456.11633a1.12891,1.12891,0,0,0-1.09045,1.12964c-.07936,1.2948-.11159,2.59448-.11016,3.89215q.06483,58.08216.13427,116.16419c.00149,1.4342.25251,2.89343-.29168,4.2937Z"/><path class="cls-4" d="M592.64668,1064.45608c.7041-.94665,1.73548-.86914,2.73816-.87q5.38375-.00421,10.76734-.00171,16.151,0,32.30188.00037.06884.4356.13757.87133Z"/><path class="cls-5" d="M405.48726,21.82359a3.46737,3.46737,0,0,1-.088-.72427H414.935q-.06948.39423-.10052.79333Q410.16234,21.85826,405.48726,21.82359Z"/><path class="cls-6" d="M820.76613,378.05035c-.43152-1.98669.20691-3.83459.73858-5.69626v6.07108Q821.13374,378.24124,820.76613,378.05035Z"/><path class="cls-4" d="M821.50471,355.00818a3.10259,3.10259,0,0,1-.78643-3.17636c.26239-.09488.52447-.19382.78643-.29279ZM183.52724,204.31128c-.27338.4882-.52889.9875-.82325,1.46269-1.202,1.94048-1.18861,2.14362.31412,3.60489,1.348,1.31088,1.7431,1.33018,3.22452.15977q.65042-.51384,1.30167-1.02337c1.18829,2.24324,3.25993,3.6096,5.18121,5.08572,6.01712,4.62287,12.88652,7.48454,20.13695,9.514a100.81677,100.81677,0,0,0,21.68528,3.30144,136.64977,136.64977,0,0,0,21.10382-.31336q-.04808.6373-.09236,1.27336a187.49454,187.49454,0,0,0-32.01678,10.56577,108.97542,108.97542,0,0,0-28.23952,17.49574c-9.99927,8.77165-17.33151,19.29781-20.75444,32.30577a67.48868,67.48868,0,0,0-1.84987,24.47025,109.67879,109.67879,0,0,0,6.95969,28.06973c.57071,1.48074,1.08157,2.98459,1.62012,4.47775l-.32012-.09713-.06413.32846c-1.41185-1.09653-2.08719-2.73435-3.02361-4.17206a173.44766,173.44766,0,0,0-25.13758-30.824,114.94808,114.94808,0,0,0-32.2642-22.306,84.81563,84.81563,0,0,0-43.94226-7.10089,100.42516,100.42516,0,0,0-29.97292,8.09754c-1.58543.684-3.20309,1.29318-4.80633,1.93484q-.44454-.57549-.88811-1.14679c3.66727-3.4739,7.43783-6.846,10.98047-10.44272A95.262,95.262,0,0,0,70.395,253.06348a61.97875,61.97875,0,0,0,6.1952-25.05277,59.89336,59.89336,0,0,0-4.871-24.89925c-4.05-9.71388-9.9634-18.20883-16.85175-26.08877-1.40732-1.60993-3.21019-2.91171-4.064-4.97791l.20274-.18815c1.43744-.115,2.385.90745,3.48842,1.53721A109.654,109.654,0,0,0,81.964,184.91069c24.42311,6.16789,46.30417.90239,65.81452-14.79413,10.92592-8.79018,19.59485-19.565,27.13466-31.29614,2.26306-3.52107,4.332-7.16706,6.48932-10.75616a11.29852,11.29852,0,0,1,2.11229-3.22962c.03665.35675.07371.70988.11079,1.063-1.58959,5.09446-3.27106,10.16239-4.74858,15.28919a113.54128,113.54128,0,0,0-4.50592,27.71451,70.59389,70.59389,0,0,0,1.43989,17.65757,48.53314,48.53314,0,0,0,7.71622,17.75238Zm-119.618,71.84833c1.52666.20083,2.80432-.61979,4.1406-1.09446a108.02919,108.02919,0,0,1,17.11037-4.64727,65.222,65.222,0,0,1,19.39863-.868,57.721,57.721,0,0,1,27.7214,11.384,126.14061,126.14061,0,0,1,18.70122,17.377c4.63662,5.15485,9.11355,10.45325,13.70166,15.65232.57867.65573.92283,1.82666,2.21376,1.52649a6.69279,6.69279,0,0,0-.28887-3.02366c-1.64024-8.54217-2.55554-17.09439-1.53274-25.832a52.0021,52.0021,0,0,1,19.03859-35.2783c6.96652-5.78639,14.88017-9.92429,23.18931-13.34366,4.66875-1.92126,9.44686-3.57542,14.157-5.39838.68249-.26414,1.76782-.22535,1.687-1.54838a90.45543,90.45543,0,0,1-12.95842-.93614c-8.21117-1.12693-16.14966-3.179-23.48066-7.1509-11.78732-6.38634-18.92949-16.23013-21.464-29.38363a67.36309,67.36309,0,0,1,.48965-26.25716c.19036-.94652.696-1.88222.15291-2.87761-1.06965.04172-1.36657.97292-1.86755,1.628-2.01785,2.63868-3.91879,5.37133-6.01879,7.94183a80.8802,80.8802,0,0,1-20.53053,18.44836,52.514,52.514,0,0,1-30.12431,7.92519,62.28448,62.28448,0,0,1-22.60709-5.44887c-3.68846-1.63838-7.288-3.47717-10.92962-5.22024-.31932-.25695-.72253-.6079-1.05233-.21985-.35424.41676.06311.69827.43656.89068.846,1.15258,1.65339,2.33605,2.5449,3.45224A63.93854,63.93854,0,0,1,84.343,207.77066a47.02056,47.02056,0,0,1,4.28657,22.66922,54.10848,54.10848,0,0,1-6.46864,21.76263A84.70724,84.70724,0,0,1,68.0406,271.19c-1.4806,1.53351-3.36931,2.69919-4.359,4.69339a8.04494,8.04494,0,0,0-.78078.28827c-.114.05463-.18643.1958-.27771.29776.10567.09323.20215.25177.31861.26813.46074.06485.85048-.04224.96751-.57785Z"/><path class="cls-7" d="M405.48726,21.82359q4.67436.03461,9.3472.06906c1.68362.39377,3.38348.73351,5.05142,1.18993a37.99833,37.99833,0,0,1-1.437,73.634c-23.97629,5.33719-43.55719-11.81009-46.301-31.77955-2.49225-18.13871,9.02841-37.61328,29.11325-42.191,1.4058-.32045,2.81729-.61553,4.22611-.92239Zm32.21,38.08772a30.60443,30.60443,0,1,0-30.706,30.50257l.05648.00014a30.51017,30.51017,0,0,0,30.6492-30.3705l.00031-.13221Z"/><path class="cls-8" d="M317.84242,376.17465l-.05408.214c-.09246-1.09677-.91107-1.75473-1.5502-2.51462-13.46142-16.00488-30.30874-26.43539-50.8475-30.63562a84.01792,84.01792,0,0,0-29.68793-.6773,3.99523,3.99523,0,0,1-2.45569.06985c-.27221-.71353.239-1.08331.642-1.44977a48.86,48.86,0,0,1,30.35272-13.11548c23.0441-1.53384,44.62308,11.85544,54.37253,34.58087a57.761,57.761,0,0,1,4.54077,17.50977c.09946,1.07254.014,1.98706-1.01089,2.57736l.09271.08664c.01447-.67825.20554-1.53863-.99408-.96454l.08267.11155c.58136-.85566.35758-1.31809-.90643-1.87345l.07782.10385c.21-1.01819-.47586-1.56421-1.1542-2.07373-.098-.07351-.44193.18082-.672.28345l.04968.07385c.13443-.28628.80689-.34927.37662-.867-.40677-.48938-.83548-.96048-1.25452-1.43964Z"/><path class="cls-7" d="M350.60365,218.58743c-.27072-17.38627,14.6431-32.16669,32.37931-32.04352,15.94354.11074,31.80075,12.994,31.91259,32.15348A32.17539,32.17539,0,0,1,382.793,250.94546q-.06848.00017-.137,0c-18.56045-.03-32.49863-15.56784-32.0524-32.358Zm55.77979-.99656a25.94217,25.94217,0,1,0-51.88257-.428q-.00105.12776-.00086.25555c.06488,16.27429,13.55289,25.9463,25.87354,25.96266,14.15.01879,26.1416-11.76906,26.00992-25.7902Z"/><path class="cls-9" d="M444.32869,225.539c13.80545-.14075,24.74069,11.6775,24.68347,24.88a24.80706,24.80706,0,0,1-49.61374-.19324l.00022-.04214a24.69053,24.69053,0,0,1,24.73522-24.64575Q444.23128,225.53807,444.32869,225.539Zm-.08789,2.62478c-10.91385-.29907-19.86978,9.148-19.98987,19.66048-.10806,9.45889,7.19449,20.15652,19.95374,20.1994a19.93,19.93,0,1,0,.12112-39.85982q-.04252-.00014-.085-.00007Zm-7.14108-91.99013a23.42658,23.42658,0,1,1,46.85235-.27577q.00078.12782.00012.25565a23.42643,23.42643,0,0,1-46.85247.02012Zm40.97854,1.31324c-.06-9.84632-7.62387-19.0389-19.03638-18.95913A18.65841,18.65841,0,0,0,440.291,137.09323q-.00056.10815.00018.21632a18.89376,18.89376,0,0,0,37.78711.17736ZM393.8874,311.501c-.26242-9.709,8.0159-17.41037,17.201-17.44181a17.302,17.302,0,0,1,.2713,34.60193,17.0956,17.0956,0,0,1-17.46826-16.71466Q393.8865,311.72377,393.8874,311.501Zm16.36286,12.3735a13.62161,13.62161,0,0,0,13.82678-13.4133q.002-.13284.00144-.26578a13.76955,13.76955,0,0,0-13.42966-14.10131q-.22842-.00559-.45691-.00358a13.892,13.892,0,0,0,.05832,27.784h0ZM350.53871,121.46614a17.2034,17.2034,0,1,1-.00244.25554Q350.53654,121.59391,350.53871,121.46614Zm18.1225,15.84718a13.87524,13.87524,0,1,0,.17349-27.74994q-.07461-.00046-.14926-.00013a13.87505,13.87505,0,0,0-.02423,27.75007Z"/><path class="cls-6" d="M43.84774,166.00041c-.55527-.09311-1.2319-.01366-1.6471-.30592a113.02939,113.02939,0,0,1-12.4185-10.11182,1.716,1.716,0,0,1-.48482-.69826.58849.58849,0,0,1,.87317-.7464c4.76065,3.72307,9.82,7.1008,13.74711,11.79569Z"/><path class="cls-10" d="M261.47163,225.71538c.35065-.23534.68634-.64751,1.0542-.67861a74.97856,74.97856,0,0,0,10.51837-1.73829,13.12909,13.12909,0,0,1,2.99772-.12479,4.551,4.551,0,0,1,1.92153.41849,26.90958,26.90958,0,0,1-6.1683,1.41556c-3.5307.263-7.02744.98246-10.53729,1.51016q.12579-.39576.21377-.80254Z"/><path class="cls-2" d="M183.62561,125.89764c-.03706-.35312-.07414-.70626-.11079-1.063-.18454-1.77625,1.14347-2.83259,1.98016-4.13771A8.29245,8.29245,0,0,1,183.62561,125.89764Z"/><path class="cls-6" d="M261.47163,225.71536q-.08857.40638-.21377.80257-2.853.42892-5.70117.859c.03262-.42474.06274-.849.09481-1.27385C257.551,225.34352,259.543,226.00519,261.47163,225.71536Z"/><path class="cls-2" d="M181.27832,344.76141c1.1983,1.06546,1.47173,2.55326,2.2081,4.45652-1.82436-1.3-2.55472-2.56431-2.59233-4.22965,0,.00443.06412-.324.06412-.324Z"/><path class="cls-6" d="M40.46222,291.31506a7.612,7.612,0,0,1-1.27482.97492,1.27684,1.27684,0,0,1-1.10811.029c-.62144-.54883.02489-1.00427.36338-1.30774a11.11941,11.11941,0,0,1,1.69756-1.06964Q40.30346,290.627,40.46222,291.31506Z"/><path class="cls-2" d="M25.75919,300.42886a2.896,2.896,0,0,1-1.59348,1.37107c-.18521.0885-.48945-.0723-.73911-.11878.05069-.24237.025-.54983.16585-.71536a2.45665,2.45665,0,0,1,1.94583-.74628Z"/><path class="cls-2" d="M25.53828,300.21951a2.40843,2.40843,0,0,1,2.74916-1.60345l.03056.03009a3.20177,3.20177,0,0,1-2.55891,1.78259Z"/><path class="cls-3" d="M196.521,765.19638q-.84888-.01557-1.69718-.03223.023-1.28383.04488-2.56524c1.10556.53375,1.343,1.59289,1.598,2.64135Z"/><path class="cls-6" d="M36.82394,293.06711a.89562.89562,0,0,1-.833.73742c-.08545.01166-.29418-.20672-.27887-.23855a1.94752,1.94752,0,0,1,.41852-.655C36.38454,292.69519,36.64912,292.787,36.82394,293.06711Z"/><path class="cls-2" d="M21.54155,302.42816c.14215.14832.43518.34235.406.44312a.85874.85874,0,0,1-.90968.64733c-.10966-.00433-.31467-.18472-.30277-.25476a.991.991,0,0,1,.80645-.83572Z"/><path class="cls-9" d="M289.22053,849.13333q-.03885-.701-.07766-1.402l.14508-.17132q.41331.47754.82669.9552C290.06917,849.08694,289.72194,849.22177,289.22053,849.13333Z"/><path class="cls-2" d="M30.88418,296.88992a1.76728,1.76728,0,0,1-1.72222.86728l.01694.01657c.37515-.70376,1.054-.78442,1.7406-.849Z"/><path class="cls-6" d="M44.78682,166.78981c-.51617-.0221-.88775-.21568-.93826-.79024l.069-.06587a1.02919,1.02919,0,0,1,.84552.87891Z"/><path class="cls-4" d="M40.46222,291.31506q-.1599-.68733-.322-1.37344a1.89983,1.89983,0,0,1,.71953-.46567q.44277.57151.88741,1.14624Q41.10518,290.97069,40.46222,291.31506Z"/><path class="cls-2" d="M29.162,297.7572c.01055.57379-.33347.81055-.844.88892l-.03047-.03c.02547-.56867.38221-.78626.8914-.84235Z"/><path class="cls-4" d="M50.80335,172.04472l-.6194-.3616.40311-.38712c.13749.1888.275.3776.41576.5635Z"/><path class="cls-2" d="M30.9195,296.92474l.174-.342-.20936.307Z"/><path class="cls-6" d="M27.47244,152.89186l.71886.30278c-.51044.66611-.58556.04915-.76516-.25986Z"/><path class="cls-6" d="M27.42614,152.93478l-.55917-.40852c.53131-.42262.56456-.02248.60506.366Zm17.337,13.87783.37559.38984c-.08381-.02484-.2039-.02421-.24321-.08027a1.14811,1.14811,0,0,1-.1087-.33234Z"/><path class="cls-11" d="M580.57423,570.84518a12.16439,12.16439,0,0,0-1.65808-3.965,329.60513,329.60513,0,0,0-30.23785-49.97242c-2.09155-2.85131-3.15656-5.35134-1.22656-8.54235a102.19677,102.19677,0,0,0,.61932-62.24561c-1.28363-4.25931-1.8042-3.41077,1.97174-6.37a136.04719,136.04719,0,0,1,20.48236-13.73035,45.25693,45.25693,0,0,1,12.52692-4.66873c7.9256-1.51688,13.81378,1.35809,17.52,8.61425,2.5379,4.969,3.56683,10.35508,4.172,15.82605a143.16669,143.16669,0,0,1,.61628,21.6409,146.75884,146.75884,0,0,0,1.99646,33.23685,61.90644,61.90644,0,0,0,4.10748,13.65277,35.55983,35.55983,0,0,0,3.59985,6.40952c5.25134,7.32031,12.39069,10.5216,21.34668,9.79785,7.2049-.58234,13.72675-3.249,20.0163-6.56976a131.35171,131.35171,0,0,0,22.76629-15.74006c14.35431-12.00137,27.02118-25.64288,38.7746-40.15545a342.24128,342.24128,0,0,0,28.512-40.81415,93.10973,93.10973,0,0,1,20.85784-24.715,45.92823,45.92823,0,0,1,10.94025-6.93164,20.77581,20.77581,0,0,1,7.52625-1.80163,11.00933,11.00933,0,0,1,10.45684,5.69168,29.3088,29.3088,0,0,1,3.61145,11.48163c1.1529,8.24041.49268,16.44665-.50512,24.62878-2.40235,19.69983-7.41547,38.825-12.9187,57.83624-8.70862,30.08448-17.43323,60.164-25.08887,90.541-3.70508,14.70148-7.17676,29.45483-9.7,44.40936a188.62543,188.62543,0,0,0-3.02466,31.88123,84.70853,84.70853,0,0,0,7.16113,34.517,46.5093,46.5093,0,0,1,3.29791,10.27978c1.71814,9.17468.0354,17.80377-4.16088,26.024a57.60623,57.60623,0,0,1-16.48725,19.27081,85.89784,85.89784,0,0,1-33.07086,15.53912c-21.79211,5.231-43.269,3.55787-64.44055-3.42712a7.07869,7.07869,0,0,1-3.1853-2.11847c-3.156-3.5719-6.37665-7.08661-9.56781-10.62744-1.60535-1.78131-1.62824-1.8172.01312-3.50781,21.63965-22.288,38.24072-48.07636,52.40881-75.54865a48.2486,48.2486,0,0,0,3.92981-8.64123,74.31737,74.31737,0,0,0,7.14282-18.90717,7.8152,7.8152,0,0,0,.27478-3.98163c-1.35516,3.7572-2.53967,7.45105-4.01678,11.02375-1.539,3.72216-3.364,7.32574-5.05,10.98754a3.72957,3.72957,0,0,0-.17309.83985,3.42822,3.42822,0,0,0-.583.62073c-9.2273,16.69854-21.21778,31.27124-34.48487,44.85882A364.204,364.204,0,0,1,617.541,734.8782c-.55865.457-1.11108.92243-1.68231,1.36316a1.40047,1.40047,0,0,1-1.94214-.07153c-.99536-.83588-2.00586-1.65375-3.0141-2.47412a119.96016,119.96016,0,0,0-27.81537-17.40015,79.83844,79.83844,0,0,0-16.89862-5.28583,6.89111,6.89111,0,0,0-1.27972-.16821,1.0201,1.0201,0,0,0-.9347.734,1.19222,1.19222,0,0,0,.24134,1.55511,8.55307,8.55307,0,0,0,1.9508.90229A83.96,83.96,0,0,1,588.706,726.744a164.5297,164.5297,0,0,1,26.7229,26.47149c12.80774,15.54407,23.64038,32.42041,33.517,49.93219q11.70867,20.76,21.32635,42.57514c.68927,1.56,1.64215,3.05157,1.74463,4.989-3.70355,1.19013-7.57983,1.445-11.38263,1.94049a471.95725,471.95725,0,0,1-62.61975,4.02112,357.0683,357.0683,0,0,1-40.19873-2.15863c-19.85089-2.31458-39.31165-6.27924-57.90836-13.84314-2.1361-.8689-4.22772-1.84869-6.32757-2.80432a.79614.79614,0,0,1-.02213-1.38989c1.08451-.71509,2.19916-1.384,3.29581-2.081a215.48723,215.48723,0,0,0,40.16989-32.80218c.69226-.72217,1.29126-1.53369,1.9336-2.3039a13.60908,13.60908,0,0,0,3.50366-3.59381c.32239-.4035.16455-.73718-.14368-1.05163.18756.30572.43079.386.60053.14886.08288-.11578-.005-.3537-.01545-.53631q-.26247.24435-.5252.48858a8.12421,8.12421,0,0,0-3.73139,2.692c-1.43542.9599-2.89245,1.88916-4.303,2.88422-25.775,18.18273-53.54409,32.32025-83.78033,41.50079a220.42589,220.42589,0,0,1-63.48541,9.88171c-30.45447.11048-59.63416-5.72992-86.91208-19.76635-16.93613-8.71479-32.06479-19.95282-45.97714-32.90253a204.36968,204.36968,0,0,1-42.5129-55.36926c-.3334-.63971-.64448-1.291-.96513-1.93573q.73983-.11207,1.478-.22626c5.70472,4.42743,11.47346,8.75177,17.55383,12.6737,9.88832,6.37812,20.74217,10.01081,32.25155,11.92524,13.73343,2.2843,27.58475,2.60174,41.46082,2.39959,9.24176-.13458,18.482-.3692,27.7233-.54a107.10586,107.10586,0,0,0,17.61178-2.12439,553.29566,553.29566,0,0,0,92.92224-25.66938,186.96087,186.96087,0,0,0,21.76825-9.61407,55.711,55.711,0,0,0,14.21918-10.494c6.343-6.54157,12.64008-13.098,17.97467-20.51306a118.89079,118.89079,0,0,0,19.3465-41.32721c2.44836-9.97144,2.84479-19.98969-.15058-29.96686a13.47668,13.47668,0,0,1-.44146-2.5509c-.76425-7.78534-5.547-11.18524-13.2377-9.25257,3.59851,2.68561,4.2687,6.63849,4.8222,10.628a4.69751,4.69751,0,0,1-2.93939,5.24433c-.90943.4386-1.83441.84637-2.76309,1.24286a91.53177,91.53177,0,0,0-10.39112,5.337,416.18,416.18,0,0,1-37.23279,19.4112,148.50671,148.50671,0,0,1-28.98043,10.07238c-.28131.0644-.5528.17743-.836.22644-10.31714,1.782-10.37143,1.817-18.58219-2.7312-13.51681-7.48748-26.63613-15.654-39.8872-23.59454-22.16877-13.2843-44.34449-26.55786-67.12717-38.77594-13.74142-7.36938-27.60046-14.51056-42.21066-20.04523-3.77318-1.42926-7.63111-2.65258-11.49633-3.817-9.284-2.79682-18.52949-2.2602-27.72647.51825a63.7594,63.7594,0,0,0-10.79272,4.4422c-.97279.50164-1.83466,1.40045-3.11472,1.20764-.62626-1.24561.22216-2.24494.59215-3.27326a189.85432,189.85432,0,0,1,25.89765-48.81176c19.59254-26.52942,43.64456-48.05509,72.76553-63.67759a162.89057,162.89057,0,0,1,57.93487-18.09344c5.16938-.62659,10.35694-.87637,15.53727-1.28229,1.10992-.087,1.56283.46234,1.36273,1.60108-.42475,2.41662-.97156,4.81228-1.3732,7.23236-5.506,33.1759,5.45163,68.08346,31.57727,90.92593,13.887,12.14172,30.01739,19.4613,48.39871,21.17352,22.712,2.11554,43.16049-4.05719,61.20661-18.02978A93.19209,93.19209,0,0,0,538.81917,527.321c.58685-.98272,1.24334-1.92438,1.88287-2.87469.06586-.0979.23767-.12451.50122-.25275.59015.53717,1.24945,1.08765,1.85291,1.69385,13.50531,13.56531,25.70672,28.15515,35.20025,44.87164a11.20674,11.20674,0,0,0,.76191,1.049c.59484,1.27625,1.15374,2.57068,1.79083,3.82538a97.18459,97.18459,0,0,1,5.827,13.63947,16.53658,16.53658,0,0,0,2.56672,7.05236c.14056-2.94708.28991-5.01812-.97614-6.93182-.26782-.81409-.5224-1.63281-.80572-2.44147-1.93317-5.51727-3.82081-11.05432-6.84656-16.10681ZM544.96986,792.99356l-.091.108s.121-.108.116-.107l.08423-.11768ZM684.55421,561.13785l.7212.26379c.83715-1.3031,1.70922-2.5852,2.50628-3.91247q22.519-37.49846,46.11707-74.32651c11.65423-18.08274,23.47223-36.05683,36.31317-53.33005,5.34186-7.1857,10.74579-14.329,17.31561-20.48035.10541-.09869.21045-.19821.309-.30355.95795-1.02411.695-2.116-.635-2.65973a5.71813,5.71813,0,0,0-5.02289.24063,30.88017,30.88017,0,0,0-4.34686,2.80993,56.18051,56.18051,0,0,0-7.40619,7.275c-6.71917,7.5679-12.75421,15.67859-18.80267,23.77606-11.40534,15.26913-22.672,30.64368-34.81665,45.34479A308.46806,308.46806,0,0,1,686.01991,518.672c-10.33215,9.33-21.3836,17.62231-34.29889,23.14575-.46051.197-1.302.28961-1.313,1.21149.78791-.04529,1.51355-.0401,2.22571-.1355a53.39815,53.39815,0,0,1,15.53125.28582,24.728,24.728,0,0,1,9.72309,3.42371,14.02225,14.02225,0,0,1,6.65112,11.08093C684.64046,558.82687,684.55421,559.98624,684.55421,561.13785ZM671.59334,752.85861c2.05511.33557,3.98315-.21081,5.92846-.44507a101.95465,101.95465,0,0,0,46.009-17.69128A46.45138,46.45138,0,0,0,730.514,728.911a24.77815,24.77815,0,0,0,7.02942-14.53479,129.10626,129.10626,0,0,0,.58112-22.49475c-.02326-.53558.41351-1.40192-.6214-1.70722a10.60253,10.60253,0,0,0-.71143,1.63062c-2.20129,8.90033-6.81164,16.48657-12.69885,23.379a87.788,87.788,0,0,1-13.26679,12.41388,321.962,321.962,0,0,1-30.62036,20.4057c-2.09411,1.26312-4.35821,2.24579-6.554,3.33752-.7403.36811-1.6012.54621-2.05847,1.51758ZM646.28615,543.80814a28.557,28.557,0,0,0-13.53015,2.85852C637.89241,547.00992,642.08363,545.463,646.28615,543.80814Z"/><path class="cls-5" d="M531.10579,480.29626c.20807,16.25541-3.63709,31.48816-12.33154,45.28867-10.84876,17.22021-26.17563,28.35217-46.264,32.14685-18.78913,3.54926-36.48947.0119-52.749-10.06244-18.05619-11.18738-30.02994-27.24109-36.462-47.35309-6.45322-20.17819-6.43857-40.39572,1.32-60.2677,7.056-18.07239,19.0643-31.83,36.74081-40.25079a67.08743,67.08743,0,0,1,36.668-6.17777c24.35806,2.63526,42.98453,14.89951,56.95593,34.62961,8.93677,12.62024,13.96259,26.79529,15.93244,42.0903a22.04814,22.04814,0,0,1,.181,2.5929c.02392,2.45425.00836,4.90893.00836,7.36346Zm-97.56723-28.83957c2.57263-.93933,5.15768-1.846,7.71484-2.82571,3.75165-1.43732,3.52378-1.11056,2.07944-4.88992a14.68359,14.68359,0,0,0-4.188-5.973,9.07562,9.07562,0,0,0-12.23141.03741,15.34861,15.34861,0,0,0-4.181,5.977,24.63873,24.63873,0,0,0-1.00556,15.7023,17.89153,17.89153,0,0,0,4.12122,7.99106c4.3107,4.65112,10.03982,4.63742,14.38025.00159a11.11844,11.11844,0,0,0,.83609-.993,21.78741,21.78741,0,0,0,4.10113-13.84249c-.02228-1.02015-.57928-1.40036-1.80014-1.22144-3.28213.481-6.558,1.00455-9.83636,1.51123ZM169.17686,440.2536c.17461-19.81348,6.21807-37.95541,19.756-53.21912,12.60621-14.21319,28.4692-22.55206,47.40693-24.25912,31.27492-2.81915,56.015,9.379,74.86321,34.00687,9.31122,12.16647,14.583,26.13864,16.84262,41.26406.064.42826.10538.861.13354,1.29328.08634,1.326-.19317,1.736-1.56338,2.15817-.9642.29706-1.95194.51669-2.923.79254-43.3749,12.32117-79.29983,36.08454-108.26483,70.54489-3.8498,4.5802-2.53611,4.63929-7.67486,1.1243-19.0954-13.06158-31.05222-31.04065-36.35054-53.50641a93.74472,93.74472,0,0,1-2.22573-20.19943Zm62.46853-29.22815-.03458-1.15271c2.03291-.73636,4.10255-1.38638,6.08858-2.23279,2.08415-.8883,4.46493-1.17291,6.33191-2.89547-.60085-1.53513-1.09766-3.04166-1.77132-4.46433a13.80063,13.80063,0,0,0-3.3633-4.47c-3.925-3.46152-8.6302-3.51688-12.50615-.03546a12.87327,12.87327,0,0,0-2.75879,3.30182c-4.313,7.96878-4.507,16.10388.08034,23.93518,4.6368,7.9158,13.20166,7.68023,17.97476-.22708a23.814,23.814,0,0,0,3.1-12.0134c.02757-1.11069-.50147-1.60855-1.59033-1.45532-3.85422.54248-7.70134,1.13565-11.55115,1.70959Z"/><path class="cls-12" d="M303.52617,697.4758a11.066,11.066,0,0,1,3.20633,3.5982c6.303,8.98407,12.5477,18.009,18.84152,26.99952,2.7327,3.90356,5.52566,7.76513,8.31845,11.62616a20.519,20.519,0,0,0,2.20731,2.66607,4.37035,4.37035,0,0,0,5.90255.33814,8.59253,8.59253,0,0,0,2.52262-2.9361,58.055,58.055,0,0,0,2.79162-5.85028A89.69888,89.69888,0,0,0,352.474,715.174a9.27669,9.27669,0,0,1,2.977-6.06128,2.56061,2.56061,0,0,1,3.86878.02136,27.68391,27.68391,0,0,1,2.47436,2.42572q6.541,7.22947,13.04053,14.49622c1.73318,1.938,3.34183,3.99261,5.14358,5.86267a6.98952,6.98952,0,0,0,8.70344,1.35333,10.88631,10.88631,0,0,0,5.42831-6.45727,21.04424,21.04424,0,0,0,.87543-5.97864c.24322-5.33911.55459-10.67511.83581-16.01245a17.4392,17.4392,0,0,1,1.14273-5.92566c1.17343-.27606,1.88156.535,2.63312,1.15027A46.68017,46.68017,0,0,1,405.884,706.61c2.39093,2.89582,4.67315,5.88324,7.11413,8.73536,1.592,1.86016,3.34262,3.59161,5.10666,5.29309a6.08686,6.08686,0,0,0,2.20545,1.29291,3.25833,3.25833,0,0,0,4.04144-1.63215,10.803,10.803,0,0,0,1.02023-3.74133c.55091-5.02356,1.14472-10.04248,1.7226-15.06305.09893-.85974.14956-1.72864.30972-2.5769a1.6436,1.6436,0,0,1,1.86523-1.387l.01111.00165a11.81026,11.81026,0,0,1,3.37842.67108,44.8352,44.8352,0,0,1,7.49179,3.35852,152.596,152.596,0,0,1,13.59149,8.47083c3.80646,2.59076,7.611,5.18451,11.5484,7.86688a11.7817,11.7817,0,0,1-4.11605,2.35852A180.07764,180.07764,0,0,1,437.99666,728.63c-19.89987,6.00959-40.10562,10.8017-60.478,14.89972-11.17731,2.24848-22.39508,4.28034-33.712,5.69269a118.14227,118.14227,0,0,1-12.50477,1.11127c-13.42865.23639-26.86074.31964-40.29184.35589a160.02117,160.02117,0,0,1-31.00991-2.78314,71.85337,71.85337,0,0,1-24.87154-9.62823c-10.68355-6.7193-20.291-14.788-29.54465-23.31659a4.63769,4.63769,0,0,1-1.54164-3.39478,105.52581,105.52581,0,0,1,.6149-18.172,51.25062,51.25062,0,0,1,1.6116-9.857c1.1897.19324,1.23587,1.31226,1.60436,2.15662,3.80989,8.72925,7.65732,17.44354,12.041,25.9024,1.99046,3.84082,4.168,7.58838,6.36452,11.317a24.41877,24.41877,0,0,0,4.01324,5.09033c2.96375,2.88916,6.84551,2.27588,8.105-1.83484,1.52067-4.96325,3.25518-9.86047,4.83372-14.80652,2.36817-7.42016,4.64174-14.87072,7.03806-22.28173a37.019,37.019,0,0,1,3.499-7.90125c1.11543-1.834,1.82541-1.79889,2.9137.19788a42.03745,42.03745,0,0,1,1.8851,3.89337c4.17238,9.98352,8.29854,19.98651,12.479,29.96661q4.18038,9.98016,8.487,19.907a21.07376,21.07376,0,0,0,2.561,4.49421c2.80554,3.618,6.69409,3.46923,9.33408-.25556a20.02315,20.02315,0,0,0,2.25146-4.66388,149.29381,149.29381,0,0,0,5.04385-18.35211c1.18836-5.05566,2.2883-10.13239,3.39353-15.20715a9.813,9.813,0,0,1,1.40967-3.68445Z"/><path class="cls-6" d="M301.3427,639.704c9.11016,15.69214,16.07379,43.78766,13.48114,62.14819-.74292.30847-1.0195-.28833-1.3461-.72546-1.4686-1.96576-2.91431-3.94867-4.38135-5.91565a10.792,10.792,0,0,0-3.09979-2.98126,4.67213,4.67213,0,0,0-6.2424.95068,8.69487,8.69487,0,0,0-1.8892,3.375c-.57269,1.93439-1.20245,3.86566-1.57824,5.842-1.48331,7.8-3.41388,15.49487-5.38358,23.17847a45.04893,45.04893,0,0,1-3.39657,9.79138.92923.92923,0,0,1-1.69666.11829,48.693,48.693,0,0,1-2.34576-4.623c-4.73059-11.31232-9.40436-22.6485-14.12256-33.966q-3.08052-7.38932-6.27045-14.73255a21.04574,21.04574,0,0,0-3.41949-5.99023c-.81948-.90186-.38919-1.5387.30706-2.17548a82.59177,82.59177,0,0,0,7.90943-8.00195,24.34991,24.34991,0,0,0,3.37909-5.01038,6.487,6.487,0,0,0-.19281-6.22015,15.52408,15.52408,0,0,0-4.30374-4.79865,52.40417,52.40417,0,0,0-10.04477-5.93066c-5.08831-2.4071-10.33232-4.44037-15.63062-6.336a20.58355,20.58355,0,0,1-2.779-1.16211c-.28518-.15228-.42762-.69183-.5003-1.07953a1.66566,1.66566,0,0,1,.24538-.818q4.73949-11.15149,9.49641-22.29547c.45816-1.0694,1.13763-1.10761,1.85448-.14191.68773.92652,1.35808,1.8703,1.96986,2.848,1.68775,2.69709,4.2215,3.37854,7.13194,2.87653a28.203,28.203,0,0,0,4.54886-1.35431c2.17359-.7699,4.31946-1.61938,6.46918-2.45544,4.23923-1.64868,4.58774.00555,5.72571,2.877.42407,1.07.705,2.19721,1.04452,3.30035,1.82474,5.92908,3.72437,11.83356,6.05515,17.58649a20.60564,20.60564,0,0,0,1.934,3.854c2.19656,3.23541,5.36914,4.20446,9.08331,2.95483a19.398,19.398,0,0,0,4.86157-2.78516c1.04041-.73,2.07856-1.46356,3.12638-2.20178ZM205.136,778.22317a233.95133,233.95133,0,0,0,24.36978,28.08771,223.8933,223.8933,0,0,0,19.27045,16.73633,20.57076,20.57076,0,0,0,1.82158,1.13348q.03556.48651.51028.39832a.4476.4476,0,0,0,.40158.48926l.02134.00158q-.10152.458-.20176.91712-11.509,5.47019-23.01793,10.94061-27.13,12.9018-54.26034,25.803c-1.04015.49445-2.08884.97443-3.15512,1.408-.35143.14288-.86737.38019-1.11037-.10083a1.977,1.977,0,0,1-.12135-1.20984,20.50371,20.50371,0,0,1,.64-2.061c3.96733-12.35352,8.43075-24.52869,13.19027-36.59571,6.13686-15.559,12.79725-30.88775,20.2743-45.85309q.68289-.04632,1.36729-.0949Z"/><path class="cls-10" d="M279.96529,613.15921c33.93292,11.579,66.44763,24.71612,96.41729,44.02881a84.06531,84.06531,0,0,1-8.30478,10.42645,10.00188,10.00188,0,0,1-2.12924,1.45117,1.86163,1.86163,0,0,1-2.38861-.28625,13.54168,13.54168,0,0,1-2.17026-2.67047c-1.61923-2.7287-3.14029-5.51612-4.67852-8.29224a34.05748,34.05748,0,0,0-4.02-6.14752,10.45159,10.45159,0,0,0-9.24494-3.73493,19.92645,19.92645,0,0,0-6.25985,1.60022c-3.437,1.4961-6.835,3.08216-10.27314,4.57556-4.6344,2.013-5.28286,1.79767-6.77-3.03387-1.22879-3.99207-2.12262-8.08716-3.17389-12.13428a63.87449,63.87449,0,0,0-1.80749-6.6748c-1.65479-4.35492-4.95038-5.44367-9.0148-3.10358a33.19781,33.19781,0,0,0-3.52756,2.499c-2.4075,1.84265-4.7738,3.73919-7.184,5.5783a21.92859,21.92859,0,0,1-2.87292,1.92926c-1.98218,1.065-3.24451.6673-4.30982-1.24572-.27991-.50251-.50757-1.03577-.73657-1.5647a202.8433,202.8433,0,0,1-7.5509-23.20044ZM212.84512,605.73c7.9551-3.63324,22.28371-5.087,32.22112-1.35187-5.79868,12.708-10.70188,25.79694-16.74094,38.46735-1.64722-1.12781-1.99917-2.74249-2.47818-4.21332-1.73984-5.34192-3.392-10.71265-5.05658-16.079-1.19516-3.85278-2.40938-7.70111-3.51492-11.58-.653-2.29095-1.90646-3.83624-4.32295-4.27264Q212.9,606.2153,212.84512,605.73Z"/><path class="cls-6" d="M233.425,722.82449c-3.17033-2.8139-8.67175-12.30749-11.3428-19.574,1.49415-1.46124,19.778-14.73706,22.64947-16.44574-.23,2.89252-9.76774,33.27691-11.30667,36.01977Z"/><path class="cls-10" d="M209.35854,608.6799c-4.2141,5.52936-7.329,11.69513-10.33739,17.91943-1.80994,3.74469-3.57082,7.51313-5.44972,11.47321-.928-.601-.83046-1.49579-.93-2.19324a85.37054,85.37054,0,0,1-.31369-18.9765,2.17191,2.17191,0,0,1,2.03478-2.3009l.05348-.00263c2.12352-.1549,3.76974-1.24182,5.45511-2.36676a38.60524,38.60524,0,0,1,8.2982-4.554Z"/><path class="cls-6" d="M216.98019,629.04459a3.0431,3.0431,0,0,1-2.49258-.07184c-2.88315-.88416-5.74967-1.82276-8.60512-2.73615a28.62905,28.62905,0,0,1,6.68074-11.76489c1.85983,4.76117,2.99545,9.62018,4.41695,14.57288Z"/><path class="cls-10" d="M252.07107,605.53067a69.61842,69.61842,0,0,1,14.37,3.88953c-3.035,1.17767-5.37021,2.15545-7.75666,2.98565-1.71467.59638-2.27907.37915-3.3-1.06421-.99335-1.40435-1.90321-2.86914-2.81246-4.33069a8.138,8.138,0,0,1-.50088-1.48028Z"/><path class="cls-9" d="M682.7112,661.9935a3.72937,3.72937,0,0,1,.17309-.83984c1.6861-3.66181,3.511-7.26539,5.05-10.98755,1.47717-3.5727,2.66168-7.26654,4.01678-11.02375a7.81508,7.81508,0,0,1-.27478,3.98163,74.31737,74.31737,0,0,1-7.14282,18.90717q-.91113-.01877-1.82232-.0376ZM580.57429,570.84518c3.02582,5.05249,4.91346,10.58954,6.8465,16.10681.28333.80866.5379,1.62732.80548,2.44056q-.7954-.06079-1.59033-.11963a97.18346,97.18346,0,0,0-5.827-13.63947c-.63708-1.2547-1.196-2.54919-1.79083-3.82538a1.61736,1.61736,0,0,0,1.55615-.96283ZM538.6454,797.43808a8.12454,8.12454,0,0,1,3.73138-2.692l-.05993-.10174c.30829.31512.46606.6488.14374,1.0523a13.609,13.609,0,0,1-3.50367,3.59381q-.15564-.92586-.31146-1.85235Z"/><path class="cls-5" d="M212.84512,605.73q.05434.48532.10755.97064c-.64783.283-1.282.60346-1.94913.825a.77018.77018,0,0,1-.6938-.26312.72182.72182,0,0,1,.16671-.69678,3.65645,3.65645,0,0,1,2.36866-.83569Z"/><path class="cls-3" d="M205.136,778.22317q-.684.04808-1.36732.095-.16093-1.34884-.32328-2.69543l-.04843.05048a3.7875,3.7875,0,0,1,1.739,2.55Zm-3.46306-5.15985a4.77315,4.77315,0,0,1,1.72382,2.60993l.04858-.05048c-1.482-.27063-1.80862-1.30554-1.72555-2.61127Zm-5.20622-7.82312a4.472,4.472,0,0,1,1.74512,2.59149l.05131-.04022c-1.5666-.20208-1.85183-1.26574-1.74244-2.59479Z"/><path class="cls-13" d="M318.67061,378.40747c.23013-.10263.57406-.357.672-.28345.67838.50949,1.36417,1.05554,1.15418,2.0737-.1087.08985-.21451.254-.32651.2583-1.03784.04026-1.70328-.8811-1.49969-2.04852Z"/><path class="cls-3" d="M212.18735,741.50479q-.73856.11361-1.478.22626a1.23546,1.23546,0,0,1-.33441-1.66516l-.0296.03289A2.29016,2.29016,0,0,1,212.18735,741.50479Z"/><path class="cls-9" d="M282.23891,844.25009c-.9505-.063-1.9599.04565-2.6084-.89624l.13647-.139c.94879.05561,1.94794-.04211,2.61786.86139Z"/><path class="cls-13" d="M317.84242,376.17465c.419.47919.84775.95029,1.25449,1.43973.43027.51767-.24219.58066-.37662.867a1.44392,1.44392,0,0,1-1.676-1.16653l-.00827-.05161C316.88585,376.53741,317.45647,376.44781,317.84242,376.17465Z"/><path class="cls-9" d="M289.14284,847.73135a2.18215,2.18215,0,0,1-1.73383-.86718l.14478-.171a2.0467,2.0467,0,0,1,1.73382.86743Z"/><path class="cls-9" d="M285.82149,845.824a2.04954,2.04954,0,0,1,1.732.86982l-.14444.17035a2.19362,2.19362,0,0,1-1.73886-.86115Z"/><path class="cls-9" d="M284.08821,844.95572a2.05806,2.05806,0,0,1,1.733.86877l-.151.17853a2.212,2.212,0,0,1-1.73657-.86444Z"/><path class="cls-3" d="M198.21182,767.83169a2.114,2.114,0,0,1,.8519,1.749l.05424-.04651c-.92008-.26825-.91578-.99133-.85542-1.74219Z"/><path class="cls-3" d="M199.96249,771.28482a1.79162,1.79162,0,0,1-.84472-1.75037l-.05407.04621c.83863.31561.89039,1.01355.85219,1.75518Z"/><path class="cls-9" d="M283.93358,845.13858a2.10888,2.10888,0,0,1-1.69431-.88922l.14554-.17316a2.13512,2.13512,0,0,1,1.70306.88Zm-5.172-2.62177a2.15494,2.15494,0,0,1-1.77432-.83477l.17706-.21112a2.078,2.078,0,0,1,1.75006.891Z"/><path class="cls-13" d="M320.419,380.0939c1.264.55536,1.48779,1.01779.90643,1.87345C319.99342,381.39282,319.791,380.97424,320.419,380.0939Z"/><path class="cls-9" d="M276.9872,841.682a7.182,7.182,0,0,1-.80173-.21161c-.11606-.04395-.29126-.21509-.2728-.28308a.4051.4051,0,0,1,.65265-.27307,3.83909,3.83909,0,0,1,.5986.55731Zm-5.88837-3.68378a2.1341,2.1341,0,0,1,1.75339.89185l-.16727.17077a2.19973,2.19973,0,0,1-1.77359-.83685Z"/><path class="cls-9" d="M270.91139,838.224a2.42865,2.42865,0,0,1-1.7334-.86853l.1933-.2323a2.10248,2.10248,0,0,1,1.72727.87567Z"/><path class="cls-9" d="M267.63933,836.26779a2.03806,2.03806,0,0,1,1.73172.8559l-.19306.23175a2.222,2.222,0,0,1-1.69381-.93048Zm-1.01911-.68524a2.02254,2.02254,0,0,1-1.74414-.886l.16489-.1662a2.02971,2.02971,0,0,1,1.74435.88575Zm-4.17984-2.80127a2.092,2.092,0,0,1,1.74091.90308l-.1626.16424a2.21964,2.21964,0,0,1-1.78409-.81879Z"/><path class="cls-9" d="M260.7083,831.9274a2.0197,2.0197,0,0,1,1.73184.85431l-.20554.2481a2.25569,2.25569,0,0,1-1.68533-.94158Zm-1.0253-.67884a2.05107,2.05107,0,0,1-1.73415-.89538l.1581-.16a1.99975,1.99975,0,0,1,1.751.87939Zm-5.03449-3.66821a2.08547,2.08547,0,0,1,1.74655.88782l-.19119.19269a2.07645,2.07645,0,0,1-1.73836-.89618Z"/><path class="cls-9" d="M253.78493,826.70059q.43112.44083.86291.88062l-.18233.18341q-.44653-.42564-.89131-.85242Zm3.29686,2.81439q-.43844-.42792-.87737-.855l.19064-.19189q.43335.43332.86414.86859Z"/><path class="cls-9" d="M257.94881,830.35318q-.43284-.42-.86638-.839l.1768-.17731q.424.42848.84691.85736Zm-4.37459-3.44092-.3026-.50574q.25635.1475.513.29462Zm6.28367,4.16034q.42435.42856.84961.856l-.15823.15979q-.43336-.42022-.86563-.8407Zm-8.52865-5.08563q.10052-.45878.2017-.91712a3.55548,3.55548,0,0,1,.10355.69373C251.63232,825.84085,251.43655,825.91269,251.32924,825.987Zm-.22119-1.408q-.47449.08826-.51029-.39832A1.14525,1.14525,0,0,1,251.10805,824.579Zm13.07324,9.10541q.4291.42388.859.84692l-.16419.16528q-.42892-.42434-.85666-.849Zm2.604,1.73175q.42622.4269.85324.85272l-.15441.15619q-.43218-.4216-.86322-.84345Zm6.06693,3.474.31244.47424q-.23937-.15243-.47922-.3042Z"/><path class="cls-13" d="M321.24281,381.8558c1.19965-.57409,1.00855.28629.99408.96454C321.314,383.10913,321.2206,382.54214,321.24281,381.8558Z"/><path class="cls-9" d="M278.91432,842.36185q.42567.42746.852.85388l-.13583.13806q-.43465-.41886-.86838-.83789Z"/><path class="cls-3" d="M200.79378,772.20633a1.05687,1.05687,0,0,1,.87883.85724l.04718-.05207c-.61183.04322-.80173-.34668-.87616-.855Zm.04985-.04993a.99061.99061,0,0,1-.881-.8717l-.04677.05114c.60565-.026.79294.37043.87779.87049Zm9.53137-32.09051c-.11845-.03449-.34023-.07239-.33923-.103.00921-.27869.129-.23279.30943.136Z"/><path class="cls-10" d="M208.16933,607.6785c.44938-.2226.86363-.77887,1.41749-.28022.55881.50318.21343.91816-.22838,1.28168q-.59442-.5007-1.18911-1.0014Z"/><path class="cls-14" d="M63.90926,276.15961c-.117.53564-.50677.6427-.96764.57785-.11646-.01636-.21294-.1749-.31861-.26813.09128-.102.16376-.24313.27771-.29776.24909-.11939.51924-.19486.77861-.2912ZM73.19294,190.405c-.37344-.19241-.7908-.47392-.43656-.89069.3298-.388.733-.03709,1.0533.21727C73.60474,189.95431,73.39885,190.17966,73.19294,190.405Z"/><path class="cls-1" d="M684.55427,561.13785c0-1.15161.08625-2.311-.015-3.45356a14.02222,14.02222,0,0,0-6.65112-11.08093,24.72781,24.72781,0,0,0-9.72309-3.4237,53.39814,53.39814,0,0,0-15.53125-.28583c-.71209.0954-1.4378.09021-2.2257.1355.01092-.92188.85247-1.01453,1.313-1.21149,12.91529-5.52344,23.96674-13.81574,34.29889-23.14575a308.46548,308.46548,0,0,0,30.78638-32.83667c12.14459-14.70108,23.41125-30.07566,34.81659-45.34479,6.0484-8.09747,12.0835-16.20816,18.80267-23.77606a56.18051,56.18051,0,0,1,7.40619-7.275,30.88017,30.88017,0,0,1,4.34686-2.80993,5.71813,5.71813,0,0,1,5.02289-.24063c1.33.5437,1.593,1.63562.635,2.65973-.09857.10534-.20361.20486-.309.30355-6.56982,6.15131-11.97375,13.29462-17.31561,20.48035-12.841,17.27322-24.659,35.24735-36.31317,53.33q-23.69624,36.76671-46.11707,74.32648c-.797,1.32727-1.66913,2.60937-2.50628,3.91247Z"/><path class="cls-8" d="M671.59334,752.85861c.45727-.97137,1.31817-1.14947,2.05841-1.51758,2.1958-1.09173,4.4599-2.0744,6.554-3.33752a321.96338,321.96338,0,0,0,30.62037-20.4057,87.78877,87.78877,0,0,0,13.26678-12.41394c5.88721-6.89246,10.49756-14.4787,12.69885-23.379a10.60253,10.60253,0,0,1,.71143-1.63062c1.03491.3053.59814,1.17163.6214,1.70722a129.10626,129.10626,0,0,1-.58112,22.49475,24.77818,24.77818,0,0,1-7.02942,14.53479,46.45138,46.45138,0,0,1-6.98321,5.81122,101.95461,101.95461,0,0,1-46.009,17.69128c-1.94532.23419-3.87336.78064-5.92847.44507Z"/><path class="cls-3" d="M646.28621,543.80814c-4.20246,1.65484-8.39374,3.20178-13.53015,2.85852A28.557,28.557,0,0,1,646.28621,543.80814Zm-59.65027,45.46478q.795.05932,1.59033.11963c1.2663,1.91455,1.117,3.98559.97644,6.93267a16.53657,16.53657,0,0,1-2.56671-7.05236Z"/><path class="cls-9" d="M542.37678,794.74606q.26266-.24435.52521-.48858c.01056.18261.09833.42059.01544.53631-.16973.23718-.413.15692-.60052-.14886ZM545,792.994l-.121.108.091-.108H545Zm-.03,0,.109-.117-.082.117h-.027Z"/><path class="cls-8" d="M433.52907,452.9317c3.27835-.50665,6.5542-1.03024,9.83636-1.5112,1.22086-.17892,1.77786.20129,1.80014,1.22144a21.78746,21.78746,0,0,1-4.10113,13.8425,11.11972,11.11972,0,0,1-.83609.993c-4.34043,4.63583-10.06955,4.64953-14.38025-.00159a17.89153,17.89153,0,0,1-4.12122-7.99106,24.63873,24.63873,0,0,1,1.00556-15.7023,15.34861,15.34861,0,0,1,4.181-5.977,9.07562,9.07562,0,0,1,12.23141-.03741,14.68359,14.68359,0,0,1,4.188,5.973c1.44434,3.77936,1.67221,3.45257-2.07944,4.88992-2.55713.97968-5.14221,1.88635-7.70877,2.82376-1.51257.34476-3.08771.57984-4.5787,2.39484Z"/><path class="cls-4" d="M433.52907,452.9317l-4.56311.91788c1.491-1.815,3.06613-2.05,4.5787-2.39484C433.53545,451.94833,433.53224,452.44,433.52907,452.9317Z"/><path class="cls-8" d="M231.6454,411.02545c3.84981-.57394,7.69693-1.16711,11.55115-1.70962,1.08886-.15323,1.6179.34463,1.59033,1.45532a23.8139,23.8139,0,0,1-3.1,12.01339c-4.77311,7.90732-13.338,8.14289-17.97476.22709-4.58728-7.83127-4.39331-15.9664-.08034-23.93518a12.87327,12.87327,0,0,1,2.75879-3.30182c3.876-3.48142,8.58116-3.426,12.50615.03546a13.80063,13.80063,0,0,1,3.3633,4.47c.67364,1.42267,1.17045,2.92917,1.77132,4.46432-1.867,1.72257-4.24776,2.00718-6.33191,2.89548-1.986.84641-4.05567,1.49643-6.08289,2.231a4.69483,4.69483,0,0,0-2.75189,1.20715c1.07027.29468,1.90968.55728,2.78078-.05258Z"/><path class="cls-4" d="M231.6454,411.02545c-.87109.60986-1.71051.34726-2.78078.05258a4.69485,4.69485,0,0,1,2.7519-1.20715c.00584.38611.01736.77032.02888,1.15454Z"/></g></svg>