<svg id="Layer_1" data-name="Layer 1" xmlns="http://www.w3.org/2000/svg" viewBox="0 0 91 82.38"><path d="M44.148,1.75a36,36,0,1,0,36,36A36,36,0,0,0,44.148,1.75Zm18,55a.934.934,0,0,1-1,1h-33a.934.934,0,0,1-1-1v-36a.934.934,0,0,1,1-1H36.7132v-1.2a.84831.84831,0,0,1,.88891-.8H51.82434a.84826.84826,0,0,1,.88886.8v1.2H61.148a.934.934,0,0,1,1,1Z"/><path d="M51.82434,26.75H48.2688a.84831.84831,0,0,1-.88892-.8,2.68147,2.68147,0,0,0-5.33331,0,.8483.8483,0,0,1-.88892.8H37.60211a.8483.8483,0,0,1-.88891-.8v-2.9826H31.49585a.86987.86987,0,0,0-.86957.86956V53.40218a.86988.86988,0,0,0,.86957.86957H57.58276a.86987.86987,0,0,0,.86957-.86957V23.83693a.86986.86986,0,0,0-.86957-.86956H52.7132V25.95A.84825.84825,0,0,1,51.82434,26.75ZM36.7132,30.79348H50.36536a.86957.86957,0,0,1,0,1.73913H36.7132a.86957.86957,0,1,1,0-1.73913ZM50.36536,46.44564H36.7132a.86957.86957,0,1,1,0-1.73914H50.36536a.86957.86957,0,0,1,0,1.73914Zm2.86956-7.82611a.86928.86928,0,0,1-.86956.86956H36.7132a.86957.86957,0,1,1,0-1.73913H52.36536A.86932.86932,0,0,1,53.23492,38.61953Z"/><path d="M74.96092,74.67077a2.99054,2.99054,0,0,0-1.11328.20312,2.246,2.246,0,0,0-.85156.58593,2.71322,2.71322,0,0,0-.54688.96875,4.01695,4.01695,0,0,0-.1875,1.27344,4.05783,4.05783,0,0,0,.1875,1.28515,2.66777,2.66777,0,0,0,.543.94922,2.30813,2.30813,0,0,0,.85157.58984,3.20274,3.20274,0,0,0,2.23438.00392,2.31111,2.31111,0,0,0,.85156-.59375,2.61448,2.61448,0,0,0,.53906-.94532,4.38071,4.38071,0,0,0,.00393-2.57422,2.62664,2.62664,0,0,0-.543-.957,2.31569,2.31569,0,0,0-.84765-.582A2.88678,2.88678,0,0,0,74.96092,74.67077Zm-32.78515.01563a3.2817,3.2817,0,0,0-1.168.19921,2.45677,2.45677,0,0,0-.89453.57814,2.59846,2.59846,0,0,0-.58594.957,3.79193,3.79193,0,0,0-.20313,1.28515,3.85427,3.85427,0,0,0,.21094,1.332,2.54113,2.54113,0,0,0,.586.9414,2.36842,2.36842,0,0,0,.89844.5586,3.57878,3.57878,0,0,0,1.15234.17579,3.17608,3.17608,0,0,0,.61328-.05471,4.33973,4.33973,0,0,0,.51953-.125,3.69082,3.69082,0,0,0,.45313-.17187q.17577-.082.39062-.17578v-.90625h-.05469a3.00557,3.00557,0,0,1-.91406.57422,2.84281,2.84281,0,0,1-1.04688.1914,2.19827,2.19827,0,0,1-.77343-.13671,1.724,1.724,0,0,1-.63672-.42969,2.14358,2.14358,0,0,1-.42969-.71875,3.03149,3.03149,0,0,1-.16406-1.05469,3.26149,3.26149,0,0,1,.14844-1.03125,2.053,2.053,0,0,1,.42187-.74217,1.72017,1.72017,0,0,1,.6289-.44141,2.09878,2.09878,0,0,1,.79688-.14453,2.76945,2.76945,0,0,1,1.01172.1836,3.44683,3.44683,0,0,1,.95313.58593h.05859v-.918a4.98072,4.98072,0,0,0-1.03907-.39844A3.93,3.93,0,0,0,42.17577,74.6864Zm13.90625,0a3.2817,3.2817,0,0,0-1.168.19921,2.45677,2.45677,0,0,0-.89453.57814,2.59846,2.59846,0,0,0-.58594.957,3.79193,3.79193,0,0,0-.20313,1.28515,3.85427,3.85427,0,0,0,.21094,1.332,2.54113,2.54113,0,0,0,.586.9414,2.36842,2.36842,0,0,0,.89844.5586,3.57878,3.57878,0,0,0,1.15234.17579,3.17608,3.17608,0,0,0,.61328-.05471,4.33973,4.33973,0,0,0,.51953-.125,3.69082,3.69082,0,0,0,.45313-.17187q.17577-.082.39062-.17578v-.90625H58a3.00557,3.00557,0,0,1-.91406.57422,2.84281,2.84281,0,0,1-1.04688.1914,2.19827,2.19827,0,0,1-.77343-.13671,1.724,1.724,0,0,1-.63672-.42969,2.14358,2.14358,0,0,1-.42969-.71875,3.03149,3.03149,0,0,1-.16406-1.05469,3.26149,3.26149,0,0,1,.14844-1.03125,2.053,2.053,0,0,1,.42187-.74217,1.72017,1.72017,0,0,1,.6289-.44141,2.09878,2.09878,0,0,1,.79688-.14453,2.76945,2.76945,0,0,1,1.01172.1836,3.44683,3.44683,0,0,1,.95313.58593h.05859v-.918a4.98072,4.98072,0,0,0-1.03907-.39844A3.93,3.93,0,0,0,56.082,74.6864Zm10.09765,0a2.51661,2.51661,0,0,0-1.5664.46875,1.4334,1.4334,0,0,0-.6172,1.1953,1.45794,1.45794,0,0,0,.37111,1.03515,2.16422,2.16422,0,0,0,1.14844.55861q.3828.0781.72265.12889a5.72222,5.72222,0,0,1,.63671.12891,1.27319,1.27319,0,0,1,.57422.28516.75792.75792,0,0,1,.1914.57029.82747.82747,0,0,1-.40233.71876,1.97909,1.97909,0,0,1-1.1172.26953,3.341,3.341,0,0,1-1.08593-.19922,3.21541,3.21541,0,0,1-1.01953-.56639h-.0547v.96875a5.757,5.757,0,0,0,1.01954.34764,5.01371,5.01371,0,0,0,1.13281.11719,3.12745,3.12745,0,0,0,1-.14063,2.36359,2.36359,0,0,0,.73047-.39062,1.57819,1.57819,0,0,0,.4414-.5625,1.53238,1.53238,0,0,0,.16015-.67188,1.36131,1.36131,0,0,0-.32812-.97265,2.02416,2.02416,0,0,0-.97656-.51953q-.32031-.082-.78125-.16016t-.71094-.13281a1.26844,1.26844,0,0,1-.66016-.3164.81839.81839,0,0,1-.1875-.57032.777.777,0,0,1,.375-.66406,1.74706,1.74706,0,0,1,1-.25782,3.34205,3.34205,0,0,1,1.10547.1875,2.66043,2.66043,0,0,1,.875.46485h.0547v-.91406a5.15544,5.15544,0,0,0-.90626-.28907,5.04151,5.04151,0,0,0-1.125-.11718Zm20.99219,0a3.0413,3.0413,0,0,0-2.23828.8086,2.95547,2.95547,0,0,0-.8125,2.19921,3.7097,3.7097,0,0,0,.21875,1.332,2.52539,2.52539,0,0,0,.6211.94531,2.55871,2.55871,0,0,0,.96484.5625,4.01417,4.01417,0,0,0,2.33594.02735,7.50323,7.50323,0,0,0,1.043-.38282v-2.4961H86.98046v.6797h1.5586V79.788a3.45916,3.45916,0,0,1-.65625.1914,3.79537,3.79537,0,0,1-.7461.07422,2.12432,2.12432,0,0,1-1.61718-.625,2.45956,2.45956,0,0,1-.59375-1.7578,2.42969,2.42969,0,0,1,.5664-1.69532,1.98423,1.98423,0,0,1,1.54688-.6289,3.308,3.308,0,0,1,.77343.082,3.26016,3.26016,0,0,1,.61329.19922,3.33734,3.33734,0,0,1,.45312.25389q.23047.15236.35156.24611h.07031v-.918a5.35932,5.35932,0,0,0-1.11718-.40235,4.41662,4.41662,0,0,0-1.01171-.1211ZM1.75,74.79186v5.8164H3.21873a6.11319,6.11319,0,0,0,1.28907-.10937,2.86175,2.86175,0,0,0,.89062-.35547,2.567,2.567,0,0,0,.918-1,2.97882,2.97882,0,0,0,.34766-1.4375,3.0494,3.0494,0,0,0-.332-1.46484,2.59711,2.59711,0,0,0-.92579-.98828,2.90622,2.90622,0,0,0-.85156-.33594,5.80214,5.80214,0,0,0-1.35156-.125Zm7.60938,0-2.11719,5.8164h.78516l.57031-1.62109h2.51563l.5703,1.6211h.82423l-2.1172-5.81642Zm3.25,0v.6875h2.07812v5.1289h.77344v-5.1289h2.07813v-.6875Zm7.15625,0-2.11719,5.8164h.78516l.57031-1.62109h2.51563l.5703,1.6211h.82423l-2.1172-5.81642Zm4.03125,0v5.8164h.77344v-2.168h.77343a3.07838,3.07838,0,0,0,1.03516-.14844,1.9545,1.9545,0,0,0,.71093-.45313,1.69744,1.69744,0,0,0,.375-.5703,1.86925,1.86925,0,0,0,.13673-.71876,1.72093,1.72093,0,0,0-.1836-.83984,1.55273,1.55273,0,0,0-.51172-.55469,1.96677,1.96677,0,0,0-.64453-.27343,3.75042,3.75042,0,0,0-.88672-.08985Zm4.82812,0v5.8164h.77344v-2.3125h1.08985l1.9453,2.3125h1.00391L31.25,78.0653a1.92794,1.92794,0,0,0,.87109-.63672,1.719,1.719,0,0,0,.31641-1.05469,1.47447,1.47447,0,0,0-.17968-.76561,1.44446,1.44446,0,0,0-.49221-.50391,1.81906,1.81906,0,0,0-.63279-.24219,4.59121,4.59121,0,0,0-.87891-.07029Zm7,0-2.11718,5.8164H34.293l.57032-1.62109h2.51562l.57031,1.6211h.82421l-2.11719-5.81642Zm8.84375,0v.6875h2.07813v5.1289h.77344v-5.1289h2.07812v-.6875Zm5.47266,0v.59375h.76172v4.6289h-.76172v.59376h2.29688v-.59375h-.76172V75.3856h.76172v-.59375Zm9.21484,0v5.8164h3.832v-.6875H59.92966V77.76061h3.05861v-.6875H59.92966V75.47936h3.05861v-.6875Zm19.73438,0v5.8164h.77344v-2.3125h1.08984l1.94531,2.3125h1.0039l-2.1875-2.543a1.928,1.928,0,0,0,.8711-.63672,1.719,1.719,0,0,0,.3164-1.05469,1.47438,1.47438,0,0,0-.17968-.76561,1.44458,1.44458,0,0,0-.49219-.50391,1.81906,1.81906,0,0,0-.63279-.24219,4.59121,4.59121,0,0,0-.87891-.07029Zm-3.92578.54687a1.69981,1.69981,0,0,1,1.38672.6172,3.24836,3.24836,0,0,1-.00782,3.5,1.87734,1.87734,0,0,1-2.76171,0,2.64427,2.64427,0,0,1-.51564-1.75389,2.68317,2.68317,0,0,1,.5039-1.74611A1.70846,1.70846,0,0,1,74.96483,75.33873Zm-72.4414.1172H3.25a4.74259,4.74259,0,0,1,.92579.07812,2.37526,2.37526,0,0,1,.73046.26953,1.74914,1.74914,0,0,1,.71094.73828,2.52378,2.52378,0,0,1,.23828,1.15235A2.599,2.599,0,0,1,5.6367,78.827a1.737,1.737,0,0,1-.64843.73047,2.1867,2.1867,0,0,1-.76563.30468,5.06073,5.06073,0,0,1-.97266.082H2.52342Zm22.04687,0h.76562a2.77673,2.77673,0,0,1,.60547.05468,1.26064,1.26064,0,0,1,.42969.17189.87745.87745,0,0,1,.32031.36328,1.21135,1.21135,0,0,1,.10547.52343,1.30855,1.30855,0,0,1-.07813.46485,1.07768,1.07768,0,0,1-.73438.66406,2.90145,2.90145,0,0,1-.76171.082h-.65235Zm4.82812,0h.91016a2.75623,2.75623,0,0,1,.543.04686A1.04688,1.04688,0,0,1,31.25,75.659a.75509.75509,0,0,1,.28907.32813,1.028,1.028,0,0,1,.08984.4414,1.47387,1.47387,0,0,1-.08594.543,1.01034,1.01034,0,0,1-.25781.375,1.03472,1.03472,0,0,1-.46485.24219,2.90053,2.90053,0,0,1-.64062.0625h-.78125Zm50.26563,0h.91015a2.756,2.756,0,0,1,.543.04686,1.04687,1.04687,0,0,1,.39844.15625.75494.75494,0,0,1,.28906.32813,1.02789,1.02789,0,0,1,.08985.4414,1.47387,1.47387,0,0,1-.08594.543,1.0101,1.0101,0,0,1-.25781.375,1.03462,1.03462,0,0,1-.46485.24219,2.90056,2.90056,0,0,1-.64063.0625H79.664Zm-69.8086.01171L10.875,78.32311H8.832Zm10.40625,0,1.01953,2.85547h-2.043Zm15.85937,0,1.01954,2.85547h-2.043ZM69.89452,79.495v1.11329h.93359V79.495Z"/></svg>