<?xml version="1.0" encoding="UTF-8"?><svg id="Layer_1" xmlns="http://www.w3.org/2000/svg" viewBox="0 0 288 54"><path d="M60.5661,38.32313c-1.20475,0-2.32372-.21822-3.35539-.65467s-1.92414-1.03544-2.67739-1.79697c-.75325-.76002-1.34471-1.657-1.77364-2.68792-.42968-1.03243-.64414-2.13559-.64414-3.31099s.21446-2.27857.64414-3.30949c.42892-1.03243,1.02039-1.92941,1.77364-2.68943s1.64571-1.35901,2.67739-1.79697c1.03168-.43645,2.15064-.65467,3.35539-.65467,1.2055,0,2.32372.21822,3.35539.65467,1.03168.43795,1.92489,1.03694,2.67814,1.79697s1.34396,1.657,1.77364,2.68943c.42892,1.03092.64414,2.13409.64414,3.30949s-.21521,2.27857-.64414,3.31099c-.42968,1.03092-1.02039,1.9279-1.77364,2.68792-.75325.76153-1.64647,1.36052-2.67814,1.79697s-2.14989.65467-3.35539.65467ZM60.5661,35.43052c.75325,0,1.45759-.13545,2.11302-.40635s1.22733-.64715,1.7172-1.12875c.48912-.4831.87365-1.06554,1.15208-1.75182.27918-.68477.41839-1.44179.41839-2.27104,0-.82775-.13921-1.58476-.41839-2.27104-.27842-.68477-.66295-1.26871-1.15208-1.75031-.48988-.4831-1.06178-.85935-1.7172-1.13025s-1.35976-.40635-2.11302-.40635-1.45684.13545-2.11226.40635-1.22808.64715-1.7172,1.13025c-.48988.4816-.8744,1.06554-1.15283,1.75031-.27842.68628-.41764,1.44329-.41764,2.27104,0,.82925.13921,1.58627.41764,2.27104.27842.68628.66295,1.26871,1.15283,1.75182.48912.4816,1.06178.85785,1.7172,1.12875s1.35901.40635,2.11226.40635Z"/><path d="M71.74597,26.88967h2.77973v1.33343h.1806c.2709-.46655.69305-.86537,1.2657-1.19798.5719-.3311,1.28-.49665,2.12355-.49665.7081,0,1.38234.14749,2.02272.44096.63962.29347,1.20475.69982,1.69463,1.22055.48912.51922.87741,1.14079,1.16336,1.86319.28595.7239.42968,1.51403.42968,2.37338,0,.85785-.14373,1.64948-.42968,2.37188-.28595.7239-.67424,1.34396-1.16336,1.86469-.48988.51922-1.055.92557-1.69463,1.21905-.64038.29498-1.31461.44096-2.02272.44096-.84355,0-1.55165-.16555-2.12355-.49665-.57265-.3311-.9948-.72992-1.2657-1.19798h-.1806l.1806,1.58175v4.63238h-2.96033v-15.95297ZM77.48527,35.59005c.39205,0,.76454-.07525,1.11897-.22725.35367-.1505.66671-.3612.93761-.6321s.48912-.602.65543-.9948c.16555-.3913.24832-.82775.24832-1.30935,0-.4831-.08277-.91955-.24832-1.31085-.1663-.3913-.38453-.7239-.65543-.9948s-.58394-.4816-.93761-.6321c-.35443-.1505-.72691-.22575-1.11897-.22575-.3913,0-.76454.07073-1.11821.21371-.35367.14448-.66671.35066-.93761.62156s-.48988.6035-.65543.9948-.24832.83527-.24832,1.33343c0,.49665.08277.94062.24832,1.33192.16555.3928.38453.7239.65543.9948s.58394.47859.93761.62156.72691.21521,1.11821.21521Z"/><path d="M96.32106,35.29507c-.5117.9045-1.20099,1.63593-2.06711,2.19278-.86688.55685-1.92489.83527-3.17479.83527-.84355,0-1.62314-.14598-2.33877-.44096-.71563-.29347-1.33719-.70283-1.86394-1.23109-.5275-.52675-.93761-1.14831-1.23184-1.86319-.29347-.71638-.44021-1.50349-.44021-2.36134,0-.79915.14297-1.55617.42892-2.27104.28595-.71638.68553-1.34095,1.19798-1.87523.5117-.53578,1.11821-.96169,1.81879-1.27774s1.47189-.47407,2.31619-.47407c.8887,0,1.67958.14749,2.37263.44096.6923.29347,1.27248.69982,1.73978,1.22055.46655.51922.82098,1.13326,1.06178,1.84061.2408.70885.36195,1.4764.36195,2.30566v.2709c-.0158.0903-.02257.17307-.02257.24832-.0158.07525-.02257.15802-.02257.24832h-8.33844c.0602.4515.18436.83979.37324,1.16336.18812.32508.4214.59598.70058.8142.27842.21822.58319.37625.91504.47407.3311.09782.66972.14749,1.01663.14749.678,0,1.23861-.15501,1.68334-.46354.44397-.30852.79464-.69681,1.05049-1.16336l2.46293,1.21905ZM93.63239,31.00282c-.01505-.19565-.07901-.41387-.19189-.65618-.11287-.2408-.27918-.46655-.4974-.67725s-.48988-.38377-.81345-.51922-.71186-.20468-1.16336-.20468c-.63285,0-1.19045.1821-1.67205.5433-.48235.3612-.82173.86537-1.01663,1.51403h5.35478Z"/><path d="M101.74432,28.33597h.1806c.34615-.55685.81345-.99781,1.40115-1.32139s1.25743-.48611,2.01068-.48611c.69305,0,1.30333.11287,1.83083.33862.52675.22575.96019.54631,1.29881.96019.33938.41538.59523.91203.7683,1.49145.17307.58093.25961,1.22507.25961,1.93242v6.71078h-2.95958v-6.34958c0-.79765-.17759-1.38911-.53126-1.77289-.35367-.38528-.86989-.57641-1.54789-.57641-.40635,0-.76454.08578-1.07306.25886-.30928.17458-.57265.40785-.79088.70133s-.38377.63962-.4974,1.03845c-.11287.40033-.16931.82474-.16931,1.27774v5.4225h-2.95958v-11.07226h2.77898v1.4463Z"/><path d="M118.39711,21.78321h3.00548l4.94843,8.56343h.1806l4.94843-8.56343h3.02805v16.17872h-3.02805v-7.97648l.1806-2.712h-.1806l-4.1124,7.25409h-1.83008l-4.13498-7.25409h-.18135l.18135,2.712v7.97648h-3.00548v-16.17872Z"/><path d="M143.2702,26.52847c.8586,0,1.64571.14749,2.36134.44096.71487.29347,1.33267.69982,1.85265,1.22055.51998.51922.92633,1.14079,1.22055,1.86319.29347.7239.44021,1.51403.44021,2.37338,0,.85785-.14674,1.64948-.44021,2.37188-.29423.7239-.70058,1.34396-1.22055,1.86469-.51998.51922-1.13778.92557-1.85265,1.21905-.71563.29498-1.50274.44096-2.36134.44096s-1.64571-.14598-2.36134-.44096c-.71563-.29347-1.33343-.69982-1.85265-1.21905-.51998-.52073-.92633-1.14079-1.22055-1.86469-.29347-.7224-.44021-1.51403-.44021-2.37188,0-.85935.14674-1.64948.44021-2.37338.29423-.7224.70058-1.34396,1.22055-1.86319.51922-.52073,1.13703-.92708,1.85265-1.22055s1.50274-.44096,2.36134-.44096ZM143.2702,35.59005c.37625,0,.74196-.07224,1.09564-.21521s.66671-.35066.93761-.62156c.27165-.2709.48611-.602.64414-.9948.15802-.3913.23779-.83527.23779-1.33192,0-.49815-.07976-.94213-.23779-1.33343s-.37249-.7239-.64414-.9948c-.2709-.2709-.58394-.47708-.93761-.62156-.35367-.14297-.71939-.21371-1.09564-.21371-.39205,0-.76078.07073-1.10693.21371-.3469.14448-.65543.35066-.92708.62156-.2709.2709-.48536.6035-.64339.9948-.15878.3913-.23779.83527-.23779,1.33343,0,.49665.07901.94062.23779,1.33192.15802.3928.37249.7239.64339.9948.27165.2709.58018.47859.92708.62156.34615.14297.71487.21521,1.10693.21521Z"/><path d="M159.8357,36.6285h-.1806c-.2709.46805-.6938.86688-1.2657,1.19798-.57265.3311-1.28075.49665-2.1243.49665-.7081,0-1.38234-.14598-2.02196-.44096-.64038-.29347-1.2055-.69982-1.69463-1.21905-.48988-.52073-.87817-1.14079-1.16412-1.86469-.28595-.7224-.42892-1.51403-.42892-2.37188,0-.85935.14297-1.64948.42892-2.37338.28595-.7224.67424-1.34396,1.16412-1.86319.48912-.52073,1.05425-.92708,1.69463-1.22055.63962-.29347,1.31386-.44096,2.02196-.44096.84355,0,1.55165.16555,2.1243.49665.5719.3326.9948.73143,1.2657,1.19798h.1806l-.1806-1.58175v-4.85813h2.96033v16.17872h-2.77973v-1.33343ZM156.87538,35.59005c.3913,0,.76454-.07224,1.11821-.21521s.66671-.35066.93761-.62156.48912-.602.65618-.9948c.16555-.3913.24832-.83527.24832-1.33192,0-.49815-.08277-.94213-.24832-1.33343-.16705-.3913-.38528-.7239-.65618-.9948s-.58394-.47708-.93761-.62156c-.35367-.14297-.72691-.21371-1.11821-.21371-.39205,0-.76454.07525-1.11821.22575-.35443.1505-.66671.3612-.93761.6321-.27165.2709-.48988.6035-.65543.9948-.1663.3913-.24908.82775-.24908,1.31085,0,.4816.08277.91805.24908,1.30935.16555.3928.38377.7239.65543.9948.2709.2709.58319.4816.93761.6321.35367.152.72616.22725,1.11821.22725Z"/><path d="M176.15589,35.29507c-.5117.9045-1.20099,1.63593-2.06787,2.19278-.86537.55685-1.92339.83527-3.17404.83527-.8443,0-1.62389-.14598-2.33877-.44096-.71487-.29347-1.33644-.70283-1.86469-1.23109-.52675-.52675-.93761-1.14831-1.23109-1.86319-.29347-.71638-.44096-1.50349-.44096-2.36134,0-.79915.14297-1.55617.43043-2.27104.28595-.71638.68477-1.34095,1.19647-1.87523.5132-.53578,1.11972-.96169,1.81954-1.27774s1.47189-.47407,2.31619-.47407c.88795,0,1.67958.14749,2.37188.44096.6938.29347,1.27323.69982,1.73978,1.22055.46805.51922.82173,1.13326,1.06253,1.84061.2408.70885.3612,1.4764.3612,2.30566v.2709c-.01505.0903-.02257.17307-.02257.24832-.01505.07525-.02257.15802-.02257.24832h-8.33768c.0602.4515.18511.83979.37324,1.16336.18812.32508.4214.59598.69982.8142s.58394.37625.91504.47407.67123.14749,1.01738.14749c.67725,0,1.23861-.15501,1.68409-.46354.44397-.30852.79313-.69681,1.05049-1.16336l2.46218,1.21905ZM173.46797,31.00282c-.01655-.19565-.07976-.41387-.19264-.65618-.11287-.2408-.27842-.46655-.49665-.67725-.21973-.2107-.49063-.38377-.8142-.51922s-.71186-.20468-1.16336-.20468c-.6321,0-1.19045.1821-1.67205.5433-.4831.3612-.82173.86537-1.01738,1.51403h5.35628Z"/><path d="M178.81823,37.96193v-16.17872h2.96033v16.17872h-2.96033Z"/><path d="M190.77092,21.78321h3.05063v16.17872h-3.05063v-16.17872Z"/><path d="M200.10642,28.33597h.1821c.34615-.55685.8127-.99781,1.39965-1.32139.58845-.32357,1.25818-.48611,2.01218-.48611.6923,0,1.30182.11287,1.83008.33862.52675.22575.96019.54631,1.29881.96019.33862.41538.59447.91203.76905,1.49145.17307.58093.25886,1.22507.25886,1.93242v6.71078h-2.96033v-6.34958c0-.79765-.17608-1.38911-.52976-1.77289-.35518-.38528-.86989-.57641-1.54864-.57641-.40635,0-.76454.08578-1.07306.25886-.30852.17458-.5734.40785-.79163.70133s-.38377.63962-.49665,1.03845c-.11287.40033-.16856.82474-.16856,1.27774v5.4225h-2.96033v-11.07226h2.77822v1.4463Z"/><path d="M212.3601,25.39821c-.25735,0-.50116-.04816-.73444-.14598s-.43795-.23327-.61103-.40785c-.17307-.17157-.30852-.37173-.40635-.59748-.09782-.22725-.14598-.47558-.14598-.74648s.04816-.51922.14598-.74497.23327-.42591.40635-.59899.37775-.30852.61103-.40635.47708-.14749.73444-.14749c.52675,0,.97825.18511,1.356.55384.37625.36872.56437.81721.56437,1.34396,0,.52825-.18812.97524-.56437,1.34396-.37775.37023-.82925.55384-1.356.55384ZM210.89123,37.96193v-11.07226h2.96033v11.07226h-2.96033Z"/><path d="M217.96622,29.42107h-1.94446v-2.53141h1.94446v-3.38925h2.95882v3.38925h2.712v2.53141h-2.712v4.42319c0,.26488.02709.50869.07976.73444s.15351.41538.30551.57039c.2107.24832.5117.37324.903.37324.25585,0,.45902-.02709.60952-.07976s.29498-.12491.43043-.21521l.83527,2.59913c-.34615.16555-.71939.29046-1.11821.37324s-.83979.12341-1.32139.12341c-.55835,0-1.05952-.08879-1.50349-.26488s-.81721-.41839-1.11821-.72691c-.70735-.6923-1.06102-1.67506-1.06102-2.9513v-4.95897Z"/><path d="M227.7201,25.39821c-.25735,0-.50116-.04816-.73444-.14598s-.43795-.23327-.61103-.40785c-.17307-.17157-.30852-.37173-.40635-.59748-.09782-.22725-.14598-.47558-.14598-.74648s.04816-.51922.14598-.74497.23327-.42591.40635-.59899.37775-.30852.61103-.40635.47708-.14749.73444-.14749c.52675,0,.97825.18511,1.356.55384.37625.36872.56437.81721.56437,1.34396,0,.52825-.18812.97524-.56437,1.34396-.37775.37023-.82925.55384-1.356.55384ZM226.25123,37.96193v-11.07226h2.96033v11.07226h-2.96033Z"/><path d="M239.15056,36.78653h-.1806c-.34765.4229-.76454.7841-1.25366,1.0851-.49063.301-1.11972.4515-1.88727.4515-.5734,0-1.11069-.09331-1.61637-.28143-.50417-.18812-.94514-.44849-1.32139-.77959s-.66972-.73143-.88042-1.19798c-.2122-.46655-.31755-.97975-.31755-1.5366,0-.5719.11287-1.08811.34013-1.54864.22575-.45902.5418-.85333.94815-1.18594.40635-.3311.88494-.58394,1.43577-.75701.54932-.17307,1.14831-.25886,1.79546-.25886.7239,0,1.31838.05568,1.78493.16856s.85183.23026,1.15283.35066v-.33862c0-.58845-.23327-1.07306-.69982-1.45834-.46805-.38377-1.04748-.57641-1.74128-.57641-1.0234,0-1.89028.43043-2.59762,1.28828l-2.14613-1.46888c1.1739-1.4749,2.77822-2.21385,4.81298-2.21385,1.7172,0,3.02655.40334,3.93105,1.20851.903.80668,1.356,2.00014,1.356,3.58189v6.64306h-2.91518v-1.1754ZM239.15056,33.465c-.34615-.16555-.70434-.29648-1.07306-.39431-.37023-.09782-.77206-.14749-1.20851-.14749-.70885,0-1.25517.15501-1.63894.46354s-.57641.68929-.57641,1.14079.18511.8127.55384,1.0851c.36872.2709.79464.40635,1.27624.40635.3913,0,.754-.07224,1.0851-.21521s.61404-.3311.84731-.56437.41387-.50417.5418-.8142c.12792-.30852.19264-.62758.19264-.96019Z"/><path d="M245.9095,29.42107h-1.94446v-2.53141h1.94446v-3.38925h2.95882v3.38925h2.712v2.53141h-2.712v4.42319c0,.26488.02709.50869.07976.73444s.15351.41538.30551.57039c.2107.24832.5117.37324.903.37324.25585,0,.45902-.02709.60952-.07976s.29498-.12491.43043-.21521l.83527,2.59913c-.34615.16555-.71939.29046-1.11821.37324s-.83979.12341-1.32139.12341c-.55835,0-1.05952-.08879-1.50349-.26488s-.81721-.41839-1.11821-.72691c-.70735-.6923-1.06102-1.67506-1.06102-2.9513v-4.95897Z"/><path d="M255.66338,25.39821c-.25735,0-.50116-.04816-.73444-.14598s-.43795-.23327-.61103-.40785c-.17307-.17157-.30852-.37173-.40635-.59748-.09782-.22725-.14598-.47558-.14598-.74648s.04816-.51922.14598-.74497.23327-.42591.40635-.59899.37775-.30852.61103-.40635.47708-.14749.73444-.14749c.52675,0,.97825.18511,1.356.55384.37625.36872.56437.81721.56437,1.34396,0,.52825-.18812.97524-.56437,1.34396-.37775.37023-.82925.55384-1.356.55384ZM254.19451,37.96193v-11.07226h2.96033v11.07226h-2.96033Z"/><path d="M259.09929,26.88967h3.36668l2.75715,7.05091h.15802l2.77973-7.05091h3.3441l-4.76783,11.07226h-2.91518l-4.72268-11.07226Z"/><path d="M283.3448,35.29507c-.5117.9045-1.20099,1.63593-2.06787,2.19278-.86537.55685-1.92339.83527-3.17404.83527-.8443,0-1.62389-.14598-2.33877-.44096-.71487-.29347-1.33644-.70283-1.86469-1.23109-.52675-.52675-.93761-1.14831-1.23109-1.86319-.29347-.71638-.44096-1.50349-.44096-2.36134,0-.79915.14297-1.55617.43043-2.27104.28595-.71638.68477-1.34095,1.19647-1.87523.5132-.53578,1.11972-.96169,1.81954-1.27774s1.47189-.47407,2.31619-.47407c.88795,0,1.67958.14749,2.37188.44096.6938.29347,1.27323.69982,1.73978,1.22055.46805.51922.82173,1.13326,1.06253,1.84061.2408.70885.3612,1.4764.3612,2.30566v.2709c-.01505.0903-.02257.17307-.02257.24832-.01505.07525-.02257.15802-.02257.24832h-8.33768c.0602.4515.18511.83979.37324,1.16336.18812.32508.4214.59598.69982.8142s.58394.37625.91504.47407.67123.14749,1.01738.14749c.67725,0,1.23861-.15501,1.68409-.46354.44397-.30852.79313-.69681,1.05049-1.16336l2.46218,1.21905ZM280.65687,31.00282c-.01655-.19565-.07976-.41387-.19264-.65618-.11287-.2408-.27842-.46655-.49665-.67725-.21973-.2107-.49063-.38377-.8142-.51922s-.71186-.20468-1.16336-.20468c-.6321,0-1.19045.1821-1.67205.5433-.4831.3612-.82173.86537-1.01738,1.51403h5.35628Z"/><path d="M26.99489,13.20419c-3.98103,0-7.20857,3.22731-7.20857,7.20811,0,3.98103,3.22754,7.20834,7.20857,7.20834,3.98103,0,7.20811-3.22731,7.20812-7.20834,0-3.9808-3.22709-7.20811-7.20811-7.20812Z"/><polygon points="15.11156 32.5322 15.19989 21.24566 4.56125 10.69535 4.56125 17.58052 4.56125 28.67875 4.56125 40.22104 4.56125 42.84265 22.54465 42.84265 34.08694 42.84265 34.08694 32.53681 15.11156 32.5322"/></svg>