<svg id="Layer_1" data-name="Layer 1" xmlns="http://www.w3.org/2000/svg" xmlns:xlink="http://www.w3.org/1999/xlink" viewBox="0 0 1000 1000"><defs><style>.cls-1{fill:url(#linear-gradient);}.cls-2{fill:#fff;}.cls-3{fill:url(#linear-gradient-2);}</style><linearGradient id="linear-gradient" x1="125.40174" y1="521.2613" x2="870.83787" y2="521.2613" gradientUnits="userSpaceOnUse"><stop offset="0" stop-color="#44a2eb"/><stop offset="1" stop-color="#3968f6"/></linearGradient><linearGradient id="linear-gradient-2" x1="906.54336" y1="89.92736" x2="1876.23111" y2="89.92736" gradientTransform="matrix(-0.20036, 0.97972, 0.97972, 0.20036, 691.8111, -876.04907)" xlink:href="#linear-gradient"/></defs><circle class="cls-1" cx="498.1198" cy="521.2613" r="372.71807"/><path class="cls-2" d="M725.17792,506.95446c-15.31595.00172-30.63532-.174-45.94613.10712-4.5863.084-6.47326-1.216-7.51872-5.858-9.01835-40.023-18.30835-79.98432-27.54694-119.95763-2.64877-11.4649-2.69333-11.49917,8.93866-11.42633,3.80392.02313,7.40647-.67869,10.56512,3.35917,9.06377,11.58486,25.25978,12.37753,35.76406,2.34714,9.53508-9.10576,9.81787-25.18609.599-33.99878a25.06391,25.06391,0,0,0-36.4496,2.42426,7.68878,7.68878,0,0,1-6.79033,3.22121q-62.16572-.108-124.33142.01971c-3.15008.00771-4.66856-1.04718-6.07736-3.8502-6.54182-13.01251-17.13007-20.25359-31.83931-20.32643-14.71695-.07284-25.42174,7.04827-31.985,20.05478-1.67273,3.31462-3.59654,4.13127-7.03541,4.1227q-61.35462-.16067-122.70924-.00857a9.2312,9.2312,0,0,1-8.14857-3.81934c-8.57789-10.60368-24.44655-11.47946-34.69889-2.31115-10.00468,8.94809-10.74164,25.27007-1.57932,34.9834,9.38083,9.94469,25.63855,10.6808,34.70917.56985,4.1724-4.65057,8.31224-6.09535,13.95171-5.55891a31.11658,31.11658,0,0,0,5.9394-.00686c3.61625-.353,4.07814,1.01547,3.30261,4.34293q-14.95816,64.15422-29.607,128.38042c-.80551,3.53827-2.33942,4.52289-5.83913,4.486-16.57478-.17481-33.1547.01542-49.7312-.13968-4.217-.03942-4.95735,1.06088-3.20578,4.90422,7.78266,17.07266,19.4018,30.98067,35.71693,40.071,37.15486,20.70262,75.73308,21.2502,114.38072,4.85024,20.04107-8.505,34.76144-23.47651,43.84664-43.54672,2.76189-6.10307,2.65392-6.2059-3.83049-6.2119-16.03748-.01457-32.07582-.1114-48.11073.07969-3.68824.04457-5.337-.88349-6.20933-4.72855q-14.50315-63.97554-29.4459-127.85083c-.87407-3.73537-.186-4.67456,3.58283-4.66q44.05573.1761,88.11232.01372c3.03611-.01029,4.42434,1.10629,5.60091,3.77821A30.83847,30.83847,0,0,0,474.425,389.68331c2.80559,1.59475,3.49456,3.53913,3.49371,6.53582q-.08869,141.6303.04541,283.25975c.00429,3.73108-1.13457,5.27441-4.66942,6.43984-31.967,10.54284-63.86372,21.299-95.781,31.99527-9.78188,3.27777-9.78016,3.28205-9.78445,13.46069l253.39052-4.9385c.41647-4.30608-1.5082-5.80229-5.31469-7.05341-33.51375-11.01671-66.92639-22.34021-100.45986-33.29438-4.07728-1.33167-5.133-3.16722-5.12188-7.21194q.20052-70.54392.08569-141.08872h.02228q0-70.81643.048-141.6303c.00257-2.13462-.99489-4.59829,1.85869-6.193,6.67464-3.73108,11.29179-9.45967,14.423-16.32712,1.19542-2.62221,2.953-3.06011,5.52636-3.05411,29.188.072,58.37849.15,87.5656-.05056,4.672-.03256,4.81167,1.575,3.9316,5.33783q-14.74866,63.09249-29.22138,126.24837c-.81923,3.58112-2.1509,4.99163-6.06194,4.93508-16.394-.23823-32.7965.08483-49.18875-.204-5.337-.09427-5.13474,1.64531-3.32062,5.52892,8.60532,18.42233,21.67439,32.81707,39.7805,41.91255,33.69286,16.92526,68.6137,17.72649,103.77362,5.21357,22.66156-8.06373,39.5157-23.2597,50.13309-45.04549C733.22794,506.97246,733.18424,506.95275,725.17792,506.95446ZM368.4851,427.55028c5.74059,24.90245,11.39034,49.8246,17.2389,74.70048.83037,3.52885.37791,4.8151-3.57,4.77911q-27.02292-.24294-54.04927-.02742c-3.402.02228-4.35236-.72839-3.52028-4.29666Q339.41025,439.076,353.9978,375.38968c.23566-1.02489.28622-2.17917,1.71558-2.9487Q362.12366,400.09375,368.4851,427.55028Zm291.15466,79.501c-17.62881-.23137-35.26361-.15681-52.89413-.03684-3.5974.02485-4.65229-.7661-3.75337-4.62144q15.12528-64.82133,29.95235-129.71294.56814-.05142,1.13629-.10541,3.92689,16.9994,7.85207,33.99792c7.31649,31.69364,14.55071,63.40783,22.03858,95.06119C665.01872,506.059,664.13694,507.11042,659.63976,507.05129Z"/><g id="vhMTIq"><path class="cls-3" d="M681.20124,96.49418c16.69245,8.98237,33.99622,16.99705,49.98281,27.09664C893.12923,225.90021,972.49444,373.23067,953.91538,563.87218,928.53015,824.35086,696.664,989.8389,463.0165,967.47061c-226.80461-21.7132-400.42243-210.205-406.4352-433.59594C50.19319,296.53994,233.53105,93.802,469.48127,78.351c14.99381-.98185,24.46975.80479,21.53371,19.26089-1.68051,10.56362,4.56337,11.63335,12.69147,7.82613Q538.279,89.24424,572.79239,72.92453c8.59956-4.07353,9.76044-9.407,1.637-15.1468Q543.261,35.755,511.83841,14.09257C504.29015,8.8677,497.89168,9.904,497.84076,19.9698c-.09869,19.51633-12.61914,20.307-27.42218,21.84089C282.23774,61.31,145.09478,155.518,67.50027,328.1926-45.48925,579.63334,88.444,878.25876,349.98023,965.58076,591.81287,1046.3242,854.663,919.8406,941.31973,681.028c79.6778-219.57941-17.27652-466.25627-225.38493-573.05971-10.76863-5.52657-22.21125-9.74-33.34008-14.56473Q681.898,94.94888,681.20124,96.49418Z"/></g></svg>