<svg id="Layer_1" data-name="Layer 1" xmlns="http://www.w3.org/2000/svg" viewBox="0 0 400 400"><defs><style>.cls-1,.cls-2{fill:#fff;}.cls-2{stroke:#020101;stroke-linecap:round;stroke-linejoin:round;stroke-width:0;}</style></defs><path class="cls-1" d="M30.2375,286.40122q109.78875.066,219.57743-.00344c4.80789-.00215,9.72086-1.232,12.87923-4.64011,3.916-4.22561,8.24916-4.99819,13.40734-4.60742a57.948,57.948,0,0,0,7.33745.00344c1.72838-.08909,2.50691.5448,3.07637,2.20652,1.8637,5.439,4.20267,7.04373,9.87612,7.04846q29.19915.02451,58.39825.00989c8.55693-.00172,11.43526-2.86708,11.43548-11.37456q.00193-82.90239.04014-165.80487a24.73458,24.73458,0,0,0-1.78457-9.41288q-14.51712-36.27156-28.95346-72.57559c-1.63168-4.10384-4.20088-7.01671-8.75282-7.74694q-15.01814-.03419-30.03619-.06945c-5.26375-.01405-9.58561,2.49917-10.4812,7.81037-.29494,1.74916-1.38376,1.73267-2.65,1.73088-4.11638-.00588-8.23583-.09425-12.34791.03956a6.5584,6.5584,0,0,1-5.29278-2.15663,22.07725,22.07725,0,0,0-13.36906-6.898,123.07815,123.07815,0,0,0-13.64207-.6081q-101.12925.05538-202.25856.03254c-2.55228.00036-5.10449.10544-7.65677.1617-1.293.26592-2.60582.45958-3.876.80893C13.69581,23.50986,6.614,33.022,6.60943,45.42324q-.03063,82.9024-.00989,165.805c0,16.60276-.07089,33.20594.02559,49.8082C6.70605,274.9648,17.30989,286.3934,30.2375,286.40122Zm2.38721-248.725q107.60484-.016,215.20969-.00022c5.13667.00072,7.12329,2.29855,7.12365,8.17613q.00612,101.44135.00086,202.88264c-.00007,4.12225.0415,8.245-.01126,12.36661-.06457,5.03948-2.05621,6.99757-7.16464,6.99958q-53.88581.02139-107.77167.00752-53.71894-.007-107.43795-.00817c-5.77271-.00114-7.619-1.80815-7.61964-7.5208q-.013-107.62441-.00143-215.24882C24.95282,39.86634,27.12752,37.677,32.62471,37.67624Z"/><path class="cls-1" d="M388.14514,361.76347c-5.88882-.21489-11.80016-.24728-17.68447.02092-3.357.1531-4.35814-.78778-4.31829-4.25033.18829-16.38092.11662-32.76529.061-49.14814-.01656-4.87406-3.00935-8.10109-7.87093-8.84837-3.85749-.593-8.49494,1.92326-9.34816,5.87858-.72012,3.33834-2.49953,3.49215-5.18183,3.48484-25.0324-.06866-50.06537.01075-75.09741-.1164-3.13105-.01584-4.18876.70744-4.14963,4.00879.17431,14.70925.07719,29.42172.07762,44.133.00015,4.77765-.00057,4.77937-4.6191,4.77951q-57.57477.00064-115.14962.00179-57.742.00237-115.48384.00172c-4.44142,0-4.43934.00079-4.4382-4.57617q.00539-20.89681.0066-41.79348c0-2.1175.11052-4.24461-.05-6.35049-.45327-5.94854-4.29492-9.74037-9.50728-9.53007-4.93383.199-8.74085,4.355-8.75805,9.92722Q6.53951,339.979,6.619,370.572c.0101,4.75579,3.02763,8.0532,7.71841,9.09221,2.582.572,5.07223-.17152,7.61283-.17023q172.69035.08644,345.38076.0491c7.12035-.00008,14.24106.02888,21.36091-.035,4.827-.04336,6.158-1.42591,6.1693-6.10894a41.63821,41.63821,0,0,1,.0334-5.01124C395.52955,363.29337,393.29665,361.95147,388.14514,361.76347Z"/><path class="cls-1" d="M45.15145,245.99529q93.12019.00354,186.24046.00509c1.78012,0,3.56268-.05791,5.33944.01892,1.61713.06988,2.49938-.38984,2.45853-2.225-.11906-5.3403-.137-10.68282-.19446-16.02513.07906-1.21589.22635-2.43236.22735-3.649q.02494-30.41846.01721-60.83685.0015-43.80026-.01111-87.60042c-.00058-1.21583-.15561-2.43158-.23868-3.64741q-81.93091-.00645-163.86184-.01218-.829-.0001-1.63648.0787.80677-.07816,1.63648-.07877,81.93093.00441,163.86191.01225c.06049-4.67228-.05834-9.35633.244-14.01284.20478-3.154-.68621-4.14806-3.98055-4.1429q-94.95564.14837-189.91173.0772c-4.51245.00021-4.51783.00824-4.5179,4.48693q-.00193,91.61029-.00014,183.22064C40.82406,245.99113,40.82951,245.99515,45.15145,245.99529Zm14.76837-29.188a14.88264,14.88264,0,0,0,1.22995,2.89252A14.88264,14.88264,0,0,1,59.91982,216.80731Zm98.72956-75.97471V121.62782h62.14794V140.8326Zm42.94316-50.12149h19.20478V109.916H201.59254Zm-80.461,0h62.14793V109.916H121.13154Zm0,30.91671h19.20478V140.8326H121.13154Z"/><path class="cls-2" d="M61.14977,219.69983a14.88264,14.88264,0,0,1-1.22995-2.89252"/><rect class="cls-1" x="198.83707" y="326.9246" width="19.20485" height="19.20485"/><rect class="cls-1" x="47.07823" y="326.9246" width="133.45616" height="19.20485"/></svg>