<?xml version="1.0" encoding="UTF-8"?><svg id="a" xmlns="http://www.w3.org/2000/svg" viewBox="0 0 944.18633 711.87508"><defs><style>.b{opacity:.8;}.b,.c{isolation:isolate;}.c{opacity:.6;}</style></defs><g><path d="M427.96589,551.37664c-5.70001,.20001-11.40002,.29999-17.09998,0-3.29999-.20001-4.20001,1.29999-4.40002,4.10001-.29999,2.89999-.09998,6-1.5,9.20001-5.29999-7.29999-11.29999-12.39999-19.70001-14.39999-18.40002-4.29999-38.5,5-48.5,23-7.90002,14.29999-10.79999,29.79999-8.40002,46,2,13.79999,8.20001,25.20001,22.09998,30,14.5,4.89999,28,2.20001,39.40002-8.5,1.5-1.39999,2.5-3.20001,3.70001-4.79999,.40002,.29999,.90002,.70001,1.29999,1-1.09998,7.60001-2,15.20001-5.79999,22.10001-7.70001,13.70001-23.5,15.5-34.09998,3.89999-.70001-.79999-1.29999-1.5-2.5-1.60001-9.09998-1-18.20001-2.10001-28-3.29999,2.59998,10.89999,7.70001,19.39999,16.29999,25.70001,27.09998,19.60001,67.29999,5.70001,76.90002-26.60001,2.70001-9.20001,3.5-18.60001,4.59998-28,3-24.70001,6-49.29999,9.09998-74,.40009-3.30005-.49994-3.90005-3.39996-3.80005h0Zm-41.79999,74.39999c-6.5,4.5-13.59998,6.10001-21,2.39999-7.20001-3.5-9.79999-9.89999-10.09998-17.39999-.5-10.70001,.59998-21.10001,6.5-30.29999,3.70001-5.79999,8.90002-9.5,15.90002-10.60001,11.5-1.70001,20.5,4.79999,22.29999,16.29999,.40002,2.39999,.29999,4.79999,.5,7.39999-.70001,12.30002-2.70001,24.30002-14.10004,32.20001h0Z"/><path d="M534.76594,522.27663c-2.5-8.89999-2.5-8.60001-11.90002-8.89999-13.79999-.40002-23.09998,5.5-29.40002,17.89999-17.29999,34.29999-35,68.39999-52.59998,102.60001-2.90002,5.60001-5.70001,11.29999-9,17.60001,9.40002,0,17.70001-.10001,26,.10001,3,.10001,4.29999-1.20001,5.40002-3.60001,3.90002-8.29999,8-16.39999,11.90002-24.70001,1.09998-2.29999,2.29999-3.29999,5.09998-3.29999,16.09998,.10001,32.20001,.10001,48.29999,0,2.79999,0,3.90002,1,4.5,3.60001,1.90002,7.89999,4.29999,15.60001,6,23.5,.79999,3.60001,2.40002,4.60001,6,4.5,6.90002-.29999,13.90002-.29999,20.79999,0,4.29999,.20001,4.79999-.89999,3.70001-4.79999-11.79999-41.60004-23.29999-83.10004-34.79999-124.50003Zm-46.5,74.39999c8.20001-16.79999,16.20001-33.20001,24.90002-51,4.40002,17.79999,8.5,34.20001,12.70001,51h-37.60004Z"/><path d="M155.46589,513.37664c-10.69995,.20001-21.5,.09998-32.19995,.09998h-32.69995c-13.80005,.29999-24.69995,8.70001-27.09998,21.20001-.80005,4.20001-1.09998,8.60001-1.69995,12.79999-4.09998,33.60001-8.19995,67.20001-12.40002,100.70001-.30005,2.70001,.40002,3.39999,2.90002,3.29999,5.5-.10001,11.09998,0,16.59998,0,8.30005,0,8.09998,0,9.09998-8.10001,1.80005-15.39999,3.80005-30.79999,5.59998-46.29999,.40002-3.29999,1.40002-4.5,5-4.39999,16.40002,.20001,32.90002,0,49.30005,.20001,2.90002,0,4.40002-.39999,4.5-3.79999,.19995-4.79999,1-9.60001,1.80005-14.39999,.59998-3.79999,.09998-5.5-4.5-5.39999-15.90002,.29999-31.90002,0-47.80005,.20001-3.90002,.10001-5.09998-.79999-4.5-4.89999,1.30005-7.79999,2.19995-15.70001,2.90002-23.60001,.30005-3.20001,1.30005-4.29999,4.69995-4.29999,17.30005,.20001,34.59998,.10001,51.90002,.10001,7.09998,0,11.09998-3.60001,12.09998-10.79999,.30005-2.60001,.30005-5.20001,1-7.70001,1.59985-4.80008-.80005-5.00009-4.50012-4.90005h0Z"/><path d="M310.36591,574.67663c.20001-12.70001-5.5-20-17.80005-23.29999-10.69995-2.79999-21.5-2.70001-32.5-1.39999-15.59998,1.79999-26.5,10-33.40002,23.79999-1.40002,2.79999-1.40002,4.10001,2.40002,4.5,5.30005,.60001,10.5,1.89999,15.80005,2.89999,2.40002,.5,3.90002,.20001,5.5-2.29999,5.80005-9.20001,18.80005-12.60001,28.80005-7.89999,5.09998,2.39999,4.80005,6.89999,4.90002,11.5s-3.40002,4.60001-6.19995,5.29999c-8.69995,2-17.59998,3.70001-26.30005,5.79999-9.90002,2.39999-20,4.60001-27.09998,13-7.40002,8.79999-10,18.79999-6.40002,29.89999,2.90002,9.10001,9.90002,14,18.80005,15.89999,12,2.60001,23.40002,.39999,33.80005-6.10001,2.80005-1.70001,5.40002-3.60001,8.40002-5.60001,.59998,2.89999,1.09998,5.39999,1.5,7.89999,.30005,1.89999,1.30005,2.60001,3.09998,2.60001,6.90002,0,13.90002-.10001,20.79999,0,2.20001,0,2.70001-.70001,2.09998-2.79999-3.90002-11.60001-1.79999-23.20001-.5-34.89999,1.49988-12.69998,4.09985-25.59998,4.29987-38.79999Zm-31.59998,45.20001c-2.69995,8.89999-14.19995,16.20001-23.59998,15.20001-6.30005-.70001-10.5-4.39999-11.59998-10.10001-.90002-5.10001,1.80005-10.60001,7.09998-13.20001,3.09998-1.5,6.5-2.5,9.80005-3.29999,6.80005-1.70001,13.69995-3.10001,20.90002-4.70001-.6001,5.69998-1.1001,11-2.6001,16.10001Z"/><path d="M899.96592,596.97662c-17,.20001-33.89999,.10001-50.89999,.10001-17.10001,0-34.29999,.10001-51.40002-.10001-3.29999,0-4.5,.70001-4.40002,4.20001,.20001,15.39999,.20001,30.70001,0,46.10001,0,3.20001,.90002,4.10001,4.09998,4.10001,29.10001-.10001,58.10001,0,87.20001-.10001,11.79999-.10001,19.39999-7.60001,19.70001-19.5,.29999-10.20001-.10001-20.39999,.10001-30.60001,.10004-3.5-1.09998-4.29999-4.39996-4.20001h0Zm-20,42.30002c-20.79999-.10001-41.5-.10001-62.29999,0-3.89999,0-3.39999-2.20001-3.60001-4.60001-.20001-2.79999,.60001-3.89999,3.70001-3.89999,17,.10001,33.89999-.20001,50.89999,.20001,5.5,.10001,8.79999-1.29999,10.20001-6.60001,.5-1.79999,2-3.20001,1.79999-5.60001h-61.19998c-5.20001,0-6.70001-2.20001-5.39999-7.20001,.5-1.89999,1.79999-1.79999,3.10001-1.79999,20.89999,0,41.89999,0,62.79999-.10001,2.89999,0,3.5,1.20001,3.39999,3.70001-.10001,7.39999-.10001,14.79999,0,22.29999,.19998,2.70001-.70004,3.60001-3.40002,3.60001h0Z"/><path d="M680.06593,631.47662c9-27.29999,18.09998-54.60001,27.09998-81.89999,3.20001-9.60001-.5-14.5-10.70001-14.5h-29.59998c-11.5,0-11.40002,0-11.09998,11.5,.09998,2.89999,.90002,3.79999,3.79999,3.79999,8.79999-.20001,17.59998-.10001,26.90002-.10001-.59998,2-1.09998,3.60001-1.59998,5.20001-8.79999,26.60001-17.70001,53.29999-26.40002,79.89999-2.90002,9,1.79999,15.79999,11.09998,15.89999,29.90002,.20001,59.90002,.10001,89.79999,.20001,1.29999,0,2.90002,.39999,3.79999-1,2.59998-4.29999,5-8.70001,8-13.79999h-92.79999c.70001-2.29999,1.20001-3.79999,1.70001-5.20001h0Z"/><path d="M206.36591,513.2766c-5.69995,.20001-11.5,.40002-17.09998,0-4.90002-.40002-6,1.59998-6.5,6-2.69995,24.20001-5.80005,48.29999-8.80005,72.5-2.30005,18.5-4.5,37-6.80005,55.5-.40002,3.20001,.30005,4.5,3.69995,4.20001,3.09998-.29999,6.19995-.10001,9.30005-.10001,3.30005,0,6.59998-.10001,9.90002,0,2.40002,.10001,3.40002-.79999,3.5-3.20001,0-1.89999,.5-3.79999,.69995-5.60001,3-24.20001,6-48.29999,8.90002-72.5,2.19995-17.60001,4.30005-35.29999,6.59998-52.89999,.30005-2.79996-.29993-3.99997-3.3999-3.89999h0Z"/><path d="M620.46589,551.37664c-6.20001,.10001-12.40002,.20001-18.70001,0-3.09998-.10001-4.40002,.5-4.79999,4-3.5,29.79999-7.29999,59.5-11,89.20001-.79999,6.79999-.70001,6.79999,6.20001,6.79999h6.20001c2.90002,0,5.90002-.29999,8.79999,.10001,3.59998,.39999,4.59998-1,5-4.39999,3.59998-30.79999,7.40002-61.60001,11.29999-92.29999,.60004-3.20004-.5-3.50003-3-3.40002h0Z"/><path d="M905.26591,539.67663c0-2.79999-.60001-3.89999-3.70001-3.89999-14.89999,.20001-29.70001,.10001-44.60001,0-2.89999,0-3.89999,.79999-3.79999,3.79999,.20001,7.89999,.10001,15.89999,.10001,23.79999,0,8.10001,.10001,16.20001-.10001,24.29999-.10001,2.89999,.89999,3.89999,3.79999,3.79999,12.60001-.10001,25.20001,0,37.79999-.10001,6.60001-.10001,10.29999-3.79999,10.39999-10.29999,.10004-13.79996,.00003-27.59998,.10004-41.39996h0Zm-27.69998,38.60001c-4.29999,.20001-5.60001-1-5.39999-5.29999,.39999-6.89999,.20001-13.79999,.10001-20.60001-.10001-2.70001,.70001-3.5,3.5-3.60001,10.39999-.29999,10.39999-.5,10.39999,10v10.90002c-.00003,8.49997-.00003,8.19998-8.60001,8.59998h0Z"/><path d="M794.36591,592.97662c10-.10001,20.60001,2.20001,27.39999-8.39999,1.39999-2.10001,2.5-.39999,3.60001,.60001,2.60001,2.5,4.29999,6.89999,7.70001,7.29999,6.5,.79999,13.20001,.20001,20.70001,.20001-6.70001-7.5-12.60001-14.10001-18.5-20.70001-.20001-.60001-.5-1.20001-.70001-1.79999,12,4.5,13-4.20001,16.20001-11.5-5.10001,0-9.60001-.20001-14,.10001-3.10001,.20001-3.70001-1-3.70001-3.79999,.10001-3.20001,2.10001-2.29999,3.89999-2.60001,3-.5,6.89999,1.89999,9-1.70001,2-3.29999,4-6.70001,4.89999-11.20001h-33.79999c-1.39999-1.89999,3-4.70001-1.20001-5.10001-5-.5-10-.10001-15-.10001-1.20001,0-1.79999,.70001-2.29999,1.70001-3,6.29999-6,12.70001-9.09998,19.29999h15.70001c1.5,0,3.20001,.29999,4.09998-1.5,.90002-1.89999,2.60001-1.79999,4-1.20001,1.79999,.79999,.89999,2.70001,.89999,4.20001,0,2.5-2.10001,1.79999-3.5,1.79999-3.60001,.10001-7.30002,0-10.89999,0-8.59998,0-8.40002,0-8.5,8.39999,0,3.20001,.79999,4.20001,4.09998,4,5.20001-.29999,10.5-.10001,17-.10001-7.5,8-14.09998,15-20.5,21.79999,.40002,.30005,1.5,.30005,2.5,.30005h0Z"/><path d="M748.76594,537.67663c-1.5,0-2.59998,.39999-3.79999,1.29999-13.5,11.79999-27.09998,23.5-41.70001,36.20001,9.90002,0,18.29999-.20001,26.70001,.10001,3.20001,.10001,5.5-1,7.70001-3.20001,10.79999-10.39999,21.79999-20.70001,32.59998-31,.90002-.79999,2.40002-1.39999,2.20001-3.39999-7.90002,.10001-15.80005,.10001-23.70001,0h0Z"/><path d="M736.26594,587.67663h-26.79999c.09998,.79999,0,1.20001,.20001,1.39999,10.09998,10.60001,20.20001,21.20001,30.29999,31.89999,1.20001,1.20001,2.40002,1.70001,4.09998,1.70001,8.59998-.10001,17.20001,0,27.20001,0-11.20001-11.79999-21.59998-22.70001-31.90002-33.60001-.79999-.89999-1.79999-1.39999-3.09998-1.39999h0Z"/><path d="M625.6659,513.37664c-4,.09998-8,0-11.90002,0q-11.40002,0-13,11.29999c-.59998,4.10001-2.59998,9.39999-.90002,12,2.20001,3.20001,8,.39999,11.40002,1.10001,4.29999,0,7.70001-.10001,11.20001,0,2.29999,.10001,3.5-.60001,3.70001-3,.59998-6.20001,1.40002-12.29999,2.20001-18.5,.40002-2.10001-.29999-3.00003-2.70001-2.89999h0Z"/></g><g><path d="M371.6659,310.97662h0c-9.59998-2.59998-9.70001-2.79999-6-12.40002,12.09998-31.79999,30.09998-59.70001,53-84.90002,30.5-33.5,67.20001-57.5,109.90002-72.20001,24-8.29999,48.90002-12.90002,74.29999-14.70001,5.59998-.40002,7.09998,1,5.79999,6.70001-3.20001,13.20001-3.79999,27-8.40002,39.90002,.40002,.09998,.79999,.20001,1.09998,.20001h0c10.59998-2.40002,21.29999-2.90002,32.09998-3,4.40002,0,6.29999-1.29999,7.20001-5.90002,6-28.59998,12.5-57.20001,18.79999-85.70001,4.09998-18.40002,8.09998-36.90002,12.29999-55.90002-2.20001,.40002-3.5,.59998-4.79999,1-42.90002,12.59998-84.79999,28-124.5,48.79999-52.20001,27.40002-98.59998,61.79999-133.70001,109.79999-26.40002,36.09998-43.5,76.09998-48.09998,120.90002-.5,5.29999-3.09998,3.70001-5.90002,3-20.90002-5.29999-41.29999-12-61.59998-19.09998-3.69995-1.29999-5.19995-1-6.30005,2.90002-4.40002,15.40002-6,30.90002-2.5,46.70001,9,40.90002,47,73.20001,90.90002,78.29999,41.5,4.79999,82.40002,2.20001,123.09998-6.29999,60.29999-12.70001,116-36.59998,168-69.29999,1.29999-.79999,3-1.29999,3.09998-1.79999-14.5,0-29.09998-.20001-43.70001,0-60.20001,1.09998-120.09998-3.09998-179.60004-12.5-22.59998-3.59998-45.20001-7.5-67.29999-13.5h0c-2.39984-.09998-4.7998-.59998-7.19983-1h0Z"/><path class="c" d="M578.6659,247.47662c9.20001,1.40002,9,1.79999,10.70001-7.70001,3.90002-22,8-44.09998,12.09998-66.09998h0c-.40002-.09998-.79999-.09998-1.09998-.20001h-.20001c-30.70001,3.59998-60.29999,11.70001-89.09998,23-38.59998,15.20001-73,37-102.20001,66.40002-13.90002,14-26.20001,29.29999-36.09998,46.40002-.29999,.59998-.70001,1.20001-1,1.79999,2.40002,.40002,4.90002,.90002,7.29999,1.29999h0c.5-.70001,1-1.5,1.59998-2.20001,55.10004-55.09998,121.60004-74.70001,198-62.70001h0Z"/><path class="b" d="M602.96589,126.7766c-25.40002,1.79999-50.29999,6.40002-74.29999,14.70001-42.70001,14.79999-79.40002,38.70001-109.90002,72.20001-22.90002,25.09998-40.90002,53.09998-53,84.90002-3.59998,9.5-3.59998,9.79999,6,12.40002h0c.29999-.59998,.70001-1.20001,1-1.79999,10-17.09998,22.20001-32.5,36.09998-46.40002,29.20001-29.40002,63.59998-51.20001,102.20001-66.40002,28.70001-11.29999,58.29999-19.29999,89.09998-23h.20001c4.59998-12.90002,5.29999-26.70001,8.40002-39.90002,1.30005-5.59998-.29999-7-5.79999-6.70001h0Z"/></g></svg>