<?xml version="1.0" encoding="UTF-8"?>
<svg id="Logos" xmlns="http://www.w3.org/2000/svg" viewBox="0 0 87.9998227 65.0001209">
  <defs>
    <style>
      .cls-1 {
        fill: #fff;
      }
    </style>
  </defs>
  <path class="cls-1" d="M7.4412856,30.068543c1.2211214-11.8497664,11.2644952-21.1249153,23.4311706-21.1249153,12.1667319,0,22.2101057,9.2751488,23.4312835,21.1249153h4.579657c-.7079366-8.2303201-4.9638541-15.4639065-11.2436652-20.141899,2.1834207-.6575269,4.4511773-.9879839,6.7892139-.9879839,12.1685947,0,22.2130975,9.2777455,23.431848,21.1298828h4.5837213c-1.2378306-14.3738614-13.3264924-25.695879-28.0154565-25.695879-4.0679398,0-8.12188,.8930918-11.792357,2.5877704-3.582754-1.6560105-7.5663579-2.5877704-11.7643579-2.5877704C16.1837744,4.3726641,4.0947174,15.6946816,2.8568869,30.068543H7.4412856Z"/>
  <path class="cls-1" d="M50.6036831,52.5437368c4.90159-4.8252135,7.8007373-11.1187419,8.3076562-17.9041736h-4.5817456c-.4952903,5.5512704-2.9095341,10.6883124-6.9324834,14.6484331-.9000351,.8859791-.9105912,2.3310933-.0246121,3.2311284,.8860356,.9000916,2.3310933,.9106477,3.2311848,.0246121Z"/>
  <path class="cls-1" d="M77.8834862,34.6395632c-1.0876742,11.9865442-11.190038,21.4151235-23.4545408,21.4151235l.0001129,.0019193c-12.2662528,0-22.3695763-9.4285793-23.4548795-21.4170428h-4.5820843c.6316165,8.3460985,4.91288,15.6896491,11.2591889,20.4220027-2.1834771,.6574705-4.4511773,.9950401-6.7788271,.9950401-12.2661964,0-22.3695198-9.4285793-23.4548795-21.4170428H2.8346457c1.0980609,14.5121069,13.2494949,25.9878936,28.0376977,25.9878936,4.1171075,0,8.0866554-.8719232,11.7959698-2.5877139,3.582754,1.655954,7.5627451,2.5877139,11.7607451,2.5877139,14.7878076,0,26.9396368-11.4757867,28.0376977-25.9878936h-4.5832697Z"/>
  <path class="cls-1" d="M37.8692359,12.5290349c-.889479-.8965917-2.3344802-.9035915-3.2311284-.014056-4.7954644,4.7483289-7.6620967,10.9082407-8.2266508,17.5535641h4.5857535c.5507804-5.414041,2.9354445-10.4252,6.8579697-14.3083797,.8965353-.8895355,.903535-2.3344802,.014056-3.2311284Z"/>
</svg>