<?xml version="1.0" encoding="UTF-8"?><svg id="AW" xmlns="http://www.w3.org/2000/svg" viewBox="0 0 193.22314 150.07312"><defs><style>.cls-1{fill:#1c1c1a;}</style></defs><g><path class="cls-1" d="M12.89369,139.68012v-30.13562H6.9883v-3.7343h5.90539v-17.10751c0-5.44236,.9403-9.36504,2.82249-11.76804,1.88061-2.40141,4.67461-3.6045,8.38042-3.6045,.8105,0,1.67877,.1029,2.60562,.30394,.92526,.20421,1.76505,.53664,2.51856,.99887l-1.73735,2.9523c-.40525-.28811-.85482-.50498-1.34555-.65061-.49311-.14405-1.05745-.21687-1.69381-.21687-2.49006,0-4.35721,.86749-5.60145,2.60562-1.24582,1.73655-1.86715,4.83449-1.86715,9.29222v17.19457h11.37704v3.7343h-11.37704v30.13562h-4.08177Z"/><path class="cls-1" d="M45.72041,140.37506c-3.53247,0-6.6589-.782-9.37929-2.34443-2.72197-1.56401-4.84953-3.69156-6.38346-6.38425-1.53472-2.6911-2.30089-5.71622-2.30089-9.07535,0-3.29898,.80971-6.30985,2.43149-9.03103,1.6202-2.72118,3.80633-4.89148,6.5568-6.51406,2.74888-1.61941,5.80408-2.43149,9.16242-2.43149,4.0517,0,7.45357,1.18725,10.20403,3.56017,2.74888,2.37609,4.73318,5.47244,5.94892,9.29381l-29.70109,11.46252-1.21575-2.9523,27.18253-10.59504-.86828,1.21575c-.98542-2.31435-2.47502-4.3121-4.47277-5.99166-1.99775-1.67957-4.44428-2.51856-7.33801-2.51856-2.60562,0-4.95084,.63637-7.03486,1.91068-2.08402,1.27273-3.74934,2.98238-4.99358,5.1226-1.24582,2.14339-1.86715,4.57488-1.86715,7.29606,0,2.54705,.59283,4.92155,1.78009,7.12035,1.18646,2.20196,2.85099,3.967,4.99358,5.29831,2.1418,1.33289,4.60337,1.99775,7.38233,1.99775,1.85211,0,3.6322-.34826,5.34105-1.0432,1.70648-.69494,3.22616-1.59092,4.55905-2.6911l2.08402,2.9523c-1.62099,1.27432-3.48815,2.31593-5.60145,3.12643-2.1141,.8105-4.27015,1.21575-6.46973,1.21575Z"/><path class="cls-1" d="M82.54263,140.37506c-3.24278,0-6.18083-.73768-8.81495-2.21462-2.63491-1.47694-4.71893-3.54593-6.25286-6.21012-1.53472-2.66103-2.30089-5.75896-2.30089-9.29222,0-3.7628,.80971-6.99054,2.43149-9.68323,1.6202-2.6911,3.82137-4.74584,6.60033-6.16579,2.77896-1.41837,5.93389-2.12756,9.46636-2.12756,3.00929,0,5.86186,.89756,8.55375,2.69269,2.69269,1.79512,4.61683,4.05249,5.77558,6.77367l-.60787,1.21575,.52081-9.64049h3.64724v33.95699h-4.08177v-10.50797l.86907,1.56242c-.40604,1.15876-1.10098,2.30169-2.08481,3.43037-.98463,1.13026-2.18613,2.17188-3.60371,3.12643-1.41916,.95613-2.98238,1.70964-4.68965,2.25894-1.70885,.5493-3.51743,.82474-5.42812,.82474Zm.86828-3.47469c2.54705,0,4.84874-.53347,6.90427-1.60516,2.05474-1.07169,3.72006-2.56288,4.99358-4.47357,1.27273-1.91068,1.99775-4.10947,2.17109-6.59954v-4.86298c-.46382-2.1418-1.37563-4.05249-2.73543-5.73205-1.36059-1.67957-3.02591-3.01087-4.99358-3.9955-1.96846-.98304-4.11185-1.47694-6.4262-1.47694-2.54863,0-4.89306,.59521-7.03486,1.78088-2.14259,1.18725-3.85065,2.85257-5.12339,4.99437-1.27432,2.1418-1.91068,4.66036-1.91068,7.55567,0,2.66261,.63637,5.07986,1.91068,7.25015,1.27273,2.17188,2.99583,3.90843,5.16692,5.21124,2.17109,1.30281,4.52976,1.95343,7.0776,1.95343Z"/><path class="cls-1" d="M113.89321,90.78591h4.16884v15.37254h10.50797v3.29898h-10.50797v30.22269h-4.16884v-30.22268h-7.2082v-3.29898h7.2082v-15.37254Z"/><path class="cls-1" d="M132.21725,139.68012V73.6784h3.99471v41.07733l-.2604-1.47694c1.15797-2.37292,3.02512-4.38492,5.60145-6.03599,2.57555-1.64949,5.54367-2.47423,8.90201-2.47423,3.18342,0,5.76055,.94189,7.72901,2.82249,1.96767,1.88219,2.98159,4.32793,3.03936,7.3388v24.75025h-4.16805v-23.62156c-.05857-2.20037-.75351-4.02399-2.08481-5.47086-1.3321-1.44686-3.27127-2.20037-5.81833-2.25894-2.25815,0-4.37225,.57938-6.33993,1.73655-1.96846,1.15876-3.54672,2.72276-4.73318,4.69044-1.18725,1.96926-1.78009,4.19812-1.78009,6.6866v18.23777h-4.08177Z"/><path class="cls-1" d="M171.55803,105.72312l.43374,10.42249-.52081-1.30281c.75193-2.08481,1.93918-3.87836,3.56096-5.38537,1.6202-1.50385,3.43037-2.66103,5.42732-3.47311,1.99775-.8105,3.92189-1.21575,5.77558-1.21575l-.17413,3.99392c-2.60483,0-4.96509,.58096-7.0776,1.73814-2.1141,1.15876-3.79287,2.70693-5.03711,4.64611-1.24582,1.94076-1.86715,4.1253-1.86715,6.5568v17.97658h-4.08177v-33.95699s3.56096,0,3.56096,0Z"/></g><path class="cls-1" d="M142.60094,5.25832c-.1746,.0087-17.72655,1.00262-38.43535,9.94205-19.13249,8.25859-44.99133,25.17968-59.52974,58.88961-.27282,.63277,.01863,1.36638,.65139,1.6392,.09257,.04014,.18674,.06759,.28217,.08412,.55518,.09618,1.12436-.19532,1.35704-.73551C72.27036,16.31661,133.00515,8.63385,141.69253,7.83284c.36907,2.4731,.3995,10.02735-9.13597,22.01573l-25.90436,.19677c-.64316,.00481-1.17736,.49772-1.23343,1.13898-.05596,.64066,.38479,1.219,1.01745,1.3354l19.63294,3.60564-9.97582,10.57986-26.05005-4.95776c-.64238-.08532-1.25376,.26069-1.43227,.88074-.1783,.61886,.1443,1.27255,.74477,1.50701l20.88243,8.15884c-4.65964,3.03808-17.13414,10.22324-28.85427,8.71412-15.13903-1.95054-20.73833-3.13441-20.79383-3.14588-.65237-.12043-1.33643,.28469-1.48093,.95824s.28409,1.33633,.95764,1.48082c.22652,.04851,5.72699,1.21403,20.9985,3.18133,15.72029,2.02465,31.88972-9.98481,32.57066-10.4968,.36115-.27189,.54726-.71815,.48583-1.16648-.06154-.44774-.36105-.82789-.782-.99231l-10.51044-4.10625,13.46942,2.56328c.43291,.04903,.8487-.06008,1.141-.36987l12.01776-12.74596c.31357-.33268,.42036-.80998,.27793-1.24392-.14233-.43453-.51072-.75614-.96003-.83892l-8.95789-1.64512,13.35113-.1013c.37325-.00273,.72604-.17283,.96052-.46295,13.07242-16.17547,9.84838-25.42169,9.70504-25.80755-.18933-.50944-.68734-.83929-1.23332-.81021Z"/></svg>