<?xml version="1.0" encoding="UTF-8"?>
<svg id="Layer_1" data-name="Layer 1" xmlns="http://www.w3.org/2000/svg" viewBox="0 0 854.0019531 889.9257929">
  <defs>
    <style>
      .cls-1 {
        fill: #fff;
      }
    </style>
  </defs>
  <path class="cls-1" d="M389.3093856,617.6919095l7.4153447,11.0844559c-21.0047509,14.0521403-56.9368484,68.9803483-57.2974311,69.5338385l-11.1733806-7.2804315c1.5322726-2.3515195,37.7923945-57.7746129,61.055467-73.3378629M388.6979287,613.668776l-1.705851.5593428c-10.0761676,6.7410837-23.4278731,21.0651362-39.6841814,42.5743365-12.1652626,16.0961879-21.519044,30.3767955-22.54557,31.9521569l-2.2752111,3.4916178,3.4916942,2.2751603,11.1733552,7.2804823,3.4919485,2.275262,2.2750077-3.4920757c.0889502-.136592,9.2174947-14.0842916,20.7507965-29.481291,14.9303482-19.9321601,27.161821-33.3709843,35.3720703-38.8636118l3.4637907-2.3172316-2.3172316-3.4638416-7.3336413-7.8780197-3.4412505-3.4412505-.715726-1.4710366Z"/>
  <path class="cls-1" d="M455.4598116,622.5846004c23.2632759,15.56325,59.5236013,70.9863434,61.0558739,73.3378629l-11.1733806,7.2804315c-.3605826-.5534902-36.2926802-55.4816982-57.2976345-69.5338385l7.4151412-11.0844559M456.3757394,618.1833077l-4.2005378,4.102793-7.5943728,9.0657239-2.3171553,3.4637907,3.4637653,2.3172316c8.2103256,5.4926784,20.4418493,18.9315026,35.3722483,38.8636118,11.5370155,15.4019849,20.6618209,29.344699,20.7506948,29.4811893l2.2750077,3.4922792,3.4920248-2.2753638,11.1733806-7.2804823,3.4916687-2.2751094-2.2751603-3.4916687c-1.0265005-1.5753105-10.3800276-15.8554603-22.5457226-31.9521569-16.2564355-21.5092002-29.6082173-35.8332528-39.6844867-42.5743365l-1.4013547-.937502Z"/>
  <path class="cls-1" d="M390.0423288,434.2878029c24.44018-11.0847782,47.3178571-10.7618003,72.3370133-1.2463726,3.8125513,1.449956,15.8154229,8.4050931,6.7238055-1.3504781-24.4354805-26.220012-72.9900559-24.9553814-90.8200555,8.0345381,1.5027008,1.148581,9.609362-4.462462,11.7592091-5.4376874h.0000276Z"/>
  <path class="cls-1" d="M443.6330313,504.9339347c13.0886196-.4798781,27.9557265-1.8015452,41.1936562-3.5638622,9.3867467-1.2497789,19.3907394-3.3103366,28.3717797-6.3193801,1.4501648-.485881,4.3735808-1.143604,4.9095201-2.772076l-20.5348438,1.7026438c-13.9678449.3100664-27.9653484.5172692-41.9337021.8557732-18.4685905.4475742-36.4042939.3259895-54.7703768,0-21.3567615-.3791001-42.1718606.2386927-63.3282617-2.5673706-1.0928125-.144986-4.6960626-.1124772-5.8061463-.1940255-1.835802,1.332192,9.6709463,5.6091489,15.1511492,6.5445193,11.986879,2.7300601,26.3924255,3.8877536,38.5548393,4.8671973,19.276264,1.5523671,38.8160308,2.1570627,58.192386,1.4465807Z"/>
  <path class="cls-1" d="M661.4735811,393.5139815c-5.4912109,1.6484375-11.3383789,5.5513916-17.5424805,5.5594482,4.6159668-7.2052002,8.703125-16.855957,10.2512207-25.255249,3.3000488-17.9046631.9938965-35.0212402-6.8461914-51.347168-23.6569824-49.2624512-89.3901367-60.5395508-127.5124512-20.5390625-9.7585449,10.2393799-17.7956543,25.4597168-20.5390625,39.3664551-2.4946289,12.645874-2.5014648,29.6530762,1.7116699,41.9335938,3.479248,10.1408691,13.4624023,24.8789062,21.3947754,32.5200195,31.2094727,30.0629883,79.279541,27.0490723,113.8198242,4.2788086,9.9118652-6.5344238,18.621582-16.4567871,26.5222168-25.2572021.2617188-1.1708984-.0627441-1.6188965-1.2595215-1.2596436ZM549.5663545,305.5806319c1.5690918-.2045898,3.0737305-.2844238,4.5136719-.2503662,6.2390137.1474609,11.2570801,2.4315186,14.9882812,5.9550781.2871094.2711182.5664062.5494385.8383789.8347168.543457.5705566,1.0563965,1.1688232,1.5385742,1.791626.2409668.3114014.4743652.6289062.6999512.9520264,1.5793457,2.2623291,2.7800293,4.803833,3.5913086,7.4847412.2316895.7659912.4318848,1.5432129.5998535,2.3287354,2.9404297,13.7449951-3.9223633,29.9713135-21.8706055,31.1705322-.4914551.0327148-.9760742.0532227-1.4543457.0617676-30.123291.5397949-33.9890137-46.3466797-3.4450684-50.3288574ZM642.1322725,373.7339522c-.3320312,3.7446289-.9868164,7.3312988-1.9306641,10.75-.472168,1.7094727-1.0166016,3.3769531-1.6289062,5.0009766-.6125488,1.6242676-1.2932129,3.2052002-2.0378418,4.7415771-1.8618164,3.8410645-4.123291,7.4039307-6.7199707,10.6690674-1.0385742,1.3061523-2.1308594,2.5644531-3.2724609,3.7739258-13.6638184,14.4766846-34.4060059,21.9440918-55.079834,20.2487793-.1420898-.0115967-.2844238-.0253906-.4265137-.0378418-1.6381836-.1444092-3.2758789-.3419189-4.9091797-.6026611-1.0488281-.1673584-2.0947266-.3675537-3.138916-.5836182-4.5854492-.9490967-9.1164551-2.375-13.5175781-4.2929688-.7514648-.3275146-1.4985352-.6697998-2.2419434-1.0263672-6.934082-3.3259277-13.5024414-7.9086914-19.3752441-13.871582-.6894531-.6999512-1.3691406-1.4187012-2.0390625-2.1564941h.0002441c7.8244629,3.2490234,11.737793,6.3702393,18.0012207,8.9472656,40.4494629,16.6420898,86.1430664-4.9621582,95.5817871-48.1304932l1.9384766-11.3116455c.7109375,4.1955566,1.0493164,8.248291,1.0483398,12.1481934-.0007324,1.9499512-.0859375,3.8615723-.2519531,5.7338867Z"/>
  <path class="cls-1" d="M353.0338838,341.2984053c-2.7434082-13.9067383-10.7805176-29.1270752-20.5388184-39.3664551-38.1225586-40.0004883-103.8554688-28.7233887-127.5124512,20.5390625-7.8400879,16.3259277-10.1462402,33.4425049-6.8464355,51.347168,1.5480957,8.399292,5.6352539,18.0500488,10.2514648,25.255249-6.2041016-.0080566-12.0512695-3.9110107-17.5424805-5.5594482-1.1970215-.3592529-1.5212402.0887451-1.2597656,1.2596436,7.9006348,8.800415,16.6103516,18.7227783,26.5224609,25.2572021,34.5400391,22.7702637,82.6103516,25.7841797,113.8198242-4.2788086,7.9321289-7.6411133,17.9155273-22.3791504,21.3945312-32.5200195,4.2133789-12.2805176,4.206543-29.2877197,1.7116699-41.9335938ZM250.9779756,305.5806319c33.4724121-4.3642578,37.7189941,48.0743408,4.8994141,50.2670898-31.4460449,2.1008301-35.9279785-46.2216797-4.8994141-50.2670898ZM326.5043428,406.3467452c-10.7163086,11.8041992-24.0058594,18.7458496-37.7338867,21.4696045-.8581543.1702881-1.7177734.3239746-2.5786133.4614258-14.3596191,2.2923584-29.0463867.0360107-41.6525879-6.0211182-.5004883-.2404785-.9973145-.4873047-1.4914551-.7397461-1.2363281-.6323242-2.4567871-1.2927246-3.6479492-1.9990234-.7182617-.4257812-1.4277344-.8649902-2.1279297-1.3173828-2.8010254-1.8093262-5.4545898-3.8295898-7.927002-6.050415-3.7087402-3.3311768-7.0102539-7.1141357-9.7922363-11.3143311-.7587891-1.145752-1.4682617-2.3305664-2.1474609-3.5375977-.565918-1.0056152-1.1137695-2.0244141-1.6213379-3.0716553-.3723145-.7681885-.7287598-1.5474854-1.0686035-2.3378906-4.4174805-10.2739258-6.0432129-22.4014893-3.7324219-36.0367432v.0002441-.0002441l1.9382324,11.3116455c.8850098,4.0469971,2.088623,7.904541,3.576416,11.5587158.9921875,2.4362793,2.1103516,4.7819824,3.3452148,7.0334473,2.4692383,4.5026855,5.4038086,8.6278076,8.7226562,12.3427734,13.2746582,14.859375,32.6953125,23.1547852,53.0742188,22.8010254,8.9157715-.1547852,18.0151367-1.9649658,26.8632812-5.6054688.003418-.0012207.0063477-.0025635.0095215-.0039062,6.2573242-2.5762939,10.1711426-5.6958008,17.9912109-8.9428711.0002441-.0002441.0004883-.0002441.0007324-.0004883h0v.0001221-.0001221Z"/>
  <ellipse class="cls-1" cx="380.8392467" cy="463.3084032" rx="12.7814619" ry="10.7429729" transform="translate(-196.3667232 626.1779111) rotate(-66.3372244)"/>
  <ellipse class="cls-1" cx="472.9736087" cy="463.3084032" rx="10.7429729" ry="12.7814619" transform="translate(-146.1841771 228.7826107) rotate(-23.6627756)"/>
  <g>
    <path class="cls-1" d="M742.5709033,693.7792062c23.3740824-31.5209674,42.3893348-66.9948053,55.869758-105.7816152.0432303-.124062.0871361-.2476736.1303664-.3717355.3469682-1.0017271.6880823-2.0070567,1.0278454-3.013287.2724409-.804714.5439813-1.6096532.8114687-2.4166188.1787753-.5403787.355299-1.0821084.5318227-1.6238381.4341043-1.3286562.8619041-2.6602395,1.2824989-3.994975.0421045-.1335186.0839839-.2670372.1258632-.4005557,5.2015957-16.5621581,9.36679-33.5917438,12.4109236-51.0137796.118433-.6750231.229661-1.3500462.3444914-2.0250693.1519815-.8965784.3057643-1.7927065.4516666-2.6913113.2033175-1.2453478.3967281-2.4909208.587887-3.7362687.0488592-.3194989.0999701-.6380972.1479287-.9580465,2.7825002-18.4158823,4.2509794-36.8173546,4.4705083-55.0904868.0027019-.208271.0047283-.4167671.007205-.6250381.0126088-1.207071.0209397-2.4136917.0227409-3.6196369.0009006-.3919997.007205-.7826485.007205-1.1748734,0-.5723511-.0083308-1.1426759-.0108076-1.7145767-.0022516-.3926752-.0038277-.7855756-.007205-1.1782508-.7263591-103.4120545-40.3363459-197.463173-104.7699812-267.913025-40.0278798-44.0494234-90.2337931-79.3814119-148.3380172-101.6889218-.4064098-.1573853-.8121442-.3154461-1.2190044-.4714805-.2674875-.1015462-.5356504-.2024169-.8033631-.3035127-21.4028258-8.1527391-43.6923231-14.4706672-66.6816108-18.7693801-4.5110367-.8821683-9.3127521-1.7224572-14.4062721-2.4215722-1.0879625-.1492796-1.1674432-1.8190499-2.4127911-2.6967151-22.7778646-16.0517253-53.0203859-21.5421985-79.2537474-10.815005-6.1713504,2.5235687-11.3592114,6.6198647-17.3308468,9.4491978-.3800664-25.9982967-26.6839022-30.0756795-43.4759464-14.043768-7.7629909,7.4115196-11.5490195,17.5046687-15.8432292,27.0538365C186.0893263,107.175117,76.5428474,220.8872406,43.5004886,364.3643258c-.0968179.4203696-.1945363.8400638-.2902284,1.2608837-.445137,1.9615748-.8754136,3.9285534-1.2917303,5.901161-.1089764.5160617-.2152509,1.0325737-.3222008,1.5490857-.4246476,2.051638-.8378122,4.1073287-1.2311629,6.1704497-.0177875.094116-.0344491.1884571-.0524618.282573-3.7826512,19.9197113-6.0977238,40.3658416-6.8339898,61.2210837-.0209397.5700996-.037151,1.1392985-.055614,1.7089478-.0538127,1.73349-.1083009,3.4667548-.1402733,5.2058737-.0481838,2.4551207-.075653,4.9073144-.0794807,7.3559056-.0002252.0740769-.0024767.1477035-.0024767.2217804,0,1.8046398.0132843,3.6063526.0369259,5.4053635.0150856,1.2235075.04278,2.4447635.0688983,3.6662446.0130592.5923902.0245422,1.1850055.0403032,1.7767203.0376014,1.4684792.0839839,2.9356075.1375714,4.4013848.0056289.1495048.0119334.2985593.0175623.448064.4336539,11.4816973,1.3547745,22.8744573,2.7525542,34.1568899.0524618.4264489.1031223.8537984.156935,1.279797.1447765,1.1381727.295407,2.2745442.4498653,3.4102402.1404985,1.0402291.2866259,2.0786569.4350049,3.1161841.10695.7414447.2107477,1.48379.3215254,2.2241088,26.0325207,174.9593255,164.3633991,312.6662916,338.3000578,335.4761286.0824078.0108076.1645904.0225158.246773.0333234.9877673.1287903,1.9777862.2501503,2.9675799.3715104,15.5921783,1.9327546,31.1602646,2.8921521,46.6331092,2.9157936.4122639.0013509.8229518.0078805,1.2354409.0078805.1024468,0,.2044433-.0020264.3068901-.0020264.1686432-.0004503.3372864-.0024767.5061548-.0031522,127.3542101-.2607327,240.5153725-61.723861,312.3170719-156.8854579.8069656-1.0649964,1.6056003-2.1376482,2.402659-3.2121013.0121585-.0166617.0247674-.0330982.037151-.0497599ZM248.1669103,652.3762877c1.3173983,1.7564561,27.5190125,24.2985804,13.9059714,35.2768248,0,0-6.5869917,8.7827306-28.104648-3.3667847,0,0-3.7954852-.5752782-2.4033344,3.2301139,1.3923759,3.8053921,17.5418197,12.2512867,13.6436626,22.0895571s-13.0512724,8.8453245-18.098635,6.1256433c-3.6817805-1.9838655-11.9982093-3.2812247-14.3844318-3.622564-.6315677-.0902883-1.2248585.3656563-1.2662875,1.0024026-.0297208.4530175.1083009,1.0670229.614906,1.8778161,1.3921507,2.2274862,11.5089414,9.28123,9.5597502,14.0147226-1.948966,4.7334926-10.7249419,10.2581898-17.7273497,3.4341069-8.3515534-8.1390045-34.7389228-26.6674657-36.8653132-37.4649084-1.7645617-8.9603802,34.5205198-72.130655,53.5031243-83.8690322,2.2948084-1.4189445,5.0457865-1.8985306,7.7080524-1.4608239,11.7667471,1.9350062,56.5013257,10.8059987,56.3745618,34.0787601-.1528822,28.0958668-27.8704839,9.2902363-35.568179,6.901312,0,0-2.2092484-.0036025-.8918501,1.7528535ZM637.6556953,712.1090783c-2.3859973.3413392-10.7028764,1.6386985-14.3844318,3.622564-5.0473626,2.7196812-14.2004778,3.7126271-18.098635-6.1256433s12.2512867-18.284165,13.6436626-22.0895571c1.3921507-3.8053921-2.4035596-3.2301139-2.4035596-3.2301139-21.5174311,12.1495154-28.1044228,3.3667847-28.1044228,3.3667847-13.6130411-10.9782444,12.5885731-33.5203688,13.9059714-35.2768248,1.3171732-1.7564561-.8918501-1.7528535-.8918501-1.7528535-7.69747,2.3889243-35.4152969,21.1945548-35.5684042-6.901312-.1265387-23.2727614,44.6080399-32.1437539,56.374787-34.0787601,2.6622659-.4377068,5.413244.0418794,7.7080524,1.4608239,18.9826045,11.7383772,55.267686,74.908652,53.5031243,83.8690322-2.1263903,10.7974427-28.5139849,29.3259039-36.8653132,37.4649084-7.0024078,6.8240829-15.7783838,1.2993857-17.7273497-3.4341069-1.9491911-4.7334926,8.1673744-11.7872364,9.5597502-14.0147226.5066051-.8107933.6444016-1.4247986.614906-1.8778161-.0416542-.6367463-.6347199-1.0926908-1.2662875-1.0024026ZM366.942833,53.5524339h0s-.5901386,20.1793183,6.5534432,30.0162378c2.2794977,3.1393753,11.9905539,13.3020982,13.1210713,11.9171525,1.4389836-16.9037225,15.2627724-28.2523515,30.9686553-31.9402113,10.0674811-2.3637067,21.6754919-2.7820499,31.4943988.7223063,1.7472246.623462,14.7365786,7.3617597,12.8515574,9.8144037-11.3141799,2.8804438-23.6969587,8.0329551-32.5267474,15.8308455-.8673079.7659869-6.0893929,5.5643249-5.1203137,6.4242026,45.8840092-2.1633162,92.7143567,9.8312906,134.0771971,28.9505659,75.1232274,34.7242876,132.3446077,99.8664945,151.8630878,181.0385864,24.088283,100.1758613-10.9061939,215.6268786-116.7082985,255.9431855,0,0-42.7567924,17.4625642-84.8441906,28.8845946,0,0,52.3088873,4.2088749,83.4918928-8.8725686,5.610032,2.8876489,9.8182314,6.7473041,12.4354658,11.7102325,0,0,2.7358925,4.8814213-8.8068225,5.7223857-13.0001616.9470137-43.8987928,11.0444408-48.4971907,37.3009935-1.5774556,9.0081136.4122639,18.2765096,5.2603619,26.0307194,11.1005051,17.7539184,42.6910463,65.6159389,71.8557373,84.6318668,4.2367945,2.7624612-48.4208622,30.3442927-48.4208622,30.3442927,0,0-131.0553541,70.1483656-279.5989404,10.3120025,0,0-33.4300805-12.6685041-69.7975697-37.7283431,0,0,29.527195-26.9462111,52.1785209-59.6670445,13.8159083-19.9582133,29.5416051-37.8510541,21.1436692-60.0196416-3.2384448-8.5483414-9.4845475-15.6009594-17.3621438-20.2383096-7.1003515-4.1800547-18.2942971-9.13848-35.0408594-12.6907947,0,0-8.057047-10.4770432,9.7052022-14.8360983,0,0,35.7787016,11.5713101,81.2864721,8.0003073,0,0-23.34211-7.006911-51.129961-16.0033164-26.8604259-8.6960449-55.1803248-20.0638123-70.002013-31.9125169-31.0697512-24.8376082-50.3268231-42.7903409-72.9506797-99.0039149-40.9685891-114.5100829,19.5819746-226.4686774,111.8516446-292.9656589,30.8436927-22.2284795,65.4450441-41.2142362,103.8175637-45.5179026,1.0812078-.9294514-4.2563832-5.2252373-6.3399936-7.7719972-13.1766853-16.1050877-5.1169364-36.735172,13.1906451-44.4265627Z"/>
    <path class="cls-1" d="M305.5661653,468.051298c-16.720444,4.9329824-44.083197,1.1332193-46.5617342,26.1795487-1.8343607,18.5340902,14.7933183,24.5991661,32.0210429,29.4107884,0,0,112.448538,30.201993,271.7346284-1.6504067,23.4332989-1.6544596,38.368917-28.6918596,16.9982888-44.8942155-8.6951443-6.5921703-14.6388601-4.940863-24.2107689-6.5977993-65.0136418-11.2540628-64.8567068-88.9897962-143.0089822-79.4696737-51.4843594,6.2713204-62.4668818,63.8916804-106.9724749,77.021758ZM414.6141449,406.1885146c62.054843-6.6878624,67.7598916,51.5462778,114.2675879,72.6451405,7.0402344,3.1938635,15.7461862,5.2446008,23.3612484,6.5914948,6.2397984,1.1034984,20.1766164-.0051786,22.363349,8.439365,3.4377094,13.2750792-16.4489037,14.5238044-25.2802684,16.2273484-83.08841,14.8914871-179.7770272,15.2127873-261.2222355-1.8600287-6.7421254-1.6168582-17.0516512-5.6649705-13.4315639-14.3400757,3.8261066-9.1686511,16.1616023-7.1032785,24.0691446-8.456477,57.4199695-9.8265622,69.9214065-74.2946467,115.8727379-79.2467675Z"/>
  </g>
  <path class="cls-1" d="M424.823186,544.1066913c23.9508909,0,43.3669518,19.4160609,43.3669518,43.3669772s-19.4160609,43.3669772-43.3669518,43.3669772-43.3669518-19.4160609-43.3669518-43.3669772,19.4160609-43.3669772,43.3669518-43.3669772M424.823186,533.271306c-14.4779666,0-28.089375,5.6380713-38.3268331,15.875504-10.2374836,10.2374836-15.875504,23.8488665-15.875504,38.3268585s5.6380204,28.089375,15.875504,38.3268585c10.2374581,10.2374327,23.8488665,15.875504,38.3268331,15.875504s28.0893495-5.6380713,38.3268331-15.875504c10.2374836-10.2374836,15.875504-23.8488665,15.875504-38.3268585s-5.6380204-28.089375-15.875504-38.3268585c-10.2374836-10.2374327-23.8488665-15.875504-38.3268331-15.875504h0Z"/>
  <path class="cls-1" d="M547.5595944,692.6985607c23.9508909,0,43.3669518,19.4160609,43.3669518,43.3669772s-19.4160609,43.3669772-43.3669518,43.3669772-43.3669518-19.4160609-43.3669518-43.3669772,19.4160609-43.3669772,43.3669518-43.3669772M547.5595944,681.8631754c-14.4779666,0-28.089375,5.6380713-38.3268331,15.875504-10.2374836,10.2374836-15.875504,23.8488665-15.875504,38.3268585s5.6380204,28.089375,15.875504,38.3268585c10.2374581,10.2374327,23.8488665,15.875504,38.3268331,15.875504s28.0893495-5.6380713,38.3268331-15.875504c10.2374836-10.2374836,15.875504-23.8488665,15.875504-38.3268585s-5.6380204-28.089375-15.875504-38.3268585c-10.2374836-10.2374327-23.8488665-15.875504-38.3268331-15.875504h0Z"/>
  <path class="cls-1" d="M303.6383054,692.6985607c23.9508909,0,43.3669518,19.4160609,43.3669518,43.3669772s-19.4160609,43.3669772-43.3669518,43.3669772-43.3669518-19.4160609-43.3669518-43.3669772,19.4160609-43.3669772,43.3669518-43.3669772M303.6383054,681.8631754c-14.4779666,0-28.089375,5.6380713-38.3268331,15.875504-10.2374836,10.2374836-15.875504,23.8488665-15.875504,38.3268585s5.6380204,28.089375,15.875504,38.3268585c10.2374581,10.2374327,23.8488665,15.875504,38.3268331,15.875504s28.0893495-5.6380713,38.3268331-15.875504c10.2374836-10.2374836,15.875504-23.8488665,15.875504-38.3268585s-5.6380204-28.089375-15.875504-38.3268585c-10.2374836-10.2374327-23.8488665-15.875504-38.3268331-15.875504h0Z"/>
  <path class="cls-1" d="M475.3000287,703.9452895l19.0838542,25.7011685-31.3935765,6.3438512,3.7654264-9.8022433c-12.5238435-3.4004409-30.1761409-6.4949733-52.5988633-6.2886448-6.3683361.0585999-13.1231464.3836724-20.2524816,1.043486-21.6025211,2.0002085-36.5601877,6.1913567-36.7087524,6.2335108l-4.0740003-12.4737042c.64431-.1830725,16.5330585-4.645935,39.2624144-6.777274,6.3341427-.5941149,13.6166963-1.0402067,21.5474793-1.1130839,17.1974039-.1579465,37.4282988,1.4392268,57.5439598,7.0891723l3.8245401-9.9562385M474.14807,695.5256696l-2.6702409,6.9513688-2.501318,6.5115538c-16.8476249-4.3435421-35.355921-6.4517088-55.0826075-6.2705885-7.2353879.0664783-14.6009941.4469555-21.892207,1.1307514-23.0575679,2.1621503-38.8479147,6.5982851-39.5088267,6.7860089l-3.9393948,1.119305,1.1201033,3.9392375,3.5836674,12.6030069,1.1191743,3.936047,3.9367179-1.1168812c.1421367-.0399956,14.8888259-4.1436296,35.9687585-6.0954433,6.710349-.6211692,13.4100162-.9664277,19.9126481-1.0262634,16.8001611-.154591,32.61594,1.5327933,47.0896823,5.0194586l-2.1161452,5.5088271-2.6728542,6.9579908,7.3060877-1.4763809,31.3935765-6.3438512,6.3205347-1.2771725-3.8441821-5.1771696-19.0838542-25.7011685-4.4393202-5.9786368h0Z"/>
</svg>