<svg id="Layer_1" data-name="Layer 1" xmlns="http://www.w3.org/2000/svg" viewBox="0 0 400 115"><defs><style>.cls-1{fill:#fff;}</style></defs><title>lfdl-horizontal-white</title><path class="cls-1" d="M15.348,43.008V28.157H7.392V50.434H31.127V43.008Z"/><path class="cls-1" d="M46.973,13.306H7.392V24.444h7.89V20.731H39.017V43.008H35.105v7.426H46.973Zm10.409.398H69.448V41.019H86.753v9.415H57.382Zm34.476,0H122.09v9.414H103.924v4.575h15.58v8.751h-15.58v13.99H91.858Z"/><path class="cls-1" d="M7.392,65.683H20.188c11.205.265,16.973,6.165,16.973,18.1s-5.768,17.834-16.973,18.099H7.392Zm3.514,33.282h7.492c10.608,0,15.182-4.31,15.182-15.183S29.006,68.6,18.398,68.6H10.906ZM42.862,65.683H68.388V68.6H46.376V81.66h20.62v2.918H46.376v14.32H68.653v2.918H42.863Zm30.698,0H99.084V68.6H77.073V81.66h20.62v2.918H77.073v14.32H99.35v2.918H73.56Zm30.696,0h16.376c6.63,0,10.94,3.779,10.94,10.342s-4.377,10.343-10.94,10.343H107.77v15.514h-3.514Zm3.514,17.768h12.132c4.907,0,8.222-2.387,8.222-7.426s-3.315-7.425-8.222-7.425H107.77Zm43.426-17.768h3.514V98.965h20.685v2.917h-24.2Zm27.846,0H204.5V68.6H182.488V81.66h20.62v2.918h-20.62v14.32h22.277v2.918h-25.79V65.683Zm41.503,0h3.912l14.52,36.199h-3.78l-4.508-11.27h-16.84l-4.442,11.27h-3.78Zm-5.635,22.01h14.52L222.269,69.13Zm27.381-22.01h16.907c6.033,0,11.204,2.917,11.204,9.414,0,4.641-2.453,8.287-7.226,9.216v.132c4.84.663,6.232,3.78,6.497,8.155.133,2.453.133,7.492,1.724,9.282h-3.912c-.795-1.392-.795-4.11-.994-5.635-.266-5.04-.796-10.675-7.426-10.476H245.74v16.045h-3.448Zm3.514,17.171h13.127c4.31,0,7.956-2.652,7.956-7.028,0-4.442-2.652-7.226-7.956-7.226H245.805Zm30.962-17.171h3.912l21.547,30.63h.133V65.683h3.513v36.199h-3.911l-21.548-30.63h-.132v30.63h-3.514Zm36.73,0h3.514v36.199h-3.514Zm11.205,0h3.911l21.548,30.63h.132V65.683h3.514v36.199h-3.912l-21.547-30.63h-.133v30.63h-3.513v-36.2Zm68.089,36.199h-2.52l-.463-6.564h-.133c-2.453,5.172-7.425,7.36-12.796,7.36-11.668,0-17.436-8.95-17.436-18.896s5.768-18.829,17.436-18.829c7.757,0,14.056,4.11,15.448,12h-3.514c-.398-4.176-4.906-9.083-11.934-9.083-9.812,0-13.923,8.023-13.923,15.912s4.111,15.912,13.923,15.912c8.155,0,12.929-5.569,12.796-13.26H377.078V83.517h15.713Z"/></svg>