<?xml version="1.0" encoding="utf-8"?>
<!-- Generator: Adobe Illustrator 28.3.0, SVG Export Plug-In . SVG Version: 6.00 Build 0)  -->
<svg version="1.1" id="Layer_1" xmlns="http://www.w3.org/2000/svg" xmlns:xlink="http://www.w3.org/1999/xlink" x="0px" y="0px"
	 width="800px" height="648.5px" viewBox="0 0 800 648.5" style="enable-background:new 0 0 800 648.5;" xml:space="preserve">
<style type="text/css">
	.st0{fill:url(#SVGID_1_);}
	.st1{fill:url(#SVGID_00000116953768272292590790000015442877430177127812_);}
	.st2{fill:url(#SVGID_00000057855824270500410840000003089306445377650596_);}
	.st3{fill:url(#SVGID_00000125582382166315316840000013704354879771195307_);}
	.st4{fill:url(#SVGID_00000117663608867539164320000016277611359873017015_);}
	.st5{fill:url(#SVGID_00000160874232990007783930000007283050574982483617_);}
	.st6{fill:url(#SVGID_00000126303980586520671450000007536639307856363188_);}
	.st7{fill:url(#SVGID_00000160172075324404479780000006662846008297604497_);}
	.st8{fill:url(#SVGID_00000110455126660132626640000002739353613568322688_);}
	.st9{fill:url(#SVGID_00000047044777538832892970000009386597607416939695_);}
	.st10{fill:url(#SVGID_00000151512962333039961880000002187679531019528627_);}
	.st11{fill:url(#SVGID_00000005964571554036746190000017168451154345045126_);}
	.st12{fill:url(#SVGID_00000006668708873178541200000012530426038113722531_);}
	.st13{fill:url(#SVGID_00000016046918153612802160000007737804739051380612_);}
	.st14{fill:url(#SVGID_00000047025769847772174280000010775589659921768847_);}
	.st15{fill:url(#SVGID_00000054970990940419581030000000756952297557985437_);}
	.st16{fill:url(#SVGID_00000139284347400827641130000013629476723540998811_);}
	.st17{fill:url(#SVGID_00000023266887225111783300000018364422321962047156_);}
	.st18{fill:url(#SVGID_00000073720327174761818820000007707401824422086334_);}
	.st19{fill:url(#SVGID_00000116212145769815999630000002393790693416078504_);}
	.st20{fill:url(#SVGID_00000036950213002145734790000000511430020590943629_);}
	.st21{fill:url(#SVGID_00000026121881336275091970000002476551827691252385_);}
	.st22{fill:url(#SVGID_00000031199574425767297860000012974525294130833069_);}
	.st23{fill:url(#SVGID_00000061434497912815457020000002207398366125100985_);}
	.st24{fill:url(#SVGID_00000053530837906319676460000004658392485261384067_);}
	.st25{fill:#FFFFFF;}
	.st26{fill:url(#SVGID_00000168085532630605922570000007552020242695372466_);}
	.st27{fill:url(#SVGID_00000052092422225773203870000006731539089653138344_);}
	.st28{fill:url(#SVGID_00000082361451541622055590000002851474510260756880_);}
</style>
<g>
	<path d="M0,0v129.7v129.8v129.7v129.7l224.6,129.8V518.8V389.1V259.4V129.7L112.4,64.8L0,0z M147.1,285.2l19.6-19.5l19.6,19.5
		l-19.6,19.5l-19.6,19.5l-19.6,19.5L108,363.3l-19.6,19.5l-19.6-19.5l-19.6-19.5l-19.6-19.5l19.6-19.5l19.6,19.5l19.6,19.5
		l19.6-19.5l19.6-19.5L147.1,285.2z"/>
	<path d="M287.8,0v129.7v129.8v129.7v129.7l224.6,129.8V518.8V389.1V259.4V129.7L400,64.8L287.8,0z M435.2,285.2l19.6-19.5
		l19.6,19.5l-19.6,19.5l-19.6,19.5l-19.6,19.5l-19.6,19.5l-19.6,19.5l-19.6-19.5l-19.6-19.5l-19.6-19.5l19.6-19.5l19.6,19.5
		l19.6,19.5l19.6-19.5l19.6-19.5L435.2,285.2z"/>
	<path d="M687.6,64.8L575.3,0v129.7v129.8v129.7v129.7L800,648.5V518.8V389.1V259.4V129.7L687.6,64.8z M746.3,304.7l-19.6,19.5
		l-19.6,19.5l-19.6,19.5l-19.6,19.5l-19.6-19.5L629,343.8l-19.6-19.5l19.6-19.5l19.6,19.5l19.6,19.5l19.6-19.5l19.6-19.5l19.6-19.5
		l19.6-19.5l19.6,19.5L746.3,304.7z"/>
</g>
</svg>
