<?xml version="1.0" encoding="UTF-8"?>
<svg id="Layer_1" data-name="Layer 1" xmlns="http://www.w3.org/2000/svg" viewBox="0 0 120 120">
  <defs>
    <style>
      .cls-1 {
        fill: #414042;
      }
    </style>
  </defs>
  <g>
    <path d="M0,90.67h5.23c3.81,0,6,2.45,6,8.15s-2.2,8.15-6,8.15H0v-16.3ZM5.23,105.1c2.24,0,3.69-1.57,3.69-4.44v-3.69c0-2.87-1.45-4.44-3.69-4.44h-3.08v12.57h3.08Z"/>
    <path d="M21.12,106.97c-1.17,0-1.8-.65-1.8-1.89v-.09h-.23c-.37,1.45-1.54,2.27-3.06,2.27-2.31,0-3.46-1.24-3.46-3.53s1.52-3.67,4.6-3.67h2.1v-1.26c0-1.68-.75-2.43-2.34-2.43-1.31,0-2.12.58-2.71,1.68l-1.24-1.12c.7-1.31,2.13-2.34,4.06-2.34,2.78,0,4.27,1.4,4.27,4.04v6.59h1.17v1.75h-1.38ZM19.27,103.28v-1.78h-2.08c-1.73,0-2.48.63-2.48,1.75v.61c0,1.17.72,1.71,1.92,1.71,1.52,0,2.64-1.07,2.64-2.29Z"/>
    <path d="M27,106.97c-1.45,0-2.08-.63-2.08-2.08v-8.27h-1.73v-1.75h.98c.75,0,.93-.37.93-1.1v-2.22h1.87v3.32h2.31v1.75h-2.31v8.6h2.17v1.75h-2.15Z"/>
    <path d="M39.57,106.97c-1.17,0-1.8-.65-1.8-1.89v-.09h-.23c-.37,1.45-1.54,2.27-3.06,2.27-2.31,0-3.46-1.24-3.46-3.53s1.52-3.67,4.6-3.67h2.1v-1.26c0-1.68-.75-2.43-2.34-2.43-1.31,0-2.13.58-2.71,1.68l-1.24-1.12c.7-1.31,2.13-2.34,4.06-2.34,2.78,0,4.27,1.4,4.27,4.04v6.59h1.17v1.75h-1.38ZM37.73,103.28v-1.78h-2.08c-1.73,0-2.48.63-2.48,1.75v.61c0,1.17.72,1.71,1.92,1.71,1.52,0,2.64-1.07,2.64-2.29Z"/>
    <path d="M48.4,106.97v-16.3h6.21c2.71,0,4.11,1.61,4.11,4.74s-1.4,4.74-4.11,4.74h-4.06v6.82h-2.15ZM50.55,98.28h3.95c1.28,0,1.96-.68,1.96-2.13v-1.49c0-1.45-.68-2.13-1.96-2.13h-3.95v5.75Z"/>
    <path d="M60.32,106.97v-12.1h2.06v2.31h.28c.35-1.38,1.28-2.31,2.85-2.31h.65v2.1h-1.1c-1.7,0-2.69.7-2.69,2.15v7.85h-2.06Z"/>
    <path d="M66.88,100.92c0-4.44,2.06-6.33,4.97-6.33s4.81,1.89,4.81,6.33v.51h-7.59v.77c0,2.17,1.14,3.27,2.94,3.27,1.54,0,2.45-.68,3.06-1.99l1.31,1.1c-.89,1.75-2.38,2.66-4.39,2.66-2.92,0-5.12-1.89-5.12-6.33ZM69.08,99.59v.4h5.4v-.4c0-2.17-.89-3.29-2.62-3.29s-2.78,1.12-2.78,3.29Z"/>
    <path d="M78.58,94.87h2.06v1.99h.28c.42-1.52,1.52-2.27,2.99-2.27,2.85,0,4.32,2.38,4.32,6.33s-1.47,6.33-4.32,6.33c-1.47,0-2.57-.75-2.99-2.27h-.28v6.66h-2.06v-16.77ZM86.03,102.2v-2.57c0-2.03-1-3.25-2.83-3.25-1.42,0-2.57.98-2.57,2.27v4.53c0,1.28,1.15,2.27,2.57,2.27,1.82,0,2.83-1.21,2.83-3.25Z"/>
    <path d="M100.28,99.05l-2.08,2.64v5.28h-2.15v-16.3h2.15v5.42l-.14,3.2h.26l2.27-3.2,3.97-5.42h2.45l-5.28,6.94,5.65,9.37h-2.55l-4.55-7.92Z"/>
    <path d="M109.32,91.16v-.42c0-.68.37-1.07,1.26-1.07s1.26.4,1.26,1.07v.42c0,.68-.37,1.07-1.26,1.07s-1.26-.4-1.26-1.07ZM109.56,94.87h2.06v12.1h-2.06v-12.1Z"/>
    <path d="M117.71,106.97c-1.45,0-2.08-.63-2.08-2.08v-8.27h-1.73v-1.75h.98c.75,0,.93-.37.93-1.1v-2.22h1.87v3.32h2.31v1.75h-2.31v8.6h2.17v1.75h-2.15Z"/>
  </g>
  <g>
    <path d="M51.87,37.65h0s0,0,0,0c.02,11.37,9.23,20.57,20.59,20.59h0s0,0,0,0c-11.37.02-20.57,9.23-20.59,20.59h0c11.38,0,20.6-9.22,20.6-20.6s-9.22-20.6-20.6-20.6Z"/>
    <path d="M49.28,68.89c-4.43,1.15-7.71,5.17-7.71,9.96h10.3s0,0,0,0c0-3.61-.95-7-2.59-9.96Z"/>
    <path d="M51.87,11.27v9.01c2.49,0,4.5-2.02,4.5-4.5s-2.02-4.5-4.5-4.5Z"/>
    <path d="M88.73,23.79c0-6.91-5.61-12.52-12.52-12.52-6.91,0-12.52,5.61-12.52,12.52s12.52,33.37,12.52,33.37c0,0,12.52-26.45,12.52-33.37Z"/>
    <path d="M51.87,20.28c-9.6,0-17.37,7.78-17.37,17.37h17.37v-17.37Z"/>
    <path class="cls-1" d="M31.27,58.25c11.37.02,20.57,9.23,20.59,20.59h0s0,0,0,0c.02-11.37,9.23-20.57,20.59-20.59h0s0,0,0,0c-11.37-.02-20.57-9.23-20.59-20.59h0s0,0,0,0c-.02,11.37-9.23,20.57-20.59,20.59h0s0,0,0,0Z"/>
  </g>
</svg>