<svg id="Layer_1" data-name="Layer 1" xmlns="http://www.w3.org/2000/svg" viewBox="0 0 1743 700"><defs><style>.cls-1{fill:#fff;}</style></defs><path class="cls-1" d="M812.80127,176.26611H759.25146L745.72412,214.7959H728.09229L777.72363,80.17529h16.606L843.96094,214.7959H826.32861Zm-48.605-14.27343h43.66064l-21.55029-61.38623h-.56006Z"/><path class="cls-1" d="M850.21191,166.28418c0-30.41357,16.69922-50.19141,41.14161-50.19141,13.90087,0,25.0957,6.81006,30.87988,17.4458h.37305V80.17529h16.23291V214.7959H923.353V198.37646h-.27979c-6.251,11.19483-17.35254,18.09864-31.34619,18.09864C867.00439,216.4751,850.21191,196.69727,850.21191,166.28418Zm16.606,0c0,22.0166,10.82178,35.91748,27.98779,35.91748,16.69922,0,27.894-14.18066,27.894-35.91748,0-21.644-11.19483-35.918-27.894-35.918C877.63965,130.36621,866.81787,144.36035,866.81787,166.28418Z"/><path class="cls-1" d="M1004.7041,214.7959h-16.606L952.36719,117.772h17.07275l26.7749,79.76465h.37305l26.86816-79.76465h16.88575Z"/><path class="cls-1" d="M1130.55615,186.99463c-2.79883,16.97949-19.21826,29.48047-40.39551,29.48047-27.80126,0-44.687-19.31153-44.687-49.81787,0-30.1333,17.16553-50.56446,43.94043-50.56446,26.21533,0,42.355,19.03174,42.355,48.41846v6.15723h-69.59619v.9331c0,18.56543,10.915,30.78662,28.36084,30.78662,12.31445,0,21.36377-6.25048,24.06934-15.39355Zm-68.29-29.01367h52.71c-.373-16.23291-10.542-27.80127-25.84179-27.80127C1073.92773,130.17969,1063.29248,141.84131,1062.26611,157.981Z"/><path class="cls-1" d="M1148.09521,117.772H1163.395v15.85987h.37353a23.76126,23.76126,0,0,1,23.50928-17.53907,41.83974,41.83974,0,0,1,6.53076.65284v15.7666a32.67935,32.67935,0,0,0-8.67627-.93311c-12.59472,0-20.8042,9.04932-20.8042,22.76367V214.7959h-16.23291Z"/><path class="cls-1" d="M1240.92139,116.09277c21.2705,0,35.45117,12.501,36.104,29.667h-15.48633c-1.21289-10.16895-8.67627-16.41944-20.61767-16.41944-11.84815,0-19.68457,5.87744-19.68457,14.3667,0,6.71729,4.94433,11.28858,15.76611,13.90088l15.39355,3.73145c19.59131,4.75781,26.68116,12.40771,26.68116,26.30859,0,16.88574-15.95264,28.82715-37.59668,28.82715-22.76319,0-36.94385-11.4751-38.80957-29.667h16.23291c1.959,11.102,9.42236,16.41943,22.57666,16.41943s21.2705-5.59766,21.2705-14.3667c0-6.99707-3.8247-11.00879-14.92675-13.71436l-15.39307-3.73144c-18.28516-4.38477-27.148-12.87451-27.148-26.86816C1205.28369,127.94092,1219.93066,116.09277,1240.92139,116.09277Z"/><path class="cls-1" d="M1291.95215,187.36816c0-16.60644,12.78125-27.05468,35.17139-28.36084l27.80126-1.58593v-8.1167c0-11.84815-7.83691-18.93848-21.271-18.93848-12.501,0-20.3374,5.87744-22.39014,15.39356h-15.67285c1.11963-16.793,15.48633-29.667,38.43652-29.667,22.76319,0,37.12989,12.31446,37.12989,31.626V214.7959h-15.39307V198.09668h-.373c-5.78418,11.10156-18.09863,18.37842-31.15966,18.37842C1304.91992,216.4751,1291.95215,204.81348,1291.95215,187.36816Zm62.97265-9.42285v-7.92969l-25.93554,1.58594c-13.06055.83985-20.52442,6.624-20.52442,15.7666,0,9.23584,7.74366,15.29981,19.40528,15.29981C1343.16992,202.668,1354.9248,191.93945,1354.9248,177.94531Z"/><path class="cls-1" d="M1391.77539,117.772h15.29981v15.85987h.37353a23.76126,23.76126,0,0,1,23.50928-17.53907,41.83974,41.83974,0,0,1,6.53076.65284v15.7666a32.68225,32.68225,0,0,0-8.67627-.93311c-12.59473,0-20.8042,9.04932-20.8042,22.76367V214.7959h-16.23291Z"/><path class="cls-1" d="M1449.43018,90.34424a10.16895,10.16895,0,1,1,10.16894,10.16846A10.13307,10.13307,0,0,1,1449.43018,90.34424Zm2.05273,27.42773h16.23291V214.7959h-16.23291Z"/><path class="cls-1" d="M1485.7207,187.36816c0-16.60644,12.78125-27.05468,35.17139-28.36084l27.80127-1.58593v-8.1167c0-11.84815-7.83691-18.93848-21.271-18.93848-12.501,0-20.3374,5.87744-22.39013,15.39356h-15.67285c1.11962-16.793,15.48632-29.667,38.43652-29.667,22.76318,0,37.12988,12.31446,37.12988,31.626V214.7959h-15.39307V198.09668h-.373C1543.37549,209.19824,1531.061,216.4751,1518,216.4751,1498.68848,216.4751,1485.7207,204.81348,1485.7207,187.36816Zm62.97266-9.42285v-7.92969l-25.93555,1.58594c-13.06054.83985-20.52441,6.624-20.52441,15.7666,0,9.23584,7.74365,15.29981,19.40527,15.29981C1536.93848,202.668,1548.69336,191.93945,1548.69336,177.94531Z"/><path class="cls-1" d="M1586.38379,80.17529h16.23242V214.7959h-16.23242Z"/><path class="cls-1" d="M755.61328,412.68262H738.8208V278.062H789.292c25.93506,0,42.91406,15.85938,42.91406,40.11572,0,18.75147-10.16894,33.30518-27.05468,38.623L836.311,412.68262H816.62646l-28.82714-53.27h-32.186Zm0-68.10352h32.186c17.25879,0,27.05468-9.3291,27.05468-25.8418,0-16.13964-10.44873-25.74853-27.80127-25.74853H755.61328Z"/><path class="cls-1" d="M846.01416,364.1709c0-30.97315,18.09863-50.19141,44.9668-50.19141,26.7749,0,44.87353,19.21826,44.87353,50.19141,0,30.87939-18.09863,50.19092-44.87353,50.19092C864.11279,414.36182,846.01416,395.05029,846.01416,364.1709Zm73.32764,0c0-22.85694-11.19532-35.918-28.36084-35.918s-28.4541,13.061-28.4541,35.918c0,22.85644,11.28857,35.91748,28.4541,35.91748S919.3418,387.02734,919.3418,364.1709Z"/><path class="cls-1" d="M968.87988,396.26318h-.373v16.41944H953.02051V278.062h16.23242V331.8916h.37353c6.064-11.102,17.35206-17.91211,31.06641-17.91211,24.44238,0,40.95508,19.77783,40.95508,50.19141,0,30.50635-16.41943,50.19092-41.23535,50.19092C986.23242,414.36182,975.13037,407.458,968.87988,396.26318Zm.27979-32.09228c0,21.64355,11.66162,35.91748,28.08105,35.91748,17.166,0,27.80127-13.71436,27.80127-35.91748,0-22.01709-10.63525-35.918-27.80127-35.918C980.82129,328.25293,969.15967,342.62012,969.15967,364.1709Z"/><path class="cls-1" d="M1137.73926,412.68262h-15.39307V396.916h-.373c-5.78418,11.19531-15.85986,17.4458-30.78662,17.4458-21.17724,0-33.585-13.71387-33.585-35.731V315.65869h16.23291v60.08008c0,15.7666,7.37012,24.25635,22.39014,24.25635,15.76611,0,25.28223-10.82227,25.28223-27.335V315.65869h16.23242Z"/><path class="cls-1" d="M1192.689,313.97949c21.27051,0,35.45118,12.501,36.104,29.667h-15.48633c-1.21289-10.16894-8.67627-16.41943-20.61768-16.41943-11.84814,0-19.68457,5.87744-19.68457,14.3667,0,6.71729,4.94434,11.28857,15.76612,13.90088l15.39355,3.73144c19.59131,4.75782,26.68115,12.40772,26.68115,26.3086,0,16.88574-15.95263,28.82715-37.59667,28.82715-22.76319,0-36.94385-11.4751-38.80958-29.667h16.23292c1.959,11.10206,9.42236,16.41944,22.57666,16.41944s21.2705-5.59766,21.2705-14.3667c0-6.99707-3.8247-11.00879-14.92675-13.71436l-15.39307-3.73144c-18.28516-4.38477-27.148-12.87451-27.148-26.86817C1157.05127,325.82764,1171.69824,313.97949,1192.689,313.97949Z"/><path class="cls-1" d="M1269.0957,292.24219v23.4165h18.84522v13.34082H1269.0957V386.6543c0,8.8623,3.73194,12.874,12.03516,12.874a63.18024,63.18024,0,0,0,6.7168-.46631v13.62061a57.85066,57.85066,0,0,1-10.26221.74609c-17.81885,0-24.72217-7.27637-24.72217-25.93506V328.99951h-14.46045V315.65869h14.46045v-23.4165Z"/><path class="cls-1" d="M1305.2002,315.65869H1320.5V331.145h.37354c5.41064-10.44873,15.76611-17.16553,30.78613-17.16553,21.27051,0,33.58545,13.71387,33.58545,35.731v62.97217h-16.23291V352.60254c0-15.67334-7.37012-24.25586-22.29688-24.25586-15.2998,0-25.28222,10.82178-25.28222,27.24121v57.09473H1305.2002Z"/><path class="cls-1" d="M1486.1875,384.88135c-2.79883,16.97949-19.21826,29.48047-40.39551,29.48047-27.80127,0-44.687-19.31153-44.687-49.81787,0-30.13331,17.16553-50.56446,43.94043-50.56446,26.21533,0,42.355,19.03174,42.355,48.41846v6.15723H1417.8042v.9331c0,18.56543,10.915,30.78662,28.36084,30.78662,12.31445,0,21.36377-6.25049,24.06934-15.39355Zm-68.29-29.01367h52.71c-.373-16.23291-10.542-27.80127-25.8418-27.80127C1429.55908,328.06641,1418.92383,339.728,1417.89746,355.86768Z"/><path class="cls-1" d="M1537.68506,313.97949c21.27051,0,35.45117,12.501,36.104,29.667h-15.48633c-1.21289-10.16894-8.67627-16.41943-20.61767-16.41943-11.84815,0-19.68457,5.87744-19.68457,14.3667,0,6.71729,4.94433,11.28857,15.76611,13.90088l15.39356,3.73144c19.5913,4.75782,26.68115,12.40772,26.68115,26.3086,0,16.88574-15.95264,28.82715-37.59668,28.82715-22.76318,0-36.94385-11.4751-38.80957-29.667H1515.668c1.959,11.10206,9.42236,16.41944,22.57666,16.41944s21.27051-5.59766,21.27051-14.3667c0-6.99707-3.82471-11.00879-14.92676-13.71436l-15.39307-3.73144c-18.28515-4.38477-27.148-12.87451-27.148-26.86817C1502.04736,325.82764,1516.69434,313.97949,1537.68506,313.97949Z"/><path class="cls-1" d="M1626.59277,313.97949c21.27051,0,35.45118,12.501,36.104,29.667h-15.48633c-1.21289-10.16894-8.67627-16.41943-20.61768-16.41943-11.84814,0-19.68457,5.87744-19.68457,14.3667,0,6.71729,4.94434,11.28857,15.76612,13.90088l15.39306,3.73144c19.5918,4.75782,26.68164,12.40772,26.68164,26.3086,0,16.88574-15.95263,28.82715-37.59668,28.82715-22.76318,0-36.94384-11.4751-38.80957-29.667h16.23291c1.959,11.10206,9.42237,16.41944,22.57666,16.41944s21.27051-5.59766,21.27051-14.3667c0-6.99707-3.82471-11.00879-14.92676-13.71436l-15.39306-3.73144c-18.28516-4.38477-27.148-12.87451-27.148-26.86817C1590.95508,325.82764,1605.60205,313.97949,1626.59277,313.97949Z"/><path class="cls-1" d="M772.87256,610.56982V491.0625H730.42432V475.94922H832.11279V491.0625H789.665V610.56982Z"/><path class="cls-1" d="M817.37305,562.05762c0-30.97266,18.09863-50.19092,44.96679-50.19092,26.77491,0,44.87354,19.21826,44.87354,50.19092,0,30.87988-18.09863,50.1914-44.87354,50.1914C835.47168,612.249,817.37305,592.9375,817.37305,562.05762Zm73.32763,0c0-22.85645-11.19482-35.91748-28.36084-35.91748s-28.4541,13.061-28.4541,35.91748c0,22.85693,11.28809,35.918,28.4541,35.918S890.70068,584.91455,890.70068,562.05762Z"/><path class="cls-1" d="M918.78223,562.05762c0-30.97266,18.09863-50.19092,44.96679-50.19092,26.77491,0,44.87354,19.21826,44.87354,50.19092,0,30.87988-18.09863,50.1914-44.87354,50.1914C936.88086,612.249,918.78223,592.9375,918.78223,562.05762Zm73.32763,0c0-22.85645-11.19482-35.91748-28.36084-35.91748s-28.4541,13.061-28.4541,35.91748c0,22.85693,11.28809,35.918,28.4541,35.918S992.10986,584.91455,992.10986,562.05762Z"/><path class="cls-1" d="M1025.78906,475.94922h16.23242v134.6206h-16.23242Z"/><path class="cls-1" d="M1080.64453,594.15039h-.373v16.41943h-15.48632V475.94922h16.23242v53.82959h.37353c6.064-11.10205,17.352-17.91211,31.06641-17.91211,24.44238,0,40.95508,19.77783,40.95508,50.19092,0,30.50683-16.41944,50.1914-41.23535,50.1914C1097.99707,612.249,1086.895,605.3457,1080.64453,594.15039Zm.27979-32.09277c0,21.644,11.66162,35.918,28.08105,35.918,17.166,0,27.80127-13.71436,27.80127-35.918,0-22.0166-10.63525-35.91748-27.80127-35.91748C1092.58594,526.14014,1080.92432,540.50732,1080.92432,562.05762Z"/><path class="cls-1" d="M1165.07471,562.05762c0-30.97266,18.09863-50.19092,44.96679-50.19092,26.77491,0,44.87354,19.21826,44.87354,50.19092,0,30.87988-18.09863,50.1914-44.87354,50.1914C1183.17334,612.249,1165.07471,592.9375,1165.07471,562.05762Zm73.32763,0c0-22.85645-11.19531-35.91748-28.36084-35.91748s-28.4541,13.061-28.4541,35.91748c0,22.85693,11.28858,35.918,28.4541,35.918S1238.40234,584.91455,1238.40234,562.05762Z"/><path class="cls-1" d="M1303.334,573.626l-23.4165,36.94384h-18.00537l33.02539-48.5122-32.46582-48.51172h18.09912l23.32275,36.38379h.373l23.04346-36.38379h18.09863l-32.7456,47.85889,32.27929,49.165H1326.937l-23.23-36.94384Z"/><path class="cls-1" d="M344.95947,375.52673c-.22265-1.68377-.60571-2.03717-2.32715-2.11261-1.47461-.06457-2.93359.206-4.40063.21027-8.94678.02606-17.8938.00977-26.84033.04523a13.21277,13.21277,0,0,1-5.2395-.79053,8.82244,8.82244,0,0,0-1.728-.40582,40.87725,40.87725,0,0,1-5.08228-.804c-1.37036-.44409-1.77783-1.24091-1.11963-2.49713,1.87525-3.5788,2.885-7.49982,4.512-11.17413.116-.26172.17285-.55274.55175-.51307a5.55489,5.55489,0,0,1,2.70606.57807,5.67371,5.67371,0,0,0,3.21875,1.15838,17.07843,17.07843,0,0,1,5.96313,1.075,4.34992,4.34992,0,0,0,1.45142.34088c2.63477-.082,5.23413.42309,7.8606.42737,4.00415.00653,8.0083.01171,12.0122-.00782a23.50883,23.50883,0,0,0,5.40015-.53912c2.446-.58667,3.28589-1.62128,3.28857-4.14868q.01539-13.23249.01612-26.465.00072-7.1792-.0166-14.3584c-.00245-1.29748-.28321-1.6502-1.58106-1.87121a22.289,22.289,0,0,0-3.27881-.08393,5.21288,5.21288,0,0,1-3.04248-.77557,5.11947,5.11947,0,0,0-2.44678-.8703,10.6736,10.6736,0,0,1-3.51074-.94946,8.12067,8.12067,0,0,0-2.05444-.63178,11.04412,11.04412,0,0,1-3.03027-.95605,7.86053,7.86053,0,0,0-3.51246-.898,6.16014,6.16014,0,0,1-4.04248-1.48041,8.22578,8.22578,0,0,0-5.6018-2.04248,2.90812,2.90812,0,0,1-1.69727-.46558,5.64134,5.64134,0,0,0-3.30273-.85534c-3.47071.0003-6.94825-.13941-10.41016.03479a6.19921,6.19921,0,0,1-5.31714-2.038,1.51745,1.51745,0,0,1-.52783-1.11181c.01807-3.97266.02466-7.94562-.0083-11.91816-.00586-.70172.19556-.90857.89624-.89593,5.47021.09888,10.94165-.12244,16.4126.26465,4.43139.3136,8.88086.06946,13.32177.13257a6.44145,6.44145,0,0,1,3.27686.62463,6.81522,6.81522,0,0,0,3.04883.81311c2.49145.168,4.99194.29749,7.29761,1.44037a4.97915,4.97915,0,0,0,2.17334.53107,9.08294,9.08294,0,0,1,4.887,1.36633c.70288.43115,1.32812.09375,1.69946-.63422a4.121,4.121,0,0,0,.33765-1.92291q-.0011-13.326-.0127-26.65186a3.16942,3.16942,0,0,0-.32568-1.43841,12.2188,12.2188,0,0,0-5.16333-5.03076c-3.39185-1.99329-6.68164-4.15454-10.18262-5.97242-2.043-1.06073-3.85913-2.57025-6.249-2.87152a1.89554,1.89554,0,0,1-.614-.22546,10.68727,10.68727,0,0,0-4.15307-1.05438,12.54031,12.54031,0,0,1-4.90943-1.07611,8.69952,8.69952,0,0,0-2.90161-.70209,7.32841,7.32841,0,0,1-1.90527-.4693c-2.36475-1.01782-4.8689-1.02356-7.3689-1.09509a11.4347,11.4347,0,0,0-4.865.78821,16.911,16.911,0,0,1-2.17822.85c-1.54736.413-2.79248,1.53876-4.42383,1.76428a5.64732,5.64732,0,0,0-3.66943,2.06086,22.69563,22.69563,0,0,0-2.00366,3.16137c-.86329,1.47913-.85035,1.46851.43261,2.511a21.282,21.282,0,0,1,4.44605,4.65241c1.12671,1.69281,2.2998,3.34545,4.395,4.01214a2.86486,2.86486,0,0,1,1.32715,1.15955c1.04419,1.44238,2.07519,2.89447,3.10937,4.34411.35254.49421.39209.80762-.23144,1.24933-2.44092,1.72864-4.97535,3.3617-6.5979,6.01721a6.48083,6.48083,0,0,1-2.3982,2.06073c-.28027.16346-.5354.3429-.81225-.00665-1.11548-1.40839-2.69483-2.45135-3.32373-4.24481a1.40475,1.40475,0,0,0-.7-.84668,15.53459,15.53459,0,0,1-4.9248-4.12677,1.59408,1.59408,0,0,0-2.22461-.39044,39.87135,39.87135,0,0,0-5.81348,3.757c-1.09375.8164-2.35351,1.45367-2.92089,2.8095A33.24215,33.24215,0,0,1,265.718,279.644a18.96046,18.96046,0,0,0-2.967,12.4151,8.77153,8.77153,0,0,0,3.0227,6.03058,8.71477,8.71477,0,0,1,2.47925,2.89081,18.10831,18.10831,0,0,0,5.91382,7.02338,5.76984,5.76984,0,0,1,2.3728,3.15887,8.11357,8.11357,0,0,0,.87915,1.85748,16.33118,16.33118,0,0,0,3.772,3.87775,12.38476,12.38476,0,0,1,3.47535,4.37042,5.43744,5.43744,0,0,0,2.93359,3.05567,21.48691,21.48691,0,0,0,8.73462,2.23254,81.61,81.61,0,0,0,9.092-.19006,3.06116,3.06116,0,0,1,3.02393,2.29663,67.852,67.852,0,0,1,.16528,10.20831,1.80454,1.80454,0,0,1-1.80933,1.64771c-1.21777.029-2.43725-.01874-3.656-.02448a50.56037,50.56037,0,0,1-10.00074-.5224,3.74053,3.74053,0,0,0-4.1018,2.00226c-1.1482,1.86-2.25952,3.743-3.4187,5.59625-1.90088,3.03974-3.56153,6.26233-6.47046,8.54468a5.40784,5.40784,0,0,0-1.10449,1.506c-.18335.29437-.395.71234-.70093.71411-1.32544.00757-2.78931.38208-3.93555-.36731a63.80163,63.80163,0,0,0-6.65454-3.64679,7.81791,7.81791,0,0,1-2.51123-1.77465c-.9751-1.11615-.99292-1.3418.02466-2.4394a9.70359,9.70359,0,0,0,2.57251-4.07891,10.17089,10.17089,0,0,1,3.44677-5.46778,16.90343,16.90343,0,0,0,4.69068-6.78644,2.19156,2.19156,0,0,0-.3479-2.43194,5.44351,5.44351,0,0,0-1.75147-1.3938,8.76617,8.76617,0,0,1-2.28442-1.90942,78.87261,78.87261,0,0,1-5.13135-6.45447c-2.5813-3.50214-5.53174-6.69861-8.23242-10.09863-1.2959-1.63166-2.24487-3.528-3.74976-5.019-.91772-.90936-1.29321-.91668-2.02172.15631a2.01883,2.01883,0,0,0-.3064.76416c-.4939,2.50464-1.85791,4.7265-2.34155,7.24585-.20411,1.06165-.70923,2.06171-.99244,3.11273a7.40776,7.40776,0,0,0,.302,4.251c.57226,1.80457.748,3.75006,1.64111,5.43372a8.753,8.753,0,0,1,1.02026,4.03149c.032,1.52539-.262,1.89783-1.64355,2.58508-2.11353,1.05133-4.41187,1.81946-6.033,3.68647a8.05585,8.05585,0,0,1-2.70972,1.97064,8.91947,8.91947,0,0,0-3.66137,3.4013c-.676,1.05164-1.27637,2.147-1.8501,3.26056a10.76619,10.76619,0,0,0-1.21,5.40674c.10034,3.29608.05151,6.59851-.00733,9.897-.04565,2.56037,1.1416,3.8592,3.69092,3.86591.1875.00049.37525-.00922.56275-.01239,1.49975-.02557,3-.03705,4.49926-.079,2.62354-.07342,5.25244.32391,7.86939-.054,1.49365-.21569,2.99389-.168,4.491-.24658.49512-.026.64771.14038.6587.62781q.134,5.90808.31127,11.81525c.01417.48132-.11376.7666-.6394.83392a39.01547,39.01547,0,0,1-5.10644.65045c-3.56592-.01251-7.13257.06665-10.697.0008a3.3295,3.3295,0,0,0-2.72876,1.31524,11.11566,11.11566,0,0,0-2.86767,7.07837c-.13892,4.543-.44312,9.11444.20556,13.63452a11.08243,11.08243,0,0,0,3.0669,6.57758,16.57222,16.57222,0,0,0,2.94971,2.14953.953.953,0,0,0,1.11865-.0155,23.59848,23.59848,0,0,0,6.55273-5.39569c1.11914-1.38348,2.20337-2.82092,4.0918-3.24286a1.15441,1.15441,0,0,0,.41113-.221c2.04688-1.52935,4.48853-2.14642,6.83643-2.98529a.66128.66128,0,0,1,.8208.1601c2.83032,2.87848,5.30127,6.05987,7.87451,9.21728-.24658.13556-.42944.25318-.62549.34088a17.47275,17.47275,0,0,0-6.47558,4.98914,10.117,10.117,0,0,1-3.293,2.5921,15.17953,15.17953,0,0,0-5.64917,4.81433,18.299,18.299,0,0,1-2.72388,3.2099,2.40852,2.40852,0,0,0-.63013,2.73389,21.62851,21.62851,0,0,1,.6189,2.4502,9.07316,9.07316,0,0,0,1.1648,3.52569,5.45075,5.45075,0,0,1,.74194,2.108c.47021,2.86939,1.78345,5.20832,4.52026,6.4549a18.50436,18.50436,0,0,1,4.22071,2.74615c.54882.45984,1.11743.89722,1.6914,1.32514,2.63037,1.96039,5.99439,1.69989,8.87988,2.9057a4.48583,4.48583,0,0,0,1.58326.08819c1.37524.02008,2.751.01093,4.12549.048a2.62308,2.62308,0,0,1,2.14111,1.693c.20508,1.96649,1.209,3.6485,1.80127,5.4737a4.74828,4.74828,0,0,0,1.10766,1.81286,22.30337,22.30337,0,0,1,3.46827,4.3346,17.698,17.698,0,0,0,2.41088,3.37738,7.79689,7.79689,0,0,0,4.59522,2.2525c.56543.09924.41919-.31329.42236-.5921.03174-3.00214-.03369-6.00861.10694-9.00543a10.73826,10.73826,0,0,0-3.31153-8.35779,46.97271,46.97271,0,0,1-4.08716-4.519,10.51029,10.51029,0,0,0-3.32641-3.11316,6.04377,6.04377,0,0,1-1.22583-1.1485c-.48462-.477-.344-.76666.08374-1.20545,1.92187-1.97143,4.21972-3.52057,6.1062-5.5354,1.28027-1.36749,2.69214-2.61108,4.02588-3.92938a.73233.73233,0,0,1,1.03686-.15173q3.04615,1.65948,6.14429,3.22247a6.41939,6.41939,0,0,1,3.26148,3.45886,10.44067,10.44067,0,0,0,2.519,3.80133,15.72911,15.72911,0,0,1,4.09375,7.3592,5.3883,5.3883,0,0,0,.67163,1.64123,5.13762,5.13762,0,0,1,.844,3.01788q.02418,1.97022.02539,3.94068c.00538,2.9079.03077,5.8161-.00439,8.72351a2.36841,2.36841,0,0,0,2.02881,2.47687,19.24641,19.24641,0,0,0,4.844-.3639c1.99536-.4746,3.731-1.58313,5.626-2.28436a36.42177,36.42177,0,0,0,8.24536-4.1828,9.359,9.359,0,0,1,4.32617-1.70276,3.71956,3.71956,0,0,0,1.499-.514,39.16072,39.16072,0,0,0,8.78637-6.8139,3.97951,3.97951,0,0,0,1.13379-2.93768c-.03515-9.25916-.00806-18.5185-.01245-27.77783-.00122-2.89386-.47144-3.35138-3.40015-3.35413-8.759-.00806-17.51831.028-26.2771-.02185-5.751-.03272-11.50073.14538-17.25512-.27289a11.23842,11.23842,0,0,1-7.57642-3.12775,30.1221,30.1221,0,0,0-4.01318-3.08355,12.35916,12.35916,0,0,1-3.22266-2.97058q-3.5127-5.09547-7.04809-10.1753a2.7731,2.7731,0,0,1-.51661-1.48358,7.5799,7.5799,0,0,0-1.14086-3.718c-.5066-.82373-.84253-1.762-1.40626-2.53918-1.19726-1.65064-1.21215-3.561-1.40332-5.44885a.72854.72854,0,0,1,.51783-.85767,12.71924,12.71924,0,0,0,2.4768-1.31415,19.43712,19.43712,0,0,1,8.48706-3.74182c1.38233-.19,2.11133-.00256,2.71851,1.22431a34.97937,34.97937,0,0,0,2.85254,4.61645,14.59926,14.59926,0,0,1,2.21069,4.11408,34.678,34.678,0,0,0,2.343,5.81665,11.49793,11.49793,0,0,0,5.98413,5.93206,14.16715,14.16715,0,0,1,2.73047,1.23188,6.35176,6.35176,0,0,0,3.647.96869q18.47792-.04395,36.95581-.0232c1.6084-.0003,2.332-.69958,2.334-2.26849.00634-4.53583.05517-9.07227-.00147-13.60736C345.1377,382.52466,345.4209,379.0177,344.95947,375.52673Z"/><path class="cls-1" d="M427.44482,374.53125a11.80147,11.80147,0,0,0-1.12182.9906c-1.9978,1.89417-3.64429,4.12207-5.63233,6.01856-2.779,2.65124-5.62524,5.22656-8.16259,8.12512-1.70679,1.95-3.85669,3.4552-5.59522,5.39056-1.64819,1.83466-3.31909,3.65161-5.12427,5.34015a69.0835,69.0835,0,0,0-5.80908,5.71014,1.83881,1.83881,0,0,0-.56616,1.791c.24878.67541,1.03467.37683,1.50415.5307a4.81325,4.81325,0,0,0,2.06519-.44385,8.33159,8.33159,0,0,0,3.957-3.97711,9.557,9.557,0,0,1,4.6582-4.66614,8.216,8.216,0,0,0,3.95-3.99023,8.70446,8.70446,0,0,1,4.29639-4.37592,9.13335,9.13335,0,0,0,4.44018-4.521,9.00231,9.00231,0,0,1,4.02515-4.02069c2.61084-1.43708,4.69946-3.36908,5.11792-6.56018.08423-.64161.0896-1.35273-.45117-1.71161C428.501,373.8324,427.90356,374.19568,427.44482,374.53125Z"/><path class="cls-1" d="M465.81543,393.67157c-3.165,1.71045-4.07642,6.85889-1.72705,9.66443a.69249.69249,0,0,0,.729.2442,6.1306,6.1306,0,0,0,5.21-5.83887,5.45879,5.45879,0,0,0-1.19409-3.37585A2.07473,2.07473,0,0,0,465.81543,393.67157Z"/><path class="cls-1" d="M368.92285,358.79242h.02222q0,53.25284-.011,106.50568a2.34376,2.34376,0,0,0,1.09278,2.04065,6.28057,6.28057,0,0,0,3.55249,1.02679c5.47168.1839,10.938-.15668,16.40747-.22247,1.52417-.01838,3.085.10168,4.488-.69532a5.15814,5.15814,0,0,1,2.89331-.59918c.56153.02771,1.12574.00952,1.68848-.00079,4.033-.07416,8.06641-.13648,11.91333-1.60944a4.82761,4.82761,0,0,1,1.1958-.20666,8.23691,8.23691,0,0,0,2.26953-.54328,75.4931,75.4931,0,0,0,7.36109-2.985c1.78613-.964,3.80981-1.40515,5.55517-2.4527a7.77582,7.77582,0,0,1,2.97461-1.06482,7.413,7.413,0,0,0,1.62793-.42444c3.4624-1.31976,6.18286-3.85754,9.32227-5.71136a51.2752,51.2752,0,0,1,5.23584-3.08277,14.53972,14.53972,0,0,0,6.18383-4.85919,10.0437,10.0437,0,0,1,4.44458-3.459,8.08564,8.08564,0,0,0,4.52637-4.50257,7.05563,7.05563,0,0,1,3.33643-3.54876,8.97392,8.97392,0,0,0,4.13159-3.92768,9.79709,9.79709,0,0,1,1.89575-2.89087c2.23975-2.13977,3.80957-4.77771,5.55029-7.29a12.11861,12.11861,0,0,0,2.521-5.17,3.67243,3.67243,0,0,1,.54419-1.17969,37.86468,37.86468,0,0,1,3.58325-5.37121,7.847,7.847,0,0,0,.79322-1.37543c.98046-1.889,1.67065-3.89722,2.49243-5.85138a9.83834,9.83834,0,0,0,.918-3.69061,8.55113,8.55113,0,0,1,.80419-3.706,23.691,23.691,0,0,0,2.57618-7.29583,8.64614,8.64614,0,0,1,.7832-2.589,9.97816,9.97816,0,0,0,.88867-3.60791c.09912-1.39008-.05054-2.85541.58325-4.15351a13.59874,13.59874,0,0,0,1.22-6.09973c.0044-7.063.02662-14.1261.01221-21.18908a14.464,14.464,0,0,0-.90552-6.06952,8.46163,8.46163,0,0,1-.82006-3.80762,8.37778,8.37778,0,0,0-.76368-3.73285,16.82737,16.82737,0,0,1-1.019-3.01343c-.59668-2.48608-1.61865-4.83246-2.44311-7.24365-.27076-.79132-.866-1.48022-.84156-2.36395a14.17185,14.17185,0,0,0-1.99389-7.11847c-1.5896-3.00165-2.77271-6.22876-4.98194-8.87537a6.99055,6.99055,0,0,1-1.73535-4.0498,2.89257,2.89257,0,0,0-.68921-1.72046c-2.71142-3.03552-4.78491-6.56037-7.42944-9.64881a21.57348,21.57348,0,0,1-1.87183-2.68939,13.07337,13.07337,0,0,0-5.33374-5.123,4.21152,4.21152,0,0,1-1.92212-1.96442,13.69444,13.69444,0,0,0-5.87719-5.99347,12.041,12.041,0,0,1-3.43409-2.56506,29.6866,29.6866,0,0,0-9.00268-6.48413,49.35979,49.35979,0,0,1-8.34278-4.98542,20.84524,20.84524,0,0,0-9.57543-4.011,12.46622,12.46622,0,0,1-3.54175-1.10028,20.94035,20.94035,0,0,0-4.70142-2.0647,24.8742,24.8742,0,0,1-5.24707-1.59259,4.637,4.637,0,0,0-1.09546-.24249,12.71528,12.71528,0,0,1-3.3916-1.04877,6.79545,6.79545,0,0,0-1.51221-.48059c-1.72168-.3794-3.48657-.20911-5.21923-.46387-2.53223-.37231-5.00684-1.12945-7.59522-1.12756q-10.3125.00759-20.625.00775c-.30518.00024-.64746-.05219-.85059.26727-1.26611,1.9928-2.685,3.75836-2.67773,6.45886Q369.0011,306.4774,368.92285,358.79242Zm68.29,18.54736c-1.06445,1.38916-2.12817,2.77924-3.208,4.15656a3.10642,3.10642,0,0,1-.74194.70245,10.27222,10.27222,0,0,0-3.64185,4.20136,8.011,8.011,0,0,1-3.80957,3.84839,10.48806,10.48806,0,0,0-5.08984,5.04791,8.14221,8.14221,0,0,1-3.97437,3.94879,9.92576,9.92576,0,0,0-4.8811,4.86951,8.28422,8.28422,0,0,1-3.9458,3.97808,10.8064,10.8064,0,0,0-3.741,2.92621,5.33573,5.33573,0,0,1-5.15991,2.14472,7.3784,7.3784,0,0,1-5.86133-2.02484,16.85808,16.85808,0,0,0-2.4021-1.79126c-2.52368-1.56488-3.63549-3.95826-4.4978-6.70148a13.3893,13.3893,0,0,1,.09839-7.29511,6.4485,6.4485,0,0,1,3.4519-4.66919,11.82527,11.82527,0,0,0,4.9231-5.13153,8.62376,8.62376,0,0,1,3.43628-3.22821,14.87655,14.87655,0,0,0,5.47363-5.9002,4.495,4.495,0,0,1,1.94776-1.96882,15.56365,15.56365,0,0,0,6.7854-6.90032,3.2621,3.2621,0,0,1,1.2124-1.27564,25.5226,25.5226,0,0,0,5.63354-4.47,1.84716,1.84716,0,0,1,1.49317-.62677c.71875.01312,1.43823.03766,2.15674.02081a3.53015,3.53015,0,0,1,2.28784.91284c4.27026,3.27765,7.42724,7.66095,11.3,11.33161a6.09857,6.09857,0,0,1,.85669,1.11169A1.94338,1.94338,0,0,1,437.21289,377.33978Zm39.66065,24.2909a2.20036,2.20036,0,0,1-.23389.705c-.21094.41779-.459.81665-.68579,1.2265-1.64331,2.96906-3.83472,4.97046-7.11231,4.241a11.8423,11.8423,0,0,1-6.26-1.11487,13.00215,13.00215,0,0,0-1.45947-.63732,14.19913,14.19913,0,0,1-6.491-5.028c-3.09008-4.02606-6.85669-7.44342-10.31274-11.14093-1.81445-1.9411-3.66846-3.84558-5.46289-5.80463-1.03369-1.12841-.99194-1.19006-.27344-2.51031a29.22049,29.22049,0,0,1,1.70776-2.45563,5.14465,5.14465,0,0,0,.45533-5.65027,12.29465,12.29465,0,0,0-2.176-2.69195c-1.189-1.20038-1.04175-2.36035.35376-3.3299q.96167-.66823,1.90454-1.36352a1.481,1.481,0,0,1,.84156-.37439c2.5935-.04364,5.14892.05664,7.21826,1.95446a25.36988,25.36988,0,0,1,2.20849,2.02668c2.72119,3.17157,6.05371,5.68451,9.08008,8.52557,1.84644,1.73322,3.27271,3.88965,5.33447,5.39191a29.51391,29.51391,0,0,1,5.1919,4.71856,62.68257,62.68257,0,0,0,4.79736,5.13446,4.7679,4.7679,0,0,1,1.55274,3.4054A29.83937,29.83937,0,0,1,476.87354,401.63068Zm-38.08643-46.8783c3.98975-3.37524,7.50049-7.26343,11.207-10.94055,5.707-5.66144,11.35645-11.38049,17.03589-17.06946a5.63389,5.63389,0,0,0,1.47876-2.4555c.61694-2.12555,1.82959-4.04383,2.1936-6.2605.06861-.41889.46118-.48627.76392-.615,1.09131-.46424,2.20508-.87744,3.28686-1.36261a1.49887,1.49887,0,0,1,1.56568.30713,13.2213,13.2213,0,0,1,5.10815,5.70953c.78784,1.86749.80445,1.97858-.69555,3.32532a10.04074,10.04074,0,0,1-3.69532,2.14813c-3.12988,1.002-5.49194,3.15594-7.74218,5.43219-2.50538,2.53461-4.80616,5.27484-7.51661,7.60229-2.54882,2.18866-4.62548,4.83515-7.04394,7.14441-2.82569,2.69837-5.81055,5.23584-8.55249,8.01465-2.28174,2.31244-4.38892,4.79956-6.84131,6.9447a13.86487,13.86487,0,0,0-2.62183,2.66089c-.41357.62531-1.13134.40088-1.71435.52973a4.86058,4.86058,0,0,1-1.14673-.06732,2.23815,2.23815,0,0,1-2.47485-1.20319,1.44156,1.44156,0,0,1,.072-1.85437A57.714,57.714,0,0,1,438.78711,354.75238Zm-59.95874-28.96869c.19385-.40875.49243-.13037.71582-.03418a10.715,10.715,0,0,1,3.59595,2.66162,24.38182,24.38182,0,0,0,7.45361,5.42566,2.78092,2.78092,0,0,0,3.52075-.44336c2.11865-2.3919,4.551-4.46521,6.72925-6.79266.19238-.20532.38306-.41351.55688-.63422,1.06568-1.3529,1.08448-2.3963-.07592-3.69177-2.44312-2.72742-4.56665-5.70776-6.87793-8.53845a.76836.76836,0,0,1-.03394-1.116c1.04346-1.55646,1.27759-1.66949,2.97168-.75745a9.38335,9.38335,0,0,0,4.092,1.20575,4.5504,4.5504,0,0,1,2.05567.58887,8.96963,8.96963,0,0,0,4.03662,1.07037c2.47632.1308,3.562,1.21759,3.59936,3.71491a18.25834,18.25834,0,0,0,1.14942,6.41913A22.57754,22.57754,0,0,1,413.408,329.794a6.61392,6.61392,0,0,1-.24365,2.41229,3.42226,3.42226,0,0,0,.86987,3.20532,41.85157,41.85157,0,0,0,5.42407,4.60938,16.04691,16.04691,0,0,1,2.19971,2.03356c2.616,3.01313,5.85278,5.35816,8.71606,8.10535,1.06006,1.01715,2.15284,2.00025,3.217,3.01318.92432.87983.88184,1.25586-.20288,1.87824a5.69125,5.69125,0,0,0-1.96045,1.57519,2.62843,2.62843,0,0,1-2.71606,1.1897c-.81543.28028-1.39063-.20764-1.99268-.58972a16.7413,16.7413,0,0,0-4.3352-2.18182,2.61323,2.61323,0,0,0-2.23389.28436c-.84765.5304-1.72241,1.02362-2.53271,1.6062a5.89628,5.89628,0,0,1-3.31372.78662c-.44409.02747-.65332-.31634-.90259-.58923-2.04395-2.23828-4.02368-4.53967-6.15015-6.69653-1.48437-1.50568-3.21777-2.748-4.47851-4.50214a1.94779,1.94779,0,0,0-2.56324-.47485,5.29189,5.29189,0,0,1-5.11108-.14936c-1.32983-.68957-2.72168-1.25909-4.08325-1.88812a7.6578,7.6578,0,0,0-2.22144-.70654,12.89492,12.89492,0,0,1-4.41089-1.75177,2.022,2.022,0,0,1-.863-.83087,17.50984,17.50984,0,0,1-1.81568-4.7016c-.25-1.74744-1.37109-3.13453-1.90649-4.76429a30.37392,30.37392,0,0,0-1.262-3.2268C378.22559,326.76764,378.58252,326.30145,378.82837,325.78369Z"/><path class="cls-1" d="M395.877,397.70215c.11524-.87036,1.20362-.30817,1.325-1.04389a.17847.17847,0,0,1,.052-.0769c.82421-.90234,1.74633-1.70386,2.56567-2.61987a29.36968,29.36968,0,0,0,2.92407-3.04608c.15747-.23517.03394-.67432.28858-.64808.96826.1,1.14892-.75067,1.645-1.22985.67944-.65607,1.28515-1.41742,1.95141-2.028.75757-.69421,1.80664-1.02582,1.87427-2.27557.00513-.09253.14429-.22589.24658-.25769a7.18606,7.18606,0,0,0,2.90625-2.332c1.8-1.87653,3.71045-3.64722,5.56934-5.46759.1958-.19172.52759-.42121.4126-.68689-.29786-.68915.01025-.737.55126-.6283.343.06891.5149-.17993.7002-.38171,1.03076-1.12177,2.26855-2.00324,3.00659-3.46582.37964-.75238.60425-1.4928.88013-2.16187a8.26826,8.26826,0,0,0-.25659-1.289c-.38111-1.00818-1.21851-1.10486-1.877-.23792a2.14008,2.14008,0,0,0-.33129.5644,7.452,7.452,0,0,1-4.07178,4.05584,7.97476,7.97476,0,0,0-3.32007,2.67c-.5188.8186-1.06934,1.618-1.56763,2.44873a8.20345,8.20345,0,0,1-3.56054,3.48907,10.4657,10.4657,0,0,0-5.25245,5.25476,7.7495,7.7495,0,0,1-3.48632,3.5401,9.47911,9.47911,0,0,0-4.001,3.15741,23.54627,23.54627,0,0,1-5.18213,6.34955,1.19434,1.19434,0,0,0-.187.21,1.127,1.127,0,0,0,.63867,1.87982,3.04,3.04,0,0,0,2.7771-.70983,11.69405,11.69405,0,0,0,1.42065-1.46058C394.98193,398.75354,395.77808,398.45087,395.877,397.70215Z"/><path class="cls-1" d="M126.8313,360.94867c0,128.53424,104.19751,232.73181,232.73169,232.73181S592.29492,489.48291,592.29492,360.94867,488.09717,128.21692,359.563,128.21692,126.8313,232.41449,126.8313,360.94867ZM368.25293,220.313a10.91711,10.91711,0,0,0,3.32544-.91882,6.56182,6.56182,0,0,1,2.81689-.60682q10.69923-.005,21.3982-.00067a6.165,6.165,0,0,1,2.39746.37885c2.38818,1.00549,4.93262,1.06012,7.44629,1.30224a11.13821,11.13821,0,0,1,3.46679.73255,9.48244,9.48244,0,0,0,3.15381.85351c2.01294.1333,3.71021,1.28754,5.6333,1.681a15.12786,15.12786,0,0,1,4.604,1.52259,4.43483,4.43483,0,0,0,1.60644.4768,12.401,12.401,0,0,1,3.783,1.01056,15.91846,15.91846,0,0,0,4.93164,1.036,4.07383,4.07383,0,0,1,1.50318.476,95.41876,95.41876,0,0,0,9.771,5.17432,25.63907,25.63907,0,0,1,3.3208,1.9303,6.93125,6.93125,0,0,0,3.14307,1.12732,4.1374,4.1374,0,0,1,2.62134,1.1087,61.43576,61.43576,0,0,0,9.90039,7.06128,48.93106,48.93106,0,0,1,9.80249,7.80566,12.78416,12.78416,0,0,0,2.17651,1.7743,22.80749,22.80749,0,0,1,6.09033,6.03753,18.806,18.806,0,0,0,3.68921,3.58631A22.34288,22.34288,0,0,1,489.8269,269.66a59.02411,59.02411,0,0,0,4.33374,5.64545c2.25806,2.9812,4.678,5.86,6.0254,9.43a7.26729,7.26729,0,0,0,1.60009,2.41071,18.2353,18.2353,0,0,1,3.85816,6.87427,73.31643,73.31643,0,0,0,5.79809,12.86071c1.21558,2.089,1.75147,4.46308,2.66553,6.67768.66406,1.60876.48853,3.56616.6731,5.36956a4.15063,4.15063,0,0,0,.42651,1.62214,8.82993,8.82993,0,0,1,1.03955,3.95288,11.8435,11.8435,0,0,0,.98364,4.07715c.82862,1.93933.74854,4.03869,1.10694,6.06042a4.23634,4.23634,0,0,0,.1123.73993c1.83911,4.899,1.29346,10.05432,1.6355,15.11371.3147,4.65344.07788,9.30939-.05908,13.95776-.08814,2.9942-.44019,5.98273-.37647,8.98828a1.77965,1.77965,0,0,1-.14575.73127,25.63183,25.63183,0,0,0-1.63525,7.85552,3.88024,3.88024,0,0,1-.3545,1.353,16.56792,16.56792,0,0,0-1.39453,5.98224,6.37135,6.37135,0,0,1-.63623,2.43378c-.89721,1.69073-.83081,3.57538-1.01977,5.39715a17.11954,17.11954,0,0,1-1.03028,3.93677c-1.45874,4.15369-3.7998,7.85938-5.65551,11.80585a44.8462,44.8462,0,0,0-1.89966,5.37164,26.21,26.21,0,0,1-4.12891,7.51422,18.41669,18.41669,0,0,0-3.23633,5.98474,2.21292,2.21292,0,0,1-.58886,1.053c-3.501,3.28986-5.81983,7.49323-8.72535,11.24249a47.94281,47.94281,0,0,1-6.09643,6.73475,38.268,38.268,0,0,0-2.94824,3.1427c-3.58448,3.96191-8.05518,6.90924-11.97412,10.48553a48.94786,48.94786,0,0,1-9.291,6.29578,17.52713,17.52713,0,0,0-4.07812,3.12042,10.55237,10.55237,0,0,1-5.42261,2.98016,3.54187,3.54187,0,0,0-.99048.27332c-3.22119,1.8573-6.78345,3.05151-9.926,5.04248a39.671,39.671,0,0,1-6.35229,3.193,23.61673,23.61673,0,0,1-3.7688.68628,39.75675,39.75675,0,0,0-8.29932,2.53357,9.7399,9.7399,0,0,1-3.25708.77472,9.26258,9.26258,0,0,0-3.30957.96094,13.27469,13.27469,0,0,1-4.835.99353,8.657,8.657,0,0,0-2.88965.74054,8.38625,8.38625,0,0,1-3.33569.81048,52.368,52.368,0,0,0-11.68164,1.55615,4.78559,4.78559,0,0,1-1.29663.1836c-3.31494-.02411-6.63135.11389-9.94434-.07684a3.88392,3.88392,0,0,1-1.467-.25251c-2.58813-1.28253-5.42065-1.11023-8.16723-1.42987a4.61021,4.61021,0,0,1-2.04688-.58044c-1.53784-.9856-3.30981-1.0586-5.041-1.27875a5.1807,5.1807,0,0,1-1.35425-.35748q-4.79773-2.00509-9.5918-4.01844a8.50463,8.50463,0,0,0-2.78589-.78125,5.81859,5.81859,0,0,1-3.46094-1.71246c-1.84912-1.58838-2.04858-1.63629-4.03833-.2168a8.64368,8.64368,0,0,1-4.83642,2.03174,1.71813,1.71813,0,0,0-.71362.21491,48.51688,48.51688,0,0,1-6.23633,2.55877c-2.64136.9292-5.25367,1.95661-7.88526,2.90174-2.791,1.00244-5.81762,1.17883-8.46411,2.63067a6.437,6.437,0,0,1-3.04394.41584c-3.345.04046-6.69019.12152-10.033.18414-3.835.07184-7.68189-.18481-11.52588-.20966a3.89747,3.89747,0,0,1-1.55371-.31579c-3.48926-1.53467-6.98975-3.04553-10.34864-4.85736a7.95666,7.95666,0,0,1-1.27294-.78937,19.37782,19.37782,0,0,0-5.2815-3.14056c-1.99658-.77607-3.20337-2.53425-4.22973-4.36133a8.897,8.897,0,0,0-2.9065-3.259c-1.99683-1.27546-2.98437-3.32837-4.14062-5.24439a6.1866,6.1866,0,0,0-3.83008-3.04852,37.60637,37.60637,0,0,0-6.44409-1.59076,3.06382,3.06382,0,0,1-1.3335-.40851c-3.13184-1.98187-6.54932-3.57367-8.97632-6.5307a8.17916,8.17916,0,0,0-2.58154-1.81018,9.253,9.253,0,0,1-4.7041-5.10083,9.50637,9.50637,0,0,0-2.03-3.23456,15.26155,15.26155,0,0,1-2.54541-3.912,55.68244,55.68244,0,0,0-3.28076-5.99536,5.92442,5.92442,0,0,1-.85913-3.28693,25.21631,25.21631,0,0,0-.50245-6.43377,6.91288,6.91288,0,0,0-2.707-4.14417c-.27905-.20025-.53467-.43414-.81592-.63128-1.73461-1.21534-3.24414-2.51593-3.739-4.79505-.31494-1.449-1.44434-2.61328-2.34766-3.80688a29.46831,29.46831,0,0,1-5.65771-13.434,56.17416,56.17416,0,0,1-.42993-10.93616c.11011-2.37689.1084-4.74908.14673-7.12317a8.8988,8.8988,0,0,1,.98632-4.12689c.91749-1.75739,1.41211-3.71588,2.31495-5.507a3.15977,3.15977,0,0,0-.47168-3.28937,9.70416,9.70416,0,0,1-1.38868-3.15478,3.50542,3.50542,0,0,0-.291-.88849c-1.17066-1.98187-1.15137-4.1756-1.19043-6.36713-.03-1.68841-.17383-3.37713-.146-5.06366.0669-4.06146.20191-8.12188.3208-12.18237a2.477,2.477,0,0,1,.17481-.91022,78.8194,78.8194,0,0,1,4.18579-8.98736,47.0986,47.0986,0,0,1,2.99268-4.75409,5.47715,5.47715,0,0,0,.83276-1.35449,14.61746,14.61746,0,0,1,4.95508-6.24488,6.07,6.07,0,0,0,2.45483-5.455c-.18677-4.13019.1919-8.25092.37476-12.37421a2.32462,2.32462,0,0,1,.23462-1.18134c1.32861-1.868,1.55127-4.20837,2.69921-6.15564a11.94189,11.94189,0,0,1,1.82789-2.70422,16.82924,16.82924,0,0,0,3.46582-5.84259,6.37183,6.37183,0,0,1,2.60156-3.07355,18.19084,18.19084,0,0,0,2.88672-2.23718,6.00835,6.00835,0,0,0,2.15722-4.52081,18.83631,18.83631,0,0,1,1.15967-6.13282,16.241,16.241,0,0,0,.55567-3.1314,13.8888,13.8888,0,0,1,3.75488-7.71393,30.90936,30.90936,0,0,0,5.21777-7.37982,3.43871,3.43871,0,0,1,1.68994-1.67359,14.7815,14.7815,0,0,0,3.03272-1.85834,5.82048,5.82048,0,0,0,2.36035-4.00579,8.19141,8.19141,0,0,1,.8252-2.863,21.15835,21.15835,0,0,0,1.21679-3.52667,12.23579,12.23579,0,0,1,2.98828-4.81507,13.09941,13.09941,0,0,1,1.46265-1.31793,12.895,12.895,0,0,0,3.80908-4.6886,5.85968,5.85968,0,0,1,4.199-3.546,5.31776,5.31776,0,0,0,2.09082-1.02478c2.6228-2.01739,5.21533-4.08252,8.41186-5.166a1.20947,1.20947,0,0,0,.32959-.17706c3.115-2.33191,6.772-2.50647,10.43823-2.59144,2.18873-.05065,4.37964-.00927,7.471-.00927,5.01294-.26392,10.908.5122,16.82056.32592a2.27059,2.27059,0,0,1,1.27392.246,13.82618,13.82618,0,0,0,5.637,1.59735,2.34074,2.34074,0,0,1,.6438.11438c3.59375,1.58923,7.55517,2.15722,11.04223,4.077a26.35437,26.35437,0,0,0,7.27979,2.66071,13.6248,13.6248,0,0,0,9.8916-1.1521A69.5407,69.5407,0,0,1,365.019,220.8349,17.16911,17.16911,0,0,1,368.25293,220.313Z"/><path class="cls-1" d="M495.57056,102.46411c-6.72412-3.45093-13.86914-6.08191-20.81812-9.09448q-.43506.96479-.87012,1.92969c10.4231,5.60888,21.22779,10.61328,31.21021,16.91967C606.21387,176.10278,655.771,268.09857,644.16992,387.13849,628.31885,549.786,483.5376,653.11963,337.644,639.15247c-141.62085-13.55811-250.031-131.25568-253.7854-270.745-3.989-148.196,110.49048-274.78906,257.822-284.437,9.36231-.613,15.2793.50244,13.44605,12.02685-1.04932,6.59607,2.84936,7.264,7.9248,4.88672q21.58777-10.11164,43.13843-20.302c5.36963-2.54346,6.09473-5.87378,1.02222-9.45788q-19.46229-13.75142-39.083-27.27771c-4.71313-3.26258-8.7085-2.61548-8.74023,3.66967-.06177,12.18653-7.87964,12.68018-17.123,13.63794C224.76245,73.32983,139.12793,132.15491,90.67676,239.976,20.124,396.98,103.75439,583.447,267.062,637.97241c151.00464,50.41767,315.13281-28.561,369.24292-177.67975C686.05713,323.18341,625.51709,169.154,495.57056,102.46411Z"/></svg>