<?xml version="1.0" encoding="UTF-8"?><svg id="Layer_1" xmlns="http://www.w3.org/2000/svg" viewBox="0 0 200 200"><defs><style>.cls-1{fill:#fff;}</style></defs><path class="cls-1" d="m190.96807,98.99138c0,30.24055.00009,60.48111-.00013,90.72168.00001,1.33962-.6568,2.01047-1.97044,2.01259-5.71991.00146-11.43984.00129-17.15976.00012-1.38767-.00028-2.08245-.68741-2.08434-2.06137-.00052-52.93258-.00046-105.86515-.00047-158.79773,0-2.14997-1.05662-3.22496-3.16989-3.22497-23.34853,0-46.69711-.03544-70.04554.01315-14.28581.02973-27.3054,4.29815-38.96465,12.45429-14.33132,10.02536-23.77121,23.57289-28.14966,40.54647-2.01377,7.80653-2.50242,15.74331-1.95272,23.79529.91042,13.33606,5.22303,25.42814,13.05477,36.20544,10.72285,14.75573,25.07561,24.04923,42.93035,27.87304,2.74055.58693,5.50627,1.07572,8.3204,1.13183.84493.01685,1.27352.39894,1.50972,1.16546,1.96867,6.38855,3.94117,12.77598,5.9357,19.15648.30752.98376-.04713,1.18227-.97782,1.19581-14.00109.20376-27.37487-2.64593-39.91659-8.80603-25.20612-12.38048-41.65598-32.17787-49.264-59.2395-1.5203-5.40768-2.35047-10.94577-2.75745-16.56002-1.15343-15.91135.86811-31.32765,7.61529-45.86701,12.61417-27.1821,33.52113-44.53673,62.5883-51.94473,5.76449-1.46914,11.65745-2.11028,17.61445-2.36497,6.88892-.29453,13.77383-.1451,20.65947-.15639,24.80187-.04065,49.60388-.00391,74.40576-.0473,1.41895-.00249,1.81318.35613,1.81118,1.79541-.0422,30.33426-.03192,60.66862-.03191,91.00294v.00003Z"/><path class="cls-1" d="m139.4855,65.02842c0,3.09382.03605,6.18813-.00615,9.28137-.20092,14.72833-5.59657,27.24872-16.16875,37.48218-1.32466,1.28224-1.66672,2.26791-1.10457,4.07002,7.68396,24.63164,15.27487,49.29228,22.88852,73.94585.4665,1.51052.44266,1.52379-1.15742,1.59718-6.59989.30263-13.20584.21046-19.80818.33674-1.13154.02164-1.38471-.56897-1.65737-1.45503-5.40299-17.55768-10.82991-35.10802-16.25233-52.65972-.7452-2.41209-1.52618-4.81387-2.22294-7.23984-.2963-1.03166-.68598-1.18072-1.67357-.70967-4.49767,2.14517-9.25791,3.19242-14.24883,3.18952-13.16419-.00769-25.21876-8.00959-30.38206-20.18036-8.34811-19.67799,3.97066-42.25289,24.92345-45.67373,13.48081-2.20094,26.5791,3.76995,33.8506,15.41731.28747.46048.45348,1.28624,1.0116,1.22846.70011-.07247.59629-.96726.73415-1.5047.61651-2.40334,1.0033-4.83667.98885-7.34084-.04134-7.17179.00653-14.34414-.03622-21.51591-.00672-1.13087.27559-1.55832,1.48249-1.54688,5.81209.05511,11.62527.05195,17.43745.00165,1.13824-.00986,1.43828.37327,1.4229,1.46393-.05549,3.93682-.02181,7.87488-.02164,11.81247Zm-51.37057,47.53691c6.12319.3268,12.89911-4.74253,13.01834-12.839.10268-6.97333-5.89459-12.9312-12.86517-12.97963-7.04302-.04894-12.77823,5.78203-12.97241,12.81727-.1943,7.03936,6.06329,13.29019,12.81927,13.00135h-.00003Z"/></svg>