<?xml version="1.0" encoding="utf-8"?>
<!-- Generator: Adobe Illustrator 28.5.0, SVG Export Plug-In . SVG Version: 9.03 Build 54727)  -->
<svg version="1.1" id="Layer_1" xmlns="http://www.w3.org/2000/svg" xmlns:xlink="http://www.w3.org/1999/xlink" x="0px" y="0px"
	 width="800px" height="126.7px" viewBox="0 0 800 126.7" style="enable-background:new 0 0 800 126.7;" xml:space="preserve">
<style type="text/css">
	.Drop_x0020_Shadow{fill:none;}
	.Round_x0020_Corners_x0020_2_x0020_pt{fill:#FFFFFF;stroke:#231F20;stroke-miterlimit:10;}
	.Live_x0020_Reflect_x0020_X{fill:none;}
	.Bevel_x0020_Soft{fill:url(#SVGID_1_);}
	.Dusk{fill:#FFFFFF;}
	.Foliage_GS{fill:#FFDD00;}
	.Pompadour_GS{fill-rule:evenodd;clip-rule:evenodd;fill:#44ADE2;}
	.st0{fill:#163357;}
	.st1{fill:#FFBC00;}
	.st2{fill:#F43BA6;}
	.st3{fill:#FFFFFF;}
</style>
<linearGradient id="SVGID_1_" gradientUnits="userSpaceOnUse" x1="-1640" y1="-343.3005" x2="-1639.2928" y2="-342.5934">
	<stop  offset="0" style="stop-color:#DEDFE3"/>
	<stop  offset="0.1783" style="stop-color:#DADBDF"/>
	<stop  offset="0.3611" style="stop-color:#CECFD3"/>
	<stop  offset="0.546" style="stop-color:#B9BCBF"/>
	<stop  offset="0.7324" style="stop-color:#9CA0A2"/>
	<stop  offset="0.9181" style="stop-color:#787D7E"/>
	<stop  offset="1" style="stop-color:#656B6C"/>
</linearGradient>
<g>
	<g>
		<path class="st0" d="M199.8,72.4c0,2.9-0.6,5.6-1.9,7.9s-3.1,4.2-5.3,5.5c-2.2,1.3-4.8,2-7.7,2c-2.9,0-5.4-0.7-7.7-2
			c-2.3-1.3-4-3.2-5.3-5.5s-1.9-5-1.9-7.9V26.2h-15.5v47.1c0,5.5,1.3,10.3,3.9,14.6s6.2,7.7,10.8,10.1c4.6,2.5,9.8,3.7,15.7,3.7
			c5.9,0,11.1-1.2,15.7-3.7c4.6-2.5,8.2-5.8,10.8-10.1c2.6-4.3,3.9-9.2,3.9-14.6V26.2h-15.5V72.4z"/>
		<path class="st0" d="M266,47.5c-3.1-1.7-6.7-2.6-10.8-2.6c-3.8,0-7.1,0.8-9.9,2.3c-2.3,1.3-4.1,3.2-5.3,5.6v-6.7h-14v54.5h15V68.8
			c0-2.1,0.4-4,1.2-5.5c0.8-1.5,2-2.7,3.5-3.6c1.5-0.9,3.3-1.3,5.2-1.3c1.9,0,3.7,0.4,5.2,1.3c1.5,0.9,2.7,2.1,3.5,3.6
			c0.8,1.5,1.2,3.4,1.2,5.5v31.8h15v-35c0-4.1-0.9-7.7-2.6-10.8C271.5,51.6,269,49.2,266,47.5L266,47.5z"/>
		<path class="st0" d="M300.3,26.2h-15v15h15V26.2z"/>
		<path class="st0" d="M300.3,46.1h-15v54.5h15V46.1z"/>
		<path class="st0" d="M330.6,33.7h-15v4c0,2.8-0.8,4.9-2.2,6.3c-1.5,1.4-3.6,2.1-6.4,2.1h-0.5v13h9.2v21.9c0,6.4,1.8,11.4,5.4,14.9
			c3.6,3.6,8.7,5.3,15.3,5.3c1.1,0,2.3-0.1,3.6-0.2c1.3-0.1,2.4-0.3,3.4-0.4V87.9c-0.7,0.1-1.3,0.1-1.9,0.2
			c-0.6,0.1-1.1,0.1-1.6,0.1c-2.1,0-3.8-0.3-5.2-0.9c-1.4-0.6-2.4-1.5-3.1-2.7c-0.7-1.2-1-2.8-1-4.6V59.1h12.8v-13h-12.8V33.7z"/>
		<path class="st0" d="M377.8,81.2L365,46.1h-16.1l21.5,54.5l-1,2.3c-0.8,1.7-1.8,3.3-3.1,4.6c-1.3,1.4-3.4,2-6.3,2
			c-1.1,0-2.2-0.1-3.5-0.3c-1.3-0.2-2.4-0.4-3.3-0.7v12.3c1.1,0.6,2.5,1,3.9,1.3c1.5,0.3,3,0.4,4.6,0.4c3.3,0,6.3-0.6,9-1.8
			c2.7-1.2,5.1-3.1,7.2-5.6c2.1-2.5,3.9-5.7,5.4-9.4l23.4-59.6h-16.1L377.8,81.2L377.8,81.2z"/>
		<path class="st0" d="M452.2,42.1c3.3-2.1,7.2-3.1,11.6-3.1c4.4,0,8.4,1.2,11.5,3.5c3.2,2.4,5.4,5.3,6.6,8.9l13.7-6.6
			c-1.3-3.7-3.4-7-6.4-10c-3-3-6.6-5.4-10.9-7.2c-4.3-1.8-9.1-2.7-14.5-2.7c-5.4,0-10.4,0.9-14.9,2.8s-8.5,4.6-11.9,8
			c-3.4,3.4-6,7.5-7.9,12.2c-1.9,4.7-2.8,9.8-2.8,15.3c0,5.5,0.9,10.6,2.9,15.3c1.9,4.7,4.5,8.7,7.9,12.2c3.4,3.5,7.4,6.2,11.9,8.1
			c4.6,1.9,9.5,2.9,14.8,2.9c5.3,0,10.2-0.9,14.5-2.7c4.3-1.8,7.9-4.2,10.9-7.2c3-3,5.1-6.3,6.4-10l-13.7-6.6
			c-1.3,3.6-3.5,6.6-6.6,8.9c-3.2,2.4-7,3.5-11.5,3.5c-4.5,0-8.2-1-11.6-3.1c-3.3-2.1-5.9-4.9-7.7-8.6s-2.7-7.9-2.7-12.8
			c0-4.9,0.9-9.1,2.7-12.7C446.3,47,448.9,44.2,452.2,42.1L452.2,42.1z"/>
		<path class="st0" d="M539.4,47.4c-3.5-1.7-7.6-2.5-12.2-2.5c-3.9,0-7.4,0.6-10.7,1.8c-3.3,1.2-6.1,2.9-8.4,5.1
			c-2.3,2.2-4,4.8-5.1,7.9l12,5.7c0.9-2.4,2.4-4.3,4.4-5.8c2-1.5,4.4-2.2,7-2.2c2.8,0,5,0.7,6.6,2.1c1.6,1.4,2.5,3.1,2.5,5.2v1.5
			l-15.1,2.4c-4.3,0.7-7.9,1.8-10.8,3.4c-2.9,1.6-5,3.6-6.4,5.9c-1.4,2.4-2.1,5.1-2.1,8.1c0,3.3,0.8,6.1,2.3,8.4
			c1.5,2.4,3.7,4.2,6.6,5.4c2.9,1.3,6.3,1.9,10.2,1.9c2.9,0,5.6-0.4,8-1.2c2.4-0.8,4.6-1.9,6.5-3.5c0.6-0.5,1.3-1.1,1.9-1.8v5.2h14
			V64.7c0-3.9-1-7.4-2.9-10.3C545.7,51.4,543,49.1,539.4,47.4L539.4,47.4z M534.1,84.9c-1,1.8-2.5,3.3-4.3,4.3
			c-1.9,1.1-4,1.6-6.5,1.6c-1.9,0-3.4-0.5-4.7-1.4c-1.3-0.9-1.9-2.2-1.9-3.9c0-1.8,0.6-3.2,1.7-4.2c1.1-1,2.8-1.6,4.9-2l12.4-2.2
			v1.7C535.6,81.1,535.1,83.1,534.1,84.9z"/>
		<path class="st0" d="M580.1,33.7h-15v4c0,2.8-0.8,4.9-2.2,6.3c-1.5,1.4-3.6,2.1-6.4,2.1h-0.5v13h9.2V81c0,6.4,1.8,11.4,5.4,14.9
			c3.6,3.6,8.7,5.3,15.3,5.3c1.1,0,2.3-0.1,3.6-0.2c1.3-0.1,2.4-0.3,3.4-0.4V88c-0.7,0.1-1.3,0.1-1.9,0.2c-0.6,0.1-1.1,0.1-1.6,0.1
			c-2.1,0-3.8-0.3-5.2-0.9c-1.4-0.6-2.4-1.5-3.1-2.7c-0.7-1.2-1-2.8-1-4.6V59.1h12.8v-13h-12.8V33.7z"/>
		<path class="st0" d="M637.7,47.4c-3.5-1.7-7.6-2.5-12.2-2.5c-3.9,0-7.4,0.6-10.7,1.8c-3.3,1.2-6.1,2.9-8.4,5.1
			c-2.3,2.2-4,4.8-5.1,7.9l12,5.7c0.9-2.4,2.4-4.3,4.4-5.8c2-1.5,4.4-2.2,7-2.2c2.8,0,5,0.7,6.6,2.1c1.6,1.4,2.5,3.1,2.5,5.2v1.5
			l-15.1,2.4c-4.3,0.7-7.9,1.8-10.8,3.4c-2.9,1.6-5,3.6-6.4,5.9s-2.1,5.1-2.1,8.1c0,3.3,0.8,6.1,2.3,8.4c1.5,2.4,3.7,4.2,6.6,5.4
			c2.9,1.3,6.3,1.9,10.2,1.9c2.9,0,5.6-0.4,8-1.2c2.4-0.8,4.6-1.9,6.5-3.5c0.6-0.5,1.3-1.1,1.9-1.8v5.2h14V64.7
			c0-3.9-1-7.4-2.9-10.3C644,51.4,641.2,49.1,637.7,47.4L637.7,47.4z M632.3,84.9c-1,1.8-2.5,3.3-4.3,4.3c-1.9,1.1-4,1.6-6.5,1.6
			c-1.9,0-3.4-0.5-4.7-1.4c-1.3-0.9-1.9-2.2-1.9-3.9c0-1.8,0.6-3.2,1.7-4.2c1.1-1,2.8-1.6,4.9-2l12.4-2.2v1.7
			C633.9,81.1,633.4,83.1,632.3,84.9z"/>
		<path class="st0" d="M657.7,100.6h15V27l-15,8V100.6z"/>
		<path class="st0" d="M724,48.6c-4.4-2.5-9.3-3.7-14.7-3.7c-5.4,0-10.3,1.2-14.7,3.7c-4.4,2.5-8,5.8-10.6,10.1s-3.9,9.2-3.9,14.7
			c0,5.5,1.3,10.3,3.9,14.6s6.1,7.7,10.6,10.1s9.3,3.7,14.7,3.7c5.4,0,10.3-1.2,14.7-3.7c4.4-2.5,7.9-5.8,10.5-10.1
			c2.6-4.3,3.9-9.2,3.9-14.6c0-5.5-1.3-10.4-3.9-14.7S728.4,51.1,724,48.6z M721.3,81.2c-1.2,2.3-2.8,4-4.8,5.3
			c-2,1.3-4.4,1.9-7.1,1.9c-2.7,0-5.1-0.6-7.2-1.9c-2.1-1.3-3.7-3-4.8-5.3s-1.8-4.9-1.8-7.8c0-2.9,0.6-5.5,1.8-7.7
			c1.2-2.2,2.8-4,4.8-5.3c2.1-1.3,4.5-1.9,7.2-1.9c2.7,0,5.1,0.6,7.1,1.9c2,1.3,3.6,3.1,4.8,5.3c1.2,2.2,1.8,4.8,1.8,7.7
			C723,76.3,722.5,78.9,721.3,81.2z"/>
		<path class="st0" d="M786,46.1v5.7c-1.6-1.9-3.5-3.5-5.6-4.6c-2.9-1.6-6.4-2.3-10.3-2.3c-5,0-9.5,1.1-13.4,3.4
			c-3.9,2.3-7,5.4-9.3,9.3s-3.4,8.5-3.4,13.6s1.1,9.7,3.4,13.7c2.3,4,5.4,7.2,9.4,9.5c4,2.3,8.5,3.5,13.6,3.5
			c3.9,0,7.4-0.8,10.3-2.2c1.6-0.8,3-1.9,4.3-3.2v5.2c0,2.3-0.5,4.4-1.5,6.1c-1,1.7-2.3,3-4.2,3.9s-3.9,1.3-6.4,1.3
			c-3.1,0-5.8-0.7-8.1-2.2c-2.3-1.5-3.8-3.5-4.5-6l-13.9,4.9c1.1,3.4,3,6.3,5.5,8.8c2.6,2.5,5.6,4.4,9.2,5.8
			c3.6,1.4,7.5,2.1,11.7,2.1c5.3,0,9.9-1.1,13.9-3.2c4-2.1,7.2-5.1,9.5-8.8c2.3-3.8,3.5-8,3.5-12.8V46.2L786,46.1L786,46.1z
			 M783.5,78.3c-1,1.9-2.5,3.4-4.3,4.5c-1.9,1.1-4.1,1.6-6.6,1.6c-2.5,0-4.8-0.5-6.7-1.6c-2-1.1-3.5-2.6-4.6-4.5
			c-1.1-1.9-1.6-4.2-1.6-6.7c0-2.5,0.5-4.9,1.6-6.8c1.1-2,2.6-3.5,4.6-4.6c2-1.1,4.2-1.6,6.7-1.6c2.5,0,4.6,0.5,6.5,1.6
			c1.9,1.1,3.3,2.6,4.4,4.6c1.1,2,1.6,4.2,1.6,6.8C785,74.1,784.5,76.3,783.5,78.3L783.5,78.3z"/>
		<path class="st0" d="M61.9,42L43.4,52.7V74l18.5,10.7L80.4,74V52.7L61.9,42z"/>
		<path class="st1" d="M100.8,40.9h21.2l-10.6-18.4L100.8,40.9z"/>
		<path class="st1" d="M100.8,85.8l10.6,18.4l10.6-18.4H100.8z"/>
		<path class="st1" d="M51.3,126.7h21.2l-10.6-18.4L51.3,126.7z"/>
		<path class="st1" d="M1.7,85.8l10.6,18.4L23,85.8H1.7z"/>
		<path class="st1" d="M1.7,40.9H23L12.3,22.5L1.7,40.9z"/>
		<path class="st1" d="M51.3,0l10.6,18.4L72.5,0H51.3z"/>
		<path class="st2" d="M82.2,3.6L69.8,24.9l21.4,12.3l12.3-21.4L82.2,3.6z"/>
		<path class="st2" d="M123.8,51H99.1v24.7h24.7V51z"/>
		<path class="st2" d="M91.2,89.4l-21.4,12.3l12.3,21.4l21.4-12.3L91.2,89.4z"/>
		<path class="st2" d="M32.6,89.4l-12.3,21.4l21.4,12.3l12.3-21.4L32.6,89.4z"/>
		<path class="st2" d="M24.7,51H0v24.7h24.7V51z"/>
		<path class="st2" d="M41.6,3.6L20.3,15.9l12.3,21.4L53.9,25L41.6,3.6z"/>
	</g>
</g>
</svg>
