<?xml version="1.0" encoding="utf-8"?>
<!-- Generator: Adobe Illustrator 23.1.1, SVG Export Plug-In . SVG Version: 6.00 Build 0)  -->
<svg version="1.1" id="Layer_1" xmlns="http://www.w3.org/2000/svg" xmlns:xlink="http://www.w3.org/1999/xlink" x="0px" y="0px"
	 viewBox="0 0 1000 253.8" style="enable-background:new 0 0 1000 253.8;" xml:space="preserve">
<style type="text/css">
	.st0{fill:#FFFFFF;}
	.st1{fill:url(#SVGID_1_);}
	.st2{fill:url(#SVGID_2_);}
	.st3{fill:url(#SVGID_3_);}
	.st4{fill:url(#SVGID_4_);}
	.st5{fill:url(#SVGID_5_);}
	.st6{fill:url(#SVGID_6_);}
	.st7{fill:url(#SVGID_7_);}
	.st8{fill:url(#SVGID_8_);}
	.st9{fill:url(#SVGID_9_);}
	.st10{fill:url(#SVGID_10_);}
</style>
<g>
	<path d="M267.7,245.8c0,4.1,3.5,7.6,7.6,7.6c4.7,0,7.6-3.5,7.6-7.6V156h-15.2V245.8z"/>
	<path d="M335.7,1.5c-37.5,0-67.9,30.5-67.9,67.4v30h15.2v-30c0-28.7,24-52.1,52.7-52.1s52.1,23.4,52.1,52.1v50.7h-1.9H9.2
		c-4.3,0-7.9,3.5-7.9,7.9c0,4.3,3.5,7.9,7.9,7.9h376.7h1.9v110.5c0,4.1,3.5,7.6,7.6,7.6s7.6-3.5,7.6-7.6V68.9
		C403,32,372.6,1.5,335.7,1.5z"/>
	<path d="M519.5,1.5h-81.4c-4.1,0-7.6,3.5-7.6,7.6c0,4.1,3.5,7.6,7.6,7.6h32.8v229c0,5.3,3.5,7.6,7.6,7.6h41
		c37.5,0,67.4-29.9,67.4-67.4V68.9C586.8,32,557,1.5,519.5,1.5z M571.6,186c0,28.7-23.4,52.1-52.1,52.1h-33.4V16.8h33.4
		c28.7,0,52.1,23.4,52.1,52.1V186z"/>
	<path d="M740.3,194.8c-4.1,0-7.6,3.5-7.6,7.6v35.7h-49.8c-27.5,0-36.9-21.1-36.9-52.1V9.1c0-4.1-3.5-7.6-7.6-7.6s-7.6,3.5-7.6,7.6
		V186c0,35.7,14.1,67.4,52.1,67.4h57.4c4.7,0,7.6-3.5,7.6-7.6v-43.3C747.9,198.3,745,194.8,740.3,194.8z"/>
	<path d="M792.4,0.4c-4.1,0-7.6,3.5-7.6,7.6v237.8c0,4.1,3.5,7.6,7.6,7.6s7.6-3.5,7.6-7.6V8C800.1,3.9,796.5,0.4,792.4,0.4z"/>
	<path d="M960,126.9c21.1-11.7,34.6-32.8,34.6-58V9.1c0-4.1-3.5-7.6-7.6-7.6c-4.1,0-7.6,3.5-7.6,7.6v59.7c0,28.7-22.8,51-52.1,51
		c0,0,0,0-32.2,0V9.1c0-4.1-3.5-7.6-7.6-7.6c-4.1,0-7.6,3.5-7.6,7.6v110.7h-32.2c-4.1,0-7.6,3.5-7.6,7.6s3.5,7.6,7.6,7.6h32.2v110.7
		c0,4.1,3.5,7.6,7.6,7.6c4.1,0,7.6-3.5,7.6-7.6V135.1h32.2c30.5,0,56.2,21.1,56.2,52.1v58.6c0,4.1,3.5,7.6,7.6,7.6
		c4.7,0,7.6-3.5,7.6-7.6v-58.6C998.6,159.1,982.2,138,960,126.9z"/>
	<path d="M232.4,185.9c0-4.3-3.5-7.9-7.9-7.9H77.7c-4.3,0-7.9,3.5-7.9,7.9s3.5,7.9,7.9,7.9h146.8
		C228.9,193.8,232.4,190.3,232.4,185.9z"/>
	<path d="M146.1,60c-4.3,0-7.9,3.5-7.9,7.9s3.5,7.9,7.9,7.9h79.4c4.3,0,7.9-3.5,7.9-7.9s-3.5-7.9-7.9-7.9H146.1z"/>
	<path d="M225.5,236.6h-78.4c-4.3,0-7.9,3.5-7.9,7.9s3.5,7.9,7.9,7.9h78.4c4.3,0,7.9-3.5,7.9-7.9S229.9,236.6,225.5,236.6z"/>
	<path d="M76.7,16.2h162.7c4.3,0,7.9-3.5,7.9-7.9s-3.5-7.9-7.9-7.9H76.7c-4.3,0-7.9,3.5-7.9,7.9S72.4,16.2,76.7,16.2z"/>
</g>
</svg>
