<svg id="Layer_1" data-name="Layer 1" xmlns="http://www.w3.org/2000/svg" xmlns:xlink="http://www.w3.org/1999/xlink" viewBox="0 0 199.27 364.51999"><defs><style>.cls-1{fill:url(#linear-gradient);}.cls-2{stroke:#faba0d;stroke-miterlimit:10;stroke-width:5px;fill:url(#linear-gradient-2);}.cls-3{fill:url(#linear-gradient-3);}</style><linearGradient id="linear-gradient" x1="99.75999" y1="68.97001" x2="99.75999" y2="253.06002" gradientTransform="translate(0 -61.89002)" gradientUnits="userSpaceOnUse"><stop offset="0.009" stop-color="#e6e6e6"/><stop offset="1" stop-color="#f2f2f2" stop-opacity="0"/></linearGradient><linearGradient id="linear-gradient-2" x1="99.76" y1="102.93001" x2="99.76" y2="281.37002" gradientTransform="translate(0 -61.89002)" gradientUnits="userSpaceOnUse"><stop offset="0.004" stop-color="#e6e6e6"/><stop offset="0.995" stop-color="#fff" stop-opacity="0"/></linearGradient><linearGradient id="linear-gradient-3" x1="99.75999" y1="137.02" x2="99.75999" y2="321.11001" gradientTransform="translate(0 -61.89002)" gradientUnits="userSpaceOnUse"><stop offset="0.006" stop-color="#e6e6e6"/><stop offset="1" stop-color="#f2f2f2" stop-opacity="0.8"/></linearGradient></defs><path class="cls-1" d="M99.76,191.17,7.71,99.13,99.76,7.08l92.05,92.05L99.76,191.17Z"/><path class="cls-2" d="M10.54,130.26,99.76,41.04l89.22,89.22L99.76,219.48Z"/><path class="cls-3" d="M99.76,259.22,7.71,167.17,99.76,75.13l92.05,92.04L99.76,259.22Z"/><path d="M61.14135,332.64671v13.13281L75.2517,332.64671h3.12793l-10.8457,10.08887,11.35545,14.3291H75.89719L65.79955,344.342l-4.6582,4.34375v8.37891H58.82983v-24.418Z"/><path d="M81.05541,351.23362a6.60238,6.60238,0,0,0,1.03711,2.23926,5.93746,5.93746,0,0,0,1.80176,1.64258,5.02049,5.02049,0,0,0,2.61816.64941,5.19115,5.19115,0,0,0,3.67188-1.23144,6.48373,6.48373,0,0,0,1.83594-3.2832h2.14161a8.61552,8.61552,0,0,1-2.499,4.65136,7.42027,7.42027,0,0,1-5.15039,1.6416,8.1376,8.1376,0,0,1-3.58691-.73535,6.60734,6.60734,0,0,1-2.46485-2.01758,8.78493,8.78493,0,0,1-1.41113-2.97558,13.57256,13.57256,0,0,1-.459-3.57324,12.85978,12.85978,0,0,1,.459-3.41993,9.20844,9.20844,0,0,1,1.41113-2.99218,7.07869,7.07869,0,0,1,2.46485-2.12012,7.54888,7.54888,0,0,1,3.58691-.80371,6.92655,6.92655,0,0,1,6.03516,3.09473,9.33258,9.33258,0,0,1,1.34277,3.17968,14.08282,14.08282,0,0,1,.33984,3.64258h-13.498a9.591,9.591,0,0,0,.32317,2.41113Zm10.60742-6.583a6.46607,6.46607,0,0,0-1.10449-2,5.46513,5.46513,0,0,0-1.73437-1.40235,4.93574,4.93574,0,0,0-2.31153-.53125,5.012,5.012,0,0,0-2.3457.53125,5.46513,5.46513,0,0,0-1.73437,1.40235,6.98561,6.98561,0,0,0-1.13868,2.01757,9.89968,9.89968,0,0,0-.56152,2.3418H92.08862A7.845,7.845,0,0,0,91.66283,344.65062Zm18.82666,12.41406v-3.35156h-.06836a5.05381,5.05381,0,0,1-1.00292,1.57226,6.479,6.479,0,0,1-1.5127,1.21485,7.86215,7.86215,0,0,1-1.81934.76953,7.07058,7.07058,0,0,1-1.92089.27343,7.75121,7.75121,0,0,1-3.48438-.73535,6.97758,6.97758,0,0,1-2.46533-2.01758,8.65985,8.65985,0,0,1-1.46289-2.97558,13.661,13.661,0,0,1,0-7.14649,8.65985,8.65985,0,0,1,1.46289-2.97558,7.153,7.153,0,0,1,2.46533-2.03516,7.59865,7.59865,0,0,1,3.48438-.752,7.73073,7.73073,0,0,1,1.92089.23926,6.41071,6.41071,0,0,1,1.751.73535,6.19958,6.19958,0,0,1,1.44531,1.21386,5.10692,5.10692,0,0,1,.96875,1.67579h.06836v-10.123h2.1416v24.418Zm-11.74755-6.10547a7.5272,7.5272,0,0,0,1.0205,2.41211,5.6232,5.6232,0,0,0,1.78467,1.72656,4.91907,4.91907,0,0,0,2.61817.667,5.4888,5.4888,0,0,0,4.77734-2.39355,7.13064,7.13064,0,0,0,1.05371-2.41211,11.59129,11.59129,0,0,0,0-5.43652,7.13391,7.13391,0,0,0-1.05371-2.41114,5.49244,5.49244,0,0,0-4.77734-2.39453,4.911,4.911,0,0,0-2.61817.668,5.61316,5.61316,0,0,0-1.78467,1.72656,7.53048,7.53048,0,0,0-1.0205,2.41114,11.591,11.591,0,0,0,0,5.43652Zm19.48877-11.541v4.13868h.06835a6.762,6.762,0,0,1,2.53321-3.31836A6.60347,6.60347,0,0,1,124.929,339.179v2.15429a6.41692,6.41692,0,0,0-2.65234.39356,5.8773,5.8773,0,0,0-3.39941,3.35156,6.81445,6.81445,0,0,0-.47657,2.582v9.4043H116.259V339.41819Zm19.00976.23926A7.75766,7.75766,0,0,1,139.842,341.676a8.75067,8.75067,0,0,1,1.59766,2.957,12.23751,12.23751,0,0,1,0,7.21582,8.75592,8.75592,0,0,1-1.59766,2.958,7.56566,7.56566,0,0,1-2.60156,2.001,8.9499,8.9499,0,0,1-7.10547,0,7.54738,7.54738,0,0,1-2.60156-2.001,8.72241,8.72241,0,0,1-1.59766-2.958,12.23751,12.23751,0,0,1,0-7.21582,8.71765,8.71765,0,0,1,1.59766-2.957,7.73877,7.73877,0,0,1,2.60156-2.01856,8.76885,8.76885,0,0,1,7.10547,0Zm-6.23926,1.71a5.93053,5.93053,0,0,0-1.9209,1.71,7.76673,7.76673,0,0,0-1.15527,2.41114,9.87216,9.87216,0,0,0,0,5.50586,7.75035,7.75035,0,0,0,1.15527,2.41015,5.63132,5.63132,0,0,0,9.21387,0,7.752,7.752,0,0,0,1.15625-2.41015,9.87216,9.87216,0,0,0,0-5.50586,7.76811,7.76811,0,0,0-1.15625-2.41114,5.6329,5.6329,0,0,0-7.293-1.71Z"/></svg>