<svg id="Layer_1" data-name="Layer 1" xmlns="http://www.w3.org/2000/svg" viewBox="0 0 360 360"><defs><style>.cls-1{fill:#fff;}</style></defs><path class="cls-1" d="M355,330.23758H121.66878c-.38353,0-.77029-.03266-1.15.005-2.33549.232-2.3228-.61273-1.30375-2.381,4.68172-8.12381,9.26835-16.30227,13.891-24.46008,6.69813-11.82063,13.43409-23.6202,20.05942-35.48141a4.409,4.409,0,0,1,4.43231-2.69113q78.95776.11739,157.91577.02735a3.96335,3.96335,0,0,1,4.0868,2.23205Q336.751,298.01918,354.09108,328.444C354.3248,328.85647,354.52139,329.28982,355,330.23758Z"/><path class="cls-1" d="M5,330.25571,122.06622,128.58258c7.205,12.27978,14.21789,24.23318,21.23188,36.18593,5.18107,8.82922,10.32573,17.68016,15.58191,26.46461a3.49889,3.49889,0,0,1,.05879,4.13014q-38.90164,66.854-77.68866,133.77449c-.75386,1.29979-1.41532,2.24353-3.23452,2.21738q-35.81169-.51435-71.62556-.87947A11.88191,11.88191,0,0,1,5,330.25574Z"/><path class="cls-1" d="M298.634,228.97831c-8.65076,0-16.49362-.06258-24.33518.01307q-24.31283.23447-48.62376.62913a3.56191,3.56191,0,0,1-3.60659-2.06114q-38.93244-66.85543-77.9558-133.658c-.697-1.19373-1.249-2.1407-.37266-3.63219Q161.919,59.331,179.97509,28.32075a12.05887,12.05887,0,0,1,.89367-1.12339Z"/></svg>