<?xml version="1.0" encoding="UTF-8"?><svg id="TEMPLATE_delete_" xmlns="http://www.w3.org/2000/svg" viewBox="0 0 500 500"><path d="m485.58745,400.65696L264.32237,22.34385c-4.94719-8.45846-17.17219-8.45846-22.11961,0L54.16785,343.84108c-3.30711,5.65399,2.65767,12.18505,8.5876,9.40265,2.43283-1.14162,5.24357-2.29463,8.3263-3.44484l-.05946.12636s5.13672-1.99058,13.81515-4.74163c9.56989-2.93965,20.05238-5.72042,29.54445-8.07358,26.55765-6.13271,61.35845-11.12217,92.73995-5.91298,28.8762,4.79319,48.99037,12.53695,63.63705,20.14598,6.71827,3.49014,13.05979-5.27701,7.63064-10.55357-21.00307-20.4117-53.31855-45.04683-102.4729-55.37393-2.15178-.452-3.23022-2.87926-2.11996-4.7774l74.02895-126.57426c2.43213-4.15815,8.44197-4.15815,10.8741,0l141.38284,241.73299c2.97774,5.0912.48266,11.59229-5.11094,13.46279-11.0785,3.70499-24.31529,6.47438-39.12967,6.47438-9.42472,0-18.90518-1.11096-28.41026-3.32104-.00418-.0007-27.39709-4.32214-64.01984-26.17092-36.61787-21.84553-107.2273-49.71576-186.45545-4.59622-33.75534,21.6913-56.2489,51.36234-68.1025,69.98647-1.85517,2.9148,1.35067,6.39634,4.39833,4.7681,27.22172-14.54332,100.61843-48.88747,166.75427-36.54238,39.31154,7.33797,84.23341,37.01157,130.93194,54.02907h0c77.255,28.62837,152.99418-19.33372,153.15398-19.43523,8.01017-5.29142,12.71138-9.31508,13.5118-10.01353l.96626-.84338c12.34253-10.77283,15.28776-28.79653,7.01697-42.93802Z"/></svg>