<?xml version="1.0" encoding="UTF-8"?>
<svg width="376px" height="100px" viewBox="0 0 376 100" version="1.1" xmlns="http://www.w3.org/2000/svg" xmlns:xlink="http://www.w3.org/1999/xlink">
    <title>docarra-horizontal-light</title>
    <g id="Icon-products-text" stroke="none" stroke-width="1" fill="none" fill-rule="evenodd">
        <g id="DocArray" transform="translate(-292.000000, -222.000000)" fill-rule="nonzero">
            <g id="docarra-horizontal-light" transform="translate(292.000000, 222.000000)">
                <g id="docarray" transform="translate(132.000000, 30.000000)">
                    <path d="M14.0673874,40.3652695 C16.6283733,40.3652695 18.8647271,39.7994012 20.7764491,38.6676647 C22.688171,37.5359281 24.1309799,36.0898203 25.104876,34.3293413 L25.104876,34.3293413 L25.104876,39.8802395 L30.0825669,39.8802395 L30.0825669,0 L25.104876,0 L25.104876,15.6287425 C24.0588394,13.9041916 22.54389,12.511976 20.5600277,11.4520958 C18.5761654,10.3922156 16.4299871,9.86227545 14.1214927,9.86227545 C11.4522961,9.86227545 9.04460869,10.491018 6.89843036,11.748503 C4.75225203,13.005988 3.06596904,14.7754491 1.83958143,17.0568862 C0.61319381,19.3383234 0,21.988024 0,25.005988 C0,27.988024 0.61319381,30.6467065 1.83958143,32.9820359 C3.06596904,35.3173653 4.75225203,37.1317365 6.89843036,38.4251497 C9.04460869,39.7185629 11.434261,40.3652695 14.0673874,40.3652695 Z M15.0412834,36.0538922 C13.201702,36.0538922 11.5244366,35.6137725 10.0094872,34.7335329 C8.49453777,33.8532934 7.28618526,32.5778443 6.38442966,30.9071856 C5.48267407,29.2365269 5.03179626,27.2694611 5.03179626,25.005988 C5.03179626,22.7784431 5.48267407,20.8383233 6.38442966,19.1856287 C7.28618526,17.5329341 8.49453777,16.2754491 10.0094872,15.4131737 C11.5244366,14.5508982 13.201702,14.1197605 15.0412834,14.1197605 C16.8808649,14.1197605 18.5671478,14.5598802 20.1001324,15.4401198 C21.633117,16.3203593 22.850487,17.5868264 23.7522426,19.239521 C24.6539981,20.8922155 25.104876,22.8323353 25.104876,25.0598802 C25.104876,27.2874252 24.6539981,29.2365269 23.7522426,30.9071856 C22.850487,32.5778443 21.633117,33.8532934 20.1001324,34.7335329 C18.5671478,35.6137725 16.8808649,36.0538922 15.0412834,36.0538922 Z M50.2265433,40.3652695 C53.0400207,40.3652695 55.6010067,39.736527 57.909501,38.4790419 C60.2179953,37.2215568 62.0485592,35.4341317 63.4011926,33.1167665 C64.753826,30.7994012 65.4301427,28.1137724 65.4301427,25.0598802 C65.4301427,22.0059881 64.7718612,19.3293413 63.4552979,17.0299401 C62.1387347,14.7305389 60.3442411,12.9610778 58.071817,11.7215569 C55.7993929,10.4820359 53.2564421,9.86227545 50.4429646,9.86227545 C47.6294871,9.86227545 45.0865363,10.4820359 42.8141122,11.7215569 C40.5416881,12.9610778 38.7471945,14.739521 37.4306313,17.0568862 C36.114068,19.3742515 35.4557865,22.0419162 35.4557865,25.0598802 C35.4557865,28.1137724 36.096033,30.7994012 37.3765259,33.1167665 C38.6570188,35.4341317 40.4244599,37.2215568 42.6788489,38.4790419 C44.9332378,39.736527 47.4491359,40.3652695 50.2265433,40.3652695 Z M50.2265433,36.0538922 C48.4591023,36.0538922 46.8359422,35.6497006 45.357063,34.8413174 C43.8781837,34.0329341 42.696884,32.8023951 41.8131635,31.1497006 C40.9294429,29.497006 40.4875827,27.4670658 40.4875827,25.0598802 C40.4875827,22.6886228 40.9384606,20.6766466 41.8402161,19.0239521 C42.7419717,17.3712575 43.9413068,16.1407186 45.438221,15.3323353 C46.9351352,14.5239521 48.585348,14.1197605 50.3888593,14.1197605 C52.1563002,14.1197605 53.7974954,14.5239521 55.3124448,15.3323353 C56.8273943,16.1407186 58.0537818,17.3712575 58.9916077,19.0239521 C59.9294336,20.6766466 60.3983464,22.6886228 60.3983464,25.0598802 C60.3983464,27.4311377 59.9204159,29.4431138 58.964555,31.0958084 C58.0086942,32.7485029 56.7552538,33.9880239 55.2042342,34.8143713 C53.6532146,35.6407186 51.9939842,36.0538922 50.2265433,36.0538922 Z M83.4099056,40.3652695 C86.9808578,40.3652695 89.9566513,39.4580838 92.3372861,37.6437126 C94.7179209,35.8293414 96.3050108,33.4131737 97.0985557,30.3952096 L97.0985557,30.3952096 L91.7962327,30.3952096 C91.2551794,32.263473 90.2632481,33.7005989 88.8204392,34.7065868 C87.3776303,35.7125748 85.5741191,36.2155689 83.4099056,36.2155689 C80.5964281,36.2155689 78.324004,35.245509 76.5926333,33.3053892 C74.8612625,31.3652695 73.9955771,28.6167665 73.9955771,25.0598802 C73.9955771,21.5389221 74.8612625,18.8173652 76.5926333,16.8952096 C78.324004,14.9730539 80.5964281,14.011976 83.4099056,14.011976 C85.5741191,14.011976 87.3866478,14.5329341 88.8474919,15.5748503 C90.308336,16.6167665 91.2912495,18.0359281 91.7962327,19.8323353 L91.7962327,19.8323353 L97.0985557,19.8323353 C96.341081,16.7065868 94.7810437,14.263473 92.4184441,12.502994 C90.0558445,10.742515 87.0529983,9.86227545 83.4099056,9.86227545 C80.5964281,9.86227545 78.0985652,10.491018 75.9163166,11.748503 C73.7340679,13.005988 72.0297499,14.7754491 70.8033623,17.0568862 C69.5769747,19.3383234 68.9637809,22.0059881 68.9637809,25.0598802 C68.9637809,28.1497007 69.5769747,30.8443114 70.8033623,33.1437126 C72.0297499,35.4431137 73.7340679,37.2215568 75.9163166,38.4790419 C78.0985652,39.736527 80.5964281,40.3652695 83.4099056,40.3652695 Z" id="doc" fill="#009191"></path>
                    <path d="M113.779791,40.3652695 C116.016144,40.3652695 117.990989,39.9071856 119.704325,38.991018 C121.41766,38.0748503 122.761276,36.9161677 123.735172,35.5149701 L123.735172,35.5149701 L123.735172,39.8802395 L131.364025,39.8802395 L131.364025,10.0239521 L123.735172,10.0239521 L123.735172,14.2814371 C122.725206,12.9161677 121.38159,11.7844311 119.704325,10.8862275 C118.027059,9.98802396 116.07025,9.53892216 113.833896,9.53892216 C111.27291,9.53892216 108.955398,10.1676647 106.88136,11.4251497 C104.807322,12.6826347 103.166127,14.4790419 101.957775,16.8143713 C100.749422,19.1497007 100.145246,21.8263473 100.145246,24.8443114 C100.145246,27.8982035 100.749422,30.6017965 101.957775,32.9550898 C103.166127,35.3083832 104.807322,37.1317365 106.88136,38.4251497 C108.955398,39.7185629 111.254875,40.3652695 113.779791,40.3652695 Z M115.781688,33.7365269 C114.411019,33.7365269 113.121509,33.3772456 111.913156,32.6586826 C110.704804,31.9401197 109.730908,30.9071856 108.991468,29.5598802 C108.252029,28.2125749 107.882309,26.6407186 107.882309,24.8443114 C107.882309,23.0479041 108.252029,21.494012 108.991468,20.1826347 C109.730908,18.8712574 110.695786,17.8742515 111.886104,17.1916168 C113.076421,16.508982 114.374949,16.1676647 115.781688,16.1676647 C117.188427,16.1676647 118.50499,16.5179641 119.731377,17.2185629 C120.957765,17.9191617 121.931661,18.9251496 122.653066,20.2365269 C123.37447,21.5479043 123.735172,23.1197605 123.735172,24.9520958 C123.735172,26.7844311 123.37447,28.3562874 122.653066,29.6676647 C121.931661,30.979042 120.957765,31.9850299 119.731377,32.6856287 C118.50499,33.3862275 117.188427,33.7365269 115.781688,33.7365269 Z M145.231782,39.8802395 L145.231782,25.005988 C145.231782,22.2395209 145.835958,20.2994011 147.044311,19.1856287 C148.252663,18.0718563 150.047157,17.5149701 152.427792,17.5149701 L152.427792,17.5149701 L154.429689,17.5149701 L154.429689,9.59281437 C152.409757,9.59281437 150.615263,10.0419162 149.046208,10.9401198 C147.477154,11.8383233 146.205678,13.0778443 145.231782,14.6586826 L145.231782,14.6586826 L145.231782,10.0239521 L137.657035,10.0239521 L137.657035,39.8802395 L145.231782,39.8802395 Z M165.970917,39.8802395 L165.970917,25.005988 C165.970917,22.2395209 166.575093,20.2994011 167.783446,19.1856287 C168.991799,18.0718563 170.786292,17.5149701 173.166927,17.5149701 L173.166927,17.5149701 L175.168824,17.5149701 L175.168824,9.59281437 C173.148892,9.59281437 171.354398,10.0419162 169.785343,10.9401198 C168.216289,11.8383233 166.944813,13.0778443 165.970917,14.6586826 L165.970917,14.6586826 L165.970917,10.0239521 L158.39617,10.0239521 L158.39617,39.8802395 L165.970917,39.8802395 Z M190.822058,40.3652695 C193.058412,40.3652695 195.033257,39.9071856 196.746592,38.991018 C198.459927,38.0748503 199.803544,36.9161677 200.77744,35.5149701 L200.77744,35.5149701 L200.77744,39.8802395 L208.406292,39.8802395 L208.406292,10.0239521 L200.77744,10.0239521 L200.77744,14.2814371 C199.767474,12.9161677 198.423858,11.7844311 196.746592,10.8862275 C195.069327,9.98802396 193.112518,9.53892216 190.876163,9.53892216 C188.315177,9.53892216 185.997665,10.1676647 183.923627,11.4251497 C181.849589,12.6826347 180.208394,14.4790419 179.000042,16.8143713 C177.791689,19.1497007 177.187513,21.8263473 177.187513,24.8443114 C177.187513,27.8982035 177.791689,30.6017965 179.000042,32.9550898 C180.208394,35.3083832 181.849589,37.1317365 183.923627,38.4251497 C185.997665,39.7185629 188.297143,40.3652695 190.822058,40.3652695 Z M192.823955,33.7365269 C191.453286,33.7365269 190.163777,33.3772456 188.955424,32.6586826 C187.747071,31.9401197 186.773174,30.9071856 186.033736,29.5598802 C185.294296,28.2125749 184.924576,26.6407186 184.924576,24.8443114 C184.924576,23.0479041 185.294296,21.494012 186.033736,20.1826347 C186.773174,18.8712574 187.738054,17.8742515 188.928371,17.1916168 C190.118688,16.508982 191.417216,16.1676647 192.823955,16.1676647 C194.230694,16.1676647 195.547258,16.5179641 196.773645,17.2185629 C198.000032,17.9191617 198.973928,18.9251496 199.695333,20.2365269 C200.416738,21.5479043 200.77744,23.1197605 200.77744,24.9520958 C200.77744,26.7844311 200.416738,28.3562874 199.695333,29.6676647 C198.973928,30.979042 198.000032,31.9850299 196.773645,32.6856287 C195.547258,33.3862275 194.230694,33.7365269 192.823955,33.7365269 Z M224.817,54 L243.37513,10.0239521 L235.313435,10.0239521 L227.468162,30.8802395 L219.731099,10.0239521 L211.236561,10.0239521 L223.247945,39.1257485 L216.755305,54 L224.817,54 Z" id="array" fill="#FFC92A"></path>
                </g>
                <g id="编组-58">
                    <g id="编组-57" fill="#009191" transform="translate(50.000000, 50.000000) scale(-1, 1) translate(-50.000000, -50.000000) ">
                        <path d="M63.9534884,3.87596899 C63.9534884,6.01660756 62.2181579,7.75193799 60.0775194,7.75193799 L50,7.75193799 L50,7.75193799 C27.1313655,7.75193799 8.50650854,25.9217092 7.77429544,48.6123851 L7.75759803,49.3013511 L7.75193799,50 C7.75193799,73.0996308 26.2906292,91.8693183 49.3013511,92.242402 L60.0775197,92.2465648 C62.2184002,92.2473917 63.9534884,93.9831504 63.9534884,96.124031 C63.9534884,98.2646696 62.2181579,100 60.0775194,100 L50,100 L50,100 C22.6619048,100 0.448238098,78.0597142 0.00669857146,50.8268415 L0,50 C0,22.6619048 21.9402858,0.448238098 49.1731585,0.00669857146 L60.0775197,0.00175621543 C62.2171882,0.00175621543 63.9525183,1.73454476 63.9534884,3.87421317 C63.9534884,3.87479845 63.9534884,3.87538371 63.9534884,3.87596899 Z M93.0232559,0 C96.8335924,0 99.9304967,3.05456718 99.9988463,6.84857935 L100,6.97674419 L100,96.124031 C100,98.2283876 98.3229958,99.9410589 96.2325212,99.9985109 L96.124031,100 L79.0697675,100 C76.929129,100 75.1937985,98.2646696 75.1937985,96.124031 C75.1937985,93.9833924 76.929129,92.248062 79.0697675,92.248062 L92.248062,92.248062 L92.248062,92.248062 L92.248062,7.75193799 L79.0697675,7.75193799 C76.929129,7.75193799 75.1937985,6.01660756 75.1937985,3.87596899 C75.1937985,1.73533043 76.929129,0 79.0697675,0 L93.0232559,0 L93.0232559,0 Z" id="形状"></path>
                    </g>
                    <path d="M45.2280279,25.1937985 L45.2963506,25.1957723 C45.906741,25.2311391 46.3908185,25.737333 46.3908185,26.3565891 L46.3910852,45.6802325 L46.3841389,45.6787727 C46.229783,45.6457827 46.0779788,45.6139303 45.9287262,45.5832155 L45.4886229,45.4944838 C45.4165482,45.480264 45.3451113,45.4663286 45.2743124,45.4526775 L44.8571732,45.3741841 C44.7889258,45.3616707 44.7213164,45.3494415 44.6543448,45.3374969 L44.2601699,45.2692417 L44.2601699,45.2692417 L43.8813046,45.2078122 C43.8194362,45.1981426 43.7582057,45.1887576 43.6976129,45.1796568 L43.3417118,45.1284655 L43.3417118,45.1284655 L43.0011203,45.0840996 C42.3352465,45.0021934 41.7612297,44.9612402 41.2790697,44.9612402 L41.0467061,44.9626856 C36.2506683,45.0223649 31.7626026,46.9277869 28.4122415,50.2035303 L28.2267441,50.3872092 L22.3597915,50.3875969 C21.7176192,50.3875969 21.1970201,49.8669978 21.1970201,49.2248063 L21.1970201,26.3565891 C21.1970201,25.7143976 21.7176192,25.1937985 22.3598107,25.1937985 L45.2280279,25.1937985 Z" id="路径备份" fill="#FF455A"></path>
                    <path d="M41.2790697,48.8372092 C43.6064002,48.8372092 45.8059742,49.3842006 47.7562454,50.3566369 L46.8835234,51.8382576 C45.253259,54.6045707 46.1742085,58.1687009 48.9405216,59.7989653 C49.8349423,60.3260721 50.8541906,60.6040659 51.8923764,60.6040659 L55.5507057,60.6040923 C55.7234788,61.5001768 55.8139535,62.4255692 55.8139535,63.372093 C55.8139535,71.3994876 49.3064644,77.9069768 41.2790697,77.9069768 C33.2516751,77.9069768 26.744186,71.3994876 26.744186,63.372093 C26.744186,55.3446983 33.2516751,48.8372092 41.2790697,48.8372092 Z" id="路径备份-2" fill="#009191"></path>
                    <path d="M65.2112749,34.1179113 L76.2145965,53.8461125 C76.3755587,54.1347065 76.4600539,54.4596653 76.4600539,54.7901124 C76.4600539,55.8604317 75.5923887,56.7280969 74.5220694,56.7280969 L51.8923764,56.7280969 C51.5463144,56.7280969 51.2065649,56.6354323 50.9084247,56.4597301 C49.9863205,55.9163087 49.6793373,54.7282651 50.2227587,53.8061609 L61.8491303,34.0779596 C62.0238161,33.7815439 62.2742651,33.5369771 62.574748,33.3693841 C63.5095048,32.8480273 64.6899183,33.1831544 65.2112749,34.1179113 Z" id="路径-73备份" fill="#FFC92A"></path>
                </g>
            </g>
        </g>
    </g>
</svg>