<svg id="Layer_1" data-name="Layer 1" xmlns="http://www.w3.org/2000/svg" viewBox="0 0 414.14 409.67"><defs><style>.cls-1{fill:#fff;}</style></defs><path class="cls-1" d="M395.42,249.25V233.67h-57.3V214.53h57.3V199h-57.3V179.81h57.3V164.23h-57.3V145.09h57.3V129.51h-57.3v-21.3a33,33,0,0,0-33-33H283.84v-57H268.26v57H249.12v-57H233.54v57H214.41v-57H198.83v57H179.69v-57H164.11v57H145v-57H129.39v57h-21.3a33,33,0,0,0-33,33v21.3H17.28v15.58H75.12v19.14H17.28v15.58H75.12V199H17.28v15.58H75.12v19.14H17.28v15.58H75.12v19.13H17.28V284H75.12v21.31a33,33,0,0,0,33,33h21.3v50H145v-50h19.14v50h15.58v-50h19.14v50h15.58v-50h19.13v50h15.58v-50h19.14v50h15.58v-50h21.31a33,33,0,0,0,33-33V284h57.3V268.38h-57.3V249.25Zm-77.3,56a13,13,0,0,1-13,13H108.09a13,13,0,0,1-13-13V108.21a13,13,0,0,1,13-13H305.15a13,13,0,0,1,13,13Z"/><path class="cls-1" d="M126.61,178.45q-4,2.34-14.31,3.34v7.26H130v53.33h10.09v-75h-7.46Q130.65,176.11,126.61,178.45Z"/><path class="cls-1" d="M199,230.44l-22.21-65.32h-15v77.26h10v-45.6q0-2.73-.16-8.55t-.16-8.65v-2.36l22.27,65.16h10.37l22.06-65.16q0,6.25-.11,11.72t-.1,7.84v45.6h10V165.12H221Z"/><polygon class="cls-1" points="262.22 165.12 251.75 165.12 251.75 242.38 300.98 242.38 300.98 233.18 262.22 233.18 262.22 165.12"/></svg>