<svg id="レイヤー_1" data-name="レイヤー 1" xmlns="http://www.w3.org/2000/svg" viewBox="0 0 922.29999 1225.16689"><defs><style>.cls-1{fill:none;}.cls-2{fill:#333;}.cls-3{fill:#666;}.cls-4{opacity:0.6;}.cls-5{opacity:0.4;}.cls-6{opacity:0.9;}</style></defs><title>lfdl-landscape-stacked-black</title><path class="cls-1" d="M633.22157,963.31717a10.4428,10.4428,0,0,0,3.34417-8.19569,11.11985,11.11985,0,0,0-3.088-8.40494q-3.088-2.9708-9.21722-3.06459H611.86262V966.312h12.072Q629.878,966.312,633.22157,963.31717Z"/><path class="cls-1" d="M618.34293,1137.7867a14.16629,14.16629,0,0,0,4.87978,11.44311,18.74727,18.74727,0,0,0,12.53735,4.1234,27.36136,27.36136,0,0,0,13.883-3.7867,22.91746,22.91746,0,0,0,9.50823-9.84373V1121.043H646.95061Q618.34112,1121.043,618.34293,1137.7867Z"/><path class="cls-1" d="M365.162,1085.70363q-11.44488,0-17.838,8.83482-6.39615,8.83483-6.39494,26.16782,0,15.48353,6.39494,24.233a20.66772,20.66772,0,0,0,17.66966,8.75073q14.80709,0,21.6235-13.29493v-41.81727Q379.633,1085.70427,365.162,1085.70363Z"/><path class="cls-1" d="M382.56717,964.29241q3.29733-2.94825,3.29731-8.521a11.69625,11.69625,0,0,0-3.343-8.75306,12.89425,12.89425,0,0,0-9.19438-3.36642h-14.441v23.589h14.11624Q379.27046,967.241,382.56717,964.29241Z"/><polygon class="cls-1" points="551.776 976.574 571.372 976.574 561.574 948.528 551.776 976.574"/><path class="cls-1" d="M831.64025,1085.28279a20.76622,20.76622,0,0,0-15.819,6.8579q-6.39433,6.85791-7.9089,19.2257h45.604v-1.17725q-.67461-11.86515-6.39494-18.38515Q841.39976,1085.28521,831.64025,1085.28279Z"/><path class="cls-1" d="M197.432,943.652h-8.21914v48.66368h7.66178q9.23978,0,14.186-5.77019,4.945-5.7702,5.03791-16.56877V966.223q0-10.98309-4.78238-16.77739Q206.53255,943.652,197.432,943.652Z"/><path class="cls-1" d="M153.2945,1137.7867a14.1668,14.1668,0,0,0,4.88038,11.44311,18.74663,18.74663,0,0,0,12.53675,4.1234,27.3603,27.3603,0,0,0,13.88356-3.7867,22.90938,22.90938,0,0,0,9.50763-9.84373V1121.043H181.90277Q153.2942,1121.043,153.2945,1137.7867Z"/><path class="cls-1" d="M735.88692,1085.70363q-14.13429,0-21.20263,12.53735v43.50073q6.98236,12.45318,21.371,12.45318a21.04068,21.04068,0,0,0,17.79592-8.87693q6.60537-8.87633,6.60538-26.37823,0-15.39869-6.56329-24.31706A21.14332,21.14332,0,0,0,735.88692,1085.70363Z"/><polygon class="cls-2" points="92.536 992.315 61.842 992.315 61.842 934.18 50.094 934.18 50.094 1001.788 92.536 1001.788 92.536 992.315"/><polygon class="cls-2" points="113.291 973.231 140.502 973.231 140.502 963.758 113.291 963.758 113.291 943.651 144.497 943.651 144.497 934.18 101.544 934.18 101.544 1001.788 113.291 1001.788 113.291 973.231"/><path class="cls-2" d="M213.33573,938.17273a31.32511,31.32511,0,0,0-15.90377-3.99354h-19.967v67.60922h19.456A32.76578,32.76578,0,0,0,213.15,997.84119a26.8943,26.8943,0,0,0,10.91216-11.23684,35.81307,35.81307,0,0,0,3.83119-16.90245V966.312a35.97357,35.97357,0,0,0-3.80774-16.80927A27.23751,27.23751,0,0,0,213.33573,938.17273Zm2.76273,31.80393q-.09289,10.79911-5.03791,16.56877-4.945,5.77018-14.186,5.77019h-7.66178V943.65194h8.21914q9.1,0,13.88416,5.79369,4.78177,5.79369,4.78238,16.7774Z"/><polygon class="cls-2" points="283.8 992.315 251.343 992.315 251.343 971.606 279.11 971.606 279.11 962.319 251.343 962.319 251.343 943.651 283.475 943.651 283.475 934.18 239.594 934.18 239.594 1001.788 283.8 1001.788 283.8 992.315"/><polygon class="cls-2" points="337.572 992.315 305.114 992.315 305.114 971.606 332.881 971.606 332.881 962.319 305.114 962.319 305.114 943.651 337.247 943.651 337.247 934.18 293.366 934.18 293.366 1001.788 337.572 1001.788 337.572 992.315"/><path class="cls-2" d="M358.88614,976.71371h13.97675q11.7461,0,18.27211-5.53153,6.52241-5.53213,6.52361-15.48049a19.85255,19.85255,0,0,0-6.6631-15.61883q-6.66491-5.9028-17.99313-5.90372H347.13763v67.60927h11.74851Zm0-33.06176h14.44092a12.89428,12.89428,0,0,1,9.19438,3.36643,11.69629,11.69629,0,0,1,3.343,8.75305q0,5.57272-3.29728,8.521-3.29727,2.94912-9.56475,2.94855H358.88614Z"/><polygon class="cls-2" points="474.043 992.315 443.35 992.315 443.35 934.18 431.602 934.18 431.602 1001.788 474.043 1001.788 474.043 992.315"/><polygon class="cls-2" points="527.258 992.315 494.8 992.315 494.8 971.606 522.568 971.606 522.568 962.319 494.8 962.319 494.8 943.651 526.933 943.651 526.933 934.18 483.052 934.18 483.052 1001.788 527.258 1001.788 527.258 992.315"/><path class="cls-2" d="M556.326,934.17919l-25.53887,67.60922h12.21275l5.47863-15.74143h26.18943l5.52552,15.74143H592.453l-25.58584-67.60922Zm-4.55029,42.395,9.798-28.0467,9.798,28.0467Z"/><path class="cls-2" d="M611.86262,975.78478h13.09411l13.55948,26.00363h12.583v-.60305l-15.18407-28.15372a20.83145,20.83145,0,0,0,9.12463-7.0407,19.03285,19.03285,0,0,0,3.27323-11.36307q0-9.945-6.36127-15.1973-6.36188-5.25075-18.06288-5.25136H600.11411v67.6092h11.74851Zm0-32.13283h12.39786q6.12918.09379,9.21722,3.06459a11.11985,11.11985,0,0,1,3.088,8.40494,10.4428,10.4428,0,0,1-3.34417,8.19569q-3.34238,2.99515-9.287,2.99485h-12.072Z"/><polygon class="cls-2" points="671.206 953.821 701.343 1001.788 713.09 1001.788 713.09 934.18 701.435 934.18 701.435 982.332 671.206 934.18 659.458 934.18 659.458 1001.788 671.206 1001.788 671.206 953.821"/><rect class="cls-2" x="727.67018" y="934.17919" width="11.70161" height="67.60923"/><polygon class="cls-2" points="765.562 953.821 795.699 1001.788 807.446 1001.788 807.446 934.18 795.791 934.18 795.791 982.332 765.562 934.18 753.814 934.18 753.814 1001.788 765.562 1001.788 765.562 953.821"/><path class="cls-2" d="M847.51937,967.10147v8.91539h13.92985v13.16333q-3.80774,4.06475-12.81513,4.06447a15.2482,15.2482,0,0,1-12.83918-6.04321q-4.62123-6.04259-4.62124-16.97219v-5.18589q.1407-10.975,4.24967-16.64687,4.109-5.67283,12.00336-5.67283,12.21147,0,14.16194,12.21207h11.51642q-1.34741-10.49338-7.98706-16.08956-6.64145-5.59528-17.92338-5.59527-13.14222,0-20.47872,8.61356-7.3359,8.61389-7.3365,23.93714V971.095a38.5806,38.5806,0,0,0,3.6917,16.73952A25.66733,25.66733,0,0,0,833.171,998.86337a29.0939,29.0939,0,0,0,15.04459,3.854,41.49555,41.49555,0,0,0,14.7668-2.4615,22.46571,22.46571,0,0,0,10.16841-7.24332V967.10147Z"/><polygon class="cls-3" points="66.293 1042.708 50.053 1042.708 50.053 1165.217 124.35 1165.217 124.35 1152.008 66.293 1152.008 66.293 1042.708"/><path class="cls-3" d="M209.66929,1102.02771q-.3373-13.79879-9.25571-21.6668-8.9196-7.8662-24.65322-7.86681a44.16293,44.16293,0,0,0-18.2168,3.70132,33.03277,33.03277,0,0,0-13.126,10.05535,21.47913,21.47913,0,0,0-4.83829,13.16746H155.23q0-5.97225,5.63736-10.18043a22.6982,22.6982,0,0,1,13.96713-4.2076q9.50763,0,14.38862,4.8389,4.87827,4.8395,4.87977,12.99913v7.15252h-15.145q-19.6069,0-30.41745,7.86681-10.81266,7.868-10.81175,22.08767a24.63183,24.63183,0,0,0,8.62439,19.30988q8.62379,7.61549,22.08707,7.61428a34.726,34.726,0,0,0,25.91525-11.27472q.84055,6.90117,2.188,9.59236h16.32281v-1.34681q-3.19807-7.40265-3.19687-19.9412Zm-15.56647,37.695a22.90933,22.90933,0,0,1-9.50763,9.84373,27.3602,27.3602,0,0,1-13.88356,3.7867,18.74663,18.74663,0,0,1-12.53675-4.1234,14.16678,14.16678,0,0,1-4.88038-11.44311q0-16.74255,28.60827-16.74372h12.20005Z"/><path class="cls-3" d="M276.56122,1072.49411a33.17227,33.17227,0,0,0-27.26147,13.12538l-.505-11.44311H234.07v91.0407h15.56587V1100.3442a27.422,27.422,0,0,1,8.919-10.60131,22.46753,22.46753,0,0,1,13.29433-4.03923q9.33987,0,13.75729,4.71263,4.41743,4.71324,4.50159,14.55637v60.24446h15.56587v-60.16029Q305.42141,1072.49348,276.56122,1072.49411Z"/><path class="cls-3" d="M386.61718,1083.43212q-9.33989-10.938-25.326-10.938a31.39548,31.39548,0,0,0-25.99943,12.7466q-9.92971,12.74714-9.92911,33.69909v1.17726q0,20.86953,9.9712,33.82535,9.97119,12.95826,25.789,12.957,16.65956,0,25.99943-11.44311l.75758,9.76074h14.30384V1035.97634H386.61718Zm0,56.96282q-6.81462,13.29732-21.6235,13.295a20.66769,20.66769,0,0,1-17.66966-8.75065q-6.39615-8.75011-6.39494-24.233,0-17.33235,6.39494-26.16782,6.39253-8.83484,17.838-8.83483,14.46978,0,21.45515,12.874Z"/><path class="cls-3" d="M480.687,1118.85561a84.01621,84.01621,0,0,0-18.889-6.22658q-11.65591-2.60642-16.11361-5.469a9.4392,9.4392,0,0,1-4.4589-8.49813,11.65408,11.65408,0,0,1,4.7956-9.67658q4.79621-3.70132,13.29493-3.70252a20.33911,20.33911,0,0,1,13.67252,4.62843,14.052,14.052,0,0,1,5.42692,11.02221h15.65072a25.39116,25.39116,0,0,0-9.6345-20.44626q-9.63569-7.99245-25.11558-7.99307-14.72592,0-24.19086,7.74056-9.46616,7.74171-9.46615,18.93229a20.12145,20.12145,0,0,0,3.32373,11.61142,26.68953,26.68953,0,0,0,10.26582,8.414,78.39442,78.39442,0,0,0,18.76273,6.05823q11.82006,2.52346,16.57658,6.01615a11.46323,11.46323,0,0,1,4.75352,9.8017,10.989,10.989,0,0,1-5.34275,9.55032q-5.34454,3.57687-14.17757,3.57626-9.59241,0-15.44021-4.58636a16.10984,16.10984,0,0,1-6.26867-12.40989H422.5458a26.05305,26.05305,0,0,0,4.75472,15.01813,31.45677,31.45677,0,0,0,13.16746,10.813,45.85642,45.85642,0,0,0,19.35317,3.86967q15.56466,0,25.326-7.36175a23.29836,23.29836,0,0,0,9.76076-19.56241,21.42113,21.42113,0,0,0-3.49209-12.41108A27.55933,27.55933,0,0,0,480.687,1118.85561Z"/><path class="cls-3" d="M533.233,1093.823q6.51891-8.539,18.38515-8.54021a20.80928,20.80928,0,0,1,14.84978,5.67944,21.45842,21.45842,0,0,1,6.68955,14.51428H587.8822q-.67461-14.63934-10.81176-23.81087-10.14075-9.17034-25.45229-9.17154a39.79406,39.79406,0,0,0-21.58262,5.72154,37.162,37.162,0,0,0-14.00922,16.07032,54.80522,54.80522,0,0,0-4.881,23.64372v2.60824q0,21.54054,10.98138,33.95162,10.97951,12.41172,29.57569,12.40989a38.25234,38.25234,0,0,0,17.5434-4.20636,35.47926,35.47926,0,0,0,13.25164-11.27471,28.24087,28.24087,0,0,0,5.38476-14.89307H573.15748a17.76464,17.76464,0,0,1-6.89879,12.62029,22.42405,22.42405,0,0,1-14.55636,5.04933q-12.03471,0-18.51141-8.49813-6.48093-8.49751-6.47912-24.23294v-2.94495Q526.7118,1102.3644,533.233,1093.823Z"/><path class="cls-3" d="M674.71652,1102.02771q-.3373-13.79879-9.2557-21.6668-8.91962-7.8662-24.65263-7.86681a44.163,44.163,0,0,0-18.2168,3.70132,33.02239,33.02239,0,0,0-13.12537,10.05535,21.48016,21.48016,0,0,0-4.8389,13.16746h15.65072q0-5.97225,5.63736-10.18043a22.69951,22.69951,0,0,1,13.96714-4.2076q9.50763,0,14.388,4.8389,4.87917,4.8395,4.881,12.99913v7.15252H644.00566q-19.60689,0-30.41744,7.86681-10.81176,7.868-10.81176,22.08767a24.63209,24.63209,0,0,0,8.62439,19.30988q8.62378,7.61549,22.08647,7.61428a34.72855,34.72855,0,0,0,25.91646-11.27472q.83875,6.90117,2.18736,9.59236H677.914v-1.34681q-3.19808-7.40265-3.19747-19.9412Zm-15.56527,37.695a22.91746,22.91746,0,0,1-9.50823,9.84373,27.36126,27.36126,0,0,1-13.883,3.7867,18.74717,18.74717,0,0,1-12.53735-4.1234,14.16629,14.16629,0,0,1-4.87978-11.44311q0-16.74255,28.60768-16.74372h12.20064Z"/><path class="cls-3" d="M740.51537,1072.49411q-16.91208,0-26.42031,11.77977l-.75758-10.09747H699.11782v126.04332h15.56647v-43.83744q9.50583,10.5196,26.08361,10.51712,16.23747,0,25.7469-12.70452,9.50763-12.70391,9.50824-33.48865v-1.42979q0-22.04378-9.55033-34.41458Q756.92179,1072.49351,740.51537,1072.49411Zm13.33582,72.8239a21.04069,21.04069,0,0,1-17.79592,8.87694q-14.38681,0-21.371-12.45318V1098.241q7.06714-12.53617,21.20263-12.53738a21.14338,21.14338,0,0,1,18.00628,8.919q6.5639,8.9196,6.56329,24.31707Q760.45661,1136.44172,753.85119,1145.318Z"/><path class="cls-3" d="M831.64025,1072.49411a36.38285,36.38285,0,0,0-20.15164,6.01616,40.35106,40.35106,0,0,0-14.47218,16.65954,54.63522,54.63522,0,0,0-5.17568,24.1908v2.86077q0,20.36269,11.61142,32.52063,11.61262,12.1592,30.12284,12.15736,22.88613,0,34.3292-17.58548l-9.507-7.40384a35.07582,35.07582,0,0,1-10.01328,8.919,27.11342,27.11342,0,0,1-13.96714,3.36582,24.728,24.728,0,0,1-19.14273-8.28769q-7.53071-8.28645-7.86681-21.751h61.67545v-6.47911q0-21.79125-9.84493-33.48745Q849.39471,1072.49412,831.64025,1072.49411Zm21.8761,38.87228h-45.604q1.51517-12.3684,7.9089-19.2257a20.76622,20.76622,0,0,1,15.819-6.8579q9.75835,0,15.48109,6.52118,5.72153,6.5224,6.39494,18.38515Z"/><path class="cls-4" d="M626.6211,751.99411H752.83424v-110.214c-44.70933-32.031-89.01491-64.09944-132.88974-97.00549-13.37726-10.14828-23.52561-10.60959-36.90288.46128-24.90942,20.75791-51.20278,39.67059-76.57351,59.96722-10.60959,8.30316-18.45144,8.30316-28.13844-1.84512-46.1286-46.58992-93.64129-92.2572-139.3084-139.30836-11.53215-11.99343-19.83531-11.99343-32.29-1.84516-46.65309,38.345-93.53318,76.24646-140.47543,114.166V751.99411H543.05841v115.0774h83.56276V751.99411Z"/><path class="cls-5" d="M573.35438,421.61137a93.18261,93.18261,0,1,0-94.10233-93.17977A93.9312,93.9312,0,0,0,573.35438,421.61137Z"/><polygon class="cls-6" points="543.057 751.994 166.256 751.994 166.256 576.373 166.256 398.077 166.256 375.1 80.927 375.1 43.678 375.1 43.678 491.464 43.678 809.092 43.678 867.071 543.057 867.071 543.057 809.092 543.057 751.994"/><polygon points="43.678 75.605 43.678 228.651 43.678 291.386 80.844 291.386 109.102 291.386 166.02 291.386 166.02 165.759 752.836 165.759 752.836 641.779 752.836 751.994 626.619 751.994 626.619 809.092 626.619 867.071 798.015 867.071 822.652 867.071 877.065 867.071 877.065 40.732 798.015 40.732 43.678 40.732 43.678 68.266 43.678 75.605"/></svg>