<?xml version="1.0" encoding="UTF-8"?><svg id="a" xmlns="http://www.w3.org/2000/svg" viewBox="0 0 864 864"><defs><style>.b{fill:#0190f4;}.c{fill:#0135d6;}.d{fill:#02cdd7;}</style></defs><path class="b" d="M214.82544,617.08314h0c-19.3-5.19995-19.39999-5.69995-12.10001-24.90002,24.39999-63.90002,60.59999-120.19995,106.7-170.80005,61.5-67.40002,135.30002-115.59998,221.19998-145.30005,48.40002-16.69995,98.40002-26,149.59998-29.59998,11.20001-.80005,14.40002,2.09998,11.59998,13.40002-6.40002,26.59998-7.70001,54.30005-17,80.40002,.79999,.19995,1.5,.40002,2.29999,.5h0c21.29999-4.69995,42.90002-5.80005,64.59998-6,8.79999-.09998,12.59998-2.59998,14.59998-11.90002,12.09998-57.59998,25.20001-115,37.90002-172.5,8.20001-37.09998,16.40002-74.19995,24.79999-112.40002-4.29999,.90002-7,1.19995-9.59998,2-86.40002,25.40002-170.59998,56.30005-250.5,98.09998-105,55.09998-198.39999,124.30005-269.10001,221-53.2,72.69995-87.5,153.19995-96.8,243.30005-1.10001,10.69995-6.3,7.5-11.8,6.09998-42-10.69995-83.1-24.19995-124-38.40002-7.4-2.59998-10.4-2-12.6,5.80005-8.9,31-12.1,62.19995-5.1,94.09998,18.1,82.30005,94.59999,147.40002,182.89999,157.59998,83.40001,9.69995,165.8,4.5,247.7-12.69995,121.30002-25.5,233.39999-73.59998,337.99997-139.5,2.59998-1.59998,6.09998-2.59998,6.20001-3.59998-29.20001,0-58.59998-.5-87.90002,.09998-121.20001,2.30005-241.70001-6.30005-361.39999-25.19995-45.5-7.19995-90.89999-15.09998-135.5-27.09998h0c-4.89984-.80005-9.79985-1.70007-14.69984-2.5h0Z"/><path class="d" d="M631.42546,489.28309c18.40002,2.90002,18,3.59998,21.5-15.59998,7.90002-44.40002,16.20001-88.69995,24.29999-133h0c-.79999-.09998-1.5-.30005-2.29999-.5h-.29999c-61.79999,7.30005-121.40002,23.5-179.20001,46.19995-77.70001,30.5-146.89999,74.40002-205.70001,133.59998-27.89999,28.09998-52.60001,59-72.7,93.40002-.7,1.19995-1.39999,2.30005-2.10001,3.5,4.89999,.90002,9.8,1.69995,14.7,2.59998h0c1.10001-1.5,2-3.09998,3.3-4.40002,110.99998-110.59998,244.7-149.99988,398.50002-125.79993h0Z"/><path class="c" d="M680.22545,246.48304c-51.09998,3.59998-101.20001,12.90002-149.60004,29.59998-86,29.69995-159.79999,77.90002-221.20001,145.30005-46.10001,50.59998-82.3,106.90002-106.7,170.80005-7.3,19.19995-7.2,19.69995,12.10001,24.90002h0c.7-1.19995,1.39999-2.30005,2.10001-3.5,20-34.40002,44.7-65.30005,72.7-93.40002,58.79999-59.19995,128.10001-103.09998,205.70001-133.59998,57.79999-22.69995,117.40002-38.90002,179.20001-46.19995h.29999c9.29999-26,10.59998-53.80005,17-80.40002,2.79999-11.40002-.39996-14.30005-11.59998-13.50012h0Z"/></svg>