<?xml version="1.0" encoding="UTF-8"?><svg id="Layer_1" xmlns="http://www.w3.org/2000/svg" viewBox="0 0 1023 311"><defs><style>.cls-1{fill:none;}.cls-2{fill:#fff;}</style></defs><polygon class="cls-1" points="367.7002 170.42773 397.25879 170.42773 382.54053 124.021 367.7002 170.42773"/><path class="cls-1" d="m824.70728,169.87988c-3.24438.56836-6.02148,1.58105-8.33301,3.0415-1.86572,1.17627-3.33545,2.625-4.40942,4.34814-1.0752,1.72363-1.61108,3.80078-1.61108,6.23438,0,1.98633.40454,3.77051,1.21631,5.35156.80981,1.58105,1.90527,2.91943,3.28394,4.01465,1.37793,1.13525,3.01025,1.99756,4.89624,2.58496,1.88477.58789,3.88208.88135,5.99048.88135,2.55444.0415,4.98682-.25244,7.29858-.88135,2.31177-.62793,4.44043-1.51074,6.38623-2.64551,1.9458-1.13525,3.66919-2.49365,5.16992-4.07568,1.49976-1.58105,2.71606-3.34521,3.64893-5.29102v-14.4751h-13.25928c-3.60913.04053-7.03442.34521-10.27783.91211Z"/><rect class="cls-1" x="215.15955" y="116.95703" width="22.97107" height="22.9707"/><path class="cls-1" d="m691.69214,144.5791c-1.5415-1.13525-3.25415-2.01758-5.13989-2.64648-1.88501-.62793-3.92285-.94238-6.1123-.94238-3.85205,0-7.07642.8418-9.67041,2.52441-2.59521,1.68262-4.66284,3.82227-6.20337,6.41602-1.54138,2.55469-2.64526,5.41309-3.31494,8.57617-.66858,3.16211-1.00342,6.36572-1.00342,9.60938v1.27686c.03955,3.3667.4353,6.72119,1.18628,10.06641.74988,3.34473,1.95557,6.2749,3.6189,8.78857,1.49976,2.47314,3.52686,4.46094,6.0813,5.95947,2.55444,1.50098,5.61621,2.25049,9.18457,2.25049,2.06787,0,4.04468-.27344,5.92944-.82031,1.88599-.54785,3.6394-1.32764,5.26099-2.3418,1.54028-1.0127,2.92871-2.23975,4.1665-3.67969,1.23657-1.43848,2.21973-3.07129,2.94922-4.896v-30.95752c-.72949-1.90527-1.68262-3.62891-2.8584-5.16992-1.17651-1.54053-2.53418-2.87891-4.07446-4.01367Z"/><path class="cls-1" d="m152.75537,25.8584c-71.14258,0-129.02075,57.87939-129.02075,129.02197s57.87817,129.021,129.02075,129.021,129.02197-57.87842,129.02197-129.021S223.89807,25.8584,152.75537,25.8584Zm-66.20728,204.93457h-8.3761v-22.2417h8.3761v22.2417Zm14.86597,0h-8.37622v-11.96582h8.37622v11.96582Zm13.85205,0h-8.37598v-34.20752h8.37598v34.20752Zm16.7522-63.0376v63.0376h-8.3761v-63.0376h-29.91174v15.29834h-39.87378v-39.875h39.87378v16.2002h38.28784v8.37646Zm17.25916-61.46826v124.50586h-8.3761v-124.27539c-10.16968-1.71729-17.94824-10.56299-17.94824-21.21484,0-11.87598,9.66162-21.5376,21.5376-21.5376,11.8772,0,21.53882,9.66162,21.53882,21.5376,0,10.23047-7.17456,18.79932-16.75208,20.98438Zm34.70081,124.50586h-8.3761v-25.12842h8.3761v25.12842Zm14.35913,0h-8.37622v-19.14551h8.37622v19.14551Zm14.35889,0h-8.3761v-29.91455h8.3761v29.91455Zm13.16235,0h-8.37598v-17.94873h8.37598v17.94873Zm21.03516-82.10205h-40.49731v-14.95654h-39.17041v97.05859h-8.37598v-105.43506h47.54639v-17.16455h40.49731v40.49756Z"/><path class="cls-1" d="m144.49072,73.33691c-6.5979,0-11.96582,5.36768-11.96582,11.96582s5.36792,11.9668,11.96582,11.9668,11.96704-5.36865,11.96704-11.9668-5.36902-11.96582-11.96704-11.96582Z"/><rect class="cls-1" x="62.61987" y="151.94189" width="22.34741" height="22.34863"/><path class="cls-1" d="m920.0127,148.65332c-1.66235-2.26953-3.73096-4.11475-6.20312-5.53467-2.47437-1.41846-5.47388-2.12842-9.00171-2.12842-2.06787,0-4.02441.29395-5.86963.88135-1.84521.58838-3.5376,1.40967-5.07788,2.46338-1.58105,1.0957-2.9707,2.40283-4.1665,3.92285-1.19604,1.521-2.18018,3.23486-2.94922,5.14014v32.05176c.72949,1.70312,1.70288,3.24463,2.91919,4.62207,1.21631,1.37891,2.57373,2.53564,4.07446,3.46729,1.62183.97314,3.38574,1.73291,5.29199,2.28027,1.90527.54785,3.87134.82178,5.89941.82178,3.60815,0,6.67944-.77002,9.2146-2.31152,2.53296-1.54053,4.61157-3.54736,6.23315-6.02148,1.66235-2.55469,2.86816-5.49316,3.6189-8.81885.75-3.32373,1.14575-6.68994,1.18628-10.09619v-1.27686c0-3.48633-.41602-6.93408-1.24707-10.33984-.8313-3.40625-2.13843-6.44629-3.92285-9.12305Z"/><path class="cls-2" d="m152.75537,16C76.17749,16,13.87598,78.30127,13.87598,154.88037s62.30151,138.87939,138.87939,138.87939,138.88037-62.30127,138.88037-138.87939S229.33435,16,152.75537,16Zm0,267.90137c-71.14258,0-129.02075-57.87842-129.02075-129.021S81.61279,25.8584,152.75537,25.8584s129.02197,57.87939,129.02197,129.02197-57.87927,129.021-129.02197,129.021Z"/><path class="cls-2" d="m166.02954,85.30273c0-11.87598-9.66162-21.5376-21.53882-21.5376-11.87598,0-21.5376,9.66162-21.5376,21.5376,0,10.65186,7.77856,19.49756,17.94824,21.21484v124.27539h8.3761v-124.50586c9.57751-2.18506,16.75208-10.75391,16.75208-20.98438Zm-21.53882,11.9668c-6.5979,0-11.96582-5.36865-11.96582-11.9668s5.36792-11.96582,11.96582-11.96582,11.96704,5.36768,11.96704,11.96582-5.36902,11.9668-11.96704,11.9668Z"/><rect class="cls-2" x="175.60217" y="205.66455" width="8.3761" height="25.12842"/><rect class="cls-2" x="189.96118" y="211.64746" width="8.37622" height="19.14551"/><rect class="cls-2" x="204.32019" y="200.87842" width="8.3761" height="29.91455"/><rect class="cls-2" x="217.48267" y="212.84424" width="8.37598" height="17.94873"/><rect class="cls-2" x="106.89014" y="196.58545" width="8.37598" height="34.20752"/><rect class="cls-2" x="93.03784" y="218.82715" width="8.37622" height="11.96582"/><rect class="cls-2" x="78.172" y="208.55127" width="8.3761" height="22.2417"/><path class="cls-2" d="m93.73047,159.37891v-16.2002h-39.87378v39.875h39.87378v-15.29834h29.91174v63.0376h8.3761v-71.41406h-38.28784Zm-8.76318,14.91162h-22.34741v-22.34863h22.34741v22.34863Z"/><path class="cls-2" d="m206.39648,125.35791h-47.54639v105.43506h8.37598v-97.05859h39.17041v14.95654h40.49731v-40.49756h-40.49731v17.16455Zm8.76306-8.40088h22.97107v22.9707h-22.97107v-22.9707Z"/><path class="cls-2" d="m379.25635,113.07373l-28.76892,88.5542h7.29871l7.84644-24.69336h33.63293l7.84631,24.69336h7.29883l-28.58618-88.5542h-6.56812Zm-11.55615,57.354l14.84033-46.40674,14.71826,46.40674h-29.55859Z"/><path class="cls-2" d="m474.31909,134.604c-5.96045-.03955-11.15186,1.20654-15.5708,3.74072-4.42017,2.53418-7.90637,6.05127-10.46082,10.55176v-2.91943l-.42578-10.15674h-6.93396v65.80762h7.48169l-.06104-42.08789c.81091-3.04102,1.97681-5.66504,3.49695-7.87646,1.52112-2.20898,3.31506-4.04443,5.38281-5.50342,2.14905-1.5,4.57092-2.60498,7.2677-3.31494,2.69678-.70947,5.58496-1.06445,8.66675-1.06445,1.78442,0,3.52808.10156,5.23096.30371,1.70312.2041,3.38464.48682,5.0481.85156l.97339-7.05469c-1.25806-.40479-2.80798-.71924-4.65332-.94287-1.84521-.22217-3.65942-.33447-5.44263-.33447Z"/><path class="cls-2" d="m553.65894,195.57666c-.83118.14258-1.67188.27393-2.52344.39502-1.13599.12158-2.29126.23389-3.46704.33447-1.17664.10156-2.35229.15186-3.52783.15186-1.98657,0-3.85205-.22217-5.5957-.66846-1.74365-.4458-3.26367-1.1958-4.56128-2.25049-1.29761-1.01318-2.31055-2.37158-3.04126-4.07471-.72949-1.70312-1.11572-3.83154-1.15527-6.38623v-41.23633h24.38965v-6.02148h-24.38965v-16.84717h-7.35962v16.84717h-18.30615v6.02148h18.30615v41.23633c.04065,3.60938.57861,6.66992,1.61206,9.18359,1.03442,2.51465,2.46362,4.54199,4.28857,6.08252,1.82373,1.58105,3.98352,2.72656,6.47705,3.43604,2.49353.70898,5.19995,1.06396,8.11914,1.06396,1.41846,0,2.84863-.04053,4.28748-.12158,1.43982-.08154,2.82825-.24316,4.1665-.48584,1.05371-.1626,2.05823-.36572,3.01135-.60889.9519-.24268,1.79382-.54736,2.52344-.91211l-1.09436-5.53467c-.60876.12158-1.32861.25342-2.15979.39551Z"/><path class="cls-2" d="m608.61035,123.16992c1.90625,0,3.30444-.52637,4.19751-1.58105.89111-1.05371,1.33716-2.31201,1.33716-3.771,0-.81104-.12085-1.56055-.36475-2.25049-.2428-.68896-.60754-1.27734-1.09424-1.76416-.44727-.48682-1.00342-.86084-1.6731-1.12549-.66858-.26318-1.46973-.39453-2.40259-.39453s-1.74365.13135-2.4325.39453c-.69006.26465-1.25696.63867-1.703,1.12549-.48682.52734-.83118,1.13623-1.03345,1.82471-.20312.69043-.30481,1.41992-.30481,2.18994,0,1.45898.42578,2.71729,1.27722,3.771.85156,1.05469,2.25073,1.58105,4.19653,1.58105Z"/><polygon class="cls-2" points="612.50305 135.82031 581.97119 135.82031 581.97119 142.32812 605.26538 142.32812 605.26538 195.12012 581.97119 195.12012 581.97119 201.62793 634.88586 201.62793 634.88586 195.12012 612.50305 195.12012 612.50305 135.82031"/><path class="cls-2" d="m698.8689,145.06445c-.93286-1.41797-1.99731-2.71582-3.19312-3.8916-1.19702-1.17529-2.50415-2.20996-3.92261-3.10205-1.7854-1.13477-3.74097-1.99707-5.86963-2.58545-2.12866-.5874-4.38892-.88135-6.78101-.88135-4.58252,0-8.52563.98389-11.82983,2.9502-3.30542,1.96729-6.01196,4.51123-8.11914,7.63232-2.10962,3.12256-3.67029,6.65039-4.68335,10.58301-1.01404,3.93311-1.52112,8.04932-1.52112,12.34668v1.27686c0,4.29834.54773,8.50537,1.64197,12.62061,1.09546,4.11523,2.7771,7.71484,5.0481,10.7959,2.14905,3.04102,4.82544,5.47363,8.02832,7.29834,3.20264,1.82422,6.97339,2.73633,11.31323,2.73633,2.1897,0,4.30786-.24268,6.35522-.72949s3.96338-1.1958,5.74756-2.12842c1.49976-.81104,2.88916-1.75342,4.1665-2.82861,1.27734-1.07373,2.40259-2.30078,3.375-3.67969v7.23779c0,3.12109-.4353,5.96973-1.30713,8.54492-.87183,2.57471-2.11914,4.7749-3.74072,6.59912-1.70312,1.82471-3.76123,3.24316-6.17334,4.25732-2.41235,1.01318-5.17969,1.521-8.30127,1.521-1.9873,0-3.88306-.25342-5.6875-.76025-1.80469-.50732-3.5376-1.22705-5.19995-2.15869-1.33813-.77148-2.63574-1.70312-3.89282-2.79834-1.25684-1.09473-2.47314-2.35156-3.64868-3.771l-4.07458,4.50146c1.29651,1.74268,2.78662,3.27344,4.47034,4.59131,1.68164,1.31787,3.43604,2.42285,5.26074,3.31494,2.10742,1.09424,4.29712,1.91602,6.56812,2.46338,2.27002.54688,4.50146.8208,6.69019.8208,4.0542,0,7.69434-.66895,10.91748-2.00684,3.22412-1.33838,5.99048-3.22314,8.302-5.65674,2.27002-2.39307,4.02319-5.26123,5.26099-8.60596,1.23657-3.34521,1.85498-7.04492,1.85498-11.09961v-64.65234h-6.75122l-.30371,9.24414Zm-.2439,39.65576c-.72949,1.82471-1.71265,3.45752-2.94922,4.896-1.23779,1.43994-2.62622,2.66699-4.1665,3.67969-1.62158,1.01416-3.375,1.79395-5.26099,2.3418-1.88477.54688-3.86157.82031-5.92944.82031-3.56836,0-6.63013-.74951-9.18457-2.25049-2.55444-1.49854-4.58154-3.48633-6.0813-5.95947-1.66333-2.51367-2.86902-5.44385-3.6189-8.78857-.75098-3.34521-1.14673-6.69971-1.18628-10.06641v-1.27686c0-3.24365.33484-6.44727,1.00342-9.60938.66968-3.16309,1.77356-6.02148,3.31494-8.57617,1.54053-2.59375,3.60815-4.7334,6.20337-6.41602,2.59399-1.68262,5.81836-2.52441,9.67041-2.52441,2.18945,0,4.22729.31445,6.1123.94238,1.88574.62891,3.59839,1.51123,5.13989,2.64648,1.54028,1.13477,2.89795,2.47314,4.07446,4.01367,1.17578,1.54102,2.12891,3.26465,2.8584,5.16992v30.95752Z"/><path class="cls-2" d="m773.31372,134.604c-5.96045-.03955-11.15161,1.20654-15.5708,3.74072-4.42017,2.53418-7.90625,6.05127-10.46069,10.55176v-2.91943l-.42578-10.15674h-6.93384v65.80762h7.48145l-.06079-42.08789c.81079-3.04102,1.97681-5.66504,3.49683-7.87646,1.52124-2.20898,3.31519-4.04443,5.38281-5.50342,2.14917-1.5,4.57104-2.60498,7.26758-3.31494,2.69678-.70947,5.58521-1.06445,8.66699-1.06445,1.78418,0,3.52783.10156,5.23096.30371,1.70288.2041,3.38452.48682,5.04785.85156l.97339-7.05469c-1.25781-.40479-2.80786-.71924-4.65308-.94287-1.84546-.22217-3.65967-.33447-5.44287-.33447Z"/><path class="cls-2" d="m856.05957,194.51221c-.38501-2.229-.57764-4.45947-.57764-6.68994v-31.80908c-.04053-3.56738-.71973-6.69092-2.0376-9.36621-1.31787-2.67676-3.09155-4.92725-5.32202-6.75098-2.271-1.74365-4.92603-3.06152-7.96729-3.95361-3.04126-.8916-6.30493-1.33838-9.79224-1.33838s-6.7605.48682-9.82202,1.45996c-3.06152.97266-5.74756,2.31055-8.05811,4.01367-2.31177,1.74365-4.15698,3.79199-5.53491,6.14355-1.37891,2.35107-2.12866,4.92578-2.25049,7.72314l7.29858.06104c.03955-2.06787.57764-3.92285,1.61108-5.56494,1.03442-1.6416,2.36182-3.03027,3.9834-4.16602,1.6626-1.13428,3.56763-2.00684,5.71777-2.61572,2.14917-.60742,4.39868-.91162,6.75098-.91162,2.55444,0,4.93579.33398,7.14673,1.00342,2.20898.66895,4.125,1.63232,5.7478,2.88818,1.62061,1.2583,2.89771,2.82861,3.83154,4.71436.93164,1.88525,1.41846,4.06494,1.45923,6.53809v7.41992h-14.29248c-4.09595.0415-8.00903.43604-11.73804,1.18604-3.7312.75098-6.99487,1.9375-9.79224,3.55811-2.83911,1.70264-5.09937,3.87207-6.78198,6.5083-1.68262,2.63574-2.52344,5.83838-2.52344,9.60889,0,2.83936.56689,5.4043,1.70288,7.69482,1.13403,2.29004,2.67554,4.24756,4.62231,5.86816,1.9458,1.62305,4.25732,2.87988,6.93286,3.771,2.67651.89209,5.53467,1.33789,8.57593,1.33789,2.43262,0,4.77417-.25342,7.0249-.76025,2.25049-.50586,4.38892-1.24609,6.41602-2.21973,1.98657-.93164,3.82227-2.07764,5.50488-3.43604,1.68164-1.3584,3.15234-2.86768,4.40918-4.53125.08154,1.70312.2334,3.38574.45581,5.04785.22241,1.66357.55737,3.22314,1.00439,4.68311h7.78442l-.06104-.72949c-.56787-2.02686-1.04395-4.15576-1.4292-6.38623Zm-7.81519-11.06934c-.93286,1.9458-2.14917,3.70996-3.64893,5.29102-1.50073,1.58203-3.22412,2.94043-5.16992,4.07568-1.9458,1.13477-4.07446,2.01758-6.38623,2.64551-2.31177.62891-4.74414.92285-7.29858.88135-2.1084,0-4.10571-.29346-5.99048-.88135-1.88599-.5874-3.51831-1.44971-4.89624-2.58496-1.37866-1.09521-2.47412-2.43359-3.28394-4.01465-.81177-1.58105-1.21631-3.36523-1.21631-5.35156,0-2.43359.53589-4.51074,1.61108-6.23438,1.07397-1.72314,2.5437-3.17188,4.40942-4.34814,2.31152-1.46045,5.08862-2.47314,8.33301-3.0415,3.24341-.56689,6.6687-.87158,10.27783-.91211h13.25928v14.4751Z"/><path class="cls-2" d="m925.54736,143.84863c-2.14893-2.87891-4.80518-5.13916-7.96729-6.78125-3.16309-1.64209-6.8728-2.46338-11.13037-2.46338-2.271,0-4.43921.27393-6.50684.82129-2.06885.54688-3.9751,1.32861-5.71777,2.3418-1.5415.85156-2.95996,1.875-4.25757,3.07129-1.29761,1.1958-2.45386,2.54443-3.4668,4.04443l-.24292-9.0625h-6.75098v91.10889h7.23779v-33.26807c.97217,1.29736,2.09766,2.47314,3.375,3.52637,1.2771,1.05615,2.64526,1.96729,4.10547,2.73779,1.78418.93262,3.72998,1.65283,5.83838,2.15869,2.1084.50684,4.27783.76025,6.5083.76025,4.41895,0,8.26147-.93262,11.52515-2.79736,3.26367-1.86426,5.93042-4.33838,7.99829-7.42041,2.10742-3.08057,3.69897-6.64941,4.77417-10.70459,1.07397-4.05322,1.61206-8.23047,1.61206-12.52881v-1.27686c-.04077-4.58203-.61938-8.99121-1.73413-13.22852-1.11572-4.23682-2.84863-7.91699-5.19995-11.03906Zm-.36475,25.54443c-.04053,3.40625-.43628,6.77246-1.18628,10.09619-.75073,3.32568-1.95654,6.26416-3.6189,8.81885-1.62158,2.47412-3.7002,4.48096-6.23315,6.02148-2.53516,1.5415-5.60645,2.31152-9.2146,2.31152-2.02808,0-3.99414-.27393-5.89941-.82178-1.90625-.54736-3.67017-1.30713-5.29199-2.28027-1.50073-.93164-2.85815-2.08838-4.07446-3.46729-1.21631-1.37744-2.1897-2.91895-2.91919-4.62207v-32.05176c.76904-1.90527,1.75317-3.61914,2.94922-5.14014,1.1958-1.52002,2.58545-2.82715,4.1665-3.92285,1.54028-1.05371,3.23267-1.875,5.07788-2.46338,1.84521-.5874,3.80176-.88135,5.86963-.88135,3.52783,0,6.52734.70996,9.00171,2.12842,2.47217,1.41992,4.54077,3.26514,6.20312,5.53467,1.78442,2.67676,3.09155,5.7168,3.92285,9.12305.83105,3.40576,1.24707,6.85352,1.24707,10.33984v1.27686Z"/><path class="cls-2" d="m1004.67554,149.01855c-.97339-3.12158-2.41333-5.75732-4.31836-7.90625-1.86548-2.1084-4.19653-3.71973-6.9939-4.83545-2.79834-1.11475-6.0022-1.67285-9.61035-1.67285-2.75781,0-5.34204.40527-7.75439,1.21631-2.41309.81152-4.63281,1.94678-6.65991,3.40576-1.66357,1.21631-3.17285,2.62646-4.53149,4.22754-1.3584,1.60254-2.52344,3.33545-3.49683,5.19971v-40.4458h-7.23779v93.42041h7.23779v-45.25c.72949-2.06787,1.72339-4.01465,2.98022-5.83936,1.25684-1.82422,2.7373-3.40527,4.44043-4.74316,1.8645-1.5,3.92261-2.67676,6.17334-3.52783,2.24951-.85156,4.63184-1.27734,7.14575-1.27734,2.87866-.03955,5.38281.37549,7.51147,1.24707,2.12891.87207,3.90234,2.13867,5.32178,3.80078,1.33838,1.58105,2.33105,3.51855,2.98047,5.80859.64819,2.2915.99268,4.85645,1.0332,7.69336v42.08789h7.23779v-42.02686c0-3.93213-.48584-7.46045-1.45923-10.58252Z"/></svg>