<?xml version="1.0" encoding="UTF-8"?><svg id="Layer_1" xmlns="http://www.w3.org/2000/svg" viewBox="0 0 740 512"><defs><style>.cls-1{fill:none;}.cls-2{fill:#fff;}</style></defs><path class="cls-1" d="m359.2959,76.61426c-6.9751,0-12.6499,5.6748-12.6499,12.6499s5.6748,12.65088,12.6499,12.65088,12.65088-5.67578,12.65088-12.65088-5.67578-12.6499-12.65088-12.6499Z"/><path class="cls-1" d="m504.43018,162.81934c0-75.20947-61.18799-136.39746-136.39722-136.39746s-136.396,61.18799-136.396,136.39746,61.18652,136.396,136.396,136.396,136.39722-61.18701,136.39722-136.396Zm-103.38965,80.25195h-8.85498v-26.56494h8.85498v26.56494Zm15.17993,0h-8.85474v-20.23975h8.85474v20.23975Zm15.17969,0h-8.85474v-31.625h8.85474v31.625Zm13.91479,0h-8.85474v-18.9751h8.85474v18.9751Zm-20.57471-111.4624v-18.14502h42.81226v42.81201h-42.81226v-15.81152h-41.40942v102.60693h-8.85474v-111.4624h50.26416Zm-126.69922,111.4624h-8.85498v-23.51318h8.85498v23.51318Zm15.71582,0h-8.85498v-12.6499h8.85498v12.6499Zm14.64404,0h-8.85498v-36.16309h8.85498v36.16309Zm17.70972-66.64111v66.64111h-8.85498v-66.64111h-31.62158v16.17236h-42.15308v-42.15381h42.15308v17.12646h40.47656v8.85498Zm18.24561,66.64111h-8.85498V111.69141c-10.75098-1.81494-18.97437-11.1665-18.97437-22.42725,0-12.55469,10.21411-22.76855,22.76904-22.76855,12.55591,0,22.77002,10.21387,22.77002,22.76855,0,10.81494-7.58472,19.87402-17.70972,22.18359v131.62354Z"/><rect class="cls-1" x="434.00439" y="122.72754" width="24.28418" height="24.28418"/><polygon class="cls-1" points="39.66724 436.14551 70.91553 436.14551 55.35596 387.08643 39.66724 436.14551"/><path class="cls-1" d="m382.17944,408.81934c-1.62964-1.19971-3.44019-2.13281-5.43384-2.79785-1.99243-.66357-4.14673-.99609-6.46167-.99609-4.07227,0-7.48071.89014-10.2229,2.66895-2.74365,1.77881-4.92969,4.04053-6.55811,6.78271-1.62939,2.70068-2.79663,5.72217-3.50439,9.06641-.70703,3.34277-1.06079,6.72949-1.06079,10.15869v1.3501c.04175,3.55859.46021,7.10498,1.25415,10.6416.79272,3.53613,2.06714,6.6333,3.82568,9.29102,1.58545,2.61475,3.72852,4.71582,6.42896,6.30029,2.70044,1.58643,5.93701,2.37891,9.70972,2.37891,2.18579,0,4.27563-.28906,6.26831-.86719,1.99365-.5791,3.84717-1.40332,5.56152-2.47559,1.62842-1.0708,3.09644-2.36816,4.40479-3.89014,1.30737-1.521,2.34644-3.24658,3.11792-5.17578v-32.72754c-.77148-2.01416-1.77905-3.83594-3.02197-5.46533-1.24365-1.62842-2.67896-3.04297-4.30737-4.24316Z"/><rect class="cls-1" x="272.74512" y="159.71289" width="23.62476" height="23.62598"/><path class="cls-1" d="m522.7981,435.56689c-3.42993.6001-6.36548,1.67139-8.80933,3.21484-1.97217,1.24414-3.52612,2.77539-4.66162,4.59717-1.13623,1.82178-1.70288,4.01758-1.70288,6.59082,0,2.09961.42749,3.98584,1.28564,5.65723.8562,1.67188,2.01416,3.08643,3.47192,4.24414,1.45654,1.2002,3.18213,2.11133,5.17578,2.73242,1.99268.62207,4.104.93164,6.33301.93164,2.70044.04443,5.27197-.2666,7.71582-.93164,2.44385-.66406,4.69434-1.59668,6.75122-2.79688,2.05713-1.19971,3.87891-2.63574,5.46558-4.30859,1.58545-1.67139,2.87134-3.53613,3.85742-5.59326v-15.30273h-14.01709c-3.81567.04297-7.43652.36523-10.86548.96484Z"/><path class="cls-1" d="m623.55151,413.12695c-1.75732-2.39941-3.94458-4.35059-6.55786-5.85107-2.61572-1.49951-5.78662-2.25049-9.51611-2.25049-2.18604,0-4.25439.31104-6.20508.93164-1.95093.62207-3.73975,1.49072-5.36841,2.60449-1.67139,1.1582-3.14038,2.54004-4.40454,4.14697-1.2644,1.60791-2.30469,3.41992-3.11792,5.43408v33.88379c.77124,1.80029,1.80029,3.43018,3.08618,4.88672,1.28564,1.45752,2.7207,2.68018,4.30737,3.66504,1.7146,1.0293,3.57935,1.83203,5.59448,2.41113,2.01416.5791,4.09253.86816,6.23682.86816,3.81421,0,7.06104-.81396,9.74121-2.44336,2.67773-1.62891,4.875-3.75,6.5896-6.36572,1.75732-2.70068,3.03174-5.80713,3.82568-9.32275.79272-3.51367,1.21118-7.07275,1.25415-10.67334v-1.3501c0-3.68555-.43994-7.33057-1.3186-10.93115s-2.26074-6.81445-4.14697-9.64404Z"/><path class="cls-2" d="m514.85205,162.81934c0-80.95654-65.86279-146.81934-146.81909-146.81934s-146.81812,65.86279-146.81812,146.81934,65.86279,146.81787,146.81812,146.81787,146.81909-65.86279,146.81909-146.81787Zm-283.21509,0c0-75.20947,61.18652-136.39746,136.396-136.39746s136.39722,61.18799,136.39722,136.39746-61.18799,136.396-136.39722,136.396-136.396-61.18701-136.396-136.396Z"/><path class="cls-2" d="m382.06592,89.26416c0-12.55469-10.21411-22.76855-22.77002-22.76855-12.55493,0-22.76904,10.21387-22.76904,22.76855,0,11.26074,8.22339,20.6123,18.97437,22.42725v131.37988h8.85498V111.44775c10.125-2.30957,17.70972-11.36865,17.70972-22.18359Zm-22.77002,12.65088c-6.9751,0-12.6499-5.67578-12.6499-12.65088s5.6748-12.6499,12.6499-12.6499,12.65088,5.6748,12.65088,12.6499-5.67578,12.65088-12.65088,12.65088Z"/><rect class="cls-2" x="392.18555" y="216.50635" width="8.85498" height="26.56494"/><rect class="cls-2" x="407.36572" y="222.83154" width="8.85474" height="20.23975"/><rect class="cls-2" x="422.54541" y="211.44629" width="8.85474" height="31.625"/><rect class="cls-2" x="436.46021" y="224.09619" width="8.85474" height="18.9751"/><rect class="cls-2" x="319.5459" y="206.9082" width="8.85498" height="36.16309"/><rect class="cls-2" x="304.90186" y="230.42139" width="8.85498" height="12.6499"/><rect class="cls-2" x="289.18604" y="219.55811" width="8.85498" height="23.51318"/><path class="cls-2" d="m305.63403,167.5752v-17.12646h-42.15308v42.15381h42.15308v-16.17236h31.62158v66.64111h8.85498v-75.49609h-40.47656Zm-9.26416,15.76367h-23.62476v-23.62598h23.62476v23.62598Z"/><path class="cls-2" d="m374.47607,131.60889v111.4624h8.85474v-102.60693h41.40942v15.81152h42.81226v-42.81201h-42.81226v18.14502h-50.26416Zm59.52832-8.88135h24.28418v24.28418h-24.28418v-24.28418Z"/><path class="cls-2" d="m51.88403,375.51318l-30.41333,93.6167h7.71582l8.29492-26.10498h35.55542l8.29492,26.10498h7.71606l-30.22021-93.6167h-6.9436Zm-12.2168,60.63232l15.68872-49.05908,15.55957,49.05908h-31.24829Z"/><path class="cls-2" d="m152.38086,398.27441c-6.30127-.04199-11.78955,1.27539-16.46094,3.95459-4.67285,2.67871-8.3584,6.39697-11.05884,11.15479v-3.08643l-.44995-10.7373h-7.33032v69.56982h7.90918l-.06445-44.49414c.85718-3.21484,2.08984-5.98926,3.69678-8.32666,1.60815-2.33496,3.50464-4.27588,5.69067-5.81836,2.27173-1.58545,4.83203-2.75342,7.68311-3.50439,2.85083-.75,5.9043-1.125,9.16211-1.125,1.88623,0,3.72974.10742,5.53003.3208,1.80029.21631,3.57788.51465,5.33667.90039l1.02881-7.45801c-1.32983-.42773-2.96826-.76025-4.91919-.99658-1.95068-.23486-3.86865-.35352-5.75366-.35352Z"/><path class="cls-2" d="m236.25586,462.73242c-.87866.15039-1.76758.28955-2.66772.41748-1.20093.12891-2.42212.24756-3.66504.354-1.2439.10742-2.48682.16016-3.72974.16016-2.09985,0-4.07227-.23486-5.91553-.70654s-3.4502-1.26416-4.82178-2.37939c-1.37183-1.0708-2.44287-2.50732-3.21533-4.30762-.771-1.80029-1.1792-4.05078-1.22119-6.75098v-43.59375h25.78369v-6.36572h-25.78369v-17.81006h-7.78027v17.81006h-19.35254v6.36572h19.35254v43.59375c.04297,3.81543.61182,7.05078,1.7041,9.7085,1.09351,2.65869,2.60449,4.80127,4.53369,6.43018,1.92822,1.67139,4.21143,2.88232,6.84741,3.63184,2.63599.75,5.49707,1.12549,8.58325,1.12549,1.49951,0,3.01147-.04297,4.53247-.12891,1.52222-.08594,2.98999-.25684,4.40479-.51318,1.11401-.17236,2.17578-.38721,3.18335-.64355,1.00635-.25684,1.89648-.5791,2.66772-.96484l-1.15698-5.85107c-.64331.12891-1.4043.26807-2.2832.41846Z"/><path class="cls-2" d="m296.88843,375.09473c-.70679-.27832-1.55371-.41699-2.53979-.41699-.98633,0-1.84351.13867-2.57178.41699-.72925.2793-1.32861.67529-1.80029,1.18994-.51465.55713-.87866,1.20068-1.09229,1.9292-.21484.72949-.32227,1.50049-.32227,2.31494,0,1.54248.44995,2.87207,1.3501,3.98633.90015,1.11475,2.37939,1.67139,4.43652,1.67139,2.01514,0,3.49316-.55664,4.4375-1.67139.94189-1.11426,1.41357-2.44385,1.41357-3.98633,0-.85742-.12793-1.6499-.38574-2.37939-.25659-.72852-.64233-1.35059-1.15674-1.86475-.47266-.51465-1.06079-.91064-1.7688-1.18994Z"/><polygon class="cls-2" points="298.46387 399.56006 266.18652 399.56006 266.18652 406.44043 290.81226 406.44043 290.81226 462.24951 266.18652 462.24951 266.18652 469.12988 322.12598 469.12988 322.12598 462.24951 298.46387 462.24951 298.46387 399.56006"/><path class="cls-2" d="m389.7666,409.33301c-.98633-1.49951-2.11133-2.87109-3.37573-4.11426-1.26538-1.24268-2.64746-2.33643-4.14697-3.2793-1.88745-1.2002-3.95459-2.11133-6.20508-2.7334-2.25024-.62109-4.63989-.93164-7.16846-.93164-4.84473,0-9.01294,1.04004-12.50635,3.11865-3.49438,2.07959-6.35547,4.76904-8.58325,8.06885-2.22998,3.30078-3.87988,7.03027-4.95093,11.1875-1.07202,4.1582-1.60815,8.50977-1.60815,13.05273v1.3501c0,4.54395.5791,8.9917,1.73584,13.3418,1.1582,4.35059,2.93579,8.15576,5.33667,11.4126,2.27197,3.21533,5.10132,5.78711,8.48706,7.71631,3.38599,1.92773,7.37231,2.89258,11.96021,2.89258,2.3147,0,4.55396-.25684,6.71851-.771,2.16455-.51465,4.1897-1.26465,6.07617-2.25049,1.58545-.85742,3.05444-1.85352,4.40454-2.99023,1.35034-1.13525,2.54004-2.43262,3.56812-3.89014v7.65137c0,3.2998-.46045,6.31152-1.38208,9.0332-.92163,2.72217-2.24023,5.04834-3.95459,6.97656-1.80029,1.9292-3.97607,3.42871-6.52612,4.50098-2.55029,1.0708-5.47583,1.60791-8.77563,1.60791-2.10132,0-4.10498-.26807-6.01294-.8042-1.90771-.53613-3.73975-1.29688-5.49707-2.28174-1.41455-.81543-2.78638-1.80029-4.11523-2.9585-1.32861-1.15674-2.6145-2.48584-3.85742-3.98633l-4.30737,4.75879c1.37061,1.8418,2.9458,3.46045,4.72583,4.85352,1.77783,1.39307,3.63232,2.56152,5.56152,3.50439,2.22803,1.15723,4.54272,2.02539,6.9436,2.60449,2.39966.57812,4.75879.86768,7.07251.86768,4.28589,0,8.13428-.70703,11.5415-2.12158,3.40845-1.41504,6.33301-3.40723,8.77686-5.97998,2.39966-2.52979,4.25293-5.56152,5.56152-9.09814,1.30713-3.53613,1.96094-7.44775,1.96094-11.73389v-68.34814h-7.13696l-.32104,9.77295Zm-.25781,41.92236c-.77148,1.9292-1.81055,3.65479-3.11792,5.17578-1.30835,1.52197-2.77637,2.81934-4.40479,3.89014-1.71436,1.07227-3.56787,1.89648-5.56152,2.47559-1.99268.57812-4.08252.86719-6.26831.86719-3.77271,0-7.00928-.79248-9.70972-2.37891-2.70044-1.58447-4.84351-3.68555-6.42896-6.30029-1.75854-2.65771-3.03296-5.75488-3.82568-9.29102-.79395-3.53662-1.2124-7.08301-1.25415-10.6416v-1.3501c0-3.4292.35376-6.81592,1.06079-10.15869.70776-3.34424,1.875-6.36572,3.50439-9.06641,1.62842-2.74219,3.81445-5.00391,6.55811-6.78271,2.74219-1.77881,6.15063-2.66895,10.2229-2.66895,2.31494,0,4.46924.33252,6.46167.99609,1.99365.66504,3.8042,1.59814,5.43384,2.79785,1.62842,1.2002,3.06372,2.61475,4.30737,4.24316,1.24292,1.62939,2.25049,3.45117,3.02197,5.46533v32.72754Z"/><path class="cls-2" d="m468.4668,398.27441c-6.30127-.04199-11.78931,1.27539-16.46094,3.95459-4.67261,2.67871-8.35815,6.39697-11.05859,11.15479v-3.08643l-.4502-10.7373h-7.33008v69.56982h7.90918l-.06445-44.49414c.85718-3.21484,2.08984-5.98926,3.69678-8.32666,1.60815-2.33496,3.50439-4.27588,5.69043-5.81836,2.27197-1.58545,4.83228-2.75342,7.68311-3.50439,2.85107-.75,5.9043-1.125,9.16235-1.125,1.88623,0,3.72949.10742,5.53003.3208,1.80029.21631,3.57788.51465,5.33643.90039l1.02905-7.45801c-1.32983-.42773-2.96851-.76025-4.91919-.99658-1.95068-.23486-3.86865-.35352-5.75391-.35352Z"/><path class="cls-2" d="m555.94263,461.60742c-.40698-2.35693-.6106-4.71484-.6106-7.07275v-33.62744c-.04297-3.77148-.76099-7.07324-2.1543-9.90186-1.39307-2.82959-3.26807-5.2085-5.62598-7.13672-2.40088-1.84326-5.20776-3.23682-8.42285-4.17969-3.21484-.94189-6.66528-1.41455-10.35181-1.41455-3.68677,0-7.14722.51416-10.38354,1.54346-3.23657,1.02783-6.07617,2.44287-8.51904,4.24268-2.4436,1.84375-4.39453,4.00928-5.85107,6.49463-1.45752,2.48584-2.25024,5.20801-2.37939,8.16504l7.71606.06445c.04175-2.18604.6106-4.14697,1.70312-5.88281,1.09351-1.73584,2.49683-3.20361,4.21118-4.40479,1.75732-1.19873,3.77148-2.12158,6.04443-2.76465,2.27197-.64258,4.65039-.96387,7.13696-.96387,2.70044,0,5.21802.35303,7.55542,1.06104,2.33521.70654,4.3606,1.72559,6.07617,3.05322,1.71313,1.33008,3.06348,2.99023,4.05078,4.98389.98486,1.99268,1.49951,4.29736,1.54248,6.91162v7.84375h-15.10962c-4.33008.04395-8.4668.46143-12.40894,1.25391-3.94434.79395-7.39478,2.04834-10.35205,3.76172-3.00122,1.80029-5.39062,4.09375-7.16943,6.87988-1.77905,2.78662-2.66797,6.17236-2.66797,10.15869,0,3.00146.59961,5.71338,1.80054,8.13428,1.19849,2.42139,2.82812,4.49072,4.88647,6.2041,2.05688,1.71533,4.50073,3.04395,7.3291,3.98633,2.82935.94287,5.85107,1.41455,9.06616,1.41455,2.57153,0,5.04712-.26807,7.42627-.8042,2.37939-.53467,4.63989-1.31738,6.78296-2.34668,2.1001-.98486,4.04053-2.1958,5.81934-3.63184,1.77783-1.43652,3.33276-3.03223,4.66162-4.79053.08594,1.80029.24658,3.5791.48169,5.33643.23511,1.75879.58911,3.40723,1.06177,4.95117h8.22949l-.06445-.77148c-.60059-2.14307-1.10376-4.39355-1.51099-6.75098Zm-8.26196-11.70264c-.98608,2.05713-2.27197,3.92188-3.85742,5.59326-1.58667,1.67285-3.40845,3.10889-5.46558,4.30859-2.05688,1.2002-4.30737,2.13281-6.75122,2.79688-2.44385.66504-5.01538.97607-7.71582.93164-2.229,0-4.34033-.30957-6.33301-.93164-1.99365-.62109-3.71924-1.53223-5.17578-2.73242-1.45776-1.15771-2.61572-2.57227-3.47192-4.24414-.85815-1.67139-1.28564-3.55762-1.28564-5.65723,0-2.57324.56665-4.76904,1.70288-6.59082,1.1355-1.82178,2.68945-3.35303,4.66162-4.59717,2.44385-1.54346,5.37939-2.61475,8.80933-3.21484,3.42896-.59961,7.0498-.92188,10.86548-.96484h14.01709v15.30273Z"/><path class="cls-2" d="m629.40259,408.04688c-2.27173-3.04297-5.07983-5.43262-8.42261-7.16846-3.34399-1.73584-7.26587-2.604-11.7666-2.604-2.40088,0-4.69312.28906-6.87915.86816-2.18701.57812-4.20239,1.40479-6.04443,2.47559-1.62964.90039-3.12915,1.98242-4.50098,3.24658-1.37158,1.26416-2.59399,2.69043-3.66504,4.27588l-.25659-9.58057h-7.13696v96.31689h7.65137v-35.16992c1.02808,1.37158,2.21753,2.61475,3.56787,3.72852,1.35034,1.11621,2.79663,2.07959,4.34033,2.89404,1.88623.98584,3.94336,1.74707,6.17212,2.28174,2.229.53613,4.52246.8042,6.88037.8042,4.67139,0,8.73364-.98633,12.18384-2.95703,3.45044-1.97119,6.26953-4.58691,8.45557-7.84521,2.22778-3.25684,3.9104-7.0293,5.04712-11.31641,1.13525-4.28467,1.7041-8.70068,1.7041-13.24463v-1.3501c-.04297-4.84375-.65479-9.50488-1.83301-13.98438-1.17969-4.47949-3.01172-8.36963-5.49731-11.6709Zm-.3855,27.00537c-.04297,3.60059-.46143,7.15967-1.25415,10.67334-.79395,3.51562-2.06836,6.62207-3.82568,9.32275-1.7146,2.61572-3.91187,4.73682-6.5896,6.36572-2.68018,1.62939-5.927,2.44336-9.74121,2.44336-2.14429,0-4.22266-.28906-6.23682-.86816-2.01514-.5791-3.87988-1.38184-5.59448-2.41113-1.58667-.98486-3.02173-2.20752-4.30737-3.66504-1.28589-1.45654-2.31494-3.08643-3.08618-4.88672v-33.88379c.81323-2.01416,1.85352-3.82617,3.11792-5.43408,1.26416-1.60693,2.73315-2.98877,4.40454-4.14697,1.62866-1.11377,3.41748-1.98242,5.36841-2.60449,1.95068-.62061,4.01904-.93164,6.20508-.93164,3.72949,0,6.90039.75098,9.51611,2.25049,2.61328,1.50049,4.80054,3.45166,6.55786,5.85107,1.88623,2.82959,3.26831,6.04346,4.14697,9.64404s1.3186,7.24561,1.3186,10.93115v1.3501Z"/><path class="cls-2" d="m713.05396,413.5127c-1.02905-3.2998-2.55127-6.08643-4.56519-8.3584-1.97241-2.229-4.43652-3.93213-7.3938-5.11133-2.95825-1.17871-6.34521-1.76855-10.15967-1.76855-2.91528,0-5.64746.42822-8.19751,1.28564-2.55127.8584-4.89795,2.05811-7.04102,3.60059-1.7583,1.28564-3.354,2.77637-4.79028,4.46924-1.43628,1.69385-2.66772,3.52588-3.69678,5.49707v-42.75781h-7.65137v98.76074h7.65137v-47.83691c.77124-2.18604,1.82178-4.24414,3.15063-6.17334,1.32861-1.92822,2.8938-3.59961,4.69434-5.01416,1.97095-1.58545,4.14673-2.82959,6.52612-3.72998,2.37817-.8999,4.89673-1.3501,7.5542-1.3501,3.04321-.04199,5.69043.39697,7.94092,1.31885,2.25049.92139,4.12549,2.26025,5.62598,4.01758,1.41479,1.67139,2.46411,3.71973,3.15063,6.14062.6853,2.42236,1.04956,5.13428,1.09253,8.1333v44.49414h7.65137v-44.42969c0-4.15723-.51343-7.88672-1.54248-11.1875Z"/></svg>