<svg id="Layer_1" data-name="Layer 1" xmlns="http://www.w3.org/2000/svg" xmlns:xlink="http://www.w3.org/1999/xlink" viewBox="0 0 504 521.74957"><defs><style>.cls-1{fill:#5c0f8b;}.cls-2{fill:url(#linear-gradient);}.cls-3{fill:url(#linear-gradient-2);}.cls-4{fill:url(#linear-gradient-3);}.cls-5{fill:url(#linear-gradient-4);}.cls-6{fill:url(#linear-gradient-5);}.cls-7{fill:url(#linear-gradient-6);}.cls-8{fill:url(#linear-gradient-7);}.cls-9{fill:url(#linear-gradient-8);}.cls-10{fill:url(#linear-gradient-9);}.cls-11{fill:url(#linear-gradient-10);}.cls-12{fill:url(#linear-gradient-11);}.cls-13{fill:url(#linear-gradient-12);}.cls-14{fill:url(#linear-gradient-13);}.cls-15{fill:url(#linear-gradient-14);}.cls-16{fill:url(#linear-gradient-15);}.cls-17{fill:url(#linear-gradient-16);}.cls-18{fill:url(#linear-gradient-17);}.cls-19{fill:url(#linear-gradient-18);}.cls-20{fill:url(#linear-gradient-19);}.cls-21{fill:url(#linear-gradient-20);}.cls-22{fill:url(#linear-gradient-21);}.cls-23{fill:url(#linear-gradient-22);}.cls-24{fill:url(#linear-gradient-23);}.cls-25{fill:url(#linear-gradient-24);}.cls-26{fill:url(#linear-gradient-25);}.cls-27{fill:url(#linear-gradient-26);}.cls-28{fill:url(#linear-gradient-27);}.cls-29{fill:url(#linear-gradient-28);}.cls-30{fill:url(#linear-gradient-29);}.cls-31{fill:url(#linear-gradient-30);}.cls-32{fill:url(#linear-gradient-31);}.cls-33{fill:url(#linear-gradient-32);}.cls-34{fill:url(#linear-gradient-33);}.cls-35{fill:url(#linear-gradient-34);}.cls-36{fill:url(#linear-gradient-35);}.cls-37{fill:url(#linear-gradient-36);}.cls-38{fill:url(#linear-gradient-37);}.cls-39{fill:url(#linear-gradient-38);}.cls-40{fill:url(#linear-gradient-39);}.cls-41{fill:url(#linear-gradient-40);}.cls-42{fill:url(#linear-gradient-41);}.cls-43{fill:url(#linear-gradient-42);}.cls-44{fill:url(#linear-gradient-43);}.cls-45{fill:url(#linear-gradient-44);}.cls-46{fill:url(#linear-gradient-45);}.cls-47{fill:url(#linear-gradient-46);}.cls-48{fill:url(#linear-gradient-47);}.cls-49{fill:url(#linear-gradient-48);}.cls-50{fill:url(#linear-gradient-49);}.cls-51{fill:url(#linear-gradient-50);}.cls-52{fill:url(#linear-gradient-51);}.cls-53{fill:url(#linear-gradient-52);}.cls-54{fill:url(#linear-gradient-53);}.cls-55{fill:url(#linear-gradient-54);}.cls-56{fill:url(#linear-gradient-55);}.cls-57{fill:url(#linear-gradient-56);}.cls-58{fill:url(#linear-gradient-57);}.cls-59{fill:url(#linear-gradient-58);}.cls-60{fill:url(#linear-gradient-59);}.cls-61{fill:url(#linear-gradient-60);}.cls-62{fill:url(#linear-gradient-61);}.cls-63{fill:url(#linear-gradient-62);}.cls-64{fill:url(#linear-gradient-63);}.cls-65{fill:url(#linear-gradient-64);}.cls-66{fill:url(#linear-gradient-65);}.cls-67{fill:url(#linear-gradient-66);}.cls-68{fill:url(#linear-gradient-67);}.cls-69{fill:url(#linear-gradient-68);}.cls-70{fill:url(#linear-gradient-69);}.cls-71{fill:url(#linear-gradient-70);}.cls-72{fill:url(#linear-gradient-71);}.cls-73{fill:url(#linear-gradient-72);}.cls-74{fill:url(#linear-gradient-73);}.cls-75{fill:url(#linear-gradient-74);}.cls-76{fill:url(#linear-gradient-75);}.cls-77{fill:url(#linear-gradient-76);}.cls-78{fill:url(#linear-gradient-77);}.cls-79{fill:url(#linear-gradient-78);}.cls-80{fill:url(#linear-gradient-79);}.cls-81{fill:url(#linear-gradient-80);}.cls-82{fill:url(#linear-gradient-81);}.cls-83{fill:url(#linear-gradient-82);}.cls-84{fill:url(#linear-gradient-83);}.cls-85{fill:url(#linear-gradient-84);}.cls-86{fill:url(#linear-gradient-85);}.cls-87{fill:url(#linear-gradient-86);}.cls-88{fill:url(#linear-gradient-87);}.cls-89{fill:url(#linear-gradient-88);}.cls-90{fill:url(#linear-gradient-89);}.cls-91{fill:url(#linear-gradient-90);}.cls-92{fill:url(#linear-gradient-91);}.cls-93{fill:url(#linear-gradient-92);}.cls-94{fill:url(#linear-gradient-93);}.cls-95{fill:url(#linear-gradient-94);}.cls-96{fill:none;}.cls-97{fill:#53575a;}</style><linearGradient id="linear-gradient" x1="-10.02678" y1="315.47628" x2="439.55749" y2="481.83619" gradientTransform="matrix(1, 0, 0, -1, 0, 513.70064)" gradientUnits="userSpaceOnUse"><stop offset="0" stop-color="#65318f"/><stop offset="0.21076" stop-color="#633592"/><stop offset="0.43565" stop-color="#5c4299"/><stop offset="0.6663" stop-color="#5257a6"/><stop offset="0.81351" stop-color="#4969b1"/></linearGradient><linearGradient id="linear-gradient-2" x1="8.4476" y1="265.54969" x2="458.03186" y2="431.90962" xlink:href="#linear-gradient"/><linearGradient id="linear-gradient-3" x1="14.77832" y1="248.44108" x2="464.36253" y2="414.801" xlink:href="#linear-gradient"/><linearGradient id="linear-gradient-4" x1="23.53776" y1="224.76885" x2="473.12201" y2="391.12879" xlink:href="#linear-gradient"/><linearGradient id="linear-gradient-5" x1="14.23251" y1="249.91606" x2="463.81677" y2="416.27599" xlink:href="#linear-gradient"/><linearGradient id="linear-gradient-6" x1="39.35128" y1="182.03315" x2="488.93555" y2="348.39307" xlink:href="#linear-gradient"/><linearGradient id="linear-gradient-7" x1="-36.46124" y1="386.91487" x2="413.12302" y2="553.2748" xlink:href="#linear-gradient"/><linearGradient id="linear-gradient-8" x1="52.76246" y1="145.78965" x2="502.34672" y2="312.14958" xlink:href="#linear-gradient"/><linearGradient id="linear-gradient-9" x1="-8.18582" y1="310.50122" x2="441.39844" y2="476.86114" xlink:href="#linear-gradient"/><linearGradient id="linear-gradient-10" x1="-41.33564" y1="400.08789" x2="408.24862" y2="566.44782" xlink:href="#linear-gradient"/><linearGradient id="linear-gradient-11" x1="-6.16544" y1="305.04109" x2="443.41882" y2="471.40102" xlink:href="#linear-gradient"/><linearGradient id="linear-gradient-12" x1="-42.74793" y1="403.90459" x2="406.83633" y2="570.26452" xlink:href="#linear-gradient"/><linearGradient id="linear-gradient-13" x1="33.8572" y1="196.88078" x2="483.44146" y2="363.2407" xlink:href="#linear-gradient"/><linearGradient id="linear-gradient-14" x1="-22.17017" y1="348.29357" x2="427.41409" y2="514.6535" xlink:href="#linear-gradient"/><linearGradient id="linear-gradient-15" x1="-27.92483" y1="363.84542" x2="421.65943" y2="530.20535" xlink:href="#linear-gradient"/><linearGradient id="linear-gradient-16" x1="61.79438" y1="121.3811" x2="511.37864" y2="287.74103" xlink:href="#linear-gradient"/><linearGradient id="linear-gradient-17" x1="17.81524" y1="240.23388" x2="467.3995" y2="406.59381" xlink:href="#linear-gradient"/><linearGradient id="linear-gradient-18" x1="69.46204" y1="100.65942" x2="519.0463" y2="267.01933" xlink:href="#linear-gradient"/><linearGradient id="linear-gradient-19" x1="73.15164" y1="90.68837" x2="522.7359" y2="257.04828" xlink:href="#linear-gradient"/><linearGradient id="linear-gradient-20" x1="-5.74166" y1="303.89587" x2="443.84259" y2="470.25582" xlink:href="#linear-gradient"/><linearGradient id="linear-gradient-21" x1="79.076" y1="74.67788" x2="528.66026" y2="241.03779" xlink:href="#linear-gradient"/><linearGradient id="linear-gradient-22" x1="63.27505" y1="117.3796" x2="512.85931" y2="283.73953" xlink:href="#linear-gradient"/><linearGradient id="linear-gradient-23" x1="61.36011" y1="122.55473" x2="510.94437" y2="288.91465" xlink:href="#linear-gradient"/><linearGradient id="linear-gradient-24" x1="16.82752" y1="242.90316" x2="466.41177" y2="409.2631" xlink:href="#linear-gradient"/><linearGradient id="linear-gradient-25" x1="38.2541" y1="184.9982" x2="487.83835" y2="351.35814" xlink:href="#linear-gradient"/><linearGradient id="linear-gradient-26" x1="83.12816" y1="63.72697" x2="532.71241" y2="230.08693" xlink:href="#linear-gradient"/><linearGradient id="linear-gradient-27" x1="19.63042" y1="235.32838" x2="469.21468" y2="401.68832" xlink:href="#linear-gradient"/><linearGradient id="linear-gradient-28" x1="48.81263" y1="156.46399" x2="498.39689" y2="322.8239" xlink:href="#linear-gradient"/><linearGradient id="linear-gradient-29" x1="39.16569" y1="182.53474" x2="488.74995" y2="348.89466" xlink:href="#linear-gradient"/><linearGradient id="linear-gradient-30" x1="58.92565" y1="129.13384" x2="508.50991" y2="295.49376" xlink:href="#linear-gradient"/><linearGradient id="linear-gradient-31" x1="60.32942" y1="125.34015" x2="509.91369" y2="291.70006" xlink:href="#linear-gradient"/><linearGradient id="linear-gradient-32" x1="56.83181" y1="134.79239" x2="506.41608" y2="301.1523" xlink:href="#linear-gradient"/><linearGradient id="linear-gradient-33" x1="12.83479" y1="253.69338" x2="462.41906" y2="420.0533" xlink:href="#linear-gradient"/><linearGradient id="linear-gradient-34" x1="-6.459" y1="305.83447" x2="443.12526" y2="472.19439" xlink:href="#linear-gradient"/><linearGradient id="linear-gradient-35" x1="45.57598" y1="165.21104" x2="495.16018" y2="331.57098" xlink:href="#linear-gradient"/><linearGradient id="linear-gradient-36" x1="-14.99862" y1="328.91265" x2="434.58564" y2="495.27258" xlink:href="#linear-gradient"/><linearGradient id="linear-gradient-37" x1="-9.62007" y1="314.37716" x2="439.96419" y2="480.73709" xlink:href="#linear-gradient"/><linearGradient id="linear-gradient-38" x1="40.73407" y1="178.29619" x2="490.25513" y2="344.63272" xlink:href="#linear-gradient"/><linearGradient id="linear-gradient-39" x1="45.13896" y1="166.39201" x2="494.72321" y2="332.75195" xlink:href="#linear-gradient"/><linearGradient id="linear-gradient-40" x1="6.5053" y1="270.79871" x2="456.08956" y2="437.15864" xlink:href="#linear-gradient"/><linearGradient id="linear-gradient-41" x1="84.06343" y1="61.19947" x2="533.64769" y2="227.55939" xlink:href="#linear-gradient"/><linearGradient id="linear-gradient-42" x1="57.10372" y1="134.05748" x2="506.68798" y2="300.41741" xlink:href="#linear-gradient"/><linearGradient id="linear-gradient-43" x1="83.93321" y1="61.55137" x2="533.51747" y2="227.91129" xlink:href="#linear-gradient"/><linearGradient id="linear-gradient-44" x1="48.56688" y1="157.12822" x2="498.15108" y2="323.48814" xlink:href="#linear-gradient"/><linearGradient id="linear-gradient-45" x1="1.43278" y1="284.50708" x2="451.01705" y2="450.86698" xlink:href="#linear-gradient"/><linearGradient id="linear-gradient-46" x1="24.26704" y1="222.79799" x2="473.8513" y2="389.1579" xlink:href="#linear-gradient"/><linearGradient id="linear-gradient-47" x1="-3.55107" y1="297.97589" x2="446.03319" y2="464.33581" xlink:href="#linear-gradient"/><linearGradient id="linear-gradient-48" x1="78.04335" y1="77.46859" x2="527.62761" y2="243.82852" xlink:href="#linear-gradient"/><linearGradient id="linear-gradient-49" x1="62.0875" y1="120.58899" x2="511.67176" y2="286.94892" xlink:href="#linear-gradient"/><linearGradient id="linear-gradient-50" x1="-18.21765" y1="337.61198" x2="431.36661" y2="503.97191" xlink:href="#linear-gradient"/><linearGradient id="linear-gradient-51" x1="70.92754" y1="96.69897" x2="520.51181" y2="263.05888" xlink:href="#linear-gradient"/><linearGradient id="linear-gradient-52" x1="-24.84395" y1="355.51943" x2="424.74031" y2="521.87936" xlink:href="#linear-gradient"/><linearGradient id="linear-gradient-53" x1="-14.13543" y1="326.57982" x2="435.44883" y2="492.93975" xlink:href="#linear-gradient"/><linearGradient id="linear-gradient-54" x1="-26.52624" y1="360.06578" x2="423.05802" y2="526.42571" xlink:href="#linear-gradient"/><linearGradient id="linear-gradient-55" x1="-31.53279" y1="373.59591" x2="418.05148" y2="539.9558" xlink:href="#linear-gradient"/><linearGradient id="linear-gradient-56" x1="47.46112" y1="160.11645" x2="497.04538" y2="326.47638" xlink:href="#linear-gradient"/><linearGradient id="linear-gradient-57" x1="37.21644" y1="187.80253" x2="486.8007" y2="354.16246" xlink:href="#linear-gradient"/><linearGradient id="linear-gradient-58" x1="-36.79764" y1="387.82403" x2="412.78662" y2="554.18396" xlink:href="#linear-gradient"/><linearGradient id="linear-gradient-59" x1="46.10127" y1="163.79145" x2="495.68553" y2="330.15139" xlink:href="#linear-gradient"/><linearGradient id="linear-gradient-60" x1="13.71215" y1="251.32233" x2="463.29641" y2="417.68226" xlink:href="#linear-gradient"/><linearGradient id="linear-gradient-61" x1="17.97939" y1="239.79024" x2="467.56365" y2="406.15016" xlink:href="#linear-gradient"/><linearGradient id="linear-gradient-62" x1="-18.22943" y1="337.64385" x2="431.35484" y2="504.00374" xlink:href="#linear-gradient"/><linearGradient id="linear-gradient-63" x1="65.15157" y1="112.30835" x2="514.73583" y2="278.66828" xlink:href="#linear-gradient"/><linearGradient id="linear-gradient-64" x1="4.48646" y1="276.25461" x2="454.07072" y2="442.61453" xlink:href="#linear-gradient"/><linearGradient id="linear-gradient-65" x1="92.37429" y1="38.73959" x2="541.95857" y2="205.09947" xlink:href="#linear-gradient"/><linearGradient id="linear-gradient-66" x1="-24.24339" y1="353.89637" x2="425.34087" y2="520.2563" xlink:href="#linear-gradient"/><linearGradient id="linear-gradient-67" x1="23.95515" y1="223.64081" x2="473.53941" y2="390.00074" xlink:href="#linear-gradient"/><linearGradient id="linear-gradient-68" x1="-25.25685" y1="356.63523" x2="424.32741" y2="522.99516" xlink:href="#linear-gradient"/><linearGradient id="linear-gradient-69" x1="56.59706" y1="135.42675" x2="506.18133" y2="301.78666" xlink:href="#linear-gradient"/><linearGradient id="linear-gradient-70" x1="-9.34164" y1="313.62476" x2="440.24262" y2="479.98469" xlink:href="#linear-gradient"/><linearGradient id="linear-gradient-71" x1="48.08197" y1="158.43862" x2="497.66623" y2="324.79855" xlink:href="#linear-gradient"/><linearGradient id="linear-gradient-72" x1="-44.4897" y1="408.61168" x2="405.09456" y2="574.97161" xlink:href="#linear-gradient"/><linearGradient id="linear-gradient-73" x1="-43.15861" y1="405.01443" x2="406.42565" y2="571.37436" xlink:href="#linear-gradient"/><linearGradient id="linear-gradient-74" x1="13.66847" y1="251.4404" x2="463.25273" y2="417.80032" xlink:href="#linear-gradient"/><linearGradient id="linear-gradient-75" x1="36.80382" y1="188.91759" x2="486.38807" y2="355.27753" xlink:href="#linear-gradient"/><linearGradient id="linear-gradient-76" x1="10.82596" y1="259.12227" x2="460.41023" y2="425.48217" xlink:href="#linear-gradient"/><linearGradient id="linear-gradient-77" x1="-13.80134" y1="325.67697" x2="435.78292" y2="492.0369" xlink:href="#linear-gradient"/><linearGradient id="linear-gradient-78" x1="-18.34766" y1="337.96336" x2="431.23661" y2="504.32325" xlink:href="#linear-gradient"/><linearGradient id="linear-gradient-79" x1="14.75608" y1="248.50111" x2="464.34034" y2="414.86104" xlink:href="#linear-gradient"/><linearGradient id="linear-gradient-80" x1="10.52437" y1="259.93723" x2="460.10862" y2="426.29717" xlink:href="#linear-gradient"/><linearGradient id="linear-gradient-81" x1="-29.46105" y1="367.997" x2="420.12321" y2="534.35692" xlink:href="#linear-gradient"/><linearGradient id="linear-gradient-82" x1="11.66956" y1="256.84245" x2="461.25383" y2="423.20236" xlink:href="#linear-gradient"/><linearGradient id="linear-gradient-83" x1="-4.90189" y1="301.62637" x2="444.68237" y2="467.9863" xlink:href="#linear-gradient"/><linearGradient id="linear-gradient-84" x1="17.63221" y1="240.72843" x2="467.21648" y2="407.08834" xlink:href="#linear-gradient"/><linearGradient id="linear-gradient-85" x1="50.45455" y1="152.02675" x2="500.03881" y2="318.38668" xlink:href="#linear-gradient"/><linearGradient id="linear-gradient-86" x1="32.85996" y1="199.57582" x2="482.44423" y2="365.93572" xlink:href="#linear-gradient"/><linearGradient id="linear-gradient-87" x1="45.40364" y1="165.67675" x2="494.98791" y2="332.03666" xlink:href="#linear-gradient"/><linearGradient id="linear-gradient-88" x1="46.96985" y1="161.44413" x2="496.55411" y2="327.80405" xlink:href="#linear-gradient"/><linearGradient id="linear-gradient-89" x1="26.31808" y1="217.25505" x2="475.90234" y2="383.61497" xlink:href="#linear-gradient"/><linearGradient id="linear-gradient-90" x1="84.24617" y1="60.70564" x2="533.83043" y2="227.06557" xlink:href="#linear-gradient"/><linearGradient id="linear-gradient-91" x1="85.17138" y1="58.20522" x2="534.75568" y2="224.56518" xlink:href="#linear-gradient"/><linearGradient id="linear-gradient-92" x1="81.19266" y1="68.95772" x2="530.77692" y2="235.31764" xlink:href="#linear-gradient"/><linearGradient id="linear-gradient-93" x1="97.89006" y1="23.83325" x2="547.47436" y2="190.19321" xlink:href="#linear-gradient"/><linearGradient id="linear-gradient-94" x1="85.36844" y1="57.67266" x2="534.95269" y2="224.03262" xlink:href="#linear-gradient"/></defs><title>acumosAI-stacked-color</title><polygon class="cls-1" points="350.62 295.97 348.951 292.634 345.945 286.632 342.235 279.223 324.906 244.647 323.02 240.874 321.629 238.105 320.295 235.431 318.351 231.565 278.387 151.789 264.595 177 262.724 180.425 262.852 180.684 264.019 183.019 265.225 185.417 278.132 211.182 279.734 214.383 281.064 217.037 281.339 217.584 281.841 218.591 302.08 258.987 303.03 260.88 303.682 262.188 304.363 263.54 305.288 265.389 313.765 282.308 315.581 285.932 317.052 288.87 317.868 290.501 321.683 298.112 326.47 307.671 333.358 321.421 336.441 321.421 338.587 321.421 351.701 321.421 353.553 321.421 363.37 321.421 358.413 311.521 350.62 295.97"/><polygon class="cls-1" points="272.689 140.414 269.411 133.871 251.35 97.819 249.626 101.269 247.768 104.982 247.352 105.813 246.332 107.857 239.367 121.783 235.731 129.058 258.244 172.511 258.756 171.877 259.523 172.933 274.902 144.827 272.689 140.414"/><polygon class="cls-1" points="258.244 172.511 258.238 172.52 258.992 174.03 259.523 172.933 258.756 171.877 258.244 172.511"/><path class="cls-2" d="M37.15379,192.01076a8.25489,8.25489,0,0,1-.03012-1.29279,8.76927,8.76927,0,0,1,.575-2.411L14.92416,177.7471a75.161,75.161,0,0,0-7.06749,19.60748l22.01829-4.0133Z"/><path class="cls-3" d="M34.07018,260.10788,8.537,228.15635l-.90729-1.14083a74.843,74.843,0,0,0,7.05981,20.393l3.12935,2.04879Z"/><path class="cls-4" d="M16.81348,251.21039A75.91645,75.91645,0,0,0,34.259,271.34719l.96754-1.94985,2.29023-4.61129Z"/><polygon class="cls-5" points="269.987 211.185 258.621 188.497 247.212 211.185 269.987 211.185"/><polygon class="cls-6" points="259.523 172.933 259.523 172.933 259.405 173.15 259.523 172.933"/><path class="cls-7" d="M420.63193,220.56023l-9.72079-52.03078A8.703,8.703,0,0,1,404.411,166.606l-5.85845,7.07433,13.06916,28.3685,8.57136,18.60185C420.33706,220.62071,420.4811,220.59036,420.63193,220.56023Z"/><path class="cls-8" d="M237.657,34.58829l20.27321-23.77915c-.98315-.42726-1.93507-.79406-2.88021-1.12609L244.491,24.80021Z"/><path class="cls-9" d="M205.13221,319.70858l2.562-3.60631,6.88632-9.68209a9.09476,9.09476,0,0,1-2.54728-3.80268l-12.30283,2.7318-5.57966,10.79037Z"/><path class="cls-10" d="M377.50922,57.42341l7.10561-.2267,11.61718-.37008a30.02324,30.02324,0,0,0-1.534-5.52559l-17.23421,5.922C377.47138,57.29489,377.50151,57.35513,377.50922,57.42341Z"/><path class="cls-11" d="M101.78183,57.74853A75.10873,75.10873,0,0,0,73.90477,73.95472l43.25907-19.54006Z"/><path class="cls-12" d="M397.49437,62.65421l5.73009,1.05024a8.07206,8.07206,0,0,1,7.90573-4.53892,8.519,8.519,0,0,1,1.127.20824l.26384-.49915c-.53631-.18119-1.07267-.35141-1.61688-.49851l-31.301,1.0056Z"/><path class="cls-13" d="M204.55781,23.37132,228.0655,9.2139a43.90387,43.90387,0,0,0-13.59083,6.8485,1.00785,1.00785,0,0,1-.77868.18867,73.06929,73.06929,0,0,0-14.61832-1.02386l-.45341,4.23609A9.0341,9.0341,0,0,1,204.55781,23.37132Z"/><path class="cls-14" d="M134.14034,276.79718c.37076,1.81413.8088,3.60521,1.29258,5.35142l20.25-8.67384,1.09772-2.19566Z"/><path class="cls-15" d="M236.57662,75.28841l3.28021-3.66194a9.04159,9.04159,0,0,1-2.29816-6.78032,9.15952,9.15952,0,0,1,.96756-3.40094l-5.35846-3.5528-2.442-1.60986a6.56565,6.56565,0,0,1-5.68369,2.47909c-.1137-.00767-.2197-.04572-.325-.05717l-4.50548,29.61521a9.02787,9.02787,0,0,1,3.08424,1.80272Z"/><path class="cls-16" d="M202.72126,35.405a8.9871,8.9871,0,0,1-2.76719,1.54961l6.48542,20.94874,9.30534,30.06874a8.806,8.806,0,0,1,2.28252-.13611c.06817.00394.13636.03013.20467.0378l4.52724-29.73993a6.55725,6.55725,0,0,1-3.73385-6.43968,6.45856,6.45856,0,0,1,1.01308-2.94815Z"/><path class="cls-17" d="M422.8241,268.20315l-.13633-13.56846-.16644-16.16748c-.26477,0-.52162.03716-.79341.01474a8.51994,8.51994,0,0,1-1.39086-.25708l-18.34494,34.92892-9.59236,18.25455,23.13-11.27742a9.05752,9.05752,0,0,1,7.29429-11.9277Z"/><path class="cls-18" d="M363.40434,106.82323c-.06024.042-.113.08749-.1733.12555l21.70872,40.97939,12.608,23.79092,5.43432-6.56437a8.99929,8.99929,0,0,1,.93741-12.31316Z"/><path class="cls-19" d="M311.68782,297.38748l-5.46533,45.62429a49.44987,49.44987,0,0,0,4.86071,1.48142.99928.99928,0,0,1,.71754.658c.40087,1.20131.87694,2.43356,1.42889,3.71141l5.66881-21.86747,3.0313-11.68535-9.12224-18.12259A8.92125,8.92125,0,0,1,311.68782,297.38748Z"/><path class="cls-20" d="M482.94642,276.223l1.59448-2.51718,1.42887-2.26009a51.97933,51.97933,0,0,0-1.88935-5.3369Z"/><path class="cls-21" d="M342.036,64.65725a9.03713,9.03713,0,0,1-3.91569-1.29254L323.81206,82.11046l-5.82068,7.6265a9.08232,9.08232,0,0,1,2.78172,6.06215L347.599,97.405l1.9885.11766a9.08439,9.08439,0,0,1,4.535-6.2585l-2.53188-7.25638-6.81838-19.59286A8.88872,8.88872,0,0,1,342.036,64.65725Z"/><path class="cls-22" d="M367.13136,287.73465a9.11252,9.11252,0,0,1-4.25564,4.50482l2.40323,6.53885,25.54878,69.5856-1.74621-73.93933Z"/><path class="cls-23" d="M309.65441,297.33405a9.10576,9.10576,0,0,1-7.453-6.18286l-36.68284,4.29351-35.84326,4.19519c0,.25686.03035.50623.01473.77067a9.06634,9.06634,0,0,1-3.39321,6.34162l17.73273,28.00544a80.88311,80.88311,0,0,0,30.32514-22.10988.97427.97427,0,0,1,.84682-.34745.39363.39363,0,0,1,.0983.00771,1.01058,1.01058,0,0,1,.77067.65,50.03875,50.03875,0,0,0,28.19435,29.29734l2.96289-24.67863Z"/><path class="cls-24" d="M373.33665,287.51565l16.22862,4.95054,6.32691-12.04819,22.51771-42.87346a9.37674,9.37674,0,0,1-1.28487-.80875l-9.44853,7.89189-41.30923,34.52806a9.00654,9.00654,0,0,1,1.51948,5.72217c-.03013.31731-.113.61218-.17352.92181Z"/><path class="cls-25" d="M141.36641,192.41161a8.08988,8.08988,0,0,1-.88379.72524L169.0288,246.781l11.17365-22.34927Z"/><path class="cls-26" d="M136.00727,284.11382a80.22924,80.22924,0,0,0,6.62914,15.45593l11.6459-23.29326Z"/><path class="cls-27" d="M465.22073,327.50132a49.81242,49.81242,0,0,0,20.72664-27.76313l-4.61856-16.02458Z"/><path class="cls-28" d="M166.32538,246.00278l-27.60457-51.86056a8.88185,8.88185,0,0,1-4.308.74852,8.04871,8.04871,0,0,1-1.30047-.2344l-42.75969,90.7276,27.52862-6.70444a75.22729,75.22729,0,0,0,13.43222-9.47866,1.0125,1.0125,0,0,1,1.67034.64254c.18118,1.52628.43122,3.15946.76326,4.96593l9.35775-2.27549,14.86138-3.6259,9.95344-19.90839Z"/><polygon class="cls-29" points="474.767 200.642 489.598 192.449 485.486 188.381 477.527 193.895 440.422 219.602 474.767 200.642"/><path class="cls-30" d="M414.426,225.17872a9.10521,9.10521,0,0,1,3.87766-3.80971l-21.5121-46.67539-60.19051,13.54149a8.95551,8.95551,0,0,1-.99771,3.29186l37.57464,16.04Z"/><path class="cls-31" d="M219.88642,308.74078a9.10381,9.10381,0,0,1-3.66569-1.134l-4.021,5.661-5.367,7.55147,17.80856,19.28984a81.16835,81.16835,0,0,0,17.47568-4.58046l-17.53616-27.71057A8.94789,8.94789,0,0,1,219.88642,308.74078Z"/><path class="cls-32" d="M200.70259,331.092l-4.74714,8.06431A80.68991,80.68991,0,0,0,222.2,340.44205l-16.49339-17.85414Z"/><path class="cls-33" d="M185.20246,329.00609l5.19025,8.72992c1.15622.34,2.32036.65725,3.49921.94446l10.12868-17.21114-9.83378-3.19731-.97461-.31731-5.71454,11.05138Z"/><path class="cls-34" d="M126.36984,188.05391l-71.12729,3.81346c-.00771.10534.01471.21131.007.31755a9.044,9.044,0,0,1-4.1572,6.87089l32.23061,73.44,5.24564,11.93538,42.61652-90.43977A9.07156,9.07156,0,0,1,126.36984,188.05391Z"/><path class="cls-35" d="M362.46013,58.82976,351.59066,57.605a9.04732,9.04732,0,0,1-4.91339,6.15265L354.939,87.492l1.05812,3.02337a8.91223,8.91223,0,0,1,3.21205-.34767c.10622.00793.19659.04508.29489.05279l7.55147-24.90559A7.55376,7.55376,0,0,1,362.46013,58.82976Z"/><path class="cls-36" d="M214.24782,293.26043a9.06814,9.06814,0,0,1,2.73617-1.8678l-3.7708-12.11853-4.80472,9.29221Z"/><path class="cls-37" d="M256.41114,91.54279l-4.9666-11.84321-2.27549-5.41651a8.825,8.825,0,0,1-7.80064-1.319L225.9866,90.15252l-1.32991,1.48914a9.01409,9.01409,0,0,1,1.69275,5.98713,8.87716,8.87716,0,0,1-.91476,3.25779l3.545,1.93509,9.4479,5.15111L251.53076,81.7641Z"/><path class="cls-38" d="M296.737,107.10733l7.36941-5.964a8.70329,8.70329,0,0,1-.95216-7.79733L271.95929,78.64436l-17.6421-8.31046a9.03059,9.03059,0,0,1-3.28045,3.18186l19.102,45.53215,3.40441,6.82122Z"/><path class="cls-39" d="M429.97426,224.377l29.34308-20.32488,24.11986-16.72034-64.86111-24.74371a9.10538,9.10538,0,0,1-5.67664,5.552l9.75045,52.2236c.18869.00771.36284-.02239.55173-.00768A9.03752,9.03752,0,0,1,429.97426,224.377Z"/><path class="cls-40" d="M355.052,275.92l-26.1835-79.67623c-.0224,0-.04477.01471-.075.01471L329.74,238.468l20.90365,41.88382A9.14994,9.14994,0,0,1,355.052,275.92Z"/><path class="cls-41" d="M198.54847,150.21071l-.63482-19.66763c-.287.00375-.56733.03783-.85452.01539a8.93331,8.93331,0,0,1-3.63525-1.11135l-50.6664,51.4828a8.85218,8.85218,0,0,1-.0906,9.93912l14.02129,11.55758,24.44289,20.14765,18.55976-37.12206Z"/><path class="cls-42" d="M480.02837,281.408l-46.9927-2.70609a9.06375,9.06375,0,0,1-6.25872,7.15038l6.94678,33.14562,9.48637,45.27685a49.95042,49.95042,0,0,0,14.44465-32.13249,1.00265,1.00265,0,0,1,.58973-.85453l.31732-.13546c.45365-.21194.91408-.42329,1.36778-.64231.8545-.41649,1.70124-.86243,2.52486-1.33831l3.34837-9.10789Z"/><path class="cls-43" d="M493.93666,214.44468a1.00693,1.00693,0,0,1,.01473-.90642,25.3913,25.3913,0,0,0,1.03549-21.18008l-2.13855.80879-.64249.24943-5.89636,52.66232a25.78547,25.78547,0,0,0,10.03039-23.45492A25.24814,25.24814,0,0,0,493.93666,214.44468Z"/><path class="cls-44" d="M423.39056,286.23078a9.07806,9.07806,0,0,1-6.97624-4.28649l-9.28954,4.52793-15.58652,7.60405L400.692,308.219l38.5946,59.61548c.75623-.6199,1.48914-1.25475,2.19989-1.9118l-16.70514-79.71517A9.548,9.548,0,0,1,423.39056,286.23078Z"/><path class="cls-45" d="M214.5372,276.71386l4.38169,14.07432a8.8714,8.8714,0,0,1,10.52083,6.83486l.00124.00591,63.10766-7.38482,9.26735-1.08825a8.56686,8.56686,0,0,1-.03013-1.535,9.21421,9.21421,0,0,1,.30258-1.66262L258.553,267.00786H219.55591Z"/><path class="cls-46" d="M219.35011,136.63139,204.56486,127.508a9.095,9.095,0,0,1-4.64093,2.78564L201.10348,166.64l.4886,15.00907,21.38718-42.77792Z"/><path class="cls-47" d="M319.56408,191.49661a9.0038,9.0038,0,0,1-1.04317-4.96592c0-.02238.01537-.04177.01537-.06421l-18.70357-7.922,8.75476,17.54141Z"/><path class="cls-48" d="M377.07822,60.97221a7.57,7.57,0,0,1-7.70235,4.95145c-.12843-.01168-.24144-.04973-.36987-.06818l-7.52112,24.83443a9.02285,9.02285,0,0,1,3.73383,2.48681l21.76918-13.84781,15.72264-10.00026a7.97014,7.97014,0,0,1-.28807-2.75862,7.74475,7.74475,0,0,1,.16649-.93037Z"/><path class="cls-49" d="M482.54552,280.637l4.3839,15.20788a49.72043,49.72043,0,0,0-.25685-21.73136Z"/><path class="cls-50" d="M490.05105,194.52l-58.85989,32.48787a9.06819,9.06819,0,0,1,.33259,3.15176,8.9719,8.9719,0,0,1-1.54169,4.3011l34.347,29.819,16.32717,14.18074.68035-6.0775,1.09594-9.77355a50.127,50.127,0,0,0-6.94678-10.20456,1.0096,1.0096,0,0,1,.55963-1.65494,25.38213,25.38213,0,0,0,8.06517-3.17508l2.93278-26.22893Z"/><path class="cls-51" d="M351.8096,55.5944,362.611,56.81109a7.55932,7.55932,0,0,1,5.60076-5.771l-2.32035-19.84581a29.43869,29.43869,0,0,0-17.58872-10.7899,1.06259,1.06259,0,0,1-.3483-.1401c-.44594-.27949-.9064-.551-1.36775-.805l-2.117,27.25316A9.03834,9.03834,0,0,1,351.8096,55.5944Z"/><path class="cls-52" d="M360.971,292.92753a7.95933,7.95933,0,0,1-4.00543.09081l15.28463,30.6253Z"/><path class="cls-53" d="M337.34168,48.35276a9.01841,9.01841,0,0,1,5.11015-1.799l1.01308-12.9856L344.6361,18.481a29.22977,29.22977,0,0,0-15.828-2.56266c-.00771,0-.46817.07585-.49147.08356a.96517.96517,0,0,1-.67244-.15174,29.67233,29.67233,0,0,0-19.32812-4.452,29.21871,29.21871,0,0,0-4.784.99063l11.64014,12.38108Z"/><path class="cls-54" d="M370.60819,50.81715a7.55622,7.55622,0,0,1,6.2664,4.46764l7.21066-2.476,9.81135-3.371a29.30961,29.30961,0,0,0-25.828-17.04533l2.15409,18.43236C370.35111,50.82879,370.47976,50.80548,370.60819,50.81715Z"/><path class="cls-55" d="M251.00583,57.6423a9.10518,9.10518,0,0,1,4.45207,6.00555l20.39368-2.12,57.87013-6.00936c0-.219-.03035-.4343-.01562-.65728a9.03473,9.03473,0,0,1,2.15414-5.14008L301.11317,12.76657A43.82323,43.82323,0,0,0,274.85394,7.634c-1.06583.12472-2.17656.30281-3.29582.51412L252.73747,53.47043Z"/><path class="cls-56" d="M232.11664,52.75223a6.6981,6.6981,0,0,1-.41571,1.75392l7.95213,5.2608a9.05713,9.05713,0,0,1,7.69464-3.243,9.29259,9.29259,0,0,1,1.79876.33293l15.69246-37.79376,4.30823-10.371a43.72648,43.72648,0,0,0-8.29982,3.0203,1.03978,1.03978,0,0,1-.884,0,1.02,1.02,0,0,0-.09829-.04573L229.66,47.08328A6.58516,6.58516,0,0,1,232.11664,52.75223Z"/><path class="cls-57" d="M492.23619,190.99746l1.72291-.95986a24.1729,24.1729,0,0,0-1.83679-2.98531l.01561.55194Z"/><path class="cls-58" d="M419.10474,159.18316a8.0171,8.0171,0,0,1,.02332,1.05023c-.00766.12865-.05343.25-.06817.37472l1.17119.44572,64.56687,24.63.09832-.623.74062-4.62641a1.02283,1.02283,0,0,1-.20362-.69882,25.545,25.545,0,0,0-5.04177-21.00983l-60.37937.44971Z"/><path class="cls-59" d="M206.06962,29.09373a9.05942,9.05942,0,0,1-1.91266,4.86763L221.34537,47.204a6.54718,6.54718,0,0,1,4.75485-1.52719,6.4651,6.4651,0,0,1,1.19426.21992L253.03222,9.04745a43.80525,43.80525,0,0,0-17.34047-1.43967c-.36216.04176-.71046.102-1.05791.15481l-.30192.0455-28.84453,17.362A8.96787,8.96787,0,0,1,206.06962,29.09373Z"/><path class="cls-60" d="M490.11155,187.12045l-.06748-2.65327a27.385,27.385,0,0,0-2.61523-2.47538l-.75623,4.72381,3.51487,3.48076Z"/><path class="cls-61" d="M472.04679,135.26758a38.04553,38.04553,0,0,0-17.20411-20.14829,1.03607,1.03607,0,0,1-.52162-.85763c-.0224-1.134-.09828-2.27945-.23373-3.42421A37.66755,37.66755,0,0,0,432.44656,80.886a1.01168,1.01168,0,0,1-.55963-.68805,29.5793,29.5793,0,0,0-1.51948-4.72385l-.181-.07586L417.888,70.33377a7.94745,7.94745,0,0,1-1.10365,1.93511L438.712,97.27338Z"/><path class="cls-62" d="M410.99473,132.94326l.0224,17.53987a9.068,9.068,0,0,1,7.80064,6.682l59.805-.45035a25.07283,25.07283,0,0,0-4.07449-3.41962,1.02969,1.02969,0,0,1-.4457-.953,38.23247,38.23247,0,0,0-.0224-8.51883c-.1517-1.25848-.37865-2.55507-.68825-3.95288l-4.39947-5.01959L415.31067,73.65214a8.02832,8.02832,0,0,1-4.39182,1.60211Z"/><path class="cls-63" d="M141.46469,179.36093,191.768,128.25264a8.97128,8.97128,0,0,1-1.23913-12.16977L131.72917,58.1717a9.06342,9.06342,0,0,1-3.80972,1.92718l4.62641,65.59094,3.60523,51.13535A8.98079,8.98079,0,0,1,141.46469,179.36093Z"/><path class="cls-64" d="M424.85725,268.1273a9.06327,9.06327,0,0,1,8.29982,8.55684l45.38983,2.6146-35.39028-30.726L428.674,236.00252a8.96915,8.96915,0,0,1-4.13407,2.22228l.30189,29.9025Z"/><path class="cls-65" d="M41.37229,230.8477l3.24239-30.48458a9.0595,9.0595,0,0,1-7.128-6.357L7.44105,199.48616a75.22341,75.22341,0,0,0-.68034,22.026c.0378.35535.09827.71073.14313,1.05812l.06115.37846,31.11148,38.93456Z"/><path class="cls-66" d="M362.015,375.5295c-.54138-.0376-1.08389-.0455-1.62617-.08576A13.63837,13.63837,0,0,0,362.015,375.5295Z"/><path class="cls-67" d="M38.61281,186.50429a8.91463,8.91463,0,0,1,11.42148-3.25777L120.86758,58.88626a9.1207,9.1207,0,0,1-2.699-2.706L95.62844,66.36166,69.7925,78.02832A75.68724,75.68724,0,0,0,52.0149,110.0471a1.01368,1.01368,0,0,1-.3855.56733,75.7379,75.7379,0,0,0-31.67884,58.59914.84769.84769,0,0,1-.18183.53631c-1.34533,1.94278-2.64494,4.029-3.87019,6.22088l21.64843,10.038Z"/><path class="cls-68" d="M39.28548,265.75351l-.49081.99832-2.91,5.86555a75.10049,75.10049,0,0,0,36.2515,14.83l1.466-.14389,11.05842-1.07289-15.66922-7.0673Z"/><path class="cls-69" d="M198.526,112.43566a9.01809,9.01809,0,0,1,5.10229,2.12091l8.07219-10.50341a9.0681,9.0681,0,0,1-3.4691-7.89109,9.21086,9.21086,0,0,1,.33974-1.84055l-75.1415-38.16065c-.11282.17416-.219.34831-.33974.51389l58.80667,57.91589A9.04144,9.04144,0,0,1,198.526,112.43566Z"/><path class="cls-70" d="M187.49778,336.82891l-4.64819-7.82282H170.84581A81.04364,81.04364,0,0,0,187.49778,336.82891Z"/><path class="cls-71" d="M224.35409,102.60185a8.95982,8.95982,0,0,1-10.91527,2.49848l-8.41262,10.95616a9.00563,9.00563,0,0,1,1.82888,6.176l23.62136,1.64331,7.04639-14.09366Z"/><path class="cls-72" d="M211.59522,300.64525a8.54907,8.54907,0,0,1-.031-1.70815,8.99981,8.99981,0,0,1,1.41415-4.10458l-5.5172-4.4338-6.52417,12.617Z"/><path class="cls-73" d="M126.52861,42.23785a9.025,9.025,0,0,1,4.76251,1.84448L141.238,32.5969a72.34036,72.34036,0,0,0-18.85128,8.26962l.82351,1.7385A8.90605,8.90605,0,0,1,126.52861,42.23785Z"/><path class="cls-74" d="M134.17046,47.869l26.56889-8.32929,27.56719-8.64722a8.86632,8.86632,0,0,1-.355-3.2657,9.06392,9.06392,0,0,1,8.65417-8.30287l.42329-4.00236c-1.36752.08289-2.774.20364-4.17186.37009a72.90444,72.90444,0,0,0-35.35246,14.13874.94535.94535,0,0,1-.544.20054c-1.54258.08288-3.0691.19593-4.61081.37779a75.258,75.258,0,0,0-7.69528,1.33059L132.75729,45.47342A8.97026,8.97026,0,0,1,134.17046,47.869Z"/><path class="cls-75" d="M49.29344,199.96994a8.98947,8.98947,0,0,1-2.66031.52159l-1.18723,11.1644-5.54052,52.15543,16.08482,7.26346,30.56044,13.78757L57.41139,218.47428Z"/><polygon class="cls-76" points="326.867 200.393 322.952 224.872 327.625 234.229 326.867 200.393"/><path class="cls-77" d="M326.775,178.23087a8.82266,8.82266,0,0,1,1.5417-.03012,8.937,8.937,0,0,1,1.82207.34041L351.68117,114.36l2.411-7.18446a9.07407,9.07407,0,0,1-4.66336-7.63485l-28.78414-1.7229a9.06348,9.06348,0,0,1-6.39483,7.16186l2.3815,13.9307Z"/><path class="cls-78" d="M304.03056,91.521a9.04854,9.04854,0,0,1,8.43591-4.30823,8.83483,8.83483,0,0,1,3.91506,1.29193l20.12895-26.38a9.04058,9.04058,0,0,1-2.57746-4.5953l-78.27089,8.12572a6.50762,6.50762,0,0,1,.01562.661,8.751,8.751,0,0,1-.48378,2.18908Z"/><path class="cls-79" d="M134.11792,176.80969l-8.2092-116.46441c-.27949.00374-.559.0409-.84615.01848a8.90261,8.90261,0,0,1-2.38853-.56646L51.76486,184.28905a9.10808,9.10808,0,0,1,3.33388,5.55986l54.03-2.89493,16.97651-.911c-.007-.31339-.04477-.62384-.02239-.94513A9.09617,9.09617,0,0,1,134.11792,176.80969Z"/><path class="cls-80" d="M318.95892,184.45158a9.09082,9.09082,0,0,1,1.089-2.192l-.99066-1.1107-40.562-45.35733,19.948,39.96855Z"/><path class="cls-81" d="M320.41018,179.63735l.9449,1.0579a9.03625,9.03625,0,0,1,3.43216-2.07888l-12.53978-73.30848a8.46437,8.46437,0,0,1-1.2477.02309,8.9854,8.9854,0,0,1-5.6164-2.62315l-30.91271,25.01992.598,1.19864Z"/><path class="cls-82" d="M189.0698,32.7748l-54.332,17.037a9.11961,9.11961,0,0,1,.12072,2.22976,9.26473,9.26473,0,0,1-.52931,2.30209L209.38,92.45842a9.10966,9.10966,0,0,1,4.4298-3.91569l-6.002-19.38836L197.9741,37.39264a8.787,8.787,0,0,1-1.70045.03409A9.07811,9.07811,0,0,1,189.0698,32.7748Z"/><path class="cls-83" d="M403.47359,71.23726,366.413,94.81287a8.98367,8.98367,0,0,1-1.45131,10.72176l26.18338,29.736L405.54489,151.628a9.06713,9.06713,0,0,1,3.45456-1.15247l-.09828-75.372A8.06039,8.06039,0,0,1,403.47359,71.23726Z"/><path class="cls-84" d="M206.4472,124.23161a9.24665,9.24665,0,0,1-.69511,1.62482l18.13712,11.19516,5.60784-11.21649Z"/><path class="cls-85" d="M357.73541,108.29388a9.23526,9.23526,0,0,1-1.77634-.325l-8.95687,26.70124-14.99664,44.6761a9.10872,9.10872,0,0,1,4.60309,6.81745l59.24537-13.333-14.81444-27.95994-19.6307-37.04192A9.011,9.011,0,0,1,357.73541,108.29388Z"/><path class="cls-86" d="M263.61233,267.008l38.67973,16.83424.544.23373a9.1181,9.1181,0,0,1,2.08131-2.56377l-7.30066-14.5042Z"/><path class="cls-87" d="M325.50484,196.0773a9.03991,9.03991,0,0,1-4.78429-2.8723l-11.22844,4.69373,11.90832,23.85993Z"/><path class="cls-88" d="M356.97233,275.29309a8.89184,8.89184,0,0,1,2.58514-.20428,8.98559,8.98559,0,0,1,5.51017,2.51715L395.718,251.989l19.88736-16.62113a9.06926,9.06926,0,0,1-2.19988-6.682,8.7273,8.7273,0,0,1,.29511-1.61778l-79.28387-33.85541a9.06038,9.06038,0,0,1-3.59069,2.50154l18.14908,55.23936Z"/><path class="cls-89" d="M148.15463,308.19586a80.93416,80.93416,0,0,0,8.73011,10.008l12.85718-7.29427-7.74786-.97434Z"/><polygon class="cls-90" points="188.429 312.55 189.212 310.99 190.981 307.479 191.982 305.486 202.004 285.557 202.803 283.975 210.555 268.561 211.677 266.329 211.939 265.808 213.548 262.61 215.156 259.412 215.169 259.412 218.741 259.412 222.323 259.412 223.308 259.412 225.188 259.412 229.528 259.412 281.985 259.412 294.079 259.412 295.061 259.412 276.264 221.879 275.759 220.875 274.323 218.006 273.338 218.006 244.132 218.006 243.15 218.006 239.562 218.006 236.003 218.006 235.981 218.006 237.592 214.808 239.201 211.607 251.27 187.62 254.973 180.253 253.438 177.291 232.335 136.56 232.335 136.56 225.853 149.528 225.386 150.452 221.293 158.638 220.941 159.348 199.234 202.762 194.812 211.607 193.21 214.808 191.611 218.006 184.796 231.635 184.192 232.844 184.192 232.844 183.156 234.916 175.094 251.04 174.384 252.466 172.097 257.033 170.908 259.412 169.309 262.61 167.713 265.808 164.455 272.322 163.377 274.464 162.363 276.498 162.302 276.619 159.744 281.742 152.447 296.334 139.691 321.843 173.703 321.843 183.75 321.843 185.193 318.985 186.114 317.149 188.429 312.55"/><path class="cls-91" d="M381.92343,365.36919a9.08479,9.08479,0,0,1,2.50324.38934l-26.65222-36.75247H351.787l21.6852,41.95709A9.18043,9.18043,0,0,1,381.92343,365.36919Z"/><polygon class="cls-92" points="383.881 355.318 374.22 329.007 360.278 329.007 388.515 367.94 383.881 355.318"/><path class="cls-93" d="M349.50805,329.00609H328.82372l-5.51537-10.957-8.73356,33.68481a50.39809,50.39809,0,0,0,11.127,14.64468c11.0415,2.10649,21.55345,6.23315,32.66526,8.60457.6886.1469,3.70892.49246,3.648.54626.93077.06475,1.86022.14951,2.79635.1477.76306.00052,1.52514-.03,2.28669-.07731l.25547-.04763c1.40915-.43413,2.83576-.85779,4.24777-1.283.38523-.116.76428-.21106,1.14293-.30563Z"/><polygon class="cls-94" points="392.966 373.511 424.586 376.149 418.258 375.621 392.966 373.511"/><path class="cls-95" d="M401.8032,313.66105l-10.63576-16.43247L392.967,373.511l25.29121,2.1093,6.32659.5286a49.56906,49.56906,0,0,0,13.09956-7.05972Z"/><path class="cls-96" d="M321.5374,419.05979a15.60814,15.60814,0,0,0-12.00623,0,13.97855,13.97855,0,0,0-4.80248,3.25884,18.27305,18.27305,0,0,0-3.25882,4.8025,14.44861,14.44861,0,0,0-1.20065,6.00311V474.117a14.44866,14.44866,0,0,0,1.20065,6.00312,15.42963,15.42963,0,0,0,8.0613,8.06134,15.24631,15.24631,0,0,0,16.80871-3.25884,15.83963,15.83963,0,0,0,3.25882-4.8025,14.44866,14.44866,0,0,0,1.20065-6.00312v-40.8212a14.44866,14.44866,0,0,0-1.20065-6.00312,15.83958,15.83958,0,0,0-3.25882-4.80249A12.30577,12.30577,0,0,0,321.5374,419.05979Z"/><polygon class="cls-96" points="22.754 467.599 48.481 467.599 35.617 409.798 22.754 467.599"/><path class="cls-97" d="M36.30353,393.16062H29.0998L2,515.10967H12.46259l8.23285-36.8763H50.88256l8.23285,36.8763H69.578L42.4782,393.16062ZM22.75362,468.11384l12.86383-57.80145,12.86382,57.80145Z"/><path class="cls-97" d="M114.85862,415.11488a26.82257,26.82257,0,0,0-8.06132-5.48856,26.24221,26.24221,0,0,0-20.06756,0,24.02561,24.02561,0,0,0-8.06133,5.48856,26.82292,26.82292,0,0,0-5.48856,8.06133,24.60661,24.60661,0,0,0-2.0582,9.948V474.117a25.44875,25.44875,0,0,0,7.54676,18.00935,26.82238,26.82238,0,0,0,8.06133,5.48856,24.60648,24.60648,0,0,0,9.948,2.05821,25.44882,25.44882,0,0,0,18.00935-7.54677,26.82251,26.82251,0,0,0,5.48856-8.06132,24.60648,24.60648,0,0,0,2.05821-9.948v-2.22973H112.11433V474.117a14.44863,14.44863,0,0,1-1.20062,6.00312,13.97935,13.97935,0,0,1-3.25882,4.8025,15.83932,15.83932,0,0,1-4.8025,3.25884,16.14251,16.14251,0,0,1-12.00624,0,15.42957,15.42957,0,0,1-8.06132-8.06134,14.44863,14.44863,0,0,1-1.20062-6.00312v-40.8212a14.44863,14.44863,0,0,1,1.20062-6.00312,13.97921,13.97921,0,0,1,3.25882-4.80249,15.83932,15.83932,0,0,1,4.8025-3.25884,16.14251,16.14251,0,0,1,12.00624,0,13.97879,13.97879,0,0,1,4.8025,3.25884,15.83922,15.83922,0,0,1,3.25882,4.80249,14.44863,14.44863,0,0,1,1.20062,6.00312v2.22973h10.11953v-2.22973a24.02284,24.02284,0,0,0-2.0582-9.948A24.32331,24.32331,0,0,0,114.85862,415.11488Z"/><path class="cls-97" d="M170.77339,473.6024a14.44865,14.44865,0,0,1-1.20064,6.00312,13.97937,13.97937,0,0,1-3.25883,4.8025,15.83925,15.83925,0,0,1-4.80247,3.25884,13.92029,13.92029,0,0,1-6.00312,1.20062,14.44863,14.44863,0,0,1-6.00312-1.20062,13.97879,13.97879,0,0,1-4.8025-3.25884,15.83927,15.83927,0,0,1-3.25882-4.8025,14.44863,14.44863,0,0,1-1.20062-6.00312V408.08266H130.12374V473.6024a25.4488,25.4488,0,0,0,7.54676,18.00936,26.82274,26.82274,0,0,0,8.06133,5.48856,24.90193,24.90193,0,0,0,20.58214-.34305,29.99317,29.99317,0,0,0,4.631-2.74428v4.28794H181.0645V408.08266H170.945V473.6024Z"/><path class="cls-97" d="M274.88458,415.62944a26.82209,26.82209,0,0,0-8.06135-5.48856,24.60646,24.60646,0,0,0-9.948-2.05822,25.04463,25.04463,0,0,0-13.20688,3.60187,23.9611,23.9611,0,0,0-7.20376,6.51767,26.197,26.197,0,0,0-7.20376-6.51767,25.04429,25.04429,0,0,0-13.20688-3.60187,24.64484,24.64484,0,0,0-10.63412,2.22973,20.63527,20.63527,0,0,0-4.631,2.74428v-4.28794H190.66929v90.04676h10.11953V433.6388a14.44862,14.44862,0,0,1,1.20065-6.00312,13.97935,13.97935,0,0,1,3.25882-4.8025,18.27193,18.27193,0,0,1,4.80248-3.25883,16.14239,16.14239,0,0,1,12.00623,0,13.9783,13.9783,0,0,1,4.80248,3.25883,15.83963,15.83963,0,0,1,3.25882,4.8025,14.44862,14.44862,0,0,1,1.20065,6.00312v65.51975h10.11953V433.6388a14.44861,14.44861,0,0,1,1.20064-6.00312,15.83966,15.83966,0,0,1,3.25883-4.8025,16.67289,16.67289,0,0,1,4.974-3.25883,15.70089,15.70089,0,0,1,11.83471,0,13.97835,13.97835,0,0,1,4.80247,3.25883,15.83966,15.83966,0,0,1,3.25883,4.8025,14.44877,14.44877,0,0,1,1.20064,6.00312v65.51975h10.11953V433.6388a24.02246,24.02246,0,0,0-2.05823-9.948A20.9635,20.9635,0,0,0,274.88458,415.62944Z"/><path class="cls-97" d="M333.71517,415.11488a26.82209,26.82209,0,0,0-8.06135-5.48856,26.24228,26.24228,0,0,0-20.06759,0,24.02609,24.02609,0,0,0-8.06135,5.48856,26.82392,26.82392,0,0,0-5.48859,8.06133,24.607,24.607,0,0,0-2.05823,9.948V474.117a25.44881,25.44881,0,0,0,7.54682,18.00935,26.82172,26.82172,0,0,0,8.06135,5.48856,24.60627,24.60627,0,0,0,9.948,2.05821,25.449,25.449,0,0,0,18.00936-7.54677,26.82366,26.82366,0,0,0,5.48858-8.06132,24.607,24.607,0,0,0,2.05824-9.948v-40.8212a24.02223,24.02223,0,0,0-2.05824-9.948A24.32276,24.32276,0,0,0,333.71517,415.11488Zm-2.7443,18.18088V474.117a14.44865,14.44865,0,0,1-1.20064,6.00312,13.97924,13.97924,0,0,1-3.25883,4.8025,15.83943,15.83943,0,0,1-4.80247,3.25884,13.9204,13.9204,0,0,1-6.00312,1.20061,14.4487,14.4487,0,0,1-6.00311-1.20061,13.97846,13.97846,0,0,1-4.80248-3.25884,15.83945,15.83945,0,0,1-3.25882-4.8025,14.44866,14.44866,0,0,1-1.20065-6.00312v-40.8212a14.44866,14.44866,0,0,1,1.20065-6.00312,13.97908,13.97908,0,0,1,3.25882-4.80249,15.83935,15.83935,0,0,1,4.80248-3.25884,15.608,15.608,0,0,1,12.00623,0,13.97827,13.97827,0,0,1,4.80247,3.25884,18.2728,18.2728,0,0,1,3.25883,4.80249A17.01072,17.01072,0,0,1,330.97087,433.29576Z"/><path class="cls-97" d="M392.37418,415.11488a25.46194,25.46194,0,0,0-28.12894-5.48856,24.02609,24.02609,0,0,0-8.06135,5.48856,26.82373,26.82373,0,0,0-5.48859,8.06133,24.607,24.607,0,0,0-2.05823,9.948,19.25862,19.25862,0,0,0,2.22971,9.09043,25.57,25.57,0,0,0,5.66006,6.68919,46.91328,46.91328,0,0,0,7.37524,5.14553c2.74429,1.54366,5.317,2.9158,7.88982,4.11643,2.40124,1.20062,4.80247,2.57276,7.03223,3.77339a36.059,36.059,0,0,1,5.66007,3.77338,13.56678,13.56678,0,0,1,3.60188,4.11643,7.92025,7.92025,0,0,1,1.20064,4.45946,14.44863,14.44863,0,0,1-1.20064,6.00311,13.97928,13.97928,0,0,1-3.25883,4.8025,18.27208,18.27208,0,0,1-4.80247,3.25884,16.14251,16.14251,0,0,1-12.00624,0,15.83863,15.83863,0,0,1-4.80247-3.25884,18.27309,18.27309,0,0,1-3.25883-4.8025,14.44879,14.44879,0,0,1-1.20064-6.00311v-2.22974h-9.9479V474.117a25.44881,25.44881,0,0,0,7.54682,18.00935,26.82172,26.82172,0,0,0,8.06135,5.48856,24.60627,24.60627,0,0,0,9.948,2.05821,25.449,25.449,0,0,0,18.00936-7.54677,26.82366,26.82366,0,0,0,5.48858-8.06132,24.607,24.607,0,0,0,2.05824-9.948,19.78624,19.78624,0,0,0-2.22971-9.09044,28.48878,28.48878,0,0,0-5.48859-6.68919,47.6714,47.6714,0,0,0-7.37524-5.317c-2.57276-1.37214-5.317-2.9158-7.88982-4.11642h0c-2.40124-1.20063-4.80247-2.40125-6.86071-3.43036a48.71977,48.71977,0,0,1-5.83159-3.77339,16.24823,16.24823,0,0,1-3.77341-3.9449,7.92031,7.92031,0,0,1-1.20064-4.45946,14.44884,14.44884,0,0,1,1.20064-6.00312,15.42975,15.42975,0,0,1,8.0613-8.06133,16.14251,16.14251,0,0,1,12.00624,0,13.97837,13.97837,0,0,1,4.80247,3.25884,15.83961,15.83961,0,0,1,3.25883,4.80249,14.44868,14.44868,0,0,1,1.20064,6.00312v2.22973H399.921v-2.22973a24.02242,24.02242,0,0,0-2.05823-9.948A27.6555,27.6555,0,0,0,392.37418,415.11488Z"/><rect class="cls-1" x="491.33989" y="392.98911" width="10.11953" height="122.12056"/><path class="cls-1" d="M450.00412,393.16062h-7.20371L415.70064,515.10967h10.46259l8.23282-36.8763h30.18712l8.23283,36.8763h10.46259L456.17882,393.16062Zm-13.54989,74.95322,12.86383-57.80145,12.86382,57.80145Z"/></svg>