<svg id="Layer_1" data-name="Layer 1" xmlns="http://www.w3.org/2000/svg" viewBox="0 0 123.08578 94.69068"><defs><style>.cls-1{fill:none;}.cls-2{fill:#fff;}</style></defs><path class="cls-1" d="M62.56835,41.068V53.63184L82.17767,40.25056a2.25523,2.25523,0,0,0,0-3.72767L75.70318,32.1048Z"/><polygon class="cls-1" points="60.952 22.039 49.064 30.151 60.952 38.263 72.84 30.151 60.952 22.039"/><path class="cls-1" d="M39.72625,36.52289a2.23926,2.23926,0,0,0-.7926.94672v.4596H38.787a2.24943,2.24943,0,0,0,.93927,2.32135L59.3355,53.63184V41.068L46.20062,32.1048Z"/><polygon class="cls-1" points="38.934 33.156 43.337 30.151 38.934 27.146 38.934 33.156"/><path class="cls-1" d="M82.17767,23.77882a2.25534,2.25534,0,0,0,0-3.72779L62.56835,6.66981v12.5639l13.13483,8.9632Z"/><path class="cls-1" d="M38.93365,22.832a2.23956,2.23956,0,0,0,.7926.94684l6.47437,4.41809,13.13488-8.9632V6.66981L39.72625,20.051a2.23453,2.23453,0,0,0-.93927,1.40631h.14667Z"/><path class="cls-2" d="M15.7373,72.07105a6.41308,6.41308,0,0,0-2.41663-1.92291,8.01117,8.01117,0,0,0-3.40411-.67566,6.93535,6.93535,0,0,0-5.7168,2.46863q-2.00088,2.44263-2.00091,6.99011a14.91652,14.91652,0,0,0,.46777,3.87183,8.67113,8.67113,0,0,0,1.40326,2.98828,6.41234,6.41234,0,0,0,2.41662,1.923,8.07834,8.07834,0,0,0,3.43006.67554,6.93827,6.93827,0,0,0,5.69079-2.44257q2.02689-2.46872,2.02686-7.01605a14.91329,14.91329,0,0,0-.46777-3.87183A8.40451,8.40451,0,0,0,15.7373,72.07105ZM12.8529,83.73853a3.378,3.378,0,0,1-2.93634,1.48114,3.331,3.331,0,0,1-1.793-.46777,3.74353,3.74353,0,0,1-1.24725-1.29926,6.784,6.784,0,0,1-.70166-1.97485,12.99736,12.99736,0,0,1-.23383-2.54657,8.52412,8.52412,0,0,1,1.03943-4.75537,3.34373,3.34373,0,0,1,2.93634-1.53308,3.29453,3.29453,0,0,1,1.845.49371,3.48008,3.48008,0,0,1,1.22131,1.32526,6.63486,6.63486,0,0,1,.6756,2.00079,12.31587,12.31587,0,0,1,.23389,2.46869A8.56558,8.56558,0,0,1,12.8529,83.73853Z"/><path class="cls-2" d="M26.90893,74.66956a5.0116,5.0116,0,0,0-2.26068.46771,4.34086,4.34086,0,0,0-1.58515,1.4552h-.10388l-.38983-1.55914H20.10076V93.22321h3.37812V87.89612a4.13577,4.13577,0,0,0,1.03936.36384,5.603,5.603,0,0,0,1.32526.12988,6.05944,6.05944,0,0,0,2.52063-.49372,4.91651,4.91651,0,0,0,1.871-1.42919,6.22693,6.22693,0,0,0,1.16937-2.26069,10.86342,10.86342,0,0,0,.38977-3.01428q0-3.43011-1.22131-4.96325A4.36847,4.36847,0,0,0,26.90893,74.66956Zm.67566,9.84851a2.51114,2.51114,0,0,1-2.1828,1.01343,3.49939,3.49939,0,0,1-1.14337-.15594,3.58428,3.58428,0,0,1-.77954-.46766v-5.405a3.28652,3.28652,0,0,1,.85754-1.48121A2.30563,2.30563,0,0,1,25.8955,77.528a1.998,1.998,0,0,1,1.845.93549,5.10487,5.10487,0,0,1,.57172,2.65051A6.0939,6.0939,0,0,1,27.58459,84.51807Z"/><path class="cls-2" d="M43.33276,75.787a4.47422,4.47422,0,0,0-1.66309-.85754,7.14839,7.14839,0,0,0-1.92285-.25989,6.05635,6.05635,0,0,0-4.59943,1.71509,7.19534,7.19534,0,0,0-1.637,5.14508,7.93293,7.93293,0,0,0,1.45514,5.04114,5.53881,5.53881,0,0,0,4.59943,1.819,9.4112,9.4112,0,0,0,2.83233-.41571,6.781,6.781,0,0,0,2.1308-1.06543L43.41064,84.7a5.5231,5.5231,0,0,1-1.29926.6756,5.37726,5.37726,0,0,1-1.89685.31182,3.28132,3.28132,0,0,1-2.4945-.83154,3.8528,3.8528,0,0,1-.83155-2.46857H44.684a12.27544,12.27544,0,0,0,.18189-1.29925,9.45277,9.45277,0,0,0,.078-1.16937,6.31794,6.31794,0,0,0-.44177-2.52057A4.21873,4.21873,0,0,0,43.33276,75.787Zm-1.53314,4.49543H36.96636a3.91068,3.91068,0,0,1,.75367-2.1048,2.38557,2.38557,0,0,1,1.97485-.80554,1.876,1.876,0,0,1,1.6629.75354A3.21742,3.21742,0,0,1,41.79962,80.28242Z"/><path class="cls-2" d="M57.62036,75.787a2.91888,2.91888,0,0,0-1.27332-.85754,5.24513,5.24513,0,0,0-1.715-.25989,4.69874,4.69874,0,0,0-2.54651.62372,5.59949,5.59949,0,0,0-1.58514,1.45514h-.10394l-.38977-1.71509H47.33013V88.02607h3.37812V79.60676a3.06118,3.06118,0,0,1,.93548-1.3772,2.44955,2.44955,0,0,1,1.63709-.57166,1.66785,1.66785,0,0,1,1.53314.7016,4.25434,4.25434,0,0,1,.46771,2.28675v7.37982h3.37817V79.94459A10.33631,10.33631,0,0,0,58.3999,77.424,3.9014,3.9014,0,0,0,57.62036,75.787Z"/><path class="cls-2" d="M73.26141,79.73676a3.79986,3.79986,0,0,0-1.22132-.85754,6.09577,6.09577,0,0,0-1.48114-.44171v-.156a4.58734,4.58734,0,0,0,1.50714-.6236,4.23793,4.23793,0,0,0,1.01349-.98742,3.6553,3.6553,0,0,0,.54566-1.24732,5.18044,5.18044,0,0,0,.18188-1.35125,4.03891,4.03891,0,0,0-.57165-2.23475,3.92651,3.92651,0,0,0-1.53321-1.37725,6.70651,6.70651,0,0,0-2.15673-.6756,14.38862,14.38862,0,0,0-2.46863-.20789q-.75357,0-1.53314.026-.75357.02592-1.48114.078t-1.37726.12994q-.62365.07791-1.11737.15588V87.89612a11.54806,11.54806,0,0,0,1.48114.23389q.83157.078,1.61114.10394.80549.052,1.48114.052h1.14331a10.99385,10.99385,0,0,0,2.62458-.31183A7.18431,7.18431,0,0,0,72.17,87.01264a4.92748,4.92748,0,0,0,1.61114-1.66309,4.81533,4.81533,0,0,0,.5976-2.44256,4.95584,4.95584,0,0,0-.31177-1.845A3.78132,3.78132,0,0,0,73.26141,79.73676ZM64.998,72.61671a7.91282,7.91282,0,0,1,.88355-.07789q.57165-.026,1.24725-.026a6.10357,6.10357,0,0,1,1.14343.10389,2.77737,2.77737,0,0,1,.96143.36383,1.94483,1.94483,0,0,1,.70154.7016,2.17683,2.17683,0,0,1,.25994,1.11743,2.05175,2.05175,0,0,1-.7276,1.637,4.58129,4.58129,0,0,1-1.689.93549,7.495,7.495,0,0,1-.8056.078q-.46775.0259-.83155.02594H64.998Zm5.405,11.27771a2.65893,2.65893,0,0,1-.75354.83154,3.46527,3.46527,0,0,1-1.09143.46771,4.9213,4.9213,0,0,1-1.24726.15588h-.62371q-.33774-.0259-.67554-.02593-.31193-.026-.59772-.052a1.60651,1.60651,0,0,1-.41577-.078v-5.0152h1.897a11.76948,11.76948,0,0,1,1.3512.078,3.46252,3.46252,0,0,1,1.22137.36377,2.194,2.194,0,0,1,.88349.75354A2.363,2.363,0,0,1,70.6889,82.725,2.29342,2.29342,0,0,1,70.403,83.89442Z"/><path class="cls-2" d="M94.82281,85.29761a3.25245,3.25245,0,0,1-.88349.104,1.057,1.057,0,0,1-1.03942-.57172,5.28207,5.28207,0,0,1-.25983-1.94891v-4.9892h3.17017V75.03333H92.64007V71.62928l-3.37811.96149v2.44256H84.50775l-1.975,7.276-.33771,2.0528h-.156l-.46772-2.02686-2.39062-7.30194H75.127l5.43091,12.99274a3.29743,3.29743,0,0,1-.85749,1.819,1.65,1.65,0,0,1-1.14343.51971,2.08621,2.08621,0,0,1-.77948-.15594l-.62366,2.70245a4.49223,4.49223,0,0,0,2.1568.44178,2.50239,2.50239,0,0,0,1.55915-.49372,4.45326,4.45326,0,0,0,1.22125-1.35126,11.36588,11.36588,0,0,0,.98742-2.10479q.46784-1.19541.96149-2.65052l3.429-10.17413v1.31311h1.793v6.54834a4.52444,4.52444,0,0,0,.83154,3.04028,3.4847,3.4847,0,0,0,2.65051.90943,7.79416,7.79416,0,0,0,1.897-.23377,8.58333,8.58333,0,0,0,1.637-.57171l-.59766-2.59857A5.84136,5.84136,0,0,1,94.82281,85.29761Z"/><path class="cls-2" d="M119.26318,82.28333a3.72763,3.72763,0,0,0-1.09137-1.16937,5.9153,5.9153,0,0,0-1.4292-.75354q-.77958-.28592-1.4292-.51978A6.38783,6.38783,0,0,1,114.222,79.295a.86451.86451,0,0,1-.44171-.75354q0-1.1694,1.50708-1.16937a6.68525,6.68525,0,0,1,1.845.25982q.90957.25983,1.5072.49372l.75354-2.44257a7.74529,7.74529,0,0,0-1.87091-.70166,10.61143,10.61143,0,0,0-2.67657-.31183,4.82236,4.82236,0,0,0-3.30011,1.01349,3.717,3.717,0,0,0-1.14331,2.93628,3.76107,3.76107,0,0,0,.44171,1.923,4.3543,4.3543,0,0,0,1.09137,1.22126,5.92073,5.92073,0,0,0,1.4292.75366q.77956.25983,1.42919.51965a5.32058,5.32058,0,0,1,1.09144.57172.96982.96982,0,0,1,.44177.83154,1.03715,1.03715,0,0,1-.46778.96149,2.18,2.18,0,0,1-1.19531.28576,6.69179,6.69179,0,0,1-2.02691-.31182,9.62331,9.62331,0,0,1-1.58509-.6756l-.93548,2.52063a7.6804,7.6804,0,0,0,1.94891.80548,9.05732,9.05732,0,0,0,2.59857.36377,5.501,5.501,0,0,0,3.76782-1.11731,3.97936,3.97936,0,0,0,1.27332-3.11829A3.56055,3.56055,0,0,0,119.26318,82.28333Z"/><path class="cls-2" d="M84.00262,42.91315a5.477,5.477,0,0,0,0-9.05285l-5.43591-3.70941,5.43591-3.70954a5.477,5.477,0,0,0,0-9.05292L61.86443,2.28156a1.61938,1.61938,0,0,0-1.825,0L37.90124,17.38843a5.4691,5.4691,0,0,0-2.20044,5.9762V36.937a5.469,5.469,0,0,0,2.20044,5.97619L60.03942,58.02009a1.61942,1.61942,0,0,0,1.825,0Zm-1.82495-6.39026a2.25523,2.25523,0,0,1,0,3.72767L62.56835,53.63184V41.068l13.13483-8.9632ZM62.56835,6.66981,82.17767,20.051a2.25534,2.25534,0,0,1,0,3.72779l-6.47449,4.41809-13.13483-8.9632ZM39.72625,20.051,59.3355,6.66981v12.5639l-13.13488,8.9632-6.47437-4.41809a2.23956,2.23956,0,0,1-.7926-.94684V21.45734H38.787A2.23453,2.23453,0,0,1,39.72625,20.051Zm3.611,10.09986-4.40356,3.00482V27.14588ZM59.3355,53.63184,39.72625,40.25056a2.24943,2.24943,0,0,1-.93927-2.32135h.14667v-.4596a2.23926,2.23926,0,0,1,.7926-.94672l6.47437-4.41809L59.3355,41.068Zm1.6164-15.36877L49.064,30.15089,60.9519,22.0387l11.88794,8.11219Z"/><path class="cls-2" d="M106.95153,75.787a4.47418,4.47418,0,0,0-1.66308-.85754,7.14928,7.14928,0,0,0-1.92292-.25989,6.05619,6.05619,0,0,0-4.59936,1.71509A7.1951,7.1951,0,0,0,97.129,81.52973a7.93257,7.93257,0,0,0,1.4552,5.04114,5.53874,5.53874,0,0,0,4.59943,1.819,9.41143,9.41143,0,0,0,2.8324-.41571,6.78085,6.78085,0,0,0,2.13086-1.06543L107.02947,84.7a5.52422,5.52422,0,0,1-1.29925.6756,5.37788,5.37788,0,0,1-1.89691.31182,3.28154,3.28154,0,0,1-2.49463-.83154,3.8536,3.8536,0,0,1-.83155-2.46857h7.79566a12.28769,12.28769,0,0,0,.18182-1.29925,9.43928,9.43928,0,0,0,.078-1.16937,6.31671,6.31671,0,0,0-.44178-2.52057A4.2179,4.2179,0,0,0,106.95153,75.787Zm-1.53314,4.49543h-4.83325a3.9112,3.9112,0,0,1,.75354-2.1048,2.38569,2.38569,0,0,1,1.97491-.80554,1.87641,1.87641,0,0,1,1.663.75354A3.217,3.217,0,0,1,105.41839,80.28242Z"/></svg>