<svg id="Layer_1" data-name="Layer 1" xmlns="http://www.w3.org/2000/svg" xmlns:xlink="http://www.w3.org/1999/xlink" viewBox="0 0 1008 1008"><defs><style>.cls-1{fill:url(#linear-gradient);}</style><linearGradient id="linear-gradient" x1="5.84426" y1="509.80015" x2="994.7885" y2="509.80015" gradientUnits="userSpaceOnUse"><stop offset="0" stop-color="#00e6d2"/><stop offset="1" stop-color="#00a5e4"/></linearGradient></defs><title>edl-icon-color</title><path class="cls-1" d="M710.13972,382.44139c-71.84727-.32545-128.119,54.99839-130.34053,125.55922-1.53972,48.90355-33.77287,80.53421-82.99272,81.44144-51.15641.94288-98.13056,34.55241-116.24417,82.81495-5.55443,14.79942-8.9829,29.37353-8.66493,45.71055.5843,30.02158-13.72021,53.47279-40.11168,67.99216-27.145,14.934-55.3609,14.69907-81.37772-2.11676-23.81912-15.39531-36.747-37.98978-37.35295-67.42111-.99893-48.51747-23.32768-85.19391-64.61125-110.25294-18.40311-11.17072-38.69522-16.42718-60.2566-16.76461C40.819,588.66308,5.97156,554.962,5.8446,509.83761,5.71789,464.8,40.583,431.00494,87.99891,430.20487c64.81316-1.09362,119.54253-52.62071,124.58145-117.178.89812-11.5065.67555-23.12933,4.24587-34.36387A79.26753,79.26753,0,0,1,292.663,223.31657c35.13556-.042,63.24581,20.553,74.09848,54.28828,17.39536,54.07319-16.79332,102.63243-73.77311,104.78223-59.80654,2.25648-107.29811,37.96168-122.88879,92.39053a126.6663,126.6663,0,0,0,48.561,138.30024c41.41766,29.21788,86.05283,32.427,130.79055,10.25677,45.15859-22.37877,68.91469-60.71285,70.75155-111.33935,1.77548-48.9334,33.64354-81.05565,82.59831-81.81241,68.74014-1.06256,123.17622-56.82332,124.71792-127.347.67843-31.03284,14.41129-54.99575,41.83709-69.84635,26.94653-14.59111,54.29952-13.35019,80.34671,2.4566,24.35915,14.78245,34.629,37.73833,35.90507,65.691,3.34226,73.20682,57.3942,127.59571,127.78709,129.01374,32.60442.65679,57.59262,14.57236,72.28631,43.8688,14.16065,28.23382,11.62895,56.2554-6.34707,82.21288-15.21356,21.96861-37.29915,32.19152-63.54626,33.14368-66.59237,2.41578-112.99786,42.114-127.75452,107.1585-3.422,15.08375-.58328,30.0484-6.11721,45.50379-9.80933,27.39625-33.90121,50.56446-64.49592,53.61526-47.06492,4.693-87.03864-28.04578-89.95452-73.67348-2.95163-46.18723,33.00527-84.10368,80.67309-85.06944,66.02166-1.33763,120.82484-51.2666,126.45855-115.21125,5.79031-65.7221-39.44506-125.14757-104.843-137.41638C722.47612,382.91779,714.9509,382.86936,710.13972,382.44139Z"/></svg>