<?xml version="1.0" encoding="UTF-8"?><svg id="TEMPLATE_delete_" xmlns="http://www.w3.org/2000/svg" viewBox="0 0 500 500"><path d="m397.16042,296.30498L256.82133,56.35697c-3.13779-5.36484-10.89159-5.36484-14.02953,0l-119.26259,203.9121c-2.09756,3.58609,1.68565,7.72846,5.44675,5.9637,1.54304-.72408,3.32577-1.45538,5.28102-2.18492l-.03771.08014s3.25801-1.26254,8.76236-3.00741c6.06978-1.8645,12.71838-3.62822,18.7388-5.12073,16.8444-3.88972,38.91707-7.05432,58.82103-3.75035,18.31496,3.04012,31.07252,7.95165,40.36229,12.77775,4.26111,2.21365,8.28327-3.34699,4.83979-6.69368-13.32136-12.94628-33.8177-28.5713-64.99422-35.12134-1.36478-.28669-2.04879-1.82619-1.3446-3.0301l46.95343-80.2807c1.5426-2.63734,5.35438-2.63734,6.89698,0l89.67316,153.32101c1.88866,3.22913.30613,7.3525-3.24165,8.53888-7.02663,2.34992-15.42216,4.10643-24.8183,4.10643-5.9777,0-11.99076-.70464-18.01943-2.1064-.00265-.00044-17.37681-2.74135-40.60507-16.59911-23.22517-13.85569-68.00974-31.5326-118.26081-2.91519-21.40958,13.75787-35.6763,32.57696-43.19454,44.38946-1.17665,1.84873.85667,4.05693,2.78967,3.02421,17.26559-9.22421,63.81801-31.00725,105.76518-23.17729,24.93365,4.65417,53.42569,23.47488,83.04459,34.26835h0c48.99958,18.15776,97.03774-12.26256,97.13909-12.32694,5.08051-3.35612,8.06229-5.90816,8.56996-6.35116l.61286-.53492c7.82835-6.83275,9.69638-18.26442,4.45057-27.23377Z"/><g><path d="m7.41116,427.75268v-52.57028c0-.51111.17827-.94776.53706-1.30656.3588-.35767.79431-.53819,1.30656-.53819h20.98388c8.04243,0,14.62711,2.35812,19.7518,7.07098,2.76656,2.56347,4.86743,5.61097,6.30261,9.1459,1.43292,3.53605,2.15052,7.50762,2.15052,11.91358,0,4.40709-.71759,8.38994-2.15052,11.95082-1.43518,3.562-3.53605,6.62305-6.30261,9.18426-2.56347,2.30622-5.49476,4.04829-8.80064,5.22623-3.30362,1.17906-6.95476,1.76803-10.95116,1.76803H9.25478c-.51224,0-.94776-.1794-1.30656-.53819-.3588-.35767-.53706-.79319-.53706-1.30656Zm17.06196-12.2972h5.76555c1.43292,0,2.92001-.17827,4.45673-.53819,1.53673-.35767,2.92001-1.0369,4.14984-2.03656,1.22983-.99853,2.24078-2.40776,3.03735-4.22656.79206-1.8188,1.19147-4.18933,1.19147-7.10934,0-2.92114-.39941-5.29054-1.19147-7.10934-.79657-1.8188-1.82106-3.22803-3.07571-4.22769-1.25466-.99853-2.63794-1.67776-4.14984-2.03656-1.5119-.35767-2.98545-.53819-4.41837-.53819h-5.76555c-.51224,0-.94776.18053-1.30656.53819-.3588.3588-.53706.79544-.53706,1.30656v24.13293c0,.51337.17827.94889.53706,1.30656.3588.35992.79431.53819,1.30656.53819Z"/><path d="m80.42714,389.32435v3.22803c0,.51224.17827.94889.53706,1.30656.3588.3588.79431.53819,1.30656.53819h20.82818c.51224,0,.94776.1794,1.30656.53819s.53706.79431.53706,1.30656v10.6059c0,.51224-.17827.94889-.53706,1.30656-.3588.3588-.79431.53819-1.30656.53819h-20.82818c-.51224,0-.94776.1794-1.30656.53819s-.53706.79431-.53706,1.30656v2.92001c0,.51337.17827.94889.53706,1.30656.3588.3588.79431.53819,1.30656.53819h23.90164c.51224,0,.94776.18053,1.30656.53819.3588.3588.53932.79431.53932,1.30656v10.6059c0,.51337-.18053.94889-.53932,1.30656-.3588.3588-.79431.53819-1.30656.53819h-39.11997c-.51224,0-.94776-.1794-1.30656-.53819-.3588-.35767-.53706-.79319-.53706-1.30656v-52.57028c0-.51111.17827-.94776.53706-1.30656.3588-.35767.79431-.53819,1.30656-.53819h39.11997c.51224,0,.94776.18053,1.30656.53819.3588.3588.53932.79544.53932,1.30656v10.45245c0,.51337-.18053.94889-.53932,1.30656-.3588.35992-.79431.53819-1.30656.53819h-23.90164c-.51224,0-.94776.18053-1.30656.53819-.3588.3588-.53706.79544-.53706,1.30656Z"/><path d="m159.74121,417.30023v10.45245c0,.51337-.18053.94889-.53706,1.30656-.3588.3588-.79431.53819-1.30656.53819h-38.35274c-.56414,0-1.01095-.1794-1.34492-.53819-.33397-.35767-.4987-.79319-.4987-1.30656v-52.57028c0-.51111.16473-.94776.4987-1.30656.33397-.35767.78077-.53819,1.34492-.53819h11.52884c.51224,0,.94776.18053,1.30656.53819.3588.3588.53932.79544.53932,1.30656v38.42833c0,.51337.16473.94889.4987,1.30656.33172.35992.78077.53819,1.34492.53819h23.1344c.51224,0,.94776.18053,1.30656.53819.35654.3588.53706.79544.53706,1.30656Z"/><path d="m195.48084,387.4796h-10.7616c-.51224,0-.94776.18053-1.30656.53819-.3588.3588-.53706.79544-.53706,1.30656v38.42833c0,.51337-.16699.94889-.4987,1.30656-.33397.3588-.78303.53819-1.34492.53819h-11.52884c-.51224,0-.95002-.1794-1.30656-.53819-.3588-.35767-.53932-.79319-.53932-1.30656v-38.42833c0-.51111-.16699-.94776-.4987-1.30656-.33397-.35767-.78077-.53819-1.34492-.53819h-10.91279c-.5145,0-.95002-.17827-1.30656-.53819-.36105-.35767-.53932-.79319-.53932-1.30656v-10.45245c0-.51111.17827-.94776.53932-1.30656.35654-.35767.79206-.53819,1.30656-.53819h40.57998c.56189,0,1.01095.18053,1.34492.53819.33172.3588.4987.79544.4987,1.30656v10.45245c0,.51337-.16699.94889-.4987,1.30656-.33397.35992-.78303.53819-1.34492.53819Z"/><path d="m213.84935,375.10567c.20535-.46147.5506-.8575,1.03802-1.19147.48742-.33284,1.01095-.4987,1.57509-.4987h10.7616c.50999,0,1.01095.16586,1.49837.4987.48516.33397.83042.73,1.03577,1.19147l22.44389,52.26339c.20309.46034.16473.94776-.11509,1.46-.28207.51224-.83493.76836-1.65407.76836h-13.14229c-.56414,0-1.08767-.16586-1.57509-.49983-.48742-.33284-.8575-.73-1.11475-1.19147l-2.07379-4.61131c-.25725-.46034-.62958-.8575-1.11475-1.19147-.48742-.33172-.98838-.4987-1.49837-.4987h-16.218c-.56414,0-1.08993.16699-1.57509.4987-.48742.33397-.83268.73113-1.03802,1.19147l-2.15277,4.61131c-.20535.46147-.5506.85863-1.03577,1.19147-.48742.33397-.98838.49983-1.50062.49983h-13.21901c-.25499,0-.52353-.05077-.8056-.15345s-.51224-.25612-.69277-.46147c-.17827-.20422-.29335-.46147-.34526-.76836-.04964-.30802.02708-.66569.23017-1.07639l22.28818-52.03209Zm4.53571,33.43341h6.83968c.51224,0,.88458-.16586,1.11475-.49983.23017-.33284.21663-.73-.03836-1.19147-.51224-1.28061-1.12829-2.77897-1.84588-4.49622-.71759-1.71612-1.38328-3.31716-1.99707-4.80312-.20535-.46147-.43552-.69164-.69277-.69164s-.48742.23017-.69051.69164l-3.84295,9.29934c-.20535.46147-.20535.85863,0,1.19147.20309.33397.58897.49983,1.15311.49983Z"/><path d="m325.8296,417.30023v10.45245c0,.51337-.18053.94889-.53932,1.30656-.3588.3588-.79431.53819-1.30656.53819h-38.35048c-.56414,0-1.0132-.1794-1.34492-.53819-.33397-.35767-.50096-.79319-.50096-1.30656v-52.57028c0-.51111.16699-.94776.50096-1.30656.33172-.35767.78077-.53819,1.34492-.53819h11.52884c.50999,0,.94776.18053,1.30656.53819.35654.3588.53706.79544.53706,1.30656v38.42833c0,.51337.16699.94889.4987,1.30656.33397.35992.78077.53819,1.34717.53819h23.13214c.51224,0,.94776.18053,1.30656.53819.3588.3588.53932.79544.53932,1.30656Z"/><path d="m349.4988,375.10567c.20535-.46147.5506-.8575,1.03802-1.19147.48742-.33284,1.01095-.4987,1.57509-.4987h10.7616c.50999,0,1.01095.16586,1.49837.4987.48516.33397.83042.73,1.03577,1.19147l22.44389,52.26339c.20309.46034.16473.94776-.11509,1.46-.28207.51224-.83493.76836-1.65407.76836h-13.14229c-.56414,0-1.08767-.16586-1.57509-.49983-.48742-.33284-.8575-.73-1.11475-1.19147l-2.07379-4.61131c-.25725-.46034-.62958-.8575-1.11475-1.19147-.48742-.33172-.98838-.4987-1.49837-.4987h-16.218c-.56414,0-1.08993.16699-1.57509.4987-.48742.33397-.83268.73113-1.03802,1.19147l-2.15277,4.61131c-.20535.46147-.5506.85863-1.03577,1.19147-.48742.33397-.98838.49983-1.50062.49983h-13.21901c-.25499,0-.52353-.05077-.8056-.15345s-.51224-.25612-.69277-.46147c-.17827-.20422-.29335-.46147-.34526-.76836-.04964-.30802.02708-.66569.23017-1.07639l22.28818-52.03209Zm4.53571,33.43341h6.83968c.51224,0,.88458-.16586,1.11475-.49983.23017-.33284.21663-.73-.03836-1.19147-.51224-1.28061-1.12829-2.77897-1.84588-4.49622-.71759-1.71612-1.38328-3.31716-1.99707-4.80312-.20535-.46147-.43552-.69164-.69277-.69164s-.48742.23017-.69051.69164l-3.84295,9.29934c-.20535.46147-.20535.85863,0,1.19147.20309.33397.58897.49983,1.15311.49983Z"/><path d="m424.81874,428.21415l-14.91144-16.67834c-.3588-.40957-.65215-.56302-.88232-.46147-.23243.1038-.34751.4107-.34751.92294v15.7554c0,.51337-.17827.94889-.53706,1.30656-.3588.3588-.79431.53819-1.30656.53819h-11.52884c-.56414,0-1.0132-.1794-1.34492-.53819-.33397-.35767-.4987-.79319-.4987-1.30656v-52.57028c0-.51111.16473-.94776.4987-1.30656.33172-.35767.78077-.53819,1.34492-.53819h11.52884c.51224,0,.94776.18053,1.30656.53819.3588.3588.53706.79544.53706,1.30656v17.67688c0,.51337.1038.80785.30915.88458.20309.07672.46034-.08913.76724-.49983l13.83506-18.36852c.30689-.40957.74241-.75595,1.30656-1.03802.56189-.28094,1.12603-.42198,1.69017-.42198h14.67902c.56414,0,.92294.24371,1.07639.73.15345.48742.07672.93535-.23017,1.34492l-20.21214,25.28604c-.30915.4107-.45131.88345-.42424,1.42164.02482.53819.21889.98725.57768,1.34492,1.73982,1.89552,3.5857,3.8689,5.53312,5.91787,1.94742,2.0501,3.88131,4.11148,5.80165,6.18753,1.9226,2.07492,3.81812,4.12502,5.68882,6.14804,1.86844,2.02415,3.65114,3.90726,5.34131,5.64933.35654.4107.48516.87104.38362,1.38328-.1038.51224-.43552.76836-.99966.76836h-15.90885c-.56414,0-1.13957-.1275-1.72854-.38475-.59122-.25499-1.03802-.58784-1.34492-.99853Z"/><path d="m464.8594,389.32435v3.22803c0,.51224.17827.94889.53932,1.30656.35654.3588.79206.53819,1.30656.53819h20.82818c.50999,0,.9455.1794,1.30656.53819.35654.3588.53706.79431.53706,1.30656v10.6059c0,.51224-.18053.94889-.53706,1.30656-.36105.3588-.79657.53819-1.30656.53819h-20.82818c-.5145,0-.95002.1794-1.30656.53819-.36105.3588-.53932.79431-.53932,1.30656v2.92001c0,.51337.17827.94889.53932,1.30656.35654.3588.79206.53819,1.30656.53819h23.90164c.51224,0,.94776.18053,1.30656.53819.3588.3588.53706.79431.53706,1.30656v10.6059c0,.51337-.17827.94889-.53706,1.30656-.3588.3588-.79431.53819-1.30656.53819h-39.11997c-.51224,0-.95002-.1794-1.30656-.53819-.3588-.35767-.53932-.79319-.53932-1.30656v-52.57028c0-.51111.18053-.94776.53932-1.30656.35654-.35767.79431-.53819,1.30656-.53819h39.11997c.51224,0,.94776.18053,1.30656.53819.3588.3588.53706.79544.53706,1.30656v10.45245c0,.51337-.17827.94889-.53706,1.30656-.3588.35992-.79431.53819-1.30656.53819h-23.90164c-.5145,0-.95002.18053-1.30656.53819-.36105.3588-.53932.79544-.53932,1.30656Z"/></g></svg>