<?xml version="1.0" encoding="UTF-8"?><svg id="Layer_1" xmlns="http://www.w3.org/2000/svg" viewBox="0 0 810.91601 570.81107"><defs><style>.cls-1{fill:#fff;}</style></defs><g><path class="cls-1" d="M209.77733,526.4814c6.97199,.49072,15.2124-6.3794,15.00873-14.92538-.26849-11.27736-.12037-60.14595,0-73.29363,.01854-2.2314,.40739-4.65724,1.3703-6.62939,2.37955-4.84241,7.76825-7.44417,12.1477-6.34237,5.70347,1.43514,9.57375,6.36087,9.59223,12.51807l.12037,97.61682c.15739,7.63861-5.83311,14.23096-13.81429,13.96244-15.97164-.55554-31.98956-.15741-47.97974-.16665-6.48124,0-11.42551-4.5554-11.99031-11.00887-.69442-7.97192-5.84238-13.1847-13.81432-14.00875-6.759-.69442-11.6107-5.93497-11.61994-12.76805-.03704-24.64724-.03704-49.30376,0-73.95101,.00927-6.57384,5.4998-12.44399,11.47182-12.51807,6.14794-.07407,11.50883,5.80535,11.50883,12.70324,.01851,24.43429,.38889,48.86859,0,73.29363-.12037,7.70342,6.72199,16.092,15.33277,15.49944h22.66585v.01854Z"/><path class="cls-1" d="M351.25364,487.9643c0-8.14785,.08336-16.29571-.01854-24.44355-.1111-8.39783-6.38868-14.55503-14.67537-14.5828-7.7127-.01852-15.42534-.02778-23.13804,0-8.31449,.02778-14.6939,6.27755-14.72171,14.55503-.05555,16.29571-.05555,32.5914,0,48.88711,.0278,8.13859,6.30532,14.27727,14.51798,14.31428,7.7127,.03704,15.45314-.39813,23.12877,.12964,7.31457,.49999,15.30502-6.73124,14.98093-15.07352-.31483-7.91638-.06482-15.86054-.06482-23.78617m-75.41393-99.03342c0-6.0183,3.37953-10.81442,8.62005-12.40696,6.59235-2.00918,14.04577,3.54617,14.16614,10.75887,.13891,7.9349,.0278,15.86978,.04628,23.80469,.0278,8.82375,6.15721,14.99945,14.88836,15.01797,7.61081,.00925,15.2124-.02778,22.82326,.00925,7.06456,.03703,12.00879,4.73131,12.52735,11.79587,.49996,6.87012,6.24977,12.65694,13.3236,13.43469,7.62934,.8333,11.93476,5.51832,11.95324,13.11064,.0278,15.64757,.0278,31.30441,0,46.952-.01854,7.37011-4.89795,12.65696-12.04587,13.1847-6.96273,.5185-12.74955,6.3331-13.24025,13.30507-.49075,6.97197-5.32388,11.49959-12.32362,11.49959h-48.25749c-7.45342,0-12.48101-5.08314-12.49028-12.75879,0-.24074,.37959-146.8465,.37959-146.8465"/><path class="cls-1" d="M698.57429,438.40129c.06476,7.81453-5.0368,12.1014-13.02725,12.18474-7.02755,.08333-14.05504-.0463-21.08258,.08333-7.03676,.12037-12.22179,3.91652-12.30509,10.75886-.13891,11.35143-.36111,33.61914-.36111,33.61914,0,13.85135,.37959,27.70269,.36111,41.54479,0,7.12011-5.6109,12.80508-12.09215,12.79584-6.54606,0-11.61994-5.58313-11.6292-12.85139-.01854-16.84198,.04628-63.9236-.0278-70.60854-.09257-8.62005,3.07397-13.44396,11.95324-15.74942,4.23133-1.10181,9.67558-5.85165,10.57367-9.86075,2.07399-9.2404,6.50905-13.57358,14.43468-14.05505,.31483-.01852,21.18442,.16665,21.18442,.16665,7.29603,.42592,11.96257,4.53687,12.02733,11.96252"/><path class="cls-1" d="M83.70785,462.73374c8.44413,.02778,14.40688,5.62017,15.11981,14.09208,.7407,8.90708,7.63861,15.76794,16.48087,16.40681,7.15716,.50924,13.74024,7.00901,13.75874,13.56431,.01851,6.6479-6.74976,13.30507-14.03653,13.80506-8.72192,.61109-15.48092,7.29602-16.21238,16.04571-.69442,8.41636-6.42569,13.67542-14.90687,13.68468H26.02473c-7.92563,0-14.87909-6.32383-14.84205-13.46248,.03704-7.03679,7.03679-13.64764,14.88833-13.70319,15.50869-.1111,54.09987,.01851,57.88677,0,7.87008-.04628,14.94391-5.25906,17.00863-12.44399,1.89807-6.62012-.99995-13.93468-7.71267-18.06415-2.31473-1.42587-5.2961-2.36103-7.99972-2.44435-9.37929-.29629-18.76782-.09259-28.15638-.12037-9.02745-.01852-14.90687-5.46276-15.60129-14.3791-.63887-8.22193-7.88859-15.20315-16.57346-15.99016-7.46269-.66664-13.71246-6.78679-13.73097-13.45321-.02778-6.70346,6.07385-12.73102,13.68468-13.52728,9.63854-1.00922,16.00868-7.71268,16.64755-17.49936,.4259-6.4905,6.68494-12.62917,13.61987-12.68472,20.07333-.14815,40.15594-.18518,60.22927,0,7.20344,.06481,13.99022,7.38862,13.69395,14.00875-.3148,6.8516-7.12938,13.24026-14.4717,13.26804-19.68448,.07407-39.36892-.02778-59.06267,.0463-10.73109,.03703-19.1382,10.66628-16.32348,20.43443,1.98142,6.87012,9.083,12.32362,16.34199,12.37917l28.15638,.02778,.00008,.00925Z"/><path class="cls-1" d="M774.57148,514.45407c0,8.24043-6.68491,14.92538-14.91611,14.92538h-28.82303c-8.24046,0-14.92538-6.68494-14.92538-14.92538v-3.23137c0-8.24043,6.67565-14.92538,14.92538-14.92538h28.82303c8.24046,0,14.91611,6.68494,14.91611,14.92538v3.23137Zm-64.75695-37.94306c-7.76825,.0463-14.03656,6.41643-13.93472,14.21245v22.28622c-.01854,5.4535,4.37018,12.27734,10.29592,12.81434,7.89789,.72219,13.19396,5.97202,13.83277,13.69395,.54624,6.59235,6.72199,9.70336,13.38836,9.70336,15.83273,0,31.67473-.36111,47.48904,.16665,7.44421,.24998,13.68471-6.05534,13.47178-13.67542l-.09257-70.91408c-.00927-7.85156-4.21285-12.49954-11.99026-13.36988-7.03676-.78701-12.84212-6.67569-13.24957-13.43469-.40734-6.78679-5.42571-11.66625-12.21246-11.7218-7.59227-.06482-15.18465-.03703-22.76766,0-7.21274,.02778-12.74028,5.08315-12.68468,11.54588,.05561,6.26829,5.60169,11.19403,12.67541,11.21255,7.70337,.01852,15.40686-.12962,23.0917,.08333,2.27766,.06482,4.76837,.69442,6.74979,1.79623,5.74049,3.21285,8.43486,9.37929,7.02749,15.07352-1.43518,5.79608-7.62007,10.63851-13.96241,10.72183h-.04634l-47.10013-.18518,.01854-.00928Z"/><path class="cls-1" d="M435.75983,474.97403c-5.86091-.48147-11.41627-4.96278-13.01804-10.52739-2.4073-8.34228,4.77758-17.42528,13.94393-17.45307,16.81418-.05555,33.62841,.01852,50.44259-.03703,6.26831-.01852,12.09215-5.47203,12.36064-11.33292,.25928-5.6572-5.54608-11.90697-11.69402-11.97179-17.14754-.1574-34.29502-.13888-51.44256,0-5.91646,.0463-11.26809,5.2961-11.6292,10.8422-.5463,8.3608-5.9905,14.08283-14.22169,14.9439-6.49978,.68517-11.71256,5.83312-11.68475,11.55513v21.70291c0,8.6571,7.01828,15.68462,15.67535,15.69387,0,0,39.57262-.12037,47.59088,.12962,2.31473,.07407,4.86093,.87034,6.83309,2.08326,5.73127,3.52765,8.21266,9.77742,6.58308,15.42537-1.75922,6.14792-7.80526,10.56442-14.52725,10.60146-3.23135,.01851-36.19315-.05555-49.44266,.03704-6.70345,.04628-12.68473,5.69423-12.72175,11.70329-.0278,6.10163,5.9072,11.49032,12.67547,11.49959h49.44266c7.24975,0,12.13843-4.49982,12.73102-11.68475,.62033-7.47196,6.38868-13.1847,13.8421-13.70319,6.23124-.43517,12.00879-6.12015,11.99031-11.79587v-21.91587c0-8.6571-7.01828-15.68462-15.67535-15.69387l-48.05382-.09259v-.0093Z"/><path class="cls-1" d="M597.64278,523.58336c-7.34232-.08333-14.68464,.12964-22.01774,0-7.35159-.12964-12.65693-4.15726-12.85139-11.26811-.49996-17.7401-.29629-46.71126-.22221-65.28465h37.04495c6.36087,0,11.5181-5.4998,11.5181-11.86068s-5.15723-11.5181-11.5181-11.5181h-37.33198c-.01854-9.22189-.04628-25.07316,.03702-32.88769,.09257-8.43488-2.89805-15.06427-12.04587-15.13834-9.083-.06481-12.37917,6.27755-12.24953,14.86056,.12037,7.87008,.08336,23.9158,.05555,33.1562h-12.64766c-6.36087,0-11.5181,5.15723-11.5181,11.5181s5.15723,11.86068,11.5181,11.86068h12.62918c.0278,16.9716,.1111,44.36875-.06482,60.59964-.10183,8.96264,3.21282,13.98096,12.48101,16.37902,4.41652,1.1481,10.11073,6.09236,11.04589,10.24963,2.48138,11.00887,7.40714,14.68464,18.93451,14.57353l16.88826-.10183h.1111c8.3423-.02778,13.74948-4.34244,13.82356-12.47177,.07409-8.12933-5.25906-12.58287-13.60136-12.67547"/></g><path class="cls-1" d="M506.32494,204.14874c-.19764-10.60704-4.45364-14.82349-15.16607-15.06068-4.58539-.10541-20.0809-.03953-23.2564-.06589-10.26444-.09224-11.83244-12.06962-11.85879-19.19806-.01317-3.03058,.02636-20.50253-.01317-24.69265-.11858-12.54397-3.47858-15.99619-15.66678-16.07525-8.20891-.0527-64.05066-.02636-73.26099-.01317h0c-2.58258,0-5.40234-1.35717-7.72139-3.7421-2.75387-2.81976-4.44046-6.66727-4.38776-10.04044,.11858-9.14445,.09223-18.43384,.05271-27.11711-.01318-2.7934,1.42306-5.9294,3.84752-8.40657,2.21364-2.25318,4.94116-3.59716,7.31293-3.59716,17.59054-.0527,125.79545,.21083,125.79545,.21083,4.65128,.06589,8.24844-1.13317,10.68609-3.57082,2.42446-2.41129,3.64988-5.94257,3.64988-10.52797,0-7.22069-.03953-26.45829,0-28.64557,.06589-4.70399-1.12001-8.32751-3.53128-10.79151-2.38493-2.43764-5.88987-3.68941-10.42257-3.68941h-126.16442c-8.80186,0-13.66397,4.91482-13.66397,13.82208,0,5.24423,.09223,24.20512,.09223,27.6837,0,3.54446-1.63388,7.31293-4.40093,10.07997-2.3454,2.3454-5.19152,3.63669-8.01128,3.63669h-.10541c-8.38021-.09224-16.70772-.0527-25.94441,.01317-4.61175,.02636-8.18257,1.30447-10.59386,3.78163-2.39811,2.45082-3.59717,6.00845-3.55764,10.56751,.03953,3.88705-.01317,20.72653,.03953,25.27242,.14494,11.59527,4.00563,15.56137,15.28467,15.71948,4.33505,.0527,19.81736,0,23.24323,.03953,8.40656,.06589,13.76937,6.12704,13.9802,15.79856,.09223,4.38776-.03953,21.22724-.03953,23.71759,0,14.75761,2.9647,17.74866,17.65643,17.74866,7.87951,0,54.31328-.03953,69.66382,.0527,2.68798,0,11.45033,1.40989,11.55574,18.69737,.03953,6.86493,.02636,14.21737-.0527,22.50536-.07906,8.86774-6.71999,15.83808-15.11338,15.87761h-124.50416c-3.80799,.21083-6.61457,1.37036-8.74915,3.49175-2.41129,2.41127-3.64987,5.94259-3.64987,10.52796,0,4.80939-.09223,22.90065-.1713,27.03804-.07906,4.61175,1.08047,8.20893,3.47858,10.68607,2.2927,2.37174,5.56046,3.59718,9.73739,3.59718h125.87451c4.3614-.01319,7.77409-1.2254,10.10633-3.61033s3.50494-5.83715,3.46541-10.26446c0,0-.14494-17.43244-.02636-25.20653,.11858-8.60421,7.02304-15.69314,15.39007-15.81172,5.91623-.07906,22.57124-.01319,24.96934-.01319h.02636c4.62492,0,8.19575-1.25178,10.60704-3.70258,2.39812-2.43765,3.59716-5.98211,3.55763-10.55432-.02636-3.62352,.0527-21.0823-.03953-26.19476"/></svg>