<svg id="Layer_1" data-name="Layer 1" xmlns="http://www.w3.org/2000/svg" viewBox="0 0 2317 574"><defs><style>.cls-1{fill:#fff;}</style></defs><path class="cls-1" d="M724.533,311.55957H670.48413l-13.65356,38.88867H639.03394l50.09423-135.876h16.76075l50.09423,135.876H738.18652Zm-49.05835-14.40723h44.06787L697.791,235.19385h-.56495Z"/><path class="cls-1" d="M771.52466,350.44824v-135.876h16.94922v135.876Z"/><path class="cls-1" d="M938.57129,350.44824H854.39038v-135.876h84.18091v15.25439H871.3396v43.59717h63.7478v15.06592H871.3396v46.7041h67.23169Z"/><path class="cls-1" d="M992.624,313.16016l-23.63427,37.28808H950.81641l33.33349-48.96435-32.76855-48.96436h18.26758l23.54052,36.72363h.37647l23.25781-36.72363h18.26758l-33.05078,48.30518,32.58008,49.62353h-18.17334L993.001,313.16016Z"/><path class="cls-1" d="M1138.29639,301.48389c0,30.69677-16.855,50.65918-41.52539,50.65918-14.03028,0-25.32959-6.87354-31.16748-17.6084h-.377v48.58789h-16.38427v-130.603h15.5371v16.57276h.37647c6.02637-11.01709,17.41992-18.26758,31.63818-18.26758C1121.34717,250.82471,1138.29639,270.78711,1138.29639,301.48389Zm-16.76075,0c0-22.12793-10.92285-36.25244-28.34277-36.25244-16.76074,0-28.06055,14.501-28.06055,36.25244,0,21.8457,11.29981,36.25244,28.06055,36.25244C1110.61279,337.73633,1121.53564,323.70605,1121.53564,301.48389Z"/><path class="cls-1" d="M1155.62646,214.57227h16.38428v135.876h-16.38428Z"/><path class="cls-1" d="M1190.18555,322.76465c0-16.76074,12.90039-27.30713,35.499-28.62549l28.06006-1.60059v-8.19189c0-11.9585-7.90918-19.11523-21.46875-19.11523-12.61768,0-20.52734,5.93261-22.59863,15.5371h-15.81934c1.12988-16.94921,15.63086-29.94384,38.79443-29.94384,22.97559,0,37.47657,12.42968,37.47657,31.9209v67.70263h-15.53662v-16.855h-.37647c-5.83838,11.20508-18.26758,18.54981-31.4502,18.54981C1203.27393,352.14307,1190.18555,340.37305,1190.18555,322.76465Zm63.55908-9.51026v-8.0039l-26.17676,1.60058c-13.18262.84766-20.71582,6.68555-20.71582,15.91358,0,9.32178,7.81543,15.44238,19.58594,15.44238C1241.88037,338.207,1253.74463,327.37842,1253.74463,313.25439Z"/><path class="cls-1" d="M1289.71826,224.83594a10.26368,10.26368,0,1,1,10.26367,10.26367A10.22788,10.22788,0,0,1,1289.71826,224.83594Zm2.07178,27.68359h16.38428v97.92871H1291.79Z"/><path class="cls-1" d="M1330.30371,252.51953h15.44287v15.63135h.37647c5.46142-10.54639,15.91357-17.32617,31.07373-17.32617,21.46875,0,33.898,13.84179,33.898,36.064v63.55957h-16.38428V289.80811c0-15.81934-7.43848-24.48243-22.5044-24.48243-15.44287,0-25.51806,10.92286-25.51806,27.49561v57.627h-16.38428Z"/><path class="cls-1" d="M1427.95361,322.76465c0-16.76074,12.89991-27.30713,35.499-28.62549l28.06006-1.60059v-8.19189c0-11.9585-7.90918-19.11523-21.46875-19.11523-12.61768,0-20.52735,5.93261-22.59864,15.5371H1431.626c1.12988-16.94921,15.63086-29.94384,38.79443-29.94384,22.97559,0,37.47656,12.42968,37.47656,31.9209v67.70263h-15.53662v-16.855h-.37646c-5.83838,11.20508-18.26758,18.54981-31.4502,18.54981C1441.042,352.14307,1427.95361,340.37305,1427.95361,322.76465Zm63.55909-9.51026v-8.0039l-26.17676,1.60058c-13.18262.84766-20.71582,6.68555-20.71582,15.91358,0,9.32178,7.81543,15.44238,19.58593,15.44238C1479.64844,338.207,1491.5127,327.37842,1491.5127,313.25439Z"/><path class="cls-1" d="M1545.56543,333.876h-.37647v16.57226h-15.63085v-135.876h16.38427v54.33154h.37647c6.1206-11.20508,17.51416-18.0791,31.35595-18.0791,24.67041,0,41.33692,19.9624,41.33692,50.65918,0,30.791-16.57227,50.65918-41.61914,50.65918C1563.07959,352.14307,1551.87451,345.17529,1545.56543,333.876Zm.28271-32.39209c0,21.8457,11.77,36.25244,28.34278,36.25244,17.32568,0,28.06006-13.8418,28.06006-36.25244,0-22.22217-10.73438-36.25244-28.06006-36.25244C1557.61816,265.23145,1545.84814,279.73242,1545.84814,301.48389Z"/><path class="cls-1" d="M1634.36426,224.83594a10.26367,10.26367,0,1,1,10.26367,10.26367A10.22788,10.22788,0,0,1,1634.36426,224.83594Zm2.07178,27.68359h16.38427v97.92871H1636.436Z"/><path class="cls-1" d="M1675.79736,214.57227h16.38428v135.876h-16.38428Z"/><path class="cls-1" d="M1713.08691,224.83594a10.26368,10.26368,0,1,1,10.26368,10.26367A10.22788,10.22788,0,0,1,1713.08691,224.83594Zm2.07178,27.68359H1731.543v97.92871h-16.38428Z"/><path class="cls-1" d="M1775.32959,228.88525v23.63428h19.021v13.46533h-19.021v58.19239c0,8.94531,3.7666,12.99414,12.147,12.99414a63.84232,63.84232,0,0,0,6.77979-.47071v13.74756a58.38168,58.38168,0,0,1-10.35791.75342c-17.98487,0-24.95264-7.34473-24.95264-26.17725V265.98486h-14.59521V252.51953h14.59521V228.88525Z"/><path class="cls-1" d="M1812.90234,386.51221V372.76465a34.72912,34.72912,0,0,0,6.40332.4707c9.13379,0,14.21827-4.42529,17.98487-15.81933l2.25976-6.87354-36.1582-98.023h17.51416L1848.0249,334.064h.28272l27.11865-81.54443h17.23144l-38.5122,104.80274c-8.38037,22.88134-16.47852,29.75488-34.18067,29.75488A42.8803,42.8803,0,0,1,1812.90234,386.51221Z"/><path class="cls-1" d="M1973.17139,273.14111h16.29c16.1958,0,27.49511-9.981,27.49511-23.54052,0-13.46485-8.47461-22.59864-25.89453-22.59864-16.00732,0-27.87207,8.47461-28.90771,23.16358h-16.29c1.8833-23.06934,19.77392-37.853,45.19775-37.853,27.21289,0,42.938,15.63086,42.938,35.02832,0,16.855-11.77051,28.437-28.81348,32.01514v.37646c19.77393,1.69531,33.23926,14.03028,33.23926,33.3335,0,23.35205-20.52734,39.64209-47.17529,39.64209-28.15479,0-46.89258-15.7251-48.1167-38.22949h16.29c1.03564,14.40673,13.74756,23.54052,31.82666,23.54052,17.89062,0,29.84912-10.16943,29.94336-24.38818.09424-16.76074-11.86426-26.17676-30.979-26.17676h-17.04345Z"/><path class="cls-1" d="M2057.16846,284.81738c0-45.76269,19.49121-72.59912,52.73047-72.59912,23.06982,0,40.86621,13.46533,45.10351,34.2749H2137.771c-3.95459-12.24072-14.12452-19.30273-28.06006-19.30273-22.69336,0-35.59326,20.15039-36.15821,56.30859h.28223c5.55566-12.24121,19.4917-22.03369,37.94727-22.03369,25.89453,0,45.10351,19.11475,45.10351,44.915,0,26.83643-20.24463,46.42188-48.1167,46.42188C2083.72217,352.80225,2057.16846,335.38232,2057.16846,284.81738Zm82.48584,22.12793c0-17.79638-12.80616-30.60254-30.791-30.60254s-31.26172,12.80616-31.26172,30.13184a31.02726,31.02726,0,0,0,62.05274.4707Z"/><path class="cls-1" d="M2172.52148,282.46338c0-42.56152,18.54981-70.15088,50.09424-70.15088,31.544,0,49.90576,27.40137,49.90576,70.05664,0,42.938-18.26757,70.33887-49.90576,70.33887C2190.88281,352.708,2172.52148,325.40137,2172.52148,282.46338Zm82.95655,0c0-33.42774-11.86426-55.27295-32.86231-55.27295s-33.05078,22.03369-33.05078,55.17871c0,33.89844,11.77,55.55566,33.05078,55.55566C2243.80225,337.9248,2255.478,316.36182,2255.478,282.46338Z"/><path class="cls-1" d="M281.97353,397.21628c.36572-.63769.64893-1.13135.90234-1.64013q27.271-54.7317,54.52637-109.46875c.65576-1.31739,1.334-2.67969,1.17529-2.93653-.15332-.24707-1.60546-.24756-3.00976-.24756l-110.98584.00391,57.167,114.68066Q281.86684,397.4028,281.97353,397.21628Z"/><path class="cls-1" d="M382.60537,261.39988c-9.50586,6.00732-19.335,12.21972-29.03077,18.28564a10.09748,10.09748,0,0,0-3.91015,4.292q-11.01783,22.26049-22.10987,44.48487L320.352,342.92722q-3.81445,7.6626-7.62061,15.3291l-2.32666,4.68311,80.78907-106.96534Z"/><path class="cls-1" d="M240.10878,336.65378q-13.35058-26.80663-26.69043-53.61865a6.06322,6.06322,0,0,0-2.27148-2.59717q-15.61817-9.832-31.209-19.706l-7.59375-4.80176,80.95361,107.208Z"/><path class="cls-1" d="M338.35878,272.8823c1.0293.03027,1.373-.19971,1.46045-.32129.187-.25928-.05322-.97363-.28564-1.66455l-.94629-2.81885c-3.7085-11.04541-7.543-22.4668-11.24707-33.72363-.46924-1.42725-.96094-2.06592-2.626-2.06592h-.01562c-28.94971.06494-57.76856.06543-85.65479.00146-1.6958.01416-2.30029.47168-2.86279,2.21631-1.71289,5.30274-3.51172,10.67432-5.25147,15.86963-1.41992,4.24024-2.83984,8.481-4.23046,12.731-.31885.9751-.66944,1.94189-1.02051,2.90869a41.49774,41.49774,0,0,0-2.01807,6.731l25.48828.01855C278.38808,272.78659,308.62246,272.80954,338.35878,272.8823Z"/><path class="cls-1" d="M396.10537,227.83152q-8.43238-8.65577-16.834-17.33985a2.30594,2.30594,0,0,0-1.65722-.90527,3.17324,3.17324,0,0,0-1.36915.40234c-12.40087,6.11133-25.29345,12.397-38.31933,18.68067-1.3501.65136-1.5586,1.165-1.06494,2.6167,4.22217,12.40576,8.397,24.89843,12.40918,37.13086.20654.62988.45605,1.28759.73974,1.38916.15235.05371.49756.01709,1.26807-.47364q17.67334-11.25219,35.38281-22.4458l15.86475-10.0498a11.17275,11.17275,0,0,0,1.061-.8042c.07325-.05957.14746-.12061.22412-.18262-.03955-.04736-.07812-.09326-.11572-.13867-.26172-.31348-.48779-.58594-.73437-.83936Z"/><path class="cls-1" d="M361.86953,202.52243q-6.29737-3.08642-12.60938-6.14648c-5.981-2.90772-12.166-5.91455-18.22949-8.91309a13.93014,13.93014,0,0,0-6.40479-1.46533h-.03271c-6.36182.01123-12.72461.06006-19.08789.1084-16.38721.125-33.3335.25342-49.98389-.28369-15.79443-.50147-27.40039,2.2041-37.63135,8.79834a14.10647,14.10647,0,0,1-2.08593,1.041c-.36524.15772-.73145.31543-1.08692.48926-4.0039,1.959-8.00586,3.9209-12.17968,5.9668l-4.07715,1.99853c.19873.11036.38769.21582.56884.31641.78077.43555,1.41163.7876,2.06006,1.104q4.91674,2.40089,9.83887,4.791c6.99365,3.40088,14.22559,6.918,21.312,10.43164a15.22124,15.22124,0,0,0,6.98291,1.54785q14.272,0,28.54248.043c16.38477.03711,33.32862.0752,49.99073-.00244h.10449c1.062,0,2.14453.07568,3.19238.1499,2.83984.19922,5.77441.40625,8.4751-.90918,8.53467-4.15527,17.0664-8.31689,25.70166-12.52881l9.80078-4.77978a7.42242,7.42242,0,0,0-2.33008-1.38233C362.41787,202.77536,362.13955,202.65476,361.86953,202.52243Z"/><path class="cls-1" d="M212.85244,222.50779c-8.13135-3.96289-16.53907-8.06055-24.76856-12.17383a4.59453,4.59453,0,0,0-1.99951-.60156,3.39735,3.39735,0,0,0-2.438,1.376c-8.01611,8.44727-15.29687,15.9336-22.25879,22.88672-.90283.90088-1.269,1.45117-1.22461,1.83984.04395.38819.54151.85987,1.6128,1.52832,17.21045,10.74366,34.06787,21.41651,50.105,31.72315,1.01318.65088,1.4834.69385,1.70312.61767.37647-.1333.61914-.86865.8999-1.71972l.03565-.10742q4.64795-14.06689,9.3457-28.11768l2.68115-8.04541c.126-.37646.25879-.751.39161-1.12353l.15918-.44971c.03955-.832-.42432-1.043-1.29883-1.36524a7.20614,7.20614,0,0,1-.68018-.27734Q218.98989,225.49289,212.85244,222.50779Z"/><path class="cls-1" d="M281.86367,91.08127c-113.13062,0-204.84082,91.71045-204.84082,204.84082,0,113.13062,91.7102,204.84107,204.84082,204.84107s204.84106-91.71045,204.84106-204.84107C486.70473,182.79172,394.99428,91.08127,281.86367,91.08127ZM416.62636,239.11814c-34.57861,45.69043-69.6914,92.17968-103.64844,137.13769l-27.03857,35.79688c-1.94971,2.58105-2.92871,3.87646-4.13135,3.87744h-.001c-1.19629,0-2.207-1.33545-4.042-3.75928q-31.29566-41.34009-62.54492-82.71631-8.88794-11.76489-17.76953-23.53515C181.06191,284.206,164.11464,261.7529,147.369,239.729c-1.9458-2.56006-1.85694-4.02344.38037-6.26367,7.65283-7.66407,15.31641-15.57569,22.728-23.22754l4.4165-4.55762a19.02532,19.02532,0,0,1,5.39258-3.98633c19.64111-9.52734,35.481-17.24609,49.84961-24.29053a14.21407,14.21407,0,0,1,6.53955-1.48486c11.521.04541,23.23486.03955,34.562.0332l10.54492-.0039,11.45947.00293c11.0293.00488,22.43311.00927,33.64747-.03614h.07128a14.169,14.169,0,0,1,6.46583,1.49073c15.71191,7.71,32.32177,15.81445,50.7788,24.77734a13.92744,13.92744,0,0,1,3.97071,3.00342l4.83105,4.97558c7.60108,7.832,15.46143,15.93067,23.28076,23.80567C418.10781,235.80027,418.18984,237.05173,416.62636,239.11814Z"/><g id="vhMTIq"><path class="cls-1" d="M382.48285,64.41623c9.17395,4.9366,18.68387,9.34136,27.46989,14.892,89.003,56.22791,132.621,137.1988,122.41023,241.97288C518.41158,464.43674,390.981,555.3868,262.57137,543.09349,137.92252,531.16019,42.50444,427.56759,39.1999,304.79483,35.68908,174.35877,136.44917,62.93668,266.12432,54.445c8.2404-.53962,13.44825.4423,11.83464,10.58553-.92358,5.80563,2.508,6.39354,6.97507,4.30114q19.00059-8.89987,37.96873-17.869c4.72621-2.23875,5.36421-5.17.89969-8.32448q-17.12975-12.10341-34.3992-24.00879c-4.14843-2.87152-7.66494-2.302-7.69293,3.23-.05423,10.72592-6.93531,11.16046-15.07086,12.00347C163.21773,45.07949,87.84575,96.855,45.20082,191.75465-16.89674,329.9432,56.71124,494.06382,200.44811,542.05485c132.90806,44.37554,277.36706-25.1382,324.99245-156.38646,43.78988-120.678-9.49494-256.24834-123.8686-314.94612-5.9183-3.03733-12.207-5.35295-18.32328-8.00459Q382.86574,63.567,382.48285,64.41623Z"/></g></svg>