<svg id="Layer_1" data-name="Layer 1" xmlns="http://www.w3.org/2000/svg" viewBox="0 0 2317 574"><defs><style>.cls-1{fill:#000202;}</style></defs><path class="cls-1" d="M724.533,311.55957H670.48413l-13.65356,38.88867H639.03394l50.09423-135.876h16.76075l50.09423,135.876H738.18652Zm-49.05835-14.40723h44.06787L697.791,235.19385h-.56495Z"/><path class="cls-1" d="M771.52466,350.44824v-135.876h16.94922v135.876Z"/><path class="cls-1" d="M938.57129,350.44824H854.39038v-135.876h84.18091v15.25439H871.3396v43.59717h63.7478v15.06592H871.3396v46.7041h67.23169Z"/><path class="cls-1" d="M992.624,313.16016l-23.63427,37.28808H950.81641l33.33349-48.96435-32.76855-48.96436h18.26758l23.54052,36.72363h.37647l23.25781-36.72363h18.26758l-33.05078,48.30518,32.58008,49.62353h-18.17334L993.001,313.16016Z"/><path class="cls-1" d="M1138.29639,301.48389c0,30.69677-16.855,50.65918-41.52539,50.65918-14.03028,0-25.32959-6.87354-31.16748-17.6084h-.377v48.58789h-16.38427v-130.603h15.5371v16.57276h.37647c6.02637-11.01709,17.41992-18.26758,31.63818-18.26758C1121.34717,250.82471,1138.29639,270.78711,1138.29639,301.48389Zm-16.76075,0c0-22.12793-10.92285-36.25244-28.34277-36.25244-16.76074,0-28.06055,14.501-28.06055,36.25244,0,21.8457,11.29981,36.25244,28.06055,36.25244C1110.61279,337.73633,1121.53564,323.70605,1121.53564,301.48389Z"/><path class="cls-1" d="M1155.62646,214.57227h16.38428v135.876h-16.38428Z"/><path class="cls-1" d="M1190.18555,322.76465c0-16.76074,12.90039-27.30713,35.499-28.62549l28.06006-1.60059v-8.19189c0-11.9585-7.90918-19.11523-21.46875-19.11523-12.61768,0-20.52734,5.93261-22.59863,15.5371h-15.81934c1.12988-16.94921,15.63086-29.94384,38.79443-29.94384,22.97559,0,37.47657,12.42968,37.47657,31.9209v67.70263h-15.53662v-16.855h-.37647c-5.83838,11.20508-18.26758,18.54981-31.4502,18.54981C1203.27393,352.14307,1190.18555,340.37305,1190.18555,322.76465Zm63.55908-9.51026v-8.0039l-26.17676,1.60058c-13.18262.84766-20.71582,6.68555-20.71582,15.91358,0,9.32178,7.81543,15.44238,19.58594,15.44238C1241.88037,338.207,1253.74463,327.37842,1253.74463,313.25439Z"/><path class="cls-1" d="M1289.71826,224.83594a10.26368,10.26368,0,1,1,10.26367,10.26367A10.22788,10.22788,0,0,1,1289.71826,224.83594Zm2.07178,27.68359h16.38428v97.92871H1291.79Z"/><path class="cls-1" d="M1330.30371,252.51953h15.44287v15.63135h.37647c5.46142-10.54639,15.91357-17.32617,31.07373-17.32617,21.46875,0,33.898,13.84179,33.898,36.064v63.55957h-16.38428V289.80811c0-15.81934-7.43848-24.48243-22.5044-24.48243-15.44287,0-25.51806,10.92286-25.51806,27.49561v57.627h-16.38428Z"/><path class="cls-1" d="M1427.95361,322.76465c0-16.76074,12.89991-27.30713,35.499-28.62549l28.06006-1.60059v-8.19189c0-11.9585-7.90918-19.11523-21.46875-19.11523-12.61768,0-20.52735,5.93261-22.59864,15.5371H1431.626c1.12988-16.94921,15.63086-29.94384,38.79443-29.94384,22.97559,0,37.47656,12.42968,37.47656,31.9209v67.70263h-15.53662v-16.855h-.37646c-5.83838,11.20508-18.26758,18.54981-31.4502,18.54981C1441.042,352.14307,1427.95361,340.37305,1427.95361,322.76465Zm63.55909-9.51026v-8.0039l-26.17676,1.60058c-13.18262.84766-20.71582,6.68555-20.71582,15.91358,0,9.32178,7.81543,15.44238,19.58593,15.44238C1479.64844,338.207,1491.5127,327.37842,1491.5127,313.25439Z"/><path class="cls-1" d="M1545.56543,333.876h-.37647v16.57226h-15.63085v-135.876h16.38427v54.33154h.37647c6.1206-11.20508,17.51416-18.0791,31.35595-18.0791,24.67041,0,41.33692,19.9624,41.33692,50.65918,0,30.791-16.57227,50.65918-41.61914,50.65918C1563.07959,352.14307,1551.87451,345.17529,1545.56543,333.876Zm.28271-32.39209c0,21.8457,11.77,36.25244,28.34278,36.25244,17.32568,0,28.06006-13.8418,28.06006-36.25244,0-22.22217-10.73438-36.25244-28.06006-36.25244C1557.61816,265.23145,1545.84814,279.73242,1545.84814,301.48389Z"/><path class="cls-1" d="M1634.36426,224.83594a10.26367,10.26367,0,1,1,10.26367,10.26367A10.22788,10.22788,0,0,1,1634.36426,224.83594Zm2.07178,27.68359h16.38427v97.92871H1636.436Z"/><path class="cls-1" d="M1675.79736,214.57227h16.38428v135.876h-16.38428Z"/><path class="cls-1" d="M1713.08691,224.83594a10.26368,10.26368,0,1,1,10.26368,10.26367A10.22788,10.22788,0,0,1,1713.08691,224.83594Zm2.07178,27.68359H1731.543v97.92871h-16.38428Z"/><path class="cls-1" d="M1775.32959,228.88525v23.63428h19.021v13.46533h-19.021v58.19239c0,8.94531,3.7666,12.99414,12.147,12.99414a63.84232,63.84232,0,0,0,6.77979-.47071v13.74756a58.38168,58.38168,0,0,1-10.35791.75342c-17.98487,0-24.95264-7.34473-24.95264-26.17725V265.98486h-14.59521V252.51953h14.59521V228.88525Z"/><path class="cls-1" d="M1812.90234,386.51221V372.76465a34.72912,34.72912,0,0,0,6.40332.4707c9.13379,0,14.21827-4.42529,17.98487-15.81933l2.25976-6.87354-36.1582-98.023h17.51416L1848.0249,334.064h.28272l27.11865-81.54443h17.23144l-38.5122,104.80274c-8.38037,22.88134-16.47852,29.75488-34.18067,29.75488A42.8803,42.8803,0,0,1,1812.90234,386.51221Z"/><path class="cls-1" d="M1973.17139,273.14111h16.29c16.1958,0,27.49511-9.981,27.49511-23.54052,0-13.46485-8.47461-22.59864-25.89453-22.59864-16.00732,0-27.87207,8.47461-28.90771,23.16358h-16.29c1.8833-23.06934,19.77392-37.853,45.19775-37.853,27.21289,0,42.938,15.63086,42.938,35.02832,0,16.855-11.77051,28.437-28.81348,32.01514v.37646c19.77393,1.69531,33.23926,14.03028,33.23926,33.3335,0,23.35205-20.52734,39.64209-47.17529,39.64209-28.15479,0-46.89258-15.7251-48.1167-38.22949h16.29c1.03564,14.40673,13.74756,23.54052,31.82666,23.54052,17.89062,0,29.84912-10.16943,29.94336-24.38818.09424-16.76074-11.86426-26.17676-30.979-26.17676h-17.04345Z"/><path class="cls-1" d="M2057.16846,284.81738c0-45.76269,19.49121-72.59912,52.73047-72.59912,23.06982,0,40.86621,13.46533,45.10351,34.2749H2137.771c-3.95459-12.24072-14.12452-19.30273-28.06006-19.30273-22.69336,0-35.59326,20.15039-36.15821,56.30859h.28223c5.55566-12.24121,19.4917-22.03369,37.94727-22.03369,25.89453,0,45.10351,19.11475,45.10351,44.915,0,26.83643-20.24463,46.42188-48.1167,46.42188C2083.72217,352.80225,2057.16846,335.38232,2057.16846,284.81738Zm82.48584,22.12793c0-17.79638-12.80616-30.60254-30.791-30.60254s-31.26172,12.80616-31.26172,30.13184a31.02726,31.02726,0,0,0,62.05274.4707Z"/><path class="cls-1" d="M2172.52148,282.46338c0-42.56152,18.54981-70.15088,50.09424-70.15088,31.544,0,49.90576,27.40137,49.90576,70.05664,0,42.938-18.26757,70.33887-49.90576,70.33887C2190.88281,352.708,2172.52148,325.40137,2172.52148,282.46338Zm82.95655,0c0-33.42774-11.86426-55.27295-32.86231-55.27295s-33.05078,22.03369-33.05078,55.17871c0,33.89844,11.77,55.55566,33.05078,55.55566C2243.80225,337.9248,2255.478,316.36182,2255.478,282.46338Z"/><path class="cls-1" d="M277.916,393.82812c.36572-.63769.64892-1.13134.90234-1.64013q27.271-54.73169,54.52637-109.46875c.65576-1.31738,1.334-2.67969,1.17529-2.93653-.15332-.24707-1.60547-.24755-3.00977-.24755l-110.98584.0039,57.167,114.68067Q277.80932,394.01465,277.916,393.82812Z"/><path class="cls-1" d="M378.54785,258.01172c-9.50586,6.00732-19.335,12.21973-29.03076,18.28564a10.09747,10.09747,0,0,0-3.91016,4.292q-11.01781,22.26049-22.10986,44.48486l-7.20264,14.46484q-3.81445,7.6626-7.6206,15.3291l-2.32666,4.68311,80.78906-106.96533Z"/><path class="cls-1" d="M236.05127,333.26562Q222.70069,306.459,209.36084,279.647a6.06322,6.06322,0,0,0-2.27148-2.59717q-15.61817-9.832-31.209-19.70605l-7.59375-4.80176L249.24023,359.75Z"/><path class="cls-1" d="M334.30127,269.49414c1.0293.03027,1.37305-.19971,1.46045-.32129.187-.25928-.05322-.97363-.28565-1.66455l-.94628-2.81885c-3.7085-11.04541-7.543-22.46679-11.24708-33.72363-.46923-1.42725-.96093-2.06592-2.626-2.06592h-.01563c-28.9497.06494-57.76855.06543-85.65478.00147-1.6958.01416-2.30029.47168-2.86279,2.21631-1.7129,5.30273-3.51172,10.67431-5.25147,15.86962-1.41992,4.24024-2.83984,8.481-4.23047,12.731-.31885.9751-.66943,1.9419-1.02051,2.90869a41.498,41.498,0,0,0-2.01806,6.731l25.48828.01855C274.33057,269.39844,304.56494,269.42139,334.30127,269.49414Z"/><path class="cls-1" d="M392.04785,224.44336q-8.43237-8.65577-16.834-17.33984a2.306,2.306,0,0,0-1.65723-.90528,3.1731,3.1731,0,0,0-1.36914.40235c-12.40088,6.11132-25.29346,12.397-38.31934,18.68066-1.35009.65137-1.55859,1.165-1.06494,2.6167,4.22217,12.40576,8.397,24.89844,12.40918,37.13086.20655.62988.45606,1.2876.73975,1.38916.15234.05371.49756.01709,1.26806-.47363q17.67334-11.2522,35.38282-22.4458l15.86474-10.04981a11.17408,11.17408,0,0,0,1.061-.8042c.07324-.05957.14746-.1206.22412-.18262-.03955-.04736-.07813-.09326-.11572-.13867-.26172-.31347-.4878-.58594-.73438-.83935Z"/><path class="cls-1" d="M357.812,199.13428q-6.29736-3.08643-12.60937-6.14649c-5.981-2.90771-12.166-5.91455-18.2295-8.91308a13.93012,13.93012,0,0,0-6.40478-1.46533h-.03272c-6.36181.01123-12.7246.06005-19.08789.10839-16.3872.125-33.33349.25342-49.98388-.28369-15.79444-.50146-27.40039,2.2041-37.63135,8.79834a14.10713,14.10713,0,0,1-2.08594,1.041c-.36523.15771-.73144.31543-1.08691.48926-4.00391,1.959-8.00586,3.92089-12.17969,5.96679l-4.07715,1.99854c.19873.11035.3877.21582.56885.3164.78076.43555,1.41162.7876,2.06006,1.104q4.91674,2.40087,9.83887,4.791c6.99365,3.40088,14.22558,6.918,21.312,10.43164a15.22124,15.22124,0,0,0,6.98291,1.54786q14.272,0,28.54248.043c16.38476.03711,33.32861.0752,49.99072-.00244h.10449c1.062,0,2.14453.07569,3.19239.14991,2.83984.19921,5.77441.40624,8.47509-.90918,8.53467-4.15528,17.06641-8.3169,25.70166-12.52881l9.80078-4.77979a7.42234,7.42234,0,0,0-2.33007-1.38232C358.36035,199.38721,358.082,199.2666,357.812,199.13428Z"/><path class="cls-1" d="M208.79492,219.11963c-8.13135-3.96289-16.53906-8.06055-24.76855-12.17383a4.5946,4.5946,0,0,0-1.99951-.60156,3.39737,3.39737,0,0,0-2.438,1.376c-8.01612,8.44727-15.29688,15.9336-22.25879,22.88672-.90283.90088-1.269,1.45118-1.22461,1.83985.04394.38818.5415.85986,1.61279,1.52832,17.21045,10.74365,34.06787,21.4165,50.105,31.72314,1.01319.65088,1.4834.69385,1.70313.61768.37646-.1333.61914-.86865.8999-1.71973l.03564-.10742q4.648-14.06689,9.34571-28.11768l2.68115-8.04541c.126-.37646.25879-.751.3916-1.12353l.15918-.44971c.03955-.832-.42432-1.043-1.29883-1.36523a7.20752,7.20752,0,0,1-.68017-.27735Q214.93237,222.10474,208.79492,219.11963Z"/><path class="cls-1" d="M277.80615,87.69312c-113.13061,0-204.84082,91.71044-204.84082,204.84082,0,113.13061,91.71021,204.84106,204.84082,204.84106s204.84107-91.71045,204.84107-204.84106C482.64722,179.40356,390.93677,87.69312,277.80615,87.69312ZM412.56885,235.73c-34.57862,45.69043-69.69141,92.17969-103.64844,137.1377l-27.03857,35.79687c-1.94971,2.58106-2.92872,3.87647-4.13135,3.87744h-.001c-1.19629,0-2.207-1.33545-4.042-3.75928q-31.29565-41.34008-62.54492-82.7163-8.88795-11.7649-17.76953-23.53516c-16.38868-21.71338-33.33594-44.1665-50.08155-66.19043-1.9458-2.56006-1.85693-4.02344.38037-6.26367,7.65284-7.66406,15.31641-15.57569,22.728-23.22754l4.41651-4.55762a19.02542,19.02542,0,0,1,5.39257-3.98633c19.64112-9.52734,35.481-17.24609,49.84961-24.29052a14.2142,14.2142,0,0,1,6.53955-1.48487c11.521.04541,23.23487.03955,34.562.03321l10.54492-.00391,11.45947.00293c11.0293.00488,22.43311.00928,33.64746-.03613h.07129a14.169,14.169,0,0,1,6.46582,1.49072c15.71191,7.71,32.32178,15.81445,50.77881,24.77734a13.92727,13.92727,0,0,1,3.9707,3.00342l4.83106,4.97559c7.60107,7.832,15.46142,15.93066,23.28076,23.80566C414.05029,232.41211,414.13232,233.66357,412.56885,235.73Z"/><g id="vhMTIq"><path class="cls-1" d="M378.42533,61.02808c9.174,4.93659,18.68388,9.34136,27.4699,14.892,89.003,56.2279,132.621,137.19879,122.41022,241.97287-13.95139,143.15567-141.382,234.10574-269.7916,221.81242C133.865,527.772,38.44692,424.17943,35.14238,301.40667,31.63156,170.97061,132.39165,59.54852,262.06681,51.05681c8.2404-.53961,13.44825.4423,11.83464,10.58554-.92359,5.80562,2.508,6.39353,6.97506,4.30114q19.00061-8.89989,37.96873-17.869c4.72621-2.23876,5.36422-5.17.8997-8.32448q-17.12976-12.10343-34.3992-24.0088c-4.14843-2.87152-7.66495-2.302-7.69293,3.23005-.05424,10.72592-6.93531,11.16047-15.07087,12.00347C159.16021,41.69133,83.78823,93.46679,41.14331,188.3665-20.95426,326.555,52.65372,490.67566,196.3906,538.66669c132.90805,44.37554,277.36706-25.1382,324.99245-156.38646,43.78988-120.678-9.495-256.24834-123.86861-314.94611-5.9183-3.03734-12.207-5.353-18.32327-8.00459Q378.80824,60.1788,378.42533,61.02808Z"/></g></svg>