<svg id="Layer_1" data-name="Layer 1" xmlns="http://www.w3.org/2000/svg" viewBox="0 0 360 360"><defs><style>.cls-1{fill:#fff;}</style></defs><title>edl-icon-white</title><path class="cls-1" d="M116.08183,28.384c-7.53122,8.28435-8.28435,27.489-1.88281,33.89052,2.63594,2.63593,10.54372,4.51873,18.07494,4.51873,16.56871,0,22.59368-5.64842,22.59368-20.71087C154.86766,24.6184,129.63805,13.32156,116.08183,28.384Z"/><path class="cls-1" d="M287.04066,29.5137c-9.414,10.16715-9.79059,17.69838-1.88281,28.99522,8.66092,12.80308,31.2546,10.16715,39.16238-4.14218,4.89531-9.03747,4.89531-11.29684,0-20.71087a23.02388,23.02388,0,0,0-37.27957-4.14217Z"/><path class="cls-1" d="M131.52085,79.97291c-.75312,1.12968-26.73584,10.54371-57.61387,20.71087-48.19985,16.5687-56.4842,18.4515-59.12013,13.17965-6.40154-11.29684-10.54372-5.27186-9.414,13.55621,1.50624,19.58118,5.64842,25.60617,19.58119,26.35929,6.7781,0,36.903,33.514,41.7983,46.317,3.38905,9.414-8.6609,9.414-27.11241,0-16.19213-8.28435-18.82806-8.66091-23.72336-3.38906-7.90778,7.90779-2.25937,16.19214,18.45151,27.11242a76.10134,76.10134,0,0,0,35.77332,8.66091c22.59369,0,23.3468.75312,46.6936,40.66862,17.69839,30.50146,44.81079,61.003,53.84827,61.003,9.414,0,15.439-10.16715,12.80309-21.08743-1.50626-5.27187-16.94526-24.47649-34.26708-42.55144-17.69838-18.45151-32.00771-34.26707-32.00771-35.77332,0-1.12969,33.13739-2.25937,73.42946-2.25937h73.806l6.40153,11.6734c15.439,28.2421,51.58888,79.831,59.49669,85.10285,13.55621,8.66092,24.09993,3.389,24.09993-12.05,0-10.92029-4.8953-17.69837-32.00771-46.31706-17.69837-18.4515-32.00771-34.64364-32.00771-36.14987,0-1.12969,3.38906-2.25937,7.53123-2.25937,4.51872,0,16.19215-4.14217,26.35929-9.414,14.6859-7.53123,18.82806-11.67339,18.82806-18.82806,0-13.17965-4.8953-14.30933-24.09992-4.8953-9.414,4.51874-18.45151,7.15467-19.95777,5.64842-1.12969-1.50625,5.64842-26.73585,15.439-55.73107,15.06245-44.05768,17.32182-54.60139,13.93276-62.13262-4.51872-10.54371-13.93276-11.29683-36.14988-3.76561-8.28434,3.01249-34.26707,12.42652-57.99045,20.71087-39.53893,14.30933-43.6811,15.06246-49.70609,9.414-7.15467-6.40155-13.5562-1.12968-8.28435,6.7781a41.08806,41.08806,0,0,1,3.01248,16.19213c0,9.79059,1.50625,11.67339,11.6734,13.17965,9.03746,1.50625,16.19213,7.53122,31.25458,27.11241,10.54373,13.93277,19.20462,27.11242,19.20462,29.37178,0,5.27187-111.46214,5.27187-114.85119,0-1.50625-2.25936,5.27186-27.86554,15.06245-56.86075,16.5687-50.08265,16.94526-53.47171,11.29684-62.13262C147.713,78.84323,136.41615,75.07762,131.52085,79.97291Zm-18.07494,45.94048c0,8.66091-25.22961,76.44194-28.24209,76.44194-2.25937,0-6.025-3.76561-9.03748-8.6609-3.01249-4.51874-12.05-16.19214-20.33431-26.35929-8.28435-9.79059-13.93277-18.82807-12.80308-20.33432,3.01248-2.63593,58.74355-22.59368,65.89823-23.3468C111.18654,123.654,113.44591,124.40714,113.44591,125.91339Zm173.21822,0c0,9.03748-24.853,76.44194-28.2421,76.44194-5.64842,0-44.43424-51.96545-41.7983-56.10762a30.22,30.22,0,0,1,14.30934-6.025,185.91379,185.91379,0,0,0,27.11241-9.79059C274.61415,123.27746,286.6641,121.39465,286.66413,125.91339Z"/></svg>