<?xml version="1.0" encoding="utf-8"?>
<!-- Generator: Adobe Illustrator 28.6.0, SVG Export Plug-In . SVG Version: 9.03 Build 54939)  -->
<svg version="1.1" id="Layer_1" xmlns="http://www.w3.org/2000/svg" xmlns:xlink="http://www.w3.org/1999/xlink" x="0px" y="0px"
	 width="439.6px" height="166.9px" viewBox="0 0 439.6 166.9" style="enable-background:new 0 0 439.6 166.9;" xml:space="preserve"
	>
<style type="text/css">
	.Drop_x0020_Shadow{fill:none;}
	.Round_x0020_Corners_x0020_2_x0020_pt{fill:#FFFFFF;stroke:#000000;stroke-miterlimit:10;}
	.Live_x0020_Reflect_x0020_X{fill:none;}
	.Bevel_x0020_Soft{fill:url(#SVGID_1_);}
	.Dusk{fill:#FFFFFF;}
	.Foliage_GS{fill:#FFDD00;}
	.Pompadour_GS{fill-rule:evenodd;clip-rule:evenodd;fill:#44ADE2;}
	.st0{fill-rule:evenodd;clip-rule:evenodd;fill:#09314F;}
	.st1{fill-rule:evenodd;clip-rule:evenodd;fill:#E5EA8C;}
	.st2{fill-rule:evenodd;clip-rule:evenodd;fill:#DEC472;}
	.st3{fill-rule:evenodd;clip-rule:evenodd;fill:#FFFFFF;}
	.st4{fill-rule:evenodd;clip-rule:evenodd;fill:#75B543;}
	.st5{fill-rule:evenodd;clip-rule:evenodd;fill:#5D9440;}
	.st6{fill-rule:evenodd;clip-rule:evenodd;fill:#467C44;}
	.st7{fill-rule:evenodd;clip-rule:evenodd;fill:#BBA761;}
	.st8{fill-rule:evenodd;clip-rule:evenodd;fill:#B6D468;}
	.st9{fill-rule:evenodd;clip-rule:evenodd;fill:#C8C8C7;}
	.st10{fill-rule:evenodd;clip-rule:evenodd;fill:#CE6C6B;}
	.st11{fill-rule:evenodd;clip-rule:evenodd;fill:#B4B4B6;}
	.st12{fill-rule:evenodd;clip-rule:evenodd;fill:#DD9493;}
	.st13{fill:#5D9440;}
	.st14{fill:#FFFFFF;}
	.st15{fill-rule:evenodd;clip-rule:evenodd;fill:#010101;}
</style>
<linearGradient id="SVGID_1_" gradientUnits="userSpaceOnUse" x1="-3460.1819" y1="-1136.5389" x2="-3459.4749" y2="-1135.8319">
	<stop  offset="0" style="stop-color:#DEDFE3"/>
	<stop  offset="0.1738" style="stop-color:#D8D9DD"/>
	<stop  offset="0.352" style="stop-color:#C9CACD"/>
	<stop  offset="0.5323" style="stop-color:#B4B5B8"/>
	<stop  offset="0.7139" style="stop-color:#989A9C"/>
	<stop  offset="0.8949" style="stop-color:#797C7E"/>
	<stop  offset="1" style="stop-color:#656B6C"/>
</linearGradient>
<g>
	<path class="st13" d="M70,71.5c0,5.8-2.3,11.5-6.4,15.6c-3.6,3.6-8.3,2-8.3,7.1c0,5.1,5.2,3,8.8,6.6c4.1,4.1,6.8,10.3,6.8,16.2
		c0,6.9-0.8,6.9-0.8,13.9c0,6.9-0.1,6.9-0.1,13.9c0,6.9-0.5,6.9-0.5,13.9c0,3.8-2.8,8-6.5,8c-6.9,0-6.9-0.4-13.7-0.4
		c-3.8,0-5.9-3.8-5.9-7.5c0-7.3,0.1-7.3,0.1-14.6s-0.7-7.3-0.7-14.6c0-7.3-1.2-7.3-1.2-14.6c0-3.8-2.3-6.6-6.1-6.5
		c-3.8,0.1-8.1,3-8.1,6.8c0,7.3,2.7,7.3,2.7,14.5c0,7.3-0.5,7.3-0.5,14.5c0,7.3-1.4,7.3-1.4,14.5c0,3.8-2.5,6.5-6.2,6.5
		c-6.9,0-6.9,0.6-13.7,0.6c-3.8,0-6-3.3-6-7.1c0-6.5-1.5-6.5-1.5-13.1c0-6.5,1.5-6.5,1.5-13.1c0-6.5-1.8-6.5-1.8-13.1
		s1.8-6.5,1.8-13.1s-1.9-6.5-1.9-13.1S0,86.7,0,80.2s1.3-6.5,1.3-13.1c0-6.5,0.1-6.5,0.1-13.1c0-6.5-0.1-6.5-0.1-13.1
		c0-6.5-0.2-6.5-0.2-13.1s-0.4-6.5-0.4-13.1c0-3.8,2-7.3,4.5-9.8c2.5-2.5,6-5,9.8-5c5.5,0,5.5,0.2,11,0.2c5.5,0,5.5,1.5,11,1.5
		c5.5,0,5.5,0.6,11,0.6c4,0,8.3-1.2,11.6,0.6c3.3,1.9,6.2,5.3,8.1,8.7c1.9,3.2,2.8,7.4,2.8,11.4c0,6.1,0.3,6.1,0.3,12.1
		c0,6.1-0.6,6.1-0.6,12.1s-0.2,6.1-0.2,12.1C69.9,65.4,70,65.4,70,71.5L70,71.5z M42.3,73.7c0-6.4-0.8-6.4-0.8-12.8
		c0-6.4,1.5-6.4,1.5-12.8c0-6.4,0.6-6.4,0.6-12.8c0-3.8-4.3-5.7-8.1-5.7c-3.8,0-6.1,1.9-6.1,5.7c0,6.4-0.2,6.4-0.2,12.8
		s0.3,6.4,0.3,12.8c0,6.4-0.6,6.4-0.6,12.8c0,3.8,2.8,6.7,6.6,6.7C39.3,80.5,42.3,77.5,42.3,73.7L42.3,73.7z"/>
	<path class="st13" d="M151.6,7.9c0,6.2,0.9,6.2,0.9,12.4s-1.5,6.2-1.5,12.4c0,6.2,1.8,6.2,1.8,12.4c0,6.2-2.2,6.2-2.2,12.4
		c0,6.2,2.2,6.2,2.2,12.4s-0.5,6.2-0.5,12.4c0,6.2-1.6,6.2-1.6,12.4c0,3.7-0.4,7.1-2.9,9.6c-2.5,2.4-6,2.7-9.7,2.7
		c-3.8,0-6.7,4.2-6.7,8c0,7.3-0.9,7.3-0.9,14.6c0,7.3,0.7,7.3,0.7,14.6s0.2,7.3,0.2,14.6c0,3.8-3.4,7.6-7.2,7.6
		c-6.9,0-6.9-0.1-13.7-0.1c-3.8,0-6.9-3.8-6.9-7.5c0-7.3,0.3-7.3,0.3-14.6s0.4-7.3,0.4-14.6c0-7.3-0.9-7.3-0.9-14.6
		c0-3.8-2.9-7-6.7-7c-3.7,0-6.6-1.8-9-4.3c-2.4-2.4-3-5.3-3-9c0-6.2-2-6.2-2-12.4c0-6.2,0.9-6.2,0.9-12.4c0-6.2,0.9-6.2,0.9-12.4
		c0-6.2-2.4-6.2-2.4-12.4s2.4-6.2,2.4-12.4c0-6.2-0.7-6.2-0.7-12.4c0-6.2-1.3-6.2-1.3-12.4c0-3.8,3.8-7.2,7.6-7.2
		c6.9,0,6.9,0.5,13.7,0.5c3.8,0,6.1,2.9,6.1,6.7c0,6.6,1.9,6.6,1.9,13.2s-2.3,6.6-2.3,13.2c0,6.6,0.8,6.6,0.8,13.2S111,54,111,60.6
		c0,6.6-0.3,6.6-0.3,13.2c0,3.8,3,6.1,6.8,6.1c3.8,0,6-2.3,6-6.1c0-6.6,0-6.6,0-13.2c0-6.6,1.6-6.6,1.6-13.2s-0.7-6.6-0.7-13.2
		c0-6.6,0-6.6,0-13.2s-0.4-6.6-0.4-13.2c0-3.8,3.4-5.8,7.2-5.8c6.9,0,6.9-0.3,13.7-0.3C148.8,1.8,151.6,4.1,151.6,7.9z"/>
	<path class="st13" d="M220,2c3.8,0,7.7,0.1,10.2,2.6C232.7,7,234,11,234,14.8c0,6.9-0.3,6.9-0.3,13.7c0,6.9-0.4,6.9-0.4,13.7
		s0.6,6.9,0.6,13.7c0,6.9,0.8,6.9,0.8,13.7s-0.8,6.9-0.8,13.7s0.7,6.9,0.7,13.7s0.2,6.9,0.2,13.7c0,6.9-0.3,6.9-0.3,13.7
		s0.4,6.9,0.4,13.7c0,6.9-0.4,6.9-0.4,13.7c0,3.8-1.9,7.8-4.4,10.2c-2.5,2.5-6.4,3-10.2,3c-6.9,0-6.9,0.7-13.7,0.7
		c-6.9,0-6.9,1.1-13.7,1.1c-6.9,0-6.9-1.8-13.7-1.8c-3.8,0-7.3-1.1-9.8-3.5c-2.5-2.5-3.8-6-3.8-9.8c0-6.9,0.9-6.9,0.9-13.7
		s0-6.9,0-13.7s0.1-6.9,0.1-13.7s-0.4-6.9-0.4-13.7c0-6.9-1.6-6.9-1.6-13.7s0.3-6.9,0.3-13.7s0.1-6.9,0.1-13.7s0.2-6.9,0.2-13.7
		s0.6-6.9,0.6-13.7c0-6.9-1.3-6.9-1.3-13.7c0-3.8,1.6-8.2,4.1-10.6c2.5-2.5,6.9-4.1,10.6-4.1c6.9,0,6.9,2.3,13.7,2.3
		c6.9,0,6.9-1.1,13.7-1.1C213.1,1.3,213.1,2,220,2L220,2z M207.2,131.3c0-6.9-0.2-6.9-0.5-13.7c-0.3-6.8-0.5-6.8-0.5-13.7
		c0-6.9,0.2-6.9,0.2-13.7s0.9-6.9,0.9-13.7s0-6.9,0-13.7s0.1-6.9,0.1-13.7s-0.4-6.9-0.4-13.7c0-3.8-3.8-6-7.6-6
		c-3.8,0-6.3,2.2-6.3,6c0,6.9-0.1,6.9-0.1,13.7s-0.2,6.9-0.2,13.7c0,6.9-0.6,6.9-0.6,13.7s1.3,6.9,1.3,13.7s0.3,6.9,0.3,13.7
		s-0.3,6.9-0.3,13.7c0,6.9-2.3,6.9-2.3,13.7c0,3.8,4.4,7,8.1,7C203.2,138.3,207.2,135.1,207.2,131.3L207.2,131.3z"/>
	<path class="st13" d="M342.7,0.1c3.8,0,7.2,2.6,9.7,5c2.5,2.5,3.2,5.9,3.2,9.7c0,6.5,0.7,6.5,0.7,13.1s-1,6.5-1,13.1
		c0,6.5,0.9,6.5,0.9,13.1s0.6,6.5,0.6,13.1s0.8,6.5,0.8,13.1s-2,6.5-2,13.1s0.8,6.5,0.8,13.1c0,6.5,0.8,6.5,0.8,13.1
		c0,6.5,0.5,6.5,0.5,13.1c0,6.5-0.5,6.5-0.5,13.1s-0.7,6.5-0.7,13.1c0,3.8-3,5.9-6.8,5.9c-6.9,0-6.9,2.2-13.7,2.2
		c-3.8,0-7.3-4.3-7.3-8.1c0-6.9,0-6.9,0-13.7c0-6.9,0.2-6.9,0.2-13.7c0-6.9,0.4-6.9,0.4-13.7c0-6.9,0.1-6.9,0.1-13.7s1-6.9,1-13.7
		s-0.7-6.9-0.7-13.7s-0.3-6.9-0.3-13.7s0.1-6.9,0.1-13.7c0-6.9,0.9-6.9,0.9-13.7c0-3.8-4.2-6.2-8-6.2c-3.8,0-7.6,2.4-7.6,6.2
		c0,6.9,1.9,6.9,1.9,13.7c0,6.9-2.5,6.9-2.5,13.7s0,6.9,0,13.7s2.2,6.9,2.2,13.7s0.5,6.9,0.5,13.7s0,6.9,0,13.7s-1.7,6.9-1.7,13.7
		c0,6.9-0.9,6.9-0.9,13.7c0,6.9,2.3,6.9,2.3,13.7c0,3.8-4.1,5.9-7.8,5.9c-6.9,0-6.9,0.1-13.7,0.1c-3.8,0-8.2-2.2-8.2-6
		c0-6.9,0-6.9,0-13.7s1.7-6.9,1.7-13.7c0-6.9-1.7-6.9-1.7-13.7c0-6.9,2.3-6.9,2.3-13.7s-0.6-6.9-0.6-13.7s-1.5-6.9-1.5-13.7
		s2.2-6.9,2.2-13.7s-2-6.9-2-13.7s0-6.9,0-13.7c0-3.8-2.2-7.1-6-7.1s-7.2,3.3-7.2,7.1c0,6.9,0.1,6.9,0.1,13.7
		c0,6.9-0.4,6.9-0.4,13.7s1.9,6.9,1.9,13.7s-0.1,6.9-0.1,13.7s-0.2,6.9-0.2,13.7s-1,6.9-1,13.7s0.5,6.9,0.5,13.7
		c0,6.9-0.7,6.9-0.7,13.7c0,6.9,0.6,6.9,0.6,13.7c0,3.8-3.4,6.3-7.2,6.3c-6.9,0-6.9,0.7-13.7,0.7c-3.8,0-7.6-3.2-7.6-7
		c0-6.5,0.6-6.5,0.6-13.1c0-6.5,1.2-6.5,1.2-13.1c0-6.5,0.1-6.5,0.1-13.1s-1.6-6.5-1.6-13.1s0.6-6.5,0.6-13.1s0.8-6.5,0.8-13.1
		s0.4-6.5,0.4-13.1s-0.3-6.5-0.3-13.1c0-6.5-1.7-6.5-1.7-13.1c0-6.5,0.5-6.5,0.5-13.1s1.1-6.5,1.1-13.1c0-3.8,1.4-6.5,3.8-9
		c2.5-2.5,5.2-4.8,9-4.8c9.2,0,9.2,0.6,18.3,0.6c5.8,0,11.6,1.6,15.7,5.7c3.6,3.6,1.9,7.5,7.1,7.5c5.1,0,3.5-3.8,7.2-7.4
		c4.1-4.1,9.8-6.8,15.6-6.8C333.5,0.6,333.5,0.1,342.7,0.1L342.7,0.1z"/>
	<path class="st13" d="M424.6,2c3.8,0,6.9,1,9.3,3.5c2.5,2.5,5.6,5.6,5.6,9.3c0,6.5-0.5,6.5-0.5,13.1s-1.5,6.5-1.5,13.1
		c0,6.5,1.8,6.5,1.8,13.1s-1.7,6.5-1.7,13.1s1,6.5,1,13.1s0.9,6.5,0.9,13.1s-1.5,6.5-1.5,13.1c0,6.5-1.2,6.5-1.2,13.1
		c0,6.5,2.3,6.5,2.3,13.1c0,6.5-1.7,6.5-1.7,13.1s1.7,6.5,1.7,13.1c0,3.8-3.9,7.2-7.7,7.2c-6.9,0-6.9-0.5-13.7-0.5
		c-3.8,0-6.7-3-6.7-6.8c0-7.3-1.3-7.3-1.3-14.6c0-7.3,1.1-7.3,1.1-14.6c0-7.3,0.1-7.3,0.1-14.6c0-3.8-3.2-6-7-5.9
		c-3.8,0.1-8,2.4-8,6.2c0,7.3,2,7.3,2,14.5c0,7.3-0.1,7.3-0.1,14.5s0.4,7.3,0.4,14.5c0,3.8-4.1,7.5-7.9,7.5c-6.9,0-6.9-1.2-13.7-1.2
		c-3.8,0-6.5-2.6-6.5-6.4c0-6.5,0.5-6.5,0.5-13.1c0-6.5,0.4-6.5,0.4-13.1c0-6.5-1.4-6.5-1.4-13.1s0.1-6.5,0.1-13.1
		s-0.6-6.5-0.6-13.1s-0.5-6.5-0.5-13.1s1.3-6.5,1.3-13.1S371,60.6,371,54c0-6.5-1.2-6.5-1.2-13.1c0-6.5-0.4-6.5-0.4-13.1
		s0.8-6.5,0.8-13.1c0-3.8,0.4-7.9,2.9-10.4c2.5-2.5,6.6-4,10.4-4c6.9,0,6.9-0.2,13.7-0.2c6.9,0,6.9,1.9,13.7,1.9
		C417.7,2.1,417.7,2,424.6,2L424.6,2z M411.8,73.7c0-6.4-0.4-6.4-0.7-12.8c-0.3-6.4,1.1-6.4,1.1-12.8c0-6.4-1.2-6.4-1.2-12.8
		c0-3.8-3.2-6.5-6.9-6.5s-7.3,2.8-7.3,6.5c0,6.4,1.4,6.4,1.4,12.8s-0.3,6.4-0.3,12.8c0,6.4,0.2,6.4,0.2,12.8c0,3.8,2.2,7.9,6,7.9
		C407.8,81.6,411.8,77.5,411.8,73.7L411.8,73.7z"/>
</g>
</svg>
