<svg id="Layer_1" data-name="Layer 1" xmlns="http://www.w3.org/2000/svg" viewBox="0 0 400 400"><defs><style>.cls-1{fill:#ab1a2f;}.cls-2{fill:#fcfafb;}.cls-3{fill:#020101;}.cls-4{fill:#a8182e;}.cls-5{fill:#3bcccc;}</style></defs><path class="cls-1" d="M26.52191,14.9837c2.58026-.0569,5.1605-.16316,7.74076-.1635q102.23805-.01359,204.47609-.03286a124.41064,124.41064,0,0,1,13.7917.61474A22.31929,22.31929,0,0,1,266.046,22.37571a6.63038,6.63038,0,0,0,5.35087,2.18031c4.15715-.1353,8.32173-.046,12.48323-.04,1.28019.00183,2.381.01849,2.67915-1.74983.90542-5.36946,5.27464-7.91024,10.59608-7.896q15.18277.04049,30.36553.07023c4.60183.73825,7.19918,3.683,8.84875,7.83187q14.59287,36.70268,29.27092,73.37129a25.00482,25.00482,0,0,1,1.80416,9.51615q-.08761,83.81132-.04062,167.62277c-.0002,8.6007-2.91008,11.49748-11.56084,11.49922q-29.51928.00591-59.03851-.01c-5.73568-.0048-8.10027-1.62716-9.98444-7.12578-.57564-1.67989-1.36276-2.32074-3.11007-2.23072a58.5704,58.5704,0,0,1-7.41792-.00349c-5.21469-.395-9.59535.386-13.5543,4.658-3.193,3.44547-8.15987,4.68881-13.02047,4.69093q-110.99244.0486-221.98487.00349c-13.06935-.00786-23.78944-11.56183-23.87126-25.64294-.09754-16.78426-.02587-33.5695-.02586-50.35432q0-83.81141.01-167.62282c.00463-12.53717,7.16406-22.15364,18.75793-25.34259C23.88753,15.44828,25.21472,15.25248,26.52191,14.9837Zm112.1882,251.28718q54.47663,0,108.95327-.00763c5.1644-.002,7.17792-1.98158,7.24317-7.07631.05336-4.16677.01135-8.33479.01139-12.50224q.00117-102.5535-.00085-205.107c-.00035-5.942-2.00881-8.26511-7.20179-8.26578q-108.78464-.01409-217.56925.00018c-5.55749.00083-7.756,2.21411-7.75654,7.73842q-.01005,108.80441.00146,217.6088c.00069,5.77531,1.86717,7.60211,7.70318,7.60325Q84.40213,266.27325,138.71011,266.27088Z"/><path class="cls-1" d="M143.61625,360.8963q58.20607-.00241,116.41219-.00186c4.66916-.00008,4.66986-.00181,4.66971-4.83186-.00045-14.87262.09773-29.7464-.07851-44.61694-.03954-3.33756,1.02975-4.06877,4.1952-4.0527,25.30644.12853,50.61387.04826,75.92076.11762,2.71171.00742,4.51059-.14809,5.2386-3.523.86257-3.9987,5.55091-6.54258,9.45069-5.94308,4.91488.75551,7.94046,4.01794,7.95719,8.94541.05626,16.56248.12872,33.12651-.06166,49.687-.04025,3.50058.97185,4.45176,4.36564,4.297,5.94881-.27113,11.925-.23841,17.87836-.02117,5.208.19006,7.46542,1.54668,6.82354,6.69709a42.091,42.091,0,0,0-.03373,5.06615c-.0115,4.73436-1.35707,6.13208-6.237,6.1759-7.19792.06458-14.39671.03532-21.59513.0354q-174.58377.00192-349.16754-.04964c-2.56845-.00127-5.08595.75036-7.69631.17211-4.74221-1.05042-7.79279-4.384-7.803-9.19193q-.06583-30.92809.01475-61.85637c.01733-5.63332,3.86613-9.8349,8.85405-10.03609,5.26954-.21259,9.15328,3.62083,9.61151,9.63459.16222,2.12893.05052,4.27942.05051,6.42007q-.00006,21.12586-.00664,42.25174c-.00118,4.62714-.00329,4.62635,4.48685,4.62635Q85.24126,360.89773,143.61625,360.8963Z"/><path class="cls-2" d="M138.71011,266.26853q-54.308-.00355-108.616-.006c-5.836-.00114-7.70249-1.82794-7.70318-7.60325q-.01312-108.8044-.00146-217.6088c.00051-5.52431,2.199-7.73759,7.75654-7.73842q108.78462-.01617,217.56925-.00018c5.193.00067,7.20144,2.32375,7.20179,8.26578q.00621,102.5535.00085,205.107c0,4.16745.042,8.33547-.01139,12.50224-.06525,5.09473-2.07877,7.07427-7.24317,7.07631Q193.18674,266.28485,138.71011,266.26853Zm100.06918-40.77869c.08008-1.22987.229-2.45969.23-3.68962q.02531-30.75195.0174-61.50387.00158-44.28045-.01118-88.5609c-.00058-1.22916-.15733-2.45825-.24132-3.68737.06121-4.72353-.059-9.45888.24676-14.16648.20706-3.18853-.69376-4.1935-4.02418-4.1883q-95.99679.15-191.994.078c-4.56192.00022-4.56735.00834-4.56744,4.53615q-.00189,92.61476-.00011,185.22951c.00008,4.37405.00555,4.37808,4.3749,4.37824q94.1412.00355,188.28243.0051c1.79958,0,3.60174-.05851,5.398.01914,1.63482.07071,2.52678-.39407,2.48545-2.24937C238.8557,236.29121,238.83751,230.89009,238.77929,225.48984Z"/><path class="cls-3" d="M239.01547,71.73547c-.00058-1.22915-.15731-2.45824-.24129-3.68739q-82.82922-.00653-165.65843-.01232a15.88181,15.88181,0,0,0-16.137,15.94852q-.0962,62.69509.02906,125.39034c.01934,9.57282,7.12161,16.00938,17.46737,16.06764,14.05758.0792,28.116.02333,42.174.02565q61.06527.01021,122.13025.0213c.07992-1.22922.22883-2.459.22985-3.689q.02522-30.752.01739-61.50388Q239.02822,116.01587,239.01547,71.73547Z"/><path class="cls-4" d="M238.77418,68.04808q-82.82922-.00651-165.65847-.01234A15.8818,15.8818,0,0,0,56.97877,83.9843q-.09622,62.695.029,125.3903c.01938,9.57287,7.1216,16.0094,17.46737,16.06766,14.05763.07921,28.116.0233,42.17408.02565q61.06518.01021,122.13021.02131c.05805,5.40087.07624,10.802.19656,16.20086.04133,1.8553-.85063,2.32008-2.48545,2.24937-1.79625-.07765-3.59841-.0191-5.398-.01914q-94.14121-.00233-188.28243-.0051c-4.36935-.00016-4.37482-.00419-4.3749-4.37824q-.00176-92.61475.00011-185.22951c.00009-4.52781.00552-4.53593,4.56744-4.53615q95.997-.00456,191.994-.078c3.33042-.0052,4.23124.99977,4.02418,4.1883C238.71522,58.5892,238.83539,63.32455,238.77418,68.04808Z"/><rect class="cls-5" x="200.96643" y="86.92844" width="19.41541" height="19.41541"/><rect class="cls-5" x="119.62324" y="86.92844" width="62.82934" height="19.41541"/><rect class="cls-5" x="119.62324" y="118.18411" width="19.41541" height="19.41541"/><rect class="cls-5" x="157.55251" y="118.18411" width="62.82934" height="19.41541"/><rect class="cls-3" x="198.18079" y="325.73183" width="19.41541" height="19.41541"/><rect class="cls-3" x="44.75805" y="325.73183" width="134.91938" height="19.41541"/></svg>