<svg id="Layer_1" data-name="Layer 1" xmlns="http://www.w3.org/2000/svg" viewBox="0 0 417.7427 472.1851"><defs><style>.cls-1,.cls-3{fill:#fff;}.cls-2{fill:none;}.cls-3{stroke:#020101;stroke-linecap:round;stroke-linejoin:round;stroke-width:0;}</style></defs><path class="cls-1" d="M43.07959,406.03432,67.02,441.87514H54.24561L35.40576,413.0646l-7.03027,7.81152v20.999H17.94482V379.15346H28.37549V408.2394H28.835l25.36475-29.08594H65.917Z"/><path class="cls-1" d="M106.03174,395.0978a18.6658,18.6658,0,0,1,7.605,7.53613,23.75526,23.75526,0,0,1,2.73389,11.7168v6.29492a24.39324,24.39324,0,0,1-2.73389,11.97071,18.33438,18.33438,0,0,1-7.605,7.51269,23.64111,23.64111,0,0,1-11.21192,2.57324,23.707,23.707,0,0,1-11.28076-2.57324,18.54379,18.54379,0,0,1-7.60449-7.49023,24.08828,24.08828,0,0,1-2.75732-11.94629v-6.2959a23.29693,23.29693,0,0,1,2.75732-11.5791A19.39437,19.39437,0,0,1,83.585,395.1896a22.80665,22.80665,0,0,1,11.23486-2.71094A23.3063,23.3063,0,0,1,106.03174,395.0978ZM88.6626,402.5646a11.71553,11.71553,0,0,0-3.85987,5.05468,18.7671,18.7671,0,0,0-1.33252,7.28321v5.42187a19.6673,19.6673,0,0,0,1.26368,7.28321,11.022,11.022,0,0,0,3.814,5.03125,10.52184,10.52184,0,0,0,6.31836,1.83789,10.214,10.214,0,0,0,6.249-1.83789,11.2235,11.2235,0,0,0,3.74512-5.03125,19.68729,19.68729,0,0,0,1.26367-7.28321v-5.42187a19.06333,19.06333,0,0,0-1.30957-7.28321,11.63462,11.63462,0,0,0-3.814-5.05468,10.00058,10.00058,0,0,0-6.13428-1.86133A10.17559,10.17559,0,0,0,88.6626,402.5646Z"/><path class="cls-1" d="M129.4668,393.30581h10.01709v7.90332h.50537a14.93179,14.93179,0,0,1,1.999-3.791,11.35062,11.35062,0,0,1,4.08936-3.42285,15.30432,15.30432,0,0,1,7.1455-1.4248,15.91359,15.91359,0,0,1,6.40967,1.19433,12.10321,12.10321,0,0,1,4.48047,3.2627,12.97746,12.97746,0,0,1,2.52734,4.6416h.41358a14.75115,14.75115,0,0,1,2.80273-4.38867,14.06183,14.06183,0,0,1,4.84766-3.40039,17.48756,17.48756,0,0,1,7.09961-1.30957q7.4436,0,11.62549,4.04394,4.18067,4.043,4.18115,11.21192v34.04882H187.45605v-31.0166a11.55319,11.55319,0,0,0-1.103-5.26074,7.71231,7.71231,0,0,0-3.14746-3.332,10.05509,10.05509,0,0,0-4.98584-1.14844,9.30407,9.30407,0,0,0-8.40869,5.00879,11.64957,11.64957,0,0,0-1.28663,5.60547v30.14355h-9.92529V411.13393a11.2933,11.2933,0,0,0-1.19482-5.39843,8.44123,8.44123,0,0,0-3.28516-3.42383,9.70419,9.70419,0,0,0-4.894-1.19434,9.43148,9.43148,0,0,0-4.91651,1.28613,9.05216,9.05216,0,0,0-3.40039,3.63086,11.82861,11.82861,0,0,0-1.24072,5.60547v30.23535H129.4668Z"/><path class="cls-1" d="M231.29248,441.62221a13.54851,13.54851,0,0,1-4.73291-2.71093,12.15513,12.15513,0,0,1-3.07861-4.3418h-.50586v23.43457H212.77441V393.30581h9.9253v7.71972h.50537a11.334,11.334,0,0,1,2.11377-3.49218,13.39612,13.39612,0,0,1,3.23926-2.665,14.96341,14.96341,0,0,1,4.13574-1.6543,20.69915,20.69915,0,0,1,4.89355-.55176,18.12805,18.12805,0,0,1,9.7876,2.55078,16.56846,16.56846,0,0,1,6.29492,7.30567,26.72778,26.72778,0,0,1,2.20557,11.32715v7.48926a26.49276,26.49276,0,0,1-2.22852,11.32714,16.71487,16.71487,0,0,1-6.38672,7.32911,18.44359,18.44359,0,0,1-9.90234,2.57324A18.66047,18.66047,0,0,1,231.29248,441.62221Zm9.167-9.09765a10.55708,10.55708,0,0,0,3.76807-4.84766,20.09485,20.09485,0,0,0,1.30957-7.67383v-4.6875a20.40757,20.40757,0,0,0-1.30957-7.74218,10.38075,10.38075,0,0,0-3.83691-4.8711,10.80959,10.80959,0,0,0-6.11133-1.67676,11.094,11.094,0,0,0-6.01953,1.585,10.34923,10.34923,0,0,0-3.90577,4.57226,16.87357,16.87357,0,0,0-1.3789,7.12207v7.39844a14.20349,14.20349,0,0,0,1.44775,6.52441,10.63306,10.63306,0,0,0,4.04346,4.41114,11.39537,11.39537,0,0,0,5.99658,1.5625A10.38831,10.38831,0,0,0,240.45947,432.52456Z"/><path class="cls-1" d="M310.09717,441.87514H300.07959v-8.08691h-.55127a11.67134,11.67134,0,0,1-2.41211,3.99707,14.35362,14.35362,0,0,1-4.71,3.42383,16.70309,16.70309,0,0,1-7.21436,1.40137,21.06036,21.06036,0,0,1-8.56982-1.63184,12.41981,12.41981,0,0,1-5.78955-5.14551,17.87385,17.87385,0,0,1-2.09082-9.21387V393.30581h10.20117v30.64844a11.42665,11.42665,0,0,0,1.35547,6.043,7.44111,7.44111,0,0,0,3.53809,3.07813,12.39428,12.39428,0,0,0,4.75586.89648,11.61642,11.61642,0,0,0,5.7666-1.4248,10.87331,10.87331,0,0,0,4.04394-3.85938,10.25627,10.25627,0,0,0,1.49317-5.46875V393.30581h10.20117Z"/><path class="cls-1" d="M328.66064,381.49624h9.9712V393.6271h10.84423v7.99511H338.63184v25.77832q0,3.95216,1.67724,5.35352,1.67726,1.40186,5.7666,1.40137,1.05689,0,2.229-.06836,1.17114-.07032,1.769-.11524v7.81153q-.59766.09228-2.68848.25293-2.09106.15966-3.83642.16015a23.00586,23.00586,0,0,1-9.16748-1.46972,8.46018,8.46018,0,0,1-4.57178-4.57227,20.86613,20.86613,0,0,1-1.28662-7.92676V401.62221H321.125V393.6271h7.53564Z"/><path class="cls-1" d="M369.92432,440.10561a17.90083,17.90083,0,0,1-7.44434-7.48925,24.56569,24.56569,0,0,1-2.61914-11.74024v-6.57129a23.52682,23.52682,0,0,1,2.75732-11.76269,19.025,19.025,0,0,1,7.4668-7.46778,21.67751,21.67751,0,0,1,10.6377-2.5957,21.18466,21.18466,0,0,1,10.77539,2.68848,19.1336,19.1336,0,0,1,7.32861,7.55859,23.78076,23.78076,0,0,1,2.66553,11.5791v5.69824h-31.522v2.38868a12.86582,12.86582,0,0,0,2.96387,8.66211,10.3708,10.3708,0,0,0,8.33985,3.46972,13.68945,13.68945,0,0,0,4.73291-.75879,9.01611,9.01611,0,0,0,3.33154-2.02148,5.88437,5.88437,0,0,0,1.63086-2.78028h9.97119a12.64212,12.64212,0,0,1-1.49316,4.50293,16.0159,16.0159,0,0,1-3.62989,4.48047,18.68982,18.68982,0,0,1-5.97363,3.42285,24.59332,24.59332,0,0,1-8.52393,1.333A23.7,23.7,0,0,1,369.92432,440.10561ZM391.521,413.34v-.64356a14.48142,14.48142,0,0,0-1.333-6.41015,10.13367,10.13367,0,0,0-3.74463-4.25,10.4414,10.4414,0,0,0-5.67481-1.5166,10.5543,10.5543,0,0,0-5.69775,1.5166,10.07691,10.07691,0,0,0-3.76807,4.25,14.46789,14.46789,0,0,0-1.33252,6.41015V413.34Z"/><path class="cls-1" d="M71.13919,239.9647q93.49091.05622,186.98175-.00293c4.09418-.00183,8.27784-1.04907,10.96735-3.95129,3.33472-3.59833,7.0246-4.25623,11.41705-3.92347a49.34422,49.34422,0,0,0,6.24823.00293,2.27371,2.27371,0,0,1,2.61969,1.879c1.587,4.63159,3.5788,5.99811,8.41,6.00214q24.86462.02087,49.72918.00842c7.28669-.00146,9.73774-2.44147,9.73792-9.686q.00165-70.59577.03418-141.19159a21.063,21.063,0,0,0-1.51965-8.01557q-12.3621-30.88715-24.6554-61.80194c-1.38947-3.49463-3.57727-5.9751-7.45349-6.59692q-12.78873-.02911-25.57739-.05915c-4.48236-.012-8.16266,2.12818-8.9253,6.65094-.25116,1.48951-1.17834,1.47547-2.25665,1.47394-3.50531-.005-7.01324-.08026-10.51489.03369a5.5848,5.5848,0,0,1-4.50708-1.83648,18.8,18.8,0,0,0-11.38446-5.874,104.80993,104.80993,0,0,0-11.617-.51782q-86.11687.04715-172.23382.02771c-2.1734.00031-4.34674.08978-6.52014.1377-1.10108.22644-2.219.39135-3.3006.68884-9.76569,2.6861-15.7962,10.78619-15.80011,21.3465q-.0261,70.59576-.00842,141.19165c0,14.13812-.06037,28.27661.02179,42.4143C51.10092,230.226,60.13065,239.95805,71.13919,239.9647ZM73.172,28.16227q91.63119-.01364,183.26239-.00018c4.37415.00061,6.06586,1.95733,6.06616,6.9624q.00522,86.38266.00073,172.76526c-.00006,3.51031.03534,7.02106-.00958,10.53082-.055,4.29138-1.751,5.9588-6.10107,5.96051q-45.88661.01822-91.77326.00641-45.74449-.006-91.48907-.007c-4.91577-.001-6.488-1.53973-6.48853-6.40436q-.01107-91.64785-.00122-183.29571C66.639,30.02726,68.49088,28.16294,73.172,28.16227Z"/><path class="cls-1" d="M375.91642,304.13963c-5.01465-.183-10.04847-.21057-15.05927.01782-2.85864.13037-3.71118-.67084-3.67725-3.61939.16034-13.94921.09931-27.90136.05194-41.85223-.01409-4.15051-2.56262-6.8985-6.70251-7.53485-3.28485-.505-7.23389,1.63776-7.96045,5.00592-.61322,2.84277-2.12848,2.97375-4.4126,2.96753-21.3164-.05847-42.6333.00915-63.9494-.09912-2.66626-.01349-3.567.60242-3.53363,3.41369.14844,12.5257.06574,25.05414.0661,37.58161.00012,4.06842-.00049,4.06988-3.93341,4.07q-49.028.00054-98.056.00152-49.17031.002-98.34057.00147c-3.78211,0-3.78034.00067-3.77936-3.89685q.00458-17.79474.00561-35.58936c0-1.80316.09412-3.6145-.04254-5.40778-.386-5.06549-3.65735-8.29443-8.09595-8.11535-4.20141.16943-7.44329,3.70849-7.45794,8.45355q-.08011,26.05115-.01239,52.10272c.0086,4.04981,2.57818,6.85773,6.57263,7.7425,2.19873.48706,4.31927-.14606,6.48273-.145q147.05493.0736,294.10992.04181c6.06336-.00007,12.127.02459,18.18994-.02979,4.11041-.03693,5.24384-1.21423,5.25348-5.20209a35.45978,35.45978,0,0,1,.02844-4.26733C382.20462,305.44242,380.30319,304.29972,375.91642,304.13963Z"/><rect class="cls-2" x="148.54017" y="73.32426" width="52.92236" height="16.35394"/><rect class="cls-2" x="148.54017" y="99.65147" width="16.354" height="16.35388"/><rect class="cls-2" x="180.48866" y="99.65147" width="52.92224" height="16.35388"/><rect class="cls-2" x="217.05702" y="73.32426" width="16.35388" height="16.35394"/><path class="cls-1" d="M248.90308,57.421q-69.76848-.00549-139.537-.01038-.70606-.00009-1.39356.067.687-.06656,1.39356-.06708,69.76849.00375,139.53711.01044c.05151-3.9787-.04981-7.96741.20776-11.93268.17432-2.68579-.58435-3.53229-3.38965-3.52789q-80.85973.12635-161.71985.06573c-3.84265.00019-3.84716.007-3.84729,3.82086q-.00145,78.011,0,156.022c0,3.68432.00464,3.68774,3.68506,3.68786q79.29675.003,158.59351.00434c1.51587,0,3.03381-.04932,4.54687.01611,1.377.05951,2.1283-.332,2.09351-1.89471-.10132-4.54755-.1167-9.097-.16553-13.64624.06726-1.0354.19263-2.07129.1936-3.1073q.02124-25.90293.01465-51.80579.00111-37.29822-.00952-74.59637C249.10584,59.49162,248.97376,58.45634,248.90308,57.421ZM148.54017,73.32426h52.92236V89.6782H148.54017Zm16.354,42.68109h-16.354V99.65147h16.354Zm68.51673,0H180.48866V99.65147H233.4109Zm0-26.32715H217.057V73.32426H233.4109Z"/><path class="cls-3" d="M97.46262,183.165a12.67337,12.67337,0,0,1-1.04736-2.46314"/><rect class="cls-1" x="214.71061" y="274.4725" width="16.35394" height="16.35394"/><rect class="cls-1" x="85.47997" y="274.4725" width="113.64495" height="16.35394"/></svg>