<svg id="レイヤー_1" data-name="レイヤー 1" xmlns="http://www.w3.org/2000/svg" viewBox="0 0 922.29999 219.10001"><defs><style>.cls-1{fill:none;}.cls-2,.cls-3,.cls-4,.cls-5{fill:#fff;}.cls-2{opacity:0.6;}.cls-3{opacity:0.4;}.cls-4{opacity:0.9;}</style></defs><title>lfdl-landscape-horizontal-white</title><path class="cls-1" d="M324.89062,172.83591a11.505,11.505,0,0,0,3.96338,9.293,15.22426,15.22426,0,0,0,10.18116,3.34863,22.21937,22.21937,0,0,0,11.2749-3.0752,18.60471,18.60471,0,0,0,7.72119-7.99414V159.23825h-9.90771Q324.89039,159.23825,324.89062,172.83591Z"/><path class="cls-1" d="M497.67462,132.3602c.13031.06152.26508.11548.39356.18011C497.9397,132.47568,497.80493,132.42172,497.67462,132.3602Z"/><path class="cls-1" d="M492.234,130.76926a19.09737,19.09737,0,0,1,4.6737,1.24A19.09469,19.09469,0,0,0,492.234,130.76926Z"/><path class="cls-1" d="M474.46289,178.6445q-5.19333-7.1055-5.19336-19.67969v.00006q-.00092,12.57368,5.19336,19.67969a16.77216,16.77216,0,0,0,4.4812,4.34577A16.77239,16.77239,0,0,1,474.46289,178.6445Z"/><path class="cls-1" d="M488.8125,185.751q11.947.00192,17.4848-10.65882Q500.75572,185.74711,488.8125,185.751Z"/><path class="cls-1" d="M694.55859,172.83585v.00006l.00159-.02918Z"/><path class="cls-1" d="M706.6416,44.51169q-2.71536,2.4321-7.542,2.43213Q703.92727,46.94409,706.6416,44.51169Z"/><path class="cls-1" d="M475.84174,136.01578a16.11821,16.11821,0,0,1,6.7135-4.46784A16.11593,16.11593,0,0,0,475.84174,136.01578Z"/><path class="cls-1" d="M502.61865,45.67307a11.762,11.762,0,0,1-7.30224,2.02514A11.759,11.759,0,0,0,502.61865,45.67307Z"/><path class="cls-1" d="M316.89062,172.83585a11.505,11.505,0,0,0,3.96338,9.293,15.22464,15.22464,0,0,0,10.18116,3.34863,22.21958,22.21958,0,0,0,11.2749-3.0752,18.605,18.605,0,0,0,7.72119-7.99414v-15.17h-9.90771Q316.89066,159.2392,316.89062,172.83585Z"/><path class="cls-1" d="M716.4231,159.26407c.45636-.00836.89721-.02582,1.36792-.02582h9.9082v-.00006H717.791C717.32031,159.23819,716.87946,159.25571,716.4231,159.26407Z"/><path class="cls-1" d="M367.894,49.91989q-.07544,8.76957-4.09131,13.45557Q367.81861,58.68988,367.894,49.91989Z"/><path class="cls-1" d="M483.6275,185.13254a16.79461,16.79461,0,0,1-2.8919-1.11322A16.79461,16.79461,0,0,0,483.6275,185.13254Z"/><path class="cls-1" d="M354.843,67.8934a13.44784,13.44784,0,0,0,8.95977-4.51794A13.45038,13.45038,0,0,1,354.843,67.8934Z"/><path class="cls-1" d="M475.5661,136.35178c.08881-.10212.16852-.22022.25885-.31958C475.73456,136.13162,475.65491,136.24966,475.5661,136.35178Z"/><polygon class="cls-1" points="640.499 55.278 640.499 55.278 648.456 32.501 656.413 55.278 656.413 55.278 648.456 32.501 640.499 55.278"/><path class="cls-1" d="M773.11505,140.19211a22.65569,22.65569,0,0,1,2.73132-3.721A22.65132,22.65132,0,0,0,773.11505,140.19211Z"/><path class="cls-1" d="M808.105,144.646a37.27583,37.27583,0,0,1,1.734,9.29309A37.26675,37.26675,0,0,0,808.105,144.646Z"/><path class="cls-1" d="M883.25867,140.075a28.70962,28.70962,0,0,1,2.22619,9.6601A28.696,28.696,0,0,0,883.25867,140.075Z"/><path class="cls-1" d="M880.03491,135.17014c-3.06634-3.30469-7.14526-4.9729-12.25659-4.9729C872.89026,130.19846,876.96918,131.86673,880.03491,135.17014Z"/><path class="cls-1" d="M802.47131,135.27542c.02393.02283.04956.04358.07337.06653C802.52087,135.31894,802.49524,135.29825,802.47131,135.27542Z"/><path class="cls-1" d="M804.60547,178.95206a17.08716,17.08716,0,0,1-14.45215,7.209,23.87375,23.87375,0,0,1-3.63306-.27649,23.87421,23.87421,0,0,0,3.63306.27655,17.08716,17.08716,0,0,0,14.45215-7.209q4.07172-5.47157,5.04718-14.98627Q808.67158,173.47315,804.60547,178.95206Z"/><path class="cls-1" d="M790.0166,130.539q.54217-.01914,1.08057-.00421Q790.559,130.51993,790.0166,130.539Z"/><path class="cls-1" d="M772.79785,176.04782c.04712.084.09827.16113.146.24408-.04773-.083-.09888-.16016-.146-.24414Z"/><path class="cls-2" d="M146.247,185V172.622h27.36157V148.72934c-9.69232-6.94385-19.29712-13.89581-28.80853-21.02936-2.9-2.2-5.1-2.3-8,.1-5.4,4.5-11.1,8.6-16.6,13-2.3,1.8-4,1.8-6.1-.4-10-10.1-20.30005-20-30.2-30.2-2.5-2.6-4.3-2.6-7-.4-10.1137,8.31262-20.27661,16.529-30.453,24.74945V172.622h81.685v.00012h.00024v24.94708h18.11518V197.569H146.247Z"/><path class="cls-3" d="M134.7,101A20.20059,20.20059,0,1,0,114.3,80.8,20.36282,20.36282,0,0,0,134.7,101Z"/><polygon class="cls-4" points="46.447 172.622 46.447 134.55 46.447 134.549 46.447 95.898 46.447 90.917 27.949 90.917 19.874 90.917 19.874 116.143 19.874 185 19.874 197.569 128.132 197.569 128.132 185 128.132 172.622 46.447 172.622 46.447 172.622"/><rect class="cls-2" x="46.44702" y="172.62198" width="81.685" height="0.00012"/><rect class="cls-4" x="46.44702" y="172.62198" width="81.685" height="0.00012"/><polygon class="cls-5" points="19.874 18.431 19.874 24.4 19.874 25.991 19.874 59.169 19.874 72.769 27.931 72.769 34.057 72.769 46.396 72.769 46.396 45.535 173.609 45.535 173.609 148.729 173.609 172.622 173.609 172.622 146.247 172.622 146.247 185 146.247 197.569 146.247 197.569 183.403 197.569 188.744 197.569 200.54 197.569 200.54 18.431 183.403 18.431 19.874 18.431"/><polygon class="cls-5" points="267.548 68.061 242.622 68.061 242.622 20.849 233.081 20.849 233.081 75.754 267.548 75.754 267.548 68.061"/><polygon class="cls-5" points="284.404 52.563 306.502 52.563 306.502 44.87 284.404 44.87 284.404 28.541 309.746 28.541 309.746 20.849 274.864 20.849 274.864 75.754 284.404 75.754 284.404 52.563"/><path class="cls-5" d="M365.65039,24.09177a25.4392,25.4392,0,0,0-12.91553-3.24317H336.51953V75.75436h15.80029a26.609,26.609,0,0,0,13.17969-3.20556,21.8409,21.8409,0,0,0,8.86182-9.12549,29.08375,29.08375,0,0,0,3.11133-13.72656V46.94382a29.21348,29.21348,0,0,0-3.09229-13.65088A22.11953,22.11953,0,0,0,365.65039,24.09177ZM367.894,49.91989q-.07544,8.77-4.09131,13.45557A13.44784,13.44784,0,0,1,354.843,67.8934a20.97776,20.97776,0,0,1-2.56073.168h-6.22217v-39.52h6.6748q7.39014,0,11.27539,4.70508,3.88331,4.70508,3.88379,13.625Z"/><polygon class="cls-5" points="422.875 68.061 396.516 68.061 396.516 51.243 419.066 51.243 419.066 43.701 396.516 43.701 396.516 28.541 422.611 28.541 422.611 20.849 386.975 20.849 386.975 75.754 422.875 75.754 422.875 68.061"/><polygon class="cls-5" points="466.543 68.061 440.184 68.061 440.184 51.243 462.734 51.243 462.734 43.701 440.184 43.701 440.184 28.541 466.279 28.541 466.279 20.849 430.643 20.849 430.643 75.754 466.543 75.754 466.543 68.061"/><path class="cls-5" d="M483.85254,55.39108h11.35058q9.53907,0,14.83887-4.49218,5.29688-4.49268,5.29785-12.57178A16.12245,16.12245,0,0,0,509.92871,25.643q-5.4126-4.7937-14.6123-4.79443H474.31152V75.75436h9.541Zm0-26.84961h11.72754a10.47147,10.47147,0,0,1,7.4668,2.73389,9.49863,9.49863,0,0,1,2.71484,7.1084q0,4.52563-2.67774,6.91992c-.14685.13135-.30761.24884-.46533.36939a11.759,11.759,0,0,1-7.30224,2.02514H483.85254Z"/><polygon class="cls-5" points="577.372 68.061 552.446 68.061 552.446 20.849 542.905 20.849 542.905 75.754 577.372 75.754 577.372 68.061"/><polygon class="cls-5" points="620.588 68.061 594.229 68.061 594.229 51.243 616.779 51.243 616.779 43.701 594.229 43.701 594.229 28.541 620.324 28.541 620.324 20.849 584.688 20.849 584.688 75.754 620.588 75.754 620.588 68.061"/><path class="cls-5" d="M644.19434,20.8486,623.4541,75.75436h9.918l4.44922-12.78369H659.0899l4.48731,12.78369h9.95605L652.75488,20.8486ZM656.413,55.2778H640.499L648.456,32.501l7.957,22.77685Z"/><path class="cls-5" d="M689.2959,54.63669h10.63379l11.01172,21.11767h10.21875v-.48974L708.8291,52.40085a16.91717,16.91717,0,0,0,7.41016-5.71778,15.4568,15.4568,0,0,0,2.6582-9.228q0-8.07642-5.166-12.3418-5.16651-4.26416-14.66895-4.26465H679.75488V75.75436h9.541Zm0-26.09522h10.06836q4.97754.07617,7.48535,2.48877a9.03052,9.03052,0,0,1,2.50781,6.82569,8.48064,8.48064,0,0,1-2.71582,6.65576q-2.71435,2.43237-7.542,2.43213H689.2959Z"/><polygon class="cls-5" points="737.489 36.8 761.963 75.754 771.503 75.754 771.503 20.849 762.038 20.849 762.038 59.954 737.489 20.849 727.948 20.849 727.948 75.754 737.489 75.754 737.489 36.8"/><rect class="cls-5" x="783.34375" y="20.8486" width="9.50293" height="54.90576"/><polygon class="cls-5" points="814.116 36.8 838.59 75.754 848.13 75.754 848.13 20.849 838.665 20.849 838.665 59.954 814.116 20.849 804.575 20.849 804.575 75.754 814.116 75.754 814.116 36.8"/><path class="cls-5" d="M880.67383,47.58493v7.24023h11.3125v10.69q-3.09229,3.301-10.40723,3.30078a12.38328,12.38328,0,0,1-10.42676-4.90772q-3.75292-4.90722-3.75293-13.7832V45.91354q.11427-8.91284,3.45118-13.519,3.33691-4.60693,9.748-4.60693,9.917,0,11.501,9.91748h9.35254q-1.09423-8.52172-6.48633-13.06641-5.39355-4.54393-14.55566-4.54394-10.67286,0-16.63086,6.99511-5.95752,6.99537-5.958,19.43946v4.29883a31.33171,31.33171,0,0,0,2.998,13.59423,20.84483,20.84483,0,0,0,8.20215,8.95655,23.628,23.628,0,0,0,12.21778,3.12988,33.69868,33.69868,0,0,0,11.99218-1.999,18.24418,18.24418,0,0,0,8.25782-5.88233V47.58493Z"/><polygon class="cls-5" points="246.236 95.622 233.048 95.622 233.048 195.112 293.385 195.112 293.385 184.385 246.236 184.385 246.236 95.622"/><path class="cls-5" d="M362.67285,143.79587q-.27393-11.20606-7.5166-17.59571-7.24365-6.38817-20.021-6.38867a35.86435,35.86435,0,0,0-14.79394,3.00586,26.826,26.826,0,0,0-10.65967,8.166,17.44365,17.44365,0,0,0-3.9292,10.69336h12.71q0-4.8501,4.57813-8.26758a18.43349,18.43349,0,0,1,11.34277-3.417q7.72119,0,11.68506,3.92968,3.96166,3.93018,3.96289,10.55664v5.8086H337.73193q-15.92284,0-24.70214,6.38867-8.781,6.38974-8.78028,17.9375a20.00374,20.00374,0,0,0,7.00391,15.68164q7.00341,6.18457,17.937,6.18359a28.2009,28.2009,0,0,0,21.0459-9.15625q.68262,5.6045,1.77685,7.79H365.269v-1.09375q-2.59716-6.01172-2.59619-16.19433Zm-12.6416,30.6123a18.605,18.605,0,0,1-7.72119,7.99414,22.21958,22.21958,0,0,1-11.2749,3.0752,15.22464,15.22464,0,0,1-10.18116-3.34863,11.505,11.505,0,0,1-3.96338-9.293q0-13.59669,23.23292-13.59766h9.90771Z"/><path class="cls-5" d="M416.99609,119.81149a26.93933,26.93933,0,0,0-22.13916,10.65918l-.41015-9.293h-11.958v73.93457h12.64111V142.42868a22.2695,22.2695,0,0,1,7.24317-8.60937,18.24581,18.24581,0,0,1,10.79638-3.28028q7.585,0,11.17237,3.82715,3.5874,3.82764,3.65576,11.82129v48.9248h12.64111V146.25583Q440.43359,119.811,416.99609,119.81149Z"/><path class="cls-5" d="M506.37305,128.69431q-7.585-8.88282-20.56739-8.88282a25.49633,25.49633,0,0,0-21.11425,10.35157q-8.064,10.35195-8.06348,27.36718v.95606q0,16.94825,8.09766,27.46972,8.09764,10.52345,20.94336,10.52247,13.5293,0,21.11425-9.293l.61524,7.92669h11.61621V90.15524h-12.6416Zm0,46.25976c-.02436.04755-.05121.09094-.07575.13812q-5.54022,10.65675-17.4848,10.65882a16.7837,16.7837,0,0,1-14.34961-7.10645q-5.19434-7.106-5.19336-19.67969v-.00006q0-14.07569,5.19336-21.251c.3504-.48432.72473-.92682,1.10321-1.36206.08881-.10212.16846-.22016.25885-.31958l.01679-.01642a16.11593,16.11593,0,0,1,6.7135-4.46784,19.399,19.399,0,0,1,6.394-1.00891,23.62985,23.62985,0,0,1,3.28479.23023,19.09469,19.09469,0,0,1,4.6737,1.24c.26087.108.51294.231.76691.35089.13031.06152.26508.11548.39356.18011a19.4581,19.4581,0,0,1,8.30487,8.4538Z"/><path class="cls-5" d="M582.76758,157.46188a68.2296,68.2296,0,0,0-15.33985-5.05664q-9.46581-2.11669-13.08593-4.4414a7.66567,7.66567,0,0,1-3.6211-6.90137,9.4644,9.4644,0,0,1,3.89453-7.8584q3.895-3.00586,10.79688-3.00683a16.51733,16.51733,0,0,1,11.10351,3.75878,11.41165,11.41165,0,0,1,4.40723,8.95118h12.71a20.62029,20.62029,0,0,0-7.82422-16.6045q-7.82518-6.49071-20.39648-6.49121-11.959,0-19.64551,6.28614-7.6875,6.2871-7.6875,15.375a16.34084,16.34084,0,0,0,2.69922,9.42968,21.6751,21.6751,0,0,0,8.33692,6.833,63.6653,63.6653,0,0,0,15.2373,4.91992q9.59911,2.04931,13.46191,4.88575a9.30937,9.30937,0,0,1,3.86036,7.96,8.92426,8.92426,0,0,1-4.33887,7.75586q-4.34034,2.90478-11.51367,2.90429-7.79,0-12.53907-3.72461a13.0829,13.0829,0,0,1-5.09082-10.07812h-12.6416a21.15784,21.15784,0,0,0,3.86133,12.19629,25.54637,25.54637,0,0,0,10.69336,8.78125,37.24076,37.24076,0,0,0,15.7168,3.14258q12.64013,0,20.56738-5.97852a18.92078,18.92078,0,0,0,7.92676-15.88672,17.39608,17.39608,0,0,0-2.83594-10.0791A22.38065,22.38065,0,0,0,582.76758,157.46188Z"/><path class="cls-5" d="M625.44043,137.13278q5.294-6.93456,14.93066-6.93554a16.89926,16.89926,0,0,1,12.05957,4.6123,17.4264,17.4264,0,0,1,5.43262,11.78711h11.958q-.54786-11.88867-8.78027-19.33691-8.23536-7.44727-20.66993-7.44825a32.31682,32.31682,0,0,0-17.52734,4.64649,30.17942,30.17942,0,0,0-11.37695,13.05078,44.50734,44.50734,0,0,0-3.96387,19.20117v2.11816q0,17.49316,8.918,27.57227,8.91651,10.0796,24.01855,10.07813a31.06491,31.06491,0,0,0,14.24707-3.416,28.8127,28.8127,0,0,0,10.76172-9.15625,22.93437,22.93437,0,0,0,4.373-12.09473h-11.958a14.42684,14.42684,0,0,1-5.60254,10.249,18.21084,18.21084,0,0,1-11.82129,4.10058q-9.77343,0-15.0332-6.90136-5.26319-6.90088-5.26172-19.67969v-2.3916Q620.14453,144.0693,625.44043,137.13278Z"/><path class="cls-5" d="M740.33984,143.79587q-.27391-11.20606-7.5166-17.59571-7.24365-6.38817-20.02051-6.38867a35.86416,35.86416,0,0,0-14.79394,3.00586,26.81771,26.81771,0,0,0-10.65918,8.166,17.44432,17.44432,0,0,0-3.92969,10.69336h12.71q0-4.8501,4.57813-8.26758a18.43438,18.43438,0,0,1,11.34277-3.417q7.72119,0,11.68457,3.92968,3.9624,3.93018,3.96387,10.55664v5.8086H715.39941q-15.92285,0-24.70214,6.38867-8.78028,6.38974-8.78028,17.9375a20.00374,20.00374,0,0,0,7.00391,15.68164q7.00341,6.18457,17.93652,6.18359a28.20311,28.20311,0,0,0,21.04688-9.15625q.68115,5.6045,1.77636,7.79h13.25586v-1.09375q-2.59716-6.01172-2.59668-16.19433Zm-12.64062,15.44238v15.16992a18.60893,18.60893,0,0,1-2.31256,3.53986q-.44907.54126-.93762,1.04706a18.60866,18.60866,0,0,1-4.4715,3.40722q-.64059.37739-1.30274.71a22.21389,22.21389,0,0,1-2.72039,1.14734q-.6969.24069-1.40827.43476a22.21593,22.21593,0,0,1-5.843.78314,15.22454,15.22454,0,0,1-10.18164-3.34863,11.50455,11.50455,0,0,1-3.96289-9.293v-.00006l.00159-.02912q.02481-13.15392,21.86292-13.54266c.45636-.00836.89721-.02588,1.36792-.02588h9.9082Z"/><path class="cls-5" d="M793.77539,119.81149q-13.73437,0-21.45605,9.56641l-.61524-8.2002H760.15625V223.53806h12.6416V187.93747q7.71974,8.543,21.18262,8.541,13.18652,0,20.90918-10.31745,7.72119-10.3169,7.72168-27.19629v-1.16113q0-17.90186-7.75586-27.94824Q807.09912,119.811,793.77539,119.81149Zm-3.62207,66.34961a23.87421,23.87421,0,0,1-3.63306-.27655q-8.83336-1.356-13.57641-9.59265c-.04773-.083-.09888-.16009-.146-.24408V140.72067c.10254-.18188.21192-.35156.3172-.52856a22.65132,22.65132,0,0,1,2.73132-3.721A18.30232,18.30232,0,0,1,790.0166,130.539q.54217-.01914,1.08057-.00421.53814.01483,1.07116.06305.53276.04815,1.059.129a17.14338,17.14338,0,0,1,2.07044.45013q.5084.14393,1.006.31848a17.17522,17.17522,0,0,1,6.1676,3.78c.02393.02283.04956.04352.07337.06653a17.165,17.165,0,0,1,2.09491,2.44019A24.65476,24.65476,0,0,1,808.105,144.646a37.26675,37.26675,0,0,1,1.734,9.29309c.07861,1.16247.13074,2.35107.13068,3.59112a62.682,62.682,0,0,1-.317,6.43567q-.981,9.50739-5.04718,14.98627A17.08716,17.08716,0,0,1,790.15332,186.1611Z"/><path class="cls-5" d="M867.77832,119.81149a29.54694,29.54694,0,0,0-16.36523,4.88575,32.76919,32.76919,0,0,0-11.75293,13.52929A44.36955,44.36955,0,0,0,835.457,157.872v2.32324q0,16.53663,9.42969,26.41016,9.43066,9.87452,24.46289,9.873,18.58593,0,27.8789-14.28125l-7.7207-6.01269a28.48471,28.48471,0,0,1-8.13183,7.24316,22.01875,22.01875,0,0,1-11.34278,2.7334,20.08165,20.08165,0,0,1-15.5459-6.73047q-6.11571-6.72949-6.38867-17.66406h50.08692v-5.26172q0-17.69678-7.99512-27.19531Q882.19681,119.81152,867.77832,119.81149Zm-19.26953,31.56836q1.23047-10.04443,6.42285-15.61328a16.86437,16.86437,0,0,1,12.84668-5.56933c5.11133,0,9.19025,1.66821,12.25659,4.9729.10309.11108.21491.20813.31568.323a18.19883,18.19883,0,0,1,2.90808,4.58191,28.696,28.696,0,0,1,2.22619,9.6601c.01709.2323.04566.45245.05909.68866l.00006.95605Z"/></svg>