<?xml version="1.0" encoding="UTF-8"?><svg id="Layer_1" xmlns="http://www.w3.org/2000/svg" viewBox="0 0 400 400"><path d="M3.03758,183.94819c5.70837-16.84478,13.22418-32.39013,28.45167-43.07822,4.05591-2.84683,.6251-7.31093,.08892-10.93184-3.43435-23.19272,1.41824-43.64008,19.6906-59.54013,12.36107-10.75623,27.01309-15.02245,42.95025-11.67763,6.75965,1.41869,8.74324-.70465,11.57208-6.02012,13.04982-24.52099,37.78923-35.4559,62.50844-28.26934,11.3083,3.28764,17.90187,11.15447,17.91491,22.80352,.10813,96.61301,.12137,193.22628-.00721,289.83925-.01909,14.3463-6.04403,20.90445-20.61585,24.16878-21.63398,4.8464-42.55885-3.59768-54.48308-22.01386-2.0868-3.22287-3.32537-6.96318-8.82713-5.44274-44.40222,12.27099-79.7638-28.16985-70.81484-72.98479,1.19472-5.98296,.59303-9.184-4.52974-12.97572-13.44517-9.95187-18.95613-25.05583-23.89902-40.2961v-23.58108Zm171.05558-6.98485c0-22.36987-.1673-44.56398,.1107-66.75251,.07502-5.98727-4.021-5.7254-7.64988-6.63407-14.60828-3.65788-24.67497-12.95358-31.76145-25.7983-1.00399-1.81979-4.25567-4.53518,.27827-6.16804,3.09308-1.11395,6.43274-4.13399,9.54047,.10875,2.31764,3.16408,4.47519,6.45784,6.95789,9.48579,4.26002,5.19564,9.65066,8.70645,16.23367,10.41835,4.54169,1.18107,6.59919,.1373,6.46921-5.03359-.27148-10.80023-.07361-21.61214-.07528-32.41926-.00244-15.93184-8.74613-23.44481-24.80119-21.10039-6.22436,.9089-11.91634,3.35612-17.16489,6.88008-27.51017,18.47085-31.35919,60.04684-7.31121,83.95548,4.62503,4.59824,6.25998,8.26786,1.21532,12.60997-5.28507,4.54905-7.59717-1.83665-9.82773-4.23072-13.80497-14.81693-20.81784-32.45787-18.71571-52.85244,.74548-7.23247-2.01239-9.08186-8.39943-9.62699-27.68354-2.36279-48.62503,20.49463-46.78569,51.36259,.81373,13.6561,9.74533,18.08265,21.47956,10.67849,2.94623-1.85904,4.60294-4.59372,5.59132-7.79847,1.85726-6.02206,6.72076-3.27563,9.80493-2.57677,4.45134,1.00866,1.70356,4.63927,.82834,7.05847-.8779,2.42661-1.82199,5.24388-3.65307,6.83856-7.45748,6.49468-3.28032,10.41105,2.75589,13.89242,2.50975,1.44749,5.28294,2.82228,8.0924,3.28697,5.94537,.98334,5.12557,5.23799,4.5803,8.98619-.68308,4.69557-4.56766,2.812-7.03849,2.32317-7.49616-1.48302-14.8623-3.9493-19.24283-10.67281-5.7432-8.81502-13.27154-7.78603-21.45036-5.06259-7.75523,2.58239-13.74394,7.62822-18.45963,14.06581-14.36952,19.61646-13.58285,50.75307,1.56528,69.87864,7.62748,9.63022,9.26579,9.59771,16.95415-.23429,1.41029-1.8035,2.7608-3.73075,4.48478-5.19338,2.40734-2.04239,4.43005-6.67074,8.51214-1.72779,2.7668,3.35027,4.59167,6.18146,.27686,9.84344-4.80743,4.08006-8.21253,9.4504-10.67684,15.15059-7.90092,18.2757-7.94663,36.40016,3.35078,53.35716,9.59933,14.40822,23.16849,21.72312,40.90879,20.29848,7.8992-.63436,14.21775-2.11546,11.94914-12.66061-.86974-4.04274-.48503-8.57403,.27812-12.70739,2.14559-11.62106-.85809-21.41416-10.05046-28.72775-4.75909-3.78643-1.95944-6.68198-.13941-9.97432,2.97084-5.37404,5.47604-.76554,7.68194,.69298,3.84208,2.54038,7.16389,5.8753,9.12766,10.09342,1.73915,3.7357,3.31436,3.72544,6.43048,1.33736,11.89319-9.11445,23.54021-18.21795,22.26975-35.55952-.41503-5.66509,4.54895-6.20752,7.98163-6.6688,4.224-.56761,3.68137,3.68153,3.90752,6.3863,1.50529,18.00453-7.54044,30.90174-21.38578,40.44863-10.56423,7.28441-14.69809,16.93121-15.33429,29.03185-1.52804,29.06355,22.9262,50.63192,49.55967,43.853,7.53975-1.91906,10.98385-6.04031,10.81917-13.86978-.26164-12.43905-.59505-24.91778,.11257-37.32208,.50877-8.91805-3.74836-8.81694-10.0532-7.21251-10.05159,2.55801-16.66461,9.13472-20.14246,18.46599-2.37794,6.3801-6.80768,5.72702-10.93235,3.92928-5.36538-2.33855-1.29775-6.44426-.03996-9.0794,6.58521-13.79659,17.19986-23.53325,32.58725-25.35858,7.71782-.91553,8.75825-3.67615,8.63325-10.28185-.37174-19.64228-.13316-39.29612-.13313-58.94543,.00003-21.18683-2.66213-24.00039-24.1103-25.10178-2.92214-.15004-5.92528-.0431-8.80235,.45558-25.79489,4.47088-40.81204,20.56616-47.53562,45.03647-1.3447,4.89397-2.31574,7.56487-8.30023,6.10705-6.53249-1.59133-4.1279-5.82932-3.21728-9.1111,1.56549-5.64196,3.23049-11.49841,6.21924-16.43914,3.35378-5.54419,1.27333-8.15958-3.13379-10.97509-8.72641-5.5749-17.84839-6.70435-26.88948-1.52298-5.52021,3.1636-7.00299-1.20033-9.17636-3.91354-3.63625-4.53946,1.24625-5.55302,3.68329-6.83946,13.78648-7.27748,27.3363-6.15275,39.65178,3.03985,4.90965,3.66471,7.51336,3.85969,12.03414-.52602,13.1452-12.75245,29.40309-18.12609,47.55291-16.8625,7.09296,.49381,14.07129,2.6333,21.91957,4.1849Z"/><path d="M396.13462,264.51687c-3.48543,14.68405-14.37924,14.87221-26.27988,13.7598-6.40717-.59892-12.90039-.27712-19.35197-.37088,2.77533-5.66202,5.54784-11.32388,8.32032-16.98578,12.43718-.11109,24.87435-.22219,37.31153-.33331v3.93018Z"/><path d="M396.13462,244.86597c-10.38052-.22739-20.76101-.45477-31.14345-.67934,1.48086-5.66625,2.96364-11.33529,4.44639-17.00436,8.89903-.0007,17.79802-.00141,26.69705-.00211v17.68581Z"/><path d="M396.13462,174.12274c-7.95563,.26793-15.91127,.53588-23.86117,.8018-1.12541-5.38047-2.25655-10.75892-3.38768-16.13736,5.45607,.00337,10.96429,.47565,16.35327-.12379,5.22892-.58166,8.33628,1.68941,10.89558,5.63391v9.82545Z"/><path d="M396.13462,209.49436c-7.91143-.05681-15.82282-.11363-23.7335-.1707,.13433-5.29013,.26794-10.57997,.40155-15.86983,7.77731,.10661,15.55464,.21322,23.33195,.31982v15.72072Z"/><path d="M372.80267,193.45382c-.13361,5.28986-.26722,10.5797-.40155,15.86983-.98574,5.95428-1.97073,11.90829-2.95965,17.86047-1.48665,5.66722-2.96943,11.33627-4.45029,17.00251-2.05504,5.5749-4.112,11.15261-6.1685,16.73187-2.77206,5.6634-5.54457,11.32526-8.3199,16.98728-4.00778,5.91164-8.01271,11.82313-12.01334,17.73609-5.54463,4.46016-9.26741,10.4548-13.4847,16.03355-6.99055,5.99536-13.98111,11.99069-20.96881,17.98458-9.34793,5.48553-18.69868,10.97252-28.04946,16.45952-20.51073,8.00834-41.3729,14.2183-63.68144,14.85245-8.63851,.24558-11.3668-2.69645-11.35422-11.26266,.07319-49.77876-.2423-99.55893-.66772-149.33656-.05458-6.38582,1.95446-11.13667,6.32425-15.70319,33.72301-35.24118,67.23919-70.6801,100.89809-105.98282,8.56715-8.98554,11.48577-8.93346,19.7172,.20122,5.23576,5.81027,10.09435,11.96029,15.12628,17.95114,1.14031,4.12993,3.63259,7.4351,6.46784,10.52996,3.16053,5.83699,6.32107,11.67397,9.48439,17.51142,2.09766,5.36124,4.19255,10.72201,6.28748,16.08276,1.43147,5.94016,2.86293,11.88031,4.29578,17.82221,1.13252,5.38014,2.26366,10.75859,3.38906,16.13907,.1726,6.17779,.35092,12.35354,.52922,18.52928Zm-17.73759-34.74948c-.23549-6.49023-2.17104-12.48985-5.24334-18.1614-1.63609-5.6677-3.08091-11.41742-6.92334-16.13902-4.97702-11.47116-12.45046-21.3467-19.73391-31.38511-4.13047-5.69279-6.93939-5.63113-11.84333-.38561-30.3925,32.50959-61.04179,64.78172-91.87211,96.87699-4.65272,4.84361-6.70774,9.59923-6.64101,16.37106,.41268,41.88823,.38997,83.78071,.51781,125.67177q.05803,19.01384,19.46756,14.01128c15.70848-1.7381,30.35001-6.73779,44.11254-14.42453,10.413-4.30799,19.24494-10.89771,27.15936-18.81156,7.14144-3.9016,12.28464-9.90578,17.10508-16.24959,6.13326-4.59803,9.89653-10.93432,13.01783-17.74149,4.24195-4.95458,7.78241-10.29855,9.30732-16.76125,3.69062-5.22421,6.07814-11.01871,7.53891-17.21882,3.01157-5.22767,3.92866-11.02507,4.59629-16.89032,1.99662-5.8529,3.56568-11.77739,3.0247-18.05524-.19491-5.30344,3.45885-10.512,.3918-15.88625,1.22372-6.15891,.12899-12.25217-.52013-18.35804-.01545-5.72695-1.1596-11.21664-3.46203-16.46285Z"/><path d="M201.0155,92.15071c0-19.63262,.17839-39.26777-.10032-58.89643-.09291-6.54385,1.68473-9.57282,8.85614-9.26012,31.42819,1.37037,59.48946,10.9868,83.29955,32.14402,5.83311,5.18323,6.92838,8.97076,.90989,15.10502-27.25812,27.7824-54.10241,55.97045-81.1412,83.96854-2.41183,2.49741-4.55619,6.43695-8.78098,5.01545-5.07722-1.70831-3.20288-6.57222-3.23469-10.16101-.17107-19.30388-.0809-38.61007-.0809-57.91547h.2725Z"/><path d="M275.98645,346.11953c9.35078-5.487,18.70153-10.97399,28.04946-16.45952,16.49888,.00147,33.0006,.00147,49.50233,.00147,.29784,.91982,.59568,1.83966,.89352,2.75948-7.96073,5.74481-12.99765,15.16822-25.80506,14.41191-17.49973-1.03331-35.08923-.54776-52.64025-.71334Z"/><path d="M305.13319,364.60893c-20.82507,11.73927-43.11555,16.41835-66.69125,15.99841-7.24599-.12905-5.55399-4.5834-5.73737-8.52638-.18711-4.02376-.61484-7.67044,5.66788-7.58708,22.25016,.2952,44.50664,.11505,66.76074,.11505Z"/><path d="M325.00473,311.67543c4.21729-5.57875,7.94007-11.57339,13.4847-16.03355,13.61444-.00144,27.23317-.00144,41.21227-.00144-6.25032,16.43544-6.25053,16.48569-21.38467,16.41955-11.10444-.04852-22.20822-.25079-33.3123-.38456Z"/><path d="M364.58858,140.96326c-2.0949-5.36076-4.18979-10.72153-6.28745-16.08277q18.9767-1.00733,25.8463,16.08277h-19.55885Z"/><path d="M348.81674,107.36907c-2.83525-3.09486-5.32753-6.40003-6.46784-10.52996,2.85349-4.74512,5.86955-6.7154,10.1531-1.21649,2.5537,3.27829,5.67662,6.11336,9.0542,9.68803-4.53481,2.93292-8.88862,1.09715-12.73946,2.05843Z"/><path d="M351.03445,244.35704c-36.56143-.04933-73.12411-.2686-109.6832,.00043-7.01783,.05163-9.71087-1.47349-9.76614-9.10647-.05593-7.71874,3.41901-8.13676,9.45665-8.09475,38.19136,.26579,76.38471,.24075,114.58322,.31108-.66187,5.86464-1.57896,11.66204-4.59053,16.88971Z"/><path d="M334.18822,278.33712c-30.69457-.05391-61.38938-.18303-92.08357-.09682-5.96738,.01673-10.47232,.38114-10.3897-8.26884,.07571-7.92447,3.15037-8.9701,9.9105-8.89031,33.95183,.4009,67.90872,.37289,101.86696,.49511-1.5218,6.46231-5.06226,11.80628-9.3042,16.76087Z"/><path d="M358.65544,209.41148h-121.77891c6.94458-10.71473,13.68165-16.78082,26.94845-16.28432,31.69966,1.18638,63.47345,.39324,95.21981,.39871,3.06951,5.37361-.58425,10.58216-.38934,15.88561Z"/><path d="M358.52711,175.16719h-89.83293c7.61796-11.14535,15.12877-17.58537,28.6539-16.68826,19.15937,1.27085,38.47011,.26103,57.71657,.22567,2.30285,5.24595,3.44701,10.73564,3.46245,16.46259Z"/><path d="M304.0653,312.3282c-20.91171-.089-41.82699-.42423-62.73305-.1224-6.57828,.09502-9.14017-1.34359-9.07816-8.52402,.05817-6.73608,2.46194-8.04726,8.53615-7.96795,26.79107,.34974,53.58763,.28129,80.38117,.36453-4.82146,6.34405-9.96466,12.34823-17.1061,16.24983Z"/><path d="M349.82174,140.54294h-48.04264c7.02175-9.58951,13.01711-18.38859,26.45607-16.11321,4.74948,.80414,9.76618,.03064,14.66205-.02419,3.84361,4.71998,5.28842,10.4697,6.92451,16.1374Z"/><path d="M232.7934,345.5643c-.05719-2.93318,.05476-5.88172-.21013-8.79601-.42592-4.68532,1.58658-6.31749,6.19208-6.19176,12.70185,.34663,25.41181,.3961,38.1246,.56318-13.75654,7.68681-28.39806,12.68649-44.10654,14.42459Z"/></svg>