<?xml version="1.0" encoding="UTF-8"?><svg id="a" xmlns="http://www.w3.org/2000/svg" viewBox="0 0 1314.63265 408.03707"><defs><style>.b{fill:#0190f4;}.c{fill:#0135d6;}.d{fill:#02cdd7;}</style></defs><path class="b" d="M128.55684,268.33706h0c-7.30005-2-7.30005-2.09998-4.5-9.29999,9.1001-24,22.69995-45.09998,40-64,23-25.29999,50.69995-43.40002,83-54.5,18.1001-6.29999,36.8999-9.79999,56.1001-11.09998,4.19995-.29999,5.3999,.79999,4.3999,5-2.3999,10-2.8999,20.40002-6.3999,30.09998,.30005,.09998,.6001,.09998,.8999,.20001h0c8-1.79999,16.1001-2.20001,24.19995-2.29999,3.30005,0,4.69995-1,5.5-4.5,4.6001-21.59998,9.3999-43.09998,14.19995-64.70001,3.1001-13.90002,6.1001-27.79999,9.30005-42.20001-1.6001,.29999-2.6001,.5-3.6001,.70001-32.3999,9.5-64,21.09998-93.8999,36.79999-39.3999,20.59998-74.3999,46.59998-100.8999,82.90002-19.8999,27.29999-32.80005,57.40002-36.30005,91.20001-.3999,4-2.3999,2.79999-4.3999,2.29999-15.69995-4-31.19995-9.09998-46.5-14.40002-2.80005-1-3.8999-.79999-4.69995,2.20001-3.30005,11.59998-4.5,23.29999-1.8999,35.29999,6.80005,30.90002,35.5,55.29999,68.6001,59.09998,31.30005,3.59998,62.19995,1.70001,92.8999-4.70001,45.5-9.59998,87.5-27.59998,126.69995-52.29999,1-.59998,2.30005-1,2.30005-1.29999-10.8999,0-22-.20001-33,0-45.3999,.79999-90.6001-2.40002-135.5-9.40002-17.1001-2.70001-34.1001-5.70001-50.80005-10.09998h0c-2.00024-.39996-3.80029-.69995-5.7002-1h0Z"/><path d="M763.45674,193.73708c-5.69995,.20001-11.3999,.29999-17.1001,0-3.30005-.20001-4.19995,1.29999-4.3999,4.09998-.30005,2.90002-.1001,6-1.5,9.20001-5.30005-7.29999-11.30005-12.40002-19.69995-14.40002-18.3999-4.29999-38.5,5-48.5,23-7.8999,14.29999-10.80005,29.79999-8.3999,46,2,13.79999,8.19995,25.20001,22.1001,30,14.5,4.90002,28,2.20001,39.3999-8.5,1.5-1.40002,2.5-3.20001,3.69995-4.79999,.3999,.29999,.8999,.70001,1.30005,1-1.1001,7.59998-2,15.20001-5.80005,22.09998-7.69995,13.70001-23.5,15.5-34.1001,3.90002-.69995-.79999-1.30005-1.5-2.5-1.59998-9.1001-1-18.19995-2.09998-28-3.29999,2.6001,10.90002,7.69995,19.40002,16.30005,25.70001,27.1001,19.59998,67.30005,5.70001,76.8999-26.59998,2.69995-9.20001,3.5-18.59998,4.6001-28,3-24.70001,6-49.29999,9.1001-74,.3999-3.30005-.5-3.90002-3.40015-3.80005h0Zm-41.7998,74.40002c-6.5,4.5-13.6001,6.09998-21,2.40002-7.19995-3.5-9.80005-9.90002-10.1001-17.40002-.5-10.70001,.6001-21.09998,6.5-30.29999,3.69995-5.79999,8.8999-9.5,15.8999-10.59998,11.5-1.70001,20.5,4.79999,22.30005,16.29999,.3999,2.40002,.30005,4.79999,.5,7.40002-.80005,12.3999-2.69995,24.3999-14.09985,32.19995h0Z"/><path d="M870.15681,164.63711c-2.5-8.90002-2.5-8.59998-11.90002-8.90002-13.80005-.40002-23.1001,5.5-29.3999,17.90002-17.30005,34.29999-35,68.40002-52.6001,102.59998-2.8999,5.59998-5.69995,11.29999-9,17.59998,9.3999,0,17.69995-.09998,26,.09998,3,.09998,4.30005-1.20001,5.3999-3.59998,3.8999-8.29999,8-16.40002,11.8999-24.70001,1.1001-2.29999,2.30005-3.29999,5.1001-3.29999,16.1001,.09998,32.19995,.09998,48.30005,0,2.80005,0,3.90002,1,4.5,3.59998,1.90002,7.90002,4.30005,15.59998,6,23.5,.80005,3.59998,2.40002,4.59998,6,4.5,6.90002-.29999,13.90002-.29999,20.80005,0,4.30005,.20001,4.80005-.90002,3.69995-4.79999-11.79993-41.49994-23.29993-82.99994-34.79993-124.49994Zm-46.40002,74.39996c8.19995-16.79999,16.19995-33.20001,24.90002-51,4.40002,17.79999,8.5,34.20001,12.69995,51h-37.59998Z"/><path d="M490.95674,155.73708c-10.69995,.20001-21.5,.09998-32.19995,.09998h-32.69995c-13.80005,.29999-24.69995,8.70001-27.1001,21.20001-.80005,4.20001-1.1001,8.59998-1.69995,12.79999-4.1001,33.59998-8.19995,67.20001-12.3999,100.70001-.30005,2.70001,.3999,3.40002,2.8999,3.29999,5.5-.09998,11.1001,0,16.6001,0,8.30005,0,8.1001,0,9.1001-8.09998,1.80005-15.40002,3.80005-30.79999,5.6001-46.29999,.3999-3.29999,1.3999-4.5,5-4.40002,16.3999,.20001,32.8999,0,49.30005,.20001,2.8999,0,4.3999-.40002,4.5-3.79999,.19995-4.79999,1-9.59998,1.80005-14.40002,.6001-3.79999,.1001-5.5-4.5-5.40002-15.8999,.29999-31.8999,0-47.80005,.20001-3.8999,.09998-5.1001-.79999-4.5-4.90002,1.30005-7.79999,2.19995-15.70001,2.8999-23.59998,.30005-3.20001,1.30005-4.29999,4.69995-4.29999,17.30005,.20001,34.6001,.09998,51.8999,.09998,7.1001,0,11.1001-3.59998,12.1001-10.79999,.30005-2.59998,.30005-5.20001,1-7.70001,1.59985-4.69995-.90015-4.99994-4.50024-4.89996h0Z"/><path d="M645.75679,217.13711c.19995-12.70001-5.5-20-17.80005-23.29999-10.69995-2.79999-21.5-2.70001-32.5-1.40002-15.6001,1.79999-26.5,10-33.3999,23.79999-1.3999,2.79999-1.3999,4.09998,2.3999,4.5,5.30005,.59998,10.5,1.90002,15.80005,2.90002,2.3999,.5,3.8999,.20001,5.5-2.29999,5.80005-9.20001,18.80005-12.59998,28.80005-7.90002,5.1001,2.40002,4.80005,6.90002,4.8999,11.5,.1001,4.59998-3.3999,4.59998-6.19995,5.29999-8.69995,2-17.6001,3.70001-26.30005,5.79999-9.8999,2.40002-20,4.59998-27.1001,13-7.3999,8.79999-10,18.79999-6.3999,29.90002,2.8999,9.09998,9.8999,14,18.80005,15.90002,12,2.59998,23.3999,.40002,33.80005-6.09998,2.80005-1.70001,5.3999-3.59998,8.3999-5.59998,.6001,2.90002,1.1001,5.40002,1.5,7.90002,.30005,1.90002,1.30005,2.59998,3.1001,2.59998,6.8999,0,13.8999-.09998,20.80005,0,2.19995,0,2.69995-.70001,2.1001-2.79999-3.8999-11.59998-1.80005-23.20001-.5-34.90002,1.49976-12.80005,4.19995-25.70007,4.2998-38.80005Zm-31.59985,45.09998c-2.69995,8.90002-14.19995,16.20001-23.6001,15.20001-6.30005-.70001-10.5-4.40002-11.6001-10.09998-.8999-5.09998,1.80005-10.59998,7.1001-13.20001,3.1001-1.5,6.5-2.5,9.80005-3.29999,6.80005-1.70001,13.69995-3.09998,20.8999-4.70001-.59985,5.69995-1,11-2.59985,16.09998Z"/><path class="d" d="M284.75679,220.4371c6.8999,1.09998,6.80005,1.29999,8-5.79999,3-16.59998,6.1001-33.20001,9.1001-49.90002h0c-.30005,0-.6001-.09998-.8999-.20001h-.1001c-23.19995,2.70001-45.5,8.79999-67.19995,17.29999-29.1001,11.40002-55.1001,27.90002-77.1001,50.09998-10.5,10.5-19.69995,22.09998-27.19995,35-.30005,.40002-.5,.90002-.80005,1.29999,1.80005,.29999,3.69995,.59998,5.5,1h0c.3999-.59998,.80005-1.20001,1.19995-1.59998,41.69995-41.49994,91.90015-56.29999,149.5-47.19995h0Z"/><path d="M1235.45686,239.33706c-17,.20001-33.90002,.09998-50.90002,.09998-17.09998,0-34.30005,.09998-51.40002-.09998-3.30005,0-4.5,.70001-4.40002,4.20001,.19995,15.40002,.19995,30.70001,0,46.09998,0,3.20001,.90002,4.09998,4.09998,4.09998,29.09998-.09998,58.09998,0,87.19995-.09998,11.80005-.09998,19.40002-7.59998,19.69995-19.5,.30005-10.20001-.09998-20.40002,.09998-30.59998,.10022-3.39996-1.09985-4.20001-4.39978-4.20001h0Zm-20.09998,42.30005c-20.80005-.09998-41.5-.09998-62.30005,0-3.90002,0-3.40002-2.20001-3.59998-4.59998-.19995-2.79999,.59998-3.90002,3.69995-3.90002,17,.09998,33.90002-.20001,50.90002,.20001,5.5,.09998,8.80005-1.29999,10.19995-6.59998,.5-1.79999,2-3.20001,1.80005-5.59998h-61.20007c-5.19995,0-6.69995-2.20001-5.40002-7.20001,.5-1.90002,1.80005-1.79999,3.09998-1.79999,20.90002,0,41.90002,0,62.80005-.09998,2.90002,0,3.5,1.20001,3.40002,3.70001-.09998,7.40002-.09998,14.79999,0,22.29999,.20007,2.69989-.69995,3.59991-3.3999,3.59991h0Z"/><path d="M1015.45686,273.83706c9-27.29999,18.09998-54.59998,27.09998-81.90002,3.19995-9.59998-.5-14.5-10.69995-14.5h-29.59998c-11.5,0-11.40002,0-11.09998,11.5,.09998,2.90002,.90002,3.79999,3.80005,3.79999,8.80005-.20001,17.59998-.09998,26.90002-.09998-.59998,2-1.09998,3.59998-1.59998,5.20001-8.80005,26.59998-17.69995,53.29999-26.40002,79.90002-2.90002,9,1.80005,15.79999,11.09998,15.90002,29.90002,.20001,59.90002,.09998,89.80005,.20001,1.30005,0,2.90002,.40002,3.80005-1,2.59998-4.29999,5-8.70001,8-13.79999h-92.59998c.59973-2.30005,.99976-3.80005,1.49976-5.20007h0Z"/><path d="M541.75679,155.73708c-5.69995,.20001-11.5,.40002-17.1001,0-4.8999-.40002-6,1.59998-6.5,6-2.69995,24.20001-5.80005,48.29999-8.80005,72.5-2.30005,18.5-4.5,37-6.80005,55.5-.3999,3.20001,.30005,4.5,3.69995,4.20001,3.1001-.29999,6.19995-.09998,9.30005-.09998,3.30005,0,6.6001-.09998,9.8999,0,2.3999,.09998,3.3999-.79999,3.5-3.20001,0-1.90002,.5-3.79999,.69995-5.59998,3-24.20001,6-48.29999,8.8999-72.5,2.19995-17.59998,4.30005-35.29999,6.6001-52.90002,.40039-2.90002-.19971-4.10004-3.39966-3.90002h0Z"/><path d="M955.85688,193.73708c-6.19995,.09998-12.40002,.20001-18.69995,0-3.09998-.09998-4.40002,.5-4.80005,4-3.5,29.79999-7.30005,59.5-11,89.20001-.80005,6.79999-.69995,6.79999,6.19995,6.79999h6.19995c2.90002,0,5.90002-.29999,8.80005,.09998,3.59998,.40002,4.59998-1,5-4.40002,3.59998-30.79999,7.40002-61.59998,11.30005-92.29999,.59998-3.09998-.40002-3.49994-3-3.39996h0Z"/><path d="M1240.65681,182.13711c0-2.79999-.59998-3.90002-3.69995-3.90002-14.90002,.20001-29.69995,.09998-44.59998,0-2.90002,0-3.90002,.79999-3.80005,3.79999,.19995,7.90002,.09998,15.90002,.09998,23.79999,0,8.09998,.09998,16.20001-.09998,24.29999-.09998,2.90002,.90002,3.90002,3.80005,3.79999,12.59998-.09998,25.19995,0,37.80005-.09998,6.59998-.09998,10.30005-3.79999,10.40002-10.29999,.19983-13.79999-.00012-27.59998,.09985-41.39996h0Zm-27.59998,38.5c-4.30005,.20001-5.59998-1-5.40002-5.29999,.40002-6.90002,.19995-13.79999,.09998-20.59998-.09998-2.70001,.69995-3.5,3.5-3.59998,10.40002-.29999,10.40002-.5,10.40002,10v10.90002c0,8.49988,0,8.19989-8.59998,8.59991h0Z"/><path d="M1129.75679,235.33706c10-.09998,20.59998,2.20001,27.40002-8.40002,1.40002-2.09998,2.5-.40002,3.59998,.59998,2.59998,2.5,4.30005,6.90002,7.69995,7.29999,6.5,.79999,13.19995,.20001,20.69995,.20001-6.69995-7.5-12.59998-14.09998-18.5-20.70001-.19995-.59998-.5-1.20001-.69995-1.79999,12,4.5,13-4.20001,16.19995-11.5-5.09998,0-9.59998-.20001-14,.09998-3.09998,.20001-3.69995-1-3.69995-3.79999,.09998-3.20001,2.09998-2.29999,3.90002-2.59998,3-.5,6.90002,1.90002,9-1.70001,2-3.29999,4-6.70001,4.90002-11.20001h-33.80005c-1.40002-1.90002,3-4.70001-1.19995-5.09998-5-.5-10-.09998-15-.09998-1.19995,0-1.80005,.70001-2.30005,1.70001-3,6.29999-6,12.70001-9.09998,19.29999h15.69995c1.5,0,3.19995,.29999,4.09998-1.5,.90002-1.90002,2.59998-1.79999,4-1.20001,1.80005,.79999,.90002,2.70001,.90002,4.20001,0,2.5-2.09998,1.79999-3.5,1.79999-3.59998,.09998-7.30005,0-10.90002,0-8.59998,0-8.40002,0-8.5,8.40002,0,3.20001,.80005,4.20001,4.09998,4,5.19995-.29999,10.5-.09998,17-.09998-7.5,8-14.09998,15-20.5,21.79999,.50012,.29999,1.50012,.29999,2.50012,.29999h0Z"/><path d="M1084.15681,180.13711c-1.5,0-2.59998,.40002-3.80005,1.29999-13.5,11.79999-27.09998,23.5-41.69995,36.20001,9.90002,0,18.30005-.20001,26.69995,.09998,3.19995,.09998,5.5-1,7.69995-3.20001,10.80005-10.40002,21.80005-20.70001,32.59998-31,.90002-.79999,2.40002-1.40002,2.19995-3.40002-7.7998,.00006-15.7998,.00006-23.69983,.00006h0Z"/><path d="M1071.65681,230.03707h-26.80005c.09998,.79999,0,1.20001,.19995,1.40002,10.09998,10.59998,20.19995,21.20001,30.30005,31.90002,1.19995,1.20001,2.40002,1.70001,4.09998,1.70001,8.59998-.09998,17.19995,0,27.19995,0-11.19995-11.79999-21.59998-22.70001-31.90002-33.59998-.7998-.90009-1.69983-1.40009-3.09985-1.40009h0Z"/><path d="M961.15681,155.73708c-4,.09998-8,0-11.90002,0q-11.40002,0-13,11.29999c-.59998,4.09998-2.59998,9.40002-.90002,12,2.19995,3.20001,8,.40002,11.40002,1.09998,4.30005,0,7.69995-.09998,11.19995,0,2.30005,.09998,3.5-.59998,3.69995-3,.59998-6.20001,1.40002-12.29999,2.19995-18.5,.30017-2.09998-.39978-2.99994-2.69983-2.89996h0Z"/><path class="c" d="M303.05684,129.33706c-19.19995,1.29999-37.8999,4.79999-56.1001,11.09998-32.19995,11.09998-59.8999,29.20001-83,54.5-17.30005,19-30.8999,40.09998-40,64-2.69995,7.20001-2.69995,7.40002,4.5,9.29999h0c.30005-.40002,.5-.90002,.80005-1.29999,7.5-12.90002,16.80005-24.5,27.19995-35,22.1001-22.20001,48-38.59998,77.1001-50.09998,21.69995-8.5,44-14.59998,67.19995-17.29999h.1001c3.5-9.79999,4-20.20001,6.3999-30.09998,1.19995-4.29999,0-5.40002-4.19995-5.10004h0Z"/></svg>