<svg id="Layer_1" data-name="Layer 1" xmlns="http://www.w3.org/2000/svg" viewBox="0 0 300 300"><defs><style>.cls-1{fill:none;}.cls-2{fill:#231f20;}</style></defs><path class="cls-1" d="M95.27979,137.042c2.2274,0,3.71233-2.2274,3.71233-5.34576s-1.48493-5.34575-3.71233-5.34575-3.71233,2.2274-3.71233,5.34575C91.56746,134.66606,93.05239,137.042,95.27979,137.042Zm46.4784,55.982c0,3.11837,1.48494,5.49425,3.71234,5.49425s3.71233-2.2274,3.71233-5.34577-1.48493-5.34576-3.71233-5.34576C143.24313,187.67817,141.75819,189.90557,141.75819,193.02394ZM77.01511,110.31315c0,3.11836,1.48493,5.49425,3.71233,5.49425s3.71233-2.2274,3.71233-5.34576-1.48493-5.34575-3.71233-5.34575C78.35155,104.9674,77.01511,107.1948,77.01511,110.31315Zm174.92512,35.19293c2.2274,0,3.71234-2.2274,3.71234-5.34576s-1.48494-5.34576-3.71234-5.34576-3.71233,2.2274-3.71233,5.34576C248.2279,143.13019,249.71283,145.50608,251.94023,145.50608ZM101.5165,104.9674c-2.22739,0-3.71233,2.2274-3.71233,5.34575s1.48494,5.34576,3.71233,5.34576,3.71234-2.2274,3.71234-5.34576C105.22884,107.34329,103.7439,104.9674,101.5165,104.9674ZM114.8809,135.26c2.2274,0,3.71234-2.2274,3.71234-5.34576s-1.48494-5.34576-3.71234-5.34576-3.71233,2.2274-3.71233,5.34576S112.6535,135.26,114.8809,135.26Zm110.479,10.9885c-2.2274,0-3.71234,2.2274-3.71234,5.34576s1.48494,5.34576,3.71234,5.34576,3.71233-2.2274,3.71233-5.34576C229.07227,148.62443,227.58734,146.24854,225.35994,146.24854ZM80.282,159.76143c2.2274,0,3.71233-2.2274,3.71233-5.34575s-1.48493-5.34576-3.71233-5.34576-3.71234,2.2274-3.71234,5.34576S78.05457,159.76143,80.282,159.76143ZM63.65071,127.83536c-2.2274,0-3.71233,2.2274-3.71233,5.34576s1.48493,5.34575,3.71233,5.34575,3.71233-2.2274,3.71233-5.34575C67.363,130.21125,65.87811,127.83536,63.65071,127.83536Zm101.71792,78.553c0-3.11837-1.48493-5.49425-3.71233-5.49425s-3.71233,2.2274-3.71233,5.34577,1.48493,5.34577,3.71233,5.34577,3.71233-2.0789,3.71233-5.19727ZM77.01511,181.59c2.2274,0,3.71233-2.2274,3.71233-5.34576s-1.48493-5.34576-3.71233-5.34576-3.71234,2.2274-3.71234,5.34576S74.78771,181.59,77.01511,181.59ZM239.3183,120.85618c0-3.11836-1.48493-5.49425-3.71233-5.49425s-3.71234,2.2274-3.71234,5.34576,1.48494,5.34575,3.71234,5.34575C237.98187,126.20193,239.3183,123.97453,239.3183,120.85618ZM71.22387,82.5449c-2.2274,0-3.71233,2.2274-3.71233,5.34576s1.48493,5.34576,3.71233,5.34576,3.71233-2.2274,3.71233-5.34576C74.9362,84.92079,73.45127,82.5449,71.22387,82.5449Zm79.29544-37.7173c2.2274,0,3.71234-2.2274,3.71234-5.34576s-1.48494-5.34576-3.71234-5.34576-3.71233,2.2274-3.71233,5.34576C146.807,42.4517,148.14342,44.8276,150.51931,44.8276Zm89.987,37.7173c2.2274,0,3.71234-2.2274,3.71234-5.34576s-1.48494-5.34575-3.71234-5.34575-3.71233,2.2274-3.71233,5.34575C236.79394,80.169,238.13037,82.5449,240.50627,82.5449Zm-57.7639,31.18359c0,3.11836,1.48493,5.49425,3.71233,5.49425s3.71234-2.2274,3.71234-5.34576-1.48494-5.34575-3.71234-5.34575C184.2273,108.38274,182.74237,110.61014,182.74237,113.72849Zm-12.47344,68.01c0-3.11836-1.48493-5.49425-3.71233-5.49425s-3.71234,2.2274-3.71234,5.34576,1.48494,5.34575,3.71234,5.34575S170.26893,184.7083,170.26893,181.73844Zm-4.90029-17.37372c2.2274,0,3.71234-2.2274,3.71234-5.34575s-1.48494-5.34576-3.71234-5.34576-3.71233,2.2274-3.71233,5.34576S163.14124,164.36472,165.36864,164.36472Zm8.9096-88.502c2.2274,0,3.71234-2.2274,3.71234-5.34576s-1.48494-5.34576-3.71234-5.34576-3.71233,2.2274-3.71233,5.34576C170.56591,73.48682,172.05084,75.86271,174.27824,75.86271Zm2.52439,51.97266c-2.2274,0-3.71234,2.2274-3.71234,5.34576s1.48494,5.34575,3.71234,5.34575,3.71233-2.2274,3.71233-5.34575C180.515,130.21126,179.03,127.83537,176.80263,127.83537Zm-27.47127,102.3119c2.2274,0,3.71233-2.2274,3.71233-5.34577s-1.48493-5.34577-3.71233-5.34577-3.71233,2.2274-3.71233,5.34577C145.619,227.77137,147.104,230.14727,149.33136,230.14727Zm-19.15564-64.4461c0,3.11835,1.48493,5.49424,3.71233,5.49424s3.71234-2.22739,3.71234-5.34575-1.48494-5.34576-3.71234-5.34576C131.66065,160.35541,130.17572,162.7313,130.17572,165.70117ZM89.934,199.55764c2.2274,0,3.71233-2.2274,3.71233-5.34577s-1.48493-5.34576-3.71233-5.34576-3.71234,2.22739-3.71234,5.34576C86.22169,197.18173,87.70663,199.55764,89.934,199.55764ZM221.79611,86.99969c2.2274,0,3.71233-2.22739,3.71233-5.34575s-1.48493-5.34576-3.71233-5.34576-3.71234,2.2274-3.71234,5.34576S219.56871,86.99969,221.79611,86.99969Zm-122.804,82.11682c-2.2274,0-3.71233,2.2274-3.71233,5.34575s1.48493,5.34576,3.71233,5.34576,3.71234-2.2274,3.71234-5.34576C102.70447,171.4924,101.21953,169.11651,98.99213,169.11651ZM206.79828,72.00187c2.22739,0,3.71233-2.2274,3.71233-5.34576s-1.48494-5.34575-3.71234-5.34575-3.71233,2.2274-3.71233,5.34575S204.57087,72.00187,206.79828,72.00187ZM147.104,154.41567c2.2274,0,3.71233-2.2274,3.71233-5.34576s-1.48493-5.34576-3.71233-5.34576-3.71233,2.2274-3.71233,5.34576S144.87656,154.41567,147.104,154.41567Zm-29.55017,46.6269c2.2274,0,3.71233-2.2274,3.71233-5.34577s-1.48493-5.34577-3.71233-5.34577-3.71233,2.2274-3.71233,5.34577S115.32639,201.04257,117.55379,201.04257ZM104.63487,80.91147c-2.2274,0-3.71233,2.2274-3.71233,5.34576s1.48493,5.34576,3.71233,5.34576,3.71233-2.2274,3.71233-5.34576C108.3472,83.28736,106.71378,80.91147,104.63487,80.91147Zm135.7229,102.46039c-2.2274,0-3.71233,2.2274-3.71233,5.34576s1.48493,5.34577,3.71233,5.34577,3.71233-2.2274,3.71233-5.34576C244.0701,185.74776,242.58517,183.37187,240.35777,183.37186ZM196.84922,225.544c2.2274,0,3.71234-2.2274,3.71234-5.34577s-1.48494-5.34577-3.71234-5.34577-3.71233,2.2274-3.71233,5.34577S194.47333,225.544,196.84922,225.544Zm57.9124-102.46039c2.2274,0,3.71233-2.2274,3.71233-5.34576s-1.48493-5.34576-3.71233-5.34576-3.71233,2.2274-3.71233,5.34576C251.04929,120.70769,252.53422,123.08358,254.76162,123.08358ZM99.88308,47.20349c0,3.11836,1.48493,5.49426,3.71233,5.49426s3.71234-2.2274,3.71234-5.34576-1.48494-5.34576-3.71234-5.34576C101.368,41.85773,99.88308,44.08513,99.88308,47.20349ZM218.82624,102.74c0-3.11836-1.48493-5.49425-3.71233-5.49425s-3.71234,2.2274-3.71234,5.34576,1.48494,5.34575,3.71234,5.34575C217.34131,108.08575,218.82624,105.70986,218.82624,102.74Zm6.6822,106.61821c2.2274,0,3.71233-2.2274,3.71233-5.34577s-1.48493-5.34577-3.71233-5.34577-3.71233,2.2274-3.71233,5.34577C221.79611,206.9823,223.13254,209.35821,225.50844,209.35821ZM121.56311,41.56075c2.2274,0,3.71234-2.2274,3.71234-5.34576s-1.48494-5.34576-3.71234-5.34576-3.71233,2.2274-3.71233,5.34576S119.33571,41.56075,121.56311,41.56075Zm-.297,181.90432c2.2274,0,3.71234-2.2274,3.71234-5.34577s-1.48494-5.34577-3.71234-5.34577-3.71233,2.2274-3.71233,5.34577C117.5538,221.08917,119.03873,223.46507,121.26613,223.46507Zm138.98974-122.3585c2.2274,0,3.71233-2.2274,3.71233-5.34576s-1.48493-5.34575-3.71233-5.34575-3.71234,2.2274-3.71234,5.34575S258.02847,101.10657,260.25587,101.10657Zm-50.63623,32.22306c-2.2274,0-3.71234,2.2274-3.71234,5.34576s1.48494,5.34575,3.71234,5.34575,3.71233-2.2274,3.71233-5.34575S211.847,133.32963,209.61964,133.32963Z"/><path class="cls-2" d="M85.03375,85.36627l2.96987-.74247V97.9882h3.56384V80.91147H89.04307L84.29128,82.3964ZM58.45344,103.631l.74247,2.96987,2.96987-.74247v13.21591h3.71233V102.146H63.35372Zm23.90743,38.31127V125.014H79.83648l-4.75179,1.48494.74247,2.96986,2.96987-.74246v13.21591Zm36.23237-29.84715V95.01834h-2.52439l-4.90027,1.48493.74246,2.96987,2.96988-.594v13.21591Zm15.29481,38.45977V133.47811h-2.52438l-4.90028,1.48493.891,2.96987,2.82137-.594v13.21591Zm-66.525,15.88878V149.36689H64.83866l-4.75179,1.48493.74247,2.96987,2.96986-.594v13.21591Zm30.44113-4.30631V145.20908H95.1313l-4.75179,1.33645.74247,3.11835,2.96986-.74246v13.2159Zm12.17645-21.23455h-2.52439L102.556,142.3877l.891,2.96986,2.82138-.74246V157.831h3.71233Zm12.325,3.11836H119.7812l-4.90028,1.48493.74246,2.96987,2.96987-.74247v13.3644h3.71233Zm-4.30631,37.56882V164.5132h-2.52439l-4.90028,1.48494.74247,2.96986,2.96986-.74246v13.3644Zm14.40385-1.78192h-2.52438l-4.90029,1.33644.74247,3.11836,2.96987-.74247v13.2159h3.71233Zm5.49425,40.0932V202.973H135.373l-4.75178,1.48493.74246,2.96987,2.96987-.74247v13.2159Zm-31.48059-3.86084V198.96365H103.8924l-4.90028,1.48493.74246,2.96987,2.96987-.594v13.21589ZM154.38013,180.105V163.17676h-2.52439L147.104,164.6617l.74247,2.96986,2.96986-.74247V180.105Zm24.50139,12.17645h-2.52438l-4.75178,1.48493.74247,2.96987,2.96986-.74247v13.3644h3.56384Zm-2.37589,41.72663V217.07985h-2.52438l-4.90028,1.48494.74246,2.96986,2.96987-.74246v13.21589Zm6.23672-179.37993.74246,3.11835,2.96987-.74246V70.22H190.167V53.14322h-2.52438Zm13.95837,91.1749V128.87482h-2.52438l-4.75178,1.33644.74246,3.11836,2.96987-.74247v13.21591Zm22.868-13.06742h3.56383V115.8074h-2.52438l-4.75178,1.48493.74247,2.96987,2.96986-.74247Zm-5.49424,90.58094V206.38834h-2.52439l-4.90028,1.33643.891,3.11837,2.96988-.74247v13.2159Zm35.04443-55.53651.74247,3.11836,2.96986-.74247v13.21591h3.71233V166.44362h-2.67288Zm12.91891-36.52935.74247,3.11836,2.96987-.74247v13.21591H269.314V129.76578h-2.52439Zm-6.23671,20.78906.74246,2.96987,2.96987-.74247v13.21591h3.56383V150.55484h-2.52438Zm13.06741-45.142-4.75178,1.48494.74247,3.11835,2.96987-.74246v13.2159h3.71233V106.8978ZM244.0701,174.90774V157.831h-2.52438l-4.75178,1.48494.74247,3.11836,2.96986-.74247v13.21591Zm-7.27616-35.6384v13.21591h3.56383V135.557h-2.52438l-4.75178,1.48493.74246,2.96987Zm-8.9096-42.91457,2.96987-.74247v13.3644h3.71233V91.9h-2.52438l-4.90028,1.48493ZM246.446,90.415h-2.52439L239.02134,91.9l.891,3.11836,2.82136-.74247v13.21592H246.446Zm7.27616-21.086v13.2159h3.71233V65.46817h-2.52438l-4.90028,1.48493.74246,2.96987Zm-48.85432,55.982V108.38274h-2.52438l-4.90028,1.48493.891,2.96987,2.82137-.74247V125.311ZM85.18224,52.84624l.891,2.96986,2.82137-.594V68.438h3.71234V51.3613H90.08252Zm49.74526-26.7288v13.2159h3.71234V22.4051h-2.52439L131.21517,23.89l.891,2.96987Zm26.7288-3.56384V35.7695h3.71233V18.69277h-2.52438L157.944,20.1777l.74246,3.11836ZM185.71222,25.078v13.2159h3.56385V21.36565h-2.5244l-4.75178,1.33644.74247,3.11836Zm11.87947,18.26468V56.55858h3.56384V39.63033h-2.52439l-4.75178,1.48493.74246,2.96987ZM71.22387,79.278c-4.4548,0-7.57316,3.86082-7.57316,8.76111s2.96986,8.61261,7.42466,8.61261,7.57316-3.86082,7.57316-8.76111C78.797,82.99039,75.67866,79.278,71.22387,79.278Zm3.71233,8.76111c0,3.11835-1.48493,5.34575-3.71233,5.34575s-3.71233-2.2274-3.71233-5.34575,1.48493-5.34576,3.71233-5.34576C73.45127,82.54491,74.9362,84.9208,74.9362,88.03916Zm26.5803,13.66138c-4.45479,0-7.57315,3.86082-7.57315,8.7611s2.96986,8.61262,7.42466,8.61262,7.57316-3.86082,7.57316-8.76111C109.08966,105.41287,105.9713,101.70054,101.5165,101.70054Zm3.71234,8.7611c0,3.11836-1.48494,5.34576-3.71234,5.34576s-3.71233-2.2274-3.71233-5.34576,1.48494-5.34575,3.71233-5.34575C103.7439,104.9674,105.22884,107.34329,105.22884,110.46164Zm-32.07456,0c0,4.90029,2.96987,8.76111,7.42467,8.76111s7.57316-3.86082,7.57316-8.76111-2.96987-8.61261-7.42467-8.61261C76.12415,101.70054,73.15428,105.56136,73.15428,110.46164Zm11.137,0c0,3.11836-1.48493,5.34576-3.71233,5.34576s-3.71233-2.2274-3.71233-5.34576,1.48493-5.34575,3.71233-5.34575C82.80635,104.9674,84.29128,107.34329,84.29128,110.46164Zm-13.06741,22.868c0-4.90029-2.96987-8.76111-7.42467-8.76111s-7.57316,3.86082-7.57316,8.76111,2.96987,8.61262,7.42467,8.61262C68.254,141.94224,71.22387,138.2299,71.22387,133.32962Zm-3.86082,0c0,3.11836-1.48494,5.34576-3.71234,5.34576s-3.71233-2.2274-3.71233-5.34576,1.48493-5.34576,3.71233-5.34576C65.87811,127.83537,67.36305,130.21126,67.36305,133.32962Zm79.59241,24.5014c4.4548,0,7.57316-3.86083,7.57316-8.76111s-2.96987-8.61262-7.42467-8.61262-7.57316,3.86082-7.57316,8.76111C139.53079,153.97018,142.50066,157.831,146.95546,157.831Zm-3.56384-8.76111c0-3.11836,1.48493-5.34576,3.71233-5.34576s3.71233,2.37589,3.71233,5.34576c0,3.11836-1.48493,5.34576-3.71233,5.34576S143.39162,152.18827,143.39162,149.06991Zm-66.525,35.93538c4.4548,0,7.57315-3.86083,7.57315-8.76111s-2.96986-8.61262-7.42466-8.61262-7.57316,3.86083-7.57316,8.76111C69.442,181.14445,72.41182,185.00529,76.86662,185.00529Zm-3.56385-8.76111c0-3.11836,1.48494-5.34576,3.71234-5.34576s3.71233,2.37589,3.71233,5.34576c0,3.11836-1.48493,5.34576-3.71233,5.34576S73.30277,179.36254,73.30277,176.24418Zm53.16061-10.39453c0,4.90028,2.96986,8.7611,7.42466,8.7611s7.57316-3.86082,7.57316-8.7611-2.96987-8.61262-7.42467-8.61262C129.43324,157.08854,126.46338,160.94936,126.46338,165.84965Zm11.137,0c0,3.11835-1.48494,5.34575-3.71234,5.34575s-3.71233-2.2274-3.71233-5.34575,1.48493-5.34576,3.71233-5.34576C136.11544,160.3554,137.60038,162.73129,137.60038,165.84965ZM89.934,202.82449c4.4548,0,7.57316-3.86084,7.57316-8.7611s-2.96987-8.61262-7.42467-8.61262-7.57315,3.86084-7.57315,8.7611C82.36086,199.11215,85.33073,202.82449,89.934,202.82449Zm-3.71233-8.7611c0-3.11837,1.48493-5.34576,3.71233-5.34576s3.71233,2.37589,3.71233,5.34576c0,3.11837-1.48493,5.34577-3.71233,5.34577C87.70662,199.55766,86.22169,197.18176,86.22169,194.06339Zm20.34359-19.60113c0-4.90028-2.96987-8.61261-7.42467-8.61261s-7.57315,3.86082-7.57315,8.7611,2.96986,8.61262,7.42466,8.61262S106.56528,179.36255,106.56528,174.46226Zm-3.86082.14849c0,3.11836-1.48494,5.34576-3.71234,5.34576s-3.71233-2.2274-3.71233-5.34576,1.48493-5.34575,3.71233-5.34575C101.21952,169.11651,102.70446,171.4924,102.70446,174.61075Zm35.19292,18.41317c0,4.90028,2.96987,8.76109,7.42467,8.76109s7.57315-3.86083,7.57315-8.76109-2.96986-8.61262-7.42466-8.61262C141.01574,184.26281,137.89738,188.12363,137.89738,193.02392Zm11.28549,0c0,3.11837-1.48493,5.34577-3.71233,5.34577s-3.71234-2.2274-3.71234-5.34577,1.48494-5.34576,3.71234-5.34576S149.18287,189.90557,149.18287,193.02392Zm8.61262-34.005c0,4.90029,2.96986,8.76111,7.42466,8.76111s7.57316-3.86082,7.57316-8.76111-2.96987-8.61261-7.42467-8.61261C160.91384,150.25784,157.79549,154.11866,157.79549,159.01894Zm3.86082,0c0-3.11835,1.48493-5.34575,3.71233-5.34575s3.71234,2.37589,3.71234,5.34575c0,3.11836-1.48494,5.34576-3.71234,5.34576S161.65631,162.1373,161.65631,159.01894Zm12.325,22.571c0-4.90028-2.96986-8.7611-7.42466-8.7611s-7.57316,3.86082-7.57316,8.7611,2.96986,8.61261,7.42466,8.61261C171.0114,190.351,173.98126,186.4902,173.98126,181.58992Zm-11.137,0c0-3.11835,1.48494-5.34575,3.71234-5.34575s3.71233,2.37589,3.71233,5.34575c0,3.11836-1.48493,5.34576-3.71233,5.34576S162.84426,184.70828,162.84426,181.58992Zm6.23672,24.7984c0-4.90029-2.96987-8.7611-7.42467-8.7611s-7.57316,3.86083-7.57316,8.7611,2.96987,8.61261,7.42467,8.61261C166.11111,215.00093,169.081,211.2886,169.081,206.38832Zm-11.137,0c0-3.11837,1.48493-5.34577,3.71233-5.34577s3.71233,2.3759,3.71233,5.34577c0,3.11836-1.48493,5.34576-3.71233,5.34576S157.944,209.35818,157.944,206.38832Zm-8.76111,27.02578c4.4548,0,7.57316-3.86084,7.57316-8.7611s-2.96987-8.61262-7.42467-8.61262-7.57316,3.86084-7.57316,8.7611S144.72807,233.4141,149.18287,233.4141ZM145.619,224.653c0-3.11837,1.48493-5.34577,3.71233-5.34577s3.71233,2.3759,3.71233,5.34577c0,3.11837-1.48493,5.34577-3.71233,5.34577C147.104,230.14727,145.619,227.77137,145.619,224.653Zm-29.69867-21.68c4.4548,0,7.57316-3.86084,7.57316-8.7611s-2.96987-8.61262-7.42467-8.61262-7.57315,3.86084-7.57315,8.7611S111.46556,202.973,115.92036,202.973Zm-3.56384-8.7611c0-3.11837,1.48494-5.34576,3.71233-5.34576s3.71234,2.37589,3.71234,5.34576c0,3.11837-1.48494,5.34577-3.71234,5.34577S112.35652,197.33024,112.35652,194.21187Zm8.9096,32.52c4.4548,0,7.57316-3.86084,7.57316-8.7611s-2.96987-8.61262-7.42467-8.61262-7.57315,3.86084-7.57315,8.7611S116.81132,226.7319,121.26612,226.7319Zm-3.71233-8.7611c0-3.11837,1.48493-5.34577,3.71233-5.34577s3.71233,2.3759,3.71233,5.34577c0,3.11837-1.48493,5.34577-3.71233,5.34577C119.03872,223.46507,117.55379,221.08917,117.55379,217.9708ZM199.22511,66.6561c0,4.90028,2.96987,8.61261,7.42467,8.61261s7.57316-3.86082,7.57316-8.7611-2.96987-8.61262-7.42467-8.61262C202.195,57.895,199.22511,61.75582,199.22511,66.6561Zm3.86083,0c0-3.11835,1.48493-5.34575,3.71233-5.34575s3.71234,2.37589,3.71234,5.34575c0,3.11836-1.48494,5.34576-3.71234,5.34576S203.08594,69.77446,203.08594,66.6561ZM174.27823,79.12954c4.4548,0,7.57316-3.86082,7.57316-8.7611s-2.96987-8.61262-7.42467-8.61262-7.57315,3.86083-7.57315,8.76111C166.70508,75.41721,169.67494,79.12954,174.27823,79.12954Zm-3.71233-8.7611c0-3.11836,1.48493-5.34576,3.71233-5.34576s3.71234,2.37589,3.71234,5.34576c0,3.11835-1.48494,5.34575-3.71234,5.34575S170.5659,73.48679,170.5659,70.36844Zm43.657,11.434c0,4.90028,2.96986,8.61261,7.42466,8.61261s7.57317-3.86082,7.57317-8.7611-2.96986-8.61262-7.42466-8.61262C217.1928,72.89282,214.22294,76.75365,214.22294,81.80242Zm3.86083-.14849c0-3.11836,1.48494-5.34576,3.71234-5.34576s3.71233,2.3759,3.71233,5.34576c0,3.11836-1.48493,5.34576-3.71233,5.34576S218.08377,84.77229,218.08377,81.65393Zm-39.20224,32.07456c0,4.90029,2.96987,8.76111,7.42467,8.76111s7.57316-3.86082,7.57316-8.76111-2.96987-8.61261-7.42467-8.61261C181.99989,104.96738,178.88153,108.82821,178.88153,113.72849Zm11.28549,0c0,3.11836-1.48493,5.34576-3.71233,5.34576s-3.71233-2.2274-3.71233-5.34576,1.48493-5.34575,3.71233-5.34575S190.167,110.75863,190.167,113.72849Zm-39.79621-65.634c4.4548,0,7.57316-3.86083,7.57316-8.76111s-2.96987-8.61261-7.42467-8.61261-7.57316,3.86083-7.57316,8.76111S145.916,48.09445,150.37081,48.09445ZM146.807,39.33334c0-3.11836,1.48493-5.34576,3.71233-5.34576s3.71233,2.3759,3.71233,5.34576c0,3.11836-1.48493,5.34576-3.71233,5.34576S146.807,42.4517,146.807,39.33334ZM96.02225,47.20349c0,4.90028,2.96987,8.76111,7.42467,8.76111s7.57315-3.86082,7.57315-8.76111-2.96986-8.61261-7.42466-8.61261C99.14061,38.44239,96.02225,42.30321,96.02225,47.20349Zm11.28549,0c0,3.11836-1.48493,5.34576-3.71233,5.34576s-3.71233-2.2274-3.71233-5.34576,1.48493-5.34576,3.71233-5.34576S107.30774,44.08513,107.30774,47.20349Zm14.25536-2.2274c4.4548,0,7.57316-3.86083,7.57316-8.7611s-2.96987-8.61262-7.42467-8.61262-7.57315,3.86083-7.57315,8.76111S117.1083,44.97609,121.5631,44.97609ZM117.85077,36.215c0-3.11836,1.48493-5.34576,3.71233-5.34576s3.71234,2.3759,3.71234,5.34576c0,3.11836-1.48494,5.34576-3.71234,5.34576S117.85077,39.33334,117.85077,36.215Zm66.37652,97.11464c0-4.90029-2.96986-8.76111-7.42466-8.76111s-7.57316,3.86082-7.57316,8.76111,2.96986,8.61262,7.42466,8.61262C181.25743,141.94224,184.22729,138.2299,184.22729,133.32962Zm-3.71233,0c0,3.11836-1.48493,5.34576-3.71233,5.34576s-3.71234-2.2274-3.71234-5.34576,1.48494-5.34576,3.71234-5.34576C179.03,127.83537,180.515,130.21126,180.515,133.32962Zm8.76111,86.86858c0,4.90028,2.96986,8.61262,7.42466,8.61262s7.57316-3.86084,7.57316-8.7611-2.96987-8.61262-7.42467-8.61262C192.24593,211.4371,189.27607,215.29794,189.27607,220.1982Zm3.86082,0c0-3.11837,1.48493-5.34577,3.71233-5.34577s3.71234,2.3759,3.71234,5.34577c0,3.11837-1.48494,5.34577-3.71234,5.34577C194.47333,225.544,193.13689,223.31657,193.13689,220.1982Zm32.22305-7.57317c4.4548,0,7.57317-3.86083,7.57317-8.7611s-2.96987-8.61261-7.42467-8.61261-7.57317,3.86083-7.57317,8.76109S220.90514,212.625,225.35994,212.625Zm-3.56383-8.7611c0-3.11836,1.48493-5.34576,3.71233-5.34576s3.71233,2.3759,3.71233,5.34576c0,3.11837-1.48493,5.34577-3.71233,5.34577S221.79611,206.9823,221.79611,203.86393ZM240.50627,180.105c-4.4548,0-7.57316,3.86083-7.57316,8.76111s2.96986,8.61261,7.42466,8.61261,7.57317-3.86084,7.57317-8.76111S244.96107,180.105,240.50627,180.105Zm3.56383,8.76111c0,3.11836-1.48493,5.34576-3.71233,5.34576s-3.71233-2.2274-3.71233-5.34576,1.48493-5.34576,3.71233-5.34576C242.58517,183.37186,244.0701,185.74775,244.0701,188.86611Zm7.87016-40.0932c4.45479,0,7.57316-3.86082,7.57316-8.7611s-2.96986-8.61262-7.42466-8.61262-7.57317,3.86082-7.57317,8.76111S247.48546,148.77291,251.94026,148.77291Zm-3.71234-8.7611c0-3.11836,1.48494-5.34576,3.71234-5.34576s3.71233,2.37589,3.71233,5.34576c0,3.11835-1.48493,5.34575-3.71233,5.34575S248.22792,143.13016,248.22792,140.01181Zm-5.04878-19.15563c0-4.90029-2.96987-8.76111-7.42467-8.76111s-7.57317,3.86082-7.57317,8.76111,2.96987,8.61261,7.42467,8.61261C240.20927,129.61728,243.17914,125.75646,243.17914,120.85618Zm-11.137,0c0-3.11836,1.48493-5.34576,3.71233-5.34576s3.71233,2.37589,3.71233,5.34576c0,3.11835-1.48493,5.34575-3.71233,5.34575S232.04214,123.97453,232.04214,120.85618ZM252.8312,95.7608c0,4.90029,2.96987,8.76111,7.42467,8.76111s7.57317-3.86082,7.57317-8.76111-2.96987-8.61261-7.42467-8.61261C255.80107,86.9997,252.8312,90.86052,252.8312,95.7608Zm3.71233,0c0-3.11835,1.48494-5.34575,3.71234-5.34575s3.71233,2.37589,3.71233,5.34575c0,3.11836-1.48493,5.34576-3.71233,5.34576S256.54353,98.87916,256.54353,95.7608Zm-9.20658,21.977c0,4.90028,2.96987,8.61262,7.42467,8.61262s7.57317-3.86083,7.57317-8.76111-2.96987-8.61262-7.42467-8.61262C250.30682,108.97671,247.337,112.689,247.337,117.73782Zm3.71234-.14849c0-3.11836,1.48493-5.34576,3.71233-5.34576s3.71233,2.37589,3.71233,5.34576c0,3.11836-1.48493,5.34576-3.71233,5.34576S251.04929,120.70769,251.04929,117.58933ZM240.35777,85.81176c4.4548,0,7.57317-3.86083,7.57317-8.76111s-2.96987-8.61261-7.42467-8.61261-7.57316,3.86082-7.57316,8.7611S235.903,85.81176,240.35777,85.81176Zm-3.56383-8.76111c0-3.11836,1.48493-5.34576,3.71233-5.34576s3.71234,2.37589,3.71234,5.34576c0,3.11835-1.48494,5.34575-3.71234,5.34575C238.13037,82.5449,236.79394,80.169,236.79394,77.05065Zm-3.86083,74.54364c0-4.90028-2.96987-8.61262-7.42467-8.61262s-7.57317,3.86083-7.57317,8.76111,2.96987,8.61262,7.42467,8.61262C229.96324,160.3554,232.93311,156.64306,232.93311,151.59429Zm-3.86084.14849c0,3.11836-1.48493,5.34576-3.71233,5.34576s-3.71234-2.2274-3.71234-5.34576,1.48494-5.34576,3.71234-5.34576C227.58734,146.24853,229.07227,148.62442,229.07227,151.74278ZM217.1928,138.67536c0-4.90028-2.96986-8.7611-7.42466-8.7611s-7.57316,3.86082-7.57316,8.7611,2.96987,8.61262,7.42466,8.61262C214.22294,147.43647,217.1928,143.57565,217.1928,138.67536Zm-3.86083,0c0,3.11836-1.48493,5.34576-3.71233,5.34576s-3.71234-2.2274-3.71234-5.34576,1.48494-5.34575,3.71234-5.34575S213.332,135.557,213.332,138.67536Zm9.35508-36.08387c0-4.90028-2.96986-8.7611-7.42466-8.7611s-7.57316,3.86082-7.57316,8.7611,2.96988,8.61262,7.42468,8.61262c4.4548.14849,7.57317-3.71233,7.57317-8.61262Zm-11.2855,0c0-3.11835,1.48493-5.34575,3.71233-5.34575s3.71234,2.37589,3.71234,5.34575c0,3.11836-1.48494,5.34576-3.71234,5.34576C212.88648,108.08574,211.40155,105.70985,211.40155,102.59149ZM87.85512,131.54769c0,4.90029,2.96987,8.76111,7.42467,8.76111s7.57316-3.86082,7.57316-8.76111-2.96987-8.61262-7.42467-8.61262C90.825,122.93507,87.85512,126.64741,87.85512,131.54769Zm3.71234,0c0-3.11836,1.48493-5.34576,3.71233-5.34576s3.71233,2.37589,3.71233,5.34576c0,3.11836-1.48493,5.34576-3.71233,5.34576S91.56746,134.66605,91.56746,131.54769Zm-18.71016,22.868c0,4.90028,2.96987,8.7611,7.42467,8.7611s7.57315-3.86082,7.57315-8.7611-2.96986-8.61262-7.42466-8.61262C75.82717,145.65456,72.8573,149.51538,72.8573,154.41567Zm3.71233,0c0-3.11836,1.48494-5.34576,3.71234-5.34576s3.71233,2.37589,3.71233,5.34576c0,3.11835-1.48493,5.34575-3.71233,5.34575S76.56963,157.534,76.56963,154.41567Zm30.88661-24.5014c0,4.90028,2.96987,8.76111,7.42468,8.76111s7.57315-3.86083,7.57315-8.76111-2.96986-8.61262-7.42466-8.61262C110.42612,121.15316,107.45625,125.014,107.45624,129.91427Zm3.71234,0c0-3.11836,1.48493-5.34576,3.71234-5.34576s3.71233,2.37589,3.71233,5.34576c0,3.11835-1.48493,5.34575-3.71233,5.34575S111.16858,133.03262,111.16858,129.91427Zm-6.53371-52.26965c-4.4548,0-7.57316,3.86082-7.57316,8.76111s2.96987,8.61261,7.42467,8.61261,7.57315-3.86083,7.57315-8.76111S109.08967,77.64462,104.63487,77.64462Zm3.71233,8.76111c0,3.11835-1.48493,5.34575-3.71233,5.34575s-3.71233-2.2274-3.71233-5.34575S102.40747,81.06,104.63487,81.06C106.71378,80.91148,108.3472,83.28737,108.3472,86.40573Z"/><path class="cls-2" d="M238.87284,234.89905a7.01227,7.01227,0,0,0-9.50357-2.52438C169.52646,266.82512,92.90391,246.63,58.45346,187.38119c-34.302-59.10035-13.51291-135.27742,46.3299-169.72787a6.95307,6.95307,0,1,0-6.97919-12.028c-66.6735,38.31128-89.69,123.101-51.52718,188.735,23.75894,40.98417,65.48556,65.04008,109.73657,68.30693V281.526H115.1779V296.0783h93.99627V281.526H170.12043V263.11278a138.70684,138.70684,0,0,0,66.37651-18.56166A7.359,7.359,0,0,0,238.87284,234.89905Z"/></svg>