<?xml version="1.0" encoding="UTF-8"?>
<svg id="Layer_1" data-name="Layer 1" xmlns="http://www.w3.org/2000/svg" viewBox="0 0 1200 500">
  <defs>
    <style>
      .cls-1, .cls-2 {
        fill: #cbcbcb;
      }

      .cls-1, .cls-2, .cls-3, .cls-4, .cls-5, .cls-6, .cls-7 {
        stroke-width: 0px;
      }

      .cls-1, .cls-4, .cls-5, .cls-7 {
        fill-rule: evenodd;
      }

      .cls-3, .cls-7 {
        fill: #01062c;
      }

      .cls-4, .cls-6 {
        fill: #fff;
      }

      .cls-5 {
        fill: #e20d44;
      }
    </style>
  </defs>
  <g>
    <g>
      <path class="cls-3" d="M701.37,60.38c7.84,20.05,11.21,41.95,13.55,65.05.48,3.94,7.61,56.2,48.45,94.38l8.46,7.9-11.29,2.49c-.07.01-20.65,4.1-19.93,29.04,4.86,14.72,10.28,27.52,16.13,35.81-.11-.04-49.36-14.93-74.73,26.49l-4.12,6.72-5.47-5.67c-.16-.18-59.56-62.74-111.79-4.18l-5.81,6.51-4.12-7.7c-.06-.12-21.04-40.59-85.92-18.26l-12.02,4.14,4.32-11.96c.03-.09,3.4-9.33,8.26-24.19-6.29-19.93-37.1-25.36-37.18-25.36-.09-.27,65.19-72.61,71.9-120.79.61-5.9,1.04-11.65,1.25-17.19,1.37-35.96,16.36-62.5,37.71-79.67,14.53-11.69,31.98-19,50.06-21.95,18.03-2.94,36.72-1.55,53.81,4.12,25.66,8.51,47.68,26.64,58.48,54.26"/>
      <path class="cls-6" d="M722.71,186.11c2.82,15.22,6.56,32.83,11.04,49.78,4.07-6.94,9.77-11.27,14.61-13.91-10.91-11.54-19.27-23.96-25.66-35.87"/>
      <path class="cls-2" d="M722.71,186.11c2.82,15.22,6.56,32.83,11.04,49.78,2.27-3.88,5.05-6.94,7.91-9.35-8.76-12.19-15.19-25.9-18.95-40.43"/>
      <path class="cls-6" d="M470.43,251.03c6.3-20.24,13.73-46.1,19.74-72.72-10.13,20-24.12,41.69-42.69,58.87,7.52,2.04,16.51,6.04,22.95,13.85"/>
      <path class="cls-2" d="M470.43,251.03c6.3-20.24,13.73-46.1,19.74-72.72-4,7.9-8.61,16.06-13.86,24.1-3.88,21.58-16.27,39.91-16.27,39.91,3.75,2.19,7.35,5.02,10.38,8.7"/>
      <path class="cls-6" d="M657.09,214.36c-.03.15-8.37,49.2,19.69,93.23,19.42-25.85,43.29-28.56,58.09-27.1-22.62-44.15-26.46-89.21-30.03-131.14-2.61-30.7-5.08-59.65-14.81-84.54-9.37-23.97-28.56-39.73-50.93-47.16-15.22-5.05-31.91-6.27-48.05-3.64-16.07,2.62-31.55,9.09-44.38,19.42-18.77,15.1-31.96,38.59-33.18,70.62-2.35,61.63-30.43,148.99-40.98,179.85,46.01-11.88,71.13,6.29,82.11,18.35,22.74-56.92,8.97-87.66,8.92-87.74,14.79,13.94,10.4,54.31,4.48,80.69,34.2-24.95,68.59-12.62,90.33.91-9.33-23.25-16.27-56.12-1.26-81.75"/>
      <path class="cls-7" d="M648.94,83.58c11.91,0,21.57,15.12,21.57,33.76s-9.65,33.76-21.57,33.76-21.58-15.11-21.58-33.76,9.66-33.76,21.58-33.76"/>
      <path class="cls-4" d="M663.23,107.12c.9,3.12,1.42,6.58,1.42,10.23,0,13.59-7.04,24.6-15.71,24.6-7.73,0-14.16-8.73-15.47-20.24,2.48,8.48,7.94,14.37,14.29,14.37,8.67,0,15.71-11.01,15.71-24.6,0-1.49-.09-2.94-.24-4.36"/>
      <path class="cls-7" d="M654.9,161.4c0,28.29-22.93,51.22-51.22,51.22s-51.22-22.93-51.22-51.22h102.43Z"/>
      <path class="cls-5" d="M626.27,197.22c-2.09-2.38-4.54-4.42-7.28-6.04-4.48-2.65-9.72-4.18-15.3-4.18s-10.82,1.52-15.31,4.18c-2.74,1.62-5.19,3.66-7.28,6.04,6.53,4.13,14.28,6.52,22.59,6.52s16.05-2.39,22.59-6.52"/>
      <path class="cls-1" d="M563.53,214.51s-23.91,77.76-73.04,11.6c-6.96,24.69-13.84,45.62-17.99,57.79,46.01-11.88,71.13,6.29,82.11,18.35,22.74-56.92,8.97-87.66,8.92-87.74"/>
      <path class="cls-1" d="M610.34,238.82c-16.54.03-32.16-7.11-42.94-19.38,10.02,16.94,5.93,52.02.61,75.76,34.2-24.95,68.59-12.62,90.33.91-9.33-23.25-16.27-56.12-1.26-81.75-10.65,15.3-28.11,24.42-46.74,24.45"/>
      <path class="cls-1" d="M657.09,214.36c-.03.15-8.37,49.2,19.69,93.23,19.42-25.85,43.29-28.56,58.09-27.1-9.67-18.88-15.92-37.93-20.17-56.83-8.1,8.33-19.75,12.19-31.22,10.33-11.48-1.85-21.33-9.18-26.39-19.63"/>
    </g>
    <g>
      <path class="cls-3" d="M567.02,89.98c11.6,0,21.01,11.76,21.01,26.27s-9.41,26.27-21.01,26.27-21.02-11.76-21.02-26.27,9.41-26.27,21.02-26.27Z"/>
      <path class="cls-6" d="M576,100.66c3.32,3.65,5.44,9.28,5.44,15.59,0,11-6.46,19.92-14.42,19.92-3.99,0-7.61-2.24-10.22-5.86,2.01,1.24,4.27,1.93,6.65,1.93,8.55,0,15.47-8.92,15.47-19.93,0-4.36-1.09-8.38-2.93-11.66h0Z"/>
    </g>
  </g>
  <g>
    <path class="cls-3" d="M370.98,359.66h32.59v140.84h-32.59v-140.84Z"/>
    <path class="cls-3" d="M526.71,500.49l-27.16-39.23h-29.98v39.23h-32.59v-140.84h60.96c37.62,0,61.16,19.52,61.16,51.1,0,21.12-10.66,36.62-28.97,44.46l31.59,45.27h-35.01ZM496.12,386.22h-26.56v49.09h26.56c19.92,0,29.98-9.26,29.98-24.55s-10.06-24.55-29.98-24.55Z"/>
    <path class="cls-3" d="M693.9,474.34v26.16h-109.05v-140.84h106.43v26.16h-74.04v30.58h65.39v25.35h-65.39v32.59h76.66Z"/>
    <path class="cls-3" d="M828.9,474.34v26.16h-109.05v-140.84h109.16v26.16h-76.77v30.58h65.39v25.35h-65.39v32.59h76.66Z"/>
  </g>
</svg>