<?xml version="1.0" encoding="UTF-8"?><svg id="Layer_1" xmlns="http://www.w3.org/2000/svg" xmlns:xlink="http://www.w3.org/1999/xlink" viewBox="0 0 1352 965.5"><defs><style>.cls-1{clip-path:url(#clippath);}.cls-2{fill:#fff;}.cls-3{opacity:.7;}</style><clipPath id="clippath"><path class="cls-2" d="m627.73341,107.9969c0,11.10545.11106,22.21266-.06572,33.31529-.05514,3.461,1.06036,4.49158,4.53408,4.5799,31.64705.80463,59.23974,11.77103,81.59249,34.347,20.84015,21.04835,32.22314,46.60928,34.33258,76.30679,1.91773,26.99891-3.2125,52.41461-17.8177,75.24772-22.63902,35.39294-54.92654,54.70575-97.39466,55.88888-5.15283.14351-5.17529.07358-5.17747,5.3528-.00897,21.83237-.00129,43.66469-.00693,65.49705-.00143,5.58533-.01992,5.7355-5.7445,5.49114-57.45634-2.45226-107.66197-21.99899-147.90502-63.97468-28.19421-29.408-44.65898-64.75888-50.40544-105.05575-5.34549-37.48497-.69099-73.72747,14.49025-108.44645,11.99019-27.42112,29.8055-50.55849,52.98484-69.47169,32.28812-26.34555,69.48473-40.92011,110.70606-45.71923,7.27357-.84681,14.55027-1.35779,21.87322-1.541,3.26126-.08158,4.08938,1.05694,4.05379,4.10923-.1325,11.35633-.05287,22.71511-.04987,34.07299Zm-1.03129,158.86718c0-37.84729.00018-75.69452-.00092-113.54179,0-1.26151-.04617-2.52395-.01234-3.78435.05384-2.00403-.86722-2.51498-2.82525-2.40745-20.21329,1.10996-38.92794,7.10385-56.01243,17.79954-44.72326,27.99882-65.72596,82.51669-51.50837,133.34334,8.48259,30.32444,25.98317,54.04708,52.65693,70.86733,15.64027,9.86257,32.78912,15.41929,51.14432,17.27038,6.51873.65747,6.55871.5165,6.5589-6.00524.00106-37.84724.00051-75.69452-.00083-113.54176Z"/></clipPath></defs><g><path class="cls-2" d="m36.24631,772.2067h58.58456c39.73773,0,67.07696,22.5863,67.07696,59.43483s-27.33923,59.43483-67.07696,59.43483h-58.58456v-118.86965Zm56.88745,87.62433c16.81132,0,28.35784-10.01946,28.35784-28.1895s-11.54651-28.18778-28.35784-28.18778h-16.81132v56.37729h16.81132Z"/><path class="cls-2" d="m272.7918,870.35894h-45.17088l-7.98053,20.71742h-40.75462l51.96274-118.86965h39.39591l51.96274,118.86965h-41.43484l-7.98053-20.71742Zm-11.03807-28.868l-11.54651-29.88661-11.54823,29.88661h23.09474Z"/><path class="cls-2" d="m365.50917,803.28369h-34.81303v-31.07699h109.70046v31.07699h-34.81303v87.79266h-40.07441v-87.79266Z"/><path class="cls-2" d="m542.79161,870.35894h-45.17088l-7.98053,20.71742h-40.75462l51.96274-118.86965h39.39591l51.96274,118.86965h-41.43484l-7.98053-20.71742Zm-11.03807-28.868l-11.54651-29.88661-11.54823,29.88661h23.09474Z"/><path class="cls-2" d="m609.18663,831.64153c0-35.99997,28.35784-62.15054,67.07524-62.15054s67.07696,26.15057,67.07696,62.15054-28.35956,62.15226-67.07696,62.15226-67.07524-26.15229-67.07524-62.15226Zm93.73598,0c0-18.50843-11.88662-29.71655-26.66073-29.71655-14.77239,0-26.66073,11.20812-26.66073,29.71655,0,18.51015,11.88834,29.71827,26.66073,29.71827,14.77411,0,26.66073-11.20812,26.66073-29.71827Z"/><path class="cls-2" d="m774.91912,772.2067h40.07612v87.79438h53.65985v31.07527h-93.73598v-118.86965Z"/><path class="cls-2" d="m890.21935,831.64153c0-35.99997,28.35784-62.15054,67.07524-62.15054s67.07696,26.15057,67.07696,62.15054-28.35956,62.15226-67.07696,62.15226-67.07524-26.15229-67.07524-62.15226Zm93.73598,0c0-18.50843-11.88662-29.71655-26.66073-29.71655-14.77239,0-26.66073,11.20812-26.66073,29.71655,0,18.51015,11.88834,29.71827,26.66073,29.71827,14.77411,0,26.66073-11.20812,26.66073-29.71827Z"/><path class="cls-2" d="m1134.57532,828.41565h34.81131v50.26392c-14.434,9.84941-34.30287,15.11422-51.79269,15.11422-38.3773,0-66.39675-25.64212-66.39675-62.15226s28.01945-62.15054,67.2453-62.15054c23.43485,0,42.28339,8.15058,54.34007,22.92469l-25.64212,22.58458c-7.47036-8.66074-16.13111-13.07528-26.65901-13.07528-17.6616,0-28.86972,11.37646-28.86972,29.71655,0,17.82993,11.20812,29.71827,28.35956,29.71827,4.9247,0,9.67935-.85027,14.60405-2.88749v-30.05666Z"/><path class="cls-2" d="m1274.15724,847.94441v43.13195h-40.07441v-43.64211l-44.83077-75.22754h42.28339l24.28341,41.09473,24.45174-41.09473h38.71741l-44.83077,75.73771Z"/></g><g><g><path class="cls-2" d="m627.73341,107.9969c0,11.10545.11106,22.21266-.06572,33.31529-.05514,3.461,1.06036,4.49158,4.53408,4.5799,31.64705.80463,59.23974,11.77103,81.59249,34.347,20.84015,21.04835,32.22314,46.60928,34.33258,76.30679,1.91773,26.99891-3.2125,52.41461-17.8177,75.24772-22.63902,35.39294-54.92654,54.70575-97.39466,55.88888-5.15283.14351-5.17529.07358-5.17747,5.3528-.00897,21.83237-.00129,43.66469-.00693,65.49705-.00143,5.58533-.01992,5.7355-5.7445,5.49114-57.45634-2.45226-107.66197-21.99899-147.90502-63.97468-28.19421-29.408-44.65898-64.75888-50.40544-105.05575-5.34549-37.48497-.69099-73.72747,14.49025-108.44645,11.99019-27.42112,29.8055-50.55849,52.98484-69.47169,32.28812-26.34555,69.48473-40.92011,110.70606-45.71923,7.27357-.84681,14.55027-1.35779,21.87322-1.541,3.26126-.08158,4.08938,1.05694,4.05379,4.10923-.1325,11.35633-.05287,22.71511-.04987,34.07299Zm-1.03129,158.86718c0-37.84729.00018-75.69452-.00092-113.54179,0-1.26151-.04617-2.52395-.01234-3.78435.05384-2.00403-.86722-2.51498-2.82525-2.40745-20.21329,1.10996-38.92794,7.10385-56.01243,17.79954-44.72326,27.99882-65.72596,82.51669-51.50837,133.34334,8.48259,30.32444,25.98317,54.04708,52.65693,70.86733,15.64027,9.86257,32.78912,15.41929,51.14432,17.27038,6.51873.65747,6.55871.5165,6.5589-6.00524.00106-37.84724.00051-75.69452-.00083-113.54176Z"/><g class="cls-1"><polygon class="cls-2" points="508.14961 147.02297 502.12522 221.8258 502.12522 147.02297 508.14961 147.02297"/><polygon class="cls-2" points="518.18446 147.02297 502.12522 346.42525 502.12522 221.8258 508.14961 147.02297 518.18446 147.02297"/><polygon class="cls-2" points="528.21932 147.02297 509.3818 380.92207 502.12522 380.33765 502.12522 346.42525 518.18446 147.02297 528.21932 147.02297"/><polygon class="cls-2" points="538.25417 147.02297 519.35199 381.72504 509.3818 380.92207 528.21932 147.02297 538.25417 147.02297"/><polygon class="cls-2" points="548.28903 147.02297 529.32218 382.528 519.35199 381.72504 538.25417 147.02297 548.28903 147.02297"/><polygon class="cls-2" points="558.32388 147.02297 539.29236 383.33097 529.32218 382.528 548.28903 147.02297 558.32388 147.02297"/><polygon class="cls-2" points="568.35874 147.02297 549.26255 384.13394 539.29236 383.33097 558.32388 147.02297 568.35874 147.02297"/><polygon class="cls-2" points="578.39359 147.02297 559.23274 384.93691 549.26255 384.13394 568.35874 147.02297 578.39359 147.02297"/><polygon class="cls-2" points="588.42845 147.02297 569.20292 385.73988 559.23274 384.93691 578.39359 147.02297 588.42845 147.02297"/><polygon class="cls-2" points="598.4633 147.02297 579.17311 386.54285 569.20292 385.73988 588.42845 147.02297 598.4633 147.02297"/><polygon class="cls-2" points="608.49816 147.02297 589.16563 387.06855 585.70065 387.06855 579.17311 386.54285 598.4633 147.02297 608.49816 147.02297"/><polygon class="cls-2" points="618.53301 147.02297 599.20048 387.06855 589.16563 387.06855 608.49816 147.02297 618.53301 147.02297"/><polygon class="cls-2" points="626.7427 169.68543 609.23534 387.06855 599.20048 387.06855 618.53301 147.02297 626.7427 147.02297 626.7427 169.68543"/><polygon class="cls-2" points="626.7427 294.28488 619.27019 387.06855 609.23534 387.06855 626.7427 169.68543 626.7427 294.28488"/><polygon class="cls-2" points="619.27019 387.06855 626.7427 294.28488 626.7427 387.06855 619.27019 387.06855"/><polygon class="cls-2" points="424.0606 69.73311 418.32963 140.89265 418.32963 69.73311 424.0606 69.73311"/><polygon class="cls-2" points="434.09545 69.73311 418.32963 265.4921 418.32963 140.89265 424.0606 69.73311 434.09545 69.73311"/><polygon class="cls-2" points="444.13031 69.73311 418.32963 390.09155 418.32963 265.4921 434.09545 69.73311 444.13031 69.73311"/><polygon class="cls-2" points="454.16516 69.73311 423.25835 453.49266 418.32963 453.09572 418.32963 390.09155 444.13031 69.73311 454.16516 69.73311"/><polygon class="cls-2" points="464.20002 69.73311 433.22854 454.29563 423.25835 453.49266 454.16516 69.73311 464.20002 69.73311"/><polygon class="cls-2" points="474.23487 69.73311 443.19872 455.0986 433.22854 454.29563 464.20002 69.73311 474.23487 69.73311"/><polygon class="cls-2" points="484.26973 69.73311 453.16891 455.90157 443.19872 455.0986 474.23487 69.73311 484.26973 69.73311"/><polygon class="cls-2" points="494.30458 69.73311 463.1391 456.70453 453.16891 455.90157 484.26973 69.73311 494.30458 69.73311"/><polygon class="cls-2" points="504.33944 69.73311 473.10928 457.5075 463.1391 456.70453 494.30458 69.73311 504.33944 69.73311"/><polygon class="cls-2" points="514.37429 69.73311 483.07947 458.31047 473.10928 457.5075 504.33944 69.73311 514.37429 69.73311"/><polygon class="cls-2" points="524.40915 69.73311 493.04966 459.11344 483.07947 458.31047 514.37429 69.73311 524.40915 69.73311"/><polygon class="cls-2" points="534.444 69.73311 503.01984 459.91641 493.04966 459.11344 524.40915 69.73311 534.444 69.73311"/><polygon class="cls-2" points="544.47886 69.73311 512.99003 460.71937 503.01984 459.91641 534.444 69.73311 544.47886 69.73311"/><polygon class="cls-2" points="554.51371 69.73311 522.96022 461.52234 512.99003 460.71937 544.47886 69.73311 554.51371 69.73311"/><polygon class="cls-2" points="564.54857 69.73311 532.9304 462.32531 522.96022 461.52234 554.51371 69.73311 564.54857 69.73311"/><polygon class="cls-2" points="574.58342 69.73311 542.90059 463.12828 532.9304 462.32531 564.54857 69.73311 574.58342 69.73311"/><polygon class="cls-2" points="584.61828 69.73311 552.87078 463.93125 542.90059 463.12828 574.58342 69.73311 584.61828 69.73311"/><polygon class="cls-2" points="594.65313 69.73311 562.87852 464.26784 557.05016 464.26784 552.87078 463.93125 584.61828 69.73311 594.65313 69.73311"/><polygon class="cls-2" points="604.68799 69.73311 572.91338 464.26784 562.87852 464.26784 594.65313 69.73311 604.68799 69.73311"/><polygon class="cls-2" points="614.72284 69.73311 582.94823 464.26784 572.91338 464.26784 604.68799 69.73311 614.72284 69.73311"/><polygon class="cls-2" points="624.7577 69.73311 592.98309 464.26784 582.94823 464.26784 614.72284 69.73311 624.7577 69.73311"/><polygon class="cls-2" points="634.79255 69.73311 603.01794 464.26784 592.98309 464.26784 624.7577 69.73311 634.79255 69.73311"/><polygon class="cls-2" points="644.82741 69.73311 613.0528 464.26784 603.01794 464.26784 634.79255 69.73311 644.82741 69.73311"/><polygon class="cls-2" points="654.86226 69.73311 623.08765 464.26784 613.0528 464.26784 644.82741 69.73311 654.86226 69.73311"/><polygon class="cls-2" points="664.89712 69.73311 633.12251 464.26784 623.08765 464.26784 654.86226 69.73311 664.89712 69.73311"/><polygon class="cls-2" points="667.95289 69.73311 674.887 70.29157 643.15736 464.26784 633.12251 464.26784 664.89712 69.73311 667.95289 69.73311"/><polygon class="cls-2" points="674.887 70.29157 684.85718 71.09453 653.19222 464.26784 643.15736 464.26784 674.887 70.29157"/><polygon class="cls-2" points="684.85718 71.09453 694.82737 71.8975 663.22707 464.26784 653.19222 464.26784 684.85718 71.09453"/><polygon class="cls-2" points="694.82737 71.8975 704.79756 72.70047 673.26193 464.26784 663.22707 464.26784 694.82737 71.8975"/><polygon class="cls-2" points="704.79756 72.70047 714.76774 73.50344 683.29679 464.26784 673.26193 464.26784 704.79756 72.70047"/><polygon class="cls-2" points="714.76774 73.50344 724.73793 74.30641 693.33164 464.26784 683.29679 464.26784 714.76774 73.50344"/><polygon class="cls-2" points="724.73793 74.30641 734.70812 75.10937 703.3665 464.26784 693.33164 464.26784 724.73793 74.30641"/><polygon class="cls-2" points="734.70812 75.10937 744.6783 75.91234 713.40135 464.26784 703.3665 464.26784 734.70812 75.10937"/><polygon class="cls-2" points="744.6783 75.91234 750.04457 76.34452 750.04457 133.88061 723.43621 464.26784 713.40135 464.26784 744.6783 75.91234"/><polygon class="cls-2" points="750.04457 258.48007 733.47106 464.26784 723.43621 464.26784 750.04457 133.88061 750.04457 258.48007"/><polygon class="cls-2" points="750.04457 383.07952 743.50592 464.26784 733.47106 464.26784 750.04457 258.48007 750.04457 383.07952"/><polygon class="cls-2" points="743.50592 464.26784 750.04457 383.07952 750.04457 464.26784 743.50592 464.26784"/></g></g><g class="cls-3"><path class="cls-2" d="m767.24543,348.25583c.1844-13.61654,5.19841-25.09792,15.80034-33.47819,25.98683-20.54142,31.00268-62.31228,7.34916-89.52859-2.1179-2.43685-4.52494-4.55603-7.00421-6.62218-4.14199-3.45172-7.71665-7.43397-10.41211-12.13826-16.3945-28.61288,4.23983-64.20996,37.25192-64.03754,16.98316.08868,29.80519,7.94258,37.81385,22.75838,8.01058,14.81914,6.64022,29.66314-2.21914,43.77061-2.19329,3.49259-5.11019,6.55868-8.35369,9.25307-17.43502,14.48349-24.62459,33.2673-22.31364,55.54292,1.73155,16.68992,9.4689,30.27122,22.42842,41.22159,12.83985,10.84918,18.09242,25.11024,14.53838,41.67827-3.60846,16.8209-14.26637,27.89307-30.82841,32.4383-25.23098,6.92422-50.25922-10.02315-53.75456-35.92771-.22231-1.64768-.20545-3.32769-.29629-4.93065Z"/><path class="cls-2" d="m771.17927,104.29451c.61259,21.88774-17.46053,43.02245-42.77004,43.12456-23.79957.09601-43.06467-19.18453-43.03287-42.93196.03188-23.76464,19.33005-43.03623,43.04633-42.98701,23.67299.04913,42.71457,19.10756,42.75658,42.79441Z"/><path class="cls-2" d="m890.76051,311.5904c-23.93871-.03485-42.90141-19.06991-42.83861-43.00212.06272-23.91234,19.18719-42.86966,43.05384-42.80874,24.64853.06289,43.0389,20.72594,42.7123,43.20874-.34381,23.67192-19.18142,42.63667-42.92753,42.60212Z"/></g><g class="cls-3"><path class="cls-2" d="m787.52353,430.28184c.61259,21.88774-17.46053,43.02245-42.77004,43.12456-23.79957.09601-43.06467-19.18453-43.03287-42.93196.03188-23.76464,19.33005-43.03623,43.04633-42.98701,23.67299.04913,42.71457,19.10756,42.75658,42.79441Z"/></g></g><g><path class="cls-2" d="m399.80946,653.69481c0-35.99997,28.35784-62.15054,67.07524-62.15054s67.07696,26.15057,67.07696,62.15054-28.35956,62.15226-67.07696,62.15226-67.07524-26.15229-67.07524-62.15226Zm93.73598,0c0-18.50843-11.88662-29.71655-26.66073-29.71655-14.77239,0-26.66073,11.20812-26.66073,29.71655,0,18.51015,11.88834,29.71827,26.66073,29.71827,14.77411,0,26.66073-11.20812,26.66073-29.71827Z"/><path class="cls-2" d="m676.93952,639.09075c0,27.511-21.05753,44.83077-54.17001,44.83077h-17.15143v29.20811h-40.07612v-118.86965h57.22756c33.11249,0,54.17001,17.32149,54.17001,44.83077Zm-40.41623,0c0-8.66074-5.26309-13.92384-16.30116-13.92384h-14.60405v27.84939h14.60405c11.03807,0,16.30116-5.26481,16.30116-13.92556Z"/><path class="cls-2" d="m805.8252,682.90292v30.22672h-98.83073v-118.86965h96.62346v30.22672h-57.22756v13.92556h50.26564v28.868h-50.26564v15.62266h59.43483Z"/><path class="cls-2" d="m955.42486,594.25998v118.86965h-32.94415l-45.16916-53.99996v53.99996h-39.05752v-118.86965h32.94415l45.16916,54.00168v-54.00168h39.05752Z"/></g></svg>