<svg id="Layer_1" data-name="Layer 1" xmlns="http://www.w3.org/2000/svg" viewBox="0 0 2178.97235 491.1618"><defs><style>.cls-1{fill:#33b5f1;}</style></defs><path class="cls-1" d="M342.53243,27.80484c59.23931.93977,111.10477,20.60031,154.37334,61.51689,34.666,32.78159,56.03228,72.89841,64.53464,119.83389a195.238,195.238,0,0,1,3.169,38.72607c-1.056,52.77657-18.429,99.48385-53.11591,139.39565-33.6206,38.6851-75.83429,63.24009-126.15546,72.48521-67.86651,12.46879-129.43925-2.68075-183.93989-45.36719-11.3214-8.86717-21.145-19.37018-31.38224-29.41078q-33.05877-32.42311-66.03937-64.92637Q74.05894,290.65773,44.12816,261.271c-9.26517-9.13231-9.27176-21.80323-.01145-30.93468q30.7394-30.31217,61.58475-60.5167c19.30663-18.9547,38.51731-38.00934,57.97341-56.80971,12.91689-12.48136,25.14056-25.70522,39.30876-36.86855A221.87314,221.87314,0,0,1,298.164,32.23252a224.6019,224.6019,0,0,1,44.36843-4.428ZM513.76388,245.97265a170.54013,170.54013,0,0,0-2.76034-27.9742c-8.63637-45.27069-32.4208-80.62908-70.88573-105.63821-37.0985-24.1206-77.8716-31.61675-121.35723-23.38355a158.71607,158.71607,0,0,0-81.59891,41.98119c-15.23,14.54676-30.15842,29.40963-45.19711,44.15625q-30.2406,29.65359-60.42878,59.36016c-6.95153,6.85417-6.92175,15.81067-.02348,22.63391,9.87593,9.76828,19.82174,19.46583,29.72717,29.20431q36.22458,35.6138,72.44859,71.22789Q286.21238,408.98782,359.705,405.627c25.91483-1.19661,50.35039-8.10808,72.61866-21.36856,52.34448-31.17092,79.08112-77.63368,81.4403-138.28578Zm107.95442-.13945a317.68622,317.68622,0,0,0-7.58318-70.65377,21.75945,21.75945,0,0,1-.37282-2.14385,4.8842,4.8842,0,0,1,2.36317-5.09316,4.95118,4.95118,0,0,1,5.86141.03979,16.93612,16.93612,0,0,1,2.20342,2.01242q29.94733,29.93477,59.885,59.87987c9.837,9.83871,9.81868,22.3656-.0418,32.22637q-29.84436,29.84546-59.68976,59.69c-.5134.51341-1.01366,1.04142-1.54685,1.53336a5.06226,5.06226,0,0,1-6.49163.81607,4.9743,4.9743,0,0,1-2.50438-5.77581c2.09828-9.65031,3.89715-19.35244,5.18681-29.15136a304.43,304.43,0,0,0,2.72395-34.95379c.04412-2.80786.00658-5.61745.00658-8.42619Z"/><path class="cls-1" d="M460.60879,245.87042c-.12741,59.61328-47.24845,108.43605-107.48425,109.41276-62.5566,1.01478-109.24212-48.81361-111.14771-105.37793-2.08972-62.02313,47.32377-111.97924,106.8208-113.248A109.502,109.502,0,0,1,460.60851,245.87041Z"/><path class="cls-1" d="M1051.501,227.71515c-17.87907,35.81347-34.13983,70.41542-49.33147,105.50744-2.36582,5.46324-4.97065,8.01539-11.42614,7.64544-11.85583-.68017-23.78537-.42009-35.66981-.0776-4.49139.129-6.64491-1.19119-8.46471-5.42444q-22.0609-51.33123-47.328-101.1775c-.703-1.392-1.542-2.71417-3.06756-5.37743-.58669,8.06614-1.18927,14.72-1.53569,21.38712-1.776,34.18248-3.45276,68.37056-5.23762,102.55305-.56571,10.85339-1.48929,21.68972-1.9622,32.54622-.14175,3.25638-.89433,4.63752-4.44308,4.61284q-29.33254-.20716-58.667.00062c-3.836.02794-4.72276-1.34684-4.51046-4.98341,2.854-48.84208,5.53637-97.693,8.35731-146.53617,1.76388-30.54855,3.26079-61.12177,5.70226-91.61756,1.42636-17.81355,11.81832-27.68184,29.515-29.61853,14.65324-1.60305,28.9302-.0267,42.35158,6.8a21.56152,21.56152,0,0,1,10.29979,10.35449c18.59925,38.40938,36.12619,77.34251,56.00878,115.1265.8365,1.59033,1.727,3.15148,3.00527,5.476,4.11-8.31412,7.8774-16.05035,11.744-23.73706,14.0246-27.87691,28.12611-55.72976,40.7644-84.25952,11.51448-25.993,28.423-32.65121,56.81858-29.51239,8.47172.937,16.32939,4.15955,24.11973,7.53169,3.2163,1.392,4.50347,3.39558,4.67825,6.8495q1.78614,35.2916,3.84115,70.57045,3.95683,68.4449,8.01916,136.88358c.89622,15.27614,1.70857,30.5574,2.73321,45.82469.24535,3.6524-.77037,4.9007-4.60516,4.86516-19.15161-.18047-38.30513-.15254-57.45675-.02281-3.77566.02545-5.27957-1.036-5.48552-5.0863q-2.96582-58.51515-6.29468-117.0123c-.70936-12.81306-1.57509-25.61727-2.47262-40.09127Z"/><path class="cls-1" d="M2044.57417,395.109a228.23913,228.23913,0,0,1-75.899-12.302c-8.23778-2.78089-15.83806-6.89156-23.33026-11.28248-3.29005-1.92909-3.37206-3.55449-1.61771-6.64994q9.52437-16.81059,18.5478-33.90331c1.54462-2.90551,2.60352-3.24241,5.7754-1.64309,29.18,14.70988,60.10795,19.93088,92.5468,16.13431a29.5907,29.5907,0,0,0,6.99444-1.78617c4.649-1.76956,7.90087-4.76088,7.9226-10.228.02157-5.50592-2.568-9.14746-7.67213-11.06832-10.10154-3.8017-20.75335-4.73668-31.345-5.86812-15.43318-1.64821-30.76332-3.86656-45.56537-8.6636-26.07049-8.44883-41.66444-26.66042-42.87092-49.66828-1.70981-32.594,10.32267-54.15278,36.90612-66.38747,15.82533-7.28371,32.56594-10.35262,49.8171-10.67742,26.0597-.49069,51.98269.41636,76.57466,10.631a54.4275,54.4275,0,0,1,7.03448,3.45144c9.19387,5.49056,15.56152,12.73935,14.793,24.33841-.74752,11.28186-7.2716,18.79446-15.97275,25.00445-2.608,1.86112-4.38643.31332-6.51648-.85305-26.40545-14.45816-54.70058-18.01187-84.18317-14.28653a18.08623,18.08623,0,0,0-10.7232,5.11812c-6.25274,6.23746-4.70556,14.66782,3.49288,17.98518,9.24973,3.74257,19.16054,4.45331,28.89273,5.93113,17.29182,2.62648,34.76785,4.232,51.57146,9.51866,22.62346,7.11719,39.09653,20.57349,42.57343,45.14141,3.63269,25.66181-3.08785,48.06911-25.21054,63.85316-18.5935,13.26635-40.01429,17.22944-62.25834,18.141-3.421.13982-6.85214.01908-10.27813.01908Z"/><path class="cls-1" d="M1895.6581,256.2581c-.50722,16.33139.20469,36.46757-.46656,56.62222-1.228,36.85646-23.90172,67.59449-64.85867,77.80341-29.87731,7.44773-59.62875,6.847-88.24806-5.31194-30.38514-12.9085-47.15825-36.44088-49.21514-69.392-2.08427-33.3968-.74876-66.88251-.66612-100.32508.047-19.0232,9.954-28.16493,29.02169-28.80056a88.125,88.125,0,0,1,29.79847,3.77562c4.31721,1.36019,5.93679,3.1209,5.90187,7.84811-.232,32.04732-.13416,64.09727-.10172,96.14582a68.94279,68.94279,0,0,0,.47036,10.25408c4.31279,28.37784,36.84761,41.67849,60.20394,24.55132,10.19557-7.47691,13.16393-18.60561,13.30127-30.40237.31525-27.20759.11506-54.42093.12647-81.63241.00823-20.64472,9.54908-30.10038,30.34766-30.57648a87.60558,87.60558,0,0,1,29.14313,4.05154c3.84111,1.23309,5.41429,2.87819,5.35206,7.15971-.26125,18.13711-.11057,36.28057-.11057,58.229Z"/><path class="cls-1" d="M1537.55026,316.30119c9.37682-23.09259,18.16767-44.90553,27.0919-66.66509,6.02773-14.6959,11.23166-29.74765,18.32465-43.987,6.47582-13.00192,17.08325-18.91954,31.72445-18.924a74.97057,74.97057,0,0,1,32.61436,7.4032c4.91343,2.31565,6.1656,5.04052,4.1926,10.29908-8.20542,21.87083-17.58163,43.24212-27.18347,64.50974-17.63563,39.06147-35.95267,77.79891-55.93568,115.73405-2.05689,3.90536-4.34391,5.37433-8.81623,5.29162-16.11327-.29687-32.23671-.178-48.35511-.06549-3.31612.02281-5.51981-.7005-7.26974-3.93019-27.33221-50.44761-53.23106-101.57415-74.12175-155.095-2.49551-6.39326-4.31783-13.00766-3.42925-19.98426,1.69461-13.2994,10.17835-22.30239,23.43834-23.62207,11.21831-1.11686,22.49443-1.05013,33.36436,3.21944a10.177,10.177,0,0,1,6.69323,6.81521q20.18572,57.85268,45.15219,113.82218c.55936,1.26242,1.20392,2.48667,2.51522,5.17849Z"/><path class="cls-1" d="M1384.38945,246.10319c0,45.73886-.08458,91.47835.11821,137.216.02289,5.11626-1.45811,6.37154-6.4129,6.28634-17.52436-.29749-35.059-.23262-52.58654-.03057-4.16211.04826-5.49188-1.11748-5.48614-5.39465q.17168-129.96262.13668-259.92617c.02161-17.50155,9.01963-26.08826,28.17505-27.78605,11.45982-1.01575,22.38573,1.514,33.23024,4.84158,3.71654,1.141,2.7968,3.92569,2.79932,6.36774q.05709,51.9852.02542,103.97049l.00062,34.45515Z"/><path class="cls-1" d="M1256.94825,291.153c0,30.6235-.15762,61.24825.13982,91.86927.05723,5.77982-1.81153,7.03649-7.19028,6.93981-17.321-.31145-34.65277-.2486-51.97571-.02545-4.4831.05727-5.81605-1.25667-5.80395-5.811.14937-56.20958.047-112.41994.12714-168.63015.02541-17.9439,9.38446-27.48987,27.392-28.53426a85.31694,85.31694,0,0,1,32.16048,3.89635c3.86466,1.27949,5.28211,3.00715,5.25542,7.21636-.19386,31.02527-.10487,62.05241-.10487,93.07892Z"/><path class="cls-1" d="M1224.40385,167.69022c-20.34852.00822-35.5999-14.99076-35.80393-35.21152a35.40718,35.40718,0,0,1,35.71877-36.15921c20.30463-.01653,36.08931,15.58192,36.18913,35.76256.10044,20.21316-15.50053,35.59932-36.10393,35.60817Z"/></svg>