<?xml version="1.0" encoding="utf-8"?>
<!-- Generator: Adobe Illustrator 24.0.2, SVG Export Plug-In . SVG Version: 6.00 Build 0)  -->
<svg version="1.1" id="Layer_1" xmlns="http://www.w3.org/2000/svg" xmlns:xlink="http://www.w3.org/1999/xlink" x="0px" y="0px"
	 viewBox="0 0 400 245" style="enable-background:new 0 0 400 245;" xml:space="preserve">
<style type="text/css">
	.st0{fill:#FFFFFF;}
	.st1{opacity:0.15;fill:#FFFFFF;}
	.st2{fill:#00C5DB;}
	.st3{opacity:0.1;}
	.st4{fill:#E6E6E6;}
	.st5{fill:#53585A;}
</style>
<g>
	<path d="M60.5,229.6l-11.4-27.2l-2.4,27.8H36.6l4.2-45.6H51l12.8,30.7l12.8-30.7h10.2l4.2,45.6H80.8l-2.4-27.8L67,229.6H60.5z"/>
	<path d="M94.7,230.1l17.6-45.6h9.8l17.8,45.6h-10.6l-3.3-8.5v0.1h-17.9v-0.1l-3.1,8.5H94.7z M110.9,213.4h12.3l-6.1-18.2
		L110.9,213.4z"/>
	<path d="M170.7,213.1c1.2,4.8,3,8.7,7.6,8.7c1.6,0,3.4-0.8,4.6-2l3.6,7c-3,2.3-5.5,3.9-10.2,3.9c-10.8,0-14.1-12.1-14.7-16.9h-6.1
		v16.2h-10v-45.6h20.3c9.4,0,14.5,7,14.5,15C180.4,205.9,176.7,211.3,170.7,213.1z M164.6,205.8c3.6,0,5.7-2.6,5.7-6.4
		c0-3.8-2.1-6.4-5.7-6.4h-8.9v12.8H164.6z"/>
	<path d="M234.4,239.9c-2.4,1.6-6.2,3.6-11.5,3.6c-8.9,0-14.9-5.9-15.2-13c-11-2.1-19.8-11.7-19.8-23.2c0-13,10.7-23.5,23.8-23.5
		c13,0,23.8,10.6,23.8,23.5c0,10.9-8.2,20.2-18.2,22.9c0.1,3.5,2.7,5.1,6.4,5.1c2,0,5.3-1,7.6-2.4L234.4,239.9z M211.8,221.5
		c7.5,0,13.7-5.9,13.7-14.3c0-8.3-6.2-14.3-13.7-14.3c-7.6,0-13.7,5.9-13.7,14.3C198,215.6,204.2,221.5,211.8,221.5z"/>
	<path d="M279.3,184.5v28.3c0,11.7-8.7,18-18.9,18c-10.2,0-18.8-6.3-18.8-18v-28.3h10.1v28.3c0,6.3,4,9.5,8.7,9.5
		c4.7,0,8.8-3.2,8.8-9.5v-28.3H279.3z"/>
	<path d="M288.3,230.1v-45.6h30.3v8h-20.2v11.2H316v8h-17.5v10.4h20.2v8H288.3z"/>
	<path d="M363.4,230.1h-39.9v-6.5l24.7-31.1h-22.8v-8h36.4v6.6l-24.9,31h26.5V230.1z"/>
</g>
<g>
	<path d="M163.4,31.1l21.5,43c2.8-5.5,8.4-9.3,14.8-9.4l-23.2-46.3C175,24.7,170,29.8,163.4,31.1z"/>
	<path d="M240.2,60.4c-0.1,0-0.1,0-0.2,0l26.3,56.1c3.1-4.6,8.3-7.5,14-7.5c0.6,0,1.2,0,1.7,0.1l-27.1-57.6
		C252.2,56.8,246.5,60.4,240.2,60.4z"/>
	<path d="M216.7,79.2l17.9-19.8c-5.9-2.1-10.3-7.4-11.1-13.6l-17.9,19.8C211.5,67.7,215.9,73,216.7,79.2z"/>
	<path d="M132.4,114.9L160,31.4c-6.6,0-12.4-3.9-15.2-9.6l-29,87.5c1.2-0.3,2.5-0.4,3.7-0.4C124.6,109,129.2,111.2,132.4,114.9z"/>
	<path d="M106.5,125.9c0,7.2,5.9,13.1,13.1,13.1c7.2,0,13.1-5.9,13.1-13.1c0-2.4-0.7-4.6-1.8-6.5c-0.3-0.5-0.6-1-0.9-1.4
		c-2.4-3.1-6.2-5.2-10.4-5.2c-1.8,0-3.6,0.4-5.2,1.1C109.8,115.8,106.5,120.5,106.5,125.9z"/>
	<path d="M156.3,27.1c1.2,0.4,2.4,0.5,3.7,0.5c0.4,0,0.8,0,1.2-0.1c0.1,0,0.2,0,0.4,0c1.6-0.2,3.1-0.7,4.5-1.4
		c0.3-0.2,0.7-0.4,1-0.6c2.6-1.7,4.6-4.3,5.5-7.4c0.3-1.1,0.5-2.4,0.5-3.6c0-1.7-0.3-3.2-0.9-4.7c-0.3-0.8-0.7-1.5-1.1-2.2
		c-2.3-3.7-6.4-6.2-11.1-6.2c-4,0-7.6,1.8-10,4.6c-1.9,2.3-3.1,5.2-3.1,8.5c0,0.3,0,0.6,0,0.9C147.3,21,151.2,25.6,156.3,27.1z"/>
	<path d="M186.9,81.5c0,7.2,5.9,13.1,13.1,13.1c6.6,0,12-4.9,12.9-11.2c0.1-0.6,0.2-1.3,0.2-1.9c0-1.2-0.2-2.3-0.4-3.4
		c-1.3-4.7-5.1-8.4-9.9-9.4c-0.4-0.1-0.8-0.1-1.2-0.2c-0.5-0.1-1.1-0.1-1.6-0.1c-6.3,0-11.5,4.4-12.8,10.3
		C187,79.6,186.9,80.5,186.9,81.5z"/>
	<path d="M237.4,56.3c0.3,0.1,0.5,0.1,0.8,0.1c0.7,0.1,1.3,0.2,2,0.2c1.1,0,2.3-0.1,3.3-0.4c0.4-0.1,0.7-0.2,1-0.3
		c0.7-0.2,1.3-0.5,2-0.9c0.3-0.2,0.6-0.4,0.9-0.6c0.6-0.4,1.1-0.8,1.7-1.3c0.3-0.2,0.5-0.5,0.7-0.8c1.4-1.6,2.5-3.5,3-5.6
		c0.3-1,0.4-2.1,0.4-3.3c0-7.2-5.9-13.1-13.1-13.1c-6.6,0-12,4.9-12.9,11.2c-0.1,0.6-0.2,1.3-0.2,1.9
		C227.1,49.8,231.5,55,237.4,56.3z"/>
	<path d="M284.1,113.3c-1.2-0.4-2.4-0.5-3.7-0.5c-5.4,0-10,3.3-12,7.9c-0.7,1.6-1.1,3.3-1.1,5.2c0,7.2,5.9,13.1,13.1,13.1
		s13.1-5.9,13.1-13.1C293.5,119.9,289.5,114.9,284.1,113.3z"/>
</g>
</svg>
