<svg id="Layer_1" data-name="Layer 1" xmlns="http://www.w3.org/2000/svg" viewBox="0 0 323.12579 165.38353"><defs><style>.cls-1{fill:#fff;}</style></defs><path class="cls-1" d="M161.64429,2.1C136.40088,21.77318,120.829,59.26286,120.829,98.13882c28.62679,0,40.81526-18.93876,40.81526-18.93876s12.18846,18.93876,40.82351,18.93876C202.4678,59.26286,186.89594,21.77318,161.64429,2.1Zm0,68.49306S151.86547,79.4559,138.596,79.4559c3.08632-21.29062,11.31373-40.81528,23.04833-54.64592,11.73459,13.83064,19.962,33.35535,23.04833,54.64592-13.26125,0-23.04832-8.82984-23.04832-8.82984Z"/><path class="cls-1" d="M34.7416,154.40259H16.3265l-3.1224,8.58662H4.1621l16.83615-45.53506H29.987l16.91894,45.53506h-9.042Zm-2.95683-8.06621L25.49857,128.968,19.18874,146.3364Z"/><path class="cls-1" d="M102.06253,142.82369v20.16552H94.06137v-19.45a6.47525,6.47525,0,0,0-6.10815-6.82263q-.26322-.01454-.527-.00763a8.68122,8.68122,0,0,0-6.83024,3.217v23.06322H72.59485v-19.45a6.52665,6.52665,0,0,0-6.21338-6.82558q-.24321-.01141-.48677-.00468a8.4683,8.4683,0,0,0-6.76521,3.217v23.06322H51.15788V129.81367h7.61086V132.871c1.77409-2.40686,5.32228-3.70785,9.042-3.70785,4.13956,0,8.06622,1.88645,9.95267,4.42341a17.00763,17.00763,0,0,1,11.41925-4.42341C97.444,129.16316,102.06253,134.95262,102.06253,142.82369Z"/><path class="cls-1" d="M139.20615,129.81367v33.17554h-7.54583v-3.05734a13.67824,13.67824,0,0,1-9.62741,3.64871c-7.09637,0-13.46536-4.61854-13.46536-13.66052v-20.1064h8.00119v19.45c0,4.2933,3.64281,6.83028,7.48074,6.83028a9.15436,9.15436,0,0,0,7.15552-3.38262V129.81367Z"/><path class="cls-1" d="M177.00024,142.82369v20.16552h-8.00116v-19.45c0-4.35836-3.2525-6.83026-7.5458-6.83026a8.56428,8.56428,0,0,0-7.09638,3.31755V162.9892h-7.98932V129.81367h7.61086V132.871a12.87669,12.87669,0,0,1,9.56236-3.70785C171.01564,129.16316,177.00024,133.78172,177.00024,142.82369Z"/><path class="cls-1" d="M215.0546,116.7386v46.25061h-7.54587V159.441c-2.36545,2.99229-6.24481,4.13955-9.88764,4.13955-8.97689,0-16.06738-6.89531-16.06738-17.30332,0-10.01772,6.89533-17.10817,16.26251-17.10817,3.6428,0,6.96039,1.0408,9.23713,3.51271V116.7386Zm-8.00119,23.353a11.73864,11.73864,0,0,0-8.19632-3.3826c-5.46421,0-9.43228,3.6428-9.43228,9.46183,0,5.98461,3.968,9.95268,9.56234,9.95268a11.13539,11.13539,0,0,0,8.06623-3.44767Z"/><path class="cls-1" d="M221.68967,152.34465a23.19785,23.19785,0,0,0,13.14007,4.35837c3.903,0,5.39917-1.366,5.39917-3.05734,0-2.7321-3.64279-2.99231-7.806-3.838-5.32226-1.0408-10.86337-2.8622-10.86337-10.01772,0-6.70016,4.87875-10.60317,13.07507-10.60317a20.43746,20.43746,0,0,1,10.408,2.66706v7.2856a22.24106,22.24106,0,0,0-10.47308-2.9923c-3.64279,0-5.59433,1.49615-5.59433,3.5127,0,2.602,2.79715,2.86222,7.48077,3.77291,5.00885.97576,11.23593,2.36547,11.23593,9.46183,0,6.37491-5.269,10.73327-13.27023,10.73327a24.246,24.246,0,0,1-12.74982-3.64281Z"/><path class="cls-1" d="M282.31638,149.38783H259.61389c.26019,4.35836,4.6836,7.28562,10.05319,7.28562a21.59136,21.59136,0,0,0,11.709-4.03311v7.15552a21.94536,21.94536,0,0,1-12.68479,3.7729c-10.31338.01182-17.06085-6.88941-17.06085-17.29743,0-10.2779,6.70017-17.10817,16.13245-17.10817,9.107,0,14.57123,6.24482,14.57123,16.32757Zm-22.63746-5.98461h14.83146c0-4.42341-2.79715-7.09637-6.83026-7.09637s-7.61088,2.48373-8.0012,7.10229Z"/><path class="cls-1" d="M319.13474,142.82369v20.16552h-8.00119v-19.45c0-4.35836-3.25251-6.83026-7.54581-6.83026a8.56428,8.56428,0,0,0-7.09638,3.31755V162.9892h-7.9952V129.81367H296.107V132.871a12.8767,12.8767,0,0,1,9.56234-3.70785C313.13239,129.16316,319.13474,133.78172,319.13474,142.82369Z"/></svg>