<?xml version="1.0" encoding="UTF-8"?><svg id="Layer_1" xmlns="http://www.w3.org/2000/svg" viewBox="0 0 316.94 73.94"><defs><style>.cls-1{fill:none;}.cls-1,.cls-2{stroke-width:0px;}.cls-2{fill:#fff;}</style></defs><path class="cls-1" d="M208.54004,59.10999c-.55005,0-.97003.10999-1.26001.33997-.28998.23004-.48999.54004-.59003.95001-.09998.40002-.14996.90002-.14996,1.51001s.04999,1.14001.15997,1.53998c.11005.40002.30005.71002.60004.93005.28998.21997.71002.32996,1.25.32996.83997,0,1.42999-.23999,1.76001-.70996.32996-.47003.5-1.17004.5-2.08002l-.01007-.01001c0-.90997-.16998-1.59998-.50995-2.08002-.34003-.47998-.92004-.71997-1.75-.71997Z"/><path class="cls-1" d="M63.91003,59.44995c-.29004-.21997-.71002-.33997-1.24005-.33997-.83997,0-1.42999.25-1.76996.73999-.34003.48999-.51001,1.20001-.51001,2.12s.16998,1.60999.52002,2.10999c.34998.5.93994.75,1.76996.75.79004,0,1.32001-.23999,1.59003-.72998.27997-.48999.40997-1.20001.40997-2.13,0-.64001-.06-1.15997-.16998-1.57001-.10999-.40997-.31-.72998-.59998-.95001Z"/><path class="cls-1" d="M60.28998,15.95996c-.21997-.03998-.44-.04999-.65997-.04999h-27.25l-4.5.02002h-11.42999v23.21997h39.39996v.01001h3.92004c.14996,0,.31-.01001.46997-.03003l.03003-.00995c6.06-.38,10.83997-5.44,10.83997-11.59003s-4.76996-11.17999-10.82001-11.57001Z"/><path class="cls-1" d="M241.60999,60.31995c.17004-.26996.25-.66998.25-1.20996,0-.47998-.07996-.85004-.25-1.10999-.16998-.25-.42999-.43005-.78998-.53003s-.84998-.15002-1.48999-.15002h-1.09003v3.66003h1.08002c.65002,0,1.15002-.03998,1.51001-.13.34998-.09003.60999-.27002.77997-.53003Z"/><path class="cls-1" d="M193.45953,45.41498c-.00281,2.37756-1.91125,4.27496-4.27954,4.30499,2.3783-.02997,4.27686-1.92743,4.27954-4.30499Z"/><path class="cls-1" d="M258.83002,59.38c-.32001-.18005-.76001-.27002-1.32001-.27002s-1.01001.08997-1.32001.27002c-.31.17999-.53998.46997-.66998.87994-.13.41003-.20001.98004-.20001,1.71002s.07001,1.29999.20001,1.71002c.14001.40997.35999.70996.66998.88.31.17999.75.26996,1.31.26996s1.02002-.08997,1.33002-.26996.53998-.47003.66998-.88c.13-.41003.20001-.98004.20001-1.72003l.01001.01001c0-.72998-.07001-1.29999-.20001-1.71002-.14001-.40997-.35999-.70996-.67999-.87994Z"/><path class="cls-1" d="M184.87048,19.32495c.00281-2.37756,1.91125-4.27496,4.27954-4.30499-2.3783.03003-4.27686,1.92743-4.27954,4.30499Z"/><path class="cls-1" d="M46.03998,59.37994c-.26996-.18994-.65997-.27997-1.19-.27997-.54999,0-.97998.09003-1.29999.27002-.31.17999-.52997.45996-.65997.82001-.13.35999-.20001.84998-.22003,1.45996l4.02002-.29999h.01001c0-.5-.04004-.90997-.13-1.22003-.08002-.31-.26001-.56-.53003-.75Z"/><path class="cls-1" d="M28.70001,59.37994c-.27002-.18994-.66003-.27997-1.19-.27997-.54999,0-.97998.09003-1.29999.27002-.31.17999-.53003.45996-.66003.82001-.13.35999-.20001.84998-.21997,1.45996l4.01996-.29999h.01001c0-.5-.03998-.90997-.13-1.22003-.07996-.31-.25995-.56-.52997-.75Z"/><path class="cls-1" d="M10.23999,57.62c-.47998-.20001-1.08002-.30005-1.78998-.30005h-1.52002v7.33002h1.52002c1.08002,0,1.89996-.27002,2.47998-.82001s.87-1.48999.87-2.83997c0-.97003-.14001-1.72003-.41998-2.26001-.28003-.53998-.66003-.91003-1.14001-1.10999Z"/><path class="cls-1" d="M125.84003,62.14996c-.28003.08002-.49005.22998-.64001.44-.14001.22003-.22003.52002-.22003.91998,0,.44.13.77002.38.99005.25.21997.64001.31995,1.16998.31995.64001,0,1.18005-.13,1.62006-.38s.75-.60999.91998-1.07996h.02002v-1.33002h-2.14001c-.46002,0-.83002.03998-1.10999.12Z"/><path class="cls-1" d="M156.01208,22.10504c.06543-.08807.12518-.17871.18457-.26941.13397-.20428.25189-.41559.35455-.63373.03558-.0752.078-.14728.10986-.22412.26874-.6532.40894-1.36639.40894-2.15784,0-1.62994-.58002-2.98999-1.73999-4.06995-1.16003-1.08002-2.76001-1.62006-4.79999-1.62006h-10.57001v11.37006h10.57001c2.07782,0,3.69623-.54926,4.83594-1.64697.24567-.23773.45361-.48956.64612-.74799Z"/><path class="cls-1" d="M292.72003,59.38c-.27002-.19-.66003-.28003-1.19-.28003-.54999,0-.98004.09003-1.29999.27002-.31.17999-.53003.45996-.66003.82001-.13.35999-.20001.84998-.21997,1.45996l4.01996-.29999h.01001c0-.5-.03998-.90997-.13-1.21997-.07996-.31006-.26001-.56006-.52997-.75Z"/><path class="cls-1" d="M189.15002,23.63995c-4.80005,0-8.72003,3.92004-8.72003,8.72003s3.91998,8.75,8.72003,8.75h.02997c2.3783.02997,4.27673,1.92737,4.27954,4.30499,0-.00171.00049-.0033.00049-.005,0-2.38-1.91003-4.28003-4.28003-4.31,4.79999,0,8.72003-3.91998,8.72003-8.72003,0-4.82996-3.92004-8.75-8.72003-8.75h-.02997c-2.3783-.02997-4.27673-1.92737-4.27954-4.30499,0,.00171-.00049.0033-.00049.005,0,2.38,1.91003,4.28003,4.28003,4.31Z"/><path class="cls-1" d="M111.07001,59.37994c-.27002-.18994-.66003-.27997-1.19-.27997-.54999,0-.97998.09003-1.29999.27002-.31.17999-.53003.45996-.66003.82001-.13.35999-.20001.84998-.21997,1.45996l4.01996-.29999h.01001c0-.5-.03998-.90997-.13-1.22003-.07996-.31-.25995-.56-.52997-.75Z"/><path class="cls-1" d="M273.28003,24.73999c-1.37-1.69-3.37-2.54004-5.73999-2.54004s-4.22998.85004-5.63,2.54004c-.64001.77997-1.12,1.72998-1.46002,2.84998-.00281.0097.00067.01886-.00116.02856-.03149.21155.12299.38147.31116.38147h13.75867c.18915-.02625.32739-.22327.27136-.41003-.35004-1.10999-.88-2.07001-1.51001-2.84998Z"/><path class="cls-2" d="M59.77002,6.08997H12.77002c-3.36005.02002-6.12,2.85004-6.12,6.27002v9.60254c-.00208.06616-.01001.1308-.01001.19745v18.76001c.01996,4.44,3.69,8.04999,8.20001,8.04999h45.39996c8.70001,0,16.54004-5.38,19.5-13.40002,2.59003-7,1.73004-14.39996-2.37-20.23999-4-5.77997-10.58002-9.23999-17.59998-9.23999ZM60.27002,39.12l-.03003.00995c-.15997.02002-.32001.03003-.46997.03003h-3.92004v-.01001H16.45001V15.92999h11.42999l4.5-.02002h27.25c.21997,0,.44.01001.65997.04999,6.05005.39001,10.82001,5.41998,10.82001,11.57001s-4.77997,11.21002-10.83997,11.59003Z"/><path class="cls-2" d="M310.32996,16.06995c-.71997-.16998-1.47998-.25995-2.27997-.25995-1.47003,0-2.95001.32001-4.44.94995-.3739.15918-.75983.36188-1.13879.61285-1.12775.74194-2.18829,1.91589-2.69116,3.68719v-4.37c0-.44-.35999-.80005-.79999-.80005h-8.19c-.44,0-.79999.36005-.79999.80005v5.50995h-.01001v25.92999c0,.44.37.80005.81.80005h8.19c.44,0,.79999-.36005.79999-.80005v-18.78998c0-.04639.00885-.09161.00995-.13788v.12787c0-.23907.03516-.47314.06384-.70807.01569-.12756.01843-.25751.04218-.38318.04352-.23016.11511-.45068.18494-.67236.03253-.10309.052-.211.09009-.31177.10242-.27136.23273-.52869.37396-.77954.02441-.0434.04022-.09167.0658-.13434.17499-.29224.37445-.56854.6004-.82208.54272-.60907,1.22406-1.09387,2.01886-1.38867.01001,0,.02997-.00995.03998-.01996,1.39001-.51001,2.85992-.77002,4.40997-.77002.89996,0,1.84998.12,2.84998.34003.19092.04773.36798-.08868.38403-.27496.00079-.00891.00604-.01593.00604-.02509v-6.51001l.00995-.00995c0-.37-.25-.71002-.60004-.79004Z"/><path class="cls-2" d="M245.15002,15.85999h-8.22003c-.56,0-1.06.35999-1.21997.90997l-7.66003,26.04004c-.02997.08997-.10999.13995-.20001.13995-.0437,0-.08453-.01276-.11896-.03522-.0343-.02606-.0614-.0614-.07104-.10474l-7.59998-26.04004c-.16003-.53998-.65002-.90997-1.22003-.90997h-8.27997c-.35004,0-.60004.32996-.49005.65997l9.99005,31.56c.15997.53003.64996.89001,1.20996.89001h13.16003c.27557,0,.53601-.09064.74872-.2475.2171-.15399.38538-.37469.47131-.64252l.10132-.32001h.00861l-.00665-.00616,9.88672-31.23383c.08997-.33002-.14001-.65997-.48999-.65997Z"/><path class="cls-2" d="M193.45953,45.41498c-.00281-2.37762-1.90125-4.27502-4.27954-4.30499h-.02997c-4.80005,0-8.72003-3.95001-8.72003-8.75s3.91998-8.72003,8.72003-8.72003c-2.37-.02997-4.28003-1.92999-4.28003-4.31,0-.00171.00049-.0033.00049-.005.00269-2.37756,1.90125-4.27496,4.27954-4.30499-9.56,0-17.34003,7.76001-17.34003,17.34003s7.78003,17.35999,17.34003,17.35999h.02997c2.36829-.03003,4.27673-1.92743,4.27954-4.30499Z"/><path class="cls-2" d="M189.17999,15.01996h-.02997c-2.36829.03003-4.27673,1.92743-4.27954,4.30499.00281,2.37762,1.90125,4.27502,4.27954,4.30499h.02997c4.79999,0,8.72003,3.92004,8.72003,8.75,0,4.80005-3.92004,8.72003-8.72003,8.72003,2.37.02997,4.28003,1.92999,4.28003,4.31,0,.00171-.00049.0033-.00049.005-.00269,2.37756-1.90125,4.27502-4.27954,4.30499,9.56,0,17.34003-7.77997,17.34003-17.34003,0-9.57996-7.78003-17.35999-17.34003-17.35999Z"/><path class="cls-2" d="M126.03003,39.16998v-.01001h-28.06006V6.09998h-9.79999v35.15002c.02002,4.25995,3.54999,7.71997,7.87,7.71997h4.66199c.00281.00323.00525.00677.00806.01001h25.32001v-9.81Z"/><path class="cls-2" d="M161.66003,39.25995c-1.79706-2.74438-5.72095-6.32397-9.55505-8.00873.97644-.07526,1.89319-.2226,2.77942-.39948.33167-.05792.65845-.12408.97919-.19818.40869-.10022.81683-.20117,1.20044-.32037.00861-.00262.01691-.00555.02551-.00824.98151-.30231,1.88983-.67493,2.6933-1.09674.05914-.03107.11407-.0639.17212-.09546.30475-.16431.591-.33575.86212-.51227.11395-.07452.22229-.15039.33002-.22675.21661-.15314.4209-.30963.61145-.46979.10333-.08667.20178-.17395.29675-.26202.18091-.16809.3476-.33899.49884-.51263.03815-.04382.08966-.08521.12585-.12933.09003-.12.19-.22998.28003-.35999l-.01343-.0144c1.53949-2.06494,2.32343-4.66595,2.32343-7.82562,0-4.03998-1.25-7.16998-3.76001-9.38995-2.51001-2.22003-5.92999-3.34003-10.25-3.34003h-18.56c-.70001,0-1.27002.57001-1.27002,1.27002v40.29999c0,.70001.57001,1.27002,1.27002,1.27002h5.98999c.70001,0,1.27002-.57001,1.27002-1.27002v-16.10999h3.75897c1.04169.02606,2.05847.41437,2.841,1.10999,2.84003,2.52002,4.06,4.44,5.49005,6.65002,1.42999,2.21997,2.96997,4.94995,4.62,8.19995.42999.85004,1.31,1.41003,2.26996,1.41003h.18054c.02374.00067.04559.01001.06946.01001h8.72003c-1.67004-3.63-4.41003-6.85004-6.24005-9.67004h-.00995ZM150.53003,24.5h-10.57001v-11.37006h10.57001c2.03998,0,3.63995.54004,4.79999,1.62006,1.15997,1.07996,1.73999,2.44,1.73999,4.06995,0,.79144-.1402,1.50464-.40894,2.15784-.03186.07684-.07428.14893-.10986.22412-.10266.21814-.22058.42944-.35455.63373-.05939.0907-.11914.18134-.18457.26941-.1925.25842-.40045.51025-.64612.74799-1.13971,1.09772-2.75812,1.64697-4.83594,1.64697Z"/><polygon class="cls-2" points="274.59998 64.56 274.52002 64.56 272.29999 58.53998 271.47003 58.53998 274.06 65.39996 274.07001 65.39996 275.02002 65.39996 277.60999 58.53998 276.76001 58.53998 274.59998 64.56"/><path class="cls-2" d="M44.89001,58.39996c-.70001,0-1.27002.10999-1.71002.33002-.44.21997-.76996.58997-.98999,1.10999-.21997.53003-.33002,1.22998-.33002,2.12s.11005,1.59998.33002,2.12c.22003.52002.54999.89001,1,1.10999.45001.22003,1.03003.33002,1.75.33002.42999,0,.84998-.03998,1.28003-.12.42999-.08002.75-.16998.96997-.27002v-.75995c-.27002.13-.60999.22998-1,.31-.39001.07996-.78003.12-1.15002.12-.58997,0-1.04999-.08002-1.38995-.25-.34003-.17004-.58002-.44-.73004-.79999-.14996-.36005-.23999-.85004-.23999-1.46002l4.77002-.32001.01001-.02002c.02997-.28998.03998-.52997.03998-.71997,0-.83002-.16998-1.51001-.52997-2.04004-.35004-.52997-1.05005-.78998-2.08002-.78998ZM46.69,61.34998l-4.02002.29999c.02002-.60999.09003-1.09998.22003-1.45996.13-.36005.34998-.64001.65997-.82001.32001-.17999.75-.27002,1.29999-.27002.53003,0,.92004.09003,1.19.27997.27002.19.45001.44.53003.75.08997.31006.13.72003.13,1.22003h-.01001Z"/><path class="cls-2" d="M62.78998,58.41998c-.67999,0-1.19995.13-1.57996.39001-.38.25995-.64001.63995-.78003,1.12v-1.39001h-.81v9.40997h.81v-3.88c.32001.97003,1.10999,1.46002,2.35999,1.46002,1.01001,0,1.71002-.31,2.12-.94.41003-.63.61005-1.5.61005-2.62l.01001.01001c0-1.20001-.20001-2.09003-.60004-2.67999-.39996-.59003-1.10999-.88-2.14001-.88ZM64.27002,64.09998c-.27002.48999-.79999.72998-1.59003.72998-.83002,0-1.41998-.25-1.76996-.75-.35004-.5-.52002-1.19-.52002-2.10999s.16998-1.63.51001-2.12c.33997-.48999.92999-.73999,1.76996-.73999.53003,0,.95001.12,1.24005.33997.28998.22003.48999.54004.59998.95001.10999.41003.16998.92999.16998,1.57001,0,.92999-.13,1.64001-.40997,2.13Z"/><path class="cls-2" d="M259.23999,58.73999c-.44-.22003-1.01996-.33002-1.72998-.33002-.70996,0-1.28998.10999-1.72998.33002-.45001.21997-.78003.58002-.98999,1.10999-.21002.53003-.32001,1.22998-.32001,2.12s.09998,1.59998.32001,2.12c.21997.52002.54999.89001.98999,1.10999.44.22003,1.02002.33002,1.72998.33002.71002,0,1.28998-.10999,1.72998-.33002.44-.21997.77002-.58997.99005-1.10999.21997-.52997.32996-1.22998.32996-2.12s-.10999-1.59998-.32996-2.12c-.22003-.52002-.55005-.89001-.99005-1.10999ZM259.70001,61.95996c0,.73999-.07001,1.31-.20001,1.72003-.13.40997-.35999.70001-.66998.88s-.77002.26996-1.33002.26996-1-.08997-1.31-.26996c-.31-.17004-.52997-.47003-.66998-.88-.13-.41003-.20001-.98004-.20001-1.71002s.07001-1.29999.20001-1.71002c.13-.40997.35999-.69995.66998-.87994.31-.18005.76001-.27002,1.32001-.27002s1,.08997,1.32001.27002c.32001.16998.53998.46997.67999.87994.13.41003.20001.98004.20001,1.71002l-.01001-.01001Z"/><path class="cls-2" d="M291.57001,58.39996c-.69995,0-1.26996.10999-1.70996.33002-.44.21997-.77002.58997-.98999,1.10999-.22003.53003-.33002,1.22998-.33002,2.12s.10999,1.60004.33002,2.12c.21997.52002.54999.89001,1,1.10999.45001.22003,1.02997.33002,1.75.33002.42999,0,.84998-.03998,1.27997-.12s.75-.16998.97003-.27002v-.75995c-.27002.13-.60999.22998-1,.31-.39001.07996-.78003.12-1.15002.12-.59003,0-1.04999-.08002-1.39001-.25-.33997-.16998-.58002-.44-.72998-.79999-.15002-.36005-.23999-.85004-.23999-1.46002l4.76996-.32001.01001-.02002c.02997-.28998.03998-.52997.03998-.71997,0-.83002-.16998-1.51001-.52997-2.04004-.34998-.52997-1.04999-.78998-2.08002-.78998ZM293.37,61.34998l-4.01996.29999c.01996-.60999.08997-1.09998.21997-1.45996.13-.36005.35004-.64001.66003-.82001.31995-.17999.75-.27002,1.29999-.27002.52997,0,.91998.09003,1.19.28003.26996.18994.45001.43994.52997.75.09003.31.13.71997.13,1.21997h-.01001Z"/><path class="cls-2" d="M307.10004,59.76996v-1.22998h-.81v6.85999h.81v-4.70001c.17999-.57996.45996-.97998.82996-1.20996s.81-.34003,1.32001-.34003h.15002l.02997-.73999h-.12994c-1.15002,0-1.89001.45001-2.20001,1.35999Z"/><path class="cls-2" d="M10.73999,56.94c-.60999-.24005-1.38-.36005-2.29999-.36005h-2.34998v8.82001h2.34998c1.35999,0,2.40997-.33002,3.15002-1,.73999-.65997,1.10999-1.79999,1.10999-3.40997,0-1.17999-.16998-2.09003-.52002-2.73004-.34998-.63995-.83002-1.07996-1.44-1.31995ZM10.92999,63.82996c-.58002.54999-1.39996.82001-2.47998.82001h-1.52002v-7.33002h1.52002c.70996,0,1.31.10004,1.78998.30005.47998.19995.85999.57001,1.14001,1.10999.27997.53998.41998,1.28998.41998,2.26001,0,1.34998-.28998,2.28998-.87,2.83997Z"/><path class="cls-2" d="M242.25,60.82996c.29004-.38.44-.95996.44-1.72998,0-.65002-.10999-1.15997-.32001-1.52002-.21997-.35999-.56-.62-1.03998-.76996-.47998-.15002-1.14001-.23004-2-.23004h-1.94v8.82001h.83997v-3.70001h1.16003c.27002,0,.46002-.00995.58002-.00995l2.54999,3.70996h1l-2.69-3.81c.65997-.12,1.13-.37,1.41998-.76001ZM239.32001,60.97998h-1.08002v-3.66003h1.09003c.64001,0,1.13.05005,1.48999.15002s.62.28003.78998.53003c.17004.25995.25.63.25,1.10999,0,.53998-.07996.94-.25,1.20996-.16998.26001-.42999.44-.77997.53003-.35999.09003-.85999.13-1.51001.13Z"/><path class="cls-2" d="M27.54999,58.39996c-.70001,0-1.26996.10999-1.70996.33002-.44.21997-.77002.58997-.99005,1.10999-.21997.53003-.32996,1.22998-.32996,2.12s.10999,1.59998.32996,2.12c.22003.52002.55005.89001,1,1.10999.45001.22003,1.03003.33002,1.75.33002.43005,0,.85004-.03998,1.28003-.12s.75-.16998.96997-.27002v-.75995c-.26996.13-.60999.22998-1,.31-.38995.07996-.77997.12-1.14996.12-.59003,0-1.04999-.08002-1.39001-.25-.34003-.17004-.58002-.44-.72998-.79999-.15002-.36005-.23999-.85004-.23999-1.46002l4.76996-.32001.01001-.02002c.03003-.28998.03998-.52997.03998-.71997,0-.83002-.16998-1.51001-.52997-2.04004-.34998-.52997-1.04999-.78998-2.08002-.78998ZM29.34998,61.34998l-4.01996.29999c.01996-.60999.08997-1.09998.21997-1.45996.13-.36005.35004-.64001.66003-.82001.32001-.17999.75-.27002,1.29999-.27002.52997,0,.91998.09003,1.19.27997.27002.19.45001.44.52997.75.09003.31006.13.72003.13,1.22003h-.01001Z"/><polygon class="cls-2" points="91.77997 64.63995 91.77997 56.58997 90.94 56.58997 90.94 65.40997 95.72998 65.40997 95.72998 64.62994 91.78003 64.62994 91.77997 64.63995"/><path class="cls-2" d="M175.34003,56.07996c-.20001,0-.34003.04004-.41003.10004-.07001.07001-.10999.20996-.10999.42999,0,.21997.03998.37.10999.42999.07001.07001.21002.09998.41003.09998.19,0,.31995-.03998.38995-.09998.07001-.07001.11005-.21002.11005-.42999,0-.22003-.04004-.37-.11005-.42999-.06995-.07001-.19995-.10004-.38995-.10004Z"/><path class="cls-2" d="M160.20001,58.40997c-.52002,0-.98999.09998-1.41003.28998-.41998.20001-.70996.51001-.84998.93005v-1.09003h-.79999v6.85999h.79999v-4.73999c.15002-.58002.41998-.97998.79999-1.20001.38-.20996.84003-.32001,1.37-.32001.41003,0,.72998.07001.95001.20001.21997.13.38.33002.46002.60004.08997.25995.13.62.13,1.06995v4.40002h.81v-4.77997c0-.72003-.17004-1.27002-.51001-1.65002-.34003-.38-.91998-.57001-1.75-.57001Z"/><path class="cls-2" d="M210.78003,59.94c-.15002-.47003-.42004-.84003-.79004-1.11005-.38-.26996-.89996-.39996-1.57996-.39996-1.01001,0-1.72003.29999-2.13.90997-.41003.60999-.62,1.47003-.62,2.58002,0,.78998.07996,1.44.25,1.94.15997.51001.45001.89001.84998,1.15997.40997.27002.96997.40002,1.65002.40002.67999,0,1.20996-.12,1.57996-.35999.37-.23004.64001-.58002.79004-1.04004v.79999c0,.84003-.19,1.45001-.59003,1.84003-.39996.39001-1.01001.58002-1.83997.58002-.62006,0-1.15002-.05005-1.60004-.15002v.71002c.42999.09998.96002.14996,1.60004.14996,1.06995,0,1.88-.25995,2.41998-.77997.53998-.51001.81-1.25.81-2.22003v-6.39996h-.79999v1.39001ZM210.81006,61.91998c0,.90997-.17004,1.60999-.5,2.08002-.33002.46997-.92004.70996-1.76001.70996-.53998,0-.96002-.10999-1.25-.32996-.29999-.22003-.48999-.53003-.60004-.93005-.10999-.39996-.15997-.92999-.15997-1.53998s.04999-1.10999.14996-1.51001c.10004-.40997.30005-.71997.59003-.95001.28998-.22998.70996-.33997,1.26001-.33997.82996,0,1.40997.23999,1.75.71997.33997.48004.50995,1.17004.50995,2.08002l.01007.01001Z"/><path class="cls-2" d="M109.91998,58.39996c-.69995,0-1.26996.10999-1.70996.33002-.44.21997-.77002.58997-.98999,1.10999-.22003.53003-.33002,1.22998-.33002,2.12s.10999,1.59998.33002,2.12c.21997.52002.54999.89001,1,1.10999.44995.22003,1.02997.33002,1.75.33002.42999,0,.84998-.03998,1.27997-.12s.75-.16998.97003-.27002v-.75995c-.27002.13-.61005.22998-1,.31-.39001.07996-.78003.12-1.15002.12-.59003,0-1.04999-.08002-1.39001-.25-.33997-.17004-.58002-.44-.72998-.79999-.15002-.36005-.23999-.85004-.23999-1.46002l4.76996-.32001.01001-.02002c.03003-.28998.04004-.52997.04004-.71997,0-.83002-.17004-1.51001-.53003-2.04004-.34998-.52997-1.04999-.78998-2.08002-.78998ZM111.71997,61.34998l-4.01996.29999c.01996-.60999.08997-1.09998.21997-1.45996.13-.36005.35004-.64001.66003-.82001.32001-.17999.75-.27002,1.29999-.27002.52997,0,.91998.09003,1.19.27997.27002.19.45001.44.52997.75.09003.31006.13.72003.13,1.22003h-.01001Z"/><rect class="cls-2" x="174.91998" y="58.53998" width=".81" height="6.85999"/><path class="cls-2" d="M191.34003,58.40997c-.52002,0-.98999.09998-1.41003.28998-.41998.20001-.70996.51001-.84998.93005v-1.09003h-.79999v6.85999h.79999v-4.73999c.15002-.58002.41998-.97998.79999-1.20001.38-.20996.84003-.32001,1.37-.32001.41003,0,.72998.07001.95001.20001.21997.13.38.33002.46002.60004.08997.25995.13.62.13,1.06995v4.40002h.81v-4.77997c0-.72003-.17004-1.27002-.51001-1.65002-.34003-.38-.91998-.57001-1.75-.57001Z"/><path class="cls-2" d="M129.34003,58.96997c-.37-.37-1.05005-.54999-2.02002-.54999-.48999,0-1.01001.04999-1.58002.13v.73999c.5-.10999,1-.16998,1.53003-.16998.70996,0,1.19.13,1.44.38995.25.26001.38.66003.38,1.19v.66003h-2.21002c-.85999,0-1.53003.15997-2,.47998-.47003.32001-.71002.88-.71002,1.67999,0,1.35004.78003,2.02002,2.34003,2.02002.58002,0,1.10999-.12,1.58002-.34003.46997-.21997.79999-.52997,1-.92999l.12994,1.14001h.69v-4.85999h-.00995c0-.67999-.19-1.21002-.56-1.58002ZM129.09003,63.35999h-.02002c-.16998.46997-.47998.82996-.91998,1.07996s-.98004.38-1.62006.38c-.52997,0-.91998-.09998-1.16998-.31995-.25-.22003-.38-.55005-.38-.99005,0-.39996.08002-.69995.22003-.91998.14996-.21002.35999-.35999.64001-.44.27997-.08002.64996-.12,1.10999-.12h2.14001v1.33002Z"/><path class="cls-2" d="M143.23999,59.76996v-1.22998h-.81v6.85999h.81v-4.70001c.17999-.57996.46002-.97998.83002-1.20996.37-.23004.81-.34003,1.32001-.34003h.14996l.03003-.73999h-.13c-1.15002,0-1.89001.45001-2.20001,1.35999Z"/><path class="cls-2" d="M280.22003,19.5c-3.11005-2.93005-7.33002-4.41003-12.67004-4.41003s-9.63,1.47003-12.71997,4.41003c-3.11005,2.92999-4.66003,7.16998-4.66003,12.66998,0,1.10028.07593,2.1499.21094,3.15997h-.03094c.31,2.29004.96002,4.35004,1.95001,6.17999,1.42999,2.62,3.45001,4.66003,6.08997,6.08002,2.63,1.42999,5.68005,2.14001,9.14001,2.14001,3.04846,0,5.11499-.25519,6.81378-.71832,1.32385-.35669,2.4234-.83807,3.58624-1.42169,2.03998-1.02997,5.65997-3.98999,6.38-8.54999.02997-.19-.13-.37-.32001-.37h-8.15997c-.29999,0-.54999.20001-.67999.47998-.7793,1.76831-3.43506,3.48596-6.591,3.48938-3.84534-.00629-8.29938-1.75958-8.46912-7.43939,0-.13104.07538-.24982.18518-.3056.00519-.00269.00983-.00562.0152-.00793.03687-.01617.07684-.02643.11963-.02643h23.61005c.40997,0,.76001-.31.78998-.72003.04999-.63995.07001-1.28998.07001-1.96997,0-5.51001-1.54999-9.73999-4.64001-12.66998h-.0199ZM274.51868,28h-13.75867c-.18817,0-.34265-.16992-.31116-.38147.00183-.0097-.00165-.01886.00116-.02856.34003-1.12.82001-2.07001,1.46002-2.84998,1.40002-1.69,3.26001-2.54004,5.63-2.54004s4.37.85004,5.73999,2.54004c.63.77997,1.15997,1.73999,1.51001,2.84998.05603.18677-.08221.38379-.27136.41003Z"/></svg>