<svg id="Layer_1" data-name="Layer 1" xmlns="http://www.w3.org/2000/svg" viewBox="0 0 576 755.84132"><title>angelML-stacked-black</title><path d="M160.762,204.68275a9.426,9.426,0,0,1-2.58831-1.86939A9.42471,9.42471,0,0,0,160.762,204.68275Z"/><path d="M166.1188,205.92609h.00007a14.05178,14.05178,0,0,1-3.803-.61956A14.05131,14.05131,0,0,0,166.1188,205.92609Z"/><path d="M174.85556,203.14838a9.49713,9.49713,0,0,1-3.03436,1.8924A9.49713,9.49713,0,0,0,174.85556,203.14838Z"/><path d="M43.1221,460.78639c.02972,27.92248,19.75678,47.34332,47.90295,47.36529,72.90223.05719,145.81714-.76038,218.70069.4093,28.69934.46076,51.69256-20.82745,51.29742-51.14026-1.10058-84.4663-.606-168.95788-.11657-253.43585.06585-11.37927-2.9535-14.39447-14.32129-14.3-55.735.46363-111.47773-.01776-167.21784-.16528-.36078,5.37482-1.27075,10.56958-4.5119,13.62878a9.49713,9.49713,0,0,1-3.03436,1.8924,14.01427,14.01427,0,0,1-5.70233.88531h-.00007a14.05131,14.05131,0,0,1-3.80291-.61956,10.51192,10.51192,0,0,1-1.5539-.62378,9.42471,9.42471,0,0,1-2.58831-1.86939c-.02381-.02459-.05231-.045-.07581-.06976-2.95752-3.1181-3.77673-8.10919-4.25446-13.08765-32.58508.1015-65.17437.49506-97.75506.12226-9.41034-.10761-13.35791,1.4085-13.291,12.42138C43.32071,288.39265,43.03055,374.59034,43.1221,460.78639ZM79.18735,216.42384q122.13044.3554,244.26153-.05878c9.858-.04395,10.92572,4.15723,10.87494,12.27655q-.11151,17.84162-.15283,35.68341c-.09131,35.67078-.02454,71.34155-.03381,107.0072,6.32074-1.84338,12.38318-2.53418,16.86468,1.83838a14.30355,14.30355,0,0,1,1.9513,2.39185q.45739.69507.8825,1.49225a9.73817,9.73817,0,0,1,1.10865,6.92425,9.87972,9.87972,0,0,1-.67835,1.98053,12.32314,12.32314,0,0,1-.97082,1.69885,17.20062,17.20062,0,0,1-1.95911,2.367q-.36878.37674-.76148.7417-.39212.365-.805.71856c-4.79834,4.11426-10.28638,2.44153-15.60242.90479v-.00006H334.167c.00666,22.71191.12226,45.42456-.0188,68.13562-.09289,14.939-5.09985,19.92724-20.18786,19.943q-111.84669.11765-223.69336.00458c-15.16486-.01526-20.99823-5.66608-21.02478-20.97327-.13483-77.5639.02795-155.12854-.202-232.69214C69.01724,219.08833,71.22653,216.40077,79.18735,216.42384Z"/><path d="M419.48923,355.80146a12.28141,12.28141,0,0,0-.038,1.3728A12.1019,12.1019,0,0,0,432.1,370.32166c7.78546.23713,12.36132-4.66522,13.42956-12.41662-.52978-8.13764-5.1286-13.0882-12.77771-13.31623A12.28048,12.28048,0,0,0,419.48923,355.80146Z"/><path d="M230.88931,82.73921a12.33,12.33,0,0,0,1.32825.00311,12.16721,12.16721,0,0,0,12.9436-12.8822c.01319-7.71979-4.89575-12.3075-12.9317-13.08191-7.8089.796-12.87652,5.23834-12.9375,12.9779A12.3098,12.3098,0,0,0,230.88931,82.73921Z"/><path d="M514.6254,231.10822a12.31633,12.31633,0,0,0-12.366,13.47809,12.08046,12.08046,0,0,0,13.4079,12.33136c7.8468-.3479,11.89111-5.60058,12.52948-13.35711C526.751,235.94428,522.6373,230.71436,514.6254,231.10822Z"/><path d="M496.59341,147.73914A12.29449,12.29449,0,0,0,509.552,161.93983c7.855.0393,12.32935-4.71161,12.60352-12.91-.37329-8.11029-5.12451-12.88958-12.74066-12.8767A12.2194,12.2194,0,0,0,496.59341,147.73914Z"/><path d="M367.28995,45.968c8.01678-.74048,13.3067-4.88446,13.48346-12.874.17993-8.13257-5.25769-12.83807-13.04492-12.92474a12.03065,12.03065,0,0,0-12.66767,11.35809q-.01812.33308-.01782.66675C354.50974,40.30085,359.60629,44.60963,367.28995,45.968Z"/><path d="M486.944,119.31123q.48688-.00805.97192-.05609c8.14893-.28656,12.07593-5.452,12.99237-13.89429-2.01721-6.70947-5.63861-12.3075-14.11584-11.54138-8.097.73162-12.62122,5.84655-11.86847,13.86145A11.82679,11.82679,0,0,0,486.944,119.31123Z"/><path d="M175.35745,159.87824q.43214.01841.86463.00544a12.17331,12.17331,0,0,0,13.15631-12.84742c.111-8.06671-5.02338-12.25451-13.46027-13.33764-7.04449,1.57348-12.15582,5.63195-11.93573,13.78979A11.8933,11.8933,0,0,0,175.35745,159.87824Z"/><path d="M158.17368,202.81336a9.426,9.426,0,0,0,2.58831,1.86939,10.51192,10.51192,0,0,0,1.5539.62378,14.05178,14.05178,0,0,0,3.803.61956h0a14.01427,14.01427,0,0,0,5.70233-.88531,9.49713,9.49713,0,0,0,3.03436-1.8924c3.24115-3.0592,4.15112-8.254,4.5119-13.62878h0c-10.28308-11.95557-15.45929-11.92792-25.524.13641.47772,4.97846,1.29687,9.96949,4.25439,13.08759C158.12137,202.76838,158.14987,202.78877,158.17368,202.81336Z"/><path d="M198.38834,117.15992c8.26983.54053,12.33575-4.61749,13.9895-12.27887-.84949-7.83252-5.03467-12.90594-13.03479-13.11243a11.8092,11.8092,0,0,0-12.8681,10.64545q-.04643.49137-.05176.98541C185.84189,111.33015,190.20749,116.62507,198.38834,117.15992Z"/><path d="M426.7164,46.19129c-.03607-8.20331-5.30676-12.075-13.04028-13.371-7.46308,1.62909-12.83991,5.76172-12.43537,13.82483.40094,7.99213,5.793,12.5578,13.71442,12.21716C422.39005,58.54261,426.74942,53.67646,426.7164,46.19129Z"/><path d="M497.62808,276.1684a12.137,12.137,0,0,0-11.85144,14.033,11.68741,11.68741,0,0,0,11.75,11.62452q.58218-.00312,1.16181-.06415c7.96728-.19324,12.18994-5.35,12.78491-14.41858C509.89493,280.77381,505.76743,275.43568,497.62808,276.1684Z"/><path d="M520.68533,183.40638q-.46893-.033-.93933-.02856a11.88394,11.88394,0,0,0-13.48834,12.30224c-.343,8.21552,4.8382,12.25629,12.61743,13.64691,7.59876-1.2016,12.81775-5.0708,12.76685-13.30719A11.8141,11.8141,0,0,0,520.68533,183.40638Z"/><path d="M319.123,45.27747q.46188-.01236.92181-.06073c8.16223-.23352,12.11279-5.316,13.01605-13.16363-1.637-7.62915-6.00573-12.74-14.0412-12.15851a12.14883,12.14883,0,0,0-12.05029,13.86383A11.84059,11.84059,0,0,0,319.123,45.27747Z"/><path d="M454.8414,84.0453c7.986-.72327,12.92743-4.83283,12.79858-13.00684-.12847-8.15131-5.28595-12.70581-13.15881-12.56488a11.79385,11.79385,0,0,0-12.22528,11.34589q-.01721.46233.00183.92492C441.96756,78.882,446.91135,83.08424,454.8414,84.0453Z"/><path d="M274.04056,58.077c7.8894-1.22876,12.96533-5.77709,12.32763-13.70813A12.867,12.867,0,0,0,260.67044,45.377C260.92368,53.1601,265.89908,57.67457,274.04056,58.077Z"/><path d="M457.47806,328.6034a11.7963,11.7963,0,0,0,11.65423,11.93671q.45493.0054.90931-.02417a11.99882,11.99882,0,0,0,12.81811-12.99457c-.00647-8.1607-5.252-12.07776-13.29681-12.595C461.7532,316.12739,456.94528,320.50025,457.47806,328.6034Z"/><path d="M388.0939,363.16468a12.721,12.721,0,0,0-.6206,25.42963c7.949.381,12.43438-4.47705,13.53528-12.09491C400.59171,367.97224,395.7438,363.202,388.0939,363.16468Z"/><path d="M353.8356,377.05482q-.42471-.79816-.88251-1.49219a14.30378,14.30378,0,0,0-1.95135-2.39191c-4.48151-4.37255-10.54388-3.6817-16.86462-1.83831l-.00629.0075c-6.25739,7.01831-5.46387,14.03705.03631,21.05036v.00006c5.316,1.53674,10.80408,3.20947,15.60242-.90479q.41235-.35348.805-.71856.39222-.365.76148-.7417a17.20062,17.20062,0,0,0,1.95911-2.367,12.32314,12.32314,0,0,0,.97082-1.69885,9.87972,9.87972,0,0,0,.67835-1.98053A9.73828,9.73828,0,0,0,353.8356,377.05482Z"/><path d="M167.67935,254.43018a12.04074,12.04074,0,0,0,1.704.04444c7.93823.30462,12.44922-4.38764,13.28284-12.67969-.32569-7.80829-4.95-12.78522-12.526-13.072a12.24487,12.24487,0,0,0-13.27655,12.56189A12.037,12.037,0,0,0,167.67935,254.43018Z"/><path d="M172.91806,287.16358c.19434,7.74182,5.54462,12.10651,13.57629,12.72144,7.756-1.43408,12.7898-5.97705,12.19214-13.90717a12.03369,12.03369,0,0,0-12.19757-11.86767q-.32172.00439-.64282.026C177.77011,274.25257,172.72324,279.39851,172.91806,287.16358Z"/><path d="M213.41348,338.62318c8.29077.16906,12.15753-5.02722,13.37458-13.25482-1.58539-6.99195-5.39881-12.46119-13.60334-12.15619a12.70734,12.70734,0,0,0,.22876,25.411Z"/><path d="M250.205,368.95814c7.95678.5202,12.50372-4.37445,13.89306-12.26581-.72943-7.89551-4.78509-12.88074-12.903-13.07849A11.54391,11.54391,0,0,0,238.376,355.13105C237.72061,363.32081,242.29459,368.44093,250.205,368.95814Z"/><path d="M293.67606,388.00959q.48916.01767.97845-.00531c8.07221.19415,12.35382-4.75592,13.46448-13.10559-1.16657-7.33417-5.35565-12.6745-13.3133-12.47406a11.9874,11.9874,0,0,0-12.48852,13.37646A11.79137,11.79137,0,0,0,293.67606,388.00959Z"/><path d="M67.83755,561.20228,20.21121,701.37537H38.92886L53.487,657.2848h49.70611l14.97376,44.09057h19.34228L89.67459,561.20228ZM57.23093,643.1432l13.72595-40.55481c2.70373-8.52674,4.991-17.05353,7.07086-25.37207h.41638c2.07984,8.11035,4.15894,16.42962,7.27906,25.58032L99.44913,643.1432Z"/><path d="M217.7814,598.42951c-16.63861,0-28.28473,9.35883-33.27575,18.92517h-.41639l-1.03955-16.63787H166.82748c.62464,8.31927.83136,16.84606.83136,27.24444v73.41412h18.3028V640.8559a26.2825,26.2825,0,0,1,1.24774-8.52679c3.11859-10.19092,12.47748-18.71771,24.54-18.71771,17.26178,0,23.29382,13.51849,23.29382,29.74v58.024h18.30127V641.27082C253.34445,606.74806,231.71481,598.42951,217.7814,598.42951Z"/><path d="M363.77084,615.89869h-.41638c-4.36786-8.31854-13.93493-17.46918-31.40491-17.46918-23.084,0-45.33825,19.34156-45.33825,53.44788,0,27.86835,17.88635,49.08307,42.84277,49.08307,15.59906,0,26.41388-7.488,32.028-16.84687h.41638v11.23127c0,25.37286-13.72669,35.1466-32.4444,35.1466-12.47748,0-22.87732-3.74322-29.53247-7.90289L295.347,736.52351c8.11108,5.40741,21.42138,8.31781,33.48394,8.31781,12.68567,0,26.8288-2.9104,36.6026-12.0611,9.77521-8.73572,14.35132-22.87732,14.35132-45.96289V628.37769c0-12.27081.41492-20.38189.8313-27.66088h-16.014Zm-2.08056,42.63385a31.8536,31.8536,0,0,1-1.45594,9.77527c-3.95147,11.64618-14.14166,18.71771-25.37286,18.71771-19.75726,0-29.74072-16.43042-29.74072-36.18762,0-23.2923,12.479-38.05859,29.94891-38.05859,13.3103,0,22.25275,8.735,25.58106,19.34161a26.07163,26.07163,0,0,1,1.03955,8.31854Z"/><path d="M460.88547,598.42951c-29.32428,0-47.21063,23.91687-47.21063,54.2807s18.50946,50.74573,49.49792,50.74573c16.014,0,27.03705-3.32831,33.48395-6.24023l-3.12006-13.10212c-6.8634,2.91193-14.76629,5.19922-27.86835,5.19922-18.30133,0-34.10711-10.19018-34.52349-34.93841h70.71112a69.04341,69.04341,0,0,0,.62317-8.52753C502.4791,627.33741,493.74484,598.42951,460.88547,598.42951Zm23.91693,42.84131H431.353c1.45593-12.68567,9.567-29.73926,28.07653-29.73926C480.0181,611.53156,485.00912,629.62544,484.8024,641.27082Z"/><rect x="535.9556" y="553.71504" width="18.30127" height="147.66034"/></svg>