<svg id="Layer_1" data-name="Layer 1" xmlns="http://www.w3.org/2000/svg" xmlns:xlink="http://www.w3.org/1999/xlink" viewBox="0 0 432 128.98064"><defs><style>.cls-1{fill:none;}.cls-2{fill:#53575a;}.cls-3{fill:#5c0f8b;}.cls-4{fill:url(#linear-gradient);}.cls-5{fill:url(#linear-gradient-2);}.cls-6{fill:url(#linear-gradient-3);}.cls-7{fill:url(#linear-gradient-4);}.cls-8{fill:url(#linear-gradient-5);}.cls-9{fill:url(#linear-gradient-6);}.cls-10{fill:url(#linear-gradient-7);}.cls-11{fill:url(#linear-gradient-8);}.cls-12{fill:url(#linear-gradient-9);}.cls-13{fill:url(#linear-gradient-10);}.cls-14{fill:url(#linear-gradient-11);}.cls-15{fill:url(#linear-gradient-12);}.cls-16{fill:url(#linear-gradient-13);}.cls-17{fill:url(#linear-gradient-14);}.cls-18{fill:url(#linear-gradient-15);}.cls-19{fill:url(#linear-gradient-16);}.cls-20{fill:url(#linear-gradient-17);}.cls-21{fill:url(#linear-gradient-18);}.cls-22{fill:url(#linear-gradient-19);}.cls-23{fill:url(#linear-gradient-20);}.cls-24{fill:url(#linear-gradient-21);}.cls-25{fill:url(#linear-gradient-22);}.cls-26{fill:url(#linear-gradient-23);}.cls-27{fill:url(#linear-gradient-24);}.cls-28{fill:url(#linear-gradient-25);}.cls-29{fill:url(#linear-gradient-26);}.cls-30{fill:url(#linear-gradient-27);}.cls-31{fill:url(#linear-gradient-28);}.cls-32{fill:url(#linear-gradient-29);}.cls-33{fill:url(#linear-gradient-30);}.cls-34{fill:url(#linear-gradient-31);}.cls-35{fill:url(#linear-gradient-32);}.cls-36{fill:url(#linear-gradient-33);}.cls-37{fill:url(#linear-gradient-34);}.cls-38{fill:url(#linear-gradient-35);}.cls-39{fill:url(#linear-gradient-36);}.cls-40{fill:url(#linear-gradient-37);}.cls-41{fill:url(#linear-gradient-38);}.cls-42{fill:url(#linear-gradient-39);}.cls-43{fill:url(#linear-gradient-40);}.cls-44{fill:url(#linear-gradient-41);}.cls-45{fill:url(#linear-gradient-42);}.cls-46{fill:url(#linear-gradient-43);}.cls-47{fill:url(#linear-gradient-44);}.cls-48{fill:url(#linear-gradient-45);}.cls-49{fill:url(#linear-gradient-46);}.cls-50{fill:url(#linear-gradient-47);}.cls-51{fill:url(#linear-gradient-48);}.cls-52{fill:url(#linear-gradient-49);}.cls-53{fill:url(#linear-gradient-50);}.cls-54{fill:url(#linear-gradient-51);}.cls-55{fill:url(#linear-gradient-52);}.cls-56{fill:url(#linear-gradient-53);}.cls-57{fill:url(#linear-gradient-54);}.cls-58{fill:url(#linear-gradient-55);}.cls-59{fill:url(#linear-gradient-56);}.cls-60{fill:url(#linear-gradient-57);}.cls-61{fill:url(#linear-gradient-58);}.cls-62{fill:url(#linear-gradient-59);}.cls-63{fill:url(#linear-gradient-60);}.cls-64{fill:url(#linear-gradient-61);}.cls-65{fill:url(#linear-gradient-62);}.cls-66{fill:url(#linear-gradient-63);}.cls-67{fill:url(#linear-gradient-64);}.cls-68{fill:url(#linear-gradient-65);}.cls-69{fill:url(#linear-gradient-66);}.cls-70{fill:url(#linear-gradient-67);}.cls-71{fill:url(#linear-gradient-68);}.cls-72{fill:url(#linear-gradient-69);}.cls-73{fill:url(#linear-gradient-70);}.cls-74{fill:url(#linear-gradient-71);}.cls-75{fill:url(#linear-gradient-72);}.cls-76{fill:url(#linear-gradient-73);}.cls-77{fill:url(#linear-gradient-74);}.cls-78{fill:url(#linear-gradient-75);}.cls-79{fill:url(#linear-gradient-76);}.cls-80{fill:url(#linear-gradient-77);}.cls-81{fill:url(#linear-gradient-78);}.cls-82{fill:url(#linear-gradient-79);}.cls-83{fill:url(#linear-gradient-80);}.cls-84{fill:url(#linear-gradient-81);}.cls-85{fill:url(#linear-gradient-82);}.cls-86{fill:url(#linear-gradient-83);}.cls-87{fill:url(#linear-gradient-84);}.cls-88{fill:url(#linear-gradient-85);}.cls-89{fill:url(#linear-gradient-86);}.cls-90{fill:url(#linear-gradient-87);}.cls-91{fill:url(#linear-gradient-88);}.cls-92{fill:url(#linear-gradient-89);}.cls-93{fill:url(#linear-gradient-90);}.cls-94{fill:url(#linear-gradient-91);}.cls-95{fill:url(#linear-gradient-92);}.cls-96{fill:url(#linear-gradient-93);}.cls-97{fill:url(#linear-gradient-94);}</style><linearGradient id="linear-gradient" x1="-3.43135" y1="72.27453" x2="146.5513" y2="127.77269" gradientTransform="matrix(1, 0, 0, -1, 0, 138.68128)" gradientUnits="userSpaceOnUse"><stop offset="0" stop-color="#65318f"/><stop offset="0.21076" stop-color="#633592"/><stop offset="0.43565" stop-color="#5c4299"/><stop offset="0.6663" stop-color="#5257a6"/><stop offset="0.81351" stop-color="#4969b1"/></linearGradient><linearGradient id="linear-gradient-2" x1="2.73176" y1="55.61887" x2="152.71441" y2="111.11704" xlink:href="#linear-gradient"/><linearGradient id="linear-gradient-3" x1="4.84371" y1="49.91139" x2="154.82634" y2="105.40955" xlink:href="#linear-gradient"/><linearGradient id="linear-gradient-4" x1="7.76588" y1="42.01426" x2="157.74853" y2="97.51243" xlink:href="#linear-gradient"/><linearGradient id="linear-gradient-5" x1="4.66162" y1="50.40345" x2="154.64427" y2="105.90161" xlink:href="#linear-gradient"/><linearGradient id="linear-gradient-6" x1="13.04132" y1="27.75751" x2="163.02397" y2="83.25567" xlink:href="#linear-gradient"/><linearGradient id="linear-gradient-7" x1="-12.24996" y1="96.10666" x2="137.73268" y2="151.60482" xlink:href="#linear-gradient"/><linearGradient id="linear-gradient-8" x1="17.51533" y1="15.66657" x2="167.49798" y2="71.16473" xlink:href="#linear-gradient"/><linearGradient id="linear-gradient-9" x1="-2.8172" y1="70.61484" x2="147.16545" y2="126.113" xlink:href="#linear-gradient"/><linearGradient id="linear-gradient-10" x1="-13.87608" y1="100.50122" x2="136.10657" y2="155.99938" xlink:href="#linear-gradient"/><linearGradient id="linear-gradient-11" x1="-2.14319" y1="68.79332" x2="147.83945" y2="124.29149" xlink:href="#linear-gradient"/><linearGradient id="linear-gradient-12" x1="-14.34722" y1="101.77448" x2="135.63542" y2="157.27265" xlink:href="#linear-gradient"/><linearGradient id="linear-gradient-13" x1="11.20848" y1="32.71072" x2="161.19112" y2="88.20888" xlink:href="#linear-gradient"/><linearGradient id="linear-gradient-14" x1="-7.48242" y1="83.22248" x2="142.50023" y2="138.72064" xlink:href="#linear-gradient"/><linearGradient id="linear-gradient-15" x1="-9.40219" y1="88.41062" x2="140.58046" y2="143.90879" xlink:href="#linear-gradient"/><linearGradient id="linear-gradient-16" x1="20.5284" y1="7.5238" x2="170.51105" y2="63.02197" xlink:href="#linear-gradient"/><linearGradient id="linear-gradient-17" x1="5.85683" y1="47.17344" x2="155.83948" y2="102.67161" xlink:href="#linear-gradient"/><linearGradient id="linear-gradient-18" x1="23.08636" y1="0.61099" x2="173.06901" y2="56.10915" xlink:href="#linear-gradient"/><linearGradient id="linear-gradient-19" x1="24.31722" y1="-2.71538" x2="174.29987" y2="52.78278" xlink:href="#linear-gradient"/><linearGradient id="linear-gradient-20" x1="-2.00182" y1="68.41127" x2="147.98082" y2="123.90945" xlink:href="#linear-gradient"/><linearGradient id="linear-gradient-21" x1="26.29361" y1="-8.05653" x2="176.27625" y2="47.44163" xlink:href="#linear-gradient"/><linearGradient id="linear-gradient-22" x1="21.02236" y1="6.18889" x2="171.00501" y2="61.68706" xlink:href="#linear-gradient"/><linearGradient id="linear-gradient-23" x1="20.38353" y1="7.91533" x2="170.36618" y2="63.41349" xlink:href="#linear-gradient"/><linearGradient id="linear-gradient-24" x1="5.52733" y1="48.06392" x2="155.50997" y2="103.56209" xlink:href="#linear-gradient"/><linearGradient id="linear-gradient-25" x1="12.6753" y1="28.74666" x2="162.65794" y2="84.24483" xlink:href="#linear-gradient"/><linearGradient id="linear-gradient-26" x1="27.64542" y1="-11.70979" x2="177.62806" y2="43.78839" xlink:href="#linear-gradient"/><linearGradient id="linear-gradient-27" x1="6.46238" y1="45.53695" x2="156.44503" y2="101.03512" xlink:href="#linear-gradient"/><linearGradient id="linear-gradient-28" x1="16.19766" y1="19.22756" x2="166.1803" y2="74.72572" xlink:href="#linear-gradient"/><linearGradient id="linear-gradient-29" x1="12.97941" y1="27.92484" x2="162.96205" y2="83.423" xlink:href="#linear-gradient"/><linearGradient id="linear-gradient-30" x1="19.57139" y1="10.11014" x2="169.55403" y2="65.6083" xlink:href="#linear-gradient"/><linearGradient id="linear-gradient-31" x1="20.03969" y1="8.84455" x2="170.02234" y2="64.34272" xlink:href="#linear-gradient"/><linearGradient id="linear-gradient-32" x1="18.87288" y1="11.99785" x2="168.85553" y2="67.49601" xlink:href="#linear-gradient"/><linearGradient id="linear-gradient-33" x1="4.19534" y1="51.66357" x2="154.17799" y2="107.16174" xlink:href="#linear-gradient"/><linearGradient id="linear-gradient-34" x1="-2.24113" y1="69.05799" x2="147.74152" y2="124.55616" xlink:href="#linear-gradient"/><linearGradient id="linear-gradient-35" x1="15.1179" y1="22.1456" x2="165.10052" y2="77.64377" xlink:href="#linear-gradient"/><linearGradient id="linear-gradient-36" x1="-5.08997" y1="76.75695" x2="144.89268" y2="132.25511" xlink:href="#linear-gradient"/><linearGradient id="linear-gradient-37" x1="-3.29567" y1="71.90786" x2="146.68698" y2="127.40603" xlink:href="#linear-gradient"/><linearGradient id="linear-gradient-38" x1="13.50262" y1="26.51085" x2="163.46419" y2="82.00121" xlink:href="#linear-gradient"/><linearGradient id="linear-gradient-39" x1="14.97211" y1="22.53958" x2="164.95475" y2="78.03775" xlink:href="#linear-gradient"/><linearGradient id="linear-gradient-40" x1="2.0838" y1="57.36996" x2="152.06645" y2="112.86813" xlink:href="#linear-gradient"/><linearGradient id="linear-gradient-41" x1="27.95743" y1="-12.55297" x2="177.94007" y2="42.9452" xlink:href="#linear-gradient"/><linearGradient id="linear-gradient-42" x1="18.96359" y1="11.75268" x2="168.94623" y2="67.25085" xlink:href="#linear-gradient"/><linearGradient id="linear-gradient-43" x1="27.91399" y1="-12.43557" x2="177.89663" y2="43.06259" xlink:href="#linear-gradient"/><linearGradient id="linear-gradient-44" x1="16.11567" y1="19.44915" x2="166.0983" y2="74.94731" xlink:href="#linear-gradient"/><linearGradient id="linear-gradient-45" x1="0.3916" y1="61.94312" x2="150.37424" y2="117.44127" xlink:href="#linear-gradient"/><linearGradient id="linear-gradient-46" x1="8.00917" y1="41.35678" x2="157.99182" y2="96.85494" xlink:href="#linear-gradient"/><linearGradient id="linear-gradient-47" x1="-1.27103" y1="66.43635" x2="148.71162" y2="121.93452" xlink:href="#linear-gradient"/><linearGradient id="linear-gradient-48" x1="25.94911" y1="-7.12554" x2="175.93175" y2="48.37263" xlink:href="#linear-gradient"/><linearGradient id="linear-gradient-49" x1="20.62619" y1="7.25955" x2="170.60884" y2="62.75772" xlink:href="#linear-gradient"/><linearGradient id="linear-gradient-50" x1="-6.16385" y1="79.65907" x2="143.8188" y2="135.15723" xlink:href="#linear-gradient"/><linearGradient id="linear-gradient-51" x1="23.57526" y1="-0.71023" x2="173.5579" y2="54.78793" xlink:href="#linear-gradient"/><linearGradient id="linear-gradient-52" x1="-8.3744" y1="85.63305" x2="141.60825" y2="141.13121" xlink:href="#linear-gradient"/><linearGradient id="linear-gradient-53" x1="-4.802" y1="75.97871" x2="145.18064" y2="131.47687" xlink:href="#linear-gradient"/><linearGradient id="linear-gradient-54" x1="-8.93561" y1="87.14972" x2="141.04703" y2="142.64789" xlink:href="#linear-gradient"/><linearGradient id="linear-gradient-55" x1="-10.60581" y1="91.66341" x2="139.37683" y2="147.16157" xlink:href="#linear-gradient"/><linearGradient id="linear-gradient-56" x1="15.74679" y1="20.44603" x2="165.72943" y2="75.9442" xlink:href="#linear-gradient"/><linearGradient id="linear-gradient-57" x1="12.32913" y1="29.68219" x2="162.31178" y2="85.18036" xlink:href="#linear-gradient"/><linearGradient id="linear-gradient-58" x1="-12.36218" y1="96.40996" x2="137.62046" y2="151.90812" xlink:href="#linear-gradient"/><linearGradient id="linear-gradient-59" x1="15.29314" y1="21.67202" x2="165.27578" y2="77.17019" xlink:href="#linear-gradient"/><linearGradient id="linear-gradient-60" x1="4.48803" y1="50.87258" x2="154.47068" y2="106.37075" xlink:href="#linear-gradient"/><linearGradient id="linear-gradient-61" x1="5.91159" y1="47.02544" x2="155.89424" y2="102.52361" xlink:href="#linear-gradient"/><linearGradient id="linear-gradient-62" x1="-6.16777" y1="79.6697" x2="143.81488" y2="135.16785" xlink:href="#linear-gradient"/><linearGradient id="linear-gradient-63" x1="21.64838" y1="4.49711" x2="171.63102" y2="59.99527" xlink:href="#linear-gradient"/><linearGradient id="linear-gradient-64" x1="1.41031" y1="59.19006" x2="151.39296" y2="114.68823" xlink:href="#linear-gradient"/><linearGradient id="linear-gradient-65" x1="30.72996" y1="-20.04565" x2="180.71261" y2="35.4525" xlink:href="#linear-gradient"/><linearGradient id="linear-gradient-66" x1="-8.17405" y1="85.09159" x2="141.80859" y2="140.58975" xlink:href="#linear-gradient"/><linearGradient id="linear-gradient-67" x1="7.90513" y1="41.63795" x2="157.88777" y2="97.13611" xlink:href="#linear-gradient"/><linearGradient id="linear-gradient-68" x1="-8.51214" y1="86.00528" x2="141.4705" y2="141.50345" xlink:href="#linear-gradient"/><linearGradient id="linear-gradient-69" x1="18.79456" y1="12.20947" x2="168.77721" y2="67.70763" xlink:href="#linear-gradient"/><linearGradient id="linear-gradient-70" x1="-3.20278" y1="71.65686" x2="146.77986" y2="127.15503" xlink:href="#linear-gradient"/><linearGradient id="linear-gradient-71" x1="15.95391" y1="19.8863" x2="165.93655" y2="75.38447" xlink:href="#linear-gradient"/><linearGradient id="linear-gradient-72" x1="-14.92828" y1="103.34478" x2="135.05437" y2="158.84295" xlink:href="#linear-gradient"/><linearGradient id="linear-gradient-73" x1="-14.48422" y1="102.14473" x2="135.49842" y2="157.64289" xlink:href="#linear-gradient"/><linearGradient id="linear-gradient-74" x1="4.47346" y1="50.91197" x2="154.45611" y2="106.41014" xlink:href="#linear-gradient"/><linearGradient id="linear-gradient-75" x1="12.19148" y1="30.05418" x2="162.17412" y2="85.55235" xlink:href="#linear-gradient"/><linearGradient id="linear-gradient-76" x1="3.52519" y1="53.47467" x2="153.50784" y2="108.97282" xlink:href="#linear-gradient"/><linearGradient id="linear-gradient-77" x1="-4.69055" y1="75.67751" x2="145.29209" y2="131.17568" xlink:href="#linear-gradient"/><linearGradient id="linear-gradient-78" x1="-6.20722" y1="79.77629" x2="143.77543" y2="135.27444" xlink:href="#linear-gradient"/><linearGradient id="linear-gradient-79" x1="4.83629" y1="49.93142" x2="154.81894" y2="105.42958" xlink:href="#linear-gradient"/><linearGradient id="linear-gradient-80" x1="3.42458" y1="53.74654" x2="153.40722" y2="109.24471" xlink:href="#linear-gradient"/><linearGradient id="linear-gradient-81" x1="-9.91468" y1="89.7956" x2="140.06797" y2="145.29376" xlink:href="#linear-gradient"/><linearGradient id="linear-gradient-82" x1="3.80662" y1="52.71411" x2="153.78927" y2="108.21227" xlink:href="#linear-gradient"/><linearGradient id="linear-gradient-83" x1="-1.72167" y1="67.65416" x2="148.26098" y2="123.15233" xlink:href="#linear-gradient"/><linearGradient id="linear-gradient-84" x1="5.79578" y1="47.33843" x2="155.77842" y2="102.83659" xlink:href="#linear-gradient"/><linearGradient id="linear-gradient-85" x1="16.7454" y1="17.74728" x2="166.72805" y2="73.24545" xlink:href="#linear-gradient"/><linearGradient id="linear-gradient-86" x1="10.8758" y1="33.60979" x2="160.85845" y2="89.10795" xlink:href="#linear-gradient"/><linearGradient id="linear-gradient-87" x1="15.06041" y1="22.30096" x2="165.04306" y2="77.79912" xlink:href="#linear-gradient"/><linearGradient id="linear-gradient-88" x1="15.5829" y1="20.88895" x2="165.56554" y2="76.38711" xlink:href="#linear-gradient"/><linearGradient id="linear-gradient-89" x1="8.69341" y1="39.50764" x2="158.67605" y2="95.0058" xlink:href="#linear-gradient"/><linearGradient id="linear-gradient-90" x1="28.01839" y1="-12.71771" x2="178.00104" y2="42.78046" xlink:href="#linear-gradient"/><linearGradient id="linear-gradient-91" x1="28.32704" y1="-13.55186" x2="178.3097" y2="41.94632" xlink:href="#linear-gradient"/><linearGradient id="linear-gradient-92" x1="26.99973" y1="-9.96479" x2="176.98237" y2="45.53337" xlink:href="#linear-gradient"/><linearGradient id="linear-gradient-93" x1="32.57003" y1="-25.01845" x2="182.55269" y2="30.47973" xlink:href="#linear-gradient"/><linearGradient id="linear-gradient-94" x1="28.39278" y1="-13.72952" x2="178.37542" y2="41.76865" xlink:href="#linear-gradient"/></defs><title>acumosAI-horizontal-color</title><path class="cls-1" d="M381.37081,41.95285a9.6044,9.6044,0,0,0-7.447,0,9.44056,9.44056,0,0,0-5.06859,5.06791,9.33487,9.33487,0,0,0-.7498,3.7221V76.1456a9.31537,9.31537,0,0,0,.75114,3.72417,9.46341,9.46341,0,0,0,5.06725,5.06724,9.28365,9.28365,0,0,0,3.72348.75115,9.17993,9.17993,0,0,0,3.72348-.75115,9.45325,9.45325,0,0,0,5.06588-5.0679,9.302,9.302,0,0,0,.75251-3.7235V50.74292a9.32316,9.32316,0,0,0-.75251-3.72417,9.429,9.429,0,0,0-5.06588-5.0659Z"/><polygon class="cls-1" points="195.492 72.123 211.517 72.123 203.503 36.154 195.492 72.123"/><path class="cls-2" d="M203.95645,25.815h-4.58277l-16.82561,75.82712h6.495l5.08-22.91678h18.76261l5.08,22.91678h6.495L207.635,25.815ZM195.49158,72.4058l8.012-35.96785L211.517,72.40577Z"/><path class="cls-2" d="M252.79594,39.49986a15.95406,15.95406,0,0,0-5.02693-3.37211,16.20558,16.20558,0,0,0-12.43226,0,15.79267,15.79267,0,0,0-9.64464,14.61512V76.1456a15.79109,15.79109,0,0,0,9.644,14.61517,16.11393,16.11393,0,0,0,12.43428,0,15.791,15.791,0,0,0,9.644-14.61517v-1.376h-6.31966v1.376a9.31927,9.31927,0,0,1-.75114,3.7235,9.53727,9.53727,0,0,1-17.58147.00067,9.32127,9.32127,0,0,1-.75048-3.72416V50.74292a9.32972,9.32972,0,0,1,.74981-3.7221,9.44979,9.44979,0,0,1,5.06791-5.06724,9.57969,9.57969,0,0,1,10.47914,2.03374,9.75123,9.75123,0,0,1,2.03441,3.03148,9.33947,9.33947,0,0,1,.75181,3.72417v1.376h6.31959v-1.376a15.68347,15.68347,0,0,0-1.24631-6.2168A15.97838,15.97838,0,0,0,252.79594,39.49986Z"/><path class="cls-2" d="M287.63234,75.87551a9.31927,9.31927,0,0,1-.75114,3.7235,9.45748,9.45748,0,0,1-5.06663,5.06791,9.19234,9.19234,0,0,1-3.72416.75115,9.29821,9.29821,0,0,1-3.72283-.75049,9.45985,9.45985,0,0,1-5.0679-5.06789,9.32144,9.32144,0,0,1-.75048-3.72418V35.15218h-6.31959V75.87551a15.79777,15.79777,0,0,0,15.8608,15.86282,15.25855,15.25855,0,0,0,6.65082-1.48752,17.3579,17.3579,0,0,0,2.89105-1.75358V91.1968h6.31959V35.1522h-6.31959Z"/><path class="cls-2" d="M352.35279,39.77129a15.93129,15.93129,0,0,0-5.02557-3.37278,15.71557,15.71557,0,0,0-6.21617-1.24564,15.40977,15.40977,0,0,0-8.178,2.2568,15.93668,15.93668,0,0,0-4.47264,4.044,15.98454,15.98454,0,0,0-22.29331-3.12956v-2.631h-6.32025V91.73766h6.32028v-40.724a9.32027,9.32027,0,0,1,.74981-3.7235,9.53579,9.53579,0,0,1,17.58012-.00134,9.35027,9.35027,0,0,1,.75251,3.72484v40.724h6.31959v-40.724a9.32938,9.32938,0,0,1,2.82454-6.74019,10.55094,10.55094,0,0,1,3.061-2.05524,9.50994,9.50994,0,0,1,12.44577,5.0713,9.323,9.323,0,0,1,.75251,3.72416v40.724h6.3196v-40.724a15.66752,15.66752,0,0,0-1.247-6.2168A15.88989,15.88989,0,0,0,352.35279,39.77129Z"/><path class="cls-2" d="M388.89037,39.49986a15.96556,15.96556,0,0,0-5.02691-3.37211,16.20558,16.20558,0,0,0-12.43226,0,15.7976,15.7976,0,0,0-9.64537,14.61516V76.1456a15.79451,15.79451,0,0,0,9.644,14.61517,16.11557,16.11557,0,0,0,12.43494,0,15.79305,15.79305,0,0,0,9.644-14.61518V50.74292a15.66752,15.66752,0,0,0-1.247-6.2168A15.96544,15.96544,0,0,0,388.89037,39.49986ZM387.1892,50.743V76.1456a9.30175,9.30175,0,0,1-.75251,3.7235,9.4533,9.4533,0,0,1-5.06588,5.06791,9.18023,9.18023,0,0,1-3.72348.75115,9.28365,9.28365,0,0,1-3.72348-.75115,9.46348,9.46348,0,0,1-5.06725-5.06724,9.31545,9.31545,0,0,1-.75114-3.72418V50.74292a9.33471,9.33471,0,0,1,.74981-3.7221,9.44051,9.44051,0,0,1,5.06858-5.06791,9.60431,9.60431,0,0,1,7.447,0,9.42894,9.42894,0,0,1,5.06588,5.06589,9.32347,9.32347,0,0,1,.75248,3.72412Z"/><path class="cls-2" d="M425.42528,39.49852a15.98256,15.98256,0,0,0-5.02558-3.37211,16.22046,16.22046,0,0,0-12.43089.00067,15.7976,15.7976,0,0,0-9.64537,14.61516,10.90138,10.90138,0,0,0,1.43378,5.61817,16.54512,16.54512,0,0,0,3.47625,4.12728,27.65707,27.65707,0,0,0,4.60758,3.186c1.65413.9198,3.33378,1.78785,4.9463,2.55512q2.26149,1.18821,4.36579,2.31862a23.49459,23.49459,0,0,1,3.522,2.29443,10.06725,10.06725,0,0,1,2.28569,2.51614,5.14666,5.14666,0,0,1,.766,2.78692,9.30174,9.30174,0,0,1-.75251,3.72349,9.42567,9.42567,0,0,1-5.06588,5.06724,9.58707,9.58707,0,0,1-10.47982-2.03172,9.74042,9.74042,0,0,1-2.03442-3.03484,9.3154,9.3154,0,0,1-.75114-3.72417v-1.376h-6.3196v1.376a15.79738,15.79738,0,0,0,9.644,14.61516,16.11555,16.11555,0,0,0,12.43493,0,15.80127,15.80127,0,0,0,9.644-14.61516,10.89657,10.89657,0,0,0-1.43512-5.61549,17.465,17.465,0,0,0-3.46013-4.1676,25.9272,25.9272,0,0,0-4.62516-3.25722c-1.62594-.90165-3.26125-1.765-4.86029-2.56586l-.02552-.0121c-1.49155-.71084-2.94412-1.44653-4.31745-2.1856a26.12428,26.12428,0,0,1-3.59315-2.30857,9.58782,9.58782,0,0,1-2.32063-2.50406,5.11051,5.11051,0,0,1-.766-2.78624,9.326,9.326,0,0,1,.75114-3.7235,9.53694,9.53694,0,0,1,17.58012-.00134,9.32913,9.32913,0,0,1,.75251,3.72484v1.376h6.3196V50.74224a15.67734,15.67734,0,0,0-1.24834-6.21612A15.94508,15.94508,0,0,0,425.42528,39.49852Z"/><polygon class="cls-3" points="116.882 99.015 116.325 97.902 115.322 95.9 114.084 93.428 108.303 81.894 107.674 80.635 107.21 79.711 106.765 78.819 106.116 77.529 92.784 50.916 88.183 59.326 87.559 60.469 87.602 60.555 87.991 61.334 88.393 62.134 92.699 70.729 93.234 71.797 93.677 72.683 93.769 72.865 93.937 73.201 100.688 86.677 101.005 87.309 101.223 87.745 101.45 88.196 101.758 88.813 104.587 94.457 105.193 95.666 105.683 96.647 105.955 97.191 107.228 99.73 108.825 102.918 111.123 107.506 112.151 107.506 112.867 107.506 117.242 107.506 117.86 107.506 121.135 107.506 119.481 104.203 116.882 99.015"/><polygon class="cls-3" points="90.883 47.121 89.79 44.938 83.765 32.911 83.19 34.062 82.57 35.301 82.431 35.578 82.091 36.26 79.767 40.906 78.554 43.333 86.065 57.829 86.235 57.617 86.491 57.969 91.622 48.593 90.883 47.121"/><polygon class="cls-3" points="86.065 57.829 86.062 57.832 86.314 58.335 86.491 57.969 86.235 57.617 86.065 57.829"/><path class="cls-4" d="M12.30823,64.33388a2.75447,2.75447,0,0,1-.01-.43128,2.92574,2.92574,0,0,1,.19184-.8043L4.89236,59.57548a25.07367,25.07367,0,0,0-2.35773,6.54111L9.88,64.77774Z"/><path class="cls-5" d="M11.27953,87.05128,2.76159,76.39215l-.30267-.38058a24.96748,24.96748,0,0,0,2.35517,6.80318l1.044.68348Z"/><path class="cls-6" d="M5.52264,84.08305a25.326,25.326,0,0,0,5.8199,6.7177l.32277-.65048.764-1.53834Z"/><polygon class="cls-7" points="89.982 70.731 86.191 63.162 82.384 70.731 89.982 70.731"/><polygon class="cls-8" points="86.491 57.969 86.491 57.969 86.452 58.042 86.491 57.969"/><path class="cls-9" d="M140.23768,73.85806,136.9948,56.50044a2.90332,2.90332,0,0,1-2.16847-.64166l-1.9544,2.36,4.35991,9.46382,2.85943,6.20563C140.13931,73.87824,140.18736,73.86812,140.23768,73.85806Z"/><path class="cls-10" d="M79.19669,11.81727l6.7632-7.93279c-.328-.14254-.64554-.2649-.96084-.37567L81.47653,8.55194Z"/><path class="cls-11" d="M68.34633,106.93425l.85469-1.20308,2.2973-3.23a3.034,3.034,0,0,1-.84978-1.26859l-4.10426.91134-1.86139,3.5997Z"/><path class="cls-12" d="M125.85182,19.43514l2.37045-.07563,3.87552-.12346a10.01585,10.01585,0,0,0-.51174-1.84335l-5.74939,1.97561C125.83919,19.39226,125.84924,19.41236,125.85182,19.43514Z"/><path class="cls-13" d="M33.86834,19.5436A25.05646,25.05646,0,0,0,24.56847,24.95l14.43135-6.51862Z"/><path class="cls-14" d="M132.51892,21.18015l1.91158.35036a2.69285,2.69285,0,0,1,2.63737-1.5142,2.84326,2.84326,0,0,1,.376.06947l.088-.16651c-.17892-.06045-.35785-.11724-.5394-.16631l-10.44212.33547Z"/><path class="cls-15" d="M68.15471,8.07526l7.84223-4.723A14.6468,14.6468,0,0,0,71.463,5.637a.33618.33618,0,0,1-.25976.06294,24.37653,24.37653,0,0,0-4.87672-.34156l-.15126,1.41317A3.01378,3.01378,0,0,1,68.15471,8.07526Z"/><path class="cls-16" d="M44.66323,92.61888c.12369.6052.26982,1.20271.43121,1.78525l6.75548-2.89362.3662-.73248Z"/><path class="cls-17" d="M78.83628,25.395l1.09429-1.22163a3.0163,3.0163,0,0,1-.76667-2.26194,3.05542,3.05542,0,0,1,.32278-1.13456l-1.7876-1.18523-.81465-.53705a2.19034,2.19034,0,0,1-1.8961.827c-.03793-.00256-.07329-.01526-.10842-.01908l-1.503,9.87972a3.01176,3.01176,0,0,1,1.02891.6014Z"/><path class="cls-18" d="M67.542,12.08973a2.998,2.998,0,0,1-.92314.517l2.16355,6.98856,3.10429,10.031a2.93762,2.93762,0,0,1,.76146-.0454c.02274.00131.04549.01.06828.01261l1.5103-9.92133a2.18753,2.18753,0,0,1-1.24563-2.1483,2.15461,2.15461,0,0,1,.338-.98351Z"/><path class="cls-19" d="M140.969,89.75188l-.04548-4.52647-.05552-5.39352c-.08833,0-.174.01239-.26469.00491a2.84131,2.84131,0,0,1-.464-.08576l-6.11993,11.65239-3.2,6.08977,7.71624-3.76218a3.02163,3.02163,0,0,1,2.4334-3.97911Z"/><path class="cls-20" d="M121.14638,35.91506c-.02009.014-.0377.02919-.05781.04189l7.24209,13.67084,4.20608,7.93673,1.81291-2.1899a3.00218,3.00218,0,0,1,.31272-4.1077Z"/><path class="cls-21" d="M103.8936,99.48786l-1.82325,15.2204a16.49661,16.49661,0,0,0,1.62155.49421.33335.33335,0,0,1,.23937.21949c.13373.40077.29255.81185.47668,1.23814l1.89113-7.29505,1.01126-3.89827L104.26713,99.421A2.97435,2.97435,0,0,1,103.8936,99.48786Z"/><path class="cls-22" d="M161.026,92.42732l.53192-.83974.47668-.754a17.34059,17.34059,0,0,0-.6303-1.7804Z"/><path class="cls-23" d="M114.01786,21.84837a3.01489,3.01489,0,0,1-1.30629-.4312l-4.77329,6.25364L105.99649,30.215a3.02994,3.02994,0,0,1,.928,2.02235l8.94921.53574.66337.03924a3.03059,3.03059,0,0,1,1.51287-2.08785l-.84464-2.42075-2.27463-6.53623A2.96551,2.96551,0,0,1,114.01786,21.84837Z"/><path class="cls-24" d="M122.38973,96.26765a3.03994,3.03994,0,0,1-1.4197,1.50282l.80173,2.18138,8.52315,23.214-.58254-24.66639Z"/><path class="cls-25" d="M103.21525,99.47a3.0377,3.0377,0,0,1-2.48633-2.06262l-12.2375,1.43233L76.534,100.23928c0,.08568.01012.16887.00491.25709a3.02459,3.02459,0,0,1-1.132,2.11559l5.9157,9.34269a26.9828,26.9828,0,0,0,10.11655-7.37592.325.325,0,0,1,.2825-.11591.13131.13131,0,0,1,.0328.00257.33714.33714,0,0,1,.2571.21685,16.69308,16.69308,0,0,0,9.40571,9.77369l.98843-8.23287Z"/><path class="cls-26" d="M124.45983,96.19459l5.41392,1.65152,2.11067-4.01931,7.512-14.30272a3.12864,3.12864,0,0,1-.42864-.2698L135.9157,81.887,122.13482,93.4057a3.00463,3.00463,0,0,1,.50691,1.90893c-.01006.10586-.0377.20423-.05789.30752Z"/><path class="cls-27" d="M47.07387,64.4676a2.69842,2.69842,0,0,1-.29483.24194l9.52309,17.89585,3.72756-7.45578Z"/><path class="cls-28" d="M45.28605,95.05973a26.76508,26.76508,0,0,0,2.2115,5.15615l3.8851-7.77071Z"/><path class="cls-29" d="M155.11264,109.53393a16.61757,16.61757,0,0,0,6.91446-9.26186l-1.54076-5.34585Z"/><path class="cls-30" d="M55.40026,82.34577l-9.209-17.30083a2.96292,2.96292,0,0,1-1.43716.2497,2.68437,2.68437,0,0,1-.43384-.07819l-14.26476,30.267,9.18363-2.23662a25.09642,25.09642,0,0,0,4.481-3.16211.33777.33777,0,0,1,.55723.21435c.06044.50917.14386,1.054.25462,1.65665l3.12178-.75911,4.9578-1.20961,3.32049-6.6415Z"/><polygon class="cls-31" points="158.297 67.213 163.245 64.48 161.873 63.123 159.218 64.962 146.84 73.538 158.297 67.213"/><path class="cls-32" d="M138.16737,75.39881a3.03748,3.03748,0,0,1,1.29359-1.27093l-7.1765-15.57105-20.07973,4.51748a2.98741,2.98741,0,0,1-.33284,1.09817l12.535,5.351Z"/><path class="cls-33" d="M73.26838,103.27536a3.0369,3.0369,0,0,1-1.22288-.37832l-1.34144,1.88855-1.79045,2.51919,5.941,6.43515a27.078,27.078,0,0,0,5.82994-1.52806l-5.85012-9.24432A2.9851,2.9851,0,0,1,73.26838,103.27536Z"/><path class="cls-34" d="M66.8686,110.73179l-1.58366,2.69028a26.9181,26.9181,0,0,0,8.75524.42892l-5.50224-5.95619Z"/><path class="cls-35" d="M61.69771,110.03592l1.73148,2.91233q.57858.17012,1.16735.31508l3.379-5.74169L64.69492,106.455l-.32514-.10586-1.90638,3.68677Z"/><path class="cls-36" d="M42.071,63.01386,18.34269,64.286c-.00257.03514.00491.07049.00235.10594a3.01708,3.01708,0,0,1-1.38685,2.29215L27.71041,91.18391l1.75,3.98168,14.217-30.171A3.02628,3.02628,0,0,1,42.071,63.01386Z"/><path class="cls-37" d="M120.83139,19.9043l-3.62609-.40859a3.01817,3.01817,0,0,1-1.63911,2.05254l2.75614,7.91786.353,1.00861a2.97322,2.97322,0,0,1,1.07154-.116c.03544.00265.06559.015.09838.01761l2.51919-8.30858A2.52,2.52,0,0,1,120.83139,19.9043Z"/><path class="cls-38" d="M71.38733,98.11107a3.02511,3.02511,0,0,1,.91279-.62311l-1.258-4.04278L69.4393,96.5451Z"/><path class="cls-39" d="M85.45313,30.81746l-1.65687-3.95093-.75911-1.807a2.944,2.944,0,0,1-2.60231-.44l-5.13142,5.7341-.44366.49679a3.00713,3.00713,0,0,1,.5647,1.99732,2.96154,2.96154,0,0,1-.30516,1.08681l1.18261.64555,3.15185,1.71843,4.37127-8.7433Z"/><path class="cls-40" d="M98.906,36.00984l2.45846-1.9896a2.90347,2.90347,0,0,1-.31764-2.60121L90.64,26.51451l-5.88545-2.7724a3.01258,3.01258,0,0,1-1.09437,1.06148l6.3725,15.18966,1.13572,2.27558Z"/><path class="cls-41" d="M143.35431,75.13135l9.78894-6.78044,8.04645-5.578-21.63786-8.25457a3.03755,3.03755,0,0,1-1.89374,1.85215l3.25278,17.42195c.063.00257.121-.00747.18406-.00256A3.01493,3.01493,0,0,1,143.35431,75.13135Z"/><path class="cls-42" d="M118.36,92.32625,109.62512,65.746c-.00747,0-.01493.00491-.025.00491l.31578,14.08122,6.97351,13.97256A3.05247,3.05247,0,0,1,118.36,92.32625Z"/><path class="cls-43" d="M66.15,50.38925l-.21178-6.56117c-.09574.00125-.18926.01262-.28507.00513a2.98027,2.98027,0,0,1-1.21273-.37075L47.53794,60.63727a2.95313,2.95313,0,0,1-.03023,3.31572l4.67754,3.85565L60.33948,74.53l6.19159-12.384Z"/><path class="cls-44" d="M160.05251,94.15706l-15.67691-.90275a3.02367,3.02367,0,0,1-2.08792,2.38538l2.31746,11.05748,3.16468,15.10449a16.66355,16.66355,0,0,0,4.81878-10.71949.33451.33451,0,0,1,.19674-.28508l.10586-.04518c.15134-.07071.30494-.14122.45629-.21428.28507-.13895.56754-.28771.8423-.44647l1.117-3.03842Z"/><path class="cls-45" d="M164.69235,71.8179a.33592.33592,0,0,1,.00492-.30239,8.47062,8.47062,0,0,0,.34544-7.06573l-.71343.26981-.21433.08321-1.967,17.56831a8.60212,8.60212,0,0,0,3.34616-7.82463A8.42246,8.42246,0,0,0,164.69235,71.8179Z"/><path class="cls-46" d="M141.158,95.766a3.02844,3.02844,0,0,1-2.3273-1.43l-3.099,1.51053-5.19972,2.53673,3.05372,4.71805,12.87528,19.8879c.25228-.2068.49678-.41859.73389-.63778L141.622,95.75818A3.1841,3.1841,0,0,1,141.158,95.766Z"/><path class="cls-47" d="M71.48386,92.59108l1.46175,4.69524a2.95953,2.95953,0,0,1,3.50978,2.28013l.00041.002,21.0529-2.4636,3.09162-.363a2.85813,2.85813,0,0,1-.01-.51208,3.07377,3.07377,0,0,1,.10094-.55465L86.16767,89.35313H73.15812Z"/><path class="cls-48" d="M73.08947,45.85916l-4.93241-3.04361a3.0342,3.0342,0,0,1-1.54823.9293l.39351,12.12526.163,5.00707,7.13483-14.27084Z"/><path class="cls-49" d="M106.52114,64.16236a3.00381,3.00381,0,0,1-.348-1.65665c0-.00747.00513-.01394.00513-.02142L99.9387,59.84148l2.92062,5.85187Z"/><path class="cls-50" d="M125.708,20.619a2.52535,2.52535,0,0,1-2.56952,1.65181c-.04285-.00389-.08055-.01659-.12339-.02274l-2.50907,8.28484a3.0101,3.0101,0,0,1,1.24562.82961l7.26226-4.61967,5.24512-3.33612a2.6587,2.6587,0,0,1-.0961-.92028,2.581,2.581,0,0,1,.05554-.31038Z"/><path class="cls-51" d="M160.89224,93.89986l1.46248,5.07339a16.58687,16.58687,0,0,0-.08569-7.24964Z"/><path class="cls-52" d="M163.3961,65.171,143.76027,76.009a3.02516,3.02516,0,0,1,.111,1.05144,2.993,2.993,0,0,1-.51431,1.43486L154.81517,88.443l5.44679,4.73073.227-2.02747.36561-3.26048a16.72253,16.72253,0,0,0-2.31747-3.40428.3368.3368,0,0,1,.18669-.55209,8.46725,8.46725,0,0,0,2.69057-1.05922l.97838-8.75Z"/><path class="cls-53" d="M117.27835,18.825l3.60336.40589a2.52178,2.52178,0,0,1,1.86843-1.92521l-.77408-6.62063a9.82084,9.82084,0,0,0-5.86765-3.59954.3545.3545,0,0,1-.11619-.04674c-.14877-.09323-.30238-.18383-.45629-.26855l-.70623,9.09173A3.01522,3.01522,0,0,1,117.27835,18.825Z"/><path class="cls-54" d="M120.3346,98a2.65514,2.65514,0,0,1-1.33622.03029l5.099,10.2167Z"/><path class="cls-55" d="M112.4518,16.40914a3.00857,3.00857,0,0,1,1.70476-.60014l.338-4.332.39071-5.03312a9.75107,9.75107,0,0,0-5.28025-.85491c-.00258,0-.15618.0253-.164.02787a.32193.32193,0,0,1-.22433-.05062A9.89883,9.89883,0,0,0,102.76878,4.081a9.74827,9.74827,0,0,0-1.596.33048L105.056,8.54182Z"/><path class="cls-56" d="M123.54961,17.23127a2.52078,2.52078,0,0,1,2.09049,1.49042l2.4055-.826,3.27309-1.12459a9.77774,9.77774,0,0,0-8.61629-5.68637l.71861,6.14909C123.46385,17.23515,123.50677,17.22737,123.54961,17.23127Z"/><path class="cls-57" d="M83.64991,19.50816a3.03749,3.03749,0,0,1,1.48522,2.00347l6.80339-.70724,19.30565-2.00474c0-.07307-.01012-.14489-.00521-.21927a3.014,3.014,0,0,1,.71863-1.71475L100.36587,4.53748a14.61956,14.61956,0,0,0-8.76016-1.71223c-.35557.04161-.72611.101-1.0995.17151L84.22759,18.11641Z"/><path class="cls-58" d="M77.34842,17.87682a2.23478,2.23478,0,0,1-.13868.58511l2.65285,1.755a3.02147,3.02147,0,0,1,2.567-1.08189,3.10021,3.10021,0,0,1,.60008.11107L88.26467,6.638l1.43724-3.4598A14.587,14.587,0,0,0,86.93306,4.1858a.34692.34692,0,0,1-.2949,0,.33861.33861,0,0,0-.03279-.01526l-10.0765,11.8151A2.19685,2.19685,0,0,1,77.34842,17.87682Z"/><path class="cls-59" d="M164.12507,63.99584l.57477-.32022a8.06448,8.06448,0,0,0-.61276-.9959l.00521.18413Z"/><path class="cls-60" d="M139.7282,53.38249a2.67264,2.67264,0,0,1,.00778.35036c-.00255.04292-.01782.08341-.02274.125l.39071.14869,21.5397,8.21665.03281-.20782.24707-1.54339a.34118.34118,0,0,1-.06793-.23313,8.52184,8.52184,0,0,0-1.682-7.00893l-20.14274.15Z"/><path class="cls-61" d="M68.65906,9.98427a3.02231,3.02231,0,0,1-.63807,1.62386l5.7341,4.41778a2.18414,2.18414,0,0,1,1.58623-.50947,2.1568,2.1568,0,0,1,.39841.07336l8.58619-12.293a14.61376,14.61376,0,0,0-5.78484-.48028c-.12081.01394-.237.034-.35292.05165l-.10072.01518-9.62262,5.792A2.9918,2.9918,0,0,1,68.65906,9.98427Z"/><path class="cls-62" d="M163.41629,62.70246l-.02251-.88514a9.13662,9.13662,0,0,0-.87245-.8258l-.25228,1.57588,1.17257,1.16119Z"/><path class="cls-63" d="M157.38983,45.40418a12.69215,12.69215,0,0,0-5.73934-6.72153.34564.34564,0,0,1-.174-.2861c-.00747-.3783-.03278-.76044-.078-1.14233a12.566,12.566,0,0,0-7.21942-9.9919.3375.3375,0,0,1-.1867-.22954,9.86853,9.86853,0,0,0-.5069-1.57589l-.06038-.0253-4.10279-1.68952a2.65145,2.65145,0,0,1-.36819.64556l7.31511,8.34157Z"/><path class="cls-64" d="M137.02268,44.62878l.00747,5.85136a3.0251,3.0251,0,0,1,2.60232,2.22914L159.5836,52.559a8.364,8.364,0,0,0-1.35927-1.1408.34349.34349,0,0,1-.14868-.31791,12.75527,12.75527,0,0,0-.00747-2.8419c-.05061-.41983-.12632-.85238-.22961-1.3187l-1.46768-1.67455-17.9084-20.41609a2.67827,2.67827,0,0,1-1.46512.53447Z"/><path class="cls-65" d="M47.10666,60.11386,63.888,43.064a2.99285,2.99285,0,0,1-.41337-4.05987L43.85886,19.68477a3.0236,3.0236,0,0,1-1.27094.64291L44.13131,42.209,45.334,59.26792A2.996,2.996,0,0,1,47.10666,60.11386Z"/><path class="cls-66" d="M141.64726,89.72658a3.02352,3.02352,0,0,1,2.76884,2.85459l15.14218.87224L147.752,83.20311l-4.83146-4.19345a2.9921,2.9921,0,0,1-1.37913.74136l.10071,9.97556Z"/><path class="cls-67" d="M13.71554,77.29l1.08167-10.16974a3.02229,3.02229,0,0,1-2.37792-2.12073L2.396,66.82769a25.09477,25.09477,0,0,0-.227,7.34794c.01261.11854.03278.2371.04775.353l.0204.12625L12.616,87.64356Z"/><path class="cls-68" d="M120.68291,125.55627c-.18061-.01254-.36159-.01518-.5425-.02861A4.548,4.548,0,0,0,120.68291,125.55627Z"/><path class="cls-69" d="M12.795,62.4969a2.97393,2.97393,0,0,1,3.81023-1.0868L40.2354,19.92315a3.04269,3.04269,0,0,1-.90039-.90275L31.81555,22.417l-8.619,3.892a25.24952,25.24952,0,0,0-5.93066,10.68157.33816.33816,0,0,1-.1286.18926A25.2664,25.2664,0,0,0,6.56918,56.72867a.28273.28273,0,0,1-.06066.17891c-.4488.64812-.88235,1.34407-1.2911,2.07531l7.222,3.34871Z"/><path class="cls-70" d="M13.01937,88.93468l-.16373.333-.9708,1.95677a25.05386,25.05386,0,0,0,12.09361,4.94732l.48908-.048,3.68912-.35792-5.2273-2.35767Z"/><path class="cls-71" d="M66.1425,37.78739a3.00844,3.00844,0,0,1,1.70213.70754l2.69291-3.504a3.02514,3.02514,0,0,1-1.1573-2.63249,3.07248,3.07248,0,0,1,.11334-.614L44.42615,19.014c-.03764.0581-.07307.1162-.11334.17144L63.93089,38.5063A3.01625,3.01625,0,0,1,66.1425,37.78739Z"/><path class="cls-72" d="M62.46343,112.64564l-1.55065-2.60972H56.90829A27.03563,27.03563,0,0,0,62.46343,112.64564Z"/><path class="cls-73" d="M74.75881,34.5068a2.989,2.989,0,0,1-3.64137.8335L68.311,38.9953a3.00434,3.00434,0,0,1,.61012,2.06034l7.88015.54822,2.3507-4.70169Z"/><path class="cls-74" d="M70.50241,100.57466a2.853,2.853,0,0,1-.01035-.56984,3.00244,3.00244,0,0,1,.47177-1.3693l-1.84055-1.47913-2.17649,4.20908Z"/><path class="cls-75" d="M42.12394,14.36919a3.01078,3.01078,0,0,1,1.58879.61532L47.031,11.15294a24.13285,24.13285,0,0,0-6.28884,2.75877l.27472.58A2.97113,2.97113,0,0,1,42.12394,14.36919Z"/><path class="cls-76" d="M44.67328,16.24775l8.86346-2.77867,9.1965-2.88474a2.95782,2.95782,0,0,1-.11842-1.08945A3.02376,3.02376,0,0,1,65.50188,6.725l.14121-1.3352c-.45621.02765-.92541.06794-1.39175.12346A24.32115,24.32115,0,0,0,52.45766,10.23a.31536.31536,0,0,1-.18149.0669c-.5146.02765-1.02386.06536-1.53818.126a25.10842,25.10842,0,0,0-2.56716.44389l-3.969,4.58175A2.99231,2.99231,0,0,1,44.67328,16.24775Z"/><path class="cls-77" d="M16.35806,66.98908a2.99922,2.99922,0,0,1-.88749.174l-.39607,3.72448-1.84833,17.3992,5.366,2.42311,10.195,4.59958L19.06623,73.16219Z"/><polygon class="cls-78" points="108.957 67.13 107.652 75.296 109.21 78.418 108.957 67.13"/><path class="cls-79" d="M108.92671,59.73686a2.94341,2.94341,0,0,1,.51432-.01,2.98129,2.98129,0,0,1,.60785.11356l7.18662-21.411.8043-2.39676a3.02711,3.02711,0,0,1-1.55571-2.547l-9.60247-.57476A3.02364,3.02364,0,0,1,104.74828,35.3l.79448,4.64732Z"/><path class="cls-80" d="M101.33912,30.8102a3.0186,3.0186,0,0,1,2.81424-1.43724,2.94737,2.94737,0,0,1,1.30608.431l6.71507-8.80044a3.01609,3.01609,0,0,1-.85985-1.533l-26.1114,2.71076a2.16893,2.16893,0,0,1,.00521.22051,2.91891,2.91891,0,0,1-.16139.73029Z"/><path class="cls-81" d="M44.65576,59.26275,41.91714,20.40988c-.09324.00125-.18648.01365-.28228.00617a2.96993,2.96993,0,0,1-.79682-.189L17.18253,61.75789a3.0385,3.0385,0,0,1,1.11219,1.85479l18.02458-.96576,5.66341-.30392c-.00235-.10455-.01493-.20812-.00747-.3153A3.03452,3.03452,0,0,1,44.65576,59.26275Z"/><path class="cls-82" d="M106.31926,61.81211a3.033,3.033,0,0,1,.36328-.73125l-.33049-.37053L92.82045,45.579l6.6547,13.33363Z"/><path class="cls-83" d="M106.80341,60.20607l.31522.35292a3.01434,3.01434,0,0,1,1.145-.69352l-4.1833-24.45593a2.82424,2.82424,0,0,1-.41624.00771,2.99763,2.99763,0,0,1-1.87365-.8751L91.47784,42.88887l.19949.39987Z"/><path class="cls-84" d="M62.98787,11.21229,44.86256,16.89587a3.0425,3.0425,0,0,1,.04027.74386,3.09053,3.09053,0,0,1-.17658.768L69.76339,31.12292a3.03906,3.03906,0,0,1,1.4778-1.30629l-2.00228-6.468L65.95836,12.75281a2.93022,2.93022,0,0,1-.56727.01137A3.02848,3.02848,0,0,1,62.98787,11.21229Z"/><path class="cls-85" d="M134.5136,24.04348l-12.36353,7.86489a2.997,2.997,0,0,1-.48417,3.57681l8.73486,9.92,4.80384,5.45684a3.025,3.025,0,0,1,1.15245-.38447l-.03279-25.14431A2.689,2.689,0,0,1,134.5136,24.04348Z"/><path class="cls-86" d="M68.785,41.72255a3.08547,3.08547,0,0,1-.23189.542l6.05059,3.73475,1.8708-3.74186Z"/><path class="cls-87" d="M119.25521,36.40568a3.08088,3.08088,0,0,1-.59259-.10843l-2.988,8.90762L110.67166,60.109a3.03867,3.03867,0,0,1,1.5356,2.27432l19.76444-4.44794-4.94215-9.32752-6.54886-12.35729A3.006,3.006,0,0,1,119.25521,36.40568Z"/><path class="cls-88" d="M87.85547,89.35318l12.90368,5.616.18148.078a3.04168,3.04168,0,0,1,.69434-.85528l-2.43553-4.83865Z"/><path class="cls-89" d="M108.503,65.69049a3.01585,3.01585,0,0,1-1.59606-.95821l-3.74583,1.56584,3.97265,7.95975Z"/><path class="cls-90" d="M119.00065,92.11711a2.96624,2.96624,0,0,1,.86241-.06815,2.99762,2.99762,0,0,1,1.83821.83973l10.22506-8.54588,6.63448-5.54486a3.02553,3.02553,0,0,1-.73389-2.22914,2.91191,2.91191,0,0,1,.09845-.5397L111.476,64.73485a3.02259,3.02259,0,0,1-1.19787.83452l6.05459,18.428Z"/><path class="cls-91" d="M49.33844,103.09357a27.00019,27.00019,0,0,0,2.91239,3.33869l4.2892-2.43339-2.58471-.325Z"/><polygon class="cls-92" points="62.774 104.546 63.035 104.026 63.625 102.854 63.959 102.19 67.303 95.541 67.569 95.013 70.155 89.871 70.53 89.127 70.617 88.953 71.154 87.886 71.69 86.819 71.695 86.819 72.886 86.819 74.081 86.819 74.41 86.819 75.037 86.819 76.485 86.819 93.985 86.819 98.019 86.819 98.347 86.819 92.076 74.298 91.908 73.963 91.429 73.006 91.1 73.006 81.357 73.006 81.029 73.006 79.832 73.006 78.645 73.006 78.638 73.006 79.175 71.939 79.712 70.871 83.738 62.869 84.973 60.411 84.461 59.423 77.421 45.835 77.421 45.835 75.259 50.161 75.103 50.47 73.738 53.201 73.62 53.438 66.379 67.921 64.903 70.871 64.369 71.939 63.836 73.006 61.562 77.553 61.361 77.956 61.361 77.956 61.015 78.647 58.325 84.026 58.089 84.502 57.326 86.025 56.929 86.819 56.396 87.886 55.863 88.953 54.776 91.126 54.417 91.841 54.078 92.519 54.058 92.56 53.205 94.269 50.77 99.136 46.515 107.646 57.861 107.646 61.213 107.646 61.694 106.693 62.002 106.08 62.774 104.546"/><path class="cls-93" d="M127.32441,122.16676a3.03088,3.03088,0,0,1,.83509.12989l-8.89126-12.26073h-1.99742l7.23424,13.997A3.06264,3.06264,0,0,1,127.32441,122.16676Z"/><polygon class="cls-94" points="127.977 118.814 124.755 110.036 120.103 110.036 129.523 123.024 127.977 118.814"/><path class="cls-95" d="M116.51054,110.03592h-6.90035l-1.84-3.65529L104.8567,117.618a16.813,16.813,0,0,0,3.712,4.88551c3.68348.70273,7.19029,2.07939,10.89723,2.87051.22971.049,1.2373.16428,1.217.18223.31051.0216.62058.04988.93288.04927.25455.00018.50879-.01.76284-.02579l.08523-.01589c.47009-.14482.946-.28616,1.41706-.428.12852-.03868.255-.07041.38129-.102Z"/><polygon class="cls-96" points="131.008 124.883 141.557 125.763 139.446 125.587 131.008 124.883"/><path class="cls-97" d="M133.95636,104.91677l-3.54812-5.48192.60033,25.448,8.43722.70367,2.11057.17634a16.53625,16.53625,0,0,0,4.37-2.35514Z"/></svg>