<svg id="Layer_1" data-name="Layer 1" xmlns="http://www.w3.org/2000/svg" xmlns:xlink="http://www.w3.org/1999/xlink" viewBox="0 0 384.27489 116.90347"><defs><style>.cls-1{fill:none;}.cls-2{fill:#53575a;}.cls-3{fill:#5c0f8b;}.cls-4{fill:url(#linear-gradient);}.cls-5{fill:url(#linear-gradient-2);}.cls-6{fill:url(#linear-gradient-3);}.cls-7{fill:url(#linear-gradient-4);}.cls-8{fill:url(#linear-gradient-5);}.cls-9{fill:url(#linear-gradient-6);}.cls-10{fill:url(#linear-gradient-7);}.cls-11{fill:url(#linear-gradient-8);}.cls-12{fill:url(#linear-gradient-9);}.cls-13{fill:url(#linear-gradient-10);}.cls-14{fill:url(#linear-gradient-11);}.cls-15{fill:url(#linear-gradient-12);}.cls-16{fill:url(#linear-gradient-13);}.cls-17{fill:url(#linear-gradient-14);}.cls-18{fill:url(#linear-gradient-15);}.cls-19{fill:url(#linear-gradient-16);}.cls-20{fill:url(#linear-gradient-17);}.cls-21{fill:url(#linear-gradient-18);}.cls-22{fill:url(#linear-gradient-19);}.cls-23{fill:url(#linear-gradient-20);}.cls-24{fill:url(#linear-gradient-21);}.cls-25{fill:url(#linear-gradient-22);}.cls-26{fill:url(#linear-gradient-23);}.cls-27{fill:url(#linear-gradient-24);}.cls-28{fill:url(#linear-gradient-25);}.cls-29{fill:url(#linear-gradient-26);}.cls-30{fill:url(#linear-gradient-27);}.cls-31{fill:url(#linear-gradient-28);}.cls-32{fill:url(#linear-gradient-29);}.cls-33{fill:url(#linear-gradient-30);}.cls-34{fill:url(#linear-gradient-31);}.cls-35{fill:url(#linear-gradient-32);}.cls-36{fill:url(#linear-gradient-33);}.cls-37{fill:url(#linear-gradient-34);}.cls-38{fill:url(#linear-gradient-35);}.cls-39{fill:url(#linear-gradient-36);}.cls-40{fill:url(#linear-gradient-37);}.cls-41{fill:url(#linear-gradient-38);}.cls-42{fill:url(#linear-gradient-39);}.cls-43{fill:url(#linear-gradient-40);}.cls-44{fill:url(#linear-gradient-41);}.cls-45{fill:url(#linear-gradient-42);}.cls-46{fill:url(#linear-gradient-43);}.cls-47{fill:url(#linear-gradient-44);}.cls-48{fill:url(#linear-gradient-45);}.cls-49{fill:url(#linear-gradient-46);}.cls-50{fill:url(#linear-gradient-47);}.cls-51{fill:url(#linear-gradient-48);}.cls-52{fill:url(#linear-gradient-49);}.cls-53{fill:url(#linear-gradient-50);}.cls-54{fill:url(#linear-gradient-51);}.cls-55{fill:url(#linear-gradient-52);}.cls-56{fill:url(#linear-gradient-53);}.cls-57{fill:url(#linear-gradient-54);}.cls-58{fill:url(#linear-gradient-55);}.cls-59{fill:url(#linear-gradient-56);}.cls-60{fill:url(#linear-gradient-57);}.cls-61{fill:url(#linear-gradient-58);}.cls-62{fill:url(#linear-gradient-59);}.cls-63{fill:url(#linear-gradient-60);}.cls-64{fill:url(#linear-gradient-61);}.cls-65{fill:url(#linear-gradient-62);}.cls-66{fill:url(#linear-gradient-63);}.cls-67{fill:url(#linear-gradient-64);}.cls-68{fill:url(#linear-gradient-65);}.cls-69{fill:url(#linear-gradient-66);}.cls-70{fill:url(#linear-gradient-67);}.cls-71{fill:url(#linear-gradient-68);}.cls-72{fill:url(#linear-gradient-69);}.cls-73{fill:url(#linear-gradient-70);}.cls-74{fill:url(#linear-gradient-71);}.cls-75{fill:url(#linear-gradient-72);}.cls-76{fill:url(#linear-gradient-73);}.cls-77{fill:url(#linear-gradient-74);}.cls-78{fill:url(#linear-gradient-75);}.cls-79{fill:url(#linear-gradient-76);}.cls-80{fill:url(#linear-gradient-77);}.cls-81{fill:url(#linear-gradient-78);}.cls-82{fill:url(#linear-gradient-79);}.cls-83{fill:url(#linear-gradient-80);}.cls-84{fill:url(#linear-gradient-81);}.cls-85{fill:url(#linear-gradient-82);}.cls-86{fill:url(#linear-gradient-83);}.cls-87{fill:url(#linear-gradient-84);}.cls-88{fill:url(#linear-gradient-85);}.cls-89{fill:url(#linear-gradient-86);}.cls-90{fill:url(#linear-gradient-87);}.cls-91{fill:url(#linear-gradient-88);}.cls-92{fill:url(#linear-gradient-89);}.cls-93{fill:url(#linear-gradient-90);}.cls-94{fill:url(#linear-gradient-91);}.cls-95{fill:url(#linear-gradient-92);}</style><linearGradient id="linear-gradient" x1="-0.75238" y1="53.24226" x2="128.78119" y2="101.17367" gradientTransform="matrix(1, 0, 0, -1, 0, 113.23544)" gradientUnits="userSpaceOnUse"><stop offset="0" stop-color="#65318f"/><stop offset="0.1616" stop-color="#643491"/><stop offset="0.3342" stop-color="#613e95"/><stop offset="0.5118" stop-color="#5c4b9d"/><stop offset="0.6917" stop-color="#535da8"/><stop offset="0.8135" stop-color="#4969b1"/></linearGradient><linearGradient id="linear-gradient-2" x1="4.56159" y1="38.88127" x2="134.09516" y2="86.81268" xlink:href="#linear-gradient"/><linearGradient id="linear-gradient-3" x1="6.39234" y1="33.93377" x2="135.9259" y2="81.86509" xlink:href="#linear-gradient"/><linearGradient id="linear-gradient-4" x1="8.91804" y1="27.10799" x2="138.4516" y2="75.03931" xlink:href="#linear-gradient"/><linearGradient id="linear-gradient-5" x1="13.46692" y1="14.81477" x2="143.00048" y2="62.74609" xlink:href="#linear-gradient"/><linearGradient id="linear-gradient-6" x1="-8.36117" y1="73.80478" x2="121.17239" y2="121.7361" xlink:href="#linear-gradient"/><linearGradient id="linear-gradient-7" x1="17.32641" y1="4.38455" x2="146.85997" y2="52.31587" xlink:href="#linear-gradient"/><linearGradient id="linear-gradient-8" x1="-0.22136" y1="51.80705" x2="129.31219" y2="99.73846" xlink:href="#linear-gradient"/><linearGradient id="linear-gradient-9" x1="-9.77047" y1="77.61335" x2="119.76309" y2="125.54467" xlink:href="#linear-gradient"/><linearGradient id="linear-gradient-10" x1="0.32934" y1="50.31871" x2="129.86291" y2="98.25013" xlink:href="#linear-gradient"/><linearGradient id="linear-gradient-11" x1="-10.16396" y1="78.67677" x2="119.36961" y2="126.60818" xlink:href="#linear-gradient"/><linearGradient id="linear-gradient-12" x1="11.89096" y1="19.0739" x2="141.42442" y2="67.00531" xlink:href="#linear-gradient"/><linearGradient id="linear-gradient-13" x1="-4.21954" y1="62.61209" x2="125.31401" y2="110.54351" xlink:href="#linear-gradient"/><linearGradient id="linear-gradient-14" x1="-5.91165" y1="67.18492" x2="123.6219" y2="115.11624" xlink:href="#linear-gradient"/><linearGradient id="linear-gradient-15" x1="19.93379" y1="-2.66177" x2="149.46735" y2="45.26955" xlink:href="#linear-gradient"/><linearGradient id="linear-gradient-16" x1="7.276" y1="31.54576" x2="136.80946" y2="79.47717" xlink:href="#linear-gradient"/><linearGradient id="linear-gradient-17" x1="22.16788" y1="-8.69933" x2="151.70143" y2="39.23207" xlink:href="#linear-gradient"/><linearGradient id="linear-gradient-18" x1="23.19659" y1="-11.47956" x2="152.73016" y2="36.45186" xlink:href="#linear-gradient"/><linearGradient id="linear-gradient-19" x1="0.48086" y1="49.90945" x2="130.01443" y2="97.84087" xlink:href="#linear-gradient"/><linearGradient id="linear-gradient-20" x1="24.91701" y1="-16.12878" x2="154.45057" y2="31.80264" xlink:href="#linear-gradient"/><linearGradient id="linear-gradient-21" x1="20.35702" y1="-3.80543" x2="149.89048" y2="44.12598" xlink:href="#linear-gradient"/><linearGradient id="linear-gradient-22" x1="19.80229" y1="-2.30638" x2="149.33585" y2="45.62494" xlink:href="#linear-gradient"/><linearGradient id="linear-gradient-23" x1="6.9785" y1="32.34964" x2="136.51207" y2="80.28105" xlink:href="#linear-gradient"/><linearGradient id="linear-gradient-24" x1="13.14771" y1="15.67742" x2="142.68128" y2="63.60883" xlink:href="#linear-gradient"/><linearGradient id="linear-gradient-25" x1="26.09513" y1="-19.31269" x2="155.62867" y2="28.61863" xlink:href="#linear-gradient"/><linearGradient id="linear-gradient-26" x1="7.79458" y1="30.14425" x2="137.32812" y2="78.07556" xlink:href="#linear-gradient"/><linearGradient id="linear-gradient-27" x1="16.20421" y1="7.41741" x2="145.73768" y2="55.34883" xlink:href="#linear-gradient"/><linearGradient id="linear-gradient-28" x1="13.41873" y1="14.94507" x2="142.95229" y2="62.87648" xlink:href="#linear-gradient"/><linearGradient id="linear-gradient-29" x1="19.11318" y1="-0.44401" x2="148.64674" y2="47.48741" xlink:href="#linear-gradient"/><linearGradient id="linear-gradient-30" x1="19.50458" y1="-1.50184" x2="149.03814" y2="46.42948" xlink:href="#linear-gradient"/><linearGradient id="linear-gradient-31" x1="18.50568" y1="1.19776" x2="148.03925" y2="49.12909" xlink:href="#linear-gradient"/><linearGradient id="linear-gradient-32" x1="5.84771" y1="35.40547" x2="135.38128" y2="83.33689" xlink:href="#linear-gradient"/><linearGradient id="linear-gradient-33" x1="0.27113" y1="50.47628" x2="129.8046" y2="98.4076" xlink:href="#linear-gradient"/><linearGradient id="linear-gradient-34" x1="15.27081" y1="9.9397" x2="144.80438" y2="57.87111" xlink:href="#linear-gradient"/><linearGradient id="linear-gradient-35" x1="-2.18638" y1="57.11751" x2="127.34717" y2="105.04892" xlink:href="#linear-gradient"/><linearGradient id="linear-gradient-36" x1="-0.68339" y1="53.05561" x2="128.85016" y2="100.98702" xlink:href="#linear-gradient"/><linearGradient id="linear-gradient-37" x1="13.86636" y1="13.73525" x2="143.38178" y2="61.65984" xlink:href="#linear-gradient"/><linearGradient id="linear-gradient-38" x1="15.13522" y1="10.30624" x2="144.66879" y2="58.23766" xlink:href="#linear-gradient"/><linearGradient id="linear-gradient-39" x1="3.99486" y1="40.41286" x2="133.52841" y2="88.34418" xlink:href="#linear-gradient"/><linearGradient id="linear-gradient-40" x1="26.36448" y1="-20.04054" x2="155.89803" y2="27.89078" xlink:href="#linear-gradient"/><linearGradient id="linear-gradient-41" x1="18.5978" y1="0.94872" x2="148.13136" y2="48.88004" xlink:href="#linear-gradient"/><linearGradient id="linear-gradient-42" x1="26.32819" y1="-19.94246" x2="155.86176" y2="27.98895" xlink:href="#linear-gradient"/><linearGradient id="linear-gradient-43" x1="16.13728" y1="7.5981" x2="145.67085" y2="55.52951" xlink:href="#linear-gradient"/><linearGradient id="linear-gradient-44" x1="2.54998" y1="44.31764" x2="132.08352" y2="92.24895" xlink:href="#linear-gradient"/><linearGradient id="linear-gradient-45" x1="9.11115" y1="26.58615" x2="138.64472" y2="74.51757" xlink:href="#linear-gradient"/><linearGradient id="linear-gradient-46" x1="1.1147" y1="48.19654" x2="130.64824" y2="96.12785" xlink:href="#linear-gradient"/><linearGradient id="linear-gradient-47" x1="24.62707" y1="-15.34517" x2="154.16053" y2="32.58625" xlink:href="#linear-gradient"/><linearGradient id="linear-gradient-48" x1="20.01906" y1="-2.89219" x2="149.55263" y2="45.03922" xlink:href="#linear-gradient"/><linearGradient id="linear-gradient-49" x1="-3.1152" y1="59.6277" x2="126.41836" y2="107.55902" xlink:href="#linear-gradient"/><linearGradient id="linear-gradient-50" x1="22.58294" y1="-9.82089" x2="152.11641" y2="38.11043" xlink:href="#linear-gradient"/><linearGradient id="linear-gradient-51" x1="-5.02771" y1="64.7962" x2="124.50586" y2="112.72761" xlink:href="#linear-gradient"/><linearGradient id="linear-gradient-52" x1="-1.9599" y1="56.50535" x2="127.57366" y2="104.43677" xlink:href="#linear-gradient"/><linearGradient id="linear-gradient-53" x1="-5.50862" y1="66.0958" x2="124.02493" y2="114.02721" xlink:href="#linear-gradient"/><linearGradient id="linear-gradient-54" x1="-6.95369" y1="70.00107" x2="122.57987" y2="117.93248" xlink:href="#linear-gradient"/><linearGradient id="linear-gradient-55" x1="15.81957" y1="8.45693" x2="145.35304" y2="56.38834" xlink:href="#linear-gradient"/><linearGradient id="linear-gradient-56" x1="12.83761" y1="16.51542" x2="142.37116" y2="64.44683" xlink:href="#linear-gradient"/><linearGradient id="linear-gradient-57" x1="-8.47398" y1="74.10954" x2="121.05959" y2="122.04096" xlink:href="#linear-gradient"/><linearGradient id="linear-gradient-58" x1="15.43867" y1="9.48617" x2="144.97224" y2="57.41758" xlink:href="#linear-gradient"/><linearGradient id="linear-gradient-59" x1="6.08076" y1="34.77581" x2="135.61433" y2="82.70714" xlink:href="#linear-gradient"/><linearGradient id="linear-gradient-60" x1="7.31967" y1="31.42757" x2="136.85324" y2="79.35899" xlink:href="#linear-gradient"/><linearGradient id="linear-gradient-61" x1="-3.13158" y1="59.67187" x2="126.40197" y2="107.60328" xlink:href="#linear-gradient"/><linearGradient id="linear-gradient-62" x1="20.9147" y1="-5.31253" x2="150.44818" y2="42.61879" xlink:href="#linear-gradient"/><linearGradient id="linear-gradient-63" x1="3.4137" y1="41.98345" x2="132.94725" y2="89.91478" xlink:href="#linear-gradient"/><linearGradient id="linear-gradient-64" x1="-4.82582" y1="64.25063" x2="124.70773" y2="112.18204" xlink:href="#linear-gradient"/><linearGradient id="linear-gradient-65" x1="9.04613" y1="26.76188" x2="138.5797" y2="74.69329" xlink:href="#linear-gradient"/><linearGradient id="linear-gradient-66" x1="-5.14057" y1="65.10132" x2="124.39289" y2="113.03264" xlink:href="#linear-gradient"/><linearGradient id="linear-gradient-67" x1="18.45617" y1="1.33159" x2="147.98973" y2="49.26291" xlink:href="#linear-gradient"/><linearGradient id="linear-gradient-68" x1="-0.59817" y1="52.82538" x2="128.9354" y2="100.7568" xlink:href="#linear-gradient"/><linearGradient id="linear-gradient-69" x1="15.99622" y1="7.9794" x2="145.52979" y2="55.91081" xlink:href="#linear-gradient"/><linearGradient id="linear-gradient-70" x1="-10.66783" y1="80.03852" x2="118.86573" y2="127.96993" xlink:href="#linear-gradient"/><linearGradient id="linear-gradient-71" x1="-10.31343" y1="79.08081" x2="119.22013" y2="127.01213" xlink:href="#linear-gradient"/><linearGradient id="linear-gradient-72" x1="6.09391" y1="34.74018" x2="135.62747" y2="82.67159" xlink:href="#linear-gradient"/><linearGradient id="linear-gradient-73" x1="12.73827" y1="16.78387" x2="142.27183" y2="64.71519" xlink:href="#linear-gradient"/><linearGradient id="linear-gradient-74" x1="5.26488" y1="36.98058" x2="134.79843" y2="84.9119" xlink:href="#linear-gradient"/><linearGradient id="linear-gradient-75" x1="-1.82355" y1="56.13698" x2="127.71001" y2="104.06839" xlink:href="#linear-gradient"/><linearGradient id="linear-gradient-76" x1="-3.16341" y1="59.7579" x2="126.37016" y2="107.68922" xlink:href="#linear-gradient"/><linearGradient id="linear-gradient-77" x1="6.37748" y1="33.97376" x2="135.91104" y2="81.90517" xlink:href="#linear-gradient"/><linearGradient id="linear-gradient-78" x1="5.1431" y1="37.30964" x2="134.67667" y2="85.24105" xlink:href="#linear-gradient"/><linearGradient id="linear-gradient-79" x1="-6.35294" y1="68.37768" x2="123.18052" y2="116.30909" xlink:href="#linear-gradient"/><linearGradient id="linear-gradient-80" x1="5.47277" y1="36.41877" x2="135.00631" y2="84.35008" xlink:href="#linear-gradient"/><linearGradient id="linear-gradient-81" x1="0.72263" y1="49.25607" x2="130.2562" y2="97.18748" xlink:href="#linear-gradient"/><linearGradient id="linear-gradient-82" x1="7.18691" y1="31.7863" x2="136.72047" y2="79.71771" xlink:href="#linear-gradient"/><linearGradient id="linear-gradient-83" x1="16.70021" y1="6.07686" x2="146.23377" y2="54.00817" xlink:href="#linear-gradient"/><linearGradient id="linear-gradient-84" x1="11.61677" y1="19.81482" x2="141.15032" y2="67.74613" xlink:href="#linear-gradient"/><linearGradient id="linear-gradient-85" x1="15.19436" y1="10.14658" x2="144.72792" y2="58.0779" xlink:href="#linear-gradient"/><linearGradient id="linear-gradient-86" x1="15.65539" y1="8.90047" x2="145.18895" y2="56.83179" xlink:href="#linear-gradient"/><linearGradient id="linear-gradient-87" x1="9.72396" y1="24.93005" x2="139.25753" y2="72.86147" xlink:href="#linear-gradient"/><linearGradient id="linear-gradient-88" x1="26.39961" y1="-20.13566" x2="155.93318" y2="27.79575" xlink:href="#linear-gradient"/><linearGradient id="linear-gradient-89" x1="26.66414" y1="-20.85052" x2="156.19771" y2="27.08089" xlink:href="#linear-gradient"/><linearGradient id="linear-gradient-90" x1="25.52386" y1="-17.76871" x2="155.05741" y2="30.16261" xlink:href="#linear-gradient"/><linearGradient id="linear-gradient-91" x1="30.34593" y1="-30.80042" x2="159.8795" y2="17.131" xlink:href="#linear-gradient"/><linearGradient id="linear-gradient-92" x1="26.75622" y1="-21.09924" x2="156.28978" y2="26.83218" xlink:href="#linear-gradient"/></defs><title>acumos-horizontal-color</title><path class="cls-1" d="M331.57178,38.85167a8.38435,8.38435,0,0,0-6.4495,0,7.50886,7.50886,0,0,0-2.57979,1.75058,9.816,9.816,0,0,0-1.75058,2.5798,7.76155,7.76155,0,0,0-.645,3.22475V68.42725a7.76152,7.76152,0,0,0,.645,3.22475,8.28855,8.28855,0,0,0,4.33037,4.33038,8.19,8.19,0,0,0,9.02929-1.75058,8.50874,8.50874,0,0,0,1.75057-2.5798,7.76152,7.76152,0,0,0,.645-3.22475V46.49894a7.76149,7.76149,0,0,0-.645-3.22475,8.50874,8.50874,0,0,0-1.75057-2.5798A6.61035,6.61035,0,0,0,331.57178,38.85167Z"/><polygon class="cls-1" points="171.071 64.926 184.892 64.926 177.981 33.876 171.071 64.926"/><path class="cls-2" d="M178.35,24.93917h-3.8697L159.92288,90.44768h5.62028l4.42252-19.80918h16.2159l4.42252,19.80918h5.62028L181.66693,24.93917ZM171.07129,65.2025l6.91019-31.04975,6.91018,31.04975Z"/><path class="cls-2" d="M220.5482,36.73255a14.40865,14.40865,0,0,0-4.33037-2.94835,14.09684,14.09684,0,0,0-10.77988,0,12.90612,12.90612,0,0,0-4.33038,2.94835,14.40854,14.40854,0,0,0-2.94834,4.33038,13.21807,13.21807,0,0,0-1.10563,5.34387V68.42725a13.67062,13.67062,0,0,0,4.054,9.67425,14.40836,14.40836,0,0,0,4.33038,2.94834,13.21807,13.21807,0,0,0,5.34387,1.10563,13.67062,13.67062,0,0,0,9.67426-4.054,14.40885,14.40885,0,0,0,2.94834-4.33038A13.21823,13.21823,0,0,0,224.51,68.42725V67.22948h-5.436v1.19777a7.7615,7.7615,0,0,1-.64494,3.22475,7.50933,7.50933,0,0,1-1.75058,2.5798,8.50828,8.50828,0,0,1-2.5798,1.75058,8.67143,8.67143,0,0,1-6.4495,0,8.28843,8.28843,0,0,1-4.33038-4.33038,7.76151,7.76151,0,0,1-.64495-3.22475V46.49894a7.76148,7.76148,0,0,1,.64495-3.22475,7.50944,7.50944,0,0,1,1.75057-2.5798,8.50845,8.50845,0,0,1,2.57981-1.75058,8.67134,8.67134,0,0,1,6.4495,0,7.509,7.509,0,0,1,2.5798,1.75058,8.5084,8.5084,0,0,1,1.75058,2.5798,7.76147,7.76147,0,0,1,.64494,3.22475V47.6967h5.436V46.49894a12.9045,12.9045,0,0,0-1.10563-5.34387A13.06589,13.06589,0,0,0,220.5482,36.73255Z"/><path class="cls-2" d="M250.58446,68.15084a7.76152,7.76152,0,0,1-.645,3.22475,7.50944,7.50944,0,0,1-1.75057,2.5798,8.5086,8.5086,0,0,1-2.57979,1.75058,7.47769,7.47769,0,0,1-3.22475.645,7.76153,7.76153,0,0,1-3.22476-.645,7.50919,7.50919,0,0,1-2.5798-1.75058,8.50838,8.50838,0,0,1-1.75057-2.5798,7.76151,7.76151,0,0,1-.64495-3.22475V32.955h-5.436V68.15084a13.67056,13.67056,0,0,0,4.054,9.67425,14.40836,14.40836,0,0,0,4.33038,2.94834,13.37672,13.37672,0,0,0,11.0563-.18428,16.1106,16.1106,0,0,0,2.48768-1.47417v2.3034h5.436V32.955h-5.436V68.15084Z"/><path class="cls-2" d="M306.51084,37.009a14.40824,14.40824,0,0,0-4.33039-2.94835,13.21816,13.21816,0,0,0-5.34386-1.10563,13.45341,13.45341,0,0,0-7.09446,1.93485,12.8714,12.8714,0,0,0-3.86972,3.50116,14.07249,14.07249,0,0,0-3.86971-3.50116,13.45328,13.45328,0,0,0-7.09446-1.93485,13.23864,13.23864,0,0,0-5.71243,1.19777,11.08474,11.08474,0,0,0-2.48768,1.47417v-2.3034h-5.436V81.69479h5.436V46.68321a7.76165,7.76165,0,0,1,.645-3.22475,7.50933,7.50933,0,0,1,1.75058-2.5798,9.81524,9.81524,0,0,1,2.57979-1.75058,8.67143,8.67143,0,0,1,6.4495,0,7.50886,7.50886,0,0,1,2.57979,1.75058,8.50886,8.50886,0,0,1,1.75057,2.5798,7.76149,7.76149,0,0,1,.645,3.22475V81.87907h5.436V46.68321a7.76149,7.76149,0,0,1,.645-3.22475,8.50886,8.50886,0,0,1,1.75057-2.5798,8.95651,8.95651,0,0,1,2.67193-1.75058,8.43428,8.43428,0,0,1,6.35737,0,7.50891,7.50891,0,0,1,2.57978,1.75058,8.50871,8.50871,0,0,1,1.75058,2.5798,7.76149,7.76149,0,0,1,.645,3.22475V81.87907h5.436V46.68321a12.90419,12.90419,0,0,0-1.10564-5.34387A11.261,11.261,0,0,0,306.51084,37.009Z"/><path class="cls-2" d="M338.11342,36.73255A14.40824,14.40824,0,0,0,333.783,33.7842a14.09687,14.09687,0,0,0-10.77989,0,12.90651,12.90651,0,0,0-4.3304,2.94835,14.40912,14.40912,0,0,0-2.94835,4.33038,13.21842,13.21842,0,0,0-1.10564,5.34387V68.42725a13.67064,13.67064,0,0,0,4.054,9.67425,14.4082,14.4082,0,0,0,4.3304,2.94834,13.218,13.218,0,0,0,5.34386,1.10563,13.67067,13.67067,0,0,0,9.67425-4.054,14.40927,14.40927,0,0,0,2.94836-4.33038,13.21842,13.21842,0,0,0,1.10564-5.34387V46.49894a12.90435,12.90435,0,0,0-1.10564-5.34387A13.06587,13.06587,0,0,0,338.11342,36.73255Zm-1.47418,9.76639V68.42725a7.76152,7.76152,0,0,1-.645,3.22475,7.50944,7.50944,0,0,1-1.75057,2.5798,8.5086,8.5086,0,0,1-2.57979,1.75058,7.47769,7.47769,0,0,1-3.22475.64495,7.76148,7.76148,0,0,1-3.22475-.64495,7.50886,7.50886,0,0,1-2.57979-1.75058,8.50858,8.50858,0,0,1-1.75058-2.5798,7.76152,7.76152,0,0,1-.645-3.22475V46.49894a7.76149,7.76149,0,0,1,.645-3.22475,7.50933,7.50933,0,0,1,1.75058-2.5798,8.50848,8.50848,0,0,1,2.57979-1.75058,8.38435,8.38435,0,0,1,6.4495,0,7.50886,7.50886,0,0,1,2.57979,1.75058,9.8159,9.8159,0,0,1,1.75057,2.5798A9.13775,9.13775,0,0,1,336.63924,46.49894Z"/><path class="cls-2" d="M369.62383,36.73255a13.67759,13.67759,0,0,0-15.11029-2.94835,12.90656,12.90656,0,0,0-4.33039,2.94835,14.40912,14.40912,0,0,0-2.94835,4.33038,13.21825,13.21825,0,0,0-1.10564,5.34387,10.34542,10.34542,0,0,0,1.19775,4.8832,13.73594,13.73594,0,0,0,3.04047,3.59329,25.20054,25.20054,0,0,0,3.96183,2.76407c1.47417.82923,2.85621,1.56631,4.23825,2.21126,1.28989.645,2.57979,1.382,3.77757,2.027a19.37057,19.37057,0,0,1,3.04047,2.027,7.28784,7.28784,0,0,1,1.93485,2.21126,4.25459,4.25459,0,0,1,.645,2.39553,7.76149,7.76149,0,0,1-.645,3.22475,7.50958,7.50958,0,0,1-1.75057,2.57981A9.81565,9.81565,0,0,1,362.99,76.07452a8.67143,8.67143,0,0,1-6.4495,0,8.50829,8.50829,0,0,1-2.57979-1.75058,9.81591,9.81591,0,0,1-1.75058-2.57981,7.76149,7.76149,0,0,1-.645-3.22475V67.32161h-5.3438v1.10564a13.67064,13.67064,0,0,0,4.054,9.67425,14.408,14.408,0,0,0,4.33039,2.94834,13.218,13.218,0,0,0,5.34386,1.10563,13.67067,13.67067,0,0,0,9.67426-4.054,14.40924,14.40924,0,0,0,2.94835-4.33038,13.21825,13.21825,0,0,0,1.10564-5.34387,10.62882,10.62882,0,0,0-1.19775-4.8832,15.30337,15.30337,0,0,0-2.94836-3.5933,25.60765,25.60765,0,0,0-3.96182-2.8562c-1.382-.73709-2.85621-1.56631-4.23825-2.21126h0l-3.68543-1.84272a26.172,26.172,0,0,1-3.13261-2.027,8.72823,8.72823,0,0,1-2.027-2.11913,4.25456,4.25456,0,0,1-.645-2.39552,7.76157,7.76157,0,0,1,.645-3.22476A8.28858,8.28858,0,0,1,356.817,38.9438a8.67146,8.67146,0,0,1,6.44951,0,7.50909,7.50909,0,0,1,2.57979,1.75058,8.50886,8.50886,0,0,1,1.75057,2.5798,7.76157,7.76157,0,0,1,.645,3.22476V47.6967h5.436V46.49894a12.90443,12.90443,0,0,0-1.10564-5.34388A14.85619,14.85619,0,0,0,369.62383,36.73255Z"/><polygon class="cls-3" points="103.167 88.144 102.707 87.223 101.785 85.472 100.772 83.353 95.704 73.403 95.244 72.297 94.783 71.468 94.414 70.731 93.862 69.625 82.345 46.591 78.383 53.87 77.83 54.883 77.83 54.975 78.198 55.62 78.567 56.265 82.252 63.728 82.713 64.65 83.082 65.387 83.174 65.571 83.358 65.847 89.163 77.457 89.439 78.009 89.623 78.378 89.808 78.839 90.084 79.299 92.572 84.182 93.032 85.288 93.493 86.117 93.677 86.578 94.783 88.789 96.165 91.553 98.192 95.515 99.113 95.515 99.666 95.515 103.444 95.515 103.996 95.515 106.853 95.515 105.379 92.659 103.167 88.144"/><polygon class="cls-3" points="80.686 43.366 79.765 41.431 74.513 31.02 74.052 32.034 73.5 33.139 73.407 33.324 73.131 33.968 71.104 37.93 70.091 40.049 76.54 52.58 76.724 52.396 76.909 52.672 81.331 44.564 80.686 43.366"/><polygon class="cls-3" points="76.54 52.58 76.54 52.58 76.724 53.041 76.909 52.672 76.724 52.396 76.54 52.58"/><path class="cls-4" d="M12.87422,58.20018v-.36854a2.16856,2.16856,0,0,1,.18427-.73709L6.51686,54.05407a20.53447,20.53447,0,0,0-2.027,5.62028l6.35737-1.19776Z"/><path class="cls-5" d="M11.95287,77.82509,4.582,68.61151,4.3056,68.243a22.35091,22.35091,0,0,0,2.027,5.89669l.92136.55281Z"/><path class="cls-6" d="M6.97754,75.24529A21.71071,21.71071,0,0,0,12.045,81.04985l.27641-.55282.64495-1.2899Z"/><polygon class="cls-7" points="79.949 63.728 76.632 57.187 73.407 63.728 79.949 63.728"/><path class="cls-8" d="M123.345,66.40026l-2.76407-15.01812h-.46068a2.33034,2.33034,0,0,1-1.382-.55282l-1.65844,2.027,3.77757,8.20008,2.48766,5.34388Q123.20678,66.40026,123.345,66.40026Z"/><path class="cls-9" d="M70.64334,12.86939l5.80455-6.818a3.273,3.273,0,0,1-.82922-.36855l-3.04048,4.33038Z"/><path class="cls-10" d="M61.24549,94.96234l.73709-1.01349,2.027-2.76407a2.34943,2.34943,0,0,1-.73709-1.10563l-3.59329.73709-1.56631,3.13261Z"/><path class="cls-11" d="M110.90666,19.411l2.027-.09214,3.31689-.09213a7.78287,7.78287,0,0,0-.46068-1.56631L110.90666,19.411Z"/><path class="cls-12" d="M31.48564,19.50316a21.42287,21.42287,0,0,0-8.01581,4.69893l12.43833-5.62028Z"/><path class="cls-13" d="M116.61908,20.8852l1.65844.27641a2.28417,2.28417,0,0,1,2.3034-1.2899.69644.69644,0,0,1,.36853.09213l.09215-.18427c-.18427-.09214-.27641-.09214-.46068-.18427l-9.02931.27641Z"/><path class="cls-14" d="M61.06122,9.64464l6.81805-4.054a15.80424,15.80424,0,0,0-3.96184,1.93485.28537.28537,0,0,1-.18427.09213,16.156,16.156,0,0,0-4.23825-.2764L59.40278,8.539A2.2727,2.2727,0,0,1,61.06122,9.64464Z"/><path class="cls-15" d="M40.79135,82.61615c.09214.55282.27641,1.01349.36855,1.56631l5.80455-2.48766.27641-.64495Z"/><path class="cls-16" d="M70.27479,24.57063l.92136-1.01349a2.48868,2.48868,0,0,1-.645-1.93485,2.10013,2.10013,0,0,1,.27641-1.0135L69.35344,19.5953l-.73709-.46068a2.15759,2.15759,0,0,1-1.65845.73709h-.09213l-1.28991,8.56862a1.91176,1.91176,0,0,1,.92136.55282Z"/><path class="cls-17" d="M60.50841,13.05366a2.41578,2.41578,0,0,1-.82923.46068l1.84272,6.081,2.67194,8.66076c.18426,0,.46067-.09214.64494,0h.09214l1.2899-8.56863a2.0957,2.0957,0,0,1-1.10563-1.84271,1.28618,1.28618,0,0,1,.27641-.82922Z"/><path class="cls-18" d="M123.98994,80.12848v-3.8697l-.09214-4.69892h-.18427a.554.554,0,0,1-.36854-.09213l-5.25174,10.0428-2.76407,5.25173,6.63377-3.22475a2.17529,2.17529,0,0,1-.09214-1.10563A2.36736,2.36736,0,0,1,123.98994,80.12848Z"/><path class="cls-19" d="M106.85268,33.69207h0l6.17309,11.88551,3.5933,6.818,1.5663-1.93484a2.46135,2.46135,0,0,1-.55281-1.84272,3.11337,3.11337,0,0,1,.82922-1.75058Z"/><path class="cls-20" d="M91.92669,88.605l-1.5663,13.17541c.46068.18427.92136.27641,1.382.46068a.19815.19815,0,0,1,.18426.18427c.09214.36854.27641.73709.36855,1.10562l1.65844-6.26523.82923-3.409L92.111,88.605C92.111,88.51284,92.01883,88.51284,91.92669,88.605Z"/><path class="cls-21" d="M141.31146,82.43188l.46068-.73709.36854-.64495c-.18427-.55281-.36854-1.01349-.55282-1.5663Z"/><path class="cls-22" d="M100.67959,21.53015a1.97567,1.97567,0,0,1-1.10563-.36854l-4.1461,5.436-1.65845,2.11912a3.11324,3.11324,0,0,1,.82922,1.75058l7.73941.46068h.55281a2.7455,2.7455,0,0,1,1.2899-1.84272l-.73709-2.11912-1.93485-5.62028A1.36925,1.36925,0,0,1,100.67959,21.53015Z"/><path class="cls-23" d="M107.95832,85.74877a2.71718,2.71718,0,0,1-1.19777,1.2899l.73709,1.84272L114.8685,108.967l-.46068-21.28335Z"/><path class="cls-24" d="M91.37388,88.51284a2.47907,2.47907,0,0,1-2.11912-1.75058L78.65914,87.96,68.33994,89.1578v.18427a2.84655,2.84655,0,0,1-1.01349,1.84271l5.06747,8.108a23.81539,23.81539,0,0,0,8.75289-6.35737.3385.3385,0,0,1,.27641-.09213h0a.19815.19815,0,0,1,.18427.18426,14.42374,14.42374,0,0,0,8.108,8.47649l.82922-7.09445Z"/><path class="cls-25" d="M109.7089,85.74877l4.69892,1.382,1.84271-3.50117L122.7,71.28345c-.09214-.09213-.27641-.18427-.36854-.27641l-2.76407,2.3034L107.68191,83.2611a3.18173,3.18173,0,0,1,.46067,1.65845.33851.33851,0,0,1-.09213.27641Z"/><path class="cls-26" d="M42.91048,58.29231c-.09214.09214-.18428.18428-.27641.18428l8.20008,15.4788,3.22475-6.4495Z"/><path class="cls-27" d="M41.34417,84.73527A18.9529,18.9529,0,0,0,43.279,89.15779l3.31688-6.72591Z"/><path class="cls-28" d="M136.15185,97.26574a14.59168,14.59168,0,0,0,5.98883-8.01581l-1.2899-4.60679Z"/><path class="cls-29" d="M50.09706,73.77112l-7.92367-14.926a1.84194,1.84194,0,0,1-1.19776.18427.554.554,0,0,1-.36855-.09213L28.16876,85.10382,36.09243,83.169a18.59572,18.59572,0,0,0,3.8697-2.76408.33851.33851,0,0,1,.27641-.09213c.09214,0,.18427.09213.18427.27641.09214.46068.09214.92136.18428,1.47417l2.67193-.64495,4.23825-1.01349,2.8562-5.71241Z"/><polygon class="cls-30" points="138.916 60.688 143.154 58.292 142.049 57.187 139.745 58.753 129.057 66.124 138.916 60.688"/><path class="cls-31" d="M121.50227,67.7823a3.17608,3.17608,0,0,1,1.10563-1.10563l-6.17309-13.45182L99.11328,57.09456a1.55644,1.55644,0,0,1-.27641.92135l10.77988,4.6068Z"/><path class="cls-32" d="M65.48374,91.82973a1.93191,1.93191,0,0,1-1.01349-.36855l-1.19777,1.65845-1.56631,2.21126,5.1596,5.52814a31.41977,31.41977,0,0,0,5.06747-1.2899l-5.06747-8.01581A3.697,3.697,0,0,1,65.48374,91.82973Z"/><path class="cls-33" d="M59.95559,98.27923l-1.382,2.30339a23.18215,23.18215,0,0,0,7.55513.36855l-4.79105-5.1596Z"/><path class="cls-34" d="M55.53307,97.63428l1.47417,2.48766c.36855.09213.645.18427,1.0135.27641L60.96908,95.423l-2.85621-.92136h-.2764L56.178,97.72642h-.64495Z"/><path class="cls-35" d="M38.58009,57.09455,18.126,58.20018v.09213a2.55373,2.55373,0,0,1-1.19777,1.93485L26.2339,81.41839l1.47418,3.409L39.96213,58.753A2.29375,2.29375,0,0,1,38.58009,57.09455Z"/><path class="cls-36" d="M106.57628,19.87171l-3.13262-.36855a2.48171,2.48171,0,0,1-1.382,1.75058l2.39552,6.81805.27641.82922a3.13427,3.13427,0,0,1,.92136-.09214h.09214l2.21126-7.18659A1.85449,1.85449,0,0,1,106.57628,19.87171Z"/><path class="cls-37" d="M63.82529,87.40721a3.21527,3.21527,0,0,1,.82922-.55281l-1.10562-3.50117-1.382,2.67194Z"/><path class="cls-38" d="M75.98721,29.26955l-1.47417-3.409-.645-1.56631a3.13427,3.13427,0,0,1-.92136.09214,2.20139,2.20139,0,0,1-1.2899-.46068l-4.42252,4.88319-.36854.46068a2.30925,2.30925,0,0,1,.46068,1.75058,1.55654,1.55654,0,0,1-.27641.92136l1.01349.55281,2.76407,1.47418,3.77756-7.55514Z"/><path class="cls-39" d="M87.59632,33.69207l2.11912-1.75058a2.47728,2.47728,0,0,1-.36854-1.65844,1.70807,1.70807,0,0,1,.18427-.64495l-9.02931-4.23825-5.06747-2.39553a2.92829,2.92829,0,0,1-.92135.92136L80.04118,37.009l1.01349,1.93485Z"/><path class="cls-40" d="M126.01692,67.50589l8.47649-5.89669,6.91018-4.79106L122.7,49.72369A2.54937,2.54937,0,0,1,121.04158,51.29l2.76407,15.01812h.18427A2.73145,2.73145,0,0,1,126.01692,67.50589Z"/><path class="cls-41" d="M104.45715,82.33974,96.902,59.39794h0l.27641,12.16192,5.98882,12.06978A2.91093,2.91093,0,0,1,104.45715,82.33974Z"/><path class="cls-42" d="M59.31064,46.13039,59.12637,40.418H58.85a3.2657,3.2657,0,0,1-1.01349-.27641L43.279,54.97543a3.18172,3.18172,0,0,1,.46068,1.65844,1.75154,1.75154,0,0,1-.46068,1.19777l4.054,3.31688,7.00232,5.80456,5.34387-10.68775Z"/><path class="cls-43" d="M140.48223,83.99819,126.93828,83.169a2.59724,2.59724,0,0,1-1.84272,2.027l2.027,9.58212,2.76407,13.08327a14.19213,14.19213,0,0,0,4.14611-9.21357c0-.09214.09214-.18427.18427-.27641h.09214c.09214-.09214.27641-.09214.36853-.18427.27641-.09214.46068-.27641.73709-.36855l.92136-2.5798Z"/><path class="cls-44" d="M144.44407,64.64968v-.27641a7.42859,7.42859,0,0,0,.73709-4.23824,10.77759,10.77759,0,0,0-.46068-1.84272l-.645.27641-.18427.09213-1.65844,15.2024a7.13019,7.13019,0,0,0,2.85621-6.72591A5.5352,5.5352,0,0,0,144.44407,64.64968Z"/><path class="cls-45" d="M124.08206,85.38023a2.90931,2.90931,0,0,1-2.027-1.19777l-2.67194,1.2899-4.51465,2.21126,2.67194,4.054,11.14842,17.13725c.18427-.18427.46068-.36854.64495-.55281l-4.79106-22.9418Z"/><path class="cls-46" d="M63.91743,82.61615l1.2899,4.054c.18427,0,.46068-.09214.73709-.09214a2.46123,2.46123,0,0,1,2.30339,2.027l18.15074-2.11913,2.67194-.27641v-.46068a.69048.69048,0,0,1,.09213-.46068l-12.53046-5.436H65.3916Z"/><path class="cls-47" d="M65.29946,42.26069l-4.23824-2.67194a3.46936,3.46936,0,0,1-1.382.82923l.36855,10.50347.18427,4.33039,6.17309-12.34619Z"/><path class="cls-48" d="M94.23009,58.01591a2.65092,2.65092,0,0,1-.27641-1.47417h0l-5.34388-2.3034,2.48766,5.06747Z"/><path class="cls-49" d="M110.81452,20.42452a2.112,2.112,0,0,1-2.21126,1.382h-.09213l-2.21126,7.18659a2.34934,2.34934,0,0,1,1.10563.73708l6.26523-3.96183,4.51465-2.85621a2.551,2.551,0,0,1-.09213-.82922.33849.33849,0,0,1,.09213-.27641Z"/><path class="cls-50" d="M141.12718,83.72178l1.28989,4.42252a14.3785,14.3785,0,0,0-.09214-6.26524Z"/><path class="cls-51" d="M143.33844,58.93726l-16.953,9.39785a2.84027,2.84027,0,0,1,.09214.92136,1.75154,1.75154,0,0,1-.46068,1.19777l9.85853,8.56862,4.69893,4.054.18426-1.75058.27641-2.85621a12.90886,12.90886,0,0,0-2.027-2.94834.33846.33846,0,0,1-.09214-.27641.19817.19817,0,0,1,.18427-.18427,7.10776,7.10776,0,0,0,2.30339-.92136l.82922-7.55512Z"/><path class="cls-52" d="M103.5358,18.85821l3.13261.36855a2.18139,2.18139,0,0,1,1.65845-1.65845l-.73709-5.71241a8.24627,8.24627,0,0,0-5.06747-3.13262h-.09213c-.09213-.09213-.27641-.18427-.36854-.27641l-.64495,7.83154A2.74287,2.74287,0,0,1,103.5358,18.85821Z"/><path class="cls-53" d="M106.1156,87.31507a2.55071,2.55071,0,0,1-.82922.09214.33847.33847,0,0,1-.27641-.09214l4.42252,8.845Z"/><path class="cls-54" d="M99.29755,16.83123a4.07078,4.07078,0,0,1,1.47417-.55282l.27641-3.77756.36855-4.33038A8.527,8.527,0,0,0,96.902,7.43338h-.36854a8.96879,8.96879,0,0,0-5.52815-1.2899l-1.382.27641,3.31688,3.59329Z"/><path class="cls-55" d="M108.87967,17.47618a2.2765,2.2765,0,0,1,1.84272,1.2899l2.11912-.73709,2.85621-1.01349a8.43785,8.43785,0,0,0-7.463-4.88319l.64494,5.34387Z"/><path class="cls-56" d="M74.4209,19.50316a2.7841,2.7841,0,0,1,1.2899,1.75058l5.89669-.645,16.67657-1.75058v-.18427a2.17429,2.17429,0,0,1,.645-1.47417L88.88621,6.512a12.71814,12.71814,0,0,0-7.55513-1.47417,3.27371,3.27371,0,0,0-.92135.18427l-5.436,13.08328Z"/><path class="cls-57" d="M68.98489,18.12113a3.991,3.991,0,0,1-.09213.46068L71.19615,20.056a2.57885,2.57885,0,0,1,2.21126-.92136c.18427,0,.36854.09214.55281.09214l4.51466-10.872L79.67264,5.4064a10.52335,10.52335,0,0,0-2.39552.82922h-.27641L68.33994,16.46269A1.74332,1.74332,0,0,1,68.98489,18.12113Z"/><path class="cls-58" d="M143.98339,57.92377l.46068-.27641-.55282-.82922v.18427Z"/><path class="cls-59" d="M122.88431,48.71019v.36855l.36854.09213,18.61142,7.09445v-.18427l.18426-1.2899a.32165.32165,0,0,0-.09214-.18427,6.46558,6.46558,0,0,0,.09214-2.3034,7.382,7.382,0,0,0-1.5663-3.68543l-17.41365.09214Z"/><path class="cls-60" d="M61.5219,11.30308a2.33029,2.33029,0,0,1-.55282,1.382l4.97534,3.77757a2.26309,2.26309,0,0,1,1.382-.46068.554.554,0,0,1,.36855.09213L75.06586,5.49853a13.078,13.078,0,0,0-4.97534-.46068H69.722l-8.29222,4.97533C61.42976,10.47386,61.5219,10.8424,61.5219,11.30308Z"/><path class="cls-61" d="M143.33844,56.81814v-.73708l-.73709-.73709-.18426,1.382,1.01349,1.01349Z"/><path class="cls-62" d="M138.17884,41.89215a10.99582,10.99582,0,0,0-4.97533-5.80455c-.09214-.09213-.18427-.18427-.18427-.27641a3.77918,3.77918,0,0,0-.09214-1.01349,10.9731,10.9731,0,0,0-6.26523-8.66076.19815.19815,0,0,1-.18427-.18427,8.10842,8.10842,0,0,0-.46068-1.382h-.09214l-3.50116-1.47417-.27641.55282,6.35736,7.18659Z"/><path class="cls-63" d="M120.58092,41.15507v5.06746a2.55419,2.55419,0,0,1,2.21125,1.93485l17.22938-.09213a6.34318,6.34318,0,0,0-1.19777-1.01349c-.09214-.09214-.18427-.18428-.09214-.27641a11.22857,11.22857,0,0,0,0-2.48767,4.625,4.625,0,0,0-.18427-1.10563l-1.28989-1.47417L121.77867,24.11a2.20145,2.20145,0,0,1-1.2899.46067Z"/><path class="cls-64" d="M42.91048,54.51475,57.37579,39.773a2.56658,2.56658,0,0,1-.27641-3.50116L40.05427,19.5953a2.10167,2.10167,0,0,1-1.10563.55282l1.382,18.98L41.34417,53.8698A2.40407,2.40407,0,0,1,42.91048,54.51475Z"/><path class="cls-65" d="M124.54274,80.12848a2.665,2.665,0,0,1,2.39554,2.48767l13.08327.73708-10.22707-8.845-4.14611-3.59329a3.03414,3.03414,0,0,1-1.19777.64495l.09214,8.56862Z"/><path class="cls-66" d="M14.072,69.3486l.92136-8.75289a2.59725,2.59725,0,0,1-2.027-1.84272L4.3056,60.3193a21.03563,21.03563,0,0,0-.18427,6.35737v.36854l8.93716,11.24056Z"/><path class="cls-67" d="M13.24277,56.63387a2.70041,2.70041,0,0,1,2.39553-1.19776,1.7777,1.7777,0,0,1,.92135.2764l20.45414-35.8408a2.80436,2.80436,0,0,1-.73709-.73709L29.8272,22.083l-7.463,3.31688a22.29357,22.29357,0,0,0-5.15961,9.21358c0,.09213-.09213.09213-.09213.18427A21.19359,21.19359,0,0,0,7.89889,51.65854c0,.09213,0,.09213-.09213.18427-.36855.55281-.73709,1.19777-1.10563,1.75058l6.26523,2.85621Z"/><path class="cls-68" d="M13.427,79.48354l-.18427.27641-.82923,1.65844a21.595,21.595,0,0,0,10.41134,4.23825h.46068l3.22475-.27641-4.51465-2.027Z"/><path class="cls-69" d="M59.31064,35.25838a2.17424,2.17424,0,0,1,1.47417.64495l2.30339-3.04048a2.71865,2.71865,0,0,1-1.01349-2.30339c0-.18428.09213-.36855.09213-.55282L40.60708,19.04249c0,.09213-.09213.09213-.09213.18427l16.953,16.67657A2.50963,2.50963,0,0,1,59.31064,35.25838Z"/><path class="cls-70" d="M56.178,99.93767l-1.382-2.21126H51.387A28.34031,28.34031,0,0,0,56.178,99.93767Z"/><path class="cls-71" d="M66.77363,32.40217a2.57884,2.57884,0,0,1-2.21126.92136,1.77772,1.77772,0,0,1-.92135-.27641l-2.39553,3.13262a2.83513,2.83513,0,0,1,.55281,1.75058l6.81805.46068,2.027-4.054Z"/><path class="cls-72" d="M63.0882,89.52633v-.46068a2.613,2.613,0,0,1,.36855-1.19776L61.89044,86.578l-1.84271,3.59329Z"/><path class="cls-73" d="M38.58009,15.08065a2.33034,2.33034,0,0,1,1.382.55281l2.85621-3.31688a19.16961,19.16961,0,0,0-5.436,2.39553l.2764.46068A1.59269,1.59269,0,0,1,38.58009,15.08065Z"/><path class="cls-74" d="M40.79135,16.647l7.64727-2.39553,7.92368-2.48767a3.13421,3.13421,0,0,1-.09214-.92135,2.665,2.665,0,0,1,2.48766-2.39554L58.85,7.24911c-.36855,0-.82922.09214-1.19776.09214a21.98018,21.98018,0,0,0-10.22707,4.054.32169.32169,0,0,1-.18428.09214c-.46068,0-.92135.09213-1.2899.09213a18.45031,18.45031,0,0,0-2.21126.36854l-3.409,3.96184A8.49513,8.49513,0,0,1,40.79135,16.647Z"/><path class="cls-75" d="M16.37538,60.50357c-.27641.09214-.46068.09214-.73708.18428l-.36855,3.13261L13.61131,78.93072l4.60679,2.11913,8.845,3.96184L18.67877,65.84746Z"/><polygon class="cls-76" points="96.349 60.596 95.151 67.69 96.533 70.362 96.349 60.596"/><path class="cls-77" d="M96.25707,54.23834h.46068c.18427,0,.36854.09213.55281.09213l6.1731-18.51928.73708-2.027a2.77058,2.77058,0,0,1-1.382-2.21125l-8.29222-.46068a2.59725,2.59725,0,0,1-1.84271,2.027l.64494,4.054Z"/><path class="cls-78" d="M89.71543,29.26955A2.43178,2.43178,0,0,1,92.111,28.07179a1.97564,1.97564,0,0,1,1.10563.36854l5.80455-7.55513a2.62675,2.62675,0,0,1-.73709-1.2899L75.7108,21.8987V22.083a1.70825,1.70825,0,0,1-.18427.645Z"/><path class="cls-79" d="M40.79135,53.77766,38.39583,20.24025h-.27641a1.3317,1.3317,0,0,1-.645-.18427L17.02033,55.98892a2.48924,2.48924,0,0,1,.92136,1.56631L33.51263,56.726,38.488,56.4496v-.27641A2.7362,2.7362,0,0,1,40.79135,53.77766Z"/><path class="cls-80" d="M94.04582,55.98892c.09213-.18427.18427-.46068.27641-.645l-.27641-.27641L82.34457,41.98429l5.71242,11.517Z"/><path class="cls-81" d="M94.41436,54.60688l.27641.27641a3.80437,3.80437,0,0,1,1.01349-.645L92.111,33.13925h-.36854a3.41283,3.41283,0,0,1-1.65845-.73708l-8.93716,7.18658.18427.36855Z"/><path class="cls-82" d="M56.6387,12.31658,40.97563,17.19977c0,.18427.09213.46068,0,.64495a1.33159,1.33159,0,0,1-.18428.645L62.44325,29.546a2.17872,2.17872,0,0,1,1.28991-1.10563L61.98258,22.82l-2.85621-9.12144h-.46068A2.53282,2.53282,0,0,1,56.6387,12.31658Z"/><path class="cls-83" d="M118.36965,23.37287l-10.68774,6.818a2.04831,2.04831,0,0,1,.27641,1.47417,2.77638,2.77638,0,0,1-.73709,1.56631L114.77635,41.8l4.14611,4.69893a3.30047,3.30047,0,0,1,1.0135-.36855v-21.744A2.00253,2.00253,0,0,1,118.36965,23.37287Z"/><path class="cls-84" d="M61.614,38.6674c-.09213.18427-.09213.27641-.18427.46068l5.25174,3.22475,1.65844-3.22475Z"/><path class="cls-85" d="M105.19424,34.06061c-.18427,0-.36854-.09213-.55281-.09213l-2.5798,7.64727-4.33038,12.899a2.42376,2.42376,0,0,1,1.2899,1.93485l17.04511-3.8697L111.828,44.56409l-5.62028-10.68775A1.2794,1.2794,0,0,1,105.19424,34.06061Z"/><path class="cls-86" d="M78.10633,79.85208l11.14843,4.8832.18426.09213a2.48386,2.48386,0,0,1,.64495-.73709l-2.11912-4.14611H78.10633Z"/><path class="cls-87" d="M95.88853,59.39794a2.6715,2.6715,0,0,1-1.382-.82922l-3.22475,1.382,3.409,6.91018Z"/><path class="cls-88" d="M105.01,82.15547a2.02883,2.02883,0,0,1,.73709-.09213,2.77625,2.77625,0,0,1,1.5663.73709l8.845-7.37086,5.71242-4.79106a2.48866,2.48866,0,0,1-.645-1.93485.83051.83051,0,0,1,.09215-.46068L98.46834,58.4766a4.0911,4.0911,0,0,1-1.01349.73708l5.25173,15.93949Z"/><path class="cls-89" d="M44.84533,91.64545A18.44277,18.44277,0,0,0,47.333,94.50166l3.68543-2.11913-2.21126-.27641Z"/><polygon class="cls-90" points="56.454 92.935 56.639 92.475 57.192 91.461 57.468 90.908 60.324 85.196 60.601 84.735 62.812 80.221 63.088 79.576 63.18 79.484 63.641 78.562 64.102 77.641 64.102 77.641 65.115 77.641 66.221 77.641 66.497 77.641 67.05 77.641 68.248 77.641 83.358 77.641 86.859 77.641 87.136 77.641 81.7 66.769 81.607 66.492 81.147 65.663 80.87 65.663 72.486 65.663 72.21 65.663 71.196 65.663 70.091 65.663 70.091 65.663 70.551 64.742 71.012 63.82 74.513 56.91 75.619 54.791 75.158 53.962 69.077 42.261 69.077 42.261 67.234 45.946 67.05 46.223 65.852 48.618 65.76 48.802 59.495 61.333 58.297 63.82 57.836 64.742 57.376 65.663 55.349 69.625 55.165 69.994 55.165 69.994 54.888 70.546 52.585 75.245 52.4 75.614 51.756 76.904 51.387 77.641 50.926 78.562 50.466 79.484 49.544 81.326 49.176 81.971 48.899 82.524 48.899 82.616 48.162 84.09 46.043 88.236 42.358 95.607 52.216 95.607 55.072 95.607 55.533 94.778 55.717 94.225 56.454 92.935"/><path class="cls-91" d="M112.19656,108.13775c.27641,0,.46068.09214.73709.09214l-7.64727-10.59561H103.5358l6.26523,12.06978A2.54345,2.54345,0,0,1,112.19656,108.13775Z"/><polygon class="cls-92" points="112.749 105.282 109.985 97.634 105.931 97.634 114.039 108.875 112.749 105.282"/><path class="cls-93" d="M102.79871,97.63428H96.80989l-1.5663-3.13262-2.48767,9.67425a16.13989,16.13989,0,0,0,3.22476,4.23824c3.22475.64495,6.17309,1.75059,9.39784,2.48767a6.88329,6.88329,0,0,1,1.01349.18427h1.56631c.36854-.09214.82922-.27641,1.19776-.36855.09214,0,.18427-.09213.36855-.09213Z"/><polygon class="cls-94" points="115.329 110.533 124.451 111.27 122.608 111.086 115.329 110.533"/><path class="cls-95" d="M117.909,93.21176l-3.04048-4.69892.55281,22.02045,7.27873.64494,1.84271.18427a14.95121,14.95121,0,0,0,3.77757-2.027Z"/></svg>