<svg id="Layer_1" data-name="Layer 1" xmlns="http://www.w3.org/2000/svg" xmlns:xlink="http://www.w3.org/1999/xlink" viewBox="0 0 1000 1000"><defs><style>.cls-1{fill:url(#linear-gradient);}.cls-2{fill:#fff;}.cls-3{fill:url(#linear-gradient-2);}</style><linearGradient id="linear-gradient" x1="125.82202" y1="517.73162" x2="869.7888" y2="517.73162" gradientUnits="userSpaceOnUse"><stop offset="0" stop-color="#44a2eb"/><stop offset="1" stop-color="#3968f6"/></linearGradient><linearGradient id="linear-gradient-2" x1="-2480.29113" y1="2854.77364" x2="-1512.51477" y2="2854.77364" gradientTransform="matrix(-0.20036, 0.97972, 0.97972, 0.20036, -2696.06872, 1889.10584)" xlink:href="#linear-gradient"/></defs><circle class="cls-1" cx="497.80541" cy="517.73162" r="371.98339"/><path class="cls-2" d="M497.65834,300.77034c27.30524-.00247,54.61071.05094,81.91549-.06a24.97874,24.97874,0,0,1,11.468,2.61428q46.05785,22.60065,92.216,44.99624a24.69675,24.69675,0,0,1,6.95579,5.27057c16.97262,17.46978,33.89638,34.98888,51.05668,52.27291,2.98709,3.00871,3.11144,4.76.53432,8.16525q-118.771,156.939-237.32284,314.0437c-6.68686,8.85208-6.828,8.88894-13.3955.21353q-56.83157-75.07242-113.57879-150.20864-61.57039-81.49941-123.21635-162.941c-3.25733-4.28411-3.08923-6.478.61039-10.18319,16.616-16.64074,32.93011-33.58343,49.30232-50.46656a33.61926,33.61926,0,0,1,9.53748-7.05414q45.30363-21.97518,90.52823-44.11258a24.98931,24.98931,0,0,1,11.47275-2.603C443.04732,300.82412,470.35294,300.7728,497.65834,300.77034Zm-.112,403.5515c1.33688-2.38767,2.18915-3.77041,2.91061-5.21833q49.52208-99.38858,99.01723-198.7907c3.51548-7.06052,3.47955-7.09407-4.14437-7.0943q-85.251-.00254-170.502.00639c-10.44019.00046-20.88046,0-32.51172,0C427.52307,563.85178,462.26826,633.55229,497.5463,704.32184ZM650.33037,351.59225c-2.11536-2.582-4.6413-3.20985-6.83706-4.28619-18.65331-9.14271-37.37955-18.13752-55.99977-27.34664a26.30463,26.30463,0,0,0-12.09455-2.75455c-41.80409.07533-83.64011,1.03047-125.40073-.31733-24.86039-.80241-47.80258,2.54887-68.85871,16.12112a54.09021,54.09021,0,0,1-5.66831,2.72647c-10.08931,4.93585-20.17316,9.88286-31.0912,15.234,2.774,1.51086,4.522,2.5518,6.344,3.44146,18.85713,9.2085,37.76236,18.31958,56.5634,27.64112a27.511,27.511,0,0,0,12.66012,2.90552c47.68077-.00131,95.36232.29756,143.04155.07349,7.21057-.03394,14.74115,1.95276,21.77059-1.47C606.45009,372.99926,628.13057,362.41748,650.33037,351.59225ZM391.08066,476.30006a4.65356,4.65356,0,0,0,.89321.24923q104.21154.09269,208.42294.25116c4.68609.01154,3.92323-2.04179,2.95177-4.93585-7.4057-22.06083-14.82325-44.118-22.09653-66.22266-.98477-2.99278-2.20708-4.3836-5.66208-4.37583q-77.77074.176-155.54193.00285c-3.664-.00839-5,1.3545-6.06521,4.6533-5.60429,17.355-11.54561,34.601-17.21654,51.935C394.76766,463.9662,392.08044,469.89267,391.08066,476.30006Zm8.1691-77.84191c.2243-2.9837-2.37413-3.1386-4.09259-3.9814-22.41617-10.99329-44.91483-21.82052-67.24644-32.98225-3.91553-1.957-6.15769-1.531-9.1227,1.5935q-19.94511,21.01789-40.40457,41.54324c-3.50525,3.50048-3.4118,4.85914.86661,7.53q45.671,28.51043,90.978,57.6008c4.42815,2.8459,5.03481.68383,6.14469-2.67476q10.85729-32.85486,21.84038-65.66817C398.54454,400.42423,398.9055,399.43931,399.24976,398.45815Zm321.30252,10.31154c-.879-1.02309-1.49255-1.81973-2.18884-2.5358C704.01787,391.48366,689.62837,376.776,675.348,361.963c-2.09119-2.16914-3.82658-2.43992-6.55043-1.09765q-34.71695,17.109-69.57987,33.92031c-2.87405,1.38666-3.431,2.8295-2.3989,5.86191q11.451,33.64665,22.531,67.41872c1.01747,3.10236,1.81041,4.17454,4.997,2.14567q46.47614-29.59122,93.06183-59.01016C718.43184,410.55317,719.33659,409.71752,720.55228,408.76969Zm-422.484,34.7241q-.492.34407-.98388.68806,75.01166,99.33827,150.02339,198.67636c.622-1.03848.55417-1.6252.30671-2.12236Q410.869,567.33068,374.32419,493.925a11.95157,11.95157,0,0,0-4.45417-5.08105Q333.93539,466.22261,298.06831,443.49379Zm399.80464,1.1756q-.382-.51963-.76424-1.03925-34.76439,21.94853-69.56009,43.847a19.34273,19.34273,0,0,0-7.43371,8.16078q-26.51538,53.57347-53.22913,107.04852-9.87009,19.83032-19.71863,39.67126.48441.28221.96892.56449Q623.00455,543.79577,697.87295,444.66939Z"/><g id="vhMTIq"><path class="cls-3" d="M680.526,97.32566c16.65955,8.96466,33.92921,16.96355,49.88429,27.04323,161.626,102.10773,240.83473,249.14777,222.29229,439.4135C927.36736,823.74763,695.9582,988.90948,462.7713,966.58528,236.41376,944.91487,63.13816,756.79466,57.13724,533.844,50.76172,296.9771,233.7382,94.63884,469.22333,79.21822c14.96425-.97992,24.42152.80321,21.49126,19.22293-1.6772,10.5428,4.55438,11.61042,12.66645,7.8107Q537.88541,90.09,572.33081,73.80247c8.58261-4.0655,9.7412-9.38848,1.6338-15.11694Q542.85764,36.7062,511.497,15.08647c-7.53338-5.21457-13.91924-4.18032-13.97006,5.86565C497.42842,40.43,484.93266,41.2191,470.1588,42.75,282.34888,62.21086,145.47625,156.23313,68.03468,328.56737c-112.7668,250.94512,20.90248,548.9819,281.92316,636.13179,241.356,80.58428,503.688-45.65,590.17389-283.99185,79.52075-219.14658-17.24246-465.33721-224.94066-571.93013-10.74741-5.51568-22.16748-9.72076-33.27436-14.536Q681.22131,95.7834,680.526,97.32566Z"/></g></svg>