<svg id="Layer_1" data-name="Layer 1" xmlns="http://www.w3.org/2000/svg" viewBox="0 0 200 200"><defs><style>.cls-1{fill:none;}.cls-2{fill:#fff;}</style></defs><polygon class="cls-1" points="144.293 99.56 147.45 102.717 153.875 109.141 165.692 97.324 156.111 87.744 146.453 97.401 144.293 99.56"/><polygon class="cls-1" points="54.508 99.56 52.349 97.401 42.691 87.744 33.11 97.324 44.927 109.141 51.352 102.717 54.508 99.56"/><polygon class="cls-2" points="99.401 2.026 98.119 3.307 100.683 3.307 99.401 2.026"/><polygon class="cls-2" points="100.683 3.307 98.119 3.307 86.357 15.069 112.445 15.069 100.683 3.307"/><polygon class="cls-2" points="99.401 25.564 100.668 26.831 124.206 26.831 112.445 15.069 86.357 15.069 74.596 26.831 98.134 26.831 99.401 25.564"/><polygon class="cls-2" points="112.43 38.593 135.968 38.593 124.206 26.831 100.668 26.831 112.43 38.593"/><polygon class="cls-2" points="98.134 26.831 74.596 26.831 62.834 38.593 86.372 38.593 98.134 26.831"/><polygon class="cls-2" points="124.192 50.354 147.73 50.354 135.968 38.593 112.43 38.593 124.192 50.354"/><polygon class="cls-2" points="86.372 38.593 62.834 38.593 51.072 50.354 74.61 50.354 86.372 38.593"/><polygon class="cls-2" points="74.61 50.354 51.072 50.354 39.311 62.116 62.849 62.116 74.61 50.354"/><polygon class="cls-2" points="135.953 62.116 159.491 62.116 147.73 50.354 124.192 50.354 135.953 62.116"/><polygon class="cls-2" points="62.849 62.116 39.311 62.116 28.186 73.241 28.823 73.878 51.087 73.878 62.849 62.116"/><polygon class="cls-2" points="147.715 73.878 169.979 73.878 170.616 73.241 159.491 62.116 135.953 62.116 147.715 73.878"/><polygon class="cls-2" points="158.846 85.009 169.979 73.878 147.715 73.878 158.846 85.009"/><polygon class="cls-2" points="28.823 73.878 39.956 85.009 51.087 73.878 28.823 73.878"/><polygon class="cls-2" points="98.546 55.527 100.256 55.527 99.401 54.673 98.546 55.527"/><polygon class="cls-2" points="100.256 55.527 98.546 55.527 91.957 62.116 106.845 62.116 100.256 55.527"/><polygon class="cls-2" points="106.845 62.116 91.957 62.116 86.748 67.325 112.054 67.325 106.845 62.116"/><polygon class="cls-2" points="112.054 67.325 86.748 67.325 80.194 73.878 118.608 73.878 112.054 67.325"/><polygon class="cls-2" points="118.608 73.878 80.194 73.878 74.949 79.122 123.853 79.122 118.608 73.878"/><polygon class="cls-2" points="123.853 79.122 74.949 79.122 68.431 85.639 130.371 85.639 123.853 79.122"/><polygon class="cls-2" points="130.371 85.639 68.431 85.639 63.151 90.919 135.651 90.919 130.371 85.639"/><polygon class="cls-2" points="51.352 102.717 57.665 102.717 54.508 99.56 51.352 102.717"/><polygon class="cls-2" points="147.45 102.717 144.293 99.56 141.137 102.717 147.45 102.717"/><polygon class="cls-2" points="135.651 90.919 63.151 90.919 56.668 97.401 142.134 97.401 135.651 90.919"/><polygon class="cls-2" points="144.293 99.56 142.134 97.401 56.668 97.401 54.508 99.56 57.665 102.717 141.137 102.717 144.293 99.56"/><polygon class="cls-2" points="42.192 111.876 39.553 114.514 44.83 114.514 42.192 111.876"/><polygon class="cls-2" points="141.137 102.717 134.69 109.163 129.338 114.514 148.502 114.514 153.875 109.141 147.45 102.717 141.137 102.717"/><polygon class="cls-2" points="64.112 109.163 57.665 102.717 51.352 102.717 44.927 109.141 50.3 114.514 69.464 114.514 64.112 109.163"/><polygon class="cls-2" points="159.249 114.514 156.61 111.876 153.972 114.514 159.249 114.514"/><polygon class="cls-2" points="141.137 102.717 57.665 102.717 64.112 109.163 134.69 109.163 141.137 102.717"/><polygon class="cls-2" points="134.69 109.163 64.112 109.163 69.464 114.514 129.338 114.514 134.69 109.163"/><polygon class="cls-2" points="153.972 114.514 142.175 126.311 170.185 126.311 170.616 125.88 159.249 114.514 153.972 114.514"/><polygon class="cls-2" points="122.927 120.925 117.54 126.311 136.705 126.311 148.502 114.514 129.338 114.514 122.927 120.925"/><polygon class="cls-2" points="44.83 114.514 39.553 114.514 28.186 125.88 28.617 126.311 56.627 126.311 44.83 114.514"/><polygon class="cls-2" points="81.262 126.311 75.875 120.925 69.464 114.514 50.3 114.514 62.097 126.311 81.262 126.311"/><polygon class="cls-2" points="129.338 114.514 69.464 114.514 75.875 120.925 122.927 120.925 129.338 114.514"/><polygon class="cls-2" points="122.927 120.925 75.875 120.925 81.262 126.311 117.54 126.311 122.927 120.925"/><polygon class="cls-2" points="111.164 132.686 105.741 138.109 124.908 138.109 136.705 126.311 117.54 126.311 111.164 132.686"/><polygon class="cls-2" points="87.638 132.686 81.262 126.311 62.097 126.311 73.894 138.109 93.061 138.109 87.638 132.686"/><polygon class="cls-2" points="56.627 126.311 28.617 126.311 40.414 138.109 68.424 138.109 56.627 126.311"/><polygon class="cls-2" points="130.378 138.109 158.388 138.109 170.185 126.311 142.175 126.311 130.378 138.109"/><polygon class="cls-2" points="111.164 132.686 117.54 126.311 81.262 126.311 87.638 132.686 111.164 132.686"/><polygon class="cls-2" points="93.061 138.109 105.741 138.109 111.164 132.686 87.638 132.686 93.061 138.109"/><polygon class="cls-2" points="118.58 149.906 146.59 149.906 158.388 138.109 130.378 138.109 118.58 149.906"/><polygon class="cls-2" points="99.401 144.448 93.061 138.109 73.894 138.109 85.691 149.906 113.11 149.906 124.908 138.109 105.741 138.109 99.401 144.448"/><polygon class="cls-2" points="68.424 138.109 40.414 138.109 52.212 149.906 80.221 149.906 68.424 138.109"/><polygon class="cls-2" points="99.401 144.448 105.741 138.109 93.061 138.109 99.401 144.448"/><polygon class="cls-2" points="97.489 161.703 101.313 161.703 113.11 149.906 85.691 149.906 97.489 161.703"/><polygon class="cls-2" points="80.221 149.906 52.212 149.906 64.009 161.703 92.019 161.703 80.221 149.906"/><polygon class="cls-2" points="106.783 161.703 134.793 161.703 146.59 149.906 118.58 149.906 106.783 161.703"/><polygon class="cls-2" points="99.401 163.616 101.313 161.703 97.489 161.703 99.401 163.616"/><polygon class="cls-2" points="99.401 169.086 92.019 161.703 64.009 161.703 75.806 173.501 122.996 173.501 134.793 161.703 106.783 161.703 99.401 169.086"/><polygon class="cls-2" points="87.604 185.298 111.198 185.298 122.996 173.501 75.806 173.501 87.604 185.298"/><polygon class="cls-2" points="99.401 197.095 111.198 185.298 87.604 185.298 99.401 197.095"/><polygon class="cls-2" points="156.111 87.744 165.692 97.324 153.875 109.141 156.61 111.876 171.162 97.324 158.846 85.009 158.216 85.639 156.111 87.744"/><polygon class="cls-2" points="33.11 97.324 42.691 87.744 40.586 85.639 39.956 85.009 27.64 97.324 42.192 111.876 44.927 109.141 33.11 97.324"/><polygon class="cls-2" points="99.401 25.564 98.134 26.831 100.668 26.831 99.401 25.564"/><polygon class="cls-2" points="99.401 31.034 106.959 38.593 112.43 38.593 100.668 26.831 98.134 26.831 86.372 38.593 91.842 38.593 99.401 31.034"/><polygon class="cls-2" points="118.721 50.354 124.192 50.354 112.43 38.593 106.959 38.593 118.721 50.354"/><polygon class="cls-2" points="91.842 38.593 86.372 38.593 74.61 50.354 80.081 50.354 91.842 38.593"/><polygon class="cls-2" points="80.081 50.354 74.61 50.354 62.849 62.116 68.319 62.116 80.081 50.354"/><polygon class="cls-2" points="130.483 62.116 135.953 62.116 124.192 50.354 118.721 50.354 130.483 62.116"/><polygon class="cls-2" points="62.849 62.116 51.087 73.878 56.557 73.878 68.319 62.116 62.849 62.116"/><polygon class="cls-2" points="142.245 73.878 147.715 73.878 135.953 62.116 130.483 62.116 142.245 73.878"/><polygon class="cls-2" points="44.795 85.639 56.557 73.878 51.087 73.878 39.956 85.009 40.586 85.639 44.795 85.639"/><polygon class="cls-2" points="142.245 73.878 154.007 85.639 158.216 85.639 158.846 85.009 147.715 73.878 142.245 73.878"/><polygon class="cls-2" points="40.586 85.639 42.691 87.744 44.795 85.639 40.586 85.639"/><polygon class="cls-2" points="158.216 85.639 154.007 85.639 156.111 87.744 158.216 85.639"/><polygon class="cls-2" points="50.3 114.514 44.927 109.141 42.192 111.876 44.83 114.514 50.3 114.514"/><polygon class="cls-2" points="148.502 114.514 153.972 114.514 156.61 111.876 153.875 109.141 148.502 114.514"/><polygon class="cls-2" points="50.3 114.514 44.83 114.514 56.627 126.311 62.097 126.311 50.3 114.514"/><polygon class="cls-2" points="136.705 126.311 142.175 126.311 153.972 114.514 148.502 114.514 136.705 126.311"/><polygon class="cls-2" points="124.908 138.109 130.378 138.109 142.175 126.311 136.705 126.311 124.908 138.109"/><polygon class="cls-2" points="62.097 126.311 56.627 126.311 68.424 138.109 73.894 138.109 62.097 126.311"/><polygon class="cls-2" points="113.11 149.906 118.58 149.906 130.378 138.109 124.908 138.109 113.11 149.906"/><polygon class="cls-2" points="73.894 138.109 68.424 138.109 80.221 149.906 85.691 149.906 73.894 138.109"/><polygon class="cls-2" points="85.691 149.906 80.221 149.906 92.019 161.703 97.489 161.703 85.691 149.906"/><polygon class="cls-2" points="101.313 161.703 106.783 161.703 118.58 149.906 113.11 149.906 101.313 161.703"/><polygon class="cls-2" points="99.401 163.616 97.489 161.703 92.019 161.703 99.401 169.086 106.783 161.703 101.313 161.703 99.401 163.616"/></svg>