<?xml version="1.0" encoding="UTF-8"?>
<svg id="Layer_1" data-name="Layer 1" xmlns="http://www.w3.org/2000/svg" viewBox="0 0 458.04 500">
  <defs>
    <style>
      .cls-1, .cls-2 {
        fill: #cbcbcb;
      }

      .cls-1, .cls-2, .cls-3, .cls-4 {
        stroke-width: 0px;
      }

      .cls-1, .cls-4 {
        fill-rule: evenodd;
      }

      .cls-3, .cls-4 {
        fill: #000;
      }
    </style>
  </defs>
  <g>
    <g>
      <path class="cls-2" d="M351.73,185.62c2.82,15.22,6.56,32.83,11.04,49.78,2.27-3.88,5.05-6.94,7.91-9.35-8.76-12.19-15.19-25.9-18.95-40.43"/>
      <path class="cls-2" d="M99.45,250.54c6.3-20.24,13.73-46.1,19.74-72.72-4,7.9-8.61,16.06-13.86,24.1-3.88,21.58-16.27,39.91-16.27,39.91,3.75,2.19,7.35,5.02,10.38,8.7"/>
      <path class="cls-3" d="M389.55,229.7l11.29-2.49-8.46-7.9c-40.84-38.18-47.96-90.44-48.45-94.38-2.34-23.09-5.71-44.99-13.55-65.05-10.8-27.63-32.82-45.76-58.48-54.26C254.82-.05,236.13-1.44,218.11,1.5c-18.08,2.95-35.53,10.26-50.06,21.95-21.35,17.17-36.34,43.71-37.71,79.67-.21,5.54-.64,11.28-1.25,17.19-6.71,48.18-71.99,120.51-71.9,120.79.08,0,30.89,5.44,37.18,25.36-4.86,14.86-8.23,24.1-8.26,24.19l-4.32,11.96,12.02-4.14c64.88-22.34,85.86,18.14,85.92,18.26l4.12,7.7,5.81-6.51c52.23-58.56,111.63,3.99,111.79,4.18l5.47,5.67,4.12-6.72c25.36-41.42,74.62-26.53,74.73-26.49-5.85-8.29-11.27-21.09-16.13-35.81-.73-24.95,19.86-29.03,19.93-29.04ZM76.5,236.69c18.56-17.18,32.56-38.87,42.69-58.87-6.01,26.62-13.44,52.48-19.74,72.72-6.44-7.81-15.43-11.81-22.95-13.85ZM305.8,307.1c-28.06-44.03-19.72-93.08-19.69-93.23-15.01,25.63-8.07,58.5,1.26,81.75-21.74-13.54-56.13-25.86-90.33-.91,5.92-26.38,10.3-66.74-4.48-80.69.05.08,13.82,30.82-8.92,87.74-10.98-12.05-36.1-30.22-82.11-18.35,10.54-30.86,38.63-118.22,40.98-179.85,1.22-32.03,14.41-55.52,33.18-70.62,12.83-10.33,28.31-16.8,44.38-19.42,16.14-2.63,32.83-1.41,48.05,3.64,22.37,7.43,41.56,23.19,50.93,47.16,9.73,24.89,12.2,53.85,14.81,84.54,3.57,41.92,7.42,86.99,30.03,131.14-14.8-1.46-38.67,1.25-58.09,27.1ZM362.77,235.4c-4.48-16.95-8.23-34.56-11.04-49.78,6.38,11.92,14.74,24.33,25.66,35.87-4.84,2.63-10.54,6.96-14.61,13.91Z"/>
      <path class="cls-4" d="M277.95,83.08c-11.92,0-21.58,15.12-21.58,33.76s9.66,33.76,21.58,33.76,21.57-15.11,21.57-33.76-9.65-33.76-21.57-33.76Z"/>
      <path class="cls-4" d="M181.49,160.91c0,28.29,22.93,51.22,51.22,51.22s51.22-22.93,51.22-51.22h-102.43ZM232.7,203.25c-8.3,0-16.05-2.39-22.59-6.52,2.09-2.38,4.54-4.42,7.28-6.04,4.49-2.65,9.72-4.18,15.31-4.18s10.82,1.52,15.3,4.18c2.74,1.62,5.2,3.66,7.28,6.04-6.53,4.13-14.28,6.52-22.59,6.52Z"/>
      <path class="cls-1" d="M192.55,214.02s-23.91,77.76-73.04,11.6c-6.96,24.69-13.84,45.62-17.99,57.79,46.01-11.88,71.13,6.29,82.11,18.35,22.74-56.92,8.97-87.66,8.92-87.74"/>
      <path class="cls-1" d="M239.36,238.32c-16.54.03-32.16-7.11-42.94-19.38,10.02,16.94,5.93,52.02.61,75.76,34.2-24.95,68.59-12.62,90.33.91-9.33-23.25-16.27-56.12-1.26-81.75-10.65,15.3-28.11,24.42-46.74,24.45"/>
      <path class="cls-1" d="M286.1,213.87c-.03.15-8.37,49.2,19.69,93.23,19.42-25.85,43.29-28.56,58.09-27.1-9.67-18.88-15.92-37.93-20.17-56.83-8.1,8.33-19.75,12.19-31.22,10.33-11.48-1.85-21.33-9.18-26.39-19.63"/>
    </g>
    <path class="cls-3" d="M196.04,89.48c-11.61,0-21.02,11.76-21.02,26.27s9.41,26.27,21.02,26.27,21.01-11.76,21.01-26.27-9.41-26.27-21.01-26.27Z"/>
  </g>
  <g>
    <path class="cls-3" d="M0,359.16h32.59v140.84H0v-140.84Z"/>
    <path class="cls-3" d="M155.72,500l-27.16-39.23h-29.98v39.23h-32.59v-140.84h60.96c37.62,0,61.16,19.52,61.16,51.1,0,21.12-10.66,36.62-28.97,44.46l31.59,45.27h-35.01ZM125.14,385.72h-26.56v49.09h26.56c19.92,0,29.98-9.26,29.98-24.55s-10.06-24.55-29.98-24.55Z"/>
    <path class="cls-3" d="M322.92,473.84v26.16h-109.05v-140.84h106.43v26.16h-74.04v30.58h65.39v25.35h-65.39v32.59h76.66Z"/>
    <path class="cls-3" d="M457.92,473.84v26.16h-109.05v-140.84h109.16v26.16h-76.77v30.58h65.39v25.35h-65.39v32.59h76.66Z"/>
  </g>
</svg>