<?xml version="1.0" encoding="UTF-8"?>
<svg id="Layer_1" data-name="Layer 1" xmlns="http://www.w3.org/2000/svg" viewBox="0 0 1200 500">
  <defs>
    <style>
      .cls-1, .cls-2 {
        fill: #cbcbcb;
      }

      .cls-1, .cls-2, .cls-3, .cls-4 {
        stroke-width: 0px;
      }

      .cls-1, .cls-4 {
        fill-rule: evenodd;
      }

      .cls-3, .cls-4 {
        fill: #000;
      }
    </style>
  </defs>
  <g>
    <path class="cls-2" d="M787.19,283.16c4.3,23.21,10,50.09,16.84,75.94,3.46-5.93,7.7-10.59,12.07-14.27-13.36-18.59-23.17-39.51-28.91-61.67"/>
    <path class="cls-2" d="M402.35,382.19c9.62-30.87,20.95-70.32,30.12-110.92-6.1,12.05-13.13,24.5-21.14,36.77-5.93,32.91-24.81,60.88-24.81,60.88,5.72,3.33,11.21,7.66,15.83,13.27"/>
    <path class="cls-3" d="M844.89,350.4l17.23-3.79-12.9-12.06c-62.29-58.25-73.17-137.96-73.9-143.97-3.57-35.23-8.71-68.63-20.67-99.22-16.47-42.14-50.07-69.8-89.21-82.78-26.07-8.65-54.58-10.77-82.08-6.28-27.58,4.51-54.2,15.65-76.36,33.48-32.56,26.19-55.43,66.67-57.52,121.53-.32,8.44-.98,17.21-1.91,26.22-10.24,73.49-109.81,183.84-109.68,184.26.11,0,47.12,8.29,56.72,38.69-7.42,22.67-12.56,36.76-12.6,36.9l-6.59,18.25,18.34-6.31c98.97-34.07,130.98,27.67,131.07,27.85l6.28,11.75,8.86-9.93c79.68-89.34,170.28,6.09,170.53,6.37l8.34,8.65,6.28-10.25c38.69-63.18,113.83-40.47,113.99-40.41-8.92-12.65-17.2-32.18-24.61-54.63-1.11-38.05,30.29-44.29,30.4-44.31ZM367.35,361.06c28.32-26.21,49.67-59.3,65.12-89.8-9.17,40.61-20.5,80.05-30.12,110.92-9.82-11.91-23.54-18.01-35-21.12ZM717.12,468.46c-42.81-67.16-30.09-141.99-30.04-142.21-22.89,39.1-12.31,89.24,1.92,124.7-33.17-20.65-85.62-39.44-137.8-1.39,9.03-40.23,15.72-101.82-6.84-123.09.07.12,21.08,47.02-13.61,133.84-16.74-18.38-55.07-46.1-125.25-27.98,16.09-47.08,58.93-180.34,62.51-274.36,1.87-48.86,21.98-84.69,50.62-107.73,19.57-15.76,43.18-25.63,67.7-29.63,24.62-4.01,50.09-2.15,73.3,5.56,34.13,11.33,63.4,35.37,77.7,71.93,14.84,37.97,18.6,82.14,22.59,128.97,5.45,63.95,11.31,132.7,45.82,200.04-22.58-2.22-58.98,1.91-88.62,41.35ZM804.03,359.09c-6.84-25.85-12.55-52.72-16.84-75.94,9.74,18.18,22.49,37.11,39.14,54.72-7.39,4.02-16.09,10.62-22.29,21.22Z"/>
    <path class="cls-4" d="M674.65,126.74c-18.18,0-32.91,23.07-32.91,51.51s14.74,51.51,32.91,51.51,32.9-23.05,32.9-51.51-14.73-51.51-32.9-51.51ZM674.65,215.77c-11.79,0-21.6-13.32-23.59-30.87,3.78,12.93,12.11,21.92,21.8,21.92,13.23,0,23.97-16.8,23.97-37.52,0-2.27-.14-4.49-.37-6.65,1.38,4.76,2.16,10.04,2.16,15.6,0,20.73-10.74,37.52-23.97,37.52Z"/>
    <path class="cls-4" d="M527.49,245.46c0,43.15,34.98,78.13,78.13,78.13s78.13-34.98,78.13-78.13h-156.25ZM605.62,310.04c-12.67,0-24.49-3.64-34.45-9.94,3.18-3.63,6.93-6.74,11.11-9.21,6.85-4.04,14.83-6.37,23.35-6.37s16.5,2.33,23.34,6.37c4.18,2.47,7.93,5.59,11.11,9.21-9.97,6.3-21.79,9.94-34.45,9.94Z"/>
    <path class="cls-1" d="M544.37,326.47s-36.47,118.61-111.42,17.7c-10.62,37.66-21.11,69.59-27.45,88.16,70.18-18.12,108.51,9.6,125.25,27.98,34.69-86.82,13.69-133.73,13.61-133.84"/>
    <path class="cls-1" d="M615.78,363.55c-25.23.04-49.06-10.84-65.5-29.57,15.29,25.85,9.05,79.36.93,115.58,52.18-38.05,104.63-19.26,137.8,1.39-14.24-35.46-24.81-85.61-1.92-124.7-16.25,23.33-42.87,37.26-71.3,37.3"/>
    <path class="cls-1" d="M687.08,326.25c-.05.22-12.77,75.05,30.04,142.21,29.63-39.43,66.04-43.57,88.62-41.35-14.75-28.79-24.28-57.86-30.76-86.69-12.36,12.71-30.13,18.59-47.63,15.76-17.51-2.82-32.53-14-40.26-29.94"/>
  </g>
  <path class="cls-3" d="M549.69,136.5c-17.71,0-32.06,17.95-32.06,40.08s14.35,40.07,32.06,40.07,32.05-17.94,32.05-40.07-14.35-40.08-32.05-40.08ZM549.69,206.97c-6.09,0-11.6-3.41-15.59-8.93,3.07,1.89,6.52,2.95,10.15,2.95,13.04,0,23.6-13.61,23.6-30.4,0-6.65-1.66-12.79-4.47-17.79h0c5.06,5.57,8.3,14.15,8.3,23.78,0,16.79-9.85,30.39-22,30.39Z"/>
</svg>