<?xml version="1.0" encoding="UTF-8"?><svg id="TEMPLATE_delete_" xmlns="http://www.w3.org/2000/svg" viewBox="0 0 500 121"><defs><style>.cls-1{fill:#00add4;}.cls-2{fill:#302d2d;}</style></defs><path class="cls-1" d="m110.33867,92.22436L63.90617,12.83531c-1.03817-1.77501-3.60359-1.77501-4.6418,0L19.80522,80.30154c-.694,1.18649.55771,2.55703,1.80211,1.97315.51053-.23957,1.10036-.48153,1.74727-.7229l-.01248.02652s1.07794-.41772,2.89911-.99503c2.00824-.61689,4.20799-1.20043,6.19991-1.69424,5.57313-1.28695,12.87608-2.33399,19.46149-1.24084,6.05967,1.00585,10.28063,2.63088,13.35424,4.22764,1.40983.73241,2.7406-1.10738,1.60129-2.21467-4.4075-4.2834-11.1889-9.45308-21.50395-11.62023-.45155-.09485-.67786-.60421-.44487-1.00254l15.53498-26.56162c.51038-.87259,1.77155-.87259,2.28193,0l29.6692,50.72769c.62488,1.06839.10129,2.43264-1.07253,2.82517-2.32482.77749-5.10257,1.35865-8.21137,1.35865-1.97778,0-3.96725-.23314-5.9619-.69692-.00088-.00015-5.74928-.907-13.43457-5.49197-7.68426-4.58429-22.50166-10.43286-39.1277-.96452-7.08356,4.55192-11.80384,10.77839-14.29132,14.68667-.38931.61167.28344,1.34227.92299,1.00059,5.71248-3.05192,21.11479-10.25904,34.9934-7.66842,8.24953,1.53987,17.67639,7.76688,27.47608,11.33801h0c16.21197,6.00767,32.10584-4.05718,32.13938-4.07848,1.68094-1.1104,2.66749-1.95477,2.83545-2.10134l.20277-.17698c2.59008-2.26068,3.20814-6.04296,1.47251-9.01055Z"/><g><path class="cls-2" d="m126.08149,80.19835v-39.38858c0-.38296.13357-.71012.4024-.97894.26883-.26798.59514-.40324.97894-.40324h15.7223c6.02584,0,10.95945,1.76683,14.79914,5.29797,2.07286,1.92069,3.64695,4.20405,4.72227,6.85261,1.07363,2.64941,1.61129,5.62513,1.61129,8.92632,0,3.30204-.53766,6.28621-1.61129,8.95422-1.07532,2.66885-2.64941,4.96235-4.72227,6.88136-1.92069,1.72795-4.11698,3.03321-6.59393,3.91578-2.47526.88342-5.2109,1.3247-8.20522,1.3247h-15.7223c-.3838,0-.71012-.13441-.97894-.40324-.26883-.26798-.4024-.5943-.4024-.97894Zm12.78377-9.21375h4.31987c1.07363,0,2.18783-.13357,3.33923-.40324,1.1514-.26798,2.18783-.7769,3.10929-1.5259.92146-.74816,1.67892-1.80403,2.27575-3.16678.59345-1.36275.89272-3.13888.89272-5.32671,0-2.18868-.29926-3.96397-.89272-5.32671-.59684-1.36275-1.36444-2.41862-2.30449-3.16762-.94006-.74816-1.97649-1.25707-3.10929-1.5259-1.1328-.26798-2.23686-.40324-3.31049-.40324h-4.31987c-.3838,0-.71012.13526-.97894.40324-.26883.26883-.4024.59599-.4024.97894v18.08174c0,.38465.13357.71096.4024.97894.26883.26967.59514.40324.97894.40324Z"/><path class="cls-2" d="m180.78913,51.4057v2.41862c0,.3838.13357.71096.4024.97894.26883.26883.59514.40324.97894.40324h15.60563c.3838,0,.71012.13441.97894.40324s.4024.59514.4024.97894v7.94653c0,.3838-.13357.71096-.4024.97894-.26883.26883-.59514.40324-.97894.40324h-15.60563c-.3838,0-.71012.13441-.97894.40324s-.4024.59514-.4024.97894v2.18783c0,.38465.13357.71096.4024.97894.26883.26883.59514.40324.97894.40324h17.90844c.3838,0,.71012.13526.97894.40324.26883.26883.40409.59514.40409.97894v7.94653c0,.38465-.13526.71096-.40409.97894-.26883.26883-.59514.40324-.97894.40324h-29.31086c-.3838,0-.71012-.13441-.97894-.40324-.26883-.26798-.4024-.5943-.4024-.97894v-39.38858c0-.38296.13357-.71012.4024-.97894.26883-.26798.59514-.40324.97894-.40324h29.31086c.3838,0,.71012.13526.97894.40324.26883.26883.40409.59599.40409.97894v7.83156c0,.38465-.13526.71096-.40409.97894-.26883.26967-.59514.40324-.97894.40324h-17.90844c-.3838,0-.71012.13526-.97894.40324-.26883.26883-.4024.59599-.4024.97894Z"/><path class="cls-2" d="m240.21565,72.36679v7.83156c0,.38465-.13526.71096-.4024.97894-.26883.26883-.59514.40324-.97894.40324h-28.73601c-.42269,0-.75746-.13441-1.00769-.40324-.25023-.26798-.37366-.5943-.37366-.97894v-39.38858c0-.38296.12342-.71012.37366-.97894.25023-.26798.585-.40324,1.00769-.40324h8.63805c.3838,0,.71012.13526.97894.40324.26883.26883.40409.59599.40409.97894v28.79265c0,.38465.12342.71096.37366.97894.24854.26967.585.40324,1.00769.40324h17.33358c.3838,0,.71012.13526.97894.40324.26714.26883.4024.59599.4024.97894Z"/><path class="cls-2" d="m266.99376,50.02351h-8.06319c-.3838,0-.71012.13526-.97894.40324-.26883.26883-.4024.59599-.4024.97894v28.79265c0,.38465-.12512.71096-.37366.97894-.25023.26883-.58669.40324-1.00769.40324h-8.63805c-.3838,0-.71181-.13441-.97894-.40324-.26883-.26798-.40409-.5943-.40409-.97894v-28.79265c0-.38296-.12512-.71012-.37366-.97894-.25023-.26798-.585-.40324-1.00769-.40324h-8.17647c-.38549,0-.71181-.13357-.97894-.40324-.27052-.26798-.40409-.5943-.40409-.97894v-7.83156c0-.38296.13357-.71012.40409-.97894.26714-.26798.59345-.40324.97894-.40324h30.40478c.421,0,.75746.13526,1.00769.40324.24854.26883.37366.59599.37366.97894v7.83156c0,.38465-.12512.71096-.37366.97894-.25023.26967-.58669.40324-1.00769.40324Z"/><path class="cls-2" d="m280.75648,40.75228c.15386-.34576.41254-.64249.77775-.89272.3652-.24939.75746-.37366,1.18014-.37366h8.06319c.38211,0,.75746.12427,1.12266.37366.36351.25023.6222.54696.77605.89272l16.81621,39.15864c.15217.34491.12342.71012-.08623,1.09392-.21134.3838-.62558.5757-1.23932.5757h-9.84693c-.42269,0-.81494-.12427-1.18014-.3745-.3652-.24939-.64249-.54696-.83523-.89272l-1.5538-3.45505c-.19275-.34491-.47172-.64249-.83523-.89272-.3652-.24854-.74055-.37366-1.12266-.37366h-12.15143c-.42269,0-.81663.12512-1.18014.37366-.3652.25023-.62389.5478-.77775.89272l-1.61298,3.45505c-.15386.34576-.41254.64333-.77605.89272-.3652.25023-.74055.3745-1.12435.3745h-9.90442c-.19105,0-.39225-.03804-.6036-.11497s-.3838-.1919-.51906-.34576c-.13357-.15301-.2198-.34576-.25868-.5757-.0372-.23079.02029-.49877.17246-.80649l16.69955-38.98534Zm3.39841,25.05017h5.12467c.3838,0,.66277-.12427.83523-.3745.17246-.24939.16231-.54696-.02874-.89272-.3838-.9595-.84538-2.08216-1.38303-3.36882-.53766-1.28582-1.03643-2.4854-1.49631-3.59876-.15386-.34576-.32631-.51822-.51906-.51822s-.3652.17246-.51737.51822l-2.87935,6.96759c-.15386.34576-.15386.64333,0,.89272.15217.25023.44129.3745.86397.3745Z"/><path class="cls-2" d="m364.65832,72.36679v7.83156c0,.38465-.13526.71096-.40409.97894-.26883.26883-.59514.40324-.97894.40324h-28.73432c-.42269,0-.75915-.13441-1.00769-.40324-.25023-.26798-.37535-.5943-.37535-.97894v-39.38858c0-.38296.12512-.71012.37535-.97894.24854-.26798.585-.40324,1.00769-.40324h8.63805c.38211,0,.71012.13526.97894.40324.26714.26883.4024.59599.4024.97894v28.79265c0,.38465.12512.71096.37366.97894.25023.26967.585.40324,1.00938.40324h17.33189c.3838,0,.71012.13526.97894.40324.26883.26883.40409.59599.40409.97894Z"/><path class="cls-2" d="m382.3926,40.75228c.15386-.34576.41254-.64249.77775-.89272.3652-.24939.75746-.37366,1.18014-.37366h8.06319c.38211,0,.75746.12427,1.12266.37366.36351.25023.6222.54696.77605.89272l16.81621,39.15864c.15217.34491.12342.71012-.08623,1.09392-.21134.3838-.62558.5757-1.23932.5757h-9.84693c-.42269,0-.81494-.12427-1.18014-.3745-.3652-.24939-.64249-.54696-.83523-.89272l-1.5538-3.45505c-.19275-.34491-.47172-.64249-.83523-.89272-.3652-.24854-.74055-.37366-1.12266-.37366h-12.15143c-.42269,0-.81663.12512-1.18014.37366-.3652.25023-.62389.5478-.77775.89272l-1.61298,3.45505c-.15386.34576-.41254.64333-.77605.89272-.3652.25023-.74055.3745-1.12435.3745h-9.90442c-.19105,0-.39225-.03804-.6036-.11497s-.3838-.1919-.51906-.34576c-.13357-.15301-.2198-.34576-.25868-.5757-.0372-.23079.02029-.49877.17246-.80649l16.69955-38.98534Zm3.39841,25.05017h5.12467c.3838,0,.66277-.12427.83523-.3745.17246-.24939.16231-.54696-.02874-.89272-.3838-.9595-.84538-2.08216-1.38303-3.36882-.53766-1.28582-1.03643-2.4854-1.49631-3.59876-.15386-.34576-.32631-.51822-.51906-.51822s-.3652.17246-.51737.51822l-2.87935,6.96759c-.15386.34576-.15386.64333,0,.89272.15217.25023.44129.3745.86397.3745Z"/><path class="cls-2" d="m438.8265,80.5441l-11.17248-12.49634c-.26883-.30687-.48863-.42184-.66108-.34576-.17415.07777-.26038.30772-.26038.69152v11.80482c0,.38465-.13357.71096-.4024.97894-.26883.26883-.59514.40324-.97894.40324h-8.63805c-.42269,0-.75915-.13441-1.00769-.40324-.25023-.26798-.37366-.5943-.37366-.97894v-39.38858c0-.38296.12342-.71012.37366-.97894.24854-.26798.585-.40324,1.00769-.40324h8.63805c.3838,0,.71012.13526.97894.40324.26883.26883.4024.59599.4024.97894v13.2445c0,.38465.07777.60529.23163.66277.15217.05749.34491-.06678.57486-.3745l10.366-13.76271c.22994-.30687.55626-.5664.97894-.77775.421-.2105.84368-.31617,1.26637-.31617h10.99834c.42269,0,.69152.1826.80649.54696.11497.3652.05749.70082-.17246,1.00769l-15.14406,18.94571c-.23163.30772-.33815.66193-.31786,1.06517.0186.40324.164.7397.43283,1.00769,1.30357,1.42023,2.6866,2.89879,4.14572,4.43399,1.45912,1.53605,2.90809,3.08055,4.34692,4.63604,1.44052,1.55465,2.86075,3.09069,4.26238,4.60645,1.39994,1.5166,2.73564,2.92754,4.00201,4.2328.26714.30772.36351.65263.28743,1.03643-.07777.3838-.32631.5757-.749.5757h-11.9198c-.42269,0-.85383-.09553-1.29512-.28827-.44298-.19105-.77775-.44044-1.00769-.74816Z"/><path class="cls-2" d="m468.82719,51.4057v2.41862c0,.3838.13357.71096.40409.97894.26714.26883.59345.40324.97894.40324h15.60563c.38211,0,.70842.13441.97894.40324.26714.26883.4024.59514.4024.97894v7.94653c0,.3838-.13526.71096-.4024.97894-.27052.26883-.59684.40324-.97894.40324h-15.60563c-.38549,0-.71181.13441-.97894.40324-.27052.26883-.40409.59514-.40409.97894v2.18783c0,.38465.13357.71096.40409.97894.26714.26883.59345.40324.97894.40324h17.90844c.3838,0,.71012.13526.97894.40324.26883.26883.4024.59514.4024.97894v7.94653c0,.38465-.13357.71096-.4024.97894-.26883.26883-.59514.40324-.97894.40324h-29.31086c-.3838,0-.71181-.13441-.97894-.40324-.26883-.26798-.40409-.5943-.40409-.97894v-39.38858c0-.38296.13526-.71012.40409-.97894.26714-.26798.59514-.40324.97894-.40324h29.31086c.3838,0,.71012.13526.97894.40324.26883.26883.4024.59599.4024.97894v7.83156c0,.38465-.13357.71096-.4024.97894-.26883.26967-.59514.40324-.97894.40324h-17.90844c-.38549,0-.71181.13526-.97894.40324-.27052.26883-.40409.59599-.40409.97894Z"/></g></svg>