<svg id="Layer_1" data-name="Layer 1" xmlns="http://www.w3.org/2000/svg" viewBox="0 0 100 100"><defs><style>.cls-1{fill:#fff;}</style></defs><path class="cls-1" d="M50.0973.89474A48.86526,48.86526,0,1,0,98.96255,49.76,48.86529,48.86529,0,0,0,50.0973.89474ZM74.52992,75.55a1.26779,1.26779,0,0,1-1.35736,1.35737H28.3794A1.26775,1.26775,0,0,1,27.022,75.55V26.68474a1.26775,1.26775,0,0,1,1.35736-1.35737H40.00551V23.6986a1.15147,1.15147,0,0,1,1.20659-1.086H60.5169a1.15139,1.15139,0,0,1,1.20651,1.086v1.62877H73.17256a1.26779,1.26779,0,0,1,1.35736,1.35737Z"/><path class="cls-1" d="M60.5169,34.829H55.69072a1.15146,1.15146,0,0,1-1.20658-1.08588,3.63975,3.63975,0,0,0-7.23927,0A1.15146,1.15146,0,0,1,46.03828,34.829H41.2121a1.15146,1.15146,0,0,1-1.20659-1.08588V29.69458H32.92365a1.18073,1.18073,0,0,0-1.18032,1.18032V71.00583a1.18073,1.18073,0,0,0,1.18032,1.18032H68.3332a1.18074,1.18074,0,0,0,1.18033-1.18032V30.8749a1.18074,1.18074,0,0,0-1.18033-1.18032H61.72341v4.04849A1.15139,1.15139,0,0,1,60.5169,34.829ZM40.00551,40.31749h18.531a1.18033,1.18033,0,1,1,0,2.36065h-18.531a1.18033,1.18033,0,0,1,0-2.36065Zm18.531,21.24575h-18.531a1.18033,1.18033,0,0,1,0-2.36065h18.531a1.18033,1.18033,0,1,1,0,2.36065Zm3.89506-10.62291a1.17994,1.17994,0,0,1-1.18032,1.18032H40.00551a1.18033,1.18033,0,0,1,0-2.36065H61.25126A1.18,1.18,0,0,1,62.43158,50.94033Z"/></svg>