<svg id="レイヤー_1" data-name="レイヤー 1" xmlns="http://www.w3.org/2000/svg" viewBox="0 0 864 864"><defs><style>.cls-1,.cls-2,.cls-3,.cls-4{fill:#fff;}.cls-1{opacity:0.6;}.cls-2{opacity:0.4;}.cls-3{opacity:0.9;}</style></defs><title>lfdl-landscape-icon-white</title><path class="cls-1" d="M591.17434,722.64337H713.907V615.46865c-43.47643-31.14772-86.56025-62.33184-129.22518-94.33048-13.00838-9.86843-22.87688-10.317-35.88526.44856-24.22251,20.18549-49.79081,38.57664-74.46192,58.31357-10.317,8.0742-17.94263,8.0742-27.3625-1.79423-44.85657-45.30516-91.059-89.71313-135.46685-135.46682-11.21414-11.6627-19.28834-11.6627-31.39959-1.79427-45.36659,37.28757-90.95392,74.1439-136.6017,111.01778V722.64337H509.916v111.904h81.25845v-111.904Z"/><path class="cls-2" d="M539.37649,401.37123A90.613,90.613,0,1,0,447.86913,310.761,91.341,91.341,0,0,0,539.37649,401.37123Z"/><polygon class="cls-3" points="509.915 722.643 143.504 722.643 143.504 551.865 143.504 378.485 143.504 356.142 60.528 356.142 24.307 356.142 24.307 469.298 24.307 778.166 24.307 834.547 509.915 834.547 509.915 778.166 509.915 722.643"/><polygon class="cls-4" points="24.307 64.907 24.307 213.732 24.307 274.737 60.447 274.737 87.927 274.737 143.275 274.737 143.275 152.574 713.909 152.574 713.909 615.467 713.909 722.643 591.172 722.643 591.172 778.166 591.172 834.547 757.841 834.547 781.799 834.547 834.712 834.547 834.712 30.995 757.841 30.995 24.307 30.995 24.307 57.77 24.307 64.907"/></svg>