<svg id="Layer_1" data-name="Layer 1" xmlns="http://www.w3.org/2000/svg" viewBox="0 0 1000 1000"><path d="M556.14355,576.17432c.18262-1.38257,1.91211-.48951,2.1045-1.65821a.289.289,0,0,1,.083-.12207c1.30957-1.43359,2.77442-2.70678,4.0752-4.16186,1.4834-1.658,3.36816-2.93042,4.64551-4.83863.25-.37377.05371-1.07128.458-1.02954,1.53808.1587,1.82519-1.19238,2.61328-1.95361,1.0791-1.04224,2.042-2.25171,3.09961-3.22144,1.2041-1.10278,2.87011-1.62963,2.97754-3.61474.00878-.147.22949-.35889.3916-.40943,2.0332-.63159,3.22168-2.24975,4.61718-3.70434,2.85938-2.981,5.89356-5.79395,8.84668-8.68555.31055-.30469.83789-.66919.65528-1.09106-.47266-1.09473.0166-1.1709.876-.99829.54493.10962.81739-.28565,1.11231-.6062,1.63672-1.782,3.60351-3.18213,4.77637-5.50562.60253-1.19507.96-2.37109,1.39746-3.43408a13.01039,13.01039,0,0,0-.40723-2.04761c-.60547-1.60156-1.93555-1.75513-2.98144-.37793a3.38068,3.38068,0,0,0-.52637.89673c-1.1211,3.1936-3.6211,4.97461-6.46875,6.44263a12.66536,12.66536,0,0,0-5.27344,4.24145c-.82422,1.30029-1.69824,2.57031-2.49023,3.88965a13.02991,13.02991,0,0,1-5.65625,5.54248,16.6267,16.6267,0,0,0-8.34375,8.34741,12.30479,12.30479,0,0,1-5.53809,5.62354c-2.40527,1.292-4.88281,2.57739-6.35547,5.01562a37.39306,37.39306,0,0,1-8.23144,10.08643,1.84416,1.84416,0,0,0-.29688.33349,1.79008,1.79008,0,0,0,1.01367,2.98609,4.83081,4.83081,0,0,0,4.41211-1.12769,18.63879,18.63879,0,0,0,2.25684-2.32006C554.72168,577.84448,555.98633,577.36377,556.14355,576.17432Z"/><path d="M667.24219,569.77173c-5.02735,2.717-6.47559,10.89551-2.74317,15.352a1.09975,1.09975,0,0,0,1.15821.38794,9.74013,9.74013,0,0,0,8.27636-9.27515,8.673,8.673,0,0,0-1.89746-5.36255C670.72266,569.09106,669.23438,568.69531,667.24219,569.77173Z"/><path d="M475.26074,540.94824c-.35351-2.6748-.96289-3.23608-3.69726-3.356-2.34278-.10254-4.66016.32739-6.99024.334-14.21191.0415-28.4248.01562-42.63672.072a20.98842,20.98842,0,0,1-8.32226-1.25586,14.02249,14.02249,0,0,0-2.7461-.64477c-2.67773-.51026-5.4541-.42847-8.07324-1.2771-2.17676-.70533-2.82422-1.97119-1.77832-3.9668,2.97949-5.68481,4.583-11.91357,7.168-17.75024.18359-.41578.27441-.87793.876-.81495,1.46289.15308,2.93652.02808,4.29883.91822a9.01133,9.01133,0,0,0,5.11328,1.84009,27.13015,27.13015,0,0,1,9.47265,1.70776,6.9087,6.9087,0,0,0,2.30469.5415c4.18555-.13037,8.31543.67212,12.4873.67871,6.36036.0105,12.72168.0188,19.082-.01245a37.34124,37.34124,0,0,0,8.57812-.8562c3.88477-.93188,5.21875-2.57544,5.22363-6.59033q.02492-21.02015.02539-42.04028.00147-11.40419-.02636-22.8086c-.00391-2.061-.4502-2.62134-2.51172-2.97241a35.40508,35.40508,0,0,0-5.208-.1333,8.28238,8.28238,0,0,1-4.833-1.23193,8.13357,8.13357,0,0,0-3.88672-1.38257,16.95809,16.95809,0,0,1-5.57714-1.5083,12.89483,12.89483,0,0,0-3.26368-1.00342,17.55078,17.55078,0,0,1-4.81347-1.5188,12.48262,12.48262,0,0,0-5.5791-1.42651,9.78542,9.78542,0,0,1-6.42188-2.35157,13.067,13.067,0,0,0-8.89844-3.24463,4.61931,4.61931,0,0,1-2.69629-.7395,8.9613,8.9613,0,0,0-5.24609-1.35888c-5.51367.00048-11.03809-.22144-16.53711.05542a9.8479,9.8479,0,0,1-8.44629-3.23731,2.40852,2.40852,0,0,1-.83887-1.76611c.02832-6.31079.03907-12.62207-.01269-18.93238-.00977-1.11474.31055-1.44335,1.42383-1.42309,8.68945.157,17.38086-.19458,26.07129.42041,7.03906.49805,14.10742.11011,21.16211.21045a10.23283,10.23283,0,0,1,5.20507.99219,10.83039,10.83039,0,0,0,4.84278,1.29174c3.958.26685,7.93066.47242,11.59277,2.28809a7.91361,7.91361,0,0,0,3.45215.84351,14.43071,14.43071,0,0,1,7.76367,2.17041c1.11621.685,2.10938.14892,2.69922-1.00733a6.541,6.541,0,0,0,.53613-3.05469q-.00146-21.16845-.01953-42.33691a5.04512,5.04512,0,0,0-.51758-2.28516c-1.78418-3.65258-4.83593-6.01318-8.20214-7.99121-5.3877-3.1665-10.61426-6.59961-16.17579-9.4873-3.24511-1.68506-6.12988-4.083-9.92578-4.56152a3.01746,3.01746,0,0,1-.97558-.35816,16.979,16.979,0,0,0-6.59766-1.675c-2.67676-.22-5.34863-.436-7.79883-1.70923a13.81688,13.81688,0,0,0-4.6084-1.11548,11.63934,11.63934,0,0,1-3.02734-.74536c-3.75586-1.61694-7.73438-1.626-11.70508-1.7395a18.16621,18.16621,0,0,0-7.72851,1.252,26.86391,26.86391,0,0,1-3.46,1.35035c-2.458.656-4.43555,2.44433-7.02735,2.80249A8.97135,8.97135,0,0,0,382,340.32031a36.00471,36.00471,0,0,0-3.18262,5.022c-1.37207,2.34936-1.35058,2.33251.6875,3.98876a33.81218,33.81218,0,0,1,7.0625,7.39039c1.78907,2.689,3.65332,5.3142,6.98145,6.37329a4.547,4.547,0,0,1,2.10742,1.842c1.65918,2.29126,3.29687,4.5979,4.93945,6.90063.56055.78516.623,1.283-.36718,1.98462-3.877,2.74585-7.90332,5.34009-10.48145,9.5586a10.2956,10.2956,0,0,1-3.80859,3.27343c-.44629.25952-.85059.54468-1.291-.0105-1.77148-2.2373-4.28027-3.894-5.2793-6.74316a2.2343,2.2343,0,0,0-1.1123-1.34473A24.69062,24.69062,0,0,1,370.43262,372a2.53242,2.53242,0,0,0-3.53418-.62012,63.35422,63.35422,0,0,0-9.23438,5.968c-1.7373,1.29688-3.73828,2.30908-4.63965,4.46289a52.75256,52.75256,0,0,1-3.64062,6.82593c-3.66211,6.07251-5.60254,12.53271-4.71289,19.72168.4707,3.80884,1.78027,7.05884,4.80078,9.57959a13.82832,13.82832,0,0,1,3.93848,4.59228,28.76881,28.76881,0,0,0,9.39453,11.15674,9.16807,9.16807,0,0,1,3.76953,5.01782,12.91389,12.91389,0,0,0,1.39648,2.95069c1.4795,2.57031,3.834,4.26294,5.99121,6.15991a19.67782,19.67782,0,0,1,5.52149,6.94238,8.63486,8.63486,0,0,0,4.65918,4.854,34.13315,34.13315,0,0,0,13.876,3.54638,129.58871,129.58871,0,0,0,14.44239-.30175,4.86245,4.86245,0,0,1,4.80371,3.64819c.74609,5.38843.33105,10.80957.26269,16.21606a2.86664,2.86664,0,0,1-2.874,2.61743c-1.93457.04615-3.87207-.02978-5.80762-.03881-5.30761-.02515-10.61718.24756-15.88672-.82984-2.84277-.5813-5.01953.75757-6.51562,3.18042-1.82422,2.95484-3.58984,5.94605-5.43066,8.88989-3.01954,4.82862-5.65723,9.948-10.27832,13.57349a8.58273,8.58273,0,0,0-1.75489,2.39234c-.291.46752-.627,1.13159-1.11328,1.13427-2.10547.012-4.43066.60718-6.252-.58325a101.36256,101.36256,0,0,0-10.57031-5.79321,12.41382,12.41382,0,0,1-3.98926-2.81909c-1.54883-1.773-1.57715-2.13135.03906-3.875a15.42276,15.42276,0,0,0,4.08691-6.4795,16.15859,16.15859,0,0,1,5.47461-8.68554c3.58106-2.89307,5.67188-6.68677,7.45118-10.78028a3.47976,3.47976,0,0,0-.55274-3.86328,8.63526,8.63526,0,0,0-2.78223-2.21411,13.9406,13.9406,0,0,1-3.6289-3.0332,125.3955,125.3955,0,0,1-8.15039-10.25293c-4.10157-5.56323-8.78809-10.64087-13.07813-16.042-2.05859-2.5918-3.56543-5.60425-5.95605-7.9729-1.458-1.44434-2.05469-1.45606-3.21192.24829a3.20556,3.20556,0,0,0-.48632,1.21411c-.78516,3.97851-2.95118,7.50805-3.71973,11.51-.32422,1.68652-1.12695,3.27514-1.57715,4.94458a11.76978,11.76978,0,0,0,.48047,6.75293c.90918,2.86645,1.18848,5.957,2.60644,8.63135a13.90711,13.90711,0,0,1,1.6211,6.40429c.05078,2.4231-.416,3.01465-2.61133,4.10645-3.35742,1.66992-7.00781,2.89013-9.583,5.856a12.791,12.791,0,0,1-4.30468,3.13038,14.17525,14.17525,0,0,0-5.81641,5.40307c-1.07324,1.67066-2.02735,3.41065-2.93848,5.17944a17.09565,17.09565,0,0,0-1.92187,8.58863c.15918,5.23608.082,10.48193-.01172,15.72168-.07227,4.06714,1.81348,6.13037,5.86328,6.14087.29785.001.5957-.01441.89355-.01953,2.38282-.04053,4.76563-.05884,7.14747-.12549,4.167-.1167,8.34375.51465,12.501-.0857,2.37207-.34277,4.75586-.26684,7.13379-.39184.78613-.04126,1.02832.22314,1.0459.99731q.21387,9.38526.49512,18.7688c.02148.76465-.18067,1.21777-1.01563,1.32471-2.7041.34643-5.35547,1.043-8.1123,1.0332-5.66407-.01977-11.33008.106-16.99219.00147a5.28829,5.28829,0,0,0-4.335,2.08911,17.65666,17.65666,0,0,0-4.55567,11.24414c-.2207,7.21655-.70312,14.47851.32715,21.65869A17.60013,17.60013,0,0,0,303.752,592.021a26.28649,26.28649,0,0,0,4.68555,3.41479,1.51293,1.51293,0,0,0,1.77637-.02466,37.48414,37.48414,0,0,0,10.40918-8.57129c1.77832-2.19751,3.5-4.481,6.5-5.15136a1.83445,1.83445,0,0,0,.65332-.35108c3.251-2.4292,7.12988-3.40967,10.85937-4.74219a1.05206,1.05206,0,0,1,1.30469.2544c4.49512,4.57251,8.4209,9.62622,12.50879,14.64185-.39258.21533-.68262.40209-.99414.5415a27.7518,27.7518,0,0,0-10.28613,7.92529,16.07615,16.07615,0,0,1-5.23145,4.11768,24.11038,24.11038,0,0,0-8.97363,7.6477,29.09158,29.09158,0,0,1-4.32715,5.09888,3.82465,3.82465,0,0,0-1.001,4.343,34.54018,34.54018,0,0,1,.9834,3.89209,14.4156,14.4156,0,0,0,1.84961,5.60058,8.66471,8.66471,0,0,1,1.17969,3.34864c.74609,4.5581,2.832,8.27343,7.17968,10.25366a29.41547,29.41547,0,0,1,6.70508,4.36255c.8711.73022,1.77442,1.425,2.68653,2.105,4.17871,3.114,9.52246,2.70019,14.10644,4.61572a7.126,7.126,0,0,0,2.51465.14014c2.18457.03173,4.37012.01733,6.55371.07617,1.25586.03369,3.27539,1.48291,3.40137,2.68945.32519,3.12378,1.91992,5.79566,2.86133,8.69483a7.53752,7.53752,0,0,0,1.75879,2.87988,35.41,35.41,0,0,1,5.50976,6.88574,28.11858,28.11858,0,0,0,3.83008,5.36475,12.38419,12.38419,0,0,0,7.2998,3.57861c.89746.15723.665-.49805.66993-.94092.05078-4.769-.05274-9.54468.17089-14.30517a17.06191,17.06191,0,0,0-5.26171-13.27661,74.6737,74.6737,0,0,1-6.49219-7.17847,16.69535,16.69535,0,0,0-5.2832-4.94531,9.5703,9.5703,0,0,1-1.94727-1.82422c-.77051-.75782-.54688-1.218.13281-1.915,3.05274-3.13159,6.70313-5.59253,9.69922-8.793,2.03418-2.17236,4.27637-4.148,6.39551-6.24194a1.16354,1.16354,0,0,1,1.64746-.241q4.83839,2.636,9.75977,5.1189a10.19533,10.19533,0,0,1,5.18066,5.49438,16.58459,16.58459,0,0,0,4.002,6.03857c3.41406,3.21729,5.22168,7.3042,6.50293,11.69019a8.55243,8.55243,0,0,0,1.06738,2.60718,8.16793,8.16793,0,0,1,1.34082,4.79394q.0381,3.12964.04,6.25977c.00782,4.61914.04883,9.239-.00781,13.85742-.02344,1.95654,1.41992,3.90234,3.22363,3.93457a30.55019,30.55019,0,0,0,7.69434-.57812c3.16992-.75391,5.92676-2.51465,8.9375-3.62867a57.86759,57.86759,0,0,0,13.09766-6.64428,14.86727,14.86727,0,0,1,6.87207-2.70508,5.91252,5.91252,0,0,0,2.38183-.81641,62.22693,62.22693,0,0,0,13.957-10.82422,6.3228,6.3228,0,0,0,1.80079-4.6665c-.05567-14.70825-.0127-29.417-.01954-44.12549-.00195-4.59717-.749-5.32373-5.40136-5.32812-13.91407-.01294-27.82813.04443-41.74219-.03467-9.13477-.05225-18.26856.231-27.41016-.4336-4.70215-.34179-8.68945-1.64013-12.03515-4.9685a47.83882,47.83882,0,0,0-6.375-4.89819,19.63276,19.63276,0,0,1-5.11914-4.719q-5.5796-8.09436-11.19532-16.16357a4.40083,4.40083,0,0,1-.82129-2.35669,12.05475,12.05475,0,0,0-1.81152-5.90625c-.80566-1.30835-1.33887-2.79883-2.23437-4.03345-1.90137-2.62207-1.92578-5.65674-2.2295-8.65552a1.15687,1.15687,0,0,1,.82325-1.36255A20.2042,20.2042,0,0,0,364,550.8501c4.09766-2.8645,8.4043-5.24561,13.48242-5.94385,2.19531-.30176,3.35352-.00391,4.31836,1.94482a55.54521,55.54521,0,0,0,4.53125,7.3335,23.20245,23.20245,0,0,1,3.51172,6.53516,55.042,55.042,0,0,0,3.72168,9.23974c2.11621,4.12989,4.9668,7.6604,9.50586,9.42334a22.49382,22.49382,0,0,1,4.33789,1.95679,10.08923,10.08923,0,0,0,5.793,1.53882q29.35254-.06958,58.70508-.03687c2.55468-.00049,3.7041-1.11133,3.708-3.60351.00977-7.20533.08692-14.41138-.00293-21.61548C475.543,552.06445,475.99316,546.49365,475.26074,540.94824Z"/><path d="M128.75977,517.79077c0,204.179,165.51953,369.699,369.69921,369.699,204.17872,0,369.69825-165.52,369.69825-369.699S702.6377,148.0918,498.459,148.0918C294.2793,148.0918,128.75977,313.61182,128.75977,517.79077ZM512.2627,294.38818a17.34,17.34,0,0,0,5.28222-1.45947,10.42124,10.42124,0,0,1,4.47461-.96411q16.99659-.0077,33.99219-.001a9.7898,9.7898,0,0,1,3.80762.60181c3.79394,1.59717,7.83593,1.68408,11.8291,2.0686a17.69891,17.69891,0,0,1,5.50683,1.16382,15.06213,15.06213,0,0,0,5.00977,1.35571c3.19726.21167,5.89355,2.04517,8.94824,2.67017a24.023,24.023,0,0,1,7.31348,2.4187A7.054,7.054,0,0,0,600.97949,303a19.694,19.694,0,0,1,6.00879,1.60522c2.45215,1.2,5.18555,1.2732,7.834,1.64576a6.46093,6.46093,0,0,1,2.38769.75586,151.708,151.708,0,0,0,15.52149,8.21972,40.70328,40.70328,0,0,1,5.27539,3.06616A11.0082,11.0082,0,0,0,643,320.0835a6.576,6.576,0,0,1,4.16406,1.76123c4.71289,4.48217,10.25977,7.76709,15.72656,11.217a77.71178,77.71178,0,0,1,15.57129,12.39941,20.34083,20.34083,0,0,0,3.458,2.81861,36.22672,36.22672,0,0,1,9.67383,9.59057c1.55273,2.28613,3.77344,3.93506,5.86035,5.697a35.47556,35.47556,0,0,1,7.93067,9.20948c1.915,3.281,4.60937,5.96386,6.88476,8.96777,3.58692,4.73584,7.43067,9.30884,9.57129,14.98a11.551,11.551,0,0,0,2.542,3.82935,28.97733,28.97733,0,0,1,6.12891,10.91992,116.40869,116.40869,0,0,0,9.21,20.42944c1.93066,3.31836,2.78223,7.08984,4.23437,10.60767,1.05469,2.55542.7754,5.66479,1.06934,8.52954a6.57519,6.57519,0,0,0,.67773,2.5769,14.04274,14.04274,0,0,1,1.65137,6.279,18.81532,18.81532,0,0,0,1.56153,6.47681c1.3164,3.08057,1.18945,6.41553,1.75878,9.627a6.66564,6.66564,0,0,0,.17872,1.17554c2.92187,7.78223,2.05468,15.97144,2.59765,24.0083.5,7.39209.124,14.78833-.09375,22.17237-.13965,4.75634-.69922,9.50366-.59765,14.27783a2.84119,2.84119,0,0,1-.23145,1.16162c-1.75293,3.97705-2.15625,8.23218-2.59766,12.47876a6.16181,6.16181,0,0,1-.56347,2.14917,26.31113,26.31113,0,0,0-2.21485,9.50293,10.13547,10.13547,0,0,1-1.01074,3.86621c-1.42578,2.68579-1.32031,5.67944-1.62012,8.57349a27.17316,27.17316,0,0,1-1.63671,6.25366c-2.31739,6.59814-6.03614,12.48462-8.9834,18.75366a71.365,71.365,0,0,0-3.01856,8.533,41.60971,41.60971,0,0,1-6.55859,11.93652,29.26042,29.26042,0,0,0-5.14063,9.50684,3.51847,3.51847,0,0,1-.93554,1.67285c-5.56153,5.22583-9.24512,11.90308-13.86035,17.85889a76.13872,76.13872,0,0,1-9.68458,10.69824,60.8572,60.8572,0,0,0-4.68359,4.99219c-5.69336,6.2937-12.79492,10.97558-19.02051,16.65625-4.44531,4.05712-9.56347,7.08691-14.75879,10.00146a27.83125,27.83125,0,0,0-6.47851,4.95654,16.76525,16.76525,0,0,1-8.61328,4.73438,5.64071,5.64071,0,0,0-1.57422.43408c-5.11621,2.9502-10.77539,4.84717-15.76758,8.00977a62.98011,62.98011,0,0,1-10.09082,5.07226c-1.89551.77051-4.00488.63916-5.98633,1.09033a63.14649,63.14649,0,0,0-13.18359,4.02442,15.46283,15.46283,0,0,1-5.17481,1.23047,14.71931,14.71931,0,0,0-5.25683,1.52685c-2.41211,1.2334-5.07227,1.30518-7.68067,1.57813a13.74623,13.74623,0,0,0-4.58984,1.17627,13.322,13.322,0,0,1-5.29883,1.28759,83.17014,83.17014,0,0,0-18.55664,2.47217,7.61685,7.61685,0,0,1-2.05957.29151c-5.26562-.03858-10.53418.18066-15.79687-.12207a6.16957,6.16957,0,0,1-2.33106-.40137c-4.11035-2.03711-8.61035-1.76319-12.97363-2.271a7.32974,7.32974,0,0,1-3.251-.92236c-2.44336-1.56543-5.25781-1.68164-8.00781-2.03125a8.22934,8.22934,0,0,1-2.15137-.56787q-7.62158-3.18531-15.23633-6.3833a13.51626,13.51626,0,0,0-4.42578-1.24121c-2.22656-.12842-3.8916-1.34034-5.498-2.72022-2.9375-2.523-3.25391-2.59912-6.415-.34424-2.3418,1.67041-4.69141,3.15674-7.68262,3.22754a2.72868,2.72868,0,0,0-1.13379.34131,76.97287,76.97287,0,0,1-9.90625,4.06445c-4.19531,1.47608-8.3457,3.1084-12.52539,4.60938-4.43457,1.59277-9.24219,1.87305-13.44531,4.1792-1.43555.78711-3.19727.64062-4.83594.66064-5.31348.064-10.627.19287-15.9375.29248-6.0918.11377-12.20312-.29394-18.30957-.333a6.19279,6.19279,0,0,1-2.46777-.502c-5.543-2.438-11.10352-4.83789-16.43946-7.71582a12.66751,12.66751,0,0,1-2.02148-1.2539,30.76871,30.76871,0,0,0-8.38965-4.98877c-3.17187-1.23291-5.08887-4.02588-6.71875-6.92823a14.14411,14.14411,0,0,0-4.61719-5.17724c-3.17187-2.02588-4.74121-5.28711-6.57715-8.33057a9.83132,9.83132,0,0,0-6.085-4.84277c-3.39746-.91065-6.68457-2.21778-10.23632-2.52686a4.86538,4.86538,0,0,1-2.11817-.64892c-4.97558-3.14795-10.4043-5.67676-14.25879-10.374a12.99634,12.99634,0,0,0-4.10156-2.87549c-3.35938-1.8413-6.18652-4.29223-7.47168-8.10278a15.10112,15.10112,0,0,0-3.22559-5.13818,24.27309,24.27309,0,0,1-4.043-6.21436,88.495,88.495,0,0,0-5.21192-9.52368,9.41808,9.41808,0,0,1-1.36426-5.22143,40.06306,40.06306,0,0,0-.79882-10.22022,10.97667,10.97667,0,0,0-4.29981-6.583c-.44336-.31811-.84961-.68969-1.2959-1.00268-2.75586-1.93067-5.15332-3.99683-5.93945-7.61719-.5-2.30176-2.29492-4.15137-3.72949-6.04736a46.81051,46.81051,0,0,1-8.98731-21.34009,89.19285,89.19285,0,0,1-.68261-17.37232c.17382-3.77563.17187-7.54394.23242-11.31518a14.14379,14.14379,0,0,1,1.5664-6.55567c1.458-2.79174,2.24414-5.90283,3.67774-8.7478a5.017,5.017,0,0,0-.749-5.22534,15.41782,15.41782,0,0,1-2.20605-5.01147,5.565,5.565,0,0,0-.46191-1.41138c-1.86036-3.1482-1.82911-6.63306-1.89161-10.11426-.04687-2.68213-.27539-5.36475-.23144-8.0437.10644-6.45191.32031-12.90186.50976-19.35205a3.93143,3.93143,0,0,1,.27735-1.4458c2.12011-4.80225,3.9248-9.74439,6.64941-14.27661a74.84843,74.84843,0,0,1,4.75391-7.552,8.67629,8.67629,0,0,0,1.32226-2.15161,23.22493,23.22493,0,0,1,7.87207-9.92016,9.64425,9.64425,0,0,0,3.89942-8.66529c-.29688-6.561.30469-13.10693.5957-19.65673a3.68012,3.68012,0,0,1,.37207-1.87671c2.11035-2.96729,2.46387-6.68506,4.28809-9.77832a18.9388,18.9388,0,0,1,2.90332-4.29566c2.69824-2.59155,4.082-5.96362,5.50586-9.281a10.11746,10.11746,0,0,1,4.13183-4.88233,28.92908,28.92908,0,0,0,4.58594-3.55395,9.54052,9.54052,0,0,0,3.42676-7.1814,29.92277,29.92277,0,0,1,1.84277-9.74194,25.77017,25.77017,0,0,0,.88184-4.97437,22.06791,22.06791,0,0,1,5.96484-12.2539,49.10279,49.10279,0,0,0,8.28906-11.7229,5.46023,5.46023,0,0,1,2.68457-2.65845,23.4817,23.4817,0,0,0,4.81739-2.95215,9.24385,9.24385,0,0,0,3.749-6.36328,13.01645,13.01645,0,0,1,1.31152-4.54785,33.6547,33.6547,0,0,0,1.93262-5.60205,19.42089,19.42089,0,0,1,4.74707-7.64893,20.69891,20.69891,0,0,1,2.32324-2.09351,20.48352,20.48352,0,0,0,6.05079-7.448,9.30816,9.30816,0,0,1,6.66992-5.63282,8.44382,8.44382,0,0,0,3.32129-1.62793c4.167-3.20459,8.28515-6.4851,13.3623-8.20629a1.90248,1.90248,0,0,0,.52344-.28125c4.94824-3.70435,10.75781-3.98169,16.582-4.11646,3.47656-.08057,6.957-.01465,11.86719-.01465,7.96289-.41943,17.32812.81348,26.71972.51758a3.60523,3.60523,0,0,1,2.02344.39087c2.75586,1.676,5.84277,2.14233,8.95508,2.53735a3.71665,3.71665,0,0,1,1.02246.18164c5.709,2.52466,12.002,3.42676,17.541,6.47632a41.8667,41.8667,0,0,0,11.56347,4.22681c5.31446,1.11084,10.6416,1.04931,15.71387-1.83032a110.43659,110.43659,0,0,1,20.65039-8.70581A27.27346,27.27346,0,0,1,512.2627,294.38818Z"/><path d="M513.32617,514.36548h.03613q0,84.59326-.01757,169.18628a3.72227,3.72227,0,0,0,1.73535,3.2417,9.97856,9.97856,0,0,0,5.64355,1.63086c8.69239.29248,17.375-.24854,26.06348-.353,2.42187-.0293,4.90039.16113,7.12891-1.10449a8.1954,8.1954,0,0,1,4.59668-.95215c.8916.04394,1.78808.01514,2.68164-.001,6.40722-.11816,12.81445-.21679,18.9248-2.55664a7.66153,7.66153,0,0,1,1.89941-.32812,13.08107,13.08107,0,0,0,3.60547-.86329c3.88965-1.59936,7.9668-2.731,11.69336-4.74169,2.83692-1.5315,6.05176-2.23218,8.82422-3.89624a12.35319,12.35319,0,0,1,4.72559-1.69165,11.78343,11.78343,0,0,0,2.58593-.67408c5.5-2.09643,9.82129-6.12768,14.8086-9.07275,2.76758-1.63379,5.35644-3.592,8.31738-4.897a23.1018,23.1018,0,0,0,9.82324-7.719,15.954,15.954,0,0,1,7.05957-5.49463,12.84249,12.84249,0,0,0,7.19043-7.15234,11.20662,11.20662,0,0,1,5.30078-5.63721c2.75293-1.48828,5.13477-3.29541,6.5625-6.23926a15.55226,15.55226,0,0,1,3.01172-4.59228c3.55762-3.39893,6.05176-7.58936,8.81641-11.58032,1.75195-2.52906,3.5625-5.02417,4.00488-8.21265a5.83932,5.83932,0,0,1,.86426-1.874,60.175,60.175,0,0,1,5.69238-8.53223,12.51365,12.51365,0,0,0,1.25977-2.18481c1.55762-3.00074,2.6543-6.19092,3.959-9.29517a15.631,15.631,0,0,0,1.459-5.86255,13.57243,13.57243,0,0,1,1.27734-5.887c1.80274-3.69653,3.55567-7.43677,4.0918-11.58985a13.736,13.736,0,0,1,1.24414-4.11254,15.828,15.828,0,0,0,1.41113-5.73121c.1582-2.208-.08008-4.53588.92676-6.5979a21.58815,21.58815,0,0,0,1.93848-9.68945c.00683-11.22.042-22.4397.01953-33.65942-.00684-3.27393-.05371-6.57935-1.43848-9.6416a13.4362,13.4362,0,0,1-1.30273-6.04834,13.30354,13.30354,0,0,0-1.21387-5.92969,26.76172,26.76172,0,0,1-1.61816-4.78687c-.94727-3.94922-2.57129-7.67651-3.88086-11.50659-.42969-1.25732-1.376-2.35156-1.33692-3.75537.11328-4.10522-1.26855-7.72266-3.167-11.30786-2.52539-4.76807-4.4043-9.89453-7.91406-14.09863a11.10465,11.10465,0,0,1-2.75684-6.43311,4.59741,4.59741,0,0,0-1.09473-2.73315c-4.30761-4.82178-7.60058-10.42115-11.80175-15.32715a34.29645,34.29645,0,0,1-2.97364-4.27222,20.76684,20.76684,0,0,0-8.47265-8.13794,6.69088,6.69088,0,0,1-3.05371-3.1206,21.75149,21.75149,0,0,0-9.33594-9.52076,19.13926,19.13926,0,0,1-5.45508-4.07446A47.145,47.145,0,0,0,631.375,364.65381a78.3835,78.3835,0,0,1-13.25195-7.91943,33.11861,33.11861,0,0,0-15.21094-6.37159,19.80477,19.80477,0,0,1-5.62695-1.7478c-2.45313-1.19263-4.86231-2.75146-7.46778-3.28a39.48687,39.48687,0,0,1-8.335-2.52978,7.38484,7.38484,0,0,0-1.74023-.38526,20.192,20.192,0,0,1-5.3877-1.66577,10.79727,10.79727,0,0,0-2.40234-.76343c-2.73535-.60278-5.53809-.33227-8.291-.73681-4.02246-.59156-7.95312-1.79444-12.06445-1.79126q-16.38282.01208-32.76367.01245c-.48535.00024-1.02832-.083-1.35059.42431-2.01172,3.16578-4.26562,5.97022-4.2539,10.26026Q513.45116,431.26209,513.32617,514.36548Zm108.48047,29.46289c-1.69141,2.20654-3.38086,4.41479-5.0957,6.60278a4.94,4.94,0,0,1-1.17871,1.11573,16.31251,16.31251,0,0,0-5.78516,6.67407,12.72356,12.72356,0,0,1-6.05176,6.11328,16.65852,16.65852,0,0,0-8.085,8.01855,12.93434,12.93434,0,0,1-6.31347,6.27271,15.76541,15.76541,0,0,0-7.75391,7.73535,13.15849,13.15849,0,0,1-6.26856,6.31934,17.17333,17.17333,0,0,0-5.94238,4.64819,8.47373,8.47373,0,0,1-8.19629,3.407,11.71922,11.71922,0,0,1-9.31054-3.21631,26.78317,26.78317,0,0,0-3.81641-2.8457c-4.00879-2.48584-5.77441-6.2876-7.14453-10.64526-1.26367-4.01954-.72461-7.65162.15625-11.58838a10.24509,10.24509,0,0,1,5.4834-7.41724,18.7784,18.7784,0,0,0,7.82031-8.15137c1.251-2.3811,3.3164-3.8186,5.459-5.12817a23.62971,23.62971,0,0,0,8.69434-9.37256,7.14133,7.14133,0,0,1,3.09473-3.12744,24.71877,24.71877,0,0,0,10.77832-10.96143,5.186,5.186,0,0,1,1.92578-2.02636,40.5259,40.5259,0,0,0,8.94922-7.10059,2.93438,2.93438,0,0,1,2.37207-.9956c1.1416.02075,2.28515.05981,3.42578.03295a5.60933,5.60933,0,0,1,3.63476,1.4502c6.78321,5.20654,11.79785,12.16943,17.9502,18.00049a9.66317,9.66317,0,0,1,1.36035,1.76587C623.15234,541.21753,623.10938,542.12866,621.80664,543.82837Zm63.00195,38.58642a3.50143,3.50143,0,0,1-.37207,1.12012c-.335.66358-.72851,1.29712-1.08886,1.94824-2.61036,4.71631-6.0918,7.89576-11.29786,6.73706a18.81561,18.81561,0,0,1-9.94433-1.771,20.72282,20.72282,0,0,0-2.31836-1.0127,22.55811,22.55811,0,0,1-10.31152-7.98681c-4.90821-6.39551-10.89161-11.82422-16.38184-17.69776-2.88184-3.08349-5.82715-6.10864-8.67773-9.2207-1.64161-1.79248-1.57618-1.89038-.43457-3.98779a46.30556,46.30556,0,0,1,2.71289-3.90064c1.94921-2.8479,2.374-5.91845.72363-8.97558a19.53342,19.53342,0,0,0-3.457-4.27613c-1.88867-1.907-1.6543-3.74951.5625-5.28979q1.52783-1.06128,3.02539-2.166a2.35161,2.35161,0,0,1,1.33691-.59448c4.11914-.06958,8.17871.08984,11.46582,3.10449a40.1241,40.1241,0,0,1,3.50782,3.21948c4.32324,5.03809,9.61718,9.03,14.4248,13.543,2.93262,2.75318,5.19824,6.179,8.47363,8.56519a46.87829,46.87829,0,0,1,8.24707,7.4956,99.57678,99.57678,0,0,0,7.6211,8.156,7.573,7.573,0,0,1,2.46582,5.40967A47.35238,47.35238,0,0,1,684.80859,582.41479Zm-60.501-74.467c6.33789-5.36157,11.915-11.53808,17.80273-17.37939,9.06543-8.99316,18.04-18.07813,27.06153-27.115a8.95046,8.95046,0,0,0,2.3496-3.90064c.9795-3.37646,2.90528-6.42382,3.48438-9.94482.1084-.66553.73242-.77246,1.21289-.97705,1.73437-.73731,3.50293-1.3938,5.22168-2.16455a2.3819,2.3819,0,0,1,2.4873.48779c3.44922,2.34815,6.44239,5.10694,8.11426,9.06983,1.251,2.96655,1.27735,3.14306-1.10547,5.28247a15.9532,15.9532,0,0,1-5.87011,3.41235c-4.97168,1.59155-8.72364,5.01318-12.29786,8.62891-3.98046,4.02636-7.63476,8.37939-11.94043,12.07641-4.04882,3.47681-7.34765,7.68067-11.18945,11.34912-4.48926,4.28638-9.23047,8.31714-13.58594,12.73145-3.625,3.67334-6.97168,7.62427-10.86718,11.03174a22.02543,22.02543,0,0,0-4.165,4.2268c-.65723.99341-1.79688.637-2.72363.84156a7.715,7.715,0,0,1-1.82129-.10694,3.5559,3.5559,0,0,1-3.93164-1.91137,2.28978,2.28978,0,0,1,.11425-2.94556C616.28418,516.17285,619.86523,511.70605,624.30762,507.94775Zm-95.2461-46.01733c.3086-.64917.78223-.207,1.1377-.0542a17.02075,17.02075,0,0,1,5.71191,4.228,38.7425,38.7425,0,0,0,11.84082,8.61889c2.04981.9878,4.11426.96387,5.5918-.70459,3.36621-3.79931,7.22949-7.093,10.69043-10.79.30469-.32618.6084-.657.88379-1.00757,1.69336-2.14917,1.72265-3.8064-.12012-5.8645-3.88086-4.33252-7.25488-9.0669-10.92578-13.56348a1.2198,1.2198,0,0,1-.05371-1.77271c1.65723-2.47265,2.0293-2.6521,4.7207-1.20337a14.90269,14.90269,0,0,0,6.5,1.91553,7.231,7.231,0,0,1,3.26563.9353,14.24974,14.24974,0,0,0,6.41211,1.70044c3.93359.20752,5.6582,1.93409,5.71777,5.90088a29.00965,29.00965,0,0,0,1.8252,10.197,35.82892,35.82892,0,0,1,1.73242,7.83472,10.512,10.512,0,0,1-.38672,3.832,5.4351,5.4351,0,0,0,1.38183,5.0918c2.542,2.83008,5.65918,4.98267,8.61622,7.322a25.528,25.528,0,0,1,3.49414,3.23023c4.15527,4.78662,9.29687,8.51171,13.8457,12.87573,1.68359,1.61572,3.41992,3.17724,5.11035,4.78637,1.46777,1.39747,1.40039,1.99512-.32226,2.98365a9.03634,9.03634,0,0,0-3.11426,2.50219,4.17548,4.17548,0,0,1-4.31446,1.8899c-1.29589.44507-2.209-.32984-3.166-.93677a26.58576,26.58576,0,0,0-6.88574-3.46582,4.15147,4.15147,0,0,0-3.54883.45166c-1.34668.84253-2.73633,1.626-4.02344,2.55151-1.60644,1.15479-3.43945,1.137-5.26367,1.24951-.70606.04371-1.03809-.50268-1.43359-.936-3.24707-3.55542-6.39258-7.21143-9.77051-10.63745-2.35742-2.39185-5.11133-4.36524-7.11426-7.15186a3.09351,3.09351,0,0,0-4.07129-.75439,8.40628,8.40628,0,0,1-8.11914-.23706c-2.1123-1.09546-4.32324-2.00025-6.48633-2.99951a12.18139,12.18139,0,0,0-3.5293-1.12232,20.48866,20.48866,0,0,1-7.00683-2.78271,3.21076,3.21076,0,0,1-1.37012-1.31983c-1.10937-2.4292-2.49805-4.7688-2.88476-7.4685-.39649-2.77588-2.17774-4.97925-3.02832-7.56812a48.31779,48.31779,0,0,0-2.00489-5.126C528.10449,463.49341,528.67188,462.75293,529.06152,461.93042Z"/><path d="M608.75488,538.7793c-.78711-.52246-1.73633.05444-2.46484.58764a18.70089,18.70089,0,0,0-1.78223,1.57349c-3.17383,3.009-5.78906,6.5481-8.94726,9.56079-4.41407,4.21143-8.93555,8.30249-12.96582,12.90674-2.71192,3.09766-6.127,5.48877-8.88868,8.56323-2.61816,2.91406-5.27246,5.80054-8.13964,8.48291a109.86839,109.86839,0,0,0-9.22852,9.07056,2.9219,2.9219,0,0,0-.89844,2.845c.39453,1.073,1.64356.59863,2.38867.84326a7.64928,7.64928,0,0,0,3.28126-.70508,13.23483,13.23483,0,0,0,6.28515-6.31787,15.18528,15.18528,0,0,1,7.40039-7.41211,13.05621,13.05621,0,0,0,6.27442-6.33862,13.826,13.826,0,0,1,6.82421-6.95142,14.5079,14.5079,0,0,0,7.05372-7.18164,14.29516,14.29516,0,0,1,6.39453-6.38672c4.14648-2.283,7.46484-5.35205,8.12988-10.42114C609.60547,540.479,609.61328,539.34961,608.75488,538.7793Z"/><path d="M714.50879,107.18286c-10.68067-5.48169-22.03125-9.66113-33.06934-14.44678q-.69139,1.5326-1.38281,3.06568c16.55762,8.90942,33.7207,16.85937,49.57813,26.87695C890.26855,224.15942,968.99023,370.29639,950.56152,559.3938c-25.17871,258.3689-255.167,422.51636-486.92187,400.32886C238.67188,938.18555,66.46094,751.2207,60.49609,529.63916,54.16016,294.22705,236.0127,93.13135,470.05176,77.80542c14.87207-.97388,24.27148.79834,21.35937,19.10474-1.667,10.478,4.52637,11.5393,12.58887,7.76294q34.292-16.06275,68.52637-32.25025c8.52929-4.04053,9.68164-9.33081,1.624-15.02392q-30.917-21.84448-62.084-43.33155c-7.48731-5.18237-13.834-4.15454-13.88477,5.82959C498.084,39.25537,485.665,40.03955,470.98145,41.561,284.3252,60.90234,148.293,154.34741,71.32715,325.62329c-112.07422,249.40405,20.77441,545.6106,280.1914,632.22534,239.874,80.08887,500.59473-45.37011,586.54981-282.248C1017.10059,457.7998,920.93164,213.12109,714.50879,107.18286Z"/></svg>