<?xml version="1.0" encoding="UTF-8"?><svg id="Layer_1" xmlns="http://www.w3.org/2000/svg" viewBox="0 0 1773.54739 1407.45384"><path d="M600.12135,250.75085L370.78555,21.18954l-57.33422,57.39038,229.3358,229.56151,57.33422-57.39059Z"/><path d="M84.04735,308.2911l229.38245-229.5156-57.34548-57.37894L26.70184,250.91281l57.34552,57.37829Z"/><path d="M26.79166,365.62119l229.38183,229.51621,57.34548-57.37931-229.38183-229.51517-57.34549,57.37827Z"/><path d="M542.89168,308.26547l-229.38193,229.51621,57.34548,57.37931,229.38193-229.51621-57.34548-57.37931Z"/><path d="M1173.70229,250.80108L944.36234,21.23959l-57.33317,57.39045,229.33478,229.56162,57.33833-57.39059Z"/><path d="M657.64517,308.23164l229.38197-229.51622-57.34552-57.37894-229.38193,229.51585,57.34548,57.37931Z"/><path d="M657.62468,595.13024l229.38197-229.51621-57.34552-57.37829-229.38193,229.51519,57.34548,57.37931Z"/><path d="M1173.72277,537.71504l-229.3799-229.51621-57.34544,57.37829,229.37677,229.51621,57.34857-57.37829Z"/><path d="M1173.67155,78.72271l229.37365,229.51611,57.34857-57.37931-229.38397-229.51581-57.33825,57.379Z"/><path d="M1689.76757,21.31688l-229.38397,229.51599,57.34857,57.37931,229.38397-229.51632-57.34857-57.37897Z"/><path d="M1747.02387,537.65459l-229.38397-229.51623-57.34857,57.37933,229.38397,229.51621,57.34857-57.37931Z"/><path d="M1230.9176,595.19073l229.38405-229.51625-57.33841-57.37929-229.38397,229.51623,57.33833,57.37931Z"/><path d="M424.62813,884.06305c-13.6972,0-25.27815-2.94977-34.96872-8.85199-9.69057-5.90089-16.85217-14.33094-22.10997-25.07979-5.05835-10.74886-7.58753-22.97393-7.58753-37.09453,0-14.12195,2.52918-26.55653,7.58753-37.09481,5.04495-10.74886,12.41941-18.96858,22.10997-25.08071,9.69057-5.90143,21.27152-9.06285,34.96872-9.06285,13.68399,0,25.27815,2.95071,34.75585,9.06285,9.69057,5.90129,17.06503,14.33186,22.10997,25.08071,5.05835,10.74898,7.58732,22.97287,7.58732,37.09481,0,14.1206-2.52897,26.556-7.58732,37.09453-5.04495,10.74886-12.41941,18.96858-22.10997,25.07979-9.69077,5.90221-21.27152,8.85199-34.75585,8.85199ZM424.62813,865.09449c9.69057,0,17.69062-1.89686,24.22663-6.32286,6.30953-4.42601,11.15482-10.53721,14.53585-18.33628,3.15477-7.79775,4.84528-17.07172,4.84528-27.39861,0-10.32823-1.69052-19.6014-4.84528-27.39967-3.16817-7.79828-8.01346-13.91029-14.53585-18.33629-6.32294-4.426-14.53606-6.53371-24.22663-6.74443-9.69057,0-17.69062,1.89672-24.22642,6.32286-6.5226,4.42599-11.16822,10.53814-14.53606,18.33642-3.15477,8.009-4.84528,17.07224-4.84528,27.39914,0,10.53853,1.47765,19.60086,4.63242,27.39994,3.16797,7.79774,8.01325,13.91027,14.53585,18.33628,6.5358,4.42601,14.53585,6.53317,24.22663,6.53317l.21286.21032Z"/><path d="M510.59247,926.63252v-147.9554h17.70382v73.76765h2.31631v74.18774h-20.02013ZM558.61939,884.05907c-9.90343,0-18.11655-2.31883-24.63915-7.1668-6.74867-4.84663-11.59415-11.16949-15.17485-19.3892-3.5807-8.21972-5.04495-17.28336-5.04495-27.61026s1.67732-19.39053,5.04495-27.61025c3.38104-8.21972,8.42618-14.54257,14.96199-19.39014,6.5358-4.84757,14.74892-7.16586,24.43949-7.16586,9.67737,0,17.90369,2.31829,24.85222,7.16586,6.94833,4.63671,12.41941,11.17056,16.21297,19.17983,3.79376,8.21971,5.69735,17.28203,5.69735,27.61025,0,10.32689-1.90358,19.38921-5.69735,27.60892-3.79356,8.21972-9.05157,14.54258-16.0001,19.39056-6.96173,4.84795-15.17485,7.16546-24.65256,7.16546v.21164ZM555.89075,866.14341c6.30953,0,11.58075-1.6852,15.78704-4.84663,4.21969-3.16143,7.1616-7.58743,9.27804-13.06768,2.10325-5.48026,3.15477-11.59146,3.15477-18.33629s-1.05152-12.85736-3.15477-18.12597c-2.11645-5.48024-5.27121-9.69459-9.49091-13.06768-4.20649-3.16142-9.67737-4.84716-16.21317-4.84716-6.10987,0-11.36788,1.47542-15.37451,4.63685-4.00683,2.95111-6.94853,7.37711-8.85211,12.64571-1.89018,5.48026-2.9417,11.80311-2.9417,18.75825s.83866,13.27801,2.72884,18.75826c1.90338,5.47892,4.84528,9.69461,9.06498,12.85602,4.20629,3.16143,9.4775,4.63632,16.01351,4.63632Z"/><path d="M673.82869,884.06971c-10.1033,0-19.16827-2.31883-26.7424-6.74481-7.58753-4.42601-13.6974-10.74887-17.90369-18.75826-4.21969-8.00939-6.32294-17.28203-6.32294-27.82058,0-11.17083,2.10325-20.86543,6.32294-29.08514,4.20629-8.22013,10.1033-14.54298,17.47776-18.96898,7.58732-4.42613,16.21297-6.74443,26.32967-6.74443s19.38114,2.31843,26.54273,7.166c7.37426,4.84757,12.84534,11.80257,16.42603,20.65457,3.5807,8.852,5.05835,19.60086,4.41935,31.82593h-19.79387v-7.16679c0-11.80177-2.31611-20.65377-6.73546-26.34436-4.43276-5.6919-11.16822-8.64194-20.02013-8.64194-9.89043,0-17.26489,3.1617-22.32304,9.48455-5.05835,6.32286-7.58753,15.38517-7.58753,27.18829s2.52918,20.02283,7.58753,26.13403c5.05815,6.11254,12.21974,9.27397,21.69725,9.27397,6.10987,0,11.58095-1.47489,16.00031-4.21568,4.43256-2.73946,8.01325-6.7435,10.54243-12.01343l19.38134,6.11254c-4.00683,9.27397-10.1167,16.22911-18.11675,21.2874-8.01346,5.05827-17.06503,7.58743-26.96866,7.58743l-.21286-.21032ZM637.39573,835.59402v-15.38651h73.0922v15.38651h-73.0922Z"/><path d="M742.91406,881.11861v-102.4311h17.70403v29.50659h2.31631v72.92451h-20.02034ZM814.95474,881.11861v-50.37255c0-4.00404-.41252-8.00939-1.05152-12.22374-.62559-4.21568-1.89018-8.00939-3.79376-11.80312-1.89018-3.58339-4.41935-6.53451-7.78698-8.64168-3.36783-2.10718-7.80059-3.37174-13.27147-3.37174-3.5807,0-6.94853.63228-10.1165,1.6852-3.15477,1.26458-5.89701,2.95112-8.21312,5.6919-2.31611,2.73946-4.20629,6.11122-5.68394,10.3269-1.26459,4.21568-2.10304,9.48428-2.10304,15.38517l-12.21995-4.63632c0-9.27397,1.69072-17.49369,5.27142-24.65914,3.36763-7.16627,8.41258-12.64612,14.94858-16.65069,6.5358-4.00443,14.32279-5.90129,23.58743-5.90129,7.1616,0,13.0584,1.05386,17.90369,3.37229,4.84528,2.31842,8.63905,5.26899,11.80722,9.06285,2.9417,3.79371,5.25801,7.79802,6.94853,12.0137,1.67711,4.42599,2.72863,8.64168,3.15477,12.85604.63879,4.21568.83845,7.79907.83845,10.9605v56.90573h-20.2198Z"/><path d="M888.04694,881.11595l44.44642-136.57479h28.43291l44.44642,136.57479h-20.64593l-40.86552-124.56123h5.05835l-40.43979,124.56123h-20.64573.21286ZM911.00897,850.34426v-18.54661h71.18882v18.54661h-71.18882Z"/><path d="M1022.87706,881.11595v-136.57479h19.80707v136.57479h-19.80707Z"/><path d="M358.08514,1108.73347l44.44622-136.57502h28.44632l44.44622,136.57502h-20.64573l-40.86552-124.56159h5.05815l-40.453,124.56159h-20.63232.19966ZM381.26004,1077.9618v-18.54659h71.20202v18.54659h-71.20202Z"/><path d="M533.5277,1111.68725c-10.52923,0-19.38114-2.3188-26.7556-6.95513-7.37446-4.63765-12.84554-11.17081-16.85217-19.18023-3.79376-8.21969-5.89681-17.49368-5.89681-27.82058,0-10.53852,2.10304-19.81116,6.10987-28.03087,4.00663-8.22104,9.69057-14.5439,17.06503-19.18023,7.37446-4.63631,16.21317-6.95513,26.54273-6.95513,11.15482,0,20.63232,2.73945,28.64578,8.43002,8.00005,5.48027,13.0584,13.27802,15.80044,22.7623l-19.80707,5.69189c-1.89018-5.69057-5.25801-10.11658-9.69057-13.48964-4.41935-3.16144-9.47771-4.84798-15.37451-4.84798-6.53601,0-11.79381,1.47623-16.01351,4.63765-4.20649,3.16144-7.36126,7.16546-9.26464,12.64573-1.89018,5.48024-3.15477,11.38114-3.15477,18.12597,0,10.5372,2.52897,19.17889,7.16139,25.71205,4.63242,6.53453,11.79381,9.69595,21.27152,9.69595,6.32274,0,11.58075-1.47491,15.58737-4.42601,4.00683-2.95112,6.94853-7.1668,9.05178-12.64573l20.02013,4.84666c-3.36783,9.90623-8.85211,17.70535-16.6391,22.97392-7.80039,5.26862-17.06503,8.00939-28.02019,8.00939h.21286Z"/><path d="M642.01454,1111.68725c-10.52902,0-19.38114-2.3188-26.74219-6.95513-7.37446-4.63765-12.85874-11.17081-16.85217-19.18023-3.79376-8.21969-5.89681-17.49368-5.89681-27.82058,0-10.53852,2.10304-19.81116,6.09647-28.03087,4.00663-8.22104,9.69057-14.5439,17.06503-19.18023,7.37446-4.63631,16.22657-6.95513,26.54273-6.95513,11.16822,0,20.64573,2.73945,28.64598,8.43002,8.01325,5.48027,13.0582,13.27802,15.58737,22.7623l-19.79387,5.69189c-1.90338-5.69057-5.27121-10.11658-9.69057-13.48964-4.43276-3.16144-9.47771-4.84798-15.37451-4.84798-6.5358,0-11.80722,1.47623-16.01351,4.63765-4.20629,3.16144-7.16139,7.16546-9.26464,12.64573-2.11645,5.2686-3.16817,11.38114-3.16817,18.12597,0,10.5372,2.52918,19.17889,7.1616,25.71205,4.64562,6.53453,11.80702,9.69595,21.28472,9.69595,6.30953,0,11.58075-1.47491,15.58758-4.42601,3.99322-2.95112,6.94833-7.1668,9.05157-12.64573l20.00693,4.84666c-3.36783,9.90623-8.83871,17.70535-16.6391,22.97392-7.78719,5.26862-17.06523,8.00939-28.00698,8.00939h.41252Z"/><path d="M751.97904,1111.68725c-10.10309,0-19.16807-2.3188-26.74219-6.74481-7.58753-4.42601-13.6974-10.74884-17.90369-18.75826-4.21969-8.00939-6.32294-17.28203-6.32294-27.82058,0-11.17081,2.10325-20.86542,6.32294-29.08514,4.20629-8.21972,10.10309-14.54258,17.47755-18.96859,7.58753-4.42598,16.22657-6.74481,26.32987-6.74481,10.1165,0,19.38114,2.31883,26.54253,7.16546,7.37446,4.84798,12.84554,11.80311,16.42624,20.65512,3.5807,8.85199,5.05835,19.60086,4.43256,31.82593h-19.80707v-7.1668c0-11.80179-2.31631-20.65377-6.73546-26.34569-4.43276-5.69057-11.16822-8.64034-20.02034-8.64034-9.89023,0-17.26469,3.16142-22.32284,9.48428-5.05835,6.32286-7.58753,15.38517-7.58753,27.18828s2.52918,20.02283,7.58753,26.13404c5.05815,6.11256,12.21974,9.27398,21.69725,9.27398,6.10987,0,11.58095-1.47491,16.01351-4.21568,4.41935-2.73947,8.00005-6.74351,10.52923-12.01343l19.38114,6.11254c-4.00663,9.27396-10.1165,16.22909-18.11655,21.28739-8.01346,5.0583-17.06503,7.58743-26.96866,7.58743l-.21307-.21032ZM715.54608,1063.21158v-15.38652h73.0924v15.38652h-73.0924Z"/><path d="M822.11634,1108.73347v-139.52482h19.80707v139.52482h-19.80707Z"/><path d="M917.13225,1111.68725c-10.1167,0-19.16827-2.3188-26.7558-6.74481-7.58732-4.42601-13.6972-10.74884-17.90369-18.75826-4.21969-8.00939-6.32274-17.28203-6.32274-27.82058,0-11.17081,2.10304-20.86542,6.32274-29.08514,4.20649-8.21972,10.1167-14.54258,17.47776-18.96859,7.58753-4.42598,16.22637-6.74481,26.32967-6.74481,10.1167,0,19.38134,2.31883,26.54273,7.16546,7.37446,4.84798,12.85874,11.80311,16.43944,20.65512,3.5807,8.85199,5.04495,19.60086,4.41935,31.82593h-19.80727v-7.1668c0-11.80179-2.31611-20.65377-6.73546-26.34569-4.41935-5.69057-11.16822-8.64034-20.00673-8.64034-9.90364,0-17.2781,3.16142-22.33645,9.48428-5.04495,6.32286-7.57412,15.38517-7.57412,27.18828s2.52918,20.02283,7.57412,26.13404c5.05835,6.11256,12.21974,9.27398,21.69745,9.27398,6.10987,0,11.59415-1.47491,16.01351-4.21568,4.41935-2.73947,8.00005-6.74351,10.52923-12.01343l19.38114,6.11254c-4.00663,9.27396-10.1165,16.22909-18.11655,21.28739-8.00025,5.0583-17.06523,7.58743-26.96866,7.58743l-.19966-.21032ZM880.47282,1063.21158v-15.38652h73.0924v15.38652h-73.0924Z"/><path d="M986.21762,1108.73616v-102.43163h17.69082v24.8708l-2.52918-3.16144c1.26459-3.37174,2.95511-6.32284,4.84528-9.06231,2.10325-2.74079,4.41935-5.05827,6.94853-6.74483,2.52918-1.89686,5.48428-3.37306,8.63905-4.42598,3.15477-1.05426,6.5358-1.68656,9.90343-1.89686,3.36783-.21032,6.5226,0,9.69077.42062v18.54794c-3.38124-.84259-6.96194-1.05426-11.16822-.84259-4.20629.2103-7.78719,1.68521-11.16822,3.79371-3.15477,2.10718-5.68394,4.63631-7.57412,7.58743-1.90338,2.94977-3.16797,6.32286-4.00663,9.90493-.83866,3.58339-1.26459,7.3771-1.26459,11.59278v51.63711h-20.00693v.21032Z"/><path d="M1086.90428,1111.68725c-7.58753,0-13.91026-1.47623-18.96861-4.21568-5.04495-2.73945-9.05178-6.53316-11.58075-11.17081-2.52918-4.63633-3.99342-9.69461-3.99342-15.38517,0-5.26995.83866-9.69595,2.72884-13.69996,1.90338-4.00404,4.63222-7.16548,8.21291-9.90625,3.5809-2.73947,8.01346-5.0583,13.27147-6.74351,4.63222-1.26456,9.69057-2.52912,15.37451-3.58339,5.69714-1.05426,11.80702-1.89686,18.11655-2.73947,6.32294-.84391,12.64588-1.68653,18.96861-2.74077l-7.1748,4.00536c0-8.00939-1.46425-13.91029-5.04495-17.91564-3.5807-3.79374-9.47771-5.90089-18.11655-5.90089-5.27142,0-10.32957,1.26456-14.74892,3.79371-4.41935,2.52912-7.58753,6.53316-9.47771,12.4354l-18.52928-5.69057c2.51577-8.85201,7.36105-15.80714,14.52265-20.86676,7.16139-5.26862,16.6523-7.79775,28.44612-7.79775,9.05178,0,17.05183,1.47489,24.01356,4.63631,6.73546,3.16144,11.79381,8.00939,14.94858,14.75423,1.69052,3.37174,2.74204,6.95516,2.95511,10.53854.41273,3.79371.62559,7.79775.62559,12.01343v63.01825h-17.47776v-23.39457l3.36783,2.94977c-4.21969,7.79907-9.69057,13.69999-16.22637,17.4937-6.5226,3.79371-14.52265,5.69054-24.21322,5.69054v.42197ZM1090.48497,1095.45814c5.68394,0,10.52923-1.05426,14.53585-2.95109,3.99342-1.89688,7.36126-4.63633,9.67737-7.58743,2.52918-3.16144,4.00663-6.32286,4.84528-9.69461,1.06493-2.95112,1.69052-6.53451,1.90358-10.32822,0-3.79371.21286-6.74351.21286-9.06234l6.5226,2.31883c-6.32294.84262-12.00688,1.89686-17.06503,2.52915-5.04495.84262-9.67737,1.47489-13.89706,2.31751-4.20629.63227-7.78698,1.68653-10.95516,2.52912-2.74204.84394-5.05835,2.10853-7.16139,3.37309-2.10325,1.26456-3.79376,2.94977-5.05835,4.84663s-1.89018,4.21568-1.89018,6.95516c0,2.74079.62559,5.05962,1.89018,7.3771,1.26459,2.31885,3.38104,4.00536,6.10987,5.26995,2.74204,1.26459,6.10987,1.89683,10.54243,1.89683l-.21286.21032Z"/><path d="M1154.95153,1022.32067v-16.01747h69.92403v16.01747h-69.92403ZM1224.87555,1108.73347c-6.5224,1.26459-12.84534,1.89688-18.95521,1.68656-6.10987,0-11.79381-1.47486-16.6391-3.58339-4.84528-2.10716-8.63905-5.69059-10.95516-10.32687-2.10325-4.21568-3.36783-8.64169-3.5807-12.8574,0-4.42598-.21307-9.27264-.21307-14.96321v-90.6285h19.80727v100.32311c0,2.95112.83866,5.69057,1.89018,7.58743,2.31611,4.00404,5.89681,6.11256,10.74209,6.74486,5.05835.63224,10.74229.4206,17.49116-.63229v16.86141l.41252-.2117Z"/><path d="M1288.06412,1111.68725c-10.32936,0-19.16807-2.3188-26.54253-6.95513-7.58753-4.63765-13.27127-10.96049-17.47776-19.18023-4.00663-8.21969-6.10987-17.49368-6.10987-28.03087,0-10.53854,2.10325-20.02283,6.30953-28.24254,4.21969-8.21972,9.90364-14.54258,17.49116-18.96859,7.57392-4.42598,16.21297-6.74481,26.32946-6.74481,10.1033,0,19.16827,2.31883,26.54294,6.95513,7.57412,4.63633,13.27106,10.95919,17.47755,18.96859,4.00663,8.00939,6.11008,17.49368,6.11008,28.03222,0,10.5372-2.10345,20.02148-6.11008,28.24254-4.20649,8.21972-9.90343,14.54256-17.47755,18.96856-7.58753,4.63633-16.43964,6.95513-26.54294,6.95513ZM1288.06412,1092.92901c9.69057,0,17.06523-3.37306,21.91031-9.90625,4.83208-6.53319,7.1618-15.17488,7.1618-25.50175,0-10.32822-2.52918-19.18023-7.37466-25.71339-4.84508-6.32286-12.21974-9.69595-21.91031-9.69595-6.73546,0-12.00668,1.47623-16.42603,4.42601-4.21969,2.95112-7.58753,7.1668-9.69057,12.4354-2.10325,5.26992-3.16817,11.38114-3.16817,18.33629,0,10.74884,2.52918,19.39053,7.37446,25.71339,4.84528,6.53319,12.21974,9.69461,21.69745,9.69461l.42573.21164Z"/><path d="M1360.74399,1108.73616v-102.43163h17.70382v24.8708l-2.52918-3.16144c1.26459-3.37174,2.9419-6.32284,4.84549-9.06231,2.10304-2.74079,4.41935-5.05827,6.94853-6.74483,2.52918-1.89686,5.47067-3.37306,8.63884-4.42598,3.15477-1.05426,6.5224-1.68656,9.90343-1.89686,3.36804-.21032,6.5228,0,9.67757.42062v18.54794c-3.36804-.84259-6.94853-1.05426-11.15502-.84259-4.21949.2103-7.80039,1.68521-11.16802,3.79371-3.15477,2.10718-5.68394,4.63631-7.58753,7.58743-1.89018,2.94977-3.15477,6.32286-3.99322,9.90493-.85186,3.58339-1.26459,7.3771-1.26459,11.59278v51.63711h-20.02013v.21032Z"/><path d="M367.54944,1336.36434v-136.57507h87.20212v18.75829h-67.39505v38.35909h56.02717v18.75829h-56.02717v42.15149h67.39505v18.75824h-87.20212v-.21032Z"/><path d="M469.51368,1336.35637l38.33655-51.84744-37.48449-50.58285h23.58763l25.49101,35.19768,25.27815-35.19768h23.58763l-37.49789,50.58285,38.33635,51.84744h-23.58743l-26.1168-36.25062-26.32967,36.25062h-23.60103Z"/><path d="M624.96292,1339.31813c-10.52923,0-19.38134-2.31885-26.7556-6.95513-7.37446-4.63765-12.84554-11.17086-16.85217-19.18026-3.78036-8.21972-5.89701-17.49365-5.89701-27.82058,0-10.53852,2.11665-19.81118,6.11008-28.03222,4.00663-8.21972,9.69057-14.54256,17.06503-19.17889,7.37446-4.63628,16.21317-6.95513,26.54253-6.95513,11.16822,0,20.64593,2.73945,28.64598,8.43004,8.00005,5.48027,13.0584,13.27797,15.58758,22.76228l-19.80727,5.69059c-1.89018-5.69059-5.25801-10.1166-9.67737-13.48834-4.43256-3.16142-9.49091-4.84798-15.38771-4.84798-6.5226,0-11.79381,1.47623-16.00031,4.63765-4.21949,3.16142-7.16139,7.16546-9.27784,12.64573-2.10325,5.26862-3.15477,11.38114-3.15477,18.12599,0,10.5372,2.52918,19.17889,7.16139,25.71205,4.63242,6.53448,11.79381,9.69595,21.27152,9.69595,6.32274,0,11.59415-1.47623,15.58737-4.42601,4.00683-2.95114,6.96194-7.16683,9.06498-12.64573l20.00693,4.84666c-3.36783,9.90623-8.85191,17.70397-16.6391,22.97392-7.80039,5.26857-17.06503,8.00939-28.02019,8.00939h.42593Z"/><path d="M689.20321,1336.36434v-136.57507h17.70382v73.76715h2.31631v62.80793h-20.02013ZM761.24368,1336.36434v-50.37253c0-4.00404-.42593-8.00939-1.05152-12.22376-.62559-4.21568-1.89018-8.00939-3.79376-11.80311-1.89018-3.58339-4.41935-6.53453-7.78698-8.64169-3.36783-2.10716-7.80039-3.37174-13.27147-3.37174-3.5807,0-6.94833.63229-10.1165,1.68519-3.15477,1.26459-5.89681,2.95114-8.21312,5.69191-2.31611,2.73945-4.20629,6.11119-5.68394,10.32687-1.26438,4.21568-2.10304,9.48431-2.10304,15.38517l-12.21974-4.63628c0-9.27398,1.67711-17.4937,5.25781-24.65916,3.38124-7.16546,8.42618-12.64573,14.96199-16.65108,6.5226-4.00404,14.32299-5.90087,23.58763-5.90087,7.16139,0,13.0584,1.05421,17.90369,3.37174,4.84528,2.3188,8.63884,5.26995,11.79381,9.06366,2.9549,3.79371,5.27121,7.7977,6.96173,12.01343,1.67711,4.42596,2.72884,8.64164,3.15477,12.856.62559,4.21568.83866,7.79907.83866,10.96054v56.90569h-20.22Z"/><path d="M836.42592,1339.31813c-7.57412,0-13.89706-1.47623-18.95521-4.21568-5.05835-2.74082-9.05178-6.53453-11.58095-11.17081-2.52918-4.63633-4.00663-9.69463-4.00663-15.38517,0-5.26995.83866-9.69595,2.74204-13.69999,1.89018-4.00404,4.63242-7.16546,8.21312-9.90628,3.5807-2.73945,8.00005-5.05825,13.27127-6.74349,4.63242-1.26454,9.69077-2.52912,15.37451-3.58339,5.68394-1.05426,11.79381-1.89683,18.11675-2.74077,6.32294-.84262,12.63247-1.68524,18.95521-2.7395l-7.16139,4.00541c0-8.00939-1.47765-13.91031-5.05835-17.91567-3.5807-3.79371-9.4775-5.90087-18.11655-5.90087-5.25801,0-10.31636,1.26454-14.73572,3.79371-4.43256,2.52912-7.58732,6.53316-9.4775,12.43535l-18.54268-5.69186c2.52918-8.85201,7.37446-15.80714,14.53585-20.86544,7.1616-5.26862,16.6391-7.79775,28.43291-7.79775,9.06498,0,17.06503,1.47491,24.01356,4.63633,6.74887,3.16142,11.79381,8.00939,14.96199,14.7542,1.67711,3.37174,2.72884,6.95513,2.9417,10.53857.42593,3.79371.639,7.79775.639,12.01343v63.01825h-17.49096v-23.39594l3.38104,2.95114c-4.21969,7.79775-9.69077,13.69994-16.22657,17.49365-6.5224,3.79371-14.53585,5.69059-24.22642,5.69059v.42197ZM839.79355,1323.08901c5.69735,0,10.54263-1.05426,14.53606-2.95109,4.00663-1.89688,7.37446-4.63633,9.69057-7.58743,2.52918-3.16147,4.00663-6.32289,4.84528-9.69463,1.05152-2.95109,1.69052-6.53448,1.90358-10.32819,0-3.79376.19966-6.74354.19966-9.06234l6.5358,2.3188c-6.32294.84262-12.00688,1.89688-17.06503,2.52918-5.05835.84257-9.69057,1.47486-13.89706,2.31748-4.21969.63229-7.80039,1.68656-10.95516,2.52912-2.74204.84394-5.05835,2.10853-7.16139,3.37311-2.10325,1.26454-3.79376,2.94977-5.05835,4.8466-1.26459,1.89688-1.89018,4.21568-1.89018,6.95518,0,2.74077.62559,5.05825,1.89018,7.3771,1.26459,2.3188,3.36783,4.00404,6.10987,5.26857,2.74204,1.26459,6.10987,1.8982,10.52923,1.8982l-.21307.21032Z"/><path d="M917.53157,1336.36703v-102.43166h17.69062v29.50713h2.31611v72.92453h-20.00673ZM989.35918,1336.36703v-50.37258c0-4.00404-.42593-8.00939-1.05152-12.22376-.639-4.21568-1.90358-8.00939-3.79376-11.80311-1.90358-3.58339-4.43276-6.53448-7.80039-8.64169-3.36783-2.10716-7.78719-3.37174-13.27147-3.37174-3.5807,0-6.94853.63229-10.1033,1.68524-3.16797,1.26454-5.89681,2.95109-8.21291,5.69054-2.32951,2.74082-4.21969,6.11256-5.69735,10.32825-1.26459,4.21568-2.10304,9.48426-2.10304,15.38517l-12.21974-4.63633c0-9.27398,1.69052-17.49365,5.27121-24.65916,3.36763-7.16678,8.42598-12.64567,14.94858-16.65108,6.5358-4.00399,14.32299-5.90087,23.60083-5.90087,7.16139,0,13.0584,1.05426,17.90369,3.37174,4.84528,2.31885,8.63905,5.26995,11.79381,9.06366,2.9417,3.79371,5.27121,7.79775,6.94853,12.01343,1.69052,4.42601,2.74204,8.64169,3.15477,12.85605.63879,4.21568.85186,7.79907.85186,10.96049v56.90574h-20.2198Z"/><path d="M1077.01384,1339.31813c-9.4775,0-17.69062-2.31885-24.65235-7.16678-6.94853-4.84798-12.20654-11.17086-16.00031-19.39058-3.79356-8.21972-5.68374-17.49233-5.68374-27.60888s1.89018-19.60223,5.68374-27.6103c3.79376-8.21967,9.26484-14.54256,16.21317-19.18021,6.94853-4.63633,15.37451-7.16546,24.86562-7.16546,9.4775,0,17.69062,2.31885,24.42608,7.16546,6.74887,4.84798,11.59415,11.17081,14.96199,19.39053,3.36763,8.21972,5.04495,17.28338,5.04495,27.61025s-1.67732,19.39058-5.04495,27.61025c-3.36783,8.21972-8.42618,14.54261-15.17485,19.39058-6.5226,4.8466-14.94858,7.16546-24.63935,7.16546v-.21032ZM1078.70456,1384.84268c-5.48428,0-10.7557-.84394-16.01351-2.52912-5.05835-1.68656-9.90364-4.21568-14.10992-7.58743-4.21969-3.37306-7.80059-7.3771-10.54263-12.22508l18.32962-9.27266c2.31611,4.42601,5.27121,7.58743,9.47771,9.48431,4.21969,2.10716,8.42598,2.94977,13.0584,2.94977,5.69714,0,10.54243-1.05289,14.32279-2.94977,3.79376-1.89688,6.96194-5.0583,9.06498-8.85201,2.10325-4.00536,2.9419-8.85201,2.9419-14.7542v-28.66319h2.31611v-76.29627h17.49096v105.17111c0,2.73945,0,5.26857-.21286,7.79775,0,2.52912-.62559,4.84798-1.05172,7.3771-1.47745,6.95513-4.21969,12.64573-8.21291,17.07173-4.00683,4.42601-9.27804,7.79775-15.58758,10.11655-6.32294,2.10721-13.48433,3.37174-21.27132,3.37174v-.21032ZM1079.75608,1321.40246c6.5224,0,11.79381-1.47486,16.0001-4.63628,4.21969-3.16147,7.16139-7.37715,9.06498-12.85737,1.89018-5.47895,2.72884-11.80179,2.72884-18.75692s-1.05152-13.27802-2.9417-18.75829c-1.90358-5.48022-4.84549-9.69458-8.85211-12.64573-3.99342-2.95109-9.05157-4.63765-15.37451-4.63765-6.5226,0-12.00668,1.68656-16.21317,4.84798-4.21969,3.16142-7.37446,7.58743-9.4775,13.06769-2.11665,5.48027-3.16817,11.59146-3.16817,18.12599,0,6.53316,1.05152,12.856,3.16817,18.33627,2.10304,5.4789,5.04495,9.9049,9.26464,13.06632,4.20629,3.16147,9.4775,4.84798,15.80044,4.84798Z"/><path d="M1198.95861,1339.31813c-10.1167,0-19.16827-2.31885-26.7558-6.74481-7.58732-4.42601-13.6972-10.74889-17.90369-18.75829-4.21949-8.00939-6.32274-17.28201-6.32274-27.82058,0-11.17081,2.10325-20.86539,6.32274-29.08511,4.20649-8.21972,10.1033-14.54261,17.47776-18.96861,7.58753-4.42596,16.22657-6.74481,26.32967-6.74481,10.1167,0,19.38134,2.31885,26.54273,7.16546,7.37446,4.84798,12.84534,11.80311,16.42624,20.65512,3.5807,8.85201,5.05815,19.60086,4.43256,31.82593h-19.80707v-7.16678c0-11.80179-2.31631-20.6538-6.73567-26.34571-4.41935-5.69054-11.16802-8.64032-20.00673-8.64032-9.90364,0-17.49116,3.16142-22.33645,9.48426-5.05815,6.32289-7.57412,15.38517-7.57412,27.18828s2.51597,20.02283,7.57412,26.13407c5.05835,6.11251,12.21974,9.27393,21.69745,9.27393,6.10987,0,11.58075-1.47486,16.01351-4.21568,4.41935-2.73945,8.00005-6.74349,10.52923-12.01343l19.38114,6.11256c-4.00663,9.27398-10.1165,16.22911-18.11655,21.28741-8.00005,5.05825-17.06503,7.58743-26.96866,7.58743l-.19966-.21032ZM1162.51224,1290.84243v-15.38649h73.0922v15.38649h-73.0922Z"/></svg>