<?xml version="1.0" encoding="UTF-8"?><svg id="Layer_1" xmlns="http://www.w3.org/2000/svg" viewBox="0 0 1765.89239 616.8672"><path d="M594.41251,250.75085L365.07672,21.18954l-57.33422,57.39038,229.3358,229.56151,57.33422-57.39059Z"/><path d="M78.33852,308.2911l229.38245-229.5156-57.34548-57.37894L20.993,250.91281l57.34552,57.37829Z"/><path d="M21.08282,365.62119l229.38183,229.51621,57.34548-57.37931-229.38183-229.51517-57.34549,57.37827Z"/><path d="M537.18285,308.26547l-229.38193,229.51621,57.34548,57.37931,229.38193-229.51621-57.34548-57.37931Z"/><path d="M1167.99345,250.80108L938.65351,21.23959l-57.33317,57.39045,229.33478,229.56162,57.33833-57.39059Z"/><path d="M651.93633,308.23164l229.38197-229.51622-57.34552-57.37894-229.38193,229.51585,57.34548,57.37931Z"/><path d="M651.91585,595.13024l229.38197-229.51621-57.34552-57.37829-229.38193,229.51519,57.34548,57.37931Z"/><path d="M1168.01394,537.71504l-229.3799-229.51621-57.34544,57.37829,229.37677,229.51621,57.34857-57.37829Z"/><path d="M1167.96272,78.72271l229.37365,229.51611,57.34857-57.37931-229.38397-229.51581-57.33825,57.379Z"/><path d="M1684.05874,21.31688l-229.38397,229.51599,57.34857,57.37931,229.38397-229.51632-57.34857-57.37897Z"/><path d="M1741.31503,537.65459l-229.38397-229.51623-57.34857,57.37933,229.38397,229.51621,57.34857-57.37931Z"/><path d="M1225.20877,595.19073l229.38405-229.51625-57.33841-57.37929-229.38397,229.51623,57.33833,57.37931Z"/></svg>