<?xml version="1.0" encoding="UTF-8"?><svg id="Layer_1" xmlns="http://www.w3.org/2000/svg" viewBox="0 0 2745 616.8672"><path d="M1969.18273,192.50645c-10.54713,0-19.46471-2.27139-26.92665-6.81622-7.46194-4.54381-12.97652-11.03512-17.02515-19.31197-3.89504-8.27685-5.84256-17.69041-5.84256-28.56357,0-10.8742,1.94752-20.44909,5.84256-28.56379,3.88471-8.27685,9.5632-14.6062,17.02515-19.31268,7.46194-4.54422,16.37952-6.97859,26.92665-6.97859,10.53696,0,19.46471,2.27211,26.76274,6.97859,7.46194,4.54412,13.14043,11.03583,17.02515,19.31268,3.89504,8.27694,5.8424,17.68959,5.8424,28.56379,0,10.87316-1.94736,20.44868-5.8424,28.56357-3.88471,8.27685-9.5632,14.6062-17.02515,19.31197-7.4621,4.54483-16.37952,6.81622-26.76274,6.81622ZM1969.18273,177.90025c7.46194,0,13.62215-1.46062,18.65501-4.86874,4.85847-3.40812,8.58945-8.11388,11.19291-14.11932,2.42924-6.00443,3.73097-13.14558,3.73097-21.09751,0-7.95296-1.30173-15.09349-3.73097-21.09833-2.43956-6.00484-6.17053-10.71122-11.19291-14.11933-4.8688-3.40811-11.19307-5.0311-18.65501-5.19335-7.46194,0-13.62215,1.46052-18.65486,4.86873-5.02254,3.40811-8.59977,8.11459-11.19307,14.11943-2.42924,6.1671-3.73097,13.14599-3.73097,21.09792,0,8.11489,1.13783,15.09307,3.56706,21.09853,2.4394,6.00442,6.17037,10.71121,11.19291,14.11932,5.03271,3.40812,11.19291,5.03068,18.65501,5.03068l.16391.16195Z"/><path d="M2035.37709,225.28584v-113.92878h13.63232v56.80265h1.78361v57.12613h-15.41593ZM2072.35883,192.50338c-7.62585,0-13.95013-1.78554-18.97267-5.51859-5.19662-3.73201-8.92774-8.60075-11.68496-14.93009-2.75721-6.32936-3.88471-13.30856-3.88471-21.26049s1.29157-14.93112,3.88471-21.26048c2.60347-6.32936,6.48834-11.19809,11.52105-14.93082,5.03271-3.73273,11.35698-5.51787,18.81892-5.51787,7.45178,0,13.78622,1.78513,19.13673,5.51787,5.35036,3.57037,9.5632,8.60157,12.48433,14.76887,2.92128,6.32935,4.38708,13.30753,4.38708,21.26048,0,7.95192-1.4658,14.9301-4.38708,21.25945-2.92112,6.32936-6.9699,11.19809-12.32042,14.93114-5.36068,3.73302-11.68496,5.51755-18.98299,5.51755v.16297ZM2070.25773,178.70794c4.85847,0,8.91742-1.29764,12.15635-3.73201,3.24925-2.43437,5.51458-5.84248,7.14429-10.06239,1.61954-4.21991,2.42924-8.92567,2.42924-14.11933s-.80969-9.90044-2.42924-13.95738c-1.62971-4.2199-4.05895-7.46504-7.3082-10.06239-3.23909-2.43436-7.45178-3.73242-12.48448-3.73242-4.70473,0-8.75351,1.1361-11.8387,3.57047-3.08534,2.27241-5.35051,5.68053-6.81632,9.73747-1.45548,4.21991-2.26517,9.08864-2.26517,14.44425s.64578,10.22435,2.10126,14.44426c1.46564,4.21889,3.73097,7.46505,6.98022,9.89941,3.23893,2.43437,7.29788,3.57006,12.33074,3.57006Z"/><path d="M2161.07243,192.51157c-7.77975,0-14.75998-1.78554-20.59221-5.19364-5.84256-3.40812-10.54729-8.27686-13.78622-14.44426-3.24925-6.1674-4.8688-13.30753-4.8688-21.42243,0-8.60177,1.61954-16.06682,4.8688-22.39617,3.23893-6.32967,7.77975-11.1984,13.45824-14.60652,5.8424-3.40822,12.48433-5.19335,20.2744-5.19335s14.92389,1.78524,20.43847,5.51797c5.67833,3.73273,9.89118,9.08823,12.64839,15.90446,2.75721,6.81623,3.89504,15.09307,3.403,24.50664h-15.24169v-5.51858c0-9.08762-1.78345-15.90384-5.18645-20.28571-3.41332-4.38288-8.59977-6.65448-15.41593-6.65448-7.61584,0-13.29433,2.43457-17.18921,7.3033-3.89504,4.86874-5.84256,11.84691-5.84256,20.93556s1.94752,15.418,5.84256,20.12376c3.89488,4.70678,9.40946,7.14115,16.70734,7.14115,4.70473,0,8.91758-1.13569,12.32057-3.24616,3.41316-2.10944,6.17037-5.19264,8.11789-9.2506l14.92404,4.70678c-3.08534,7.14115-7.79007,12.49676-13.95028,16.39175-6.17053,3.89498-13.14043,5.84248-20.76644,5.84248l-.16391-.16195ZM2133.01828,155.18427v-11.84794h56.28254v11.84794h-56.28254Z"/><path d="M2214.26962,190.23917v-78.87411h13.63247v22.72069h1.78361v56.15342h-15.41608ZM2269.74247,190.23917v-38.78793c0-3.08319-.31765-6.1674-.80969-9.41254-.48172-3.24616-1.45548-6.1674-2.92128-9.08865-1.45548-2.75928-3.403-5.03171-5.99614-6.65427-2.5933-1.62257-6.00662-2.59631-10.21931-2.59631-2.75721,0-5.35051.48687-7.78992,1.29764-2.42924.97375-4.54082,2.27242-6.32427,4.38288-1.78345,2.10944-3.23893,4.70577-4.37676,7.95193-.97376,3.24616-1.61939,7.3031-1.61939,11.84691l-9.40962-3.57006c0-7.14115,1.30189-13.47051,4.0591-18.98806,2.59315-5.51818,6.47786-9.73778,11.51072-12.82138,5.03271-3.0835,11.02885-4.54412,18.16282-4.54412,5.51458,0,10.05525.81149,13.78622,2.59673,3.73097,1.78523,6.65225,4.05724,9.09181,6.97858,2.26517,2.92124,4.04878,6.00464,5.35051,9.2508,1.29141,3.40811,2.10111,6.65427,2.42924,9.89942.49188,3.24616.64563,6.00545.64563,8.43982v43.81861h-15.56967Z"/><path d="M2326.025,190.23711l34.22468-105.16548h21.89394l34.22468,105.16548h-15.8978l-31.46731-95.91478h3.89504l-31.1395,95.91478h-15.89764.16391ZM2343.70626,166.54227v-14.28128h54.81689v14.28128h-54.81689Z"/><path d="M2429.84704,190.23711v-105.16548h15.25186v105.16548h-15.25186Z"/><path d="M1917.94322,365.50741l34.22453-105.16565h21.90427l34.22453,105.16565h-15.89764l-31.46731-95.91506h3.89488l-31.14966,95.91506h-15.88732.15374ZM1935.78839,341.81258v-14.28127h54.82706v14.28127h-54.82706Z"/><path d="M2053.0377,367.78189c-8.10773,0-14.92389-1.78553-20.60238-5.3556-5.67849-3.57109-9.89134-8.60176-12.97652-14.76918-2.92128-6.32934-4.54066-13.4705-4.54066-21.42243,0-8.11488,1.61939-15.25501,4.70473-21.58437,3.08519-6.33037,7.46194-11.19911,13.14043-14.76918,5.67849-3.57005,12.48448-5.3556,20.43847-5.3556,8.58945,0,15.88732,2.10943,22.05785,6.49129,6.16021,4.21992,10.05525,10.22436,12.16667,17.52745l-15.25186,4.38287c-1.45548-4.38186-4.04878-7.78998-7.46194-10.38731-3.403-2.43438-7.29803-3.73304-11.8387-3.73304-5.03286,0-9.08149,1.13673-12.33074,3.57109-3.23909,2.43438-5.66832,5.51755-7.13397,9.73748-1.45548,4.2199-2.42924,8.76372-2.42924,13.95738,0,8.11387,1.94736,14.76815,5.51442,19.79882,3.56706,5.03173,9.08149,7.46609,16.37952,7.46609,4.86864,0,8.91742-1.13571,12.00261-3.40812,3.08534-2.27242,5.35051-5.51859,6.97006-9.73748l15.41593,3.73203c-2.5933,7.628-6.81632,13.63349-12.81246,17.6904-6.00647,4.05695-13.14043,6.1674-21.57613,6.1674h.16391Z"/><path d="M2136.57486,367.78189c-8.10757,0-14.92389-1.78553-20.59205-5.3556-5.67849-3.57109-9.9015-8.60176-12.97652-14.76918-2.92128-6.32934-4.54066-13.4705-4.54066-21.42243,0-8.11488,1.61939-15.25501,4.69441-21.58437,3.08519-6.33037,7.46194-11.19911,13.14043-14.76918,5.67849-3.57005,12.4948-5.3556,20.43847-5.3556,8.59977,0,15.89764,2.10943,22.05801,6.49129,6.17037,4.21992,10.05509,10.22436,12.00261,17.52745l-15.24169,4.38287c-1.46564-4.38186-4.05895-7.78998-7.46194-10.38731-3.41332-2.43438-7.29803-3.73304-11.8387-3.73304-5.03271,0-9.09181,1.13673-12.33074,3.57109-3.23893,2.43438-5.51442,5.51755-7.13397,9.73748-1.62971,4.05693-2.43956,8.76372-2.43956,13.95738,0,8.11387,1.94752,14.76815,5.51458,19.79882,3.57723,5.03173,9.09165,7.46609,16.38969,7.46609,4.85847,0,8.91742-1.13571,12.00276-3.40812,3.07486-2.27242,5.35036-5.51859,6.9699-9.73748l15.40576,3.73203c-2.5933,7.628-6.80599,13.63349-12.81246,17.6904-5.9963,4.05695-13.14059,6.1674-21.56597,6.1674h.31765Z"/><path d="M2221.24985,367.78189c-7.7796,0-14.75982-1.78553-20.59205-5.19364-5.84256-3.40812-10.54729-8.27684-13.78622-14.44426-3.24925-6.1674-4.8688-13.30753-4.8688-21.42243,0-8.60176,1.61954-16.06681,4.8688-22.39617,3.23893-6.32936,7.7796-11.19809,13.45809-14.60621,5.84256-3.4081,12.4948-5.19364,20.27456-5.19364,7.78992,0,14.92389,1.78554,20.43831,5.51755,5.67849,3.73304,9.89134,9.08864,12.64855,15.90488,2.75721,6.81622,3.89504,15.09307,3.41316,24.50664h-15.25186v-5.51859c0-9.08762-1.78361-15.90384-5.18645-20.28674-3.41332-4.38186-8.59977-6.65325-15.41608-6.65325-7.61569,0-13.29418,2.43436-17.18906,7.3031-3.89504,4.86874-5.84256,11.84691-5.84256,20.93555s1.94752,15.418,5.84256,20.12377c3.89488,4.7068,9.40946,7.14116,16.70734,7.14116,4.70473,0,8.91758-1.13571,12.33074-3.24616,3.403-2.10945,6.16021-5.19265,8.10773-9.2506l14.92389,4.70678c-3.08519,7.14114-7.78992,12.49674-13.95013,16.39174-6.17053,3.895-13.14043,5.84248-20.76644,5.84248l-.16407-.16195ZM2193.1957,330.4546v-11.84795h56.28269v11.84795h-56.28269Z"/><path d="M2275.25705,365.50741v-107.43706h15.25186v107.43706h-15.25186Z"/><path d="M2348.42131,367.78189c-7.79007,0-14.75998-1.78553-20.60253-5.19364-5.8424-3.40812-10.54713-8.27684-13.78622-14.44426-3.24925-6.1674-4.86864-13.30753-4.86864-21.42243,0-8.60176,1.61939-16.06681,4.86864-22.39617,3.23909-6.32936,7.79007-11.19809,13.45824-14.60621,5.84256-3.4081,12.49465-5.19364,20.2744-5.19364,7.79007,0,14.92404,1.78554,20.43847,5.51755,5.67849,3.73304,9.9015,9.08864,12.65871,15.90488,2.75721,6.81622,3.88471,15.09307,3.403,24.50664h-15.25202v-5.51859c0-9.08762-1.78345-15.90384-5.18645-20.28674-3.403-4.38186-8.59977-6.65325-15.4056-6.65325-7.62601,0-13.3045,2.43436-17.19954,7.3031-3.88471,4.86874-5.83223,11.84691-5.83223,20.93555s1.94752,15.418,5.83223,20.12377c3.89504,4.7068,9.40946,7.14116,16.70749,7.14116,4.70473,0,8.92774-1.13571,12.33074-3.24616,3.403-2.10945,6.16021-5.19265,8.10773-9.2506l14.92389,4.70678c-3.08519,7.14114-7.78992,12.49674-13.95013,16.39174-6.16036,3.895-13.14059,5.84248-20.76644,5.84248l-.15374-.16195ZM2320.19277,330.4546v-11.84795h56.28269v11.84795h-56.28269Z"/><path d="M2401.6185,365.50948v-78.87452h13.62231v19.15104l-1.94752-2.43438c.97376-2.59631,2.27549-4.86872,3.73097-6.97817,1.61954-2.11047,3.403-3.89498,5.35051-5.19366,1.94752-1.46062,4.22301-2.59733,6.65225-3.4081,2.42924-.8118,5.03271-1.29868,7.62585-1.46062,2.5933-.16195,5.02254,0,7.4621.32389v14.2823c-2.60363-.64881-5.36084-.8118-8.59977-.64881-3.23893.16193-5.9963,1.29765-8.59977,2.92124-2.42924,1.62257-4.37676,3.57005-5.83223,5.84248-1.46564,2.27139-2.4394,4.86874-3.08519,7.62701-.64578,2.75928-.97376,5.68052-.97376,8.92669v39.76167h-15.40576v.16195Z"/><path d="M2479.14935,367.78189c-5.84256,0-10.7112-1.13673-14.60623-3.24616-3.88471-2.10943-6.97006-5.03067-8.91742-8.60176-1.94752-3.57007-3.07502-7.46505-3.07502-11.84691,0-4.05797.64578-7.46609,2.10126-10.54926,1.46564-3.08319,3.56691-5.51757,6.32412-7.62802,2.75737-2.10945,6.17053-3.895,10.21931-5.19265,3.56691-.97374,7.46194-1.94748,11.8387-2.75928,4.38692-.8118,9.09165-1.46062,13.95013-2.10945,4.8688-.64983,9.73759-1.29867,14.60623-2.11045l-5.52475,3.08421c0-6.1674-1.1275-10.71122-3.88471-13.79543-2.75721-2.92126-7.29803-4.54381-13.95013-4.54381-4.0591,0-7.95398.97374-11.35698,2.92124-3.403,1.94748-5.84256,5.03067-7.29803,9.57552l-14.26794-4.38186c1.9372-6.81624,5.66817-12.17183,11.18275-16.06785,5.51442-4.05695,12.82262-6.00443,21.90411-6.00443,6.97006,0,13.13027,1.13569,18.49095,3.57005,5.18645,2.43438,9.08149,6.1674,11.51072,11.36107,1.30173,2.59631,2.11143,5.35562,2.27549,8.1149.31781,2.92124.48172,6.00443.48172,9.2506v48.52538h-13.45824v-18.01431l2.5933,2.27139c-3.24925,6.00545-7.46194,10.54928-12.49465,13.47052-5.02254,2.92124-11.18275,4.38184-18.64469,4.38184v.32493ZM2481.90657,355.28513c4.37676,0,8.10773-.8118,11.19291-2.2724,3.07502-1.46064,5.66832-3.57007,7.45178-5.84248,1.94752-2.43438,3.08519-4.86874,3.73097-7.46505.82002-2.27242,1.30173-5.03171,1.4658-7.95295,0-2.92124.16391-5.19265.16391-6.97819l5.02254,1.78554c-4.8688.64883-9.24555,1.46062-13.14043,1.9475-3.88471.64883-7.45178,1.13569-10.70103,1.78453-3.23893.48686-5.99614,1.29867-8.4357,1.94748-2.11143.64985-3.89504,1.62361-5.51442,2.59735-1.61954.97374-2.92128,2.27139-3.89504,3.73201s-1.45548,3.24616-1.45548,5.35562c0,2.11047.48172,3.89601,1.45548,5.68052.97376,1.78556,2.60347,3.08421,4.70473,4.05797,2.11143.97376,4.70473,1.4606,8.11789,1.4606l-.16391.16195Z"/><path d="M2531.54718,298.96773v-12.33379h53.84298v12.33379h-53.84298ZM2585.39015,365.50741c-5.02238.97376-9.89118,1.46064-14.59591,1.29868-4.70473,0-9.08149-1.13567-12.81246-2.75928-3.73097-1.62255-6.65225-4.38188-8.4357-7.95191-1.61954-3.24616-2.5933-6.65428-2.75721-9.90047,0-3.4081-.16407-7.14013-.16407-11.52198v-69.78586h15.25202v77.25091c0,2.27242.64578,4.38186,1.45548,5.84248,1.78345,3.08319,4.54066,4.7068,8.27164,5.19368,3.89504.48684,8.27179.32387,13.46856-.48688v12.98364l.31765-.16301Z"/><path d="M2634.04668,367.78189c-7.95383,0-14.75982-1.78553-20.43831-5.3556-5.84256-3.57109-10.21915-8.43981-13.45824-14.76918-3.08519-6.32934-4.70473-13.4705-4.70473-21.58437,0-8.1149,1.61954-15.418,4.85847-21.74736,3.24925-6.32936,7.62601-11.19809,13.46856-14.60621,5.83208-3.4081,12.48433-5.19364,20.27424-5.19364,7.77975,0,14.75998,1.78554,20.43862,5.3556,5.83223,3.57007,10.219,8.43881,13.45809,14.60621,3.08519,6.1674,4.70489,13.4705,4.70489,21.5854,0,8.11387-1.6197,15.41696-4.70489,21.74736-3.23909,6.32936-7.62585,11.19808-13.45809,14.60619-5.84256,3.57007-12.65887,5.3556-20.43862,5.3556ZM2634.04668,353.33765c7.46194,0,13.14059-2.59733,16.8714-7.62802,3.72081-5.03069,5.51474-11.68497,5.51474-19.63689,0-7.95295-1.94752-14.76918-5.67865-19.79986-3.73081-4.86874-9.40946-7.46609-16.8714-7.46609-5.18645,0-9.2454,1.13673-12.64839,3.40812-3.24925,2.27242-5.84256,5.51859-7.46194,9.57552-1.61954,4.05795-2.43956,8.76372-2.43956,14.11933,0,8.27684,1.94752,14.93112,5.67849,19.79986,3.73097,5.03069,9.40946,7.46505,16.70749,7.46505l.32782.16297Z"/><path d="M2690.01172,365.50948v-78.87452h13.63232v19.15104l-1.94752-2.43438c.97376-2.59631,2.26533-4.86872,3.73113-6.97817,1.61939-2.11047,3.403-3.89498,5.35051-5.19366,1.94752-1.46062,4.21253-2.59733,6.65209-3.4081,2.42924-.8118,5.02238-1.29868,7.62585-1.46062,2.59346-.16195,5.0227,0,7.45193.32389v14.2823c-2.59346-.64881-5.35051-.8118-8.5896-.64881-3.2491.16193-6.00647,1.29765-8.59961,2.92124-2.42924,1.62257-4.37676,3.57005-5.84256,5.84248-1.45548,2.27139-2.42924,4.86874-3.07486,7.62701-.65595,2.75928-.97376,5.68052-.97376,8.92669v39.76167h-15.41593v.16195Z"/><path d="M1925.23093,540.78799v-105.16569h67.14748v14.44428h-51.89561v29.53731h43.1421v14.44428h-43.1421v32.45754h51.89561v14.44424h-67.14748v-.16195Z"/><path d="M2003.74556,540.78185l29.51995-39.92362-28.86385-38.94986h18.16297l19.62862,27.10295,19.46471-27.10295h18.16297l-28.87417,38.94986,29.5198,39.92362h-18.16282l-20.11049-27.91374-20.2744,27.91374h-18.17329Z"/><path d="M2123.44475,543.06247c-8.10773,0-14.92404-1.78556-20.60238-5.3556-5.67849-3.57109-9.89134-8.6018-12.97652-14.7692-2.91096-6.32936-4.54082-13.47048-4.54082-21.42243,0-8.11488,1.62987-15.25503,4.70489-21.5854,3.08519-6.32936,7.46194-11.19808,13.14043-14.76815,5.67849-3.57003,12.48448-5.3556,20.43831-5.3556,8.59977,0,15.8978,2.10943,22.05801,6.49131,6.16021,4.21992,10.05525,10.22432,12.00276,17.52743l-15.25202,4.38188c-1.45548-4.38188-4.04878-7.79-7.45178-10.38631-3.41316-2.43436-7.3082-3.73304-11.84886-3.73304-5.02254,0-9.08149,1.13673-12.32057,3.57109-3.2491,2.43436-5.51442,5.51755-7.14413,9.73748-1.61954,4.05695-2.42924,8.76372-2.42924,13.9574,0,8.11387,1.94752,14.76815,5.51442,19.79882,3.56706,5.03169,9.08149,7.46609,16.37952,7.46609,4.86864,0,8.92774-1.13673,12.00261-3.40812,3.08534-2.27244,5.36084-5.51861,6.98022-9.73748l15.40576,3.73203c-2.5933,7.628-6.81616,13.63243-12.81246,17.6904-6.00647,4.05691-13.14043,6.1674-21.57613,6.1674h.32798Z"/><path d="M2172.91113,540.78799v-105.16569h13.63232v56.80226h1.78361v48.36343h-15.41593ZM2228.38382,540.78799v-38.78791c0-3.08319-.32798-6.1674-.80969-9.41255-.48172-3.24616-1.45548-6.1674-2.92128-9.08864-1.45548-2.75928-3.403-5.03173-5.99614-6.65428-2.5933-1.62255-6.00647-2.59631-10.21931-2.59631-2.75721,0-5.35036.48688-7.78992,1.29763-2.42924.97376-4.54066,2.27244-6.32427,4.38289-1.78345,2.10943-3.23893,4.70575-4.37676,7.95191-.9736,3.24616-1.61939,7.30312-1.61939,11.84691l-9.40946-3.57003c0-7.14116,1.29141-13.47052,4.04862-18.98807,2.60363-5.51755,6.48834-9.73748,11.52105-12.82169,5.02254-3.08319,11.029-4.54379,18.16297-4.54379,5.51442,0,10.05525.81177,13.78622,2.59631,3.73097,1.78553,6.65209,4.05797,9.08149,6.97921,2.27534,2.92124,4.05895,6.00439,5.36068,9.2506,1.29141,3.40808,2.10126,6.65424,2.42924,9.89939.48172,3.24616.64578,6.00545.64578,8.43985v43.81858h-15.56983Z"/><path d="M2286.27573,543.06247c-5.83223,0-10.70103-1.13673-14.59591-3.24616-3.89504-2.11049-6.97006-5.03173-8.91758-8.60176-1.94752-3.57007-3.08519-7.46507-3.08519-11.84691,0-4.05797.64578-7.46609,2.11143-10.54928,1.45548-3.08319,3.56706-5.51755,6.32427-7.62804,2.75721-2.10943,6.16021-3.89496,10.21915-5.19263,3.56706-.97372,7.4621-1.94748,11.8387-2.75928,4.37676-.8118,9.08149-1.4606,13.95028-2.11045,4.8688-.64883,9.72727-1.29767,14.59591-2.10947l-5.51442,3.08425c0-6.1674-1.13783-10.71123-3.89504-13.79544-2.75721-2.92124-7.29788-4.54379-13.95013-4.54379-4.04878,0-7.94382.97372-11.34681,2.92124-3.41316,1.94748-5.8424,5.03067-7.29788,9.57548l-14.27826-4.38286c1.94752-6.81624,5.67849-12.17183,11.19291-16.06683,5.51458-4.05695,12.81246-6.00443,21.89394-6.00443,6.98022,0,13.14043,1.13571,18.49095,3.57007,5.19677,2.43436,9.08149,6.1674,11.52105,11.36105,1.29141,2.59631,2.10126,5.3556,2.26517,8.11492.32798,2.92124.49204,6.00443.49204,9.2506v48.52538h-13.46841v-18.01537l2.60347,2.27244c-3.24925,6.00443-7.4621,10.54924-12.4948,13.47048-5.02238,2.92124-11.19291,4.38188-18.65486,4.38188v.32493ZM2288.86888,530.56571c4.38708,0,8.11805-.8118,11.19307-2.2724,3.08519-1.46064,5.67849-3.57007,7.46194-5.84248,1.94752-2.4344,3.08519-4.86876,3.73097-7.46507.80969-2.2724,1.30173-5.03169,1.4658-7.95293,0-2.92128.15374-5.19267.15374-6.97819l5.03271,1.78553c-4.8688.64883-9.24555,1.46064-13.14043,1.94752-3.89504.64879-7.46194,1.13567-10.70103,1.78451-3.24925.48688-6.00647,1.29868-8.4357,1.94748-2.11143.64985-3.89504,1.62361-5.51442,2.59737-1.61954.97372-2.92128,2.27139-3.89504,3.73199-.97376,1.46064-1.45548,3.24616-1.45548,5.35564,0,2.11045.48172,3.89496,1.45548,5.68052.97376,1.78553,2.5933,3.08319,4.70473,4.05691,2.11143.97376,4.70473,1.46166,8.10773,1.46166l-.16407.16195Z"/><path d="M2348.7288,540.79007v-78.87454h13.62215v22.72112h1.78345v56.15343h-15.4056ZM2404.03757,540.79007v-38.78795c0-3.08319-.32798-6.1674-.80969-9.41255-.49204-3.24616-1.4658-6.1674-2.92128-9.08864-1.4658-2.75928-3.41332-5.03169-6.00647-6.65428-2.5933-1.62255-5.9963-2.59631-10.21931-2.59631-2.75721,0-5.35051.48688-7.77975,1.29767-2.4394.97372-4.54066,2.2724-6.32412,4.38184-1.79378,2.11049-3.24925,4.7068-4.38708,7.95297-.97376,3.24616-1.61939,7.30308-1.61939,11.84691l-9.40946-3.57007c0-7.14116,1.30173-13.47048,4.05895-18.98807,2.59315-5.51857,6.48818-9.73744,11.51072-12.82169,5.03271-3.08315,11.029-4.54379,18.17314-4.54379,5.51442,0,10.05525.8118,13.78622,2.59631,3.73097,1.78556,6.65225,4.05797,9.08149,6.97921,2.26517,2.92124,4.05895,6.00443,5.35051,9.2506,1.30173,3.40812,2.11143,6.65428,2.42924,9.89943.49188,3.24616.65595,6.00545.65595,8.43981v43.81862h-15.56967Z"/><path d="M2471.53351,543.06247c-7.29788,0-13.62215-1.78556-18.98283-5.51857-5.35051-3.73304-9.3993-8.6018-12.32057-14.93116-2.92112-6.32936-4.3766-13.46946-4.3766-21.25942s1.45548-15.09413,4.3766-21.26052c2.92128-6.32932,7.13412-11.19808,12.48448-14.76916,5.35051-3.57007,11.8387-5.51755,19.14705-5.51755,7.29788,0,13.62215,1.78556,18.8086,5.51755,5.19677,3.73304,8.92774,8.60176,11.52105,14.93112,2.59315,6.32936,3.88471,13.30856,3.88471,21.26048s-1.29157,14.93116-3.88471,21.26048c-2.5933,6.32936-6.48834,11.19811-11.68496,14.93116-5.02254,3.73199-11.51072,5.51755-18.97282,5.51755v-.16195ZM2472.8354,578.11734c-4.22301,0-8.28212-.64985-12.33074-1.94748-3.89504-1.29868-7.62601-3.24616-10.86494-5.84248-3.24925-2.59733-6.00662-5.68052-8.11805-9.41357l14.11419-7.14015c1.78345,3.40812,4.05895,5.84248,7.29803,7.30312,3.24925,1.62255,6.48818,2.27139,10.05525,2.27139,4.38692,0,8.11789-.81075,11.02885-2.27139,2.92128-1.46064,5.36084-3.895,6.98022-6.81624,1.61954-3.08421,2.26533-6.81624,2.26533-11.36105v-22.07126h1.78345v-58.74974h13.46841v80.98398c0,2.10943,0,4.05691-.16391,6.00443,0,1.94748-.48172,3.73304-.80985,5.68052-1.13767,5.3556-3.24925,9.73748-6.32412,13.14559-3.08534,3.40812-7.14429,6.00443-12.00276,7.78996-4.8688,1.62259-10.38322,2.59631-16.37936,2.59631v-.16195ZM2473.6451,529.26703c5.02238,0,9.08149-1.13567,12.32042-3.57003,3.24925-2.4344,5.51442-5.68056,6.98022-9.90045,1.45548-4.21891,2.10126-9.08762,2.10126-14.44322s-.80969-10.22436-2.26517-14.44428c-1.4658-4.21988-3.73113-7.46503-6.81632-9.73748-3.07502-2.2724-6.9699-3.57109-11.8387-3.57109-5.02254,0-9.2454,1.29868-12.48448,3.73304-3.24925,2.43436-5.67849,5.84248-7.29788,10.0624-1.62987,4.21992-2.43956,8.92567-2.43956,13.9574,0,5.03067.80969,9.89939,2.43956,14.11931,1.61939,4.21887,3.88471,7.62699,7.13397,10.06135,3.23893,2.4344,7.29788,3.73304,12.16667,3.73304Z"/><path d="M2565.43356,543.06247c-7.79007,0-14.75998-1.78556-20.60253-5.19364-5.8424-3.40812-10.54713-8.27688-13.78622-14.44428-3.2491-6.1674-4.86864-13.30751-4.86864-21.42243,0-8.60176,1.61954-16.06679,4.86864-22.39615,3.23909-6.32936,7.77975-11.19811,13.45824-14.60623,5.84256-3.40808,12.4948-5.19364,20.2744-5.19364,7.79007,0,14.92404,1.78556,20.43847,5.51755,5.67849,3.73304,9.89118,9.08864,12.64855,15.90488,2.75721,6.81624,3.89488,15.09307,3.41316,24.50664h-15.25186v-5.51857c0-9.08762-1.78361-15.90386-5.18661-20.28676-3.403-4.38184-8.59961-6.65323-15.4056-6.65323-7.62601,0-13.46856,2.43436-17.19954,7.30308-3.89488,4.86876-5.83223,11.84691-5.83223,20.93555s1.93735,15.418,5.83223,20.12379c3.89504,4.70676,9.40946,7.14112,16.70749,7.14112,4.70473,0,8.91742-1.13567,12.33074-3.24616,3.403-2.10943,6.16021-5.19263,8.10773-9.2506l14.92389,4.7068c-3.08519,7.14116-7.78992,12.49676-13.95013,16.39176-6.16021,3.89496-13.14043,5.84248-20.76644,5.84248l-.15374-.16195ZM2537.36909,505.73516v-11.84793h56.28254v11.84793h-56.28254Z"/><path d="M579.41751,250.75085L350.08172,21.18954l-57.33422,57.39038,229.3358,229.56151,57.33422-57.39059Z"/><path d="M63.34352,308.2911l229.38245-229.5156-57.34548-57.37894L5.998,250.91281l57.34552,57.37829Z"/><path d="M6.08782,365.62119l229.38183,229.51621,57.34548-57.37931L63.43331,308.24292l-57.34549,57.37827Z"/><path d="M522.18785,308.26547l-229.38193,229.51621,57.34548,57.37931,229.38193-229.51621-57.34548-57.37931Z"/><path d="M1152.99845,250.80108L923.65851,21.23959l-57.33317,57.39045,229.33478,229.56162,57.33833-57.39059Z"/><path d="M636.94133,308.23164l229.38197-229.51622-57.34552-57.37894-229.38193,229.51585,57.34548,57.37931Z"/><path d="M636.92085,595.13024l229.38197-229.51621-57.34552-57.37829-229.38193,229.51519,57.34548,57.37931Z"/><path d="M1153.01894,537.71504l-229.3799-229.51621-57.34544,57.37829,229.37677,229.51621,57.34857-57.37829Z"/><path d="M1152.96772,78.72271l229.37365,229.51611,57.34857-57.37931-229.38397-229.51581-57.33825,57.379Z"/><path d="M1669.06374,21.31688l-229.38397,229.51599,57.34857,57.37931,229.38397-229.51632-57.34857-57.37897Z"/><path d="M1726.32003,537.65459l-229.38397-229.51623-57.34857,57.37933,229.38397,229.51621,57.34857-57.37931Z"/><path d="M1210.21377,595.19073l229.38405-229.51625-57.33841-57.37929-229.38397,229.51623,57.33833,57.37931Z"/></svg>