<?xml version="1.0" encoding="UTF-8"?>
<svg id="Layer_1" data-name="Layer 1" xmlns="http://www.w3.org/2000/svg" viewBox="0 0 80 80">
  <defs>
    <style>
      .cls-1 {
        fill: #414042;
      }
    </style>
  </defs>
  <path d="M30.4,31.16h0s0,0,0,0c.03,13.42,10.9,24.29,24.32,24.32h0s0,0,0,0c-13.42.03-24.29,10.9-24.32,24.32h0c13.43,0,24.32-10.89,24.32-24.32s-10.89-24.32-24.32-24.32Z"/>
  <path d="M27.34,68.04c-5.23,1.36-9.1,6.1-9.1,11.76h12.16s0,0,0,0c0-4.27-1.12-8.27-3.05-11.76Z"/>
  <path d="M30.4,0v10.64c2.94,0,5.32-2.38,5.32-5.32s-2.38-5.32-5.32-5.32Z"/>
  <path d="M73.93,14.79C73.93,6.62,67.31,0,59.14,0s-14.79,6.62-14.79,14.79,14.79,39.4,14.79,39.4c0,0,14.79-31.24,14.79-39.4Z"/>
  <path d="M30.4,10.64c-11.33,0-20.52,9.19-20.52,20.52h20.52V10.64Z"/>
  <path class="cls-1" d="M6.08,55.48c13.42.03,24.29,10.9,24.32,24.32h0s0,0,0,0c.03-13.42,10.9-24.29,24.32-24.32h0s0,0,0,0c-13.42-.03-24.29-10.9-24.32-24.32h0s0,0,0,0c-.03,13.42-10.9,24.29-24.32,24.32h0s0,0,0,0Z"/>
</svg>