<svg id="Layer_1" data-name="Layer 1" xmlns="http://www.w3.org/2000/svg" viewBox="0 0 400 400"><defs><style>.cls-1{fill:#135932;}.cls-2{fill:#24b55e;}.cls-3{fill:#17773e;}</style></defs><title>forestflow-icon-color</title><path class="cls-1" d="M389.68522,78.41782c-1.51012-22.65157-21.39315-40.01776-44.29641-40.01776H168.70663a42.96536,42.96536,0,0,0-43.038,42.89263q-.00012.07266,0,.14534V298.64135a61.01659,61.01659,0,0,0,61.12207,60.91089q.27027-.00045.54052-.00334c33.474-.50336,59.90079-28.692,59.90079-62.166V253.84159a11.32578,11.32578,0,0,0-22.65156,0v2.01348a21.64347,21.64347,0,0,1-21.64212,21.64482h-.00271a21.64344,21.64344,0,0,1-21.64482-21.64206v-109.737a21.4441,21.4441,0,0,1,19.883-21.39314H347.40229A43.17257,43.17257,0,0,0,389.7929,80.787Q389.77165,79.60116,389.68522,78.41782Z"/><path class="cls-1" d="M297.56885,184.62848a48.01043,48.01043,0,0,1-14.09431-6.54378,51.56007,51.56007,0,0,0-12.08084-6.79547,41.99748,41.99748,0,0,0-14.84936-1.25842c-11.32578,1.25842-19.883,5.78873-26.17514,15.35272s-6.0404,24.16167-6.0404,35.48745v7.29884c4.53032-9.06062,13.84262-16.86282,23.6583-16.86282s23.6583,5.28536,32.71892,4.53032a32.72349,32.72349,0,0,0,21.14147-8.80894c6.54378-6.2921,9.564-15.35272,11.82914-24.16166A25.45436,25.45436,0,0,1,297.56885,184.62848ZM279.951,197.716a33.98945,33.98945,0,0,1-7.04716-1.00674c-1.00674-.25168-2.26516-.75506-3.2719-1.00674l-3.0202-1.25842-1.5101-.50336c-.50336-.25168-1.00674-.25168-1.5101-.50336l-3.0202-.75506a46.98063,46.98063,0,0,0-6.2921-1.00674,52.60771,52.60771,0,0,0-6.2921-.25168,18.67018,18.67018,0,0,0-6.2921,1.25842,15.962,15.962,0,0,1,5.78874-4.02694,31.8676,31.8676,0,0,1,7.04716-1.5101,33.04646,33.04646,0,0,1,7.04716.25168c1.25842.25168,2.26516.50336,3.52358.75506.50336.25168,1.25842.25168,1.76178.50336l1.5101.50336,3.0202,1.25842a14.19007,14.19007,0,0,0,3.0202,1.00674,54.65555,54.65555,0,0,0,6.04042,1.76178,56.34,56.34,0,0,0,13.08756,1.25842A25.318,25.318,0,0,1,279.951,197.716Z"/><path class="cls-2" d="M137.24612,359.2972c-1.5101-1.25842-3.02021-2.76854-4.53031-4.27862a75.39711,75.39711,0,0,1-22.14819-53.60871V84.20655h0L62.24428,177.833H78.10037L38.3343,256.86181H56.45555L10.14568,359.2972Z"/><path class="cls-3" d="M110.56762,84.45823h0L67.78133,239.24392l7.8022,46.56155,34.98409-139.93633Z"/><path class="cls-1" d="M132.71581,355.27024a75.3971,75.3971,0,0,1-22.14819-53.60871V145.86914L75.58353,285.80547l7.29884,73.49173h54.36375C135.736,358.03878,134.22591,356.52866,132.71581,355.27024Z"/><polygon class="cls-3" points="57.211 359.297 82.882 359.297 75.584 285.805 57.211 359.297"/></svg>