<svg id="Layer_1" data-name="Layer 1" xmlns="http://www.w3.org/2000/svg" xmlns:xlink="http://www.w3.org/1999/xlink" viewBox="0 0 120 120"><defs><style>.cls-1{fill:url(#linear-gradient);}</style><linearGradient id="linear-gradient" x1="10.16352" y1="101.1644" x2="109.48342" y2="18.96863" gradientUnits="userSpaceOnUse"><stop offset="0" stop-color="#86f8ff"/><stop offset="0.97917" stop-color="#1665ff"/></linearGradient></defs><path class="cls-1" d="M108.56044,33.0474,61.87616,1.19051a3.41487,3.41487,0,0,0-3.84847,0L11.34341,33.0474A11.53316,11.53316,0,0,0,6.70325,45.64983V74.27058A11.533,11.533,0,0,0,11.34341,86.873L58.02769,118.73a3.41487,3.41487,0,0,0,3.84847,0l46.68428-31.857a11.54961,11.54961,0,0,0,0-19.09031l-11.463-7.82236,11.463-7.82249A11.54974,11.54974,0,0,0,108.56044,33.0474ZM15.19187,38.66221,56.54326,10.44434V36.93865L28.84491,55.83985l-13.653-9.31668a4.72218,4.72218,0,0,1-1.6713-1.9967V41.62772H13.2112A4.71256,4.71256,0,0,1,15.19187,38.66221Zm7.61472,21.29813-9.286,6.33654V53.62353Zm33.73667,49.51587-41.35139-28.218A4.74351,4.74351,0,0,1,13.2112,76.363h.30937v-.96909a4.72159,4.72159,0,0,1,1.6713-1.99642l13.653-9.31681L56.54326,82.982Zm3.40866-32.40916L34.88308,59.96034l25.06884-17.1067,25.06884,17.1067Zm44.76019-3.66954a4.75565,4.75565,0,0,1,0,7.86068l-41.35153,28.218V82.982L91.05894,64.0807Zm0-26.87434L91.05894,55.83985,63.36058,36.93865V10.44434l41.35153,28.21787A4.75591,4.75591,0,0,1,104.71211,46.52317Z"/></svg>