<svg id="Layer_1" data-name="Layer 1" xmlns="http://www.w3.org/2000/svg" viewBox="0 0 360 360"><defs><style>.cls-1{fill:#343433;}.cls-2{fill:#fefefe;}.cls-3{fill:#f4f5f6;}.cls-4{fill:#dedfdf;}.cls-5{fill:#d1d1d1;}.cls-6{fill:#d8d8d8;}.cls-7{fill:#b2b2b2;}</style></defs><title>onnx-icon-color</title><path class="cls-1" d="M342.00232,170.46506a3.48653,3.48653,0,0,1-3.46951-2.16541Q310.34106,115.9891,282.00092,63.76126a4.38921,4.38921,0,0,1-.35523-3.905,14.22847,14.22847,0,0,0-21.839-16.23826,5.80035,5.80035,0,0,1-5.17265,1.05107q-55.54409-11.15067-111.0979-22.2332a3.84912,3.84912,0,0,1-3.5109-3.05835,14.25037,14.25037,0,0,0-27.33787,8.0581q.05586.18945.11692.37729a4.80524,4.80524,0,0,1-.74694,4.76634Q67.89745,95.78993,23.87142,159.093c-1.19219,1.71288-2.36493,2.4574-4.11672,1.81993a14.2236,14.2236,0,0,0-15.316,12.248A13.99489,13.99489,0,0,0,16.07013,189.1741q.26615.04218.53377.07411a3.81256,3.81256,0,0,1,3.60091,2.97318Q43.86622,250.69727,67.6663,309.11725a5.9123,5.9123,0,0,1,.28224,4.01449,14.26984,14.26984,0,0,0,22.46678,15.39389,5.00964,5.00964,0,0,1,3.83205-1.12649c9.22613.95862,18.462,1.79315,27.693,2.69336q30.32066,2.9513,60.63644,5.92206,27.33778,2.67879,54.67792,5.34543a3.72012,3.72012,0,0,1,3.62523,2.49386,14.26983,14.26983,0,1,0,25.27937-13.11169,3.55228,3.55228,0,0,1-.04864-4.10215q36.1332-62.60723,72.14962-125.28012a3.86127,3.86127,0,0,1,3.77851-2.343,14.27714,14.27714,0,0,0,.33441-28.55232Q342.18778,170.46241,342.00232,170.46506Zm-220.83084-112.93q2.034-8.7322,4.04373-17.46929c.33576-1.47443.78343-2.35032,2.68851-2.46711a12.26261,12.26261,0,0,0,9.09474-4.74688A3.36,3.36,0,0,1,140.9473,31.662Q196.7979,42.86619,252.66318,53.99009c.30656.06083.5961.21411,1.73475.63746-12.23338,5.35028-23.68817,10.37452-35.15756,15.372Q166.2437,93.0916,113.23973,116.16908c-.53528.23358-1.07785.455-1.62042.67639-1.13623.46228-2.20921,1.53769-3.52307.41849-1.22382-1.03891-.32359-2.16784-.073-3.23839q6.5595-28.24769,13.14818-56.48809Zm-8.02176-9.78329.58393.38929q-7.51812,32.15762-15.02651,64.32009a3.66661,3.66661,0,0,1-2.7907,3.07051A13.45476,13.45476,0,0,0,86.09178,127.585a3.96581,3.96581,0,0,1-1.944,3.4598Q60.30389,144.99833,36.533,159.07111a6.58057,6.58057,0,0,1-1.19706.26762ZM75.54451,298.74026a27.06194,27.06194,0,0,1-.68612,2.63743l-16.063-39.55408Q44.04868,225.50546,29.2533,189.20682a4.86613,4.86613,0,0,1,.74938-5.92934,10.65671,10.65671,0,0,0,2.652-8.16775,4.08269,4.08269,0,0,1,2.5401-4.3722c17.41577-10.1896,34.75855-20.49844,52.14755-30.73182.98052-.57663,1.9586-1.90508,3.37464-.55231,1.28222,1.22382,3.05348,1.79073,2.72744,4.35516-1.691,13.38907-3.1435,26.80733-4.68361,40.21587l-6.71035,58.4102Q78.80967,270.58752,75.54451,298.74026Zm16.3063,8.8563A10.81975,10.81975,0,0,0,86.357,303.947c-1.28952-.399-2.16542-.927-1.72747-2.14352,1.38684-12.102,2.73232-23.878,4.08753-35.65146q4.08751-35.49818,8.18721-70.99639c1.91-16.552,3.92451-33.09433,5.64711-49.66583.34063-3.28462,2.9075-3.18728,4.69578-4.38679,1.81749-1.22138,2.57416.601,3.47927,1.38684q59.19608,51.3398,118.31185,102.76716a5.50113,5.50113,0,0,1-1.45982,8.71033L95.70962,308.36786c-1.57175.64963-2.64473.83453-3.86125-.76883Zm154.37212,18.7077a6.02172,6.02172,0,0,0-2.62283,2.2749c-1.83451,3.83451-4.99748,3.3649-8.30643,3.03644q-39.03583-3.88558-78.08139-7.68845-29.40826-2.8953-58.81653-5.81012l-.21655-.63745c7.085-2.944,14.16035-5.90744,21.25026-8.832q55.5465-22.9047,111.0833-45.83862c2.09242-.86859,3.38192-.10706,5.32107.56934,5.523,1.93182,5.64954,6.24078,6.14345,10.76867q2.68242,24.48133,5.56682,48.93836c.163,1.4039.12648,2.44766-1.32118,3.219Zm-4.71281-90.11284c-.22385,1.75179-1.03649,2.24814-2.42575,2.88072a3.28464,3.28464,0,0,1-4.03887-.89048q-14.16762-12.41586-28.418-24.72951-45.04788-39.155-90.09094-78.315a9.85146,9.85146,0,0,1-2.40873-8.65435c.60827-1.26519,2.12406-1.37955,3.26515-1.87832Q175.01487,99.454,232.66354,74.36932c7.08748-3.08754,14.20171-6.11183,21.2454-9.29425,1.99023-.90023,3.5401-1.37954,5.07775.7445a6.64971,6.64971,0,0,0,2.86371,1.97808c1.34305.54257,1.90265,1.27735,1.59607,2.16784-1.36249,10.40129-2.65689,20.29164-3.95855,30.17467q-4.46224,33.84372-8.939,67.68258c-3.01941,22.79036-6.09235,45.571-9.03877,68.37111ZM257.05,323.25079c-.81751-6.70791-1.53771-12.38421-2.197-18.06781-1.33818-11.53753-2.61066-23.08233-3.98777-34.6174-.382-3.2019-.64961-5.815,2.72014-8.16531a12.20412,12.20412,0,0,0,4.54738-11.94872c-.146-1.31384-.11435-2.14108,1.073-2.94885q33.46175-22.83417,66.87478-45.734a6.97012,6.97012,0,0,1,1.04133-.24817L257.05,323.25082Zm72.6849-145.28224a10.37935,10.37935,0,0,0-1.69586,8.068,3.73474,3.73474,0,0,1-1.95859,4.29433q-35.90692,24.50079-71.72628,49.133c-.7883.54014-1.43549,1.54986-2.76151.79805-1.45982-.82723-.93429-2.01944-.79074-3.09485q7.18238-54.24,14.411-108.475c2.48169-18.72231,4.89771-37.45192,7.35755-56.17911.16058-1.21652.438-2.416.81506-4.43788,4.58145,8.40619,8.793,16.08245,12.95355,23.78063q21.6541,40.05526,43.31555,80.10326a4.798,4.798,0,0,1,.08029,6.00963Z"/><path class="cls-2" d="M263.444,71.37923c.309-.89293-.25061-1.6277-1.59366-2.17028a6.64961,6.64961,0,0,1-2.86371-1.97807c-1.53769-2.124-3.09-1.64717-5.07777-.74694-7.04367,3.18486-14.16034,6.20913-21.24539,9.29424q-57.639,25.10907-115.26815,50.24247c-1.14109.49633-2.65688.6107-3.26271,1.87345a9.85142,9.85142,0,0,0,2.40873,8.6568l90.08364,78.315q14.21508,12.35743,28.418,24.72952a3.28465,3.28465,0,0,0,4.03887.88806c1.39169-.6326,2.20434-1.1265,2.43062-2.8783,2.944-22.79766,6.01693-45.58075,9.03634-68.3711q4.48654-33.83886,8.939-67.68257c1.3017-9.88548,2.59363-19.77339,3.95856-30.17468Z"/><path class="cls-3" d="M229.04071,246.67068Q169.89817,195.27011,110.7264,143.90842c-.90753-.7883-1.6642-2.61066-3.48169-1.38927-1.78829,1.20193-4.35516,1.10217-4.69578,4.38679-1.7226,16.57149-3.73716,33.1138-5.64468,49.66828l-8.18964,70.994c-1.3552,11.77353-2.70069,23.54947-4.08753,35.65146-.438,1.21652.43795,1.74447,1.72747,2.14352a10.81977,10.81977,0,0,1,5.49382,3.64957c1.21653,1.60336,2.2895,1.41845,3.86126.76883q65.921-27.22582,131.8664-54.39568a5.50114,5.50114,0,0,0,1.45983-8.71033Z"/><path class="cls-4" d="M286.339,92.301c-4.16052-7.7006-8.37213-15.37444-12.95355-23.78062-.3747,2.02188-.65692,3.2238-.81507,4.43789q-3.686,28.08713-7.35754,56.1791-7.18721,54.24-14.41093,108.47507c-.14356,1.073-.67153,2.26759.79072,3.09483,1.32845.75425,1.97319-.2579,2.76151-.798l71.72631-49.133a3.73472,3.73472,0,0,0,1.95859-4.29432,10.37938,10.37938,0,0,1,1.69586-8.068,4.798,4.798,0,0,0-.08029-6.00964Q307.92754,132.39276,286.339,92.301Z"/><path class="cls-5" d="M108.28752,117.12827c1.31628,1.11677,2.38925.03892,3.52793-.42092.54013-.219,1.08027-.44281,1.618-.67639Q166.435,92.95108,219.4341,69.86386c11.46939-4.99749,22.92418-10.02416,35.15754-15.372-1.13867-.42335-1.42819-.57663-1.73475-.63746Q196.99647,42.69885,141.141,31.5263a3.36,3.36,0,0,0-3.94884,1.18976,12.26258,12.26258,0,0,1-9.09474,4.7445c-1.90509.11922-2.35276.99755-2.68851,2.46954q-1.99512,8.742-4.04373,17.46929l-13.15063,56.4881c-.24817,1.07054-1.1484,2.19948.073,3.2384Zm133.88341,156.883c-.49393-4.52548-.62042-8.83685-6.14345-10.76868-1.93671-.67639-3.22867-1.43792-5.32107-.57174q-55.51,22.99475-111.08088,45.84109c-7.08991,2.92453-14.1652,5.888-21.25025,8.832l.21654.63745,58.81652,5.81012,78.08139,7.68845c3.30895.32846,6.47192.798,8.30644-3.03644a6.0218,6.0218,0,0,1,2.62284-2.2749c1.44767-.77127,1.48416-1.81507,1.32113-3.21894q-2.86353-24.46-5.56682-48.93835Z"/><path class="cls-6" d="M93.44689,144.06019c.32359-2.56442-1.44767-3.13133-2.72989-4.35516-1.416-1.35277-2.39412-.02432-3.37464.55231-17.389,10.23341-34.73178,20.54223-52.14755,30.73183a4.08267,4.08267,0,0,0-2.5401,4.37219,10.65675,10.65675,0,0,1-2.652,8.16775,4.86611,4.86611,0,0,0-.74939,5.92934q14.86593,36.26946,29.54207,72.61677l16.063,39.55408a27.06106,27.06106,0,0,0,.68613-2.63742q3.26757-28.15037,6.506-56.30562,3.36249-29.2039,6.71035-58.41021c1.54013-13.4061,2.99266-26.8268,4.68361-40.21343Z"/><path class="cls-7" d="M259.012,247.367c-1.18732.81021-1.22138,1.635-1.073,2.94885a12.20419,12.20419,0,0,1-4.54736,11.94627c-3.36978,2.35279-3.10215,4.96585-2.72016,8.16776,1.37711,11.53265,2.64958,23.07989,3.98777,34.61743.6569,5.68359,1.37954,11.36234,2.197,18.06781L326.928,201.38476a6.96753,6.96753,0,0,0-1.04132.24817Q292.45664,224.50849,259.012,247.367ZM83.9541,131.68378a3.96585,3.96585,0,0,0,1.94644-3.4598,13.45476,13.45476,0,0,1,9.82222-12.05332,3.66662,3.66662,0,0,0,2.79071-3.07051Q106,80.93523,113.5424,48.78006l-.58393-.38929L35.14226,159.97528a6.58057,6.58057,0,0,0,1.19706-.26762Q60.14183,145.68842,83.9541,131.68378Z"/></svg>