<?xml version="1.0" encoding="UTF-8"?><svg id="Layer_1" xmlns="http://www.w3.org/2000/svg" viewBox="0 0 30 30"><defs><style>.cls-1{fill:none;}</style></defs><path class="cls-1" d="M19.2506,21.65613l-.01489-.25696-.02228-.255-.02972-.25311-.03717-.25122-.04456-.24927-.052-.24738-.02881-.12299-.0152-.06116-.03241-.12103-.03516-.11938-.03778-.11768-.04053-.11603-.04321-.11432-.0459-.11267-.04858-.11096-.05133-.10931-.05396-.1076-.0567-.10596-.05939-.10425-.06207-.1026-.06476-.10095-.0675-.09918-.07019-.0976-.03607-.04816-.0368-.04761-.07593-.09351-.07898-.09106-.08203-.08868-.08508-.0863-.0882-.08392-.09119-.08148-.09424-.0791-.09735-.07672-.10034-.07428-.10345-.0719-.10645-.06952-.10956-.06714-.11261-.0647-.11566-.06232-.11871-.05994-.06049-.02905-.0614-.02832-.12561-.05396-.12958-.05029-.13342-.04675-.13739-.04315-.14124-.03955-.14514-.03595-.14905-.03235-.15289-.02881-.1568-.02515-.16077-.02155-.16461-.01801-.16846-.01434-.17242-.0108-.17633-.0072-.18018-.0036-.09155-.00043h-3.58972v10.95319h3.55902l.08215-.00043,.16205-.0033,.1593-.00659,.15649-.00989,.15363-.01318,.15082-.01648,.14801-.01978,.1452-.02307,.1424-.02637,.13953-.02966,.13678-.03296,.13391-.03625,.1311-.03955,.1283-.04285,.12549-.04614,.12268-.04944,.06024-.02594,.05963-.02667,.11725-.05518,.11475-.05768,.11212-.06006,.1095-.06262,.10699-.065,.10437-.06744,.10181-.06995,.09924-.07239,.09668-.07483,.09406-.07733,.09149-.07977,.08893-.08215,.08636-.08472,.0838-.0871,.08118-.0896,.03961-.04572,.039-.04633,.07605-.09412,.07349-.09625,.07086-.09833,.0683-.1004,.06573-.10254,.06317-.10461,.06061-.10675,.05798-.10883,.05542-.1109,.05286-.11304,.05029-.11511,.04767-.11719,.04517-.11932,.04254-.1214,.03998-.12354,.01898-.0625,.03625-.12622,.06543-.25629,.05609-.26123,.04675-.26636,.03735-.2713,.02808-.27637,.01868-.28143,.00934-.28638,.00116-.14514-.00092-.13013-.00739-.25891Zm-.66705,.47772l-.00305,.17456-.0061,.17078-.00916,.16705-.01221,.16321-.01532,.15942-.01831,.1557-.02142,.15192-.02441,.14813-.02753,.14435-.03058,.14056-.03363,.13684-.03662,.13306-.03973,.12927-.04279,.12543-.04584,.1217-.02411,.05945-.02466,.05859-.05078,.11493-.05261,.11194-.05444,.10895-.05634,.10596-.05817,.10297-.06006,.09991-.06189,.09698-.06378,.09393-.06561,.091-.06744,.08795-.0694,.08496-.07117,.08197-.07306,.07898-.07489,.07599-.07678,.073-.03906,.0354-.07916,.06873-.1618,.12988-.16638,.11987-.1709,.10974-.17542,.09973-.18005,.08966-.18457,.07959-.18909,.06952-.09631,.03094-.0968,.02881-.19342,.052-.19318,.04462-.19299,.03711-.19269,.02972-.1925,.02228-.1922,.01489-.19202,.00745-.09589,.00092h-2.94543v-9.78729h2.80737l.10126,.00085,.21191,.00665,.22437,.01343,.23676,.02014,.12311,.01263,.06232,.00714,.12463,.01703,.12469,.02057,.12463,.02423,.12463,.02777,.12463,.03143,.12463,.03497,.12463,.03857,.06232,.02069,.06219,.02167,.12372,.04675,.12274,.05127,.12177,.05585,.12079,.06042,.11981,.06494,.1189,.06952,.11792,.07404,.05865,.03876,.05804,.04022,.11365,.08582,.11023,.09296,.10693,.10022,.10352,.10736,.10022,.11462,.0968,.12177,.09351,.12897,.04547,.06714,.04456,.06909,.08582,.14404,.08148,.15198,.07715,.15985,.07288,.16779,.06854,.17572,.06427,.18359,.05994,.19153,.02832,.09875,.02692,.10095,.04865,.20947,.04175,.21954,.03473,.22968,.02783,.23969,.02087,.24976,.01385,.25983,.00696,.2699,.00085,.13873-.00037,.08868Z"/><path class="cls-1" d="M20.13793,7.81269l-.00555-.14728-.00824-.14618-.01105-.14502-.01379-.14386-.01654-.1427-.01929-.14166-.02203-.14044-.02478-.13934-.02759-.13818-.03033-.13702-.03308-.13593-.03583-.13477-.03857-.13361-.04138-.13251-.02167-.0658-.0224-.06543-.04651-.12921-.04907-.12701-.05145-.12488-.05396-.12274-.05634-.12054-.05884-.11841-.06134-.11627-.06372-.11407-.06622-.11194-.06873-.1098-.07111-.1076-.07361-.10547-.07605-.10333-.07849-.10114-.08093-.099-.04144-.04871-.04199-.0481-.08569-.09424-.08813-.09167-.09039-.08911-.09277-.08655-.09509-.08392-.09747-.08142-.09973-.0788-.10211-.07623-.10449-.07361-.10675-.07111-.10913-.06848-.11145-.06592-.11377-.06335-.11615-.06073-.11847-.05823-.06012-.02808-.06067-.0274-.12286-.05212-.12488-.04865-.12689-.04523-.12897-.04169-.13098-.03821-.13306-.03479-.13507-.03125-.13708-.02783-.13916-.02429-.14117-.02087-.14325-.0174-.14526-.01392-.14728-.01038-.14929-.00696-.15137-.00348-.07648-.00043-.07648,.00043-.15143,.00348-.14941,.00696-.14746,.01038-.14551,.01392-.14355,.0174-.14154,.02087-.13953,.02429-.13763,.02783-.13556,.03125-.13367,.03479-.13165,.03821-.12964,.04169-.12775,.04523-.12567,.04865-.12378,.05212-.0611,.0274-.06061,.02808-.11938,.05823-.11694,.06073-.11456,.06335-.11218,.06592-.1098,.06848-.10736,.07111-.10498,.07361-.1026,.07623-.10022,.0788-.09778,.08142-.0954,.08392-.09302,.08655-.09058,.08911-.08826,.09167-.08575,.09424-.04205,.0481-.04138,.04871-.08093,.099-.07855,.10114-.07605,.10333-.07355,.10547-.07111,.1076-.06873,.1098-.06622,.11194-.06372,.11407-.06134,.11627-.05884,.11841-.05634,.12054-.05396,.12274-.05145,.12488-.04907,.12701-.04657,.12921-.02234,.06543-.02167,.0658-.04138,.13251-.03857,.13361-.03583,.13477-.03308,.13593-.03033,.13702-.02759,.13818-.02478,.13934-.02203,.14044-.01935,.14166-.01654,.1427-.01373,.14386-.01105,.14502-.00824,.14618-.00555,.14728-.00275,.14844-.00037,.07465,.00037,.07465,.00275,.14844,.00555,.14728,.00824,.14618,.01105,.14502,.01373,.14386,.01654,.14276,.01935,.1416,.02203,.14044,.02478,.13934,.02759,.13818,.03033,.13702,.03308,.13593,.03583,.13477,.03857,.13361,.04138,.13251,.02167,.0658,.02234,.06543,.04657,.12921,.04907,.12701,.05145,.12488,.05396,.12274,.05634,.12054,.05884,.11841,.06134,.11627,.06372,.11407,.06622,.11194,.06873,.1098,.07111,.1076,.07355,.10553,.07605,.10327,.07855,.10114,.08093,.099,.04138,.04871,.04205,.0481,.08575,.09424,.08826,.09174,.09058,.08911,.09302,.08649,.0954,.08398,.09778,.08136,.10022,.0788,.1026,.07623,.10498,.07361,.10736,.07111,.1098,.06848,.11218,.06592,.11456,.06335,.11694,.06073,.11938,.05823,.06061,.02814,.0611,.02734,.12378,.05212,.12567,.04865,.12775,.04523,.12964,.04169,.13165,.03821,.13367,.03479,.13556,.03125,.13763,.02783,.13953,.02435,.14154,.02081,.14355,.0174,.14551,.01392,.14746,.01044,.14941,.0069,.15143,.00348,.07648,.00043,.07648-.00043,.15137-.00348,.14929-.0069,.14728-.01044,.14526-.01392,.14325-.0174,.14117-.02081,.13916-.02435,.13708-.02783,.13507-.03125,.13306-.03479,.13098-.03821,.12897-.04169,.12689-.04523,.12488-.04865,.12286-.05212,.06067-.02734,.06012-.02814,.11847-.05823,.11615-.06073,.11377-.06335,.11145-.06592,.10913-.06848,.10675-.07111,.10449-.07361,.10211-.07623,.09973-.0788,.09747-.08136,.09509-.08398,.09277-.08649,.09039-.08911,.08813-.09174,.08569-.09424,.04199-.0481,.04144-.04871,.08093-.099,.07849-.10114,.07605-.10327,.07361-.10553,.07111-.1076,.06873-.1098,.06622-.11194,.06372-.11407,.06134-.11627,.05884-.11841,.05634-.12054,.05396-.12274,.05145-.12488,.04907-.12701,.04651-.12921,.0224-.06543,.02167-.0658,.04138-.13251,.03857-.13361,.03583-.13477,.03308-.13593,.03033-.13702,.02759-.13818,.02478-.13934,.02203-.14044,.01929-.1416,.01654-.14276,.01379-.14386,.01105-.14502,.00824-.14618,.00555-.14728,.00275-.14844,.00031-.07465-.00031-.07465-.00275-.14844Zm-.6731,.35492l-.00958,.2608-.01917,.25696-.02881,.25311-.03833,.24927-.04791,.24548-.05756,.24158-.06714,.23779-.03711,.11743-.03943,.11609-.08533,.2265-.09399,.21906-.1026,.21167-.11121,.20422-.11987,.19678-.12842,.18939-.13715,.18188-.07178,.0882-.07385,.08618-.15363,.16559-.16156,.1568-.16949,.14789-.17737,.13898-.1853,.13019-.19318,.12128-.20111,.11243-.10352,.05286-.05249,.02551-.10638,.04852-.10822,.04529-.11005,.04211-.11194,.03882-.11383,.03558-.11566,.03235-.11749,.02911-.11938,.02588-.12122,.02271-.12305,.01941-.125,.01617-.12677,.01294-.12866,.0097-.13049,.00647-.13239,.00323-.06689,.00037-.06689-.00037-.13239-.00323-.13068-.00647-.12885-.0097-.12701-.01294-.12524-.01617-.12347-.01941-.12164-.02271-.11981-.02588-.1181-.02911-.11621-.03235-.11444-.03558-.11267-.03882-.11084-.04211-.10907-.04529-.1073-.04852-.05298-.02551-.10443-.05286-.20276-.11243-.19464-.12128-.18652-.13019-.17828-.13898-.17017-.14789-.16205-.1568-.15393-.16559-.07385-.08618-.07178-.0882-.13715-.18188-.12848-.18939-.11981-.19678-.11127-.20422-.10254-.21167-.09399-.21906-.08533-.2265-.03943-.11609-.03717-.11743-.06708-.23779-.05756-.24158-.04791-.24548-.03833-.24927-.02881-.25311-.01917-.25696-.00958-.2608-.00122-.13184,.00122-.13184,.00958-.2608,.01917-.25696,.02881-.25311,.03833-.24927,.04791-.24542,.05756-.24164,.06708-.23779,.03717-.11743,.03943-.11603,.08533-.22656,.09399-.21906,.10254-.21167,.11127-.20422,.11981-.19678,.12848-.18933,.13715-.18195,.07178-.0882,.07385-.08612,.15393-.16565,.16205-.15674,.17017-.14789,.17828-.13904,.18652-.13019,.19464-.12128,.20276-.11243,.10443-.05286,.05298-.02551,.1073-.04852,.10907-.04529,.11084-.04205,.11267-.03882,.11444-.03564,.11621-.03235,.1181-.02911,.11981-.02588,.12164-.02264,.12347-.01941,.12524-.01624,.12701-.01294,.12885-.0097,.13068-.00647,.13239-.00323,.06689-.00037,.06689,.00037,.13239,.00323,.13049,.00647,.12866,.0097,.12677,.01294,.125,.01624,.12305,.01941,.12122,.02264,.11938,.02588,.11749,.02911,.11566,.03235,.11383,.03564,.11194,.03882,.11005,.04205,.10822,.04529,.10638,.04852,.05249,.02551,.10352,.05286,.20111,.11243,.19318,.12128,.1853,.13019,.17737,.13904,.16949,.14789,.16156,.15674,.15363,.16565,.07385,.08612,.07178,.0882,.13715,.18195,.12842,.18933,.11987,.19678,.11121,.20422,.1026,.21167,.09399,.21906,.08533,.22656,.03943,.11603,.03711,.11743,.06714,.23779,.05756,.24164,.04791,.24542,.03833,.24927,.02881,.25311,.01917,.25696,.00958,.2608,.00116,.13184-.00116,.13184Z"/><polygon points="18.5761 21.63654 18.56225 21.37671 18.54137 21.12696 18.51354 20.88727 18.47881 20.6576 18.43706 20.43805 18.38842 20.22858 18.3615 20.12763 18.33318 20.02887 18.27324 19.83734 18.20897 19.65375 18.14043 19.47803 18.06756 19.31024 17.99041 19.15039 17.90893 18.99842 17.82311 18.85437 17.77855 18.78528 17.73308 18.71814 17.63958 18.58918 17.54278 18.46741 17.44256 18.35279 17.33904 18.24543 17.23211 18.14521 17.12188 18.05225 17.00823 17.96643 16.95019 17.92621 16.89153 17.88745 16.77361 17.81342 16.65471 17.7439 16.5349 17.67896 16.41411 17.61853 16.29235 17.56269 16.16961 17.51142 16.04589 17.46466 15.98369 17.443 15.92138 17.42231 15.79674 17.38373 15.67211 17.34876 15.54748 17.31732 15.42284 17.28955 15.29821 17.26532 15.17351 17.24475 15.04888 17.22773 14.98656 17.22058 14.86345 17.20795 14.6267 17.18781 14.40233 17.17438 14.19042 17.16773 14.08916 17.16687 11.28179 17.16687 11.28179 26.95417 14.22722 26.95417 14.32311 26.95325 14.51513 26.9458 14.70733 26.93091 14.89983 26.90863 15.09252 26.87891 15.28551 26.8418 15.47869 26.79718 15.67211 26.74518 15.76891 26.71637 15.86522 26.68543 16.05431 26.61591 16.23888 26.53632 16.41894 26.44666 16.59435 26.34693 16.76525 26.23719 16.93163 26.11731 17.09344 25.98743 17.1726 25.9187 17.21166 25.8833 17.28844 25.81031 17.36333 25.73432 17.43639 25.65534 17.50756 25.57337 17.57696 25.48841 17.6444 25.40045 17.71001 25.30945 17.77379 25.21552 17.83568 25.11853 17.89574 25.01862 17.95391 24.91565 18.01024 24.8097 18.06469 24.70075 18.1173 24.58881 18.16808 24.47388 18.19274 24.41529 18.21685 24.35584 18.26269 24.23413 18.30547 24.10871 18.34521 23.97943 18.38183 23.84638 18.41546 23.70954 18.44604 23.56897 18.47356 23.42462 18.49798 23.27649 18.5194 23.12458 18.53771 22.96888 18.55303 22.80945 18.56524 22.64624 18.57439 22.47919 18.5805 22.30841 18.58355 22.13385 18.58391 22.04517 18.58306 21.90644 18.5761 21.63654"/><polygon points="19.45525 7.64313 19.43609 7.38617 19.40728 7.13306 19.36895 6.88379 19.32104 6.63837 19.26348 6.39673 19.19634 6.15894 19.15923 6.04151 19.1198 5.92548 19.03448 5.69892 18.94048 5.47986 18.83788 5.26819 18.72668 5.06397 18.6068 4.86719 18.47838 4.67786 18.34124 4.49591 18.26946 4.40772 18.19561 4.3216 18.04198 4.15595 17.88042 3.99921 17.71093 3.85132 17.53356 3.71228 17.34826 3.5821 17.15508 3.46082 16.95397 3.34839 16.85045 3.29554 16.79796 3.27002 16.69158 3.2215 16.58336 3.17621 16.47332 3.13416 16.36138 3.09534 16.24755 3.0597 16.13189 3.02735 16.01439 2.99823 15.89501 2.97235 15.77379 2.94971 15.65075 2.9303 15.52575 2.91407 15.39898 2.90113 15.27032 2.89142 15.13982 2.88495 15.00744 2.88172 14.94054 2.88135 14.87365 2.88172 14.74126 2.88495 14.61059 2.89142 14.48174 2.90113 14.35473 2.91407 14.22948 2.9303 14.10601 2.94971 13.98437 2.97235 13.86455 2.99823 13.74645 3.02735 13.63024 3.0597 13.5158 3.09534 13.40313 3.13416 13.29229 3.17621 13.18322 3.2215 13.07592 3.27002 13.02294 3.29554 12.91851 3.34839 12.71575 3.46082 12.52111 3.5821 12.33459 3.71228 12.1563 3.85132 11.98614 3.99921 11.82409 4.15595 11.67016 4.3216 11.5963 4.40772 11.52453 4.49591 11.38738 4.67786 11.2589 4.86719 11.13909 5.06397 11.02782 5.26819 10.92528 5.47986 10.83129 5.69892 10.74596 5.92548 10.70653 6.04151 10.66936 6.15894 10.60229 6.39673 10.54473 6.63837 10.49682 6.88379 10.45849 7.13306 10.42968 7.38617 10.41051 7.64313 10.40093 7.90393 10.39971 8.03577 10.40093 8.16761 10.41051 8.42841 10.42968 8.68537 10.45849 8.93848 10.49682 9.18775 10.54473 9.43323 10.60229 9.67481 10.66936 9.9126 10.70653 10.03003 10.74596 10.14612 10.83129 10.37262 10.92528 10.59168 11.02782 10.80335 11.13909 11.00757 11.2589 11.20435 11.38738 11.39374 11.52453 11.57563 11.5963 11.66382 11.67016 11.75 11.82409 11.91559 11.98614 12.07239 12.1563 12.22028 12.33459 12.35926 12.52111 12.48944 12.71575 12.61072 12.91851 12.72315 13.02294 12.776 13.07592 12.80152 13.18322 12.85004 13.29229 12.89533 13.40313 12.93744 13.5158 12.97626 13.63024 13.01184 13.74645 13.04419 13.86455 13.07331 13.98437 13.09919 14.10601 13.12189 14.22948 13.1413 14.35473 13.15747 14.48174 13.17041 14.61059 13.18012 14.74126 13.18659 14.87365 13.18982 14.94054 13.19019 15.00744 13.18982 15.13982 13.18659 15.27032 13.18012 15.39898 13.17041 15.52575 13.15747 15.65075 13.1413 15.77379 13.12189 15.89501 13.09919 16.01439 13.07331 16.13189 13.04419 16.24755 13.01184 16.36138 12.97626 16.47332 12.93744 16.58336 12.89533 16.69158 12.85004 16.79796 12.80152 16.85045 12.776 16.95397 12.72315 17.15508 12.61072 17.34826 12.48944 17.53356 12.35926 17.71093 12.22028 17.88042 12.07239 18.04198 11.91559 18.19561 11.75 18.26946 11.66382 18.34124 11.57563 18.47838 11.39374 18.6068 11.20435 18.72668 11.00757 18.83788 10.80335 18.94048 10.59168 19.03448 10.37262 19.1198 10.14612 19.15923 10.03003 19.19634 9.9126 19.26348 9.67481 19.32104 9.43323 19.36895 9.18775 19.40728 8.93848 19.43609 8.68537 19.45525 8.42841 19.46483 8.16761 19.46599 8.03577 19.46483 7.90393 19.45525 7.64313"/><path d="M22.1831,2.67816l-.00989-.12982-.01624-.12799-.02246-.12592-.06305-.245-.08594-.23492-.10767-.22345-.12805-.21082-.14722-.19684-.16504-.18158-.18158-.16504-.19678-.14716-.21082-.12805-.22351-.10767-.23492-.086-.245-.06299-.12592-.02252-.12793-.01624-.12988-.00989-.13153-.0033H10.23607l-.13153,.0033-.12988,.00989-.12793,.01624-.12592,.02252-.24506,.06299-.23486,.086-.22351,.10767-.21082,.12805-.19684,.14716-.18158,.16504-.16498,.18158-.14722,.19684-.12805,.21082-.10767,.22345-.08594,.23492-.06305,.245-.02246,.12592-.01624,.12799-.00989,.12982-.00336,.13159V27.02576l.00336,.13159,.00989,.12982,.01624,.12793,.02246,.12592,.06305,.24506,.08594,.23486,.10767,.22351,.12805,.21082,.14722,.19684,.16498,.18158,.18158,.16498,.19684,.14722,.21082,.12805,.22351,.10767,.23486,.08594,.24506,.06305,.12592,.02246,.12793,.01624,.12988,.00989,.13153,.00336h9.39362l.13153-.00336,.12988-.00989,.12793-.01624,.12592-.02246,.245-.06305,.23492-.08594,.22351-.10767,.21082-.12805,.19678-.14722,.18158-.16498,.16504-.18158,.14722-.19684,.12805-.21082,.10767-.22351,.08594-.23486,.06305-.24506,.02246-.12592,.01624-.12793,.00989-.12982,.00336-.13159V2.80976l-.00336-.13159Zm-2.92535,19.51215l-.00934,.28638-.01868,.28143-.02808,.27637-.03735,.2713-.04675,.26636-.05609,.26123-.06543,.25629-.03625,.12622-.01898,.0625-.03998,.12354-.04254,.1214-.04517,.11932-.04767,.11719-.05029,.11511-.05286,.11304-.05542,.1109-.05798,.10883-.06061,.10675-.06317,.10461-.06573,.10254-.0683,.1004-.07086,.09833-.07349,.09625-.07605,.09412-.039,.04633-.03961,.04572-.08118,.0896-.0838,.0871-.08636,.08472-.08893,.08215-.09149,.07977-.09406,.07733-.09668,.07483-.09924,.07239-.10181,.06995-.10437,.06744-.10699,.065-.1095,.06262-.11212,.06006-.11475,.05768-.11725,.05518-.05963,.02667-.06024,.02594-.12268,.04944-.12549,.04614-.1283,.04285-.1311,.03955-.13391,.03625-.13678,.03296-.13953,.02966-.1424,.02637-.1452,.02307-.14801,.01978-.15082,.01648-.15363,.01318-.15649,.00989-.1593,.00659-.16205,.0033-.08215,.00043h-3.55902v-10.95319h3.58972l.09155,.00043,.18018,.0036,.17633,.0072,.17242,.0108,.16846,.01434,.16461,.01801,.16077,.02155,.1568,.02515,.15289,.02881,.14905,.03235,.14514,.03595,.14124,.03955,.13739,.04315,.13342,.04675,.12958,.05029,.12561,.05396,.0614,.02832,.06049,.02905,.11871,.05994,.11566,.06232,.11261,.0647,.10956,.06714,.10645,.06952,.10345,.0719,.10034,.07428,.09735,.07672,.09424,.0791,.09119,.08148,.0882,.08392,.08508,.0863,.08203,.08868,.07898,.09106,.07593,.09351,.0368,.04761,.03607,.04816,.07019,.0976,.0675,.09918,.06476,.10095,.06207,.1026,.05939,.10425,.0567,.10596,.05396,.1076,.05133,.10931,.04858,.11096,.0459,.11267,.04321,.11432,.04053,.11603,.03778,.11768,.03516,.11938,.03241,.12103,.0152,.06116,.02881,.12299,.052,.24738,.04456,.24927,.03717,.25122,.02972,.25311,.02228,.255,.01489,.25696,.00739,.25891,.00092,.13013-.00116,.14514Zm.88293-14.0799l-.00275,.14844-.00555,.14728-.00824,.14618-.01105,.14502-.01379,.14386-.01654,.14276-.01929,.1416-.02203,.14044-.02478,.13934-.02759,.13818-.03033,.13702-.03308,.13593-.03583,.13477-.03857,.13361-.04138,.13251-.02167,.0658-.0224,.06543-.04651,.12921-.04907,.12701-.05145,.12488-.05396,.12274-.05634,.12054-.05884,.11841-.06134,.11627-.06372,.11407-.06622,.11194-.06873,.1098-.07111,.1076-.07361,.10553-.07605,.10327-.07849,.10114-.08093,.099-.04144,.04871-.04199,.0481-.08569,.09424-.08813,.09174-.09039,.08911-.09277,.08649-.09509,.08398-.09747,.08136-.09973,.0788-.10211,.07623-.10449,.07361-.10675,.07111-.10913,.06848-.11145,.06592-.11377,.06335-.11615,.06073-.11847,.05823-.06012,.02814-.06067,.02734-.12286,.05212-.12488,.04865-.12689,.04523-.12897,.04169-.13098,.03821-.13306,.03479-.13507,.03125-.13708,.02783-.13916,.02435-.14117,.02081-.14325,.0174-.14526,.01392-.14728,.01044-.14929,.0069-.15137,.00348-.07648,.00043-.07648-.00043-.15143-.00348-.14941-.0069-.14746-.01044-.14551-.01392-.14355-.0174-.14154-.02081-.13953-.02435-.13763-.02783-.13556-.03125-.13367-.03479-.13165-.03821-.12964-.04169-.12775-.04523-.12567-.04865-.12378-.05212-.0611-.02734-.06061-.02814-.11938-.05823-.11694-.06073-.11456-.06335-.11218-.06592-.1098-.06848-.10736-.07111-.10498-.07361-.1026-.07623-.10022-.0788-.09778-.08136-.0954-.08398-.09302-.08649-.09058-.08911-.08826-.09174-.08575-.09424-.04205-.0481-.04138-.04871-.08093-.099-.07855-.10114-.07605-.10327-.07355-.10553-.07111-.1076-.06873-.1098-.06622-.11194-.06372-.11407-.06134-.11627-.05884-.11841-.05634-.12054-.05396-.12274-.05145-.12488-.04907-.12701-.04657-.12921-.02234-.06543-.02167-.0658-.04138-.13251-.03857-.13361-.03583-.13477-.03308-.13593-.03033-.13702-.02759-.13818-.02478-.13934-.02203-.14044-.01935-.1416-.01654-.14276-.01373-.14386-.01105-.14502-.00824-.14618-.00555-.14728-.00275-.14844-.00037-.07465,.00037-.07465,.00275-.14844,.00555-.14728,.00824-.14618,.01105-.14502,.01373-.14386,.01654-.1427,.01935-.14166,.02203-.14044,.02478-.13934,.02759-.13818,.03033-.13702,.03308-.13593,.03583-.13477,.03857-.13361,.04138-.13251,.02167-.0658,.02234-.06543,.04657-.12921,.04907-.12701,.05145-.12488,.05396-.12274,.05634-.12054,.05884-.11841,.06134-.11627,.06372-.11407,.06622-.11194,.06873-.1098,.07111-.1076,.07355-.10547,.07605-.10333,.07855-.10114,.08093-.099,.04138-.04871,.04205-.0481,.08575-.09424,.08826-.09167,.09058-.08911,.09302-.08655,.0954-.08392,.09778-.08142,.10022-.0788,.1026-.07623,.10498-.07361,.10736-.07111,.1098-.06848,.11218-.06592,.11456-.06335,.11694-.06073,.11938-.05823,.06061-.02808,.0611-.0274,.12378-.05212,.12567-.04865,.12775-.04523,.12964-.04169,.13165-.03821,.13367-.03479,.13556-.03125,.13763-.02783,.13953-.02429,.14154-.02087,.14355-.0174,.14551-.01392,.14746-.01038,.14941-.00696,.15143-.00348,.07648-.00043,.07648,.00043,.15137,.00348,.14929,.00696,.14728,.01038,.14526,.01392,.14325,.0174,.14117,.02087,.13916,.02429,.13708,.02783,.13507,.03125,.13306,.03479,.13098,.03821,.12897,.04169,.12689,.04523,.12488,.04865,.12286,.05212,.06067,.0274,.06012,.02808,.11847,.05823,.11615,.06073,.11377,.06335,.11145,.06592,.10913,.06848,.10675,.07111,.10449,.07361,.10211,.07623,.09973,.0788,.09747,.08142,.09509,.08392,.09277,.08655,.09039,.08911,.08813,.09167,.08569,.09424,.04199,.0481,.04144,.04871,.08093,.099,.07849,.10114,.07605,.10333,.07361,.10547,.07111,.1076,.06873,.1098,.06622,.11194,.06372,.11407,.06134,.11627,.05884,.11841,.05634,.12054,.05396,.12274,.05145,.12488,.04907,.12701,.04651,.12921,.0224,.06543,.02167,.0658,.04138,.13251,.03857,.13361,.03583,.13477,.03308,.13593,.03033,.13702,.02759,.13818,.02478,.13934,.02203,.14044,.01929,.14166,.01654,.1427,.01379,.14386,.01105,.14502,.00824,.14618,.00555,.14728,.00275,.14844,.00031,.07465-.00031,.07465Z"/></svg>