<?xml version="1.0" encoding="UTF-8"?><svg id="Layer_1" xmlns="http://www.w3.org/2000/svg" xmlns:xlink="http://www.w3.org/1999/xlink" viewBox="0 0 500 500"><defs><style>.cls-1{clip-path:url(#clippath);}.cls-2{opacity:.7;}</style><clipPath id="clippath"><path d="m200.9741,99.11421c0,10.41824.10419,20.83812-.06165,31.25371-.05173,3.24683.99474,4.21363,4.25351,4.29649,29.6887.75484,55.57394,11.04263,76.54347,32.22158,19.55055,19.74586,30.22914,43.72505,32.20805,71.58486,1.79906,25.32819-3.01371,49.17115-16.71512,70.59132-21.23809,33.2028-51.52763,51.32051-91.36779,52.43042-4.83397.13463-4.85504.06903-4.85708,5.02157-.00841,20.48136-.00121,40.96268-.0065,61.44404-.00134,5.23971-.01869,5.38058-5.38903,5.15134-53.90089-2.30051-100.99975-20.63767-138.75252-60.01587-26.44953-27.5882-41.89544-60.75154-47.28631-98.5548-5.01471-35.16537-.64823-69.16515,13.59358-101.73568,11.24822-25.72428,27.96111-47.42988,49.70609-65.17272,30.2901-24.71526,65.18495-38.38794,103.85547-42.89008,6.82348-.79441,13.64988-1.27377,20.51969-1.44564,3.05945-.07653,3.83632.99154,3.80294,3.85494-.1243,10.65359-.0496,21.30948-.04678,31.96452Zm-.96747,149.03634c0-35.50526.00017-71.01048-.00087-106.51572,0-1.18345-.04331-2.36776-.01158-3.55017.05051-1.88001-.81355-2.35935-2.65042-2.25848-18.96247,1.04127-36.51905,6.66426-52.54633,16.69809-41.95575,26.26622-61.65878,77.41048-48.32098,125.09194,7.95768,28.44793,24.37531,50.7026,49.39847,66.48199,14.67244,9.25226,30.7601,14.46513,47.97946,16.20167,6.11535.61679,6.15285.48454,6.15302-5.63363.001-35.50522.00048-71.01048-.00078-106.5157Z"/></clipPath></defs><g><path d="m200.9741,99.11421c0,10.41824.10419,20.83812-.06165,31.25371-.05173,3.24683.99474,4.21363,4.25351,4.29649,29.6887.75484,55.57394,11.04263,76.54347,32.22158,19.55055,19.74586,30.22914,43.72505,32.20805,71.58486,1.79906,25.32819-3.01371,49.17115-16.71512,70.59132-21.23809,33.2028-51.52763,51.32051-91.36779,52.43042-4.83397.13463-4.85504.06903-4.85708,5.02157-.00841,20.48136-.00121,40.96268-.0065,61.44404-.00134,5.23971-.01869,5.38058-5.38903,5.15134-53.90089-2.30051-100.99975-20.63767-138.75252-60.01587-26.44953-27.5882-41.89544-60.75154-47.28631-98.5548-5.01471-35.16537-.64823-69.16515,13.59358-101.73568,11.24822-25.72428,27.96111-47.42988,49.70609-65.17272,30.2901-24.71526,65.18495-38.38794,103.85547-42.89008,6.82348-.79441,13.64988-1.27377,20.51969-1.44564,3.05945-.07653,3.83632.99154,3.80294,3.85494-.1243,10.65359-.0496,21.30948-.04678,31.96452Zm-.96747,149.03634c0-35.50526.00017-71.01048-.00087-106.51572,0-1.18345-.04331-2.36776-.01158-3.55017.05051-1.88001-.81355-2.35935-2.65042-2.25848-18.96247,1.04127-36.51905,6.66426-52.54633,16.69809-41.95575,26.26622-61.65878,77.41048-48.32098,125.09194,7.95768,28.44793,24.37531,50.7026,49.39847,66.48199,14.67244,9.25226,30.7601,14.46513,47.97946,16.20167,6.11535.61679,6.15285.48454,6.15302-5.63363.001-35.50522.00048-71.01048-.00078-106.5157Z"/><g class="cls-1"><polygon points="88.79025 135.72531 83.13865 205.89928 83.13865 135.72531 88.79025 135.72531"/><polygon points="98.20414 135.72531 83.13865 322.7884 83.13865 205.89928 88.79025 135.72531 98.20414 135.72531"/><polygon points="107.61803 135.72531 89.9462 355.15052 83.13865 354.60227 83.13865 322.7884 98.20414 135.72531 107.61803 135.72531"/><polygon points="117.03192 135.72531 99.29942 355.9038 89.9462 355.15052 107.61803 135.72531 117.03192 135.72531"/><polygon points="126.44581 135.72531 108.65264 356.65708 99.29942 355.9038 117.03192 135.72531 126.44581 135.72531"/><polygon points="135.85969 135.72531 118.00586 357.41036 108.65264 356.65708 126.44581 135.72531 135.85969 135.72531"/><polygon points="145.27358 135.72531 127.35909 358.16364 118.00586 357.41036 135.85969 135.72531 145.27358 135.72531"/><polygon points="154.68747 135.72531 136.71231 358.91692 127.35909 358.16364 145.27358 135.72531 154.68747 135.72531"/><polygon points="164.10136 135.72531 146.06553 359.6702 136.71231 358.91692 154.68747 135.72531 164.10136 135.72531"/><polygon points="173.51525 135.72531 155.41875 360.42348 146.06553 359.6702 164.10136 135.72531 173.51525 135.72531"/><polygon points="182.92914 135.72531 164.79292 360.91666 161.54237 360.91666 155.41875 360.42348 173.51525 135.72531 182.92914 135.72531"/><polygon points="192.34303 135.72531 174.20681 360.91666 164.79292 360.91666 182.92914 135.72531 192.34303 135.72531"/><polygon points="200.0447 156.9854 183.6207 360.91666 174.20681 360.91666 192.34303 135.72531 200.0447 135.72531 200.0447 156.9854"/><polygon points="200.0447 273.87452 193.03459 360.91666 183.6207 360.91666 200.0447 156.9854 200.0447 273.87452"/><polygon points="193.03459 360.91666 200.0447 273.87452 200.0447 360.91666 193.03459 360.91666"/><polygon points="9.90474 63.21822 4.52841 129.97434 4.52841 63.21822 9.90474 63.21822"/><polygon points="19.31863 63.21822 4.52841 246.86346 4.52841 129.97434 9.90474 63.21822 19.31863 63.21822"/><polygon points="28.73252 63.21822 4.52841 363.75259 4.52841 246.86346 19.31863 63.21822 28.73252 63.21822"/><polygon points="38.14641 63.21822 9.15214 423.23038 4.52841 422.858 4.52841 363.75259 28.73252 63.21822 38.14641 63.21822"/><polygon points="47.5603 63.21822 18.50536 423.98366 9.15214 423.23038 38.14641 63.21822 47.5603 63.21822"/><polygon points="56.97419 63.21822 27.85859 424.73694 18.50536 423.98366 47.5603 63.21822 56.97419 63.21822"/><polygon points="66.38808 63.21822 37.21181 425.49022 27.85859 424.73694 56.97419 63.21822 66.38808 63.21822"/><polygon points="75.80197 63.21822 46.56503 426.2435 37.21181 425.49022 66.38808 63.21822 75.80197 63.21822"/><polygon points="85.21586 63.21822 55.91825 426.99678 46.56503 426.2435 75.80197 63.21822 85.21586 63.21822"/><polygon points="94.62975 63.21822 65.27148 427.75006 55.91825 426.99678 85.21586 63.21822 94.62975 63.21822"/><polygon points="104.04363 63.21822 74.6247 428.50334 65.27148 427.75006 94.62975 63.21822 104.04363 63.21822"/><polygon points="113.45752 63.21822 83.97792 429.25662 74.6247 428.50334 104.04363 63.21822 113.45752 63.21822"/><polygon points="122.87141 63.21822 93.33114 430.0099 83.97792 429.25662 113.45752 63.21822 122.87141 63.21822"/><polygon points="132.2853 63.21822 102.68437 430.76318 93.33114 430.0099 122.87141 63.21822 132.2853 63.21822"/><polygon points="141.69919 63.21822 112.03759 431.51646 102.68437 430.76318 132.2853 63.21822 141.69919 63.21822"/><polygon points="151.11308 63.21822 121.39081 432.26974 112.03759 431.51646 141.69919 63.21822 151.11308 63.21822"/><polygon points="160.52697 63.21822 130.74403 433.02302 121.39081 432.26974 151.11308 63.21822 160.52697 63.21822"/><polygon points="169.94086 63.21822 140.13249 433.33878 134.6648 433.33878 130.74403 433.02302 160.52697 63.21822 169.94086 63.21822"/><polygon points="179.35475 63.21822 149.54638 433.33878 140.13249 433.33878 169.94086 63.21822 179.35475 63.21822"/><polygon points="188.76864 63.21822 158.96027 433.33878 149.54638 433.33878 179.35475 63.21822 188.76864 63.21822"/><polygon points="198.18253 63.21822 168.37416 433.33878 158.96027 433.33878 188.76864 63.21822 198.18253 63.21822"/><polygon points="207.59642 63.21822 177.78805 433.33878 168.37416 433.33878 198.18253 63.21822 207.59642 63.21822"/><polygon points="217.01031 63.21822 187.20194 433.33878 177.78805 433.33878 207.59642 63.21822 217.01031 63.21822"/><polygon points="226.42419 63.21822 196.61583 433.33878 187.20194 433.33878 217.01031 63.21822 226.42419 63.21822"/><polygon points="235.83808 63.21822 206.02972 433.33878 196.61583 433.33878 226.42419 63.21822 235.83808 63.21822"/><polygon points="238.70476 63.21822 245.20978 63.74212 215.44361 433.33878 206.02972 433.33878 235.83808 63.21822 238.70476 63.21822"/><polygon points="245.20978 63.74212 254.563 64.4954 224.8575 433.33878 215.44361 433.33878 245.20978 63.74212"/><polygon points="254.563 64.4954 263.91623 65.24867 234.27138 433.33878 224.8575 433.33878 254.563 64.4954"/><polygon points="263.91623 65.24867 273.26945 66.00195 243.68527 433.33878 234.27138 433.33878 263.91623 65.24867"/><polygon points="273.26945 66.00195 282.62267 66.75523 253.09916 433.33878 243.68527 433.33878 273.26945 66.00195"/><polygon points="282.62267 66.75523 291.97589 67.50851 262.51305 433.33878 253.09916 433.33878 282.62267 66.75523"/><polygon points="291.97589 67.50851 301.32912 68.26179 271.92694 433.33878 262.51305 433.33878 291.97589 67.50851"/><polygon points="301.32912 68.26179 310.68234 69.01507 281.34083 433.33878 271.92694 433.33878 301.32912 68.26179"/><polygon points="310.68234 69.01507 315.71654 69.42051 315.71654 123.39622 290.75472 433.33878 281.34083 433.33878 310.68234 69.01507"/><polygon points="315.71654 240.28534 300.16861 433.33878 290.75472 433.33878 315.71654 123.39622 315.71654 240.28534"/><polygon points="315.71654 357.17447 309.5825 433.33878 300.16861 433.33878 315.71654 240.28534 315.71654 357.17447"/><polygon points="309.5825 433.33878 315.71654 357.17447 315.71654 433.33878 309.5825 433.33878"/></g></g><g class="cls-2"><path d="m331.85299,324.5057c.17299-12.77394,4.87673-23.54484,14.8226-31.40653,24.37874-19.2703,29.0842-58.45634,6.89439-83.98848-1.98685-2.28606-4.24493-4.27409-6.57079-6.21239-3.88568-3.23812-7.23913-6.97395-9.7678-11.38714-15.37999-26.84229,3.97746-60.23659,34.94674-60.07484,15.93222.08319,27.96081,7.45109,35.47389,21.35007,7.51488,13.90211,6.22932,27.82756-2.08182,41.06204-2.05757,3.27647-4.79397,6.15282-7.83676,8.68048-16.35613,13.58724-23.1008,31.20869-20.93285,52.10587,1.6244,15.65713,8.88296,28.39801,21.04053,38.67076,12.04531,10.17782,16.97285,23.5564,13.63874,39.09918-3.38516,15.78-13.38356,26.16702-28.92072,30.43099-23.66967,6.49574-47.14913-9.40291-50.42818-33.70447-.20855-1.54572-.19274-3.12177-.27796-4.62554Z"/><path d="m335.5434,95.64093c.57468,20.53331-16.38005,40.36018-40.12339,40.45597-22.32683.09007-40.39979-17.99737-40.36996-40.27529.02991-22.29406,18.13389-40.37311,40.38258-40.32694,22.20809.04609,40.07135,17.92516,40.11077,40.14626Z"/><path d="m447.72485,290.10916c-22.45737-.03269-40.24663-17.88985-40.18771-40.34111.05884-22.43262,17.99987-40.21685,40.38963-40.1597,23.12325.059,40.37562,19.4434,40.06922,40.53494-.32254,22.20708-17.99446,39.99827-40.27113,39.96587Z"/></g><g class="cls-2"><path d="m350.87626,401.45586c.57468,20.53331-16.38005,40.36018-40.12339,40.45597-22.32683.09007-40.39979-17.99737-40.36996-40.27529.02991-22.29406,18.13389-40.37311,40.38258-40.32694,22.20809.04609,40.07135,17.92516,40.11077,40.14626Z"/></g></svg>