<svg id="Layer_1" data-name="Layer 1" xmlns="http://www.w3.org/2000/svg" viewBox="0 0 400 400"><defs><style>.cls-1{fill:#da8c27;}.cls-2{fill:#f1efe0;}</style></defs><path class="cls-1" d="M9.59627,197.07321c0-105.41073,85.45345-190.86163,190.86255-190.86163,105.40933,0,190.86255,85.4509,190.86255,190.86163,0,105.41-85.45322,190.86347-190.86255,190.86347-105.4091,0-190.86255-85.45346-190.86255-190.86347"/><path class="cls-2" d="M304.33663,236.45592l-.77733-.01181c-.05088,0-.09947,0-.15729-.00278v.00278h-.06016v-.00278c-19.25975-.47448-34.37608-14.80006-34.37608-32.62385,0-11.48876,6.36207-21.91748,17.00873-27.899l.347-.19087a37.15225,37.15225,0,0,1,14.8433-4.41181l.03471-.00278c1.0087-.0849,2.06132-.12725,3.12321-.12725,19.4865,0,35.34314,14.63812,35.34314,32.63172,0,17.99381-15.84507,32.631-35.32924,32.63841Zm-95.35308,45.74084-60.3785.01644V224.01354a58.28018,58.28018,0,0,1,58.22119-58.19572h5.15307v-5.15121a48.77664,48.77664,0,0,1,48.5353-48.73334,52.561,52.561,0,0,1,48.46521,32.65486,25.77431,25.77431,0,0,1-10.07062,16.609c-1.1868.13-2.36206.30262-3.51419.51962A47.03236,47.03236,0,0,0,281.0676,166.876l-.71023.35881-.10641.10919a44.51171,44.51171,0,0,0-15.3893,14.89676,40.96308,40.96308,0,0,0-6.17469,21.57672,41.41784,41.41784,0,0,0,13.09433,30.10355q.4199.39977.85365.79236a48.11207,48.11207,0,0,1-24.472-14.58583,46.60616,46.60616,0,0,0-4.12728-5.39227,41.68508,41.68508,0,0,1-6.76972-22.67216H226.97715a51.23978,51.23978,0,0,0,1.20277,11.00087,46.88,46.88,0,0,0-19.16837-4.13374v10.29245a36.57084,36.57084,0,0,1,26.87158,11.81313,53.8877,53.8877,0,0,0,4.04051,5.29581,36.50624,36.50624,0,0,1-30.94008,55.8651ZM61.24946,243.67193a38.55748,38.55748,0,0,1,77.11495.00529v38.5304H99.79421a38.58457,38.58457,0,0,1-38.54475-38.53574Zm251.51288-82.04015a35.94316,35.94316,0,0,0,6.605-17.10844l.13418-1.22845-.43259-1.15674A62.59694,62.59694,0,0,0,260.4984,101.6429a59.09931,59.09931,0,0,0-58.608,54.05458,68.6154,68.6154,0,0,0-62.90437,58.877,48.82443,48.82443,0,1,0-39.19183,77.93091H264.52848V282.20764H238.21213a46.81445,46.81445,0,0,0,17.05546-43.38407,60.754,60.754,0,0,0,29.66813,7.66873l18.23721.236h.09717c.347.01.69869.01618,1.05262.01618,25.16148,0,45.63582-19.25609,45.63582-42.927,0-20.95507-16.051-38.4508-37.19622-42.18569"/><path class="cls-2" d="M304.32272,212.38292c-5.26549,0-9.54776-3.84267-9.54776-8.56543,0-4.72,4.28227-8.56153,9.54776-8.56153,5.2632,0,9.54546,3.84154,9.54546,8.56152C313.86818,208.54023,309.58592,212.38292,304.32272,212.38292Zm0-27.41664c-10.93814,0-19.83582,8.45695-19.83582,18.8512,0,10.39819,8.89766,18.85421,19.83582,18.85421s19.83583-8.456,19.83583-18.85421c0-10.39425-8.89766-18.8512-19.83583-18.8512"/></svg>