<svg id="Layer_1" data-name="Layer 1" xmlns="http://www.w3.org/2000/svg" viewBox="0 0 385.90654 116.90347"><defs><style>.cls-1{fill:none;}.cls-2{fill:#fff;}</style></defs><title>acumos-horizontal-white</title><path class="cls-1" d="M334.2437,40.69436a5.42419,5.42419,0,0,0-.96594-.84112,4.81022,4.81022,0,0,1,.87384.84112,8.50991,8.50991,0,0,1,1.75055,2.57984,7.76136,7.76136,0,0,1,.64495,3.22473V68.42727a7.76133,7.76133,0,0,1-.64495,3.22473,8.50888,8.50888,0,0,1-1.75055,2.57978,8.07182,8.07182,0,0,1-5.75745,2.39361c.015.00006.03.002.045.002a7.47744,7.47744,0,0,0,3.22474-.645,8.508,8.508,0,0,0,2.57977-1.75061,7.50981,7.50981,0,0,0,1.75061-2.57978,7.76229,7.76229,0,0,0,.645-3.22473V46.49893a9.13786,9.13786,0,0,0-.645-3.22473A9.8169,9.8169,0,0,0,334.2437,40.69436Z"/><polygon class="cls-1" points="171.071 65.202 184.892 65.202 184.83 64.926 171.133 64.926 171.071 65.202"/><path class="cls-2" d="M178.35,24.93917h-3.86969L159.9229,90.44766h5.62024l4.42254-19.80914h16.21588l4.42255,19.80914h5.6203L181.66692,24.93917Zm6.54163,40.26331H171.07127l.06153-.27637h-.06153l6.91022-31.04974,6.91016,31.04974h-.06153Z"/><polygon class="cls-2" points="177.981 33.876 171.071 64.926 171.133 64.926 177.981 34.153 184.83 64.926 184.892 64.926 177.981 33.876"/><path class="cls-2" d="M220.5482,36.73257a14.40707,14.40707,0,0,0-4.33038-2.94836,14.09672,14.09672,0,0,0-10.77985,0,12.90532,12.90532,0,0,0-4.33038,2.94836,14.407,14.407,0,0,0-2.94836,4.33038,13.21848,13.21848,0,0,0-1.10566,5.34388V68.42727a13.67077,13.67077,0,0,0,4.054,9.67426,14.40813,14.40813,0,0,0,4.33038,2.9483,13.21764,13.21764,0,0,0,5.34388,1.10565,13.67094,13.67094,0,0,0,9.67425-4.054,14.40968,14.40968,0,0,0,2.9483-4.33039,13.2174,13.2174,0,0,0,1.10566-5.34387V67.22946h-5.436v1.19781a7.76118,7.76118,0,0,1-.645,3.22473,7.50969,7.50969,0,0,1-1.75055,2.57978,8.5082,8.5082,0,0,1-2.57983,1.75061,8.67133,8.67133,0,0,1-6.44946,0,8.28846,8.28846,0,0,1-4.33039-4.33039,7.76134,7.76134,0,0,1-.645-3.22473V46.49893a7.76137,7.76137,0,0,1,.645-3.22473,7.51009,7.51009,0,0,1,1.75055-2.57984,8.50991,8.50991,0,0,1,2.57984-1.75055,8.67133,8.67133,0,0,1,6.44946,0,7.50947,7.50947,0,0,1,2.57983,1.75055,8.50973,8.50973,0,0,1,1.75055,2.57984,7.76121,7.76121,0,0,1,.645,3.22473v1.19775h5.436V46.49893a12.9051,12.9051,0,0,0-1.10566-5.34387A13.06567,13.06567,0,0,0,220.5482,36.73257Z"/><path class="cls-2" d="M250.67662,68.15084h-.09216a7.76138,7.76138,0,0,1-.645,3.22474,7.51,7.51,0,0,1-1.75055,2.57983,8.5098,8.5098,0,0,1-2.57983,1.75055,7.47744,7.47744,0,0,1-3.22474.645,7.76118,7.76118,0,0,1-3.22473-.645,7.50991,7.50991,0,0,1-2.57983-1.75055,8.5098,8.5098,0,0,1-1.75055-2.57983,7.76138,7.76138,0,0,1-.645-3.22474V32.955h-5.436V68.15084a13.67027,13.67027,0,0,0,4.05395,9.67426,14.40818,14.40818,0,0,0,4.33039,2.9483,13.37644,13.37644,0,0,0,11.05627-.18426,16.10447,16.10447,0,0,0,2.48767-1.47418v2.3034h5.436V32.955h-5.436Z"/><path class="cls-2" d="M306.51085,37.00894a14.40815,14.40815,0,0,0-4.33038-2.94831,13.21764,13.21764,0,0,0-5.34388-1.10565,13.45337,13.45337,0,0,0-7.09448,1.93488,12.8706,12.8706,0,0,0-3.86969,3.50116,14.07124,14.07124,0,0,0-3.86975-3.50116,13.45286,13.45286,0,0,0-7.09442-1.93488,13.23853,13.23853,0,0,0-5.71246,1.19776,11.08589,11.08589,0,0,0-2.48768,1.47418V33.32351h-5.436V81.69479h5.436V46.68319a7.76232,7.76232,0,0,1,.645-3.22473,7.50933,7.50933,0,0,1,1.75061-2.57977,9.81416,9.81416,0,0,1,2.57978-1.75061,8.67139,8.67139,0,0,1,6.44952,0,7.50893,7.50893,0,0,1,2.57977,1.75061,8.50758,8.50758,0,0,1,1.75055,2.57977,7.76121,7.76121,0,0,1,.645,3.22473V81.87906h5.436V46.68319a7.76136,7.76136,0,0,1,.64495-3.22473,8.50883,8.50883,0,0,1,1.75055-2.57977,8.95689,8.95689,0,0,1,2.67194-1.75061,8.43417,8.43417,0,0,1,6.35736,0,7.5091,7.5091,0,0,1,2.57983,1.75061,8.50848,8.50848,0,0,1,1.75055,2.57977,7.76121,7.76121,0,0,1,.645,3.22473V81.87906h5.436V46.68319a12.90512,12.90512,0,0,0-1.10559-5.34387A11.26177,11.26177,0,0,0,306.51085,37.00894Z"/><path class="cls-2" d="M338.11345,36.73257a14.40665,14.40665,0,0,0-4.33045-2.94836,14.0967,14.0967,0,0,0-10.77984,0,12.90522,12.90522,0,0,0-4.33038,2.94836,14.40813,14.40813,0,0,0-2.94837,4.33038,13.21764,13.21764,0,0,0-1.10565,5.34388V68.42727a13.67066,13.67066,0,0,0,4.054,9.67426,14.4065,14.4065,0,0,0,4.33038,2.9483,13.2171,13.2171,0,0,0,5.34381,1.10565,13.67094,13.67094,0,0,0,9.67425-4.054,14.40968,14.40968,0,0,0,2.94837-4.33039,13.21756,13.21756,0,0,0,1.10565-5.34387V46.49893a12.90414,12.90414,0,0,0-1.10565-5.34387A13.06492,13.06492,0,0,0,338.11345,36.73257Zm-1.47418,31.6947a7.76229,7.76229,0,0,1-.645,3.22473,7.50981,7.50981,0,0,1-1.75061,2.57978,8.508,8.508,0,0,1-2.57977,1.75061,7.47744,7.47744,0,0,1-3.22474.645c-.015,0-.03-.0019-.045-.002-.01624.00006-.03082.002-.04712.002a7.47743,7.47743,0,0,1-3.22473-.645,8.28849,8.28849,0,0,1-4.33038-4.33039,7.76118,7.76118,0,0,1-.645-3.22473V46.40683a7.76131,7.76131,0,0,1,.645-3.2248,9.81625,9.81625,0,0,1,1.75055-2.57977,7.50853,7.50853,0,0,1,2.57983-1.75061,8.38413,8.38413,0,0,1,6.44946,0,8.5848,8.5848,0,0,1,1.706,1.00159,5.42419,5.42419,0,0,1,.96594.84112,9.8169,9.8169,0,0,1,1.75061,2.57984,9.13786,9.13786,0,0,1,.645,3.22473Z"/><path class="cls-2" d="M322.63463,74.23178a8.50762,8.50762,0,0,1-1.75055-2.57978,7.76134,7.76134,0,0,1-.645-3.22473V46.49893a7.76137,7.76137,0,0,1,.645-3.22473,7.50912,7.50912,0,0,1,1.75055-2.57984,8.50957,8.50957,0,0,1,2.57977-1.75055,8.38431,8.38431,0,0,1,6.44953,0,9.92785,9.92785,0,0,1,1.61383.90943,8.5848,8.5848,0,0,0-1.706-1.00159,8.38413,8.38413,0,0,0-6.44946,0,7.50853,7.50853,0,0,0-2.57983,1.75061,9.81625,9.81625,0,0,0-1.75055,2.57977,7.76131,7.76131,0,0,0-.645,3.2248V68.42727a7.76118,7.76118,0,0,0,.645,3.22473,8.28849,8.28849,0,0,0,4.33038,4.33039,7.47743,7.47743,0,0,0,3.22473.645c.0163,0,.03088-.0019.04712-.002a7.73608,7.73608,0,0,1-3.17975-.643A7.50907,7.50907,0,0,1,322.63463,74.23178Z"/><path class="cls-2" d="M369.62383,36.73257a13.67757,13.67757,0,0,0-15.1103-2.94836,12.90542,12.90542,0,0,0-4.33038,2.94836,14.40938,14.40938,0,0,0-2.94836,4.33038,13.21864,13.21864,0,0,0-1.10565,5.34388A10.34535,10.34535,0,0,0,347.32689,51.29a13.73624,13.73624,0,0,0,3.04047,3.59327,25.20013,25.20013,0,0,0,3.96185,2.7641c1.47418.82922,2.8562,1.56628,4.23822,2.21124,1.28992.645,2.57983,1.38208,3.77759,2.027a19.37136,19.37136,0,0,1,3.04046,2.027,7.28812,7.28812,0,0,1,1.93488,2.21131,4.25443,4.25443,0,0,1,.645,2.3955,7.76119,7.76119,0,0,1-.645,3.22474,7.50934,7.50934,0,0,1-1.75061,2.57983A9.814,9.814,0,0,1,362.99,76.07449a8.67133,8.67133,0,0,1-6.44946,0,8.50786,8.50786,0,0,1-2.57983-1.75055,9.8168,9.8168,0,0,1-1.75055-2.57983,7.76119,7.76119,0,0,1-.645-3.22474V67.32162h-5.34381v1.10565a13.67066,13.67066,0,0,0,4.054,9.67426,14.408,14.408,0,0,0,4.33038,2.9483,13.21738,13.21738,0,0,0,5.34387,1.10565,13.67127,13.67127,0,0,0,9.67426-4.054,14.40968,14.40968,0,0,0,2.9483-4.33039,13.21756,13.21756,0,0,0,1.10565-5.34387,10.62917,10.62917,0,0,0-1.19775-4.88324,15.30245,15.30245,0,0,0-2.94837-3.59326,25.6088,25.6088,0,0,0-3.96179-2.8562c-1.382-.73712-2.8562-1.56635-4.23828-2.2113-1.28986-.645-2.57977-1.28986-3.68543-1.84272a26.16236,26.16236,0,0,1-3.13256-2.027,8.72794,8.72794,0,0,1-2.027-2.11914,4.25426,4.25426,0,0,1-.645-2.39551,7.761,7.761,0,0,1,.645-3.22473,8.28849,8.28849,0,0,1,4.33038-4.33039,8.67151,8.67151,0,0,1,6.44953,0,7.50988,7.50988,0,0,1,2.57977,1.75055,8.50991,8.50991,0,0,1,1.75055,2.57984,7.76118,7.76118,0,0,1,.645,3.22473v1.19775h5.436V46.49893a12.90414,12.90414,0,0,0-1.10565-5.34387A14.85546,14.85546,0,0,0,369.62383,36.73257Z"/><polygon class="cls-2" points="92.572 84.182 93.032 85.288 93.493 86.117 93.677 86.578 94.783 88.789 96.165 91.553 98.192 95.515 99.113 95.515 99.666 95.515 103.444 95.515 103.997 95.515 106.853 95.515 105.379 92.659 103.167 88.144 102.707 87.223 101.785 85.472 100.772 83.353 95.704 73.403 95.244 72.297 94.783 71.468 94.414 70.731 93.862 69.625 82.345 46.591 78.383 53.87 77.83 54.883 77.83 54.975 78.198 55.62 78.567 56.265 82.252 63.728 82.713 64.65 83.082 65.387 83.174 65.571 83.358 65.847 89.163 77.457 89.439 78.009 89.623 78.378 89.808 78.839 90.084 79.299 92.572 84.182"/><polygon class="cls-2" points="76.724 52.396 76.909 52.672 81.331 44.564 80.686 43.366 79.765 41.431 74.513 31.02 74.052 32.034 73.5 33.139 73.407 33.324 73.131 33.968 71.104 37.93 70.09 40.049 76.54 52.58 76.724 52.396"/><polygon class="cls-2" points="76.54 52.58 76.724 53.041 76.909 52.672 76.724 52.396 76.54 52.58"/><path class="cls-2" d="M12.87425,58.20016v-.36853a2.16713,2.16713,0,0,1,.18427-.73706L6.51689,54.054a20.53409,20.53409,0,0,0-2.027,5.6203l6.3573-1.19775Z"/><path class="cls-2" d="M11.95287,77.8251,4.582,68.61154l-.27643-.36859a22.3518,22.3518,0,0,0,2.027,5.89673l.92132.55279Z"/><path class="cls-2" d="M6.97752,75.24527A21.70959,21.70959,0,0,0,12.045,81.04983l.27637-.55279.64495-1.28992Z"/><polygon class="cls-2" points="79.949 63.728 76.632 57.187 73.407 63.728 79.949 63.728"/><path class="cls-2" d="M120.12022,51.38211a2.33016,2.33016,0,0,1-1.382-.5528l-1.65844,2.027,3.77759,8.20013,2.48767,5.34381-2.7641-15.01812Z"/><path class="cls-2" d="M123.345,66.4003v-.00007Q123.20676,66.40023,123.345,66.4003Z"/><path class="cls-2" d="M70.64336,12.86941l5.80456-6.818a3.27335,3.27335,0,0,1-.82922-.36853l-3.04053,4.33038Z"/><path class="cls-2" d="M58.1129,93.94888l3.13257,1.01349.73712-1.01349,2.027-2.7641a2.35,2.35,0,0,1-.73712-1.10565l-3.59327.73712Z"/><path class="cls-2" d="M112.93364,19.31887l3.31689-.0921a7.78408,7.78408,0,0,0-.46069-1.56634L110.90666,19.411Z"/><path class="cls-2" d="M31.48564,19.50314a21.42315,21.42315,0,0,0-8.01581,4.699l12.43836-5.6203Z"/><path class="cls-2" d="M116.61906,20.88522l1.65845.27637a2.28409,2.28409,0,0,1,2.30341-1.28986.69661.69661,0,0,1,.36853.0921l.09216-.18426c-.18426-.09217-.27643-.09217-.46069-.18427l-9.0293.27643Z"/><path class="cls-2" d="M61.0612,9.64462l6.81806-4.054A15.80648,15.80648,0,0,0,63.9174,7.52554a.28532.28532,0,0,1-.18426.0921,16.15615,16.15615,0,0,0-4.23822-.27637L59.40276,8.539A2.27247,2.27247,0,0,1,61.0612,9.64462Z"/><path class="cls-2" d="M47.24083,81.04983l-6.44946,1.56635c.0921.55279.27636,1.01349.36853,1.56628l5.80456-2.48767Z"/><path class="cls-2" d="M70.82762,20.60879,69.35344,19.5953l-.73712-.46069a2.15755,2.15755,0,0,1-1.65845.73712h-.0921l-1.28992,8.5686a1.91207,1.91207,0,0,1,.92139.5528l3.77753-4.42249.92138-1.01348a2.48887,2.48887,0,0,1-.645-1.93488A2.10027,2.10027,0,0,1,70.82762,20.60879Z"/><path class="cls-2" d="M60.50841,13.05368a2.41667,2.41667,0,0,1-.82923.46069L61.5219,19.5953l2.67193,8.66077c.18427,0,.4607-.09216.645,0h.0921l1.28992-8.56867a2.09562,2.09562,0,0,1-1.10559-1.84271,1.28635,1.28635,0,0,1,.27637-.82922Z"/><path class="cls-2" d="M123.98991,80.12851V76.25875l-.0921-4.69891h-.18426a.554.554,0,0,1-.36853-.0921l-5.25177,10.04278-2.764,5.25171,6.63373-3.22473a2.17519,2.17519,0,0,1-.09211-1.10559A2.36729,2.36729,0,0,1,123.98991,80.12851Z"/><path class="cls-2" d="M118.46178,46.86746,106.85271,33.692,113.0258,45.5776l3.59326,6.818,1.56629-1.93482a2.46154,2.46154,0,0,1-.5528-1.84271A3.11347,3.11347,0,0,1,118.46178,46.86746Z"/><path class="cls-2" d="M94.78288,93.85672,92.111,88.605c0-.09211-.09211-.09211-.18427,0L90.3604,101.78036c.46069.18433.92132.27643,1.382.46069a.19816.19816,0,0,1,.18426.18427c.09216.36859.27643.73712.36853,1.10565l1.65845-6.26526Z"/><path class="cls-2" d="M141.77214,81.69479l.36853-.645c-.18426-.55279-.36853-1.01349-.55279-1.56628l-.27643,2.9483Z"/><path class="cls-2" d="M100.67961,21.53018a1.97586,1.97586,0,0,1-1.10565-.36859l-4.14612,5.436-1.65845,2.11914a3.11266,3.11266,0,0,1,.82923,1.75055l7.73944.4607h.55279a2.74545,2.74545,0,0,1,1.28992-1.84272l-.73712-2.11914-1.93482-5.6203A1.369,1.369,0,0,1,100.67961,21.53018Z"/><path class="cls-2" d="M107.9583,85.74874a2.717,2.717,0,0,1-1.19776,1.28992l.73713,1.84271,7.37085,20.08558-.4607-21.28333Z"/><path class="cls-2" d="M91.37389,88.51284a2.47914,2.47914,0,0,1-2.11914-1.75061L78.65916,87.96005,68.34,89.1578v.18427a2.84684,2.84684,0,0,1-1.01349,1.84271l5.06745,8.108a23.81663,23.81663,0,0,0,8.75293-6.35736.33832.33832,0,0,1,.27636-.09216.19815.19815,0,0,1,.18427.18426,14.424,14.424,0,0,0,8.108,8.4765l.82922-7.09448Z"/><path class="cls-2" d="M109.70891,85.74874l4.69891,1.38209,1.84271-3.50116,6.44953-12.3462c-.09217-.09216-.27643-.18426-.36859-.27642l-2.764,2.3034-11.8855,9.95062a3.18214,3.18214,0,0,1,.46063,1.65845.33861.33861,0,0,1-.0921.27643Z"/><path class="cls-2" d="M54.05888,67.50589,42.91045,58.29232c-.09211.09211-.18427.18427-.27637.18427l8.20007,15.47882Z"/><path class="cls-2" d="M46.59593,82.43185l-5.25177,2.30341A18.95264,18.95264,0,0,0,43.279,89.1578Z"/><path class="cls-2" d="M136.15184,97.26571a14.59166,14.59166,0,0,0,5.98883-8.01581l-1.28992-4.60675Z"/><path class="cls-2" d="M47.51726,80.40487l2.8562-5.7124-.27637-.92133-7.9237-14.926a1.8418,1.8418,0,0,1-1.19776.18426.554.554,0,0,1-.36853-.0921L28.16875,85.10379l7.9237-1.93482a18.5964,18.5964,0,0,0,3.86969-2.7641.33855.33855,0,0,1,.27643-.0921c.0921,0,.18427.0921.18427.27643.0921.46063.0921.92132.18426,1.47412l2.67194-.645Z"/><polygon class="cls-2" points="138.916 60.688 143.154 58.292 142.049 57.187 139.745 58.753 129.057 66.124 138.916 60.688"/><path class="cls-2" d="M121.5023,67.78231a3.17569,3.17569,0,0,1,1.10559-1.10565L116.4348,53.22488,99.11327,57.09457a1.55644,1.55644,0,0,1-.27637.92133l10.77984,4.60681Z"/><path class="cls-2" d="M65.48375,91.82974a1.932,1.932,0,0,1-1.01349-.36853l-1.19775,1.65845L61.70616,95.3309l5.15961,5.52814a31.41632,31.41632,0,0,0,5.06744-1.28992l-5.06744-8.01581A3.697,3.697,0,0,1,65.48375,91.82974Z"/><path class="cls-2" d="M59.95561,98.2792l-1.38208,2.30341a23.18077,23.18077,0,0,0,7.55518.36853l-4.79108-5.15955Z"/><polygon class="cls-2" points="55.533 97.726 55.588 97.726 55.533 97.634 55.533 97.726"/><path class="cls-2" d="M58.1129,94.50167h-.27643L56.178,97.72641h-.59039l1.41962,2.3955c.36853.09217.645.18427,1.01349.27643L60.9691,95.423Z"/><path class="cls-2" d="M38.58012,57.09457,18.126,58.20016v.09216a2.55366,2.55366,0,0,1-1.19775,1.93482l9.30572,21.19122,1.47412,3.40906L39.96214,58.753A2.29374,2.29374,0,0,1,38.58012,57.09457Z"/><path class="cls-2" d="M106.57628,19.87173l-3.13263-.36859a2.48179,2.48179,0,0,1-1.382,1.75061l2.39551,6.81805.27643.82923a3.13319,3.13319,0,0,1,.92132-.09217h.09217l2.21124-7.18658A1.85448,1.85448,0,0,1,106.57628,19.87173Z"/><path class="cls-2" d="M63.54887,83.35324l-1.382,2.67193,1.65845,1.382a3.21579,3.21579,0,0,1,.82923-.55279Z"/><path class="cls-2" d="M73.86809,24.29422a3.13382,3.13382,0,0,1-.92139.09216,2.20129,2.20129,0,0,1-1.28985-.46069L67.2343,28.80886l-.36853.4607a2.30942,2.30942,0,0,1,.46069,1.75055,1.55655,1.55655,0,0,1-.27643.92138l1.01349.5528,2.7641,1.47418,3.77753-7.55511,1.38208,2.8562L74.51305,25.8605Z"/><path class="cls-2" d="M74.51305,23.92569l5.52813,13.08325,1.01349,1.93487L87.5963,33.692l2.11914-1.75055a2.477,2.477,0,0,1-.36853-1.65844,1.70768,1.70768,0,0,1,.18426-.645l-9.02929-4.23822L75.43437,23.0043A2.92749,2.92749,0,0,1,74.51305,23.92569Z"/><path class="cls-2" d="M126.01689,67.50589l8.4765-5.89667,6.91022-4.79108-18.70355-7.09448A2.54939,2.54939,0,0,1,121.04161,51.29l2.764,15.01813h.18426A2.73113,2.73113,0,0,1,126.01689,67.50589Z"/><path class="cls-2" d="M103.16728,83.62967a2.91066,2.91066,0,0,1,1.28986-1.28992L96.902,59.39791l.27643,12.16193Z"/><path class="cls-2" d="M59.67918,56.26535,59.31065,46.1304l-.18426-5.7124H58.85a3.26554,3.26554,0,0,1-1.01349-.27643L43.279,54.97543a3.1822,3.1822,0,0,1,.46063,1.65845,1.7517,1.7517,0,0,1-.46063,1.19775l4.054,3.3169,7.00232,5.80456Z"/><path class="cls-2" d="M140.48222,83.9982,126.93828,83.169a2.59734,2.59734,0,0,1-1.84271,2.027l2.027,9.58209,2.7641,13.08331a14.19235,14.19235,0,0,0,4.14606-9.21356c0-.09216.09216-.18426.18433-.27643h.0921c.09216-.09216.27643-.09216.36853-.18426.27643-.09216.46069-.27643.73712-.36853l.92133-2.57983Z"/><path class="cls-2" d="M145.18114,60.135a10.77318,10.77318,0,0,0-.46064-1.84272l-.64495.27637-.18427.09216-1.65845,15.2024a7.13028,7.13028,0,0,0,2.85621-6.72589,5.53511,5.53511,0,0,0-.645-2.48768v-.27642A7.42852,7.42852,0,0,0,145.18114,60.135Z"/><path class="cls-2" d="M124.08208,85.38021a2.909,2.909,0,0,1-2.027-1.19775l-2.67194,1.28992-4.51464,2.21124,2.67193,4.054,11.14838,17.13726c.18426-.18426.46069-.36853.645-.55279l-4.791-22.94184Z"/><path class="cls-2" d="M65.94444,86.578a2.46124,2.46124,0,0,1,2.30335,2.027l18.15075-2.11908,2.67194-.27643v-.4607a.6901.6901,0,0,1,.09216-.46063l-12.53045-5.436H65.39159l-1.47419,2.7641,1.28992,4.054C65.39159,86.67013,65.668,86.578,65.94444,86.578Z"/><path class="cls-2" d="M60.232,55.25186l6.1731-12.34619-1.1056-.645L61.0612,39.58877a3.46951,3.46951,0,0,1-1.382.82923l.36853,10.50347Z"/><path class="cls-2" d="M94.23009,58.0159a2.6513,2.6513,0,0,1-.27643-1.47419l-5.34387-2.30334,2.48767,5.06744Z"/><path class="cls-2" d="M110.8145,20.42453a2.112,2.112,0,0,1-2.21124,1.382h-.09211l-2.2113,7.18658a2.34908,2.34908,0,0,1,1.10565.73712l6.2652-3.96185,4.51471-2.8562a2.55025,2.55025,0,0,1-.09216-.82923.33845.33845,0,0,1,.09216-.27642Z"/><path class="cls-2" d="M141.12718,83.72177l1.28992,4.42254a14.37916,14.37916,0,0,0-.09216-6.26525Z"/><path class="cls-2" d="M143.33842,58.93728l-16.95294,9.39783a2.84158,2.84158,0,0,1,.0921.92139,1.75177,1.75177,0,0,1-.46063,1.19775l9.85852,8.5686,4.69892,4.054.18426-1.75055.27643-2.8562a12.91021,12.91021,0,0,0-2.027-2.94837.33832.33832,0,0,1-.09216-.27636.19821.19821,0,0,1,.18426-.18433,7.10741,7.10741,0,0,0,2.30341-.92132l.82922-7.55512Z"/><path class="cls-2" d="M103.53581,18.85824l3.13263.36853a2.18135,2.18135,0,0,1,1.65845-1.65844l-.73712-5.71241a8.24628,8.24628,0,0,0-5.06745-3.13263h-.09216c-.0921-.09216-.27643-.18426-.36853-.27642l-.645,7.83154A2.7429,2.7429,0,0,1,103.53581,18.85824Z"/><path class="cls-2" d="M106.11559,87.31509a2.55165,2.55165,0,0,1-.82923.0921.3385.3385,0,0,1-.27637-.0921l4.42249,8.845Z"/><path class="cls-2" d="M99.29753,16.8312a4.07227,4.07227,0,0,1,1.47418-.55279l.27643-3.77759.36853-4.33038A8.52743,8.52743,0,0,0,96.902,7.43338h-.36853a8.96879,8.96879,0,0,0-5.52813-1.28992q-.69105.13824-1.382.27643l3.31683,3.59332Z"/><path class="cls-2" d="M110.7224,18.76608l2.11914-.73706,2.8562-1.01349a8.438,8.438,0,0,0-7.463-4.88324l.64495,5.34387A2.27664,2.27664,0,0,1,110.7224,18.76608Z"/><path class="cls-2" d="M74.42088,19.50314a2.78412,2.78412,0,0,1,1.28992,1.75061l5.89667-.645L98.284,18.85824v-.18432a2.17427,2.17427,0,0,1,.645-1.47413L88.88622,6.51205A12.71789,12.71789,0,0,0,81.3311,5.03787a3.2729,3.2729,0,0,0-.92139.18426l-5.436,13.08326Z"/><path class="cls-2" d="M68.98491,18.12112a3.991,3.991,0,0,1-.09216.46069l2.3034,1.47419a2.57888,2.57888,0,0,1,2.21124-.92139c.18427,0,.36853.09216.55286.09216l4.51465-10.872L79.67265,5.4064a10.52334,10.52334,0,0,0-2.3955.82922h-.27643L68.34,16.46267A1.74343,1.74343,0,0,1,68.98491,18.12112Z"/><path class="cls-2" d="M144.44408,57.64737q-.27641-.41465-.55286-.82923v.18427l.09216.92138Z"/><path class="cls-2" d="M122.88432,48.71017v.36859l.36853.0921,18.61139,7.09449v-.18427l.18427-1.28992a.32157.32157,0,0,0-.0921-.18426,6.46522,6.46522,0,0,0,.0921-2.30341,7.382,7.382,0,0,0-1.56629-3.68542l-17.41363.0921Z"/><path class="cls-2" d="M61.5219,11.30307a2.33069,2.33069,0,0,1-.5528,1.38208l4.97534,3.77752a2.26341,2.26341,0,0,1,1.382-.46069.5538.5538,0,0,1,.36853.09216L75.06584,5.49856a13.07785,13.07785,0,0,0-4.97534-.46069H69.722l-8.29224,4.97534C61.42973,10.47384,61.5219,10.84243,61.5219,11.30307Z"/><path class="cls-2" d="M143.33842,56.81814v-.73706c-.27636-.27643-.46063-.46069-.73706-.73712l-.18426,1.382,1.01349,1.01355Z"/><path class="cls-2" d="M138.17882,41.89218a10.99594,10.99594,0,0,0-4.97528-5.80457c-.09217-.09216-.18427-.18426-.18427-.27643a3.77831,3.77831,0,0,0-.09216-1.01348,10.97314,10.97314,0,0,0-6.26526-8.66077.19816.19816,0,0,1-.18427-.18427,8.09981,8.09981,0,0,0-.46069-1.382h-.0921l-3.50116-1.47418-.27643.5528,6.35736,7.18658Z"/><path class="cls-2" d="M120.58092,41.15506v5.0675a2.554,2.554,0,0,1,2.21124,1.93482l17.22937-.09211a6.33984,6.33984,0,0,0-1.19775-1.01349c-.09217-.09216-.18427-.18432-.09217-.27642a11.22494,11.22494,0,0,0,0-2.48767,4.62414,4.62414,0,0,0-.18426-1.10566l-1.28986-1.47412L121.77867,24.11a2.20126,2.20126,0,0,1-1.28992.46069Z"/><path class="cls-2" d="M42.91045,54.51474,57.37578,39.773a2.56659,2.56659,0,0,1-.27643-3.50116L40.05424,19.5953a2.10083,2.10083,0,0,1-1.10559.5528l1.382,18.98,1.01349,14.7417A2.404,2.404,0,0,1,42.91045,54.51474Z"/><path class="cls-2" d="M126.93828,82.61612l13.08325.73712-10.22705-8.845-4.14612-3.59333a3.03319,3.03319,0,0,1-1.19775.645l.09216,8.56867A2.66493,2.66493,0,0,1,126.93828,82.61612Z"/><path class="cls-2" d="M4.12132,67.04519l8.9372,11.2406L14.072,69.3486l.92132-8.75287a2.59734,2.59734,0,0,1-2.027-1.84271L4.30559,60.3193a21.0375,21.0375,0,0,0-.18427,6.35736v.36853Z"/><path class="cls-2" d="M13.24278,56.63388a2.70038,2.70038,0,0,1,2.39551-1.19776,1.77779,1.77779,0,0,1,.92139.27637l20.4541-35.84076a2.80511,2.80511,0,0,1-.73706-.73712L29.82719,22.083l-7.463,3.3169a22.294,22.294,0,0,0-5.15961,9.21356c0,.09216-.0921.09216-.0921.18427A21.19351,21.19351,0,0,0,7.89891,51.65853c0,.09217,0,.09217-.09216.18427-.36853.5528-.73706,1.19775-1.10559,1.75061l6.26519,2.8562Z"/><path class="cls-2" d="M13.42705,79.48355l-.18427.27643-.82922,1.65838a21.595,21.595,0,0,0,10.41131,4.23828h.4607l3.22473-.27643-4.51465-2.027Z"/><path class="cls-2" d="M63.08818,32.86282a2.71879,2.71879,0,0,1-1.01349-2.30335c0-.18426.09216-.36859.09216-.55285L40.6071,19.04251c0,.0921-.09216.0921-.09216.18426l16.953,16.67658a2.5094,2.5094,0,0,1,1.84271-.645,2.17426,2.17426,0,0,1,1.47419.645Z"/><path class="cls-2" d="M51.387,97.72641A28.34,28.34,0,0,0,56.178,99.93765l-1.382-2.21124Z"/><path class="cls-2" d="M70.64336,34.337l-3.86975-1.93481a2.57865,2.57865,0,0,1-2.21125.92132,1.77745,1.77745,0,0,1-.92132-.27636l-2.39557,3.13256a2.835,2.835,0,0,1,.55285,1.75061l6.818.4607Z"/><path class="cls-2" d="M63.45677,87.86789,61.89043,86.578l-1.84272,3.59332,3.04047-.645v-.46069A2.61238,2.61238,0,0,1,63.45677,87.86789Z"/><path class="cls-2" d="M38.58012,15.08065a2.33049,2.33049,0,0,1,1.382.5528l2.8562-3.31689a19.17024,19.17024,0,0,0-5.436,2.39556l.27643.46064A1.59282,1.59282,0,0,1,38.58012,15.08065Z"/><path class="cls-2" d="M40.79137,16.64694l7.64727-2.39551,7.92365-2.48767a3.13558,3.13558,0,0,1-.0921-.92133A2.66494,2.66494,0,0,1,58.7578,8.44687L58.85,7.24911c-.36853,0-.82922.09216-1.19775.09216a21.9799,21.9799,0,0,0-10.227,4.054.32187.32187,0,0,1-.18433.0921c-.46063,0-.92133.09216-1.28986.09216a18.45858,18.45858,0,0,0-2.2113.36853l-3.409,3.96186A8.51161,8.51161,0,0,1,40.79137,16.64694Z"/><path class="cls-2" d="M16.37535,60.50357c-.27637.09216-.46063.09216-.73706.18426l-.36853,3.13263L13.61131,78.93075l4.60681,2.11908,8.845,3.96185-8.3844-19.16424Z"/><polygon class="cls-2" points="96.349 60.596 95.151 67.69 96.533 70.362 96.349 60.596"/><path class="cls-2" d="M104.18077,33.78421a2.77076,2.77076,0,0,1-1.38208-2.21125l-8.29217-.46069a2.59733,2.59733,0,0,1-1.84272,2.027l.6449,4.054,2.94836,17.04517h.4607c.18426,0,.36853.0921.55279.0921l6.1731-18.51929Z"/><path class="cls-2" d="M75.7108,21.89871V22.083a1.70877,1.70877,0,0,1-.18426.645l14.1889,6.54163A2.43171,2.43171,0,0,1,92.111,28.0718a1.97584,1.97584,0,0,1,1.10565.36853l5.80456-7.55511A2.62651,2.62651,0,0,1,98.284,19.5953Z"/><path class="cls-2" d="M38.11943,20.24026a1.332,1.332,0,0,1-.645-.18426L17.02031,55.98892a2.48942,2.48942,0,0,1,.92139,1.56628L33.51262,56.726l4.97534-.27637v-.27643a2.73622,2.73622,0,0,1,2.30341-2.3955L38.3958,20.24026Z"/><path class="cls-2" d="M94.04582,55.98892c.0921-.18427.18427-.4607.27643-.645l-.27643-.27637L82.34459,41.98428l5.7124,11.517Z"/><path class="cls-2" d="M94.69078,54.88327a3.80466,3.80466,0,0,1,1.01349-.6449L92.111,33.13925h-.36853a3.41262,3.41262,0,0,1-1.65845-.73706l-8.93713,7.18658.18426.36853L94.41435,54.6069Z"/><path class="cls-2" d="M56.63872,12.31656,40.97563,17.19979c0,.18427.0921.46064,0,.6449a1.332,1.332,0,0,1-.18426.645L62.44328,29.546a2.17846,2.17846,0,0,1,1.28986-1.10566L61.98259,22.82l-2.8562-9.12139H58.6657A2.53279,2.53279,0,0,1,56.63872,12.31656Z"/><path class="cls-2" d="M118.36967,23.37289l-10.68774,6.818a2.04842,2.04842,0,0,1,.27637,1.47419,2.77641,2.77641,0,0,1-.73706,1.56634L114.77635,41.8l4.14612,4.69892a3.3,3.3,0,0,1,1.01349-.36853v-21.744A2.00253,2.00253,0,0,1,118.36967,23.37289Z"/><path class="cls-2" d="M68.34,39.12808l-6.72589-.46069c-.09216.18426-.09216.27642-.18433.46069l5.25177,3.22473Z"/><path class="cls-2" d="M99.02116,56.44961l17.04511-3.86969-4.23822-8.01581-5.6203-10.68774a1.27956,1.27956,0,0,1-1.01349.18426c-.18427,0-.36859-.09216-.55286-.09216l-2.57977,7.64728-4.33038,12.899A2.42393,2.42393,0,0,1,99.02116,56.44961Z"/><path class="cls-2" d="M89.439,84.82742a2.48383,2.48383,0,0,1,.645-.73712l-2.11914-4.14606H78.3167l10.93805,4.791Z"/><polygon class="cls-2" points="78.106 79.944 78.317 79.944 78.106 79.852 78.106 79.944"/><path class="cls-2" d="M95.88853,59.39791a2.671,2.671,0,0,1-1.382-.82922l-3.2248,1.38208,3.40906,6.91016Z"/><path class="cls-2" d="M116.15837,75.42959l5.71246-4.79107a2.48853,2.48853,0,0,1-.64495-1.93488.83071.83071,0,0,1,.0921-.46063L98.46831,58.47659a4.09033,4.09033,0,0,1-1.01349.73712l5.25177,15.93945,2.3034,7.00232a2.02794,2.02794,0,0,1,.73707-.09216,2.77647,2.77647,0,0,1,1.56628.73712Z"/><path class="cls-2" d="M55.07237,95.60727l.4607-.82923.18426-.55279.73712-1.28992.18427-.46063.55279-1.01349.27643-.55286,2.8562-5.7124.27637-.46069,2.2113-4.51465.27637-.645.09216-.0921.4607-.92139.46069-.92133H87.13567l-5.436-10.872-.09216-.27643-.46063-.82923H70.0905l.46069-.92138.4607-.92133,3.50116-6.91015,1.10565-2.11915-.4607-.82922L69.077,42.26071,67.2343,45.94613l-.18427.27643-1.19775,2.39551-.09216.18426-6.2652,12.53046-1.19776,2.48767-.46069.92133-.46069.92138L55.3488,69.625l-.18426.36853-.27643.55279L52.5847,75.24527l-.18426.36859-.6449,1.28985-.36859.73712-.46063.92133-.4607.92139-.92138,1.84271-.36854.645-.27642.55279v.09217l-.73706,1.47412-2.11914,4.14612-3.68543,7.37085H55.07237ZM47.333,94.50167a18.44648,18.44648,0,0,1-2.48767-2.8562l3.96185.46064,2.21125.27642Z"/><path class="cls-2" d="M44.84532,91.64547a18.44648,18.44648,0,0,0,2.48767,2.8562l3.68543-2.11914-2.21125-.27642Z"/><path class="cls-2" d="M103.53581,97.6343l6.2652,12.06977a2.54351,2.54351,0,0,1,2.39557-1.56635c.27637,0,.46063.09217.73706.09217L105.28636,97.6343Z"/><polygon class="cls-2" points="109.985 97.634 105.931 97.634 114.039 108.875 112.749 105.282 109.985 97.634"/><path class="cls-2" d="M96.80992,97.6343l-1.56634-3.13263-2.48767,9.67426a16.13979,16.13979,0,0,0,3.22479,4.23822c3.22473.645,6.17309,1.75061,9.39782,2.48767a6.88383,6.88383,0,0,1,1.01349.18427h1.56629c.36859-.09217.82922-.27643,1.19781-.36853.0921,0,.18427-.09217.36853-.09217l-6.726-12.99109Z"/><polygon class="cls-2" points="115.329 110.533 116.376 110.618 115.974 110.582 115.329 110.533"/><path class="cls-2" d="M114.86852,88.51284l.55279,22.02045.5528.049,6.63378.50379,1.84272.18426-8.075-.65246,6.3244.56036,1.84271.18426a14.95159,14.95159,0,0,0,3.77753-2.027L117.909,93.21176Z"/><polygon class="cls-2" points="122.608 111.086 115.974 110.582 116.376 110.618 124.451 111.27 122.608 111.086"/></svg>