<svg id="Layer_1" data-name="Layer 1" xmlns="http://www.w3.org/2000/svg" viewBox="0 0 519.47998 199.48"><defs><style>.cls-1{fill:#fff;}</style></defs><title>ludwig-horizontal-black</title><rect class="cls-1" x="189.98999" y="69.99001" width="20" height="60"/><path class="cls-1" d="M29.99,169.99h460v-140h-460Zm380-40v-80h60v20h-40v60h20v-20h-10v-20h30v60h-60Zm-40-80h20v100h-20Zm-120,80v-80h20v80h20v-80h20v80h20v-80h20v100h-100Zm-80,0v-80h40l8.693.144L229.99,61.78V138.2l-11.307,11.646-8.693.144h-40Zm-80-40v-40h20v40h20v-40h20v60h-60Zm-40,40v-80h20v80h80v20h-100Z"/><path d="M209.99,149.99l8.693-.144L229.99,138.2V61.78L218.683,50.134l-8.693-.144h-40v100h40Zm-20-80h20v60h-20Z"/><polygon points="149.99 149.99 149.99 129.99 69.99 129.99 69.99 49.99 49.99 49.99 49.99 129.99 49.99 149.99 69.99 149.99 149.99 149.99"/><polygon points="129.99 109.99 149.99 109.99 149.99 89.99 149.99 49.99 129.99 49.99 129.99 89.99 109.99 89.99 109.99 49.99 89.99 49.99 89.99 89.99 89.99 109.99 109.99 109.99 129.99 109.99"/><rect x="369.98999" y="49.99001" width="20" height="100"/><polygon points="449.99 149.99 469.99 149.99 469.99 129.99 469.99 109.99 469.99 89.99 439.99 89.99 439.99 109.99 449.99 109.99 449.99 129.99 429.99 129.99 429.99 69.99 469.99 69.99 469.99 49.99 429.99 49.99 409.99 49.99 409.99 69.99 409.99 129.99 409.99 149.99 429.99 149.99 449.99 149.99"/><polygon points="289.99 149.99 309.99 149.99 329.99 149.99 349.99 149.99 349.99 129.99 349.99 49.99 329.99 49.99 329.99 129.99 309.99 129.99 309.99 49.99 289.99 49.99 289.99 129.99 269.99 129.99 269.99 49.99 249.99 49.99 249.99 129.99 249.99 149.99 269.99 149.99 289.99 149.99"/><path d="M489.99,9.99H9.99v180h500V9.99Zm0,160h-460v-140h460Z"/></svg>