<svg id="Layer_1" data-name="Layer 1" xmlns="http://www.w3.org/2000/svg" viewBox="0 0 400 400"><defs><style>.cls-1{fill:#fff;}</style></defs><title>forestflow-icon-white</title><path class="cls-1" d="M393.59679,73.34578C392.05173,50.169,371.70756,32.4,348.27329,32.4H167.494a43.96168,43.96168,0,0,0-44.03589,44.03606V298.676a62.43144,62.43144,0,0,0,63.09245,62.31993c34.25017-.51507,61.28979-29.35737,61.28979-63.60753v-44.551a11.58841,11.58841,0,1,0-23.17682,0v2.06013a22.14676,22.14676,0,0,1-44.29351,0V142.61878a21.94134,21.94134,0,0,1,20.34416-21.88922h149.6192a44.17371,44.17371,0,0,0,43.26337-47.38378Z"/><path class="cls-1" d="M248.61292,209.31643c10.04335,0,24.207,5.408,33.47763,4.63549,7.98307-.51507,15.96629-3.34789,21.63177-9.01321,6.69546-6.438,9.78573-15.70883,12.10332-24.722a26.04387,26.04387,0,0,1-16.4812,1.80267,49.12205,49.12205,0,0,1-14.42123-6.69562c-3.8628-2.5752-7.72561-5.40786-12.36094-6.95292a42.97007,42.97007,0,0,0-15.1936-1.2876c-11.58841,1.2876-20.34416,5.92293-26.78217,15.70867s-6.18055,24.72188-6.18055,36.31029v7.46815C229.04144,217.29965,238.56957,209.31643,248.61292,209.31643Zm-.51507-23.17682a32.6079,32.6079,0,0,1,7.21069-1.54506,33.81806,33.81806,0,0,1,7.21054.25746c1.2876.25761,2.31758.51507,3.60519.77269.51507.25745,1.2876.25745,1.80267.51491l1.54521.51507,3.09012,1.2876a14.525,14.525,0,0,0,3.09028,1.03015,55.89671,55.89671,0,0,0,6.18054,1.80251,57.6406,57.6406,0,0,0,13.39093,1.2876c-4.12026,2.57521-9.01321,3.34789-13.906,3.34789a34.77465,34.77465,0,0,1-7.21053-1.03014c-1.03015-.25746-2.31775-.77253-3.34789-1.03014l-3.09012-1.28761-1.54521-.51491c-.51508-.25762-1.03-.25762-1.54506-.51507q-1.54522-.38619-3.09028-.77253a48.04671,48.04671,0,0,0-6.438-1.03015,53.84169,53.84169,0,0,0-6.438-.25745,19.10033,19.10033,0,0,0-6.438,1.2876A16.33253,16.33253,0,0,1,248.09785,186.13961Z"/><path class="cls-1" d="M108.00693,301.50865V79.26871L58.563,175.06627H74.78676L34.09859,255.92769H52.64008L5.25629,360.7383H135.304c-1.54505-1.2876-3.09027-2.83266-4.63533-4.37772A77.14569,77.14569,0,0,1,108.00693,301.50865Z"/></svg>