<svg id="Layer_1" data-name="Layer 1" xmlns="http://www.w3.org/2000/svg" viewBox="0 0 100 100"><defs><style>.cls-1{fill:#79e2f2;}.cls-1,.cls-2,.cls-3,.cls-4,.cls-5{fill-rule:evenodd;}.cls-2{fill:#6553c0;}.cls-3{fill:#e6fcff;}.cls-4{fill:#998dd9;}.cls-5{fill:#403294;}</style></defs><path class="cls-1" d="M49.86722.99279h0A48.76721,48.76721,0,0,1,98.63443,49.76h0A48.76721,48.76721,0,0,1,49.86722,98.52722h0A48.76722,48.76722,0,0,1,1.1,49.76h0A48.76721,48.76721,0,0,1,49.86722.99279Z"/><path class="cls-2" d="M72.89618,76.8529H28.1929a1.26523,1.26523,0,0,1-1.35465-1.35465V26.731a1.26523,1.26523,0,0,1,1.35465-1.35465H72.89618A1.26523,1.26523,0,0,1,74.25082,26.731V75.49825A1.26524,1.26524,0,0,1,72.89618,76.8529Z"/><path class="cls-3" d="M68.06657,72.14109H32.728a1.17839,1.17839,0,0,1-1.178-1.178V30.91277a1.17839,1.17839,0,0,1,1.178-1.178H68.06657a1.17839,1.17839,0,0,1,1.178,1.178V70.96313A1.17839,1.17839,0,0,1,68.06657,72.14109Z"/><path class="cls-4" d="M60.26592,34.85891H55.44939a1.14911,1.14911,0,0,1-1.20412-1.08372,3.63246,3.63246,0,0,0-7.22478,0,1.1491,1.1491,0,0,1-1.20412,1.08372H40.99986a1.14914,1.14914,0,0,1-1.20415-1.08372V23.75082a1.14912,1.14912,0,0,1,1.20415-1.08371H60.26592a1.14911,1.14911,0,0,1,1.20413,1.08371V33.77519a1.14912,1.14912,0,0,1-1.20415,1.08372Z"/><path class="cls-5" d="M58.28958,42.69228H39.79572a1.17795,1.17795,0,1,1,0-2.35589H58.28956a1.178,1.178,0,1,1,0,2.3559Zm2.70929,9.42363H39.79572a1.178,1.178,0,1,1,0-2.35591H60.99885a1.178,1.178,0,1,1,0,2.35591Zm-2.70929,9.42361H39.79572a1.178,1.178,0,1,1,0-2.3559H58.28956a1.178,1.178,0,1,1,0,2.3559Z"/></svg>