<?xml version="1.0" encoding="UTF-8"?><svg id="AW" xmlns="http://www.w3.org/2000/svg" viewBox="0 0 200 200"><defs><style>.cls-1{fill:#1c1c1a;}</style></defs><path class="cls-1" d="M184.6724,33.22314c-.31007,.01545-31.48053,1.78055-68.25725,17.65606-33.97734,14.66641-79.9,44.71653-105.71873,104.58191-.4845,1.12373,.03308,2.42655,1.15681,2.91105,.1644,.07129,.33163,.12003,.50111,.14939,.98595,.17081,1.99675-.34686,2.40996-1.3062C59.77251,52.86152,167.63126,39.21773,183.05916,37.79522c.65544,4.39198,.70947,17.80755-16.22454,39.09768l-46.0035,.34945c-1.14218,.00854-2.09087,.8839-2.19045,2.02271-.09938,1.13775,.68335,2.16483,1.80689,2.37153l34.86609,6.40325-17.71604,18.78874-46.26222-8.80447c-1.1408-.15151-2.22655,.46296-2.54357,1.56411-.31664,1.09902,.25626,2.25992,1.32263,2.67629l37.08505,14.48927c-8.27505,5.39533-30.42847,18.15543-51.24222,15.47538-26.88536-3.46395-36.82915-5.56639-36.92772-5.58676-1.15854-.21386-2.37337,.50559-2.62998,1.70174s.50452,2.37319,1.70067,2.62979c.40227,.08615,10.17055,2.15599,37.29119,5.64971,27.91763,3.59557,56.63288-17.73199,57.84216-18.64125,.64136-.48285,.97188-1.27535,.86279-2.07155-.10929-.79513-.64118-1.47025-1.38876-1.76224l-18.66547-7.29228,23.92031,4.55213c.76881,.08707,1.5072-.1067,2.0263-.65684l21.34231-22.63552c.55687-.5908,.74652-1.43845,.49357-2.20907-.25277-.77168-.90698-1.34282-1.70491-1.48984l-15.90829-2.92157,23.71024-.1799c.66286-.00484,1.28938-.30692,1.70579-.82215,23.21528-28.72597,17.48971-45.14631,17.23516-45.83157-.33623-.90471-1.22065-1.49048-2.19025-1.43885Z"/></svg>