<svg id="Layer_1" data-name="Layer 1" xmlns="http://www.w3.org/2000/svg" viewBox="0 0 478.39999 138.60001"><defs><style>.cls-1{fill:#fff;}</style></defs><title>forestflow-horizontal-black</title><path class="cls-1" d="M139.8,88.4c-3.1-1.7-7.3-2.5-12.5-2.5-14.19995,0-21.3,7.6-21.5,22.8,0,7.9,1.7,13.7,5.2,17.3,3.4,3.6,8.8,5.5,16,5.6,7.6,0,13.1-1.8,16.5-5.5s5.1-9.5,5.1-17.5a32.68116,32.68116,0,0,0-2.1-12.7A14.88325,14.88325,0,0,0,139.8,88.4Zm-5.2,32.5c-1,2.9-3.4,4.3-7.1,4.3q-4.05,0-6-2.4a11.01679,11.01679,0,0,1-2.4-5.4c-.30005-2-.5-5-.7-8.8,0-5.1.5-9.1,1.6-12s3.6-4.4,7.4-4.5c3.8,0,6.1,1.5,7.1,4.5a39.99228,39.99228,0,0,1,1.5,12.2A41.671,41.671,0,0,1,134.6,120.9Z"/><path class="cls-1" d="M178.9,86a17.45329,17.45329,0,0,0-6.6,1.1,18.11474,18.11474,0,0,0-3.9,1.8,9.77882,9.77882,0,0,0-2.1,1.8,9.39839,9.39839,0,0,0-.8.9V86.1H152.8V131h12.8V103.3a9.60752,9.60752,0,0,1,1.7-5.1,11.95407,11.95407,0,0,1,5-4.4,16.06893,16.06893,0,0,1,7.3-1.6,17.08551,17.08551,0,0,1,4.3.6l-1.1-6.5A14.45043,14.45043,0,0,0,178.9,86Z"/><path class="cls-1" d="M206.4,85.9c-6.7.1-11.7,2-15.2,5.9S186,101.7,186,110c.1,7.2,1.6,12.5,4.7,15.80005,3,3.3,7.8,5.19995,14.4,5.6.9.1,2.2.1,3.8.1a39.52188,39.52188,0,0,0,10-1.1q3.9-1.2,3.9-1.8l1.9-7.8a17.497,17.497,0,0,1-5.1,2.9q-3.9,1.8-10.8,1.8a8.25633,8.25633,0,0,1-7.8-5.7,33.70087,33.70087,0,0,1-2.4-9h27.7c0-.3.1-.9.2-1.6a23.52584,23.52584,0,0,0,.1-2.8c-.2-6-1.4-10.7-3.9-14.2C219.8,88,214.4,85.9,206.4,85.9Zm-7.9,19c0-8.7,3.1-13.1,9.2-13.3,6.9,0,10.4,4.4,10.4,13.3Z"/><path class="cls-1" d="M263.80005,107.2a20.27124,20.27124,0,0,0-8.4-3.8c-3.3-.7-6.4-1.5-9.5-2.4s-4.6-2.2-4.6-3.9a4.768,4.768,0,0,1,2.30011-4.3,17.73172,17.73172,0,0,1,6.8-1,34.64992,34.64992,0,0,1,10.2,1.2,29.17231,29.17231,0,0,1,5,2l-2.1-7.3a35.67383,35.67383,0,0,0-5-1.4,41.99632,41.99632,0,0,0-9.7-.9c-.3,0-.7.1-1.4.1a8.63812,8.63812,0,0,1-1.5.1c-11.1.5-16.8,4.4-17.1,11.6,0,4.2,1.2,7.1,3.4,8.7,2.2,1.7,5.6,2.9,10,3.8a43.27429,43.27429,0,0,1,9.6,2.7c2,.9,3,2.9,3,5.8a7.072,7.072,0,0,1-2.2,5.6c-1.5,1.2-4.1,1.8-8.1,1.8a26.5546,26.5546,0,0,1-9.5-1.6,34.48512,34.48512,0,0,1-5.4-2.6l1.7,7.8a49.29942,49.29942,0,0,0,5.8,1.5,47.76333,47.76333,0,0,0,9.9.9,27.33128,27.33128,0,0,0,3.2-.1c5.7-.4,9.9-1.8,12.9-4.2,2.9-2.4,4.4-6.3,4.4-11.8C267.4,111.8,266.1,109,263.80005,107.2Z"/><path class="cls-1" d="M291,68.2H278.3V86.1h-8.5v5.7h8.5v25.5c0,5.1,1.5,8.7,4.7,10.9,2.7,2,6.9,3,12.7,3,.9,0,1.7-.1,2.4-.1a8.79326,8.79326,0,0,1,1.4-.1v-6.4c-3,0-5.1-.4-6.2-1.3-1.5-1.1-2.3-2.9-2.3-5.5v-26h8.5V86.1H291Z"/><polygon class="cls-1" points="303.9 131 318.2 131 318.2 102.2 342 102.2 342 94.4 318.2 94.4 318.2 76 346.7 76 346.7 68.2 303.9 68.2 303.9 131"/><rect class="cls-1" x="349.79999" y="68.19998" width="12.40002" height="62.79999"/><path class="cls-1" d="M401.1,88.4c-3.1-1.7-7.3-2.5-12.5-2.5-14.2,0-21.3,7.6-21.5,22.8,0,7.9,1.7,13.7,5.2,17.3,3.4,3.6,8.8,5.5,16,5.6,7.6,0,13.1-1.8,16.5-5.5s5.1-9.5,5.1-17.5a36.90407,36.90407,0,0,0-2.1-12.7A14.88329,14.88329,0,0,0,401.1,88.4Zm-5.3,32.5c-1,2.9-3.4,4.3-7.1,4.3q-4.05,0-6-2.4a11.017,11.017,0,0,1-2.4-5.4c-.3-2-.5-5-.7-8.8,0-5.1.5-9.1,1.6-12s3.6-4.4,7.4-4.5c3.8,0,6.1,1.5,7.1,4.5a39.99228,39.99228,0,0,1,1.5,12.2C397.3,114,396.8,118.1,395.8,120.9Z"/><polygon class="cls-1" points="464.6 86.3 457.9 105.4 449.9 86.3 436.4 86.3 437.7 90.6 431.2 106.1 424.4 86.3 411.6 86.3 428.5 132.5 442.4 98.3 457 132.5 472.2 86.3 464.6 86.3"/><path class="cls-1" d="M154.8,20.9c-.6-9-8.5-15.9-17.6-15.9H67A17.07115,17.07115,0,0,0,49.9,22.1v86.3a24.24333,24.24333,0,0,0,24.5,24.2c13.3-.2,23.8-11.4,23.8-24.7V90.6a4.5,4.5,0,0,0-9,0v.8a8.6,8.6,0,0,1-17.2,0V47.8a8.52024,8.52024,0,0,1,7.9-8.5H138a17.15349,17.15349,0,0,0,16.8-18.4Z"/><path class="cls-1" d="M98.5,73.7c3.9,0,9.4,2.1,13,1.8a13.00217,13.00217,0,0,0,8.4-3.5c2.6-2.5,3.8-6.1,4.7-9.6a10.1133,10.1133,0,0,1-6.4.7,19.07493,19.07493,0,0,1-5.6-2.6A20.48529,20.48529,0,0,0,107.8,57.8a16.68624,16.68624,0,0,0-5.9-.5c-4.5.5-7.9,2.3-10.4,6.1S89.1,73,89.1,77.5v2.9C90.9,76.8,94.6,73.7,98.5,73.7Zm-.2-9A12.66176,12.66176,0,0,1,101.1,64.1a13.13231,13.13231,0,0,1,2.8.1c.5.1.9.2,1.4.3.2.1.5.1.7.2l.6.2,1.19995.5a5.64009,5.64009,0,0,0,1.2.4,21.706,21.706,0,0,0,2.4.7,22.3834,22.3834,0,0,0,5.2.5,10.05952,10.05952,0,0,1-5.4,1.3,13.50322,13.50322,0,0,1-2.8-.4c-.4-.1-.9-.3-1.3-.4l-1.2-.5-.6-.2c-.2-.1-.4-.1-.6-.2q-.6-.15-1.2-.3a18.65838,18.65838,0,0,0-2.5-.4,20.90829,20.90829,0,0,0-2.5-.1,7.417,7.417,0,0,0-2.5.5A6.34232,6.34232,0,0,1,98.3,64.7Z"/><path class="cls-1" d="M43.9,109.5V23.2L24.7,60.4H31L15.2,91.8h7.2L4,132.5H54.5c-.6-.5-1.2-1.1-1.8-1.7A29.95715,29.95715,0,0,1,43.9,109.5Z"/></svg>