<?xml version="1.0" encoding="utf-8"?>
<!-- Generator: Adobe Illustrator 28.0.0, SVG Export Plug-In . SVG Version: 6.00 Build 0)  -->
<svg version="1.2" baseProfile="tiny" id="Layer_1" xmlns="http://www.w3.org/2000/svg" xmlns:xlink="http://www.w3.org/1999/xlink"
	 x="0px" y="0px" width="1001.3px" height="249.6px" viewBox="0 0 1001.3 249.6" overflow="visible" xml:space="preserve">
<g>
	<path d="M0.3,153.4c-0.3,0.9-0.4,1.8-0.1,2.7c1.8,0,3.6-0.5,5.3-1.1c2-0.7,3.9-1.5,6-1.8l0.1,0.1c-0.1,0.4-0.2,0.8-0.1,1.3
		c0.1,0.3,0.4,0.5,0.6,0.4c4-0.4,7.8-1.6,11.6-2.8c7.3-2.3,14.7-4.3,22.2-6.1c8.1-1.9,16.2-3.5,24.4-4.9
		c-10.2,6.9-20.1,14.2-29.9,21.6c-0.6,0.5-1.2,1-1.9,1.4c-1.7,1.1-3.5,1.9-5.3,2.9c-1.4,0.7-2.8,1.6-4.1,2.4c-4.9,2.8-10,5.2-15,7.9
		c-1.5,0.8-3,1.4-4.5,2.2c-1.2,0.6-2.3,1.5-3,2.6c-0.2,0.4-0.4,0.8-0.6,1.2c0.8,0.3,1.6,0.2,2.4,0c0.7-0.2,1.4-0.5,2.1-0.5
		c0.2,0.1,0.2,0.2,0.3,0.4c0.2,0.7,0,1.4,0.2,2c0.1,0.2,0.1,0.4,0.4,0.4c1.1-0.1,2.1-0.3,3.1-0.7c1.1-0.4,2.1-0.9,3.3-1.1
		c1.1-0.3,2.3-0.1,3.4,0.4c1.5-0.9,3-1.8,4.5-2.7c-0.1,0.9-0.1,2,0.4,2.8c0.5,0.7,1.4,0.9,2.2,0.9c1.6-0.1,3-0.7,4.4-1.4
		c0.8-0.4,1.5-0.9,2.1-1.5c0.4,0.6,0.6,1.4,0.8,2.1c1.8,0.3,3.6-0.1,5.2-1c2.2-1.2,3.9-2.9,6.1-4.1c0.4,0.6,0.5,1.4,1.3,1.6
		c1.9-0.8,3.5-2,5.3-3c2-1.1,4.1-2.2,6.2-3.3c0.2,0.2,0.1,0.4,0.1,0.7c0,0.2,0.2,0.5,0.4,0.5c0.9,0,1.7-0.2,2.5-0.6l0,0
		c1.5-0.7,2.8-2,4.4-2.6c2.2-1,4.6-1.4,6.8-2.5c1.9,0.8,4,1.2,6.1,1.1c3.9-0.1,7.7-1.3,11.4-2.5c1.8-0.5,3.6-1.1,5.4-1.4
		c2.3-0.5,4.6-0.9,6.8-1.5c3.9-1.1,7.8-2.2,11.8-2.6c2.2-0.2,4.4-0.2,6.6,0.4c1.6,0.4,3.1,1.3,4.2,2.5c0.5,0.6,0.9,1.2,1.3,1.9
		c0.3,0.4,0.7,0.9,1.3,1c0.7,0.1,1.3-0.2,1.9-0.4c1-0.4,1.9-1,2.8-1.5c0.9-0.5,1.9-0.9,2.8-1.4c1.4-0.7,2.8-1.5,4.4-1.8
		c1-0.3,2-0.4,3-0.3c0.8,0.1,1.5,0.4,2.1,0.8c0,0.6-0.8,0.8-1.1,1.2c-0.2,0.1-0.1,0.4,0,0.5c0.1,0,0.3-0.1,0.4,0
		c0.1,0.2-0.2,0.4-0.4,0.5c0,0.2,0,0.5,0.3,0.5c0.4-0.1,0.7-0.4,1.1-0.4c0,0.4-0.2,0.7-0.5,0.9c-1,0.9-2.4,1.3-3.1,2.4
		c0.1,0.1,0.2,0.3,0.4,0.2c0.5-0.1,0.7-0.6,1.2-0.6c-0.1,0.4-0.5,0.6-0.8,0.8c-0.1,0.1-0.1,0.2-0.1,0.3c0.2,0.1,0.3,0.1,0.5,0.1
		c0.2-0.2,0.4-0.4,0.7-0.4c-0.3,0.6-0.8,1-1.4,1.4c0.1,0.2,0.3,0.2,0.5,0.2c0.4-0.1,0.7-0.4,0.9-0.7c0.1,0.3,0.1,0.7,0.4,0.8
		c0.3-0.1,0.6-0.4,0.8-0.6c-0.4,4.1-1.2,8.2-1.3,12.4c0.2,0,0.5-0.1,0.6-0.3c0.1-0.2,0.3-0.4,0.5-0.6c0.4,1.7,1,3.3,1.8,4.9
		c1,2,2.2,3.8,3.5,5.6c0.6,0.8,1.3,1.6,1.7,2.5c0.5,1.1,0.9,2.3,1.2,3.4l0,0c0.3,1,0.6,2,1,3c0.4,1,0.8,2,1.3,3
		c0.9,2.1,1.8,4.2,2.4,6.3c1.3,3.7,0.6,7.6,0.7,11.5c0.3,2.1-1.5,3.3-2.9,4.4c-1.9,0.1-3.8-1.3-5.6-0.4c-4.1,1.4-5.6,6.2-5.6,10.2
		c1.8-0.7,1.8-2.9,2.6-4.4c1-2.5,4-3.1,6.4-2.6c0.3,0.8,0.6,1.6,1,2.4c3,0.7,5.3-1.7,7.9-2.6c1.5,1.8,2.2,4.4,4.3,5.7
		c2,1,1.4,3.9,3.4,4.8c1.1,0.9,2.5,0.2,3.7-0.1c2.2,2.3,2.2,4,3,6.9l0.6,1.9c0-1.2,0.1-2.5,0.1-3.7c0-2.9-0.9-5.8-2.7-8.1
		c-0.4-0.5-0.8-1-1.1-1.5c-1.1-1.9-2.3-3.8-3.1-5.8c1.9,1,3.1,3.5,5.5,3.4c1.2,0.2,1.4-1.3,2.3-1.7c1,0.4,2,0.8,2.5,1.8
		c0.7,1,1.2,1.1,2.4,2.8c-0.2-1.4-0.6-2.7-1.1-3.9c-0.7-1.6-2.2-2.8-4-3.1c-1.2-0.2-2.3-0.5-3.3-1.2c-2.5-1.7-5-3.3-7.5-5.1
		c-2.5-1.7-3.2-5-4.3-7.6c-0.6-1.8-1.2-3.6-1.7-5.4c-0.7-2.2-1.3-4.5-1.8-6.8c-0.7-3.3-1.3-6.6-2.2-9.9c-0.6-2.1-0.2-4.4,0.1-6.4
		c0.3-2.2,0.8-4.4,0.9-6.6c0.1-0.9,0.1-1.8-0.1-2.7c0.1,0.1,0.3,0.3,0.4,0.2c0.2-1-0.4-1.8-0.6-2.8c0-0.3,0.3-0.5,0.6-0.5
		c-0.2-0.2-0.4-0.4-0.4-0.6c0-0.6,0.5-1,0.4-1.6c0-0.9-0.4-1.7-0.6-2.6c-0.2-0.7-0.3-1.5-0.1-2.2c0.2-0.6,0.7-1.2,1.2-1.6
		c0.8-0.7,1.7-1.2,2.6-1.7c0.7-0.4,1.4-0.9,2.2-1.2c0.4-0.2,0.9-0.2,1.4,0.1c-0.4,2.1-1.5,4-1.7,6.1c0.5-0.2,0.6-0.8,1.1-1.1
		c0.1,0.5-0.3,0.9-0.4,1.3c0,0.2,0.1,0.3,0.2,0.4c0-0.1,0.1-0.2,0.1-0.2c0.1,0.1,0.3,0.3,0.4,0.4c0.2-0.3,0.3-0.6,0.5-0.8
		c0,0.4,0,0.8,0,1.2c0.4-0.1,0.5-0.5,0.7-0.8c0.1,0.1,0.1,0.1,0.2,0.2c-0.5,0.8-1.2,1.5-1.3,2.5c0.7-0.4,1-1.2,1.6-1.7
		c0.1-0.1,0.2-0.1,0.4-0.2c0,0.1-0.1,0.3-0.2,0.4c0.3,0,0.6-0.2,0.8,0.1c-1,1.3-1.8,2.7-2.1,4.2c0.2-0.1,0.5-0.4,0.7-0.1
		c-0.4,0.2-0.8,0.6-0.7,1.1c0.3-0.1,0.5-0.4,0.8-0.5c0.2,0.2,0,0.3-0.1,0.5c-0.2,0.4-0.2,0.8-0.2,1.2c0.3-0.1,0.4-0.4,0.6-0.6
		c0.3,0.4-0.1,0.7-0.1,1.1l0.2,0.1c0.2-0.1,0.3-0.3,0.5-0.3c0.2,0.1,0.3,0.3,0.5,0.4c1.2-1.6,2.5-3,3.7-4.5c0,0.2,0,0.5,0.2,0.7
		c0.3-0.3,0.4-0.7,0.8-1c0.1-0.1,0.2-0.1,0.4-0.1c-0.2,0.3-0.4,0.6-0.4,1c0,0.2,0.2,0.4,0.3,0.2c0.5-0.4,0.8-0.9,1.2-1.4
		c0.1-0.1,0.3-0.2,0.4-0.1c-0.2,0.4-0.6,0.7-0.5,1.2c0.4,0.1,0.5-0.3,0.7-0.5c0.2,0.2,0,0.4-0.1,0.6c-0.6,1.2-1.1,2.5-1.4,3.8
		c0.4-0.1,0.5-0.5,0.7-0.8c0,0,0.1,0.1,0.2,0.1c-0.3,0.3-0.4,0.7-0.4,1.1c0.6-0.2,0.7-0.9,1.1-1.3c0.1,0.5-0.4,0.7-0.4,1.2
		c0.2,0.1,0.3,0,0.5-0.1c0.3-0.2,0.4-0.6,0.6-0.8c0,0.3-0.2,0.6-0.3,0.9c0,0.2,0.2,0.2,0.3,0.3c0.2-0.4,0.4-0.9,0.7-1.3
		c0.1-0.2,0.3-0.4,0.5-0.6c0,0.2,0,0.4-0.1,0.6c1-0.6,1.3-1.9,2.2-2.5c-0.2,4.6-1,9.2-0.3,13.8c0.2,1.4,0.6,2.8,1.3,4.1
		c0.7,1.5,1.7,2.9,2.7,4.2c0.3,0.4,0.6,0.8,1,1.1c4,3.8,8.1,7.9,11.6,12.1c1,1.1,1.7,2.5,1.2,3.9c-1.4,1.6-3.7,0.6-5.4,0.2
		c-2.5-0.6-4.8-2.3-7.5-1.9c-1.7,0.1-3.2,1.5-4.1,3.1c-0.5,1.5-0.7,2.4-0.6,3.9c1.8-0.6,1.2-3,2.9-4c1.1-0.6,2.1-0.5,3.1-0.2
		c0.4,0.1,0.7,0.5,0.7,1c0,1.4,0.5,2.8,1.7,3.7c4,0.6,8.1-0.1,12-0.5c1.6-0.2,2.5,1.4,3.9,1.7c1.6,0.3,3.3,0.4,5,0.3
		c0.3-0.2,0.6-0.4,0.8-0.6c0.8-0.7,1.9-1,2.9-0.9c0.2,0,0.4,0,0.4,0c1.2,0.1,2.5,0.6,3.7,0.1c1.5-0.8,3.1,0.4,4.7,0.1
		c0.7-0.6,0.9-1.4,1.2-2.2c1.3,1.3,2.1,2.8,3.4,4.1c0.2-2.4-0.9-4.6-2.4-6.4c-0.8-0.8,0.3-1.8,1.2-1.8c2.3-0.5,4.2,1,5.7,2.6
		c-0.3-2.6-2.5-4.7-5.2-4.7c-2.2,0.2-3.9,1.8-6,2.5c-1.4,0.6-3,0.3-4.6,0.3c-2.4-0.2-4.9,0-7.3-0.7c-1-0.7-1-2.2-2-2.9
		c-1-0.7-2.2-1.2-3.2-2.1c-3.7-3.3-7.2-6.9-10.6-10.5c-0.7-0.7-1-1.7-1-2.6c0-1.2,0.2-2.5,0.4-3.7c0.3-2,0.7-3.9,1-5.9
		c1.2-8.3,2.9-16.5,5.2-24.5c1.4-5.2,3.6-10.1,5.8-14.9c1.6-3.5,3-7.1,4.8-10.5c1.6-3,3.7-5.7,5.8-8.3c1.2-1.6,2.5-3.1,3.7-4.7
		c1.2-1.5,2.3-3.2,3.3-4.8c0.8-1.3,1.5-2.7,2.4-4c1.2-1.7,3-2.8,4.5-4.1c1.1-0.8,1.9-1.8,2.9-2.8c1.9-2.1,3.7-4.5,4.8-7.1
		c1.6-3.5,2.4-7.4,2.2-11.2c0-0.9-0.4-1.7-0.4-2.6c-0.1-2.2,0.9-4.3,1.2-6.5c0.4,0.1,0.5-0.4,0.6-0.7c0.2-1.2,0.1-2.4,0.1-3.7
		c0.5,0.3,0.4,0.9,0.7,1.3c0.2,0,0.2-0.5,0.4-0.5c0.2,0.2,0.2,0.5,0.4,0.7c0.3-0.5,0.2-1.1,0.1-1.7c-0.1-0.6-0.2-1.2-0.2-1.9
		c0.4,0.3,0.4,0.8,0.5,1.2c0.5-0.5,0.6-1.2,0.7-1.9c0.1-0.7,0.1-1.5,0.3-2.2c0.6,0.5,0.5,1.4,0.9,2c0.3-3.3-0.7-6.5-1.1-9.7
		c0-0.2-0.1-0.4,0-0.6c0.2-0.2,0.3,0.1,0.4,0.2c-1-5.4-1.7-11-1.4-16.5c0.5,1,0.7,2.1,0.9,3.2c0.2,0.1,0.5,0,0.5-0.2
		c0.1-0.5-0.2-0.9-0.1-1.4c0.5,0.9,0.6,1.9,0.7,2.8l0.1,0c0.8-4.4-0.4-8.8,0.2-13.2c0.2-1.9,0.7-3.8,1.3-5.6c0.5-1.5,1.2-3,2.2-4.3
		c0.6-0.8,1.3-1.5,2.1-1.9c0.2-0.1,0.3-0.1,0.5-0.2c4.3-1,8.8-1.3,13.2-1.6c2.5-0.2,10-0.8,10-0.8c1.7-0.2,3.4-0.5,5.1-0.8
		c-1.2-3-3.4-5.4-5.9-7.2c-2.9-2.1-6.3-3.5-9.7-4.7c-3.4-1.2-6.8-2.2-10.4-3c-1.4-0.3-2.8-0.5-4.3-0.6c-0.4,0-0.8-0.1-1.2-0.1
		c-0.9,0-1.7,0.2-2.6,0c-0.8-0.2-1.6-0.7-2.3-1.1c-3.1-1.8-6.2-3.6-9.6-4.7c-4.2-1.4-8.8-1.5-13.2-0.7c-1.8,0.4-3.5,1.1-5.1,1.9
		c-1.5,0.8-3,1.5-4.4,2.5c-1.2,0.8-2.3,1.8-3.5,2.8c-2.6,2.3-4.8,4.9-6.8,7.7c-4.1,5.7-7.2,11.9-10.7,17.9c-1.2,2-2.4,4-3.6,6
		c-0.7,1.2-1.2,2.6-2,3.8c-0.8,1.1-1.9,1.9-3,2.6c-1.2,0.9-2.5,1.7-3.6,2.6c-9.2,6.9-18.1,14.1-27.1,21.3c-1.3,1.1-2.7,2.2-4.1,3.2
		c-1.5,1.1-3,2.2-4.4,3.4c-1.2,1-2.2,2.3-3.3,3.4c-1.1,1.2-2.4,2.3-3.9,2.9c-1.6,0.7-3.4,0.8-5.2,1c-2.3,0.2-4.7,0.3-7,0.9
		c-3.2,1-6.1,2.8-9,4.3c-3.5,1.8-7.3,3-11,4.4c-3.4,1.3-6.7,2.6-10,4.1c-3,1.5-6,3.2-8.5,5.6c-1,0.9-1.8,2-2.5,3.2
		c-0.7,1.2-1.4,2.5-2.3,3.5c-0.3,0.4,0.2,0.7,0.4,1.1c-1,1-1.7,2.3-2.3,3.6c-0.6,1.3-1.1,2.6-1.9,3.8c1.6,0.9,3.5,1.4,5.3,1.8
		c-1.8,0.9-3.7,1.5-5.5,2.3c-1.7,0.7-3.4,1.6-5,2.6c-2.8,1.8-5.5,3.7-8.7,4.7c-2.1,0.7-4.2,1.1-6.3,1.7c-7.8,2.3-15.8,4.1-23.6,6.3
		c-5.1,1.5-10.2,3.1-15.1,5.3c-1.6,0.7-3.2,1.4-4.7,2.2c-1.5,0.7-2.8,1.7-4.1,2.7c-1.4,1.1-2.8,2.2-3.9,3.5
		C1.1,151.8,0.6,152.6,0.3,153.4L0.3,153.4z"/>
	<g>
		<path d="M392.6,93.8c0-24.9-17.7-33.7-41.9-33.7h-37.3v119.4h15.5v-50.4H350l28.7,50.4H396l-30.3-52.1
			C381.9,123.4,392.6,112.4,392.6,93.8z M328.9,72.5h19.7c18.6,0,28.8,5.6,28.8,21.3c0,15.3-10.2,22.9-28.8,22.9h-19.7V72.5z"/>
		<path d="M487.2,135.1c-1.1,9.8-1.5,15.7-2.2,27.5h-0.7c-2.2-11.8-3.3-17.7-5.8-27.5l-11.3-44.4h-14.6L441,135.1
			c-2.4,9.8-3.6,15.7-5.8,27.5h-0.5c-0.5-11.8-1.3-17.7-2.4-27.7l-8.7-75h-17.1l18.2,119.6h18.6l11.6-48.1
			c1.8-7.3,2.9-14.2,4.2-21.5h0.5c1.1,7.3,2.5,14.2,4.4,21.5l11.6,48.1h18.9L512,60h-16.4L487.2,135.1z"/>
		<polygon points="615,60.1 597.5,60.1 547.5,119.8 546.9,119.8 546.9,60.1 531.5,60.1 531.5,179.6 546.9,179.6 546.9,141.5 
			567.5,116.9 602.1,179.6 619.4,179.6 577.1,105.4 		"/>
		<path d="M699.8,60.1l-19.1,64.4c-4,14-7.1,25.5-11.5,39.3h-0.7c-4.4-13.8-7.3-25.3-11.5-39.3l-19.1-64.4h-16.4l38.2,119.4h17.8
			l37.9-119.4H699.8z"/>
	</g>
	<g>
		<path d="M725.6,109.7V59.4h6.4v44.4h14.2v6H725.6z"/>
		<path d="M776,109.7l-2.8-11.8h-14.6l-2.9,11.8h-6.5l12.7-50.3h8.5l12.4,50.3H776z M766.1,65.4h-0.3l-6.4,27.5h12.9L766.1,65.4z"/>
		<path d="M811,109.7l-16.1-39h-0.2v39h-5.9V59.4h7.7l15.9,39.1h0.2V59.4h5.9v50.3H811z"/>
		<path d="M845.1,58.2c2.7,0,5.1,0.5,7.2,1.5s3.8,2.5,5.2,4.6l-4,4.3c-1-1.5-2.3-2.7-3.6-3.4c-1.4-0.8-2.9-1.1-4.5-1.1
			c-1.9,0-3.6,0.5-5,1.6c-1.4,1.1-2.6,2.6-3.5,4.4c-0.9,1.9-1.6,4.1-2.1,6.5s-0.7,5.1-0.7,7.9c0,2.9,0.2,5.6,0.7,8.1
			c0.5,2.5,1.2,4.6,2.2,6.5c1,1.8,2.2,3.3,3.7,4.3c1.5,1,3.2,1.6,5.2,1.6c2.7,0,4.7-0.6,6-1.7V87.6h-6.6v-5.5h12.8v24.5
			c-1.5,1.2-3.2,2.2-5.2,3c-2,0.7-4.4,1.1-7.2,1.1c-2.9,0-5.5-0.6-7.8-1.9c-2.3-1.3-4.2-3-5.8-5.3c-1.6-2.3-2.8-5-3.6-8.2
			c-0.8-3.2-1.2-6.8-1.2-10.7c0-3.8,0.4-7.3,1.2-10.5s2-6,3.5-8.3c1.5-2.3,3.4-4.2,5.6-5.5C839.8,58.8,842.3,58.2,845.1,58.2z"/>
		<path d="M896.4,99.6c-0.5,2.2-1.4,4.2-2.6,5.9c-1.2,1.7-2.7,3-4.7,4c-1.9,1-4.3,1.5-7.1,1.5c-2.8,0-5.1-0.5-7-1.5
			c-1.9-1-3.4-2.3-4.6-4c-1.2-1.7-2-3.6-2.5-5.9c-0.5-2.2-0.7-4.6-0.7-7.2V59.4h6.4v32.4c0,1.7,0.1,3.4,0.4,4.9
			c0.3,1.6,0.7,3,1.4,4.2c0.6,1.2,1.5,2.2,2.6,3c1.1,0.7,2.5,1.1,4.2,1.1c1.7,0,3.1-0.4,4.2-1.1c1.1-0.7,2-1.7,2.6-3
			c0.6-1.2,1.1-2.6,1.4-4.2c0.3-1.6,0.4-3.2,0.4-4.9V59.4h6.4v33.1C897.2,95,896.9,97.4,896.4,99.6z"/>
		<path d="M928.6,109.7l-2.8-11.8h-14.6l-2.9,11.8h-6.5l12.7-50.3h8.5l12.4,50.3H928.6z M918.7,65.4h-0.3L912,92.9h12.9L918.7,65.4z
			"/>
		<path d="M956.5,58.2c2.7,0,5.1,0.5,7.2,1.5s3.8,2.5,5.2,4.6l-4,4.3c-1-1.5-2.3-2.7-3.6-3.4c-1.4-0.8-2.9-1.1-4.5-1.1
			c-1.9,0-3.6,0.5-5,1.6c-1.4,1.1-2.6,2.6-3.5,4.4c-0.9,1.9-1.6,4.1-2.1,6.5c-0.5,2.5-0.7,5.1-0.7,7.9c0,2.9,0.2,5.6,0.7,8.1
			c0.5,2.5,1.2,4.6,2.2,6.5c1,1.8,2.2,3.3,3.7,4.3c1.5,1,3.2,1.6,5.2,1.6c2.7,0,4.7-0.6,6-1.7V87.6h-6.6v-5.5h12.8v24.5
			c-1.5,1.2-3.2,2.2-5.2,3c-2,0.7-4.4,1.1-7.2,1.1c-2.9,0-5.5-0.6-7.8-1.9c-2.3-1.3-4.2-3-5.8-5.3c-1.6-2.3-2.8-5-3.6-8.2
			c-0.8-3.2-1.2-6.8-1.2-10.7c0-3.8,0.4-7.3,1.2-10.5s2-6,3.5-8.3c1.5-2.3,3.4-4.2,5.6-5.5C951.2,58.8,953.7,58.2,956.5,58.2z"/>
		<path d="M979.4,109.7V59.4h21.2v5.7h-15v15.9h14v5.3h-14V104h15.7v5.8H979.4z"/>
		<path d="M760,178.6v-41.7h-0.2l-11.2,41.7h-5.8l-11.1-41.7h-0.2v41.7h-5.9v-50.3h9.4l10.8,40h0.3l10.5-40h9.8v50.3H760z"/>
		<path d="M809.7,153.4c0,3.9-0.4,7.5-1.2,10.8c-0.8,3.2-1.9,6-3.4,8.4c-1.5,2.3-3.3,4.1-5.4,5.4c-2.1,1.3-4.5,1.9-7.2,1.9
			c-2.7,0-5.1-0.6-7.3-1.9c-2.1-1.3-3.9-3.1-5.4-5.4c-1.5-2.3-2.6-5.1-3.4-8.4c-0.8-3.2-1.2-6.8-1.2-10.8c0-3.9,0.4-7.5,1.1-10.8
			c0.8-3.2,1.9-6,3.3-8.3c1.5-2.3,3.3-4.1,5.4-5.3c2.2-1.3,4.6-1.9,7.4-1.9c2.7,0,5.1,0.6,7.2,1.9c2.1,1.3,3.9,3,5.4,5.3
			c1.5,2.3,2.6,5.1,3.4,8.3C809.4,145.8,809.7,149.4,809.7,153.4z M803,153.4c0-2.8-0.2-5.5-0.7-8c-0.5-2.5-1.1-4.7-2-6.5
			c-0.9-1.8-2-3.3-3.3-4.4c-1.3-1.1-2.8-1.6-4.5-1.6c-1.8,0-3.3,0.5-4.6,1.6c-1.3,1.1-2.4,2.5-3.3,4.4c-0.9,1.8-1.5,4-2,6.5
			c-0.4,2.5-0.6,5.2-0.6,8c0,2.8,0.2,5.5,0.6,8c0.4,2.5,1.1,4.7,2,6.5c0.9,1.8,2,3.3,3.3,4.4c1.3,1.1,2.9,1.6,4.6,1.6
			c1.7,0,3.2-0.5,4.5-1.6c1.3-1.1,2.4-2.5,3.3-4.4c0.9-1.8,1.5-4,2-6.5C802.8,158.9,803,156.2,803,153.4z"/>
		<path d="M849.1,153.5c0,8.2-1.7,14.4-5,18.7c-3.3,4.3-8,6.4-13.9,6.4h-11.5v-50.3h11.6c6,0,10.6,2.2,13.9,6.5
			C847.4,139.1,849.1,145.3,849.1,153.5z M842.7,153.5c0-3.3-0.3-6.2-1-8.7c-0.6-2.5-1.5-4.5-2.6-6.1c-1.1-1.6-2.4-2.8-4-3.6
			c-1.5-0.8-3.2-1.2-4.9-1.2H825V173h5.2c1.7,0,3.4-0.4,4.9-1.2c1.5-0.8,2.9-2,4-3.6c1.1-1.6,2-3.6,2.6-6.1
			C842.4,159.6,842.7,156.8,842.7,153.5z"/>
		<path d="M858,178.6v-50.3h21.2v5.7h-15v15.9h14v5.3h-14v17.7h15.7v5.8H858z"/>
		<path d="M888.3,178.6v-50.3h6.4v44.4h14.2v6H888.3z"/>
	</g>
</g>
</svg>
