<?xml version="1.0" encoding="UTF-8"?><svg id="Layer_1" xmlns="http://www.w3.org/2000/svg" viewBox="0 0 500 500"><defs><style>.cls-1{fill:none;}</style></defs><rect class="cls-1" x="92.61929" y="245.90169" width="38.77986" height="38.78172"/><path class="cls-1" d="m249.03257,27.10762C125.57781,27.10762,25.14111,127.54617,25.14111,251.00093s100.4367,223.89146,223.89146,223.89146,223.89331-100.4367,223.89331-223.89146S372.48732,27.10762,249.03257,27.10762Zm-114.89028,355.62529h-14.53525v-38.59609h14.53525v38.59609Zm25.79693,0h-14.53525v-20.76452h14.53525v20.76452Zm24.03786,0h-14.53502v-59.3606h14.53502v59.3606Zm29.07028-109.38961v109.38961h-14.53525v-109.38961h-51.90619v26.54688h-69.1934v-69.19525h69.1934v28.11266h66.44144v14.53572Zm29.94993-106.66735v216.05696h-14.53525v-215.65693c-17.64756-2.97935-31.14585-18.32999-31.14585-36.81404,0-20.60859,16.76606-37.37464,37.37464-37.37464,20.61044,0,37.3765,16.76606,37.3765,37.37464,0,17.75268-12.45017,32.62253-29.07004,36.41401Zm60.21682,216.05696h-14.53525v-43.6053h14.53525v43.6053Zm24.91751,0h-14.53525v-33.22304h14.53525v33.22304Zm24.91705,0h-14.53502v-51.91129h14.53502v51.91129Zm22.84101,0h-14.53502v-31.14677h14.53502v31.14677Zm36.50242-142.4725h-70.27562v-25.95472h-67.97265v168.42722h-14.53502v-182.96294h82.50767v-29.78518h70.27562v70.27562Z"/><rect class="cls-1" x="357.32325" y="185.19156" width="39.86208" height="39.86208"/><path class="cls-1" d="m234.69083,109.49741c-11.44963,0-20.76452,9.31489-20.76452,20.76452s9.31489,20.76637,20.76452,20.76637,20.76637-9.31674,20.76637-20.76637-9.31674-20.76452-20.76637-20.76452Z"/><path d="m249.03257,10C116.14597,10,8.03349,118.11248,8.03349,251.00093s108.11248,240.99907,240.99907,240.99907,241.00093-108.11248,241.00093-240.99907S381.92101,10,249.03257,10Zm0,464.89238c-123.45476,0-223.89146-100.4367-223.89146-223.89146S125.57781,27.10762,249.03257,27.10762s223.89331,100.43856,223.89331,223.89331-100.43856,223.89146-223.89331,223.89146Z"/><path d="m272.06733,130.26193c0-20.60859-16.76606-37.37464-37.3765-37.37464-20.60859,0-37.37464,16.76606-37.37464,37.37464,0,18.48406,13.49828,33.83469,31.14585,36.81404v215.65693h14.53525v-216.05696c16.61987-3.79148,29.07004-18.66133,29.07004-36.41401Zm-37.3765,20.76637c-11.44963,0-20.76452-9.31674-20.76452-20.76637s9.31489-20.76452,20.76452-20.76452,20.76637,9.31489,20.76637,20.76452-9.31674,20.76637-20.76637,20.76637Z"/><rect x="288.67885" y="339.12761" width="14.53525" height="43.6053"/><rect x="313.59636" y="349.50986" width="14.53525" height="33.22304"/><rect x="338.51364" y="330.82161" width="14.53502" height="51.91129"/><rect x="361.35466" y="351.58613" width="14.53502" height="31.14677"/><rect x="169.44206" y="323.3723" width="14.53502" height="59.3606"/><rect x="145.40397" y="361.96839" width="14.53525" height="20.76452"/><rect x="119.60703" y="344.13682" width="14.53525" height="38.59609"/><path d="m146.60592,258.80758v-28.11266h-69.1934v69.19525h69.1934v-26.54688h51.90619v109.38961h14.53525v-123.92533h-66.44144Zm-15.20677,25.87582h-38.77986v-38.78172h38.77986v38.78172Z"/><path d="m342.11648,199.76997h-82.50767v182.96294h14.53502v-168.42722h67.97265v25.95472h70.27562v-70.27562h-70.27562v29.78518Zm15.20677-14.57841h39.86208v39.86208h-39.86208v-39.86208Z"/></svg>