<svg id="Layer_1" data-name="Layer 1" xmlns="http://www.w3.org/2000/svg" viewBox="0 0 478.39999 138.60001"><defs><style>.cls-1{fill:#135932;}.cls-2{fill:#24b55e;}.cls-3{fill:#17773e;}</style></defs><title>forestflow_logo</title><g id="Layer_2" data-name="Layer 2"><path class="cls-1" d="M146.5,95.9a14.88338,14.88338,0,0,0-6.7-7.5c-3.1-1.7-7.3-2.5-12.5-2.5-14.2,0-21.3,7.6-21.5,22.8,0,7.9,1.7,13.7,5.2,17.3,3.4,3.6,8.8,5.5,16,5.6,7.6,0,13.1-1.8,16.5-5.5s5.1-9.5,5.1-17.5A32.68178,32.68178,0,0,0,146.5,95.9Zm-11.9,25c-1,2.9-3.4,4.3-7.1,4.3q-4.05,0-6-2.4a11.01659,11.01659,0,0,1-2.4-5.4c-.3-2-.5-5-.7-8.8,0-5.1.5-9.1,1.6-12s3.6-4.4,7.4-4.5c3.8,0,6.1,1.5,7.1,4.5a39.99239,39.99239,0,0,1,1.5,12.2A41.67042,41.67042,0,0,1,134.6,120.9Z"/><path class="cls-1" d="M152.8,131V86.1h12.7v5.5a9.40171,9.40171,0,0,1,.8-.9,9.77893,9.77893,0,0,1,2.1-1.8,18.11538,18.11538,0,0,1,3.9-1.8,17.4536,17.4536,0,0,1,6.6-1.1,14.45115,14.45115,0,0,1,3.9.3l1.1,6.5a17.0863,17.0863,0,0,0-4.3-.6,16.06885,16.06885,0,0,0-7.3,1.6,11.95371,11.95371,0,0,0-5,4.4,9.60706,9.60706,0,0,0-1.7,5.1V131Z"/><path class="cls-1" d="M222.7,92.2c-2.9-4.2-8.3-6.3-16.3-6.3-6.7.1-11.7,2-15.2,5.9S186,101.7,186,110c.1,7.2,1.6,12.5,4.7,15.8,3,3.3,7.8,5.2,14.4,5.6.9.1,2.2.1,3.8.1a39.52232,39.52232,0,0,0,10-1.1q3.9-1.2,3.9-1.8l1.9-7.8a17.49632,17.49632,0,0,1-5.1,2.9q-3.9,1.8-10.8,1.8a8.25632,8.25632,0,0,1-7.8-5.7,33.70026,33.70026,0,0,1-2.4-9h27.7c0-.3.1-.9.2-1.6a23.51934,23.51934,0,0,0,.1-2.8C226.4,100.4,225.2,95.7,222.7,92.2Zm-24.2,12.7c0-8.7,3.1-13.1,9.2-13.3,6.9,0,10.4,4.4,10.4,13.3Z"/><path class="cls-1" d="M241.3,97.1c0,1.7,1.5,3,4.6,3.9s6.2,1.7,9.5,2.4a20.27068,20.27068,0,0,1,8.4,3.8c2.3,1.8,3.6,4.6,3.7,8.3,0,5.5-1.5,9.4-4.4,11.8-3,2.4-7.2,3.8-12.9,4.2a27.325,27.325,0,0,1-3.2.1,47.76226,47.76226,0,0,1-9.9-.9,49.28876,49.28876,0,0,1-5.8-1.5l-1.7-7.8a34.48223,34.48223,0,0,0,5.4,2.6,26.5547,26.5547,0,0,0,9.5,1.6c4,0,6.6-.6,8.1-1.8a7.072,7.072,0,0,0,2.2-5.6c0-2.9-1-4.9-3-5.8a43.27182,43.27182,0,0,0-9.6-2.7c-4.4-.9-7.8-2.1-10-3.8-2.2-1.6-3.4-4.5-3.4-8.7.3-7.2,6-11.1,17.1-11.6a8.636,8.636,0,0,0,1.5-.1c.7,0,1.1-.1,1.4-.1a41.99537,41.99537,0,0,1,9.7.9,35.68162,35.68162,0,0,1,5,1.4l2.1,7.3a29.17208,29.17208,0,0,0-5-2,34.64947,34.64947,0,0,0-10.2-1.2,17.7324,17.7324,0,0,0-6.8,1A4.768,4.768,0,0,0,241.3,97.1Z"/><path class="cls-1" d="M291,91.8v26c0,2.6.8,4.4,2.3,5.5,1.1.9,3.2,1.3,6.2,1.3V131a8.79637,8.79637,0,0,0-1.4.1c-.7,0-1.5.1-2.4.1-5.8,0-10-1-12.7-3-3.2-2.2-4.7-5.8-4.7-10.9V91.8h-8.5V86.1h8.5V68.2H291V86.1h8.5v5.7Z"/><polygon class="cls-1" points="318.2 131 303.9 131 303.9 68.2 346.7 68.2 346.7 76 318.2 76 318.2 94.4 342 94.4 342 102.2 318.2 102.2 318.2 131"/><rect class="cls-1" x="349.79999" y="68.2" width="12.39999" height="62.8"/><path class="cls-1" d="M407.8,95.9a14.8834,14.8834,0,0,0-6.7-7.5c-3.1-1.7-7.3-2.5-12.5-2.5-14.2,0-21.3,7.6-21.5,22.8,0,7.9,1.7,13.7,5.2,17.3,3.4,3.6,8.8,5.5,16,5.6,7.6,0,13.1-1.8,16.5-5.5s5.1-9.5,5.1-17.5A36.90416,36.90416,0,0,0,407.8,95.9Zm-12,25c-1,2.9-3.4,4.3-7.1,4.3q-4.05,0-6-2.4a11.01667,11.01667,0,0,1-2.4-5.4c-.3-2-.5-5-.7-8.8,0-5.1.5-9.1,1.6-12s3.6-4.4,7.4-4.5c3.8,0,6.1,1.5,7.1,4.5a39.99239,39.99239,0,0,1,1.5,12.2C397.3,114,396.8,118.1,395.8,120.9Z"/><polygon class="cls-1" points="472.2 86.3 457 132.5 442.4 98.3 428.5 132.5 411.6 86.3 424.4 86.3 431.2 106.1 437.7 90.6 436.4 86.3 449.9 86.3 457.9 105.4 464.6 86.3 472.2 86.3"/><path class="cls-1" d="M154.8,20.9c-.6-9-8.5-15.9-17.6-15.9H67A17.07115,17.07115,0,0,0,49.9,22.1v86.3a24.24332,24.24332,0,0,0,24.5,24.2c13.3-.2,23.8-11.4,23.8-24.7V90.6a4.5,4.5,0,0,0-9,0v.8a8.59946,8.59946,0,0,1-8.6,8.6h0A8.59945,8.59945,0,0,1,72,91.4V47.8a8.52025,8.52025,0,0,1,7.9-8.5H138a17.15349,17.15349,0,0,0,16.8-18.4Z"/><path class="cls-1" d="M118.2,63.1a19.07556,19.07556,0,0,1-5.6-2.6,20.48639,20.48639,0,0,0-4.8-2.7,16.68665,16.68665,0,0,0-5.9-.5c-4.5.5-7.9,2.3-10.4,6.1S89.1,73,89.1,77.5v2.9c1.8-3.6,5.5-6.7,9.4-6.7s9.4,2.1,13,1.8a13.0018,13.0018,0,0,0,8.4-3.5c2.6-2.5,3.8-6.1,4.7-9.6A10.1136,10.1136,0,0,1,118.2,63.1Zm-7,5.2a13.50459,13.50459,0,0,1-2.8-.4c-.4-.1-.9-.3-1.3-.4l-1.2-.5-.6-.2c-.2-.1-.4-.1-.6-.2l-1.2-.3a18.66567,18.66567,0,0,0-2.5-.4,20.90206,20.90206,0,0,0-2.5-.1,7.41823,7.41823,0,0,0-2.5.5,6.34218,6.34218,0,0,1,2.3-1.6,12.66174,12.66174,0,0,1,2.8-.6,13.12975,13.12975,0,0,1,2.8.1c.5.1.9.2,1.4.3.2.1.5.1.7.2l.6.2,1.2.5a5.63784,5.63784,0,0,0,1.2.4,21.71569,21.71569,0,0,0,2.4.7,22.385,22.385,0,0,0,5.2.5A10.05956,10.05956,0,0,1,111.2,68.3Z"/><path class="cls-2" d="M54.5,132.5c-.6-.5-1.2-1.1-1.8-1.7a29.95705,29.95705,0,0,1-8.8-21.3V23.2h0L24.7,60.4H31L15.2,91.8h7.2L4,132.5Z"/><path class="cls-3" d="M43.9,23.3h0l-17,61.5L30,103.3,43.9,47.7Z"/><path class="cls-1" d="M52.7,130.9a29.95705,29.95705,0,0,1-8.8-21.3V47.7L30,103.3l2.9,29.2H54.5C53.9,132,53.3,131.4,52.7,130.9Z"/><polygon class="cls-3" points="22.7 132.5 32.9 132.5 30 103.3 22.7 132.5"/></g></svg>