<?xml version="1.0" encoding="UTF-8"?><svg id="Layer_1" xmlns="http://www.w3.org/2000/svg" viewBox="0 0 221.36426 68.32927"><defs><style>.cls-1{fill:none;}</style></defs><path class="cls-1" d="M143.48322,31.1178c-.95508-.47119-2.0127-.70703-3.17383-.70703-1.66797,0-3.08887,.53223-4.26074,1.5957-1.17285,1.06396-1.84375,2.53809-2.0127,4.42383h12.54785c0-1.25684-.27832-2.33887-.83398-3.24512-.55664-.90674-1.31152-1.5957-2.2666-2.06738Z"/><path class="cls-1" d="M201.87189,31.1178c-.95508-.47119-2.0127-.70703-3.17383-.70703-1.66797,0-3.08887,.53223-4.26074,1.5957-1.17285,1.06396-1.84375,2.53809-2.0127,4.42383h12.54785c0-1.25684-.27832-2.33887-.83398-3.24512-.55664-.90674-1.31152-1.5957-2.2666-2.06738Z"/><path d="M66.2757,11.3017l-12.53455,14.55621V58.58941c0,1.55865,1.26355,2.8222,2.8222,2.8222h7.65332c1.55865,0,2.8222-1.26355,2.8222-2.8222V9.9281c0-.59198-.18378-1.1402-.49524-1.59399,.51312,.8847,.51294,2.06073-.26794,2.96759Z"/><path d="M4.72242,7.4353c-1.17108,0-1.81458,1.362-1.07098,2.26666l20.64227,25.11261L3.65143,59.0979c-.74359,.90466-.1001,2.26672,1.07098,2.26672H25.03522l10.5296-12.83801,10.55273,12.83801h3.38824v-24.09412L25.03522,7.4353H4.72242Z"/><path d="M56.56336,7.10589h7.65332c.96667,0,1.8183,.48724,2.32697,1.22821-.42859-.73895-1.21399-1.27527-2.21356-1.27527h-17.39624c-.39838,0-.77667,.17505-1.03455,.47876l-7.31812,8.61908c-.43024,.50671-.43018,1.25043,.00012,1.75702l9.89716,11.65308c.53955,.63531,1.51898,.63867,2.06287,.00708l3.19983-3.71594V9.9281c0-1.55865,1.26355-2.8222,2.8222-2.8222Z"/><path d="M66.54364,8.3341c-.50867-.74097-1.36029-1.22821-2.32697-1.22821h-7.65332c-1.55865,0-2.8222,1.26355-2.8222,2.8222v15.92981l12.53455-14.55621c.78088-.90686,.78107-2.08289,.26794-2.96759Z"/><polygon points="99.22101 22.54065 93.41828 32.44153 87.32551 22.54065 83.62629 22.54065 91.38752 35.1969 83.66291 47.81799 87.32551 47.81799 93.09211 37.95373 99.14826 47.81799 102.88361 47.81799 95.12287 35.1969 102.92023 22.54065 99.22101 22.54065"/><path d="M110.60822,22.93957h-3.30078v5.00488h-2.5752v2.72021h2.5752v11.71289c0,1.93555,.45898,3.3252,1.37793,4.1709,.91895,.84668,2.29688,1.26953,4.13477,1.26953h2.97363v-2.79297h-2.42969c-1.01562,0-1.72852-.19922-2.13965-.59766-.41113-.39941-.61621-1.08203-.61621-2.0498v-11.71289h5.18555v-2.72021h-5.18555v-5.00488Z"/><path d="M122.35822,31.17248v-3.22803h-3.2998v19.87354h3.2998v-10.80762c0-4.01221,1.84961-6.01953,5.54883-6.01953h.87012v-3.40918c-1.54785,0-2.85938,.31494-3.93457,.94336-1.07617,.62891-1.9043,1.51123-2.48438,2.64746Z"/><path d="M145.45978,28.85119c-1.45117-.82178-3.11914-1.23291-5.00488-1.23291-1.93457,0-3.64453,.41699-5.13184,1.25098s-2.6416,2.02539-3.46289,3.57227c-.82227,1.54736-1.2334,3.34814-1.2334,5.40283,0,2.05566,.42285,3.8623,1.26953,5.42188,.8457,1.55957,2.0127,2.7627,3.49902,3.6084,1.4873,.84668,3.17383,1.26953,5.05957,1.26953,2.36914,0,4.35156-.59863,5.94727-1.79492,1.5957-1.19727,2.65918-2.75,3.19141-4.66016h-3.55371c-.38672,1.1123-1.05762,2.00098-2.0127,2.66504-.95508,.66602-2.14648,.99805-3.57227,.99805-1.74121,0-3.22168-.5498-4.44238-1.65039-1.22168-1.09961-1.89258-2.62891-2.0127-4.58789h15.88379c.07324-.70117,.10938-1.36523,.10938-1.99414,0-1.81348-.39355-3.43896-1.17871-4.87744-.78613-1.43848-1.9043-2.56885-3.35449-3.39111Zm-11.42383,7.5791c.16895-1.88574,.83984-3.35986,2.0127-4.42383,1.17188-1.06348,2.59277-1.5957,4.26074-1.5957,1.16113,0,2.21875,.23584,3.17383,.70703,.95508,.47168,1.70996,1.16064,2.2666,2.06738,.55566,.90625,.83398,1.98828,.83398,3.24512h-12.54785Z"/><path d="M181.65314,28.54309c-1.20898-.64062-2.58691-.96143-4.13379-.96143-1.57227,0-2.99902,.38721-4.28027,1.16064-1.28125,.77393-2.2002,1.8623-2.75586,3.26416-.62891-1.45068-1.58398-2.55078-2.86523-3.30029-1.28125-.74902-2.75586-1.12451-4.42383-1.12451-1.33008,0-2.54492,.27832-3.64551,.83447-1.09961,.55615-1.97656,1.354-2.62891,2.39355v-2.86523h-3.2998v19.87354h3.2998v-10.95215c0-2.08008,.50781-3.66846,1.52344-4.76855s2.38086-1.65039,4.09766-1.65039c1.66797,0,2.99219,.52588,3.97168,1.57764,.97852,1.05176,1.46875,2.56885,1.46875,4.55127v11.24219h3.26367v-10.95215c0-2.08008,.50781-3.66846,1.52344-4.76855s2.38086-1.65039,4.09766-1.65039c1.66797,0,2.99219,.52588,3.97168,1.57764,.97852,1.05176,1.46875,2.56885,1.46875,4.55127v11.24219h3.26367v-11.71387c0-1.83789-.35059-3.396-1.05176-4.67822-.70117-1.28076-1.65625-2.24219-2.86523-2.88281Z"/><path d="M203.84845,28.85119c-1.45117-.82178-3.11914-1.23291-5.00488-1.23291-1.93457,0-3.64453,.41699-5.13184,1.25098s-2.6416,2.02539-3.46289,3.57227c-.82227,1.54736-1.2334,3.34814-1.2334,5.40283,0,2.05566,.42285,3.8623,1.26953,5.42188,.8457,1.55957,2.0127,2.7627,3.49902,3.6084,1.4873,.84668,3.17383,1.26953,5.05957,1.26953,2.36914,0,4.35156-.59863,5.94727-1.79492,1.5957-1.19727,2.65918-2.75,3.19141-4.66016h-3.55371c-.38672,1.1123-1.05762,2.00098-2.0127,2.66504-.95508,.66602-2.14648,.99805-3.57227,.99805-1.74121,0-3.22168-.5498-4.44238-1.65039-1.22168-1.09961-1.89258-2.62891-2.0127-4.58789h15.88379c.07324-.70117,.10938-1.36523,.10938-1.99414,0-1.81348-.39355-3.43896-1.17871-4.87744-.78613-1.43848-1.9043-2.56885-3.35449-3.39111Zm-11.42383,7.5791c.16895-1.88574,.83984-3.35986,2.0127-4.42383,1.17188-1.06348,2.59277-1.5957,4.26074-1.5957,1.16113,0,2.21875,.23584,3.17383,.70703,.95508,.47168,1.70996,1.16064,2.2666,2.06738,.55566,.90625,.83398,1.98828,.83398,3.24512h-12.54785Z"/><rect x="212.00763" y="24.29645" width="3.2998" height="23.52155"/><polygon points="209.79084 20.98132 209.79084 24.29645 212.00763 24.29645 212.00763 20.98157 215.30744 20.98157 215.30744 24.29645 215.30835 24.29645 215.30835 20.98132 209.79084 20.98132"/><rect x="212.00763" y="20.98157" width="3.2998" height="3.31488"/></svg>