<?xml version="1.0" encoding="UTF-8"?><svg id="Layer_1" xmlns="http://www.w3.org/2000/svg" viewBox="0 0 1352 965.5"><defs><style>.cls-1{fill:none;}.cls-2{fill:#b23481;}.cls-3,.cls-4{fill:#a42e76;}.cls-4{opacity:.7;}</style></defs><g><path class="cls-3" d="m36.24631,772.2067h58.58456c39.73773,0,67.07696,22.5863,67.07696,59.43483s-27.33923,59.43483-67.07696,59.43483h-58.58456v-118.86965Zm56.88745,87.62433c16.81132,0,28.35784-10.01946,28.35784-28.1895s-11.54651-28.18778-28.35784-28.18778h-16.81132v56.37729h16.81132Z"/><path class="cls-3" d="m272.7918,870.35894h-45.17088l-7.98053,20.71742h-40.75462l51.96274-118.86965h39.39591l51.96274,118.86965h-41.43484l-7.98053-20.71742Zm-11.03807-28.868l-11.54651-29.88661-11.54823,29.88661h23.09474Z"/><path class="cls-3" d="m365.50917,803.28369h-34.81303v-31.07699h109.70046v31.07699h-34.81303v87.79266h-40.07441v-87.79266Z"/><path class="cls-3" d="m542.79161,870.35894h-45.17088l-7.98053,20.71742h-40.75462l51.96274-118.86965h39.39591l51.96274,118.86965h-41.43484l-7.98053-20.71742Zm-11.03807-28.868l-11.54651-29.88661-11.54823,29.88661h23.09474Z"/><path class="cls-3" d="m609.18663,831.64153c0-35.99997,28.35784-62.15054,67.07524-62.15054s67.07696,26.15057,67.07696,62.15054-28.35956,62.15226-67.07696,62.15226-67.07524-26.15229-67.07524-62.15226Zm93.73598,0c0-18.50843-11.88662-29.71655-26.66073-29.71655-14.77239,0-26.66073,11.20812-26.66073,29.71655,0,18.51015,11.88834,29.71827,26.66073,29.71827,14.77411,0,26.66073-11.20812,26.66073-29.71827Z"/><path class="cls-3" d="m774.91912,772.2067h40.07612v87.79438h53.65985v31.07527h-93.73598v-118.86965Z"/><path class="cls-3" d="m890.21935,831.64153c0-35.99997,28.35784-62.15054,67.07524-62.15054s67.07696,26.15057,67.07696,62.15054-28.35956,62.15226-67.07696,62.15226-67.07524-26.15229-67.07524-62.15226Zm93.73598,0c0-18.50843-11.88662-29.71655-26.66073-29.71655-14.77239,0-26.66073,11.20812-26.66073,29.71655,0,18.51015,11.88834,29.71827,26.66073,29.71827,14.77411,0,26.66073-11.20812,26.66073-29.71827Z"/><path class="cls-3" d="m1134.57532,828.41565h34.81131v50.26392c-14.434,9.84941-34.30287,15.11422-51.79269,15.11422-38.3773,0-66.39675-25.64212-66.39675-62.15226s28.01945-62.15054,67.2453-62.15054c23.43485,0,42.28339,8.15058,54.34007,22.92469l-25.64212,22.58458c-7.47036-8.66074-16.13111-13.07528-26.65901-13.07528-17.6616,0-28.86972,11.37646-28.86972,29.71655,0,17.82993,11.20812,29.71827,28.35956,29.71827,4.9247,0,9.67935-.85027,14.60405-2.88749v-30.05666Z"/><path class="cls-3" d="m1274.15724,847.94441v43.13195h-40.07441v-43.64211l-44.83077-75.22754h42.28339l24.28341,41.09473,24.45174-41.09473h38.71741l-44.83077,75.73771Z"/></g><g><path class="cls-3" d="m399.80946,653.69481c0-35.99997,28.35784-62.15054,67.07524-62.15054s67.07696,26.15057,67.07696,62.15054-28.35956,62.15226-67.07696,62.15226-67.07524-26.15229-67.07524-62.15226Zm93.73598,0c0-18.50843-11.88662-29.71655-26.66073-29.71655-14.77239,0-26.66073,11.20812-26.66073,29.71655,0,18.51015,11.88834,29.71827,26.66073,29.71827,14.77411,0,26.66073-11.20812,26.66073-29.71827Z"/><path class="cls-3" d="m676.93952,639.09075c0,27.511-21.05753,44.83077-54.17001,44.83077h-17.15143v29.20811h-40.07612v-118.86965h57.22756c33.11249,0,54.17001,17.32149,54.17001,44.83077Zm-40.41623,0c0-8.66074-5.26309-13.92384-16.30116-13.92384h-14.60405v27.84939h14.60405c11.03807,0,16.30116-5.26481,16.30116-13.92556Z"/><path class="cls-3" d="m805.8252,682.90292v30.22672h-98.83073v-118.86965h96.62346v30.22672h-57.22756v13.92556h50.26564v28.868h-50.26564v15.62266h59.43483Z"/><path class="cls-3" d="m955.42486,594.25998v118.86965h-32.94415l-45.16916-53.99996v53.99996h-39.05752v-118.86965h32.94415l45.16916,54.00168v-54.00168h39.05752Z"/></g><g><path class="cls-1" d="m626.2255,296.2258v-28.26593c0-32.61877-.00053-65.23754-.00105-97.85631v-17.08512c0-1.27709-.04689-2.55503-.01265-3.831.0548-2.02872-.87783-2.54601-2.86005-2.43714-1.82678.10031-3.63723.25417-5.43978.43318-3.47073.3446-6.8972.82902-10.27677,1.46388-3.49971.65751-6.95305,1.46328-10.35423,2.43016-3.53449,1.00481-7.01523,2.17527-10.44117,3.51183v.00007c-3.57348,1.39406-7.08583,2.97109-10.53917,4.72351-3.27156,1.66021-6.4899,3.47685-9.65186,5.45637-.3388.21195-.66285.43951-.99849.65448l-.00053.00007c-3.76316,2.40849-7.36509,4.99494-10.78313,7.75915v.00007c-3.88593,3.14253-7.5474,6.49985-10.96807,10.05244-4.10407,4.26214-7.84984,8.81059-11.2526,13.57929v.00007c-4.61359,6.46579-8.56433,13.35239-11.81323,20.55177-11.28843,25.01242-14.0842,53.75501-6.56209,81.47744.0822.30376.15017.60884.235.91234,2.13555,7.63493,4.83805,14.8548,8.10592,21.65827,0,0-.00053,0,0,.00007,2.60555,5.42581,5.58415,10.57698,8.91261,15.46864,2.81052,4.13022,5.87974,8.06838,9.20663,11.81461,0,0,.00053-.00007.00053,0,2.93065,3.30008,6.06416,6.44933,9.39737,9.4494,3.01127,2.7104,6.19378,5.2927,9.53384,7.75671,2.62294,1.93473,5.3228,3.81118,8.14913,5.59324.49213.31048.99058.60403,1.48587.90615,3.18409,1.94178,6.42773,3.71238,9.7309,5.31213,3.21887,1.55925,6.49253,2.96147,9.81995,4.20491,3.25048,1.21472,6.55102,2.28242,9.90056,3.20418,3.27841.90233,6.60371,1.66581,9.97328,2.29547l.00053.00007c3.30423.61747,6.65219,1.1038,10.04019,1.46651.27504.02944.54798.06606.82355.09386,6.59897.66555,6.63954.52289,6.63954-6.07924.00105-28.8917,0-57.78334-.00053-86.67504v-.00053Z"/><path class="cls-2" d="m723.97182,343.89392c2.47488-3.2412,4.85702-6.63842,7.13747-10.20413,1.60496-2.5086,3.07502-5.05369,4.4571-7.62262,11.35008-21.1012,15.31136-44.18725,13.58047-68.5527-.74188-10.44486-2.64454-20.37183-5.66055-29.78981-2.2267-6.95397-5.07305-13.62454-8.54747-20.00346-2.64718-4.86038-5.65054-9.55471-9.02484-14.07471-2.83107-3.79221-5.92716-7.45941-9.27196-11.00838-.74663-.79214-1.47902-1.59112-2.25094-2.37108-2.33525-2.35869-4.73056-4.585-7.17751-6.69493-3.09926-2.67214-6.28704-5.14491-9.56071-7.42397-3.14563-2.19015-6.37082-4.20043-9.67241-6.03347-3.1862-1.76876-6.44353-3.37312-9.77094-4.81467-3.22203-1.39591-6.50729-2.64342-9.85788-3.73734-3.25259-1.06211-6.56577-1.9815-9.93587-2.76329-3.28104-.76105-6.61741-1.38879-10.00647-1.8883-3.30686-.48739-6.66378-.85319-10.07023-1.09524-2.16295-.15372-4.34381-.26319-6.54628-.31917-1.67029-.04248-2.78839-.31246-3.51025-.94685-.79774-.70111-1.10914-1.85016-1.07963-3.68953.17862-11.2395.06639-22.4836.06639-33.726-.00316-11.49788-.08378-22.99668.05058-34.49298.03161-2.73576-.63018-3.94824-3.07186-4.13397-.31614-.02404-.65389-.03543-1.03221-.02595-3.05974.07653-6.11053.22394-9.15763.41415-3.4133.21313-6.82185.49944-10.22724.85668-.91945.09642-1.8389.18218-2.75783.28921-2.5165.29296-5.0172.62386-7.50367.98927-3.46335.50886-6.89509,1.09346-10.29943,1.74485-3.47653.66528-6.92302,1.40546-10.33737,2.22196-3.49286.83515-6.95358,1.74735-10.37952,2.7434-3.51025,1.02042-6.98625,2.12304-10.42536,3.31529-3.53027,1.22367-7.02313,2.53738-10.47647,3.94521-3.55187,1.44781-7.06265,2.995-10.53232,4.64099-3.57664,1.69657-7.10691,3.50274-10.5945,5.4135-3.60351,1.97432-7.15749,4.06752-10.66405,6.27466-3.63302,2.28677-7.2144,4.69796-10.7415,7.23916-3.42173,2.46546-6.79603,5.04532-10.11659,7.75454-.24185.19726-.47422.40196-.71501.60015-3.79162,3.12304-7.43728,6.36101-10.94015,9.70976-3.87592,3.70487-7.57006,7.55056-11.08768,11.53239-3.99553,4.52362-7.76817,9.21901-11.29423,14.10112-4.22104,5.84451-8.09802,11.94957-11.63303,18.30939-2.88428,5.18904-5.54832,10.54214-7.96787,16.07524-1.5628,3.5744-3.00969,7.16559-4.35277,10.77154-11.86329,31.85173-15.177,64.92383-10.31629,99.01182.4563,3.19852.98689,6.36246,1.57703,9.49893,1.89844,10.09262,4.49293,19.86152,7.79979,29.29044,2.44695,6.97768,5.28434,13.76904,8.51796,20.36781,2.68195,5.47271,5.63737,10.8127,8.86888,16.01649,2.81895,4.53929,5.84444,8.97663,9.08702,13.30596,2.90747,3.88237,5.98881,7.67821,9.2414,11.38802,1.92005,2.19041,3.89331,4.35396,5.93507,6.48318,1.13127,1.18034,2.2736,2.33656,3.42067,3.48193,3.09136,3.08661,6.24173,6.04019,9.44374,8.87632,3.12086,2.76415,6.29495,5.40862,9.51908,7.93909,3.14879,2.47119,6.34237,4.84128,9.58758,7.09354,3.17145,2.20135,6.38926,4.29791,9.65134,6.29383,3.19358,1.95383,6.43247,3.80406,9.71035,5.56452,3.21465,1.72608,6.46988,3.35823,9.76409,4.90167,3.23309,1.51499,6.50465,2.94297,9.81362,4.285,3.25048,1.31858,6.53732,2.5553,9.85946,3.70981,3.26734,1.13548,6.56841,2.19298,9.9032,3.17257,3.2821.96424,6.59686,1.85372,9.94324,2.66957,3.29685.80366,6.62426,1.5358,9.98171,2.19805,3.31002.65284,6.64955,1.23731,10.01701,1.75512,3.32267.51084,6.67326.9568,10.05073,1.33854,3.33479.3768,6.69539.69282,10.08287.94599,2.97491.22242,5.96458.40908,8.97953.53777.4073.01739.77982.03175,1.13179.0434,4.6589.15432,4.68209-.34572,4.68367-5.60226.00422-17.53899.00263-35.07797.00527-52.61689.00053-4.56254-.00053-9.12502.00158-13.68757.00158-3.51506.0216-4.68255,1.51275-5.11474.77613-.22492,1.9427-.2543,3.72839-.30402,2.18982-.06099,4.34539-.18205,6.482-.33801,3.48759-.25456,6.90458-.6338,10.25043-1.1395,3.51657-.53158,6.95885-1.1945,10.31945-2.00073,3.55345-.8526,7.02102-1.85596,10.40112-3.01252,3.59824-1.23125,7.09532-2.6396,10.49807-4.21156,3.6504-1.68663,7.18647-3.57275,10.61294-5.64685,3.71574-2.24916,7.30239-4.72114,10.75626-7.41996,3.80584-2.97373,7.45256-6.21927,10.94226-9.7311,3.93072-3.95535,7.66279-8.24693,11.19517-12.87356Zm-104.38533,45.08668c-.27557-.02779-.54851-.06441-.82355-.09386-3.38801-.36271-6.73597-.84904-10.04019-1.46651l-.00053-.00007c-3.36956-.62965-6.69487-1.39314-9.97328-2.29547-3.34954-.92176-6.65008-1.98947-9.90056-3.20418-3.32741-1.24343-6.60108-2.64566-9.81995-4.20491-3.30317-1.59975-6.54681-3.37035-9.7309-5.31213-.49529-.30211-.99374-.59567-1.48587-.90615-2.82632-1.78206-5.52619-3.65851-8.14913-5.59324-3.34006-2.46401-6.52257-5.04631-9.53384-7.75671-3.33321-3.00007-6.46672-6.14932-9.39737-9.4494,0-.00007-.00053,0-.00053,0-3.32688-3.74624-6.39611-7.6844-9.20663-11.81461-3.32846-4.89166-6.30706-10.04283-8.91261-15.46864-.00053-.00007,0-.00007,0-.00007-3.26787-6.80348-5.97037-14.02334-8.10592-21.65827-.08483-.3035-.1528-.60858-.235-.91234-7.52211-27.72243-4.72635-56.46502,6.56209-81.47744,3.2489-7.19938,7.19964-14.08597,11.81323-20.55177v-.00007c3.40276-4.7687,7.14853-9.31715,11.2526-13.57929,3.42067-3.5526,7.08214-6.90991,10.96807-10.05244v-.00007c3.41804-2.76421,7.01997-5.35066,10.78313-7.75915l.00053-.00007c.33564-.21498.65969-.44254.99849-.65448,3.16196-1.97952,6.3803-3.79616,9.65186-5.45637,3.45334-1.75242,6.9657-3.32945,10.53917-4.72351v-.00007c3.42594-1.33656,6.90668-2.50702,10.44117-3.51183,3.40118-.96687,6.85452-1.77264,10.35423-2.43016,3.37957-.63486,6.80604-1.11928,10.27677-1.46388,1.80255-.17902,3.61299-.33287,5.43978-.43318,1.98222-.10887,2.91484.40842,2.86005,2.43714-.03425,1.27597.01265,2.55391.01265,3.831v17.08512c.00053,32.61877.00105,65.23754.00105,97.85631v28.26646c.00053,28.8917.00158,57.78334.00053,86.67504,0,6.60213-.04057,6.74479-6.63954,6.07924Z"/><path class="cls-4" d="m839.70934,316.68681c-13.11943-11.08538-20.95241-24.83413-22.7049-41.72976-2.33946-22.55026,4.93869-41.56557,22.58846-56.22765,3.28368-2.72759,6.23646-5.83147,8.45684-9.36714,8.96847-14.28132,10.35581-29.30835,2.2462-44.31015-8.1075-14.99844-21.0873-22.94912-38.27972-23.0389-33.41901-.1746-54.30767,35.86135-37.71118,64.82695,2.72885,4.76224,6.34711,8.7936,10.54023,12.28784,2.51018,2.09162,4.94659,4.23692,7.09057,6.70382,23.94524,27.55185,18.86745,69.83763-7.43938,90.63223-10.73307,8.48358-15.80876,20.10653-15.99528,33.89092.09221,1.62274.07482,3.32346.29981,4.99145,3.5387,26.22391,28.8755,43.38017,54.41726,36.3706,16.76615-4.60127,27.5556-15.80994,31.20864-32.83816,3.59771-16.77227-1.71982-31.20917-14.71754-42.19206Z"/><path class="cls-4" d="m729.18608,147.04246c25.62133-.10341,43.91761-21.49862,43.29744-43.6562-.04268-23.97883-19.31901-43.27222-43.28374-43.32194-24.00847-.04986-43.54456,19.45929-43.57723,43.5169-.03214,24.04022,19.47076,43.55839,43.56353,43.46124Z"/><path class="cls-4" d="m893.75672,226.36887c-24.16074-.06165-43.52138,19.12932-43.58461,43.33643-.06376,24.22727,19.13301,43.49701,43.36647,43.53224,24.03903.03497,43.10881-19.16357,43.45709-43.12732.33037-22.7599-18.2868-43.67767-43.23895-43.74136Z"/><path class="cls-4" d="m745.74568,390.07018c-24.009-.04979-43.54456,19.45936-43.57723,43.51696-.03214,24.04015,19.47023,43.55839,43.56353,43.46118,25.62133-.10334,43.91761-21.49862,43.29744-43.65613-.04268-23.9789-19.31901-43.27222-43.28374-43.32201Z"/></g></svg>