<?xml version="1.0" encoding="UTF-8"?><svg id="Layer_1" xmlns="http://www.w3.org/2000/svg" viewBox="0 0 144 144"><defs><style>.cls-1{fill:#fff;}</style></defs><rect class="cls-1" x="112.08091" y="10.61983" width="28.84061" height="117.78005" rx="2.82223" ry="2.82223"/><path class="cls-1" d="M49.82262,11.33428H5.76758c-2.53988,0-3.93551,2.95395-2.32278,4.91601l44.7696,54.46501L3.4448,123.38173c-1.61272,1.96206-.21709,4.91614,2.32278,4.91614H49.82262l22.83693-27.84348,22.8871,27.84348h7.34853v-52.25607L49.82262,11.33428Z"/><path class="cls-1" d="M79.20148,30.24956l15.87176-18.6934c.55928-.6587,1.37974-1.03839,2.24385-1.03839h37.72946c4.76346,0,7.32792,5.5925,4.21965,9.20211l-34.12511,39.62916c-1.17962,1.36989-3.30382,1.36265-4.47409-.01524l-21.46524-25.27359c-.9332-1.09877-.93332-2.71173-.00029-3.81064Z"/></svg>