<?xml version="1.0" encoding="UTF-8"?><svg id="Layer_1" xmlns="http://www.w3.org/2000/svg" viewBox="0 0 740 512"><defs><style>.cls-1{fill:none;}</style></defs><g><rect class="cls-1" x="272.74503" y="159.71272" width="23.62492" height="23.62605"/><path class="cls-1" d="m368.03293,26.42206c-75.20938,0-136.39601,61.18777-136.39601,136.39714s61.18664,136.39601,136.39601,136.39601,136.39714-61.18664,136.39714-136.39601S443.2423,26.42206,368.03293,26.42206Zm-69.99184,216.64905h-8.85496v-23.51297h8.85496v23.51297Zm15.71565,0h-8.85496v-12.64987h8.85496v12.64987Zm14.64401,0h-8.85482v-36.16283h8.85482v36.16283Zm17.70979-66.6408v66.6408h-8.85496v-66.6408h-31.62156v16.17252h-42.15303v-42.15416h42.15303v17.1264h40.47652v8.85525Zm18.24568-64.98239v131.62319h-8.85496V111.69162c-10.751-1.81504-18.97424-11.16674-18.97424-22.42734,0-12.55487,10.21398-22.76886,22.76886-22.76886,12.55601,0,22.76999,10.21398,22.76999,22.76886,0,10.81504-7.58472,19.87384-17.70964,22.18363Zm36.68445,131.62319h-8.85496v-26.56461h8.85496v26.56461Zm15.1799,0h-8.85496v-20.23967h8.85496v20.23967Zm15.17961,0h-8.85482v-31.62467h8.85482v31.62467Zm13.91488,0h-8.85482v-18.9748h8.85482v18.9748Zm22.23749-86.7951h-42.81233v-15.81177h-41.40935v102.60687h-8.85482v-111.46211h50.26417v-18.14531h42.81233v42.81233Z"/><rect class="cls-1" x="434.00426" y="122.72774" width="24.28422" height="24.28422"/><path class="cls-1" d="m359.29586,76.61442c-6.97518,0-12.64987,5.67469-12.64987,12.64987s5.67469,12.651,12.64987,12.651,12.651-5.67582,12.651-12.651-5.67582-12.64987-12.651-12.64987Z"/><path d="m368.03293,16c-80.95531,0-146.81807,65.86277-146.81807,146.81921s65.86277,146.81807,146.81807,146.81807,146.81921-65.86277,146.81921-146.81807S448.98937,16,368.03293,16Zm0,283.21522c-75.20938,0-136.39601-61.18664-136.39601-136.39601S292.82355,26.42206,368.03293,26.42206s136.39714,61.18777,136.39714,136.39714-61.18777,136.39601-136.39714,136.39601Z"/><path d="m382.06584,89.26429c0-12.55487-10.21398-22.76886-22.76999-22.76886-12.55487,0-22.76886,10.21398-22.76886,22.76886,0,11.2606,8.22323,20.6123,18.97424,22.42734v131.37949h8.85496V111.44792c10.12493-2.30979,17.70964-11.3686,17.70964-22.18363Zm-22.76999,12.651c-6.97518,0-12.64987-5.67582-12.64987-12.651s5.67469-12.64987,12.64987-12.64987,12.651,5.67469,12.651,12.64987-5.67582,12.651-12.651,12.651Z"/><rect x="392.18568" y="216.5065" width="8.85496" height="26.56461"/><rect x="407.36558" y="222.83144" width="8.85496" height="20.23967"/><rect x="422.54534" y="211.44644" width="8.85482" height="31.62467"/><rect x="436.46022" y="224.09631" width="8.85482" height="18.9748"/><rect x="319.54592" y="206.90828" width="8.85482" height="36.16283"/><rect x="304.90177" y="230.42125" width="8.85496" height="12.64987"/><rect x="289.18612" y="219.55815" width="8.85496" height="23.51297"/><path d="m305.634,167.57506v-17.1264h-42.15303v42.15416h42.15303v-16.17252h31.62156v66.6408h8.85496v-75.49605h-40.47652Zm-9.26405,15.76371h-23.62492v-23.62605h23.62492v23.62605Z"/><path d="m424.74021,131.609h-50.26417v111.46211h8.85482v-102.60687h41.40935v15.81177h42.81233v-42.81233h-42.81233v18.14531Zm9.26405-8.88126h24.28422v24.28422h-24.28422v-24.28422Z"/></g><g><polygon class="cls-1" points="39.66732 436.14576 70.91541 436.14576 55.35582 387.08653 39.66732 436.14576"/><path class="cls-1" d="m382.1795,408.81952c-1.62958-1.19985-3.44009-2.13281-5.43381-2.79776-1.99259-.66382-4.14689-.99629-6.46177-.99629-4.07225,0-7.48068.88999-10.22303,2.66884-2.74348,1.77885-4.92945,4.04058-6.55789,6.78293-1.62958,2.70051-2.79663,5.72218-3.50455,9.06615-.70679,3.34284-1.06075,6.72978-1.06075,10.15857v1.35025c.04184,3.55884.46026,7.10523,1.25413,10.64145.79274,3.53622,2.06722,6.63366,3.82572,9.2912,1.58547,2.61456,3.72847,4.71571,6.42897,6.30005,2.70051,1.58661,5.93705,2.37934,9.70962,2.37934,2.18596,0,4.2758-.2895,6.26839-.86737,1.99372-.579,3.84721-1.4034,5.5616-2.47547,1.62845-1.07093,3.09631-2.36803,4.40472-3.89018,1.30728-1.52101,2.34655-3.24672,3.1178-5.17597v-32.72726c-.77125-2.01407-1.77885-3.8359-3.02167-5.46548-1.24395-1.62845-2.67902-3.04316-4.30747-4.24301Z"/><path class="cls-1" d="m522.79816,435.56676c-3.42992.60049-6.36564,1.67142-8.80945,3.21505-1.97223,1.24395-3.52604,2.77515-4.66143,4.59697-1.13652,1.82183-1.70308,4.01797-1.70308,6.59069,0,2.10002.42747,3.9863,1.28579,5.65772.85607,1.67142,2.01407,3.08613,3.47176,4.24414,1.45656,1.19985,3.18226,2.11133,5.17597,2.73217,1.99259.62198,4.10391.93183,6.33285.93183,2.70051.0441,5.2721-.26688,7.7159-.93183,2.4438-.66382,4.69422-1.59678,6.75127-2.79663s3.87887-2.63605,5.46548-4.3086c1.58547-1.67142,2.87127-3.53622,3.85738-5.59326v-15.30288h-14.01708c-3.81554.04297-7.43657.36527-10.86536.96463Z"/><path class="cls-1" d="m623.55154,413.12698c-1.75737-2.3997-3.94446-4.35044-6.55789-5.8511-2.61569-1.49953-5.78664-2.25042-9.51624-2.25042-2.18596,0-4.25432.31099-6.20506.93183-1.95074.62198-3.73977,1.49048-5.36822,2.60438-1.67142,1.15801-3.14041,2.53993-4.40472,4.14689-1.26431,1.60809-2.3047,3.41974-3.1178,5.43381v33.88414c.77125,1.80034,1.80034,3.42992,3.08613,4.88647,1.28579,1.45769,2.72086,2.68015,4.30747,3.66514,1.71439,1.02909,3.57919,1.832,5.59439,2.41101,2.01407.579,4.0926.86851,6.23673.86851,3.81441,0,7.06113-.81422,9.74128-2.4438,2.67789-1.62845,4.87516-3.74995,6.58956-6.36564,1.75737-2.70051,3.03185-5.807,3.82572-9.32286.79274-3.5136,1.21116-7.07244,1.25413-10.67311v-1.35025c0-3.68549-.43991-7.33027-1.31859-10.93095s-2.2606-6.8146-4.14689-9.64403Z"/><path d="m51.88406,375.51325l-30.41351,93.61648h7.7159l8.2949-26.10491h35.55556l8.2949,26.10491h7.7159l-30.22013-93.61648h-6.94352Zm-12.21675,60.63251l15.6885-49.05923,15.55959,49.05923h-31.24809Z"/><path d="m152.38074,398.27419c-6.30119-.04184-11.78928,1.27562-16.46089,3.95464-4.67274,2.67902-8.35823,6.39731-11.05874,11.15486v-3.08613l-.45008-10.73757h-7.33027v69.56975h7.90928l-.06446-44.49392c.8572-3.21505,2.08984-5.98907,3.6968-8.32657,1.60809-2.33524,3.50455-4.2758,5.69052-5.81831,2.27191-1.58547,4.83219-2.75366,7.6831-3.50455,2.85091-.74976,5.90425-1.12521,9.16228-1.12521,1.88628,0,3.7296.10743,5.52993.32117,1.80034.216,3.57806.51454,5.33656.90017l1.02909-7.45806c-1.3299-.42747-2.96852-.75994-4.91927-.99629-1.95074-.23522-3.86869-.35396-5.75385-.35396Z"/><path d="m236.25594,462.73242c-.87868.15041-1.76754.2895-2.66771.41729-1.20098.12892-2.42232.24766-3.66514.35396-1.24395.10743-2.48677.16058-3.7296.16058-2.10002,0-4.07225-.23522-5.91556-.70679s-3.45027-1.26431-4.82201-2.37934c-1.37174-1.07093-2.44267-2.50713-3.21505-4.30747-.77125-1.80034-1.17949-4.05076-1.22134-6.75127v-43.59375h25.78375v-6.36564h-25.78375v-17.81001h-7.78036v17.81001h-19.35251v6.36564h19.35251v43.59375c.04297,3.81554.6118,7.05095,1.70422,9.70848,1.09355,2.65867,2.60438,4.80166,4.53364,6.4301,1.92813,1.67142,4.21135,2.88258,6.84739,3.63234s5.49714,1.12521,8.58327,1.12521c1.49953,0,3.0115-.04297,4.53251-.12892,1.52215-.08595,2.99001-.25671,4.40472-.51341,1.1139-.17189,2.17579-.38676,3.18339-.64346,1.00647-.25671,1.89646-.579,2.66771-.96463l-1.15688-5.8511c-.64346.12892-1.40454.26802-2.28322.41842Z"/><path d="m294.34853,386.18636c2.0152,0,3.49325-.55639,4.43752-1.67142.94201-1.1139,1.41358-2.4438,1.41358-3.9863,0-.8572-.12779-1.64993-.38563-2.37934-.25671-.72828-.64233-1.35025-1.15688-1.8648-.4727-.51454-1.06075-.91035-1.76867-1.18967-.70679-.27819-1.55381-.41729-2.53993-.41729s-1.84331.1391-2.57159.41729c-.72941.27932-1.32877.67513-1.80034,1.18967-.51454.55752-.87868,1.20098-1.09242,1.92926-.21486.72941-.3223,1.50066-.3223,2.31488,0,1.5425.45008,2.8724,1.35025,3.9863.90017,1.11503,2.37934,1.67142,4.43639,1.67142Z"/><polygon points="298.46375 399.55998 266.18657 399.55998 266.18657 406.44017 290.81231 406.44017 290.81231 462.24954 266.18657 462.24954 266.18657 469.12973 322.12599 469.12973 322.12599 462.24954 298.46375 462.24954 298.46375 399.55998"/><path d="m389.76648,409.33293c-.98612-1.49953-2.11133-2.87127-3.37564-4.11409-1.26544-1.24282-2.64736-2.33637-4.14689-3.27951-1.88742-1.19985-3.95464-2.11133-6.20506-2.7333-2.25042-.62085-4.63994-.93183-7.16856-.93183-4.84463,0-9.013,1.0404-12.50625,3.11893-3.49438,2.07966-6.35547,4.76886-8.58327,8.06873-2.23007,3.301-3.88,7.03059-4.95093,11.18766-1.07206,4.15819-1.60809,8.50977-1.60809,13.05246v1.35025c0,4.54382.579,8.99152,1.73588,13.34196,1.15801,4.35044,2.93573,8.15581,5.33656,11.4127,2.27191,3.21505,5.10134,5.78664,8.48715,7.7159,3.38581,1.92813,7.37212,2.89276,11.96004,2.89276,2.31488,0,4.554-.25671,6.71848-.77125s4.18986-1.26431,6.07614-2.25042c1.58547-.8572,3.05447-1.85349,4.40472-2.99001,1.35025-1.13539,2.53993-2.43249,3.56788-3.89018v7.65144c0,3.29987-.46026,6.31136-1.38192,9.03336s-2.24025,5.04819-3.95464,6.97631c-1.80034,1.92926-3.97612,3.42879-6.52623,4.50085-2.5501,1.07093-5.47565,1.60809-8.77552,1.60809-2.10115,0-4.10504-.26802-6.01281-.80405s-3.73977-1.2971-5.49714-2.28209c-1.41471-.81535-2.78645-1.80034-4.11522-2.95835-1.32877-1.15688-2.61456-2.48564-3.85738-3.9863l-4.30747,4.75868c1.37061,1.84218,2.94591,3.46045,4.72589,4.85368,1.77772,1.39323,3.63234,2.56141,5.5616,3.50455,2.22781,1.15688,4.54269,2.02538,6.94352,2.60438,2.3997.57787,4.75868.86737,7.07244.86737,4.28598,0,8.13432-.70679,11.54162-2.1215,3.40843-1.41471,6.33285-3.4073,8.77665-5.98002,2.3997-2.52975,4.25319-5.5616,5.5616-9.09782,1.30728-3.53622,1.96092-7.44788,1.96092-11.73387v-68.34841h-7.1369l-.32117,9.77294Zm-.25784,41.92233c-.77125,1.92926-1.81052,3.65496-3.1178,5.17597-1.30841,1.52215-2.77628,2.81925-4.40472,3.89018-1.71439,1.07206-3.56788,1.89646-5.5616,2.47547-1.99259.57787-4.08243.86737-6.26839.86737-3.77257,0-7.00911-.79274-9.70962-2.37934-2.70051-1.58434-4.8435-3.68549-6.42897-6.30005-1.7585-2.65754-3.03298-5.75498-3.82572-9.2912-.79387-3.53622-1.21229-7.08261-1.25413-10.64145v-1.35025c0-3.42879.35396-6.81573,1.06075-10.15857.70792-3.34397,1.87498-6.36564,3.50455-9.06615,1.62845-2.74235,3.81441-5.00408,6.55789-6.78293,2.74235-1.77885,6.15078-2.66884,10.22303-2.66884,2.31488,0,4.46918.33247,6.46177.99629,1.99372.66495,3.80423,1.59791,5.43381,2.79776,1.62845,1.19985,3.06352,2.61456,4.30747,4.24301,1.24282,1.62958,2.25042,3.4514,3.02167,5.46548v32.72726Z"/><path d="m468.46684,398.27419c-6.30119-.04184-11.78928,1.27562-16.46089,3.95464-4.67274,2.67902-8.35823,6.39731-11.05874,11.15486v-3.08613l-.45008-10.73757h-7.33027v69.56975h7.90928l-.06446-44.49392c.8572-3.21505,2.08984-5.98907,3.6968-8.32657,1.60809-2.33524,3.50455-4.2758,5.69052-5.81831,2.27191-1.58547,4.83219-2.75366,7.6831-3.50455,2.85091-.74976,5.90425-1.12521,9.16228-1.12521,1.88628,0,3.7296.10743,5.52993.32117,1.80034.216,3.57806.51454,5.33656.90017l1.02909-7.45806c-1.3299-.42747-2.96852-.75994-4.91927-.99629-1.95074-.23522-3.86869-.35396-5.75385-.35396Z"/><path d="m555.94272,461.60721c-.40711-2.35672-.61067-4.71458-.61067-7.07244v-33.62743c-.04297-3.77144-.76107-7.07357-2.1543-9.90186-1.39323-2.82943-3.2682-5.20877-5.62606-7.1369-2.40083-1.84331-5.20764-3.23654-8.42269-4.17968-3.21505-.94201-6.66532-1.41471-10.35195-1.41471s-7.14707.51454-10.38361,1.54363c-3.23654,1.02796-6.07614,2.44267-8.51881,4.24301-2.4438,1.84331-4.39455,4.00892-5.8511,6.49456-1.45769,2.48564-2.25042,5.20764-2.37934,8.16485l7.7159.06446c.04184-2.18596.61067-4.14689,1.70308-5.88277,1.09355-1.73588,2.49695-3.20374,4.21135-4.40472,1.75737-1.19872,3.77144-2.1215,6.04448-2.76497,2.27191-.64233,4.65012-.9635,7.1369-.9635,2.70051,0,5.21782.35283,7.55532,1.06075,2.33524.70679,4.36062,1.7257,6.07614,3.05334,1.71326,1.3299,3.06352,2.99001,4.05076,4.98373.98498,1.99259,1.49953,4.29729,1.5425,6.91185v7.84369h-15.1095c-4.33009.0441-8.46679.46139-12.40899,1.25413-3.94446.79387-7.39473,2.048-10.35195,3.76126-3.00132,1.80034-5.39084,4.09374-7.16969,6.88019s-2.66771,6.17227-2.66771,10.15857c0,3.00132.59936,5.71314,1.80034,8.13432,1.19872,2.42118,2.8283,4.49067,4.88647,6.20393,2.05705,1.71552,4.50085,3.04429,7.32914,3.9863,2.82943.94314,5.8511,1.41471,9.06615,1.41471,2.57159,0,5.04706-.26802,7.4264-.80405,2.37934-.5349,4.63994-1.31746,6.78293-2.34655,2.10002-.98498,4.04058-2.19614,5.81944-3.63234,1.77772-1.4362,3.33266-3.03185,4.66143-4.79035.08595,1.80034.24653,3.57919.48175,5.33656.23522,1.7585.58918,3.4073,1.06188,4.95093h8.22931l-.06446-.77125c-.60049-2.14299-1.10373-4.39341-1.51084-6.75127Zm-8.26211-11.7022c-.98612,2.05705-2.27191,3.92184-3.85738,5.59326-1.58661,1.67255-3.40843,3.10875-5.46548,4.3086s-4.30747,2.13281-6.75127,2.79663c-2.4438.66495-5.01539.97594-7.7159.93183-2.22894,0-4.34026-.30986-6.33285-.93183-1.99372-.62085-3.71942-1.53232-5.17597-2.73217-1.45769-1.15801-2.61569-2.57272-3.47176-4.24414-.85833-1.67142-1.28579-3.5577-1.28579-5.65772,0-2.57272.56656-4.76886,1.70308-6.59069,1.13539-1.82183,2.6892-3.35302,4.66143-4.59697,2.4438-1.54363,5.37953-2.61456,8.80945-3.21505,3.42879-.59936,7.04982-.92166,10.86536-.96463h14.01708v15.30288Z"/><path d="m629.40264,408.04713c-2.27191-3.04316-5.07985-5.43268-8.42269-7.16856-3.34397-1.73588-7.26581-2.60438-11.76666-2.60438-2.40083,0-4.69309.2895-6.87906.86851-2.18709.57787-4.2023,1.40454-6.04448,2.47547-1.62958.90017-3.12911,1.98241-4.50085,3.24672s-2.59421,2.69033-3.66514,4.2758l-.25671-9.5807h-7.1369v96.31699h7.65144v-35.16993c1.02796,1.37174,2.21763,2.61456,3.56788,3.72847,1.35025,1.11616,2.79663,2.07966,4.34026,2.89389,1.88628.98612,3.94333,1.74719,6.17227,2.28209,2.22894.53603,4.52233.80405,6.88019.80405,4.67161,0,8.73368-.98612,12.18395-2.95721s6.26952-4.58679,8.45549-7.84482c2.22781-3.25689,3.91053-7.02946,5.04706-11.31658,1.13539-4.28485,1.70422-8.70088,1.70422-13.2447v-1.35025c-.04297-4.8435-.65477-9.50493-1.83313-13.98429-1.17949-4.47936-3.0115-8.36954-5.49714-11.67054Zm-.38563,27.00508c-.04297,3.60068-.46139,7.15951-1.25413,10.67311-.79387,3.51586-2.06835,6.62235-3.82572,9.32286-1.71439,2.61569-3.91167,4.7372-6.58956,6.36564-2.68015,1.62958-5.92687,2.4438-9.74128,2.4438-2.14412,0-4.22265-.2895-6.23673-.86851-2.0152-.579-3.88-1.38192-5.59439-2.41101-1.58661-.98498-3.02167-2.20745-4.30747-3.66514-1.28579-1.45656-2.31488-3.08613-3.08613-4.88647v-33.88414c.81309-2.01407,1.85349-3.82572,3.1178-5.43381,1.26431-1.60696,2.7333-2.98888,4.40472-4.14689,1.62845-1.1139,3.41748-1.98241,5.36822-2.60438,1.95074-.62085,4.0191-.93183,6.20506-.93183,3.7296,0,6.90054.7509,9.51624,2.25042,2.61343,1.50066,4.80053,3.4514,6.55789,5.8511,1.88628,2.82943,3.2682,6.04335,4.14689,9.64403s1.31859,7.24546,1.31859,10.93095v1.35025Z"/><path d="m713.05393,413.51261c-1.02909-3.29987-2.55123-6.08632-4.56531-8.35823-1.97223-2.22894-4.43639-3.93202-7.3936-5.11151-2.95835-1.17836-6.34529-1.76867-10.1597-1.76867-2.91537,0-5.64754.4286-8.19765,1.28579-2.55123.85833-4.89778,2.05818-7.04077,3.60068-1.7585,1.28579-3.35415,2.77628-4.79035,4.46918-1.4362,1.69404-2.66771,3.52604-3.6968,5.49714v-42.75804h-7.65144v98.76079h7.65144v-47.83676c.77125-2.18596,1.82183-4.24414,3.15059-6.1734,1.32877-1.92813,2.89389-3.59955,4.69422-5.01426,1.9711-1.58547,4.14689-2.82943,6.52623-3.7296,2.37821-.90017,4.89665-1.35025,7.55419-1.35025,3.04316-.04184,5.69052.39693,7.94094,1.31859s4.1254,2.2606,5.62606,4.01797c1.41471,1.67142,2.46416,3.71942,3.15059,6.1406.6853,2.42232,1.04944,5.13413,1.09242,8.13319v44.49392h7.65144v-44.42946c0-4.15706-.51341-7.88666-1.5425-11.18766Z"/></g></svg>