<?xml version="1.0" encoding="UTF-8"?><svg id="Layer_1" xmlns="http://www.w3.org/2000/svg" xmlns:xlink="http://www.w3.org/1999/xlink" viewBox="0 0 144 144"><defs><style>.cls-1{fill:url(#linear-gradient);}.cls-2{fill:#5a73ea;}.cls-3{fill:url(#linear-gradient-2);}</style><linearGradient id="linear-gradient" x1="126.35122" y1="128.39987" x2="126.35122" y2="10.61983" gradientUnits="userSpaceOnUse"><stop offset="0" stop-color="#67ade1"/><stop offset="1" stop-color="#5f4cd4"/></linearGradient><linearGradient id="linear-gradient-2" x1="78.50178" y1="35.4448" x2="140.62584" y2="35.4448" gradientUnits="userSpaceOnUse"><stop offset="0" stop-color="#5f4cd4"/><stop offset="1" stop-color="#67ade1"/></linearGradient></defs><path class="cls-1" d="M138.09929,128.39987h-23.19616c-1.55867,0-2.82223-1.26355-2.82223-2.82223V13.44205c0-1.55867,1.26355-2.82223,2.82223-2.82223l22.59616,1.2c1.55867,0,3.12223,2.46355,3.12223,4.02223V125.57765c0,1.55867-.96355,2.82223-2.52223,2.82223Z"/><path class="cls-2" d="M49.82262,11.33428H5.76758c-2.53988,0-3.93551,2.95395-2.32278,4.91601l44.7696,54.46501L3.4448,123.38173c-1.61272,1.96206-.21709,4.91614,2.32278,4.91614H49.82262l22.83693-27.84348,22.8871,27.84348h7.34853v-52.25607L49.82262,11.33428Z"/><path class="cls-3" d="M79.20148,30.24956l15.87176-18.6934c.55928-.6587,1.37974-1.03839,2.24385-1.03839h37.72946c4.76346,0,7.32792,5.5925,4.21965,9.20211l-34.12511,39.62916c-1.17962,1.36989-3.30382,1.36265-4.47409-.01524l-21.46524-25.27359c-.9332-1.09877-.93332-2.71173-.00029-3.81064Z"/></svg>