<?xml version="1.0" encoding="utf-8"?>
<!-- Generator: Adobe Illustrator 28.6.0, SVG Export Plug-In . SVG Version: 9.03 Build 54939)  -->
<svg version="1.1" id="Layer_1" xmlns="http://www.w3.org/2000/svg" xmlns:xlink="http://www.w3.org/1999/xlink" x="0px" y="0px"
	 width="439.6px" height="541.7px" viewBox="0 0 439.6 541.7" style="enable-background:new 0 0 439.6 541.7;" xml:space="preserve"
	>
<style type="text/css">
	.Drop_x0020_Shadow{fill:none;}
	.Round_x0020_Corners_x0020_2_x0020_pt{fill:#FFFFFF;stroke:#000000;stroke-miterlimit:10;}
	.Live_x0020_Reflect_x0020_X{fill:none;}
	.Bevel_x0020_Soft{fill:url(#SVGID_1_);}
	.Dusk{fill:#FFFFFF;}
	.Foliage_GS{fill:#FFDD00;}
	.Pompadour_GS{fill-rule:evenodd;clip-rule:evenodd;fill:#44ADE2;}
	.st0{fill-rule:evenodd;clip-rule:evenodd;fill:#09314F;}
	.st1{fill-rule:evenodd;clip-rule:evenodd;fill:#E5EA8C;}
	.st2{fill-rule:evenodd;clip-rule:evenodd;fill:#DEC472;}
	.st3{fill-rule:evenodd;clip-rule:evenodd;fill:#FFFFFF;}
	.st4{fill-rule:evenodd;clip-rule:evenodd;fill:#75B543;}
	.st5{fill-rule:evenodd;clip-rule:evenodd;fill:#5D9440;}
	.st6{fill-rule:evenodd;clip-rule:evenodd;fill:#467C44;}
	.st7{fill-rule:evenodd;clip-rule:evenodd;fill:#BBA761;}
	.st8{fill-rule:evenodd;clip-rule:evenodd;fill:#B6D468;}
	.st9{fill-rule:evenodd;clip-rule:evenodd;fill:#C8C8C7;}
	.st10{fill-rule:evenodd;clip-rule:evenodd;fill:#CE6C6B;}
	.st11{fill-rule:evenodd;clip-rule:evenodd;fill:#B4B4B6;}
	.st12{fill-rule:evenodd;clip-rule:evenodd;fill:#DD9493;}
	.st13{fill:#5D9440;}
	.st14{fill:#FFFFFF;}
	.st15{fill-rule:evenodd;clip-rule:evenodd;fill:#010101;}
</style>
<linearGradient id="SVGID_1_" gradientUnits="userSpaceOnUse" x1="-3460.1819" y1="-128.7352" x2="-3459.4749" y2="-128.0281">
	<stop  offset="0" style="stop-color:#DEDFE3"/>
	<stop  offset="0.1738" style="stop-color:#D8D9DD"/>
	<stop  offset="0.352" style="stop-color:#C9CACD"/>
	<stop  offset="0.5323" style="stop-color:#B4B5B8"/>
	<stop  offset="0.7139" style="stop-color:#989A9C"/>
	<stop  offset="0.8949" style="stop-color:#797C7E"/>
	<stop  offset="1" style="stop-color:#656B6C"/>
</linearGradient>
<g>
	<g>
		<g>
			<path d="M70,446.3c0,5.8-2.3,11.5-6.4,15.6c-3.6,3.6-8.3,2-8.3,7.1c0,5.1,5.2,3,8.8,6.6c4.1,4.1,6.8,10.3,6.8,16.2
				c0,6.9-0.8,6.9-0.8,13.9c0,6.9-0.1,6.9-0.1,13.9c0,6.9-0.5,6.9-0.5,13.9c0,3.8-2.8,8-6.5,8c-6.9,0-6.9-0.4-13.7-0.4
				c-3.8,0-5.9-3.8-5.9-7.5c0-7.3,0.1-7.3,0.1-14.6s-0.7-7.3-0.7-14.6c0-7.3-1.2-7.3-1.2-14.6c0-3.8-2.3-6.6-6.1-6.5
				c-3.8,0.1-8.1,3-8.1,6.8c0,7.3,2.7,7.3,2.7,14.5c0,7.3-0.5,7.3-0.5,14.5c0,7.3-1.4,7.3-1.4,14.5c0,3.8-2.5,6.5-6.2,6.5
				c-6.9,0-6.9,0.6-13.7,0.6c-3.8,0-6-3.3-6-7.1c0-6.5-1.5-6.5-1.5-13.1c0-6.5,1.5-6.5,1.5-13.1c0-6.5-1.8-6.5-1.8-13.1
				c0-6.5,1.8-6.5,1.8-13.1c0-6.5-1.9-6.5-1.9-13.1c0-6.5-0.4-6.5-0.4-13.1c0-6.5,1.3-6.5,1.3-13.1c0-6.5,0.1-6.5,0.1-13.1
				c0-6.5-0.1-6.5-0.1-13.1c0-6.5-0.2-6.5-0.2-13.1c0-6.5-0.4-6.5-0.4-13.1c0-3.8,2-7.3,4.5-9.8c2.5-2.5,6-5,9.8-5
				c5.5,0,5.5,0.2,11,0.2c5.5,0,5.5,1.5,11,1.5c5.5,0,5.5,0.6,11,0.6c4,0,8.3-1.2,11.6,0.6c3.3,1.9,6.2,5.3,8.1,8.7
				c1.9,3.2,2.8,7.4,2.8,11.4c0,6.1,0.3,6.1,0.3,12.1c0,6.1-0.6,6.1-0.6,12.1c0,6.1-0.2,6.1-0.2,12.1C69.9,440.2,70,440.2,70,446.3
				L70,446.3z M42.3,448.5c0-6.4-0.8-6.4-0.8-12.8c0-6.4,1.5-6.4,1.5-12.8c0-6.4,0.6-6.4,0.6-12.8c0-3.8-4.3-5.7-8.1-5.7
				c-3.8,0-6.1,1.9-6.1,5.7c0,6.4-0.2,6.4-0.2,12.8s0.3,6.4,0.3,12.8c0,6.4-0.6,6.4-0.6,12.8c0,3.8,2.8,6.7,6.6,6.7
				C39.3,455.2,42.3,452.3,42.3,448.5L42.3,448.5z"/>
			<path d="M151.6,382.7c0,6.2,0.9,6.2,0.9,12.4c0,6.2-1.5,6.2-1.5,12.4c0,6.2,1.8,6.2,1.8,12.4c0,6.2-2.2,6.2-2.2,12.4
				c0,6.2,2.2,6.2,2.2,12.4c0,6.2-0.5,6.2-0.5,12.4c0,6.2-1.6,6.2-1.6,12.4c0,3.7-0.4,7.1-2.9,9.6c-2.5,2.4-6,2.7-9.7,2.7
				c-3.8,0-6.7,4.2-6.7,8c0,7.3-0.9,7.3-0.9,14.6c0,7.3,0.7,7.3,0.7,14.6c0,7.3,0.2,7.3,0.2,14.6c0,3.8-3.4,7.6-7.2,7.6
				c-6.9,0-6.9-0.1-13.7-0.1c-3.8,0-6.9-3.8-6.9-7.5c0-7.3,0.3-7.3,0.3-14.6s0.4-7.3,0.4-14.6c0-7.3-0.9-7.3-0.9-14.6
				c0-3.8-2.9-7-6.7-7c-3.7,0-6.6-1.8-9-4.3c-2.4-2.4-3-5.3-3-9c0-6.2-2-6.2-2-12.4c0-6.2,0.9-6.2,0.9-12.4c0-6.2,0.9-6.2,0.9-12.4
				c0-6.2-2.4-6.2-2.4-12.4c0-6.2,2.4-6.2,2.4-12.4c0-6.2-0.7-6.2-0.7-12.4c0-6.2-1.3-6.2-1.3-12.4c0-3.8,3.8-7.2,7.6-7.2
				c6.9,0,6.9,0.5,13.7,0.5c3.8,0,6.1,2.9,6.1,6.7c0,6.6,1.9,6.6,1.9,13.2c0,6.6-2.3,6.6-2.3,13.2c0,6.6,0.8,6.6,0.8,13.2
				c0,6.6,0.6,6.6,0.6,13.2c0,6.6-0.3,6.6-0.3,13.2c0,3.8,3,6.1,6.8,6.1c3.8,0,6-2.3,6-6.1c0-6.6,0-6.6,0-13.2
				c0-6.6,1.6-6.6,1.6-13.2c0-6.6-0.7-6.6-0.7-13.2c0-6.6,0-6.6,0-13.2c0-6.6-0.4-6.6-0.4-13.2c0-3.8,3.4-5.8,7.2-5.8
				c6.9,0,6.9-0.3,13.7-0.3C148.8,376.6,151.6,378.9,151.6,382.7z"/>
			<path d="M220,376.7c3.8,0,7.7,0.1,10.2,2.6c2.5,2.5,3.8,6.4,3.8,10.2c0,6.9-0.3,6.9-0.3,13.7c0,6.9-0.4,6.9-0.4,13.7
				c0,6.9,0.6,6.9,0.6,13.7c0,6.9,0.8,6.9,0.8,13.7c0,6.9-0.8,6.9-0.8,13.7s0.7,6.9,0.7,13.7c0,6.9,0.2,6.9,0.2,13.7
				c0,6.9-0.3,6.9-0.3,13.7c0,6.9,0.4,6.9,0.4,13.7c0,6.9-0.4,6.9-0.4,13.7c0,3.8-1.9,7.8-4.4,10.2c-2.5,2.5-6.4,3-10.2,3
				c-6.9,0-6.9,0.7-13.7,0.7c-6.9,0-6.9,1.1-13.7,1.1c-6.9,0-6.9-1.8-13.7-1.8c-3.8,0-7.3-1.1-9.8-3.5c-2.5-2.5-3.8-6-3.8-9.8
				c0-6.9,0.9-6.9,0.9-13.7s0-6.9,0-13.7c0-6.9,0.1-6.9,0.1-13.7c0-6.9-0.4-6.9-0.4-13.7c0-6.9-1.6-6.9-1.6-13.7
				c0-6.9,0.3-6.9,0.3-13.7s0.1-6.9,0.1-13.7c0-6.9,0.2-6.9,0.2-13.7s0.6-6.9,0.6-13.7c0-6.9-1.3-6.9-1.3-13.7
				c0-3.8,1.6-8.2,4.1-10.6c2.5-2.5,6.9-4.1,10.6-4.1c6.9,0,6.9,2.3,13.7,2.3c6.9,0,6.9-1.1,13.7-1.1
				C213.1,376,213.1,376.7,220,376.7L220,376.7z M207.2,506c0-6.9-0.2-6.9-0.5-13.7c-0.3-6.8-0.5-6.8-0.5-13.7
				c0-6.9,0.2-6.9,0.2-13.7c0-6.9,0.9-6.9,0.9-13.7s0-6.9,0-13.7c0-6.9,0.1-6.9,0.1-13.7s-0.4-6.9-0.4-13.7c0-3.8-3.8-6-7.6-6
				c-3.8,0-6.3,2.2-6.3,6c0,6.9-0.1,6.9-0.1,13.7c0,6.9-0.2,6.9-0.2,13.7c0,6.9-0.6,6.9-0.6,13.7c0,6.9,1.3,6.9,1.3,13.7
				s0.3,6.9,0.3,13.7c0,6.9-0.3,6.9-0.3,13.7c0,6.9-2.3,6.9-2.3,13.7c0,3.8,4.4,7,8.1,7C203.2,513.1,207.2,509.8,207.2,506
				L207.2,506z"/>
			<path d="M342.7,374.9c3.8,0,7.2,2.6,9.7,5c2.5,2.5,3.2,5.9,3.2,9.7c0,6.5,0.7,6.5,0.7,13.1c0,6.5-1,6.5-1,13.1
				c0,6.5,0.9,6.5,0.9,13.1c0,6.5,0.6,6.5,0.6,13.1c0,6.5,0.8,6.5,0.8,13.1c0,6.5-2,6.5-2,13.1c0,6.5,0.8,6.5,0.8,13.1
				c0,6.5,0.8,6.5,0.8,13.1c0,6.5,0.5,6.5,0.5,13.1c0,6.5-0.5,6.5-0.5,13.1s-0.7,6.5-0.7,13.1c0,3.8-3,5.9-6.8,5.9
				c-6.9,0-6.9,2.2-13.7,2.2c-3.8,0-7.3-4.3-7.3-8.1c0-6.9,0-6.9,0-13.7s0.2-6.9,0.2-13.7c0-6.9,0.4-6.9,0.4-13.7
				c0-6.9,0.1-6.9,0.1-13.7s1-6.9,1-13.7c0-6.9-0.7-6.9-0.7-13.7s-0.3-6.9-0.3-13.7c0-6.9,0.1-6.9,0.1-13.7c0-6.9,0.9-6.9,0.9-13.7
				c0-3.8-4.2-6.2-8-6.2c-3.8,0-7.6,2.4-7.6,6.2c0,6.9,1.9,6.9,1.9,13.7c0,6.9-2.5,6.9-2.5,13.7s0,6.9,0,13.7
				c0,6.9,2.2,6.9,2.2,13.7s0.5,6.9,0.5,13.7c0,6.9,0,6.9,0,13.7s-1.7,6.9-1.7,13.7c0,6.9-0.9,6.9-0.9,13.7c0,6.9,2.3,6.9,2.3,13.7
				c0,3.8-4.1,5.9-7.8,5.9c-6.9,0-6.9,0.1-13.7,0.1c-3.8,0-8.2-2.2-8.2-6c0-6.9,0-6.9,0-13.7c0-6.9,1.7-6.9,1.7-13.7
				s-1.7-6.9-1.7-13.7c0-6.9,2.3-6.9,2.3-13.7c0-6.9-0.6-6.9-0.6-13.7s-1.5-6.9-1.5-13.7c0-6.9,2.2-6.9,2.2-13.7s-2-6.9-2-13.7
				c0-6.9,0-6.9,0-13.7c0-3.8-2.2-7.1-6-7.1s-7.2,3.3-7.2,7.1c0,6.9,0.1,6.9,0.1,13.7c0,6.9-0.4,6.9-0.4,13.7
				c0,6.9,1.9,6.9,1.9,13.7c0,6.9-0.1,6.9-0.1,13.7s-0.2,6.9-0.2,13.7c0,6.9-1,6.9-1,13.7s0.5,6.9,0.5,13.7c0,6.9-0.7,6.9-0.7,13.7
				s0.6,6.9,0.6,13.7c0,3.8-3.4,6.3-7.2,6.3c-6.9,0-6.9,0.7-13.7,0.7c-3.8,0-7.6-3.2-7.6-7c0-6.5,0.6-6.5,0.6-13.1
				c0-6.5,1.2-6.5,1.2-13.1c0-6.5,0.1-6.5,0.1-13.1c0-6.5-1.6-6.5-1.6-13.1c0-6.5,0.6-6.5,0.6-13.1c0-6.5,0.8-6.5,0.8-13.1
				c0-6.5,0.4-6.5,0.4-13.1c0-6.5-0.3-6.5-0.3-13.1c0-6.5-1.7-6.5-1.7-13.1c0-6.5,0.5-6.5,0.5-13.1c0-6.5,1.1-6.5,1.1-13.1
				c0-3.8,1.4-6.5,3.8-9c2.5-2.5,5.2-4.8,9-4.8c9.2,0,9.2,0.6,18.3,0.6c5.8,0,11.6,1.6,15.7,5.7c3.6,3.6,1.9,7.5,7.1,7.5
				c5.1,0,3.5-3.8,7.2-7.4c4.1-4.1,9.8-6.8,15.6-6.8C333.5,375.3,333.5,374.8,342.7,374.9L342.7,374.9z"/>
			<path d="M424.6,376.7c3.8,0,6.9,1,9.3,3.5c2.5,2.5,5.6,5.6,5.6,9.3c0,6.5-0.5,6.5-0.5,13.1s-1.5,6.5-1.5,13.1
				c0,6.5,1.8,6.5,1.8,13.1c0,6.5-1.7,6.5-1.7,13.1c0,6.5,1,6.5,1,13.1c0,6.5,0.9,6.5,0.9,13.1c0,6.5-1.5,6.5-1.5,13.1
				c0,6.5-1.2,6.5-1.2,13.1c0,6.5,2.3,6.5,2.3,13.1c0,6.5-1.7,6.5-1.7,13.1s1.7,6.5,1.7,13.1c0,3.8-3.9,7.2-7.7,7.2
				c-6.9,0-6.9-0.5-13.7-0.5c-3.8,0-6.7-3-6.7-6.8c0-7.3-1.3-7.3-1.3-14.6s1.1-7.3,1.1-14.6c0-7.3,0.1-7.3,0.1-14.6
				c0-3.8-3.2-6-7-5.9c-3.8,0.1-8,2.4-8,6.2c0,7.3,2,7.3,2,14.5c0,7.3-0.1,7.3-0.1,14.5c0,7.3,0.4,7.3,0.4,14.5
				c0,3.8-4.1,7.5-7.9,7.5c-6.9,0-6.9-1.2-13.7-1.2c-3.8,0-6.5-2.6-6.5-6.4c0-6.5,0.5-6.5,0.5-13.1c0-6.5,0.4-6.5,0.4-13.1
				c0-6.5-1.4-6.5-1.4-13.1c0-6.5,0.1-6.5,0.1-13.1c0-6.5-0.6-6.5-0.6-13.1c0-6.5-0.5-6.5-0.5-13.1c0-6.5,1.3-6.5,1.3-13.1
				c0-6.5,1.1-6.5,1.1-13.1c0-6.5-1.2-6.5-1.2-13.1c0-6.5-0.4-6.5-0.4-13.1c0-6.5,0.8-6.5,0.8-13.1c0-3.8,0.4-7.9,2.9-10.4
				c2.5-2.5,6.6-4,10.4-4c6.9,0,6.9-0.2,13.7-0.2c6.9,0,6.9,1.9,13.7,1.9C417.7,376.8,417.7,376.7,424.6,376.7L424.6,376.7z
				 M411.8,448.5c0-6.4-0.4-6.4-0.7-12.8c-0.3-6.4,1.1-6.4,1.1-12.8c0-6.4-1.2-6.4-1.2-12.8c0-3.8-3.2-6.5-6.9-6.5s-7.3,2.8-7.3,6.5
				c0,6.4,1.4,6.4,1.4,12.8s-0.3,6.4-0.3,12.8c0,6.4,0.2,6.4,0.2,12.8c0,3.8,2.2,7.9,6,7.9C407.8,456.3,411.8,452.3,411.8,448.5
				L411.8,448.5z"/>
		</g>
	</g>
	<g>
		<path class="st15" d="M236.4,75.5c-4.4-1.6-9-2.2-10.7,2.6c-0.9,2.7,0.5,5.5,2.8,7.4l-1.8-0.8c-3.9-2.6-4.2-9.1,0.6-11.3
			C230.8,71.7,233.9,72.9,236.4,75.5L236.4,75.5z M168.5,169.5L168.5,169.5L168.5,169.5L168.5,169.5L168.5,169.5L168.5,169.5
			L168.5,169.5L168.5,169.5L168.5,169.5z M168.5,169.5L168.5,169.5L168.5,169.5L168.5,169.5L168.5,169.5z M168.5,169.5L168.5,169.5
			L168.5,169.5L168.5,169.5L168.5,169.5L168.5,169.5L168.5,169.5L168.5,169.5z M168.5,169.5L168.5,169.5L168.5,169.5L168.5,169.5
			L168.5,169.5z M168.5,169.6L168.5,169.6L168.5,169.6L168.5,169.6L168.5,169.6L168.5,169.6z M167.8,169.9c2,1.3,3,2.7,3.3,3.9
			c0.2,0.7,0.1,1.4-0.3,2c-0.4,0.6-1,1.2-1.8,1.6c-2.3,1.2-6.2,1.4-11.1-0.3c0,0,0.1-0.1,0.1-0.1c0.1-0.3,0.2-0.5,0.3-0.8
			C160.8,174.1,164,172,167.8,169.9L167.8,169.9z M155.2,179.3c-2.1,2.4-3.5,5-4.1,7.8c0.3,0.1,0.5,0.2,0.8,0.3c0,0,0.1,0,0.1,0
			c4.3,1.3,7.6,1.1,9.6,0c0.8-0.4,1.4-1,1.7-1.7c0.3-0.6,0.4-1.4,0.3-2.2c-0.4-1.7-1.9-3.5-4.9-5.1c-0.1,0-0.1-0.1-0.2-0.2
			c-0.4-0.1-0.9-0.3-1.3-0.4c-0.4,0.4-0.9,0.8-1.5,1.1C155.6,179.2,155.4,179.2,155.2,179.3L155.2,179.3z M151,187.8
			c0,0.1,0,0.1,0,0.2c0.2,0.1,0.5,0.2,0.7,0.2c2.7,2,6.4,7,1.3,8.9c-0.2,0.1-0.4,0.1-0.7,0.2c0.1,0.1,0.1,0.3,0.2,0.4
			C151,194.1,150.5,190.8,151,187.8L151,187.8z M152.6,197.9c0.7,1.6,1.6,3.4,2.8,5.2c2.5,2.3,8.7,5.1,11.8,2.5
			c2.6-2.2,0.8-6.7-0.8-8.9c-2.4,0.7-6,0.3-10.1-1.7c-0.4,1.4-1.6,2.4-3,2.9c-0.2,0.1-0.4,0.1-0.6,0.2
			C152.6,198,152.6,197.9,152.6,197.9L152.6,197.9z M156.8,205.1c3.3,2,8.1,3.4,10.9,1.1c0.4-0.3,0.7-0.7,1-1.1
			c1.8,2.6,2.3,4.9,1.9,6.6c-0.2,0.8-0.6,1.5-1.2,2c-0.2,0.1-0.5,0.5-0.9,0.6c-1.2,0.5-2.9,0.4-4.1,0c0.3,0.4,0.6,0.7,0.9,1.1
			c0.6,0.1,1.2,0.1,1.8,0.1c0.5-0.1,1-0.2,1.4-0.3c0.1,0.1,0.2,0.2,0.3,0.3c0.8,1.8,1.1,3.4,1.1,4.8c-3.1-3-6.9-7.2-11.6-13
			C157.8,206.4,157.3,205.7,156.8,205.1L156.8,205.1z M170.1,220.3c1,1,2,1.9,2.9,2.6l0,0l0,0l0,0l0,0l0,0l0,0l0,0l0,0l0,0l0,0l0,0
			l0,0c0.4,0.3,0.7,0.6,1.1,0.9c0.9,0.8,1.7,1.5,2.4,2.1c0.8,0.7,1.5,1.3,2.1,1.9c0.1-0.1,0.1-0.1,0.2-0.2c0.5-0.4,1-0.9,1.3-1.6
			c1.1-2.4,0.4-6.9-1.4-8.9c-0.8,0.5-1.8,0.9-2.8,1c-1.8,0.2-3.9-0.4-5.9-1.9c0.5,1.6,0.7,3.1,0.5,4.4
			C170.5,220.7,170.3,220.5,170.1,220.3L170.1,220.3z M173.9,228.2c0.4,0.2,0.7,0.4,1.1,0.5c1.2,2.1,3,3.6,4.8,5.1
			c-1-2.2-1.6-2.9-2.2-4.1c2.2,1.3,4.4,2.2,6.6,2.7c-2.1-1.7-3.4-2.7-4.7-3.8c0.7-0.4,1.2-1.1,1.6-1.9c0.8-1.8,0.9-4.4-0.3-7.5
			c1.3,1,2.5,1.7,3.6,2c2,0.6,3.8,0.1,5.1-1c1.2-1,2.3-2.4,2.4-4.3c0.1-1.5-0.2-3.1-1.4-5.1c0.2-0.1,0.4-0.2,0.6-0.3
			c0.8-0.5,1.4-1.1,1.8-2c0.1-0.1,0.1-0.3,0.2-0.4c2.3,2.5,5,3.5,7.1,3.2c1-0.1,1.8-0.5,2.5-1.1c0.6-0.5,1-1.1,1.3-1.9
			c2.7,6.3,4.4,12.6,3.1,15.1c-0.2,0.4-0.5,0.9-0.8,1.4c-0.1-1-0.3-2.2-0.6-3.6c-0.6,2.5-1.2,4.7-1.7,7c-1,1.4-2.2,3-3.5,4.5
			c0.7-2.4,0.4-3.7-0.3-6.4c-0.6,4.5-1.7,7.6-3.6,10.8c-2,2-4,3.9-5.8,5.1c1.5-3.2,1.2-3.3,0.6-6.7c-1.8,5.7-1.9,7-6.1,8.6
			c-2-0.3-4.5-1.1-7-2.2l-1.1-0.5c-2.6-1.3-6.5-3.3-7.6-6.3C168.5,232.1,171.1,229,173.9,228.2L173.9,228.2z M203.9,208.1
			c-0.1-0.1-0.1-0.3-0.2-0.4C203.8,207.9,203.9,208,203.9,208.1L203.9,208.1z M203.7,207.5c0-0.1-0.1-0.2-0.1-0.3
			C203.6,207.3,203.6,207.4,203.7,207.5L203.7,207.5z M203.4,207c-1.1-2.5-2.3-4.9-3.5-7.1c-0.3,0.7-0.7,1.3-1.2,1.8
			c-0.7,0.7-1.6,1.2-2.7,1.4c-1.1,0.2-2.3,0.2-3.6-0.2c0.8,1.5,1,2.9,0.9,4.1c2.2,2.6,4.8,3.6,6.8,3.3c0.8-0.1,1.5-0.4,2.1-0.9
			c0.6-0.5,1-1.1,1.2-1.9C203.4,207.4,203.4,207.2,203.4,207L203.4,207z M199.4,199c-0.2,0.8-0.7,1.6-1.2,2.2
			c-0.6,0.6-1.4,1-2.3,1.2c-2.1,0.4-4.9-0.4-7.9-3.1c0,0,0,0,0,0c0.5-0.3,1-0.6,1.3-1c0.6-0.7,1-1.6,1.1-2.6
			c0.2-2.1-0.7-4.7-3.3-7.2l0,0c2.4,1.6,4.6,2.5,6.5,2.8c0.6,0.7,1.4,1.6,2.3,2.7C196.9,195.1,198.1,196.9,199.4,199L199.4,199z
			 M192.7,190.1c-2.2-2.6-2.4-2.7-2.4-2.7l0,0c-0.7-0.6-1.4-1.1-2.1-1.6c0,0.4-0.1,0.8-0.3,1.2c-0.1,0.2-0.2,0.5-0.3,0.7
			C189.4,188.9,191.2,189.7,192.7,190.1L192.7,190.1z M187.4,185.1c-3.6-2.4-7.4-4-11.7-5.1c0.7,1,1.1,2,1.2,2.9
			c0.1,0.9-0.1,1.8-0.5,2.5c-0.3,0.4-0.6,0.8-1,1.2c2.5,1.7,4.8,2.4,6.7,2.6c1.3,0.1,2.5-0.1,3.4-0.6c0.9-0.5,1.5-1.1,1.8-2
			C187.3,186.2,187.4,185.7,187.4,185.1L187.4,185.1z M174.2,178.4c6.6,0.4,13,3.3,18.2,7.2c0.8-0.7,1.7-1.5,2.8-2.5
			c-0.8-1.3-1.2-3.4-0.9-6.2c-1,1.2-2,2.1-3.1,2.7c-2,1.2-4,1.3-5.4,0.6c-1.4-0.7-2.2-2.2-2.4-4.2c-0.1-1.2,0-2.6,0.3-4.1
			c-1.7,2.7-3.7,4.2-5.5,4.6c-0.9,0.2-1.7,0.2-2.4,0c-0.7-0.2-1.3-0.7-1.8-1.4c-0.8-1.2-1-3.1-0.4-5.5c-1,0.6-1.9,1-2.8,1.1
			c-0.2,0-0.4,0-0.6,0c0.9,0.9,1.5,1.9,1.7,2.8c0.2,0.9,0.1,1.8-0.4,2.6c0,0.1-0.1,0.2-0.2,0.2c0,0,0.1,0,0.1,0
			C172.5,177.2,173.4,177.8,174.2,178.4L174.2,178.4z M191.2,202.5C191.2,202.4,191.2,202.4,191.2,202.5c-1.2-0.6-2.5-1.4-3.8-2.6
			c-0.3-0.3-0.3-0.3-0.7-0.2c-1.8,0.5-4.2,0.2-6.9-1.2c1.5,1.9,2,3.8,1.8,5.4c-0.1,0.8-0.5,1.6-1,2.2c2.6,3.2,5.5,4.4,7.7,4.3
			c0.9,0,1.6-0.3,2.3-0.7c0.6-0.4,1.1-0.9,1.5-1.6C192.9,206.4,192.2,204,191.2,202.5L191.2,202.5z M169.3,214.7
			c0.2-0.1,0.4-0.2,0.6-0.4c0.7-0.6,1.3-1.4,1.5-2.4c0.4-1.7,0.1-3.8-1.2-6.1c2.9,2.1,5.7,2.6,7.8,2.1c0.7-0.2,1.4-0.5,1.9-0.9
			c1.5,2.7,1.5,5.3,0.7,7.3c-0.8,1.8-2.6,3.2-4.5,3.4c-1.9,0.2-4.2-0.6-6.5-2.7c0-0.1-0.1-0.1-0.1-0.1
			C169.3,214.7,169.3,214.7,169.3,214.7L169.3,214.7z M189.7,211c0,0,0,0.1,0,0.1c1.1,1.8,1.5,3.3,1.4,4.6c-0.2,1.6-1.1,2.9-2.1,3.8
			c-1.2,0.9-2.6,1.4-4.4,0.9c-1.5-0.4-3.1-1.5-5-3.4c0.7-0.6,1.3-1.5,1.7-2.4c0.8-1.8,0.9-4.1,0-6.5c2.4,2.4,5,3.3,7.2,3.2
			C188.8,211.2,189.3,211.1,189.7,211L189.7,211z M180.8,203.8c-0.2,1.5-1.7,2.9-3.1,3.2c-2.2,0.6-5.3-0.2-8.5-3.1
			c0-0.1,0-0.1,0.1-0.2c0.4-1.7,0.1-3.8-1.3-6.1c2.9,1.5,5.6,1.7,7.6,1c0.8-0.3,1.5-0.6,2-1.1C180.2,199.6,181.1,201.9,180.8,203.8
			L180.8,203.8z M186.5,188.9c-0.2,0.2-0.5,0.3-0.7,0.5c-1,0.5-2.3,0.8-3.8,0.7c-1.2-0.1-2.6-0.4-4.1-1.1c1.4,1.8,1.8,3.7,1.6,5.3
			c-0.1,0.9-0.5,1.7-1,2.4c3.2,2.2,6.1,2.7,8.1,2.2c0.9-0.2,1.6-0.7,2.1-1.2c0.5-0.6,0.8-1.3,0.9-2.2
			C189.7,193.6,188.8,191.3,186.5,188.9L186.5,188.9z M178.6,194.2c-0.3,1.7-1.7,3.1-3.2,3.7c-2.1,0.7-4.9,0.4-7.9-1.6
			c1.7-0.8,2.9-2.2,2.7-4.1c-0.1-1.4-0.9-3.1-2.6-4.7c2.9,0.9,5.2,0.6,6.9-0.2c0.1,0,0.1-0.1,0.2-0.1c0.4,0.3,0.8,0.5,1.2,0.8
			c0,0,0,0,0,0C178.1,190.1,178.8,192.3,178.6,194.2L178.6,194.2z M169.3,192.2c0.4,6-9.8,3.4-12.9,1.9c0-0.2,0-0.4,0-0.6
			c-0.1-1.5-1-3.2-2.8-4.8c3.7,0.8,6.6,0.5,8.5-0.5c1-0.5,1.7-1.2,2.1-2l0-0.1c0.3,0.2,0.7,0.3,1,0.5c0,0.1,0.1,0.1,0.1,0.2
			C167.9,188.7,169.2,190.6,169.3,192.2L169.3,192.2z M170.9,177.1c-0.4,0.4-0.9,0.8-1.5,1.1c-1.9,1-4.8,1.3-8.3,0.7
			c2,1.4,3.1,3,3.5,4.5c0.1,0.7,0.1,1.3,0,1.9c4.1,2.2,7.5,2.3,9.5,1.2c0.7-0.4,1.3-0.9,1.6-1.5c0.3-0.6,0.5-1.3,0.4-2
			c-0.1-1-0.6-2.2-1.6-3.3c-1.2-0.3-2.4-0.5-3.7-0.7c-0.9-0.1-0.4,0-1.4-0.3c0.7-0.2,0.7-0.3,1.4-0.3c0.7-0.1,1.5-0.1,2.2-0.1
			c-0.5-0.4-1.1-0.7-1.7-1.1C171,177.3,170.9,177.2,170.9,177.1L170.9,177.1z M200.9,147.2c1.3-0.2,2.7-0.8,4.3-1.7
			c-1.2,1.9-1.7,3.5-1.7,4.9c0,0.3,0,0.7,0.1,1c-3.2,3-6.1,4.3-8.2,4.3c-0.1,0-0.2,0-0.3,0c-0.7,0-1.3-0.3-1.8-0.6
			c-0.2-0.2-0.4-0.4-0.5-0.6C195.8,152.1,198.6,149.7,200.9,147.2L200.9,147.2z M192.8,154.5c-0.1,0.1-0.2,0.2-0.3,0.3
			C192.5,154.7,192.6,154.6,192.8,154.5L192.8,154.5z M192.1,155c-2,1.5-4,3-6.2,4.4c0,0,0.1,0.1,0.1,0.2c0.5,0.4,1.2,0.6,2,0.6
			c1.8,0,4.1-1.1,6.4-3.7c-0.6-0.1-1.2-0.4-1.6-0.7C192.5,155.5,192.3,155.3,192.1,155L192.1,155z M185.9,159.5
			c-0.2,0.1-0.4,0.3-0.6,0.4C185.4,159.8,185.6,159.6,185.9,159.5L185.9,159.5z M185.1,160c-0.2,0.1-0.4,0.2-0.5,0.4
			C184.7,160.2,184.9,160.1,185.1,160L185.1,160z M184.5,160.4c-2.3,2.5-4.4,3.7-6.1,3.8c0,0-0.1,0-0.1,0
			C180.5,162.9,182.5,161.7,184.5,160.4L184.5,160.4z M177.1,164.9c-2.3,1.3-4.7,2.6-7,3.8c-0.5,0.2-0.9,0.5-1.4,0.7
			c0.1,0,0.1,0.1,0.2,0.1c0.6,0.3,1.3,0.5,2,0.4C172.6,169.8,174.8,168.3,177.1,164.9L177.1,164.9z M168.5,169.5L168.5,169.5
			L168.5,169.5L168.5,169.5z M168.5,169.6L168.5,169.6L168.5,169.6L168.5,169.6z M195.8,182.6c4.8-4.5,11.3-11.8,14.2-20.5
			c0.3-0.8,0.5-1.7,0.8-2.6c0.3,3.6-0.1,7.8-2.2,11.4c-1.1,1.8-2.2,3.5-3.5,5.1c-1.6,6.7-3.5,12.9-5.6,18.5c0.8,1.1,1.4,2.3,2.1,3.4
			c1.4,2.4,2.7,4.9,3.8,7.5c1.1,2.5,3,6.8,3.9,10.9c0.8-2.7,1.5-5.4,2.3-8c3.2-10.8,7.9-22.2,10.3-33c3.7-16.3,3.6-28.9-2.7-44.4
			c1.2,2.2,2.2,4.5,3,6.7c3.2,0.5,6.6,1,9.9,1.3c4,0.4,8.1,0.6,12.1,0.4c1.6-0.1,4.1-0.5,5.6-0.8c0.2,0,1.2-0.2,1.4-0.1
			c-0.1-1.2-0.1-2.3-0.1-3.5c1.3,12.8,5.6,19.5,11.4,30.7c4.6,8.9,8.4,14.2,13.9,22.2c18.6,27.5,31.1,55.1,16.1,87
			c8.4-12.8,11.3-29.1,6.9-46.9c-1.5-6-3.8-11.8-6.7-17.4c-4.5-8.7-10.1-16.9-15.6-24.7c-4.3-6.2-8.5-12.5-11.6-20.2
			c-4.8-7.7-8.9-16.7-10.3-25.6c3.5,7.2,5.3,12.8,9.2,19.2c1.4,2.2,3.7,4.9,5.6,7.3c1.8,1,4.1,2.1,6.7,3.1c0.7-0.4,1.2-0.8,1.5-1.2
			c0.5-0.6,0.6-1.3,0.6-2c-0.1-0.7-0.4-1.5-1-2.2c-1.6-2-5.2-3.8-10.5-4.3c-0.2,0-0.4-0.2-0.4-0.4c0-0.2,0.2-0.4,0.4-0.4
			c1,0.1,2,0.2,2.9,0.4c0,0,0.1,0,0.1,0c3.1-0.3,4.9-1.5,5.6-2.9c0.3-0.6,0.4-1.3,0.3-2c-0.1-0.7-0.5-1.4-1.1-2.1
			c-1.7-2-5.4-3.5-10.7-3.1c-0.2,0-0.4-0.2-0.4-0.4c0-0.2,0.2-0.4,0.4-0.4c5.6-0.5,9.5,1.2,11.4,3.4c0.3,0.4,0.6,0.8,0.8,1.2
			c0.3,0.6,0.6,0.3,1.5,0.4c3-0.6,4.8-1.8,5.6-3.2c0.1-0.1,0.1-0.3,0.2-0.4c0-0.1,0-0.1,0-0.2c0-0.2,0.1-0.3,0.2-0.4
			c0-0.2,0-0.4,0-0.5c-8,0.6-12.4-0.8-16.9-3.2c-5.6-3-12.6-11.9-14.1-13.8c-0.8,0.3-1.8,0.4-3,0.4c-7.5-0.1-20.2-3.1-24.9-4
			c-5-1-11.4-2-16.2-3.4c12.5,0.7,38.8,6.2,42.7,5.3c2-0.4,4.5-2.8,6.9-5.7c-3.1,2.1-7,3.1-10.9,2.6c-6.6-0.8-11.7-4.3-15.1-10
			c6.1,5.8,13.3,10.2,22.1,7.4c5.8-1.9,7.9-5.9,10.4-11l-0.4,2c0.1-0.2,0.3-0.5,0.4-0.7c-0.2,0.6-0.4,1.2-0.6,1.8l0,0
			c-0.2,0.7-0.5,1.4-0.9,2.1c-0.8,1.8-1.9,3.7-3,5.5c5.4-4.2,11.8-9.9,14.6-14.5c1.1-1.8,3.1-6.8,4.3-11.1c-0.1-0.1-0.1-0.2-0.2-0.3
			c-0.4-0.7-0.8-1.5-1.1-2.3l-0.4-1c-0.9,0.9-1.9,2-3.1,3.3c-1.3,1.4-5.5,7.2-7.9,6.4c-1.4-0.5-2.8-1-4.1-1.3
			c-2.6,8.4-2,13.6-6.7,16.6c-4.9,3.1-11.5,1.5-16.4-2.6c-3.6-3-6.1-9.9-11.4-15.2c-0.1,0.1-0.1,0.3-0.2,0.4c-0.7,1.3-2,3.5-3.7,3.4
			c-1.6-0.1-2.9-2.4-3.6-3.7c-0.6-1.1-1.2-2.2-1.7-3.4l-0.6-1.2c-0.1,0-0.3-0.1-0.4-0.1c-6.2-1.6-9.8-7.6-7.4-12.5
			c-1.2-0.7-4.6-0.4-4.1-0.6c0.3-0.1,1.5-1.3,3-1.8c1.3-0.4,2.8-0.6,3.6-0.6c0.3-0.2,0.6-0.4,0.9-0.6c-0.1,0.2-0.3,0.4-0.4,0.6
			c0.1,0,0.1,0,0.1,0s-0.1,0.1-0.3,0.3c-2.5,3.7-3.6,7.8,0.5,11.3c2,1.7,6,2.5,9.9,2.9c0.9,0,1.7,0.1,2.6,0.3c1.9,0.2,3.6,0.3,5,0.5
			c12.9,1.6,23.7,0.1,36.2,5.6c1.6-0.8,8-7.5,13.2-11c0,0,0-0.1,0-0.1c0.8-0.9,3.5-1.8,4.7-2.8c7.7-6.2,6.4-18.2-0.9-22.3
			c2.5,2.2,2.8,7-0.5,9.6c1-2.9,1.3-4.6,0.9-6.2c-1-3.5-5-4.4-9.9,0.5c1.3-2.7,3.5-5.2,6.7-5c-2.3-0.5-5.1-0.4-8.2,0.7
			c0,0-1.8-10-7.1-21c-0.4-0.3-0.8-0.6-1.2-0.9c-2.9-1.8-5.5-0.9-7.5,1.5c0.1,0,0.3-0.1,0.4-0.1c0.4-0.1,0.8-0.1,1.2-0.1
			c2.6,0,4.7,1.4,6.3,3.4c1.8,2.3,2.9,5.5,3.1,8.4c0.1,1.5,0,3-0.3,4.5c-0.3,1.4-0.8,2.7-1.5,3.9c-1.2,2-2.3,2-4,2
			c-0.4,0-0.8,0-1.3,0c-0.1,0-0.3,0-0.4,0c-0.1,0-0.3,0-0.4,0.1c-2.4,0.4-4,0-5.2-0.8c-0.3-0.1-0.9-0.6-2-1.4l-0.4-3
			c-0.1-1.4-0.2-2.9-0.2-4.5l0-0.2c0-0.4,0-0.8-0.1-1.3c0-0.6,0.1-1.8,0.4-3.1c0.1-1.2,0.3-2.3,0.6-3.5c1.4-5.8,4.6-10.3,9.4-9.2
			c0.4,0.1,0.9,0.2,1.3,0.4c-2-3.6-4.3-7.2-7.1-10.4c-1.3-0.1-3.5-0.7-5.6-0.8c-6.8-0.2-5.3-1.8-4.6-2.7c1.2-1.6,2.6-2.4,3.9-2.6
			c-0.8-0.6-1.6-1.2-2.5-1.8c0,0.3-0.1,0.5-0.2,0.7c-0.3,0.6-0.8,1-1.5,1.2c-0.6,0.2-1.4,0.2-2.1,0.1c-1.4-0.2-2.9-0.8-4.3-1.7
			c0.3,1.3,0.2,2.2-0.1,2.9c-0.3,0.6-0.9,1-1.5,1.2l-0.1,0c0.6,1.5,0.9,3,0.7,4.1c-0.1,0.6-0.3,1.1-0.7,1.4c3,4.8,4.8,10.4,5.8,17.3
			c0.7,4.7,0.8,8.3,0.5,13.1c-1.1-12.1-2.4-21.9-7.6-29.8c-0.3,0-0.6,0-1,0c-1.6-0.2-3.9-1.5-7-4.2c-0.4,0.2-0.9,0.3-1.4,0.3
			c-0.8,0-1.8-0.2-2.7-0.6c-1.8-0.8-3.7-2.3-5.1-4.2c-0.3,0.2-0.6,0.3-1,0.4c-1.4,0.3-3.3,0-5-0.9c-0.9-0.5-1.8-1.2-2.5-2.1
			c0.1,0.8,0.1,1.5-0.2,2c-0.3,0.6-0.8,1-1.5,1.2c-0.6,0.2-1.4,0.2-2.1,0.1c-1.9-0.2-4.1-1.3-5.8-2.9c-2.3,4.2-8.4,4.8-13.3,2.7
			c0.8,0,1.5,0.1,2.2,0.1c-0.5-0.5-0.8-1.3-1-2.1c-4.1,2.5-7.6,5.6-10.4,9.2c-5.2,6.6-7.7,14.5-9,24c-2.1,15.3,1.3,12.5-5.7,27.8
			c-1,2.2-3.3,5.7-3.6,9.7c-1.9,22,37.4,26.6,43.6,32.5c1.4,1.3,2.5,2.5,3.3,3.9c0.5,1.6,0.8,4,0.2,5.5c-1.2,3.3-3.4,6.7-6.4,10
			c1.3-0.4,2.9-1.2,4.5-2.3c0,0,0.1,0,0.1-0.1c0.3-0.2,0.5-0.4,0.8-0.6c0.2-0.1,0.4-0.1,0.6,0.1c0.1,0.2,0.1,0.4-0.1,0.6
			c-0.3,0.2-0.5,0.4-0.8,0.6c-1.9,2.4-2.7,4.5-2.7,6c0,0.2,0,0.4,0,0.6c0,0,0,0,0.1,0.1c0.1,0.1,0.1,0.3,0.1,0.5
			c0.1,0.3,0.2,0.5,0.4,0.7c0.3,0.5,0.8,0.8,1.5,1c1.1,0.3,2.6,0,4.4-0.8c0.2-0.1,0.5,0,0.6,0.2c0.1,0.2,0,0.5-0.2,0.6
			c-2,0.9-3.7,1.2-5,0.9c-0.8-0.2-1.5-0.6-2-1.3c-0.1-0.2-0.2-0.4-0.3-0.6c-3.3,3-6.2,4.3-8.4,4.3c-0.8,1.9-2.4,7.5,0.4,8.9
			c0.6,0.3,1.2,0.3,2,0.2c2-0.4,4.4-2.3,6.9-6.2c0.1-0.2,0.4-0.3,0.6-0.1c0.2,0.1,0.3,0.4,0.1,0.6c-2.5,4.1-5.2,6.1-7.4,6.6
			c-1,0.2-1.8,0.1-2.5-0.3c-0.4-0.2-0.7-0.5-1-0.8c-1.3,3.1-1.4,5.6-0.7,7.1c2.3,5.3,8.6-1.7,10.1-4.6c0.1-0.2,0.4-0.3,0.6-0.1
			c0.2,0.1,0.3,0.4,0.1,0.6c-2.5,4.1-5.2,6.1-7.4,6.6c-0.5,0.1-0.9,0.1-1.3,0.1c-0.1,0.1-0.2,0.3-0.3,0.4
			C194.7,178.7,195,181.2,195.8,182.6L195.8,182.6L195.8,182.6z M174.8,168.9c1-0.9,2-2,3-3.5c0.1-0.1,0.1-0.3,0-0.4
			c0.2,0,0.5,0,0.7,0c1.5-0.1,3.4-0.9,5.3-2.7c-1.1,2.3-1.2,4.3-0.7,5.7c0.2,0.6,0.6,1.1,1,1.6c-1.8,3.8-4.2,5.8-6.2,6.3
			c-0.7,0.2-1.4,0.2-1.9,0c-0.6-0.2-1-0.6-1.4-1.1C173.9,173.6,173.8,171.6,174.8,168.9C174.8,168.9,174.8,168.9,174.8,168.9
			L174.8,168.9z M193,166.7c-0.8,2.6-0.8,4.7-0.1,6.1c0.4,0.9,0.9,1.5,1.7,1.8c0.1,0.1,0.2,0.1,0.3,0.2c0,0.1-0.1,0.1-0.1,0.2
			c0,0,0,0.1,0,0.1c-1.2,1.8-2.5,3.1-3.9,3.9c-1.8,1-3.5,1.2-4.7,0.6c-1.1-0.6-1.8-1.8-1.9-3.5c-0.2-1.6,0.1-3.7,0.8-5.9
			c0.6,0.3,1.3,0.4,2,0.4C188.8,170.3,191,169.2,193,166.7L193,166.7z M187,169.7c-1.3,0.1-2.6-0.8-3.1-2c-0.6-1.7-0.2-4.3,1.9-7.2
			c0.6,0.3,1.4,0.5,2.2,0.5c1.7,0,3.8-0.9,5.9-2.9c-0.8,2.6-0.8,4.8-0.2,6.2C191.4,167.9,189,169.5,187,169.7L187,169.7z
			 M288.5,280.4c-1.5,0.6-3.1,1.3-4.7,1.9c-2,0.7-3.9,1.4-6,1.9c-2.5,0.7-5,1.3-7.6,1.8c-4.4,0.9-9,1.5-13.5,2
			c-4.8,0.5-9.6,0.7-14.4,0.8c-4.5,0.1-9,0-13.5-0.3c-3.7-0.2-10.1-1-14.3-1.6c-0.9-4.9-2.8-10-4.9-14.6c10.5,1.1,26.5,2.4,36.8,2.3
			c16.3-0.3,32.7-2.4,48.4-6.8c-0.6,2.1-1.4,4.3-2.2,6.5l-0.7,1.7C290.9,277.4,289.7,278.9,288.5,280.4L288.5,280.4z M214.7,287.2
			c0.5,3.1,0.6,6.2,0,9.1c-0.1,0.4-0.2,0.7-0.3,1.1c4,1.2,19.3,5.3,35.2,3c15.9-2.3,28.9-9.1,37.9-18.9c-11.6,4.5-24.5,6.7-36.9,7.4
			C239.8,289.6,225.6,288.7,214.7,287.2L214.7,287.2z M295.1,266.8c-1.2,0.3-2.5,0.7-3.7,1c-4.4,1.2-8.9,2.3-13.4,3.1
			c-10.8,1.9-22,2.9-33,3.1c-9.8,0.2-25.5-1.1-35.5-2.3c-1.3-2.8-2.7-5.5-4-7.8c3,9.6,9.4,21.9,6.9,32c-2.1,8.4-16.6,14.9-24,17.8
			c3.1,0.1,5.8-0.5,8.2-1.5c-0.4,0.9-0.6,1.6-0.6,2c-0.1,1.2,2,5.1,2.5,10c0.3,2.8-1,3.5-3.6,3.7c-1.8,0.1-5.5,0.2-10.1,0.3
			c0.4-5.7-1.7-8.3-3.3-9.4c-0.6-0.4-1.3-0.6-2-0.5c-1.9,0.1-4,2.2-5.3,3.5c-0.2,0.2-0.3,0.3-0.5,0.5c0.6-2.2,1.7-4.3,3.1-6.2
			c-3.7,0.8-5.4,6.1-5.8,10.2c-0.2,0.6-0.2,1.3-0.1,1.9l0,0.1c-2.1,0-4.2-0.1-6.2-0.1c0-0.4,0-1,0-1.7c-0.1-4.5-1.9-6.7-3.4-7.6
			c-0.6-0.4-1.3-0.6-2-0.5c-1.2,0.1-3.1,1.4-4.7,3.1c1-2.8,2.5-4.9,6.1-7.2c-6.4-0.2-8.8,8.2-10.3,13.3c-0.7-0.1-1.4-0.1-2-0.2
			c0.8-6.5-1.5-9.4-3.2-10.5c-0.1-0.1-0.2-0.1-0.2-0.1c2.2-2.8,5.2-5.3,9.2-6.1c1.1-0.2,2.3-0.4,3.3-0.4c0.1,0,0.3,0.1,0.5,0.1
			c4-0.2,6.9,0,9.4,0.4c0.8,0.1,1.2,0.3,1.2,0.3c-0.1,0-0.1-0.1-0.2-0.1c2.9,0.6,5.4,1.4,8.7,2.3c-3.9-2.9-8.4-4.3-12.5-4.9
			c-3.1-2.8-6.1-7-8.6-11.8c0.7,0.2,1.3,0.2,1.9,0.1c0.5-0.1,1.1-0.3,1.6-0.5c0.6,2.6,1.8,4.1,3.3,4.7c0.9,0.4,1.8,0.4,2.8,0.2
			c0.4-0.1,0.9-0.3,1.3-0.5c0,0,0,0,0,0.1c0.6,3.8,2.3,6.2,4.2,7.3c1,0.5,2,0.7,3.1,0.6c1-0.1,2.1-0.6,3-1.4
			c1.7-1.5,3.2-4.1,3.7-7.8c1.3,3.3,3.2,5.4,5.1,6.1c1,0.4,2,0.5,3,0.2c1-0.2,1.8-0.8,2.6-1.7c1.5-1.9,2.4-5.2,1.9-9.9
			c0.5,0.1,0.9,0.1,1.4,0c1.1-0.1,2.1-0.6,2.9-1.4c1.6-1.4,2.7-3.9,2.9-7.3c0-0.2-0.2-0.4-0.4-0.4c-0.2,0-0.4,0.2-0.4,0.4
			c-0.2,3.2-1.2,5.4-2.6,6.7c-0.7,0.7-1.6,1.1-2.5,1.2c-0.5,0.1-0.9,0-1.4,0c-0.1-0.1-0.2-0.2-0.4-0.2c-0.1,0-0.1,0-0.1,0.1
			c-0.3-0.1-0.5-0.2-0.7-0.3c-1.7-0.9-3.2-2.8-4.3-5.8c0-0.2,0-0.4,0-0.6c0.4-0.2,0.8-0.4,1.2-0.7c2.3-1.7,4.1-5.4,4.5-10.9
			c0-0.2-0.2-0.4-0.4-0.4c-0.2,0-0.4,0.2-0.4,0.4c-0.3,5.2-2.1,8.6-4.2,10.3c-0.3,0.2-0.6,0.4-0.9,0.6c-0.1,0-0.1-0.1-0.2-0.1
			c-0.2,0-0.4,0.1-0.4,0.3c-0.3,0.1-0.7,0.2-1,0.2c-0.9,0.1-1.7-0.2-2.5-0.7c-1.6-1-2.8-3.3-3.3-6.7c0.3,0.1,0.6,0.1,0.9,0.1
			c1,0,2.1-0.2,3-0.9c1.9-1.2,3.6-3.7,4.5-7.3c0,0,0,0,0-0.1c1,0.2,2,0.1,3-0.3c1.8-0.7,3.6-2.5,4.9-5.4c0.1-0.2,0-0.5-0.2-0.5
			c-0.2-0.1-0.5,0-0.5,0.2c-1.2,2.7-2.8,4.3-4.5,4.9c-0.9,0.4-1.9,0.5-2.7,0.2c-0.9-0.2-1.7-0.7-2.4-1.5c-1.3-1.4-2.1-3.8-2.1-6.9
			c0.7,0.1,1.5,0,2.4-0.3c2.2-0.8,4.7-2.9,6.7-6.6c0.1-0.2,0-0.5-0.2-0.6c-0.2-0.1-0.5,0-0.6,0.2c-1.9,3.5-4.2,5.5-6.2,6.2
			c-0.9,0.3-1.7,0.3-2.4,0.1c-0.3-0.1-0.5-0.2-0.8-0.4c0-0.2-0.1-0.3-0.3-0.4c-0.1,0-0.1,0-0.2,0c-0.2-0.2-0.4-0.4-0.5-0.7
			c-0.9-1.4-1.2-3.8-0.6-7c0.2-0.3,0.4-0.7,0.6-1.1c0.1-0.1,0.1-0.2,0-0.3c0.7,0,1.4-0.1,2.1-0.4c1.5-0.6,3.1-1.7,4.6-3.6
			c4.5-1.5,9.4-6.8,12-9.6c2-2.2,3.8-4.5,5.6-6.8c0.2-0.2,0.3-0.4,0.5-0.7c-1.2,6.3-2,12.6-1.8,18.4c0.6-6.6,1.7-13,3.1-19.2
			c16.1,2.3,32.4,3.1,48.6,1.6c12.7-1.1,25.2-3.6,37.3-7.4c1.7,4.6,2.9,9.3,3.7,14.1c-7.5,2-15.2,3.5-22.9,4.7
			c-8.3,1.3-16.8,2.2-25.2,2.7c-7.6,0.5-15.2,0.6-22.7,0.4c-7.1-0.2-14.3-0.6-21.4-1.5c0,0.2,0,0.3,0,0.5
			c17.1,1.6,34.1,2.1,51.2,0.6c13.9-1.2,27.6-3.5,41.1-7c0.6,4.2,0.9,8.4,0.7,12.8c-0.1,0-0.3,0.1-0.4,0.1
			c-7.6,2.4-15.4,4.2-23.2,5.7c-8.2,1.5-16.4,2.5-24.7,3c-7.3,0.5-14.6,0.6-21.9,0.4c-6.7-0.2-13.4-0.7-20.1-1.5
			c0.1,0.2,0.1,0.3,0.2,0.5c30.6,3.3,60.7,1.6,90.1-7.7C297.7,255.6,296.8,261.1,295.1,266.8L295.1,266.8z M293.4,222.1
			c-1.7-4.7-3.9-9.4-6.4-14.1c-10.9,3.6-22.1,6-33.6,7.1c-14,1.3-27.9,0.6-41.8-1.7c-0.6,1.9-1.1,3.8-1.7,5.7c0.2,2.1,0.1,4-0.6,5.4
			c-0.4,0.8-0.9,1.6-1.4,2.3c-0.1,0.4-0.2,0.7-0.2,1.1c6.4,1,12.8,1.7,19.3,2c6.9,0.4,13.9,0.4,20.9,0
			C263.1,229.2,278.7,226.7,293.4,222.1L293.4,222.1z M286.7,207.6c-0.3,0.1-0.6,0.2-0.9,0.3c-12.8,4.1-26.3,6.5-39.7,7.2
			c-11.5,0.6-23.1-0.1-34.4-2.1c1.9-6.4,4.1-12.7,6.4-19.1c1.2-3.3,2.3-6.7,3.3-10.1l0,0c8.7,0.4,17.5,0.6,26.1,0.1
			c7.4-0.4,15.4-1.5,22.8-2.7c1.6,2.4,3.2,4.9,5,7.7c1.1,1.6,2.1,3.3,3.1,4.9c-0.8,0.3-1.7,0.5-2.5,0.7c-10.3,2.7-20.9,4.4-31.5,5.1
			c-9.3,0.7-18.8,0.6-28.1-0.4c-0.1,0.2-0.1,0.3-0.2,0.5c11.3,1,22.6,1.1,33.9,0c9.7-1,19.2-2.8,28.6-5.4
			C281.6,198.7,284.3,203.2,286.7,207.6L286.7,207.6z M269.9,180.6c-0.2,0-0.3,0.1-0.5,0.1c-8.3,1.8-17.7,2.5-26.2,2.9
			c-7.2,0.3-14.6,0.2-21.8-0.3c1.5-5.3,2.7-10.8,3.4-16.3c6.2,0.6,12.6,0.9,18.8,0.6c5.6-0.3,12.1-1.1,17.7-1.9l0.2,0.4
			C264.5,171.9,267,176.1,269.9,180.6L269.9,180.6z M261.1,165.1c-0.3,0-0.6,0.1-0.8,0.2c-1.2,0.2-3.3,0.7-4.5,0.8
			c-10.2,1.3-20.6,1.7-30.8,0.4c0.5-4.5,0.7-8.9,0.5-13.4c4.9,0.4,9.7,0.6,14.6,0.3c4.7-0.3,9.9-1,14.6-2.1
			C256.5,156.1,258.9,160.6,261.1,165.1L261.1,165.1z M222.5,138.3c0.3,0,0.8,0.1,1.1,0.1c4.5,0.7,9.1,1.3,13.7,1.4
			c4.4,0.1,9.7-0.3,14.1-0.8c0.4,4.1,1.5,8,3,11.8c-0.5,0-1.4,0.2-1.5,0.2c-1.3,0.4-2.6,0.7-4,0.9c-2.5,0.4-5,0.8-7.5,1
			c-2.1,0.2-4.1,0.2-6.2,0.2c-3.2-0.1-6.5-0.4-9.7-0.6C225.1,147.7,224.2,142.9,222.5,138.3L222.5,138.3z M330.9,127.6
			c0.1,0.2,0.2,0.4,0.4,0.5c-0.6-1.6-0.8-3.3-0.6-5.3c0.2-2.5,1.2-4.2,2.6-5.3c1.7-1.4,4-1.9,6-1.9c1.8,0,3.4,0.5,4.9,1.3
			c1.5,0.9,2.9,2.1,4.4,3.8c1.2,0.1,10.9,1.1,10.9,8.3h0c0,0.7-0.1,1.4-0.3,2c-0.5,2-1.8,3.5-3.4,4.7c-1.7,1.6-3.8,2.5-6.6,3
			C340.9,140,333.8,135.2,330.9,127.6L330.9,127.6z M354.2,135.9c1.3-0.9,2.5-2,3.7-3.6c0.2-0.4,0.4-0.9,0.5-1.4
			c0.2-0.6,0.2-1.2,0.2-1.9h0c0-7-10.4-7.7-10.4-7.7l-0.1,0l-0.1-0.1c-1.5-1.7-2.9-2.9-4.4-3.8c-1.4-0.8-2.9-1.2-4.6-1.3
			c-1.9,0-4,0.4-5.6,1.8c-1.2,1-2.1,2.6-2.3,4.9c-0.4,3.7,0.9,6.5,2.8,8.7c2.7,3,6.8,4.8,10,5.6c1,0.3,2,0.4,3.2,0.4
			C349.5,137.6,352.1,137,354.2,135.9L354.2,135.9L354.2,135.9z M296.7,309.1c-2.6,0.8-5.3,1.9-8.4,3.2c-2.1,0.9-1.2,0.6-2.6,1
			c0.8-1,0.5-0.7,2.1-1.8c4.6-3.1,8.4-4.6,12.7-5.5c1.3-1,2.8-2.2,4.3-3.6c-0.6-0.3-1.3-0.7-1.8-1.3c-1.5-1.5-2.5-4-2.7-7.5
			c-1.7,3.5-3.9,5.5-6,6.2c-1,0.3-2,0.4-3,0.1c-0.9-0.3-1.7-0.9-2.3-1.9c-1.3-1.9-1.8-5.2-0.8-9.6c-0.8,0.1-1.5,0-2.2-0.2
			c-0.4-0.2-0.8-0.4-1.2-0.6c-5.7,5-12.3,8.8-19.4,11.4c1.3,2.3,1.4,5.5-0.2,9.7c-3.8,10-2.7,14.2,0.6,16.1
			c1.3,0.7,10.9,0.9,22.2,0.8c-0.2-5.4,1.6-7.9,3-9c0.5-0.4,1.2-0.6,1.8-0.5c1.7,0.1,3.6,2.2,4.7,3.5c1,1.1,2.5,2.9,2.9,4.7
			c0.3-4.3,0.1-8.3-3.6-10.8c0.4-0.2,0.4-0.2,0.9-0.2c4.3,0.4,5.1,8.4,5.3,12.1c1.1,0,2.2,0,3.3-0.1c-0.1-5.2,1.3-7.7,2.5-8.7
			c0.5-0.4,1-0.6,1.5-0.5c1.4,0.1,3,2.2,3.9,3.5c0.9,1.3,2.5,3.5,2.5,5.5l0.4,0c0.3-6.6,1-12.5-6.6-14.6l-1.7-0.5
			c10.1-1.5,10.8,7.8,11,15c0.7,0,1.3,0,2-0.1c-0.2-5.4,1.3-7.9,2.5-9c0.5-0.4,1-0.6,1.5-0.5c0.5,0,1,0.3,1.4,0.7
			c-0.5-2.3-1.5-4.6-3.4-6.6C318.9,304.2,300.2,308.3,296.7,309.1L296.7,309.1z M172.5,226c-0.3,0.1-0.6,0.3-0.9,0.4
			c-1.2,0.6-2.3,1.5-3,2.6c-1.2-2.4-2-5.1-1.5-5.6c0.4-0.3,2.2,0.4,4.1,1.3C171.5,225.2,172,225.6,172.5,226L172.5,226z
			 M353.7,145.7c-3.3,1.3-7.3,1.5-10.4,0.8c14.4-4.3,11.1-1.5,19-14.6c1-1.6,2.1-2.6,3.2-3.4c1.2-0.5,3.1-1.3,3.7-2.8
			c0.4-0.9,0.4-2.1,0.2-3.2c-0.1-0.8-0.3-1.4-0.7-1.9c-0.3-0.5-0.6-0.8-0.9-1c-1.4-0.7-4.8,0.2-6.1,1.1c-0.4,0.2-0.8,0.4-1.2,0.5
			c0.3,0.5,0.5,1.1,0.7,1.6l0.7,2.9c-1.9-3.2-3-5.1-5.9-7.7c-6.1-5.4-10.4-6.6-18-6.5c2.1-0.7,4.3-1,6.5-0.8
			c0.2-0.6,0.3-1.4,0.5-2.2l0,0c0.2-1.4,0.3-3.8-0.4-4.6c-0.3-0.3-0.8-0.6-1.3-0.9c-1.2-0.7-2.7-0.7-4.2,0l0,0
			c-1.2,0.4-1.9,1-2.8,2.3c0,0,0,0.1,0,0.1l0,0.1c-2.5,3.5-3.1,7.8-3.1,7.8l-5,5.1c0,0-0.3-1-0.7-2.2l0,0c-1.3-5.5-4-5.8-5.9-5
			c-0.1,0-0.1,0.1-0.2,0.1c-0.4,0.2-0.9,0.5-1.2,0.9c-0.7,0.9-1.1,2.1-1.1,3.5c-0.1,0.8-0.1,1.7-0.1,2.8c0.1,3.7,0.3,6.4,0.7,8.4
			c0.4,1.6,1,3,1.8,4.4l0,0c0,0,0.1,0.1,0.1,0.1c1.6,2.8,4,5,6.8,7.3L326,138c-2.4-1.1-4.3-2.7-5.7-4.6c-0.3,0.3-0.6,0.7-1,1.1l0,0
			c-0.5,1-1.3,2.1-2.3,3.2c1.6-0.4,2.9-0.5,4.1-0.3c2.1,0.3,3.5,1.5,4.3,3c0.8,1.4,1.2,3.2,0.6,4.9c-0.4,1.4-1.4,2.8-3.3,4
			c0.2,0.2,0.3,0.4,0.5,0.6c0.5,0.8,0.8,1.6,0.8,2.5c0,0.1,0,0.3,0,0.4c3.2-1.4,6-1.1,7.9,0.1c0.8,0.5,1.5,1.2,1.9,2
			c0.4,0.8,0.6,1.8,0.4,2.7c-0.3,2.4-2.3,5.1-6.8,7.2c-0.1,0.1-0.3,0-0.4,0c-0.4,1.2-1.1,2.3-2.1,3.3
			C338.8,162.2,347.9,153.3,353.7,145.7L353.7,145.7z M348.5,111.4c3.4,1.1,6.6,3.1,9.1,5.7c0.2-0.6,0.5-1.4,0.7-2.3
			c0-0.2,0.1-0.3,0.2-0.6c1.1-4.4-0.5-6.2-2.1-7c-1-0.5-2-0.7-3-0.5c-1.4,0.1-1.6,0.6-3.7,3.3c0,0,0,0,0,0
			C349.2,110.7,348.8,111.1,348.5,111.4L348.5,111.4z M276.9,169.7c0.1,0.1,0.3,0.1,0.4,0.2C277.2,169.8,277.1,169.8,276.9,169.7
			L276.9,169.7z M277.9,170.1c0.5-0.3,0.9-0.7,1.2-1.1c0.6-0.8,0.8-1.6,0.8-2.5c0-0.1,0-0.2,0-0.2c5.2,0.6,8.8,2.4,10.4,4.5
			c0.6,0.7,0.9,1.5,1,2.2c0,0.2,0,0.3,0,0.5C286.2,172.7,281.7,171.5,277.9,170.1L277.9,170.1z M291.5,173.4c0.2,0,0.4,0.1,0.7,0.1
			C291.9,173.5,291.7,173.4,291.5,173.4L291.5,173.4z M292.1,173.5c0-0.2,0-0.4,0-0.7c0-0.1,0-0.2-0.1-0.4c0,0,0,0,0.1,0
			c3.9-0.2,6.3-1.7,7.4-3.5c0.4-0.8,0.6-1.6,0.5-2.5c-0.1-0.5-0.2-1.1-0.5-1.6c4.3-0.7,7.4,0.1,9.3,1.6c0.7,0.6,1.3,1.3,1.5,2.1
			c0.3,0.8,0.3,1.6,0,2.4c-0.2,0.7-0.7,1.4-1.4,2.1C302.8,174,297.2,174.1,292.1,173.5L292.1,173.5z M308.9,173
			c0.4-0.1,0.8-0.1,1.2-0.2C309.7,172.9,309.3,173,308.9,173L308.9,173z M310.2,172.8c2.5-0.5,5.1-1.1,7.8-2
			c0.7-0.2,1.4-0.5,2.1-0.7c-1.9-1.1-4.9-1.7-8.8-1c0.1,0.7,0,1.4-0.2,2.1C310.9,171.7,310.6,172.3,310.2,172.8L310.2,172.8z
			 M320.5,170c0.2-0.1,0.4-0.1,0.5-0.2C320.9,169.8,320.7,169.9,320.5,170L320.5,170z M321,169.8c-2.1-1.5-5.5-2.2-10-1.5l0,0l0,0
			c3.3-1.3,5.2-3.2,5.8-5.1c0.3-1,0.3-2,0-2.9c-0.2-0.6-0.5-1.1-0.9-1.6c0,0,0,0,0,0c3.9-1.2,6.8-0.8,8.5,0.5
			c0.8,0.6,1.3,1.3,1.6,2.1c0.3,0.8,0.4,1.7,0.3,2.6c-0.3,2.1-2,4.2-5.1,5.7C321.3,169.7,321.2,169.7,321,169.8L321,169.8z
			 M321.8,169.5c0.3-0.1,0.5-0.2,0.8-0.3C322.3,169.3,322,169.4,321.8,169.5L321.8,169.5z M323.4,168.8c0.1,0,0.2-0.1,0.3-0.1
			L323.4,168.8L323.4,168.8z M317.4,136.2c-0.1,0.1-0.1,0.1-0.2,0.2L317.4,136.2L317.4,136.2z M317.3,136.4
			c-0.1,0.1-0.1,0.1-0.2,0.2C317.1,136.5,317.2,136.4,317.3,136.4L317.3,136.4z M316.9,136.7c-0.1,0.1-0.1,0.1-0.2,0.2L316.9,136.7
			L316.9,136.7z M316.5,137c-0.1,0-0.1,0.1-0.2,0.1C316.4,137.1,316.4,137,316.5,137L316.5,137z M316.1,137.3
			c-0.1,0.1-0.3,0.3-0.4,0.4c-0.1,0.1-0.1,0.2-0.1,0.3c-0.2,0.1-0.5,0.2-0.7,0.3C315.3,138,315.7,137.6,316.1,137.3L316.1,137.3z
			 M314.4,138.6c-0.1,0.1-0.1,0.1-0.2,0.2L314.4,138.6L314.4,138.6z M314,139c0,0,0,0.1,0,0.1c0,0.1,0.1,0.2,0.2,0.2
			c0.4,0.8,0.7,1.8,0.7,2.8c0,2.1-1.1,4.4-3.4,6.2c-0.3-0.6-0.8-1.1-1.3-1.6c-1.7-1.4-4.5-2.1-8-1.4
			C306.7,143.6,310.7,141.3,314,139L314,139z M302,145.4c-0.2,0.1-0.3,0.1-0.5,0.2C301.7,145.5,301.9,145.5,302,145.4L302,145.4z
			 M301.4,145.6c-0.2,0.1-0.3,0.1-0.5,0.2C301.1,145.8,301.2,145.7,301.4,145.6L301.4,145.6z M300.7,145.9c-0.1,0.1-0.3,0.1-0.4,0.1
			C300.4,146,300.5,145.9,300.7,145.9L300.7,145.9z M300,146.1c-0.1,0-0.3,0.1-0.4,0.1c0,0.1,0,0.2,0,0.3c0,0,0,0.1,0.1,0.1
			c0,0,0,0.1,0,0.1c-0.3,1.8-1.7,3.7-4.5,5.3c-2-1.6-5.4-2.8-10-2.7c0-0.2,0-0.3,0-0.5c2.9-0.3,6.2-0.8,10.1-1.5
			C296.8,147.1,298.4,146.6,300,146.1L300,146.1z M285.1,148.9c-0.1,0-0.3,0-0.4,0C284.9,148.9,285,148.9,285.1,148.9L285.1,148.9z
			 M323.9,153.8c3.1-1.5,5.8-1.3,7.6-0.2c0.7,0.4,1.2,1,1.6,1.7c0.3,0.7,0.5,1.5,0.4,2.3c-0.3,2.1-2.1,4.5-6.2,6.4l0,0
			c0.2-1.1,0.1-2.1-0.3-3c-0.4-0.9-1-1.8-1.9-2.4c-0.9-0.7-2.1-1.2-3.5-1.3C322.9,156.2,323.6,155,323.9,153.8L323.9,153.8z
			 M323.3,152.4c0.1,1.8-1.5,3.7-3,4.7c0,0,0,0,0,0c-1.3,0-2.8,0.2-4.5,0.7c-0.1,0-0.5,0.1-0.6,0c-1.5-1.2-3.9-2-7-1.9
			c2.1-1,3.3-2.5,3.7-4.1c0.2-0.8,0.2-1.7,0-2.5c3.6-1.8,6.8-1.8,8.8-0.7c0.8,0.4,1.4,1,1.9,1.6C323,151,323.2,151.7,323.3,152.4
			L323.3,152.4z M315,139.1c2.5-1,4.4-1.3,5.9-1c1.8,0.3,3,1.3,3.7,2.6c0.7,1.2,1,2.8,0.6,4.3c-0.4,1.2-1.3,2.5-3,3.6
			c0,0-0.1,0-0.1,0.1c-0.3-0.3-0.7-0.5-1.1-0.7c-2-1-4.8-1.2-8,0c1.8-1.8,2.5-3.9,2.6-5.8C315.7,141.1,315.5,140,315,139.1
			L315,139.1z M309.6,147.4c1.2,1,1.9,2.8,1.5,4.3c-0.4,1.7-2.1,3.4-5.3,4.3c-0.3-0.6-0.8-1.3-1.4-1.8c-1.6-1.5-4.2-2.5-7.6-2.3
			c2.1-1.5,3.2-3.3,3.5-5c0-0.1,0-0.2,0-0.3C304.6,145.3,307.8,146,309.6,147.4L309.6,147.4z M306.2,157c3.9-0.6,6.8,0.1,8.4,1.5
			c0.7,0.6,1.2,1.3,1.4,2c0.2,0.8,0.2,1.6,0,2.4c-0.5,1.7-2.3,3.5-5.3,4.6c-0.3-0.6-0.8-1.2-1.4-1.7c-1.5-1.2-3.7-2-6.6-2
			c1.9-1.1,3.1-2.5,3.5-4C306.5,158.9,306.5,157.9,306.2,157L306.2,157z M303.9,154.8c1.2,1.2,2,3.1,1.5,4.7c-0.5,1.7-2,3.4-4.9,4.4
			c0,0,0,0-0.1,0c-0.5,0-0.9,0.1-1.4,0.2c0,0-0.1-0.1-0.1-0.1c-1.2-1.5-3.3-2.7-6.4-3.1c2.1-0.8,3.5-1.9,4.2-3.1
			c0.5-0.9,0.6-1.8,0.4-2.7c-0.2-0.8-0.6-1.6-1.3-2.3C299.5,152.4,302.3,153.3,303.9,154.8L303.9,154.8z M294.9,153
			c0.1,0.1,0.2,0.2,0.3,0.2c0.7,0.7,1.1,1.4,1.3,2.1c0.2,0.7,0.1,1.4-0.3,2.1c-0.7,1.4-2.6,2.6-5.7,3.2c-0.1,0-0.1,0-0.2,0.1
			c-0.4,0-0.8,0-1.2,0c-0.1-0.9-0.4-1.8-1.1-2.7c-1.3-1.7-3.9-3.3-7.7-4.1c2.3-0.8,3.7-1.9,4.4-3.2c0.1-0.2,0.2-0.4,0.3-0.6
			c4.5-0.1,7.8,1,9.7,2.5C294.7,152.9,294.8,152.9,294.9,153L294.9,153z M289,161.6c4.7-0.3,7.9,1.1,9.3,2.9c0.5,0.6,0.8,1.3,0.9,2
			c0.1,0.7-0.1,1.4-0.4,2c-0.9,1.6-3.1,2.9-6.7,3.1c-0.1,0-0.2,0-0.2,0.1c-0.2-0.5-0.5-1.1-0.9-1.6c-1.4-1.7-3.9-3.3-7.5-4.2
			c2.4-0.5,4-1.4,4.9-2.6C288.7,162.8,288.9,162.2,289,161.6L289,161.6z M279.6,165.4c-0.2-0.5-0.5-1-0.9-1.5
			c-1.2-1.5-3.3-2.8-6.2-3.7c2.3-0.6,3.8-1.7,4.4-3.1c0.4-0.8,0.5-1.7,0.3-2.5c0,0,0-0.1,0-0.1c0.3,0,0.6,0.1,1,0.1c0,0,0.1,0,0.1,0
			c4.5,0.6,7.5,2.3,9,4.1c0.6,0.7,0.9,1.5,0.9,2.2c0,0.7-0.2,1.4-0.6,2.1C285.9,165.2,282.3,165.6,279.6,165.4L279.6,165.4z
			 M165.9,240.9c-0.4,2.1-0.1,3.7,0.5,4.8c0.4,0.7,1,1.2,1.7,1.4c0.7,0.2,1.6,0.2,2.6-0.1c1.5-0.5,3.2-1.7,4.9-3.6
			c-2.2-1.1-5.1-2.9-6.9-5.1c-1,0.9-1.9,1.8-2.9,2.7L165.9,240.9L165.9,240.9z M164.9,241.9c-0.2,1.8,0.1,3.3,0.7,4.3
			c0.5,0.9,1.3,1.5,2.2,1.8c0.1,0,0.2,0,0.2,0.1c-2.8,5.3-6.2,8.4-8.9,9.3c-1,0.3-1.9,0.4-2.6,0.2c-0.7-0.2-1.3-0.7-1.7-1.4
			c-0.2-0.4-0.4-0.8-0.5-1.4l0,0C157.2,250,161,245.7,164.9,241.9L164.9,241.9z M154.2,254.8c-2.6,4.1-4.5,8.6-5.2,13.4
			c0,0.2-0.1,0.4-0.1,0.7c0-0.1,0-0.1,0-0.2c0.1,0,0.2-0.1,0.3-0.1c2.4-1.1,5-4,7-8.7c0.1-0.5,0.3-0.9,0.4-1.4c0-0.1,0-0.1,0.1-0.1
			c-0.1,0-0.3-0.1-0.4-0.1c-0.9-0.3-1.7-0.9-2.2-1.8c-0.1-0.2-0.3-0.5-0.4-0.8C153.9,255.4,154,255.1,154.2,254.8L154.2,254.8z
			 M148.9,269.1c0,0.2,0,0.4-0.1,0.6c0.2-0.1,0.5-0.2,0.7-0.3c2.1-0.9,4.3-3.1,6.1-6.5c-0.1,2.1,0.4,3.8,1.2,4.9
			c0.6,0.8,1.4,1.3,2.2,1.6c0.6,0.2,1.2,0.2,1.8,0.1c-1.2,4.9-3.4,8-5.6,9.3c-0.9,0.5-1.8,0.7-2.7,0.7c-0.8-0.1-1.6-0.4-2.3-1
			c-0.5-0.4-0.9-0.9-1.2-1.6c0,0.2,0.1,0.5,0.1,0.7C148.8,274.4,148.6,271.5,148.9,269.1L148.9,269.1z M149.3,277.7
			c0,0.1,0,0.2,0,0.3C149.3,277.9,149.3,277.8,149.3,277.7L149.3,277.7z M149.5,278.7c1,5.4,3,11.2,5.7,16.5l0,0
			c0.8,0.3,1.6,0.5,2.3,0.3c0.7-0.1,1.4-0.4,2-1c1.1-1.1,1.8-2.9,1.7-5.7c0,0-0.1,0-0.1,0.1c-1,0.6-2.1,0.8-3.1,0.7
			c-1-0.1-2-0.5-2.8-1.2c-1.6-1.5-2.7-4.2-2.6-8.2c0,0-0.1,0-0.1,0c-1-0.1-2-0.5-2.8-1.2C149.7,278.9,149.6,278.8,149.5,278.7
			L149.5,278.7z M186.9,246.6c-1.1,1.2-2.3,2-3.5,2.5c-0.9,0.3-1.8,0.4-2.5,0.3c-0.7-0.1-1.4-0.5-1.9-1.1c-0.7-0.8-1.1-2.1-1.1-3.7
			c2.5,1,5.3,1.9,7.8,2.1C186.1,246.7,186.5,246.7,186.9,246.6L186.9,246.6z M159.9,295.3c0.5,2.5,1.6,3.9,2.9,4.5
			c0.7,0.3,1.5,0.4,2.3,0.2c0.8-0.2,1.6-0.6,2.4-1.3c2.1-1.8,3.8-5.3,3.6-9.9c-0.9-0.1-1.8-0.4-2.5-1c-1.3-1.1-2.3-3-2.4-5.7
			c-1,2.9-2.4,4.9-4,6.1c0.2,3.3-0.6,5.5-2,6.8C160,295.2,160,295.2,159.9,295.3L159.9,295.3z M161.2,287.9
			c-0.2,0.1-0.3,0.2-0.5,0.3c-0.9,0.5-1.8,0.7-2.6,0.6c-0.8-0.1-1.6-0.4-2.3-1c-1.5-1.3-2.5-3.9-2.3-7.6c0.7-0.1,1.5-0.3,2.2-0.8
			c1.8-1,3.6-3.1,4.9-6.2c0.2,2.5,1.2,4.3,2.5,5.4c0.8,0.7,1.8,1.1,2.8,1.2c-0.9,3.8-2.5,6.4-4.2,7.8c0,0-0.1,0-0.1,0
			C161.4,287.6,161.2,287.7,161.2,287.9L161.2,287.9z M182.9,260.8L182.9,260.8c-0.1,3.5,0.8,6.1,2.3,7.7c0.7,0.7,1.4,1.3,2.2,1.6
			c0,0,0,0.1,0,0.1c-0.8,3.5-2.4,5.7-4.1,6.8c-0.8,0.5-1.7,0.8-2.6,0.7c-0.4,0-0.8-0.1-1.3-0.3c-0.1-0.1-0.2-0.2-0.3-0.2
			c0,0-0.1,0-0.1,0c-0.2-0.1-0.5-0.3-0.7-0.5c-1.4-1.2-2.5-3.4-2.8-6.6c2.5-1.5,5.1-4.6,6.9-9.5
			C182.5,260.6,182.7,260.7,182.9,260.8L182.9,260.8z M157.4,258.4c0.6,0,1.3-0.1,1.9-0.3c2.3-0.8,4.9-2.8,7.3-6.3
			c-0.6,2.8-0.3,4.9,0.5,6.4c0.4,0.6,0.9,1.1,1.4,1.5c-1.7,5.2-4.4,7.9-6.9,8.7c-0.8,0.3-1.7,0.3-2.4,0.1c-0.7-0.2-1.3-0.6-1.8-1.3
			c-1.1-1.4-1.5-3.8-0.6-7c0.2-0.4,0.4-0.9,0.5-1.4C157.5,258.6,157.5,258.5,157.4,258.4L157.4,258.4z M179.1,280
			c-0.8,4.2-2.7,6.9-4.9,8.1c-0.7,0.4-1.4,0.6-2.1,0.7c0.8,3.3,2.6,5.3,4.6,6.3c1,0.5,2.1,0.6,3.2,0.5l0,0c0.1-0.1,0.2-0.1,0.3-0.1
			c0.1,0,0.1,0,0.2,0c0.9-0.2,1.7-0.6,2.5-1.1c1.8-1.4,3.2-3.9,3.4-7.6c0-0.1,0-0.1,0-0.2c0-0.1,0-0.1,0-0.2c-0.3,0.1-0.6,0.1-1,0.2
			c-1,0.1-2.1-0.2-3-0.8C181,284.8,179.8,282.8,179.1,280L179.1,280z M180.6,297.6c0.1,0,0.2,0.1,0.3,0.3c1.2,3.6,3.1,5.8,5,6.6
			c0.8,0.3,1.7,0.4,2.5,0.2c0.8-0.2,1.5-0.7,2.1-1.4c1.4-1.8,2.2-5,1.6-9.5c-0.3-0.1-0.7-0.2-1-0.4c-1.5-0.8-3-2.4-4.1-4.8
			c-0.5,3.1-1.9,5.3-3.6,6.6c-0.9,0.6-1.8,1.1-2.8,1.3C180.7,296.8,180.7,297.2,180.6,297.6L180.6,297.6z M179.9,296.5
			c-1.2,0.1-2.3-0.1-3.4-0.6c-1.9-0.9-3.6-2.6-4.6-5.3c-0.2,4-1.8,7.1-3.9,8.8c-0.3,0.2-0.5,0.4-0.8,0.6c0.1,0.1,0.2,0.2,0.2,0.3
			c0.6,3.5,2,5.7,3.8,6.7c0.8,0.5,1.7,0.6,2.6,0.5c0.9-0.1,1.8-0.5,2.6-1.2C178.2,304.5,179.7,301.3,179.9,296.5L179.9,296.5z
			 M171.3,288L171.3,288c-0.9,0-1.6-0.3-2.3-0.9c-1.5-1.2-2.5-3.7-2-7.4c0.8-0.1,1.5-0.3,2.3-0.6c2.2-1.1,4.4-3.4,5.6-7.2
			c0.5,2.5,1.6,4.3,2.9,5.4c0.3,0.2,0.6,0.4,0.9,0.6c-0.4,5.1-2.5,8.2-4.7,9.5c-0.6,0.4-1.3,0.6-1.9,0.6c-0.1-0.1-0.2-0.1-0.4-0.1
			C171.4,287.9,171.3,288,171.3,288L171.3,288z M166.2,278.9L166.2,278.9c-1-0.1-1.8-0.4-2.5-1c-1.5-1.2-2.5-3.6-2.2-7
			c0,0,0,0,0-0.1c0.2-0.5,0.3-1.1,0.4-1.6c0.1,0,0.1,0,0.2-0.1c2-0.6,4.1-2.4,5.8-5.5c-0.2,2.6,0.3,4.6,1.3,5.8
			c0.6,0.8,1.5,1.3,2.5,1.5c0.9,0.1,1.8,0,2.9-0.4c-1.1,4.2-3.2,6.7-5.5,7.8c-0.7,0.4-1.5,0.5-2.2,0.6c-0.1,0-0.1-0.1-0.2-0.1
			C166.4,278.8,166.3,278.9,166.2,278.9L166.2,278.9z M174.7,269.5c-0.1,0.1-0.3,0.1-0.4,0.2c-0.9,0.4-1.8,0.6-2.6,0.4
			c-0.8-0.1-1.4-0.5-1.9-1.2c-1.1-1.4-1.5-3.9-0.8-7.4c0-0.1,0-0.1,0-0.2c0.2-0.4,0.3-0.9,0.5-1.3l0,0c0.9,0.3,2,0.3,3.1-0.1
			c2.3-0.7,4.9-2.8,7.3-6.5c-0.2,2.5,0.2,4.4,1,5.6c0.2,0.4,0.5,0.7,0.8,0.9c-1.8,4.9-4.3,8-6.7,9.3
			C174.9,269.3,174.8,269.4,174.7,269.5L174.7,269.5z M168.9,248.1c-0.3,0.5-0.5,1-0.8,1.4c0,0.1,0,0.2,0,0.2
			c-1.2,3.7-1.1,6.4-0.2,8c0.4,0.7,1,1.2,1.8,1.5c0.8,0.2,1.6,0.2,2.6-0.1c2.4-0.8,5.4-3.3,7.9-7.8c0,0,0-0.1,0.1-0.1
			c0.2-0.3,0.4-0.7,0.5-1c0,0,0,0,0,0c0,0-0.1,0-0.1,0c-0.9-0.2-1.7-0.7-2.4-1.4c-0.9-1-1.4-2.6-1.3-4.6c-0.2-0.1-0.5-0.2-0.7-0.3
			l0,0c-1.9,2.1-3.8,3.4-5.4,4C170.2,248,169.5,248.1,168.9,248.1L168.9,248.1z M167.1,231.7c-0.1,0.3-0.2,0.6-0.3,0.9
			c-0.3,1.2-0.2,2.3,0.2,3.3c-1.3,0.3-2.6,0.7-3.9,1c-5,1.2-10.2,2.3-15.3,2.9c-1.1-1.3-2.7-3-4.2-2.9c-1.6,0.1-3,2.3-3.8,3.7
			c-1,0.1-2.1,0.1-3.3,0.1c-0.4-0.9-0.9-1.8-1.4-2.7c-0.5-0.9-1.2-1.8-2.3-2c-1.1-0.2-2.1,0.6-2.9,1.3c-0.8,0.7-1.5,1.6-2.1,2.4
			c-0.1,0.1-0.2,0.3-0.3,0.4c-0.7-0.1-1.3-0.2-2-0.3c0-0.2-0.1-0.4-0.1-0.6c-0.2-1-0.3-2-0.6-3c-0.3-1-0.7-2.1-1.7-2.5
			c-1.1-0.5-2.2,0-3.2,0.5c-0.9,0.5-1.8,1.1-2.7,1.7c-0.2,0.2-0.4,0.3-0.6,0.5c-0.5-0.4-1.1-0.7-1.5-1.2c0.1-0.3,0.1-0.7,0.2-1
			c0.2-1,0.4-2.1,0.5-3.2c0.1-1.1,0-2.4-0.9-3.1c-0.9-0.7-2.1-0.6-3.1-0.3c-0.6,0.1-1.1,0.3-1.6,0.5c-0.5-1-0.9-2-1.3-3
			c0.5-0.5,1-1,1.4-1.6c0.7-0.9,1.3-2,0.9-3.2c-0.4-1.1-1.7-1.5-2.7-1.8c-0.5-0.1-1-0.2-1.5-0.3c-0.4-2.3-0.6-4.7-0.4-7.1
			c0.3-0.4,0.5-0.8,0.6-1.3c0-0.5-0.1-0.9-0.3-1.3c1.3-10.8,7.5-21.3,13.5-30.1c5.4-8,8.8-17.2,8.7-26.9c0-8.1-2.3-13.3-4.7-16.9
			c-1.9-2.8-4.2-4.6-7.4-6.3c3-2,5.3-4.9,6.4-8.9c0.7-2.4,0.8-4.8,0.6-7.3c-0.3-3.1-1.1-6.2-2.3-9c-1.1-2.6-2.6-4.5-4.7-6.3
			c-5.2-4.7-2.2-5.8-2.4-6.3c-0.7-0.6-2.3,0-3.2,0.3c-1.1,0.3-2.1,0.9-3,1.7c-0.1-0.7-0.2-1.4-0.2-2.1c-0.4-4.9-3-8.7-7.5-10.7
			c-1.8-0.8-9.2-2.4-10.3-0.2c-0.2,0.4,2.9,4.3,3.4,6.3c0.5,1.9,0.4,3.7-1.2,5.1c-2.2,1.9-3.7,4.4-4.5,7.1c-1.6-0.8-4.4-1.7-8.6,0.4
			c4.3,3.7,4.3,6.4,3,11.1c-1,3.7-1,7.1,0.1,10.7c3,10.6,14,12.6,23.5,11.8c0,0,0.1,0,0.1,0c0.8-0.1,1.5-0.2,2.3-0.4
			c1.6,1.1,3.1,2.2,4,3.8c3.3,6.5,3.3,14.5-0.5,23.5c-3.4,8-11.1,14.7-17.6,20.2c-9.7,8.2-18.5,19.4-23.6,31
			c-6.8,15.3-7.6,31.4-0.2,46.7c8.8,18.2,26,30,45.3,34.8c11.4,2.9,23.8,3.3,35.5,1c2.4,5.4,5.6,10.4,9,14.3
			c0.1,0.1,0.2,0.2,0.3,0.4c-2.3,0-4.7,0.2-7,0.6c-5,0.9-8.9,4.3-11.8,8.5c-1.5,0.6-3.1,2.1-4.1,3.1c-1.5,1.5-4.3,4.5-3.1,6.8
			c1,2,4.1,1.9,6.1,1.7c0.5,0.2,0.9,0.3,1.4,0.5c2,0.6,4.2,0.8,6.3,1.1c1.7,0.2,3.4,0.3,5.1,0.4c0.9,0.2,1.8,0.2,2.6,0.2
			c4.1,0.2,8.1,0.3,12.1,0.4c5.4,0.1,10.9,0.1,16.4,0c3.5,0,7-0.1,10.5-0.3c4-0.2,6.3-2.1,5.9-6.4c-0.2-2.2-0.7-4.3-1.4-6.5
			c-0.2-0.7-0.5-1.5-0.8-2.2c-0.1-0.3-0.2-0.6-0.3-0.9c0.1-0.7,0.6-1.4,0.9-1.9c0.9-1.3,2.3-2.4,3.8-3.3c0.1,0,0.2-0.1,0.3-0.2
			c0.3-0.1,0.5-0.3,0.8-0.4c3.6-1.8,7.4-5.2,10.1-8.5c3.2,1,6.7,1.7,9.9,2.2c8.4,1.5,17.3,1.9,25.7,0.7c4.5-0.6,9-1.7,13.2-3.1
			c1.6,2.2,0.8,5.6-0.1,8c-2.2,5.8-5.1,15.2,1.7,19.2c1.1,0.6,3.2,0.8,4.5,0.9c2.4,0.2,4.8,0.2,7.2,0.3c5.8,0.1,11.5,0.1,17.3,0
			c0.3,0,0.6,0.1,0.9,0.1c1,0.1,2.5,0.2,3.7-0.1c3.6-0.1,7.1-0.1,10.7-0.2c0.9,0.2,1.9,0.3,2.8,0.3c1.1,0.1,2.7,0.3,3.9-0.5
			c3.4-0.1,6.9-0.2,10.3-0.3c0.4,0.1,0.9,0.1,1.3,0.1c1.5,0.1,4,0.4,4.8-1.7c0.8-2-0.7-4.5-1.8-6.2c0-0.1,0-0.3,0-0.4
			c-0.3-4.2-1.6-8.3-4.5-11.4c-3.5-3.7-10.8-3.7-15.5-3.3c-1.4,0.1-2.9,0.2-4.4,0.4c5.5-4.8,10.7-10.4,14.5-16.7
			c5.7-9.3,8.4-20.3,6.7-31.1c-1.4-9.3-6.1-18.2-13.9-23.6c-3.3-2.3-6.9-3.7-10.7-4.4c-0.1-0.6-0.3-1.1-0.4-1.7
			c-1.5-6.2-4-12.2-6.9-17.9c-4.5-8.8-10.1-16.9-15.7-25c-2.7-3.9-5.3-7.8-7.5-11.8c0.8-0.5,1.5-1,2.4-1.4c1.6,0.7,3.2,1.3,4.9,1.8
			c3.5,1.2,7,2,10.5,2.5c1.2,1.6,2.5,3.3,3.9,4.7c1.2,1.2,2.7,2.3,4.5,1.6c1.9-0.7,1.9-2.4,2.8-3.9c0.6-1,1.3-1.3,2.5-1.3
			c4.1-0.1,6.2,1.3,7.2,5.2c0.5,1.8,0.6,3.7,0.9,5.5c0.3,1.9,0.7,4.2,2.6,5.3c1.4,0.8,3,0.5,4.4-0.3c2.2-1.2,2.8-4.4,3.1-6.7
			c0.4-3.5,0.3-7.3,0-10.7c-0.1-0.9-0.2-1.8-0.3-2.7c12.3-4.4,23-11.6,31.6-21.5c3-3.5,5.7-7.2,8.1-11.2c0.8-1.4,1.6-2.7,2.3-4.1
			c0.4-0.8,0.9-1.6,1.3-2.4c2.2-3.6,6.5-3.7,7.3-8.4c0.7-0.6,1.4-1.2,2-1.8c0.9-0.9,1.8-2,1.5-3.4c-0.6-2.9-4.9-2.4-7.1-2.1
			c-0.1,0-0.2,0-0.3,0c-0.7-0.2-1.4-0.3-2.2-0.3c-1.5,0-3.5,0.7-5.2,1.4l-0.5-0.6c1.2-3.1,2-7.3,0.3-10c-0.1-0.1-0.2-0.3-0.3-0.4
			l0-0.1c0.2-0.9,0.3-1.9,0.4-2.9c0.1-1.3,0.1-2.7-1.1-3.6c-2.4-1.8-5.3,1.4-6.8,3c-0.2,0.3-0.5,0.6-0.8,0.9c-1,0.4-1.9,1-2.6,2
			c-0.5,0.7-1.1,1.4-1.7,2.2c0.3-2.2,0.1-4.6-1.1-6.2c0-0.3,0.1-0.7,0.1-1c0.1-1,0.1-1.9,0.1-2.9c0-1.3-0.2-2.7-1.5-3.5
			c-1-0.6-2.2-0.5-3.1,0.2c-0.4,0.3-0.8,0.6-1.2,1c-0.8,0.8-1.5,1.6-2.2,2.5c-0.5,0.6-1.1,1.5-1.5,2.3c-1.2,0.7-2.2,1.7-3,2.8
			c-1.5,2.2-2.8,5.3-3.4,8l-1.6,1.7c-0.1-0.1-0.1-0.2-0.2-0.4c-0.5-1-1.1-2.2-1.9-3.2c-0.1-0.6-0.2-1.1-0.3-1.7
			c-0.2-0.9-0.4-1.9-0.7-2.8c-0.4-1.3-0.9-2.5-2.3-2.9c-1.1-0.3-2.2,0.2-3,1c-0.3,0.4-0.6,0.8-0.9,1.3c-0.5,0.9-1,2-1.4,3
			c-0.4,1-0.8,2.3-1,3.5c-1.1,2-1.2,4.7-1.1,6.9c0.1,3.2,0.3,9.6,2.2,13.1c-0.5,0.7-1.3,1.4-1.7,1.8c-1.6,1.6-3.5,3-5.4,4.3
			c-0.6,0.4-1.3,0.9-1.9,1.3c-3.3-5.5-7.2-10.9-11.6-15.2c-3.4-3.3-9.6-8.3-14.6-6c-0.3,0.2-0.7,0.3-1,0.6c-1.3,0.9-2.3,2-3.2,3.2
			c-1.6,2.1-2.6,4.5-4,6.8c-1.6,2.7-3.5,4.7-6.1,6.4c-2.6,1.8-5.7,2.6-8.8,2c-1.7-1.9-3.3-3.8-4.6-5.4c0.9-0.6,1.7-1.2,2.5-1.9
			c3.3-2.5,6.6-5.1,9.6-7.8c3.3-2.9,7.2-6.6,9.4-10.4c0.7-1.2,1.3-2.5,1.8-3.8c0.7-1.7,1.3-3.4,1.9-5.1c0.2-0.5,0.3-1,0.5-1.4
			c0.3,0.1,0.6,0.2,1,0.2c1.2-0.1,1.9-1.2,2.3-2.2c0.4-0.9,0.7-1.9,1-2.8c0.4-1.4,0.8-2.8,1.1-4.2l0.2-1.1c3.5-2.9,5.6-7.1,5.9-11.6
			c0.3-4.3-1-8.7-3.9-11.8c-3.7-4.1-8.8-5.2-13.9-4.1c-0.3-1.4-0.7-2.8-1.1-4.2c-0.5-1.7-1-3.4-1.6-5c-0.7-2.7-1.6-5.3-2.9-7.4
			c-0.4-0.9-0.8-1.8-1.3-2.7c-1.4-2.9-3-5.6-4.7-8.3c0.6-0.5,1.1-1,1.6-1.5c4.7-4.7,6.9-10.6,6.4-17.2c-0.4-4.9-2.4-10.2-5.8-13.9
			c-1.3-1.5-3.2-3.3-5.4-2.7c-2.3,0.6-2.9,3.1-3.2,5.2c-0.3,2.1-0.5,4.5-1.7,6.3c-2.2,3.4-4.9,5.6-8.4,7.5c-0.2-2.6-1.9-6.2-4.6-6.7
			c-2.4-0.4-4.1,1.7-5.1,3.5c-0.9-0.2-1.8-0.4-2.7-0.6c-0.3-0.9-0.8-1.8-1.5-2.5c-1.5-1.7-3.4-2.2-5.2-1.6c-0.5-2.5-1.6-4.9-3.3-6.3
			c-0.5-0.4-1.1-0.8-1.6-1c-2.9-1.3-5.6-0.3-7.7,2c-0.1,0.2-0.3,0.3-0.4,0.5c-2-2.8-4.9-4.7-8.4-5c-3.9-0.3-6.6,1.8-7.3,5.5
			c-0.1,0.4-0.1,0.9-0.2,1.4c-1.7-0.3-3.4-0.2-4.7,0.8c-2,1.4-2.1,3.8-1.5,6c-1.7,0.9-2.6,2.9-3.1,4.7c-0.1,0.3-0.2,0.7-0.2,1.1
			c-1.2,0.7-2.4,1.5-3.6,2.3c-0.4-0.2-0.8-0.4-1.2-0.6c-1.6-0.7-3.3-1.3-4.9-1.9c-4.5-1.8-8-4-11.1-7.8c-1.8-2.1-2.3-4.9-3-7.5
			c-0.6-2.2-1.8-5-4.5-5.2c-2.9-0.2-4.8,3.1-6,5.2c-2.9,5-4.2,11.3-3.8,17c0.5,7.4,3.9,13.7,9.7,18.3c2.5,2,5.6,4,8.8,5
			c-1.1,3.5-1.8,7.2-2.3,10.9c-0.4,2.9-0.7,5.9-0.8,8.8c-0.1,1.7-0.1,3.4-0.2,5.1c-0.1,1.7-0.5,3.2-1,4.7c-0.9,2.9-2.2,5.7-3.5,8.5
			c-0.6,1.4-1.4,2.8-2.1,4.2c-0.9,2-1.6,4.1-1.8,6.3c-0.3,3.4,0.3,6.6,1.7,9.7c3.6,7.4,11.8,12.1,19,15.3c4.9,2.2,10,3.9,15,5.7
			c2,0.7,7.1,2.5,8.6,3.9c0.8,0.8,1.6,1.6,2.3,2.5c0.8,2.7,0.5,4.4,0.2,5.3c-0.1,0.3-0.3,0.6-0.4,0.9c-1.4,1.2-3.4,2.1-5.1,2.5
			c-4.1,0.9-8.2-0.1-11.6-2.5c-2.6-1.8-4.6-3.9-6.4-6.6c-1.4-2.2-2.4-4.5-3.8-6.6c-1.1-1.6-2.4-3-4-4.1c-2.4-1.7-5.5-1.6-8.2-0.7
			c-3.3,1-6.5,3-9.2,5c-7.5,5.6-14.2,13.7-19.2,21.6c-5.3,8.3-9,18.4-10.6,28.1c-0.7,4-2.1,15.3,2.4,17.7c1.4,0.7,2.9,1,4.4,0.3
			c1.9-0.9,2.6-3.1,2.9-5c0.3-1.9,0.4-3.9,0.4-5.8c0.1-3.7,4.5-6.4,7.9-6c1,0.1,1.4,0.7,1.8,1.5c0.8,1.7,1.2,3.5,3,4.5
			c0.2,0.1,0.4,0.2,0.6,0.3c-0.8,1.4-1.4,2.9-1.8,4.4c-2.2,8.4,2.5,16.5,7.5,22.8c3.2,4.1,6.9,8.4,10.7,12.2c-0.5,0-1.1,0.2-1.5,0.6
			c-2.3,1.7-0.5,5.9,0.4,7.9C166.2,230,166.6,230.9,167.1,231.7L167.1,231.7z M321,108.7c0.8-1.9,1.7-3.7,2.1-3.6
			c0.4,0.1,0.8,1.7,1.2,3.4c0,0-0.1,0-0.1,0C323,108.5,322,108.5,321,108.7L321,108.7z M341,100c1.2-1.6,2.5-2.9,2.9-2.6
			c0.3,0.2,0.3,1.7,0.2,3.3C343.1,100.2,342,100,341,100L341,100z M355.4,104.5c1.1-1.1,2.1-1.8,2.4-1.6c0.2,0.2,0.2,1.2,0,2.5
			C357.1,104.9,356.3,104.6,355.4,104.5L355.4,104.5z M370.9,119.6c1,0,1.8,0.1,1.8,0.4c0.1,0.2-0.4,0.8-1.1,1.5
			C371.5,120.7,371.3,120.1,370.9,119.6L370.9,119.6z M152.2,179.1c0.9-1.2,2-2.4,3.1-3.5c0.5-1.2,1-2.8,1.7-4.7
			c0.4-1.1,1.2-2.6,2.3-4c1.9-8.3,6.7-26.7,11.4-33.1c-2.1-2.4-3.5-3.6-6.9-1.4c-11.9,7.5-20.8,27.4-25.3,42.3
			c2-1.4,4.6-2.2,6.9-1.9c4.8,0.5,3.8,6.6,6.5,6.4C152.1,179.1,152.2,179.1,152.2,179.1L152.2,179.1z M159.2,172.4
			c3.1-2.3,6.6-4.3,9.7-5.9c1.8-0.9,3.6-1.9,5.3-2.9c-2.6-0.8-5.3-0.8-8,0.6c-2.8,1.4-5.7,4.5-6.8,7.5
			C159.3,172,159.2,172.2,159.2,172.4L159.2,172.4z M178.2,161.4c5.5-3.3,10.9-7,15.7-11c1.3-1.1,2.8-2.4,4.2-3.9
			c-6.8,0.2-11.9-0.8-16.7-3.5C180,148.4,178.5,156,178.2,161.4L178.2,161.4z M198.6,146c1.3-1.3,2.6-2.8,3.8-4.3
			c-4.3,1.5-10,1.4-15.3-2.3c-9.3-6.5-8.3-13.1-14.2-17.3c-5.9-4.2-21.6,7.1-33,25.2c-11.4,18.1-12.8,40.3-9.1,42.3
			c0.3,0.1,0.5,0.3,0.8,0.3c0.1-0.5,0-1-0.1-1.7c-0.3-2.5-0.8-7,2.5-18.4c2.7-9.4,8.8-20.9,15.3-29.5c6-8,12.3-13.5,16.7-12.7
			c2.7,0.5,3.8,2.1,5.2,4.2l0.4,0.5c0.2,0.3,0.5,0.7,0.7,1c0.7,0.9,1.5,1.8,2.4,2.8c2.9,3.1,5.6,5.2,8.3,6.6c2.9,1.3,6.5,2.4,11,2.9
			c0.1,0,0.2,0.1,0.3,0.2C195.7,145.8,197.1,145.9,198.6,146L198.6,146z M201.4,180.5c-0.4,0.5-0.8,0.9-1.3,1.4c-1.9,2-4,4-6.2,5.8
			c1.3,1.5,2.6,3,3.8,4.5C199.1,188.3,200.4,184.4,201.4,180.5L201.4,180.5z M228.1,98.8c0,0-2.6,5.6-3.7,5.5
			c-1.1-0.1-3.8-6.1-3.8-6.1S224.5,97.8,228.1,98.8L228.1,98.8z M279.6,94.7c3.2-3.1,5.9-3.3,5.9-3.3s-1.8,7.8-3,7.9
			C281.3,99.3,279.6,94.7,279.6,94.7L279.6,94.7z M252.6,106.6c4.2,1.9,8.7,7.4,2.6,11.3c-3.5,2.2-11,1.4-14.5-1.4
			c-3.5-2.9-4.3-6-7.1-9.9c1.6-0.7,3.6-1.2,5.8-1.5c4.3,0.4,6.8,2.2,9,6c0.3-2.8-1.6-4.9-4-6.2C247.3,104.9,250.2,105.5,252.6,106.6
			L252.6,106.6z M180.5,75c3.5-1.6,7.9-2.1,12.4-1.7c-0.7-0.9-1.3-2-1.8-3.1c-0.8-1.8-1.2-3.9-1.2-6c0-4,1.5-7.7,4-10.4
			c2.5-2.7,6-4.3,9.8-4.3c3.8,0,7.3,1.6,9.8,4.3c2.5,2.7,4,6.3,4,10.4c0,3.8-1.4,7.4-3.7,10c-1.9,2.1-4.3,3.7-7.1,4.4
			c0.6,0.5,1.1,1,1.6,1.5C199.1,75,190.7,74.1,180.5,75L180.5,75z M194.3,73.4c-0.9-1.1-1.7-2.3-2.3-3.6c-0.7-1.7-1.1-3.6-1.1-5.6
			c0-3.8,1.4-7.2,3.8-9.7c2.3-2.5,5.5-4,9.1-4c3.5,0,6.8,1.5,9.1,4c2.3,2.5,3.8,5.9,3.8,9.7c0,3.6-1.3,6.9-3.4,9.3
			c-1.9,2.2-4.5,3.7-7.4,4.2C202.6,75.4,198.5,74,194.3,73.4L194.3,73.4z M240,15.1c2.1-2.6,4-1.1,5,1.1c0,0-0.1,0-0.1,0.1
			c-0.5,0.3-1.1,0.4-1.8,0.3c-0.7-0.1-1.5-0.3-2.1-0.6C240.6,15.7,240.3,15.5,240,15.1L240,15.1z M245.2,16.7
			c0.3,0.8,0.5,1.6,0.6,2.3c0,0,0,0-0.1,0c-0.6,0.5-1.7,0.6-3,0.4c-1.3-0.1-2.6-0.6-3.6-1.2c-0.2-0.2-0.4-0.3-0.6-0.5
			c0,0-0.1-0.1-0.2-0.1c0.1-0.1,0.1-0.2,0.2-0.4c0.3-0.7,0.7-1.2,1-1.7c0.3,0.3,0.6,0.6,1,0.8c0.7,0.4,1.6,0.6,2.4,0.7
			C243.9,17.2,244.7,17.1,245.2,16.7L245.2,16.7L245.2,16.7z M245.9,19.7c0,0.1,0,0.1,0,0.2c0.1,1.3-0.6,1.2-1.6,1.4
			c-2.1,0.4-5.5-0.5-6.3-2.2c-0.1-0.3,0-0.6,0.2-1c0.2,0.2,0.4,0.4,0.7,0.6c1,0.7,2.5,1.2,3.8,1.4C244,20.2,245.2,20.1,245.9,19.7
			L245.9,19.7z M202.9,20.2c-0.3,0.4-0.6,0.8-0.9,1.1c-0.1-0.9-0.6-1.7-1.1-2.5l-0.1-0.1c0.8-0.2,1.6-0.5,2.4-0.7
			c1.7,1.8,4.1,3,6.1,3.2c0.4,0,0.7,0.1,1,0c0.6,1.3,0.6,2.3,0.3,2.9c-0.2,0.4-0.5,0.6-1,0.8c-0.5,0.2-1.1,0.2-1.8,0.1
			c-1.8-0.2-4-1.3-5.5-2.9C202.6,21.6,202.8,20.9,202.9,20.2L202.9,20.2z M197.9,17.6c-0.1,0.1-0.3,0.3-0.4,0.4
			c-0.8,0.7-1.9,1.1-2.9,1.4c-1,0.2-2,0.2-2.6-0.2C192.8,16.5,194.9,14.5,197.9,17.6L197.9,17.6z M191.8,19.8
			c0.8,0.3,1.8,0.4,2.9,0.2c1.1-0.2,2.3-0.8,3.2-1.5c0.2-0.1,0.3-0.3,0.5-0.4c0.4,0.4,0.8,1,1.2,1.6c0.2,0.2,0.3,0.5,0.4,0.7l0,0
			l0,0c-1,1.1-2.8,1.9-4.6,2.3c-1.6,0.4-3.1,0.4-3.9,0C191.4,21.8,191.5,20.8,191.8,19.8L191.8,19.8z M191.5,23.3
			c1,0.3,2.5,0.3,4-0.1c1.8-0.4,3.6-1.3,4.7-2.3c0.3,0.6,0.2,1.1-0.1,1.6c-1.2,1.7-5.2,3.3-7.7,2.3C192,24.7,191.7,24.1,191.5,23.3
			L191.5,23.3z M233.8,27.2l0.2-0.6c0.9,0.5,1.7,0.9,2.5,1.1c0.5,0.1,0.9,0.2,1.3,0.2c0.6,1.4,0.9,2.8,0.7,3.8
			c-0.1,0.3-0.2,0.6-0.4,0.9C236.9,30.6,235.4,28.8,233.8,27.2L233.8,27.2z M236.8,33.1c-0.1,0-0.2,0-0.3,0
			c-1.4-0.2-3.5-1.3-6.4-3.8c0,0,0,0,0.1-0.1c0.4-0.4,0.6-1,0.7-1.7c0-0.2,0-0.3,0-0.5l1.5,1.1C234,29.6,235.5,31.3,236.8,33.1
			L236.8,33.1z M256,48.4c0.4-0.7,0.8-1.3,1.3-1.4c0.3-0.1,0.7-0.2,1-0.3c0.3-0.1,0.7-0.1,1-0.1c2.3,0,4.1,1.2,5.5,3
			c1.7,2.2,2.7,5.2,2.9,7.9c0.1,1.4,0,2.8-0.3,4.2c-0.3,1.3-0.7,2.5-1.4,3.6c-0.7,1.1-1.4,1.5-2.2,1.5c1.6-1.7,2.5-4.6,2.3-8
			c-0.4-5.3-3.4-9.5-6.8-9.5c-1.1,0-2.2,0.5-3,1.3c1,0.3,1.9,1.5,2,3.1c0.1,1.7-0.8,3.1-2,3.1c-0.8,0-1.6-0.7-2-1.7
			c0.2-1.2,0.4-2.3,0.7-3.5C255.2,50.5,255.6,49.4,256,48.4L256,48.4z M195.6,31.2c2.9-2.7,8.5-4.7,13-0.3c0.9,0.9,2.9,2.5-6.2,2.7
			C196.5,33.8,189.9,36.4,195.6,31.2L195.6,31.2z M223,72.3c2.4-12-2.4-27.6-15.9-29.7c-14.3-2.2-20.9,14.4-20.5,26.1l0.4,3.6
			c0.9-5.7,1.4-11.6,3.9-17c3.4-7.3,11.4-12.5,19.3-8.9C221,51.3,222.3,62.1,223,72.3L223,72.3z M235.3,79.4c-2.4-1.2-4.7-1-5.2,0.5
			c-0.5,1.4,0.9,3.6,3.3,4.8c2.4,1.2,4.7,1,5.2-0.5C239.2,82.7,237.7,80.6,235.3,79.4L235.3,79.4z M272.8,70.8
			C260.6,69.5,250,70.5,238,74l2.9-1.5C248.7,69.3,264.8,67.7,272.8,70.8L272.8,70.8z M268.1,102.1c2.1-8.3,4.3-19.7-1.5-26.9
			c3.8,2.1,4.9,7.2,5.2,11.2C272.2,92.6,270.9,96.8,268.1,102.1L268.1,102.1z M263.7,56.1c1,3.4,2,6.3-1.1,9.3
			c-0.9,0.9-1.5,1-2.6,0.8C263.2,63.7,263.1,60.4,263.7,56.1L263.7,56.1z M203.8,52.9c5.6,0,10.1,5,10.1,11.2
			c0,6.2-4.5,11.2-10.1,11.2c-5.6,0-10.1-5-10.1-11.2c0-1.5,0.3-2.9,0.7-4.2c0.7,0.6,1.6,1,2.6,1c2,0,3.6-1.5,3.6-3.4
			c0-1.3-0.8-2.5-2-3C200.1,53.5,201.9,52.9,203.8,52.9L203.8,52.9z M210.9,61.9c2.6,11.5-9.9,13.4-13,7.6c1.7,1,2.7,1.6,4.7,1.7
			C208.6,71.3,210,66.6,210.9,61.9L210.9,61.9z M277.3,72.3c1.6-1.7,3.6-2.1,4.6-0.7c0.9,1.3,0.4,3.8-1.2,5.6
			c-1.6,1.7-3.6,2.1-4.6,0.7C275.2,76.5,275.8,74,277.3,72.3L277.3,72.3z M237.8,27c-0.3,0-0.7-0.1-1.1-0.2c-0.8-0.2-1.6-0.5-2.4-1
			l0.1-0.2c0.8-2.2,1.4-5,1.2-7.6c0.2,0,0.4,0.1,0.6,0.1c-0.2,0.3-0.3,0.6-0.1,1.1c0.3,0.6,0.9,1.2,1.6,1.7l0,0
			c0.4,0.7,1,1.3,1.6,1.8c0.6,1.6,0.6,2.7,0.3,3.4c-0.2,0.4-0.6,0.7-1,0.8c-0.1,0-0.2,0-0.3,0.1C238.1,26.9,238,26.9,237.8,27
			C237.8,27,237.8,27,237.8,27L237.8,27z M220.8,24.6c0.3-0.4,0.5-0.8,0.7-1.4c0.1-0.6,0.1-1.3,0-2c0,0,0-0.1,0-0.1
			c1.5,0.7,3,1.5,4.3,2.3c1.5,0.9,2.9,1.8,4.3,2.9c0,0.3,0,0.6-0.1,1c-0.1,0.6-0.2,1-0.5,1.3c-0.3,0.4-0.9,0.6-1.5,0.6
			c-0.7,0-1.5-0.2-2.4-0.5C223.9,27.9,222.1,26.5,220.8,24.6L220.8,24.6z M211.6,21c0.6-0.2,1.1-0.6,1.3-1.1c0.2-0.5,0.3-1,0.3-1.7
			c2.5,0.6,4.9,1.5,7.2,2.5c0.1,0.2,0.1,0.5,0.2,0.7c0.1,0.6,0.1,1.2,0,1.7c-0.1,0.5-0.3,0.9-0.7,1.2c-0.2,0.2-0.6,0.3-1,0.4
			c-1.2,0.2-2.9,0-4.4-0.8C213.4,23.3,212.3,22.3,211.6,21L211.6,21z M212.4,17.9c0.1,0.7,0.1,1.2-0.1,1.6c-0.2,0.4-0.6,0.6-1,0.8
			c-0.5,0.2-1.1,0.2-1.8,0.1c-1.7-0.2-3.8-1.1-5.3-2.6c0.8-0.2,1.7-0.4,2.5-0.6C208.6,17.3,210.5,17.5,212.4,17.9L212.4,17.9z
			 M239.9,22.2c0.5,0.2,1,0.4,1.4,0.5c1.6,0.4,3.9,0.4,5.2-0.7c0.5,0.3,0.9,0.5,1.3,0.8c0,0.3-0.1,0.6-0.2,0.9
			c-0.2,0.4-0.5,0.6-1,0.8c-0.5,0.2-1.1,0.2-1.8,0.1C243.2,24.3,241.4,23.5,239.9,22.2C239.9,22.2,239.9,22.2,239.9,22.2L239.9,22.2
			z M231.9,24.6c-2-1.5-4.1-2.8-6.3-4.1c0.4-0.8,1.2-2.6,1.7-5.3c1-1.4,2.6-2.8,4.4-0.7c2.8,3.2,0.6,9.5,0.4,10.2
			C232,24.6,231.9,24.6,231.9,24.6L231.9,24.6z M145,325.2c1.4-2.5-0.2-6.7-1.9-6.6c-1.6,0.1-6.8,5.7-6.3,6.6
			C137.3,326.2,145,325.2,145,325.2L145,325.2z M181.4,327.3c1.4-2.5-0.2-6.7-1.9-6.6c-1.6,0.1-6.8,5.7-6.3,6.6
			C173.7,328.3,181.4,327.3,181.4,327.3L181.4,327.3z M161.2,327.3c0.2-0.4,0.3-0.8,0.4-1.2c0.5-2.5-0.9-5.5-2.3-5.4
			c-1.2,0.1-4.6,3.5-5.9,5.4C151.6,328.8,159.9,327.4,161.2,327.3L161.2,327.3z M97.9,81.4c3.1,0.9,7.1,3.2,7.6,9.2
			c0.4,4.6,1.2,7.3,1.8,9c0.6,2.6,1.7,3.9,2.8,5.3c0.8,1,1.7,2.1,2.6,3.9c0.5,1,0.9,2.1,1.2,3.1c0.6,2.2,0.7,4.4-0.1,6.5
			c-0.7,2-2.3,3.9-5.1,5.2c-0.3,0.2-0.7,0.3-1,0.4c-1.1-0.5-1.9-1.6-2.2-2.3c0.1,1.1,0.5,2.4,2.3,3.2c1,0.4,2,0.9,3.1,1.4
			c6.9,4.9,11,10.5,12.4,16.8l-0.1,0c-0.4,0-0.8,0-1.2,0.1c0.3-2.9-0.5-4.9-1.7-6.1c-0.7-0.6-1.5-1-2.4-1.1c-0.9-0.1-1.8,0-2.8,0.5
			c0,0-0.1,0-0.1,0.1c-1.2-2.6-3.1-4.8-5.6-6.4c-1.3-0.8-2.7-1.6-3.8-2.6c-0.7-0.6-1.3-1.2-1.7-1.8c0-0.1-0.1-0.1-0.1-0.2
			c-1.3-2.1-1-4.1-0.2-5.1c-0.4,0.4-0.8,1.1-1,2.1c-0.1,0.3-0.1,0.5-0.1,0.8c-1.6-0.8-5-3.1-7.4-8.6c-2.1-4.9-0.5-8.6,1.5-13.4
			c1-2.4,2.2-5.1,3-8.3c1.3-5,1.1-8.1-0.3-10.1C98.8,82.3,98.4,81.8,97.9,81.4L97.9,81.4z M102.3,124.2c0,0.4,0.1,0.7,0.2,1
			c-12.1-2.3-12-10.3-11.9-17c0-2.8,0.1-5.4-0.7-7.4c0.3-2.4,1.2-5.6,4.1-8.1c5.2-4.5,0-11.9,0-11.9s0.4,0,1.1,0.1
			c1.5,0.5,2.7,1.3,3.4,2.4c1.2,1.8,1.4,4.8,0.2,9.5c-0.8,3.2-1.9,5.8-3,8.2c-2.1,4.9-3.7,8.8-1.5,14
			C96.8,121.2,100.8,123.5,102.3,124.2L102.3,124.2z M115.1,136.8c0,0.1,0.1,0.1,0.1,0.2C115.2,137,115.1,136.9,115.1,136.8
			L115.1,136.8z M115.3,137.2c0,0,0.1,0,0.1-0.1c0.8-0.4,1.6-0.5,2.4-0.4c0.7,0.1,1.4,0.4,1.9,0.9c1.1,1,1.7,2.9,1.4,5.5
			c0,0.1,0,0.1,0,0.2c-0.2,0.1-0.3,0.1-0.5,0.2c-1.3,0.6-2.7,1.7-3.7,3.2C117,143.4,116.5,140.1,115.3,137.2L115.3,137.2z
			 M116.9,147.6c0,0.1,0,0.2,0,0.3C116.9,147.8,116.9,147.7,116.9,147.6L116.9,147.6z M116.8,148.1c0,0.1,0,0.3,0,0.4
			C116.8,148.4,116.8,148.2,116.8,148.1L116.8,148.1z M116.8,148.5c1.1-2.1,2.6-3.5,4.1-4.1c0.8-0.3,1.5-0.5,2.2-0.5
			c0.1,0,0.2,0,0.3,0c0.5,2.9,0.5,5.9,0,9c-1.6,0.6-3.4,1.9-4.9,4c0.3-1.8,0-3.2-0.7-4.2c-0.3-0.5-0.8-0.9-1.3-1.1
			C116.6,150.5,116.7,149.5,116.8,148.5L116.8,148.5z M124.2,144L124.2,144c0-0.2-0.1-0.4-0.1-0.5l0-0.1l0,0c0-0.1,0-0.2,0-0.2l0,0
			c-1.2-5.8-4.5-11.1-10.7-15.7c3.2,1.7,6.1,3.7,8.2,6.7c2,2.8,3.7,7,4.5,12.1l0,0l0,0l0,0c0,0.3,0.1,0.6,0.1,0.9l0,0v0
			c0,0.1,0,0.2,0,0.3l0,0v0c0,0.1,0,0.3,0,0.4l0,0l0,0l0,0.1c0,0.2,0,0.4,0.1,0.6l0,0c0.3,3.8,0,8.1-1.1,12.6l0,0l0,0
			c-0.6,2.6-1.6,5.3-2.8,8l0,0c-0.1,0.2-0.2,0.5-0.3,0.7l0,0l0,0c-1,2.2-2.3,4.4-3.8,6.7l0,0l0,0l0,0l0,0l0,0l0,0l0,0l0,0l0,0l0,0
			l0,0l0,0l0,0l0,0l0,0l0,0l0,0l0,0l0,0l0,0l0,0l0,0l0,0l0,0l0,0l0,0l0,0l0,0l0,0l0,0l0,0.1l0,0l0,0l0,0l0,0
			c-4.5,6.8-8.5,13.4-11.1,20.2c-0.3-0.8-1.1-1.6-1.6-2.2c-0.6-0.6-1.2-1.2-1.9-1.8c-0.2-0.1-0.3-0.2-0.5-0.3c0.3-0.7,0.6-1.3,0.9-2
			l0,0l0,0l0,0l0,0l0,0l0,0l0,0l0,0l0,0l0-0.1l0,0l0,0l0,0l0,0c0.1-0.2,0.2-0.4,0.3-0.7v0c1.1-2.1,2.3-4.2,3.6-6.4h0
			c0.2-0.3,0.3-0.5,0.5-0.8h0c0.9-1.4,1.8-2.8,2.8-4.3l0,0l0,0l0,0l0,0l0,0l0,0l0,0l0,0l0,0l0,0l0,0l0,0l0,0l0,0l0,0l0,0l0,0l0,0
			l0,0l0,0l0,0l0,0l0,0l0,0l0,0l0,0l0,0l0,0l0,0l0,0l0,0l0,0l0,0l0,0l0,0l0,0l0,0l0,0l0,0l0,0l0,0l0,0l0,0l0,0l0,0l0,0l0,0l0,0l0,0
			l0,0l0.1-0.1l0,0l0,0l0,0l0,0l0,0l0,0l0,0l0,0l0,0l0,0l0,0l0,0l0,0l0,0l0,0l0,0c1.4-2,2.8-4.1,4.3-6.4c0.3-0.5,0.7-1,1-1.5l0,0
			l0,0c0.1-0.1,0.1-0.2,0.2-0.4c0.1-0.1,0.1-0.2,0.2-0.3l0,0l0,0l0.1-0.2h0c0.7-1.1,1.3-2.3,1.9-3.4v0c0.1-0.1,0.1-0.2,0.2-0.3
			c0-0.1,0.1-0.2,0.1-0.3c0.1-0.2,0.1-0.3,0.2-0.5c0-0.1,0.1-0.2,0.1-0.3c0.1-0.1,0.1-0.3,0.2-0.4v0c1.4-3,2.5-6.1,3-9.2l0,0
			c0-0.1,0-0.2,0-0.2l0,0c0-0.1,0-0.1,0-0.2c0-0.2,0.1-0.3,0.1-0.5l0,0C124.6,149.8,124.7,146.9,124.2,144L124.2,144z M116.4,151.7
			c0,0.1,0,0.2,0,0.2C116.4,151.9,116.4,151.8,116.4,151.7L116.4,151.7z M116.3,152.4c0.3,0.2,0.6,0.4,0.8,0.7
			c0.8,1.2,1,3.1-0.1,5.7c-0.5-0.1-1.1,0-1.7,0.1c-0.3,0.1-0.6,0.1-0.9,0.2C115.2,157,115.9,154.7,116.3,152.4L116.3,152.4z
			 M114.3,159.3c0,0.1-0.1,0.2-0.1,0.3C114.2,159.5,114.3,159.4,114.3,159.3L114.3,159.3z M114.1,159.7c0,0.1,0,0.1-0.1,0.2
			C114.1,159.8,114.1,159.8,114.1,159.7L114.1,159.7z M114,160.1c0.5-0.2,1-0.4,1.5-0.4c0.6-0.1,1.1-0.1,1.6,0c0,0,0.1,0.1,0.1,0.1
			c0.1,0.1,0.2,0.1,0.3,0c0.1,0,0.2,0.1,0.3,0.1c0.7,0.2,1.2,0.7,1.7,1.3c0.3,0.4,0.5,0.9,0.6,1.4c-0.8,1.6-1.7,3.2-2.7,4.8
			c-0.2,0.3-0.4,0.6-0.6,0.9c-1.2,0.5-2.5,1.3-3.7,2.5c0.6-1.7,0.6-3.2,0.2-4.2c-0.3-0.8-0.9-1.4-1.6-1.7c-0.1,0-0.1,0-0.2-0.1
			C112.4,163.3,113.2,161.7,114,160.1L114,160.1L114,160.1z M120.6,161.4c-0.1-0.3-0.3-0.6-0.4-0.8c-0.5-0.7-1.2-1.3-2.1-1.6l0,0
			c1.6-2.8,3.4-4.4,5.2-5.2C122.7,156.3,121.8,158.8,120.6,161.4L120.6,161.4z M111.4,164.9c-0.1,0.1-0.1,0.2-0.2,0.3
			C111.3,165,111.3,164.9,111.4,164.9L111.4,164.9z M110.9,165.5c0.1,0,0.2,0.1,0.3,0.1c0.5,0.2,1,0.7,1.2,1.3
			c0.5,1.2,0.3,3.1-1,5.6c0,0.1,0,0.1,0,0.2c-0.2,0.3-0.4,0.6-0.6,0.9c-0.6-0.4-1.4-0.5-2.3-0.5c-2,0.1-4.7,1.2-7.5,3.6
			c0-0.1,0-0.1,0.1-0.2C105.1,172.7,108.4,169.2,110.9,165.5L110.9,165.5z M99.6,177.7c0,0.1-0.1,0.2-0.1,0.3
			c-0.2,0.2-0.5,0.5-0.7,0.7c-0.1,0.1-0.1,0.2-0.1,0.2c-0.1,0-0.3,0-0.4-0.1C98.7,178.5,99.2,178.1,99.6,177.7L99.6,177.7z
			 M97.3,179.7c0.8-0.1,1.4,0,2,0.3c0.5,0.3,0.9,0.7,1.2,1.2c0.5,1.2,0.3,3-1.2,5.3c0,0,0,0,0,0.1c-2.3,2-4.5,4.7-5.8,7.5
			c-0.2-1.9-0.7-3.3-1.4-4.2c-0.9-1.1-2.1-1.6-3.4-1.7c-0.1,0-0.2,0-0.4,0c2.6-2.8,5.2-5.2,7.5-7.2
			C96.3,180.6,96.8,180.2,97.3,179.7L97.3,179.7z M99.2,187.7c2.6-2.5,5.1-3.8,7.1-4.2c-1,1.6-2,3.3-2.9,5c-0.5-0.5-1.1-0.8-1.7-1
			C101,187.3,100.1,187.4,99.2,187.7L99.2,187.7z M107,182.6c-1.7,0.2-3.8,1-6.1,2.7c0.8-1.8,0.8-3.3,0.3-4.4
			c-0.3-0.7-0.9-1.3-1.6-1.6c-0.1,0-0.1-0.1-0.2-0.1c0.2-0.2,0.4-0.4,0.6-0.6c0,0,0.1,0,0.1-0.1c3.2-3.2,6.2-4.6,8.3-4.7
			c0.8,0,1.5,0.1,2,0.5c0.5,0.3,0.8,0.8,1,1.4c0,0.1,0,0.1,0,0.2C109.9,178.2,108.4,180.4,107,182.6L107,182.6z M112.1,175.1
			c-0.2-0.4-0.4-0.8-0.7-1.1c1.5-2.1,3-3.5,4.5-4.4C114.6,171.5,113.4,173.3,112.1,175.1L112.1,175.1z M108.8,101.4
			c-0.1-0.8-0.2-2.2-0.2-4.3c0-3.1,3.3-4.1,3.3-4.1c-0.9,4.2,4.4,4.4,7.3,11c3.1,7.1,4.1,17.8-5,22.9c-1.6-0.8-3.4-1.6-5.4-2.4
			c0.1-0.1,0.2-0.1,0.3-0.2c3-1.4,4.7-3.4,5.5-5.6c0.8-2.2,0.7-4.7,0.1-7c-0.3-1.1-0.7-2.2-1.2-3.3c-0.9-1.8-1.8-3-2.7-4
			C110,103.5,109.3,102.6,108.8,101.4L108.8,101.4z M102.8,126.2c0.3,0.6,0.6,1.2,1.1,1.7c0.5,0.6,1,1.1,1.6,1.6
			c-7.7,0.6-18-0.5-20.7-10c-2.2-7.9,2.6-14.3-1.5-18.9c-1.1-1.3-1.2-1.3-1.2-1.3s4.7-0.3,6.3,2.1c0.7,1.1,1.1,1.8,1.3,2.1
			c0.1,1.4,0.1,2.9,0.1,4.6C89.6,115.4,89.5,123.8,102.8,126.2L102.8,126.2z M150.1,290.3c-2.2-5.5-3.6-11.4-3.7-17.1
			c-0.4,0.1-0.7,0.2-0.9,0.2c-3.4,0.3-6.9,0.5-10.3,0.4c0.2,5,1.2,9.9,3.1,14.5c0.5,1.1,1,2.2,1.6,3.2
			C143.3,291.3,146.8,290.9,150.1,290.3L150.1,290.3z M139.3,291.5c-6.1,0.3-12.2-0.2-18.3-1.3c0-0.2-0.1-0.3-0.1-0.5
			c-1.4-5.8-1.5-11.7-0.4-17.6c4.6,0.9,9.4,1.4,14.2,1.6c0.2,5.1,1.2,10.1,3.2,14.7C138.3,289.5,138.8,290.5,139.3,291.5
			L139.3,291.5z M120.5,290.1c-5.3-1-10.6-2.6-15.6-4.7c-0.2-1.1-0.3-2.2-0.4-3.4c-0.4-4.8,0-9.7,1.1-14.4c4.5,1.9,9.4,3.4,14.4,4.4
			c-1.1,5.9-1,11.9,0.4,17.8C120.4,289.9,120.5,290,120.5,290.1L120.5,290.1z M104.4,285.2c-4.9-2.1-9.6-4.8-13.9-8
			c-0.2-2.1-0.3-4.3-0.1-6.5c0.2-3.6,1-7.2,2.2-10.6c3.8,2.9,8,5.4,12.5,7.3c-1.1,4.8-1.5,9.7-1.1,14.6
			C104.1,283.1,104.2,284.1,104.4,285.2L104.4,285.2z M89.9,276.7c-5.4-4.2-10.2-9.2-14-15.1c0.1-0.3,0.1-0.7,0.2-1
			c1-4.5,2.8-8.7,5.2-12.6c2.9,4.5,6.6,8.4,10.8,11.8c-1.3,3.5-2.1,7.2-2.3,10.9C89.7,272.7,89.7,274.7,89.9,276.7L89.9,276.7z
			 M75.4,260.9c-1-1.7-2-3.4-2.8-5.2c-1.5-3.1-2.6-6.1-3.4-9.2c1.5-4.3,3.6-8.3,6.3-12c0.7,2.6,1.5,5,2.6,7.4l0,0
			c0.1,0.3,0.2,0.5,0.3,0.8l0,0c0.8,1.6,1.6,3.2,2.6,4.7c-2.5,4-4.3,8.4-5.4,13.1C75.5,260.6,75.5,260.7,75.4,260.9L75.4,260.9z
			 M68.9,245.5c-3.4-14.2,0.1-27.6,6.2-39l0,0l0,0l0,0l0,0l0,0l0-0.1h0c1.9-3.5,4-6.8,6.3-9.9c0.2,0.2,0.5,0.3,0.7,0.5
			c1.5,1.4,2.4,4,1.9,7.8c-0.6,0.2-1.2,0.4-1.8,0.8c-1.6,1.1-2.9,3.1-3.1,5.8c-0.7-2.2-1.8-3.7-3-4.5c0.2-1,0.4-2,0.7-3
			c-1.8,5.4-2.7,9.5-2.9,15.3c-0.2,5.2,0.3,10.1,1.4,14.6C72.7,237.4,70.5,241.3,68.9,245.5L68.9,245.5z M81.9,195.8
			c1.9-2.5,3.8-4.8,5.7-6.9l-0.2,0.2c0.2,0,0.4,0,0.6,0c0.2,0,0.4,0,0.5,0c1.1,0.1,2.1,0.5,2.8,1.4c0.7,1,1.2,2.4,1.3,4.6
			c0,0.5,0,1,0,1.6c-0.7,0.1-1.5,0.2-2.3,0.6c-2.1,0.9-4.2,2.8-5.4,5.6c0-3-0.9-5.2-2.3-6.4C82.4,196.2,82.2,196,81.9,195.8
			L81.9,195.8z M103.1,189.3c-1.9,3.7-3.3,7.8-4.2,12.7c-0.4-1.8-1.1-3.1-2.1-4c-0.9-0.7-1.9-1.1-3-1.3c-0.1,0-0.2,0-0.3,0
			c0.1-2.8,3.4-7.2,5.9-8.2l0,0c0.8-0.3,1.5-0.4,2.2-0.2C102.2,188.5,102.7,188.8,103.1,189.3L103.1,189.3z M100.3,201.5
			c0.9-0.2,2.5-0.5,3.4-0.8c0.7-0.2,1.6-0.4,2.4-0.9c-0.7,2.2-1.2,4.3-1.6,6.5c-0.2-0.1-0.4-0.2-0.5-0.4c-0.8-0.6-2.9-1.5-4-2.1
			c0.1-0.6,0.2-1.2,0.3-1.8l0,0l0,0l0,0l0,0l0,0l0,0l0,0l0,0l0,0l0,0l0,0l0,0l0,0l0,0l0,0l0,0l0,0l0,0l0,0l0-0.1l0,0l0,0l0,0l0,0
			l0,0l0,0l0,0l0,0l0,0L100.3,201.5L100.3,201.5L100.3,201.5L100.3,201.5L100.3,201.5L100.3,201.5z M98.3,205.6
			c0,0.2-0.1,0.5-0.1,0.7c-0.1,0.5-0.1,1.1-0.1,1.6c-0.2,1.5-0.3,3.1-0.2,4.5c0,1.2,0,2.4,0.1,3.5c-0.5-1-1.1-1.8-1.8-2.3
			c-0.8-0.7-1.8-1.1-2.7-1.1c-0.7,0-1.3,0.1-2,0.3c0.7-3.4,2.2-5.6,4-6.6c0.8-0.5,1.6-0.7,2.4-0.6C98,205.5,98.1,205.5,98.3,205.6
			L98.3,205.6z M99.1,222.8c0.4,1.6,0.9,3.1,1.4,4.5c-1-1.2-2.1-1.9-3.2-2.4c-1-0.4-2.1-0.5-3-0.3c-0.9,0.2-1.7,0.6-2.4,1.3
			c-1.4-2.7-3.1-4.3-4.9-5.1c0.5-2.9,2.7-7.9,6.4-7.6c0.8,0.1,1.5,0.4,2.2,0.9c0.9,0.8,1.9,2.1,2.5,4c0.2,1.5,0.4,2.8,0.7,4.2
			c0,0.1,0,0.2,0,0.2C99,222.7,99.1,222.8,99.1,222.8L99.1,222.8z M101.7,225.7c-0.7-2-1.3-4.3-1.7-6.7c0.7,0.1,6.2,0.5,8.5,1.3
			C108.1,222.8,103.2,225.1,101.7,225.7L101.7,225.7z M109.1,220.6c0.2,0.1,0.4,0.2,0.4,0.4c0.5,1.3-6.6,7-6.6,7
			c-0.4-0.5-0.7-1.1-1-1.7C103.4,225.6,108.4,223.3,109.1,220.6L109.1,220.6z M103.8,230.3c-0.1-0.2-0.2-0.3-0.3-0.5
			c0.4-0.2,0.8-0.7,1.1-0.9c0.8-0.6,1.5-1.3,2.2-1.9c0.3,0.7,0.6,1.4,0.9,2.1c-1.1,0.5-2.1,0.9-3.2,1.5c-0.2,0.1-0.3,0.2-0.5,0.3
			C104,230.7,103.9,230.5,103.8,230.3L103.8,230.3L103.8,230.3z M104,233.6c0.8,1,1.6,2,2.5,3c0,0.3,0,0.6,0,0.8
			c0,2,0.9,4.1,2.8,5.9c-3.2-1.2-6-1-7.9,0c-0.4,0.2-0.8,0.5-1.2,0.8c-0.9-2.3-2.2-4-3.5-5.1c0.1-0.1,0.1-0.2,0.1-0.3
			c0-0.5,0.1-0.9,0.2-1.3c0.1-0.5,0.3-0.9,0.5-1.4c0.7-1.3,1.8-2.3,3.6-2.6C101.8,233.3,102.8,233.3,104,233.6L104,233.6z
			 M107.3,237.3c1.7,1.6,3.6,3.1,5.6,4.3c-0.2,0.1-0.4,0.3-0.6,0.4c-0.6,0.5-1,1-1.4,1.6C108.4,241.8,107.3,239.5,107.3,237.3
			L107.3,237.3L107.3,237.3z M113.7,242.1c3.2,1.8,6.7,3.1,10.5,4c0.4,0.4,0.8,0.7,1.3,1.1c-3.3-0.2-5.8,0.8-7.4,2.2
			c-0.6,0.6-1.1,1.2-1.4,1.9c-3.2-0.9-5-2.6-5.4-4.4c-0.4-1.5,0.3-3.3,1.5-4.2C113.1,242.5,113.4,242.3,113.7,242.1L113.7,242.1z
			 M126,246.6c0.7,0.1,1.3,0.3,2,0.4c-0.2,0.2-0.4,0.3-0.6,0.5C126.9,247.1,126.4,246.9,126,246.6L126,246.6z M129.3,247.2
			c3.2,0.5,6.6,0.7,10.1,0.8c0.8,0.5,1.7,1,2.9,1.4c-3.7,0.8-6.2,2.3-7.5,4c-0.7,0.9-1,1.8-1.1,2.7l0,0.1c-0.4,0-0.8,0-1.1,0
			c-0.1,0-0.1-0.1-0.2-0.1c-3.2-0.6-5.1-1.9-5.8-3.3c-0.4-0.7-0.5-1.4-0.3-2.1c0.1-0.7,0.6-1.4,1.2-2.1c0.1-0.1,0.1-0.1,0.2-0.2
			c0.1,0,0.2-0.1,0.2-0.2C128.3,247.8,128.8,247.4,129.3,247.2L129.3,247.2z M141,247.9c0.9,0.4,1.9,0.8,3.2,1.1
			c0.3,0,0.7-0.1,1-0.1c0.1,0,0.2,0,0.3,0.1c0.2-0.4,0.4-0.8,0.6-1.2c-0.4,0-0.7,0-1,0.1C143.8,247.9,142.4,247.9,141,247.9
			L141,247.9z M146.9,245.7c-0.4-1.5-1.4-4.5-3.7-6.8c-1.6,1.4-4.2,6.7-4.2,6.7S143,246.2,146.9,245.7L146.9,245.7z M143.7,238.6
			c2.4,2.4,3.4,5.6,3.8,7.1c0.8-0.1,1.6-0.3,2.4-0.5C149.9,245.2,145.2,238.5,143.7,238.6C143.8,238.6,143.7,238.6,143.7,238.6
			L143.7,238.6z M147.3,247.7c0,0-0.1,0.1-0.1,0.1c-0.6,0.7-0.9,1.4-1.1,2.1c-0.1,0.7,0,1.4,0.3,2c0.7,1.3,2.3,2.4,4.9,2.9
			c1.4-2.4,2.9-4.6,4.6-6.8c0.3-0.4,0.6-0.8,1-1.2C154.5,247.1,150.2,247.4,147.3,247.7L147.3,247.7z M159.6,243.8
			c-0.9,0.5-1.7,1.1-2,1.1c-1,0.1-3.1,0.3-5.3,0.5c-0.4-0.5-0.9-0.9-1.1-1.2c-0.5-0.7-1-1.4-1.6-2.1c5.3-0.8,10.3-1.8,14.3-2.8
			C162.5,240.7,161,242.2,159.6,243.8L159.6,243.8z M100.8,199.7c0-0.2,0.1-0.5,0.1-0.7c0.4-1.5,0.9-3,1.4-4.4
			c0.1-0.2,0.1-0.3,0.1-0.3s3.4,3,3.1,3.8C105.2,198.9,100.8,199.7,100.8,199.7L100.8,199.7z M99.7,213.1c-0.1-0.6-0.1-1.1-0.1-1.7
			c1.2,0,4.3-0.3,5.7-1.5C104.6,211,99.7,213.1,99.7,213.1L99.7,213.1z M99.6,210.8c0.1-2.7,0.6-5,0.6-5s3.9,2.1,4.9,3.4
			C104.3,210.5,100.9,210.7,99.6,210.8L99.6,210.8z M112.6,238.5c-0.9-0.5-1.8-1-2.6-1.7c0.2-0.2,3.8-3.6,4-7.3
			C114.6,231.4,112.6,238.5,112.6,238.5L112.6,238.5z M109.5,236.4c-2.5-2.1-4.1-4.4-4.1-4.4s6.1-3.1,8-2.9
			C113.5,232.8,109.6,236.4,109.5,236.4C109.5,236.4,109.5,236.4,109.5,236.4L109.5,236.4z M124.3,244c-0.8-0.2-1.7-0.4-2.5-0.7
			c0.1-0.3,0.3-0.9,0.5-1.7c0.1,0,0.3,0.1,0.4,0.1v0c-0.1,0-0.3-0.1-0.4-0.1c0.4-1.8,0.7-4.4-0.3-6.4c0.2,0,0.3,0,0.4,0
			C123.7,235.8,124.3,244,124.3,244L124.3,244z M121.2,243.1c-3.5-1.2-6.6-2.9-6.6-2.9s4.5-3.9,6.7-4.8c1,1.9,0.7,4.4,0.3,6.1
			c-0.9-0.3-1.8-0.6-2.6-0.9l0,0c0.8,0.3,1.7,0.6,2.6,0.9C121.5,242.2,121.3,242.8,121.2,243.1L121.2,243.1z M136.9,245.8
			c-0.7,0-1.5,0-2.3,0c0-1-0.1-5-2.6-8c0.2-0.1,0.4-0.2,0.6-0.2C134,237.9,136.9,245.8,136.9,245.8L136.9,245.8z M134,245.7
			c-3.9-0.3-7.5-1.2-7.5-1.2s3.2-4.7,5.1-6.4C133.8,240.9,134,244.8,134,245.7L134,245.7z M103.9,212.9c0,1.6,0.1,3.2,0.4,4.9
			c-1.4-0.2-2.8-0.3-4.2-0.4c-0.1,0-0.2,0-0.3,0c0,0,0-0.1,0-0.1c-0.1-0.7-0.1-1.4-0.2-2.1l0,0c1.1-0.4,2.8-1.4,3.8-2
			C103.6,213.1,103.7,213,103.9,212.9L103.9,212.9z M114.4,238c0.1,0,0.1,0.1,0.2,0.1c-0.1,0.1-0.2,0.1-0.2,0.2
			C114.4,238.2,114.4,238.1,114.4,238L114.4,238z M125.8,242.4L125.8,242.4L125.8,242.4L125.8,242.4L125.8,242.4z M137.6,243.2
			l0.4,0C137.9,243.2,137.8,243.2,137.6,243.2L137.6,243.2L137.6,243.2z M137.6,243.2c0.2,0,0.4,0,0.6,0l0,0l0.1,0
			c-0.2,0.3-0.3,0.6-0.4,0.9C137.8,243.7,137.7,243.4,137.6,243.2L137.6,243.2z M146.4,271.6c0-1.8,0.2-3.6,0.5-5.4
			c-1.4-0.5-2.4-1.2-3-2c-0.6-0.8-0.8-1.6-0.8-2.5c0-0.1,0-0.1,0-0.2c-5.1,0.5-8.6,2.4-10.2,4.4c-0.6,0.7-0.9,1.5-1,2.2
			c-0.1,0.7,0.1,1.4,0.6,2c0.6,0.9,1.8,1.6,3.5,2c3.1,0,6.2-0.1,9.3-0.5C145.5,271.6,145.9,271.6,146.4,271.6L146.4,271.6z
			 M133.6,272.1c-6-0.2-11.9-1-17.5-2.4c-1.8-1-2.8-2.3-3.3-3.5c-0.3-0.8-0.3-1.6,0-2.3c0.2-0.8,0.7-1.5,1.5-2
			c1.8-1.4,4.9-2.2,9.1-1.5c-0.2,0.5-0.4,1-0.4,1.5c-0.1,0.9,0.1,1.7,0.5,2.5c1,1.8,3.5,3.4,7.5,3.6c0,0,0.1,0,0.1,0
			c0,0.1,0,0.2,0,0.3c-0.1,0.9,0.2,1.8,0.7,2.5C132.3,271.2,132.9,271.6,133.6,272.1L133.6,272.1z M113.9,269
			c-3.6-1-7.1-2.3-10.3-3.9c1.9-1,4.7-1.4,8.3-0.7c-0.1,0.6,0,1.3,0.2,2C112.4,267.3,113,268.2,113.9,269L113.9,269z M96.1,261
			c-1-0.7-2-1.4-3-2.1c1.2,0.8,2.5,1.6,2.7,1.5C95.9,260.6,96,260.8,96.1,261L96.1,261z M90,256.3c-4.4-3.9-8-8.6-10.7-14l0,0
			c0.8-0.3,1.6-0.3,2.6-0.1c2.3,0.6,5,2.7,7.1,6.8c0.1,0.2,0.3,0.3,0.5,0.2c-0.3,0.3-0.5,0.7-0.7,1.1c-0.4,0.8-0.5,1.7-0.4,2.7
			C88.6,254,89.1,255.2,90,256.3L90,256.3z M78.9,241.5c-0.1-0.2-0.2-0.5-0.3-0.7C78.7,241,78.9,241.2,78.9,241.5L78.9,241.5
			L78.9,241.5z M77.3,237.5c-1.4-4-2.3-8.3-2.7-13c0.1,0,0.2,0,0.3,0.1c2.1,0.5,4.2,2.5,5.4,6.5c0,0,0,0.1,0,0.1
			c-0.4,0.3-0.8,0.7-1.2,1.2c-1,1.4-1.5,3.5-1.1,6C77.8,238.1,77.5,237.8,77.3,237.5L77.3,237.5z M74.5,217.1c0-0.3,0-0.6,0-0.9
			c0.2-3.1,0.6-5.7,1.2-8.4c1.3,1.1,2.4,3,3,5.9c-0.7,0.2-1.4,0.5-2,0.9C75.9,215.2,75.1,216,74.5,217.1L74.5,217.1z M74.4,219.7
			c0.5-2,1.5-3.5,2.8-4.4c1.5-1,3.5-1.3,5.1-0.5c1.7,0.8,3.2,2.7,3.9,5.8c-0.9-0.2-1.8-0.2-2.6,0c-0.9,0.3-1.8,0.8-2.4,1.7
			c-1,1.2-1.6,3.1-1.5,5.4c-1.3-2.2-3-3.5-4.6-3.9c-0.2,0-0.3-0.1-0.5-0.1C74.5,222.3,74.4,221,74.4,219.7L74.4,219.7z M97.9,262.2
			c-0.8-1-1.3-2-1.5-3c-0.2-0.9-0.1-1.8,0.2-2.6c0.3-0.8,0.8-1.5,1.6-2c1.7-1.3,4.6-1.7,8.5-0.5c0,0,0,0,0.1,0
			c-0.4,0.5-0.6,1-0.8,1.5c-0.3,0.9-0.3,1.9,0.1,2.8c0.7,2,2.6,3.9,6,5.2l0,0c-4.1-0.7-7.3-0.1-9.4,1.1
			C101,263.9,99.4,263.1,97.9,262.2L97.9,262.2z M147.1,265.4c0.3-1.2,0.6-2.4,1-3.6c0.7-1.9,1.5-3.8,2.5-5.6
			c-2.7,0.8-4.6,2-5.6,3.4c-0.6,0.7-0.9,1.5-0.9,2.2c-0.1,0.7,0.1,1.4,0.6,2C145.1,264.4,145.9,265,147.1,265.4L147.1,265.4z
			 M109.6,232.5c-0.1-0.2-0.3-0.4-0.4-0.7C109.4,232.1,109.5,232.3,109.6,232.5L109.6,232.5z M102.5,232.5c-0.6,0-1.2,0-1.7,0.1
			c-2.1,0.3-3.5,1.5-4.2,3.1c-0.2,0.5-0.4,1-0.6,1.5l0,0c-0.1,0.4-0.2,0.8-0.2,1.3c-0.6-0.4-1.1-0.6-1.7-0.8
			c-0.6-0.2-1.1-0.3-1.7-0.3c0-0.1,0-0.1,0-0.2c-0.5-1.1-1.1-2-1.8-2.8c0.1-0.1,0.2-0.2,0.2-0.4c-0.5-3.4,0.2-5.9,1.6-7.3
			c0.6-0.6,1.3-1.1,2.1-1.2c0.8-0.2,1.7-0.1,2.5,0.3C99.1,226.5,101.2,228.7,102.5,232.5L102.5,232.5z M102.4,252.4
			c-2.2-1.5-4.3-4.5-2.5-7.2c0.4-0.6,1.5-1.1,1.8-1.2c2-1.1,5.2-1.1,8.8,0.7c-0.2,0.8-0.2,1.6,0,2.4c0.4,1.6,1.7,3.1,3.8,4.2
			c-3-0.1-5.3,0.6-6.8,1.8c-0.1,0.1-0.3,0.2-0.4,0.4c0-0.1-0.1-0.2-0.3-0.3C105.2,252.7,103.7,252.5,102.4,252.4
			C102.4,252.5,102.4,252.5,102.4,252.4L102.4,252.4z M99.5,244.8c-0.1,0.1-0.2,0.3-0.3,0.4c-0.5,0.8-0.8,1.6-0.8,2.5
			c0,0.2,0,0.3,0,0.5c-3.2-1.3-6-1.1-7.8,0.1c-0.3,0.2-0.6,0.4-0.9,0.7c0-0.1,0-0.2,0-0.3c-0.4-0.8-0.9-1.6-1.4-2.3c0,0,0,0,0-0.1
			c-0.8-3.1-0.1-5.5,1.2-6.8c0.6-0.6,1.2-0.9,2-1.1c0.8-0.2,1.6-0.1,2.4,0.1C96,239.1,98.2,241.1,99.5,244.8L99.5,244.8z
			 M95.6,259.4c-4.2-2-6.1-4.4-6.4-6.5c-0.1-0.8,0-1.6,0.3-2.3c0.3-0.7,0.8-1.2,1.5-1.7c1.7-1.1,4.4-1.2,7.6,0.2
			c0.4,1.2,1.2,2.4,2.5,3.4c-1.4,0.2-2.5,0.6-3.4,1.3c-0.9,0.6-1.5,1.5-1.9,2.4C95.5,257.2,95.4,258.2,95.6,259.4
			C95.6,259.3,95.6,259.3,95.6,259.4L95.6,259.4z M112.3,262.8c-3.2-1.2-5-3-5.5-4.7c-0.3-0.8-0.3-1.6-0.1-2.3
			c0.2-0.7,0.7-1.4,1.4-2c1.6-1.3,4.4-2,8.3-1.4c-0.2,0.9-0.2,1.8,0.1,2.6c0.4,1.6,1.6,3.1,3.7,4.2c-2.8,0.1-5,0.8-6.4,2
			C113.1,261.6,112.6,262.2,112.3,262.8L112.3,262.8z M117.4,251.9c0.3-0.7,0.7-1.3,1.3-1.9c1.6-1.5,4.3-2.4,7.9-1.9
			c-0.6,0.7-1,1.4-1.2,2.2c-0.2,0.9-0.1,1.8,0.4,2.7c0.7,1.3,2.1,2.4,4.3,3.2c-3,0.4-5,1.6-6.2,3c0,0.1-0.1,0.1-0.1,0.2
			c-0.5-0.1-1-0.1-1.4-0.2c0,0,0,0-0.1,0c-3-1-4.6-2.7-5.1-4.5c-0.2-0.8-0.2-1.6,0-2.4c0.1-0.1,0.1-0.2,0.2-0.3
			C117.5,252,117.5,252,117.4,251.9L117.4,251.9z M131.4,267.1c-0.1-0.1-0.1-0.1-0.2-0.1c-3.7-0.2-5.9-1.5-6.9-3.2
			c-0.4-0.6-0.5-1.3-0.4-2c0.1-0.7,0.3-1.4,0.8-2c1.4-1.8,4.5-3.1,9.1-2.8c0.1,0.6,0.4,1.2,0.8,1.7c0.9,1.2,2.6,2.2,5,2.7
			c-3.5,0.9-6,2.4-7.3,4.1C131.9,265.9,131.6,266.5,131.4,267.1L131.4,267.1z M150.3,255.4c-2.4-0.6-3.9-1.8-4.6-3.2
			c-0.4-0.8-0.5-1.7-0.4-2.6l0,0c-0.3,0-0.7,0.1-1,0.1c0,0-0.1,0-0.1,0c-4.4,0.6-7.4,2.2-8.7,4c-0.6,0.7-0.9,1.5-0.9,2.2
			c0,0.7,0.2,1.4,0.7,2.1c1,1.4,3.2,2.4,6.6,2.6c0.1,0,0.2,0,0.2,0.1c0.4-0.1,0.9-0.1,1.3-0.2c0.2-0.6,0.5-1.1,0.9-1.6
			C145.4,257.6,147.4,256.3,150.3,255.4L150.3,255.4z M98.2,204.7c-0.1,0-0.1,0-0.2,0c-1-0.1-1.9,0.2-2.8,0.7c-1.7,1-3.2,3-4.1,6
			c-0.5-3.1-1.8-5.1-3.4-6c-0.8-0.5-1.6-0.7-2.5-0.7c1.1-3.4,3.3-5.7,5.6-6.6c0.7-0.3,2.1-0.6,2.9-0.5c0.9,0.1,1.8,0.4,2.5,1.1
			c1.2,1.1,2.1,2.9,2.1,5.6c0,0.1,0,0.1,0,0.2C98.2,204.5,98.2,204.6,98.2,204.7L98.2,204.7z M82.6,206.3c1.3-0.9,3.2-1.1,4.6-0.2
			c1.7,1,3.1,3.3,3.2,7.3c-1.6,1.1-3,3-3.8,5.8c-0.8-2.6-2.3-4.3-4-5.1c-0.9-0.4-1.9-0.6-2.8-0.6C79.6,210,80.9,207.5,82.6,206.3
			L82.6,206.3z M83.8,221.4c3.4-1,6.3,2.7,7.6,5.2c-1.1,1.5-1.8,3.9-1.4,6.9c-1.7-1.9-3.5-2.9-5.2-3.2c-1.1-0.2-2.2-0.2-3.2,0.2
			c-0.2,0.1-0.4,0.2-0.6,0.3c-0.1-0.4-0.2-0.7-0.4-1c0-0.1,0-0.1,0-0.2c-0.4-3.1,0.1-5.3,1.2-6.7C82.4,222.1,83.1,221.6,83.8,221.4
			L83.8,221.4z M87.2,244.8c-1.7-2-3.5-3.1-5.2-3.5c-0.8-0.2-1.6-0.2-2.3-0.1c-0.2-0.4-0.4-0.7-0.6-1c0-0.1,0-0.2,0-0.2
			c-1-3.1-0.6-5.6,0.5-7.2c0.5-0.7,1.3-1.3,2.1-1.6c0.8-0.3,1.8-0.4,2.8-0.2c2.4,0.5,5,2.5,7.1,6.4c-0.1,0-0.2,0-0.3,0.1
			c-0.9,0.2-1.7,0.6-2.4,1.3C87.7,240.1,86.9,242.2,87.2,244.8L87.2,244.8z M302.9,231.8c1.4,0.3,2.7,0.7,3.9,1.2
			c0.4,0.9,0.8,1.7,1.2,2.4c0,0,0,0.1,0,0.1c0.7,3.6,0,6.1-1.4,7.4c-0.6,0.6-1.3,0.9-2.1,1c-0.1,0-0.3,0-0.4,0
			C304,239.9,303.6,235.8,302.9,231.8L302.9,231.8z M304,245.3c0.1,0.3,0.2,0.5,0.3,0.8c0.3,2.8-0.1,4.9-0.9,6.4
			C303.8,250.1,304,247.7,304,245.3L304,245.3z M303.3,254.2L303.3,254.2c1.2-1.3,2-3.4,2-6.3c2,3.6,4.3,5.7,6.5,6.4
			c1.1,0.4,2.2,0.5,3.2,0.2c0.1,0,0.2,0,0.2-0.1c0.1,0.4,0.2,0.9,0.3,1.3c0,0.1,0,0.1,0,0.2c0.4,3.7-0.4,6.2-1.7,7.6
			c-0.6,0.6-1.3,1-2.1,1.1c-0.8,0.1-1.7-0.1-2.6-0.6c0,0-0.1,0-0.1-0.1c-0.1-0.1-0.2-0.1-0.3-0.2c-2.1-1.3-4.2-4.2-5.6-8.7
			C303.2,254.8,303.2,254.5,303.3,254.2L303.3,254.2z M302.8,256.8c1.4,3.9,3.4,6.4,5.4,7.7c-0.8,3.8-2.4,6.1-4.2,7.1
			c0,0-0.1,0-0.1,0c-0.2,0-0.3,0.1-0.4,0.3c-0.7,0.3-1.4,0.4-2,0.3c-0.8-0.1-1.7-0.5-2.4-1.2c-0.3-0.3-0.5-0.5-0.8-0.9
			C300.3,265.8,301.8,261.4,302.8,256.8L302.8,256.8z M297.8,270.9c0.2,0.2,0.4,0.5,0.6,0.7c0.9,0.8,1.9,1.3,2.9,1.4
			c0.6,0.1,1.2,0.1,1.8-0.1c-0.8,3.6-2.4,5.9-4.2,6.8c-0.8,0.5-1.7,0.6-2.5,0.5c-0.2,0-0.5-0.1-0.7-0.2c0-0.2-0.2-0.3-0.4-0.3
			c-0.1,0-0.2,0-0.3,0.1c-0.4-0.2-0.7-0.5-1.1-0.8c-0.2-0.2-0.5-0.5-0.7-0.7c0.6-0.8,1.2-1.7,1.7-2.5
			C296,274.2,297,272.6,297.8,270.9L297.8,270.9z M292.8,279c-2.2,2.9-4.6,5.6-7.3,8c0.3,0.2,0.6,0.3,0.9,0.4
			c0.7,0.2,1.4,0.3,2.2,0.1c0.1-0.2,0.3-0.2,0.5-0.2c0,0,0.1,0,0.1,0c2-0.7,4.1-2.7,5.7-6.2c0-0.2,0-0.4,0-0.6c-0.5-0.2-1-0.6-1.4-1
			C293.2,279.4,293,279.2,292.8,279L292.8,279z M305.6,301.8L305.6,301.8c-0.7-0.2-1.3-0.6-1.9-1.2c-1.7-1.7-2.8-4.9-2.4-9.5
			c1,0.1,2.1-0.1,3.1-0.4c2.2-0.8,4.2-2.6,5.5-5.4c-0.1,3.8,1.1,6.8,2.8,8.5c0.1,0.1,0.3,0.3,0.4,0.4
			C310.6,297,308,299.6,305.6,301.8L305.6,301.8z M313.6,293.4c-0.1-0.1-0.3-0.2-0.4-0.4c-1.8-1.9-3-5.2-2.4-9.7
			c0.8-0.1,1.6-0.3,2.4-0.8c1.6-1,2.8-3,3.2-5.9c0.8,3.2,2.2,5.3,3.9,6.5c0.1-0.2,0.2-0.4,0.3-0.6c-0.7,1.5-1.5,3-2.4,4.4
			C316.8,289.2,315.2,291.4,313.6,293.4L313.6,293.4z M320.7,282.4c-1.8-1.3-3.3-4-3.9-8.1c0.9-0.1,1.8-0.4,2.6-0.9
			c1.6-1.1,2.8-2.9,3.3-5.7c0.4,1.4,1,2.5,1.6,3.5c0.1-0.4,0.1-0.7,0.2-1.1C323.9,274.1,322.6,278.3,320.7,282.4L320.7,282.4z
			 M324.5,269.9c-0.8-1.5-1.5-3.5-1.8-6c0.5,0.1,1.1,0,1.6-0.1c0.2-0.1,0.5-0.1,0.7-0.2c0-0.3,0-0.6,0-0.9c-0.3,0.1-0.6,0.2-0.9,0.3
			c-0.8,0.2-1.6,0.1-2.4-0.2c-2.3-0.9-4.6-3.6-5.8-8.6c0.6-0.3,1.1-0.8,1.5-1.3c1.1-1.4,1.6-3.7,1.2-6.6c1.4,2.3,2.9,4,4.4,5.1
			C324.9,256.9,325.5,263.3,324.5,269.9L324.5,269.9z M322.5,249.8c-1.7-1.6-3.4-4-4.8-7.3c0,0,0.1,0,0.1,0c0.2-0.1,0.5-0.1,0.7-0.2
			C320.1,244.5,321.5,247.1,322.5,249.8L322.5,249.8z M318.3,242l-0.1-0.1C318.2,241.9,318.3,242,318.3,242L318.3,242z M317.9,241.6
			c-0.1,0-0.2,0.1-0.3,0.1c-0.8,0.2-1.7,0.1-2.6-0.3c-2.3-0.9-5-3.5-7-8C311.9,235.3,315.3,238.1,317.9,241.6L317.9,241.6z
			 M324.4,324.6c-1-2.5,0.2-6.7,1.4-6.6c1.2,0.1,5.1,5.7,4.7,6.6C330,325.6,324.4,324.6,324.4,324.6L324.4,324.6z M308.9,325.2
			c-1-2.5,0.2-6.7,1.4-6.6c1.2,0.1,5.1,5.7,4.7,6.6C314.6,326.2,308.9,325.2,308.9,325.2L308.9,325.2z M291.1,325.2c0,0,6.8,1,7.2,0
			c0.5-1-4.2-6.5-5.6-6.6C291.3,318.5,289.9,322.7,291.1,325.2L291.1,325.2z M263,139.3c2.4-0.1,5-0.9,7.5-2.6
			c8.5-5.9,8-12.6,13.4-16.4c4.7-3.3,15,5.4,23.6,19.8c-1.1,0.6-2.2,1.2-3.3,1.7c-4.4-7.8-8.8-13-11.1-14.4c-4-2.4-6.6-0.8-9.3,2.4
			c-2.4,1.9-4.2,5.7-6.6,8.2c-2.6,2.7-5.2,4.6-7.9,5.9c-0.2-0.1-0.5-0.2-0.7-0.4C266.8,142.7,264.9,141.1,263,139.3L263,139.3z
			 M270.5,144.6c3.6-1.8,6.8-4.4,9.9-8.1c1.8,3,3.6,6.4,5.3,9.9c-2.1,0.2-4.1,0.3-6.1,0.3c-3.1-0.1-5.9-0.6-8.8-1.9
			C270.8,144.7,270.7,144.6,270.5,144.6L270.5,144.6z M287,146.2c-2.2-4.3-4.3-7.9-6.1-10.3c2.3-2.9,4.1-7.1,7.7-5.1
			c4,2.2,7.4,7,10.3,13c-1.4,0.4-2.8,0.8-4.3,1.1C292.2,145.4,289.6,145.9,287,146.2L287,146.2z M301,143.1
			c-3.2-6.4-7.1-11.5-11.5-13.9c-1.3-0.7-2.4-0.8-3.4-0.6c1.9-1.6,3.9-2.1,6.6-0.5c2.2,1.3,6.5,6.4,10.8,14
			C302.6,142.5,301.8,142.8,301,143.1L301,143.1z M318.7,173.2c1,9.2,0.2,16.1-1.6,17.1c-0.6,0.3-1,0.4-1.4,0.4
			c0.5-5.6,0.3-11.2-0.4-16.5C316.4,173.9,317.5,173.6,318.7,173.2L318.7,173.2z M314.5,174.4c0.7,5.2,0.9,10.5,0.4,16
			c-0.7-0.6-1-2-1.2-3.8c-0.6-4.3-0.9-7.1-2-11.5C312.6,174.8,313.5,174.6,314.5,174.4L314.5,174.4z M309.1,175.5l0,0.2
			c-0.1-0.1-0.2-0.1-0.3-0.2C309,175.5,309,175.5,309.1,175.5L309.1,175.5z M297.2,176.3c0.2,0.5,0.4,1.5,0.6,2.1
			c-0.7,1.7-1.1,2.3-4.8-2.4C294.4,176.2,295.8,176.3,297.2,176.3L297.2,176.3z M271.3,170c-0.2,0.1-0.5,0.3-0.7,0.5
			c-0.2-0.4-0.4-0.7-0.5-1.1C270.5,169.6,270.9,169.8,271.3,170L271.3,170z M169,130.1c-0.8-0.9-1.7-1.5-3.1-1.8
			c-4-0.7-10.1,4.7-15.9,12.4c-6.4,8.5-12.5,20-15.2,29.3c-3.2,11.2-2.7,15.7-2.5,18.1c0.1,0.8,0.1,1.4,0.1,1.9
			c2.1-0.2,2.3-4.5,2.4-8.8c0-1,0.3-2,0.7-2.9c0-0.1,0.1-0.2,0.1-0.3c4.1-15.4,13-38.5,27.3-47C165.7,129.2,167.5,129.2,169,130.1
			L169,130.1z M180.7,142.6c-2.4-1.4-4.7-3.2-7-5.6c-1-1-1.8-1.9-2.5-2.8c-4.1,7.7-7.9,21-9.8,30.4c3.4-3.2,8.5-5.5,15-2.9
			C176.8,158.8,178.9,147.4,180.7,142.6L180.7,142.6L180.7,142.6z M263.8,32.1L263.8,32.1c-0.5,0.5-0.9,0.9-1.4,1.3
			c-3.6-5-7.9-9.4-13-12.6c0.5-0.3,0.9-0.5,1.4-0.9c2.6,0.4,5.6,1.9,8,4.2C261.1,26.2,262.9,28.9,263.8,32.1L263.8,32.1z M252.2,19
			c1.3-1,2.7-2.2,4-3.7c2-0.3,4.5-0.1,6.9,0.9c2.4,0.9,4.6,2.5,6.3,4.8c-0.4,3.5-1.8,7-4.6,10.1c-1-3.1-2.9-5.8-5-7.8
			C257.4,21.1,254.8,19.6,252.2,19L252.2,19z M257.2,13.9c0.2-0.3,0.4-0.6,0.6-0.9c0.8-1.3,1.3-2.7,1.6-4.1c0.9-0.4,2-0.7,3.1-0.8
			c1.5-0.1,3.1,0.1,4.6,0.8c1.4,2.9,2.4,6.5,2.3,10.2c-1.7-1.9-3.8-3.3-6-4.1C261.4,14.1,259.2,13.8,257.2,13.9L257.2,13.9z
			 M259.7,7.4c0.1-0.6,0.2-1.2,0.3-1.7c0.7-4.1,1.8-4,4.3-1.2c0.7,0.8,1.4,1.7,2,2.7c-1.3-0.4-2.6-0.5-3.8-0.4
			C261.5,6.9,260.6,7.1,259.7,7.4L259.7,7.4z M163.5,39c-0.2-0.1-0.3-0.3-0.5-0.4c-4-3.2-6.4-7-7.7-11c0,0,0-0.1,0.1-0.1
			c1.4-3.2,3.8-5.6,6.4-7.3c2.8-1.8,5.8-2.8,8.5-2.8c1.8,1.6,3.6,2.8,5.4,3.7c-2.9,1.4-5.7,3.8-7.9,6.9
			C165.5,31.2,163.9,34.9,163.5,39L163.5,39z M177,21.9c2.7,1.3,5.2,2,7.1,2.8c-2.4,1.9-4.6,4.1-6.5,6.6c-2.9,3.7-5,7.7-6.5,11.9
			c-1.8-0.5-4-1.6-6.4-3.3c0.2-4.2,1.8-8,4-11.1C171,25.5,174,23.1,177,21.9L177,21.9z M154.8,25.9c-1.1-4.7-0.7-9.5,0.5-13.5
			c1.6-1.1,3.3-1.7,5-1.9c1.7-0.2,3.4-0.1,4.8,0.4c0.5,1.2,1.1,2.4,2,3.5c0.6,0.7,1.1,1.3,1.7,1.9c-2.6,0.2-5.4,1.2-7.9,2.9
			C158.6,20.8,156.3,23,154.8,25.9L154.8,25.9z M155.9,10.5c0.5-1.4,1.1-2.8,1.8-3.9c2.2-3.8,4.3-6.4,6-0.6c0.3,1,0.6,2.2,1,3.4
			c-1.4-0.3-2.9-0.4-4.5-0.2C158.7,9.4,157.3,9.8,155.9,10.5L155.9,10.5z M198.7,16.1c-0.9-0.8-1.9-1.5-3.1-1.6
			c-1.3-5.2,3.3-4.1,5.5-3.3c1.4,1.3,2,2.8,2.3,3.8C201.8,15.1,200.2,15.5,198.7,16.1L198.7,16.1z M202.1,10.9
			c-0.3-2-0.7-7.8,4.6-7.3c4.4,0.4,6.7,3.8,7.8,6c0.7,2.7,0.3,5.2,0.1,6.3c-3.5-0.9-7-1.4-10.3-1.1C204,13.9,203.4,12.3,202.1,10.9
			L202.1,10.9z M215.5,10.6c0.9-1.8,3.3-6.2,6.9-4.6c3.4,1.5,3.9,7,3.9,9.5c-0.5,2.3-1.2,3.8-1.5,4.5c-3.1-1.7-6.3-3-9.5-4
			C215.5,15.1,215.9,13,215.5,10.6L215.5,10.6z M295.6,280.9c0.2,0.1,0.4,0.1,0.7,0.1c1,0.1,2.1-0.1,3-0.6c1.7-0.9,3.3-2.9,4.2-6
			c0.4,4,1.9,6.6,3.8,7.9c0.7,0.5,1.5,0.8,2.3,0.9c-1.2,3.5-3.4,5.6-5.6,6.4c-1,0.3-1.9,0.5-2.9,0.4c-0.1-0.1-0.2-0.1-0.3-0.1
			c-0.1,0-0.2,0-0.2,0c-1-0.2-1.9-0.7-2.7-1.4c-1.5-1.4-2.5-3.9-2.4-7.3c0-0.1,0-0.1,0-0.2C295.6,281.1,295.6,281,295.6,280.9
			L295.6,280.9z M300.4,290.8c-1.1-0.2-2.1-0.8-3-1.5c-1.4-1.3-2.5-3.4-2.7-6.3c-1.6,2.9-3.6,4.6-5.6,5.2c-1,4.4-0.6,7.6,0.6,9.4
			c0.5,0.8,1.2,1.3,1.9,1.5c0.7,0.2,1.6,0.2,2.4-0.1c2-0.7,4.3-2.9,5.9-6.7c0.1-0.1,0.2-0.2,0.3-0.2
			C300.3,291.7,300.4,291.3,300.4,290.8L300.4,290.8z M310,282.5c-0.7-0.1-1.5-0.3-2.1-0.8c-2-1.4-3.6-4.4-3.5-9.3c0,0,0.1,0,0.1,0
			c1.7-0.9,3.3-2.9,4.2-6c0.8,3.5,2.6,5.8,4.6,7c0.8,0.5,1.7,0.8,2.6,0.8c0.1,3.9-1.2,6.4-3,7.6c-0.7,0.4-1.4,0.7-2.2,0.7
			c-0.1-0.1-0.1-0.1-0.2-0.1C310.2,282.4,310.1,282.4,310,282.5L310,282.5z M316.1,273.4c-0.8,0-1.7-0.3-2.5-0.7
			c-2-1.2-3.8-3.7-4.4-7.7c0.9,0.4,1.8,0.5,2.6,0.5c1-0.1,1.9-0.6,2.7-1.3c1.2-1.2,1.9-3.2,2-6c1.4,3,3.2,4.7,5,5.4
			c0.1,0.1,0.3,0.1,0.4,0.1c0.1,0.6,0.2,1.1,0.3,1.6c0,0,0,0,0,0.1c-0.1,3.6-1.4,6.1-3.2,7.2c-0.7,0.5-1.5,0.8-2.4,0.8
			c-0.1-0.1-0.2-0.1-0.3-0.1C316.2,273.4,316.1,273.4,316.1,273.4L316.1,273.4z M309,237.2c1.8,2.7,3.8,4.3,5.6,5
			c0.8,0.3,1.5,0.4,2.2,0.4c0.2,0.5,0.4,0.9,0.6,1.4c0,0.1,0,0.2,0,0.2c0.9,3.8,0.5,6.5-0.7,8.1c-0.5,0.7-1.2,1.2-2,1.4
			c-0.8,0.2-1.7,0.2-2.7-0.2c-2.3-0.8-4.8-3.3-6.9-7.7c0,0,0-0.1-0.1-0.1c-0.1-0.3-0.3-0.7-0.4-1c0,0,0,0,0-0.1
			c0.9-0.1,1.8-0.6,2.5-1.2C308.5,242.2,309.2,240.1,309,237.2z"/>
	</g>
</g>
</svg>
