<?xml version="1.0" encoding="UTF-8"?>
<svg id="Layer_1" data-name="Layer 1" xmlns="http://www.w3.org/2000/svg" xmlns:xlink="http://www.w3.org/1999/xlink" viewBox="0 0 1432.5150588 1177.2811873">
  <defs>
    <style>
      .cls-1 {
        fill: #fed45e;
      }

      .cls-2 {
        fill: url(#linear-gradient-4);
      }

      .cls-3 {
        fill: url(#linear-gradient-3);
      }

      .cls-4 {
        fill: url(#linear-gradient-2);
      }

      .cls-5 {
        fill: url(#linear-gradient);
      }

      .cls-6 {
        fill: #c64707;
      }

      .cls-7 {
        fill: #e5e5e5;
      }

      .cls-8 {
        fill: #020101;
      }

      .cls-9 {
        fill: #bcecbc;
      }

      .cls-10 {
        fill: #fff;
      }

      .cls-11 {
        fill: #8fce88;
      }

      .cls-12 {
        fill: #8d79c3;
      }

      .cls-13 {
        fill: #c0aedf;
      }

      .cls-14 {
        fill: #ec7549;
      }

      .cls-15 {
        fill: #fcfcfc;
      }

      .cls-16 {
        fill: #f7b77a;
      }
    </style>
    <linearGradient id="linear-gradient" x1="716.1571902" y1="48.9686373" x2="716.1571902" y2="822.1901274" gradientUnits="userSpaceOnUse">
      <stop offset=".25" stop-color="#ffab2a"/>
      <stop offset=".3703725" stop-color="#ff8e1e"/>
      <stop offset=".4906547" stop-color="#ff7915"/>
      <stop offset=".6090476" stop-color="#ff6d10"/>
      <stop offset=".72332" stop-color="#ff690f"/>
      <stop offset=".8417779" stop-color="#ff8e1e"/>
      <stop offset=".9398469" stop-color="#ffa728"/>
      <stop offset="1" stop-color="#ffb02c"/>
    </linearGradient>
    <linearGradient id="linear-gradient-2" x1="568.8140511" y1="3272.7248317" x2="856.0422338" y2="3272.7248317" gradientTransform="translate(0 3729.0408903) scale(1 -1)" gradientUnits="userSpaceOnUse">
      <stop offset=".42728" stop-color="#ffb02c"/>
      <stop offset=".72332" stop-color="#ff690f"/>
    </linearGradient>
    <linearGradient id="linear-gradient-3" x1="-785.1094874" y1="-4411.2311751" x2="-660.14514" y2="-4582.8455571" gradientTransform="translate(3270.1127684 -832.7254646) rotate(45.1135815) scale(.83553 -.606)" gradientUnits="userSpaceOnUse">
      <stop offset=".4" stop-color="#ffb02c"/>
      <stop offset=".8" stop-color="#ff690f"/>
    </linearGradient>
    <linearGradient id="linear-gradient-4" x1="-2150.0668601" y1="-6305.7921605" x2="-2025.1025127" y2="-6477.4065425" gradientTransform="translate(-3458.1232726 -832.7254646) rotate(134.8864185) scale(.83553 .606)" xlink:href="#linear-gradient-3"/>
  </defs>
  <g>
    <path class="cls-8" d="M114.4413673,953.0424178v142.7416992c0,10.4921875.2441406,22.4482422.9760742,30.5004883h-19.2763672l-.9760742-20.4960938h-.487793c-6.5883789,13.1757812-20.984375,23.1801758-40.2607422,23.1801758-28.5483398,0-50.5087891-24.15625-50.5087891-60.0249023-.2436523-39.284668,24.15625-63.440918,52.9487305-63.440918,18.0561523,0,30.2563477,8.5400391,35.6245117,18.0561523h.4882812v-70.5166016h21.472168ZM92.9691993,1056.2557967c0-2.684082-.2441406-6.3442383-.9760742-9.0283203-3.1723633-13.6640625-14.8842773-24.8881836-30.9882812-24.8881836-22.2045898,0-35.3808594,19.5200195-35.3808594,45.628418,0,23.9125977,11.7124023,43.6767578,34.8925781,43.6767578,14.3959961,0,27.5722656-9.5161133,31.4765625-25.6206055.7319336-2.9277344.9760742-5.855957.9760742-9.2719727v-20.4960938Z"/>
    <path class="cls-8" d="M256.9359962,1066.259703c0,43.6767578-30.2563477,62.7089844-58.8046875,62.7089844-31.9643555,0-56.6088867-23.4243164-56.6088867-60.7568359,0-39.5283203,25.8642578-62.7089844,58.5610352-62.7089844,33.9165039,0,56.8525391,24.6445312,56.8525391,60.7568359ZM163.2387306,1067.4799178c0,25.8642578,14.8842773,45.3842773,35.8686523,45.3842773,20.4960938,0,35.8686523-19.2758789,35.8686523-45.8725586,0-20.0083008-10.0043945-45.3842773-35.3808594-45.3842773-25.3759766,0-36.3564453,23.4243164-36.3564453,45.8725586Z"/>
    <path class="cls-8" d="M368.1986915,1121.8925155c-5.6118164,2.9282227-18.0561523,6.8320312-33.9160156,6.8320312-35.6245117,0-58.8051758-24.15625-58.8051758-60.2685547,0-36.3564453,24.8886719-62.7089844,63.440918-62.7089844,12.6884766,0,23.9125977,3.171875,29.7685547,6.1000977l-4.8803711,16.5922852c-5.1240234-2.9282227-13.1757812-5.6123047-24.8881836-5.6123047-27.0844727,0-41.7246094,20.0083008-41.7246094,44.652832,0,27.328125,17.5683594,44.1645508,40.9926758,44.1645508,12.2001953,0,20.2524414-3.171875,26.3525391-5.855957l3.659668,16.1040039Z"/>
    <path class="cls-8" d="M393.3290626,953.0424178h21.4726562v173.2421875h-21.4726562v-173.2421875Z"/>
    <path class="cls-8" d="M474.8236915,975.0023787c.2441406,7.3203125-5.1240234,13.1762695-13.6640625,13.1762695-7.5644531,0-12.9321289-5.855957-12.9321289-13.1762695,0-7.5639648,5.6118164-13.4199219,13.4199219-13.4199219,8.0522461,0,13.1762695,5.855957,13.1762695,13.4199219ZM450.9110939,1126.2846053v-118.0976562h21.4726562v118.0976562h-21.4726562Z"/>
    <path class="cls-8" d="M508.0058204,1040.1513045c0-12.2001953-.2436523-22.2041016-.9755859-31.9643555h19.0322266l1.2197266,19.5205078h.4882812c5.855957-11.2241211,19.5200195-22.2045898,39.0405273-22.2045898,16.3481445,0,41.7246094,9.7602539,41.7246094,50.2646484v70.5170898h-21.4726562v-68.0771484c0-19.0322266-7.0756836-34.8920898-27.328125-34.8920898-14.1523438,0-25.1323242,10.0039062-28.7924805,21.9599609-.9760742,2.684082-1.4638672,6.3442383-1.4638672,10.0043945v71.0048828h-21.4726562v-86.1333008Z"/>
    <path class="cls-8" d="M745.1733009,1008.186949c-.487793,8.5400391-.9760742,18.0561523-.9760742,32.4526367v68.5649414c0,27.0839844-5.3681641,43.6762695-16.8359375,53.9248047-11.4682617,10.7358398-28.0605469,14.1518555-42.9448242,14.1518555-14.1518555,0-29.7680664-3.4160156-39.284668-9.7602539l5.3681641-16.3481445c7.8081055,4.8803711,20.0083008,9.2724609,34.6484375,9.2724609,21.9604492,0,38.0644531-11.4682617,38.0644531-41.2368164v-13.1762695h-.487793c-6.5878906,10.9804688-19.2763672,19.7646484-37.5766602,19.7646484-29.2802734,0-50.2646484-24.8886719-50.2646484-57.5849609,0-40.0166016,26.1083984-62.7089844,53.1928711-62.7089844,20.4960938,0,31.7202148,10.7363281,36.8447266,20.496582h.487793l.9760742-17.8125h18.7880859ZM722.9691993,1054.7914412c0-3.659668-.2441406-6.8320312-1.2202148-9.7597656-3.9038086-12.4443359-14.3959961-22.6923828-30.012207-22.6923828-20.496582,0-35.1367188,17.3242188-35.1367188,44.6523438,0,23.1806641,11.7124023,42.456543,34.8925781,42.456543,13.1762695,0,25.1323242-8.2958984,29.7685547-21.9599609,1.2197266-3.6601562,1.7080078-7.8081055,1.7080078-11.4682617v-21.2285156Z"/>
    <path class="cls-8" d="M829.5946876,1052.3514998v15.8603516h-60.2685547v-15.8603516h60.2685547Z"/>
    <path class="cls-8" d="M959.8871681,1008.186949c-.487793,8.5400391-.9760742,18.0561523-.9760742,32.4526367v68.5649414c0,27.0839844-5.3681641,43.6762695-16.8359375,53.9248047-11.4682617,10.7358398-28.0605469,14.1518555-42.9448242,14.1518555-14.1518555,0-29.7680664-3.4160156-39.284668-9.7602539l5.3681641-16.3481445c7.8081055,4.8803711,20.0083008,9.2724609,34.6484375,9.2724609,21.9604492,0,38.0644531-11.4682617,38.0644531-41.2368164v-13.1762695h-.487793c-6.5878906,10.9804688-19.2763672,19.7646484-37.5766602,19.7646484-29.2802734,0-50.2646484-24.8886719-50.2646484-57.5849609,0-40.0166016,26.1083984-62.7089844,53.1928711-62.7089844,20.4960938,0,31.7202148,10.7363281,36.8447266,20.496582h.487793l.9760742-17.8125h18.7880859ZM937.6830665,1054.7914412c0-3.659668-.2441406-6.8320312-1.2202148-9.7597656-3.9038086-12.4443359-14.3959961-22.6923828-30.012207-22.6923828-20.496582,0-35.1367188,17.3242188-35.1367188,44.6523438,0,23.1806641,11.7124023,42.456543,34.8925781,42.456543,13.1762695,0,25.1323242-8.2958984,29.7685547-21.9599609,1.2197266-3.6601562,1.7080078-7.8081055,1.7080078-11.4682617v-21.2285156Z"/>
    <path class="cls-8" d="M993.0683204,1045.0316756c0-13.9082031-.2436523-25.8647461-.9755859-36.8447266h18.7880859l.7319336,23.1801758h.9760742c5.3681641-15.8598633,18.300293-25.8642578,32.6962891-25.8642578,2.4399414,0,4.1484375.2441406,6.1000977.7319336v20.2524414c-2.1958008-.487793-4.3920898-.7319336-7.3198242-.7319336-15.128418,0-25.8642578,11.4682617-28.7924805,27.5722656-.4882812,2.9282227-.9760742,6.3442383-.9760742,10.0043945v62.9526367h-21.2285156v-81.2529297Z"/>
    <path class="cls-8" d="M1137.0307228,1126.2846053l-1.7080078-14.8842773h-.7319336c-6.5878906,9.2719727-19.2763672,17.5683594-36.1123047,17.5683594-23.9125977,0-36.112793-16.8364258-36.112793-33.9165039,0-28.5483398,25.3764648-44.1645508,71.0048828-43.9204102v-2.4404297c0-9.7597656-2.684082-27.328125-26.840332-27.328125-10.9799805,0-22.4482422,3.4160156-30.7441406,8.7841797l-4.8803711-14.1523438c9.7602539-6.3442383,23.9125977-10.4921875,38.796875-10.4921875,36.1123047,0,44.8964844,24.6445312,44.8964844,48.3129883v44.1645508c0,10.2480469.487793,20.2519531,1.9521484,28.3041992h-19.5205078ZM1133.8588478,1066.0155623c-23.4243164-.487793-50.0209961,3.6601562-50.0209961,26.5966797,0,13.9082031,9.2724609,20.4960938,20.2524414,20.4960938,15.3720703,0,25.1323242-9.7602539,28.5483398-19.7641602.7319336-2.1958008,1.2202148-4.6362305,1.2202148-6.8320312v-20.496582Z"/>
    <path class="cls-8" d="M1189.2445899,1046.7396834c0-15.128418-.487793-27.3286133-.9755859-38.5527344h19.2758789l.9760742,20.2524414h.4882812c8.7841797-14.3964844,22.6923828-22.9365234,41.9682617-22.9365234,28.5483398,0,50.0209961,24.15625,50.0209961,60.0249023,0,42.456543-25.8647461,63.440918-53.6806641,63.440918-15.6162109,0-29.2807617-6.8320312-36.3569336-18.5444336h-.487793v64.1728516h-21.2285156v-127.8574219ZM1210.4731056,1078.2157576c0,3.1723633.487793,6.1000977.9760742,8.7841797,3.9038086,14.8842773,16.8359375,25.1323242,32.2084961,25.1323242,22.6923828,0,35.8681641-18.5439453,35.8681641-45.628418,0-23.668457-12.4438477-43.9204102-35.1362305-43.9204102-14.6401367,0-28.3041992,10.4916992-32.4526367,26.5961914-.7319336,2.684082-1.4638672,5.855957-1.4638672,8.7841797v20.2519531Z"/>
    <path class="cls-8" d="M1328.0771095,953.0424178h21.4716797v73.6889648h.4882812c3.4160156-6.1000977,8.7841797-11.4682617,15.3720703-15.128418,6.3447266-3.6601562,13.9082031-6.1000977,21.9609375-6.1000977,15.859375,0,41.2363281,9.7602539,41.2363281,50.5087891v70.2729492h-21.4726562v-67.8330078c0-19.0322266-7.0761719-35.1362305-27.328125-35.1362305-13.9082031,0-24.8886719,9.7597656-28.7919922,21.472168-1.2207031,2.9282227-1.4648438,6.1000977-1.4648438,10.2480469v71.2490234h-21.4716797v-173.2421875Z"/>
  </g>
  <g>
    <path class="cls-5" d="M869.4729928,616.8507018c15.1889319-8.3687927,28.5424942-16.9203185,39.4260556-24.6962967,3.0394652-2.1715843-18.5181146-24.383534-15.2813668-26.1960111,85.7661605-48.0252996,142.2448534-129.8740414,142.2448534-222.771425,0-147.8894617-155.2617431-257.7953509-329.0214807-289.1630618-11.9998514-2.1662682-28.009709,7.6431507-34.8793215,5.9614154-12.0038957-2.9386618-11.6491126-15.861158-24.7276086-9.0691511-25.1662801,13.0695171-62.9520867,46.7311092-85.8612153,57.1217691-105.3407394,47.7783656-164.9210633,129.1482977-164.9210633,235.1490284,0,92.5444319,56.0503229,174.1239577,141.2685383,222.2225133,2.6747365,1.5096853-14.8338944,30.2932123-12.1025371,31.7361532,11.5434763,6.0985161,24.2022762,12.885741,37.7173071,19.7050663h-40.4803324l-69.4440235,92.511721s227.782572,250.6157992,532.3215976,4.8229959l-76.501202-97.3347169h-39.7582006Z"/>
    <g>
      <path class="cls-7" d="M628.6824592,699.3102669l-11.1733806-7.2804315c1.5322726-2.3515195,37.7923945-57.7746129,61.055467-73.3378629l7.4153447,11.0844559c-21.0047509,14.0521403-56.9368484,68.9803483-57.2974311,69.5338385Z"/>
      <path class="cls-8" d="M678.5645456,618.6919725l7.4153447,11.0844559c-21.0047509,14.0521403-56.9368484,68.9803483-57.2974311,69.5338385l-11.1733806-7.2804315c1.5322726-2.3515195,37.7923945-57.7746129,61.055467-73.3378629M679.7110792,612.9108484l-3.4638416,2.3173334c-10.0761676,6.7410837-23.4278731,21.0651362-39.6841814,42.5743365-12.1652626,16.0961879-21.519044,30.3767955-22.54557,31.9521569l-2.2752111,3.4916178,3.4916942,2.2751603,11.1733552,7.2804823,3.4919485,2.275262,2.2750077-3.4920757c.0889502-.136592,9.2174947-14.0842916,20.7507965-29.481291,14.9303482-19.9321601,27.161821-33.3709843,35.3720703-38.8636118l3.4637907-2.3172316-2.3172316-3.4638416-7.4153447-11.0844559-2.3172825-3.4638416h0Z"/>
    </g>
    <g>
      <path class="cls-7" d="M794.5974649,704.2029577c-.3605826-.5534902-36.2926802-55.4816982-57.2976345-69.5338385l7.4151412-11.0844559c23.2632759,15.56325,59.5236013,70.9863434,61.0558739,73.3378629l-11.1733806,7.2804315Z"/>
      <path class="cls-8" d="M744.7149715,623.5846634c23.2632759,15.56325,59.5236013,70.9863434,61.0558739,73.3378629l-11.1733806,7.2804315c-.3605826-.5534902-36.2926802-55.4816982-57.2976345-69.5338385l7.4151412-11.0844559M743.5683616,617.8035393l-2.3172316,3.4638925-7.4151412,11.0844559-2.3171553,3.4637907,3.4637653,2.3172316c8.2103256,5.4926784,20.4418493,18.9315026,35.3722483,38.8636118,11.5370155,15.4019849,20.6618209,29.344699,20.7506948,29.4811893l2.2750077,3.4922792,3.4920248-2.2753638,11.1733806-7.2804823,3.4916687-2.2751094-2.2751603-3.4916687c-1.0265005-1.5753105-10.3800276-15.8554603-22.5457226-31.9521569-16.2564355-21.5092002-29.6082173-35.8332528-39.6844867-42.5743365l-3.4638925-2.3173334h0Z"/>
    </g>
    <path class="cls-6" d="M856.1922901,487.809637c-5.1448797,4.5259955-12.0243361,6.5413074-18.3300995,8.7429623-8.4394882,2.9466213-14.744737,4.2120762-23.3741721,6.0599801-10.9652518,2.3480647-19.9165829,3.9160143-31.1655971,5.1942833-14.3669017,1.6325346-28.8114599,3.0239175-43.2857117,3.4628384-18.4323879.5589307-37.0559064.004786-55.4054917-.8656967-34.7965625-1.6509066-78.7596708-5.2817176-111.0519036-18.3731292-1.320854-.5354125-3.6364637-1.8297399-4.1997687-3.3405665-13.5526414,3.4138979-8.0465569,13.1271286-.1809749,18.1109831,6.9973379,4.4336209,41.2027286,12.6774499,51.4764575,14.255692,69.3479849,10.6529793,127.3495375,6.3251647,196.5913302-4.8445979,9.7545527-1.5736104,40.2833568-5.6244557,46.8547166-10.2821944,10.2433919-7.2603868,7.1157781-16.1446626-8.0788413-18.0346625l.1500564-.085892Z"/>
    <path class="cls-8" d="M950.7287167,394.5140964c-5.4912539,1.648414-11.3384102,5.5513341-17.5425372,5.5594228,4.6160475-7.2051659,8.7032778-16.8559906,10.2513208-25.2552048,3.2998803-17.9047477.9938406-35.0213314-6.8462876-51.347233-23.6569764-49.2624113-89.3900462-60.5396222-127.5124492-20.5390407-9.7584703,10.2393404-17.7955758,25.4597368-20.5389135,39.3663569-2.494725,12.6459292-2.5015418,29.6532138,1.7115973,41.9335749,3.479205,10.1410297,13.462429,24.8790299,21.3946868,32.520044,31.2094727,30.0629899,79.2796925,27.0491644,113.8198232,4.2789424,9.9119519-6.5344151,18.6217923-16.4568213,26.5223058-25.2572906.2616869-1.170876-.0626238-1.6188572-1.2595464-1.2595718ZM838.8214871,306.5806248c33.4724745-4.364128,37.7190367,48.0743913,4.8993551,50.2671131-31.4460796,2.1008465-35.9280278-46.2215726-4.8993551-50.2671131ZM815.0694305,407.3468539c8.0671725,3.639407,11.7380119,6.370174,18.0013541,8.9472866,40.449402,16.6419709,86.143124-4.9622587,95.5818621-48.1305797l1.9382841-11.3116514c11.3763609,67.1275804-72.6557676,97.7117058-115.5215513,50.4949191l.0000509.0000254Z"/>
    <path class="cls-1" d="M735.9122893,74.4323182c1.3291396-.3038092,1.4882172.5719187,1.2841177-1.6927555-14.9978811-2.229814-32.9981415-5.2688531-43.6289694,8.1446177-6.430127,8.1133885-6.8621851,18.8299679-8.5693057,28.6444741l9.8206362-13.700543c11.7897235-13.0003562,24.5017612-17.6042898,41.0935212-21.3957996v.0000064Z"/>
    <path class="cls-1" d="M652.8661353,83.0783224c-1.4657571-4.1648868-1.5450924-8.0813199-2.3855531-12.1709157-.1180289-.5749899-.2245655-1.6139524-.6827041-2.1028991-.2911297-.3107071-.8169324-.1998206-1.0039546.1826949-10.4814237,21.4376112.5659234,33.3170636,20.9877054,37.6140579.6328921.1331683,1.0255674-.6669721.5378473-1.0917253-7.2292249-6.2958995-14.1694135-13.1005169-17.453341-22.4312064v-.0000064Z"/>
    <path class="cls-1" d="M577.9719037,150.474731c14.8177424-4.5294883,28.8170773-10.0780117,44.7658373-10.4233708-1.3920178,5.4077217-3.22113,15.7251256-.6639339,20.7742486,1.9114999,3.7738063,3.4379222-.8210783,5.0336325-2.2928384,17.8956924-16.5046413,44.0568814-21.9679918,67.5206195-25.3236662-7.3848977,9.7076998-8.9727991,20.7357638-4.3584049,32.1861311,1.3616216,3.3786687,3.3818864-1.7810125,4.7904885-3.0938222,17.395847-16.2147838,46.317772-20.4884228,68.8814017-24.8188098l-10.1415893,15.0954795c-2.2691573,4.806933-3.6644818,9.581384-4.3981616,14.8482912,5.655317-1.9438546,10.7122744-5.2298086,16.4395248-7.0858323,17.2431539-5.5881274,35.1263318-4.493369,52.8728159-2.318071.3549867,1.9419088-.0920279,1.3660856-1.0905996,1.9084348-3.1144509,1.6917699-5.7805136,2.0718493-9.1016076,4.5798137-5.407976,4.0837456-10.2736537,10.3795952-10.338872,17.4654148,7.9060586-1.6967935,15.4844997-5.1255205,23.6396798-5.8761789,17.3600075-1.5980759,33.2100753,3.0578555,49.0913279,9.3141138l-7.1047695,3.5754045c-8.3950428,4.8196256-12.7559659,10.630281-14.2801498,20.3707426,17.9757145-4.2265186,37.1914914-5.7699449,54.2352769,2.6766696,1.4360731.7116267,7.6853747,3.9986999,7.3719507,5.442849-.2591942,1.1938957-13.8261657,9.5845889-16.026849,11.3229451-.5206268.4113023-2.4757496.7304494-1.085258,1.9525029.4688897.4121416,9.8874315,2.0365693,12.1622865,2.8214012,35.5726342,12.272425,50.188083,34.8039797,73.4440333,60.914678.5111136.5737374,1.6686103,2.3642122,2.5235695,1.7468518-46.0841345-130.3628172-199.8736762-210.9103285-341.1225425-174.272759-23.3141482,6.0652457-45.9222402,15.9509984-66.209743,28.7827894.5915681,1.1789774,2.3014867-.013939,3.1500106-.273413h.0000254Z"/>
    <path class="cls-15" d="M679.2974888,435.2878659c24.44018-11.0847782,47.3178571-10.7618003,72.3370133-1.2463726,3.8125513,1.449956,15.8154229,8.4050931,6.7238055-1.3504781-24.4354805-26.220012-72.9900559-24.9553814-90.8200555,8.0345381,1.5027008,1.148581,9.609362-4.462462,11.7592091-5.4376874h.0000276Z"/>
    <path class="cls-15" d="M732.8881912,505.9339977c13.0886196-.4798781,27.9557265-1.8015452,41.1936562-3.5638622,9.3867467-1.2497789,19.3907394-3.3103366,28.3717797-6.3193801,1.4501648-.485881,4.3735808-1.143604,4.9095201-2.772076l-20.5348438,1.7026438c-13.9678449.3100664-27.9653484.5172692-41.9337021.8557732-18.4685905.4475742-36.4042939.3259895-54.7703768,0-21.3567615-.3791001-42.1718606.2386927-63.3282617-2.5673706-1.0928125-.144986-4.6960626-.1124772-5.8061463-.1940255-1.835802,1.332192,9.6709463,5.6091489,15.1511492,6.5445193,11.986879,2.7300601,26.3924255,3.8877536,38.5548393,4.8671973,19.276264,1.5523671,38.8160308,2.1570627,58.192386,1.4465807Z"/>
    <path class="cls-4" d="M711.157993,400.8963954c-49.1325376,0-83.8984724,69.151854-123.6821788,82.8902743-5.9406793,1.0201298-13.2130342,2.3691554-18.6617632,4.914071.558566,1.4979967,3.8011225,3.2282915,5.1108044,3.7592264,32.0190992,12.9807331,75.6103594,16.580783,110.1126061,18.217777,18.1943556.86312,36.6603784,1.4125777,54.9368363.8584255,14.3517749-.4352084,28.6742093-1.8148227,42.9195421-3.4336001,11.1539191-1.2674061,20.0295381-2.8220937,30.9020438-5.1502981,8.5564457-1.8322739,14.8083636-3.0870254,23.1764691-6.0087236,6.2524792-2.1830328,14.9684155-4.560305,20.0698809-9.0480188-12.3718801-2.3375933-23.7222068-2.4605989-35.8899793-7.9677792,0,0-55.7256988-80.6385954-108.9942614-79.0313543ZM768.7214822,474.4754423c-4.1732861,3.114682-10.0032078,1.7152298-13.2392434-2.0195575-.4022979.1541938-3.3181509-3.9604121-3.6464221-7.4610789-.5896095-3.353347.718554-9.0394979,3.7246507-10.9653551,12.223596-7.8311494,23.2329085,12.9291678,13.1610148,20.4459915ZM754.1237764,431.1491055c8.3908635,9.003671-2.8211753,2.0986088-6.3398372.7603263-23.0908714-8.7820102-44.0710662-8.5940781-66.6276604,1.6363817-1.98413.900089-9.4660258,6.078656-10.8528604,5.0186232,16.4557671-30.4473431,61.2681775-31.6145324,83.820409-7.4153312h-.000051ZM662.9452783,456.1979049c6.2177217-7.037487,17.5828381-3.1179027,17.0812795,7.3205898-.1131203,2.3569339-2.5126042,8.2935836-4.0669379,9.7606897-.2347505.2215987-5.2127671,2.5555169-5.8554903,2.7169169-4.6805047,1.1754449-8.881306-1.4392552-10.4124306-5.9704479-1.5054495-4.4552312.2102842-10.3833709,3.2535794-13.8277485ZM773.3099929,502.0938458c-13.2781689,1.7676228-28.0743881,2.9521613-41.2027421,3.4334981-19.4353298.7126927-39.0356551-.1596632-58.370513-1.716749.0424034.4572521.1624441.8470976.3458093,1.1821402-.1833652-.3349916-.3034825-.7248881-.3458093-1.1821402-12.1993837-.9824209-23.3330961-1.8202826-35.3563605-4.5586922-1.2659519-.2881999-17.98836-4.3971921-16.1469012-5.7334845,1.1134325.0818471,2.3374402-.1539482,3.4335491-.0084705,21.22071,2.8145928,42.0990296,2.1948711,63.5207345,2.5751235,18.4219611.3269804,36.4121836.4488836,54.9368874,0,14.0108131-.339533,28.0508647-.5473656,42.0611166-.8583235l20.5972634-1.7079214c-.5376194,1.6334731-3.6916942,2.0788869-5.146267,2.5662449-9.008391,3.0181901-18.9115897,4.7551968-28.3268692,6.0087747h.0001021Z"/>
    <path class="cls-15" d="M843.7208931,356.8477379c32.8196816-2.1927218,28.5730685-54.6312411-4.8993551-50.2671131-31.0286218,4.0455405-26.5466736,52.3679595,4.8993551,50.2671131Z"/>
    <path class="cls-15" d="M928.6526468,368.1635608c-9.4387381,43.168321-55.1324601,64.7725507-95.5818621,48.1305797-6.2633423-2.5771126-10.1767695-5.6983139-18.0013541-8.9472866,42.8657837,47.2168121,126.8978613,16.6326359,115.5215004-50.4949191l-1.9382841,11.3116514v-.0000254Z"/>
    <path class="cls-8" d="M480.1002252,394.5140964c5.4912539,1.648414,11.3384102,5.5513341,17.5425372,5.5594228-4.6160475-7.2051659-8.7032778-16.8559906-10.2513208-25.2552048-3.2998803-17.9047477-.9938406-35.0213314,6.8462876-51.347233,23.6569764-49.2624113,89.3900462-60.5396222,127.5124492-20.5390407,9.7584703,10.2393404,17.7955758,25.4597368,20.5389135,39.3663569,2.494725,12.6459292,2.5015418,29.6532138-1.7115973,41.9335749-3.479205,10.1410297-13.462429,24.8790299-21.3946868,32.520044-31.2094727,30.0629899-79.2796925,27.0491644-113.8198232,4.2789424-9.9119519-6.5344151-18.6217923-16.4568213-26.5223058-25.2572906-.2616869-1.170876.0626238-1.6188572,1.2595464-1.2595718ZM615.7595113,407.3468539c-8.0671725,3.639407-11.7380119,6.370174-18.0013541,8.9472866-40.449402,16.6419709-86.143124-4.9622587-95.5818621-48.1305797l-1.9382841-11.3116514c-11.3763609,67.1275804,72.6557676,97.7117058,115.5215513,50.4949191l-.0000509.0000254Z"/>
    <path class="cls-15" d="M545.1324626,356.8477379c32.8196816-2.1927218,28.5730685-54.6312411-4.8993551-50.2671131-31.0286218,4.0455405-26.5466736,52.3679595,4.8993551,50.2671131Z"/>
    <path class="cls-15" d="M502.1763208,368.1635608c9.4387381,43.168321,55.1324601,64.7725507,95.5818621,48.1305797,6.2633423-2.5771126,10.1767695-5.6983139,18.0013541-8.9472866-42.8657837,47.2168121-126.8978613,16.6326359-115.5215004-50.4949191l1.9382841,11.3116514v-.0000254Z"/>
    <path class="cls-3" d="M969.3570797,717.4441829c-32.0304458,35.0433367-33.8460744,43.5146228-87.6073165-18.3344492-27.0368993-31.1043232-44.4757178-54.9049404-26.740736-72.5697989,12.7117042-12.6613799,46.9323329-27.5885186,67.3238466-20.5914305,9.1198043,4.6276035,26.3582886,35.1391368,36.84546,48.8424099,24.8545404,32.4766112,23.0036701,41.2291984,10.1787074,62.6532302l.0000384.0000384Z"/>
    <path class="cls-2" d="M460.0690525,719.8980505c32.0304458,35.0433367,33.8460744,43.5146228,87.6073165-18.3344492,27.0368993-31.1043232,44.4757178-54.9049404,26.740736-72.5697989-12.7117042-12.6613799-46.9323329-27.5885186-67.3238466-20.5914305-9.1198043,4.6276035-25.6870921,30.7686983-36.1742635,44.4719714-20.2333553,41.7312954-23.6748666,45.5996369-10.8499039,67.0236687l-.0000384.0000384Z"/>
    <ellipse class="cls-8" cx="670.0944067" cy="464.3084662" rx="12.7814619" ry="10.7429729" transform="translate(-24.1209119 891.7122063) rotate(-66.3372244)"/>
    <ellipse class="cls-8" cx="762.2287686" cy="464.3084662" rx="10.7429729" ry="12.7814619" transform="translate(-122.2660055 344.9600599) rotate(-23.6627756)"/>
    <g>
      <g>
        <path class="cls-8" d="M1031.8260632,694.7792692c23.3740824-31.5209674,42.3893348-66.9948053,55.869758-105.7816152.0432303-.124062.0871361-.2476736.1303664-.3717355.3469682-1.0017271.6880823-2.0070567,1.0278454-3.013287.2724409-.804714.5439813-1.6096532.8114687-2.4166188.1787753-.5403787.355299-1.0821084.5318227-1.6238381.4341043-1.3286562.8619041-2.6602395,1.2824989-3.994975.0421045-.1335186.0839839-.2670372.1258632-.4005557,5.2015957-16.5621581,9.36679-33.5917438,12.4109236-51.0137796.118433-.6750231.229661-1.3500462.3444914-2.0250693.1519815-.8965784.3057643-1.7927065.4516666-2.6913113.2033175-1.2453478.3967281-2.4909208.587887-3.7362687.0488592-.3194989.0999701-.6380972.1479287-.9580465,2.7825002-18.4158823,4.2509794-36.8173546,4.4705083-55.0904868.0027019-.208271.0047283-.4167671.007205-.6250381.0126088-1.207071.0209397-2.4136917.0227409-3.6196369.0009006-.3919997.007205-.7826485.007205-1.1748734,0-.5723511-.0083308-1.1426759-.0108076-1.7145767-.0022516-.3926752-.0038277-.7855756-.007205-1.1782508-.7263591-103.4120545-40.3363459-197.463173-104.7699812-267.913025-40.0278798-44.0494234-90.2337931-79.3814119-148.3380172-101.6889218-.4064098-.1573853-.8121442-.3154461-1.2190044-.4714805-.2674875-.1015462-.5356504-.2024169-.8033631-.3035127-21.4028258-8.1527391-43.6923231-14.4706672-66.6816108-18.7693801-4.5110367-.8821683-9.3127521-1.7224572-14.4062721-2.4215722-1.0879625-.1492796-1.1674432-1.8190499-2.4127911-2.6967151-22.7778646-16.0517253-53.0203859-21.5421985-79.2537474-10.815005-6.1713504,2.5235687-11.3592114,6.6198647-17.3308468,9.4491978-.3800664-25.9982967-26.6839022-30.0756795-43.4759464-14.043768-7.7629909,7.4115196-11.5490195,17.5046687-15.8432292,27.0538365-140.1589346,37.4462203-249.7054136,151.1583439-282.7477723,294.6354292-.0968179.4203696-.1945363.8400638-.2902284,1.2608837-.445137,1.9615748-.8754136,3.9285534-1.2917303,5.901161-.1089764.5160617-.2152509,1.0325737-.3222008,1.5490857-.4246476,2.051638-.8378122,4.1073287-1.2311629,6.1704497-.0177875.094116-.0344491.1884571-.0524618.282573-3.7826512,19.9197113-6.0977238,40.3658416-6.8339898,61.2210837-.0209397.5700996-.037151,1.1392985-.055614,1.7089478-.0538127,1.73349-.1083009,3.4667548-.1402733,5.2058737-.0481838,2.4551207-.075653,4.9073144-.0794807,7.3559056-.0002252.0740769-.0024767.1477035-.0024767.2217804,0,1.8046398.0132843,3.6063526.0369259,5.4053635.0150856,1.2235075.04278,2.4447635.0688983,3.6662446.0130592.5923902.0245422,1.1850055.0403032,1.7767203.0376014,1.4684792.0839839,2.9356075.1375714,4.4013848.0056289.1495048.0119334.2985593.0175623.448064.4336539,11.4816973,1.3547745,22.8744573,2.7525542,34.1568899.0524618.4264489.1031223.8537984.156935,1.279797.1447765,1.1381727.295407,2.2745442.4498653,3.4102402.1404985,1.0402291.2866259,2.0786569.4350049,3.1161841.10695.7414447.2107477,1.48379.3215254,2.2241088,26.0325207,174.9593255,164.3633991,312.6662916,338.3000578,335.4761286.0824078.0108076.1645904.0225158.246773.0333234.9877673.1287903,1.9777862.2501503,2.9675799.3715104,15.5921783,1.9327546,31.1602646,2.8921521,46.6331092,2.9157936.4122639.0013509.8229518.0078805,1.2354409.0078805.1024468,0,.2044433-.0020264.3068901-.0020264.1686432-.0004503.3372864-.0024767.5061548-.0031522,127.3542101-.2607327,240.5153725-61.723861,312.3170719-156.8854579.8069656-1.0649964,1.6056003-2.1376482,2.402659-3.2121013.0121585-.0166617.0247674-.0330982.037151-.0497599ZM537.4220702,653.3763507c1.3173983,1.7564561,27.5190125,24.2985804,13.9059714,35.2768248,0,0-6.5869917,8.7827306-28.104648-3.3667847,0,0-3.7954852-.5752782-2.4033344,3.2301139,1.3923759,3.8053921,17.5418197,12.2512867,13.6436626,22.0895571s-13.0512724,8.8453245-18.098635,6.1256433c-3.6817805-1.9838655-11.9982093-3.2812247-14.3844318-3.622564-.6315677-.0902883-1.2248585.3656563-1.2662875,1.0024026-.0297208.4530175.1083009,1.0670229.614906,1.8778161,1.3921507,2.2274862,11.5089414,9.28123,9.5597502,14.0147226-1.948966,4.7334926-10.7249419,10.2581898-17.7273497,3.4341069-8.3515534-8.1390045-34.7389228-26.6674657-36.8653132-37.4649084-1.7645617-8.9603802,34.5205198-72.130655,53.5031243-83.8690322,2.2948084-1.4189445,5.0457865-1.8985306,7.7080524-1.4608239,11.7667471,1.9350062,56.5013257,10.8059987,56.3745618,34.0787601-.1528822,28.0958668-27.8704839,9.2902363-35.568179,6.901312,0,0-2.2092484-.0036025-.8918501,1.7528535ZM926.9108552,713.1091413c-2.3859973.3413392-10.7028764,1.6386985-14.3844318,3.622564-5.0473626,2.7196812-14.2004778,3.7126271-18.098635-6.1256433s12.2512867-18.284165,13.6436626-22.0895571c1.3921507-3.8053921-2.4035596-3.2301139-2.4035596-3.2301139-21.5174311,12.1495154-28.1044228,3.3667847-28.1044228,3.3667847-13.6130411-10.9782444,12.5885731-33.5203688,13.9059714-35.2768248,1.3171732-1.7564561-.8918501-1.7528535-.8918501-1.7528535-7.69747,2.3889243-35.4152969,21.1945548-35.5684042-6.901312-.1265387-23.2727614,44.6080399-32.1437539,56.374787-34.0787601,2.6622659-.4377068,5.413244.0418794,7.7080524,1.4608239,18.9826045,11.7383772,55.267686,74.908652,53.5031243,83.8690322-2.1263903,10.7974427-28.5139849,29.3259039-36.8653132,37.4649084-7.0024078,6.8240829-15.7783838,1.2993857-17.7273497-3.4341069-1.9491911-4.7334926,8.1673744-11.7872364,9.5597502-14.0147226.5066051-.8107933.6444016-1.4247986.614906-1.8778161-.0416542-.6367463-.6347199-1.0926908-1.2662875-1.0024026ZM656.1979929,54.5524969h0s-.5901386,20.1793183,6.5534432,30.0162378c2.2794977,3.1393753,11.9905539,13.3020982,13.1210713,11.9171525,1.4389836-16.9037225,15.2627724-28.2523515,30.9686553-31.9402113,10.0674811-2.3637067,21.6754919-2.7820499,31.4943988.7223063,1.7472246.623462,14.7365786,7.3617597,12.8515574,9.8144037-11.3141799,2.8804438-23.6969587,8.0329551-32.5267474,15.8308455-.8673079.7659869-6.0893929,5.5643249-5.1203137,6.4242026,45.8840092-2.1633162,92.7143567,9.8312906,134.0771971,28.9505659,75.1232274,34.7242876,132.3446077,99.8664945,151.8630878,181.0385864,24.088283,100.1758613-10.9061939,215.6268786-116.7082985,255.9431855,0,0-42.7567924,17.4625642-84.8441906,28.8845946,0,0,52.3088873,4.2088749,83.4918928-8.8725686,5.610032,2.8876489,9.8182314,6.7473041,12.4354658,11.7102325,0,0,2.7358925,4.8814213-8.8068225,5.7223857-13.0001616.9470137-43.8987928,11.0444408-48.4971907,37.3009935-1.5774556,9.0081136.4122639,18.2765096,5.2603619,26.0307194,11.1005051,17.7539184,42.6910463,65.6159389,71.8557373,84.6318668,4.2367945,2.7624612-48.4208622,30.3442927-48.4208622,30.3442927,0,0-131.0553541,70.1483656-279.5989404,10.3120025,0,0-33.4300805-12.6685041-69.7975697-37.7283431,0,0,29.527195-26.9462111,52.1785209-59.6670445,13.8159083-19.9582133,29.5416051-37.8510541,21.1436692-60.0196416-3.2384448-8.5483414-9.4845475-15.6009594-17.3621438-20.2383096-7.1003515-4.1800547-18.2942971-9.13848-35.0408594-12.6907947,0,0-8.057047-10.4770432,9.7052022-14.8360983,0,0,35.7787016,11.5713101,81.2864721,8.0003073,0,0-23.34211-7.006911-51.129961-16.0033164-26.8604259-8.6960449-55.1803248-20.0638123-70.002013-31.9125169-31.0697512-24.8376082-50.3268231-42.7903409-72.9506797-99.0039149-40.9685891-114.5100829,19.5819746-226.4686774,111.8516446-292.9656589,30.8436927-22.2284795,65.4450441-41.2142362,103.8175637-45.5179026,1.0812078-.9294514-4.2563832-5.2252373-6.3399936-7.7719972-13.1766853-16.1050877-5.1169364-36.735172,13.1906451-44.4265627Z"/>
        <path class="cls-10" d="M653.3279064,34.2009329c11.4395928.0004503,21.2634531,7.7037744,21.4946902,23.5179583,5.9716354-2.829333,11.1594965-6.925629,17.3308468-9.4491978,9.2452048-3.7803996,18.9850813-5.5463123,28.723832-5.5463123,17.8953175,0,35.7793771,5.9664568,50.5299154,16.3613173,1.2453478.8776651,1.3248285,2.5474354,2.4127911,2.6967151,5.0935199.699115,9.8952354,1.5394039,14.4062721,2.4215722,22.9892877,4.2987129,45.278785,10.616641,66.6816108,18.7693801.2677126.1010959.5358756.2019666.8033631.3035127.4068602.1560344.8125945.3140951,1.2190044.4714805,58.1042241,22.3075099,108.3101374,57.6394984,148.3380172,101.6889218,64.4336353,70.4498519,104.0436221,164.5009705,104.7699812,267.913025.0033774.3926752.0049535.7855756.007205,1.1782508.0024767.5719008.0108076,1.1422256.0108076,1.7145767,0,.3922249-.0063044.7828737-.007205,1.1748734-.0018013,1.2059452-.0101321,2.4125659-.0227409,3.6196369-.0024767.208271-.0045032.4167671-.007205.6250381-.2195289,18.2731323-1.6880081,36.6746045-4.4705083,55.0904868-.0479586.3199492-.0990694.6385475-.1479287.9580465-.191159,1.2453478-.3845695,2.4909208-.587887,3.7362687-.1459023.8986048-.299685,1.7947329-.4516666,2.6913113-.1148305.6750231-.2260584,1.3500462-.3444914,2.0250693-3.0441336,17.4220358-7.2093279,34.4516215-12.4109236,51.0137796-.0418794.1335186-.0837587.2670372-.1258632.4005557-.4205948,1.3347355-.8483946,2.6663188-1.2824989,3.994975-.1765237.5417297-.3530474,1.0834594-.5318227,1.6238381-.2674875.8069656-.5390278,1.6119048-.8114687,2.4166188-.3397631,1.0062302-.6808772,2.0115599-1.0278454,3.013287-.0432303.124062-.0871361.2476736-.1303664.3717355-13.4804232,38.7868099-32.4956756,74.2606478-55.869758,105.7816152-.0123837.0166617-.0249925.0330982-.037151.0497599-.7970586,1.0744531-1.5956934,2.1471049-2.402659,3.2121013-71.8016994,95.1615969-184.9628618,156.6247252-312.3170719,156.8854579-.1688684.0006755-.3375116.0027019-.5061548.0031522-.1024468,0-.2044433.0020264-.3068901.0020264-.4124891,0-.8231769-.0065296-1.2354409-.0078805-15.4728446-.0236416-31.040931-.983039-46.6331092-2.9157936-.9897937-.1213601-1.9798126-.2427201-2.9675799-.3715104-.0821826-.0108076-.1643652-.0225158-.246773-.0333234-173.9366588-22.809837-312.2675372-160.5168031-338.3000578-335.4761286-.1107776-.7403189-.2145754-1.4826642-.3215254-2.2241088-.148379-1.0375272-.2945064-2.075955-.4350049-3.1161841-.1544583-1.135696-.3050888-2.2720674-.4498653-3.4102402-.0538127-.4259986-.1044732-.8533481-.156935-1.279797-1.3977797-11.2824326-2.3189003-22.6751926-2.7525542-34.1568899-.0056289-.1495048-.0119334-.2985593-.0175623-.448064-.0535876-1.4657773-.0999701-2.9329056-.1375714-4.4013848-.015761-.5917147-.0272441-1.1843301-.0403032-1.7767203-.0261183-1.2214811-.0538127-2.4427371-.0688983-3.6662446-.0236416-1.7990109-.0369259-3.6007237-.0369259-5.4053635,0-.0740769.0022516-.1477035.0024767-.2217804.0038277-2.4485912.0312969-4.9007849.0794807-7.3559056.0319724-1.7391189.0864606-3.4723837.1402733-5.2058737.0184629-.5696493.0346743-1.1388482.055614-1.7089478.736266-20.855242,3.0513386-41.3013723,6.8339898-61.2210837.0180126-.094116.0346743-.1884571.0524618-.282573.3933507-2.063121.8065153-4.1188118,1.2311629-6.1704497.10695-.516512.2132244-1.033024.3222008-1.5490857.4163168-1.9726076.8465934-3.9395862,1.2917303-5.901161.0956921-.4208199.1934106-.8405141.2902284-1.2608837,33.0423587-143.4770853,142.5888377-257.1892088,282.7477723-294.6354292,4.2942097-9.5491678,8.0802383-19.6423169,15.8432292-27.0538365,6.5777602-6.2801016,14.6143179-9.4744154,21.9812562-9.4741903M653.3297076,1.000063c-.0013509,0,.0002252,0-.0006755,0-16.3543374-.0006755-32.303616,6.6263943-44.9088507,18.6610792-7.8053206,7.4518228-12.8974896,15.6768376-16.7686278,23.3869164-68.6933958,21.1715887-131.2170174,59.7566573-181.6332281,112.2357638-54.1686908,56.3853694-92.0735575,126.4535788-109.6167282,202.629419l-.0866858.3755632-.2229062.9704302c-.4811622,2.1198608-.9519672,4.2701178-1.4036338,6.4109183-.0943411.4469383-.1880068.8995054-.2816724,1.3522978l-.0659712.3185983c-.5043535,2.4362075-.9400339,4.6222647-1.33406,6.6883127l-.0594417.3190486c-4.1208382,21.7043121-6.6081565,43.9859289-7.3937321,66.2297191-.0146353.403708-.028595.8483946-.0425548,1.2928561l-.0162114.5129095-.0051786.1693187c-.0549385,1.7661379-.1116783,3.5921677-.1468029,5.4985788-.0508857,2.5976456-.0797059,5.2094762-.0846593,7.7307934-.0018013.1544583-.0029271.3068901-.0029271.4595471,0,1.8661079.0135095,3.8315104.0396278,5.8410439.0146353,1.1714961.0398529,2.3666337.0657461,3.5613211l.0081057.380967.0105824.4948969c.0103573.4834138.0209397.9668276.0335485,1.449566.0400781,1.5596681.0902883,3.1470307.1481538,4.732592l.0011258.0294957.0011258.0294957.0096818.2458723.0060793.161213c.4672025,12.3634153,1.4700553,24.807437,2.98199,37.0107651l.0463825.380967.1188833.9661522c.1618885,1.2725919.3249027,2.5030794.492195,3.7326662.1486042,1.0994456.3066649,2.2238837.4672025,3.3474211l.0990694.6910093c.0830832.5822581.1666168,1.1645162.2535277,1.7458736,6.9254039,46.5432713,21.2767374,91.3717407,42.6509682,133.2098892,20.8653741,40.8420504,47.9424019,77.9284685,80.478831,110.2296078,32.5828117,32.3470714,69.8009471,59.0606945,110.620932,79.3994245,41.9122255,20.8829364,86.6859815,34.556545,133.0651127,40.6396335l.2118735.0288202.0315221.0040528.0315221.0040528c1.0713009.139823,2.1448533.2717655,3.2186309.4032576,16.694776,2.0694254,33.7277391,3.1350973,50.5841785,3.1625666l.3433657.0027019c.3269291.0029271.6536331.0051786.9810126.0051786.1609878,0,.3219757-.0011258.4827383-.0024767h-.012834l.3701594-.0022516.0830832-.0006755c33.877469-.072726,67.6052082-4.1778031,100.2449847-12.2008513,31.7434233-7.8026187,62.6274193-19.3482608,91.7941367-34.3163016,28.6274644-14.6910967,55.6765726-32.7147541,80.3955226-53.5699962,24.5566112-20.7181209,46.8429563-44.2545421,66.2398512-69.9547299.8686588-1.1467287,1.7289868-2.3011128,2.5870632-3.4581988l.0166617-.0220655.0186881-.0249925.0184629-.0247674c25.86748-34.8836993,46.2433611-73.4602118,60.5620467-114.6582367l.0301711-.0857851.0844342-.2404685.0132843-.0387271.0135095-.0387271c.3753381-1.0832342.7443717-2.1707464,1.1118293-3.2589341.2861756-.8452424.579331-1.715027.8686588-2.5870632.2028672-.6133299.3944765-1.2012169.5860858-1.7893291.4624741-1.4157923.9260741-2.8583784,1.3815683-4.3043418l.1395978-.4440112c5.6602422-18.0223065,10.1823116-36.6102094,13.4362922-55.2323363.0891625-.5077309.1785501-1.038653.2679378-1.5693499l.102672-.6077009.0857851-.5066051c.1375714-.8083165.2744674-1.6166331.4059595-2.4267509.2159263-1.3221267.4257734-2.6717226.6329186-4.0215436l.0486341-.3129694.1161814-.7572057c2.9675799-19.6384892,4.5961463-39.708606,4.8352639-59.6148078l.0045032-.3820928.0027019-.2298861.0004503-.0333234.0002252-.0335485c.0137346-1.3052398.0225158-2.6098042.0245422-3.913693l.0022516-.3048637c.0027019-.3066649.0049535-.6133299.0049535-.9208954,0-.4341043-.0033774-.867533-.0069799-1.3007367l-.004278-.5637952-.0015761-.3350348-.0060793-.9265244h.0002252c-.7578812-107.8562193-41.0354609-210.8521821-113.4086109-290.0187935-21.8995239-24.0984151-46.4905843-45.6241771-73.0938801-63.9839951-27.3186221-18.853364-56.8791405-34.445317-87.8646826-46.3451324l-.2755932-.10695-.9960981-.3847947-.0475083-.0180126-.0472831-.0180126-.6536331-.2472233-.1787753-.0675473c-23.3486396-8.8899058-47.6445181-15.7311006-72.2123872-20.3333262-2.0766305-.4052841-4.0980973-.780397-6.0776847-1.1278155-20.0843017-13.521627-43.9521552-20.9419278-67.5052381-20.9419278-10.9109223,0-21.5345431,1.5502115-31.7049214,4.6188873-9.7380752-8.497906-22.3345288-13.1402097-35.8424212-13.1413355h0Z"/>
      </g>
      <path class="cls-8" d="M594.8213252,469.051361c-16.720444,4.9329824-44.083197,1.1332193-46.5617342,26.1795487-1.8343607,18.5340902,14.7933183,24.5991661,32.0210429,29.4107884,0,0,112.448538,30.201993,271.7346284-1.6504067,23.4332989-1.6544596,38.368917-28.6918596,16.9982888-44.8942155-8.6951443-6.5921703-14.6388601-4.940863-24.2107689-6.5977993-65.0136418-11.2540628-64.8567068-88.9897962-143.0089822-79.4696737-51.4843594,6.2713204-62.4668818,63.8916804-106.9724749,77.021758ZM703.8693048,407.1885776c62.054843-6.6878624,67.7598916,51.5462778,114.2675879,72.6451405,7.0402344,3.1938635,15.7461862,5.2446008,23.3612484,6.5914948,6.2397984,1.1034984,20.1766164-.0051786,22.363349,8.439365,3.4377094,13.2750792-16.4489037,14.5238044-25.2802684,16.2273484-83.08841,14.8914871-179.7770272,15.2127873-261.2222355-1.8600287-6.7421254-1.6168582-17.0516512-5.6649705-13.4315639-14.3400757,3.8261066-9.1686511,16.1616023-7.1032785,24.0691446-8.456477,57.4199695-9.8265622,69.9214065-74.2946467,115.8727379-79.2467675Z"/>
    </g>
    <g>
      <circle class="cls-12" cx="713.9175426" cy="588.5382074" r="45.3317623"/>
      <path class="cls-13" d="M759.9109071,583.9055155c-1.933482,19.944965-23.7019022,34.1552493-48.6211274,31.7395583-24.9192252-2.415691-43.5528518-20.5425842-41.6193698-40.4875492s24.0235097-37.4728135,48.9427349-35.0571225c24.9192252,2.415691,43.2312443,23.8601484,41.2977623,43.8051134Z"/>
      <path d="M714.078346,545.1067543c23.9508909,0,43.3669518,19.4160609,43.3669518,43.3669772s-19.4160609,43.3669772-43.3669518,43.3669772-43.3669518-19.4160609-43.3669518-43.3669772,19.4160609-43.3669772,43.3669518-43.3669772M714.078346,534.271369c-14.4779666,0-28.089375,5.6380713-38.3268331,15.875504-10.2374836,10.2374836-15.875504,23.8488665-15.875504,38.3268585s5.6380204,28.089375,15.875504,38.3268585c10.2374581,10.2374327,23.8488665,15.875504,38.3268331,15.875504s28.0893495-5.6380713,38.3268331-15.875504c10.2374836-10.2374836,15.875504-23.8488665,15.875504-38.3268585s-5.6380204-28.089375-15.875504-38.3268585c-10.2374836-10.2374327-23.8488665-15.875504-38.3268331-15.875504h0Z"/>
    </g>
    <g>
      <circle class="cls-14" cx="836.653951" cy="737.1300769" r="45.3317623"/>
      <path class="cls-16" d="M882.6473155,732.4973849c-1.933482,19.944965-23.7019022,34.1552493-48.6211274,31.7395583-24.9192252-2.415691-43.5528518-20.5425842-41.6193698-40.4875492,1.933482-19.944965,24.0235097-37.4728135,48.9427349-35.0571225,24.9192252,2.415691,43.2312443,23.8601484,41.2977623,43.8051134Z"/>
      <path d="M836.8147544,693.6986237c23.9508909,0,43.3669518,19.4160609,43.3669518,43.3669772s-19.4160609,43.3669772-43.3669518,43.3669772-43.3669518-19.4160609-43.3669518-43.3669772,19.4160609-43.3669772,43.3669518-43.3669772M836.8147544,682.8632384c-14.4779666,0-28.089375,5.6380713-38.3268331,15.875504-10.2374836,10.2374836-15.875504,23.8488665-15.875504,38.3268585s5.6380204,28.089375,15.875504,38.3268585c10.2374581,10.2374327,23.8488665,15.875504,38.3268331,15.875504s28.0893495-5.6380713,38.3268331-15.875504c10.2374836-10.2374836,15.875504-23.8488665,15.875504-38.3268585s-5.6380204-28.089375-15.875504-38.3268585c-10.2374836-10.2374327-23.8488665-15.875504-38.3268331-15.875504h0Z"/>
    </g>
    <g>
      <circle class="cls-11" cx="592.7326619" cy="737.1300769" r="45.3317623"/>
      <path class="cls-9" d="M638.7260265,732.4973849c-1.933482,19.944965-23.7019022,34.1552493-48.6211274,31.7395583-24.9192252-2.415691-43.5528518-20.5425842-41.6193698-40.4875492,1.933482-19.944965,24.0235097-37.4728135,48.9427349-35.0571225,24.9192252,2.415691,43.2312443,23.8601484,41.2977623,43.8051134Z"/>
      <path d="M592.8934653,693.6986237c23.9508909,0,43.3669518,19.4160609,43.3669518,43.3669772s-19.4160609,43.3669772-43.3669518,43.3669772-43.3669518-19.4160609-43.3669518-43.3669772,19.4160609-43.3669772,43.3669518-43.3669772M592.8934653,682.8632384c-14.4779666,0-28.089375,5.6380713-38.3268331,15.875504-10.2374836,10.2374836-15.875504,23.8488665-15.875504,38.3268585s5.6380204,28.089375,15.875504,38.3268585c10.2374581,10.2374327,23.8488665,15.875504,38.3268331,15.875504s28.0893495-5.6380713,38.3268331-15.875504c10.2374836-10.2374836,15.875504-23.8488665,15.875504-38.3268585s-5.6380204-28.089375-15.875504-38.3268585c-10.2374836-10.2374327-23.8488665-15.875504-38.3268331-15.875504h0Z"/>
    </g>
    <g>
      <path class="cls-7" d="M783.6390418,730.6465076l-19.0838519-25.7011667-3.8245663,9.9562504c-29.3921946-8.2554296-59.0220456-7.8584224-79.0914141-5.9760886-22.7293558,2.131339-38.7661152,6.5706637-39.4104252,6.7537362l4.2220111,12.497242c.1485648-.0421541,15.1062314-4.2333023,36.7087524-6.2335108,32.2315195-2.9831326,56.7705927.8789652,72.8513449,5.2451589l-3.7654337,9.8022362,31.3935827-6.3438575Z"/>
      <path class="cls-8" d="M764.5551887,704.9453525l19.0838542,25.7011685-31.3935765,6.3438512,3.7654264-9.8022433c-12.5238435-3.4004409-30.1761409-6.4949733-52.5988633-6.2886448-6.3683361.0585999-13.1231464.3836724-20.2524816,1.043486-21.6025211,2.0002085-36.5601877,6.1913567-36.7087524,6.2335108l-4.0740003-12.4737042c.64431-.1830725,16.5330585-4.645935,39.2624144-6.777274,6.3341427-.5941149,13.6166963-1.0402067,21.5474793-1.1130839,17.1974039-.1579465,37.4282988,1.4392268,57.5439598,7.0891723l3.8245401-9.9562385M763.4032299,696.5257326l-2.6702409,6.9513688-2.501318,6.5115538c-16.8476249-4.3435421-35.355921-6.4517088-55.0826075-6.2705885-7.2353879.0664783-14.6009941.4469555-21.892207,1.1307514-23.0575679,2.1621503-38.8479147,6.5982851-39.5088267,6.7860089l-3.9393948,1.119305,1.1201033,3.9392375,3.5836674,12.6030069,1.1191743,3.936047,3.9367179-1.1168812c.1421367-.0399956,14.8888259-4.1436296,35.9687585-6.0954433,6.710349-.6211692,13.4100162-.9664277,19.9126481-1.0262634,16.8001611-.154591,32.61594,1.5327933,47.0896823,5.0194586l-2.1161452,5.5088271-2.6728542,6.9579908,7.3060877-1.4763809,31.3935765-6.3438512,6.3205347-1.2771725-3.8441821-5.1771696-19.0838542-25.7011685-4.4393202-5.9786368h0Z"/>
    </g>
  </g>
</svg>