<svg id="Layer_1" data-name="Layer 1" xmlns="http://www.w3.org/2000/svg" viewBox="0 0 300 300"><defs><style>.cls-1{fill:#242021;}</style></defs><path class="cls-1" d="M201.87636,87.3678a21.61134,21.61134,0,0,1-8.74917-8.09239c-2.99318-4.81332-4.49336-9.92465-2.77507-15.61044a16.12587,16.12587,0,0,0,.5417-3.28519c.47262-5.53794-.26293-11.014-.88459-16.49866-.92823-8.20754-2.901-16.08063-7.27931-23.189a1.62265,1.62265,0,0,1,.20347-2.28574q.02508-.021.051-.041A31.93417,31.93417,0,0,0,189.26761,8.339a4.12861,4.12861,0,0,0-7.6404-3.13009A32.53063,32.53063,0,0,1,173.25,16.56707c-6.14983,5.73794-13.1432,10.37065-20.01409,15.15721-11.01523,7.67678-21.8088,15.6117-31.18569,25.31816A107.09636,107.09636,0,0,0,95.2088,104.02888a147.5636,147.5636,0,0,0-4.12008,51.84081,79.803,79.803,0,0,0,10.26148,33.133c5.05326,8.8377,11.77874,16.29874,19.15857,23.22178,6.10753,5.73179,12.65121,10.99348,18.43515,17.07423,4.16859,4.38191,7.83432,9.13215,9.74892,14.95366,3.10953,9.44723,2.30245,18.86043-1.03481,28.03622-3.05133,8.39052-8.59171,14.60463-17.21,17.70565a3.85819,3.85819,0,0,0-2.38,2.38721,3.90916,3.90916,0,0,0,.87372,4.30188,3.99278,3.99278,0,0,0,4.53575.99369,35.20868,35.20868,0,0,0,19.06161-16.17633c4.31282-7.4174,5.893-15.55586,6.2323-24.036a41.64126,41.64126,0,0,0-7.24655-25.78716A78.28831,78.28831,0,0,0,140.18478,218.864c-6.24073-5.87484-12.88381-11.31219-18.8835-17.44878-8.44141-8.63408-15.01779-18.41932-18.71021-30.01626-3.05976-9.61084-3.92985-19.50517-3.902-29.5219a150.64972,150.64972,0,0,1,2.03219-24.72077A102.90874,102.90874,0,0,1,114.78422,79.502c7.461-11.895,17.29849-21.54822,28.27978-30.14592,10.487-8.21116,21.9397-15.09663,32.24245-23.55623.63253-.51863.77188-.12359,1.00819.32114a44.56812,44.56812,0,0,1,3.23068,7.43079c1.76437,5.57907,2.25881,11.37513,2.8974,17.14214a35.20012,35.20012,0,0,1-.04119,10.71109c-.45561,2.32183-1.23969,4.59026-1.09546,6.99693.70523,11.80049,6.49768,20.40069,16.592,26.27184,1.62377.94524,1.77281,1.20329,1.06151,2.96774a23.21091,23.21091,0,0,1-3.88259,6.0917,4.1286,4.1286,0,0,0,6.24924,5.39615,26.135,26.135,0,0,0,5.41679-8.69592C208.63579,95.20819,207.58885,90.21432,201.87636,87.3678Z"/><path class="cls-1" d="M66.12314,61.64005c3.021-4.50427,6.0687-8.99157,9.0764-13.50432,2.08672-3.1325.76706-6.83334-2.71686-7.72523a4.86783,4.86783,0,0,0-5.24226,2.25516Q60.2556,53.02415,53.30713,63.40806q-19.836,29.55221-39.678,59.102a6.477,6.477,0,0,0-1.28693,3.10827,6.13781,6.13781,0,0,0,1.339,3.68146Q32.34539,157.10333,50.995,184.91658l16.18723,24.12816a4.75633,4.75633,0,0,0,4.92355,2.36059c3.48635-.5344,5.38888-4.43035,3.00163-7.95306-10.31969-15.236-20.53275-30.54465-30.78338-45.82546q-10.27728-15.32321-20.55214-30.64766c-.39626-.59015-.82766-1.0264-.24236-1.89405q21.33255-31.69587,42.59117-63.445Zm180.236,7.25142q-8.74193-13.02687-17.46933-26.06585a5.25923,5.25923,0,0,0-4.15162-2.54842,4.85085,4.85085,0,0,0-4.19647,7.43319c1.12577,1.86254,2.38483,3.6451,3.59905,5.45432q24.09664,35.8778,48.21756,71.73863a1.52563,1.52563,0,0,1-.05211,2.03582c-2.0637,2.98709-4.07529,6.01054-6.1002,9.0255q-12.51424,18.63145-25.02368,37.26651-10.11735,15.07845-20.225,30.16415a5.20233,5.20233,0,0,0-1.10274,4.0753,4.83024,4.83024,0,0,0,8.91886,1.62139q10.43966-15.562,20.89992-31.11058,16.3145-24.30388,32.61684-48.615c1.81528-2.706,1.82739-4.21222.01211-6.91938q-17.96736-26.7808-35.942-53.55555Z"/><path class="cls-1" d="M188.11764,135.59628h-.00007a3.9989,3.9989,0,0,0-4.2328-.56958,4.11421,4.11421,0,0,0-2.54,4.05107,16.63914,16.63914,0,0,1-.63134,4.72605,3.53831,3.53831,0,0,1-3.08645,2.66835,42.92711,42.92711,0,0,1-8.119.12122c-9.23636-.41448-18.43152-1.36209-27.64-2.157a17.12388,17.12388,0,0,1-11.88052-5.836,64.20922,64.20922,0,0,1-7.05269-9.709,12.42642,12.42642,0,0,0-.56226,4.1274c-.1139,7.36415,2.44424,13.37708,9.12246,17.06337,1.43354.79132,1.63716,1.43842,1.25056,2.9568a76.76809,76.76809,0,0,0-1.093,30.69738,43.58946,43.58946,0,0,0,6.58613,17.805,10.30761,10.30761,0,0,0,5.08108,4.30432,39.71,39.71,0,0,1-3.32765-12.88026,134.7838,134.7838,0,0,1-.61071-22.61462,121.47129,121.47129,0,0,1,1.67954-16.44777c.1818-.95493.49319-1.26151,1.50507-1.156q7.14843.74277,14.31136,1.33658a172.50608,172.50608,0,0,0,19.87113.75013c4.98049-.16361,8.90671-2.10616,11.14733-6.75219a21.59563,21.59563,0,0,0,1.75232-9.48236A3.73242,3.73242,0,0,0,188.11764,135.59628Z"/><path class="cls-1" d="M190.16307,112.77561a26.961,26.961,0,0,0-6.72422,2.1776c-4.83027,1.92435-9.68834,3.77719-14.68222,5.71611,3.95774,3.799,7.661,7.69491,12.33613,10.46148a8.183,8.183,0,0,0,2.58477.921,6.9074,6.9074,0,0,0,7.6259-3.36278,9.65559,9.65559,0,0,1-7.18235-4.58057c-.53926-.75863-.44355-.904.2835-1.2882a27.1888,27.1888,0,0,0,4.102-2.45267c3.59058-2.81139,7.39928-4.14678,12.07437-2.04432-.19386-.42411-.25687-.57676-.332-.72462A9.8314,9.8314,0,0,0,190.16307,112.77561Z"/><path class="cls-1" d="M156.12362,79.00419c0,.44223-.01213.86145.00244,1.27941a8.99762,8.99762,0,0,0,17.97458-.86218q-.0102-.21147-.03025-.42233a12.51792,12.51792,0,0,0-11.729-10.54993c-3.9953-.11272-7.30956,1.67229-10.44453,3.79294-2.92892,1.98249-5.90509,3.055-9.39146,1.745a1.10786,1.10786,0,0,0-.40953.01819C142.89307,79.25337,147.61868,80.94874,156.12362,79.00419Zm6.00568-1.72339c.37447-1.51,1.61408-1.0252,2.363-1.15a27.26729,27.26729,0,0,1,4.37214.62528,1.45406,1.45406,0,0,1,1.29057,1.745,4.06549,4.06549,0,0,1-2.4006,3.68148,4.00969,4.00969,0,0,1-4.45091-.66773A4.06666,4.06666,0,0,1,162.1293,77.2808Z"/></svg>