<svg id="レイヤー_1" data-name="レイヤー 1" xmlns="http://www.w3.org/2000/svg" viewBox="0 0 922.29999 219.10001"><defs><style>.cls-1{fill:none;}.cls-2{fill:#43af5a;}.cls-3{fill:#fc0;}.cls-4{fill:#d2e4f4;}.cls-5{fill:#009ade;}.cls-6{fill:#003764;}.cls-7{fill:#333;}.cls-8{fill:#666;}</style></defs><title>lfdl-landscape-horizontal-color</title><path class="cls-1" d="M714.6416,44.51169a8.48064,8.48064,0,0,0,2.71582-6.65576,9.03051,9.03051,0,0,0-2.50781-6.82569q-2.50782-2.4126-7.48535-2.48877H697.2959V46.94382h9.80371Q711.92627,46.94382,714.6416,44.51169Z"/><path class="cls-1" d="M702.55859,172.83591a11.50454,11.50454,0,0,0,3.96289,9.293,15.22475,15.22475,0,0,0,10.18164,3.34863,22.22027,22.22027,0,0,0,11.27442-3.0752,18.61143,18.61143,0,0,0,7.72168-7.99414V159.23825H725.791Q702.55713,159.23825,702.55859,172.83591Z"/><path class="cls-1" d="M496.94922,130.539q-9.29444,0-14.48633,7.17481-5.19434,7.1748-5.19336,21.251,0,12.57425,5.19336,19.67969A16.78435,16.78435,0,0,0,496.8125,185.751q12.0249,0,17.56055-10.79688v-33.96Q508.70117,130.53953,496.94922,130.539Z"/><path class="cls-1" d="M511.084,45.30368q2.67779-2.39428,2.67777-6.91992a9.49863,9.49863,0,0,0-2.71484-7.1084,10.47152,10.47152,0,0,0-7.4668-2.73389h-11.7276V47.69821h11.46387Q508.40674,47.69821,511.084,45.30368Z"/><polygon class="cls-1" points="648.499 55.278 664.413 55.278 656.456 32.501 648.499 55.278"/><path class="cls-1" d="M875.77832,130.19724a16.86434,16.86434,0,0,0-12.84668,5.56933q-5.19286,5.56933-6.42285,15.61328H893.544v-.95605q-.54786-9.63575-5.19336-14.93067Q883.70407,130.19921,875.77832,130.19724Z"/><path class="cls-1" d="M360.73486,28.54147h-6.6748v39.52h6.22217q7.50366,0,11.5205-4.686,4.01588-4.686,4.09131-13.45557V46.87155q0-8.91942-3.88379-13.625Q368.12549,28.54147,360.73486,28.54147Z"/><path class="cls-1" d="M324.89062,172.83591a11.505,11.505,0,0,0,3.96338,9.293,15.22426,15.22426,0,0,0,10.18116,3.34863,22.21937,22.21937,0,0,0,11.2749-3.0752,18.60471,18.60471,0,0,0,7.72119-7.99414V159.23825h-9.90771Q324.89039,159.23825,324.89062,172.83591Z"/><path class="cls-1" d="M798.0166,130.539q-11.47851,0-17.21875,10.18164v35.32715q5.6704,10.11329,17.35547,10.11328a17.08721,17.08721,0,0,0,14.45215-7.209q5.36426-7.20849,5.36426-21.42187,0-12.50535-5.33008-19.748A17.1706,17.1706,0,0,0,798.0166,130.539Z"/><path class="cls-2" d="M154.24744,172.6221h27.36114V148.72934c-9.69232-6.94385-19.29712-13.89581-28.80853-21.02936-2.9-2.2-5.1-2.3-8,.1-5.4,4.5-11.1,8.6-16.6,13-2.3,1.8-4,1.8-6.1-.4-10-10.1-20.3-20-30.2-30.2-2.5-2.6-4.3-2.6-7-.4-10.1137,8.31262-20.27661,16.5291-30.453,24.7495v38.0726h81.68524v24.94708h18.11517V172.6221Z"/><path class="cls-3" d="M142.7,101a20.20061,20.20061,0,1,0-20.4-20.2A20.36289,20.36289,0,0,0,142.7,101Z"/><path class="cls-4" d="M54.447,90.91721v43.63232C64.62341,126.32913,74.78632,118.11264,84.9,109.8c2.7-2.2,4.5-2.2,7,.4,9.9,10.2,20.2,20.1,30.2,30.2,2.1,2.2,3.8,2.2,6.1.4,5.5-4.4,11.2-8.5,16.6-13,2.9-2.4,5.1-2.3,8-.1,9.51141,7.13356,19.11621,14.08552,28.80853,21.02937V45.53506H54.39594V72.76859H27.874V90.91721ZM142.6,60.6a19.97959,19.97959,0,0,1,20.20134,19.75535q.003.27233-.00135.54464a20.25031,20.25031,0,0,1-40.5-.1,20.04056,20.04056,0,0,1,19.87879-20.201Q142.38941,60.59727,142.6,60.6Z"/><polygon class="cls-5" points="136.132 172.622 54.447 172.622 54.447 134.55 54.447 95.898 54.447 90.917 35.949 90.917 27.874 90.917 27.874 116.143 27.874 185 27.874 197.569 136.132 197.569 136.132 185 136.132 172.622"/><polygon class="cls-6" points="27.874 25.991 27.874 59.169 27.874 72.769 35.931 72.769 42.057 72.769 54.396 72.769 54.396 45.535 181.609 45.535 181.609 148.729 181.609 172.622 154.247 172.622 154.247 185 154.247 197.569 191.403 197.569 196.744 197.569 208.54 197.569 208.54 18.431 191.403 18.431 27.874 18.431 27.874 24.4 27.874 25.991"/><polygon class="cls-7" points="275.548 68.061 250.622 68.061 250.622 20.849 241.081 20.849 241.081 75.754 275.548 75.754 275.548 68.061"/><polygon class="cls-7" points="292.404 52.563 314.502 52.563 314.502 44.87 292.404 44.87 292.404 28.541 317.746 28.541 317.746 20.849 282.864 20.849 282.864 75.754 292.404 75.754 292.404 52.563"/><path class="cls-7" d="M373.65039,24.09177a25.4394,25.4394,0,0,0-12.91553-3.24317H344.51953V75.75436h15.80029a26.60931,26.60931,0,0,0,13.17969-3.20556,21.8409,21.8409,0,0,0,8.86182-9.12549,29.08413,29.08413,0,0,0,3.11133-13.72656V46.94382a29.21441,29.21441,0,0,0-3.09229-13.65088A22.11971,22.11971,0,0,0,373.65039,24.09177ZM375.894,49.91989q-.07543,8.77-4.09131,13.45557-4.01586,4.686-11.5205,4.686H354.06v-39.52h6.6748q7.39014,0,11.27539,4.70508,3.8833,4.70508,3.88379,13.625Z"/><polygon class="cls-7" points="430.875 68.061 404.516 68.061 404.516 51.243 427.066 51.243 427.066 43.701 404.516 43.701 404.516 28.541 430.611 28.541 430.611 20.849 394.975 20.849 394.975 75.754 430.875 75.754 430.875 68.061"/><polygon class="cls-7" points="474.543 68.061 448.184 68.061 448.184 51.243 470.734 51.243 470.734 43.701 448.184 43.701 448.184 28.541 474.279 28.541 474.279 20.849 438.643 20.849 438.643 75.754 474.543 75.754 474.543 68.061"/><path class="cls-7" d="M491.85254,55.39108h11.35058q9.53907,0,14.83887-4.49218,5.29688-4.49268,5.29785-12.57178A16.12233,16.12233,0,0,0,517.92871,25.643q-5.4126-4.7937-14.6123-4.79444H482.31152v54.9058h9.541Zm0-26.84961h11.72754a10.47152,10.47152,0,0,1,7.4668,2.73389,9.49863,9.49863,0,0,1,2.71484,7.1084q0,4.52562-2.67774,6.91992-2.67773,2.395-7.76757,2.39453H491.85254Z"/><polygon class="cls-7" points="585.372 68.061 560.446 68.061 560.446 20.849 550.905 20.849 550.905 75.754 585.372 75.754 585.372 68.061"/><polygon class="cls-7" points="628.588 68.061 602.229 68.061 602.229 51.243 624.779 51.243 624.779 43.701 602.229 43.701 602.229 28.541 628.324 28.541 628.324 20.849 592.688 20.849 592.688 75.754 628.588 75.754 628.588 68.061"/><path class="cls-7" d="M652.19434,20.8486,631.4541,75.75436h9.918l4.44922-12.7837H667.0899l4.48731,12.7837h9.95605L660.75488,20.8486ZM648.499,55.2778,656.456,32.501l7.957,22.77685Z"/><path class="cls-7" d="M697.2959,54.63669h10.63379l11.01172,21.11767h10.21875v-.48974L716.8291,52.40085a16.91739,16.91739,0,0,0,7.41016-5.71778,15.4567,15.4567,0,0,0,2.6582-9.228q0-8.07642-5.166-12.3418-5.16651-4.26417-14.66895-4.26465H687.75488V75.75436h9.541Zm0-26.09522h10.06836q4.97754.07617,7.48535,2.48877a9.03051,9.03051,0,0,1,2.50781,6.82569,8.48064,8.48064,0,0,1-2.71582,6.65576q-2.71435,2.43237-7.542,2.43213H697.2959Z"/><polygon class="cls-7" points="745.489 36.8 769.963 75.754 779.503 75.754 779.503 20.849 770.038 20.849 770.038 59.954 745.489 20.849 735.948 20.849 735.948 75.754 745.489 75.754 745.489 36.8"/><rect class="cls-7" x="791.34375" y="20.8486" width="9.50293" height="54.90576"/><polygon class="cls-7" points="822.116 36.8 846.59 75.754 856.13 75.754 856.13 20.849 846.665 20.849 846.665 59.954 822.116 20.849 812.575 20.849 812.575 75.754 822.116 75.754 822.116 36.8"/><path class="cls-7" d="M888.67383,47.58493v7.24023h11.3125v10.69q-3.09229,3.301-10.40723,3.30078a12.38315,12.38315,0,0,1-10.42676-4.90772q-3.75292-4.90721-3.75293-13.7832V45.91354q.11427-8.91284,3.45118-13.519,3.33691-4.60693,9.748-4.60693,9.917,0,11.501,9.91748h9.35254q-1.09423-8.52172-6.48633-13.06641-5.39355-4.54395-14.55566-4.54394-10.67286,0-16.63086,6.99511-5.95752,6.99537-5.958,19.43946v4.29882a31.33159,31.33159,0,0,0,2.998,13.59424,20.8446,20.8446,0,0,0,8.20215,8.95655A23.6273,23.6273,0,0,0,889.2392,76.5088a33.69845,33.69845,0,0,0,11.99218-1.999,18.24433,18.24433,0,0,0,8.25782-5.88233V47.58493Z"/><polygon class="cls-8" points="254.236 95.622 241.048 95.622 241.048 195.112 301.385 195.112 301.385 184.385 254.236 184.385 254.236 95.622"/><path class="cls-8" d="M370.67285,143.79587q-.27393-11.20606-7.5166-17.59571-7.24365-6.38817-20.021-6.38867a35.865,35.865,0,0,0-14.79394,3.00585,26.826,26.826,0,0,0-10.65967,8.166,17.44336,17.44336,0,0,0-3.9292,10.69336h12.71q0-4.8501,4.57813-8.26758a18.43331,18.43331,0,0,1,11.34277-3.417q7.72119,0,11.68506,3.92969,3.96166,3.93018,3.96289,10.55665v5.8086H345.73193q-15.92284,0-24.70214,6.38867-8.781,6.38967-8.78028,17.9375a20.00363,20.00363,0,0,0,7.00391,15.68164q7.00341,6.18458,17.937,6.18359a28.20112,28.20112,0,0,0,21.0459-9.15625q.68262,5.60448,1.77685,7.79H373.269v-1.09375q-2.59716-6.01172-2.59619-16.19434Zm-12.6416,30.6123a18.60471,18.60471,0,0,1-7.72119,7.99414,22.21937,22.21937,0,0,1-11.2749,3.0752,15.22426,15.22426,0,0,1-10.18116-3.34863,11.505,11.505,0,0,1-3.96338-9.293q0-13.59671,23.23292-13.59766h9.90771Z"/><path class="cls-8" d="M424.99609,119.81149a26.93938,26.93938,0,0,0-22.13916,10.65918l-.41015-9.293h-11.958v73.93457h12.64111V142.42868a22.26954,22.26954,0,0,1,7.24317-8.60937,18.246,18.246,0,0,1,10.79638-3.28028q7.585,0,11.17237,3.82715,3.5874,3.82764,3.65576,11.82129v48.9248h12.64111V146.25583Q448.43359,119.811,424.99609,119.81149Z"/><path class="cls-8" d="M514.37305,128.69431q-7.585-8.88283-20.56739-8.88282a25.49639,25.49639,0,0,0-21.11425,10.35157q-8.064,10.352-8.06348,27.36718v.95606q0,16.94825,8.09766,27.46972,8.09764,10.52346,20.94336,10.52248,13.5293,0,21.11425-9.293l.61524,7.92674h11.61621V90.15524h-12.6416Zm0,46.25976q-5.53419,10.7988-17.56055,10.79694a16.78437,16.78437,0,0,1-14.34961-7.10645q-5.19434-7.106-5.19336-19.67969,0-14.07567,5.19336-21.251,5.19141-7.17481,14.48633-7.17481,11.751,0,17.42383,10.45508Z"/><path class="cls-8" d="M590.76758,157.46188a68.23011,68.23011,0,0,0-15.33985-5.05664q-9.46581-2.11666-13.08593-4.4414a7.66563,7.66563,0,0,1-3.6211-6.90137,9.46435,9.46435,0,0,1,3.89453-7.8584q3.895-3.00586,10.79688-3.00683a16.51748,16.51748,0,0,1,11.10351,3.75877,11.41172,11.41172,0,0,1,4.40723,8.95119h12.71a20.62028,20.62028,0,0,0-7.82422-16.6045q-7.82518-6.49071-20.39648-6.49121-11.959,0-19.64551,6.28614-7.6875,6.28709-7.6875,15.375a16.34078,16.34078,0,0,0,2.69922,9.42968,21.67456,21.67456,0,0,0,8.33692,6.833,63.664,63.664,0,0,0,15.2373,4.91992q9.59911,2.04931,13.46191,4.88575a9.30934,9.30934,0,0,1,3.86036,7.96,8.92423,8.92423,0,0,1-4.33887,7.75586q-4.34034,2.90478-11.51367,2.9043-7.79,0-12.53907-3.72461a13.08289,13.08289,0,0,1-5.09082-10.07813h-12.6416a21.1578,21.1578,0,0,0,3.86133,12.19629,25.54615,25.54615,0,0,0,10.69336,8.78125,37.24015,37.24015,0,0,0,15.7168,3.14258q12.64013,0,20.56738-5.97851a18.92072,18.92072,0,0,0,7.92676-15.88672,17.39624,17.39624,0,0,0-2.83594-10.07911A22.38113,22.38113,0,0,0,590.76758,157.46188Z"/><path class="cls-8" d="M633.44043,137.13278q5.294-6.93454,14.93066-6.93554a16.89926,16.89926,0,0,1,12.05957,4.6123,17.42651,17.42651,0,0,1,5.43262,11.78711h11.958q-.54786-11.88867-8.78027-19.33691-8.23536-7.44729-20.66993-7.44825a32.31682,32.31682,0,0,0-17.52734,4.64649,30.1793,30.1793,0,0,0-11.37695,13.05078,44.5074,44.5074,0,0,0-3.96387,19.20117v2.11816q0,17.49316,8.918,27.57227,8.91651,10.07961,24.01855,10.07813a31.0649,31.0649,0,0,0,14.24707-3.416,28.81261,28.81261,0,0,0,10.76172-9.15625,22.9344,22.9344,0,0,0,4.373-12.09472h-11.958a14.42675,14.42675,0,0,1-5.60254,10.249,18.21074,18.21074,0,0,1-11.82129,4.10059q-9.77343,0-15.0332-6.90137-5.26319-6.90088-5.26172-19.67969v-2.3916Q628.14453,144.0693,633.44043,137.13278Z"/><path class="cls-8" d="M748.33984,143.79587q-.27391-11.20606-7.5166-17.59571-7.24365-6.38817-20.02051-6.38867a35.865,35.865,0,0,0-14.79394,3.00585,26.81763,26.81763,0,0,0-10.65918,8.166,17.44414,17.44414,0,0,0-3.92969,10.69336h12.71q0-4.8501,4.57813-8.26758a18.4344,18.4344,0,0,1,11.34277-3.417q7.72119,0,11.68457,3.92969,3.9624,3.93018,3.96387,10.55665v5.8086H723.39941q-15.92285,0-24.70214,6.38867-8.78028,6.38967-8.78028,17.9375a20.00382,20.00382,0,0,0,7.00391,15.68164q7.00341,6.18458,17.93652,6.18359a28.20322,28.20322,0,0,0,21.04688-9.15625q.68115,5.60448,1.77636,7.79h13.25586v-1.09375q-2.59716-6.01172-2.59668-16.19434Zm-12.64062,30.6123a18.61149,18.61149,0,0,1-7.72168,7.99414,22.22027,22.22027,0,0,1-11.27442,3.0752,15.22475,15.22475,0,0,1-10.18164-3.34863,11.50454,11.50454,0,0,1-3.96289-9.293q0-13.59671,23.23243-13.59766h9.9082Z"/><path class="cls-8" d="M801.77539,119.81149q-13.73437,0-21.45605,9.56641l-.61524-8.2002H768.15625V223.53806h12.6416V187.93747q7.71974,8.543,21.18262,8.541,13.18652,0,20.90918-10.3174,7.72119-10.31689,7.72168-27.19629v-1.16113q0-17.90186-7.75586-27.94824Q815.09912,119.811,801.77539,119.81149Zm10.83008,59.14063a17.08726,17.08726,0,0,1-14.45215,7.209q-11.68359,0-17.35547-10.11328V140.72067Q786.5371,130.54,798.0166,130.539a17.17067,17.17067,0,0,1,14.623,7.24317q5.33056,7.24365,5.33008,19.748Q817.96976,171.74363,812.60547,178.95212Z"/><path class="cls-8" d="M875.77832,119.81149a29.54678,29.54678,0,0,0-16.36523,4.88575,32.76931,32.76931,0,0,0-11.75293,13.52929A44.3695,44.3695,0,0,0,843.457,157.872v2.32325q0,16.53664,9.42969,26.41015,9.43066,9.87455,24.46289,9.87305,18.58593,0,27.8789-14.28125l-7.7207-6.0127a28.48534,28.48534,0,0,1-8.13183,7.24317,22.019,22.019,0,0,1-11.34278,2.7334,20.08171,20.08171,0,0,1-15.5459-6.73047q-6.11571-6.72948-6.38867-17.66406h50.08692v-5.26172q0-17.69679-7.99512-27.19532Q890.19681,119.81151,875.77832,119.81149ZM893.544,151.37985H856.50879q1.23047-10.04443,6.42285-15.61328a16.86434,16.86434,0,0,1,12.84668-5.56933q7.9248,0,12.57227,5.29588,4.64648,5.29688,5.19336,14.93066Z"/></svg>