<svg id="Layer_1" data-name="Layer 1" xmlns="http://www.w3.org/2000/svg" viewBox="0 0 400 400"><path d="M258.687,203.81753a40.96242,40.96242,0,0,1,6.1748-21.57672A44.51058,44.51058,0,0,1,280.251,167.344l.10645-.1092.7102-.35882a47.03469,47.03469,0,0,1,14.32739-5.1593c1.1521-.217,2.3274-.38959,3.51416-.5196a25.77548,25.77548,0,0,0,10.0708-16.609,52.56142,52.56142,0,0,0-48.46533-32.65485,48.7767,48.7767,0,0,0-48.5354,48.73334v5.15124h-5.15307a58.28016,58.28016,0,0,0-58.2212,58.19568v58.19965l60.37867-.01642v.00006a36.50621,36.50621,0,0,0,30.93994-55.86511,53.866,53.866,0,0,1-4.04029-5.29584,36.57127,36.57127,0,0,0-26.87158-11.81311V198.93032a46.8796,46.8796,0,0,1,19.16822,4.13373,51.23816,51.23816,0,0,1-1.20289-11.00092h10.28882a41.68447,41.68447,0,0,0,6.76978,22.67218,46.62579,46.62579,0,0,1,4.12744,5.39228A48.11078,48.11078,0,0,0,272.635,234.7134q-.43395-.39312-.85376-.79236A41.4182,41.4182,0,0,1,258.687,203.81753Z"/><path d="M304.32273,195.25594c-5.26563,0-9.54785,3.84156-9.54785,8.56153,0,4.72277,4.28222,8.56543,9.54785,8.56543,5.26318,0,9.54541-3.84266,9.54541-8.56543C313.86814,199.0975,309.58591,195.25594,304.32273,195.25594Z"/><path d="M99.80783,205.12624a38.54068,38.54068,0,1,0-.01367,77.08136h38.57032V243.67721A38.60371,38.60371,0,0,0,99.80783,205.12624Z"/><path d="M304.32273,171.18575c-1.062,0-2.1145.04236-3.123.12726l-.03491.00275a37.15416,37.15416,0,0,0-14.84326,4.4118l-.34693.19092c-10.64673,5.98151-17.00879,16.41022-17.00879,27.899,0,17.82379,15.11621,32.14935,34.376,32.62384v.0028h.0603v-.0028c.05786.0028.1062.0028.15723.0028l.77734.01178c19.48413-.00744,35.32935-14.64459,35.32935-32.63842C339.666,185.82387,323.8093,171.18575,304.32273,171.18575Zm0,51.4859c-10.93823,0-19.83594-8.456-19.83594-18.85418,0-10.39423,8.89771-18.8512,19.83594-18.8512s19.83594,8.457,19.83594,18.8512C324.15867,214.21566,315.261,222.67165,304.32273,222.67165Z"/><path d="M200.459,6.21157C95.04978,6.21157,9.59617,91.6625,9.59617,197.0732c0,105.41,85.45361,190.86347,190.86279,190.86347s190.8623-85.45349,190.8623-190.86347C391.32126,91.6625,305.86814,6.21157,200.459,6.21157Zm103.86377,240.5329c-.354,0-.70557-.00623-1.05274-.01618h-.09716l-18.23707-.236a60.754,60.754,0,0,1-29.66821-7.6687,46.8158,46.8158,0,0,1-17.05542,43.384h26.31641v10.29779H99.79416a48.83259,48.83259,0,1,1,39.1919-77.9309,68.61538,68.61538,0,0,1,62.90429-58.877,59.09944,59.09944,0,0,1,58.60816-54.05456,62.59675,62.59675,0,0,1,58.57031,40.49523l.43262,1.15674-.134,1.22846a35.9451,35.9451,0,0,1-6.605,17.1084l-.00024.00006c21.14551,3.73486,37.19629,21.23059,37.19629,42.18567C349.95847,227.48836,329.48435,246.74447,304.32273,246.74447Z"/></svg>