<svg id="Layer_1" data-name="Layer 1" xmlns="http://www.w3.org/2000/svg" viewBox="0 0 612 609.4541"><defs><style>.cls-1{opacity:0.8;}</style></defs><title>horovod-horizontal-black</title><circle cx="577.71814" cy="303.55603" r="23.52753"/><path d="M530.20605,243.4668v.00012l-37.118-15.38983-32.2359,77.90027.00336.00805.04779-.11523,32.22754,77.88013,37.0733-15.37122a233.278,233.278,0,0,0,8.05365-48.968v.00006q.3827-6.69909.38269-13.49151A234.015,234.015,0,0,0,530.20605,243.4668Z"/><path d="M331.03308,578.38922a23.52753,23.52753,0,1,0-47.055-.00012v.00006a23.52734,23.52734,0,0,0,23.525,23.52747h.00488A23.52747,23.52747,0,0,0,331.03308,578.38922Z"/><path d="M305.25812,461.5459l-.07788-.03223,79.91095-33.068.04229-.01752L305.142,461.52936,195.04,415.9682l.02569.06195.00013.00006-.00678-.01636L305.1156,461.5564l-.1236.05114.05945.02466-77.74017,32.16968,15.37128,37.07336a233.27761,233.27761,0,0,0,48.968,8.05353l-.00012-.00006q6.69882.38278,13.49152.38275a234.015,234.015,0,0,0,62.45282-8.43445l15.38977-37.11792-77.786-32.18853Z"/><circle cx="32.4744" cy="308.37454" r="23.52745" transform="translate(-208.5422 113.28368) rotate(-45)"/><path d="M149.337,305.94531l-.0478.11524-32.22753-77.88031L79.98828,243.55151a233.28179,233.28179,0,0,0-8.05359,48.968v-.00006q-.38278,6.69891-.38281,13.49152a234.016,234.016,0,0,0,8.43457,62.45282h-.00012l37.118,15.38977,32.2359-77.90033Z"/><path d="M304.93427,150.3847l.07794.03229.03827-.01587L415.1524,195.9624l-.01892-.04565L305.0769,150.37421l.12372-.05121-.05963-.02472,77.74024-32.16962L367.51,81.05542a233.2741,233.2741,0,0,0-48.968-8.05359H318.542q-6.69882-.38278-13.49151-.38275a234.01337,234.01337,0,0,0-62.45282,8.43451h.00012l-15.38971,37.1178L304.9939,150.36Z"/><path d="M302.687,57.069A23.52746,23.52746,0,0,0,326.21448,33.5415v-.00012A23.52753,23.52753,0,1,0,302.687,57.069Z"/><path d="M97.39075,483.6651l-.00006.00006a23.52753,23.52753,0,1,0,.00006-.00006Z"/><path d="M516.20923,513.53082a23.52753,23.52753,0,0,0-33.273-33.27295l-.00018.00019a23.52753,23.52753,0,0,0,33.27313,33.27276Z"/><polygon points="420.08 102.736 420.08 102.736 420.08 102.736 420.08 102.736"/><polygon points="101.726 191.122 101.727 191.122 101.727 191.122 101.726 191.122"/><path d="M382.89874,118.17078l32.22791,77.72943.07782.03229,45.62408,110.03912.01062-.02564.00421.01014.01514-.03656-.03894-.09406-.02319.056-45.587-109.94934.16321.0675-.07239-.17486,77.78784,32.25232,15.31678-37.01392a233.28186,233.28186,0,0,0-28.93091-40.32031h-.00006q-4.46613-5.00748-9.26929-9.81061a234.01646,234.01646,0,0,0-50.12482-38.19665l-37.19854,15.39306.01745.04212Z"/><path d="M415.36945,415.8468l-.07776.03217-.02259.05444-30.13562,12.49475,30.10334-12.457L383.002,493.717H383.002l-.01739.04205,37.15387,15.37464A233.27759,233.27759,0,0,0,460.4588,480.203l-.00006.00006q5.00739-4.46631,9.81055-9.26941A234.01656,234.01656,0,0,0,508.466,420.80878l-15.33514-37.05847-77.83368,32.27117Z"/><path d="M127.25629,98.39966a23.52751,23.52751,0,1,0,.00006,33.27295v-.00006a23.52749,23.52749,0,0,0,0-33.27289Z"/><path d="M194.82294,196.0838l.07782-.03216.02258-.05445,30.11383-12.48572-30.08148,12.448,32.23486-77.746h.00006l.01746-.04211-37.15393-15.37464a233.28206,233.28206,0,0,0-40.32038,28.93085h-.00006q-5.00747,4.46622-9.8106,9.26935a234.01623,234.01623,0,0,0-38.1966,50.12482l15.33515,37.05847,77.83361-32.27118Z"/><path d="M227.29376,493.75977l-7.15112-17.24756-25.077-60.48206-.07757-.03216L149.36389,305.959l-.01062.02564-.00421-.01013-.01508.0365.03894.09411.02326-.056L194.983,415.99847l-.163-.06744.07232.1748-77.788-32.25225-15.31665,37.01373a233.27812,233.27812,0,0,0,28.93091,40.32031h-.00006q4.46612,5.00757,9.26928,9.81067a234.01523,234.01523,0,0,0,50.12488,38.19678l-.00006-.00006,37.19861-15.39313-.01752-.04211Z"/><path d="M512.80176,128.26544l.00006-.00006a23.52751,23.52751,0,1,0-33.27289.00006h-.00006A23.5276,23.5276,0,0,0,512.80176,128.26544Z"/><polygon points="460.856 305.985 493.074 383.692 415.369 415.847 415.297 416.021 493.131 383.75 460.903 305.87 460.856 305.985"/><polygon points="415.373 196 493.031 228.136 460.82 305.826 460.859 305.92 460.843 305.956 460.852 305.977 493.088 228.077 415.3 195.825 415.373 196"/><polygon points="195.066 416.03 195.066 416.03 220.143 476.512 195.066 416.03"/><polygon points="305.258 461.546 305.199 461.571 382.985 493.759 383.002 493.717 305.258 461.546"/><polygon points="415.237 415.971 385.133 428.428 385.091 428.446 415.237 415.971"/><polygon points="304.992 461.608 227.294 493.76 227.311 493.802 305.051 461.632 304.992 461.608"/><polygon points="194.82 415.931 117.161 383.795 117.161 383.795 149.373 306.105 149.334 306.011 149.349 305.974 149.34 305.953 117.104 383.854 194.892 416.106 194.82 415.931"/><polygon points="149.337 305.945 117.118 228.239 117.118 228.239 194.823 196.084 194.895 195.909 117.062 228.18 149.289 306.061 149.337 305.945"/><polygon points="304.934 150.385 304.994 150.36 227.208 118.171 227.191 118.214 304.934 150.385"/><path d="M305.20062,150.323c.24671-.10211,77.69794-32.15222,77.69806-32.15222l-.01745-.04212L305.141,150.29828Z"/><polygon points="460.833 305.982 460.829 305.972 415.252 415.895 415.292 415.879 448.394 336.042 460.833 305.982"/><polygon points="415.127 195.9 415.127 195.9 415.133 195.917 415.133 195.917 415.127 195.9"/><polygon points="305.012 150.417 225.057 183.503 225.037 183.511 305.012 150.417 305.012 150.417"/><polygon points="194.901 196.052 161.767 275.966 149.36 305.949 149.364 305.959 194.94 196.035 194.901 196.052"/><polygon points="460.833 305.982 448.394 336.042 460.856 305.985 460.852 305.977 460.842 306.003 460.833 305.982"/><polygon points="305.116 461.556 195.059 416.014 195.066 416.03 304.992 461.608 305.116 461.556"/><polygon points="305.18 461.514 305.258 461.546 385.091 428.446 305.18 461.514"/><polygon points="149.36 305.949 161.767 275.966 149.337 305.945 149.34 305.953 149.351 305.928 149.36 305.949"/><polygon points="305.201 150.323 305.077 150.374 415.133 195.917 415.127 195.9 305.201 150.323"/><polygon points="305.012 150.417 304.934 150.385 225.057 183.503 305.012 150.417"/><polygon points="149.349 305.974 149.353 305.985 149.364 305.959 149.36 305.949 149.349 305.974"/><polygon points="194.983 415.998 149.396 306.049 149.373 306.105 194.82 415.931 194.983 415.998"/><polygon points="227.191 118.214 194.956 195.959 227.191 118.214 227.191 118.214"/><polygon points="415.209 195.932 460.796 305.881 460.82 305.826 415.373 196 415.209 195.932"/><polygon points="415.292 415.879 415.369 415.847 448.394 336.042 415.292 415.879"/><polygon points="383.002 493.717 415.237 415.971 383.002 493.717 383.002 493.717"/><polygon points="227.294 493.76 227.294 493.76 220.143 476.512 227.294 493.76"/><polygon points="194.956 195.959 225.037 183.511 225.057 183.503 194.956 195.959"/><polygon points="415.127 195.9 382.899 118.171 382.899 118.171 415.127 195.9 415.127 195.9"/><polygon points="194.901 196.052 194.823 196.084 161.767 275.966 194.901 196.052"/><polygon points="460.843 305.956 460.839 305.946 460.829 305.972 460.833 305.982 460.843 305.956"/><polygon points="460.833 305.982 460.842 306.003 460.852 305.977 460.843 305.956 460.833 305.982"/><polygon class="cls-1" points="415.369 415.847 493.074 383.692 460.856 305.985 448.394 336.042 415.369 415.847"/><polygon class="cls-1" points="415.373 196 460.82 305.826 493.031 228.136 415.373 196"/><polygon class="cls-1" points="305.258 461.546 383.002 493.717 415.237 415.971 385.091 428.446 305.258 461.546"/><polygon class="cls-1" points="227.294 493.76 304.992 461.608 195.066 416.03 220.143 476.512 227.294 493.76"/><polygon class="cls-1" points="117.161 383.795 194.82 415.931 149.373 306.105 117.161 383.795 117.161 383.795"/><polygon points="149.351 305.928 149.34 305.953 149.349 305.974 149.36 305.949 149.351 305.928"/><polygon class="cls-1" points="194.823 196.084 117.118 228.239 117.118 228.239 149.337 305.945 161.767 275.966 194.823 196.084"/><polygon class="cls-1" points="304.934 150.385 227.191 118.214 194.956 195.959 225.057 183.503 304.934 150.385"/><path class="cls-1" d="M382.89868,118.17078c-.00012,0-77.45135,32.05011-77.69806,32.15222l109.926,45.57721Z"/><path d="M314.12067,291.37573a19.78938,19.78938,0,0,0-16.51624,0,10.617,10.617,0,0,0-4.61395,5.57227,33.63187,33.63187,0,0,0,.02234,19.74835,10.82211,10.82211,0,0,0,4.63611,5.63916,16.25087,16.25087,0,0,0,8.22473,1.82764,16.55892,16.55892,0,0,0,8.247-1.78308,10.4306,10.4306,0,0,0,4.56933-5.59461,28.53982,28.53982,0,0,0,1.44879-9.96332A27.99793,27.99793,0,0,0,318.69,296.948,10.5445,10.5445,0,0,0,314.12067,291.37573Zm-1.159,22.55677a5.9391,5.9391,0,0,1-2.4295,3.54394,11.09559,11.09559,0,0,1-9.317,0,6.01618,6.01618,0,0,1-2.45178-3.52173,25.14539,25.14539,0,0,1-.78015-7.13251,25.59652,25.59652,0,0,1,.75787-7.11022,5.81633,5.81633,0,0,1,2.4295-3.47718,9.07533,9.07533,0,0,1,4.65845-1.003h.00006a9.35516,9.35516,0,0,1,4.703.98071,5.728,5.728,0,0,1,2.4295,3.47718A33.83718,33.83718,0,0,1,312.96167,313.9325Z"/><path d="M384.61407,291.37573a19.78994,19.78994,0,0,0-16.51629,0,10.61716,10.61716,0,0,0-4.61389,5.57227,33.63081,33.63081,0,0,0,.02221,19.74835,10.82293,10.82293,0,0,0,4.63623,5.63916,16.25066,16.25066,0,0,0,8.22474,1.82764,16.55916,16.55916,0,0,0,8.247-1.78308,10.43082,10.43082,0,0,0,4.56928-5.59461,28.53843,28.53843,0,0,0,1.44879-9.96332,27.99816,27.99816,0,0,0-1.44879-9.87414A10.54469,10.54469,0,0,0,384.61407,291.37573ZM383.455,313.9325a5.93881,5.93881,0,0,1-2.42951,3.54394,11.09544,11.09544,0,0,1-9.31689,0,6.01629,6.01629,0,0,1-2.45185-3.52173,25.14828,25.14828,0,0,1-.78015-7.13251,25.59653,25.59653,0,0,1,.75788-7.11022,5.817,5.817,0,0,1,2.4295-3.47718,9.07606,9.07606,0,0,1,4.65845-1.003,9.35519,9.35519,0,0,1,4.70306.98071,5.728,5.728,0,0,1,2.42951,3.47718A33.83718,33.83718,0,0,1,383.455,313.9325Z"/><path d="M281.45953,306.13129a10.60374,10.60374,0,0,0,1.56031-5.99585q-.00009-5.12651-2.853-7.57831t-8.78192-2.45184h-11.8133v33.43383h6.1518V310.38849h5.706l6.59766,13.15063h7.22162l-8.247-14.35424h.00006A7.21812,7.21812,0,0,0,281.45953,306.13129Zm-6.06262-1.6717a6.01089,6.01089,0,0,1-4.14581,1.159h-5.52771v-10.253h5.70605a5.8332,5.8332,0,0,1,4.01209,1.11444q1.20355,1.11429,1.20361,3.8783Q276.64514,303.30047,275.39691,304.45959Z"/><path d="M243.40442,291.37573a19.79,19.79,0,0,0-16.5163,0,10.61711,10.61711,0,0,0-4.61389,5.57233,33.6307,33.6307,0,0,0,.02228,19.74829,10.82223,10.82223,0,0,0,4.63617,5.63916,16.25019,16.25019,0,0,0,8.22473,1.8277v-.00006a16.5589,16.5589,0,0,0,8.247-1.783,10.43063,10.43063,0,0,0,4.56927-5.59467,28.54,28.54,0,0,0,1.44886-9.96326,27.99918,27.99918,0,0,0-1.44886-9.87414A10.54453,10.54453,0,0,0,243.40442,291.37573Zm-1.15906,22.55683a5.93871,5.93871,0,0,1-2.4295,3.54388,11.095,11.095,0,0,1-9.3169,0,6.016,6.016,0,0,1-2.45184-3.52167,25.14793,25.14793,0,0,1-.78009-7.13257,25.59685,25.59685,0,0,1,.75781-7.11022,5.81715,5.81715,0,0,1,2.42951-3.47718,9.07625,9.07625,0,0,1,4.6585-1.003v.00006a9.355,9.355,0,0,1,4.703.98065,5.72822,5.72822,0,0,1,2.4295,3.47718A33.83747,33.83747,0,0,1,242.24536,313.93256Z"/><path d="M400.78113,290.10529v33.43377h11.635l.00012.00006q7.4,0,11.256-4.23492t3.856-12.61566q0-8.64835-3.67774-12.61579-3.67758-3.96753-11.52349-3.96746Zm19.39166,9.89642a18.663,18.663,0,0,1,.9361,6.64215q0,6.10711-2.162,8.69275t-6.66449,2.58563H406.933V295.76672h5.34931a11.51492,11.51492,0,0,1,5.05963.93616A5.89586,5.89586,0,0,1,420.17279,300.00171Z"/><polygon points="190.906 309.185 204.502 309.185 204.502 323.539 210.654 323.539 210.654 290.105 204.502 290.105 204.502 303.523 190.906 303.523 190.906 290.105 184.754 290.105 184.754 323.539 190.906 323.539 190.906 309.185"/><polygon points="341.745 317.61 341.611 317.61 340.63 314.178 333.23 290.105 326.454 290.105 338.044 323.539 344.999 323.539 356.589 290.105 350.214 290.105 342.725 314.178 341.745 317.61"/></svg>