<?xml version="1.0" encoding="utf-8"?>
<!-- Generator: Adobe Illustrator 28.3.0, SVG Export Plug-In . SVG Version: 6.00 Build 0)  -->
<svg version="1.1" id="Layer_1" xmlns="http://www.w3.org/2000/svg" xmlns:xlink="http://www.w3.org/1999/xlink" x="0px" y="0px"
	 width="800px" height="648.5px" viewBox="0 0 800 648.5" style="enable-background:new 0 0 800 648.5;" xml:space="preserve">
<style type="text/css">
	.st0{fill:url(#SVGID_1_);}
	.st1{fill:url(#SVGID_00000061430654999857419320000003550616904413722782_);}
	.st2{fill:url(#SVGID_00000162349907874935849170000009329404633842230692_);}
	.st3{fill:url(#SVGID_00000105402566651746678180000016124007789288825266_);}
	.st4{fill:url(#SVGID_00000033353981234881333900000008225490040933861555_);}
	.st5{fill:url(#SVGID_00000163033886615983309610000013226113015800224423_);}
	.st6{fill:url(#SVGID_00000031889739749297123700000015558073246341502853_);}
	.st7{fill:url(#SVGID_00000013160628815160814230000015566474153940820397_);}
	.st8{fill:url(#SVGID_00000114049347390916725270000013687196591961375675_);}
	.st9{fill:url(#SVGID_00000039849660333062328290000016179549679419766181_);}
	.st10{fill:url(#SVGID_00000075877481078551633070000013400900875843556005_);}
	.st11{fill:url(#SVGID_00000096021540566795849200000003565364346117158048_);}
	.st12{fill:url(#SVGID_00000151502060970071587420000013567346696392980629_);}
	.st13{fill:url(#SVGID_00000093153632639540852920000001314157904447933870_);}
	.st14{fill:url(#SVGID_00000167376083259030539010000013894387382634162056_);}
	.st15{fill:url(#SVGID_00000021814091001064616500000003473513289716850081_);}
	.st16{fill:url(#SVGID_00000165192834124641672490000002114181776539475887_);}
	.st17{fill:url(#SVGID_00000142891922826132646710000003756116627052010683_);}
	.st18{fill:url(#SVGID_00000036216427075505218870000008241648872880437937_);}
	.st19{fill:url(#SVGID_00000034774911524883385630000002121322988661944714_);}
	.st20{fill:url(#SVGID_00000083080456152716147030000008558610018034398115_);}
	.st21{fill:url(#SVGID_00000167376210403577907290000010705311597314680466_);}
	.st22{fill:url(#SVGID_00000084513947508743753730000004975468139089917838_);}
	.st23{fill:url(#SVGID_00000064334155533605435000000015041697246753845685_);}
	.st24{fill:url(#SVGID_00000119834184582661640510000010368909140533954454_);}
	.st25{fill:#FFFFFF;}
	.st26{fill:url(#SVGID_00000044144539823055519110000013946209470048140955_);}
	.st27{fill:url(#SVGID_00000159464480510164048150000003631703162252333961_);}
	.st28{fill:url(#SVGID_00000088835559399336495740000014092794965908438190_);}
</style>
<g>
	<linearGradient id="SVGID_1_" gradientUnits="userSpaceOnUse" x1="-838.3198" y1="324.2655" x2="1448.8187" y2="324.2655">
		<stop  offset="0" style="stop-color:#0022B6"/>
		<stop  offset="1" style="stop-color:#04DFC7"/>
	</linearGradient>
	<path class="st0" d="M0,0v129.7v129.8v129.7v129.7l224.6,129.8V518.8V389.1V259.4V129.7L112.4,64.8L0,0z M147.1,285.2l19.6-19.5
		l19.6,19.5l-19.6,19.5l-19.6,19.5l-19.6,19.5L108,363.3l-19.6,19.5l-19.6-19.5l-19.6-19.5l-19.6-19.5l19.6-19.5l19.6,19.5
		l19.6,19.5l19.6-19.5l19.6-19.5L147.1,285.2z"/>
	
		<linearGradient id="SVGID_00000069392607463111781360000016529276325206151870_" gradientUnits="userSpaceOnUse" x1="-550.546" y1="324.2655" x2="1736.5725" y2="324.2655">
		<stop  offset="0" style="stop-color:#0022B6"/>
		<stop  offset="1" style="stop-color:#04DFC7"/>
	</linearGradient>
	<path style="fill:url(#SVGID_00000069392607463111781360000016529276325206151870_);" d="M287.8,0v129.7v129.8v129.7v129.7
		l224.6,129.8V518.8V389.1V259.4V129.7L400,64.8L287.8,0z M435.2,285.2l19.6-19.5l19.6,19.5l-19.6,19.5l-19.6,19.5l-19.6,19.5
		l-19.6,19.5l-19.6,19.5l-19.6-19.5l-19.6-19.5l-19.6-19.5l19.6-19.5l19.6,19.5l19.6,19.5l19.6-19.5l19.6-19.5L435.2,285.2z"/>
	
		<linearGradient id="SVGID_00000088135102871725046910000014047493460370734985_" gradientUnits="userSpaceOnUse" x1="-263.306" y1="324.2655" x2="2024.6138" y2="324.2655">
		<stop  offset="0" style="stop-color:#0022B6"/>
		<stop  offset="1" style="stop-color:#04DFC7"/>
	</linearGradient>
	<path style="fill:url(#SVGID_00000088135102871725046910000014047493460370734985_);" d="M687.6,64.8L575.3,0v129.7v129.8v129.7
		v129.7L800,648.5V518.8V389.1V259.4V129.7L687.6,64.8z M746.3,304.7l-19.6,19.5l-19.6,19.5l-19.6,19.5l-19.6,19.5l-19.6-19.5
		L629,343.8l-19.6-19.5l19.6-19.5l19.6,19.5l19.6,19.5l19.6-19.5l19.6-19.5l19.6-19.5l19.6-19.5l19.6,19.5L746.3,304.7z"/>
</g>
</svg>
