<svg id="Layer_1" data-name="Layer 1" xmlns="http://www.w3.org/2000/svg" xmlns:xlink="http://www.w3.org/1999/xlink" viewBox="0 0 200 200"><defs><style>.cls-1,.cls-3{fill:#fff;}.cls-1,.cls-5{stroke:#fff;stroke-miterlimit:10;}.cls-2{clip-path:url(#clip-path);}.cls-4{clip-path:url(#clip-path-2);}.cls-5{fill:none;}.cls-6{clip-path:url(#clip-path-3);}</style><clipPath id="clip-path"><path d="M100.99981,144.58474,30.0866,73.67924,100.99981,2.766,171.913,73.67924l-70.91321,70.9055Z"/></clipPath><clipPath id="clip-path-2"><path class="cls-1" d="M32.26677,97.66107l68.733-68.733,68.733,68.733-68.733,68.733Z"/></clipPath><clipPath id="clip-path-3"><path d="M100.99981,197.00888,30.0866,126.09568l70.91321-70.9055,70.91319,70.9055-70.91321,70.9132Z"/></clipPath></defs><path d="M100.99981,144.58474,30.0866,73.67924,100.99981,2.766,171.913,73.67924l-70.91321,70.9055Z"/><g class="cls-2"><rect x="30.0866" y="2.76604" width="141.8264" height="1.27637"/><rect x="30.0866" y="4.0424" width="141.8264" height="11.71186"/><rect x="30.0866" y="15.75427" width="141.8264" height="11.71186"/><rect x="30.0866" y="27.46613" width="141.8264" height="11.71186"/><rect x="30.0866" y="39.17799" width="141.8264" height="11.71186"/><rect x="30.0866" y="50.88985" width="141.8264" height="11.71186"/><rect x="30.0866" y="62.60171" width="141.8264" height="11.71186"/><rect x="30.0866" y="74.31357" width="141.8264" height="11.71186"/><rect x="30.0866" y="86.02543" width="141.8264" height="11.71186"/><rect x="30.0866" y="97.73729" width="141.8264" height="11.71186"/><rect x="30.0866" y="109.44916" width="141.8264" height="11.71186"/><rect x="30.0866" y="121.16102" width="141.8264" height="11.71186"/><rect x="30.0866" y="132.87288" width="141.8264" height="11.71186"/></g><path class="cls-3" d="M32.26677,97.66107l68.733-68.733,68.733,68.733-68.733,68.733Z"/><g class="cls-4"><rect class="cls-1" x="32.26677" y="28.92804" width="137.46607" height="0.54986"/><rect class="cls-1" x="32.26677" y="29.4779" width="137.46607" height="5.44916"/><rect class="cls-1" x="32.26677" y="34.92706" width="137.46607" height="5.44916"/><rect class="cls-1" x="32.26677" y="40.37621" width="137.46607" height="5.44915"/><rect class="cls-1" x="32.26677" y="45.82537" width="137.46607" height="5.44916"/><rect class="cls-1" x="32.26677" y="51.27452" width="137.46607" height="5.44915"/><rect class="cls-1" x="32.26677" y="56.72368" width="137.46607" height="5.44916"/><rect class="cls-1" x="32.26677" y="62.17283" width="137.46607" height="5.44916"/><rect class="cls-1" x="32.26677" y="67.62199" width="137.46607" height="5.44915"/><rect class="cls-1" x="32.26677" y="73.07114" width="137.46607" height="5.44916"/><rect class="cls-1" x="32.26677" y="78.5203" width="137.46607" height="5.44916"/><rect class="cls-1" x="32.26677" y="83.96945" width="137.46607" height="5.44915"/><rect class="cls-1" x="32.26677" y="89.41861" width="137.46607" height="5.44916"/><rect class="cls-1" x="32.26677" y="94.86776" width="137.46607" height="5.44915"/><rect class="cls-1" x="32.26677" y="100.31692" width="137.46607" height="5.44916"/><rect class="cls-1" x="32.26677" y="105.76607" width="137.46607" height="5.44916"/><rect class="cls-1" x="32.26677" y="111.21523" width="137.46607" height="5.44915"/><rect class="cls-1" x="32.26677" y="116.66438" width="137.46607" height="5.44916"/><rect class="cls-1" x="32.26677" y="122.11354" width="137.46607" height="5.44916"/><rect class="cls-1" x="32.26677" y="127.56269" width="137.46607" height="5.44915"/><rect class="cls-1" x="32.26677" y="133.01185" width="137.46607" height="5.44916"/><rect class="cls-1" x="32.26677" y="138.461" width="137.46607" height="5.44915"/><rect class="cls-1" x="32.26677" y="143.91016" width="137.46607" height="5.44916"/><rect class="cls-1" x="32.26677" y="149.35931" width="137.46607" height="5.44916"/><rect class="cls-1" x="32.26677" y="154.80847" width="137.46607" height="5.44915"/><rect class="cls-1" x="32.26677" y="160.25762" width="137.46607" height="5.44916"/><rect class="cls-1" x="32.26677" y="165.70678" width="137.46607" height="0.68733"/></g><path class="cls-5" d="M32.26677,97.66107l68.733-68.733,68.733,68.733-68.733,68.733Z"/><path d="M100.99981,197.00888,30.0866,126.09568l70.91321-70.9055,70.91319,70.9055-70.91321,70.9132Z"/><g class="cls-6"><rect x="30.0866" y="55.19018" width="141.8264" height="0.85091"/><rect x="30.0866" y="56.04109" width="141.8264" height="11.74732"/><rect x="30.0866" y="67.78841" width="141.8264" height="11.74732"/><rect x="30.0866" y="79.53572" width="141.8264" height="11.74732"/><rect x="30.0866" y="91.28304" width="141.8264" height="11.74732"/><rect x="30.0866" y="103.03036" width="141.8264" height="11.74732"/><rect x="30.0866" y="114.77767" width="141.8264" height="11.74732"/><rect x="30.0866" y="126.52499" width="141.8264" height="11.74732"/><rect x="30.0866" y="138.2723" width="141.8264" height="11.74732"/><rect x="30.0866" y="150.01962" width="141.8264" height="11.74732"/><rect x="30.0866" y="161.76694" width="141.8264" height="11.74732"/><rect x="30.0866" y="173.51425" width="141.8264" height="11.74732"/><rect x="30.0866" y="185.26157" width="141.8264" height="11.74732"/></g><path d="M100.99962,169.11788,29.5434,97.6609l71.45622-71.4566,71.457,71.4566ZM34.9902,97.6609l66.00942,66.01017L167.0098,97.6609l-66.01018-66.009Z"/></svg>