<svg id="Layer_1" data-name="Layer 1" xmlns="http://www.w3.org/2000/svg" viewBox="0 0 200.91089 54.27174"><defs><style>.cls-1{fill:#fff;}</style></defs><path class="cls-1" d="M176.46322,22.2707a4.8439,4.8439,0,0,0-1.80317.329,3.638,3.638,0,0,0-1.37927.949,4.39464,4.39464,0,0,0-.88578,1.56908,6.50617,6.50617,0,0,0-.30369,2.06257,6.57247,6.57247,0,0,0,.30369,2.08155,4.32084,4.32084,0,0,0,.87944,1.53744,3.73852,3.73852,0,0,0,1.37927.95536,5.1872,5.1872,0,0,0,3.619.00634,3.7431,3.7431,0,0,0,1.37927-.96169,4.23464,4.23464,0,0,0,.87311-1.53111,7.09518,7.09518,0,0,0,.00635-4.16944,4.25423,4.25423,0,0,0-.87945-1.5501,3.75058,3.75058,0,0,0-1.37293-.94271A4.67562,4.67562,0,0,0,176.46322,22.2707Zm-53.10183.02532a5.31538,5.31538,0,0,0-1.89175.32266,3.97928,3.97928,0,0,0-1.44886.9364,4.2087,4.2087,0,0,0-.949,1.5501,6.14177,6.14177,0,0,0-.329,2.08155,6.24245,6.24245,0,0,0,.34166,2.15748,4.11565,4.11565,0,0,0,.949,1.52478,3.83614,3.83614,0,0,0,1.4552.90476,5.79656,5.79656,0,0,0,1.86643.28471,5.14484,5.14484,0,0,0,.99333-.0886,7.0301,7.0301,0,0,0,.84148-.20246,5.98006,5.98006,0,0,0,.73393-.27837q.28468-.13287.63268-.28471V29.73647h-.08858a4.86827,4.86827,0,0,1-1.48049.93006,4.60451,4.60451,0,0,1-1.69562.31,3.5604,3.5604,0,0,1-1.25272-.22143,2.792,2.792,0,0,1-1.03129-.696,3.47223,3.47223,0,0,1-.696-1.16415,4.91021,4.91021,0,0,1-.26572-1.70827,5.28238,5.28238,0,0,1,.24043-1.67031,3.32522,3.32522,0,0,1,.6833-1.2021,2.78627,2.78627,0,0,1,1.01862-.71494,3.39929,3.39929,0,0,1,1.2907-.2341,4.48564,4.48564,0,0,1,1.63867.29738,5.58291,5.58291,0,0,1,1.54378.949h.09489V23.12485a8.06691,8.06691,0,0,0-1.683-.64535A6.36526,6.36526,0,0,0,123.36139,22.296Zm22.52384,0a5.3153,5.3153,0,0,0-1.89175.32266,3.9794,3.9794,0,0,0-1.44887.9364,4.20881,4.20881,0,0,0-.949,1.5501,6.14176,6.14176,0,0,0-.329,2.08155,6.24268,6.24268,0,0,0,.34166,2.15748,4.11554,4.11554,0,0,0,.949,1.52478,3.8361,3.8361,0,0,0,1.45519.90476,5.79667,5.79667,0,0,0,1.86644.28471,5.14491,5.14491,0,0,0,.99333-.0886,7.0301,7.0301,0,0,0,.84148-.20246,5.98006,5.98006,0,0,0,.73393-.27837q.28468-.13287.63268-.28471V29.73647h-.08858a4.8682,4.8682,0,0,1-1.4805.93006,4.60451,4.60451,0,0,1-1.69562.31,3.56039,3.56039,0,0,1-1.25271-.22143,2.792,2.792,0,0,1-1.03129-.696,3.4719,3.4719,0,0,1-.696-1.16415,4.91,4.91,0,0,1-.26572-1.70827,5.28238,5.28238,0,0,1,.24043-1.67031,3.32507,3.32507,0,0,1,.6833-1.2021,2.78619,2.78619,0,0,1,1.01862-.71494,3.39925,3.39925,0,0,1,1.2907-.2341,4.48564,4.48564,0,0,1,1.63867.29738,5.58287,5.58287,0,0,1,1.54377.949h.0949V23.12485a8.06712,8.06712,0,0,0-1.683-.64535A6.36533,6.36533,0,0,0,145.88523,22.296Zm16.35507,0a4.07615,4.07615,0,0,0-2.53708.75923,2.32167,2.32167,0,0,0-.99967,1.936,2.36148,2.36148,0,0,0,.60107,1.67663,3.50536,3.50536,0,0,0,1.86012.90476q.62.12653,1.17048.20878a9.26184,9.26184,0,0,1,1.03127.20879,2.06227,2.06227,0,0,1,.93006.46186,1.22766,1.22766,0,0,1,.31.92371,1.34026,1.34026,0,0,1-.65165,1.16416,3.20554,3.20554,0,0,1-1.80952.43656,5.4114,5.4114,0,0,1-1.75888-.32267,5.20818,5.20818,0,0,1-1.65132-.91739h-.0886v1.56907a9.326,9.326,0,0,0,1.65134.56309,8.12144,8.12144,0,0,0,1.8348.18981,5.06517,5.06517,0,0,0,1.61969-.22779,3.82822,3.82822,0,0,0,1.18314-.63268,2.556,2.556,0,0,0,.71493-.91107,2.482,2.482,0,0,0,.2594-1.08825,2.20488,2.20488,0,0,0-.53145-1.57539,3.27849,3.27849,0,0,0-1.58173-.84148q-.51879-.1329-1.26538-.2594t-1.15151-.21512a2.05452,2.05452,0,0,1-1.06925-.51246,1.32558,1.32558,0,0,1-.30369-.92375,1.25848,1.25848,0,0,1,.60738-1.07557,2.82965,2.82965,0,0,1,1.61969-.41759,5.41307,5.41307,0,0,1,1.79052.30369,4.309,4.309,0,0,1,1.41723.75292h.0886V22.954a8.351,8.351,0,0,0-1.46786-.46821,8.16563,8.16563,0,0,0-1.82215-.18979Zm34.00087,0a4.926,4.926,0,0,0-3.62532,1.30968,4.787,4.787,0,0,0-1.316,3.56205,6.00869,6.00869,0,0,0,.3543,2.15748,4.09033,4.09033,0,0,0,1.006,1.53112,4.14419,4.14419,0,0,0,1.56275.91107,6.50155,6.50155,0,0,0,3.7835.0443,12.15089,12.15089,0,0,0,1.68928-.62005V27.14876h-3.76451v1.10091h2.52445V30.559a5.60261,5.60261,0,0,1-1.06292.31,6.1476,6.1476,0,0,1-1.20846.12021,3.44071,3.44071,0,0,1-2.61933-1.0123,3.98371,3.98371,0,0,1-.96169-2.84709,3.93534,3.93534,0,0,1,.91739-2.7459,3.21382,3.21382,0,0,1,2.50547-1.01862,5.35845,5.35845,0,0,1,1.25272.13285,5.28129,5.28129,0,0,1,.99334.32267,5.40576,5.40576,0,0,1,.73391.41124q.37329.24676.56942.39861h.11389V23.14384a8.68122,8.68122,0,0,0-1.80949-.65167,7.1532,7.1532,0,0,0-1.63867-.19615Zm-138.3571.17082v9.42077H60.263a9.90215,9.90215,0,0,0,2.0879-.17714,4.63576,4.63576,0,0,0,1.44253-.57575A4.15778,4.15778,0,0,0,65.28024,29.515a4.82477,4.82477,0,0,0,.56311-2.32831,4.93907,4.93907,0,0,0-.53779-2.37259,4.20656,4.20656,0,0,0-1.49949-1.60071,4.707,4.707,0,0,0-1.37927-.54412,9.39759,9.39759,0,0,0-2.18911-.20246Zm12.32485,0-3.4292,9.42077h1.27172l.92373-2.62567h4.07454l.92371,2.62568h1.335l-3.42921-9.42079Zm5.264,0v1.11354h3.36592v8.30723h1.25273V23.58038h3.36593V22.46684Zm11.59092,0-3.42919,9.42077h1.27171l.92373-2.62567h4.07455l.92371,2.62568h1.335l-3.42921-9.42079Zm6.52938,0v9.42077H94.846V28.37618h1.25271a4.98587,4.98587,0,0,0,1.67664-.24042,3.1658,3.1658,0,0,0,1.15151-.73394,2.75,2.75,0,0,0,.60738-.9237,3.02753,3.02753,0,0,0,.22145-1.16417,2.7874,2.7874,0,0,0-.29738-1.36029,2.51492,2.51492,0,0,0-.82883-.89842,3.18578,3.18578,0,0,0-1.04394-.44288,6.07414,6.07414,0,0,0-1.43621-.14552Zm7.82007,0v9.42077H102.666V28.14207h1.76522l3.15079,3.74554h1.626L105.665,27.7688a3.12281,3.12281,0,0,0,1.41091-1.03129,2.78423,2.78423,0,0,0,.51247-1.70827,2.388,2.388,0,0,0-.291-1.24006,2.33985,2.33985,0,0,0-.79721-.81618,2.94633,2.94633,0,0,0-1.02494-.39226,7.43427,7.43427,0,0,0-1.42355-.11386Zm11.33784,0-3.42918,9.42077h1.2717l.92374-2.62567h4.07453l.92373,2.62568h1.335l-3.4292-9.42079Zm14.32415,0v1.11354h3.36593v8.30723h1.25273V23.58038h3.36592V22.46684Zm8.864,0v.96169H137.173v7.49739h-1.23375v.9617h3.72023v-.96169h-1.23375V23.42851h1.23375v-.9617Zm14.9252,0v9.42077h6.20672V30.77407h-4.954V27.2753h4.954V26.16176h-4.954V23.58038h4.954V22.46684Zm31.96361,0v9.42077h1.25273V28.14207H185.846l3.15081,3.74554h1.626l-3.54307-4.11881a3.1227,3.1227,0,0,0,1.41091-1.03129,2.78423,2.78423,0,0,0,.51247-1.70827,2.388,2.388,0,0,0-.291-1.24006,2.34,2.34,0,0,0-.7972-.81618,2.94636,2.94636,0,0,0-1.02493-.39226,7.43446,7.43446,0,0,0-1.42356-.11386Zm-6.35855.88576a2.75313,2.75313,0,0,1,2.246.99967,4.32234,4.32234,0,0,1,.82248,2.82814,4.28288,4.28288,0,0,1-.83514,2.84077,3.04073,3.04073,0,0,1-4.47312,0,4.2829,4.2829,0,0,1-.83517-2.84077,4.34589,4.34589,0,0,1,.81616-2.82815A2.76715,2.76715,0,0,1,176.46955,23.3526Zm-117.33273.18983h1.17679a7.68228,7.68228,0,0,1,1.49949.12652,3.847,3.847,0,0,1,1.18312.43656,2.833,2.833,0,0,1,1.15151,1.19579,4.08776,4.08776,0,0,1,.38594,1.86645,4.20948,4.20948,0,0,1-.35431,1.83481,2.81325,2.81325,0,0,1-1.05026,1.18313,3.54147,3.54147,0,0,1-1.24008.4935,8.19689,8.19689,0,0,1-1.57541.13287h-1.1768Zm35.70913,0H96.086a4.49763,4.49763,0,0,1,.98067.08856,2.042,2.042,0,0,1,.696.2784,1.42117,1.42117,0,0,1,.5188.5884,1.96213,1.96213,0,0,1,.17083.84781,2.11933,2.11933,0,0,1-.12654.7529,1.74555,1.74555,0,0,1-1.18948,1.07558,4.69924,4.69924,0,0,1-1.23373.13287h-1.0566Zm7.82007,0h1.47417a4.4635,4.4635,0,0,1,.87945.0759,1.69557,1.69557,0,0,1,.64533.25307,1.223,1.223,0,0,1,.46821.53148,1.665,1.665,0,0,1,.14551.71493,2.38725,2.38725,0,0,1-.1392.87944,1.63621,1.63621,0,0,1-.41757.60738,1.67592,1.67592,0,0,1-.75291.39227,4.69751,4.69751,0,0,1-1.03761.10123H102.666Zm81.41481,0H185.555a4.46311,4.46311,0,0,1,.87944.0759,1.69567,1.69567,0,0,1,.64535.25307,1.22284,1.22284,0,0,1,.46819.53148,1.66473,1.66473,0,0,1,.14552.71493,2.38747,2.38747,0,0,1-.13919.87944,1.63588,1.63588,0,0,1-.41758.60738,1.67573,1.67573,0,0,1-.7529.39227,4.69776,4.69776,0,0,1-1.03763.10123h-1.26538Zm-113.0684.019,1.65132,4.625h-3.309Zm16.85491,0,1.65133,4.625h-3.309Zm25.68731,0,1.65132,4.625h-3.309Zm54.70255,6.523v1.80318h1.51214V30.08444Z"/><path class="cls-1" d="M27.01821,1.39855A25.66543,25.66543,0,1,0,52.68364,27.064,25.66545,25.66545,0,0,0,27.01821,1.39855ZM39.85092,40.60962a.66588.66588,0,0,1-.71293.71292H15.61135a.66585.66585,0,0,1-.71292-.71292V14.94419a.66586.66586,0,0,1,.71292-.71293h6.10637v-.85548a.60479.60479,0,0,1,.63373-.57038H32.49088a.60475.60475,0,0,1,.63369.57038v.85548H39.138a.66589.66589,0,0,1,.71293.71293Z"/><path class="cls-1" d="M32.49088,19.22176H29.956a.60478.60478,0,0,1-.63374-.57033,1.9117,1.9117,0,0,0-3.80227,0,.60477.60477,0,0,1-.63373.57033H22.35145a.60478.60478,0,0,1-.63373-.57033V16.525h-3.7196a.62016.62016,0,0,0-.61994.61994V38.22289a.62016.62016,0,0,0,.61994.61994H36.59623a.62016.62016,0,0,0,.61994-.61994V17.145a.62016.62016,0,0,0-.61994-.61994H33.12457v2.12639A.60473.60473,0,0,1,32.49088,19.22176ZM21.71772,22.1045h9.733a.61994.61994,0,0,1,0,1.23988h-9.733a.61994.61994,0,0,1,0-1.23988Zm9.733,11.15887h-9.733a.61994.61994,0,0,1,0-1.23988h9.733a.61994.61994,0,0,1,0,1.23988Zm2.0458-5.57946a.61974.61974,0,0,1-.61994.61994H21.71772a.61994.61994,0,0,1,0-1.23988H32.87659A.61977.61977,0,0,1,33.49653,27.68391Z"/></svg>