<svg id="Layer_1" data-name="Layer 1" xmlns="http://www.w3.org/2000/svg" viewBox="0 0 576 576"><defs><style>.cls-1{fill:#f19f40;}.cls-2{fill:#5280c5;}</style></defs><title>angelML-icon-color</title><path class="cls-1" d="M366.81008,220.83229c.07268-12.5636-3.261-15.89263-15.81191-15.78832-61.53587.51192-123.08042-.0196-184.622-.18248-.63729,9.49471-2.82693,18.48084-14.62749,18.11411-10.90012-.33877-12.70915-9.169-13.55306-17.96354-35.97652.11205-71.95774.54658-107.92942.135-10.38978-.11882-14.74823,1.55511-14.67433,13.71421.57781,95.164.25743,190.33327.35855,285.50062.03279,30.82865,21.813,52.27083,52.88872,52.29512,80.4899.06314,160.99382-.83957,241.4631.45187,31.68643.50873,57.07281-22.99521,56.63655-56.46293C365.72359,407.38828,366.26965,314.10281,366.81008,220.83229Zm-12.29632,207.0158c-5.29773,4.5425-11.357,2.69563-17.22633.999.00731,25.07573.135,50.15232-.02079,75.22718-.10252,16.49379-5.63063,22.00126-22.289,22.01874q-123.48773.12984-246.97545.005c-16.74322-.01683-23.18377-6.25579-23.21306-23.15618C44.64026,417.3051,44.82,331.6675,44.566,246.031c-.02532-8.52324,2.4139-11.49057,11.20327-11.46508q134.84189.39235,269.68442-.06487c10.884-.04857,12.06286,4.58987,12.00683,13.55427q-.12311,19.69858-.16878,39.39739c-.10078,39.38337-.02706,78.76682-.03729,118.14453,6.97859-2.03525,13.672-2.798,18.61993,2.0297a15.79429,15.79429,0,0,1,2.15442,2.64081q.505.76739.97434,1.64756c3.47318,6.527.36662,11.76951-4.48932,15.93276Z"/><path class="cls-2" d="M446.133,376.07041a13.55881,13.55881,0,0,0-14.68491,13.89535,13.36139,13.36139,0,0,0,13.96521,14.51579c8.59581.26175,13.64794-5.15083,14.82732-13.709C459.6557,381.788,454.57825,376.32215,446.133,376.07041Z"/><path class="cls-2" d="M224.727,86.97075A13.43368,13.43368,0,0,0,239.01778,72.7478c.01457-8.52324-5.40528-13.58845-14.27762-14.44347-8.62166.87878-14.21673,5.78353-14.284,14.32863A13.5909,13.5909,0,0,0,224.727,86.97075Z"/><path class="cls-2" d="M536.528,250.7787a13.59812,13.59812,0,0,0-13.65311,14.88086,13.33786,13.33786,0,0,0,14.80339,13.61481c8.66346-.38407,13.12876-6.18346,13.83355-14.74729C549.91559,256.11806,545.37379,250.34383,536.528,250.7787Z"/><path class="cls-2" d="M516.62931,160.27215a13.41742,13.41742,0,0,0,14.29722,14.13908c8.67249.04337,13.61256-5.202,13.91525-14.25368-.41211-8.95438-5.65786-14.23114-14.06669-14.2169a13.49095,13.49095,0,0,0-14.14578,14.3315Z"/><path class="cls-2" d="M388.74464,32.15505c.19861-8.979-5.805-14.17424-14.40269-14.27a13.28288,13.28288,0,0,0-13.98611,12.5403q-.02.36771-.01969.73609c-.58873,8.95054,5.03825,13.70778,13.52167,15.20755C382.709,45.55146,388.54949,40.9762,388.74464,32.15505Z"/><path class="cls-2" d="M507.03859,127.28386c8.997-.31637,13.33276-6.01941,14.34458-15.34042-2.2271-7.40777-6.22544-13.58844-15.585-12.74262-8.93979.80782-13.93485,6.4551-13.10374,15.30415a13.05772,13.05772,0,0,0,13.27109,12.84082Q506.50307,127.33693,507.03859,127.28386Z"/><path class="cls-2" d="M162.90348,172.14105a13.44011,13.44011,0,0,0,14.5256-14.18457c.12264-8.90631-5.54615-13.53-14.86116-14.72582-7.77775,1.73721-13.421,6.21813-13.178,15.22505a13.13112,13.13112,0,0,0,12.559,13.67931Q162.42593,172.15538,162.90348,172.14105Z"/><path class="cls-2" d="M151.74875,222.9756c11.80055.36662,13.9902-8.6194,14.62749-18.11411-11.35337-13.19989-17.06831-13.16936-28.18055.15063C139.0396,213.80666,140.84863,222.63683,151.74875,222.9756Z"/><path class="cls-2" d="M187.37679,124.97057c9.1306.59683,13.61967-5.09808,15.44555-13.55687-.93788-8.6477-5.55865-14.24919-14.39141-14.47712A13.03827,13.03827,0,0,0,174.22347,108.69q-.05128.54255-.05713,1.088C173.5245,118.534,178.34454,124.38008,187.37679,124.97057Z"/><path class="cls-2" d="M439.46935,46.61549c-.03981-9.05706-5.85908-13.33173-14.39748-14.76263-8.23987,1.79866-14.17632,6.36143-13.72965,15.26376.44268,8.82393,6.396,13.86478,15.14182,13.48869C434.69272,60.25234,439.50582,54.87973,439.46935,46.61549Z"/><path class="cls-2" d="M517.76155,300.52876a13.4,13.4,0,0,0-13.08488,15.4936,12.90383,12.90383,0,0,0,12.97291,12.83438q.64275-.00345,1.28272-.07084c8.79651-.21336,13.45869-5.90678,14.1156-15.91928C531.3052,305.6135,526.74805,299.71975,517.76155,300.52876Z"/><path class="cls-2" d="M542.18154,198.08047a13.12113,13.12113,0,0,0-14.89224,13.5827c-.37867,9.07059,5.34181,13.53192,13.93069,15.06725,8.38965-1.32665,14.15186-5.59854,14.09565-14.6922a13.04371,13.04371,0,0,0-12.097-13.92622Q542.70091,198.07561,542.18154,198.08047Z"/><path class="cls-2" d="M321.6954,45.5395c9.01176-.25777,13.3735-5.86933,14.37076-14.53365-1.80734-8.42323-6.63082-14.066-15.50264-13.424a13.41327,13.41327,0,0,0-13.30446,15.30677,13.073,13.073,0,0,0,13.41856,12.718Q321.1876,45.59291,321.6954,45.5395Z"/><path class="cls-2" d="M484.65233,74.04877c-.14189-8.99966-5.83614-14.02826-14.52845-13.8726a13.02128,13.02128,0,0,0-13.49763,12.52675q-.019.51045.002,1.0212c-.32039,8.98456,5.138,13.6242,13.8934,14.68527C479.33879,87.61083,484.79457,83.07354,484.65233,74.04877Z"/><path class="cls-2" d="M270.903,59.73835c8.71048-1.35667,14.31472-6.37842,13.61065-15.13488a14.20616,14.20616,0,0,0-28.37238,1.11294C256.42086,54.30962,261.91411,59.29394,270.903,59.73835Z"/><path class="cls-2" d="M486.77535,343.3207c-8.62253,1.326-13.93086,6.154-13.34265,15.10053a13.02408,13.02408,0,0,0,12.86723,13.17907q.5023.006,1.004-.02671a13.24774,13.24774,0,0,0,14.1522-14.347C501.449,348.21649,495.65756,343.89174,486.77535,343.3207Z"/><path class="cls-2" d="M396.827,396.57963a14.045,14.045,0,0,0-.68518,28.07639c8.77639.4206,13.72861-4.943,14.94407-13.35375C410.6256,401.88757,405.27312,396.62087,396.827,396.57963Z"/><path class="cls-2" d="M358.02874,410.26794a15.79419,15.79419,0,0,0-2.15442-2.64081c-4.948-4.82766-11.64131-4.06494-18.61991-2.02969l-.007.00832c-6.90869,7.7488-6.03254,15.49811.04007,23.24135,5.86934,1.69669,11.9286,3.54352,17.22633-.999,4.85594-4.1633,7.9625-9.40572,4.48924-15.93264Q358.53421,411.03422,358.02874,410.26794Z"/><path class="cls-2" d="M170.01827,262.5777c-.35957-8.621-5.46522-14.11595-13.82973-14.43252a13.51954,13.51954,0,0,0-14.65836,13.8693A13.28979,13.28979,0,0,0,155.353,276.577C164.1174,276.91342,169.09787,271.73276,170.01827,262.5777Z"/><path class="cls-2" d="M173.52916,298.285c-8.91655.12854-14.48865,5.81-14.2736,14.38328.21457,8.54759,6.12172,13.36656,14.98934,14.04552,8.5632-1.58337,14.12095-6.59918,13.46112-15.35465a13.28622,13.28622,0,0,0-13.46709-13.10288Q173.88373,298.26115,173.52916,298.285Z"/><path class="cls-2" d="M203.71324,341.428a14.03,14.03,0,0,0,.25257,28.05585c9.15365.18665,13.42289-5.55049,14.76661-14.63443C216.982,347.12979,212.77169,341.09132,203.71324,341.428Z"/><path class="cls-2" d="M245.67965,374.99394a12.74584,12.74584,0,0,0-14.15331,12.71593c-.72352,9.04214,4.32653,14.69514,13.06023,15.26623,8.78491.57434,13.80512-4.82979,15.339-13.54248C259.1203,380.71633,254.64249,375.21229,245.67965,374.99394Z"/><path class="cls-2" d="M293.82931,395.76257A13.23482,13.23482,0,0,0,280.041,410.53126a13.01858,13.01858,0,0,0,12.54112,13.47917q.54.01944,1.08029-.0059c8.91236.2144,13.6396-5.25092,14.86583-14.4696C307.2403,401.43739,302.61524,395.54123,293.82931,395.76257Z"/></svg>