<?xml version="1.0" encoding="UTF-8"?>
<svg id="Layer_1" data-name="Layer 1" xmlns="http://www.w3.org/2000/svg" xmlns:xlink="http://www.w3.org/1999/xlink" viewBox="0 0 246.05 271.46">
  <defs>
    <style>
      .cls-1 {
        fill: url(#linear-gradient-2);
      }

      .cls-1, .cls-2 {
        fill-rule: evenodd;
      }

      .cls-3 {
        fill: url(#linear-gradient-8);
      }

      .cls-4 {
        fill: url(#linear-gradient-7);
      }

      .cls-5 {
        fill: url(#linear-gradient-5);
      }

      .cls-6 {
        fill: url(#linear-gradient-6);
      }

      .cls-7 {
        fill: url(#linear-gradient-9);
      }

      .cls-8 {
        fill: url(#linear-gradient-4);
      }

      .cls-9 {
        fill: url(#linear-gradient-3);
      }

      .cls-10 {
        fill: url(#linear-gradient-10);
      }

      .cls-11 {
        fill: url(#linear-gradient-11);
      }

      .cls-12 {
        fill: url(#linear-gradient-12);
      }

      .cls-13 {
        fill: url(#linear-gradient-13);
      }

      .cls-2 {
        fill: url(#linear-gradient);
      }
    </style>
    <linearGradient id="linear-gradient" x1="70.2" y1="485.71" x2="70.2" y2="381.97" gradientTransform="translate(0 679.44) scale(1 -1)" gradientUnits="userSpaceOnUse">
      <stop offset="0" stop-color="#fff"/>
      <stop offset="1" stop-color="#cdcdcd"/>
    </linearGradient>
    <linearGradient id="linear-gradient-2" x1="178.92" x2="178.92" xlink:href="#linear-gradient"/>
    <linearGradient id="linear-gradient-3" x1="24.99" y1="485.71" x2="24.99" y2="381.97" xlink:href="#linear-gradient"/>
    <linearGradient id="linear-gradient-4" x1="126.92" y1="485.71" x2="126.92" xlink:href="#linear-gradient"/>
    <linearGradient id="linear-gradient-5" x1="222.03" y1="485.71" x2="222.03" y2="381.97" xlink:href="#linear-gradient"/>
    <linearGradient id="linear-gradient-6" x1="112.62" y1="679.44" x2="112.62" y2="492.28" xlink:href="#linear-gradient"/>
    <linearGradient id="linear-gradient-7" x1="81.6" y1="679.44" x2="81.6" y2="492.28" xlink:href="#linear-gradient"/>
    <linearGradient id="linear-gradient-8" x1="168.67" y1="679.44" x2="168.67" y2="492.28" xlink:href="#linear-gradient"/>
    <linearGradient id="linear-gradient-9" x1="183.23" y1="679.44" x2="183.23" y2="492.28" xlink:href="#linear-gradient"/>
    <linearGradient id="linear-gradient-10" x1="62.82" y1="679.44" x2="62.82" y2="492.28" xlink:href="#linear-gradient"/>
    <linearGradient id="linear-gradient-11" x1="77.39" y1="679.44" x2="77.39" y2="492.28" xlink:href="#linear-gradient"/>
    <linearGradient id="linear-gradient-12" x1="164.46" y1="679.44" x2="164.46" y2="492.28" xlink:href="#linear-gradient"/>
    <linearGradient id="linear-gradient-13" x1="133.44" y1="679.44" x2="133.44" y2="492.28" xlink:href="#linear-gradient"/>
  </defs>
  <g>
    <path class="cls-2" d="M70.2,220.69c5.01,0,9.31,1.01,12.88,3.04,3.63,2.03,6.43,4.91,8.4,8.64,1.97,3.73,2.96,8.16,2.96,13.28s-.99,9.49-2.96,13.28c-1.97,3.73-4.77,6.61-8.4,8.64-3.63,2.03-7.92,3.04-12.88,3.04s-9.17-1.01-12.8-3.04c-3.63-2.08-6.45-4.99-8.48-8.72-1.97-3.73-2.96-8.13-2.96-13.2s.99-9.47,2.96-13.2,4.77-6.61,8.4-8.64c3.68-2.08,7.97-3.12,12.88-3.12ZM70.2,227.26c-5.23,0-9.34,1.63-12.32,4.88-2.93,3.2-4.4,7.71-4.4,13.52s1.47,10.35,4.4,13.6c2.99,3.2,7.09,4.8,12.32,4.8s9.39-1.6,12.32-4.8c2.93-3.25,4.4-7.79,4.4-13.6s-1.47-10.4-4.4-13.6c-2.93-3.2-7.04-4.8-12.32-4.8Z"/>
    <path class="cls-1" d="M179.72,220.69c4.53,0,8.45.93,11.76,2.8,3.31,1.81,5.87,4.4,7.68,7.76,1.87,3.36,2.8,7.33,2.8,11.92v3.36h-38.89c.21,5.49,1.81,9.79,4.8,12.88,3.04,3.09,7.07,4.64,12.08,4.64,3.47,0,6.4-.75,8.8-2.24,2.45-1.49,4.13-3.65,5.04-6.48h7.68c-1.23,4.85-3.73,8.61-7.52,11.28-3.73,2.67-8.37,4-13.92,4-4.91,0-9.17-1.01-12.8-3.04-3.63-2.08-6.43-5.01-8.4-8.8-1.97-3.79-2.96-8.21-2.96-13.28s.99-9.44,2.96-13.12c1.97-3.73,4.75-6.61,8.32-8.64,3.57-2.03,7.76-3.04,12.56-3.04ZM179.64,227.1c-4.32,0-7.92,1.2-10.8,3.6-2.83,2.4-4.61,5.76-5.36,10.08h31.2c-.37-4.32-1.89-7.68-4.56-10.08-2.67-2.4-6.16-3.6-10.48-3.6Z"/>
    <path class="cls-9" d="M25.07,262.3h.32l16.8-40.64h7.52l-20.4,48.01h-8.64L.27,221.66h7.76l17.04,40.64Z"/>
    <path class="cls-8" d="M142.22,221.66h13.12v5.76h-13.04v36.32h14.32v5.92h-14.72c-2.24,0-4-.56-5.28-1.68-1.23-1.17-1.84-2.91-1.84-5.2v-35.36h-10.03c-5.01,0-8.93,1.81-11.76,4.8-2.83,2.99-4.24,7.04-4.24,12.16v25.28h-7.52v-40.01h-4v-8h8.32v8.8h3.36c1.39-2.83,3.47-5.04,6.24-6.64,2.83-1.65,6.16-2.16,10-2.16h9.71v-14.4h7.36v14.4Z"/>
    <path class="cls-5" d="M222.11,240.22l14.56-18.56h8.16l-18.16,23.36,19.12,24.64h-8.64l-15.28-19.68-15.28,19.68h-8.32l19.12-24.64-18.16-23.36h8.32l14.56,18.56Z"/>
  </g>
  <g>
    <path class="cls-6" d="M132.97,120.86h0s9.18,5.3,9.18,5.3l-7.46,61-9.35-5.4h0s-.22-.13-.22-.13l-.57-.33.08-.66.03-.26h0s5.87-46.15,5.87-46.15l-37.01,28.44-.53.41-.58-.33-.22-.13h0s-9.11-5.26-9.11-5.26l49.1-36.96.79.46Z"/>
    <path class="cls-4" d="M110.54,119.02l.17.64.07.25,2.51,9.35.07.25.17.64-47.22,36.93-1.19.93-3.03-11.32,37.51-29.04-46.02-6.03-.92-.12-.24-.9-2.72-10.16,60.86,8.58Z"/>
    <path class="cls-3" d="M196.16,149.86l.36.46.93,1.19-11.32,3.03-29.04-37.51-6.06,46.28-.09.67-.65.17-.25.07h0s-10.16,2.72-10.16,2.72l8.49-60.2.09-.66.64-.17,9.84-2.64.64-.17,36.57,46.76Z"/>
    <path class="cls-7" d="M216.61,81.92l-5.52,9.57-.33.58-47.06-5.99,28.85,37.54-.34.58-.13.22h0s-5.26,9.11-5.26,9.11l-36.96-49.1.33-.57.13-.22,5.3-9.18,61,7.46Z"/>
    <path class="cls-10" d="M95.65,102l.55.73-5.3,9.18h0s-.46.79-.46.79l-61-7.46,5.4-9.35.13-.22.33-.58.66.08,46.4,5.9-28.28-36.8-.57-.73,5.73-9.92,36.41,48.37Z"/>
    <path class="cls-11" d="M97.59,81.09l-.64.17-.25.07h0s-9.35,2.51-9.35,2.51h0s-.89.24-.89.24l-37.86-48.41,11.31-3.03.41.53,28.64,36.99,6.15-46.94.65-.17,10.41-2.79-8.58,60.85Z"/>
    <path class="cls-12" d="M183.98,30.48l-37.51,29.04,46.02,6.03h0l.92.12,2.96,11.06-60.86-8.58-2.74-10.24h0s-.07-.25-.07-.25l-.17-.64,48.41-37.86,3.03,11.31Z"/>
    <path class="cls-13" d="M120.71,5.4l.22.13.58.33-5.99,47.06,37.54-28.85.8.47,9.11,5.26-48.57,36.57-.53.4-9.18-5.3h0s-.79-.46-.79-.46L111.36,0l9.34,5.4Z"/>
  </g>
</svg>