<svg id="Layer_1" data-name="Layer 1" xmlns="http://www.w3.org/2000/svg" xmlns:xlink="http://www.w3.org/1999/xlink" viewBox="0 0 1743 700"><defs><style>.cls-1{fill:#3968f6;}.cls-2{fill:url(#linear-gradient);}.cls-3{fill:#fff;}.cls-4{fill:url(#linear-gradient-2);}</style><linearGradient id="linear-gradient" x1="126.83131" y1="360.9487" x2="592.29482" y2="360.9487" gradientUnits="userSpaceOnUse"><stop offset="0" stop-color="#44a2eb"/><stop offset="1" stop-color="#3968f6"/></linearGradient><linearGradient id="linear-gradient-2" x1="4698.21171" y1="-3124.85769" x2="5303.7019" y2="-3124.85769" gradientTransform="matrix(-0.20036, 0.97972, 0.97972, 0.20036, 4424.93162, -3922.98612)" xlink:href="#linear-gradient"/></defs><path class="cls-1" d="M812.80127,176.26611H759.25146L745.72412,214.7959H728.09229L777.72363,80.17529h16.606L843.96094,214.7959H826.32861Zm-48.605-14.27343h43.66064l-21.55029-61.38623h-.56006Z"/><path class="cls-1" d="M850.21191,166.28418c0-30.41357,16.69922-50.19141,41.14161-50.19141,13.90087,0,25.0957,6.81006,30.87988,17.4458h.37305V80.17529h16.23291V214.7959H923.353V198.37646h-.27979c-6.251,11.19483-17.35254,18.09864-31.34619,18.09864C867.00439,216.4751,850.21191,196.69727,850.21191,166.28418Zm16.606,0c0,22.0166,10.82178,35.91748,27.98779,35.91748,16.69922,0,27.894-14.18066,27.894-35.91748,0-21.644-11.19483-35.918-27.894-35.918C877.63965,130.36621,866.81787,144.36035,866.81787,166.28418Z"/><path class="cls-1" d="M1004.7041,214.7959h-16.606L952.36719,117.772h17.07275l26.7749,79.76465h.37305l26.86816-79.76465h16.88575Z"/><path class="cls-1" d="M1130.55615,186.99463c-2.79883,16.97949-19.21826,29.48047-40.39551,29.48047-27.80126,0-44.687-19.31153-44.687-49.81787,0-30.1333,17.16553-50.56446,43.94043-50.56446,26.21533,0,42.355,19.03174,42.355,48.41846v6.15723h-69.59619v.9331c0,18.56543,10.915,30.78662,28.36084,30.78662,12.31445,0,21.36377-6.25048,24.06934-15.39355Zm-68.29-29.01367h52.71c-.373-16.23291-10.542-27.80127-25.84179-27.80127C1073.92773,130.17969,1063.29248,141.84131,1062.26611,157.981Z"/><path class="cls-1" d="M1148.09521,117.772H1163.395v15.85987h.37353a23.76126,23.76126,0,0,1,23.50928-17.53907,41.83974,41.83974,0,0,1,6.53076.65284v15.7666a32.67935,32.67935,0,0,0-8.67627-.93311c-12.59472,0-20.8042,9.04932-20.8042,22.76367V214.7959h-16.23291Z"/><path class="cls-1" d="M1240.92139,116.09277c21.2705,0,35.45117,12.501,36.104,29.667h-15.48633c-1.21289-10.16895-8.67627-16.41944-20.61767-16.41944-11.84815,0-19.68457,5.87744-19.68457,14.3667,0,6.71729,4.94433,11.28858,15.76611,13.90088l15.39355,3.73145c19.59131,4.75781,26.68116,12.40771,26.68116,26.30859,0,16.88574-15.95264,28.82715-37.59668,28.82715-22.76319,0-36.94385-11.4751-38.80957-29.667h16.23291c1.959,11.102,9.42236,16.41943,22.57666,16.41943s21.2705-5.59766,21.2705-14.3667c0-6.99707-3.8247-11.00879-14.92675-13.71436l-15.39307-3.73144c-18.28516-4.38477-27.148-12.87451-27.148-26.86816C1205.28369,127.94092,1219.93066,116.09277,1240.92139,116.09277Z"/><path class="cls-1" d="M1291.95215,187.36816c0-16.60644,12.78125-27.05468,35.17139-28.36084l27.80126-1.58593v-8.1167c0-11.84815-7.83691-18.93848-21.271-18.93848-12.501,0-20.3374,5.87744-22.39014,15.39356h-15.67285c1.11963-16.793,15.48633-29.667,38.43652-29.667,22.76319,0,37.12989,12.31446,37.12989,31.626V214.7959h-15.39307V198.09668h-.373c-5.78418,11.10156-18.09863,18.37842-31.15966,18.37842C1304.91992,216.4751,1291.95215,204.81348,1291.95215,187.36816Zm62.97265-9.42285v-7.92969l-25.93554,1.58594c-13.06055.83985-20.52442,6.624-20.52442,15.7666,0,9.23584,7.74366,15.29981,19.40528,15.29981C1343.16992,202.668,1354.9248,191.93945,1354.9248,177.94531Z"/><path class="cls-1" d="M1391.77539,117.772h15.29981v15.85987h.37353a23.76126,23.76126,0,0,1,23.50928-17.53907,41.83974,41.83974,0,0,1,6.53076.65284v15.7666a32.68225,32.68225,0,0,0-8.67627-.93311c-12.59473,0-20.8042,9.04932-20.8042,22.76367V214.7959h-16.23291Z"/><path class="cls-1" d="M1449.43018,90.34424a10.16895,10.16895,0,1,1,10.16894,10.16846A10.13307,10.13307,0,0,1,1449.43018,90.34424Zm2.05273,27.42773h16.23291V214.7959h-16.23291Z"/><path class="cls-1" d="M1485.7207,187.36816c0-16.60644,12.78125-27.05468,35.17139-28.36084l27.80127-1.58593v-8.1167c0-11.84815-7.83691-18.93848-21.271-18.93848-12.501,0-20.3374,5.87744-22.39013,15.39356h-15.67285c1.11962-16.793,15.48632-29.667,38.43652-29.667,22.76318,0,37.12988,12.31446,37.12988,31.626V214.7959h-15.39307V198.09668h-.373C1543.37549,209.19824,1531.061,216.4751,1518,216.4751,1498.68848,216.4751,1485.7207,204.81348,1485.7207,187.36816Zm62.97266-9.42285v-7.92969l-25.93555,1.58594c-13.06054.83985-20.52441,6.624-20.52441,15.7666,0,9.23584,7.74365,15.29981,19.40527,15.29981C1536.93848,202.668,1548.69336,191.93945,1548.69336,177.94531Z"/><path class="cls-1" d="M1586.38379,80.17529h16.23242V214.7959h-16.23242Z"/><path class="cls-1" d="M755.61328,412.68262H738.8208V278.062H789.292c25.93506,0,42.91406,15.85938,42.91406,40.11572,0,18.75147-10.16894,33.30518-27.05468,38.623L836.311,412.68262H816.62646l-28.82714-53.27h-32.186Zm0-68.10352h32.186c17.25879,0,27.05468-9.3291,27.05468-25.8418,0-16.13964-10.44873-25.74853-27.80127-25.74853H755.61328Z"/><path class="cls-1" d="M846.01416,364.1709c0-30.97315,18.09863-50.19141,44.9668-50.19141,26.7749,0,44.87353,19.21826,44.87353,50.19141,0,30.87939-18.09863,50.19092-44.87353,50.19092C864.11279,414.36182,846.01416,395.05029,846.01416,364.1709Zm73.32764,0c0-22.85694-11.19532-35.918-28.36084-35.918s-28.4541,13.061-28.4541,35.918c0,22.85644,11.28857,35.91748,28.4541,35.91748S919.3418,387.02734,919.3418,364.1709Z"/><path class="cls-1" d="M968.87988,396.26318h-.373v16.41944H953.02051V278.062h16.23242V331.8916h.37353c6.064-11.102,17.35206-17.91211,31.06641-17.91211,24.44238,0,40.95508,19.77783,40.95508,50.19141,0,30.50635-16.41943,50.19092-41.23535,50.19092C986.23242,414.36182,975.13037,407.458,968.87988,396.26318Zm.27979-32.09228c0,21.64355,11.66162,35.91748,28.08105,35.91748,17.166,0,27.80127-13.71436,27.80127-35.91748,0-22.01709-10.63525-35.918-27.80127-35.918C980.82129,328.25293,969.15967,342.62012,969.15967,364.1709Z"/><path class="cls-1" d="M1137.73926,412.68262h-15.39307V396.916h-.373c-5.78418,11.19531-15.85986,17.4458-30.78662,17.4458-21.17724,0-33.585-13.71387-33.585-35.731V315.65869h16.23291v60.08008c0,15.7666,7.37012,24.25635,22.39014,24.25635,15.76611,0,25.28223-10.82227,25.28223-27.335V315.65869h16.23242Z"/><path class="cls-1" d="M1192.689,313.97949c21.27051,0,35.45118,12.501,36.104,29.667h-15.48633c-1.21289-10.16894-8.67627-16.41943-20.61768-16.41943-11.84814,0-19.68457,5.87744-19.68457,14.3667,0,6.71729,4.94434,11.28857,15.76612,13.90088l15.39355,3.73144c19.59131,4.75782,26.68115,12.40772,26.68115,26.3086,0,16.88574-15.95263,28.82715-37.59667,28.82715-22.76319,0-36.94385-11.4751-38.80958-29.667h16.23292c1.959,11.10206,9.42236,16.41944,22.57666,16.41944s21.2705-5.59766,21.2705-14.3667c0-6.99707-3.8247-11.00879-14.92675-13.71436l-15.39307-3.73144c-18.28516-4.38477-27.148-12.87451-27.148-26.86817C1157.05127,325.82764,1171.69824,313.97949,1192.689,313.97949Z"/><path class="cls-1" d="M1269.0957,292.24219v23.4165h18.84522v13.34082H1269.0957V386.6543c0,8.8623,3.73194,12.874,12.03516,12.874a63.18024,63.18024,0,0,0,6.7168-.46631v13.62061a57.85066,57.85066,0,0,1-10.26221.74609c-17.81885,0-24.72217-7.27637-24.72217-25.93506V328.99951h-14.46045V315.65869h14.46045v-23.4165Z"/><path class="cls-1" d="M1305.2002,315.65869H1320.5V331.145h.37354c5.41064-10.44873,15.76611-17.16553,30.78613-17.16553,21.27051,0,33.58545,13.71387,33.58545,35.731v62.97217h-16.23291V352.60254c0-15.67334-7.37012-24.25586-22.29688-24.25586-15.2998,0-25.28222,10.82178-25.28222,27.24121v57.09473H1305.2002Z"/><path class="cls-1" d="M1486.1875,384.88135c-2.79883,16.97949-19.21826,29.48047-40.39551,29.48047-27.80127,0-44.687-19.31153-44.687-49.81787,0-30.13331,17.16553-50.56446,43.94043-50.56446,26.21533,0,42.355,19.03174,42.355,48.41846v6.15723H1417.8042v.9331c0,18.56543,10.915,30.78662,28.36084,30.78662,12.31445,0,21.36377-6.25049,24.06934-15.39355Zm-68.29-29.01367h52.71c-.373-16.23291-10.542-27.80127-25.8418-27.80127C1429.55908,328.06641,1418.92383,339.728,1417.89746,355.86768Z"/><path class="cls-1" d="M1537.68506,313.97949c21.27051,0,35.45117,12.501,36.104,29.667h-15.48633c-1.21289-10.16894-8.67627-16.41943-20.61767-16.41943-11.84815,0-19.68457,5.87744-19.68457,14.3667,0,6.71729,4.94433,11.28857,15.76611,13.90088l15.39356,3.73144c19.5913,4.75782,26.68115,12.40772,26.68115,26.3086,0,16.88574-15.95264,28.82715-37.59668,28.82715-22.76318,0-36.94385-11.4751-38.80957-29.667H1515.668c1.959,11.10206,9.42236,16.41944,22.57666,16.41944s21.27051-5.59766,21.27051-14.3667c0-6.99707-3.82471-11.00879-14.92676-13.71436l-15.39307-3.73144c-18.28515-4.38477-27.148-12.87451-27.148-26.86817C1502.04736,325.82764,1516.69434,313.97949,1537.68506,313.97949Z"/><path class="cls-1" d="M1626.59277,313.97949c21.27051,0,35.45118,12.501,36.104,29.667h-15.48633c-1.21289-10.16894-8.67627-16.41943-20.61768-16.41943-11.84814,0-19.68457,5.87744-19.68457,14.3667,0,6.71729,4.94434,11.28857,15.76612,13.90088l15.39306,3.73144c19.5918,4.75782,26.68164,12.40772,26.68164,26.3086,0,16.88574-15.95263,28.82715-37.59668,28.82715-22.76318,0-36.94384-11.4751-38.80957-29.667h16.23291c1.959,11.10206,9.42237,16.41944,22.57666,16.41944s21.27051-5.59766,21.27051-14.3667c0-6.99707-3.82471-11.00879-14.92676-13.71436l-15.39306-3.73144c-18.28516-4.38477-27.148-12.87451-27.148-26.86817C1590.95508,325.82764,1605.60205,313.97949,1626.59277,313.97949Z"/><path class="cls-1" d="M772.87256,610.56982V491.0625H730.42432V475.94922H832.11279V491.0625H789.665V610.56982Z"/><path class="cls-1" d="M817.37305,562.05762c0-30.97266,18.09863-50.19092,44.96679-50.19092,26.77491,0,44.87354,19.21826,44.87354,50.19092,0,30.87988-18.09863,50.1914-44.87354,50.1914C835.47168,612.249,817.37305,592.9375,817.37305,562.05762Zm73.32763,0c0-22.85645-11.19482-35.91748-28.36084-35.91748s-28.4541,13.061-28.4541,35.91748c0,22.85693,11.28809,35.918,28.4541,35.918S890.70068,584.91455,890.70068,562.05762Z"/><path class="cls-1" d="M918.78223,562.05762c0-30.97266,18.09863-50.19092,44.96679-50.19092,26.77491,0,44.87354,19.21826,44.87354,50.19092,0,30.87988-18.09863,50.1914-44.87354,50.1914C936.88086,612.249,918.78223,592.9375,918.78223,562.05762Zm73.32763,0c0-22.85645-11.19482-35.91748-28.36084-35.91748s-28.4541,13.061-28.4541,35.91748c0,22.85693,11.28809,35.918,28.4541,35.918S992.10986,584.91455,992.10986,562.05762Z"/><path class="cls-1" d="M1025.78906,475.94922h16.23242v134.6206h-16.23242Z"/><path class="cls-1" d="M1080.64453,594.15039h-.373v16.41943h-15.48632V475.94922h16.23242v53.82959h.37353c6.064-11.10205,17.352-17.91211,31.06641-17.91211,24.44238,0,40.95508,19.77783,40.95508,50.19092,0,30.50683-16.41944,50.1914-41.23535,50.1914C1097.99707,612.249,1086.895,605.3457,1080.64453,594.15039Zm.27979-32.09277c0,21.644,11.66162,35.918,28.08105,35.918,17.166,0,27.80127-13.71436,27.80127-35.918,0-22.0166-10.63525-35.91748-27.80127-35.91748C1092.58594,526.14014,1080.92432,540.50732,1080.92432,562.05762Z"/><path class="cls-1" d="M1165.07471,562.05762c0-30.97266,18.09863-50.19092,44.96679-50.19092,26.77491,0,44.87354,19.21826,44.87354,50.19092,0,30.87988-18.09863,50.1914-44.87354,50.1914C1183.17334,612.249,1165.07471,592.9375,1165.07471,562.05762Zm73.32763,0c0-22.85645-11.19531-35.91748-28.36084-35.91748s-28.4541,13.061-28.4541,35.91748c0,22.85693,11.28858,35.918,28.4541,35.918S1238.40234,584.91455,1238.40234,562.05762Z"/><path class="cls-1" d="M1303.334,573.626l-23.4165,36.94384h-18.00537l33.02539-48.5122-32.46582-48.51172h18.09912l23.32275,36.38379h.373l23.04346-36.38379h18.09863l-32.7456,47.85889,32.27929,49.165H1326.937l-23.23-36.94384Z"/><circle class="cls-2" cx="359.56307" cy="360.9487" r="232.73176"/><g id="_9hFGD6" data-name="9hFGD6"><path class="cls-3" d="M299.43,218.44617c5.01281-.26392,10.90788.51221,16.8205.32591a2.271,2.271,0,0,1,1.27388.246,13.826,13.826,0,0,0,5.637,1.59739,2.337,2.337,0,0,1,.64371.11438c3.594,1.58921,7.55534,2.15721,11.04245,4.07692a26.35617,26.35617,0,0,0,7.27964,2.66077,13.62515,13.62515,0,0,0,9.89168-1.15214,69.53483,69.53483,0,0,1,13.00028-5.48049,17.16406,17.16406,0,0,1,3.23373-.52192,10.91822,10.91822,0,0,0,3.3255-.91884,6.56283,6.56283,0,0,1,2.81691-.60682q10.69919-.005,21.39834-.00067a6.16378,6.16378,0,0,1,2.39728.37888c2.38823,1.00547,4.93257,1.06006,7.44651,1.30223a11.13748,11.13748,0,0,1,3.46653.73252,9.4849,9.4849,0,0,0,3.154.85351c2.01285.13333,3.71013,1.28756,5.63311,1.681a15.12556,15.12556,0,0,1,4.604,1.52255,4.43377,4.43377,0,0,0,1.60652.4768,12.40185,12.40185,0,0,1,3.78291,1.01059,15.92064,15.92064,0,0,0,4.9317,1.036,4.07433,4.07433,0,0,1,1.50325.476,95.41158,95.41158,0,0,0,9.77094,5.1743,25.63707,25.63707,0,0,1,3.32083,1.93028,6.92965,6.92965,0,0,0,3.1429,1.12734,4.13711,4.13711,0,0,1,2.6214,1.10871,61.43,61.43,0,0,0,9.90049,7.06125,48.92627,48.92627,0,0,1,9.80234,7.80567,12.79035,12.79035,0,0,0,2.17659,1.7743,22.80834,22.80834,0,0,1,6.09032,6.03753,18.80488,18.80488,0,0,0,3.68917,3.5863,22.343,22.343,0,0,1,4.99242,5.79759,59.02266,59.02266,0,0,0,4.33381,5.64541c2.258,2.98125,4.678,5.86,6.02529,9.43a7.2678,7.2678,0,0,0,1.60024,2.41071,18.23506,18.23506,0,0,1,3.858,6.87428,73.32736,73.32736,0,0,0,5.79828,12.8607c1.21554,2.089,1.75139,4.46307,2.66551,6.67765.66407,1.60876.48837,3.56619.67306,5.3696a4.14836,4.14836,0,0,0,.42654,1.6221,8.83324,8.83324,0,0,1,1.03958,3.95289,11.83885,11.83885,0,0,0,.98347,4.07718c.82866,1.93933.74867,4.03865,1.10709,6.06039a4.218,4.218,0,0,0,.11218.73995c1.83928,4.899,1.29343,10.05431,1.63555,15.11373.31466,4.65341.07786,9.30939-.059,13.95771-.08815,2.99424-.44027,5.98275-.37657,8.98832a1.77715,1.77715,0,0,1-.14575.73124,25.63565,25.63565,0,0,0-1.63528,7.85554,3.88363,3.88363,0,0,1-.35446,1.353,16.56607,16.56607,0,0,0-1.39449,5.98221,6.37239,6.37239,0,0,1-.63635,2.43376c-.89708,1.69075-.83072,3.57538-1.01976,5.3972a17.108,17.108,0,0,1-1.03028,3.93675c-1.45875,4.1537-3.79977,7.85935-5.65543,11.80582a44.88669,44.88669,0,0,0-1.89982,5.37169,26.20435,26.20435,0,0,1-4.1288,7.51421,18.41763,18.41763,0,0,0-3.23634,5.98471,2.21454,2.21454,0,0,1-.58875,1.053c-3.501,3.28987-5.81975,7.49325-8.72542,11.24254a47.94361,47.94361,0,0,1-6.09644,6.73473,38.31278,38.31278,0,0,0-2.94836,3.14269c-3.58422,3.96192-8.05508,6.90924-11.97389,10.48554A48.94708,48.94708,0,0,1,458.889,470.761a17.5307,17.5307,0,0,0-4.07806,3.1204,10.55187,10.55187,0,0,1-5.42247,2.98016,3.54574,3.54574,0,0,0-.99071.27332c-3.22092,1.85731-6.78335,3.05152-9.92582,5.04249a39.68615,39.68615,0,0,1-6.35238,3.193,23.61337,23.61337,0,0,1-3.76884.68623,39.75885,39.75885,0,0,0-8.29925,2.53361,9.7392,9.7392,0,0,1-3.2571.7747,9.26277,9.26277,0,0,0-3.30949.96092,13.276,13.276,0,0,1-4.83507.99355,8.65579,8.65579,0,0,0-2.88945.74055,8.3876,8.3876,0,0,1-3.33585.81049,52.367,52.367,0,0,0-11.68162,1.55614,4.78617,4.78617,0,0,1-1.29673.18358c-3.31484-.02408-6.63131.11393-9.94417-.07685a3.884,3.884,0,0,1-1.4672-.25249c-2.588-1.28252-5.42046-1.1102-8.16714-1.42988a4.61044,4.61044,0,0,1-2.04691-.58045c-1.53774-.9856-3.30984-1.05856-5.04114-1.27874a5.17875,5.17875,0,0,1-1.35413-.3575q-4.79761-2.00509-9.59181-4.0184a8.50366,8.50366,0,0,0-2.786-.78127,5.81873,5.81873,0,0,1-3.46081-1.71243c-1.84925-1.58837-2.0487-1.63628-4.03842-.21681a8.6436,8.6436,0,0,1-4.83634,2.03171,1.71992,1.71992,0,0,0-.71377.21493,48.50231,48.50231,0,0,1-6.23619,2.55878c-2.64141.92921-5.25374,1.9566-7.88523,2.90171-2.79113,1.00244-5.81764,1.17885-8.46416,2.63068a6.4362,6.4362,0,0,1-3.04391.41582c-3.345.04051-6.69011.12156-10.03291.18418-3.83509.07184-7.68195-.18485-11.52607-.20966a3.89747,3.89747,0,0,1-1.55345-.31578c-3.48937-1.53471-6.98992-3.04558-10.34886-4.85737a7.95946,7.95946,0,0,1-1.2729-.78936,19.37828,19.37828,0,0,0-5.28152-3.14061c-1.99653-.776-3.20343-2.53423-4.22966-4.36128a8.89582,8.89582,0,0,0-2.90656-3.259c-1.99675-1.27544-2.9843-3.32834-4.1405-5.24436a6.187,6.187,0,0,0-3.83013-3.04854,37.60688,37.60688,0,0,0-6.44426-1.59076,3.06382,3.06382,0,0,1-1.33339-.40851c-3.13194-1.98185-6.54937-3.57366-8.9762-6.53068a8.18014,8.18014,0,0,0-2.58167-1.81018,9.25332,9.25332,0,0,1-4.70407-5.10085,9.50727,9.50727,0,0,0-2.03-3.23453,15.26343,15.26343,0,0,1-2.54544-3.91207,55.69661,55.69661,0,0,0-3.28075-5.99537,5.925,5.925,0,0,1-.85906-3.28693,25.22138,25.22138,0,0,0-.50251-6.43376,6.91278,6.91278,0,0,0-2.707-4.14415c-.27926-.20029-.53467-.43412-.816-.63128-1.73452-1.21537-3.24416-2.51595-3.73917-4.79508-.3147-1.44894-1.44419-2.61327-2.3475-3.80688a29.46924,29.46924,0,0,1-5.65775-13.434,56.18424,56.18424,0,0,1-.43-10.93616c.11-2.37689.10848-4.74908.14669-7.12315a8.89885,8.89885,0,0,1,.98628-4.12689c.91775-1.75741,1.4123-3.71586,2.315-5.50693a3.15925,3.15925,0,0,0-.4717-3.28938,9.70084,9.70084,0,0,1-1.38848-3.15482,3.50763,3.50763,0,0,0-.29114-.88849c-1.17071-1.98188-1.15133-4.17558-1.19035-6.36713-.03006-1.68838-.174-3.3771-.14614-5.06367.067-4.06146.202-8.12185.32094-12.18234a2.47813,2.47813,0,0,1,.17471-.9102,78.79662,78.79662,0,0,1,4.18579-8.98738,47.08782,47.08782,0,0,1,2.9928-4.7541,5.47648,5.47648,0,0,0,.83255-1.35447,14.617,14.617,0,0,1,4.95529-6.24491,6.0701,6.0701,0,0,0,2.45476-5.455c-.18678-4.1302.19192-8.251.37486-12.37421a2.32536,2.32536,0,0,1,.23442-1.18136c1.32862-1.868,1.55126-4.20838,2.69935-6.15564a11.94172,11.94172,0,0,1,1.8278-2.70423,16.82918,16.82918,0,0,0,3.466-5.84255,6.37072,6.37072,0,0,1,2.60132-3.07358,18.19321,18.19321,0,0,0,2.88685-2.23716,6.00784,6.00784,0,0,0,2.15724-4.52085,18.83449,18.83449,0,0,1,1.15978-6.13277,16.24341,16.24341,0,0,0,.55554-3.13142,13.88949,13.88949,0,0,1,3.75476-7.71394,30.90127,30.90127,0,0,0,5.21784-7.37982,3.43917,3.43917,0,0,1,1.68991-1.67355,14.77591,14.77591,0,0,0,3.03272-1.85837,5.81983,5.81983,0,0,0,2.36035-4.00581,8.1951,8.1951,0,0,1,.82534-2.863,21.17172,21.17172,0,0,0,1.21685-3.52666,12.23143,12.23143,0,0,1,2.9882-4.81506,13.09743,13.09743,0,0,1,1.46256-1.31793,12.89316,12.89316,0,0,0,3.80907-4.6886,5.86,5.86,0,0,1,4.19916-3.54606,5.31755,5.31755,0,0,0,2.09075-1.02475c2.62278-2.0174,5.21522-4.08251,8.41179-5.166a1.20938,1.20938,0,0,0,.32961-.17707c3.11485-2.33191,6.77192-2.50648,10.43826-2.5914C294.14779,218.40477,296.33868,218.44617,299.43,218.44617Zm69.49278,140.34625h.02235q0,53.25284-.01105,106.50565a2.344,2.344,0,0,0,1.09281,2.04065,6.28061,6.28061,0,0,0,3.5525,1.0268c5.47172.18395,10.938-.15664,16.40749-.22248,1.52421-.01835,3.085.10172,4.488-.6953a5.15818,5.15818,0,0,1,2.89327-.59915c.56146.02768,1.12572.00953,1.68846-.00083,4.033-.07417,8.06645-.13645,11.91333-1.60942a4.82745,4.82745,0,0,1,1.19586-.20664,8.24012,8.24012,0,0,0,2.26962-.54332,75.48581,75.48581,0,0,0,7.3609-2.985c1.78633-.96406,3.81-1.40516,5.55523-2.45271a7.77486,7.77486,0,0,1,2.97469-1.06484,7.41509,7.41509,0,0,0,1.62781-.42443c3.46262-1.31975,6.183-3.85754,9.32249-5.71139a51.274,51.274,0,0,1,5.23561-3.08275,14.5396,14.5396,0,0,0,6.18394-4.85918,10.04441,10.04441,0,0,1,4.44451-3.459,8.08588,8.08588,0,0,0,4.52642-4.50257,7.05636,7.05636,0,0,1,3.33652-3.54872,8.97412,8.97412,0,0,0,4.13155-3.92768,9.79808,9.79808,0,0,1,1.89564-2.89087c2.2398-2.13982,3.80979-4.77777,5.55036-7.29005a12.11887,12.11887,0,0,0,2.52108-5.17007,3.67011,3.67011,0,0,1,.54407-1.17971,37.87983,37.87983,0,0,1,3.58326-5.37121,7.83441,7.83441,0,0,0,.79328-1.37541c.98039-1.889,1.67068-3.89718,2.49237-5.85135a9.83752,9.83752,0,0,0,.918-3.69061,8.549,8.549,0,0,1,.80425-3.706,23.70039,23.70039,0,0,0,2.57624-7.29587,8.6423,8.6423,0,0,1,.7832-2.589,9.97422,9.97422,0,0,0,.8884-3.60789c.09928-1.3901-.05048-2.85545.58338-4.15353a13.59655,13.59655,0,0,0,1.21994-6.09973c.00454-7.063.02656-14.12612.01228-21.18912a14.46122,14.46122,0,0,0-.90565-6.06952,8.46406,8.46406,0,0,1-.82-3.80758,8.37554,8.37554,0,0,0-.76375-3.73286,16.85166,16.85166,0,0,1-1.019-3.01344c-.59648-2.48609-1.61844-4.83242-2.443-7.24364-.27059-.79133-.86592-1.48023-.84156-2.36393a14.17312,14.17312,0,0,0-1.99384-7.11851c-1.58965-3.00163-2.77263-6.22876-4.98186-8.87537a6.99055,6.99055,0,0,1-1.73545-4.04978,2.89344,2.89344,0,0,0-.68918-1.72048c-2.71137-3.03548-4.785-6.56033-7.42937-9.64879a21.56554,21.56554,0,0,1-1.87191-2.68938,13.07368,13.07368,0,0,0-5.3337-5.123,4.21189,4.21189,0,0,1-1.92221-1.96442,13.69425,13.69425,0,0,0-5.87706-5.99349,12.04026,12.04026,0,0,1-3.43413-2.565,29.68592,29.68592,0,0,0-9.00287-6.48416,49.36713,49.36713,0,0,1-8.34253-4.98538,20.84641,20.84641,0,0,0-9.57551-4.01109,12.47,12.47,0,0,1-3.54192-1.10024,20.93512,20.93512,0,0,0-4.70118-2.06474,24.87286,24.87286,0,0,1-5.24714-1.59257,4.637,4.637,0,0,0-1.09554-.24251,12.71273,12.71273,0,0,1-3.39147-1.04876,6.7994,6.7994,0,0,0-1.51232-.4806c-1.72161-.37936-3.4866-.20911-5.21915-.46385-2.5322-.37234-5.00684-1.12946-7.59522-1.12756q-10.31247.00758-20.62493.00777c-.30533.00022-.64765-.05219-.8506.26724-1.26612,1.99282-2.68508,3.75835-2.67783,6.45889Q369.00117,306.47741,368.92276,358.79242ZM267.64752,407.34456c-.24679.13551-.42947.25313-.62552.34084a17.47256,17.47256,0,0,0-6.47558,4.98915,10.11745,10.11745,0,0,1-3.29306,2.59214,15.17783,15.17783,0,0,0-5.649,4.81429,18.30034,18.30034,0,0,1-2.72408,3.20992,2.4082,2.4082,0,0,0-.62993,2.73389,21.62829,21.62829,0,0,1,.61869,2.45018,9.07542,9.07542,0,0,0,1.1649,3.52573,5.45243,5.45243,0,0,1,.74207,2.108c.47023,2.86938,1.78333,5.20827,4.52023,6.45484a18.51161,18.51161,0,0,1,4.22066,2.74621c.54874.45979,1.11728.8972,1.69146,1.32512,2.63037,1.96035,5.99445,1.69989,8.87981,2.90567a4.48576,4.48576,0,0,0,1.58339.08824c1.37511.02,2.75087.01091,4.12544.04793a2.62348,2.62348,0,0,1,2.14116,1.69309c.20484,1.96646,1.20871,3.64845,1.80115,5.47366a4.74766,4.74766,0,0,0,1.10759,1.81289,22.29226,22.29226,0,0,1,3.46824,4.33458,17.70451,17.70451,0,0,0,2.41093,3.37738,7.797,7.797,0,0,0,4.59539,2.25253c.56531.09922.41913-.3133.42211-.59214.032-3.00214-.03358-6.00859.10712-9.00543a10.73861,10.73861,0,0,0-3.31174-8.35775,46.98159,46.98159,0,0,1-4.08708-4.519,10.5123,10.5123,0,0,0-3.3262-3.11318,6.04287,6.04287,0,0,1-1.226-1.14847c-.48464-.477-.344-.7667.08366-1.20543,1.92186-1.97145,4.21977-3.52057,6.10622-5.53544,1.28026-1.36745,2.692-2.61109,4.02594-3.92937a.73226.73226,0,0,1,1.03679-.15171q3.046,1.65945,6.14425,3.22248a6.41835,6.41835,0,0,1,3.2615,3.45883,10.44176,10.44176,0,0,0,2.5192,3.80131,15.73087,15.73087,0,0,1,4.09373,7.3592,5.38716,5.38716,0,0,0,.67156,1.64126,5.13833,5.13833,0,0,1,.8441,3.01786q.024,1.97025.02533,3.94072c.0053,2.90787.03082,5.81608-.00455,8.7235a2.36864,2.36864,0,0,0,2.02889,2.47686,19.24927,19.24927,0,0,0,4.84411-.3639c1.9953-.47464,3.7308-1.58315,5.62591-2.28438a36.422,36.422,0,0,0,8.24521-4.18276,9.36036,9.36036,0,0,1,4.32623-1.7028,3.72009,3.72009,0,0,0,1.49923-.514,39.1685,39.1685,0,0,0,8.78628-6.81392,3.97976,3.97976,0,0,0,1.13382-2.93768c-.03518-9.25914-.00814-18.51852-.0124-27.77782-.00134-2.89387-.47153-3.35142-3.40025-3.35412-8.75906-.00807-17.51833.028-26.27712-.02186-5.751-.03274-11.50075.14539-17.25513-.27291a11.238,11.238,0,0,1-7.57642-3.12773,30.12642,30.12642,0,0,0-4.01318-3.08357,12.35767,12.35767,0,0,1-3.22264-2.97059q-3.51268-5.09546-7.048-10.1753a2.77027,2.77027,0,0,1-.51661-1.48357,7.58186,7.58186,0,0,0-1.14086-3.718c-.50661-.82375-.84255-1.762-1.40625-2.53918-1.1972-1.65063-1.21217-3.561-1.40335-5.44889a.7284.7284,0,0,1,.51776-.85765,12.71729,12.71729,0,0,0,2.47687-1.31416,19.43544,19.43544,0,0,1,8.487-3.74178c1.38243-.19,2.11144-.00257,2.71855,1.22427a34.97254,34.97254,0,0,0,2.85265,4.61647,14.60348,14.60348,0,0,1,2.21065,4.11406,34.68948,34.68948,0,0,0,2.34286,5.81666,11.49885,11.49885,0,0,0,5.98432,5.93206,14.16552,14.16552,0,0,1,2.73036,1.2319,6.35242,6.35242,0,0,0,3.647.96868q18.47784-.044,36.95581-.02319c1.6083-.00032,2.33191-.69963,2.334-2.26852.00617-4.53584.05511-9.07228-.00144-13.60736-.04363-3.49877.23969-7.00573-.22174-10.49671-.22256-1.68377-.60567-2.03717-2.32713-2.11257-1.47465-.06458-2.93351.206-4.40075.21026-8.94674.026-17.89359.00972-26.84027.04521a13.21211,13.21211,0,0,1-5.23936-.79052,8.82,8.82,0,0,0-1.72828-.40582,40.88494,40.88494,0,0,1-5.08215-.804c-1.37047-.44408-1.77789-1.24092-1.11965-2.49714,1.87526-3.57881,2.88509-7.49984,4.51206-11.17416.11585-.26168.17293-.55272.55179-.513a5.55368,5.55368,0,0,1,2.70585.57805,5.67493,5.67493,0,0,0,3.21888,1.1584,17.07854,17.07854,0,0,1,5.96308,1.075,4.35,4.35,0,0,0,1.45139.34089c2.63473-.082,5.23423.42308,7.86058.42737,4.00412.00652,8.00832.01169,12.01237-.00784a23.50864,23.50864,0,0,0,5.4-.53907c2.446-.5867,3.28585-1.62128,3.28877-4.1487q.01527-13.23252.016-26.46505.00093-7.17919-.01672-14.35839c-.00223-1.29751-.28312-1.65022-1.58106-1.87119a22.27961,22.27961,0,0,0-3.2787-.084,5.21309,5.21309,0,0,1-3.04249-.77554,5.1196,5.1196,0,0,0-2.44671-.87029,10.67428,10.67428,0,0,1-3.51079-.94949,8.117,8.117,0,0,0-2.05446-.63174,11.04769,11.04769,0,0,1-3.0303-.956,7.859,7.859,0,0,0-3.51227-.898,6.15988,6.15988,0,0,1-4.04255-1.48041,8.22613,8.22613,0,0,0-5.6018-2.04251,2.90883,2.90883,0,0,1-1.69739-.46556,5.64083,5.64083,0,0,0-3.3026-.85534c-3.47084.00031-6.9483-.13939-10.41014.03478a6.1995,6.1995,0,0,1-5.31723-2.03793,1.518,1.518,0,0,1-.5279-1.11182c.01806-3.9727.02482-7.94566-.00812-11.91818-.00581-.70172.19542-.90858.89621-.89592,5.47018.09885,10.94158-.12247,16.41245.26465,4.4315.31359,8.881.06943,13.32183.13256a6.44243,6.44243,0,0,1,3.277.62461,6.81437,6.81437,0,0,0,3.04878.81314c2.49129.168,4.99193.2975,7.29763,1.44035a4.9787,4.9787,0,0,0,2.17341.53106,9.08279,9.08279,0,0,1,4.88681,1.36632c.703.43116,1.32818.09377,1.69935-.63419a4.12316,4.12316,0,0,0,.33786-1.92291q-.0012-13.32594-.01279-26.65187a3.16932,3.16932,0,0,0-.32559-1.43843,12.21975,12.21975,0,0,0-5.16337-5.03074c-3.39191-1.99328-6.68176-4.15454-10.18275-5.9724-2.04278-1.06071-3.859-2.57025-6.24887-2.87153a1.89637,1.89637,0,0,1-.61411-.22544,10.68827,10.68827,0,0,0-4.15309-1.05443,12.54006,12.54006,0,0,1-4.90933-1.07608,8.69856,8.69856,0,0,0-2.9015-.70208,7.3302,7.3302,0,0,1-1.90544-.46932c-2.36479-1.0178-4.86883-1.02352-7.36879-1.09511a11.43548,11.43548,0,0,0-4.86507.78821,16.91224,16.91224,0,0,1-2.17823.85007c-1.54749.413-2.79243,1.53877-4.42375,1.76425a5.64816,5.64816,0,0,0-3.66965,2.06087,22.71169,22.71169,0,0,0-2.00359,3.16141c-.8633,1.47908-.85021,1.46845.43276,2.511a21.28375,21.28375,0,0,1,4.44611,4.65241c1.1265,1.6928,2.29976,3.34543,4.39491,4.01214a2.86375,2.86375,0,0,1,1.327,1.15956c1.04429,1.44238,2.07527,2.89441,3.10948,4.34407.35259.49422.39209.80765-.23155,1.24934-2.44072,1.72862-4.97519,3.36171-6.59779,6.01724a6.48123,6.48123,0,0,1-2.398,2.0607c-.28051.16343-.53553.34292-.81235-.00663-1.11536-1.40843-2.69481-2.45136-3.32376-4.24482a1.40479,1.40479,0,0,0-.69987-.84667,15.53527,15.53527,0,0,1-4.92492-4.12681,1.59406,1.59406,0,0,0-2.22462-.3904,39.873,39.873,0,0,0-5.81341,3.757c-1.09388.81641-2.35347,1.45364-2.92087,2.8095a33.23405,33.23405,0,0,1-2.2918,4.297,18.96161,18.96161,0,0,0-2.967,12.41515,8.77192,8.77192,0,0,0,3.02263,6.03057,8.711,8.711,0,0,1,2.47923,2.8908,18.10975,18.10975,0,0,0,5.91384,7.02338,5.76951,5.76951,0,0,1,2.37289,3.15884,8.11512,8.11512,0,0,0,.87918,1.85751,16.32565,16.32565,0,0,0,3.77187,3.87772,12.38453,12.38453,0,0,1,3.47541,4.37046,5.4378,5.4378,0,0,0,2.93349,3.05567,21.4883,21.4883,0,0,0,8.73478,2.23253,81.61423,81.61423,0,0,0,9.0921-.19008,3.06111,3.06111,0,0,1,3.02382,2.29662,67.86151,67.86151,0,0,1,.16518,10.20833,1.80446,1.80446,0,0,1-1.80929,1.64773c-1.21776.029-2.43721-.01876-3.656-.02451a50.55918,50.55918,0,0,1-10.00084-.52239,3.7406,3.7406,0,0,0-4.10169,2.00223c-1.14835,1.86-2.2596,3.743-3.41861,5.59629-1.901,3.03972-3.56152,6.26233-6.47058,8.5447a5.40824,5.40824,0,0,0-1.10438,1.506c-.18346.29435-.39507.71231-.70111.71407-1.32543.00758-2.78917.38212-3.9354-.36728a63.81368,63.81368,0,0,0-6.65456-3.64678,7.81956,7.81956,0,0,1-2.51125-1.77467c-.97514-1.11616-.993-1.34183.02465-2.43942a9.70517,9.70517,0,0,0,2.57254-4.07892,10.17177,10.17177,0,0,1,3.44665-5.46773,16.90426,16.90426,0,0,0,4.69069-6.78647,2.19118,2.19118,0,0,0-.34778-2.43193,5.44509,5.44509,0,0,0-1.75152-1.39379,8.76682,8.76682,0,0,1-2.28457-1.90943,78.9287,78.9287,0,0,1-5.13116-6.45447c-2.5814-3.50211-5.53187-6.69864-8.23248-10.09861-1.296-1.63165-2.24484-3.528-3.74974-5.019-.91787-.90937-1.29334-.91668-2.02177.15627a2.01972,2.01972,0,0,0-.30632.76421c-.494,2.5046-1.85793,4.72649-2.3417,7.24582-.20388,1.06165-.70917,2.06173-.99232,3.11271a7.40762,7.40762,0,0,0,.302,4.251c.57236,1.80456.74816,3.75007,1.641,5.4337a8.75244,8.75244,0,0,1,1.0203,4.03153c.03216,1.52537-.262,1.89781-1.64355,2.585-2.1136,1.05137-4.41174,1.81949-6.0328,3.68648a8.05665,8.05665,0,0,1-2.70985,1.97066,8.91921,8.91921,0,0,0-3.6613,3.40129c-.67608,1.05164-1.27654,2.147-1.85024,3.26054a10.76624,10.76624,0,0,0-1.20974,5.40674c.10019,3.29608.05136,6.59853-.00745,9.897-.04565,2.56032,1.14148,3.85917,3.69085,3.86585.18761.0005.37523-.00917.56287-.01237,1.49976-.02556,2.9999-.037,4.4992-.079,2.62341-.07341,5.2524.324,7.86941-.054,1.49366-.21571,2.99393-.168,4.49089-.24656.49521-.026.6478.14036.65884.62779q.13394,5.9081.31124,11.81522c.014.48133-.11378.76661-.63932.834a39.01274,39.01274,0,0,1-5.10661.65044c-3.56575-.01249-7.13257.06665-10.697.00082a3.33,3.33,0,0,0-2.72893,1.31526,11.11625,11.11625,0,0,0-2.86749,7.07833c-.139,4.543-.44307,9.11448.20567,13.63455a11.0805,11.0805,0,0,0,3.06678,6.57754,16.5675,16.5675,0,0,0,2.94979,2.14955A.95264.95264,0,0,0,241.06,409.812a23.59654,23.59654,0,0,0,6.55281-5.39568c1.11914-1.38348,2.20345-2.82089,4.092-3.24285a1.1559,1.1559,0,0,0,.411-.221c2.04675-1.52937,4.48857-2.14642,6.83648-2.9853a.66137.66137,0,0,1,.82083.16015C262.60335,401.00572,265.07433,404.18711,267.64752,407.34456Z"/><path class="cls-3" d="M399.01967,413.16374a7.37808,7.37808,0,0,1-5.86141-2.02481,16.85062,16.85062,0,0,0-2.40216-1.7913c-2.52372-1.56486-3.6355-3.9582-4.49789-6.70144a13.38843,13.38843,0,0,1,.09844-7.29511,6.449,6.449,0,0,1,3.45191-4.66922,11.82539,11.82539,0,0,0,4.9232-5.13149,8.6245,8.6245,0,0,1,3.43613-3.2282,14.876,14.876,0,0,0,5.47357-5.90025,4.49562,4.49562,0,0,1,1.9478-1.96877,15.56293,15.56293,0,0,0,6.78548-6.90033,3.26316,3.26316,0,0,1,1.21238-1.27566,25.52283,25.52283,0,0,0,5.63362-4.47,1.84683,1.84683,0,0,1,1.49312-.62677c.71883.01312,1.43831.03767,2.15664.02079a3.52976,3.52976,0,0,1,2.28789.91288c4.27026,3.27761,7.4273,7.66091,11.30017,11.33159a6.10987,6.10987,0,0,1,.85664,1.11166,1.94347,1.94347,0,0,1-.10222,2.78243c-1.06465,1.38914-2.1282,2.77923-3.208,4.15657a3.10588,3.10588,0,0,1-.742.70242,10.27035,10.27035,0,0,0-3.64172,4.20137,8.01159,8.01159,0,0,1-3.80978,3.84842,10.48808,10.48808,0,0,0-5.08985,5.04789,8.14262,8.14262,0,0,1-3.97427,3.94879,9.92458,9.92458,0,0,0-4.881,4.86953,8.28464,8.28464,0,0,1-3.946,3.97807,10.80932,10.80932,0,0,0-3.7409,2.92618A5.33515,5.33515,0,0,1,399.01967,413.16374Zm23.75619-43.81169a8.256,8.256,0,0,0-.25654-1.289c-.3811-1.00818-1.21854-1.10485-1.87693-.23793a2.14517,2.14517,0,0,0-.33147.56443,7.45191,7.45191,0,0,1-4.07176,4.05585,7.97364,7.97364,0,0,0-3.31993,2.67c-.51894.8186-1.06931,1.618-1.56773,2.4487a8.20276,8.20276,0,0,1-3.5606,3.48908,10.46692,10.46692,0,0,0-5.25242,5.25479,7.74787,7.74787,0,0,1-3.48613,3.54007,9.47938,9.47938,0,0,0-4.00114,3.15745,23.545,23.545,0,0,1-5.18208,6.34954,1.18607,1.18607,0,0,0-.18694.20992,1.127,1.127,0,0,0,.63848,1.87984,3.04014,3.04014,0,0,0,2.77724-.70986,11.70856,11.70856,0,0,0,1.42075-1.46053c.4633-.52088,1.25938-.82357,1.35832-1.57226.11507-.87041,1.20351-.3082,1.32488-1.04389a.17933.17933,0,0,1,.05206-.077c.82429-.9023,1.74639-1.70383,2.56568-2.61982a29.36608,29.36608,0,0,0,2.92407-3.04613c.1574-.23517.03384-.67429.28858-.648.96832.09995,1.14879-.75066,1.645-1.22989.67933-.65607,1.28519-1.41738,1.95137-2.028.75749-.69418,1.80672-1.02579,1.87438-2.27554.005-.09252.14416-.22591.24658-.25771a7.1869,7.1869,0,0,0,2.90624-2.332c1.8-1.87654,3.71025-3.64724,5.56912-5.46759.19583-.19174.52767-.42125.41284-.68691-.29785-.68914.01027-.737.5512-.6283.343.06895.51485-.18.70018-.38168,1.03067-1.12179,2.26844-2.00329,3.00663-3.46586C422.27554,370.76155,422.5001,370.02114,422.77586,369.35205Zm-25.83849,39.07606a4.81183,4.81183,0,0,0,2.06523-.44384,8.33146,8.33146,0,0,0,3.95717-3.9771,9.55712,9.55712,0,0,1,4.65811-4.66618,8.21685,8.21685,0,0,0,3.95009-3.99021,8.70379,8.70379,0,0,1,4.29616-4.37592,9.13347,9.13347,0,0,0,4.44028-4.521,9.00164,9.00164,0,0,1,4.02527-4.02067c2.61068-1.43709,4.69931-3.3691,5.1179-6.56019.08414-.64159.0895-1.35271-.45115-1.7116-.49559-.329-1.09291.03427-1.55176.36985a11.81674,11.81674,0,0,0-1.12175.99062c-1.9978,1.89418-3.64414,4.122-5.63216,6.01857-2.77907,2.65122-5.62525,5.22654-8.16261,8.12508-1.707,1.95-3.85669,3.45522-5.59531,5.3906-1.64811,1.83463-3.31906,3.65157-5.12433,5.34014a69.11235,69.11235,0,0,0-5.80908,5.71015,1.83886,1.83886,0,0,0-.566,1.791C395.68207,408.57282,396.46807,408.27425,396.93737,408.42811Z"/><path class="cls-3" d="M428.71165,357.81617c-.81546.28024-1.39058-.20768-1.99266-.58971a16.74148,16.74148,0,0,0-4.33509-2.18184,2.6134,2.6134,0,0,0-2.234.28438c-.84775.53034-1.72247,1.02361-2.53282,1.6062a5.89563,5.89563,0,0,1-3.31356.78662c-.4443.02744-.65339-.31639-.90256-.58925-2.04395-2.23828-4.02371-4.5397-6.15017-6.69652-1.48453-1.5057-3.21794-2.748-4.47865-4.50218a1.94757,1.94757,0,0,0-2.563-.47481,5.29244,5.29244,0,0,1-5.11126-.14934c-1.32979-.68958-2.72165-1.25912-4.08308-1.88818a7.66272,7.66272,0,0,0-2.22164-.70653,12.896,12.896,0,0,1-4.41092-1.75178,2.02289,2.02289,0,0,1-.863-.83086,17.51882,17.51882,0,0,1-1.81572-4.7016c-.25-1.7474-1.37092-3.13448-1.90635-4.76429a30.41184,30.41184,0,0,0-1.26187-3.22677c-.30957-.67207.04734-1.13826.293-1.656.194-.40872.49246-.13036.7159-.03416a10.71764,10.71764,0,0,1,3.59607,2.66165,24.382,24.382,0,0,0,7.45354,5.42565,2.78087,2.78087,0,0,0,3.52072-.44341c2.1186-2.39188,4.551-4.46519,6.7293-6.79263.1922-.20534.383-.41352.55683-.63423,1.06564-1.3529,1.08438-2.39626-.076-3.69175-2.443-2.72742-4.56665-5.70776-6.87787-8.53846a.7683.7683,0,0,1-.034-1.116c1.04348-1.5565,1.27766-1.6695,2.97175-.75745a9.38341,9.38341,0,0,0,4.09195,1.20572,4.5501,4.5501,0,0,1,2.0558.58891,8.97,8.97,0,0,0,4.03668,1.07033c2.47617.13082,3.562,1.2176,3.59918,3.71489a18.26116,18.26116,0,0,0,1.1495,6.41915,22.57057,22.57057,0,0,1,1.09039,4.93207,6.61467,6.61467,0,0,1-.24365,2.41231,3.422,3.422,0,0,0,.86993,3.2053,41.8522,41.8522,0,0,0,5.42389,4.60938,16.03841,16.03841,0,0,1,2.19974,2.03355c2.61595,3.01312,5.85282,5.35817,8.716,8.10539,1.06009,1.01714,2.15283,2.0002,3.21705,3.01314.92437.87983.88193,1.25591-.20272,1.87825a5.69105,5.69105,0,0,0-1.96054,1.57517A2.62858,2.62858,0,0,1,428.71165,357.81617Z"/><path class="cls-3" d="M468.84153,407.80321a11.84193,11.84193,0,0,1-6.25986-1.11484,13.03132,13.03132,0,0,0-1.45948-.63737,14.19951,14.19951,0,0,1-6.49115-5.028c-3.09011-4.026-6.85677-7.44342-10.31281-11.14095-1.81431-1.94111-3.66821-3.84558-5.46269-5.80463-1.03362-1.12839-.99208-1.19006-.2735-2.51031a29.22138,29.22138,0,0,1,1.70782-2.4556,5.145,5.145,0,0,0,.45523-5.6503,12.29822,12.29822,0,0,0-2.176-2.69192c-1.189-1.20041-1.04179-2.36038.35372-3.32992q.96177-.66821,1.90463-1.36352a1.48059,1.48059,0,0,1,.84156-.37438c2.59338-.04367,5.14872.05666,7.21812,1.95446a25.35221,25.35221,0,0,1,2.20842,2.02664c2.72133,3.17159,6.05373,5.68451,9.08023,8.52558,1.84636,1.73324,3.2727,3.88967,5.33434,5.392a29.50258,29.50258,0,0,1,5.19193,4.71856,62.67671,62.67671,0,0,0,4.79754,5.13442,4.768,4.768,0,0,1,1.55256,3.40542,29.81593,29.81593,0,0,1-.17873,4.77215,2.1983,2.1983,0,0,1-.23388.705c-.21092.41777-.45885.81665-.68572,1.22651C474.31045,406.53125,472.11914,408.53267,468.84153,407.80321Zm1.18584-10.06188a5.45831,5.45831,0,0,0-1.19418-3.37582,2.07474,2.07474,0,0,0-3.0179-.69393c-3.165,1.71043-4.0763,6.8589-1.7268,9.66441a.69233.69233,0,0,0,.729.24422A6.13067,6.13067,0,0,0,470.02737,397.74133Z"/><path class="cls-3" d="M433.85668,365.8004a2.238,2.238,0,0,1-2.47484-1.20314,1.44139,1.44139,0,0,1,.07208-1.85439,57.71561,57.71561,0,0,1,7.33331-7.9905c3.98955-3.37522,7.50047-7.26342,11.207-10.94056,5.70677-5.6614,11.35632-11.3805,17.03579-17.06947a5.6345,5.6345,0,0,0,1.47886-2.45545c.61689-2.12556,1.82932-4.04385,2.1934-6.26049.06878-.41891.46128-.48632.76392-.615,1.09144-.46422,2.2052-.87741,3.28692-1.36256a1.499,1.499,0,0,1,1.56573.30707,13.22188,13.22188,0,0,1,5.10809,5.70954c.78783,1.86752.80458,1.97858-.69548,3.32537a10.04188,10.04188,0,0,1-3.69545,2.14811c-3.1297,1.00192-5.49194,3.15593-7.742,5.43219-2.50541,2.53459-4.80629,5.27481-7.51674,7.60226-2.54883,2.18868-4.62559,4.83514-7.044,7.14446-2.82577,2.69835-5.81052,5.2358-8.5524,8.01464-2.28171,2.31244-4.38892,4.79955-6.84126,6.94469a13.85762,13.85762,0,0,0-2.62184,2.66088c-.4138.62533-1.1313.4009-1.71456.52976A4.86378,4.86378,0,0,1,433.85668,365.8004Z"/></g><g id="vhMTIq"><path class="cls-4" d="M473.88236,95.29938c10.42306,5.60875,21.22784,10.61326,31.21015,16.91962C606.214,176.1028,655.771,268.09854,644.16989,387.13847c-15.851,162.6475-160.63234,265.98117-306.52595,252.014C196.02313,625.59437,87.61309,507.89678,83.85861,368.4075c-3.98885-148.196,110.49056-274.78913,257.82205-284.437,9.3624-.61309,15.27935.50252,13.446,12.02684-1.04934,6.59611,2.84945,7.26407,7.92478,4.88677q21.58769-10.11167,43.13848-20.302c5.36972-2.54359,6.0946-5.87392,1.02219-9.45793Q387.75,57.37275,368.12921,43.84636c-4.71327-3.2625-8.70859-2.61543-8.74038,3.66984-.06163,12.18635-7.87961,12.68006-17.12289,13.63785C224.76249,73.32978,139.128,132.1549,90.67661,239.976,20.124,396.98,103.75426,583.447,267.0621,637.97243,418.06668,688.39006,582.195,609.41146,636.305,460.29266,686.05717,323.18339,625.51718,169.154,495.57061,102.464c-6.72413-3.45089-13.8691-6.08181-20.81814-9.09448Q474.3174,94.33447,473.88236,95.29938Z"/></g></svg>