<svg id="Layer_1" data-name="Layer 1" xmlns="http://www.w3.org/2000/svg" viewBox="0 0 576 755.84132"><defs><style>.cls-1{fill:#f19f40;}.cls-2{fill:#5280c5;}</style></defs><title>angelML-stacked-color</title><path class="cls-1" d="M360.90661,203.98484c.06583-11.37924-2.95353-14.39445-14.32133-14.3-55.735.46365-111.47776-.01776-167.21788-.16528-.57722,8.59965-2.56044,16.73866-13.24857,16.40651-9.87258-.30684-11.51108-8.30461-12.27543-16.27014-32.58505.10149-65.17436.49506-97.755.12225-9.41034-.10762-13.35792,1.40851-13.291,12.42139.52334,86.193.23316,172.39075.32475,258.58677.0297,27.92247,19.75675,47.34332,47.903,47.36532,72.9022.05719,145.81711-.76042,218.70063.40928,28.69938.46076,51.69262-20.82748,51.29748-51.14024C359.92255,372.9544,360.41713,288.46285,360.90661,203.98484ZM349.76946,391.48549c-4.79832,4.11428-10.2864,2.44151-15.60242.90481.00662,22.71186.12225,45.42451-.01883,68.13559-.09286,14.93894-5.09984,19.92723-20.18788,19.94306q-111.84666.1176-223.69334.00455c-15.16484-.01524-20.99825-5.66606-21.02478-20.97327-.13481-77.56385.028-155.12849-.202-232.69211-.02294-7.71977,2.18634-10.40737,10.14715-10.38428q122.13048.35536,244.26156-.05876c9.858-.044,10.9257,4.15719,10.875,12.27653q-.11151,17.84162-.15287,35.68344c-.09128,35.67074-.02451,71.34155-.03378,107.00717,6.32073-1.84339,12.38319-2.5342,16.86465,1.83836a14.30493,14.30493,0,0,1,1.95132,2.39187q.45744.695.8825,1.49224c3.14576,5.91175.332,10.66-4.06612,14.4308Z"/><path class="cls-2" d="M432.75185,344.58884a12.28063,12.28063,0,0,0-13.30058,12.58545A12.10181,12.10181,0,0,0,432.1,370.32168c7.7855.23708,12.36137-4.66526,13.42957-12.41667C444.99978,349.76739,440.401,344.81685,432.75185,344.58884Z"/><path class="cls-2" d="M232.21753,82.74229a12.16732,12.16732,0,0,0,12.94363-12.88217c.01319-7.71977-4.89573-12.30748-12.93169-13.0819-7.8089.79594-12.87653,5.23832-12.93749,12.97788a12.30973,12.30973,0,0,0,12.92555,12.98619Z"/><path class="cls-2" d="M514.62543,231.10824a12.3163,12.3163,0,0,0-12.36605,13.47806,12.08059,12.08059,0,0,0,13.40789,12.33136c7.84677-.34787,11.89113-5.60055,12.52948-13.35709C526.751,235.94427,522.63732,230.71436,514.62543,231.10824Z"/><path class="cls-2" d="M496.60255,149.13364A12.15253,12.15253,0,0,0,509.552,161.93985c7.85495.03928,12.32932-4.71161,12.60348-12.91-.37326-8.11026-5.1245-12.88959-12.74063-12.87669a12.21918,12.21918,0,0,0-12.81228,12.98048Z"/><path class="cls-2" d="M380.77343,33.094c.17989-8.13258-5.25773-12.83806-13.045-12.92478a12.03073,12.03073,0,0,0-12.66766,11.35815q-.01813.333-.01783.66669c-.53323,8.10678,4.5633,12.41557,12.247,13.774C375.30674,45.22755,380.59668,41.08359,380.77343,33.094Z"/><path class="cls-2" d="M487.91594,119.25513c8.14889-.28655,12.07589-5.452,12.99233-13.8943-2.01716-6.70945-5.63858-12.30747-14.11584-11.54139-8.09705.73167-12.62123,5.84659-11.86847,13.86145a11.8268,11.8268,0,0,0,12.02,11.63033Q487.4309,119.30319,487.91594,119.25513Z"/><path class="cls-2" d="M176.22207,159.88367a12.17309,12.17309,0,0,0,13.15629-12.8474c.11108-8.06673-5.02332-12.25453-13.46021-13.33764-7.04455,1.57346-12.15587,5.632-11.93575,13.78981a11.89325,11.89325,0,0,0,11.37507,12.38977Q175.78953,159.89666,176.22207,159.88367Z"/><path class="cls-2" d="M166.11888,205.92611c10.68814.33206,12.67136-7.80686,13.24858-16.40651-10.2831-11.95555-15.4593-11.9279-25.524.13643C154.60781,197.62152,156.24631,205.61927,166.11888,205.92611Z"/><path class="cls-2" d="M198.38831,117.15991c8.26987.54056,12.33576-4.61749,13.98951-12.27888-.84946-7.83249-5.03463-12.90594-13.03475-13.11238A11.80916,11.80916,0,0,0,186.47494,102.414q-.04645.49142-.05174.98543C185.84186,111.33013,190.20752,116.62508,198.38831,117.15991Z"/><path class="cls-2" d="M426.71638,46.19127c-.03606-8.20326-5.30676-12.075-13.04025-13.371C406.213,34.44941,400.8362,38.582,401.24076,46.64517c.40095,7.9921,5.793,12.55776,13.71441,12.21712C422.39,58.54259,426.74941,53.67646,426.71638,46.19127Z"/><path class="cls-2" d="M497.62805,276.16842a12.13686,12.13686,0,0,0-11.85138,14.033,11.68738,11.68738,0,0,0,11.75,11.62449q.58215-.00312,1.1618-.06416c7.96727-.19324,12.19-5.34995,12.78494-14.41858C509.895,280.77382,505.76741,275.43567,497.62805,276.16842Z"/><path class="cls-2" d="M519.746,183.37782a11.88424,11.88424,0,0,0-13.48837,12.30227c-.343,8.21551,4.83825,12.25628,12.61746,13.64687,7.59877-1.20158,12.81778-5.07077,12.76687-13.30717a11.8141,11.8141,0,0,0-10.95663-12.61342Q520.21641,183.37342,519.746,183.37782Z"/><path class="cls-2" d="M320.04485,45.21672c8.16223-.23348,12.11279-5.316,13.01605-13.16358-1.637-7.62918-6.00574-12.74-14.04122-12.15854a12.14874,12.14874,0,0,0-12.05027,13.86381A11.84059,11.84059,0,0,0,319.123,45.27748Q319.58492,45.26511,320.04485,45.21672Z"/><path class="cls-2" d="M467.64,71.03845c-.12852-8.15127-5.286-12.70583-13.15887-12.56484a11.79377,11.79377,0,0,0-12.22523,11.34586q-.0172.46233.00181.92493c-.29019,8.1376,4.65364,12.33987,12.58368,13.30091C462.82737,83.322,467.76884,79.21246,467.64,71.03845Z"/><path class="cls-2" d="M274.04059,58.07706c7.88935-1.22878,12.96528-5.77713,12.32759-13.70813a12.867,12.867,0,0,0-25.69775,1.008C260.92367,53.16009,265.89908,57.67455,274.04059,58.07706Z"/><path class="cls-2" d="M469.56289,314.9264c-7.80969,1.201-12.61761,5.57384-12.08485,13.677a11.79631,11.79631,0,0,0,11.65425,11.9367q.45495.00541.90932-.0242A11.99891,11.99891,0,0,0,482.8597,327.5214C482.85326,319.36068,477.60778,315.44361,469.56289,314.9264Z"/><path class="cls-2" d="M388.09388,363.16467a12.721,12.721,0,0,0-.62059,25.42966c7.94905.38095,12.43442-4.47705,13.5353-12.09491C400.5917,367.97224,395.74379,363.202,388.09388,363.16467Z"/><path class="cls-2" d="M352.95309,375.5626a14.30541,14.30541,0,0,0-1.95133-2.39186c-4.48152-4.37257-10.5439-3.68175-16.86463-1.83836l-.0063.00754c-6.25742,7.01832-5.46387,14.03712.03629,21.05041,5.316,1.53675,10.8041,3.20948,15.60242-.9048,4.39817-3.77083,7.21188-8.519,4.066-14.43068Q353.41092,376.25664,352.95309,375.5626Z"/><path class="cls-2" d="M182.66616,241.795c-.32567-7.8083-4.95-12.78526-12.526-13.072a12.2451,12.2451,0,0,0-13.27653,12.56187,12.037,12.037,0,0,0,12.51973,13.18975C177.32156,254.77927,181.83253,250.087,182.66616,241.795Z"/><path class="cls-2" d="M185.84609,274.13618c-8.076.11642-13.12283,5.26231-12.92805,13.02738.19434,7.74182,5.54464,12.10652,13.57631,12.72147,7.756-1.43411,12.78979-5.97709,12.19216-13.90719A12.03374,12.03374,0,0,0,186.489,274.11016Q186.16723,274.11457,185.84609,274.13618Z"/><path class="cls-2" d="M213.18475,313.21214a12.70737,12.70737,0,0,0,.22875,25.41106c8.29075.16905,12.15753-5.02725,13.37458-13.25486C225.20265,318.37641,221.38926,312.90719,213.18475,313.21214Z"/><path class="cls-2" d="M251.195,343.61384a11.54432,11.54432,0,0,0-12.81909,11.51721c-.65531,8.18975,3.91867,13.30985,11.829,13.8271,7.95677.5202,12.50373-4.37449,13.893-12.26584C263.36864,348.79679,259.313,343.81161,251.195,343.61384Z"/><path class="cls-2" d="M294.80567,362.42464A11.98713,11.98713,0,0,0,282.3172,375.8011a11.79132,11.79132,0,0,0,11.35888,12.2085q.48912.01761.97845-.00534c8.0722.19419,12.3538-4.75592,13.46444-13.10557C306.95242,367.5645,302.76336,362.22416,294.80567,362.42464Z"/><path class="cls-2" d="M53.48694,657.28483l-14.558,44.09056H20.21119L67.83753,561.20231H89.6746l47.83454,140.17308H118.16682L103.1931,657.28483Zm45.96218-14.14164-13.726-40.34657c-3.12011-9.15064-5.1992-17.46995-7.279-25.58031h-.41642c-2.07982,8.31857-4.36711,16.84534-7.07081,25.37211l-13.726,40.55477Z"/><path class="cls-2" d="M167.65883,627.96127c0-10.39839-.20672-18.92516-.83134-27.24447H183.0497l1.03954,16.63787h.41642c4.991-9.56631,16.63713-18.92516,33.27575-18.92516,13.93343,0,35.563,8.31856,35.563,42.84132v60.10456H235.04316v-58.024c0-16.22146-6.032-29.74-23.29377-29.74-12.06256,0-21.42141,8.52677-24.54,18.7177a26.282,26.282,0,0,0-1.24775,8.52677v60.51949H167.65883Z"/><path class="cls-2" d="M380.6162,600.7168c-.41641,7.279-.83134,15.39012-.83134,27.66088v58.43966c0,23.08556-4.57606,37.2272-14.35132,45.96292-9.77378,9.15064-23.9169,12.06106-36.60259,12.06106-12.06255,0-25.37285-2.91042-33.48395-8.31782l4.57458-13.93492c6.65515,4.15966,17.055,7.9029,29.5325,7.9029,18.71771,0,32.44442-9.77377,32.44442-35.14663V684.11364h-.41641c-5.61412,9.35885-16.42893,16.84682-32.028,16.84682-24.95644,0-42.84281-21.21468-42.84281-49.083,0-34.10635,22.25423-53.44792,45.33831-53.44792,17.46995,0,27.037,9.15064,31.40487,17.46921h.41641l.83134-15.18192Zm-18.92591,39.72269a26.07237,26.07237,0,0,0-1.03954-8.31856c-3.32832-10.6066-12.27076-19.34158-25.58106-19.34158-17.46995,0-29.94892,14.76625-29.94892,38.05854,0,19.75724,9.98347,36.18765,29.74072,36.18765,11.23121,0,21.4214-7.07156,25.37285-18.7177a31.85416,31.85416,0,0,0,1.456-9.77526Z"/><path class="cls-2" d="M431.14478,654.37441c.41641,24.74824,16.22221,34.93842,34.5235,34.93842,13.10209,0,21.005-2.28729,27.86835-5.19919l3.12011,13.10209c-6.447,2.91191-17.47,6.24023-33.484,6.24023-30.98846,0-49.498-20.38187-49.498-50.74571s17.88637-54.28074,47.21067-54.28074c32.85934,0,41.59357,28.90789,41.59357,47.41738a69.04024,69.04024,0,0,1-.62313,8.52752Zm53.65761-13.10358c.20672-11.6454-4.78427-29.73923-25.37285-29.73923-18.5095,0-26.6206,17.05355-28.07656,29.73923Z"/><path class="cls-2" d="M535.95559,553.71508h18.30129V701.37539H535.95559Z"/></svg>