<svg id="レイヤー_1" data-name="レイヤー 1" xmlns="http://www.w3.org/2000/svg" viewBox="0 0 864 864"><defs><style>.cls-1{fill:#43af5a;}.cls-2{fill:#fc0;}.cls-3{fill:#d2e4f4;}.cls-4{fill:#009ade;}.cls-5{fill:#003764;}</style></defs><title>lfdl-landscape-icon-color</title><path class="cls-1" d="M594.17955,720.61931H716.54369V613.76643c-43.34587-31.05418-86.30031-62.14466-128.83712-94.0472-12.96932-9.83879-22.80818-10.286-35.77749.44721-24.14978,20.12487-49.6413,38.4608-74.23832,58.13846-10.286,8.05-17.88874,8.05-27.28033-1.78885-44.72186-45.16911-90.78559-89.44372-135.06-135.06-11.18046-11.62767-19.23041-11.62767-31.3053-1.78888-45.23035,37.17559-90.68078,73.92124-136.19148,110.68439V720.61931H513.16519v111.568h81.01443v-111.568Z"/><path class="cls-2" d="M542.53725,400.31194a90.3409,90.3409,0,1,0-91.23256-90.33814A91.06666,91.06666,0,0,0,542.53725,400.31194Z"/><path class="cls-3" d="M147.85342,355.21985V550.35169c45.51082-36.76315,90.96125-73.50883,136.1915-110.68449,12.07489-9.8388,20.12484-9.8388,31.3053,1.78888,44.27465,45.61628,90.33818,89.89093,135.06,135.06,9.39159,9.83879,16.99432,9.83879,27.28036,1.78884,24.597-19.67759,50.08847-38.01358,74.23832-58.13841,12.96931-10.73326,22.80818-10.28605,35.77749-.44722,42.53681,31.90258,85.49125,62.99306,128.83712,94.04724V152.26242H147.62507V274.05584H29.014v81.164ZM542.09008,219.63562a89.35242,89.35242,0,0,1,90.34415,88.34959q.01361,1.21788-.006,2.43577a90.56316,90.56316,0,0,1-181.12353-.44721A89.62511,89.62511,0,0,1,540.20631,219.631Q541.14822,219.62339,542.09008,219.63562Z"/><polygon class="cls-4" points="513.164 720.619 147.853 720.619 147.853 550.354 147.853 377.495 147.853 355.219 65.127 355.219 29.014 355.219 29.014 468.034 29.014 775.976 29.014 832.186 513.164 832.186 513.164 775.976 513.164 720.619"/><polygon class="cls-5" points="29.014 64.858 29.014 213.236 29.014 274.058 65.046 274.058 92.443 274.058 147.625 274.058 147.625 152.262 716.546 152.262 716.546 613.765 716.546 720.619 594.178 720.619 594.178 775.976 594.178 832.186 760.346 832.186 784.232 832.186 836.986 832.186 836.986 31.048 760.346 31.048 29.014 31.048 29.014 57.742 29.014 64.858"/></svg>