<svg id="Layer_1" data-name="Layer 1" xmlns="http://www.w3.org/2000/svg" viewBox="0 0 1000 1000"><path d="M595.33008,493.21851q-85.251-.00257-170.502.00634c-10.44042.00049-20.88085,0-32.51171,0,35.207,70.627,69.95214,140.3274,105.22949,211.09693,1.33691-2.3877,2.18945-3.77051,2.91113-5.21826q49.522-99.38856,99.01758-198.79078C602.98926,493.2522,602.9541,493.21875,595.33008,493.21851Z"/><path d="M374.32422,493.9248a11.9506,11.9506,0,0,0-4.4541-5.08105q-35.93409-22.62122-71.80176-45.3501-.49219.34424-.98438.68823,75.01173,99.338,150.02344,198.67627c.62207-1.03833.55469-1.62524.30664-2.12231Q410.86914,567.33069,374.32422,493.9248Z"/><path d="M391.08105,476.30005a4.66906,4.66906,0,0,0,.89258.24927q104.21191.09264,208.42285.251c4.68653.01172,3.92383-2.0415,2.95215-4.93579-7.40527-22.06079-14.82324-44.11792-22.09668-66.22265-.98437-2.99268-2.207-4.38355-5.66211-4.37574q-77.77.17579-155.542.00293c-3.66406-.00854-5,1.3545-6.06543,4.65332-5.60351,17.355-11.54492,34.60083-17.21582,51.93482C394.76758,463.96631,392.08008,469.89258,391.08105,476.30005Z"/><path d="M376.37305,467.08716q10.85742-32.85462,21.83984-65.66821c.332-.99463.69238-1.97974,1.03711-2.96094.22363-2.98364-2.374-3.13843-4.09277-3.9812-22.416-10.99341-44.915-21.82056-67.2461-32.98218-3.916-1.957-6.1582-1.53125-9.123,1.59326q-19.94532,21.01794-40.4043,41.54346c-3.50586,3.50049-3.41211,4.85888.86621,7.52978q45.67091,28.51062,90.97852,57.60083C374.65625,472.60791,375.2627,470.4458,376.37305,467.08716Z"/><path d="M125.82227,517.73169c0,205.44067,166.542,371.9834,371.98339,371.9834,205.44043,0,371.9834-166.54273,371.9834-371.9834,0-205.44092-166.543-371.9834-371.9834-371.9834C292.36426,145.74829,125.82227,312.29077,125.82227,517.73169Zm453.752-217.02136a24.9784,24.9784,0,0,1,11.46777,2.61425q46.05762,22.60053,92.21582,44.99622a24.69739,24.69739,0,0,1,6.95606,5.27051c16.97265,17.46973,33.89648,34.989,51.05664,52.27295,2.9873,3.00879,3.11133,4.76.53418,8.16528q-118.771,156.939-237.32324,314.0437c-6.68653,8.852-6.82715,8.88892-13.39551.21363q-56.83155-75.07251-113.57813-150.20875Q315.93751,496.57862,254.291,415.13721c-3.25684-4.28418-3.08887-6.478.61035-10.18335,16.61621-16.64063,32.93066-33.58325,49.30273-50.46656a33.62906,33.62906,0,0,1,9.53711-7.05419q45.30322-21.97486,90.52832-44.11243a24.99035,24.99035,0,0,1,11.47266-2.60315c27.30469.10657,54.61035.05518,81.916.05273S552.26953,300.82129,579.57422,300.71033Z"/><path d="M449.99805,316.88745c-24.86035-.80224-47.80274,2.54895-68.8584,16.12134a54.26075,54.26075,0,0,1-5.668,2.72632c-10.08984,4.93579-20.17383,9.88281-31.0918,15.23413,2.77442,1.51074,4.52246,2.55176,6.34375,3.4414,18.85742,9.2085,37.7627,18.31958,56.56348,27.64112a27.51277,27.51277,0,0,0,12.66016,2.90552c47.68066-.00123,95.3623.2976,143.042.07348,7.21-.03393,14.74121,1.95264,21.77051-1.47,21.69043-10.56152,43.37109-21.14331,65.57031-31.9685-2.11524-2.582-4.64063-3.21-6.83692-4.28614-18.65332-9.14282-37.37988-18.13769-56-27.34668a26.30144,26.30144,0,0,0-12.09375-2.75464C533.59473,317.28027,491.75879,318.23535,449.99805,316.88745Z"/><path d="M596.81836,400.64746q11.45214,33.64673,22.53125,67.4187c1.01758,3.1023,1.81055,4.17456,4.99707,2.14575q46.47656-29.5913,93.06152-59.01025c1.02344-.64844,1.92871-1.48413,3.14453-2.43213-.8789-1.02295-1.49316-1.81958-2.18945-2.53564-14.3457-14.75025-28.73535-29.458-43.01562-44.271-2.09082-2.16894-3.82618-2.43994-6.54981-1.09766q-34.7168,17.109-69.58008,33.92041C596.34375,396.17236,595.78711,397.61523,596.81836,400.64746Z"/><path d="M627.54883,487.47705a19.33959,19.33959,0,0,0-7.4336,8.16089q-26.51659,53.57337-53.22949,107.04858-9.87012,19.83033-19.71875,39.67115.48486.28234.96875.56469,74.86963-99.12671,149.73731-198.25293l-.76465-1.0393Q662.34473,465.57861,627.54883,487.47705Z"/><path d="M715.19141,108.7771c-10.74805-5.51563-22.168-9.7207-33.27442-14.53589q-.69581,1.54212-1.39062,3.08447c16.65918,8.9646,33.92871,16.9635,49.88379,27.04322,161.626,102.10766,240.835,249.1477,222.292,439.41333-25.335,259.96533-256.74414,425.12719-489.93067,402.803C236.41406,944.91479,63.13867,756.79468,57.13672,533.844c-6.375-236.86694,176.60156-439.2052,412.08691-454.62573,14.96387-.98,24.4209.80322,21.49121,19.2229-1.67773,10.54273,4.55371,11.61035,12.666,7.81067Q537.88525,90.09,572.33105,73.80249c8.582-4.06555,9.74122-9.38843,1.63379-15.11694q-31.10742-21.97944-62.46777-43.59912c-7.5332-5.2146-13.91895-4.1803-13.96973,5.86572C497.42871,40.42993,484.93262,41.219,470.15918,42.75,282.34863,62.21094,145.47656,156.23315,68.03516,328.56738-44.73242,579.51245,88.9375,877.54932,349.958,964.69922c241.35547,80.58423,503.6875-45.65015,590.17383-283.99194C1019.65234,461.56079,922.88965,215.37012,715.19141,108.7771Z"/></svg>