<svg id="Layer_1" data-name="Layer 1" xmlns="http://www.w3.org/2000/svg" viewBox="0 0 1066 260"><defs><style>.cls-1{fill:none;}</style></defs><path class="cls-1" d="M178.924,134.38906c0,5.99262,5.12787,10.866,11.43176,10.866s11.43171-4.87335,11.43171-10.866c0-5.99042-5.12787-10.86426-11.43171-10.86426S178.924,128.39864,178.924,134.38906Zm16.93292,0a5.53452,5.53452,0,1,1-5.50116-4.93414A5.2479,5.2479,0,0,1,195.85693,134.38906Z"/><path class="cls-1" d="M195.21967,110.07674a20.71443,20.71443,0,0,0,3.80651-9.85992l.07734-.70795-.24927-.66662a36.07583,36.07583,0,0,0-33.75519-23.33814,34.0599,34.0599,0,0,0-33.77673,31.15259,39.54422,39.54422,0,0,0-36.25287,33.93182A28.13832,28.13832,0,1,0,72.4826,185.50137h94.93909v-5.93476H152.25513a26.98041,26.98041,0,0,0,9.82934-25.003,35.01291,35.01291,0,0,0,17.09821,4.41962l10.51044.136h.056c.2.00574.40271.00934.60669.00934,14.501,0,26.30066-11.09759,26.30066-24.7395,0-12.07678-9.25042-22.15985-21.43683-24.31232ZM94.71124,179.56655H72.48254a22.21164,22.21164,0,1,1,22.2287-22.20569Zm63.27869-35.77771a26.85994,26.85994,0,0,0-2.3786-3.10767,24.0237,24.0237,0,0,1-3.90155-13.06634h-5.92957a29.52855,29.52855,0,0,0,.69318,6.34,27.01785,27.01785,0,0,0-11.04706-2.38233v5.9317a21.07649,21.07649,0,0,1,15.48657,6.80811,31.04111,31.04111,0,0,0,2.32862,3.05206,21.03918,21.03918,0,0,1-17.8313,32.196l-34.79712.00947V146.02834a33.5878,33.5878,0,0,1,33.55383-33.53912h2.96979v-2.96875A28.11078,28.11078,0,0,1,165.1084,81.43465a30.29185,30.29185,0,0,1,27.93133,18.81952,14.85429,14.85429,0,0,1-5.80389,9.572c-.684.075-1.36127.17444-2.02527.2995a27.10508,27.10508,0,0,0-8.25714,2.97339l-.4093.20679-.06134.06293a25.65217,25.65217,0,0,0-8.86908,8.58526,23.60756,23.60756,0,0,0-3.5586,12.435,23.86986,23.86986,0,0,0,7.54645,17.34918q.24207.23036.492.45667A27.72787,27.72787,0,0,1,157.98993,143.78884Zm52.73468-9.39978c0,10.37012-9.13178,18.80579-20.36084,18.81006l-.448-.00684c-.0293,0-.05731,0-.09064-.00158v.00158h-.03466v-.00158c-11.09974-.27344-19.81153-8.52948-19.81153-18.80164a18.43957,18.43957,0,0,1,9.80243-16.07867l.2-.11a21.41031,21.41031,0,0,1,8.55445-2.5426l.02-.00165c.58136-.04889,1.188-.0733,1.8-.0733C201.58618,115.58285,210.72461,124.019,210.72461,134.38906Z"/><path d="M188.55579,115.65615l-.02.00165a21.41031,21.41031,0,0,0-8.55445,2.5426l-.2.11a18.43957,18.43957,0,0,0-9.80243,16.07867c0,10.27216,8.71179,18.5282,19.81153,18.80164v.00158h.03466v-.00158c.03333.00158.06134.00158.09064.00158l.448.00684c11.22906-.00427,20.36084-8.43994,20.36084-18.81006s-9.13843-18.80621-20.36884-18.80621C189.74377,115.58285,189.13715,115.60726,188.55579,115.65615Zm13.23169,18.73291c0,5.99262-5.12787,10.866-11.43171,10.866s-11.43176-4.87335-11.43176-10.866c0-5.99042,5.12793-10.86426,11.43176-10.86426S201.78748,128.39864,201.78748,134.38906Z"/><path d="M72.49042,135.14327a22.21164,22.21164,0,1,0-.00788,44.42328h22.2287V157.36086A22.248,22.248,0,0,0,72.49042,135.14327Z"/><path d="M164.05511,134.38906a23.60756,23.60756,0,0,1,3.5586-12.435,25.65217,25.65217,0,0,1,8.86908-8.58526l.06134-.06293.4093-.20679a27.10508,27.10508,0,0,1,8.25714-2.97339c.664-.12506,1.34131-.22454,2.02527-.2995a14.85429,14.85429,0,0,0,5.80389-9.572A30.29185,30.29185,0,0,0,165.1084,81.43465a28.11078,28.11078,0,0,0-27.97168,28.08582v2.96875h-2.96979a33.5878,33.5878,0,0,0-33.55383,33.53912v33.54145l34.79712-.00947a21.03918,21.03918,0,0,0,17.8313-32.196,31.04111,31.04111,0,0,1-2.32862-3.05206,21.07649,21.07649,0,0,0-15.48657-6.80811v-5.9317a27.01785,27.01785,0,0,1,11.04706,2.38233,29.52855,29.52855,0,0,1-.69318-6.34h5.92957a24.0237,24.0237,0,0,0,3.90155,13.06634,26.85994,26.85994,0,0,1,2.3786,3.10767,27.72787,27.72787,0,0,0,14.10364,8.40607q-.25-.22659-.492-.45667A23.86986,23.86986,0,0,1,164.05511,134.38906Z"/><path d="M130.49725,20.50545A109.99726,109.99726,0,1,0,240.49451,130.50222,109.99725,109.99725,0,0,0,130.49725,20.50545Zm86.15918,113.88361c0,13.64191-11.79968,24.7395-26.30066,24.7395-.204,0-.40667-.0036-.60669-.00934h-.056l-10.51044-.136a35.01291,35.01291,0,0,1-17.09821-4.41962,26.98041,26.98041,0,0,1-9.82934,25.003h15.16656v5.93476H72.4826a28.143,28.143,0,1,1,22.58686-44.91285,39.54422,39.54422,0,0,1,36.25287-33.93182,34.0599,34.0599,0,0,1,33.77673-31.15259,36.07583,36.07583,0,0,1,33.75519,23.33814l.24927.66662-.07734.70795a20.71443,20.71443,0,0,1-3.80651,9.85992h-.00007C207.406,112.22921,216.65643,122.31228,216.65643,134.38906Z"/><path d="M184.85321,134.38906a5.53452,5.53452,0,1,0,5.50256-4.93414A5.24836,5.24836,0,0,0,184.85321,134.38906Z"/><path d="M706.78821,57.79391,641.64978,203.00613h17.63556l16.17828-36.7204v-.00006h79.246l16.1809,36.72046h18.04486L724.00775,57.79391Zm-24.27008,92.51928,32.36053-73.64111,32.77918,73.64111Z"/><path d="M823.57593,73.76546h51.85736V159.026c0,18.04633-8.91974,27.58985-24.89136,27.58985-11.20105,0-22.61011-5.80921-31.7392-16.80371L810.507,183.08938c10.16241,13.068,24.062,20.74481,40.24029,20.74481,25.93134,0,41.48963-16.18237,41.48963-44.39209V57.79391h-68.661Z"/><path d="M964.62708,93.26766c0-12.23968,12.241-19.29419,30.90991-19.29419a75.03926,75.03926,0,0,1,40.03625,12.23841l7.05457-15.55561h.00012c-12.03174-8.09179-29.24866-13.485-46.05225-13.485-30.07788,0-50.19873,14.73034-50.19873,37.5484,0,52.06817,81.73,31.7384,81.52466,69.90521,0,13.90216-13.069,22.40716-34.02185,22.40716-16.38892,0-34.84979-7.469-48.33612-20.53692l-7.46918,14.93561a82.89562,82.89562,0,0,0,55.59729,22.19568c31.1178,0,52.48133-15.55842,52.48133-39.82862C1046.36243,111.10738,964.62708,130.60433,964.62708,93.26766Z"/><path d="M539.38971,57.37789c-42.52557,0-76.13275,31.94721-76.13275,73.02075,0,40.8656,33.60718,73.43561,76.13275,73.43561,42.31628,0,75.92212-32.57,75.92212-73.43561S581.706,57.37789,539.38971,57.37789Zm0,130.48486c-32.36054,0-59.32916-25.51812-59.32916-57.46411,0-31.94708,26.96862-57.25311,59.32916-57.25311,32.36188,0,58.91186,25.306,58.91186,57.25311C598.30157,162.34463,571.75159,187.86275,539.38971,187.86275Z"/><path d="M340.66266,93.26766c0-12.23968,12.241-19.29419,30.91125-19.29419a75.03589,75.03589,0,0,1,40.035,12.23834l7.05316-15.55554c-12.03168-8.09179-29.2486-13.485-46.05219-13.485-30.07922,0-50.20007,14.73034-50.20007,37.5484,0,52.06817,81.73,31.7384,81.52466,69.90521,0,13.90216-13.069,22.40716-34.02185,22.40716-16.38623,0-34.84711-7.469-48.33478-20.53692l-7.46649,14.93561a82.88347,82.88347,0,0,0,55.5946,22.19568c31.11524,0,52.484-15.55842,52.484-39.82862C422.39532,111.10738,340.66266,130.60433,340.66266,93.26766Z"/></svg>