<svg id="Layer_1" data-name="Layer 1" xmlns="http://www.w3.org/2000/svg" viewBox="0 0 1066 260"><defs><style>.cls-1{fill:#fff;}</style></defs><path class="cls-1" d="M130.49723,20.5055A109.99726,109.99726,0,1,0,240.49448,130.50221,109.99724,109.99724,0,0,0,130.49723,20.5055Zm86.15918,113.88355c0,13.6419-11.79968,24.7395-26.30066,24.7395-.204,0-.40668-.00354-.60663-.00928h-.056l-10.51038-.13605a35.01312,35.01312,0,0,1-17.09826-4.41961,26.97958,26.97958,0,0,1-9.82935,25.003h15.16657v5.93475H72.48258a28.143,28.143,0,1,1,22.58691-44.91284,39.54416,39.54416,0,0,1,36.25281-33.93182A34.05989,34.05989,0,0,1,165.099,75.50416a36.07551,36.07551,0,0,1,33.75518,23.33807l.24933.66663-.07733.708a20.71534,20.71534,0,0,1-3.80658,9.85986C207.406,112.2292,216.65641,122.31226,216.65641,134.38905Z"/><path class="cls-1" d="M188.55582,115.6562l-.02.00158a21.4101,21.4101,0,0,0-8.55444,2.54261l-.2.11a18.43956,18.43956,0,0,0-9.80243,16.07868c0,10.27215,8.71179,18.52819,19.81152,18.80163v.00165h.03467v-.00165c.03332.00165.06134.00165.09064.00165l.448.00677c11.22907-.00427,20.36084-8.43994,20.36084-18.81s-9.13842-18.80622-20.36883-18.80622C189.74375,115.58283,189.13712,115.60725,188.55582,115.6562Zm13.23163,18.73285c0,5.99261-5.12787,10.866-11.4317,10.866s-11.4317-4.87335-11.4317-10.866c0-5.99042,5.12787-10.86426,11.4317-10.86426S201.78745,128.39863,201.78745,134.38905Z"/><path class="cls-1" d="M184.85319,134.38905a5.53455,5.53455,0,1,0,5.50256-4.93415A5.24835,5.24835,0,0,0,184.85319,134.38905Z"/><path class="cls-1" d="M164.05509,134.38905a23.60777,23.60777,0,0,1,3.55859-12.435,25.65344,25.65344,0,0,1,8.86908-8.58527l.06134-.06292.40931-.20679a27.105,27.105,0,0,1,8.25714-2.97339c.664-.12506,1.3413-.22455,2.02526-.2995a14.85386,14.85386,0,0,0,5.8039-9.572,30.29177,30.29177,0,0,0-27.93134-18.81952,28.11081,28.11081,0,0,0-27.97168,28.08581v2.96875h-2.96978a33.58783,33.58783,0,0,0-33.55384,33.53919v33.54138l34.79712-.00946a21.03918,21.03918,0,0,0,17.8313-32.196,31.04371,31.04371,0,0,1-2.32861-3.05207,21.07662,21.07662,0,0,0-15.48657-6.8081v-5.9317a27.01682,27.01682,0,0,1,11.04705,2.38238,29.53344,29.53344,0,0,1-.69317-6.34h5.92962a24.02364,24.02364,0,0,0,3.90149,13.06634,26.85883,26.85883,0,0,1,2.3786,3.10767,27.728,27.728,0,0,0,14.10364,8.40606q-.24993-.22659-.49194-.45666A23.86967,23.86967,0,0,1,164.05509,134.38905Z"/><path class="cls-1" d="M72.49045,135.14332a22.21164,22.21164,0,1,0-.00787,44.42328H94.71122V157.36085A22.24792,22.24792,0,0,0,72.49045,135.14332Z"/><path class="cls-1" d="M340.66263,93.26765c0-12.23969,12.241-19.29419,30.91126-19.29419a75.03535,75.03535,0,0,1,40.035,12.2384l7.05316-15.5556c-12.03167-8.0918-29.24859-13.485-46.05218-13.485-30.07923,0-50.20007,14.73029-50.20007,37.54834,0,52.06818,81.73,31.73847,81.52465,69.90521,0,13.90223-13.069,22.40717-34.02185,22.40717-16.38623,0-34.8471-7.469-48.33478-20.53693l-7.46649,14.93561a82.8835,82.8835,0,0,0,55.59461,22.19568c31.11523,0,52.484-15.55835,52.484-39.82855C422.3953,111.10737,340.66263,130.60432,340.66263,93.26765Z"/><path class="cls-1" d="M539.38968,57.37794c-42.52557,0-76.13275,31.94714-76.13275,73.02069,0,40.8656,33.60718,73.43561,76.13275,73.43561,42.31629,0,75.92212-32.57,75.92212-73.43561S581.706,57.37794,539.38968,57.37794Zm0,130.48486c-32.36053,0-59.32916-25.51819-59.32916-57.46417,0-31.94708,26.96863-57.25311,59.32916-57.25311,32.36188,0,58.91187,25.306,58.91187,57.25311C598.30155,162.34461,571.75156,187.8628,539.38968,187.8628Z"/><path class="cls-1" d="M964.62705,93.26765c0-12.23969,12.241-19.29413,30.90991-19.29413a75.03948,75.03948,0,0,1,40.03632,12.23834l7.0545-15.5556c-12.03161-8.0918-29.24853-13.485-46.05212-13.485-30.07788,0-50.19873,14.73029-50.19873,37.54834,0,52.06818,81.73,31.73847,81.52466,69.90521,0,13.90223-13.069,22.40717-34.02185,22.40717-16.38892,0-34.8498-7.469-48.33612-20.53693l-7.46918,14.93561a82.8956,82.8956,0,0,0,55.59729,22.19568c31.11786,0,52.48132-15.55835,52.48132-39.82855C1046.3624,111.10737,964.62705,130.60432,964.62705,93.26765Z"/><path class="cls-1" d="M706.78818,57.79389,641.64976,203.00611h17.63555l16.17829-36.7204h79.246l16.18091,36.7204H788.9354L724.00773,57.79389ZM682.5181,150.31318l32.36054-73.64111,32.77917,73.64111Z"/><path class="cls-1" d="M823.5759,73.76551h51.85736V159.026c0,18.04632-8.91974,27.58984-24.89135,27.58984-11.20105,0-22.61011-5.8092-31.7392-16.80371l-8.29578,13.27728c10.16242,13.06794,24.062,20.74482,40.2403,20.74482,25.93133,0,41.48962-16.18244,41.48962-44.39209V57.79389H823.5759Z"/></svg>