<?xml version="1.0" encoding="UTF-8"?><svg id="a" xmlns="http://www.w3.org/2000/svg" viewBox="0 0 1314.63265 406.78076"><defs><style>.b,.c,.d{fill:#fff;}.c{opacity:.8;}.c,.d{isolation:isolate;}.d{opacity:.6;}</style></defs><path class="b" d="M135.05684,267.87937h0c-7.30005-2-7.30005-2.1-4.5-9.3,9.1001-24,22.69995-45.1,40-64,23-25.3,50.69995-43.4,83-54.5,18.1001-6.3,36.8999-9.8,56.1001-11.1,4.19995-.3,5.3999,.8,4.3999,5-2.3999,10-2.8999,20.4-6.3999,30.1,.30005,.1,.6001,.1,.8999,.2h0c8-1.8,16.1001-2.2,24.19995-2.3,3.30005,0,4.69995-1,5.5-4.5,4.6001-21.6,9.3999-43.1,14.19995-64.7,3.1001-13.9,6.1001-27.8,9.30005-42.2-1.6001,.3-2.6001,.5-3.6001,.7-32.3999,9.5-64,21.1-93.8999,36.8-39.3999,20.6-74.3999,46.6-100.8999,82.9-19.8999,27.3-32.80005,57.4-36.30005,91.2-.3999,4-2.3999,2.8-4.3999,2.3-15.69995-4-31.19995-9.1-46.5-14.4-2.80005-1-3.8999-.8-4.69995,2.2-3.30005,11.6-4.5,23.3-1.8999,35.3,6.80005,30.89999,35.5,55.3,68.6001,59.09999,31.30005,3.60001,62.19995,1.7,92.8999-4.7,45.5-9.60001,87.5-27.60001,126.69995-52.3,1-.60001,2.30005-1,2.30005-1.3-10.8999,0-22-.2-33,0-45.3999,.8-90.6001-2.39999-135.5-9.4-17.1001-2.7-34.1001-5.7-50.80005-10.1h0c-2.00024-.29999-3.90015-.69999-5.7002-.99999h0Z"/><path class="b" d="M769.85688,193.27937c-5.69995,.2-11.3999,.3-17.1001,0-3.30005-.2-4.19995,1.3-4.3999,4.1-.30005,2.9-.1001,6-1.5,9.2-5.30005-7.3-11.30005-12.4-19.69995-14.4-18.3999-4.3-38.5,5-48.5,23-7.8999,14.3-10.80005,29.8-8.3999,46,2,13.8,8.19995,25.2,22.1001,29.99999,14.5,4.89999,28,2.2,39.3999-8.5,1.5-1.4,2.5-3.2,3.69995-4.8,.3999,.3,.8999,.7,1.30005,1-1.1001,7.60001-2,15.2-5.80005,22.10001-7.69995,13.7-23.5,15.5-34.1001,3.89999-.69995-.8-1.30005-1.5-2.5-1.60001-9.1001-1-18.19995-2.10001-28-3.3,2.6001,10.89999,7.69995,19.39999,16.30005,25.7,27.1001,19.60001,67.30005,5.7,76.8999-26.60001,2.69995-9.2,3.5-18.6,4.6001-28,3-24.7,6-49.3,9.1001-74,.3999-3.29997-.50024-3.89997-3.40015-3.79997h0Zm-41.80005,74.4c-6.5,4.5-13.6001,6.1-21,2.4-7.19995-3.5-9.80005-9.9-10.1001-17.4-.5-10.7,.6001-21.1,6.5-30.3,3.69995-5.8,8.8999-9.5,15.8999-10.6,11.5-1.7,20.5,4.8,22.30005,16.3,.3999,2.4,.30005,4.8,.5,7.4-.69995,12.39999-2.69995,24.39999-14.09985,32.2h0Z"/><path class="b" d="M876.65681,164.17937c-2.5-8.9-2.5-8.6-11.90002-8.9-13.80005-.4-23.1001,5.5-29.3999,17.9-17.30005,34.3-35,68.4-52.6001,102.6-2.8999,5.6-5.69995,11.3-9,17.60001,9.3999,0,17.69995-.10001,26,.10001,3,.10001,4.30005-1.2,5.3999-3.60001,3.8999-8.3,8-16.4,11.8999-24.7,1.1001-2.3,2.30005-3.3,5.1001-3.3,16.1001,.1,32.19995,.1,48.30005,0,2.80005,0,3.90002,1,4.5,3.6,1.90002,7.9,4.30005,15.6,6,23.50001,.80005,3.60001,2.40002,4.60001,6,4.5,6.90002-.3,13.90002-.3,20.80005,0,4.30005,.2,4.80005-.89999,3.69995-4.8-11.79993-41.50001-23.29993-83.00001-34.79993-124.50001Zm-46.49988,74.4c8.19995-16.8,16.19995-33.2,24.8999-51,4.3999,17.8,8.5,34.2,12.69995,51h-37.59985Z"/><path class="b" d="M497.35688,155.27937c-10.69995,.2-21.5,.1-32.19995,.1h-32.69995c-13.80005,.3-24.69995,8.7-27.1001,21.2-.80005,4.2-1.1001,8.6-1.69995,12.8-4.1001,33.59999-8.19995,67.2-12.3999,100.7-.30005,2.7,.3999,3.39999,2.8999,3.3,5.5-.10001,11.1001,0,16.6001,0,8.30005,0,8.1001,0,9.1001-8.10001,1.80005-15.4,3.80005-30.8,5.6001-46.3,.3999-3.3,1.3999-4.5,5-4.4,16.3999,.2,32.8999,0,49.30005,.2,2.8999,0,4.3999-.4,4.5-3.8,.19995-4.8,1-9.6,1.80005-14.4,.6001-3.8,.1001-5.5-4.5-5.4-15.8999,.3-31.8999,0-47.80005,.2-3.8999,.1-5.1001-.8-4.5-4.9,1.30005-7.8,2.19995-15.7,2.8999-23.6,.30005-3.2,1.30005-4.3,4.69995-4.3,17.30005,.2,34.6001,.1,51.8999,.1,7.1001,0,11.1001-3.6,12.1001-10.8,.30005-2.6,.30005-5.2,1-7.7,1.59961-4.69998-.80029-4.89998-4.50024-4.89998h0Z"/><path class="b" d="M652.25679,216.67937c.19995-12.7-5.5-20-17.80005-23.3-10.69995-2.8-21.5-2.7-32.5-1.4-15.6001,1.8-26.5,10-33.3999,23.8-1.3999,2.8-1.3999,4.1,2.3999,4.5,5.30005,.6,10.5,1.9,15.80005,2.9,2.3999,.5,3.8999,.2,5.5-2.3,5.80005-9.2,18.80005-12.6,28.80005-7.9,5.1001,2.4,4.80005,6.9,4.8999,11.5,.1001,4.6-3.3999,4.6-6.19995,5.3-8.69995,2-17.6001,3.7-26.30005,5.8-9.8999,2.4-20,4.6-27.1001,13-7.3999,8.8-10,18.8-6.3999,29.9,2.8999,9.1,9.8999,14.00001,18.80005,15.9,12,2.60001,23.3999,.39999,33.80005-6.10001,2.80005-1.7,5.3999-3.60001,8.3999-5.6,.6001,2.9,1.1001,5.4,1.5,7.9,.30005,1.89999,1.30005,2.60001,3.1001,2.60001,6.8999,0,13.8999-.10001,20.80005,0,2.19995,0,2.69995-.7,2.1001-2.8-3.8999-11.6-1.80005-23.2-.5-34.9,1.49976-12.7,4.09985-25.60001,4.2998-38.8Zm-31.59985,45.1c-2.69995,8.9-14.19995,16.2-23.6001,15.2-6.30005-.7-10.5-4.4-11.6001-10.1-.8999-5.1,1.80005-10.6,7.1001-13.2,3.1001-1.5,6.5-2.5,9.80005-3.3,6.80005-1.7,13.69995-3.1,20.8999-4.7-.59985,5.7-1.09985,11-2.59985,16.1Z"/><path class="d" d="M291.25679,219.97937c6.8999,1.1,6.80005,1.3,8-5.8,3-16.6,6.1001-33.2,9.1001-49.9h0c-.30005,0-.6001-.1-.8999-.2h-.1001c-23.19995,2.7-45.5,8.8-67.19995,17.3-29.1001,11.4-55.1001,27.9-77.1001,50.1-10.5,10.5-19.69995,22.1-27.19995,35-.30005,.4-.5,.9-.80005,1.3,1.80005,.3,3.69995,.6,5.5,1h0c.3999-.6,.80005-1.2,1.19995-1.6,41.69995-41.5,91.80005-56.3,149.5-47.2h0Z"/><path class="b" d="M1241.85688,238.87937c-17,.2-33.90002,.1-50.90002,.1-17.09998,0-34.30005,.1-51.40002-.1-3.30005,0-4.5,.7-4.40002,4.2,.19995,15.4,.19995,30.7,0,46.1,0,3.2,.90002,4.10001,4.09998,4.10001,29.09998-.10001,58.09998,0,87.19995-.10001,11.80005-.10001,19.40002-7.60001,19.69995-19.5,.30005-10.2-.09998-20.4,.09998-30.6,.10022-3.39999-1.09985-4.2-4.39978-4.2h0Zm-20.1001,42.3c-20.80005-.1-41.5-.1-62.30005,0-3.90002,0-3.40002-2.2-3.59998-4.6-.19995-2.8,.59998-3.9,3.69995-3.9,17,.1,33.90002-.2,50.90002,.2,5.5,.1,8.80005-1.3,10.19995-6.6,.5-1.8,2-3.2,1.80005-5.6h-61.20007c-5.19995,0-6.69995-2.2-5.40002-7.2,.5-1.9,1.80005-1.8,3.09998-1.8,20.90002,0,41.90002,0,62.80005-.1,2.90002,0,3.5,1.2,3.40002,3.7-.09998,7.4-.09998,14.8,0,22.3,.30017,2.8-.69983,3.6-3.3999,3.6h0Z"/><path class="b" d="M1021.95686,273.37937c9-27.3,18.09998-54.6,27.09998-81.9,3.19995-9.6-.5-14.5-10.69995-14.5h-29.59998c-11.5,0-11.40002,0-11.09998,11.5,.09998,2.9,.90002,3.8,3.80005,3.8,8.80005-.2,17.59998-.1,26.90002-.1-.59998,2-1.09998,3.6-1.59998,5.2-8.80005,26.6-17.69995,53.3-26.40002,79.9-2.90002,9,1.80005,15.8,11.09998,15.89999,29.90002,.2,59.90002,.10001,89.80005,.2,1.30005,0,2.90002,.39999,3.80005-1,2.59998-4.3,5-8.7,8-13.8h-92.59998c.49976-2.29999,.99976-3.69999,1.49976-5.19999h0Z"/><path class="b" d="M548.25679,155.27937c-5.69995,.2-11.5,.4-17.1001,0-4.8999-.4-6,1.6-6.5,6-2.80005,24.2-5.80005,48.3-8.80005,72.5-2.30005,18.5-4.5,37-6.80005,55.5-.3999,3.2,.30005,4.5,3.69995,4.2,3.1001-.3,6.19995-.10001,9.30005-.10001,3.30005,0,6.6001-.10001,9.8999,0,2.3999,.10001,3.3999-.8,3.5-3.2,0-1.89999,.5-3.8,.69995-5.60001,3-24.2,6-48.3,8.8999-72.5,2.19995-17.6,4.30005-35.3,6.6001-52.9,.30029-2.79999-.29956-3.99999-3.39966-3.89999h0Z"/><path class="b" d="M962.35688,193.27937c-6.19995,.1-12.40002,.2-18.69995,0-3.09998-.1-4.40002,.5-4.80005,4-3.5,29.8-7.30005,59.5-11,89.2-.80005,6.8-.69995,6.8,6.19995,6.8h6.19995c2.90002,0,5.90002-.3,8.80005,.10001,3.59998,.39999,4.59998-1,5-4.39999,3.59998-30.8,7.40002-61.6,11.30005-92.3,.59998-3.10001-.5-3.40001-3-3.40001h0Z"/><path class="b" d="M1247.15681,181.67937c0-2.8-.59998-3.9-3.69995-3.9-14.90002,.2-29.69995,.1-44.59998,0-2.90002,0-3.90002,.8-3.80005,3.8,.19995,7.9,.09998,15.9,.09998,23.8,0,8.1,.09998,16.2-.09998,24.3-.09998,2.9,.90002,3.9,3.80005,3.8,12.59998-.1,25.19995,0,37.80005-.1,6.59998-.1,10.30005-3.8,10.40002-10.3,.09985-13.8-.00012-27.59999,.09985-41.4h0Zm-27.69995,38.6c-4.30005,.2-5.59998-1-5.40002-5.3,.40002-6.9,.19995-13.8,.09998-20.6-.09998-2.7,.69995-3.5,3.5-3.6,10.40002-.3,10.40002-.5,10.40002,10v10.9c0,8.5,0,8.2-8.59998,8.6h0Z"/><path class="b" d="M1136.25679,234.87937c10-.1,20.59998,2.2,27.40002-8.4,1.40002-2.1,2.5-.4,3.59998,.6,2.59998,2.5,4.30005,6.9,7.69995,7.3,6.5,.8,13.19995,.2,20.69995,.2-6.69995-7.5-12.59998-14.1-18.5-20.7-.19995-.6-.5-1.2-.69995-1.8,12,4.5,13-4.2,16.19995-11.5-5.09998,0-9.59998-.2-14,.1-3.09998,.2-3.69995-1-3.69995-3.8,.09998-3.2,2.09998-2.3,3.90002-2.6,3-.5,6.90002,1.9,9-1.7,2-3.3,4-6.7,4.90002-11.2h-33.80005c-1.40002-1.9,3-4.7-1.19995-5.1-5-.5-10-.1-15-.1-1.19995,0-1.80005,.7-2.30005,1.7-3,6.3-6,12.7-9.09998,19.3h15.69995c1.5,0,3.19995,.3,4.09998-1.5,.90002-1.9,2.59998-1.8,4-1.2,1.80005,.8,.90002,2.7,.90002,4.2,0,2.5-2.09998,1.8-3.5,1.8-3.59998,.1-7.30005,0-10.90002,0-8.59998,0-8.40002,0-8.5,8.4,0,3.2,.80005,4.2,4.09998,4,5.19995-.3,10.5-.1,17-.1-7.5,8-14.09998,15-20.5,21.8,.40015,.40001,1.50012,.40001,2.50012,.30001h0Z"/><path class="b" d="M1090.65681,179.67937c-1.5,0-2.59998,.4-3.80005,1.3-13.5,11.8-27.09998,23.5-41.69995,36.2,9.90002,0,18.30005-.2,26.69995,.1,3.19995,.1,5.5-1,7.69995-3.2,10.80005-10.4,21.80005-20.7,32.59998-31,.90002-.8,2.40002-1.4,2.19995-3.4-7.89978,0-15.7998,.1-23.69983,0h0Z"/><path class="b" d="M1078.15681,229.57937h-26.80005c.09998,.8,0,1.2,.19995,1.4,10.09998,10.6,20.19995,21.2,30.30005,31.9,1.19995,1.2,2.40002,1.7,4.09998,1.7,8.59998-.1,17.19995,0,27.19995,0-11.19995-11.8-21.59998-22.7-31.90002-33.6-.7998-.9-1.7998-1.4-3.09985-1.4h0Z"/><path class="b" d="M967.55684,155.27937c-4,.1-8,0-11.90002,0q-11.40002,0-13,11.3c-.59998,4.1-2.59998,9.4-.90002,12,2.19995,3.2,8,.4,11.40002,1.1,4.30005,0,7.69995-.1,11.19995,0,2.30005,.1,3.5-.6,3.69995-3,.59998-6.2,1.40002-12.3,2.19995-18.5,.40015-2-.2998-2.9-2.69983-2.9h0Z"/><path class="c" d="M309.55684,128.97937c-19.19995,1.3-37.8999,4.8-56.1001,11.1-32.19995,11.1-59.8999,29.2-83,54.5-17.30005,19-30.8999,40.1-40,64-2.69995,7.2-2.69995,7.4,4.5,9.3h0c.30005-.4,.5-.9,.80005-1.3,7.5-12.9,16.80005-24.5,27.19995-35,22.1001-22.2,48-38.6,77.1001-50.1,21.69995-8.5,44-14.6,67.19995-17.3h.1001c3.5-9.8,4-20.2,6.3999-30.1,1.19995-4.40001,0-5.40001-4.19995-5.1h0Z"/></svg>