<svg id="Layer_1" data-name="Layer 1" xmlns="http://www.w3.org/2000/svg" viewBox="0 0 709.9819 232.69192"><defs><style>.cls-1,.cls-2{fill:#fff;}.cls-2{stroke:#020101;stroke-linecap:round;stroke-linejoin:round;stroke-width:0;}.cls-3{fill:#fdfcfc;}</style></defs><path class="cls-1" d="M308.21991,103.77938l24.75683,37.06445h-13.21l-19.48242-29.79394-7.27051,8.07812v21.71582H282.22772V75.981h10.78613v30.0791h.47559L319.71893,75.981H331.8371Z"/><path class="cls-1" d="M373.31952,92.46981a19.31037,19.31037,0,0,1,7.86426,7.79346,24.56426,24.56426,0,0,1,2.82714,12.11719v6.50976a25.21832,25.21832,0,0,1-2.82714,12.37842,18.963,18.963,0,0,1-7.86426,7.76953,26.74329,26.74329,0,0,1-23.25977,0,19.1759,19.1759,0,0,1-7.86426-7.74561,24.9043,24.9043,0,0,1-2.85156-12.355v-6.50976a24.08585,24.08585,0,0,1,2.85156-11.97461,20.05611,20.05611,0,0,1,7.91114-7.88818,23.58123,23.58123,0,0,1,11.61816-2.80372A24.10332,24.10332,0,0,1,373.31952,92.46981ZM355.3576,100.192a12.10741,12.10741,0,0,0-3.99121,5.22705,19.40717,19.40717,0,0,0-1.37793,7.53125v5.60742a20.32722,20.32722,0,0,0,1.30664,7.53174,11.39883,11.39883,0,0,0,3.94434,5.20312,10.87714,10.87714,0,0,0,6.5332,1.90088,10.56234,10.56234,0,0,0,6.46289-1.90088,11.60772,11.60772,0,0,0,3.87207-5.20312,20.34668,20.34668,0,0,0,1.30762-7.53174v-5.60742a19.722,19.722,0,0,0-1.35449-7.53125,12.02465,12.02465,0,0,0-3.94434-5.22705,10.33751,10.33751,0,0,0-6.34375-1.92481A10.51743,10.51743,0,0,0,355.3576,100.192Z"/><path class="cls-1" d="M397.55389,90.61678h10.35938v8.17334h.52246a15.41331,15.41331,0,0,1,2.06738-3.92041,11.745,11.745,0,0,1,4.22852-3.54,15.83091,15.83091,0,0,1,7.38965-1.47314,16.45741,16.45741,0,0,1,6.6289,1.23535,12.51043,12.51043,0,0,1,4.63281,3.374,13.41431,13.41431,0,0,1,2.61329,4.79932h.42773a15.27687,15.27687,0,0,1,2.89844-4.53809,14.53836,14.53836,0,0,1,5.01367-3.51611,18.07349,18.07349,0,0,1,7.3418-1.35449q7.69775,0,12.02148,4.18164,4.32421,4.18214,4.32422,11.59424v35.21142h-10.501V108.76864a11.95809,11.95809,0,0,0-1.14062-5.44043,7.97448,7.97448,0,0,0-3.25489-3.44531,10.392,10.392,0,0,0-5.15625-1.188,9.7685,9.7685,0,0,0-5.084,1.35449,9.66655,9.66655,0,0,0-3.61133,3.8252,12.04335,12.04335,0,0,0-1.33105,5.79736v31.17187H427.68085v-31.79a11.68216,11.68216,0,0,0-1.23536-5.583,8.73207,8.73207,0,0,0-3.39746-3.54053,10.03422,10.03422,0,0,0-5.06152-1.23535,9.74251,9.74251,0,0,0-5.084,1.33056,9.35955,9.35955,0,0,0-3.51661,3.75391,12.2363,12.2363,0,0,0-1.2832,5.79736v31.26709H397.55389Z"/><path class="cls-1" d="M502.85467,140.5826a14.03941,14.03941,0,0,1-4.89453-2.80371,12.58724,12.58724,0,0,1-3.18359-4.49072h-.52246V157.523H483.70526V90.61678h10.26367v7.98291h.52246a11.72517,11.72517,0,0,1,2.18653-3.61132,13.83992,13.83992,0,0,1,3.34961-2.75586,15.51072,15.51072,0,0,1,4.27636-1.71094,21.45608,21.45608,0,0,1,5.06153-.56983A18.74721,18.74721,0,0,1,519.48651,92.589a17.13316,17.13316,0,0,1,6.50977,7.55518,27.64521,27.64521,0,0,1,2.28125,11.71338v7.7456a27.39939,27.39939,0,0,1-2.30469,11.71338,17.28539,17.28539,0,0,1-6.60547,7.5791,19.06987,19.06987,0,0,1-10.24024,2.66113A19.31489,19.31489,0,0,1,502.85467,140.5826Zm9.48047-9.40869a10.91762,10.91762,0,0,0,3.89649-5.01318,20.78588,20.78588,0,0,0,1.35449-7.93555V113.378a21.11622,21.11622,0,0,0-1.35449-8.00683,10.73691,10.73691,0,0,0-3.96778-5.03662,11.17419,11.17419,0,0,0-6.32031-1.73487,11.47,11.47,0,0,0-6.22461,1.63965,10.69808,10.69808,0,0,0-4.03906,4.728,17.46012,17.46012,0,0,0-1.42578,7.36523V119.983a14.68967,14.68967,0,0,0,1.49707,6.748,11.0037,11.0037,0,0,0,4.18164,4.56152,11.78714,11.78714,0,0,0,6.20117,1.61573A10.741,10.741,0,0,0,512.33514,131.17391Z"/><path class="cls-1" d="M584.34881,140.84383H573.99042v-8.36328h-.57032a12.06965,12.06965,0,0,1-2.49511,4.13428,14.84186,14.84186,0,0,1-4.87012,3.54,17.27109,17.27109,0,0,1-7.46094,1.44922,21.79847,21.79847,0,0,1-8.8623-1.687,12.847,12.847,0,0,1-5.98731-5.32178,18.48878,18.48878,0,0,1-2.16211-9.52783V90.61678H552.132v31.69483a11.81767,11.81767,0,0,0,1.40136,6.24853,7.70369,7.70369,0,0,0,3.65918,3.18408,12.82179,12.82179,0,0,0,4.918.92627,12.01921,12.01921,0,0,0,5.96387-1.47314,11.24892,11.24892,0,0,0,4.18164-3.99121A10.602,10.602,0,0,0,573.8,121.55135V90.61678h10.54882Z"/><path class="cls-1" d="M603.54608,78.40438H613.8576V90.9493h11.21485v8.26856H613.8576v26.65771q0,4.08691,1.73438,5.53565,1.73438,1.45019,5.96387,1.4497,1.09277,0,2.30468-.07129,1.21143-.07177,1.8291-.11914v8.07813q-.61815.09594-2.77929.26172-2.16357.16552-3.96778.166a23.78629,23.78629,0,0,1-9.48046-1.5205,8.74667,8.74667,0,0,1-4.72754-4.728,21.567,21.567,0,0,1-1.33106-8.19678V99.21786h-7.65039V90.9493h7.793Z"/><path class="cls-1" d="M646.217,139.01424a18.51355,18.51355,0,0,1-7.69727-7.7456,25.40042,25.40042,0,0,1-2.709-12.14063V112.3326a24.325,24.325,0,0,1,2.85156-12.16455,19.66863,19.66863,0,0,1,7.72168-7.72168,22.40465,22.40465,0,0,1,11-2.68506,21.91957,21.91957,0,0,1,11.14356,2.77979,19.79409,19.79409,0,0,1,7.5791,7.81689,24.59534,24.59534,0,0,1,2.75586,11.97461v5.89258H646.26483v2.4707a13.30361,13.30361,0,0,0,3.06543,8.95752q3.06446,3.58813,8.624,3.58741a14.16316,14.16316,0,0,0,4.89453-.78418,9.31968,9.31968,0,0,0,3.44532-2.09082,6.07292,6.07292,0,0,0,1.68652-2.87451h10.31152a13.08864,13.08864,0,0,1-1.54394,4.65673,16.57945,16.57945,0,0,1-3.75391,4.63282,19.3418,19.3418,0,0,1-6.17773,3.54052,25.45359,25.45359,0,0,1-8.81446,1.37793A24.51807,24.51807,0,0,1,646.217,139.01424Zm22.334-27.67919v-.66553a14.98109,14.98109,0,0,0-1.37793-6.62891A10.4853,10.4853,0,0,0,663.3,99.6451a10.79453,10.79453,0,0,0-5.86817-1.56787,10.91488,10.91488,0,0,0-5.89258,1.56787,10.42519,10.42519,0,0,0-3.89648,4.39551,14.96755,14.96755,0,0,0-1.37793,6.62891v.66553Z"/><path class="cls-1" d="M35.16922,167.94541q65.15364.03916,130.30723-.002c2.85323-.00127,5.76881-.73109,7.64313-2.75365,2.32395-2.50766,4.89543-2.96615,7.95652-2.73425a34.38867,34.38867,0,0,0,4.35438.002,1.58454,1.58454,0,0,1,1.82566,1.30945c1.106,3.22775,2.49405,4.18007,5.86093,4.18288q17.32812.01455,34.65618.00587c5.07808-.001,6.78621-1.70146,6.78634-6.75018q.00114-49.19806.02382-98.39616a14.67861,14.67861,0,0,0-1.059-5.586q-8.61512-21.5252-17.1823-43.06965c-.96831-2.43541-2.493-4.164-5.19432-4.59739Q202.2353,9.536,193.3229,9.51507c-3.12375-.00833-5.68854,1.48313-6.22,4.635-.175,1.038-.82118,1.02825-1.57266,1.02719-2.44284-.00349-4.88751-.05594-7.3278.02348a3.89206,3.89206,0,0,1-3.141-1.27985,13.10162,13.10162,0,0,0-7.93381-4.09359,73.03782,73.03782,0,0,0-8.09583-.36087q-60.01469.03285-120.02943.01931c-1.51464.00021-3.02923.06257-4.54387.096-.76734.1578-1.54641.27273-2.30018.48005C25.35263,11.93372,21.15,17.57866,21.14725,24.93811q-.01818,49.19807-.00587,98.3962c0,9.85283-.04207,19.70592.01519,29.55845C21.20459,161.15852,27.49739,167.94077,35.16922,167.94541ZM36.5859,20.34069q63.85761-.00951,127.71522-.00013c3.04833.00043,4.22728,1.36406,4.2275,4.85209q.00363,60.1999.00051,120.39978c-.00005,2.44633.02462,4.893-.00668,7.33891-.03833,2.99066-1.22025,4.15268-4.25183,4.15387q-31.97827.01271-63.95661.00447-31.87926-.00415-63.75856-.00485c-3.4258-.00068-4.52146-1.073-4.52185-4.46319q-.00771-63.86922-.00085-127.73844C32.03305,21.6404,33.32362,20.34116,36.5859,20.34069Z"/><path class="cls-1" d="M247.5679,212.66879c-3.4947-.12752-7.00276-.14675-10.49478.01242-1.99218.09086-2.58631-.4675-2.56266-2.52234.11174-9.72118.0692-19.44441.0362-29.16674a5.06788,5.06788,0,0,0-4.671-5.251c-2.28921-.35193-5.04129,1.14135-5.54763,3.48862-.42735,1.98112-1.48333,2.0724-3.07513,2.06806-14.85536-.04074-29.71107.00638-44.56622-.06907-1.85811-.0094-2.4858.41982-2.46258,2.379.10345,8.72913.04581,17.46018.04607,26.19055.00008,2.83527-.00034,2.83629-2.74119,2.83638q-34.16748.00038-68.335.00106-34.2667.00141-68.53336.001c-2.63574,0-2.63451.00047-2.63383-2.71571q.00319-12.40111.00391-24.80215c0-1.25662.06559-2.51894-.02964-3.76867-.269-3.53013-2.5488-5.78038-5.64206-5.65558-2.928.11808-5.18722,2.58445-5.19742,5.89127q-.05583,18.155-.00864,36.31029a5.37442,5.37442,0,0,0,4.58046,5.39572c1.53229.33944,3.01009-.10178,4.5178-.101q102.48229.0513,204.96465.02914c4.22554,0,8.4513.01714,12.67654-.02076,2.86454-.02573,3.65442-.84619,3.66114-3.62532a24.70966,24.70966,0,0,1,.01982-2.9739C251.95014,213.57671,250.625,212.78036,247.5679,212.66879Z"/><path class="cls-1" d="M44.01984,143.96669q55.26175.0021,110.52356.003c1.0564,0,2.11426-.03437,3.16866.01123.95968.04147,1.48325-.23135,1.459-1.32042-.07066-3.16918-.08129-6.33967-.1154-9.51.04691-.72157.13432-1.44348.13492-2.16547q.01481-18.0517.01021-36.10336.00089-25.99306-.0066-51.98607c-.00034-.72153-.09234-1.443-.14164-2.16454q-48.62152-.00382-97.24306-.00723-.492-.00006-.97117.0467.47879-.04638.97117-.04674,48.62153.00261,97.2431.00727c.0359-2.77275-.03462-5.55247.14484-8.31586.12152-1.87172-.40724-2.46164-2.36224-2.45858q-56.351.088-112.70226.04581c-2.6779.00013-2.68109.00489-2.68113,2.66275q-.00116,54.36571-.00008,108.73146C41.45177,143.96422,41.455,143.96661,44.01984,143.96669Zm8.76422-17.32147a8.832,8.832,0,0,0,.72991,1.71655A8.832,8.832,0,0,1,52.78406,126.64522Zm58.59061-45.08685v-11.397h36.88142v11.397ZM136.8591,51.814h11.397V63.211h-11.397Zm-47.74922,0h36.88141V63.211H89.10988Zm0,18.34739h11.397v11.397h-11.397Z"/><path class="cls-2" d="M53.514,128.36177a8.832,8.832,0,0,1-.72991-1.71655"/><rect class="cls-3" x="135.22388" y="191.99383" width="11.39703" height="11.39703"/><rect class="cls-3" x="45.16328" y="191.99383" width="79.19895" height="11.39703"/></svg>