<svg id="Layer_1" data-name="Layer 1" xmlns="http://www.w3.org/2000/svg" viewBox="0 0 696.79999 171.03113"><defs><style>.cls-1{fill:#fff;}</style></defs><title>edl-horizontal-white</title><path class="cls-1" d="M43.69383,4.46c-2,2.2-2.2,7.3-.5,9,.7.7,2.8,1.2,4.8,1.2,4.4,0,6-1.5,6-5.5C53.99383,3.46,47.29383.46,43.69383,4.46Z"/><path class="cls-1" d="M89.09383,4.76c-2.5,2.7-2.6,4.7-.5,7.7,2.3,3.4,8.3,2.7,10.4-1.1,1.3-2.4,1.3-3,0-5.5a6.11425,6.11425,0,0,0-9.9-1.1Z"/><path class="cls-1" d="M281.99384,20.16c0,9.8-.1,10.7-1.7,10a62.72867,62.72867,0,0,0-6.9-1.8c-4.5-.9-5.7-.8-10.7,1.2-6.6,2.7-10.3,6.9-12.9,14.9-3.9,12-.4,27.8,7.4,33.4,4.7,3.3,15.9,3.3,20.5,0,3.8-2.7,4.3-2.7,4.3-.1,0,1.8.5,2,4.3,1.7l4.2-.3v-69l-4.2-.3-4.3-.3Zm-1.7,17.7c1.5.8,1.7,2.6,1.7,15.3v14.5l-3.2,2c-12.6,7.7-21.8,1.7-21.8-14.3,0-9.5,3.5-16,10-18.6,2.7-1,10.4-.4,13.3,1.1Z"/><path class="cls-1" d="M333.69385,10.26c-.4.4-.7,5.2-.7,10.7,0,9-.2,9.9-1.7,9.2a50.338,50.338,0,0,0-6.8-1.7c-4.3-1-5.8-.8-9.8.7a24.08556,24.08556,0,0,0-13.3,13.1c-2.2,5.9-1.6,23.4,1,28.7,4.5,9.2,15.9,12.5,25.2,7.3,2.5-1.4,4.8-2.6,4.9-2.6.2,0,.5.9.8,2.1.5,1.7,1.2,2,4.4,1.7l3.8-.3v-69l-3.5-.3C335.99384,9.66,334.09384,9.86,333.69385,10.26Zm-2.4,27.6c1.6.8,1.7,2.4,1.5,15.6l-.3,14.7-4.3,2.3c-7.5,4.2-14.1,3-17.8-3.1-2.6-4.4-2.7-18.6-.1-23.9C313.69385,36.76,323.89383,33.96,331.29385,37.86Z"/><path class="cls-1" d="M353.99384,44.66v35h8v-70h-8Z"/><path class="cls-1" d="M550.99384,20.26c0,9.7-.1,10.6-1.7,9.9a62.72869,62.72869,0,0,0-6.9-1.8c-4.4-.9-5.9-.8-9.8.7-9.9,3.8-14.5,10.8-15.3,23.6-1.5,21.6,12.2,34,28.1,25.5,4.7-2.5,4.8-2.5,5.3-.5.4,1.6,1.4,2,4.4,2h3.9v-70h-8Zm-2.2,18c2.1,1.4,2.2,2,2.2,14.9,0,14.5-.2,15-6.1,18.1-6,3.1-12.7,1.9-16-2.8-4.3-6-3.6-22.1,1.2-28.2C533.59381,35.76,543.09381,34.76,548.79382,38.26Z"/><path class="cls-1" d="M601.99384,20.26c0,9.7-.2,10.6-1.7,9.9-11.7-4.5-21.1-2.1-27.2,6.9-9.2,13.7-5.6,37.2,6.6,42.2,5.1,2.2,11.4,1.7,16.7-1.1,5.7-3,5.6-3,5.6-.5,0,1.7.7,2,4,2h4v-70h-8Zm-2.2,17.5c2.2.9,2.2,1.1,2,15.6l-.3,14.8-4.2,2.3c-8.2,4.5-15.8,2.7-18.8-4.4-2.2-5.4-2-17.5.4-22.3,2.3-4.4,4-5.9,7.8-7.1C589.59381,35.76,595.79382,36.26,599.79382,37.76Z"/><path class="cls-1" d="M622.99384,9.86c0,.2,0,15.8-.1,34.8v34.5h7.6v-69l-3.7-.3C624.69385,9.66,622.99384,9.66,622.99384,9.86Z"/><path class="cls-1" d="M155.49384,13.96c-.3.7-.4,15.6-.3,33.2l.3,32,4.3.3,4.2.3V54.66h7.8c16.7-.1,25.2-7.5,25.2-21.6,0-10.2-4.7-16.4-14.6-19.2C176.59383,12.16,156.09383,12.26,155.49384,13.96Zm29.3,11.1c3.2,3.6,3.4,4.2,3,9.2-.3,3.9-1.1,6.1-2.8,7.9-2.9,3-11.4,5.7-16.7,5.3l-3.8-.3-.3-13.4-.3-13.4,8.7.5c8.6.4,8.8.5,12.2,4.2Z"/><path class="cls-1" d="M423.99384,46.26v33.5l4.3-.3,4.2-.3.1-11c.1-6.1.2-11.5.3-12.1,0-.7,3.5-1.3,9.4-1.6,9.9-.6,13.4-1.8,17.9-6.5,5.8-6,7.7-17.7,3.9-23.8-5.5-9-11.8-11.5-28.8-11.5h-11.3Zm25.5-24.2c6.8,2.9,9.5,11.8,5.6,18.2-3.3,5.4-19.1,9.8-21.8,6.1-.5-.6-.7-6.6-.5-13.5l.4-12.2h6.4C443.19385,20.66,447.59384,21.26,449.49384,22.06Z"/><path class="cls-1" d="M47.79383,18.16c-.2.3-7.1,2.8-15.3,5.5-12.8,4.4-15,4.9-15.7,3.5-1.7-3-2.8-1.4-2.5,3.6.4,5.2,1.5,6.8,5.2,7,1.8,0,9.8,8.9,11.1,12.3.9,2.5-2.3,2.5-7.2,0-4.3-2.2-5-2.3-6.3-.9-2.1,2.1-.6,4.3,4.9,7.2a20.20954,20.20954,0,0,0,9.5,2.3c6,0,6.2.2,12.4,10.8,4.7,8.1,11.9,16.2,14.3,16.2,2.5,0,4.1-2.7,3.4-5.6-.4-1.4-4.5-6.5-9.1-11.3-4.7-4.9-8.5-9.1-8.5-9.5,0-.3,8.8-.6,19.5-.6h19.6l1.7,3.1c4.1,7.5,13.7,21.2,15.8,22.6,3.6,2.3,6.4.9,6.4-3.2,0-2.9-1.3-4.7-8.5-12.3-4.7-4.9-8.5-9.2-8.5-9.6,0-.3.9-.6,2-.6,1.2,0,4.3-1.1,7-2.5,3.9-2,5-3.1,5-5,0-3.5-1.3-3.8-6.4-1.3-2.5,1.2-4.9,1.9-5.3,1.5-.3-.4,1.5-7.1,4.1-14.8,4-11.7,4.6-14.5,3.7-16.5-1.2-2.8-3.7-3-9.6-1-2.2.8-9.1,3.3-15.4,5.5-10.5,3.8-11.6,4-13.2,2.5-1.9-1.7-3.6-.3-2.2,1.8a10.91132,10.91132,0,0,1,.8,4.3c0,2.6.4,3.1,3.1,3.5,2.4.4,4.3,2,8.3,7.2,2.8,3.7,5.1,7.2,5.1,7.8,0,1.4-29.6,1.4-30.5,0-.4-.6,1.4-7.4,4-15.1,4.4-13.3,4.5-14.2,3-16.5C52.09383,17.86,49.09383,16.86,47.79383,18.16Zm-4.8,12.2c0,2.3-6.7,20.3-7.5,20.3-.6,0-1.6-1-2.4-2.3-.8-1.2-3.2-4.3-5.4-7-2.2-2.6-3.7-5-3.4-5.4.8-.7,15.6-6,17.5-6.2C42.39383,29.76,42.99383,29.96,42.99383,30.36Zm46,0c0,2.4-6.6,20.3-7.5,20.3-1.5,0-11.8-13.8-11.1-14.9a8.02524,8.02524,0,0,1,3.8-1.6,49.37089,49.37089,0,0,0,7.2-2.6C85.79383,29.66,88.99383,29.16,88.99384,30.36Z"/><path class="cls-1" d="M387.09384,29.06c-4.9,1.8-11.1,7.4-13.2,12-1.4,3-1.9,6.5-1.9,13.4,0,13.3,2.7,18.8,11.5,23.5,3.3,1.8,5.5,2.2,13.5,2.1,6.5-.1,10.7-.6,13.3-1.8,3.3-1.5,3.7-2,3.7-5.4,0-2.1-.2-4.1-.5-4.4s-2.9.7-5.8,2.1c-6.5,3.3-15.5,3.6-20.4.7-3.8-2.3-7.3-8.3-7.3-12.5v-3.1l17.3-.2,17.2-.3-.3-6.4c-.2-7.5-2.9-13.7-6.9-16.7A21.87406,21.87406,0,0,0,387.09384,29.06Zm13.8,7.2c2.5,1.8,5.1,7.1,5.1,10.4,0,1.9-.6,2-12.4,2-7.4,0-12.7-.4-13.1-1-1.1-1.8,2.8-8.4,6.4-10.7C390.99384,34.26,397.49384,33.96,400.89383,36.26Z"/><path class="cls-1" d="M655.19385,29.36c-8.7,3.1-14.2,11.8-15,23.8-.8,12.9,5.8,23.8,16,26.6,5.3,1.4,17.1.6,22.1-1.5,3.5-1.4,3.7-1.8,3.7-6v-4.5l-4.5,2.4a32.56788,32.56788,0,0,1-9.9,3c-10.2,1.3-18.6-4.9-18.6-13.8v-3.7h16.9c10.5,0,17.2-.4,17.6-1s.1-4.5-.6-8.7c-1.1-6.8-1.7-8.1-5.3-11.8C671.49384,27.86,663.99384,26.26,655.19385,29.36Zm13.7,6.8c3,1.5,6.4,7.5,5.9,10.3-.3,1.5-2,1.7-13.1,2-14.1.3-14.1.3-11.1-6.1C653.69385,35.86,662.59381,32.86,668.89386,36.16Z"/><path class="cls-1" d="M204.79382,30.76c-1.7,1-2.6,6.8-1.2,8.2.3.3,2.5-.1,4.7-1,5.5-2,15.9-2,19.1,0,2.6,1.7,4.3,6.4,2.8,7.9-.5.5-4.5,1.3-9,1.7-14.9,1.5-21.4,6.8-21.6,17.6,0,4.3.5,5.9,2.8,9,5.2,6.8,14.4,8.5,22.9,4.2,4.3-2.2,4.6-2.3,5-.5.4,1.4,1.5,1.8,4.6,1.8h4.1V60.36c0-21.6-.7-24.3-6.9-28.4-3-2.1-4.6-2.3-14.5-2.3C211.49384,29.66,205.69383,30.16,204.79382,30.76Zm26.8,27.6a18.53679,18.53679,0,0,1-.2,7.2c-1.2,3.4-6.6,6.9-12.1,7.7-6.4.9-9.7-1.6-10.1-7.9-.3-4,.1-5.1,2.4-7.2,2.8-2.6,8.3-4.2,15.1-4.4l4.2-.1Z"/><path class="cls-1" d="M473.79385,30.76c-1.7,1-2.6,6.8-1.2,8.1.3.4,2.2-.1,4.2-.9,5-2.1,16.3-2.1,19.5,0,2.7,1.7,4.4,6.4,2.9,7.9-.5.5-3.8,1.2-7.3,1.4-8.4.6-13.6,2.2-17.8,5.2-8.9,6.5-7.8,20.6,2.1,26.2,4.9,2.7,12.4,2.4,18.5-.8,4.1-2.1,4.1-2.1,4.6-.1.4,1.7,1.2,2,4.2,1.7l3.7-.3-.2-19.9c-.1-22-.6-24.2-6.3-27.6-2.7-1.7-5-2-14.2-2C480.49384,29.66,474.69385,30.16,473.79385,30.76Zm26.2,29.9c0,7,0,7-3.7,9.4-9.2,6-19.2,3.5-19.3-4.9,0-7.1,6.5-11.1,18.8-11.4l4.2-.1Z"/><path class="cls-1" d="M33.841,136.25128H15.667v14.8622H36.77858V155.635H10.13692v-41.9355h26.3539V118.221H15.667v13.50868H33.841Z"/><path class="cls-1" d="M47.14189,155.635H41.81347V111.39567h5.32842Z"/><path class="cls-1" d="M73.43184,155.635a11.18286,11.18286,0,0,1-.74915-3.28346,11.88867,11.88867,0,0,1-8.87079,3.85988,10.997,10.997,0,0,1-7.56032-2.6067,8.432,8.432,0,0,1-2.95219-6.61045,8.808,8.808,0,0,1,3.7009-7.55989q3.70023-2.69373,10.4117-2.69374h5.18454v-2.44772a5.98512,5.98512,0,0,0-1.67059-4.4496,6.7146,6.7146,0,0,0-4.92521-1.65639,7.77385,7.77385,0,0,0-4.78088,1.43968,4.245,4.245,0,0,0-1.92993,3.48508H53.93264a7.353,7.353,0,0,1,1.65639-4.50733,11.29893,11.29893,0,0,1,4.49312-3.44155,15.11665,15.11665,0,0,1,6.23566-1.26738q5.38548,0,8.4387,2.69284a9.71789,9.71789,0,0,1,3.16845,7.4169v14.34263a17.52659,17.52659,0,0,0,1.0942,6.82627v.46095Zm-8.84236-4.06147a9.36406,9.36406,0,0,0,4.75245-1.29581,7.84128,7.84128,0,0,0,3.2546-3.36961v-6.39376H68.42005q-9.79247,0-9.79268,5.73119a4.84933,4.84933,0,0,0,1.6706,3.91672,6.4171,6.4171,0,0,0,4.29151,1.4113Z"/><path class="cls-1" d="M102.948,147.36906a3.92269,3.92269,0,0,0-1.62708-3.35539,15.6791,15.6791,0,0,0-5.67435-2.05961,26.80036,26.80036,0,0,1-6.42262-2.07383A9.13828,9.13828,0,0,1,85.71,137a6.88593,6.88593,0,0,1-1.13771-3.97444,8.087,8.087,0,0,1,3.24039-6.48079,12.65852,12.65852,0,0,1,8.28061-2.64933,13.02221,13.02221,0,0,1,8.59723,2.73637,8.69066,8.69066,0,0,1,3.29768,6.99856h-5.35684a4.81009,4.81009,0,0,0-1.858-3.77283,6.96093,6.96093,0,0,0-4.68007-1.58445,7.28626,7.28626,0,0,0-4.55086,1.26738,3.99,3.99,0,0,0-1.64173,3.31189,3.23151,3.23151,0,0,0,1.52672,2.90956,18.77046,18.77046,0,0,0,5.51537,1.8722,28.77055,28.77055,0,0,1,6.46615,2.13065,9.43534,9.43534,0,0,1,3.672,2.98151,7.32974,7.32974,0,0,1,1.19544,4.248,7.97583,7.97583,0,0,1-3.3412,6.69659,14.01258,14.01258,0,0,1-8.66916,2.52056,15.69981,15.69981,0,0,1-6.62468-1.32511,10.77106,10.77106,0,0,1-4.50733-3.7009,8.92082,8.92082,0,0,1-1.627-5.14141h5.328a5.515,5.515,0,0,0,2.14575,4.248,8.32105,8.32105,0,0,0,5.28535,1.57023,8.59332,8.59332,0,0,0,4.85326-1.22387A3.76221,3.76221,0,0,0,102.948,147.36906Z"/><path class="cls-1" d="M120.97242,116.92526v7.54656h5.81779v4.11833h-5.81779v19.35A4.32409,4.32409,0,0,0,121.75,150.752a3.27075,3.27075,0,0,0,2.64978.937,12.93161,12.93161,0,0,0,2.53432-.34549v4.29506a15.52548,15.52548,0,0,1-4.0899.57286,6.63465,6.63465,0,0,1-5.38571-2.16086,9.27913,9.27913,0,0,1-1.81449-6.13442v-19.326h-5.67391v-4.11832H115.644v-7.54656Z"/><path class="cls-1" d="M131.56577,116.205a3.17675,3.17675,0,0,1,.79223-2.18839,2.974,2.974,0,0,1,2.34737-.89347,3.02072,3.02072,0,0,1,2.36159.89347,3.1971,3.1971,0,1,1-5.50118,2.32679q-.00151-.0692,0-.1384Zm5.76049,39.43h-5.32841v-31.1632h5.32841Z"/><path class="cls-1" d="M156.87654,151.86218a7.67628,7.67628,0,0,0,4.98248-1.72833,6.08153,6.08153,0,0,0,2.362-4.32h5.04023a9.66749,9.66749,0,0,1-1.84334,5.09795,12.14623,12.14623,0,0,1-4.5362,3.859,13.09079,13.09079,0,0,1-6.00517,1.44057,12.83744,12.83744,0,0,1-10.124-4.24889q-3.75886-4.2471-3.75862-11.62136v-.8926a18.76155,18.76155,0,0,1,1.67059-8.09364,12.72468,12.72468,0,0,1,4.79553-5.50117,13.622,13.622,0,0,1,7.38758-1.95835,12.502,12.502,0,0,1,8.7127,3.13958,11.22,11.22,0,0,1,3.7009,8.15051H164.221a7.346,7.346,0,0,0-2.29008-4.96828,7.1233,7.1233,0,0,0-5.08328-1.94414,7.459,7.459,0,0,0-6.2934,2.92377q-2.23212,2.92289-2.2319,8.45335v1.008q0,5.38614,2.21769,8.29437A7.49223,7.49223,0,0,0,156.87654,151.86218Z"/><path class="cls-1" d="M187.74043,155.635v-41.9355h11.83763a19.05627,19.05627,0,0,1,9.67722,2.41931,16.3648,16.3648,0,0,1,6.495,6.884,22.39969,22.39969,0,0,1,2.3185,10.25274v2.67864a22.486,22.486,0,0,1-2.28964,10.39751,16.10956,16.10956,0,0,1-6.53807,6.85559,20.27308,20.27308,0,0,1-9.89348,2.44772Zm5.53-37.414v32.89243h5.8178q6.394,0,9.9512-3.978,3.557-3.978,3.557-11.33V133.355q0-7.14867-3.35541-11.11246-3.35587-3.96336-9.51914-4.02152Z"/><path class="cls-1" d="M237.044,156.21143a13.61664,13.61664,0,0,1-10.31136-4.16185q-3.97464-4.16184-3.97444-11.132V139.938a18.6938,18.6938,0,0,1,1.77139-8.28016,13.81652,13.81652,0,0,1,4.95363-5.70278,12.45451,12.45451,0,0,1,6.89821-2.0596q6.07688,0,9.44719,4.00376,3.36918,4.00328,3.36961,11.46238v2.21858H228.08659a11.07211,11.07211,0,0,0,2.69286,7.44442,8.463,8.463,0,0,0,6.55228,2.83763,9.28068,9.28068,0,0,0,4.78132-1.15193,12.01632,12.01632,0,0,0,3.42736-3.05344l3.25459,2.53478Q244.87762,156.21186,237.044,156.21143Zm-.66257-27.93836a7.106,7.106,0,0,0-5.41457,2.34737,11.40861,11.40861,0,0,0-2.7075,6.58114h15.61047v-.40321A10.15181,10.15181,0,0,0,241.681,130.505a6.69375,6.69375,0,0,0-5.29958-2.23191Z"/><path class="cls-1" d="M266.819,156.21143a13.61664,13.61664,0,0,1-10.31137-4.16185q-3.97466-4.16184-3.97444-11.132V139.938a18.6938,18.6938,0,0,1,1.77139-8.28016,13.81637,13.81637,0,0,1,4.95363-5.70278,12.45457,12.45457,0,0,1,6.89822-2.0596q6.07691,0,9.44721,4.00376,3.36918,4.00328,3.36963,11.46238v2.21858H257.86163a11.07214,11.07214,0,0,0,2.69284,7.44442,8.463,8.463,0,0,0,6.55228,2.83763,9.28062,9.28062,0,0,0,4.78131-1.15193,12.01624,12.01624,0,0,0,3.42734-3.05344l3.25461,2.53478Q274.65266,156.21186,266.819,156.21143Zm-.66257-27.93836a7.10587,7.10587,0,0,0-5.41458,2.34737,11.40883,11.40883,0,0,0-2.70752,6.58114h15.61048v-.40321A10.152,10.152,0,0,0,271.456,130.505a6.69368,6.69368,0,0,0-5.29953-2.23191Z"/><path class="cls-1" d="M309.98724,140.39891q0,7.114-3.2546,11.46327a10.43334,10.43334,0,0,1-8.81351,4.34925,11.42643,11.42643,0,0,1-8.9285-3.60054V167.617H283.6622V124.47182h4.86746l.25934,3.45577a10.976,10.976,0,0,1,9.044-4.03217,10.6265,10.6265,0,0,1,8.885,4.23378q3.2686,4.23378,3.26925,11.78033Zm-5.32843-.60483q0-5.27025-2.24655-8.32368a7.23944,7.23944,0,0,0-6.16372-3.05344,7.83309,7.83309,0,0,0-7.25791,4.29151v14.89062a7.84777,7.84777,0,0,0,7.31564,4.26311A7.202,7.202,0,0,0,302.398,148.823q2.2608-3.03747,2.2608-9.02889Z"/><path class="cls-1" d="M334.80289,151.11348H354.676V155.635H329.244v-41.9355h5.5589Z"/><path class="cls-1" d="M371.6058,156.21143a13.61805,13.61805,0,0,1-10.31134-4.16185q-3.9753-4.16184-3.97445-11.132V139.938a18.69406,18.69406,0,0,1,1.77185-8.28016A13.81242,13.81242,0,0,1,364.045,125.955a12.45458,12.45458,0,0,1,6.89823-2.0596q6.07758,0,9.4472,4.00375,3.36919,4.00329,3.36963,11.46239v2.21858H362.648a11.07655,11.07655,0,0,0,2.69284,7.44442,8.46405,8.46405,0,0,0,6.55274,2.83763,9.28448,9.28448,0,0,0,4.78176-1.15193,12.007,12.007,0,0,0,3.42646-3.05344l3.255,2.53477Q379.43877,156.21185,371.6058,156.21143Zm-.66253-27.93836a7.10366,7.10366,0,0,0-5.41413,2.34737,11.40592,11.40592,0,0,0-2.70794,6.58114h15.6109v-.40321a10.15747,10.15747,0,0,0-2.18927-6.2934,6.6937,6.6937,0,0,0-5.29959-2.23188Z"/><path class="cls-1" d="M407.68933,155.635a11.179,11.179,0,0,1-.7496-3.28346,11.88728,11.88728,0,0,1-8.87079,3.85988,10.99433,10.99433,0,0,1-7.55988-2.6067,8.43068,8.43068,0,0,1-2.95218-6.61045,8.80842,8.80842,0,0,1,3.7-7.55989q3.70088-2.69373,10.41259-2.69374h5.18412v-2.44772a5.98343,5.98343,0,0,0-1.6706-4.4496,6.71416,6.71416,0,0,0-4.92566-1.65639,7.77126,7.77126,0,0,0-4.78,1.43968,4.24385,4.24385,0,0,0-1.93082,3.48508h-5.35727a7.35166,7.35166,0,0,1,1.65729-4.50733,11.28967,11.28967,0,0,1,4.49222-3.44155,15.12215,15.12215,0,0,1,6.23654-1.26738q5.38481,0,8.43826,2.69284a9.71608,9.71608,0,0,1,3.168,7.4169v14.34263a17.527,17.527,0,0,0,1.09421,6.82627v.46095Zm-8.84235-4.06147a9.36214,9.36214,0,0,0,4.75156-1.29581,7.84235,7.84235,0,0,0,3.255-3.36961v-6.39376h-4.17694q-9.79181,0-9.7927,5.73119a4.84988,4.84988,0,0,0,1.67148,3.91672,6.41536,6.41536,0,0,0,4.29156,1.4113Z"/><path class="cls-1" d="M434.12317,129.2527a16.00275,16.00275,0,0,0-2.62091-.20161q-5.24364,0-7.114,4.4638V155.635h-5.32885v-31.1632h5.18411l.087,3.59965a8.29714,8.29714,0,0,1,7.4302-4.176,5.44312,5.44312,0,0,1,2.36246.40322Z"/><path class="cls-1" d="M442.58539,124.47182l.17319,3.91671a11.35428,11.35428,0,0,1,9.33172-4.49311q9.8784,0,9.965,11.14619V155.635h-5.328V135.0132a7.1774,7.1774,0,0,0-1.54092-4.98337,6.17658,6.17658,0,0,0-4.709-1.61287,7.68866,7.68866,0,0,0-4.55085,1.38284,9.38732,9.38732,0,0,0-3.05255,3.629V155.635h-5.32885v-31.1632Z"/><path class="cls-1" d="M468.64532,116.205a3.17613,3.17613,0,0,1,.79133-2.18839,2.976,2.976,0,0,1,2.34738-.89347,3.02269,3.02269,0,0,1,2.36245.89347,3.14639,3.14639,0,0,1,.80643,2.18839,3.047,3.047,0,0,1-.80643,2.16085,3.07811,3.07811,0,0,1-2.36245.86328,3.02985,3.02985,0,0,1-2.34738-.86328A3.07525,3.07525,0,0,1,468.64532,116.205Zm5.75962,39.43h-5.328v-31.1632h5.328Z"/><path class="cls-1" d="M486.49612,124.47182l.17319,3.91671a11.35428,11.35428,0,0,1,9.33173-4.49311q9.8784,0,9.965,11.14619V155.635h-5.328V135.0132a7.1774,7.1774,0,0,0-1.54092-4.98337,6.17661,6.17661,0,0,0-4.709-1.61287,7.68861,7.68861,0,0,0-4.55084,1.38284,9.38732,9.38732,0,0,0-3.05255,3.629V155.635H481.4559v-31.1632Z"/><path class="cls-1" d="M511.26025,139.79408q0-7.28588,3.36963-11.59294a11.6181,11.6181,0,0,1,17.82862-.27355l.25933-3.45577h4.86792v30.4145q0,6.04825-3.5863,9.53333t-9.63373,3.48507a16.02809,16.02809,0,0,1-6.59625-1.44056,11.356,11.356,0,0,1-4.92474-3.94513l2.76477-3.19733a10.41944,10.41944,0,0,0,8.38141,4.23378,8.16272,8.16272,0,0,0,6.0625-2.18927,8.36632,8.36632,0,0,0,2.175-6.16284v-2.67864a10.95223,10.95223,0,0,1-8.72692,3.6867,10.644,10.644,0,0,1-8.85657-4.407Q511.25979,147.39747,511.26025,139.79408Zm5.3573.60483q0,5.27025,2.16,8.28017a7.01836,7.01836,0,0,0,6.04828,3.00992,7.80692,7.80692,0,0,0,7.40271-4.57927V132.88165a7.898,7.898,0,0,0-7.345-4.4647,7.08068,7.08068,0,0,0-6.07666,3.02412Q516.61667,134.46522,516.61755,140.39891Z"/><path class="cls-1" d="M557.07251,138.61285a44.532,44.532,0,0,1,1.74255-12.49974,36.29359,36.29359,0,0,1,5.19922-10.88687,22.1195,22.1195,0,0,1,7.1709-6.91243l1.09509,3.5135q-4.20583,3.22664-6.89819,9.85041a42.69906,42.69906,0,0,0-2.95221,14.83288l-.02844,2.44773a42.928,42.928,0,0,0,4.06061,19.29759,23.03241,23.03241,0,0,0,5.81823,7.66113l-1.09509,3.255a22.83224,22.83224,0,0,1-7.31567-7.14334Q557.07255,152.237,557.07251,138.61285Z"/><path class="cls-1" d="M600.50006,136.25128H582.326v14.8622h21.11206V155.635H576.79639v-41.9355h26.353V118.221H582.326v13.50868h18.17407Z"/><path class="cls-1" d="M608.84686,155.635v-41.9355H620.684a19.05857,19.05857,0,0,1,9.67725,2.41931,16.36753,16.36753,0,0,1,6.495,6.884,22.40579,22.40579,0,0,1,2.319,10.25274v2.67864a22.48052,22.48052,0,0,1-2.29053,10.39751,16.10085,16.10085,0,0,1-6.53765,6.85559,20.2711,20.2711,0,0,1-9.893,2.44772Zm5.5296-37.414v32.89243h5.81824q6.39332,0,9.95075-3.978,3.557-3.978,3.557-11.33V133.355q0-7.14867-3.3554-11.11246-3.35588-3.96336-9.51911-4.02152Z"/><path class="cls-1" d="M651.611,151.11348h19.874V155.635H646.053v-41.9355h5.558Z"/><path class="cls-1" d="M687.78064,138.9015a44.5386,44.5386,0,0,1-1.68481,12.31234,36.3866,36.3866,0,0,1-5.15571,10.87266,22.59472,22.59472,0,0,1-7.27209,7.08562l-1.12354-3.255q4.435-3.39848,7.12916-10.5556a45.69015,45.69015,0,0,0,2.75061-15.88444v-.92191a47.42053,47.42053,0,0,0-1.2674-11.24657,38.00231,38.00231,0,0,0-3.52863-9.31752,21.52863,21.52863,0,0,0-5.08374-6.423l1.12354-3.25416a22.50581,22.50581,0,0,1,7.24371,7.027,36.51929,36.51929,0,0,1,5.1557,10.85845A45.59517,45.59517,0,0,1,687.78064,138.9015Z"/></svg>