<svg id="Layer_1" data-name="Layer 1" xmlns="http://www.w3.org/2000/svg" viewBox="0 0 519.47998 199.48"><defs><style>.cls-1{fill:#fff;}.cls-2{fill:#404040;}</style></defs><title>ludwig-horizontal-color</title><path class="cls-1" d="M29.99,29.99h460v140h-460Z"/><path class="cls-2" d="M49.99,49.99h20v100h-20Z"/><path class="cls-2" d="M49.99,129.99h100v20h-100Zm40-40h60v20h-60Zm80,40h40v20h-40Z"/><path class="cls-2" d="M89.99,89.99h60v20h-60Zm80-40h40v20h-40Z"/><path class="cls-2" d="M89.99,49.99h20v60h-20Zm40,0h20v60h-20Zm40,0h20v100h-20Zm40,20h20v60h-20Zm40-20h20v100h-20Zm40,0h20v100h-20Zm40,0h20v100h-20Zm40,0h20v100h-20Zm40,0h20v100h-20Z"/><path class="cls-2" d="M409.99,129.99h60v20h-60Z"/><path class="cls-2" d="M449.99,109.99h20v40h-20Zm-10-20h30v20h-30Zm-30-40h60v20h-60Zm-160,80h100v20h-100Zm-240,40h500v20H9.99Zm0-160h500v20H9.99Z"/><path class="cls-2" d="M9.99,9.99h20v180h-20Zm480,0h20v180h-20Zm-280,140,8.693-.144L229.99,138.2v-8.21h-20Zm0-100,8.693.144L229.99,61.78v8.21h-20Z"/></svg>