<svg id="Layer_1" data-name="Layer 1" xmlns="http://www.w3.org/2000/svg" viewBox="0 0 1978 1124"><path d="M150.07,988.55539H87.48482l-15.81,45.03064H51.06747l58.006-157.33584h19.40789l58.006,157.33584H165.87994ZM93.26348,971.87273h51.02783l-25.18683-71.744h-.65417Z"/><path d="M204.4834,1033.586V876.25019h19.62613V1033.586Z"/><path d="M397.9129,1033.586H300.4367V876.25019h97.4762v17.66363H320.06283V944.3966h73.81594V961.842H320.06283v54.08041H397.9129Z"/><path d="M460.50256,990.40877l-27.367,43.17726H412.092l38.59809-56.69765-37.94392-56.69764h21.1527L461.1573,962.7144h.43592l26.93108-42.52366H509.677L471.40628,976.1251,509.132,1033.586H488.08838l-27.14933-43.17726Z"/><path d="M629.182,976.88838c0,35.54494-19.517,58.66015-48.08379,58.66015-16.24618,0-29.33007-7.95912-36.09-20.38942h-.43649v56.26172h-18.972V920.19074h17.991V939.381h.43592c6.97816-12.7571,20.17118-21.15271,36.635-21.15271C609.55587,918.22824,629.182,941.34345,629.182,976.88838Zm-19.40789,0c0-25.62275-12.648-41.978-32.81914-41.978-19.40789,0-32.49235,16.79122-32.49235,41.978,0,25.296,13.08446,41.97805,32.49235,41.97805C597.12614,1018.86643,609.77411,1002.62026,609.77411,976.88838Z"/><path d="M649.24914,876.25019h18.972V1033.586h-18.972Z"/><path d="M689.26639,1001.53017c0-19.40789,14.93784-31.61994,41.10563-33.14652l32.49179-1.85337v-9.4857c0-13.84719-9.15834-22.13424-24.85947-22.13424-14.61047,0-23.76937,6.86959-26.16779,17.991h-18.3178c1.30833-19.62613,18.09955-34.67309,44.92152-34.67309,26.60428,0,43.3955,14.3928,43.3955,36.96239v78.3954H763.84534v-19.517h-.43592c-6.76048,12.97478-21.15271,21.47951-36.41735,21.47951C704.4219,1035.54853,689.26639,1021.91959,689.26639,1001.53017Zm73.59742-11.01228v-9.268l-30.311,1.85338c-15.26465.98153-23.98762,7.74144-23.98762,18.42692,0,10.794,9.04977,17.88131,22.67928,17.88131C749.12574,1019.41148,762.86381,1006.87262,762.86381,990.51789Z"/><path d="M804.519,888.13488a11.88469,11.88469,0,1,1,11.88469,11.88469A11.84325,11.84325,0,0,1,804.519,888.13488Zm2.399,32.05586H825.89V1033.586H806.918Z"/><path d="M851.51441,920.19074h17.88187v18.10012h.43593c6.324-12.21206,18.42691-20.06262,35.98142-20.06262,24.85946,0,39.25169,16.02793,39.25169,41.7598v73.598h-18.972V963.36856c0-18.31779-8.61329-28.3491-26.05867-28.3491-17.88188,0-29.54832,12.648-29.54832,31.83818V1033.586h-18.972Z"/><path d="M964.58686,1001.53017c0-19.40789,14.93727-31.61994,41.10563-33.14652l32.49179-1.85337v-9.4857c0-13.84719-9.15834-22.13424-24.85947-22.13424-14.61047,0-23.76937,6.86959-26.16779,17.991h-18.3178c1.30833-19.62613,18.09955-34.67309,44.92152-34.67309,26.60428,0,43.3955,14.3928,43.3955,36.96239v78.3954h-17.99043v-19.517h-.43592c-6.76048,12.97478-21.15271,21.47951-36.41735,21.47951C979.74238,1035.54853,964.58686,1021.91959,964.58686,1001.53017Zm73.59742-11.01228v-9.268l-30.311,1.85338c-15.26465.98153-23.98762,7.74144-23.98762,18.42692,0,10.794,9.04978,17.88131,22.67928,17.88131C1024.44621,1019.41148,1038.18428,1006.87262,1038.18428,990.51789Z"/><path d="M1100.77394,1014.39639h-.43592V1033.586h-18.09955V876.25019h18.972V939.1627h.43592c7.08728-12.97477,20.2803-20.93446,36.30823-20.93446,28.56678,0,47.86555,23.11521,47.86555,58.66014,0,35.65406-19.18964,58.66015-48.19235,58.66015C1121.05424,1035.54853,1108.07946,1027.48029,1100.77394,1014.39639Zm.32737-37.508c0,25.296,13.62894,41.97805,32.81915,41.97805,20.06205,0,32.49178-16.02793,32.49178-41.97805,0-25.73187-12.42973-41.978-32.49178-41.978C1114.73025,934.91034,1101.10131,951.70156,1101.10131,976.88838Z"/><path d="M1203.5974,888.13488a11.88469,11.88469,0,1,1,11.88469,11.88469A11.84325,11.84325,0,0,1,1203.5974,888.13488Zm2.399,32.05586h18.972V1033.586h-18.972Z"/><path d="M1251.57433,876.25019h18.972V1033.586h-18.972Z"/><path d="M1294.75329,888.13488a11.88469,11.88469,0,1,1,11.88469,11.88469A11.84325,11.84325,0,0,1,1294.75329,888.13488Zm2.399,32.05586h18.972V1033.586h-18.972Z"/><path d="M1366.82639,892.82373v27.367h22.02512v15.592h-22.02512v67.38312c0,10.35811,4.36149,15.0464,14.06543,15.0464a73.92525,73.92525,0,0,0,7.85057-.545V1033.586a67.60361,67.60361,0,0,1-11.99381.87241c-20.82534,0-28.89358-8.50473-28.89358-30.3116V935.78275h-16.90034v-15.592H1347.855v-27.367Z"/><path d="M1410.33328,1075.34583V1059.427a40.21289,40.21289,0,0,0,7.41464.545c10.57636,0,16.46386-5.12421,20.82534-18.3178l2.61667-7.95912L1399.321,920.19074h20.2803l31.4017,94.42333h.32736l31.4017-94.42333H1502.685l-44.59472,121.355C1448.38633,1068.04088,1439.00919,1076,1418.51121,1076A49.652,49.652,0,0,1,1410.33328,1075.34583Z"/><path d="M1595.91476,944.06924h18.86284c18.75372,0,31.83761-11.55733,31.83761-27.25846,0-15.59144-9.81306-26.16779-29.98424-26.16779-18.53547,0-32.2741,9.81306-33.47331,26.822h-18.86284c2.18074-26.71284,22.897-43.83142,52.33615-43.83142,31.51082,0,49.71949,18.09955,49.71949,40.56059,0,19.517-13.6295,32.92827-33.36419,37.07151v.43593c22.897,1.96306,38.489,16.24617,38.489,38.59809,0,27.04021-23.76937,45.90305-54.626,45.90305-32.60147,0-54.29866-18.20868-55.71611-44.26735H1579.996c1.19921,16.6821,15.91881,27.25845,36.85327,27.25845,20.71622,0,34.5634-11.77557,34.67253-28.24.10912-19.40789-13.73807-30.311-35.87174-30.311h-19.73525Z"/><path d="M1693.17808,957.58962c0-52.99032,22.5696-84.06522,61.05857-84.06522,26.7134,0,47.3205,15.592,52.227,39.68819h-19.95293c-4.57916-14.174-16.35529-22.35136-32.49178-22.35136-26.27748,0-41.21476,23.33289-41.86893,65.20181h.3268c6.43311-14.17455,22.57017-25.51363,43.94055-25.51363,29.98424,0,52.227,22.13368,52.227,52.0088,0,31.07489-23.442,53.75361-55.71611,53.75361C1723.92561,1036.31182,1693.17808,1016.14064,1693.17808,957.58962Zm95.51342,25.62275c0-20.60709-14.82872-35.43581-35.65406-35.43581s-36.19911,14.82872-36.19911,34.89077c0,20.17117,15.70057,36.1991,35.87174,36.1991A35.60108,35.60108,0,0,0,1788.6915,983.21237Z"/><path d="M1826.74963,954.86383c0-49.28357,21.47951-81.2303,58.006-81.2303,36.52591,0,57.78774,31.72906,57.78774,81.12118,0,49.71949-21.15271,81.448-57.78774,81.448C1848.0109,1036.2027,1826.74963,1004.58332,1826.74963,954.86383Zm96.05846,0c0-38.70721-13.73806-64.0026-38.05248-64.0026s-38.27072,25.51363-38.27072,63.89348c0,39.25226,13.62894,64.33,38.27072,64.33C1909.28827,1019.08468,1922.80809,994.11609,1922.80809,954.86383Z"/><path d="M1056.03613,326.41479q-59.22033.134-118.44067.0022c-2.79-.00635-3.80737,1.03125-4.61841,3.54322-4.26758,13.21533-8.79175,26.34765-13.10986,39.54711-1.522,4.65186-3.56836,9.16456-4.32959,14.04346a3.53945,3.53945,0,0,0,.68017.18994q79.35426.07032,158.708.19116c3.56836.00879,2.98731-1.55468,2.24756-3.75854-5.63916-16.79858-11.28735-33.59448-16.82568-50.42651C1059.59766,327.46777,1058.667,326.40869,1056.03613,326.41479Z"/><path d="M927.87866,311.78369a20.95311,20.95311,0,0,0,9.64038,2.2124c36.30738-.001,72.61548.22657,108.92188.05591,5.49072-.02588,11.22485,1.48706,16.57763-1.11938,16.51661-8.04224,33.02564-16.1001,49.93018-24.343-1.61084-1.96606-3.53418-2.44434-5.2063-3.26392-14.20386-6.96191-28.46338-13.811-42.64209-20.82373a20.0327,20.0327,0,0,0-9.20972-2.09741c-31.83251.05737-63.68945.78467-95.489-.2417-18.93042-.61084-36.40015,1.94092-52.43384,12.27588a41.26731,41.26731,0,0,1-4.3164,2.07617c-7.68262,3.75855-15.36109,7.52539-23.67481,11.6001,2.11231,1.15063,3.44336,1.94312,4.83057,2.62061C899.1665,297.74756,913.56226,304.68555,927.87866,311.78369Z"/><path d="M904.33789,376.53564q8.26758-25.01807,16.63086-50.00439c.25244-.75757.52734-1.50757.78955-2.25464.17066-2.272-1.8081-2.38989-3.11645-3.03174-17.06934-8.37109-34.20142-16.61572-51.2063-25.115-2.98145-1.49023-4.689-1.166-6.94678,1.21338q-15.1875,16.00452-30.76685,31.63379c-2.66919,2.66553-2.5979,3.7002.65992,5.73389q34.77721,21.71008,69.2771,43.86133C903.03076,380.7395,903.49292,379.093,904.33789,376.53564Z"/><path d="M1131.999,296.48657c-1.59253-1.65185-2.91406-1.85791-4.988-.83594q-26.436,13.028-52.98316,25.82935c-2.18847,1.05591-2.61255,2.15479-1.82666,4.46387q8.71948,25.62084,17.15674,51.3374c.77466,2.3623,1.37842,3.17871,3.80518,1.63379q35.38989-22.533,70.86377-44.93457c.77905-.4939,1.468-1.13037,2.39379-1.85205-.66919-.779-1.13647-1.3855-1.66674-1.93091C1153.83008,318.96582,1142.87305,307.76611,1131.999,296.48657Z"/><path d="M1095.60107,392.062a14.72883,14.72883,0,0,0-5.66064,6.21411q-20.19068,40.79481-40.53223,81.51441-7.51611,15.10033-15.01513,30.20849.36877.21461.73779.42969,57.00988-75.48194,114.02-150.96362-.29077-.39588-.58179-.79126Q1122.09681,375.387,1095.60107,392.062Z"/><path d="M996.80542,131.84534c-156.43726,0-283.25439,126.81726-283.25439,283.25451,0,156.437,126.81713,283.2544,283.25439,283.2544s283.25439-126.81738,283.25439-283.2544C1280.05981,258.6626,1153.24268,131.84534,996.80542,131.84534Zm185.79834,204.28845q-90.44055,119.50415-180.71436,239.135c-5.092,6.74072-5.19946,6.7688-10.20044.1626q-43.27551-57.16554-86.48681-114.3794Q858.318,398.99244,811.37646,336.97705c-2.48046-3.26221-2.35229-4.93262.46485-7.75415,12.65259-12.67139,25.07519-25.57275,37.54223-38.42871a25.60086,25.60086,0,0,1,7.26246-5.37158q34.49743-16.73328,68.93457-33.59058a19.03243,19.03243,0,0,1,8.73632-1.98193c20.79175.08105,41.58423.042,62.37647.04s41.58447.03882,62.37646-.04566a19.02081,19.02081,0,0,1,8.73243,1.99073q35.07165,17.20971,70.21972,34.26318a18.80821,18.80821,0,0,1,5.29688,4.01343c12.92407,13.30273,25.811,26.64306,38.87793,39.8042C1184.47144,332.20728,1184.56616,333.54077,1182.60376,336.13379Z"/><path d="M902.77808,396.97168a9.10217,9.10217,0,0,0-3.39185-3.86914q-27.36291-17.2251-54.6748-34.53272-.37464.26221-.749.52393,57.119,75.64307,114.23828,151.28638c.47364-.79077.42188-1.23755.2334-1.61621Q930.60572,452.868,902.77808,396.97168Z"/><path d="M1071.06738,396.43384q-64.916-.00183-129.83227.00488c-7.94995.00024-15.8999,0-24.75684,0C943.2876,450.219,969.74487,503.294,996.60815,557.18286c1.01783-1.81811,1.667-2.87109,2.21631-3.97363q37.70947-75.68153,75.39868-151.37329C1076.90015,396.45947,1076.8728,396.43408,1071.06738,396.43384Z"/><g id="vhMTIq"><path d="M1135.94178,94.973c12.68576,6.82633,25.83609,12.91725,37.98542,20.59263,123.07345,77.75205,183.38861,189.71875,169.26908,334.60054C1323.90428,648.12209,1147.693,773.888,970.128,756.88878,797.76331,740.3874,665.819,597.13936,661.24948,427.369,656.39471,247.00173,795.726,92.92706,975.041,81.18471c11.39484-.74618,18.59627.61162,16.365,14.63769-1.27714,8.028,3.468,8.841,9.64513,5.94763q26.27406-12.30676,52.50323-24.70926c6.53541-3.09575,7.41765-7.14905,1.2441-11.5111q-23.68706-16.73663-47.56728-33.19941c-5.73645-3.97074-10.5991-3.1832-10.6378,4.46652-.075,14.83182-9.59016,15.43271-20.84,16.59842C832.74157,68.2341,728.51706,139.82931,669.54757,271.05679,583.679,462.14417,685.46419,689.09046,884.22381,755.45255c183.7855,61.36258,383.54368-34.76115,449.40016-216.25148,60.55272-166.87372-13.12963-354.34069-171.28574-435.50807-8.18383-4.2-16.87988-7.40208-25.33745-11.06876Q1136.47125,93.79861,1135.94178,94.973Z"/></g></svg>