<?xml version="1.0" encoding="utf-8"?>
<!-- Generator: Adobe Illustrator 24.1.2, SVG Export Plug-In . SVG Version: 6.00 Build 0)  -->
<svg version="1.1" id="Layer_1" xmlns="http://www.w3.org/2000/svg" xmlns:xlink="http://www.w3.org/1999/xlink" x="0px" y="0px"
	 viewBox="0 0 412.5 253.8" style="enable-background:new 0 0 412.5 253.8;" xml:space="preserve">
<style type="text/css">
	.st0{fill:#FFFFFF;}
	.st1{fill:url(#SVGID_1_);}
	.st2{fill:url(#SVGID_2_);}
	.st3{fill:url(#SVGID_3_);}
	.st4{fill:url(#SVGID_4_);}
	.st5{fill:url(#SVGID_5_);}
	.st6{fill:url(#SVGID_6_);}
	.st7{fill:url(#SVGID_7_);}
	.st8{fill:url(#SVGID_8_);}
	.st9{fill:url(#SVGID_9_);}
	.st10{fill:url(#SVGID_10_);}
	.st11{fill:url(#SVGID_11_);}
	.st12{fill:url(#SVGID_12_);}
	.st13{fill:url(#SVGID_13_);}
	.st14{fill:url(#SVGID_14_);}
	.st15{fill:url(#SVGID_15_);}
	.st16{fill:url(#SVGID_16_);}
</style>
<path d="M271.8,245.8c0,4.1,3.5,7.6,7.6,7.6c4.7,0,7.6-3.5,7.6-7.6V156h-15.2V245.8z"/>
<path d="M339.7,1.5c-37.5,0-67.9,30.5-67.9,67.4v30H287v-30c0-28.7,24-52.1,52.7-52.1s52.1,23.4,52.1,52.1v50.7H390H13.3
	c-4.3,0-7.9,3.5-7.9,7.9c0,4.3,3.5,7.9,7.9,7.9H390h1.9v110.5c0,4.1,3.5,7.6,7.6,7.6s7.6-3.5,7.6-7.6V68.9
	C407.1,32,376.6,1.5,339.7,1.5z"/>
<path d="M236.5,185.9c0-4.3-3.5-7.9-7.9-7.9H81.8c-4.3,0-7.9,3.5-7.9,7.9s3.5,7.9,7.9,7.9h146.8
	C232.9,193.8,236.5,190.3,236.5,185.9z"/>
<path d="M150.2,60c-4.3,0-7.9,3.5-7.9,7.9s3.5,7.9,7.9,7.9h79.4c4.3,0,7.9-3.5,7.9-7.9s-3.5-7.9-7.9-7.9H150.2z"/>
<path d="M229.6,236.6h-78.4c-4.3,0-7.9,3.5-7.9,7.9s3.5,7.9,7.9,7.9h78.4c4.3,0,7.9-3.5,7.9-7.9S233.9,236.6,229.6,236.6z"/>
<path d="M80.8,16.2h162.7c4.3,0,7.9-3.5,7.9-7.9s-3.5-7.9-7.9-7.9H80.8c-4.3,0-7.9,3.5-7.9,7.9S76.4,16.2,80.8,16.2z"/>
</svg>
