<?xml version="1.0" encoding="UTF-8"?><svg id="a" xmlns="http://www.w3.org/2000/svg" xmlns:xlink="http://www.w3.org/1999/xlink" viewBox="0 0 500 504.71028"><defs><style>.c{fill:url(#b);}</style><linearGradient id="b" x1="500" y1="252.35514" x2="0" y2="252.35514" gradientTransform="matrix(1, 0, 0, 1, 0, 0)" gradientUnits="userSpaceOnUse"><stop offset="0" stop-color="#bcbec0"/><stop offset="1" stop-color="#231f20"/></linearGradient></defs><path class="c" d="M387.05923,43.42718l7.00719,112.67547,105.93358,39.02371-65.30668,48.62039-105.93292-39.02347-7.00653-112.67523,65.30538-48.62087h0ZM269.559,0l-78.60054,81.03551L85.10782,41.7854l17.98921,79.40591,105.84994,39.24985,78.60119-81.03527L269.559,0h0ZM1.465,149.18358l60.9324,95.03668L0,338.30275l81.41528,.63097,62.39735-94.08251-60.93281-95.03757-81.41481-.63006h0ZM73.21529,439.14575l110.07523-25.05969,67.32165,90.62421,28.22528-76.36868-67.32116-90.62552-110.07571,25.06099-28.22528,76.36868h0Zm420.47729-108.03864l-62.25541-52.46936-108.09428,32.56646-13.78638,112.04875,62.25571,52.46873,13.78697-112.04853,108.09339-32.56604h0Z"/></svg>