<svg id="Layer_1" data-name="Layer 1" xmlns="http://www.w3.org/2000/svg" viewBox="0 0 519.47998 199.48"><defs><style>.cls-1{fill:#fff;}</style></defs><title>ludwig-horizontal-white</title><path class="cls-1" d="M209.99,149.99l8.693-.144L229.99,138.2V61.78L218.683,50.134l-8.693-.144h-40v100h40Zm-20-80h20v60h-20Z"/><polygon class="cls-1" points="149.99 149.99 149.99 129.99 69.99 129.99 69.99 49.99 49.99 49.99 49.99 129.99 49.99 149.99 69.99 149.99 149.99 149.99"/><polygon class="cls-1" points="129.99 109.99 149.99 109.99 149.99 89.99 149.99 49.99 129.99 49.99 129.99 89.99 109.99 89.99 109.99 49.99 89.99 49.99 89.99 89.99 89.99 109.99 109.99 109.99 129.99 109.99"/><rect class="cls-1" x="369.98999" y="49.99001" width="20" height="100"/><polygon class="cls-1" points="449.99 149.99 469.99 149.99 469.99 129.99 469.99 109.99 469.99 89.99 439.99 89.99 439.99 109.99 449.99 109.99 449.99 129.99 429.99 129.99 429.99 69.99 469.99 69.99 469.99 49.99 429.99 49.99 409.99 49.99 409.99 69.99 409.99 129.99 409.99 149.99 429.99 149.99 449.99 149.99"/><polygon class="cls-1" points="289.99 149.99 309.99 149.99 329.99 149.99 349.99 149.99 349.99 129.99 349.99 49.99 329.99 49.99 329.99 129.99 309.99 129.99 309.99 49.99 289.99 49.99 289.99 129.99 269.99 129.99 269.99 49.99 249.99 49.99 249.99 129.99 249.99 149.99 269.99 149.99 289.99 149.99"/><path class="cls-1" d="M489.99,9.99H9.99v180h500V9.99Zm0,160h-460v-140h460Z"/></svg>