<svg id="Layer_1" data-name="Layer 1" xmlns="http://www.w3.org/2000/svg" xmlns:xlink="http://www.w3.org/1999/xlink" viewBox="0 0 504 504"><defs><style>.cls-1{fill:url(#linear-gradient);}.cls-2{fill:#fff;}</style><linearGradient id="linear-gradient" x1="92.37429" y1="-60.85956" x2="541.95857" y2="105.50032" gradientTransform="matrix(1, 0, 0, -1, 0, 474.50233)" gradientUnits="userSpaceOnUse"><stop offset="0" stop-color="#65318f"/><stop offset="0.21076" stop-color="#633592"/><stop offset="0.43565" stop-color="#5c4299"/><stop offset="0.6663" stop-color="#5257a6"/><stop offset="0.81351" stop-color="#4969b1"/></linearGradient></defs><title>acumosAI-icon-white</title><path class="cls-1" d="M362.015,435.93034c-.54138-.03759-1.08389-.0455-1.62617-.08575A13.64046,13.64046,0,0,0,362.015,435.93034Z"/><polygon class="cls-2" points="313.765 342.709 315.581 346.332 317.052 349.271 317.868 350.902 321.683 358.513 326.47 368.071 333.358 381.822 336.441 381.822 338.587 381.822 351.701 381.822 353.553 381.822 363.37 381.822 358.413 371.922 350.62 356.37 348.951 353.035 345.945 347.033 342.235 339.623 324.906 305.048 323.02 301.275 321.629 298.506 320.295 295.832 318.351 291.966 278.387 212.189 264.595 237.401 262.724 240.826 262.852 241.085 264.019 243.419 265.225 245.818 278.132 271.583 279.734 274.784 281.064 277.438 281.339 277.985 281.841 278.992 302.08 319.387 303.03 321.281 303.682 322.588 304.363 323.941 305.288 325.789 313.765 342.709"/><polygon class="cls-2" points="258.992 234.43 259.523 233.333 274.902 205.228 272.689 200.815 269.411 194.272 251.35 158.219 249.626 161.67 247.768 165.383 247.352 166.214 246.332 168.257 239.367 182.184 235.731 189.459 258.244 232.911 258.238 232.921 258.992 234.43"/><path class="cls-2" d="M37.15379,252.41161a8.25363,8.25363,0,0,1-.03009-1.29278,8.767,8.767,0,0,1,.575-2.411L14.92418,238.14794a75.16222,75.16222,0,0,0-7.06751,19.60748l22.01831-4.0133Z"/><path class="cls-2" d="M34.07018,320.50872,8.537,288.55718l-.90728-1.14081a74.84119,74.84119,0,0,0,7.05981,20.393l3.12933,2.04883Z"/><path class="cls-2" d="M16.81346,311.61126A75.91687,75.91687,0,0,0,34.25908,331.748l.96753-1.94983,2.29022-4.61133Z"/><polygon class="cls-2" points="269.987 271.586 258.622 248.897 247.212 271.586 269.987 271.586"/><path class="cls-2" d="M420.63194,280.96105l-9.72082-52.03076a8.70292,8.70292,0,0,1-6.50012-1.9234l-5.85846,7.07428,13.06915,28.36853,8.57135,18.60187C420.33708,281.02154,420.48112,280.9912,420.63194,280.96105Z"/><path class="cls-2" d="M237.657,94.98913,257.93016,71.21c-.98315-.4273-1.93506-.79406-2.88019-1.12609L244.491,85.201Z"/><path class="cls-2" d="M194.15074,376.54052l10.98145,3.56891,2.562-3.60633,6.88635-9.68206a9.09477,9.09477,0,0,1-2.5473-3.80268l-12.30286,2.73175Z"/><path class="cls-2" d="M377.5092,117.82427l7.10565-.22668,11.61719-.37012a30.02732,30.02732,0,0,0-1.534-5.52557l-17.23425,5.922C377.47136,117.69573,377.50151,117.756,377.5092,117.82427Z"/><path class="cls-2" d="M101.78185,118.14941a75.10847,75.10847,0,0,0-27.87708,16.20617l43.25909-19.5401Z"/><path class="cls-2" d="M397.49437,123.05505l5.7301,1.05023a8.072,8.072,0,0,1,7.9057-4.53888,8.51722,8.51722,0,0,1,1.127.20819l.26379-.49915c-.53632-.18115-1.07263-.35138-1.61688-.49847l-31.301,1.00555Z"/><path class="cls-2" d="M204.55779,83.77215l23.50769-14.15741a43.9045,43.9045,0,0,0-13.59082,6.84851,1.00793,1.00793,0,0,1-.77869.18866A73.07164,73.07164,0,0,0,199.07768,75.628l-.45343,4.23609A9.0342,9.0342,0,0,1,204.55779,83.77215Z"/><path class="cls-2" d="M156.78069,331.67992l-22.64032,5.51813c.37072,1.81409.80877,3.60516,1.29254,5.35138L155.683,333.8756Z"/><path class="cls-2" d="M238.52623,121.84606l-5.35846-3.55279-2.442-1.60987a6.56577,6.56577,0,0,1-5.68371,2.47907c-.11371-.00763-.21973-.04572-.325-.05713l-4.5055,29.61517a9.02788,9.02788,0,0,1,3.08429,1.80274l13.28076-14.834,3.28022-3.66192a9.04126,9.04126,0,0,1-2.29816-6.78034A9.15864,9.15864,0,0,1,238.52623,121.84606Z"/><path class="cls-2" d="M220.0385,109.14684l-17.31726-13.341a8.98778,8.98778,0,0,1-2.76715,1.54962l6.48541,20.94873,9.30536,30.06873a8.80691,8.80691,0,0,1,2.28247-.13611c.06817.004.13635.03015.20471.03778l4.52722-29.73993a6.5571,6.5571,0,0,1-3.73382-6.43964A6.45768,6.45768,0,0,1,220.0385,109.14684Z"/><path class="cls-2" d="M421.13121,329.01214a9.05934,9.05934,0,0,1,1.69287-.40808V328.604l-.13629-13.56849-.16644-16.16748c-.26477,0-.52167.03717-.79346.01477a8.51994,8.51994,0,0,1-1.39081-.25708l-18.345,34.9289-9.59234,18.25458,23.13-11.27747A9.05753,9.05753,0,0,1,421.13121,329.01214Z"/><path class="cls-2" d="M363.40434,167.22405c-.06024.042-.113.08753-.17328.12555L384.93974,208.329l12.608,23.7909,5.43432-6.56434a8.99931,8.99931,0,0,1,.93744-12.31317Z"/><path class="cls-2" d="M321.92973,375.71056,312.80748,357.588a8.92407,8.92407,0,0,1-1.11963.20032l-5.46533,45.62427a49.44115,49.44115,0,0,0,4.86066,1.48144.999.999,0,0,1,.71752.658c.40088,1.2013.877,2.43354,1.4289,3.71137l5.66882-21.86743Z"/><path class="cls-2" d="M482.9464,336.62377l1.59448-2.51715,1.42889-2.26007a51.98113,51.98113,0,0,0-1.88934-5.33691Z"/><path class="cls-2" d="M342.03606,125.0581a9.03725,9.03725,0,0,1-3.91571-1.29254l-14.30829,18.74572-5.82068,7.62653a9.08249,9.08249,0,0,1,2.78174,6.06213l26.82592,1.6059,1.98847.11767a9.08451,9.08451,0,0,1,4.535-6.25848l-2.53186-7.25641-6.81836-19.59283A8.89086,8.89086,0,0,1,342.03606,125.0581Z"/><path class="cls-2" d="M367.13139,348.13549a9.1128,9.1128,0,0,1-4.25567,4.50482l2.40326,6.53888,25.54876,69.58557-1.74621-73.93933Z"/><path class="cls-2" d="M309.6544,357.73492a9.10586,9.10586,0,0,1-7.45294-6.18287l-36.68286,4.29352-35.84326,4.19519c0,.25684.03033.50623.01477.77063a9.06626,9.06626,0,0,1-3.39325,6.34162l17.73273,28.00543a80.88318,80.88318,0,0,0,30.32513-22.10986.97424.97424,0,0,1,.84686-.34742.391.391,0,0,1,.09827.00769,1.01056,1.01056,0,0,1,.77069.65,50.03855,50.03855,0,0,0,28.19434,29.2973l2.96289-24.67859Z"/><path class="cls-2" d="M367.71324,346.20055l5.62341,1.71595,16.22864,4.95056,6.32691-12.04822,22.5177-42.87347a9.37426,9.37426,0,0,1-1.28485-.80872l-9.44855,7.89185-41.30927,34.52807a9.00633,9.00633,0,0,1,1.51953,5.72217C367.85661,345.59606,367.77373,345.89092,367.71324,346.20055Z"/><path class="cls-2" d="M180.20244,284.83257l-38.836-32.02014a8.09784,8.09784,0,0,1-.88379.72528l28.54614,53.64417Z"/><path class="cls-2" d="M154.28233,336.67736l-18.27508,7.83728a80.23017,80.23017,0,0,0,6.62915,15.45593Z"/><path class="cls-2" d="M465.22075,387.90215A49.81267,49.81267,0,0,0,485.94737,360.139l-4.61859-16.0246Z"/><path class="cls-2" d="M157.96623,329.30877l9.95343-19.90839-1.5943-2.99676-27.60455-51.86054a8.8814,8.8814,0,0,1-4.308.74848,8.04819,8.04819,0,0,1-1.30048-.23438l-42.7597,90.7276,27.52862-6.7044a75.22829,75.22829,0,0,0,13.43225-9.4787,1.01245,1.01245,0,0,1,1.67029.64251c.18121,1.52631.43121,3.15949.76331,4.966l9.35772-2.27546Z"/><polygon class="cls-2" points="474.767 261.043 489.598 252.85 485.486 248.782 477.527 254.295 440.422 280.003 474.767 261.043"/><path class="cls-2" d="M414.426,285.57958a9.10526,9.10526,0,0,1,3.87769-3.80975l-21.51215-46.67536L336.60106,248.636a8.95631,8.95631,0,0,1-.99768,3.29181l37.57458,16.04Z"/><path class="cls-2" d="M219.8864,369.14165a9.10417,9.10417,0,0,1-3.66565-1.134l-4.02106,5.661-5.367,7.55145,17.80853,19.28986a81.16786,81.16786,0,0,0,17.47571-4.58044l-17.5362-27.71058A8.94756,8.94756,0,0,1,219.8864,369.14165Z"/><path class="cls-2" d="M200.70256,391.49285l-4.74713,8.06427a80.68951,80.68951,0,0,0,26.24451,1.28577l-16.49335-17.85413Z"/><path class="cls-2" d="M194.18681,378.67284l-.97461-.31732-5.71453,11.05139h-2.29523l5.19024,8.72992q1.73438.51,3.49921.94446l10.12872-17.21112Z"/><path class="cls-2" d="M126.36986,248.45476l-71.12732,3.81348c-.00769.10529.01471.2113.007.31751a9.04388,9.04388,0,0,1-4.15717,6.87091L83.323,332.8966,88.56865,344.832l42.61652-90.43976A9.07144,9.07144,0,0,1,126.36986,248.45476Z"/><path class="cls-2" d="M362.46013,119.23058l-10.86945-1.22473a9.04745,9.04745,0,0,1-4.91339,6.15265l8.26172,23.73438,1.05817,3.02337a8.91244,8.91244,0,0,1,3.212-.34772c.1062.00794.1966.04511.29486.0528l7.55152-24.90558A7.55369,7.55369,0,0,1,362.46013,119.23058Z"/><path class="cls-2" d="M213.21318,339.67492l-4.80469,9.29223,5.83936,4.69416a9.06824,9.06824,0,0,1,2.73614-1.86786Z"/><path class="cls-2" d="M241.36839,133.365l-15.38177,17.18836-1.33,1.48913a9.01438,9.01438,0,0,1,1.69281,5.98718,8.87783,8.87783,0,0,1-.91479,3.25776l3.545,1.93512,9.44788,5.15112L251.53075,142.165l4.88037,9.77869-4.96656-11.84327-2.27551-5.4165A8.825,8.825,0,0,1,241.36839,133.365Z"/><path class="cls-2" d="M251.03673,133.91662l19.102,45.53216L273.5432,186.27,296.737,167.50817l7.36939-5.964a8.70327,8.70327,0,0,1-.95215-7.7973l-31.195-14.70166-17.64209-8.31049A9.03067,9.03067,0,0,1,251.03673,133.91662Z"/><path class="cls-2" d="M429.97423,284.77782l29.34314-20.32489,24.11981-16.72033L418.5761,222.98888a9.10547,9.10547,0,0,1-5.67664,5.552l9.75043,52.22357c.18872.00775.36285-.0224.55175-.00769A9.03755,9.03755,0,0,1,429.97423,284.77782Z"/><path class="cls-2" d="M329.74,298.86883l20.90362,41.88385a9.15,9.15,0,0,1,4.40833-4.43183l-26.18347-79.6762c-.0224,0-.0448.0147-.075.0147Z"/><path class="cls-2" d="M199.69084,245.85308l-1.14239-35.24152-.63477-19.66766c-.287.00378-.56738.03784-.85455.01538a8.933,8.933,0,0,1-3.63526-1.11133l-50.66638,51.48279a8.85213,8.85213,0,0,1-.09064,9.93915l14.02131,11.55756L181.131,282.97509Z"/><path class="cls-2" d="M480.02837,341.80883l-46.99268-2.70606a9.0639,9.0639,0,0,1-6.25873,7.1504l6.94678,33.14556,9.48639,45.27686a49.95057,49.95057,0,0,0,14.44464-32.13251,1.00253,1.00253,0,0,1,.58972-.85449l.31732-.1355c.45362-.21191.91407-.42328,1.36774-.64227.85455-.4165,1.70129-.86243,2.5249-1.33832l3.34839-9.10791Z"/><path class="cls-2" d="M493.93663,274.84551a1.00711,1.00711,0,0,1,.01477-.90643,25.39125,25.39125,0,0,0,1.03546-21.18006l-2.13855.80878-.64245.24945-5.89637,52.66229a25.78548,25.78548,0,0,0,10.0304-23.45489A25.24749,25.24749,0,0,0,493.93663,274.84551Z"/><path class="cls-2" d="M423.39055,346.63164a9.07829,9.07829,0,0,1-6.97626-4.28649L407.1248,346.873l-15.58655,7.60406,9.15375,14.1427,38.59461,59.61548c.75622-.61987,1.48913-1.25476,2.19989-1.9118l-16.70514-79.71515A9.548,9.548,0,0,1,423.39055,346.63164Z"/><path class="cls-2" d="M302.08842,346.35912,258.553,327.40868H219.55589l-5.01867,9.706,4.38165,14.07434a8.87147,8.87147,0,0,1,10.52087,6.83484l.00122.00592,63.10767-7.38483,9.26733-1.08826a8.56853,8.56853,0,0,1-.03015-1.535A9.21358,9.21358,0,0,1,302.08842,346.35912Z"/><path class="cls-2" d="M201.59209,242.04992l21.38714-42.778-3.62909-2.23974-14.78527-9.12341a9.09531,9.09531,0,0,1-4.64094,2.78564l1.17957,36.34637Z"/><path class="cls-2" d="M319.56407,251.89745a9.004,9.004,0,0,1-1.04315-4.96594c0-.02234.01538-.04175.01538-.06421l-18.70361-7.922,8.75476,17.54145Z"/><path class="cls-2" d="M402.589,126.04052,377.07823,121.373a7.57,7.57,0,0,1-7.70239,4.95148c-.12842-.01172-.24139-.04975-.36981-.06818l-7.52112,24.83441a9.02355,9.02355,0,0,1,3.73382,2.48682l21.76917-13.84784,15.72266-10.00025a7.96881,7.96881,0,0,1-.28809-2.7586A7.73925,7.73925,0,0,1,402.589,126.04052Z"/><path class="cls-2" d="M482.54552,341.03783l4.38391,15.20789a49.72026,49.72026,0,0,0-.25684-21.73132Z"/><path class="cls-2" d="M490.05107,254.92083l-58.85992,32.48785a9.06777,9.06777,0,0,1,.33258,3.1518,8.97194,8.97194,0,0,1-1.54169,4.30108l34.347,29.819,16.3272,14.18073.68036-6.07745,1.09589-9.77356a50.12384,50.12384,0,0,0-6.94678-10.20459,1.00958,1.00958,0,0,1,.55963-1.65491,25.38273,25.38273,0,0,0,8.06519-3.17511l2.9328-26.22894Z"/><path class="cls-2" d="M351.80962,115.99523l10.80133,1.21668a7.55927,7.55927,0,0,1,5.60077-5.77094l-2.32038-19.84582a29.43865,29.43865,0,0,0-17.58868-10.78992,1.06288,1.06288,0,0,1-.34833-.14008c-.44592-.27948-.90637-.55108-1.36774-.805l-2.117,27.25317A9.0384,9.0384,0,0,1,351.80962,115.99523Z"/><path class="cls-2" d="M360.97093,353.32836a7.95875,7.95875,0,0,1-4.00543.09082l15.28467,30.62531Z"/><path class="cls-2" d="M337.34166,108.75359a9.01851,9.01851,0,0,1,5.11017-1.799l1.01306-12.98559,1.1712-15.08716a29.22907,29.22907,0,0,0-15.82794-2.56268c-.00775,0-.4682.07586-.49151.08355a.965.965,0,0,1-.67243-.15173,29.67231,29.67231,0,0,0-19.32812-4.452,29.21918,29.21918,0,0,0-4.78394.9906l11.64014,12.38111Z"/><path class="cls-2" d="M370.6082,111.218a7.5563,7.5563,0,0,1,6.26642,4.46765l7.21063-2.47607,9.81134-3.371a29.3096,29.3096,0,0,0-25.828-17.04528l2.15411,18.43231C370.35112,111.22961,370.47978,111.20635,370.6082,111.218Z"/><path class="cls-2" d="M251.00584,118.04314a9.105,9.105,0,0,1,4.452,6.00556l20.39374-2.12,57.87012-6.0094c0-.219-.0304-.43426-.01563-.65728a9.03481,9.03481,0,0,1,2.15411-5.14008L301.11314,73.16741a43.823,43.823,0,0,0-26.25921-5.13251c-1.0658.1247-2.17658.3028-3.29584.5141l-18.82062,45.32227Z"/><path class="cls-2" d="M232.11662,113.15307a6.69658,6.69658,0,0,1-.41571,1.7539l7.95215,5.26081a9.05723,9.05723,0,0,1,7.69464-3.243,9.29484,9.29484,0,0,1,1.79877.33294l15.69244-37.79376,4.30823-10.371a43.728,43.728,0,0,0-8.2998,3.02032,1.03992,1.03992,0,0,1-.884,0,1.01825,1.01825,0,0,0-.09832-.04571L229.66,107.48412A6.58518,6.58518,0,0,1,232.11662,113.15307Z"/><path class="cls-2" d="M492.23619,251.39831l1.7229-.95984a24.17113,24.17113,0,0,0-1.83679-2.98535l.01562.55194Z"/><path class="cls-2" d="M419.10472,219.584a8.01207,8.01207,0,0,1,.02332,1.05023c-.00763.12866-.05341.25006-.06812.37475l1.17114.44574,64.5669,24.63.09833-.623.7406-4.6264a1.02269,1.02269,0,0,1-.20362-.69879,25.54514,25.54514,0,0,0-5.04174-21.00983l-60.3794.44971Z"/><path class="cls-2" d="M206.06963,89.49456a9.059,9.059,0,0,1-1.91266,4.86761l17.18841,13.24268a6.54719,6.54719,0,0,1,4.75482-1.52722,6.46359,6.46359,0,0,1,1.19428.22l25.73773-36.84931a43.80591,43.80591,0,0,0-17.34045-1.43969c-.36219.04181-.71045.10205-1.05793.15484l-.30194.04548-28.84448,17.362A8.96872,8.96872,0,0,1,206.06963,89.49456Z"/><path class="cls-2" d="M490.11156,247.52129l-.06751-2.65326a27.39163,27.39163,0,0,0-2.61523-2.4754l-.75623,4.72382,3.51489,3.48077Z"/><path class="cls-2" d="M472.0468,195.66845a38.04561,38.04561,0,0,0-17.2041-20.14832,1.03621,1.03621,0,0,1-.52167-.8576c-.02234-1.134-.09827-2.27948-.2337-3.42426a37.6676,37.6676,0,0,0-21.64075-29.95147,1.01157,1.01157,0,0,1-.55963-.68805,29.58163,29.58163,0,0,0-1.51947-4.72382l-.181-.07587-12.2984-5.06445a7.94743,7.94743,0,0,1-1.10364,1.93512L438.712,157.67425Z"/><path class="cls-2" d="M410.99474,193.34411l.0224,17.53985a9.06808,9.06808,0,0,1,7.80065,6.682l59.805-.45032a25.07188,25.07188,0,0,0-4.07453-3.41961,1.02987,1.02987,0,0,1-.44568-.953,38.23461,38.23461,0,0,0-.0224-8.5188c-.15173-1.25848-.37866-2.555-.68823-3.95288l-4.39947-5.01959L415.31065,134.053a8.02826,8.02826,0,0,1-4.39178,1.60211Z"/><path class="cls-2" d="M141.46471,239.76177l50.30322-51.10827a8.97139,8.97139,0,0,1-1.23914-12.1698l-58.79962-57.91114a9.064,9.064,0,0,1-3.80975,1.92719l4.62646,65.59094,3.60523,51.13531A8.98105,8.98105,0,0,1,141.46471,239.76177Z"/><path class="cls-2" d="M424.85722,328.52813a9.06335,9.06335,0,0,1,8.29987,8.55688l45.38983,2.61457-35.39032-30.726-14.48267-12.57019a8.96944,8.96944,0,0,1-4.134,2.22229l.30188,29.90247Z"/><path class="cls-2" d="M41.3723,291.24853,44.61467,260.764a9.05958,9.05958,0,0,1-7.128-6.35706L7.44109,259.887a75.22108,75.22108,0,0,0-.68036,22.026c.03778.35534.09826.71069.14312,1.0581l.06116.37848,31.11145,38.93451Z"/><path class="cls-2" d="M38.61284,246.90514a8.91454,8.91454,0,0,1,11.42145-3.25775L120.8676,119.2871a9.1211,9.1211,0,0,1-2.699-2.706L95.62846,126.7625,69.79253,138.42919a75.687,75.687,0,0,0-17.77765,32.01874,1.01343,1.01343,0,0,1-.3855.56732,75.73824,75.73824,0,0,0-31.67883,58.59918.84758.84758,0,0,1-.18183.53632c-1.34533,1.94275-2.64489,4.02893-3.87018,6.22088l21.64844,10.038Z"/><path class="cls-2" d="M39.28551,326.15435l-.49085.99835-2.91,5.86554a75.10127,75.10127,0,0,0,36.25152,14.83l1.46607-.14386,11.05841-1.07294-15.66925-7.06726Z"/><path class="cls-2" d="M211.70049,164.454a9.06815,9.06815,0,0,1-3.46906-7.89111,9.21111,9.21111,0,0,1,.33972-1.84058L133.42967,116.5617c-.11285.17419-.219.34833-.33978.51391l58.8067,57.9159a9.01753,9.01753,0,0,1,11.73175-.03412Z"/><path class="cls-2" d="M170.84581,389.40691a81.0432,81.0432,0,0,0,16.652,7.82282l-4.6482-7.82282Z"/><path class="cls-2" d="M237.52281,170.183l-13.1687-7.1803a8.95977,8.95977,0,0,1-10.91528,2.49847l-8.41266,10.95618a9.00549,9.00549,0,0,1,1.82892,6.176l23.62134,1.64331Z"/><path class="cls-2" d="M212.97838,355.23339l-5.51721-4.43384-6.52417,12.617,10.6582-2.37049a8.55333,8.55333,0,0,1-.031-1.70813A9.0001,9.0001,0,0,1,212.97838,355.23339Z"/><path class="cls-2" d="M126.52861,102.63866a9.02531,9.02531,0,0,1,4.76251,1.84449L141.238,92.99773a72.33945,72.33945,0,0,0-18.85126,8.26966l.82349,1.73846A8.90828,8.90828,0,0,1,126.52861,102.63866Z"/><path class="cls-2" d="M134.17046,108.26983l26.5689-8.32929,27.5672-8.64721a8.86571,8.86571,0,0,1-.355-3.26569,9.064,9.064,0,0,1,8.65418-8.30292l.42328-4.00232c-1.3675.08289-2.774.20362-4.17188.37006a72.90446,72.90446,0,0,0-35.35241,14.13879.9455.9455,0,0,1-.54407.2005c-1.54254.08289-3.06909.19593-4.61078.37781a75.259,75.259,0,0,0-7.69531,1.33057l-11.89728,13.73413A8.971,8.971,0,0,1,134.17046,108.26983Z"/><path class="cls-2" d="M49.29344,260.37078a8.98868,8.98868,0,0,1-2.66034.52161l-1.18719,11.16436-5.54053,52.15546,16.08484,7.26343,30.56042,13.7876L57.41136,278.87511Z"/><polygon class="cls-2" points="326.867 260.793 322.952 285.273 327.625 294.63 326.867 260.793"/><path class="cls-2" d="M354.09209,167.57635a9.07412,9.07412,0,0,1-4.66333-7.63483l-28.78412-1.7229a9.0636,9.0636,0,0,1-6.39484,7.16186l2.38147,13.93067L326.775,238.63171a8.81771,8.81771,0,0,1,1.54169-.03009,8.93334,8.93334,0,0,1,1.82208.34039l21.54248-64.18122Z"/><path class="cls-2" d="M304.03056,151.92187a9.04862,9.04862,0,0,1,8.43592-4.30823,8.83417,8.83417,0,0,1,3.915,1.29193l20.129-26.38a9.04092,9.04092,0,0,1-2.57745-4.59528L255.66216,126.056a6.51116,6.51116,0,0,1,.01556.661,8.74912,8.74912,0,0,1-.48377,2.18909Z"/><path class="cls-2" d="M134.1179,237.2105l-8.20916-116.46435c-.27948.00372-.559.04089-.84619.01843a8.90036,8.90036,0,0,1-2.38849-.56647L51.76488,244.68987a9.108,9.108,0,0,1,3.33386,5.55988l54.03-2.8949,16.9765-.91107c-.007-.31336-.04474-.62384-.0224-.94513A9.09625,9.09625,0,0,1,134.1179,237.2105Z"/><path class="cls-2" d="M318.95891,244.85241a9.09067,9.09067,0,0,1,1.089-2.192l-.99066-1.11071-40.562-45.3573,19.948,39.9685Z"/><path class="cls-2" d="M321.35509,241.09612a9.03626,9.03626,0,0,1,3.43213-2.07892l-12.53974-73.30847a8.46485,8.46485,0,0,1-1.24774.02307,8.98548,8.98548,0,0,1-5.61639-2.6231l-30.91272,25.01989.598,1.19867L320.4102,240.0382Z"/><path class="cls-2" d="M189.06981,93.17565l-54.332,17.037a9.12283,9.12283,0,0,1,.12073,2.22973,9.26679,9.26679,0,0,1-.5293,2.30213L209.38,152.85924a9.1095,9.1095,0,0,1,4.42975-3.91564l-6.00195-19.38837-9.83368-31.76172a8.79088,8.79088,0,0,1-1.70044.03406A9.07819,9.07819,0,0,1,189.06981,93.17565Z"/><path class="cls-2" d="M403.47356,131.63811,366.413,155.21374a8.98367,8.98367,0,0,1-1.4513,10.72174l26.18335,29.736,14.39991,16.3573a9.06653,9.06653,0,0,1,3.45453-1.15247l-.09827-75.372A8.06049,8.06049,0,0,1,403.47356,131.63811Z"/><path class="cls-2" d="M229.49706,186.236l-23.04987-1.60351a9.23979,9.23979,0,0,1-.69513,1.62481l18.13715,11.1952Z"/><path class="cls-2" d="M336.60863,246.56451l59.24542-13.333-14.81445-27.96-19.63074-37.04193a9.01064,9.01064,0,0,1-3.67346.46508,9.23153,9.23153,0,0,1-1.77631-.325L347.00218,195.071l-14.99664,44.67608A9.10861,9.10861,0,0,1,336.60863,246.56451Z"/><path class="cls-2" d="M302.83611,344.4768a9.11684,9.11684,0,0,1,2.08129-2.56372l-7.30066-14.50421H263.61235L302.292,344.24309Z"/><path class="cls-2" d="M325.50487,256.47814a9.03964,9.03964,0,0,1-4.7843-2.87231l-11.22846,4.69372,11.90833,23.85993Z"/><path class="cls-2" d="M395.718,312.38988l19.88739-16.62115a9.06931,9.06931,0,0,1-2.19989-6.682,8.72941,8.72941,0,0,1,.29511-1.61773l-79.28388-33.85541a9.06027,9.06027,0,0,1-3.5907,2.50152l18.14911,55.23932,7.9972,24.33954a8.88867,8.88867,0,0,1,2.58514-.20428,8.98519,8.98519,0,0,1,5.51019,2.51715Z"/><polygon class="cls-2" points="183.75 382.244 185.193 379.385 186.114 377.55 188.429 372.951 189.212 371.391 190.981 367.88 191.982 365.887 202.004 345.958 202.803 344.375 210.555 328.962 211.677 326.73 211.939 326.208 213.548 323.011 215.156 319.813 215.169 319.813 218.741 319.813 222.323 319.813 223.308 319.813 225.188 319.813 229.528 319.813 281.985 319.813 294.079 319.813 295.061 319.813 276.264 282.28 275.759 281.276 274.323 278.407 273.338 278.407 244.132 278.407 243.15 278.407 239.562 278.407 236.003 278.407 235.981 278.407 237.593 275.209 239.201 272.008 251.27 248.021 254.973 240.653 253.438 237.692 232.335 196.961 225.853 209.929 225.386 210.853 221.293 219.039 220.941 219.749 199.234 263.163 194.812 272.008 193.21 275.209 191.611 278.407 184.796 292.036 184.192 293.245 183.156 295.317 175.094 311.441 174.384 312.867 172.097 317.434 170.908 319.813 169.309 323.011 167.713 326.208 164.455 332.722 163.377 334.865 162.363 336.899 162.302 337.02 159.744 342.143 152.447 356.735 139.691 382.244 173.703 382.244 183.75 382.244"/><path class="cls-2" d="M351.787,389.40691l21.68518,41.9571a9.1804,9.1804,0,0,1,8.45124-5.594,9.08472,9.08472,0,0,1,2.50323.38934l-26.65222-36.75244Z"/><polygon class="cls-2" points="374.22 389.407 360.278 389.407 388.515 428.341 383.881 415.719 374.22 389.407"/><path class="cls-2" d="M328.82372,389.40691l-5.51539-10.957-8.73352,33.68482a50.39754,50.39754,0,0,0,11.127,14.64471c11.0415,2.10651,21.55346,6.23315,32.66528,8.60455.6886.14692,3.70892.4925,3.64795.54627.93079.06476,1.86023.14953,2.79639.1477.76306.00049,1.52514-.03,2.28668-.07733l.25543-.04761c1.40918-.43414,2.83582-.85778,4.2478-1.283.38526-.116.76429-.21106,1.143-.30567L349.508,389.40691Z"/><path class="cls-2" d="M391.16747,357.62945,392.967,433.9118l25.2912,2.10931,6.3266.52856A49.5687,49.5687,0,0,0,437.68431,429.49l-35.8811-55.4281Z"/></svg>