<?xml version="1.0" encoding="UTF-8"?><svg id="a" xmlns="http://www.w3.org/2000/svg" viewBox="0 0 864 864"><defs><style>.b{opacity:.6;}.c{opacity:.8;}</style></defs><path d="M240.30006,613.87937h0c-19.3-5.20001-19.39999-5.70001-12.10001-24.89999,24.39999-63.89999,60.59999-120.20001,106.7-170.79999,61.5-67.40002,135.30002-115.59998,221.19998-145.29999,48.40002-16.70001,98.40002-26,149.59998-29.59998,11.20001-.79999,14.40002,2.09998,11.59998,13.40002-6.40002,26.59998-7.70001,54.29999-17,80.40002,.79999,.20001,1.5,.40002,2.29999,.5h0c21.29999-4.70001,42.90002-5.79999,64.59998-6,8.79999-.09998,12.59998-2.59998,14.59998-11.90002,12.09998-57.59998,25.20001-115,37.90002-172.5,8.20001-37.09998,16.40002-74.20001,24.79999-112.40002-4.29999,.90002-7,1.20001-9.59998,2-86.40002,25.40002-170.59998,56.29999-250.5,98.09998-105,55.09998-198.39999,124.29999-269.10001,221-53.2,72.70001-87.5,153.20001-96.8,243.29999-1.10001,10.70001-6.3,7.5-11.8,6.10001-42-10.70001-83.1-24.20001-124-38.39999-7.4-2.60001-10.4-2-12.6,5.79999-8.9,31-12.1,62.20001-5.1,94.10001,18.1,82.3,94.59999,147.39999,182.89999,157.60001,83.40001,9.7,165.8,4.5,247.7-12.7,121.30002-25.5,233.39999-73.59999,337.99997-139.50002,2.59998-1.60001,6.09998-2.60001,6.20001-3.60001-29.20001,0-58.59998-.5-87.90002,.10001-121.20001,2.29999-241.70001-6.29999-361.39999-25.20001-45.5-7.20001-90.89999-15.10001-135.5-27.10001h0c-4.89984-.70001-9.79985-1.60001-14.69984-2.5h0Z"/><path class="b" d="M656.90009,486.17936c18.40002,2.89999,18,3.60001,21.5-15.60001,7.90002-44.40002,16.20001-88.70001,24.29999-133h0c-.79999-.09998-1.5-.29999-2.29999-.5h-.29999c-61.79999,7.29999-121.40002,23.5-179.20001,46.20001-77.70001,30.5-146.89999,74.39999-205.70001,133.60001-27.89999,28.10001-52.60001,59-72.7,93.39999-.7,1.20001-1.39999,2.29999-2.10001,3.5,4.89999,.89999,9.8,1.70001,14.7,2.60001h0c1.10001-1.5,2-3.10001,3.3-4.39999,110.99998-110.60001,244.7-150.10001,398.50002-125.80002h0Z"/><path class="c" d="M705.70007,243.37934c-51.09998,3.59998-101.20001,12.90002-149.60004,29.59998-86,29.70001-159.79999,77.90002-221.20001,145.29999-46.10001,50.60001-82.3,106.89999-106.7,170.79999-7.3,19.20001-7.2,19.70001,12.10001,24.89999h0c.7-1.20001,1.39999-2.29999,2.10001-3.5,20-34.39999,44.7-65.30002,72.7-93.39999,58.79999-59.20001,128.10001-103.09998,205.70001-133.59998,57.79999-22.70001,117.40002-38.90002,179.20001-46.20001h.29999c9.29999-26,10.59998-53.79999,17-80.40002,2.79999-11.49994-.39996-14.29993-11.59998-13.49994h0Z"/></svg>