<?xml version="1.0" encoding="utf-8"?>
<!-- Generator: Adobe Illustrator 28.5.0, SVG Export Plug-In . SVG Version: 9.03 Build 54727)  -->
<svg version="1.1" id="Layer_1" xmlns="http://www.w3.org/2000/svg" xmlns:xlink="http://www.w3.org/1999/xlink" x="0px" y="0px"
	 width="800px" height="272.6px" viewBox="0 0 800 272.6" style="enable-background:new 0 0 800 272.6;" xml:space="preserve">
<style type="text/css">
	.Drop_x0020_Shadow{fill:none;}
	.Round_x0020_Corners_x0020_2_x0020_pt{fill:#FFFFFF;stroke:#231F20;stroke-miterlimit:10;}
	.Live_x0020_Reflect_x0020_X{fill:none;}
	.Bevel_x0020_Soft{fill:url(#SVGID_1_);}
	.Dusk{fill:#FFFFFF;}
	.Foliage_GS{fill:#FFDD00;}
	.Pompadour_GS{fill-rule:evenodd;clip-rule:evenodd;fill:#44ADE2;}
	.st0{fill:#163357;}
	.st1{fill:#FFBC00;}
	.st2{fill:#F43BA6;}
	.st3{fill:#FFFFFF;}
</style>
<linearGradient id="SVGID_1_" gradientUnits="userSpaceOnUse" x1="0" y1="-255.7572" x2="0.7071" y2="-255.0501">
	<stop  offset="0" style="stop-color:#DEDFE3"/>
	<stop  offset="0.1783" style="stop-color:#DADBDF"/>
	<stop  offset="0.3611" style="stop-color:#CECFD3"/>
	<stop  offset="0.546" style="stop-color:#B9BCBF"/>
	<stop  offset="0.7324" style="stop-color:#9CA0A2"/>
	<stop  offset="0.9181" style="stop-color:#787D7E"/>
	<stop  offset="1" style="stop-color:#656B6C"/>
</linearGradient>
<g>
	<path class="st0" d="M347.3,122.3c-7.8,0-14.7-1.6-20.8-4.9c-6.1-3.3-10.9-7.8-14.4-13.5c-3.5-5.7-5.2-12.2-5.2-19.4V21.9h20.6
		v61.3c0,3.9,0.9,7.4,2.6,10.5c1.7,3.1,4.1,5.6,7.1,7.4c3,1.8,6.4,2.7,10.2,2.7c3.8,0,7.3-0.9,10.3-2.7c3-1.8,5.3-4.2,7-7.4
		c1.7-3.1,2.6-6.7,2.6-10.5V21.9h20.6v62.6c0,7.3-1.8,13.7-5.2,19.4c-3.5,5.7-8.3,10.2-14.4,13.5C362,120.7,355.1,122.3,347.3,122.3
		L347.3,122.3z"/>
	<path class="st0" d="M464.8,59.8c-2.3-4.1-5.5-7.3-9.6-9.6c-4.1-2.3-8.9-3.4-14.4-3.4c-5,0-9.4,1-13.2,3.1
		c-3.1,1.7-5.4,4.2-7.1,7.4v-8.9h-18.6v72.5h19.9V78.4c0-2.8,0.6-5.3,1.7-7.3s2.7-3.6,4.7-4.8c2-1.1,4.3-1.7,6.9-1.7
		c2.6,0,5,0.6,7,1.7c2,1.2,3.5,2.7,4.6,4.8c1.1,2,1.7,4.5,1.7,7.3v42.3h19.9V74.2C468.2,68.7,467.1,63.9,464.8,59.8L464.8,59.8z"/>
	<path class="st0" d="M480.8,41.8V21.9h19.9v19.9H480.8z M480.8,120.8V48.3h19.9v72.5H480.8z"/>
	<path class="st0" d="M548.7,121.5c-8.8,0-15.5-2.4-20.4-7.1c-4.8-4.7-7.2-11.4-7.2-19.8V65.5h-12.2V48.3h0.7c3.7,0,6.6-0.9,8.6-2.8
		c2-1.9,3-4.6,3-8.4v-5.3H541v16.5h17v17.3h-17v27.7c0,2.5,0.4,4.5,1.3,6.2c0.9,1.6,2.3,2.8,4.1,3.6s4.2,1.2,6.9,1.2
		c0.6,0,1.3,0,2.1-0.1c0.8-0.1,1.6-0.2,2.5-0.3v16.9c-1.3,0.2-2.8,0.3-4.5,0.5C551.8,121.5,550.2,121.5,548.7,121.5L548.7,121.5z"/>
	<path class="st0" d="M621,48.3l-17.1,46.6l-17.1-46.6h-21.4l28.5,72.4l-1.3,3.1c-1.1,2.3-2.4,4.4-4.1,6.2c-1.7,1.8-4.5,2.7-8.4,2.7
		c-1.4,0-3-0.1-4.6-0.4c-1.7-0.3-3.1-0.6-4.4-0.9v16.3c1.5,0.8,3.3,1.4,5.2,1.7c2,0.4,4,0.5,6.2,0.5c4.4,0,8.4-0.8,12-2.5
		c3.6-1.6,6.8-4.1,9.6-7.5c2.8-3.4,5.2-7.5,7.2-12.5l31.1-79.2H621z"/>
	<path class="st0" d="M353,245c-7.1,0-13.6-1.3-19.7-3.9c-6.1-2.6-11.4-6.1-15.9-10.8c-4.5-4.6-8-10-10.6-16.2
		c-2.5-6.2-3.8-13-3.8-20.3c0-7.3,1.2-14.1,3.7-20.4c2.5-6.2,6-11.6,10.5-16.2c4.5-4.6,9.8-8.1,15.9-10.6c6.1-2.5,12.7-3.8,19.8-3.8
		s13.6,1.2,19.3,3.6s10.5,5.6,14.5,9.6c4,4,6.8,8.4,8.5,13.3l-18.2,8.8c-1.7-4.8-4.6-8.7-8.8-11.9c-4.2-3.1-9.3-4.7-15.3-4.7
		s-11,1.4-15.4,4.1c-4.4,2.7-7.9,6.5-10.3,11.4c-2.4,4.8-3.6,10.5-3.6,16.9c0,6.5,1.2,12.1,3.6,17c2.4,4.9,5.9,8.7,10.3,11.4
		c4.4,2.7,9.6,4.1,15.4,4.1s11.1-1.6,15.3-4.7c4.2-3.1,7.1-7.1,8.8-11.9l18.2,8.8c-1.7,4.9-4.5,9.3-8.5,13.3c-4,4-8.8,7.2-14.5,9.6
		C366.6,243.8,360.2,245,353,245L353,245z"/>
	<path class="st0" d="M515.3,244.2c-8.8,0-15.5-2.4-20.4-7.1c-4.8-4.7-7.2-11.4-7.2-19.8v-29.1h-12.2V171h0.7c3.7,0,6.6-0.9,8.6-2.8
		c2-1.9,3-4.6,3-8.4v-5.3h19.9V171h17v17.3h-17V216c0,2.5,0.4,4.5,1.3,6.2c0.9,1.6,2.3,2.8,4.1,3.6c1.9,0.8,4.2,1.2,6.9,1.2
		c0.6,0,1.3,0,2.1-0.1c0.8-0.1,1.6-0.2,2.5-0.3v16.9c-1.3,0.2-2.8,0.3-4.5,0.5C518.4,244.1,516.8,244.2,515.3,244.2L515.3,244.2z"/>
	<path class="st0" d="M453.6,172.7c-4.7-2.2-10.1-3.3-16.2-3.3c-5.1,0-9.9,0.8-14.2,2.4c-4.3,1.6-8.1,3.9-11.2,6.8
		c-3.1,2.9-5.4,6.4-6.8,10.5l15.9,7.6c1.2-3.2,3.2-5.8,5.9-7.7c2.7-1.9,5.8-2.9,9.4-2.9c3.7,0,6.7,0.9,8.8,2.8
		c2.2,1.9,3.3,4.2,3.3,6.9v1.9l-20,3.2c-5.8,0.9-10.6,2.4-14.4,4.5c-3.8,2.1-6.7,4.8-8.6,7.9c-1.9,3.1-2.8,6.7-2.8,10.8
		c0,4.3,1,8.1,3.1,11.2c2,3.1,5,5.5,8.8,7.2c3.8,1.7,8.3,2.5,13.5,2.5c3.9,0,7.4-0.5,10.6-1.5c3.2-1,6.1-2.6,8.6-4.6
		c0.9-0.7,1.7-1.5,2.5-2.3v6.9h18.6v-47.8c0-5.2-1.3-9.8-3.9-13.7C461.9,178,458.3,174.9,453.6,172.7z M446.5,222.5
		c-1.4,2.4-3.3,4.4-5.8,5.8c-2.5,1.4-5.4,2.1-8.6,2.1c-2.5,0-4.6-0.6-6.2-1.9c-1.7-1.2-2.5-3-2.5-5.2c0-2.4,0.7-4.2,2.3-5.5
		c1.5-1.3,3.7-2.2,6.5-2.7l16.5-2.9v2.3C448.6,217.4,447.9,220.1,446.5,222.5L446.5,222.5z"/>
	<path class="st0" d="M595.2,181.9c-2.6-3.9-6.3-7-10.9-9.2c-4.7-2.2-10.1-3.3-16.2-3.3c-5.1,0-9.9,0.8-14.2,2.4
		c-4.3,1.6-8.1,3.9-11.2,6.8c-3.1,2.9-5.4,6.4-6.8,10.5l15.9,7.6c1.2-3.2,3.2-5.8,5.9-7.7c2.7-1.9,5.8-2.9,9.4-2.9
		c3.7,0,6.7,0.9,8.8,2.8c2.2,1.9,3.3,4.2,3.3,6.9v1.9l-20,3.2c-5.8,0.9-10.6,2.4-14.4,4.5s-6.7,4.8-8.6,7.9
		c-1.9,3.1-2.8,6.7-2.8,10.8c0,4.3,1,8.1,3.1,11.2c2,3.1,5,5.5,8.8,7.2c3.8,1.7,8.3,2.5,13.5,2.5c3.9,0,7.4-0.5,10.6-1.5
		c3.2-1,6.1-2.6,8.6-4.6c0.9-0.7,1.7-1.5,2.5-2.3v6.9h18.6v-47.8C599.1,190.4,597.8,185.9,595.2,181.9z M577.1,222.5
		c-1.4,2.4-3.3,4.4-5.8,5.8c-2.5,1.4-5.4,2.1-8.6,2.1c-2.5,0-4.6-0.6-6.2-1.9c-1.7-1.2-2.5-3-2.5-5.2c0-2.4,0.7-4.2,2.3-5.5
		c1.5-1.3,3.7-2.2,6.5-2.7l16.5-2.9v2.3C579.2,217.4,578.5,220.1,577.1,222.5L577.1,222.5z"/>
	<path class="st0" d="M610.8,243.4v-87.2l19.9-10.6v97.8H610.8z"/>
	<path class="st0" d="M679.5,245c-7.2,0-13.7-1.6-19.6-4.9c-5.9-3.3-10.6-7.8-14.1-13.5c-3.5-5.7-5.2-12.2-5.2-19.4
		c0-7.3,1.7-13.8,5.2-19.5c3.5-5.7,8.2-10.1,14.1-13.4c5.9-3.3,12.4-4.9,19.6-4.9s13.7,1.6,19.5,4.9c5.8,3.3,10.5,7.7,14,13.4
		c3.5,5.7,5.2,12.2,5.2,19.5c0,7.3-1.8,13.7-5.2,19.4c-3.5,5.7-8.2,10.2-14,13.5C693.2,243.4,686.7,245,679.5,245z M679.5,227.1
		c3.6,0,6.8-0.8,9.5-2.5c2.7-1.7,4.8-4,6.4-7c1.5-3,2.3-6.5,2.3-10.3c0-3.9-0.8-7.3-2.3-10.3c-1.5-3-3.7-5.3-6.4-7
		c-2.7-1.7-5.9-2.6-9.5-2.6s-6.8,0.9-9.6,2.6c-2.7,1.7-4.9,4.1-6.4,7s-2.3,6.4-2.3,10.3c0,3.9,0.8,7.3,2.3,10.3c1.5,3,3.7,5.4,6.4,7
		C672.7,226.3,675.9,227.1,679.5,227.1z"/>
	<path class="st0" d="M781.4,171v7.6c-2.2-2.6-4.7-4.6-7.4-6.1c-3.9-2.1-8.5-3.1-13.7-3.1c-6.6,0-12.6,1.5-17.8,4.5
		c-5.2,3-9.3,7.1-12.3,12.4c-3,5.3-4.5,11.3-4.5,18.1s1.5,12.9,4.5,18.2s7.2,9.6,12.5,12.6c5.3,3.1,11.3,4.6,18.1,4.6
		c5.2,0,9.8-1,13.7-3c2.1-1.1,4-2.5,5.7-4.2v6.9c0,3.1-0.6,5.8-1.9,8.1c-1.3,2.3-3.1,4-5.5,5.2c-2.4,1.2-5.2,1.8-8.5,1.8
		c-4.2,0-7.7-1-10.8-2.9c-3-1.9-5-4.6-6-8l-18.4,6.5c1.5,4.5,4,8.4,7.4,11.7c3.4,3.3,7.5,5.9,12.3,7.8c4.8,1.9,10,2.8,15.5,2.8
		c7,0,13.2-1.4,18.5-4.2c5.4-2.8,9.6-6.7,12.7-11.7c3.1-5,4.6-10.7,4.6-17V171H781.4z M778,213.7c-1.4,2.6-3.3,4.6-5.8,6
		c-2.5,1.4-5.4,2.1-8.8,2.1s-6.4-0.7-9-2.2c-2.6-1.5-4.6-3.5-6.1-6c-1.5-2.6-2.2-5.5-2.2-8.9c0-3.4,0.7-6.5,2.2-9.1
		c1.5-2.6,3.5-4.6,6.1-6.1c2.6-1.5,5.6-2.2,9-2.2c3.4,0,6.1,0.7,8.6,2.2c2.5,1.5,4.4,3.5,5.8,6.1s2.1,5.6,2.1,9.1
		C780.1,208.1,779.4,211.1,778,213.7L778,213.7z"/>
	<path class="st0" d="M130.5,88.6l-38.9,22.5v45l38.9,22.5l38.9-22.5v-45L130.5,88.6z"/>
	<path class="st1" d="M212.6,86.2h44.8L235,47.4L212.6,86.2z"/>
	<path class="st1" d="M212.6,181l22.4,38.8l22.4-38.8H212.6z"/>
	<path class="st1" d="M108.1,267.2h44.8l-22.4-38.8L108.1,267.2z"/>
	<path class="st1" d="M3.6,181L26,219.8L48.4,181H3.6z"/>
	<path class="st1" d="M3.6,86.2h44.8L26,47.4L3.6,86.2z"/>
	<path class="st1" d="M108.1,0l22.4,38.8L152.9,0H108.1z"/>
	<path class="st2" d="M173.2,7.6l-26,45l45,26l26-45L173.2,7.6z"/>
	<path class="st2" d="M261,107.6h-52v52h52V107.6z"/>
	<path class="st2" d="M192.2,188.5l-45,26l26,45l45-26L192.2,188.5z"/>
	<path class="st2" d="M68.7,188.6l-26,45l45,26l26-45L68.7,188.6z"/>
	<path class="st2" d="M52,107.6H0v52h52V107.6z"/>
	<path class="st2" d="M87.7,7.6l-45,26l26,45l45-26L87.7,7.6z"/>
</g>
</svg>
