<svg id="Layer_1" data-name="Layer 1" xmlns="http://www.w3.org/2000/svg" xmlns:xlink="http://www.w3.org/1999/xlink" viewBox="0 0 199.27 364.51999"><defs><style>.cls-1,.cls-3{fill:#fff;}.cls-1,.cls-5{stroke:#fff;stroke-miterlimit:10;}.cls-2{clip-path:url(#clip-path);}.cls-4{clip-path:url(#clip-path-2);}.cls-5{fill:none;}.cls-6{clip-path:url(#clip-path-3);}</style><clipPath id="clip-path"><path d="M99.76,191.17,7.71,99.13,99.76,7.08l92.05,92.05L99.76,191.17Z"/></clipPath><clipPath id="clip-path-2"><path class="cls-1" d="M10.54,130.26,99.76,41.04l89.22,89.22L99.76,219.48Z"/></clipPath><clipPath id="clip-path-3"><path d="M99.76,259.22,7.71,167.17,99.76,75.13l92.05,92.04L99.76,259.22Z"/></clipPath></defs><path d="M61.14135,332.64671v13.13281L75.2517,332.64671h3.12793l-10.8457,10.08887,11.35545,14.3291H75.89719L65.79955,344.342l-4.6582,4.34375v8.37891H58.82983v-24.418Z"/><path d="M81.05541,351.23362a6.60238,6.60238,0,0,0,1.03711,2.23926,5.93746,5.93746,0,0,0,1.80176,1.64258,5.02049,5.02049,0,0,0,2.61816.64941,5.19115,5.19115,0,0,0,3.67188-1.23144,6.48373,6.48373,0,0,0,1.83594-3.2832h2.14161a8.61552,8.61552,0,0,1-2.499,4.65136,7.42027,7.42027,0,0,1-5.15039,1.6416,8.1376,8.1376,0,0,1-3.58691-.73535,6.60734,6.60734,0,0,1-2.46485-2.01758,8.78493,8.78493,0,0,1-1.41113-2.97558,13.57256,13.57256,0,0,1-.459-3.57324,12.85978,12.85978,0,0,1,.459-3.41993,9.20844,9.20844,0,0,1,1.41113-2.99218,7.07869,7.07869,0,0,1,2.46485-2.12012,7.54888,7.54888,0,0,1,3.58691-.80371,6.92655,6.92655,0,0,1,6.03516,3.09473,9.33258,9.33258,0,0,1,1.34277,3.17968,14.08282,14.08282,0,0,1,.33984,3.64258h-13.498a9.591,9.591,0,0,0,.32317,2.41113Zm10.60742-6.583a6.46607,6.46607,0,0,0-1.10449-2,5.46513,5.46513,0,0,0-1.73437-1.40235,4.93574,4.93574,0,0,0-2.31153-.53125,5.012,5.012,0,0,0-2.3457.53125,5.46513,5.46513,0,0,0-1.73437,1.40235,6.98561,6.98561,0,0,0-1.13868,2.01757,9.89968,9.89968,0,0,0-.56152,2.3418H92.08862A7.845,7.845,0,0,0,91.66283,344.65062Zm18.82666,12.41406v-3.35156h-.06836a5.05381,5.05381,0,0,1-1.00292,1.57226,6.479,6.479,0,0,1-1.5127,1.21485,7.86215,7.86215,0,0,1-1.81934.76953,7.07058,7.07058,0,0,1-1.92089.27343,7.75121,7.75121,0,0,1-3.48438-.73535,6.97758,6.97758,0,0,1-2.46533-2.01758,8.65985,8.65985,0,0,1-1.46289-2.97558,13.661,13.661,0,0,1,0-7.14649,8.65985,8.65985,0,0,1,1.46289-2.97558,7.153,7.153,0,0,1,2.46533-2.03516,7.59865,7.59865,0,0,1,3.48438-.752,7.73073,7.73073,0,0,1,1.92089.23926,6.41071,6.41071,0,0,1,1.751.73535,6.19958,6.19958,0,0,1,1.44531,1.21386,5.10692,5.10692,0,0,1,.96875,1.67579h.06836v-10.123h2.1416v24.418Zm-11.74755-6.10547a7.5272,7.5272,0,0,0,1.0205,2.41211,5.6232,5.6232,0,0,0,1.78467,1.72656,4.91907,4.91907,0,0,0,2.61817.667,5.4888,5.4888,0,0,0,4.77734-2.39355,7.13064,7.13064,0,0,0,1.05371-2.41211,11.59129,11.59129,0,0,0,0-5.43652,7.13391,7.13391,0,0,0-1.05371-2.41114,5.49244,5.49244,0,0,0-4.77734-2.39453,4.911,4.911,0,0,0-2.61817.668,5.61316,5.61316,0,0,0-1.78467,1.72656,7.53048,7.53048,0,0,0-1.0205,2.41114,11.591,11.591,0,0,0,0,5.43652Zm19.48877-11.541v4.13868h.06835a6.762,6.762,0,0,1,2.53321-3.31836A6.60347,6.60347,0,0,1,124.929,339.179v2.15429a6.41692,6.41692,0,0,0-2.65234.39356,5.8773,5.8773,0,0,0-3.39941,3.35156,6.81445,6.81445,0,0,0-.47657,2.582v9.4043H116.259V339.41819Zm19.00976.23926A7.75766,7.75766,0,0,1,139.842,341.676a8.75067,8.75067,0,0,1,1.59766,2.957,12.23751,12.23751,0,0,1,0,7.21582,8.75592,8.75592,0,0,1-1.59766,2.958,7.56566,7.56566,0,0,1-2.60156,2.001,8.9499,8.9499,0,0,1-7.10547,0,7.54738,7.54738,0,0,1-2.60156-2.001,8.72241,8.72241,0,0,1-1.59766-2.958,12.23751,12.23751,0,0,1,0-7.21582,8.71765,8.71765,0,0,1,1.59766-2.957,7.73877,7.73877,0,0,1,2.60156-2.01856,8.76885,8.76885,0,0,1,7.10547,0Zm-6.23926,1.71a5.93053,5.93053,0,0,0-1.9209,1.71,7.76673,7.76673,0,0,0-1.15527,2.41114,9.87216,9.87216,0,0,0,0,5.50586,7.75035,7.75035,0,0,0,1.15527,2.41015,5.63132,5.63132,0,0,0,9.21387,0,7.752,7.752,0,0,0,1.15625-2.41015,9.87216,9.87216,0,0,0,0-5.50586,7.76811,7.76811,0,0,0-1.15625-2.41114,5.6329,5.6329,0,0,0-7.293-1.71Z"/><path d="M99.76,191.17,7.71,99.13,99.76,7.08l92.05,92.05L99.76,191.17Z"/><g class="cls-2"><rect x="7.71" y="7.07999" width="184.09999" height="1.65681"/><rect x="7.71" y="8.7368" width="184.09999" height="15.20277"/><rect x="7.71" y="23.93957" width="184.09999" height="15.20277"/><rect x="7.71" y="39.14233" width="184.09999" height="15.20277"/><rect x="7.71" y="54.3451" width="184.09999" height="15.20277"/><rect x="7.71" y="69.54786" width="184.09999" height="15.20277"/><rect x="7.71" y="84.75063" width="184.09999" height="15.20277"/><rect x="7.71" y="99.9534" width="184.09999" height="15.20277"/><rect x="7.71" y="115.15616" width="184.09999" height="15.20277"/><rect x="7.71" y="130.35893" width="184.09999" height="15.20277"/><rect x="7.71" y="145.5617" width="184.09999" height="15.20277"/><rect x="7.71" y="160.76446" width="184.09999" height="15.20277"/><rect x="7.71" y="175.96723" width="184.09999" height="15.20277"/></g><path class="cls-3" d="M10.54,130.26,99.76,41.04l89.22,89.22L99.76,219.48Z"/><g class="cls-4"><rect class="cls-1" x="10.54" y="41.03999" width="178.44" height="0.71376"/><rect class="cls-1" x="10.54" y="41.75375" width="178.44" height="7.07336"/><rect class="cls-1" x="10.54" y="48.82711" width="178.44" height="7.07336"/><rect class="cls-1" x="10.54" y="55.90047" width="178.44" height="7.07336"/><rect class="cls-1" x="10.54" y="62.97383" width="178.44" height="7.07336"/><rect class="cls-1" x="10.54" y="70.0472" width="178.44" height="7.07336"/><rect class="cls-1" x="10.54" y="77.12056" width="178.44" height="7.07336"/><rect class="cls-1" x="10.54" y="84.19392" width="178.44" height="7.07336"/><rect class="cls-1" x="10.54" y="91.26728" width="178.44" height="7.07336"/><rect class="cls-1" x="10.54" y="98.34064" width="178.44" height="7.07336"/><rect class="cls-1" x="10.54" y="105.414" width="178.44" height="7.07336"/><rect class="cls-1" x="10.54" y="112.48737" width="178.44" height="7.07336"/><rect class="cls-1" x="10.54" y="119.56073" width="178.44" height="7.07336"/><rect class="cls-1" x="10.54" y="126.63409" width="178.44" height="7.07336"/><rect class="cls-1" x="10.54" y="133.70745" width="178.44" height="7.07336"/><rect class="cls-1" x="10.54" y="140.78081" width="178.44" height="7.07336"/><rect class="cls-1" x="10.54" y="147.85418" width="178.44" height="7.07336"/><rect class="cls-1" x="10.54" y="154.92754" width="178.44" height="7.07336"/><rect class="cls-1" x="10.54" y="162.0009" width="178.44" height="7.07336"/><rect class="cls-1" x="10.54" y="169.07426" width="178.44" height="7.07336"/><rect class="cls-1" x="10.54" y="176.14762" width="178.44" height="7.07336"/><rect class="cls-1" x="10.54" y="183.22098" width="178.44" height="7.07336"/><rect class="cls-1" x="10.54" y="190.29434" width="178.44" height="7.07336"/><rect class="cls-1" x="10.54" y="197.36771" width="178.44" height="7.07336"/><rect class="cls-1" x="10.54" y="204.44107" width="178.44" height="7.07336"/><rect class="cls-1" x="10.54" y="211.51443" width="178.44" height="7.07336"/><rect class="cls-1" x="10.54" y="218.58779" width="178.44" height="0.8922"/></g><path class="cls-5" d="M10.54,130.26,99.76,41.04l89.22,89.22L99.76,219.48Z"/><path d="M99.76,259.22,7.71,167.17,99.76,75.13l92.05,92.04L99.76,259.22Z"/><g class="cls-6"><rect x="7.71" y="75.12998" width="184.09999" height="1.10454"/><rect x="7.71" y="76.23452" width="184.09999" height="15.24879"/><rect x="7.71" y="91.48331" width="184.09999" height="15.24879"/><rect x="7.71" y="106.7321" width="184.09999" height="15.24879"/><rect x="7.71" y="121.98088" width="184.09999" height="15.24879"/><rect x="7.71" y="137.22967" width="184.09999" height="15.24879"/><rect x="7.71" y="152.47846" width="184.09999" height="15.24879"/><rect x="7.71" y="167.72725" width="184.09999" height="15.24879"/><rect x="7.71" y="182.97604" width="184.09999" height="15.24879"/><rect x="7.71" y="198.22483" width="184.09999" height="15.24879"/><rect x="7.71" y="213.47362" width="184.09999" height="15.24879"/><rect x="7.71" y="228.7224" width="184.09999" height="15.24879"/><rect x="7.71" y="243.97119" width="184.09999" height="15.24879"/></g><path d="M99.75977,223.01562,7.00488,130.25977,99.75977,37.50439l92.75585,92.75538ZM14.0752,130.25977l85.68457,85.68554,85.68554-85.68554L99.75977,44.57568Z"/></svg>