<?xml version="1.0" encoding="utf-8"?>
<!-- Generator: Adobe Illustrator 28.4.1, SVG Export Plug-In . SVG Version: 6.00 Build 0)  -->
<svg version="1.1" id="Layer_1" xmlns="http://www.w3.org/2000/svg" xmlns:xlink="http://www.w3.org/1999/xlink" x="0px" y="0px"
	 width="800px" height="800px" viewBox="0 0 800 800" style="enable-background:new 0 0 800 800;" xml:space="preserve">
<style type="text/css">
	.Drop_x0020_Shadow{fill:none;}
	.Outer_x0020_Glow_x0020_5_x0020_pt{fill:none;}
	.Blue_x0020_Neon{fill:none;stroke:#8AACDA;stroke-width:7;stroke-linecap:round;stroke-linejoin:round;}
	.Chrome_x0020_Highlight{fill:url(#SVGID_1_);stroke:#FFFFFF;stroke-width:0.3629;stroke-miterlimit:1;}
	.Jive_GS{fill:#FFDD00;}
	.Alyssa_GS{fill:#A6D0E4;}
	.st0{fill:#FF6900;}
	.st1{fill:#FFB500;}
	.st2{fill:#FFFFFF;}
</style>
<linearGradient id="SVGID_1_" gradientUnits="userSpaceOnUse" x1="-1640" y1="-820" x2="-1640" y2="-821">
	<stop  offset="0" style="stop-color:#656565"/>
	<stop  offset="0.618" style="stop-color:#1B1B1B"/>
	<stop  offset="0.6292" style="stop-color:#545454"/>
	<stop  offset="0.9831" style="stop-color:#3E3E3E"/>
</linearGradient>
<g>
	<g>
		<polygon class="st0" points="75.6,315.6 145.6,353.3 118.6,368.1 48.6,330.4 		"/>
		<path class="st1" d="M139.5,401.7l6.1,3.3l-27,14.7l-9.3-5v-6.6l8.3,4.5c0.3,0.2,0.7,0.3,1,0.3c0.4,0,0.7-0.1,1-0.3l0,0
			L139.5,401.7z"/>
		<path class="st1" d="M108.2,426C108.2,426,108.2,426,108.2,426L108.2,426l-7.2-3.9l6.5-3.5l8.9,4.8v35.2l-7.2-3.9v-26.9
			C109.3,427.1,108.9,426.4,108.2,426z"/>
		<polygon class="st1" points="77.8,394.7 105,379.9 105,415.1 77.8,429.9 		"/>
		<path class="st0" d="M46.2,334l70.2,37.8V407l-7.2-3.9v-26.9c0-0.8-0.4-1.5-1.1-1.8c0,0-0.1,0-0.1,0l0,0L46.2,341V334z"/>
		<polygon class="st1" points="32.6,338.6 102.6,376.3 75.6,391 5.6,353.3 		"/>
		<polygon class="st1" points="3.2,392.2 3.2,356.9 73.5,394.7 73.5,430 12.7,397.2 		"/>
		<path class="st0" d="M11.7,401.6l62.9,33.9c0.3,0.2,0.7,0.3,1,0.3c0.4,0,0.7-0.1,1-0.3l0,0l19.9-10.9l6.1,3.3l-27,14.7l-70-37.7
			L11.7,401.6z"/>
		<polygon class="st0" points="3.2,408.5 73.5,446.3 73.5,481.5 3.2,443.7 		"/>
		<polygon class="st0" points="105,466.7 77.8,481.5 77.8,446.3 105,431.5 		"/>
		<polygon class="st1" points="148,443.7 120.7,458.6 120.7,423.4 148,408.5 		"/>
		<polygon class="st0" points="148,392.2 120.7,407 120.7,371.8 148,356.9 		"/>
	</g>
	<g>
		<g>
			<path d="M214,343.2c16.2-16.2,35.9-24.2,59.5-24.2s43.3,8,59.3,24.2c16.2,16,24.2,35.5,24.2,58.7c0,23.2-8,42.6-24,58.7
				c-16,15.8-35.9,23.8-59.7,23.8c-23.8,0-43.7-8-59.5-23.8C198,444.7,190,425.3,190,402.1C190,378.9,198,359.2,214,343.2z
				 M306.7,435.6c8.9-9.1,13.4-20.3,13.2-33.8c-0.2-13.6-4.8-25.1-13.6-34c-8.9-9.1-19.9-13.6-32.7-13.6c-13,0-24,4.5-32.9,13.6
				c-8.9,9.1-13.4,20.3-13.4,34c0,13.4,4.5,24.7,13.4,33.8c8.9,8.9,19.9,13.4,32.9,13.4C286.7,449.1,297.8,444.5,306.7,435.6z"/>
			<path d="M443.3,321.8c19.5,0,34,5.2,43.5,15.6c9.7,10.4,14.5,23.2,14.5,38.5s-5,27.9-14.9,37.9c-10,10-25.1,14.9-45.7,14.9h-22.9
				v53H382v-160H443.3z M442,396.5c14.7,0,22.7-9.5,22.7-21c0-11.5-8.2-20.8-21.2-20.8h-25.8v41.8H442z"/>
			<path d="M522.7,481.8v-160h111.7v33.3h-75.8v29.7h70.1v33.1h-70.1v30.5h75.6v33.3H522.7z"/>
			<path d="M759.5,481.8l-10.6-32.3h-53.7l-11,32.3h-37.2l60-160h31.2l58.7,160H759.5z M722.3,367.5L705,418.1h34.4L722.3,367.5z"/>
		</g>
	</g>
</g>
</svg>
