<svg id="Layer_1" data-name="Layer 1" xmlns="http://www.w3.org/2000/svg" viewBox="0 0 400 400"><defs><style>.cls-1{fill:#fff;}</style></defs><path class="cls-1" d="M304.32273,195.256c-5.26563,0-9.54785,3.84155-9.54785,8.56152,0,4.72272,4.28222,8.56543,9.54785,8.56543,5.26318,0,9.54541-3.84271,9.54541-8.56543C313.86814,199.09746,309.58591,195.256,304.32273,195.256Z"/><path class="cls-1" d="M258.687,203.81749a40.9626,40.9626,0,0,1,6.1748-21.57672A44.511,44.511,0,0,1,280.251,167.344l.10645-.10919.7102-.35882a47.03312,47.03312,0,0,1,14.32739-5.15931c1.1521-.217,2.3274-.38964,3.51416-.51965a25.77537,25.77537,0,0,0,10.0708-16.60895,52.56132,52.56132,0,0,0-48.46533-32.65484,48.77668,48.77668,0,0,0-48.5354,48.73333v5.15119h-5.15307a58.28017,58.28017,0,0,0-58.2212,58.19574v58.19964l60.37867-.01641a36.50622,36.50622,0,0,0,30.93994-55.86512,53.858,53.858,0,0,1-4.04029-5.29577,36.57127,36.57127,0,0,0-26.87158-11.81311V198.93029a46.87975,46.87975,0,0,1,19.16822,4.13372,51.23786,51.23786,0,0,1-1.20289-11.00085h10.28882a41.68464,41.68464,0,0,0,6.76978,22.67218,46.62055,46.62055,0,0,1,4.12744,5.39227A48.11155,48.11155,0,0,0,272.635,234.71343q-.43395-.39314-.85376-.79236A41.41836,41.41836,0,0,1,258.687,203.81749Z"/><path class="cls-1" d="M99.80783,205.12621a38.54071,38.54071,0,1,0-.01367,77.08142h38.57032v-38.5304A38.60376,38.60376,0,0,0,99.80783,205.12621Z"/><path class="cls-1" d="M304.32273,171.18572c-1.062,0-2.1145.04236-3.123.12726l-.03491.0028a37.15461,37.15461,0,0,0-14.84326,4.41181l-.34693.19085c-10.64673,5.98151-17.00879,16.41028-17.00879,27.899,0,17.82379,15.11621,32.14936,34.376,32.62384v.00275h.0603v-.00275c.05786.00275.1062.00275.15723.00275l.77734.01184v-.00006c19.48413-.00739,35.32935-14.64459,35.32935-32.63837S323.8093,171.18572,304.32273,171.18572Zm0,51.486c-10.93823,0-19.83594-8.456-19.83594-18.85419,0-10.39428,8.89771-18.85125,19.83594-18.85125s19.83594,8.457,19.83594,18.85125C324.15867,214.21563,315.261,222.67168,304.32273,222.67168Z"/><path class="cls-1" d="M200.459,6.2116C95.04978,6.2116,9.59617,91.66246,9.59617,197.07317c0,105.41,85.45361,190.86352,190.86279,190.86352s190.8623-85.45349,190.8623-190.86352C391.32126,91.66246,305.86814,6.2116,200.459,6.2116ZM304.32273,246.74443c-.354,0-.70557-.00622-1.05274-.01617h-.09716l-18.23707-.236a60.75363,60.75363,0,0,1-29.66821-7.66876,46.81591,46.81591,0,0,1-17.05542,43.38409h26.31641v10.29779H99.79416a48.83259,48.83259,0,1,1,39.1919-77.93091,68.61542,68.61542,0,0,1,62.90429-58.87707,59.09951,59.09951,0,0,1,58.60816-54.05457,62.597,62.597,0,0,1,58.57031,40.49524l.43262,1.15674-.134,1.22845a35.94552,35.94552,0,0,1-6.605,17.10846h-.00024c21.14551,3.73493,37.19629,21.23065,37.19629,42.18573C349.95847,227.48833,329.48435,246.74443,304.32273,246.74443Z"/></svg>