<?xml version="1.0" encoding="UTF-8"?><svg id="Layer_1" xmlns="http://www.w3.org/2000/svg" viewBox="0 0 30 30"><defs><style>.cls-1{fill:#810202;}</style></defs><path class="cls-1" d="M19.76123,29.57919l.12985-.00987,.12796-.01626,.12591-.02248,.24502-.063,.2349-.08598,.2235-.10767,.21081-.12806,.19682-.14718,.18158-.16501,.16501-.18156,.14719-.19684,.12806-.21081,.10767-.2235,.08598-.2349,.063-.24502,.02248-.12591,.01626-.12796,.00987-.12983,.00334-.13157V2.80974l-.00334-.13156-.00987-.12985-.01626-.12796-.02248-.12591-.063-.24502-.08598-.2349-.10767-.2235-.12806-.21081-.14719-.19682-.16501-.18158-.18158-.16502-.19682-.14718-.21081-.12806-.2235-.10767-.2349-.08598-.24502-.063-.12591-.02248-.12796-.01626-.12985-.00987-.13155-.00334H10.2361l-.13157,.00334-.12985,.00987-.12796,.01626-.12591,.02248-.24502,.063-.2349,.08598-.2235,.10767-.21081,.12806-.19682,.14718-.18158,.16502-.16501,.18158-.14718,.19682-.12806,.21081-.10767,.2235-.08598,.2349-.063,.24502-.02248,.12591-.01626,.12796-.00987,.12985-.00332,.13156V27.02576l.00332,.13157,.00987,.12983,.01626,.12796,.02248,.12591,.063,.24502,.08598,.2349,.10767,.2235,.12806,.21081,.14718,.19684,.16501,.18156,.18158,.16501,.19682,.14718,.21081,.12806,.2235,.10767,.2349,.08598,.24502,.063,.12591,.02248,.12796,.01626,.12985,.00987,.13157,.00334h9.39357l.13155-.00334Zm-4.89713-15.80645l-.15143-.00348-.14945-.00695-.14747-.01043-.1455-.01389-.14352-.01739-.14154-.02085-.13957-.02434-.13759-.0278-.13559-.03128-.13363-.03476-.13166-.03823-.12968-.04171-.1277-.04519-.12571-.04865-.12375-.05214-.06114-.02737-.06058-.02812-.11937-.05819-.11696-.06075-.11458-.06334-.11219-.06593-.10977-.06849-.10738-.07108-.105-.07363-.10258-.07623-.10019-.0788-.09781-.08137-.0954-.08396-.093-.08652-.09061-.08911-.08821-.09169-.08581-.09426-.04202-.0481-.04139-.04868-.08096-.099-.07851-.10115-.07604-.10331-.07358-.10547-.07113-.10762-.06867-.10979-.06622-.11194-.06375-.11408-.06131-.11626-.05884-.11841-.05639-.12056-.05393-.12273-.05148-.12489-.04902-.12704-.04657-.12919-.02236-.06542-.0217-.06581-.04135-.13249-.03859-.13363-.03583-.13477-.03308-.1359-.03032-.13704-.02756-.13818-.0248-.13933-.02206-.14047-.01929-.14159-.01655-.14275-.01377-.14388-.01103-.145-.00827-.14616-.00552-.14729-.00274-.14845-.00036-.07464,.00036-.07464,.00274-.14843,.00552-.1473,.00827-.14615,.01103-.14502,.01377-.14388,.01655-.14274,.01929-.14161,.02206-.14045,.0248-.13933,.02756-.13818,.03032-.13704,.03308-.13592,.03583-.13476,.03859-.13363,.04135-.13249,.0217-.06583,.02236-.0654,.04657-.1292,.04902-.12704,.05148-.12487,.05393-.12273,.05639-.12058,.05884-.11841,.06131-.11625,.06375-.1141,.06622-.11193,.06867-.10979,.07113-.10762,.07358-.10546,.07604-.10331,.07851-.10116,.08096-.09898,.04139-.0487,.04202-.04809,.08581-.09428,.08821-.09167,.09061-.08911,.093-.08654,.0954-.08395,.09781-.08137,.10019-.0788,.10258-.07623,.105-.07365,.10738-.07108,.10977-.06849,.11219-.06591,.11458-.06334,.11696-.06077,.11937-.05819,.06058-.02812,.06114-.02737,.12375-.05212,.12571-.04867,.1277-.04519,.12968-.04169,.13166-.03823,.13363-.03476,.13559-.03129,.13759-.0278,.13957-.02432,.14154-.02086,.14352-.01737,.1455-.01391,.14747-.01043,.14945-.00694,.15143-.00348,.07645-.00044,.07645,.00044,.15138,.00348,.14933,.00694,.14729,.01043,.14526,.01391,.14323,.01737,.14117,.02086,.13916,.02432,.13709,.0278,.13508,.03129,.13302,.03476,.13099,.03823,.12896,.04169,.12692,.04519,.12489,.04867,.12284,.05212,.06065,.02737,.06012,.02812,.11846,.05819,.11615,.06077,.11379,.06334,.11146,.06591,.10912,.06849,.10679,.07108,.10444,.07365,.10212,.07623,.09978,.0788,.09743,.08137,.0951,.08395,.09278,.08654,.09042,.08911,.08809,.09167,.08574,.09428,.042,.04809,.0414,.0487,.08096,.09898,.07849,.10116,.07605,.10331,.07358,.10546,.07113,.10762,.06867,.10979,.06622,.11193,.06375,.1141,.06131,.11625,.05884,.11841,.05638,.12058,.05393,.12273,.05148,.12487,.04902,.12704,.04657,.1292,.02235,.0654,.02171,.06583,.04135,.13249,.03859,.13363,.03583,.13476,.03309,.13592,.03032,.13704,.02756,.13818,.0248,.13933,.02206,.14045,.0193,.14161,.01653,.14274,.01379,.14388,.01103,.14502,.00827,.14615,.0055,.1473,.00276,.14843,.00034,.07464-.00034,.07464-.00276,.14845-.0055,.14729-.00827,.14616-.01103,.145-.01379,.14388-.01653,.14275-.0193,.14159-.02206,.14047-.0248,.13933-.02756,.13818-.03032,.13704-.03309,.1359-.03583,.13477-.03859,.13363-.04135,.13249-.02171,.06581-.02235,.06542-.04657,.12919-.04902,.12704-.05148,.12489-.05393,.12273-.05638,.12056-.05884,.11841-.06131,.11626-.06375,.11408-.06622,.11194-.06867,.10979-.07113,.10762-.07358,.10547-.07605,.10331-.07849,.10115-.08096,.099-.0414,.04868-.042,.0481-.08574,.09426-.08809,.09169-.09042,.08911-.09278,.08652-.0951,.08396-.09743,.08137-.09978,.0788-.10212,.07623-.10444,.07363-.10679,.07108-.10912,.06849-.11146,.06593-.11379,.06334-.11615,.06075-.11846,.05819-.06012,.02812-.06065,.02737-.12284,.05214-.12489,.04865-.12692,.04519-.12896,.04171-.13099,.03823-.13302,.03476-.13508,.03128-.13709,.0278-.13916,.02434-.14117,.02085-.14323,.01739-.14526,.01389-.14729,.01043-.14933,.00695-.15138,.00348-.07645,.00043-.07645-.00043Zm.14333-.58291l.13237-.00324,.13051-.00648,.12866-.00972,.1268-.01294,.12496-.01618,.12308-.01941,.12123-.02265,.11937-.02589,.11751-.02911,.11565-.03237,.11379-.03559,.11195-.03883,.11008-.04207,.10822-.04531,.10636-.04854,.05248-.02548,.10353-.05287,.2011-.11243,.19319-.12128,.1853-.13016,.17737-.13902,.16946-.1479,.16155-.15676,.15364-.16563,.07386-.08615,.07179-.08817,.13711-.18192,.12847-.18937,.11986-.19679,.11122-.20422,.10258-.21167,.09397-.21908,.08533-.22651,.03943-.11604,.03716-.11744,.06712-.23778,.05753-.24162,.04793-.24545,.03835-.24929,.02877-.25312,.01918-.25696,.00958-.26079,.00119-.13184-.00119-.13183-.00958-.26079-.01918-.25695-.02877-.25312-.03835-.24929-.04793-.24545-.05753-.24161-.06712-.23778-.03716-.11746-.03943-.11604-.08533-.22651-.09397-.21908-.10258-.21165-.11122-.20422-.11986-.1968-.12847-.18935-.13711-.18194-.07179-.08818-.07386-.08613-.15364-.16564-.16155-.15677-.16946-.14788-.17737-.13902-.1853-.13016-.19319-.12129-.2011-.11241-.10353-.05289-.05248-.02548-.10636-.04853-.10822-.04531-.11008-.04207-.11195-.03883-.11379-.03561-.11565-.03235-.11751-.02913-.11937-.02588-.12123-.02265-.12308-.01942-.12496-.01619-.1268-.01294-.12866-.00972-.13051-.00646-.13237-.00324-.06688-.00041-.06688,.00041-.13242,.00324-.13063,.00646-.12884,.00972-.12704,.01294-.12525,.01619-.12344,.01942-.12165,.02265-.11984,.02588-.11805,.02913-.11625,.03235-.11446,.03561-.11265,.03883-.11086,.04207-.10907,.04531-.10727,.04853-.05296,.02548-.10444,.05289-.20279,.11241-.19464,.12129-.18649,.13016-.17833,.13902-.17018,.14788-.16205,.15677-.15388,.16564-.07389,.08613-.07178,.08818-.13711,.18194-.12849,.18935-.11984,.1968-.11122,.20422-.10259,.21165-.09395,.21908-.08533,.22651-.03944,.11604-.03714,.11746-.06712,.23778-.05753,.24161-.04793,.24545-.03835,.24929-.02877,.25312-.01918,.25695-.00958,.26079-.00121,.13183,.00121,.13184,.00958,.26079,.01918,.25696,.02877,.25312,.03835,.24929,.04793,.24545,.05753,.24162,.06712,.23778,.03714,.11744,.03944,.11604,.08533,.22651,.09395,.21908,.10259,.21167,.11122,.20422,.11984,.19679,.12849,.18937,.13711,.18192,.07178,.08817,.07389,.08615,.15388,.16563,.16205,.15676,.17018,.1479,.17833,.13902,.18649,.13016,.19464,.12128,.20279,.11243,.10444,.05287,.05296,.02548,.10727,.04854,.10907,.04531,.11086,.04207,.11265,.03883,.11446,.03559,.11625,.03237,.11805,.02911,.11984,.02589,.12165,.02265,.12344,.01941,.12525,.01618,.12704,.01294,.12884,.00972,.13063,.00648,.13242,.00324,.06688,.00039,.06688-.00039Zm-4.40061,14.34729v-10.9532h3.5897l.09157,.00044,.18018,.0036,.1763,.00719,.17241,.01079,.16851,.01437,.1646,.01798,.16072,.02158,.15681,.02516,.15293,.02877,.14904,.03235,.14514,.03595,.14124,.03956,.13735,.04314,.13345,.04674,.12956,.05033,.12566,.05393,.06136,.02833,.06051,.02906,.1187,.05991,.11565,.06232,.1126,.06472,.10955,.06712,.10648,.06951,.10343,.07191,.10038,.0743,.09731,.0767,.09426,.07911,.09121,.08149,.08816,.0839,.08509,.08628,.08204,.08869,.07897,.09109,.07594,.09349,.0368,.04764,.0361,.04814,.07017,.09757,.06748,.09924,.06477,.10091,.06208,.1026,.05938,.10426,.05669,.10595,.05398,.10762,.05131,.10929,.0486,.11098,.0459,.11265,.04321,.11434,.0405,.11601,.03782,.1177,.03511,.11937,.03242,.12105,.01519,.06116,.02881,.12296,.052,.24736,.04459,.24929,.03716,.25121,.02971,.25312,.02229,.25503,.01486,.25696,.00743,.25888,.00092,.13016-.00116,.14511-.00936,.28643-.01868,.28141-.02806,.27637-.0374,.27132-.04674,.26631-.05608,.26127-.06544,.25624-.03624,.12624-.01901,.06254-.03997,.12349-.04255,.12141-.04513,.1193-.04769,.11722-.05028,.11512-.05284,.11301-.05543,.11091-.05802,.10883-.06058,.10672-.06315,.10462-.06574,.10254-.06832,.10043-.07089,.09833-.07346,.09624-.07604,.09414-.039,.04629-.03963,.04572-.08119,.08957-.08378,.08713-.08635,.08468-.08892,.08221-.09152,.07975-.09407,.07732-.09666,.07485-.09924,.07237-.10181,.06994-.10438,.06748-.10697,.06501-.10953,.06257-.11212,.0601-.1147,.05765-.11727,.05519-.05961,.02668-.06027,.02594-.12266,.04945-.12549,.04614-.1283,.04283-.13111,.03956-.13394,.03625-.13674,.03295-.13957,.02966-.14238,.02637-.14521,.02308-.148,.01977-.15083,.01648-.15364,.01318-.15646,.00989-.15929,.0066-.1621,.00329-.08211,.00043h-3.55902Zm3.7163-.58388l.192-.00743,.19223-.01486,.19249-.0223,.19271-.02971,.19295-.03716,.19319-.04459,.19344-.052,.0968-.02879,.09627-.03099,.18913-.06951,.18456-.07958,.18001-.08964,.17545-.09971,.17091-.10979,.16634-.11984,.16181-.12992,.07917-.06873,.03908-.03539,.07677-.07299,.0749-.07597,.07306-.07899,.07118-.08197,.06934-.08499,.06746-.08795,.06562-.09097,.06377-.09397,.06189-.09695,.06005-.09995,.05819-.10295,.05632-.10595,.05448-.10894,.05262-.11194,.05074-.11494,.02468-.05858,.02407-.05945,.04585-.1217,.04278-.12547,.03973-.12927,.03666-.13302,.03363-.13682,.03056-.14057,.02749-.14436,.02446-.14814,.02139-.15191,.01834-.15569,.01527-.15946,.01222-.16322,.00917-.16701,.00612-.17079,.00305-.17456,.00037-.08869-.00087-.13873-.00694-.26991-.01391-.25982-.02085-.24976-.02782-.23971-.03475-.22963-.04171-.21956-.04865-.2095-.02695-.10096-.02833-.09873-.05993-.19152-.06424-.18361-.06856-.1757-.07287-.16779-.07718-.15988-.08149-.15196-.0858-.14407-.04454-.06905-.04548-.06717-.09348-.12896-.09685-.12177-.10019-.11458-.10355-.10738-.10691-.10019-.11025-.093-.11362-.08581-.05807-.04021-.0586-.03874-.11794-.07408-.11889-.06951-.11984-.06496-.1208-.06039-.12177-.05586-.12272-.05129-.12368-.04676-.06221-.02165-.06232-.02066-.12463-.03859-.12465-.03499-.12463-.0314-.12465-.0278-.12463-.02422-.12465-.02061-.12463-.01701-.06233-.00716-.12308-.0126-.23681-.02013-.22436-.01343-.21189-.0067-.10128-.00083h-2.80733v9.78731h2.9454l.09591-.00094Z"/></svg>