<?xml version="1.0" encoding="UTF-8"?><svg id="Layer_1" xmlns="http://www.w3.org/2000/svg" viewBox="0 0 500 500"><defs><style>.cls-1{fill:none;}.cls-2{fill:#b23481;}.cls-3{fill:#a42e76;opacity:.7;}</style></defs><path class="cls-1" d="m200.00684,274.34442v-26.19391c0-30.22766-.00049-60.45532-.00098-90.68298v-15.8327c0-1.18347-.04346-2.36774-.01172-3.55017.05078-1.88-.81348-2.35938-2.65039-2.25848-1.69287.09296-3.37061.23553-5.04102.40143-3.21631.31934-6.3916.76825-9.52344,1.35657-3.24316.60931-6.44336,1.35602-9.59521,2.25201-3.27539.93115-6.50098,2.01581-9.67578,3.25439v.00006c-3.31152,1.29187-6.56641,2.7533-9.7666,4.37726-3.03174,1.53851-6.01416,3.22198-8.94434,5.0564-.31396.19641-.61426.40729-.92529.60651l-.00049.00006c-3.4873,2.23193-6.8252,4.62878-9.99268,7.19037v.00006c-3.60107,2.91217-6.99414,6.02338-10.16406,9.31555-3.80322,3.94971-7.27441,8.16473-10.42773,12.58386v.00006c-4.27539,5.99182-7.93652,12.3736-10.94727,19.04523-10.46094,23.17889-13.05176,49.81451-6.08105,75.50476.07617.28149.13916.56421.21777.84546,1.979,7.07526,4.4834,13.76587,7.51172,20.07062,0,0-.00049,0,0,.00006,2.41455,5.02808,5.1748,9.80164,8.25928,14.33472,2.60449,3.82745,5.44873,7.47693,8.53174,10.94855,0,0,.00049-.00006.00049,0,2.71582,3.05817,5.61963,5.97656,8.7085,8.75671,2.79053,2.51172,5.73975,4.90472,8.83496,7.18811,2.43066,1.79291,4.93262,3.5318,7.55176,5.18323.45605.28772.91797.55975,1.37695.83972,2.95068,1.79944,5.95654,3.44025,9.01758,4.92273,2.98291,1.44495,6.0166,2.74438,9.1001,3.89667,3.01221,1.12567,6.0708,2.11511,9.1748,2.9693,3.03809.83618,6.11963,1.5437,9.24219,2.1272l.00049.00006c3.06201.5722,6.16455,1.02289,9.3042,1.35901.25488.02728.50781.06122.76318.08698,6.11523.61676,6.15283.48456,6.15283-5.63361.00098-26.7738,0-53.54755-.00049-80.32135v-.00049Z"/><path class="cls-2" d="m290.58789,318.51825c2.29346-3.0036,4.50098-6.15179,6.61426-9.45612,1.4873-2.32471,2.84961-4.68323,4.13037-7.06384,10.51807-19.55438,14.18896-40.94812,12.58496-63.52747-.6875-9.6792-2.45068-18.87848-5.24561-27.60608-2.06348-6.44421-4.70117-12.62579-7.9209-18.53711-2.45312-4.50409-5.23633-8.85431-8.36328-13.04297-2.62354-3.51422-5.49268-6.9126-8.59229-10.20142-.69189-.73407-1.37061-1.47449-2.08594-2.19727-2.16406-2.18579-4.38379-4.2489-6.65137-6.20416-2.87207-2.47626-5.82617-4.76776-8.85986-6.87976-2.91504-2.0296-5.90381-3.89252-8.96338-5.59119-2.95264-1.6391-5.97119-3.12585-9.05469-4.46173-2.98584-1.29358-6.03027-2.44965-9.13525-3.46338-3.01416-.98425-6.08447-1.83624-9.20752-2.56073-3.04053-.70526-6.13232-1.28699-9.27295-1.74988-3.06445-.45166-6.17529-.79065-9.33203-1.01495-2.00439-.14246-4.02539-.2439-6.06641-.29578-1.54785-.03937-2.58398-.28955-3.25293-.87744-.73926-.64972-1.02783-1.71454-1.00049-3.41907.16553-10.41559.06152-20.83545.06152-31.25372-.00293-10.65503-.07764-21.31091.04688-31.96448.0293-2.53522-.58398-3.65881-2.84668-3.83093-.29297-.02228-.60596-.03284-.95654-.02405-2.83545.07092-5.6626.20752-8.48633.38379-3.16309.19751-6.32178.46283-9.47754.79388-.85205.08936-1.7041.16882-2.55566.26801-2.33203.27148-4.64941.57812-6.95361.91675-3.20947.47156-6.38965,1.01331-9.54443,1.61694-3.22168.61652-6.41553,1.30243-9.57959,2.05908-3.23682.77393-6.44385,1.61926-9.61865,2.5423-3.25293.94562-6.47412,1.96741-9.66113,3.07227-3.27148,1.13397-6.5083,2.35138-9.7085,3.65601-3.2915,1.34167-6.54492,2.77545-9.76025,4.30078-3.31445,1.5722-6.58594,3.24597-9.81787,5.01666-3.33936,1.82959-6.63281,3.76935-9.88232,5.8147-3.3667,2.11914-6.68555,4.35358-9.9541,6.7085-3.1709,2.28473-6.29785,4.67548-9.375,7.1861-.22412.1828-.43945.3725-.6626.55615-3.51367,2.8941-6.89209,5.89471-10.13818,8.99799-3.5918,3.43329-7.01514,6.99707-10.2749,10.68701-3.70264,4.19202-7.19873,8.54321-10.46631,13.06744-3.91162,5.41608-7.50439,11.07361-10.78027,16.96722-2.67285,4.80865-5.1416,9.76935-7.38379,14.89685-1.44824,3.31238-2.78906,6.64032-4.03369,9.98193-10.99365,29.51685-14.06445,60.16461-9.56006,91.75378.42285,2.96405.91455,5.89606,1.46143,8.80261,1.75928,9.35278,4.16357,18.40558,7.22803,27.14331,2.26758,6.46619,4.89697,12.7597,7.89355,18.87476,2.48535,5.07153,5.22412,10.02008,8.21875,14.84241,2.6123,4.20654,5.41602,8.3186,8.4209,12.33057,2.69434,3.59778,5.5498,7.11536,8.56396,10.55322,1.7793,2.02985,3.60791,4.03479,5.5,6.00793,1.04834,1.09381,2.10693,2.16528,3.16992,3.22668,2.86475,2.86035,5.78418,5.59741,8.75146,8.22565,2.89209,2.56152,5.8335,5.01215,8.82129,7.35712,2.91797,2.29004,5.87744,4.48639,8.88477,6.57355,2.93896,2.03998,5.9209,3.98285,8.94385,5.83246,2.95947,1.81061,5.96094,3.52521,8.99854,5.15662,2.979,1.59955,5.99561,3.11206,9.04834,4.54236,2.99609,1.40393,6.02783,2.72723,9.09424,3.97089,3.01221,1.22192,6.05811,2.36798,9.13672,3.43787,3.02783,1.05225,6.08691,2.03223,9.17725,2.94,3.0415.89355,6.11328,1.71783,9.21436,2.47388,3.05518.74475,6.13867,1.42322,9.25,2.03693,3.06738.60498,6.16211,1.14661,9.28271,1.62646,3.0791.47339,6.18408.88666,9.31396,1.24042,3.09033.34918,6.20459.64203,9.34375.87665,2.75684.20612,5.52734.37909,8.32129.49835.37744.01611.72266.02942,1.04883.04022,4.31738.14301,4.33887-.32037,4.34033-5.19159.00391-16.2533.00244-32.50659.00488-48.75983.00049-4.22809-.00049-8.45612.00146-12.6842.00146-3.25739.02002-4.33929,1.40186-4.73981.71924-.20844,1.80029-.23566,3.45508-.28174,2.0293-.05652,4.02686-.1687,6.00684-.31323,3.23193-.2359,6.39844-.58734,9.49902-1.05597,3.25879-.49261,6.44873-1.10693,9.56299-1.85406,3.29297-.7901,6.50635-1.71991,9.63867-2.79169,3.33447-1.14099,6.5752-2.44611,9.72852-3.90283,3.38281-1.56299,6.65967-3.31085,9.83496-5.23291,3.44336-2.08429,6.76709-4.37506,9.96777-6.87604,3.52686-2.75574,6.90625-5.76337,10.14014-9.01776,3.64258-3.66541,7.10107-7.6424,10.37451-11.92987Zm-96.7334,41.78162c-.25537-.02576-.5083-.05969-.76318-.08698-3.13965-.33612-6.24219-.7868-9.3042-1.35901l-.00049-.00006c-3.12256-.5835-6.2041-1.29102-9.24219-2.1272-3.104-.85419-6.1626-1.84363-9.1748-2.9693-3.0835-1.15228-6.11719-2.45172-9.1001-3.89667-3.06104-1.48248-6.06689-3.12329-9.01758-4.92273-.45898-.27997-.9209-.552-1.37695-.83972-2.61914-1.65143-5.12109-3.39032-7.55176-5.18323-3.09521-2.28339-6.04443-4.67639-8.83496-7.18811-3.08887-2.78015-5.99268-5.69855-8.7085-8.75671,0-.00006-.00049,0-.00049,0-3.08301-3.47162-5.92725-7.12109-8.53174-10.94855-3.08447-4.53308-5.84473-9.30664-8.25928-14.33472-.00049-.00006,0-.00006,0-.00006-3.02832-6.30475-5.53271-12.99536-7.51172-20.07062-.07861-.28125-.1416-.56396-.21777-.84546-6.9707-25.69025-4.37988-52.32587,6.08105-75.50476,3.01074-6.67163,6.67188-13.05341,10.94727-19.04523v-.00006c3.15332-4.41913,6.62451-8.63416,10.42773-12.58386,3.16992-3.29218,6.56299-6.40338,10.16406-9.31555v-.00006c3.16748-2.56158,6.50537-4.95844,9.99268-7.19037l.00049-.00006c.31104-.19922.61133-.4101.92529-.60651,2.93018-1.83441,5.9126-3.51788,8.94434-5.0564,3.2002-1.62396,6.45508-3.08539,9.7666-4.37726v-.00006c3.1748-1.23859,6.40039-2.32324,9.67578-3.25439,3.15186-.896,6.35205-1.6427,9.59521-2.25201,3.13184-.58832,6.30713-1.03723,9.52344-1.35657,1.67041-.16589,3.34814-.30847,5.04102-.40143,1.83691-.10089,2.70117.37848,2.65039,2.25848-.03174,1.18243.01172,2.3667.01172,3.55017v15.8327c.00049,30.22766.00098,60.45532.00098,90.68298v26.1944c.00049,26.7738.00146,53.54755.00049,80.32135,0,6.11816-.0376,6.25037-6.15283,5.63361Z"/><path class="cls-3" d="m397.84131,293.30554c-12.15771-10.27277-19.4165-23.01367-21.04053-38.67078-2.16797-20.89722,4.57666-38.51862,20.93262-52.1059,3.04297-2.52765,5.7793-5.40399,7.83691-8.68048,8.31104-13.23444,9.59668-27.15991,2.08154-41.06201-7.51318-13.89899-19.5415-21.26685-35.47363-21.35004-30.96924-.1618-50.32666,33.23254-34.94678,60.07483,2.52881,4.41315,5.88184,8.14899,9.76758,11.38708,2.32617,1.93829,4.58398,3.92633,6.5708,6.2124,22.18994,25.53217,17.48438,64.7182-6.89404,83.98846-9.94629,7.86169-14.6499,18.63263-14.82275,31.40656.08545,1.50378.06934,3.07983.27783,4.62555,3.2793,24.30157,26.75879,40.2002,50.42822,33.70447,15.53711-4.26398,25.53564-14.651,28.9209-30.43097,3.33398-15.54279-1.59375-28.92139-13.63867-39.09918Z"/><path class="cls-3" d="m295.41992,136.09692c23.74316-.09583,40.69824-19.92267,40.12354-40.45599-.03955-22.22107-17.90283-40.10016-40.11084-40.14624-22.24854-.0462-40.35254,18.03284-40.38281,40.3269-.02979,22.27795,18.04346,40.36536,40.37012,40.27533Z"/><path class="cls-3" d="m447.92676,209.60834c-22.38965-.05713-40.33105,17.72705-40.38965,40.15967-.05908,22.45129,17.73047,40.30847,40.1875,40.34113,22.27686.03241,39.94873-17.75879,40.27148-39.96588.30615-21.09149-16.94629-40.47589-40.06934-40.53491Z"/><path class="cls-3" d="m310.76562,361.30957c-22.24902-.04614-40.35254,18.0329-40.38281,40.32697-.02979,22.27789,18.04297,40.36536,40.37012,40.27527,23.74316-.09576,40.69824-19.92267,40.12354-40.45593-.03955-22.22113-17.90283-40.10016-40.11084-40.1463Z"/></svg>