<?xml version="1.0" encoding="utf-8"?>
<!-- Generator: Adobe Illustrator 28.3.0, SVG Export Plug-In . SVG Version: 6.00 Build 0)  -->
<svg version="1.1" id="Layer_1" xmlns="http://www.w3.org/2000/svg" xmlns:xlink="http://www.w3.org/1999/xlink" x="0px" y="0px"
	 width="800px" height="223px" viewBox="0 0 800 223" style="enable-background:new 0 0 800 223;" xml:space="preserve">
<style type="text/css">
	.st0{fill:url(#SVGID_1_);}
	.st1{fill:url(#SVGID_00000065766316922467128030000008058854537209944481_);}
	.st2{fill:url(#SVGID_00000005230213539473443140000005177728416237956531_);}
	.st3{fill:url(#SVGID_00000044163286464024734270000012707511363828068488_);}
	.st4{fill:url(#SVGID_00000027569686302537614360000004059933638838347929_);}
	.st5{fill:url(#SVGID_00000151529896076685397080000016594396102390850998_);}
	.st6{fill:url(#SVGID_00000150803438049629914880000005641794195226229937_);}
	.st7{fill:url(#SVGID_00000139289894365315467840000007457530788488605088_);}
	.st8{fill:url(#SVGID_00000021821845325022151680000002704369617129733526_);}
	.st9{fill:url(#SVGID_00000057865658677777047890000016587740460218725308_);}
	.st10{fill:url(#SVGID_00000173148043785818468820000001601045352763016102_);}
	.st11{fill:url(#SVGID_00000090253428821858587750000005827368913106616471_);}
	.st12{fill:url(#SVGID_00000041978210124865180540000011345350540547515293_);}
	.st13{fill:url(#SVGID_00000178185007528098776940000014964531784915131816_);}
	.st14{fill:url(#SVGID_00000164497678694866112690000009219162765599251333_);}
	.st15{fill:url(#SVGID_00000127732041506679656990000004771023817833955503_);}
	.st16{fill:url(#SVGID_00000060730502595642236190000006421291732060944041_);}
	.st17{fill:url(#SVGID_00000018939697324455833360000011623324044633531565_);}
	.st18{fill:url(#SVGID_00000148644120186519260290000006519741921253494427_);}
	.st19{fill:url(#SVGID_00000114753508405427875390000003114721858345326247_);}
	.st20{fill:url(#SVGID_00000051341402117621950860000014534177905035582885_);}
	.st21{fill:url(#SVGID_00000031179917847021570490000009874154967758068907_);}
	.st22{fill:url(#SVGID_00000041269891427607427360000011922952858015284882_);}
	.st23{fill:url(#SVGID_00000014594717400276034780000011781821355272464291_);}
	.st24{fill:url(#SVGID_00000173860261911422017750000018044898259531765147_);}
	.st25{fill:#FFFFFF;}
	.st26{fill:url(#SVGID_00000107567616250756274630000000899696694655000209_);}
	.st27{fill:url(#SVGID_00000093136393867476259990000013694054321619384459_);}
	.st28{fill:url(#SVGID_00000088844462933579512120000005187160860214821025_);}
</style>
<g>
	<path d="M0,0v44.5v44.5v44.5v44.5l77,44.5v-44.5v-44.5V88.9V44.5L38.5,22.2L0,0z M50.4,97.8l6.7-6.7l6.7,6.7l-6.7,6.7l-6.7,6.7
		l-6.7,6.7l-6.7,6.7l-6.7,6.7l-6.7-6.7l-6.7-6.7l-6.7-6.7l6.7-6.7l6.7,6.7l6.7,6.7l6.7-6.7l6.7-6.7L50.4,97.8z"/>
	<path d="M98.6,0v44.5v44.5v44.5v44.5l77,44.5v-44.5v-44.5V88.9V44.5l-38.5-22.2L98.6,0z M149.2,97.8l6.7-6.7l6.7,6.7l-6.7,6.7
		l-6.7,6.7l-6.7,6.7l-6.7,6.7l-6.7,6.7l-6.7-6.7l-6.7-6.7l-6.7-6.7l6.7-6.7l6.7,6.7l6.7,6.7l6.7-6.7l6.7-6.7L149.2,97.8z"/>
	<path d="M197.2,0v44.5v44.5v44.5v44.5l77,44.5v-44.5v-44.5V88.9V44.5l-38.5-22.2L197.2,0z M249.1,97.8l6.7-6.7l6.7,6.7l-6.7,6.7
		l-6.7,6.7l-6.7,6.7l-6.7,6.7l-6.7,6.7l-6.7-6.7l-6.7-6.7l-6.7-6.7l6.7-6.7l6.7,6.7l6.7,6.7l6.7-6.7l6.7-6.7L249.1,97.8z"/>
	<polygon points="317.2,21.4 332.3,49 347.4,21.4 347.4,51.8 357.8,51.8 357.8,3 347.4,3 332.3,30.6 317.2,3 306.7,3 306.7,51.8 
		317.2,51.8 	"/>
	<path d="M393.3,52.7c14.1,0,25.8-11.6,25.8-25.3c0-13.7-11.8-25.2-25.8-25.2s-26,11.5-26,25.2C367.3,41.1,379.2,52.7,393.3,52.7z
		 M393.3,11.7c8.2,0,15.1,7.2,15.1,15.7c0,8.5-7,15.8-15.1,15.8c-8.2,0-15.2-7.2-15.2-15.8C378.1,18.9,385.1,11.7,393.3,11.7z"/>
	<path d="M474.2,27.4c0-14.3-11.6-24.3-28-24.3h-17.5v48.8h17.5C462.6,51.8,474.2,41.7,474.2,27.4z M439.2,12.6h8.4
		c9.3,0,15.9,6.2,15.9,14.8c0,8.7-6.6,14.9-15.9,14.9h-8.4V12.6z"/>
	<polygon points="521.1,42.4 494.1,42.4 494.1,31.6 518.6,31.6 518.6,22.2 494.1,22.2 494.1,12.5 521.1,12.5 521.1,3 483.6,3 
		483.6,51.8 521.1,51.8 	"/>
	<polygon points="566.1,42.4 541.8,42.4 541.8,3 531.3,3 531.3,51.8 566.1,51.8 	"/>
	<path d="M329.8,87.4c-14.1,0-26,11.5-26,25.2c0,13.7,11.9,25.3,26,25.3c14.1,0,25.8-11.6,25.8-25.3
		C355.6,98.9,343.8,87.4,329.8,87.4z M329.8,128.3c-8.2,0-15.2-7.2-15.2-15.8c0-8.4,7-15.7,15.2-15.7c8.2,0,15.1,7.2,15.1,15.7
		C344.9,121.1,337.9,128.3,329.8,128.3z"/>
	<path d="M375.6,121.2h11.4c10.6,0,18.4-6.8,18.4-16.5c0-9.7-7.7-16.5-18.4-16.5h-21.9V137h10.5V121.2z M375.6,97.8H386
		c5.2,0,8.7,2.7,8.7,6.9c0,4.2-3.5,6.9-8.7,6.9h-10.4V97.8z"/>
	<polygon points="414.5,137 452,137 452,127.5 425,127.5 425,116.8 449.5,116.8 449.5,107.4 425,107.4 425,97.7 452,97.7 452,88.2 
		414.5,88.2 	"/>
	<polygon points="472.7,88.2 462.1,88.2 462.1,137 472.7,137 472.7,105.5 496.1,137 506.7,137 506.7,88.2 496.1,88.2 496.1,119.7 	
		"/>
	<polygon points="553,119.7 529.5,88.2 519,88.2 519,137 529.5,137 529.5,105.5 553,137 563.5,137 563.5,88.2 553,88.2 	"/>
	<polygon points="613.4,127.5 586.4,127.5 586.4,116.8 610.9,116.8 610.9,107.4 586.4,107.4 586.4,97.7 613.4,97.7 613.4,88.2 
		575.9,88.2 575.9,137 613.4,137 	"/>
	<path d="M660.5,122.4c0-9-7-12.1-17.5-14.5c-7.5-1.7-10.5-2.8-10.5-6.4c0-2.9,2.8-5.3,7.2-5.3c4.7,0,9.6,1.9,14,5.5l5.5-7.6
		c-5-4.3-11.1-6.7-19.1-6.7c-10.7,0-18.1,6.2-18.1,15.2c0,9.4,7.4,12.3,17.7,14.7c7.5,1.7,10.3,2.8,10.3,6.2c0,3.1-2.7,5.5-8,5.5
		c-6.2,0-11.4-2.4-16-6.4l-6,7.2c5.7,5.3,13.1,8.1,21.6,8.1C653.4,137.8,660.5,131.7,660.5,122.4z"/>
	<path d="M689.3,107.9c-7.5-1.7-10.5-2.8-10.5-6.4c0-2.9,2.8-5.3,7.2-5.3c4.7,0,9.6,1.9,14,5.5l5.5-7.6c-5-4.3-11.1-6.7-19.1-6.7
		c-10.7,0-18.1,6.2-18.1,15.2c0,9.4,7.4,12.3,17.7,14.7c7.5,1.7,10.3,2.8,10.3,6.2c0,3.1-2.7,5.5-8,5.5c-6.2,0-11.4-2.4-16-6.4
		l-6,7.2c5.7,5.3,13.1,8.1,21.6,8.1c11.9,0,19-6.2,19-15.5C706.8,113.3,699.9,110.2,689.3,107.9z"/>
	<polygon points="306.7,222.2 317.2,222.2 317.2,202.8 341.8,202.8 341.8,193.4 317.2,193.4 317.2,182.8 344.3,182.8 344.3,173.4 
		306.7,173.4 	"/>
	<path d="M393.6,189.9c0-9.7-7.7-16.5-18.4-16.5h-21.9v48.8h10.5v-15.8h6.3l11.1,15.8h11.9l-11.7-16.7
		C388.8,203.3,393.6,197.5,393.6,189.9z M374.1,196.7h-10.4V183h10.4c5.2,0,8.7,2.7,8.7,6.9S379.3,196.7,374.1,196.7z"/>
	<path d="M418.7,173.4l-19.9,48.8h11.7l3.4-8.4h21.2l3.4,8.4h11.8l-19.9-48.8H418.7z M417.3,205.6l7.2-17.8l7.2,17.8H417.3z"/>
	<polygon points="483.8,200.9 468.8,173.4 458.2,173.4 458.2,222.2 468.8,222.2 468.8,191.8 483.8,219.3 498.9,191.8 498.9,222.2 
		509.3,222.2 509.3,173.4 498.9,173.4 	"/>
	<polygon points="521.8,222.2 559.3,222.2 559.3,212.7 532.3,212.7 532.3,202 556.8,202 556.8,192.6 532.3,192.6 532.3,182.8 
		559.3,182.8 559.3,173.4 521.8,173.4 	"/>
	<polygon points="618.7,206.1 607.9,173.4 596.5,173.4 585.7,206.1 576.7,173.4 565.4,173.4 580.1,222.2 590.7,222.2 602.3,188.7 
		613.8,222.2 624.3,222.2 639.1,173.4 627.7,173.4 	"/>
	<path d="M670.4,172.5c-14.1,0-26,11.5-26,25.2c0,13.7,11.9,25.3,26,25.3c14.1,0,25.8-11.6,25.8-25.3
		C696.2,184,684.4,172.5,670.4,172.5z M670.4,213.5c-8.2,0-15.2-7.2-15.2-15.8c0-8.4,7-15.7,15.2-15.7c8.2,0,15.1,7.2,15.1,15.7
		C685.5,206.3,678.6,213.5,670.4,213.5z"/>
	<path d="M746.1,189.9c0-9.7-7.7-16.5-18.4-16.5h-21.9v48.8h10.5v-15.8h6.3l11.1,15.8h11.9l-11.7-16.7
		C741.2,203.3,746.1,197.5,746.1,189.9z M726.6,196.7h-10.4V183h10.4c5.2,0,8.7,2.7,8.7,6.9S731.8,196.7,726.6,196.7z"/>
	<polygon points="779.6,194.5 798.6,173.4 785.9,173.4 766.2,195.8 766.2,173.4 755.7,173.4 755.7,222.2 766.2,222.2 766.2,208.5 
		772.3,202 787.2,222.2 800,222.2 	"/>
</g>
</svg>
