<?xml version="1.0" encoding="UTF-8"?><svg id="a" xmlns="http://www.w3.org/2000/svg" viewBox="0 0 864 864"><defs><style>.b,.c,.d{fill:#fff;}.c{opacity:.8;}.c,.d{isolation:isolate;}.d{opacity:.6;}</style></defs><path class="b" d="M220.8,604.90002h0c-19.3-5.20001-19.39999-5.70001-12.10001-24.90002,24.39999-63.90002,60.59999-120.20001,106.7-170.79999,61.5-67.39999,135.30002-115.60001,221.19998-145.29999,48.40002-16.7,98.40002-26,149.59998-29.60001,11.20001-.8,14.40002,2.10001,11.59998,13.39999-6.40002,26.60001-7.70001,54.29999-17,80.39999,.79999,.20001,1.5,.39999,2.29999,.5h0c21.29999-4.70001,42.90002-5.79999,64.59998-6,8.79999-.10001,12.59998-2.60001,14.59998-11.89999,12.09998-57.60001,25.20001-115,37.90002-172.5,8.20001-37.1,16.40002-74.2,24.79999-112.4-4.29999,.9-7,1.2-9.59998,2-86.29993,25.29999-170.59991,56.19999-250.3999,97.99999-105,55.09999-198.39999,124.3-269.10001,220.99998-53.2,72.70001-87.5,153.20001-96.8,243.29999-1.10001,10.70001-6.3,7.5-11.8,6.09998-42-10.70001-83.1-24.20001-124-38.40002-7.4-2.59998-10.4-2-12.6,5.79999-8.9,31-12.1,62.20001-5.1,94.09998,18.1,82.29999,94.59999,147.39996,182.89999,157.60004,83.40001,9.70001,165.8,4.5,247.7-12.70001,121.30002-25.5,233.39999-73.59998,337.99997-139.5,2.59998-1.59998,6.09998-2.59998,6.20001-3.59998-29.20001,0-58.59998-.5-87.90002,.09998-121.20001,2.29999-241.70001-6.29999-361.39999-25.20001-45.5-7.20001-90.89999-15.09998-135.5-27.09998h0c-4.99994-.69995-9.89995-1.59991-14.79994-2.3999h0Z"/><path class="d" d="M637.40002,477.10001c18.40002,2.89999,18,3.60001,21.5-15.60001,7.90002-44.39999,16.20001-88.70001,24.29999-133h0c-.79999-.10001-1.5-.29999-2.29999-.5h-.29999c-61.79999,7.29999-121.40002,23.5-179.20001,46.20001-77.70001,30.5-146.89999,74.39999-205.70001,133.60001-27.89999,28.10001-52.60001,59.00003-72.7,93.39999-.7,1.20001-1.39999,2.29999-2.10001,3.5,4.89999,.90002,9.8,1.70001,14.7,2.59998h0c1.10001-1.5,2-3.09998,3.3-4.40002,110.99998-110.59998,244.7-149.99997,398.50002-125.79996h0Z"/><path class="c" d="M686.20001,234.3c-51.09998,3.60001-101.20001,12.89999-149.60004,29.59999-86,29.70001-159.79999,77.89999-221.20001,145.30002-46.10001,50.60001-82.3,106.90002-106.7,170.79999-7.3,19.20001-7.2,19.70001,12.10001,24.90002h0c.7-1.20001,1.39999-2.29999,2.10001-3.5,20-34.40002,44.7-65.29999,72.7-93.39999,58.79999-59.20001,128.10001-103.10001,205.70001-133.60001,57.79999-22.70001,117.40002-38.89999,179.20001-46.20001h.29999c9.29999-26,10.59998-53.79999,17-80.39999,2.79999-11.40002-.39996-14.30002-11.59998-13.50002h0Z"/></svg>