<svg id="Layer_1" data-name="Layer 1" xmlns="http://www.w3.org/2000/svg" viewBox="0 0 199.27 364.51999"><defs><style>.cls-1{fill:#fff;}.cls-2{fill:none;}</style></defs><path class="cls-1" d="M61.0161,333.65677v13.13282l14.11035-13.13282h3.12793l-10.8457,10.08887,11.35545,14.3291H75.77194L65.6743,345.35206l-4.6582,4.34375v8.3789H58.70457v-24.418Z"/><path class="cls-1" d="M80.93016,352.24369a6.60228,6.60228,0,0,0,1.03711,2.23926,5.93731,5.93731,0,0,0,1.80176,1.64257,5.0204,5.0204,0,0,0,2.61816.64942,5.19116,5.19116,0,0,0,3.67188-1.23145,6.48359,6.48359,0,0,0,1.83593-3.2832h2.14162a8.61561,8.61561,0,0,1-2.499,4.65137,7.42038,7.42038,0,0,1-5.15039,1.6416,8.13781,8.13781,0,0,1-3.58692-.73535,6.60758,6.60758,0,0,1-2.46484-2.01758,8.785,8.785,0,0,1-1.41113-2.97559,13.57246,13.57246,0,0,1-.459-3.57324,12.85971,12.85971,0,0,1,.459-3.41992,9.20829,9.20829,0,0,1,1.41113-2.99219,7.07874,7.07874,0,0,1,2.46484-2.12012,7.54916,7.54916,0,0,1,3.58692-.80371,6.92654,6.92654,0,0,1,6.03515,3.09473A9.33237,9.33237,0,0,1,93.76517,346.19a14.08278,14.08278,0,0,1,.33984,3.64258H80.607a9.59065,9.59065,0,0,0,.32317,2.41113Zm10.60742-6.583a6.46619,6.46619,0,0,0-1.10449-2,5.4651,5.4651,0,0,0-1.73437-1.40234,4.93562,4.93562,0,0,0-2.31153-.53125,5.012,5.012,0,0,0-2.3457.53125,5.46514,5.46514,0,0,0-1.73438,1.40234,6.98586,6.98586,0,0,0-1.13867,2.01758,9.89957,9.89957,0,0,0-.56152,2.3418H91.96336A7.84473,7.84473,0,0,0,91.53758,345.66068Zm18.82666,12.41406v-3.35156h-.06836a5.05359,5.05359,0,0,1-1.00293,1.57227,6.47885,6.47885,0,0,1-1.51269,1.21484,7.86172,7.86172,0,0,1-1.81934.76953,7.07022,7.07022,0,0,1-1.9209.27344,7.75143,7.75143,0,0,1-3.48437-.73535,6.9775,6.9775,0,0,1-2.46533-2.01758,8.65971,8.65971,0,0,1-1.46289-2.97559,13.661,13.661,0,0,1,0-7.14648,8.6598,8.6598,0,0,1,1.46289-2.97559,7.15288,7.15288,0,0,1,2.46533-2.03515,7.59877,7.59877,0,0,1,3.48437-.752,7.73122,7.73122,0,0,1,1.9209.23926,6.41084,6.41084,0,0,1,1.751.73535,6.19962,6.19962,0,0,1,1.44531,1.21387,5.107,5.107,0,0,1,.96875,1.67578h.06836v-10.123h2.1416v24.418Zm-11.74756-6.10547a7.52736,7.52736,0,0,0,1.02051,2.41211,5.62323,5.62323,0,0,0,1.78467,1.72657,4.91906,4.91906,0,0,0,2.61816.667,5.48881,5.48881,0,0,0,4.77735-2.39356,7.13064,7.13064,0,0,0,1.05371-2.41211,11.59129,11.59129,0,0,0,0-5.43652,7.13386,7.13386,0,0,0-1.05371-2.41113,5.49245,5.49245,0,0,0-4.77735-2.39453,4.91088,4.91088,0,0,0-2.61816.668,5.61294,5.61294,0,0,0-1.78467,1.72656,7.53036,7.53036,0,0,0-1.02051,2.41113,11.59129,11.59129,0,0,0,0,5.43652Zm19.48877-11.541v4.13867h.06836a6.762,6.762,0,0,1,2.53321-3.31836,6.60354,6.60354,0,0,1,4.09672-1.05951v2.1543a6.41691,6.41691,0,0,0-2.65234.39355,5.87733,5.87733,0,0,0-3.39942,3.35157,6.81457,6.81457,0,0,0-.47656,2.582v9.40429h-2.14168V340.42826Zm19.00977.23926a7.75763,7.75763,0,0,1,2.60153,2.01855,8.75085,8.75085,0,0,1,1.59766,2.957,12.23751,12.23751,0,0,1,0,7.21582,8.756,8.756,0,0,1-1.59766,2.958,7.56578,7.56578,0,0,1-2.60156,2.001,8.9499,8.9499,0,0,1-7.10547,0,7.5474,7.5474,0,0,1-2.60156-2.001,8.72224,8.72224,0,0,1-1.59766-2.958,12.23751,12.23751,0,0,1,0-7.21582,8.71757,8.71757,0,0,1,1.59766-2.957,7.73874,7.73874,0,0,1,2.60156-2.01855,8.76877,8.76877,0,0,1,7.10547,0Zm-6.23926,1.71a5.93053,5.93053,0,0,0-1.9209,1.71,7.76668,7.76668,0,0,0-1.15527,2.41113,9.87216,9.87216,0,0,0,0,5.50586,7.75,7.75,0,0,0,1.15527,2.41016,5.63132,5.63132,0,0,0,9.21387,0,7.75233,7.75233,0,0,0,1.15625-2.41016,9.87216,9.87216,0,0,0,0-5.50586,7.768,7.768,0,0,0-1.15625-2.41113,5.6329,5.6329,0,0,0-7.293-1.71Z"/><polygon class="cls-2" points="157.661 134.16 161.741 138.24 170.046 146.544 185.32 131.27 172.936 118.886 160.452 131.369 157.661 134.16"/><polygon class="cls-2" points="41.608 134.16 38.817 131.369 26.333 118.887 13.95 131.27 29.224 146.544 37.528 138.24 41.608 134.16"/><polygon class="cls-1" points="99.635 8.09 97.978 9.747 101.291 9.747 99.635 8.09"/><polygon class="cls-1" points="101.291 9.747 97.978 9.747 82.775 24.95 116.494 24.95 101.291 9.747"/><polygon class="cls-1" points="99.635 38.514 101.272 40.152 131.697 40.152 116.494 24.95 82.775 24.95 67.572 40.152 97.997 40.152 99.635 38.514"/><polygon class="cls-1" points="116.475 55.355 146.9 55.355 131.697 40.152 101.272 40.152 116.475 55.355"/><polygon class="cls-1" points="97.997 40.152 67.572 40.152 52.37 55.355 82.794 55.355 97.997 40.152"/><polygon class="cls-1" points="131.678 70.558 162.103 70.558 146.9 55.355 116.475 55.355 131.678 70.558"/><polygon class="cls-1" points="82.794 55.355 52.37 55.355 37.167 70.558 67.591 70.558 82.794 55.355"/><polygon class="cls-1" points="67.591 70.558 37.167 70.558 21.964 85.761 52.389 85.761 67.591 70.558"/><polygon class="cls-1" points="146.881 85.761 177.305 85.761 162.103 70.558 131.678 70.558 146.881 85.761"/><polygon class="cls-1" points="52.389 85.761 21.964 85.761 7.585 100.14 8.408 100.963 37.186 100.963 52.389 85.761"/><polygon class="cls-1" points="162.084 100.963 190.861 100.963 191.685 100.14 177.305 85.761 146.881 85.761 162.084 100.963"/><polygon class="cls-1" points="176.472 115.351 190.861 100.963 162.084 100.963 176.472 115.351"/><polygon class="cls-1" points="8.408 100.963 22.798 115.352 37.186 100.963 8.408 100.963"/><polygon class="cls-1" points="98.53 77.245 100.739 77.245 99.635 76.14 98.53 77.245"/><polygon class="cls-1" points="100.739 77.245 98.53 77.245 90.013 85.761 109.256 85.761 100.739 77.245"/><polygon class="cls-1" points="109.256 85.761 90.013 85.761 83.28 92.493 115.99 92.493 109.256 85.761"/><polygon class="cls-1" points="115.99 92.493 83.28 92.493 74.809 100.963 124.461 100.963 115.99 92.493"/><polygon class="cls-1" points="124.461 100.963 74.809 100.963 68.029 107.742 131.24 107.742 124.461 100.963"/><polygon class="cls-1" points="131.24 107.742 68.029 107.742 59.604 116.166 139.665 116.166 131.24 107.742"/><polygon class="cls-1" points="139.665 116.166 59.604 116.166 52.779 122.991 146.491 122.991 139.665 116.166"/><polygon class="cls-1" points="37.528 138.24 45.689 138.24 41.608 134.16 37.528 138.24"/><polygon class="cls-1" points="161.741 138.24 157.661 134.16 153.581 138.24 161.741 138.24"/><polygon class="cls-1" points="146.491 122.991 52.779 122.991 44.4 131.369 154.87 131.369 146.491 122.991"/><polygon class="cls-1" points="157.661 134.16 154.87 131.369 44.4 131.369 41.608 134.16 45.689 138.24 153.581 138.24 157.661 134.16"/><polygon class="cls-1" points="25.688 150.079 22.278 153.489 29.098 153.489 25.688 150.079"/><polygon class="cls-1" points="153.581 138.24 145.248 146.572 138.331 153.489 163.101 153.489 170.046 146.544 161.741 138.24 153.581 138.24"/><polygon class="cls-1" points="54.021 146.572 45.689 138.24 37.528 138.24 29.224 146.544 36.168 153.489 60.939 153.489 54.021 146.572"/><polygon class="cls-1" points="176.992 153.489 173.582 150.079 170.172 153.489 176.992 153.489"/><polygon class="cls-1" points="153.581 138.24 45.689 138.24 54.021 146.572 145.248 146.572 153.581 138.24"/><polygon class="cls-1" points="145.248 146.572 54.021 146.572 60.939 153.489 138.331 153.489 145.248 146.572"/><polygon class="cls-1" points="170.172 153.489 154.923 168.737 191.127 168.737 191.685 168.18 176.992 153.489 170.172 153.489"/><polygon class="cls-1" points="130.044 161.775 123.08 168.737 147.853 168.737 163.101 153.489 138.331 153.489 130.044 161.775"/><polygon class="cls-1" points="29.098 153.489 22.278 153.489 7.585 168.18 8.142 168.737 44.347 168.737 29.098 153.489"/><polygon class="cls-1" points="76.189 168.737 69.226 161.775 60.939 153.489 36.168 153.489 51.417 168.737 76.189 168.737"/><polygon class="cls-1" points="138.331 153.489 60.939 153.489 69.226 161.775 130.044 161.775 138.331 153.489"/><polygon class="cls-1" points="130.044 161.775 69.226 161.775 76.189 168.737 123.08 168.737 130.044 161.775"/><polygon class="cls-1" points="114.839 176.977 107.83 183.986 132.604 183.986 147.853 168.737 123.08 168.737 114.839 176.977"/><polygon class="cls-1" points="84.43 176.977 76.189 168.737 51.417 168.737 66.666 183.986 91.44 183.986 84.43 176.977"/><polygon class="cls-1" points="44.347 168.737 8.142 168.737 23.391 183.986 59.595 183.986 44.347 168.737"/><polygon class="cls-1" points="139.674 183.986 175.879 183.986 191.127 168.737 154.923 168.737 139.674 183.986"/><polygon class="cls-1" points="114.839 176.977 123.08 168.737 76.189 168.737 84.43 176.977 114.839 176.977"/><polygon class="cls-1" points="91.44 183.986 107.83 183.986 114.839 176.977 84.43 176.977 91.44 183.986"/><polygon class="cls-1" points="124.425 199.235 160.63 199.235 175.879 183.986 139.674 183.986 124.425 199.235"/><polygon class="cls-1" points="99.635 192.18 91.44 183.986 66.666 183.986 81.914 199.235 117.355 199.235 132.604 183.986 107.83 183.986 99.635 192.18"/><polygon class="cls-1" points="59.595 183.986 23.391 183.986 38.64 199.235 74.844 199.235 59.595 183.986"/><polygon class="cls-1" points="99.635 192.18 107.83 183.986 91.44 183.986 99.635 192.18"/><polygon class="cls-1" points="97.163 214.484 102.106 214.484 117.355 199.235 81.914 199.235 97.163 214.484"/><polygon class="cls-1" points="74.844 199.235 38.64 199.235 53.888 214.484 90.093 214.484 74.844 199.235"/><polygon class="cls-1" points="109.177 214.484 145.381 214.484 160.63 199.235 124.425 199.235 109.177 214.484"/><polygon class="cls-1" points="99.635 216.955 102.106 214.484 97.163 214.484 99.635 216.955"/><polygon class="cls-1" points="99.635 224.026 90.093 214.484 53.888 214.484 69.137 229.732 130.132 229.732 145.381 214.484 109.177 214.484 99.635 224.026"/><polygon class="cls-1" points="84.386 244.981 114.884 244.981 130.132 229.732 69.137 229.732 84.386 244.981"/><polygon class="cls-1" points="99.635 260.23 114.884 244.981 84.386 244.981 99.635 260.23"/><polygon class="cls-1" points="172.936 118.886 185.32 131.27 170.046 146.544 173.582 150.079 192.39 131.27 176.472 115.351 175.657 116.166 172.936 118.886"/><polygon class="cls-1" points="13.95 131.27 26.333 118.887 23.613 116.166 22.798 115.352 6.88 131.27 25.688 150.079 29.224 146.544 13.95 131.27"/><polygon class="cls-1" points="99.635 38.514 97.997 40.152 101.272 40.152 99.635 38.514"/><polygon class="cls-1" points="99.635 45.586 109.404 55.355 116.475 55.355 101.272 40.152 97.997 40.152 82.794 55.355 89.865 55.355 99.635 45.586"/><polygon class="cls-1" points="124.607 70.558 131.678 70.558 116.475 55.355 109.404 55.355 124.607 70.558"/><polygon class="cls-1" points="89.865 55.355 82.794 55.355 67.591 70.558 74.662 70.558 89.865 55.355"/><polygon class="cls-1" points="74.662 70.558 67.591 70.558 52.389 85.761 59.459 85.761 74.662 70.558"/><polygon class="cls-1" points="139.81 85.761 146.881 85.761 131.678 70.558 124.607 70.558 139.81 85.761"/><polygon class="cls-1" points="52.389 85.761 37.186 100.963 44.257 100.963 59.459 85.761 52.389 85.761"/><polygon class="cls-1" points="155.013 100.963 162.084 100.963 146.881 85.761 139.81 85.761 155.013 100.963"/><polygon class="cls-1" points="29.054 116.166 44.257 100.963 37.186 100.963 22.798 115.352 23.613 116.166 29.054 116.166"/><polygon class="cls-1" points="155.013 100.963 170.216 116.166 175.657 116.166 176.472 115.351 162.084 100.963 155.013 100.963"/><polygon class="cls-1" points="23.613 116.166 26.333 118.887 29.054 116.166 23.613 116.166"/><polygon class="cls-1" points="175.657 116.166 170.216 116.166 172.936 118.886 175.657 116.166"/><polygon class="cls-1" points="36.168 153.489 29.224 146.544 25.688 150.079 29.098 153.489 36.168 153.489"/><polygon class="cls-1" points="163.101 153.489 170.172 153.489 173.582 150.079 170.046 146.544 163.101 153.489"/><polygon class="cls-1" points="36.168 153.489 29.098 153.489 44.347 168.737 51.417 168.737 36.168 153.489"/><polygon class="cls-1" points="147.853 168.737 154.923 168.737 170.172 153.489 163.101 153.489 147.853 168.737"/><polygon class="cls-1" points="132.604 183.986 139.674 183.986 154.923 168.737 147.853 168.737 132.604 183.986"/><polygon class="cls-1" points="51.417 168.737 44.347 168.737 59.595 183.986 66.666 183.986 51.417 168.737"/><polygon class="cls-1" points="117.355 199.235 124.425 199.235 139.674 183.986 132.604 183.986 117.355 199.235"/><polygon class="cls-1" points="66.666 183.986 59.595 183.986 74.844 199.235 81.914 199.235 66.666 183.986"/><polygon class="cls-1" points="81.914 199.235 74.844 199.235 90.093 214.484 97.163 214.484 81.914 199.235"/><polygon class="cls-1" points="102.106 214.484 109.177 214.484 124.425 199.235 117.355 199.235 102.106 214.484"/><polygon class="cls-1" points="99.635 216.955 97.163 214.484 90.093 214.484 99.635 224.026 109.177 214.484 102.106 214.484 99.635 216.955"/></svg>