<svg id="Layer_1" data-name="Layer 1" xmlns="http://www.w3.org/2000/svg" viewBox="0 0 400 73.22985"><defs><style>.cls-1{fill:#ff5d52;}</style></defs><path class="cls-1" d="M31.62459,2.2C13.53474,16.29813,2.3757,43.16385,2.3757,71.023c20.51443,0,29.24889-13.57183,29.24889-13.57183S40.359,71.023,60.87939,71.023C60.87939,43.16385,49.72034,16.29813,31.62459,2.2Zm0,49.08326s-7.00767,6.35126-16.51682,6.35126c2.21171-15.25721,8.10761-29.2489,16.51682-39.16017,8.4092,9.91127,14.30511,23.903,16.51681,39.16017-9.50323,0-16.51681-6.32761-16.51681-6.32761Z"/><path d="M112.82486,50.79241H94.40976L91.28736,59.379h-9.042L99.08151,13.844h8.98874L124.98919,59.379h-9.042Zm-2.95683-8.0662-6.28621-17.36837L97.272,42.72622Z"/><path d="M180.14579,39.21351V59.379h-8.00116V39.929a6.47525,6.47525,0,0,0-6.10816-6.82262q-.26321-.01455-.527-.00764a8.6812,8.6812,0,0,0-6.83024,3.217V59.379h-8.00116V39.929a6.52667,6.52667,0,0,0-6.21338-6.82558q-.24321-.01141-.48677-.00468a8.46832,8.46832,0,0,0-6.76522,3.217V59.379h-7.9716V26.20349H136.852v3.05736c1.77409-2.40685,5.32228-3.70785,9.042-3.70785,4.13955,0,8.06622,1.88646,9.95267,4.42341A17.00763,17.00763,0,0,1,167.26591,25.553C175.52723,25.553,180.14579,31.34244,180.14579,39.21351Z"/><path d="M217.2894,26.20349V59.379h-7.54582V56.3217a13.67829,13.67829,0,0,1-9.62741,3.64871c-7.09637,0-13.46536-4.61855-13.46536-13.66052V26.20349H194.652v19.45c0,4.29331,3.64281,6.83028,7.48074,6.83028a9.15435,9.15435,0,0,0,7.15552-3.38261V26.20349Z"/><path d="M255.0835,39.21351V59.379h-8.00116V39.929c0-4.35836-3.2525-6.83026-7.5458-6.83026a8.56431,8.56431,0,0,0-7.09638,3.31755V59.379h-7.98932V26.20349h7.61086v3.05736a12.87673,12.87673,0,0,1,9.56236-3.70785C249.0989,25.553,255.0835,30.17154,255.0835,39.21351Z"/><path d="M293.13785,13.12842V59.379H285.592V55.83085c-2.36545,2.9923-6.24482,4.13956-9.88764,4.13956-8.9769,0-16.06738-6.89531-16.06738-17.30332,0-10.01773,6.89532-17.10818,16.26251-17.10818,3.64279,0,6.96039,1.0408,9.23712,3.51271V13.12842Zm-8.00119,23.353a11.73852,11.73852,0,0,0-8.19632-3.3826c-5.4642,0-9.43228,3.6428-9.43228,9.46183,0,5.98461,3.96805,9.95267,9.56235,9.95267a11.1354,11.1354,0,0,0,8.06622-3.44766Z"/><path d="M299.77292,48.73448A23.198,23.198,0,0,0,312.913,53.09285c3.903,0,5.39917-1.36605,5.39917-3.05735,0-2.7321-3.64279-2.99231-7.806-3.838-5.32226-1.04081-10.86337-2.8622-10.86337-10.01773,0-6.70016,4.87875-10.60317,13.07507-10.60317a20.43746,20.43746,0,0,1,10.408,2.66706v7.28561a22.24087,22.24087,0,0,0-10.47308-2.9923c-3.64279,0-5.59433,1.49614-5.59433,3.5127,0,2.602,2.79715,2.86221,7.48077,3.77291,5.00885.97575,11.23593,2.36546,11.23593,9.46183,0,6.37491-5.269,10.73326-13.27023,10.73326a24.246,24.246,0,0,1-12.74982-3.64281Z"/><path d="M360.39963,45.77765H337.69715c.26019,4.35836,4.68359,7.28562,10.05319,7.28562a21.59128,21.59128,0,0,0,11.709-4.03311v7.15552a21.94528,21.94528,0,0,1-12.68479,3.7729c-10.31338.01183-17.06085-6.8894-17.06085-17.29742,0-10.27791,6.70016-17.10817,16.13245-17.10817,9.107,0,14.57122,6.24481,14.57122,16.32757ZM337.76218,39.793h14.83145c0-4.42341-2.79715-7.09637-6.83026-7.09637s-7.61087,2.48373-8.00119,7.10229Z"/><path d="M397.218,39.21351V59.379H389.2168V39.929c0-4.35836-3.2525-6.83026-7.5458-6.83026a8.56431,8.56431,0,0,0-7.09638,3.31755V59.379h-7.99521V26.20349h7.61087v3.05736a12.87673,12.87673,0,0,1,9.56235-3.70785C391.21564,25.553,397.218,30.17154,397.218,39.21351Z"/></svg>