<?xml version="1.0" encoding="UTF-8"?><svg id="Layer_1" xmlns="http://www.w3.org/2000/svg" xmlns:xlink="http://www.w3.org/1999/xlink" viewBox="0 0 1821 479"><defs><style>.cls-1{clip-path:url(#clippath);}.cls-2{fill:#fff;}.cls-3{opacity:.7;}</style><clipPath id="clippath"><path class="cls-2" d="m219.06705,88.78632c0,10.56015.10561,21.12198-.06249,31.67945-.05243,3.29106,1.00829,4.27103,4.31145,4.35502,30.09312.76512,56.33097,11.19305,77.58615,32.6605,19.81687,20.01484,30.64093,44.32068,32.64679,72.55999,1.82357,25.67321-3.05476,49.84096-16.94282,71.55292-21.5274,33.65509-52.22955,52.0196-92.61241,53.14463-4.89982.13646-4.92118.06997-4.92324,5.08997-.00853,20.76036-.00123,41.52067-.00659,62.28103-.00136,5.31108-.01894,5.45388-5.46244,5.22151-54.63513-2.33185-102.37557-20.9188-140.64262-60.83341-26.80983-27.96401-42.46614-61.57911-47.93045-99.89732-5.08302-35.64439-.65706-70.10732,13.77876-103.12153,11.40145-26.07469,28.342-48.07598,50.38319-66.0605,30.70272-25.05194,66.0729-38.91086,105.27019-43.47433,6.91643-.80523,13.83582-1.29112,20.79921-1.46533,3.10113-.07757,3.88858,1.00505,3.85474,3.90746-.126,10.79871-.05028,21.59976-.04742,32.39994Zm-.98065,151.06652c0-35.98892.00018-71.97779-.00088-107.96668,0-1.19957-.0439-2.40002-.01173-3.59853.0512-1.90562-.82464-2.39149-2.68652-2.28924-19.22078,1.05546-37.01651,6.75504-53.26212,16.92555-42.52727,26.62402-62.4987,78.46497-48.97922,126.79595,8.06608,28.83545,24.70735,51.39327,50.07138,67.38761,14.87231,9.3783,31.17911,14.66218,48.63304,16.42237,6.19865.62519,6.23667.49114,6.23684-5.71037.00101-35.98887.00048-71.97779-.00079-107.96666Z"/></clipPath></defs><g><path class="cls-2" d="m576.72203,161.63144c0-34.23231,26.96542-59.09884,63.78173-59.09884s63.78336,24.86653,63.78336,59.09884-26.96705,59.10047-63.78336,59.10047-63.78173-24.86816-63.78173-59.10047Zm89.13337,0c0-17.59963-11.30297-28.25742-25.35164-28.25742-14.04704,0-25.35164,10.65778-25.35164,28.25742,0,17.60127,11.3046,28.25905,25.35164,28.25905,14.04867,0,25.35164-10.65778,25.35164-28.25905Z"/><path class="cls-2" d="m840.2445,147.74448c0,26.16016-20.02357,42.6295-51.51017,42.6295h-16.30927v27.77394h-38.10831v-113.03294h54.41758c31.4866,0,51.51017,16.47097,51.51017,42.6295Zm-38.43172,0c0-8.23549-5.00467-13.24015-15.50075-13.24015h-13.88697v26.48194h13.88697c10.49608,0,15.50075-5.0063,15.50075-13.24179Z"/><path class="cls-2" d="m962.80166,189.40538v28.74253h-93.97797v-113.03294h91.87908v28.74253h-54.41758v13.24179h47.79751v27.45053h-47.79751v14.85556h56.51647Z"/><path class="cls-2" d="m1105.05572,105.11497v113.03294h-31.32653l-42.95128-51.34847v51.34847h-37.13972v-113.03294h31.32653l42.95128,51.3501v-51.3501h37.13972Z"/><path class="cls-2" d="m581.24321,274.67685h55.70795c37.78654,0,63.78336,21.47727,63.78336,56.51647s-25.99683,56.51647-63.78336,56.51647h-55.70795v-113.03294Zm54.09417,83.32182c15.98586,0,26.96542-9.52749,26.96542-26.80535s-10.97956-26.80371-26.96542-26.80371h-15.98586v53.60906h15.98586Z"/><path class="cls-2" d="m806.1739,368.00963h-42.95291l-7.58867,19.70016h-38.7535l49.41128-113.03294h37.4615l49.41128,113.03294h-39.40032l-7.58867-19.70016Zm-10.49608-27.45053l-10.97956-28.41912-10.98119,28.41912h21.96075Z"/><path class="cls-2" d="m894.33868,304.2279h-33.10365v-29.55105h104.31398v29.55105h-33.10365v83.48189h-38.10668v-83.48189Z"/><path class="cls-2" d="m1062.91623,368.00963h-42.95291l-7.58867,19.70016h-38.7535l49.41128-113.03294h37.4615l49.41128,113.03294h-39.40032l-7.58867-19.70016Zm-10.49608-27.45053l-10.97956-28.41912-10.98119,28.41912h21.96075Z"/><path class="cls-2" d="m1126.05114,331.19332c0-34.23231,26.96542-59.09884,63.78173-59.09884s63.78336,24.86653,63.78336,59.09884-26.96705,59.10047-63.78336,59.10047-63.78173-24.86816-63.78173-59.10047Zm89.13337,0c0-17.59963-11.30297-28.25742-25.35164-28.25742-14.04704,0-25.35164,10.65778-25.35164,28.25742,0,17.60127,11.3046,28.25905,25.35164,28.25905,14.04867,0,25.35164-10.65778,25.35164-28.25905Z"/><path class="cls-2" d="m1283.64587,274.67685h38.10831v83.48352h51.02506v29.54942h-89.13337v-113.03294Z"/><path class="cls-2" d="m1393.28465,331.19332c0-34.23231,26.96542-59.09884,63.78173-59.09884s63.78336,24.86653,63.78336,59.09884-26.96705,59.10047-63.78336,59.10047-63.78173-24.86816-63.78173-59.10047Zm89.13337,0c0-17.59963-11.30297-28.25742-25.35164-28.25742-14.04704,0-25.35164,10.65778-25.35164,28.25742,0,17.60127,11.3046,28.25905,25.35164,28.25905,14.04867,0,25.35164-10.65778,25.35164-28.25905Z"/><path class="cls-2" d="m1625.6423,328.12583h33.10201v47.79587c-13.72527,9.36578-32.61853,14.37208-49.24958,14.37208-36.4929,0-63.13655-24.38305-63.13655-59.10047s26.64364-59.09884,63.94343-59.09884c22.28416,0,40.2072,7.75037,51.67187,21.79905l-24.38305,21.47564c-7.10356-8.23549-15.33904-12.43326-25.35001-12.43326-16.79438,0-27.45216,10.81785-27.45216,28.25742,0,16.95445,10.65778,28.25905,26.96705,28.25905,4.68289,0,9.20408-.80852,13.88697-2.74571v-28.58083Z"/><path class="cls-2" d="m1758.3705,346.69569v41.01409h-38.10668v-41.4992l-42.6295-71.53374h40.2072l23.09105,39.07691,23.25112-39.07691h36.81631l-42.6295,72.01885Z"/></g><g><g><path class="cls-2" d="m219.06705,88.78632c0,10.56015.10561,21.12198-.06249,31.67945-.05243,3.29106,1.00829,4.27103,4.31145,4.35502,30.09312.76512,56.33097,11.19305,77.58615,32.6605,19.81687,20.01484,30.64093,44.32068,32.64679,72.55999,1.82357,25.67321-3.05476,49.84096-16.94282,71.55292-21.5274,33.65509-52.22955,52.0196-92.61241,53.14463-4.89982.13646-4.92118.06997-4.92324,5.08997-.00853,20.76036-.00123,41.52067-.00659,62.28103-.00136,5.31108-.01894,5.45388-5.46244,5.22151-54.63513-2.33185-102.37557-20.9188-140.64262-60.83341-26.80983-27.96401-42.46614-61.57911-47.93045-99.89732-5.08302-35.64439-.65706-70.10732,13.77876-103.12153,11.40145-26.07469,28.342-48.07598,50.38319-66.0605,30.70272-25.05194,66.0729-38.91086,105.27019-43.47433,6.91643-.80523,13.83582-1.29112,20.79921-1.46533,3.10113-.07757,3.88858,1.00505,3.85474,3.90746-.126,10.79871-.05028,21.59976-.04742,32.39994Zm-.98065,151.06652c0-35.98892.00018-71.97779-.00088-107.96668,0-1.19957-.0439-2.40002-.01173-3.59853.0512-1.90562-.82464-2.39149-2.68652-2.28924-19.22078,1.05546-37.01651,6.75504-53.26212,16.92555-42.52727,26.62402-62.4987,78.46497-48.97922,126.79595,8.06608,28.83545,24.70735,51.39327,50.07138,67.38761,14.87231,9.3783,31.17911,14.66218,48.63304,16.42237,6.19865.62519,6.23667.49114,6.23684-5.71037.00101-35.98887.00048-71.97779-.00079-107.96666Z"/><g class="cls-1"><polygon class="cls-2" points="105.35502 125.89614 99.62644 197.02602 99.62644 125.89614 105.35502 125.89614"/><polygon class="cls-2" points="114.89715 125.89614 99.62644 315.50741 99.62644 197.02602 105.35502 125.89614 114.89715 125.89614"/><polygon class="cls-2" points="124.43927 125.89614 106.52672 348.31038 99.62644 347.75465 99.62644 315.50741 114.89715 125.89614 124.43927 125.89614"/><polygon class="cls-2" points="133.9814 125.89614 116.00735 349.07392 106.52672 348.31038 124.43927 125.89614 133.9814 125.89614"/><polygon class="cls-2" points="143.52352 125.89614 125.48798 349.83746 116.00735 349.07392 133.9814 125.89614 143.52352 125.89614"/><polygon class="cls-2" points="153.06565 125.89614 134.96861 350.601 125.48798 349.83746 143.52352 125.89614 153.06565 125.89614"/><polygon class="cls-2" points="162.60778 125.89614 144.44925 351.36454 134.96861 350.601 153.06565 125.89614 162.60778 125.89614"/><polygon class="cls-2" points="172.1499 125.89614 153.92988 352.12808 144.44925 351.36454 162.60778 125.89614 172.1499 125.89614"/><polygon class="cls-2" points="181.69203 125.89614 163.41051 352.89162 153.92988 352.12808 172.1499 125.89614 181.69203 125.89614"/><polygon class="cls-2" points="191.23415 125.89614 172.89114 353.65516 163.41051 352.89162 181.69203 125.89614 191.23415 125.89614"/><polygon class="cls-2" points="200.77628 125.89614 182.39301 354.15506 179.09817 354.15506 172.89114 353.65516 191.23415 125.89614 200.77628 125.89614"/><polygon class="cls-2" points="210.3184 125.89614 191.93514 354.15506 182.39301 354.15506 200.77628 125.89614 210.3184 125.89614"/><polygon class="cls-2" points="218.12499 147.44583 201.47726 354.15506 191.93514 354.15506 210.3184 125.89614 218.12499 125.89614 218.12499 147.44583"/><polygon class="cls-2" points="218.12499 265.92723 211.01939 354.15506 201.47726 354.15506 218.12499 147.44583 218.12499 265.92723"/><polygon class="cls-2" points="211.01939 354.15506 218.12499 265.92723 218.12499 354.15506 211.01939 354.15506"/><polygon class="cls-2" points="25.39493 52.40135 19.94536 120.06682 19.94536 52.40135 25.39493 52.40135"/><polygon class="cls-2" points="34.93706 52.40135 19.94536 238.54822 19.94536 120.06682 25.39493 52.40135 34.93706 52.40135"/><polygon class="cls-2" points="44.47918 52.40135 19.94536 357.02962 19.94536 238.54822 34.93706 52.40135 44.47918 52.40135"/><polygon class="cls-2" points="54.02131 52.40135 24.63208 417.31762 19.94536 416.94017 19.94536 357.02962 44.47918 52.40135 54.02131 52.40135"/><polygon class="cls-2" points="63.56343 52.40135 34.11271 418.08116 24.63208 417.31762 54.02131 52.40135 63.56343 52.40135"/><polygon class="cls-2" points="73.10556 52.40135 43.59334 418.8447 34.11271 418.08116 63.56343 52.40135 73.10556 52.40135"/><polygon class="cls-2" points="82.64769 52.40135 53.07398 419.60825 43.59334 418.8447 73.10556 52.40135 82.64769 52.40135"/><polygon class="cls-2" points="92.18981 52.40135 62.55461 420.37179 53.07398 419.60825 82.64769 52.40135 92.18981 52.40135"/><polygon class="cls-2" points="101.73194 52.40135 72.03524 421.13533 62.55461 420.37179 92.18981 52.40135 101.73194 52.40135"/><polygon class="cls-2" points="111.27406 52.40135 81.51587 421.89887 72.03524 421.13533 101.73194 52.40135 111.27406 52.40135"/><polygon class="cls-2" points="120.81619 52.40135 90.99651 422.66241 81.51587 421.89887 111.27406 52.40135 120.81619 52.40135"/><polygon class="cls-2" points="130.35832 52.40135 100.47714 423.42595 90.99651 422.66241 120.81619 52.40135 130.35832 52.40135"/><polygon class="cls-2" points="139.90044 52.40135 109.95777 424.18949 100.47714 423.42595 130.35832 52.40135 139.90044 52.40135"/><polygon class="cls-2" points="149.44257 52.40135 119.43841 424.95303 109.95777 424.18949 139.90044 52.40135 149.44257 52.40135"/><polygon class="cls-2" points="158.98469 52.40135 128.91904 425.71657 119.43841 424.95303 149.44257 52.40135 158.98469 52.40135"/><polygon class="cls-2" points="168.52682 52.40135 138.39967 426.48011 128.91904 425.71657 158.98469 52.40135 168.52682 52.40135"/><polygon class="cls-2" points="178.06894 52.40135 147.8803 427.24365 138.39967 426.48011 168.52682 52.40135 178.06894 52.40135"/><polygon class="cls-2" points="187.61107 52.40135 157.39665 427.56372 151.85447 427.56372 147.8803 427.24365 178.06894 52.40135 187.61107 52.40135"/><polygon class="cls-2" points="197.1532 52.40135 166.93878 427.56372 157.39665 427.56372 187.61107 52.40135 197.1532 52.40135"/><polygon class="cls-2" points="206.69532 52.40135 176.4809 427.56372 166.93878 427.56372 197.1532 52.40135 206.69532 52.40135"/><polygon class="cls-2" points="216.23745 52.40135 186.02303 427.56372 176.4809 427.56372 206.69532 52.40135 216.23745 52.40135"/><polygon class="cls-2" points="225.77957 52.40135 195.56515 427.56372 186.02303 427.56372 216.23745 52.40135 225.77957 52.40135"/><polygon class="cls-2" points="235.3217 52.40135 205.10728 427.56372 195.56515 427.56372 225.77957 52.40135 235.3217 52.40135"/><polygon class="cls-2" points="244.86383 52.40135 214.64941 427.56372 205.10728 427.56372 235.3217 52.40135 244.86383 52.40135"/><polygon class="cls-2" points="254.40595 52.40135 224.19153 427.56372 214.64941 427.56372 244.86383 52.40135 254.40595 52.40135"/><polygon class="cls-2" points="257.31168 52.40135 263.90531 52.93238 233.73366 427.56372 224.19153 427.56372 254.40595 52.40135 257.31168 52.40135"/><polygon class="cls-2" points="263.90531 52.93238 273.38594 53.69592 243.27578 427.56372 233.73366 427.56372 263.90531 52.93238"/><polygon class="cls-2" points="273.38594 53.69592 282.86657 54.45946 252.81791 427.56372 243.27578 427.56372 273.38594 53.69592"/><polygon class="cls-2" points="282.86657 54.45946 292.34721 55.22301 262.36004 427.56372 252.81791 427.56372 282.86657 54.45946"/><polygon class="cls-2" points="292.34721 55.22301 301.82784 55.98655 271.90216 427.56372 262.36004 427.56372 292.34721 55.22301"/><polygon class="cls-2" points="301.82784 55.98655 311.30847 56.75009 281.44429 427.56372 271.90216 427.56372 301.82784 55.98655"/><polygon class="cls-2" points="311.30847 56.75009 320.78911 57.51363 290.98641 427.56372 281.44429 427.56372 311.30847 56.75009"/><polygon class="cls-2" points="320.78911 57.51363 330.26974 58.27717 300.52854 427.56372 290.98641 427.56372 320.78911 57.51363"/><polygon class="cls-2" points="330.26974 58.27717 335.37251 58.68813 335.37251 113.3991 310.07066 427.56372 300.52854 427.56372 330.26974 58.27717"/><polygon class="cls-2" points="335.37251 231.88049 319.61279 427.56372 310.07066 427.56372 335.37251 113.3991 335.37251 231.88049"/><polygon class="cls-2" points="335.37251 350.36189 329.15492 427.56372 319.61279 427.56372 335.37251 231.88049 335.37251 350.36189"/><polygon class="cls-2" points="329.15492 427.56372 335.37251 350.36189 335.37251 427.56372 329.15492 427.56372"/></g></g><g class="cls-3"><path class="cls-2" d="m351.72878,317.2481c.17534-12.94795,4.94316-23.86557,15.02451-31.83436,24.71083-19.5328,29.48039-59.25263,6.9883-85.13257-2.01391-2.3172-4.30276-4.33232-6.66029-6.29702-3.93862-3.28223-7.33775-7.06895-9.90086-11.54225-15.5895-27.20794,4.03164-61.05714,35.42278-60.89319,16.14925.08432,28.3417,7.55259,35.95712,21.6409,7.61725,14.09149,6.31418,28.20663-2.11018,41.62139-2.08559,3.3211-4.85927,6.23664-7.94351,8.79873-16.57893,13.77232-23.41548,31.63381-21.218,52.81566,1.64653,15.87042,9.00396,28.78485,21.32715,39.19753,12.20939,10.31646,17.20405,23.87728,13.82452,39.63179-3.43127,15.99496-13.56587,26.52347-29.31468,30.84552-23.99209,6.58423-47.7914-9.531-51.11511-34.16359-.21139-1.56678-.19536-3.16429-.28174-4.68855Z"/><path class="cls-2" d="m355.46946,85.26572c.58251,20.81301-16.60318,40.90997-40.66995,41.00707-22.63096.0913-40.95012-18.24253-40.91988-40.82393.03032-22.59775,18.38091-40.92307,40.93267-40.87627,22.51061.04672,40.61721,18.16934,40.65716,40.69313Z"/><path class="cls-2" d="m469.17905,282.38301c-22.76328-.03314-40.79488-18.13354-40.73515-40.89064.05964-22.7382,18.24506-40.76469,40.93982-40.70675,23.43824.0598,40.92561,19.70826,40.61505,41.08711-.32693,22.50959-18.23958,40.54313-40.81971,40.51028Z"/></g><g class="cls-3"><path class="cls-2" d="m371.01119,395.24649c.58251,20.81301-16.60318,40.90997-40.66995,41.00707-22.63096.0913-40.95012-18.24253-40.91988-40.82393.03032-22.59775,18.38091-40.92307,40.93267-40.87627,22.51061.04672,40.61721,18.16934,40.65716,40.69313Z"/></g></g></svg>