<?xml version="1.0" encoding="UTF-8"?><svg id="Layer_1" xmlns="http://www.w3.org/2000/svg" viewBox="0 0 83.19983 35.38816"><defs><style>.cls-1{fill:none;}.cls-2{fill:#fff;}</style></defs><path class="cls-1" d="M46.77439,24.42094c-.15027-.23834-.35236-.43268-.60626-.58295s-.56738-.2254-.94049-.2254-.68396,.07513-.93274,.2254c-.24872,.15027-.44818,.3446-.59845,.58295-.15027,.2384-.25653,.513-.31873,.82391-.06213,.31091-.09326,.62701-.09326,.9483,0,.32123,.03113,.63477,.09326,.94049,.06219,.30573,.16846,.58032,.31873,.82391,.15027,.24353,.34973,.43787,.59845,.58295,.24878,.14508,.55963,.21759,.93274,.21759s.68658-.07251,.94049-.21759,.45599-.33942,.60626-.58295c.15033-.24359,.25653-.51819,.31873-.82391s.09326-.61926,.09326-.94049c0-.32129-.03107-.63739-.09326-.9483s-.1684-.58551-.31873-.82391Z"/><path class="cls-1" d="M32.02183,9.83592c-.26428-.29022-.66589-.4353-1.20477-.4353-.35236,0-.64514,.05957-.87836,.17877-.23315,.1192-.41968,.26685-.55963,.44305-.13989,.17621-.23834,.36273-.29535,.55963s-.0907,.37311-.10107,.52856h3.591c-.10364-.55963-.2876-.98456-.55182-1.27472Z"/><path class="cls-1" d="M36.60771,26.58177c-.16064,.03107-.32904,.05701-.50525,.0777-.17615,.02075-.35236,.04669-.5285,.07776-.16583,.03107-.32904,.07251-.48969,.12433s-.30054,.12183-.41974,.2099-.21503,.19946-.2876,.33423c-.07251,.1347-.10883,.30573-.10883,.513,0,.1969,.03632,.36273,.10883,.49744,.07257,.1347,.17102,.24097,.29535,.31866,.12439,.07776,.26947,.13214,.4353,.16327,.16583,.03107,.33679,.04663,.513,.04663,.43524,0,.77209-.07257,1.01044-.21765s.41455-.31866,.52856-.52075,.18396-.4068,.20984-.61407c.02594-.20728,.03888-.37311,.03888-.49744v-.82391c-.09326,.08289-.20984,.14771-.34979,.19434-.13989,.04663-.29016,.08551-.45081,.11658Z"/><path class="cls-1" d="M22.21262,26.58177c-.16064,.03107-.32904,.05701-.50519,.0777-.17621,.02075-.35236,.04669-.52856,.07776-.16583,.03107-.32904,.07251-.48969,.12433s-.30054,.12183-.41974,.2099c-.11914,.08807-.21503,.19946-.2876,.33423-.07251,.1347-.10883,.30573-.10883,.513,0,.1969,.03632,.36273,.10883,.49744,.07257,.1347,.17102,.24097,.29541,.31866,.12433,.07776,.26941,.13214,.43524,.16327,.16583,.03107,.33679,.04663,.513,.04663,.4353,0,.77209-.07257,1.01044-.21765,.2384-.14508,.41455-.31866,.52856-.52075s.18396-.4068,.20984-.61407c.02594-.20728,.03888-.37311,.03888-.49744v-.82391c-.09326,.08289-.20984,.14771-.34979,.19434-.13989,.04663-.29016,.08551-.45081,.11658Z"/><path class="cls-1" d="M23.19975,10.21678c-.1554-.24359-.35492-.44049-.59845-.59076-.24359-.15027-.5415-.2254-.89386-.2254-.36273,0-.66589,.07513-.90942,.2254s-.44049,.3446-.59076,.58295c-.15027,.2384-.25647,.513-.31866,.82391s-.09326,.6322-.09326,.96381c0,.32129,.03369,.63739,.10101,.9483,.06738,.31091,.17621,.58295,.32648,.8161,.15027,.23322,.34979,.42236,.59851,.56744s.54926,.21765,.90161,.21765c.36273,0,.66589-.07257,.90942-.21765s.44043-.33423,.59076-.56744c.15027-.23315,.25647-.50519,.31866-.8161s.09326-.62701,.09326-.9483c0-.32123-.03369-.63733-.10107-.94824-.06732-.31091-.17877-.58813-.33423-.83167Z"/><path class="cls-1" d="M69.55625,24.35881c-.14508-.22803-.33679-.40936-.5752-.54413-.23834-.1347-.53888-.20209-.90161-.20209-.31091,0-.57776,.06219-.8006,.18658-.22284,.12433-.40936,.29272-.55963,.50519s-.25909,.45599-.32648,.73065c-.06732,.27466-.10101,.56219-.10101,.86273,0,.29022,.0285,.57782,.08551,.86279,.05695,.28497,.15546,.5415,.29535,.76947,.13989,.22803,.32385,.41455,.55188,.55963,.22797,.14514,.51294,.21765,.85498,.21765,.31091,0,.58551-.06219,.82391-.18652,.23834-.12439,.43524-.29016,.5907-.49744s.27203-.44305,.34979-.70734c.0777-.26428,.11658-.5415,.11658-.83167,0-.33167-.03107-.64514-.09326-.94049s-.16583-.55707-.31091-.78503Z"/><path class="cls-1" d="M60.28343,24.42094c-.15033-.23834-.35242-.43268-.60632-.58295s-.56738-.2254-.94049-.2254c-.37305,0-.68396,.07513-.93268,.2254-.24878,.15027-.44824,.3446-.59851,.58295-.15027,.2384-.25653,.513-.31873,.82391-.06213,.31091-.09326,.62701-.09326,.9483,0,.32123,.03113,.63477,.09326,.94049,.06219,.30573,.16846,.58032,.31873,.82391,.15027,.24353,.34973,.43787,.59851,.58295,.24872,.14508,.55963,.21759,.93268,.21759,.37311,0,.68658-.07251,.94049-.21759s.45599-.33942,.60632-.58295c.15027-.24359,.25647-.51819,.31866-.82391s.09326-.61926,.09326-.94049c0-.32129-.03107-.63739-.09326-.9483s-.1684-.58551-.31866-.82391Z"/><g><path class="cls-1" d="M13.65415,24.24437l-.01508-.26038-.02258-.25842-.03009-.25647-.03766-.25458-.04517-.25262-.05273-.25067-.02917-.12457-.01538-.06201-.03284-.12268-.03558-.12091-.03833-.11932-.04108-.11755-.04376-.11584-.04651-.11414-.04926-.11249-.052-.11072-.05469-.10907-.05743-.10736-.06018-.10565-.06293-.104-.06561-.10223-.06842-.10059-.07111-.09888-.03656-.04877-.03729-.04828-.07697-.09473-.08002-.09229-.08313-.0899-.08624-.0874-.08929-.08502-.09247-.08258-.09552-.0802-.09857-.0777-.10175-.07532-.1048-.07288-.10791-.07043-.11102-.06799-.11407-.06561-.11719-.06311-.1203-.06073-.06134-.02948-.06219-.02869-.12732-.05463-.13129-.05103-.13519-.04736-.13922-.0437-.14313-.0401-.14703-.03644-.15106-.03278-.15497-.02917-.15894-.02545-.16284-.02191-.16681-.01819-.17078-.01459-.17468-.01093-.17865-.00726-.18262-.00366-.09277-.00043h-3.63763v11.09937h3.60657l.08319-.00043,.16425-.0033,.16144-.00671,.15851-.01001,.1557-.01337,.15289-.01666,.14996-.02008,.14716-.02338,.14429-.02673,.14142-.03003,.13855-.03339,.13574-.03674,.13287-.0401,.13-.0434,.12714-.04675,.12427-.05011,.0611-.02631,.06042-.02704,.11884-.05591,.11621-.05841,.11365-.06091,.11096-.06342,.1084-.06586,.10577-.06836,.10321-.07092,.10052-.0733,.09796-.07587,.09534-.07831,.09271-.08087,.09015-.08325,.08746-.08582,.0849-.08832,.08228-.09076,.04016-.04633,.03955-.04694,.07703-.0954,.07446-.09753,.07184-.09961,.06921-.10181,.06665-.10388,.06396-.10602,.0614-.10815,.05878-.11029,.05621-.11237,.05353-.11456,.05096-.11664,.04828-.11877,.04578-.12091,.04309-.12305,.04053-.12512,.01923-.06335,.03674-.12793,.06628-.25964,.05682-.26477,.04736-.2699,.0379-.2749,.02844-.28009,.01892-.28516,.00952-.29022,.00116-.14709-.00092-.13184-.00757-.26239Zm-.6759,.48413l-.00311,.17688-.00616,.1731-.00928,.16919-.01239,.16541-.0155,.16162-.01855,.15771-.02173,.15399-.02478,.15009-.02783,.1463-.03101,.14246-.03406,.13861-.03717,.13483-.04022,.13098-.0434,.12714-.04645,.12335-.02435,.06024-.02502,.05933-.05145,.11652-.05328,.1134-.05524,.11041-.05707,.10736-.05896,.10431-.06085,.10132-.06268,.09821-.06464,.09521-.06653,.09222-.06836,.08911-.07025,.08612-.07214,.08307-.07404,.08002-.07587,.07703-.07782,.07397-.03961,.03583-.0802,.06964-.164,.13165-.16858,.12146-.17316,.11127-.1778,.10101-.18243,.09082-.18701,.08069-.19165,.07043-.09753,.03137-.09814,.02917-.19598,.05273-.1958,.04517-.1955,.03766-.19531,.03009-.19507,.02258-.19476,.01508-.19458,.00751-.09717,.00098h-2.98474v-9.91797h2.84479l.10266,.00085,.21472,.00677,.22736,.01361,.23999,.02039,.12469,.01276,.06317,.00726,.12628,.01727,.12634,.02087,.12628,.02454,.12634,.0282,.12628,.0318,.12628,.03546,.12634,.03912,.06311,.02094,.06305,.02191,.12537,.04736,.12433,.052,.12341,.05658,.12244,.06122,.1214,.0658,.12048,.07043,.11951,.07507,.05939,.03925,.05884,.04077,.11517,.08698,.11169,.09424,.10834,.1015,.10492,.10883,.10156,.11609,.09814,.12341,.09473,.13068,.04608,.06805,.0451,.07001,.08698,.146,.08258,.15399,.07819,.16199,.07385,.17004,.06946,.17804,.06512,.1861,.06073,.19403,.02869,.10004,.02734,.10236,.04926,.21228,.0423,.22247,.03522,.23273,.0282,.24286,.02112,.25311,.0141,.26331,.00702,.2735,.00085,.14056-.00037,.0899Z"/><path class="cls-1" d="M14.55332,10.21611l-.00555-.14923-.00836-.14813-.01117-.14697-.01398-.14575-.01678-.14465-.01953-.14349-.02234-.14233-.02515-.14117-.02795-.14008-.0307-.13885-.03351-.1377-.03632-.1366-.03912-.13544-.04193-.13422-.02197-.06671-.02264-.06628-.04718-.13092-.04968-.12872-.05219-.12659-.05463-.12433-.05713-.12219-.05963-.12-.06213-.1178-.06464-.1156-.06708-.11346-.06958-.11127-.07208-.10901-.07458-.10687-.07709-.10474-.07953-.10248-.08203-.10034-.04193-.04932-.0426-.04871-.08685-.09558-.08929-.0929-.09161-.09027-.09399-.08771-.09637-.08508-.09875-.08246-.10107-.07983-.10352-.07721-.10583-.07465-.10822-.07202-.11053-.0694-.11298-.06683-.1153-.06415-.11774-.06158-.12-.05896-.06097-.0285-.0614-.02777-.12451-.0528-.12653-.04932-.12866-.04578-.13068-.0423-.13275-.0387-.13477-.03522-.1369-.03174-.13892-.0282-.14099-.0246-.14307-.02118-.14514-.01758-.14722-.0141-.14923-.01056-.15137-.00708-.15338-.00348-.07745-.00049-.07745,.00049-.15344,.00348-.15149,.00708-.14941,.01056-.14746,.0141-.14545,.01758-.14343,.02118-.14142,.0246-.1394,.0282-.13739,.03174-.13544,.03522-.13342,.0387-.13141,.0423-.12939,.04578-.12738,.04932-.12543,.0528-.06195,.02777-.0614,.0285-.12097,.05896-.11853,.06158-.11609,.06415-.11365,.06683-.11127,.0694-.10883,.07202-.10638,.07465-.10394,.07721-.10156,.07983-.09906,.08246-.09668,.08508-.09424,.08771-.09186,.09027-.08936,.0929-.08698,.09558-.0426,.04871-.04193,.04932-.08203,.10034-.07953,.10248-.07709,.10474-.07452,.10687-.07208,.10901-.06964,.11127-.06708,.11346-.06458,.1156-.06213,.1178-.05963,.12-.05713,.12219-.05469,.12433-.05212,.12659-.04968,.12872-.04724,.13092-.02264,.06628-.02197,.06671-.04193,.13422-.03906,.13544-.03632,.1366-.03351,.1377-.03076,.13885-.02795,.14008-.02509,.14117-.02234,.14233-.01959,.14349-.01678,.14465-.01392,.14575-.01117,.14697-.00842,.14813-.00555,.14923-.00281,.15045-.00037,.07562,.00037,.07562,.00281,.15045,.00555,.14923,.00842,.14813,.01117,.14691,.01392,.14581,.01678,.14465,.01959,.14349,.02234,.14233,.02509,.14117,.02795,.14008,.03076,.13885,.03351,.1377,.03632,.1366,.03906,.13538,.04193,.13428,.02197,.06671,.02264,.06628,.04724,.13092,.04968,.12872,.05212,.12653,.05469,.12439,.05713,.12219,.05963,.12,.06213,.1178,.06458,.1156,.06708,.11346,.06964,.11121,.07208,.10907,.07452,.10687,.07709,.10474,.07953,.10248,.08203,.10028,.04193,.04938,.0426,.04871,.08698,.09552,.08936,.09296,.09186,.09027,.09424,.08771,.09668,.08508,.09906,.08246,.10156,.07983,.10394,.07721,.10638,.07465,.10883,.07202,.11127,.0694,.11365,.06683,.11609,.06415,.11853,.06158,.12097,.05896,.0614,.0285,.06195,.02777,.12543,.0528,.12738,.04932,.12939,.04578,.13141,.0423,.13342,.0387,.13544,.03522,.13739,.03174,.1394,.02814,.14142,.02466,.14343,.02112,.14545,.01764,.14746,.0141,.14941,.01056,.15149,.00702,.15344,.00354,.07745,.00043,.07745-.00043,.15338-.00354,.15137-.00702,.14923-.01056,.14722-.0141,.14514-.01764,.14307-.02112,.14099-.02466,.13892-.02814,.1369-.03174,.13477-.03522,.13275-.0387,.13068-.0423,.12866-.04578,.12653-.04932,.12451-.0528,.0614-.02777,.06097-.0285,.12-.05896,.11774-.06158,.1153-.06415,.11298-.06683,.11053-.0694,.10822-.07202,.10583-.07465,.10352-.07721,.10107-.07983,.09875-.08246,.09637-.08508,.09399-.08771,.09161-.09027,.08929-.09296,.08685-.09552,.0426-.04871,.04193-.04938,.08203-.10028,.07953-.10248,.07709-.10474,.07458-.10687,.07208-.10907,.06958-.11121,.06708-.11346,.06464-.1156,.06213-.1178,.05963-.12,.05713-.12219,.05463-.12439,.05219-.12653,.04968-.12872,.04718-.13092,.02264-.06628,.02197-.06671,.04193-.13428,.03912-.13538,.03632-.1366,.03351-.1377,.0307-.13885,.02795-.14008,.02515-.14117,.02234-.14233,.01953-.14349,.01678-.14465,.01398-.14581,.01117-.14691,.00836-.14813,.00555-.14923,.00281-.15045,.00037-.07562-.00037-.07562-.00281-.15045Zm-.68201,.35968l-.00977,.26428-.01941,.26038-.02917,.25647-.03882,.25262-.04858,.24872-.05829,.24487-.06805,.24097-.03766,.11896-.03992,.11761-.08649,.22955-.09521,.22198-.10394,.21448-.11273,.20697-.12146,.1994-.13019,.19189-.13892,.18439-.07275,.08936-.07483,.08728-.1557,.16785-.1637,.15881-.17175,.1499-.17975,.14087-.18774,.1319-.1958,.12286-.20374,.11395-.10492,.05359-.05322,.02582-.10779,.04919-.10962,.0459-.11157,.04266-.11346,.03931-.1153,.03607-.11719,.03284-.11908,.02948-.12097,.02625-.12286,.02295-.12469,.01965-.12665,.01642-.12848,.01312-.13037,.00983-.13226,.00659-.13416,.00323-.06775,.00043-.06781-.00043-.13416-.00323-.13239-.00659-.13055-.00983-.12872-.01312-.12695-.01642-.12506-.01965-.12329-.02295-.12146-.02625-.11963-.02948-.1178-.03284-.11597-.03607-.11414-.03931-.11237-.04266-.11053-.0459-.1087-.04919-.05365-.02582-.10583-.05359-.20551-.11395-.1972-.12286-.18903-.1319-.18066-.14087-.17249-.1499-.16418-.15881-.15594-.16785-.07489-.08728-.07275-.08936-.13892-.18439-.13019-.19189-.12146-.1994-.11273-.20697-.10394-.21448-.09521-.22198-.08643-.22955-.03998-.11761-.03766-.11896-.06799-.24097-.05829-.24487-.04858-.24872-.03888-.25262-.02917-.25647-.01941-.26038-.0097-.26428-.00122-.13361,.00122-.13361,.0097-.26428,.01941-.26038,.02917-.25647,.03888-.25262,.04858-.24872,.05829-.24487,.06799-.24097,.03766-.11902,.03998-.11755,.08643-.22955,.09521-.22198,.10394-.21448,.11273-.20697,.12146-.1994,.13019-.19189,.13892-.18439,.07275-.08936,.07489-.08728,.15594-.16785,.16418-.15887,.17249-.14984,.18066-.14087,.18903-.1319,.1972-.12292,.20551-.11389,.10583-.05359,.05365-.02582,.1087-.04919,.11053-.0459,.11237-.04266,.11414-.03931,.11597-.03613,.1178-.03278,.11963-.02948,.12146-.02625,.12329-.02295,.12506-.01965,.12695-.01642,.12872-.01312,.13055-.00983,.13239-.00659,.13416-.00323,.06781-.00043,.06775,.00043,.13416,.00323,.13226,.00659,.13037,.00983,.12848,.01312,.12665,.01642,.12469,.01965,.12286,.02295,.12097,.02625,.11908,.02948,.11719,.03278,.1153,.03613,.11346,.03931,.11157,.04266,.10962,.0459,.10779,.04919,.05322,.02582,.10492,.05359,.20374,.11389,.1958,.12292,.18774,.1319,.17975,.14087,.17175,.14984,.1637,.15887,.1557,.16785,.07483,.08728,.07275,.08936,.13892,.18439,.13019,.19189,.12146,.1994,.11273,.20697,.10394,.21448,.09521,.22198,.08649,.22955,.03992,.11755,.03766,.11902,.06805,.24097,.05829,.24487,.04858,.24872,.03882,.25262,.02917,.25647,.01941,.26038,.00977,.26428,.00116,.13361-.00116,.13361Z"/><polygon class="cls-2" points="13.86155 10.0443 13.84214 9.78392 13.81297 9.52745 13.77415 9.27483 13.72556 9.02611 13.66728 8.78123 13.59922 8.54027 13.56156 8.42125 13.52165 8.3037 13.43516 8.07414 13.33994 7.85216 13.236 7.63768 13.12327 7.43071 13.00181 7.23131 12.87162 7.03941 12.73271 6.85503 12.65995 6.76567 12.58512 6.67839 12.42942 6.51054 12.26573 6.35167 12.09397 6.20183 11.91422 6.06096 11.72648 5.92906 11.53068 5.80614 11.32694 5.69225 11.22202 5.63866 11.1688 5.61284 11.06101 5.56364 10.95139 5.51775 10.83982 5.47508 10.72636 5.43578 10.61106 5.39964 10.49387 5.36687 10.37479 5.33739 10.25382 5.31114 10.13096 5.28819 10.00626 5.26854 9.87962 5.25212 9.75114 5.239 9.62077 5.22917 9.4885 5.22258 9.35435 5.21935 9.2866 5.21892 9.21879 5.21935 9.08463 5.22258 8.95225 5.22917 8.82169 5.239 8.69297 5.25212 8.56602 5.26854 8.44096 5.28819 8.31767 5.31114 8.19621 5.33739 8.07658 5.36687 7.95878 5.39964 7.84281 5.43578 7.72868 5.47508 7.61631 5.51775 7.50578 5.56364 7.39707 5.61284 7.34342 5.63866 7.23759 5.69225 7.03208 5.80614 6.83488 5.92906 6.64585 6.06096 6.46519 6.20183 6.2927 6.35167 6.12852 6.51054 5.97257 6.67839 5.89768 6.76567 5.82493 6.85503 5.68601 7.03941 5.55583 7.23131 5.43437 7.43071 5.32163 7.63768 5.21769 7.85216 5.12248 8.07414 5.03605 8.3037 4.99607 8.42125 4.95841 8.54027 4.89042 8.78123 4.83213 9.02611 4.78355 9.27483 4.74467 9.52745 4.71549 9.78392 4.69608 10.0443 4.68638 10.30858 4.68516 10.44218 4.68638 10.57579 4.69608 10.84007 4.71549 11.10045 4.74467 11.35692 4.78355 11.60954 4.83213 11.85826 4.89042 12.10313 4.95841 12.3441 4.99607 12.46306 5.03605 12.58067 5.12248 12.81023 5.21769 13.03221 5.32163 13.24669 5.43437 13.45366 5.55583 13.65306 5.68601 13.84496 5.82493 14.02934 5.89768 14.1187 5.97257 14.20598 6.12852 14.37383 6.2927 14.53264 6.46519 14.68254 6.64585 14.82341 6.83488 14.95531 7.03208 15.07817 7.23759 15.19212 7.34342 15.24571 7.39707 15.27153 7.50578 15.32072 7.61631 15.36662 7.72868 15.40929 7.84281 15.44859 7.95878 15.48467 8.07658 15.5175 8.19621 15.54698 8.31767 15.57323 8.44096 15.59618 8.56602 15.61583 8.69297 15.63225 8.82169 15.64537 8.95225 15.6552 9.08463 15.66179 9.21879 15.66502 9.2866 15.66545 9.35435 15.66502 9.4885 15.66179 9.62077 15.6552 9.75114 15.64537 9.87962 15.63225 10.00626 15.61583 10.13096 15.59618 10.25382 15.57323 10.37479 15.54698 10.49387 15.5175 10.61106 15.48467 10.72636 15.44859 10.83982 15.40929 10.95139 15.36662 11.06101 15.32072 11.1688 15.27153 11.22202 15.24571 11.32694 15.19212 11.53068 15.07817 11.72648 14.95531 11.91422 14.82341 12.09397 14.68254 12.26573 14.53264 12.42942 14.37383 12.58512 14.20598 12.65995 14.1187 12.73271 14.02934 12.87162 13.84496 13.00181 13.65306 13.12327 13.45366 13.236 13.24669 13.33994 13.03221 13.43516 12.81023 13.52165 12.58067 13.56156 12.46306 13.59922 12.3441 13.66728 12.10313 13.72556 11.85826 13.77415 11.60954 13.81297 11.35692 13.84214 11.10045 13.86155 10.84007 13.87132 10.57579 13.87248 10.44218 13.87132 10.30858 13.86155 10.0443"/><path class="cls-2" d="M16.62583,5.01305l-.01001-.13159-.01648-.12964-.02277-.12762-.06384-.24829-.0871-.23804-.10913-.22644-.12976-.21362-.14917-.19946-.16718-.18402-.18402-.16724-.19946-.14911-.21362-.12976-.2265-.10913-.23804-.08716-.24829-.06384-.12756-.02277-.1297-.01648-.13153-.01001-.13336-.00336H4.51933l-.1333,.00336-.13159,.01001-.12964,.01648-.12762,.02277-.24829,.06384-.23804,.08716-.2265,.10913-.21362,.12976-.1994,.14911-.18402,.16724-.16724,.18402-.14917,.19946-.12976,.21362-.10907,.22644-.08716,.23804-.06384,.24829-.02277,.12762-.01648,.12964-.01001,.13159-.00336,.1333V29.68571l.00336,.1333,.01001,.13159,.01648,.12964,.02277,.12762,.06384,.24829,.08716,.23804,.10907,.22644,.12976,.21362,.14917,.19946,.16724,.18402,.18402,.16724,.1994,.14911,.21362,.12976,.2265,.10913,.23804,.0871,.24829,.06384,.12762,.02283,.12964,.01648,.13159,.01001,.1333,.00336H14.03831l.13336-.00336,.13153-.01001,.1297-.01648,.12756-.02283,.24829-.06384,.23804-.0871,.2265-.10913,.21362-.12976,.19946-.14911,.18402-.16724,.16718-.18402,.14917-.19946,.12976-.21362,.10913-.22644,.0871-.23804,.06384-.24829,.02277-.12762,.01648-.12964,.01001-.13159,.00342-.1333V5.14635l-.00342-.1333Zm-2.96436,19.77264l-.00952,.29022-.01892,.28516-.02844,.28009-.0379,.2749-.04736,.2699-.05682,.26477-.06628,.25964-.03674,.12793-.01923,.06335-.04053,.12512-.04309,.12305-.04578,.12091-.04828,.11877-.05096,.11664-.05353,.11456-.05621,.11237-.05878,.11029-.0614,.10815-.06396,.10602-.06665,.10388-.06921,.10181-.07184,.09961-.07446,.09753-.07703,.0954-.03955,.04694-.04016,.04633-.08228,.09076-.0849,.08832-.08746,.08582-.09015,.08325-.09271,.08087-.09534,.07831-.09796,.07587-.10052,.0733-.10321,.07092-.10577,.06836-.1084,.06586-.11096,.06342-.11365,.06091-.11621,.05841-.11884,.05591-.06042,.02704-.0611,.02631-.12427,.05011-.12714,.04675-.13,.0434-.13287,.0401-.13574,.03674-.13855,.03339-.14142,.03003-.14429,.02673-.14716,.02338-.14996,.02008-.15289,.01666-.1557,.01337-.15851,.01001-.16144,.00671-.16425,.0033-.08319,.00043h-3.60657v-11.09937h3.63763l.09277,.00043,.18262,.00366,.17865,.00726,.17468,.01093,.17078,.01459,.16681,.01819,.16284,.02191,.15894,.02545,.15497,.02917,.15106,.03278,.14703,.03644,.14313,.0401,.13922,.0437,.13519,.04736,.13129,.05103,.12732,.05463,.06219,.02869,.06134,.02948,.1203,.06073,.11719,.06311,.11407,.06561,.11102,.06799,.10791,.07043,.1048,.07288,.10175,.07532,.09857,.0777,.09552,.0802,.09247,.08258,.08929,.08502,.08624,.0874,.08313,.0899,.08002,.09229,.07697,.09473,.03729,.04828,.03656,.04877,.07111,.09888,.06842,.10059,.06561,.10223,.06293,.104,.06018,.10565,.05743,.10736,.05469,.10907,.052,.11072,.04926,.11249,.04651,.11414,.04376,.11584,.04108,.11755,.03833,.11932,.03558,.12091,.03284,.12268,.01538,.06201,.02917,.12457,.05273,.25067,.04517,.25262,.03766,.25458,.03009,.25647,.02258,.25842,.01508,.26038,.00757,.26239,.00092,.13184-.00116,.14709Zm.89465-14.26788l-.00281,.15045-.00555,.14923-.00836,.14813-.01117,.14691-.01398,.14581-.01678,.14465-.01953,.14349-.02234,.14233-.02515,.14117-.02795,.14008-.0307,.13885-.03351,.1377-.03632,.1366-.03912,.13538-.04193,.13428-.02197,.06671-.02264,.06628-.04718,.13092-.04968,.12872-.05219,.12653-.05463,.12439-.05713,.12219-.05963,.12-.06213,.1178-.06464,.1156-.06708,.11346-.06958,.11121-.07208,.10907-.07458,.10687-.07709,.10474-.07953,.10248-.08203,.10028-.04193,.04938-.0426,.04871-.08685,.09552-.08929,.09296-.09161,.09027-.09399,.08771-.09637,.08508-.09875,.08246-.10107,.07983-.10352,.07721-.10583,.07465-.10822,.07202-.11053,.0694-.11298,.06683-.1153,.06415-.11774,.06158-.12,.05896-.06097,.0285-.0614,.02777-.12451,.0528-.12653,.04932-.12866,.04578-.13068,.0423-.13275,.0387-.13477,.03522-.1369,.03174-.13892,.02814-.14099,.02466-.14307,.02112-.14514,.01764-.14722,.0141-.14923,.01056-.15137,.00702-.15338,.00354-.07745,.00043-.07745-.00043-.15344-.00354-.15149-.00702-.14941-.01056-.14746-.0141-.14545-.01764-.14343-.02112-.14142-.02466-.1394-.02814-.13739-.03174-.13544-.03522-.13342-.0387-.13141-.0423-.12939-.04578-.12738-.04932-.12543-.0528-.06195-.02777-.0614-.0285-.12097-.05896-.11853-.06158-.11609-.06415-.11365-.06683-.11127-.0694-.10883-.07202-.10638-.07465-.10394-.07721-.10156-.07983-.09906-.08246-.09668-.08508-.09424-.08771-.09186-.09027-.08936-.09296-.08698-.09552-.0426-.04871-.04193-.04938-.08203-.10028-.07953-.10248-.07709-.10474-.07452-.10687-.07208-.10907-.06964-.11121-.06708-.11346-.06458-.1156-.06213-.1178-.05963-.12-.05713-.12219-.05469-.12439-.05212-.12653-.04968-.12872-.04724-.13092-.02264-.06628-.02197-.06671-.04193-.13428-.03906-.13538-.03632-.1366-.03351-.1377-.03076-.13885-.02795-.14008-.02509-.14117-.02234-.14233-.01959-.14349-.01678-.14465-.01392-.14581-.01117-.14691-.00842-.14813-.00555-.14923-.00281-.15045-.00037-.07562,.00037-.07562,.00281-.15045,.00555-.14923,.00842-.14813,.01117-.14697,.01392-.14575,.01678-.14465,.01959-.14349,.02234-.14233,.02509-.14117,.02795-.14008,.03076-.13885,.03351-.1377,.03632-.1366,.03906-.13544,.04193-.13422,.02197-.06671,.02264-.06628,.04724-.13092,.04968-.12872,.05212-.12659,.05469-.12433,.05713-.12219,.05963-.12,.06213-.1178,.06458-.1156,.06708-.11346,.06964-.11127,.07208-.10901,.07452-.10687,.07709-.10474,.07953-.10248,.08203-.10034,.04193-.04932,.0426-.04871,.08698-.09558,.08936-.0929,.09186-.09027,.09424-.08771,.09668-.08508,.09906-.08246,.10156-.07983,.10394-.07721,.10638-.07465,.10883-.07202,.11127-.0694,.11365-.06683,.11609-.06415,.11853-.06158,.12097-.05896,.0614-.0285,.06195-.02777,.12543-.0528,.12738-.04932,.12939-.04578,.13141-.0423,.13342-.0387,.13544-.03522,.13739-.03174,.1394-.0282,.14142-.0246,.14343-.02118,.14545-.01758,.14746-.0141,.14941-.01056,.15149-.00708,.15344-.00348,.07745-.00049,.07745,.00049,.15338,.00348,.15137,.00708,.14923,.01056,.14722,.0141,.14514,.01758,.14307,.02118,.14099,.0246,.13892,.0282,.1369,.03174,.13477,.03522,.13275,.0387,.13068,.0423,.12866,.04578,.12653,.04932,.12451,.0528,.0614,.02777,.06097,.0285,.12,.05896,.11774,.06158,.1153,.06415,.11298,.06683,.11053,.0694,.10822,.07202,.10583,.07465,.10352,.07721,.10107,.07983,.09875,.08246,.09637,.08508,.09399,.08771,.09161,.09027,.08929,.0929,.08685,.09558,.0426,.04871,.04193,.04932,.08203,.10034,.07953,.10248,.07709,.10474,.07458,.10687,.07208,.10901,.06958,.11127,.06708,.11346,.06464,.1156,.06213,.1178,.05963,.12,.05713,.12219,.05463,.12433,.05219,.12659,.04968,.12872,.04718,.13092,.02264,.06628,.02197,.06671,.04193,.13422,.03912,.13544,.03632,.1366,.03351,.1377,.0307,.13885,.02795,.14008,.02515,.14117,.02234,.14233,.01953,.14349,.01678,.14465,.01398,.14575,.01117,.14697,.00836,.14813,.00555,.14923,.00281,.15045,.00037,.07562-.00037,.07562Z"/><polygon class="cls-2" points="12.97074 24.22453 12.95664 23.96123 12.93552 23.70811 12.90733 23.46526 12.87211 23.23253 12.82981 23.01006 12.78056 22.79778 12.75321 22.69542 12.72453 22.59538 12.6638 22.40135 12.59867 22.21526 12.52921 22.03722 12.45536 21.86717 12.37718 21.70519 12.29459 21.55119 12.20762 21.4052 12.16251 21.33519 12.11643 21.26714 12.02171 21.13646 11.92356 21.01305 11.822 20.89696 11.71708 20.78813 11.60874 20.68663 11.49705 20.59239 11.38188 20.50542 11.32304 20.46465 11.26365 20.4254 11.14414 20.35033 11.02366 20.27989 10.90226 20.2141 10.77982 20.15288 10.65641 20.0963 10.53208 20.0443 10.40672 19.99693 10.34367 19.97502 10.28056 19.95409 10.15421 19.91496 10.02793 19.8795 9.90165 19.8477 9.77531 19.8195 9.64903 19.79497 9.52268 19.77409 9.3964 19.75682 9.33323 19.74956 9.20854 19.7368 8.96854 19.71642 8.74119 19.7028 8.52647 19.69603 8.42381 19.69518 5.57902 19.69518 5.57902 29.61314 8.56376 29.61314 8.66093 29.61217 8.85551 29.60466 9.05027 29.58958 9.24534 29.567 9.44065 29.53691 9.63615 29.49925 9.83195 29.45409 10.02793 29.40135 10.12608 29.37218 10.22361 29.34081 10.41526 29.27037 10.60227 29.18968 10.78471 29.09886 10.9625 28.99785 11.13566 28.88658 11.30424 28.76512 11.46824 28.63347 11.54844 28.56383 11.58805 28.528 11.66587 28.45403 11.74174 28.377 11.81577 28.29698 11.88792 28.21391 11.95817 28.12779 12.02653 28.03868 12.09306 27.94646 12.15769 27.85124 12.22038 27.75304 12.28123 27.65172 12.34019 27.54741 12.39726 27.44005 12.45249 27.32964 12.50578 27.21623 12.55723 27.09972 12.58225 27.04039 12.60661 26.98015 12.65305 26.8568 12.69645 26.72966 12.73667 26.59868 12.77384 26.46385 12.8079 26.32524 12.83891 26.18279 12.86674 26.03648 12.89152 25.8864 12.91325 25.73241 12.9318 25.57469 12.9473 25.41307 12.95969 25.24767 12.96897 25.07848 12.97514 24.90538 12.97825 24.7285 12.97862 24.6386 12.97776 24.49803 12.97074 24.22453"/></g><path class="cls-2" d="M25.22068,28.41612v-4.1817c0-.48706-.10883-.8783-.32648-1.17371-.21759-.29535-.49744-.52594-.83942-.69177-.34204-.16577-.72028-.27722-1.13483-.33417-.41455-.05701-.82391-.08551-1.22809-.08551-.44562,0-.88867,.04401-1.32916,.13214-.44043,.08807-.83685,.23578-1.18921,.44299-.35236,.20728-.64252,.48193-.87054,.82391-.22797,.34204-.35754,.77209-.38861,1.29028h2.20746c.04144-.43524,.18652-.74615,.43524-.93274,.24872-.18652,.59076-.27979,1.026-.27979,.1969,0,.38086,.01294,.55188,.03888,.17096,.02588,.32123,.0777,.45081,.15546,.12952,.0777,.23315,.18652,.31091,.32642,.0777,.13989,.11658,.32904,.11658,.56744,.01038,.22797-.05701,.40155-.20209,.52075s-.34198,.20984-.5907,.27203c-.24878,.06219-.53375,.10883-.85504,.13989-.32123,.03113-.64771,.07257-.97937,.12439-.3316,.05182-.66064,.12177-.98712,.20984-.32642,.08807-.61664,.22021-.87054,.39642-.25391,.17615-.46118,.41193-.62183,.70734-.16058,.29535-.24091,.67102-.24091,1.12701,0,.41455,.06995,.77209,.20984,1.07263s.33423,.54926,.58295,.74615c.24872,.19696,.53894,.34204,.87054,.4353,.33167,.09326,.68921,.13989,1.07263,.13989,.49744,0,.98456-.07251,1.4613-.21759,.47668-.14514,.89124-.39905,1.24359-.76178,.01038,.13477,.0285,.26691,.05444,.39642,.02588,.12958,.05957,.25653,.10101,.38086h2.23859c-.10364-.16583-.17621-.41455-.21765-.74615-.04144-.33167-.06219-.67883-.06219-1.04156Zm-2.20746-1.32135c0,.12433-.01294,.29016-.03888,.49744-.02588,.20728-.09583,.41199-.20984,.61407s-.29016,.37567-.52856,.52075c-.23834,.14508-.57513,.21765-1.01044,.21765-.17621,0-.34717-.01556-.513-.04663-.16583-.03113-.31091-.08551-.43524-.16327-.12439-.0777-.22284-.18396-.29541-.31866-.07251-.1347-.10883-.30054-.10883-.49744,0-.20728,.03632-.3783,.10883-.513,.07257-.13477,.16846-.24615,.2876-.33423,.1192-.08807,.25909-.15808,.41974-.2099s.32385-.09326,.48969-.12433c.17621-.03107,.35236-.05701,.52856-.07776,.17615-.02069,.34454-.04663,.50519-.0777s.31091-.06995,.45081-.11658c.13995-.04663,.25653-.11145,.34979-.19434v.82391Z"/><path class="cls-2" d="M69.96043,23.23949h-.03107c-.26947-.46631-.6037-.79797-1.00269-.99487s-.86279-.29535-1.39136-.29535c-.55963,0-1.0545,.10883-1.48456,.32642-.43011,.21765-.79022,.51044-1.08044,.87836-.29016,.36786-.51038,.79279-.66064,1.27472-.15027,.48187-.2254,.98193-.2254,1.50012,0,.54926,.06476,1.07001,.19427,1.56232,.12958,.49225,.33429,.92236,.61407,1.29022,.27985,.36792,.63739,.65814,1.07263,.87054,.4353,.21246,.95343,.31873,1.55457,.31873,.48706,0,.95087-.10107,1.3913-.30316s.77985-.51556,1.01825-.94049h.03107v1.05707c.01038,.57001-.12695,1.04156-.41193,1.41467-.28503,.37305-.7384,.55963-1.36023,.55963-.39386,0-.74103-.08032-1.04156-.24097s-.50262-.44824-.60626-.86279h-2.19189c.03107,.45599,.15802,.84723,.38086,1.17371,.22278,.32648,.50262,.59332,.83942,.8006,.33685,.20728,.7099,.36011,1.11926,.45856s.81097,.14771,1.20477,.14771c.92236,0,1.6582-.12439,2.20746-.37311,.54932-.24872,.96899-.55182,1.25922-.90936,.29016-.35754,.47931-.74359,.56738-1.15814s.13214-.78247,.13214-1.10376v-7.52399h-2.09863v1.07263Zm-.11658,3.67651c-.07776,.26428-.19434,.50006-.34979,.70734s-.35236,.37305-.5907,.49744c-.2384,.12433-.513,.18652-.82391,.18652-.34204,0-.62701-.07251-.85498-.21765-.22803-.14508-.41199-.3316-.55188-.55963-.13989-.22797-.2384-.4845-.29535-.76947-.05701-.28497-.08551-.57257-.08551-.86279,0-.30054,.03369-.58807,.10101-.86273,.06738-.27466,.17621-.51819,.32648-.73065s.33679-.38086,.55963-.50519c.22284-.12439,.48969-.18658,.8006-.18658,.36273,0,.66327,.06738,.90161,.20209,.2384,.13477,.43011,.3161,.5752,.54413,.14508,.22797,.24872,.48969,.31091,.78503s.09326,.60883,.09326,.94049c0,.29016-.03888,.56738-.11658,.83167Z"/><path class="cls-2" d="M61.76798,23.10741c-.36273-.36792-.8006-.65295-1.3136-.85504s-1.08557-.3031-1.71777-.3031c-.63214,0-1.20215,.10101-1.70996,.3031s-.94312,.48712-1.30585,.85504c-.36273,.36786-.64252,.81354-.83942,1.33685-.19696,.52338-.29541,1.10632-.29541,1.7489,0,.64252,.09845,1.2229,.29541,1.74109,.1969,.51813,.47668,.96118,.83942,1.3291s.79803,.65033,1.30585,.84723,1.07782,.29535,1.70996,.29535c.6322,0,1.20477-.09845,1.71777-.29535s.95087-.47931,1.3136-.84723,.64258-.81097,.83948-1.3291c.1969-.51819,.29535-1.09857,.29535-1.74109,0-.64258-.09845-1.22552-.29535-1.7489-.1969-.52332-.47675-.96899-.83948-1.33685Zm-1.16589,4.02625c-.06219,.30573-.1684,.58032-.31866,.82391-.15033,.24353-.35242,.43787-.60632,.58295s-.56738,.21759-.94049,.21759c-.37305,0-.68396-.07251-.93268-.21759-.24878-.14508-.44824-.33942-.59851-.58295-.15027-.24359-.25653-.51819-.31873-.82391-.06213-.30573-.09326-.61926-.09326-.94049,0-.32129,.03113-.63739,.09326-.9483,.06219-.31091,.16846-.58551,.31873-.82391,.15027-.23834,.34973-.43268,.59851-.58295,.24872-.15027,.55963-.2254,.93268-.2254,.37311,0,.68658,.07513,.94049,.2254s.45599,.3446,.60632,.58295c.15027,.2384,.25647,.513,.31866,.82391s.09326,.62701,.09326,.9483c0,.32123-.03107,.63477-.09326,.94049Z"/><path class="cls-2" d="M78.86796,22.16686l-1.75665,5.50311h-.03107l-1.81879-5.50311h-2.34741l2.81372,7.53955c.06219,.15546,.09332,.32129,.09332,.49744,0,.2384-.07001,.45599-.2099,.65289-.13989,.19696-.35492,.31091-.64514,.34204-.21759,.01038-.43524,.00519-.65289-.01556s-.43011-.04144-.63739-.06219v1.81885c.22803,.02069,.45343,.03882,.67627,.05438,.22278,.01556,.44818,.02332,.67621,.02332,.75653,0,1.34729-.13989,1.77216-.41974,.42493-.27979,.75659-.74615,.99493-1.39905l3.35779-9.03192h-2.28516Z"/><rect class="cls-2" x="50.88621" y="19.10442" width="2.20746" height="11.09943"/><path class="cls-2" d="M48.25901,23.10741c-.36273-.36792-.8006-.65295-1.3136-.85504s-1.08557-.3031-1.71777-.3031c-.63214,0-1.20215,.10101-1.70996,.3031-.50787,.20209-.94312,.48712-1.30585,.85504-.36273,.36786-.64252,.81354-.83948,1.33685-.1969,.52338-.29535,1.10632-.29535,1.7489,0,.64252,.09845,1.2229,.29535,1.74109,.19696,.51813,.47675,.96118,.83948,1.3291s.79797,.65033,1.30585,.84723c.50781,.1969,1.07782,.29535,1.70996,.29535,.6322,0,1.20477-.09845,1.71777-.29535s.95087-.47931,1.3136-.84723,.64252-.81097,.83948-1.3291c.1969-.51819,.29535-1.09857,.29535-1.74109,0-.64258-.09845-1.22552-.29535-1.7489-.19696-.52332-.47675-.96899-.83948-1.33685Zm-1.16589,4.02625c-.06219,.30573-.1684,.58032-.31873,.82391-.15027,.24353-.35236,.43787-.60626,.58295s-.56738,.21759-.94049,.21759-.68396-.07251-.93274-.21759c-.24872-.14508-.44818-.33942-.59845-.58295-.15027-.24359-.25653-.51819-.31873-.82391-.06213-.30573-.09326-.61926-.09326-.94049,0-.32129,.03113-.63739,.09326-.9483,.06219-.31091,.16846-.58551,.31873-.82391,.15027-.23834,.34973-.43268,.59845-.58295,.24878-.15027,.55963-.2254,.93274-.2254s.68658,.07513,.94049,.2254,.45599,.3446,.60626,.58295c.15033,.2384,.25653,.513,.31873,.82391s.09326,.62701,.09326,.9483c0,.32123-.03107,.63477-.09326,.94049Z"/><path class="cls-2" d="M39.61576,28.41612v-4.1817c0-.48706-.10883-.8783-.32648-1.17371-.21765-.29535-.49744-.52594-.83942-.69177-.34204-.16577-.72028-.27722-1.13483-.33417-.41455-.05701-.82391-.08551-1.22809-.08551-.44568,0-.88867,.04401-1.32916,.13214-.44043,.08807-.83685,.23578-1.18921,.44299-.35236,.20728-.64258,.48193-.87054,.82391-.22803,.34204-.35754,.77209-.38861,1.29028h2.2074c.0415-.43524,.18658-.74615,.4353-.93274,.24872-.18652,.5907-.27979,1.026-.27979,.1969,0,.38086,.01294,.55188,.03888,.17096,.02588,.32123,.0777,.45081,.15546,.12952,.0777,.23315,.18652,.31091,.32642,.0777,.13989,.11658,.32904,.11658,.56744,.01038,.22797-.05701,.40155-.20209,.52075s-.34198,.20984-.59076,.27203c-.24872,.06219-.53369,.10883-.85498,.13989-.32129,.03113-.64771,.07257-.97937,.12439-.3316,.05182-.66064,.12177-.98712,.20984s-.61664,.22021-.87054,.39642c-.25391,.17615-.46118,.41193-.62183,.70734-.16064,.29535-.24097,.67102-.24097,1.12701,0,.41455,.06995,.77209,.2099,1.07263,.13989,.30054,.33423,.54926,.58295,.74615,.24872,.19696,.53888,.34204,.87054,.4353,.3316,.09326,.68915,.13989,1.07263,.13989,.49744,0,.98456-.07251,1.46124-.21759,.47675-.14514,.8913-.39905,1.24365-.76178,.01038,.13477,.0285,.26691,.05444,.39642,.02588,.12958,.05957,.25653,.10101,.38086h2.23853c-.10364-.16583-.17615-.41455-.21759-.74615-.0415-.33167-.06219-.67883-.06219-1.04156Zm-2.20746-1.32135c0,.12433-.01294,.29016-.03888,.49744-.02588,.20728-.09583,.41199-.20984,.61407s-.29022,.37567-.52856,.52075-.5752,.21765-1.01044,.21765c-.17621,0-.34717-.01556-.513-.04663-.16583-.03113-.31091-.08551-.4353-.16327-.12433-.0777-.22278-.18396-.29535-.31866-.07251-.1347-.10883-.30054-.10883-.49744,0-.20728,.03632-.3783,.10883-.513,.07257-.13477,.1684-.24615,.2876-.33423s.25909-.15808,.41974-.2099,.32385-.09326,.48969-.12433c.17615-.03107,.35236-.05701,.5285-.07776,.17621-.02069,.3446-.04663,.50525-.0777s.31091-.06995,.45081-.11658c.13995-.04663,.25653-.11145,.34979-.19434v.82391Z"/><path class="cls-2" d="M29.72886,19.75737h-2.20746v2.40948h-1.33691v1.47687h1.33691v4.74133c0,.40417,.06738,.73059,.20209,.97937,.1347,.24872,.31866,.44043,.55188,.57513,.23315,.13477,.50262,.2254,.80835,.27209,.30573,.04663,.62958,.06995,.97162,.06995,.21759,0,.44043-.00519,.6684-.01556,.22803-.01038,.4353-.03107,.62183-.06219v-1.70996c-.10364,.02069-.21246,.03625-.32642,.04663-.11401,.01031-.23322,.0155-.35754,.0155-.37311,0-.62183-.06213-.74622-.18652-.12433-.12439-.18652-.37311-.18652-.74615v-3.97961h1.6167v-1.47687h-1.6167v-2.40948Z"/><path class="cls-2" d="M27.87895,15.02806c.35236,.37311,.78247,.66071,1.29028,.86279s1.07782,.3031,1.70996,.3031c.91205,0,1.68927-.20728,2.33185-.62177,.64252-.41455,1.11926-1.10376,1.43018-2.06757h-1.94318c-.07257,.24872-.26947,.4845-.59076,.70734-.32123,.22278-.70471,.33423-1.15033,.33423-.62183,0-1.09857-.16064-1.43018-.48193-.33167-.32129-.513-.83948-.54413-1.55457h5.79846c.04144-.62177-.01038-1.21771-.15546-1.78772s-.38086-1.07782-.70728-1.52344c-.32648-.44562-.74359-.8006-1.2514-1.06488-.50787-.26422-1.10376-.39636-1.78778-.39636-.61145,0-1.16846,.10876-1.67108,.32642-.50269,.21765-.93536,.51562-1.2981,.89386-.36267,.3783-.64252,.82654-.83942,1.34473-.1969,.51813-.29535,1.07776-.29535,1.67889,0,.62183,.09583,1.19177,.2876,1.70996,.19171,.51819,.46375,.96381,.8161,1.33691Zm1.20477-4.44598c.05701-.1969,.15546-.38342,.29535-.55963,.13995-.17621,.32648-.32385,.55963-.44305,.23322-.1192,.526-.17877,.87836-.17877,.53888,0,.94049,.14508,1.20477,.4353,.26422,.29016,.44818,.71509,.55182,1.27472h-3.591c.01038-.15546,.04407-.33167,.10107-.52856Z"/><path class="cls-2" d="M24.9564,9.04308c-.30054-.3938-.67883-.7099-1.13483-.94824-.45599-.2384-1.00006-.35754-1.63226-.35754-.49744,0-.95343,.09845-1.36798,.29535s-.75653,.513-1.026,.94824h-.03107v-1.026h-2.09863v10.85071h2.2074v-3.80859h.03113c.26947,.3938,.61401,.69177,1.03375,.89386s.8783,.3031,1.37579,.3031c.5907,0,1.10632-.11395,1.54675-.34198,.44043-.22797,.80835-.53369,1.10376-.91718,.29535-.38342,.51556-.82391,.66064-1.32135s.21765-1.01562,.21765-1.55457c0-.57001-.07257-1.11664-.21765-1.64001s-.36792-.98199-.66846-1.37579Zm-1.41461,3.90192c-.06219,.31091-.1684,.58295-.31866,.8161-.15033,.23322-.34723,.42236-.59076,.56744s-.54669,.21765-.90942,.21765c-.35236,0-.65289-.07257-.90161-.21765s-.44824-.33423-.59851-.56744c-.15027-.23315-.25909-.50519-.32648-.8161-.06732-.31091-.10101-.62701-.10101-.9483,0-.3316,.03107-.65289,.09326-.96381s.1684-.58551,.31866-.82391c.15027-.23834,.34723-.43268,.59076-.58295s.54669-.2254,.90942-.2254c.35236,0,.65027,.07513,.89386,.2254,.24353,.15027,.44305,.34717,.59845,.59076,.15546,.24353,.26691,.52075,.33423,.83167,.06738,.31091,.10107,.62701,.10107,.94824,0,.32129-.03107,.63739-.09326,.9483Z"/><path class="cls-2" d="M41.41905,11.45262v4.53925h2.2074v-4.94342c0-.49744-.04401-.95087-.13208-1.36023-.08813-.40936-.24097-.75653-.45862-1.04156-.21765-.28497-.51556-.50781-.89386-.66846-.3783-.16058-.86279-.24091-1.45349-.24091-.46637,0-.92236,.1062-1.36798,.31866-.44568,.21246-.80841,.55188-1.0882,1.01825h-.04663v-1.11932h-2.09863V15.99187h2.20746v-4.21277c0-.81873,.1347-1.40686,.40417-1.7644,.26941-.35754,.70471-.53632,1.30579-.53632,.52856,0,.89648,.16321,1.10376,.48969,.20728,.32642,.31091,.82129,.31091,1.48456Z"/></svg>