<?xml version="1.0" encoding="UTF-8"?>
<svg id="Layer_1" data-name="Layer 1" xmlns="http://www.w3.org/2000/svg" viewBox="0 0 1200 500">
  <defs>
    <style>
      .cls-1, .cls-2 {
        fill: #cbcbcb;
      }

      .cls-1, .cls-2, .cls-3, .cls-4 {
        stroke-width: 0px;
      }

      .cls-1, .cls-4 {
        fill-rule: evenodd;
      }

      .cls-3, .cls-4 {
        fill: #000;
      }
    </style>
  </defs>
  <g>
    <g>
      <path class="cls-2" d="M431.14,281.82c4.12,22.28,9.6,48.07,16.17,72.88,3.33-5.69,7.39-10.17,11.59-13.69-12.82-17.85-22.23-37.92-27.75-59.19"/>
      <path class="cls-2" d="M61.79,376.87c9.23-29.63,20.1-67.49,28.91-106.46-5.86,11.56-12.6,23.52-20.29,35.29-5.69,31.59-23.81,58.43-23.81,58.43,5.49,3.2,10.76,7.35,15.2,12.74"/>
      <path class="cls-3" d="M486.52,346.36l16.54-3.64-12.38-11.57c-59.79-55.9-70.22-132.41-70.93-138.18-3.43-33.81-8.36-65.87-19.84-95.23-15.81-40.45-48.05-66.99-85.62-79.45-25.02-8.3-52.39-10.34-78.78-6.03-26.47,4.32-52.02,15.02-73.29,32.14-31.25,25.13-53.2,63.99-55.21,116.64-.31,8.11-.94,16.52-1.84,25.16C95.35,256.73-.22,362.63-.09,363.04c.11,0,45.23,7.96,54.43,37.14-7.12,21.75-12.05,35.29-12.1,35.42l-6.32,17.51,17.6-6.05c94.99-32.7,125.71,26.56,125.8,26.73l6.03,11.27,8.5-9.53c76.47-85.74,163.43,5.85,163.67,6.11l8,8.31,6.03-9.84c37.14-60.64,109.25-38.84,109.41-38.79-8.56-12.14-16.51-30.88-23.62-52.43-1.06-36.52,29.08-42.51,29.18-42.52ZM28.19,356.59c27.18-25.15,47.67-56.91,62.5-86.19-8.8,38.97-19.68,76.83-28.91,106.46-9.42-11.43-22.59-17.29-33.59-20.27ZM363.89,459.67c-41.09-64.46-28.88-136.27-28.83-136.49-21.97,37.52-11.82,85.65,1.85,119.68-31.83-19.82-82.18-37.86-132.25-1.33,8.66-38.62,15.09-97.72-6.57-118.13.07.11,20.23,45.13-13.07,128.46-16.07-17.65-52.85-44.25-120.21-26.86,15.44-45.18,56.56-173.08,60-263.32,1.79-46.89,21.1-81.28,48.58-103.39,18.78-15.13,41.44-24.6,64.97-28.43,23.63-3.85,48.07-2.06,70.35,5.33,32.76,10.87,60.85,33.95,74.57,69.04,14.24,36.44,17.86,78.84,21.68,123.78,5.23,61.38,10.86,127.36,43.97,191.99-21.67-2.13-56.61,1.84-85.05,39.68ZM447.31,354.7c-6.57-24.81-12.04-50.6-16.17-72.88,9.34,17.44,21.58,35.62,37.56,52.52-7.09,3.86-15.44,10.2-21.4,20.36Z"/>
      <path class="cls-4" d="M323.13,131.7c-17.44,0-31.59,22.14-31.59,49.43s14.14,49.43,31.59,49.43,31.58-22.12,31.58-49.43-14.13-49.43-31.58-49.43ZM323.13,217.15c-11.32,0-20.73-12.78-22.65-29.63,3.63,12.41,11.63,21.04,20.93,21.04,12.7,0,23.01-16.12,23.01-36.01,0-2.18-.13-4.31-.36-6.38,1.32,4.56,2.08,9.64,2.08,14.97,0,19.89-10.31,36.01-23.01,36.01Z"/>
      <path class="cls-4" d="M181.9,245.64c0,41.41,33.57,74.98,74.98,74.98s74.98-33.57,74.98-74.98h-149.97ZM256.88,307.63c-12.16,0-23.5-3.5-33.07-9.54,3.05-3.48,6.65-6.47,10.66-8.84,6.57-3.88,14.23-6.11,22.41-6.11s15.84,2.23,22.4,6.11c4.01,2.37,7.61,5.36,10.66,8.84-9.56,6.04-20.91,9.54-33.07,9.54Z"/>
      <path class="cls-1" d="M198.09,323.4s-35,113.84-106.93,16.99c-10.19,36.14-20.26,66.79-26.34,84.61,67.36-17.39,104.14,9.21,120.21,26.86,33.29-83.33,13.14-128.34,13.07-128.46"/>
      <path class="cls-1" d="M266.63,358.98c-24.21.04-47.09-10.41-62.87-28.38,14.67,24.81,8.69,76.16.89,110.93,50.08-36.52,100.42-18.48,132.25,1.33-13.66-34.04-23.81-82.16-1.85-119.68-15.6,22.39-41.15,35.76-68.43,35.8"/>
      <path class="cls-1" d="M335.06,323.18c-.05.22-12.26,72.03,28.83,136.49,28.44-37.85,63.38-41.82,85.05-39.68-14.16-27.64-23.3-55.53-29.53-83.2-11.86,12.2-28.92,17.84-45.71,15.13-16.8-2.7-31.22-13.44-38.64-28.73"/>
    </g>
    <path class="cls-3" d="M203.2,141.07c-17,0-30.77,17.22-30.77,38.47s13.78,38.46,30.77,38.46,30.76-17.22,30.76-38.46-13.78-38.47-30.76-38.47ZM203.2,208.7c-5.85,0-11.14-3.28-14.96-8.57,2.95,1.81,6.25,2.83,9.74,2.83,12.51,0,22.65-13.06,22.65-29.17,0-6.38-1.59-12.27-4.29-17.08h0c4.86,5.34,7.97,13.58,7.97,22.83,0,16.11-9.46,29.17-21.12,29.17Z"/>
  </g>
  <g>
    <path class="cls-3" d="M529.49,146.9h47.72v206.2h-47.72v-206.2Z"/>
    <path class="cls-3" d="M757.48,353.1l-39.77-57.44h-43.89v57.44h-47.72v-206.2h89.25c55.08,0,89.55,28.57,89.55,74.82,0,30.93-15.61,53.61-42.42,65.1l46.25,66.28h-51.25ZM712.7,185.79h-38.88v71.87h38.88c29.16,0,43.89-13.55,43.89-35.94s-14.73-35.94-43.89-35.94Z"/>
    <path class="cls-3" d="M1002.26,314.8v38.29h-159.65v-206.2h155.82v38.29h-108.4v44.77h95.73v37.12h-95.73v47.72h112.23Z"/>
    <path class="cls-3" d="M1199.91,314.8v38.29h-159.65v-206.2h159.82v38.29h-112.4v44.77h95.73v37.12h-95.73v47.72h112.23Z"/>
  </g>
</svg>