<svg id="Layer_1" data-name="Layer 1" xmlns="http://www.w3.org/2000/svg" viewBox="0 0 579.80865 448.95034"><defs><style>.cls-1{fill:#da8c27;}.cls-2{fill:#f1efe0;}.cls-3{fill:#3f5f7d;}</style></defs><path class="cls-1" d="M176.93,141.57348A118.426,118.426,0,1,1,295.3559,260,118.4259,118.4259,0,0,1,176.93,141.57348"/><path class="cls-2" d="M359.80975,166.00957l-.48231-.00732c-.03157,0-.06172,0-.0976-.00173v.00173h-.03732v-.00173c-11.95025-.2944-21.32959-9.1831-21.32959-20.24237a19.85249,19.85249,0,0,1,10.55353-17.31071l.21533-.11843a23.05219,23.05219,0,0,1,9.20994-2.73743l.02153-.00173c.62588-.05267,1.279-.07895,1.93789-.07895,12.09093,0,21.92962,9.08262,21.92962,20.24725s-9.83151,20.24681-21.921,20.25141ZM300.6453,194.39074l-37.46351.01021V158.28936a36.16155,36.16155,0,0,1,36.125-36.10915h3.19736V118.984a30.26483,30.26483,0,0,1,30.11507-30.23795,32.6129,32.6129,0,0,1,30.07158,20.26161,15.99235,15.99235,0,0,1-6.24859,10.3055c-.73639.08067-1.46561.18777-2.18048.32241a29.18268,29.18268,0,0,0-8.88984,3.20124l-.44068.22264-.066.06775a27.61854,27.61854,0,0,0-9.54872,9.2431,25.41667,25.41667,0,0,0-3.83126,13.38788,25.69887,25.69887,0,0,0,8.12474,18.67858q.26054.248.52967.49164a29.85249,29.85249,0,0,1-15.18435-9.05018,28.9185,28.9185,0,0,0-2.56088-3.34579,25.86465,25.86465,0,0,1-4.20046-14.06756h-6.38395a31.79324,31.79324,0,0,0,.74629,6.82579,29.088,29.088,0,0,0-11.89355-2.56489V149.112a22.6914,22.6914,0,0,1,16.67322,7.32978,33.43383,33.43383,0,0,0,2.507,3.28593,22.65131,22.65131,0,0,1-19.19763,34.66305ZM208.9796,170.487a23.92405,23.92405,0,0,1,47.8481.00328v23.90725H232.89576a23.94087,23.94087,0,0,1-23.91616-23.91057Zm156.05812-50.90408a22.302,22.302,0,0,0,4.09825-10.61541l.08326-.76222-.26842-.71774a38.84,38.84,0,0,0-36.34169-25.12639,36.6698,36.6698,0,0,0-36.36494,33.53966,42.57433,42.57433,0,0,0-39.03076,36.53189A30.29447,30.29447,0,1,0,232.89577,200.787H335.10969V194.3975H318.781a29.04746,29.04746,0,0,0,10.58254-26.91885,37.69652,37.69652,0,0,0,18.40841,4.75828l11.31578.14642h.06029c.21532.00617.43352.01.65313.01,15.61213,0,28.316-11.948,28.316-26.63522,0-13.00216-9.95927-23.85787-23.07942-26.17529"/><path class="cls-2" d="M359.80113,151.07282c-3.26712,0-5.92417-2.3843-5.92417-5.31466,0-2.92864,2.65705-5.31224,5.92417-5.31224,3.26569,0,5.92274,2.38359,5.92274,5.31223C365.72387,148.68851,363.06682,151.07282,359.80113,151.07282Zm0-17.01142c-6.78687,0-12.30769,5.24735-12.30769,11.69675,0,6.45185,5.5208,11.69862,12.30769,11.69862s12.30769-5.24678,12.30769-11.69862c0-6.4494-5.5208-11.69675-12.30769-11.69675"/><path class="cls-3" d="M100.827,332.9936l-5.24742,11.57307a55.82491,55.82491,0,0,0-29.78527-9.1051c-13.89027,0-22.99736,5.24841-22.99736,14.35451,0,27.77776,60.80751,13.27238,60.65473,52.473,0,18.05657-15.898,29.63172-39.04709,29.63172a61.66376,61.66376,0,0,1-41.36132-16.51318l5.55492-11.11181c10.03457,9.7223,23.76909,15.27909,35.96015,15.27909,15.58847,0,25.31158-6.32754,25.31158-16.6705.15276-28.39535-60.65276-13.2704-60.65276-52.00812,0-16.97623,14.96951-27.93529,37.34789-27.93529,12.50155,0,25.31059,4.01244,34.262,10.03259m45.67928,44.44717c0,23.76721,20.06416,42.75223,44.13978,42.75223,24.07662,0,43.8293-18.985,43.8293-42.75223,0-23.768-19.75268-42.59521-43.8293-42.59521C166.57041,334.84558,146.50625,353.67279,146.50625,377.44079Zm100.62438,0c0,30.40326-25.00209,54.6347-56.4846,54.6347-31.63823,0-56.64131-24.23145-56.64131-54.6347,0-30.5579,25.00308-54.326,56.64131-54.326,31.48251,0,56.4846,23.92284,56.4846,54.326m74.07582-39.97151-24.07562,54.78757h48.46269Zm-29.324,66.67081-12.03633,27.31929H266.72556L315.1873,323.42426h12.811l48.305,108.03512h-13.425l-12.03829-27.3193H291.88241m161.27515-5.09148c0,20.98748-11.57507,33.02686-30.86749,33.02686-12.03633,0-22.37736-5.71144-29.938-15.43374l6.17189-9.878c6.79187,8.17971,15.28,12.50164,23.61336,12.50164,11.88258,0,18.51869-7.10018,18.51869-20.52632V335.30682H402.07513V323.42426h51.08243v75.62436m111.888-66.055-5.24842,11.57307a55.828,55.828,0,0,0-29.78625-9.1051c-13.88929,0-22.99638,5.24841-22.99638,14.3545,0,27.77777,60.80953,13.27239,60.65378,52.473,0,18.05657-15.894,29.63172-39.0451,29.63172a61.67283,61.67283,0,0,1-41.36332-16.51318l5.55693-11.11181c10.03357,9.7223,23.7681,15.27909,35.96114,15.27909,15.5885,0,25.31161-6.32754,25.31161-16.6705.15275-28.39535-60.65278-13.2704-60.65278-52.00812,0-16.97623,14.96952-27.93529,37.34689-27.93529,12.50155,0,25.3106,4.01244,34.26194,10.03259"/></svg>