<svg id="Layer_1" data-name="Layer 1" xmlns="http://www.w3.org/2000/svg" viewBox="0 0 360 360.18942"><title>horovod-horizontal-black</title><path d="M8,177.3867c1.23359-3.06642,2.58518-6.01248,5.29842-8.16679a13.66812,13.66812,0,1,1-4.70607,14.4967c-.16182-.52569-.00429-1.19062-.59235-1.55832Z"/><path d="M179.77731,351.33292c-3.104-1.16968-6.01986-2.56006-8.16639-5.28485a13.6145,13.6145,0,0,1-1.03731-15.39487,13.77381,13.77381,0,0,1,14.20288-6.59421,13.92118,13.92118,0,0,1,11.05788,10.82489,13.77868,13.77868,0,0,1-9.513,15.89764c-.457.14844-1.04218.00809-1.33875.5514Z"/><path d="M290.855,133.09631c6.59177,2.74407,13.16867,5.52483,19.78824,8.20005a3.34642,3.34642,0,0,1,2.28058,2.5225,137.95136,137.95136,0,0,1-.07227,69.60092,2.97664,2.97664,0,0,1-2.00845,2.23815c-5.95471,2.39578-11.87619,4.87459-17.795,7.35852-.77616.3257-1.68766.44791-2.24186,1.20486l-.46322-.04094a3.48053,3.48053,0,0,0-.45282-2.27868q-5.8397-14.04236-11.6709-28.08817c-2.10175-5.03348-4.2608-10.043-6.394-15.06335l-.01959-.54383a8.17806,8.17806,0,0,0,.663-1.09063c3.87463-9.31472,7.79266-18.612,11.57965-27.96236,2.16165-5.33736,4.63135-10.55257,6.43845-16.03235Q290.67134,133.11485,290.855,133.09631Z"/><path d="M226.611,288.31223a163.20187,163.20187,0,0,0-7.19725,17.12246c-1.27644,3.48581-3.24389,4.92133-6.78532,5.72641a138.7633,138.7633,0,0,1-66.46092-.88183,2.94539,2.94539,0,0,1-2.28357-1.94333c-2.74465-6.66944-5.55568-13.31156-8.34435-19.96274q-.00446-.19946.00391-.3988c.81529-.26487,1.65182-.47821,2.44255-.80307q8.48313-3.48492,16.94926-7.0112,12.83187-5.35635,25.65013-10.74515l.81977-.19238a7.29854,7.29854,0,0,0,1.22839.82766c9.83406,4.07654,19.654,8.18881,29.52651,12.17035,4.79081,1.9321,9.43621,4.23929,14.41209,5.70493A3.51776,3.51776,0,0,1,226.611,288.31223Z"/><path d="M70.94949,223.81656q-10.20918-4.17927-20.4235-8.34586c-.95871-.38858-1.15029-1.13606-1.37809-2.00786a136.29711,136.29711,0,0,1-3.955-46.57237,146.1308,146.1308,0,0,1,3.89888-23.011,3.30139,3.30139,0,0,1,2.25362-2.53818c6.67231-2.73288,13.31231-5.54466,19.963-8.32852a1.79482,1.79482,0,0,0,.06611.42623q8.93922,21.6332,17.8944,43.25978c.2108.50886.35089,1.14666,1.11438,1.1441l-.02954,1.288c-.84113.36167-.98989,1.2112-1.28418,1.92008q-8.87411,21.37564-17.71476,42.76521Q71.15216,223.8139,70.94949,223.81656Z"/><path d="M135.4381,68.86353c2.76036-6.57854,5.55162-13.14445,8.25483-19.7464a3.5165,3.5165,0,0,1,2.66941-2.39659,137.88523,137.88523,0,0,1,69.548.1147,2.42268,2.42268,0,0,1,1.96976,1.43158c2.78459,6.87987,5.61526,13.74108,8.43089,20.608q-20.94786,8.70111-41.891,17.41185c-1.0379.43235-2.25277.59781-2.91932,1.68763q-.44733-.0264-.89545-.05295c-2.92221-1.886-6.25253-2.86337-9.42348-4.18478-11.84564-4.9364-23.71853-9.80736-35.58121-14.70287Q135.51534,68.95248,135.4381,68.86353Z"/><path d="M70.94949,223.81656q.2027-.00269.40517-.0006a7.11986,7.11986,0,0,0,1.06676.67972c10.88575,4.5165,21.76,9.0616,32.67672,13.50209,3.78046,1.53775,7.43873,3.40167,11.40683,4.46358l.39087.43643c2.44947,5.9923,4.87606,11.994,7.35377,17.97463q5.61886,13.56261,11.29388,27.10192-.00843.19941-.00392.39887c-6.61184,2.68384-13.24231,5.32312-19.81971,8.08856a3.536,3.536,0,0,1-3.58525-.23254,138.06482,138.06482,0,0,1-49.14033-49.36286,2.72084,2.72084,0,0,1-.08338-2.78778c2.49374-5.91514,4.93358-11.85307,7.368-17.793A4.43906,4.43906,0,0,0,70.94949,223.81656Z"/><path d="M290.855,133.09631q-.18366.01854-.36877.02475a1.897,1.897,0,0,0-.35068-.25082q-20.68276-8.56578-41.37268-17.11427c-1.04564-.43154-2.03679-1.1585-3.28291-.83641l-.576-.799a9.67,9.67,0,0,0-.35548-1.45188c-2.43846-5.92569-4.90932-11.838-7.34558-17.76459Q231.867,81.92346,226.56477,68.929q10.1638-4.2653,20.32248-8.54263a2.6878,2.6878,0,0,1,2.63257.30678,137.84316,137.84316,0,0,1,49.4857,49.56842,2.79147,2.79147,0,0,1,.01081,2.82328q-3.78132,9.08592-7.52964,18.18554C291.24158,131.86475,291.064,132.487,290.855,133.09631Z"/><path d="M226.611,288.31223a3.53885,3.53885,0,0,0-.03868-.38651c4.51888-10.88623,9.0847-21.75342,13.53159-32.66907,1.62-3.97648,3.62733-7.80644,4.714-11.99386l-.0216.04739.43963-.4667c.0042-.31618-.00944-.63988.34267-.8086.74841.76068,1.34566-.01541,1.93046-.25487q21.42774-8.77374,42.834-17.6.23167.02068.46329.04124c2.79669,6.71829,5.569,13.447,8.416,20.14411a2.6155,2.6155,0,0,1-.29727,2.61517A137.2088,137.2088,0,0,1,268.803,282.72687a140.96753,140.96753,0,0,1-19.23386,13.60766,2.92486,2.92486,0,0,1-2.97348.2172C239.95215,293.7623,233.27609,291.05023,226.611,288.31223Z"/><path d="M71.34556,132.87946c-2.545-4.77173-3.85987-10.11259-6.48483-14.80034-2.71454-4.84767-1.82114-8.573,1.17337-13.06432A142.04678,142.04678,0,0,1,112.4711,60.705a2.73279,2.73279,0,0,1,2.78461-.19515c6.70707,2.833,13.451,5.57888,20.18254,8.35359q.077.0891.16232.17a14.07272,14.07272,0,0,0-.71567,1.31942C130.965,79.77483,127.001,89.179,123.166,98.6355c-2.10244,5.18437-4.51684,10.24565-6.24365,15.58071l-.3834.30925c-8.99008,3.68016-17.96722,7.39239-26.97477,11.0293C83.49509,128.00531,77.56633,130.80634,71.34556,132.87946Z"/><path d="M226.56477,68.929Q231.8823,81.9172,237.203,94.90411c2.43627,5.92657,4.90712,11.8389,7.34558,17.76459a9.64413,9.64413,0,0,1,.35529,1.45177,3.26428,3.26428,0,0,1-.63721-.12667q-31.38546-13.00419-62.76631-26.01957c.667-1.08975,1.88181-1.25521,2.91971-1.68756q20.93856-8.722,41.891-17.41185A.50626.50626,0,0,1,226.56477,68.929Z"/><path d="M71.34556,132.87946c6.22077-2.07312,12.14953-4.87415,18.21869-7.32467,9.00755-3.63691,17.98468-7.34915,26.97484-11.02954a3.4365,3.4365,0,0,1-.13395.63449q-13.00569,31.34377-26.02185,62.68316c-.76349.00254-.90358-.63524-1.11438-1.14411Q80.31,155.07374,71.37452,133.439a1.79431,1.79431,0,0,1-.06611-.42623Z"/><path d="M292.4216,78.85059a13.77447,13.77447,0,1,1,13.89676-13.70491A13.94772,13.94772,0,0,1,292.4216,78.85059Z"/><path d="M67.33884,80.73575A13.71448,13.71448,0,0,1,53.66342,66.98232l.00042-.075a13.77643,13.77643,0,1,1,13.758,13.82921Z"/><path d="M193.26326,19.457A13.6929,13.6929,0,1,1,179.61694,5.71768l.03385.00016A13.82009,13.82009,0,0,1,193.26326,19.457Z"/><path d="M83.10392,291.98413A13.694,13.694,0,1,1,69.3524,278.3479q.07938-.00036.15876.00024a13.486,13.486,0,0,1,13.59317,13.378Q83.10536,291.85515,83.10392,291.98413Z"/><path d="M340.20227,163.45689a13.69453,13.69453,0,1,1-.08081-.0003Z"/><path d="M308.21271,289.93808a13.69125,13.69125,0,1,1-13.7345-13.64789q.04139-.00009.0827,0a13.55129,13.55129,0,0,1,13.65177,13.45007Q308.21342,289.83914,308.21271,289.93808Z"/><path d="M245.57852,242.03488q13.12343-31.6425,26.24689-63.28485c2.13315,5.02048,4.2922,10.03,6.394,15.06351q5.85993,14.03384,11.6709,28.08816a3.48056,3.48056,0,0,1,.45282,2.27869Q268.92978,232.98911,247.509,241.78C246.92418,242.01947,246.32693,242.79556,245.57852,242.03488Z"/><path d="M271.80579,178.20634q-5.98228-14.31546-11.96125-28.63233-7.202-17.3188-14.36436-34.65426c1.246-.32226,2.23711.4047,3.28274.83622q20.69346,8.53993,41.3727,17.11427a1.897,1.897,0,0,1,.35068.25082c-1.80649,5.47974-4.27622,10.695-6.43784,16.03231-3.787,9.35034-7.705,18.64762-11.57965,27.96235A8.17752,8.17752,0,0,1,271.80579,178.20634Z"/><path d="M116.89585,242.89778q15.06664,6.1767,30.132,12.35646,15.55973,6.40449,31.09913,12.85819c.85291.354,1.6408.86468,2.45864,1.30261q-12.82476,5.3741-25.65035,10.74512-8.46328,3.53278-16.94926,7.0112c-.79073.32486-1.62726.5382-2.44255.80307q-5.64962-13.55-11.29386-27.102C121.7719,254.89182,119.34532,248.89008,116.89585,242.89778Z"/><path d="M181.40518,269.22266q23.25544-9.67169,46.5119-19.34107,7.55883-3.1401,15.13851-6.22961c.553-.22571,1.06318-.7764,1.76217-.38912-1.08656,4.18737-3.09391,8.01732-4.71389,11.99381-4.44689,10.91566-9.01271,21.78285-13.53159,32.66905-4.976-1.46582-9.62138-3.773-14.41222-5.70511-9.87257-3.98154-19.69244-8.09378-29.5265-12.17035A7.30074,7.30074,0,0,1,181.40518,269.22266Z"/><path d="M90.35376,179.13089q13.01762,31.34541,26.03,62.693a3.12437,3.12437,0,0,1,.12121.6373c-3.968-1.06177-7.62632-2.92569-11.40677-4.46344-10.91677-4.44049-21.791-8.98559-32.67674-13.50209a7.11977,7.11977,0,0,1-1.06675-.67972q8.85205-21.38462,17.71492-42.765C89.36387,180.34209,89.51263,179.49255,90.35376,179.13089Z"/><path d="M180.60526,87.92135q-31.42594,13.02683-62.85335,26.05a7.91089,7.91089,0,0,1-.82984.245c1.72717-5.33514,4.14157-10.39642,6.244-15.58079,3.83494-9.4565,7.799-18.86068,11.71886-28.28266a14.075,14.075,0,0,1,.71567-1.31942c11.86264,4.89576,23.73554,9.76672,35.58116,14.70312C174.35272,85.058,177.683,86.03531,180.60526,87.92135Z"/><path d="M244.79623,243.3102c-.16108-.446.232-.3696.44007-.467Q245.01582,243.077,244.79623,243.3102Z"/><path d="M126.72168,189h-3.4751v-8.9082H114.27V189h-3.48828V168.92285H114.27v8.356h8.97656v-8.356h3.4751Z"/><path d="M148.98535,179.48486a12.32342,12.32342,0,0,1-1.02,5.17823,7.718,7.718,0,0,1-2.9165,3.41894,8.552,8.552,0,0,1-8.71485,0,7.8283,7.8283,0,0,1-2.95068-3.39844,11.92955,11.92955,0,0,1-1.05518-5.08838v-1.13037a12.21,12.21,0,0,1,1.04151-5.18505,7.82172,7.82172,0,0,1,2.937-3.43995,8.573,8.573,0,0,1,8.70068-.01416,7.73,7.73,0,0,1,2.93018,3.39209,12.189,12.189,0,0,1,1.04785,5.15039Zm-3.48828-1.04785a8.77917,8.77917,0,0,0-1.26172-5.11572,4.45211,4.45211,0,0,0-7.11523-.00684,8.60591,8.60591,0,0,0-1.30323,5.01221v1.1582a8.70616,8.70616,0,0,0,1.28956,5.11573,4.15178,4.15178,0,0,0,3.57812,1.80664,4.10476,4.10476,0,0,0,3.56445-1.76465,8.89947,8.89947,0,0,0,1.24805-5.15772Z"/><path d="M161.95557,181.27734h-3.88868V189h-3.48828V168.92285h7.05957a8.21389,8.21389,0,0,1,5.36426,1.55908,5.51864,5.51864,0,0,1,1.88916,4.51319,5.65222,5.65222,0,0,1-.97217,3.374A6.18538,6.18538,0,0,1,165.21,180.46l4.50879,8.36035V189h-3.73682Zm-3.88868-2.8125h3.58545a3.98691,3.98691,0,0,0,2.75782-.88964,3.10148,3.10148,0,0,0,.99267-2.4336,3.30228,3.30228,0,0,0-.917-2.49609,3.89871,3.89871,0,0,0-2.7373-.90967h-3.68165Z"/><path d="M190.3418,179.48486a12.30071,12.30071,0,0,1-1.02149,5.17823,7.711,7.711,0,0,1-2.916,3.41894,8.55111,8.55111,0,0,1-8.71436,0,7.82824,7.82824,0,0,1-2.95068-3.39844,11.92955,11.92955,0,0,1-1.05518-5.08838v-1.13037a12.21,12.21,0,0,1,1.04151-5.18505,7.82166,7.82166,0,0,1,2.937-3.43995,8.573,8.573,0,0,1,8.70068-.01416,7.72908,7.72908,0,0,1,2.92969,3.39209,12.19641,12.19641,0,0,1,1.04883,5.15039Zm-3.48828-1.04785a8.78659,8.78659,0,0,0-1.26172-5.11572,4.45261,4.45261,0,0,0-7.11573-.00684,8.606,8.606,0,0,0-1.30322,5.01221v1.1582a8.70624,8.70624,0,0,0,1.28955,5.11573,4.1509,4.1509,0,0,0,3.57862,1.80664,4.10651,4.10651,0,0,0,3.56445-1.76465,8.89947,8.89947,0,0,0,1.24805-5.15772Z"/><path d="M202.7041,184.62891l5.10254-15.70606h3.833L204.41406,189h-3.37793l-7.19824-20.07715h3.81934Z"/><path d="M231.86328,179.48486a12.31579,12.31579,0,0,1-1.02051,5.17823,7.71089,7.71089,0,0,1-2.916,3.41894,8.552,8.552,0,0,1-8.71485,0,7.83244,7.83244,0,0,1-2.95117-3.39844,11.95149,11.95149,0,0,1-1.05469-5.08838v-1.13037a12.21,12.21,0,0,1,1.041-5.18505,7.82269,7.82269,0,0,1,2.9375-3.43995,8.57393,8.57393,0,0,1,8.70117-.01416,7.72908,7.72908,0,0,1,2.92969,3.39209,12.1815,12.1815,0,0,1,1.04785,5.15039ZM228.375,178.437a8.77917,8.77917,0,0,0-1.26172-5.11572,4.45211,4.45211,0,0,0-7.11523-.00684,8.59868,8.59868,0,0,0-1.30274,5.01221v1.1582a8.7099,8.7099,0,0,0,1.28907,5.11573,4.15119,4.15119,0,0,0,3.57812,1.80664,4.10533,4.10533,0,0,0,3.56445-1.76465,8.89947,8.89947,0,0,0,1.24805-5.15772Z"/><path d="M237.45605,189V168.92285h5.92872a9.29858,9.29858,0,0,1,4.72265,1.18555,8.08465,8.08465,0,0,1,3.19238,3.36474,10.679,10.679,0,0,1,1.13086,4.9917v1.00635a10.63088,10.63088,0,0,1-1.13769,5.019,7.9886,7.9886,0,0,1-3.24024,3.33789A9.73463,9.73463,0,0,1,243.2334,189Zm3.48829-17.26416v14.45068h2.27539a5.24491,5.24491,0,0,0,4.21289-1.71386,7.45771,7.45771,0,0,0,1.49609-4.91993V178.438a7.64589,7.64589,0,0,0-1.4209-4.98194,5.039,5.039,0,0,0-4.123-1.72021Z"/></svg>