<svg id="Layer_1" data-name="Layer 1" xmlns="http://www.w3.org/2000/svg" viewBox="0 0 800 800"><defs><style>.cls-1{fill:#fff;}.cls-2{fill:#e8eeae;}.cls-3{fill:#f8f8f8;}.cls-4{fill:#feffff;}</style></defs><g id="背景"><path class="cls-1" d="M307.95146,337.70642c-.26871,1.20789.74429,1.80166,1.30545,2.56267A87.70133,87.70133,0,0,1,323.722,370.87052a110.66217,110.66217,0,0,1,2.36235,13.56688c.22438,1.76619.31993,1.82591,1.83311,1.612,4.14338-.58562,8.28074-1.21329,12.394-1.8204.33374-.83732-.27324-1.23225-.66378-1.68892-9.83548-11.50145-14.61454-24.99057-15.525-39.94079-1.21935-20.02188-1.53855-40.07148-1.58664-60.12581-.041-17.11533-.06341-34.22956.249-51.34479a84.77806,84.77806,0,0,0-6.36832-34.39328,56.48645,56.48645,0,0,0-5.196-9.78563,37.79745,37.79745,0,0,0-7.69952-8.463c-10.65642-8.61436-22.43524-15.07738-35.76369-18.45482a75.7391,75.7391,0,0,0-50.14733,4.18848A95.04519,95.04519,0,0,0,188.994,183.73493q-.57407.45075-1.15039.90444c-1.30925,1.03441-1.65841,1.01733-2.84978-.1412-1.32807-1.29145-1.3399-1.471-.27761-3.18594.26015-.42.486-.86124.72757-1.2927,1.29064-.66265,2.04575-1.89,2.99981-2.89691a90.20492,90.20492,0,0,1,25.895-19.42969,81.69853,81.69853,0,0,1,44.97333-7.98816c16.5806,1.687,31.71741,7.37538,45.73424,16.19054,12.72339,8.0017,20.44826,19.673,24.36635,34.02322a96.20139,96.20139,0,0,1,3.12658,19.62239q1.37134,22.75059,2.81644,45.49673c.56107,8.79193,1.09221,17.588,1.83429,26.36558,1.07506,12.71683,2.0773,25.45312,4.50061,38.00737a69.90869,69.90869,0,0,0,18.57748,35.845,39.83828,39.83828,0,0,0,7.01071,5.97c1.29406-.51134,1.72678-1.79456,2.45257-2.77989a79.59226,79.59226,0,0,1,33.68521-26.89976c26.5483-11.1378,56.767-6.13167,78.802,12.98571A83.98039,83.98039,0,0,1,497.71777,372.417c.41573.64169.79462,1.30976,1.24611,1.92488a.84969.84969,0,0,0,1.29277.268,6.35152,6.35152,0,0,0,.605-.46751q3.07913-2.83939,6.1506-5.68722c-1.04771-2.80476-3.172-4.866-5.03039-7.07771-13.86969-16.50795-31.08891-27.79737-52.05809-33.155A96.659,96.659,0,0,0,410.056,326.62c-.44729.07277-.90757.34981-1.35211-.01882-.02519-.75023.52845-1.14217.98606-1.56016,10.18759-9.30451,22.12084-14.66169,35.95381-14.90313,23.37615-.408,41.21031,9.84643,53.95406,29.20828a63.25875,63.25875,0,0,1,9.2356,23.33353c.20578,1.09445.4968,2.17288.76295,3.32174,1.38765-.27017,2.11625-1.21407,2.97656-1.91583a205.12024,205.12024,0,0,1,18.13082-13.45942,80.25167,80.25167,0,0,1,13.46274-7.23711,32.66864,32.66864,0,0,1,12.62476-2.74051,16.83045,16.83045,0,0,1,13.33981,6.38123,29.87135,29.87135,0,0,1,4.47949,7.54177,70.87592,70.87592,0,0,1,4.57146,17.34224,181.97378,181.97378,0,0,1,1.74556,20.21116,119.18114,119.18114,0,0,0,2.86846,23.91217,47.18294,47.18294,0,0,0,3.2528,9.37975,23.3305,23.3305,0,0,0,3.5415,5.437,14.074,14.074,0,0,0,14.17024,4.63872,33.61336,33.61336,0,0,0,9.9061-3.95512,76.34736,76.34736,0,0,0,10.64282-7.46951,166.56034,166.56034,0,0,0,15.80107-15.0455,414.63905,414.63905,0,0,0,30.34594-37.00085c5.31807-7.18074,10.50263-14.46091,15.7105-21.7228a265.64477,265.64477,0,0,1,28.13373-33.8263,96.86984,96.86984,0,0,1,10.96033-9.5563,38.05944,38.05944,0,0,1,7.88673-4.66508,15.38062,15.38062,0,0,1,5.91731-1.35715,7.33636,7.33636,0,0,1,6.45532,3.43771,10.62986,10.62986,0,0,1,2.06171,6.0639,2.74194,2.74194,0,0,0,.695,2.80724v15.33c-.46989,1.64533-1.03412,3.27845-.65275,5.03426-.43989,7.4167-2.01451,14.65715-3.52364,21.89633-4.08933,19.61664-9.71924,38.83015-15.32212,58.05086-8.6349,29.622-17.34467,59.2235-25.31549,89.03423-3.75553,14.04585-7.33473,28.13745-9.97125,42.44643a153.3,153.3,0,0,0-2.88567,26.992A69.73135,69.73135,0,0,0,697.76461,601.34c1.56873,3.487,3.3316,6.886,4.94193,10.35483,7.52968,16.22046,8.29253,32.79274,1.791,49.42769-5.68833,14.55442-16.56564,23.92525-31.1596,29.07723a74.21184,74.21184,0,0,1-20.59757,3.96359c-15.05506.85724-29.77686-1.29342-44.32939-4.94064-2.225-.55759-4.42533-1.213-6.64261-1.80236a1.92908,1.92908,0,0,0-1.91153.153c.34544.54443.65113,1.08865,1.015,1.59069,16.22559,22.38553,29.74832,46.36218,41.82756,71.18442,3.9062,8.02708,7.63865,16.13627,11.06115,24.38462.293.70631.62594,1.39639.90471,2.108.773,1.97319.55592,2.28983-1.41889,2.11878-14.4919-1.2549-28.96529-2.70594-43.39818-4.51024-27.85092-3.48173-55.5742-7.77792-83.01942-13.71222-21.82319-4.71867-43.42408-10.2626-64.32235-18.25046-4.28457-1.63767-8.503-3.45239-12.72388-5.25129-3.13335-1.33549-3.11646-1.38981-6.36311.17542q-8.618,4.15479-17.60151,7.44257a192.39351,192.39351,0,0,1-80.12321,11.14945,188.6889,188.6889,0,0,1-62.47843-15.36468,11.10122,11.10122,0,0,0-3.57248-1.28247q-.36537-.422-.73089-.84365-1.533-.76479-3.06357-1.53438a1.81741,1.81741,0,0,0-1.53187-.76732,1.88947,1.88947,0,0,0-1.50449-.77849c-.59271-.7978-1.47574-.71143-2.31483-.75977q-.37706-.37656-.753-.75464a1.83465,1.83465,0,0,0-1.547-.78685,3.39354,3.39354,0,0,0-.529-.49254.358.358,0,0,0-.5768.24133c-.01631.06009.13853.2114.2411.25018a6.34768,6.34768,0,0,0,.70855.187,1.9018,1.9018,0,0,0,1.56865.73695q.384.36969.76679.74106c.5738.83194,1.46587.73587,2.30625.791a1.86379,1.86379,0,0,0,1.4974.78588q1.53318.76729,3.07069,1.526a1.933,1.933,0,0,0,1.53316.76549q.03428.61955.06864,1.239c-5.88421,2.4495-11.96472,4.34593-18.006,6.34571-30.97528,10.25353-62.41462,18.83924-94.20809,26.14458q-5.95846,1.36913-11.923,2.71138c-.59907.13443-1.21874.17693-1.648.23675-.78683-.49853-.54956-1.03525-.42522-1.48507,9.67005-34.98186,22.0649-68.91633,38.90471-101.13707,1.23914-2.37091,2.58418-4.68647,3.87943-7.02679q.74937.01513,1.49965.02875c-.09667,1.17459.15542,2.11463,1.53943,2.29377-.05335.66359-.05715,1.30259.75583,1.53993a1.583,1.583,0,0,0,.74671,1.54684.87547.87547,0,0,0,.77861.77039c.06578.44929.2336.79387.77461.75546-.07369,1.15425.21491,2.06883,1.52484,2.308l.28618,2.38126c-6.60867,13.227-12.495,26.77429-17.91865,40.525-4.20637,10.66462-8.15108,21.42482-11.65734,32.34265a18.12094,18.12094,0,0,0-.56562,1.82145,1.74729,1.74729,0,0,0,.10725,1.06924c.21476.42511.67079.21539.98132.08911.94237-.3832,1.86921-.80746,2.78845-1.24439q23.97893-11.39848,47.95435-22.80422,10.17057-4.83648,20.34292-9.66913c.09484-.06564.26786-.12913.26977-.19742a3.17375,3.17375,0,0,0-.091-.61267.3962.3962,0,0,1-.37566-.41579l.00136-.01845a1.01163,1.01163,0,0,0-.45052-.3518,18.16015,18.16015,0,0,1-1.61035-1.002,197.87447,197.87447,0,0,1-17.03089-14.79128A206.76407,206.76407,0,0,1,204.54112,687.233a3.34691,3.34691,0,0,0-1.53708-2.25359,4.216,4.216,0,0,0-1.52376-2.30639.9341.9341,0,0,0-.77676-.75761c-.075-.44189-.24051-.7923-.77591-.76926.03389-.6555-.01186-1.27233-.7528-1.55153a1.869,1.869,0,0,0-.75311-1.54543,3.95222,3.95222,0,0,0-1.5423-2.29032,2.98819,2.98819,0,0,0-1.41217-2.33412,173.56746,173.56746,0,0,1-11.54443-22.44934,80.03862,80.03862,0,0,1-2.85939-7.8953,20.08679,20.08679,0,0,1-.13194-11.34353,30.17013,30.17013,0,0,0,1.4309-5.52764,5.87617,5.87617,0,0,1,1.175-2.36745,27.91644,27.91644,0,0,1,5.10086-5.68169,54.06659,54.06659,0,0,1,8.28863-6.15509,5.598,5.598,0,0,0,3.07146-4.83194,32.76833,32.76833,0,0,1,2.925-11.43194,8.38321,8.38321,0,0,1,.66181-1.35907,2.30125,2.30125,0,0,1,3.63662-.07,32.70414,32.70414,0,0,1,1.53679,3.06341c1.00338,1.883,1.315,4.1184,2.90211,5.70273,2.01359-.45818,3.67591-1.67166,5.45678-2.60777q7.78845-4.0937,15.48771-8.3565a53.51063,53.51063,0,0,0,8.57556-5.74243,12.76391,12.76391,0,0,0,3.45611-4.04353,3.512,3.512,0,0,0-.40372-3.94714,10.7961,10.7961,0,0,0-3.94689-2.95876A59.76969,59.76969,0,0,0,229.4553,571.697a2.76322,2.76322,0,0,0-2.14437.45058c-2.80794,1.43221-3.95241,1.31149-6.03542-.96928a5.19714,5.19714,0,0,0-3.16739-1.88489q-9.07044-1.42374-18.12573-2.9428a1.71053,1.71053,0,0,0-2.12483,1.10673c-.55561,1.28786-1.14247,2.56218-1.693,3.85209-.56666,1.32778-1.15055,2.64817-2.927,2.52647-1.55735-.10675-2.07215-1.30393-2.47128-2.55678A31.47586,31.47586,0,0,1,189.362,566.525c-.2189-1.45842-.92555-1.82442-2.2196-2.03738-3.89875-.64164-7.77782-1.4054-11.65858-2.1526-1.12481-.21653-2.23842-.506-3.34159-.81738-2.28033-.64358-2.23989-.6555-2.00368-3.18624a197.01057,197.01057,0,0,1,8.86975-43.42257,189.17842,189.17842,0,0,1,22.98939-46.94944c.71334-1.05715,1.41682-2.121,2.10241-3.14794.014-.98131-.76306-1.28791-1.34106-1.71983-18.811-14.05634-30.07792-32.773-33.62768-55.89661-4.27874-27.87222,2.768-52.68742,21.71908-73.73269a73.521,73.521,0,0,1,40.38918-23.39308c22.50138-4.6805,43.02373.02951,61.5268,13.62735a78.50715,78.50715,0,0,1,8.93425,7.80036,3.198,3.198,0,0,0,1.49961,1.11981c.52879.12228.62251-.31516.901-.51811l.04779-.18912c-.34113.24141-.8454.3206-.71265.962a1.27594,1.27594,0,0,0,1.44265,1.08385l.04563-.00733-.04369-.06525c-.17995,1.03178.40815,1.84606,1.32543,1.81048.099-.0038.19249-.14888.28853-.22842l-.06874-.09159c-.55509.778-.37614,1.148.80084,1.65566l-.07282-.09852c-.01963.60658.06295,1.10767.87863.85242ZM250.45113,732.56216l.76511.7424a1.80739,1.80739,0,0,0,1.53386.78954q.38182.37212.7636.74451a2.00163,2.00163,0,0,0,1.48953.83254,1.96,1.96,0,0,0,1.57882.72077q.37778.37584.75556.75184a1.78589,1.78589,0,0,0,1.54357.78064l.76142.74683a1.97144,1.97144,0,0,0,1.497.82283,2.15227,2.15227,0,0,0,1.53276.76656,1.93959,1.93959,0,0,0,1.56833.73831l.42309.26954-.27613-.41912a1.8826,1.8826,0,0,0-1.55015-.78718,1.85321,1.85321,0,0,0-1.52674-.77342,1.79443,1.79443,0,0,0-1.53152-.75513l-.75343-.75453a1.78891,1.78891,0,0,0-1.5429-.78108q-.37928-.37479-.7585-.74936a1.84591,1.84591,0,0,0-1.539-.79726,1.77809,1.77809,0,0,0-1.53178-.75357l-.75017-.7574a1.76239,1.76239,0,0,0-1.54886-.77541q-.37347-.37956-.747-.75923l-.76385-.76759a1.84112,1.84112,0,0,0-1.54548-.78248q-.381-.38952-.76253-.77817l-.45316-.26091.26743.447.78693.75394a1.83406,1.83406,0,0,0,1.5381.79Q250.06255,732.18559,250.45113,732.56216Zm-41.30631-79.02271c-.15932-.326-.26519-.36659-.27332-.12029-.00089.027.19511.06047.29978.091a1.091,1.091,0,0,0,.29479,1.47062c.28414.57081.55907,1.14637.85374,1.71173a190.05848,190.05848,0,0,0,78.206,78.01308c24.10773,12.40511,49.89623,17.5668,76.81139,17.46917a194.80871,194.80871,0,0,0,56.10731-8.73329,257.98048,257.98048,0,0,0,74.04361-36.67768c1.24665-.87942,2.53435-1.70068,3.8029-2.549l.27537,1.63729c-.56773.68048-1.09712,1.39769-1.70893,2.03593a190.44407,190.44407,0,0,1-35.50145,28.99c-.96917.61591-1.95431,1.20711-2.91278,1.83915a.70361.70361,0,0,0,.01956,1.22836c1.85581.84457,3.70434,1.7105,5.5922,2.47841,16.43545,6.68485,33.63453,10.18875,51.1784,12.23433a315.571,315.571,0,0,0,35.52694,1.90776,417.10816,417.10816,0,0,0,55.34231-3.5538c3.36084-.4379,6.78658-.66316,10.05977-1.715a12.23375,12.23375,0,0,0-1.54187-4.4092q-8.51283-19.269-18.84787-37.62717c-8.72875-15.47661-18.30245-30.39157-29.62171-44.12921a145.407,145.407,0,0,0-23.61718-23.39521,74.2045,74.2045,0,0,0-19.92034-11.23376,7.55948,7.55948,0,0,1-1.72409-.79742,1.05366,1.05366,0,0,1-.21328-1.37438.90152.90152,0,0,1,.82606-.64871,6.089,6.089,0,0,1,1.131.14867,70.55881,70.55881,0,0,1,14.93471,4.67152,106.01684,106.01684,0,0,1,24.58274,15.37795c.89106.725,1.78412,1.44785,2.66381,2.18658a1.23772,1.23772,0,0,0,1.71643.06322c.50489-.38951.99307-.80082,1.48679-1.20473a321.88025,321.88025,0,0,0,26.60384-24.22026c11.72522-12.00847,22.3222-24.88756,30.47712-39.64545a3.02688,3.02688,0,0,1,.51526-.54854q.80532.01659,1.61054.03323a42.64174,42.64174,0,0,1-3.4731,7.637c-12.52151,24.27953-27.19326,47.07081-46.318,66.76858-1.45066,1.49419-1.43038,1.52585-.0116,3.10015,2.82035,3.12932,5.66664,6.23556,8.45586,9.39235a6.25614,6.25614,0,0,0,2.81512,1.87226c18.71107,6.17321,37.692,7.652,56.95144,3.02883a75.91513,75.91513,0,0,0,29.22746-13.7332,50.91189,50.91189,0,0,0,14.57114-17.03121A35.14664,35.14664,0,0,0,694.12,622.5796a41.104,41.104,0,0,0-2.91464-9.0851,74.86428,74.86428,0,0,1-6.32888-30.50555,166.70387,166.70387,0,0,1,2.67319-28.176c2.23-13.21656,5.29822-26.25532,8.57271-39.24823,6.76592-26.84673,14.47658-53.43045,22.1731-80.01858,4.86367-16.80177,9.29418-33.7043,11.41733-51.11467.88184-7.2312,1.46533-14.48376.44642-21.7665a25.90266,25.90266,0,0,0-3.19174-10.14726,9.72985,9.72985,0,0,0-9.24158-5.03021,18.36115,18.36115,0,0,0-6.65156,1.59225,40.59048,40.59048,0,0,0-9.6688,6.12607,82.2887,82.2887,0,0,0-18.43381,21.84268,302.46537,302.46537,0,0,1-25.19854,36.07079,254.49721,254.49721,0,0,1-34.26832,35.4887,116.08641,116.08641,0,0,1-20.12046,13.91078c-5.5586,2.93481-11.32249,5.29159-17.69006,5.80625-7.91515.63969-14.22478-2.18961-18.86582-8.65918a31.42651,31.42651,0,0,1-3.18149-5.66464,54.71177,54.71177,0,0,1-3.63012-12.06609,129.70351,129.70351,0,0,1-1.76444-29.37415,126.52863,126.52863,0,0,0-.54465-19.12585,39.84675,39.84675,0,0,0-3.68714-13.98679c-3.27545-6.41287-8.47933-8.95372-15.48384-7.61313a39.99757,39.99757,0,0,0-11.07107,4.12614,120.23506,120.23506,0,0,0-18.102,12.13465c-3.33711,2.61534-2.877,1.86539-1.74259,5.62969a90.31968,90.31968,0,0,1-.54735,55.01159c-1.7057,2.82016-.76446,5.02961,1.084,7.54961a291.30108,291.30108,0,0,1,26.7237,44.16476,10.75082,10.75082,0,0,1,1.46538,3.50422,1.42941,1.42941,0,0,1-1.3753.85093,9.9037,9.9037,0,0,1-.67336-.9271c-8.39021-14.77374-19.17367-27.668-31.10937-39.65678-.53333-.53569-1.116-1.0222-1.63757-1.497-.23292.11333-.38477.1369-.443.22337-.5652.83993-1.1454,1.67214-1.664,2.54061a82.36169,82.36169,0,0,1-20.31622,23.209c-15.94884,12.34874-34.02091,17.80414-54.09333,15.93441-16.24509-1.51323-30.50086-7.98215-42.774-18.71279-23.08939-20.18773-32.77359-51.03845-27.90744-80.35874.355-2.13882.83823-4.25607,1.21361-6.39184.17684-1.00639-.22343-1.49181-1.20436-1.415-4.57829.35874-9.163.57947-13.73157,1.13326a143.9597,143.9597,0,0,0-51.20184,15.99068c-25.73664,13.80689-46.99338,32.8309-64.30892,56.27717a167.78966,167.78966,0,0,0-22.88789,43.139c-.327.90881-1.07681,1.792-.52333,2.89284,1.13131.1704,1.893-.62394,2.75274-1.06729a56.34972,56.34972,0,0,1,9.53842-3.92594c8.12815-2.45554,16.29911-2.92974,24.50417-.458,3.416,1.0291,6.82559,2.11026,10.16025,3.37341,12.91225,4.89139,25.16063,11.20269,37.30506,17.71563,20.13494,10.79807,39.73346,22.529,59.32583,34.26945,11.71106,7.01772,23.30569,14.23514,35.25162,20.85245,7.25652,4.01958,7.30451,3.98867,16.42261,2.41379.25032-.04332.49028-.14327.73884-.20013a131.24769,131.24769,0,0,0,25.61242-8.9018q16.86962-7.76632,32.90569-17.15528a80.89292,80.89292,0,0,1,9.18349-4.71672c.82075-.35041,1.63824-.71085,2.442-1.09842a4.15158,4.15158,0,0,0,2.59778-4.63484c-.48917-3.52586-1.0815-7.01934-4.26178-9.39284,6.79691-1.70807,11.02382,1.29671,11.69925,8.17726a11.91067,11.91067,0,0,0,.39016,2.25444c2.64725,8.81765,2.29695,17.67161.13308,26.48419a105.0735,105.0735,0,0,1-17.09807,36.52428c-4.71463,6.55322-10.27991,12.34776-15.88571,18.12908a49.23675,49.23675,0,0,1-12.56666,9.27444,165.23432,165.23432,0,0,1-19.2384,8.49675,488.99373,488.99373,0,0,1-82.12307,22.68615,94.659,94.659,0,0,1-15.565,1.8775c-8.16728.15093-16.33367.35833-24.50137.47722-12.26343.1786-24.505-.1019-36.64236-2.12072a74.13532,74.13532,0,0,1-28.50335-10.53932c-5.37374-3.46614-10.472-7.28791-15.51379-11.2008a2.02327,2.02327,0,0,0-1.6282-1.24239Zm-1.92285-117.031a34.119,34.119,0,0,0-7.33381,4.02476,9.96391,9.96391,0,0,1-4.82113,2.0917,1.91951,1.91951,0,0,0-1.84788,1.98857l.00232.04725a75.44918,75.44918,0,0,0,.27723,16.77111c.08795.61639.00171,1.40723.82191,1.93834,1.66055-3.49985,3.21678-6.83033,4.81637-10.13982a90.84328,90.84328,0,0,1,9.13584-15.83694c.39054-.32122.69579-.688.20191-1.13267C207.98523,535.82012,207.61913,536.3118,207.222,536.50847Zm4.22649-.86409a4.677,4.677,0,0,1,3.82148,3.776c.97706,3.428,2.05017,6.82914,3.10643,10.23422,1.47117,4.74261,2.93128,9.48917,4.46892,14.21032.42333,1.29989.73441,2.72692,2.19017,3.72366,5.33723-11.19789,9.67058-22.76566,14.79535-33.99678-8.78252-3.301-21.44588-2.01623-28.47647,1.19476a3.23148,3.23148,0,0,0-2.09337.73857.63793.63793,0,0,0-.14734.6158.6807.6807,0,0,0,.61317.23254c.58958-.19586,1.15011-.47911,1.72169-.72907Zm281.1792-111.7141c0-2.16924.01375-4.33864-.00745-6.50767a19.48312,19.48312,0,0,0-.16-2.29156,81.19225,81.19225,0,0,0-14.08081-37.19868c-12.34768-17.43709-28.80943-28.27606-50.33667-30.60505a59.2907,59.2907,0,0,0-32.40651,5.45978c-15.62217,7.44219-26.23493,19.60089-32.47087,35.57295-6.85687,17.56254-6.86982,35.43042-1.1666,53.26355,5.68458,17.77461,16.26677,31.96261,32.22449,41.84987,14.36991,8.90353,30.01317,12.02973,46.61865,8.893,17.75376-3.35367,31.29938-13.1919,40.8873-28.41083C489.41326,451.759,492.81154,438.29653,492.62766,423.93028Zm-319.86653-35.389a82.85,82.85,0,0,0,1.967,17.85191c4.68257,19.85485,15.24981,35.74446,32.126,47.288,4.54152,3.10648,3.3805,3.05426,6.78291-.99364,25.59876-30.45544,57.34866-51.45709,95.6826-62.34635.85824-.24379,1.73118-.4379,2.5833-.70044,1.211-.37311,1.458-.73547,1.38169-1.90735-.02486-.382-.06149-.76447-.118-1.143-1.997-13.36759-6.65612-25.716-14.88522-36.46847-16.65774-21.76571-38.52257-32.54617-66.16282-30.05468-16.73683,1.50868-30.75629,8.87842-41.89743,21.4398-11.9646,13.4898-17.30571,29.52333-17.46,47.03413ZM291.4967,615.86983a8.67253,8.67253,0,0,0-1.24582,3.25625c-.97677,4.485-1.94889,8.97171-2.99913,13.43982a131.94292,131.94292,0,0,1-4.45767,16.21928,17.69651,17.69651,0,0,1-1.98981,4.12185c-2.3332,3.29191-5.76983,3.42342-8.24929.22586a18.62446,18.62446,0,0,1-2.2634-3.9719q-3.8195-8.76657-7.50067-17.59345c-3.69461-8.82029-7.34123-17.66071-11.02872-26.484a37.15325,37.15325,0,0,0-1.666-3.4409c-.96181-1.7647-1.58928-1.79572-2.57508-.17488a32.71722,32.71722,0,0,0-3.09235,6.983c-2.11782,6.54972-4.12717,13.1344-6.22011,19.69221-1.39508,4.37118-2.928,8.69931-4.272,13.08575-1.1131,3.633-4.54374,4.175-7.16306,1.6216a21.5811,21.5811,0,0,1-3.54683-4.49875c-1.94121-3.29536-3.86572-6.60733-5.62485-10.00178-3.87425-7.4758-7.27454-15.1774-10.64163-22.8921-.32566-.74623-.36647-1.73526-1.4179-1.906a45.29424,45.29424,0,0,0-1.42431,8.71144,93.26283,93.26283,0,0,0-.54344,16.0601,4.0987,4.0987,0,0,0,1.36248,3.00024,181.34775,181.34775,0,0,0,26.11105,20.6068,63.5029,63.5029,0,0,0,21.98105,8.50927,141.42338,141.42338,0,0,0,27.40594,2.45963c11.87017-.032,23.74125-.10561,35.60923-.31453a104.41156,104.41156,0,0,0,11.0515-.98212c10.00167-1.24821,19.91575-3.04394,29.79408-5.0311,18.00481-3.62176,35.8623-7.85695,53.44941-13.16811a159.14674,159.14674,0,0,0,20.48424-7.39872,10.41243,10.41243,0,0,0,3.6377-2.08441c-3.47978-2.37064-6.84219-4.663-10.20627-6.95262a134.86417,134.86417,0,0,0-12.01193-7.48637,39.62492,39.62492,0,0,0-6.62111-2.9682,10.43759,10.43759,0,0,0-2.98579-.59309,1.45262,1.45262,0,0,0-1.6568,1.21455l-.00148.00982c-.14152.74968-.18629,1.51755-.27373,2.27742-.51069,4.43715-1.03552,8.87273-1.5224,13.31247a9.54771,9.54771,0,0,1-.90166,3.30652,2.87966,2.87966,0,0,1-3.57176,1.44246,5.3792,5.3792,0,0,1-1.94913-1.14265c-1.559-1.50374-3.10624-3.034-4.51318-4.67794-2.15732-2.52065-4.17429-5.16088-6.28735-7.72015a41.25475,41.25475,0,0,0-5.55628-5.79913c-.66421-.54373-1.29-1.26056-2.3271-1.01658a15.41192,15.41192,0,0,0-1.0099,5.237c-.24856,4.71711-.52375,9.43292-.73868,14.15153a18.59724,18.59724,0,0,1-.77369,5.28382,9.62112,9.62112,0,0,1-4.79742,5.70683,6.17722,6.17722,0,0,1-7.69194-1.19606c-1.59236-1.65266-3.01408-3.46856-4.54581-5.18132q-5.74383-6.42253-11.525-12.81151a24.46756,24.46756,0,0,0-2.1868-2.14381,2.26318,2.26318,0,0,0-3.41916-.01888,8.19851,8.19851,0,0,0-2.631,5.35686,79.27489,79.27489,0,0,1-4.558,16.56515,51.31086,51.31086,0,0,1-2.46719,5.17038,7.594,7.594,0,0,1-2.22945,2.59487,3.86244,3.86244,0,0,1-5.21657-.29884,18.13407,18.13407,0,0,1-1.95078-2.35623c-2.46822-3.41231-4.93662-6.8251-7.35171-10.275-5.56237-7.94568-11.08137-15.92174-16.65181-23.8617a9.78,9.78,0,0,0-2.83367-3.18ZM289.567,564.81206c-.926.65243-1.84357,1.3007-2.76309,1.94612a17.14411,17.14411,0,0,1-4.29657,2.46147,6.46159,6.46159,0,0,1-8.02768-2.61143,18.2102,18.2102,0,0,1-1.70922-3.4061c-2.05993-5.08434-3.73877-10.30262-5.35144-15.54264-.3-.97494-.54834-1.97119-.92313-2.91679-1.00574-2.53775-1.31373-3.99973-5.06028-2.54266-1.89989.7389-3.79637,1.48966-5.71735,2.17008a24.92521,24.92521,0,0,1-4.02019,1.19692c-2.5722.44367-4.81149-.15859-6.30309-2.54223-.54068-.86409-1.13312-1.69819-1.74093-2.517-.63353-.85347-1.234-.8197-1.639.12542q-4.21695,9.84344-8.39277,19.70435a1.47214,1.47214,0,0,0-.21686.72293c.06423.34263.19011.81943.44216.95406a18.19086,18.19086,0,0,0,2.456,1.02706c4.68254,1.67527,9.31712,3.47223,13.81407,5.59964a46.31387,46.31387,0,0,1,8.87741,5.24142,13.71982,13.71982,0,0,1,3.80357,4.241,5.73312,5.73312,0,0,1,.1704,5.49726,21.51993,21.51993,0,0,1-2.98638,4.42809,72.99463,72.99463,0,0,1-6.99021,7.072c-.61534.56277-.99563,1.1256-.27138,1.92264a18.60025,18.60025,0,0,1,3.02209,5.29407q2.82288,6.48757,5.54171,13.02037c4.16986,10.00221,8.30048,20.02088,12.48127,30.01856a43.03012,43.03012,0,0,0,2.07315,4.08577.82121.82121,0,0,0,1.49947-.10454,39.81329,39.81329,0,0,0,3.00184-8.65345c1.74078-6.79063,3.447-13.59123,4.75791-20.48473.33215-1.74669.88869-3.45357,1.39483-5.16309a7.68421,7.68421,0,0,1,1.66963-2.98277,4.12917,4.12917,0,0,1,5.51693-.8402,9.53787,9.53787,0,0,1,2.73954,2.63479c1.29652,1.73838,2.57421,3.49084,3.87216,5.22815.28864.38633.53308.91377,1.18966.64115,2.29142-16.22694-3.86294-41.05727-11.91435-54.92571Zm-18.893-23.45988a179.26864,179.26864,0,0,0,6.67328,20.50414c.20239.46746.40359.9387.651,1.38286.9415,1.69069,2.0571,2.04218,3.80894,1.101a19.38086,19.38086,0,0,0,2.539-1.70505c2.13011-1.62537,4.22138-3.30151,6.34909-4.93a29.34031,29.34031,0,0,1,3.11759-2.20859c3.592-2.06819,6.50463-1.10592,7.96713,2.74288a56.45291,56.45291,0,0,1,1.59743,5.89908c.92909,3.57672,1.719,7.19589,2.805,10.72406,1.31432,4.27,1.88742,4.4604,5.9832,2.68129,3.03859-1.31985,6.04164-2.72158,9.07921-4.0438a17.61065,17.61065,0,0,1,5.53236-1.41425,9.23691,9.23691,0,0,1,8.17051,3.30086,30.099,30.099,0,0,1,3.5528,5.43308c1.35947,2.45349,2.70375,4.917,4.1348,7.32853a11.96735,11.96735,0,0,0,1.918,2.36012,1.64527,1.64527,0,0,0,2.111.253,8.83972,8.83972,0,0,0,1.88179-1.28252,74.29715,74.29715,0,0,0,7.33962-9.21471c-26.48662-17.06817-55.22253-28.67855-85.21186-38.91185Zm-41.13149,96.92033c1.36007-2.42409,9.78934-29.27724,9.99264-31.8336-2.53774,1.5101-18.69672,13.243-20.01722,14.53446C221.87858,627.39536,226.74064,635.78563,229.54253,638.27251ZM215.0089,555.39145c-1.25629-4.37711-2.25993-8.67142-3.90366-12.87926a25.302,25.302,0,0,0-5.90432,10.39761c2.5236.80724,5.057,1.63671,7.60505,2.41816a2.68953,2.68953,0,0,0,2.20295.06349Zm31.01272-20.78119a7.19184,7.19184,0,0,0,.44268,1.30825c.80358,1.29169,1.60771,2.58624,2.4856,3.82739.90226,1.27567,1.40107,1.46759,2.91649.94053,2.10911-.73372,4.1729-1.59787,6.85521-2.63868A61.52836,61.52836,0,0,0,246.02162,534.61026Z"/><path class="cls-2" d="M381.60817,18.74a3.06441,3.06441,0,0,1-.07778-.6401h8.42752q-.06141.3484-.08884.70113Q385.73993,18.77068,381.60817,18.74Z"/><path class="cls-1" d="M748.62445,333.56709c-.38136-1.75581.18287-3.389.65275-5.03426v5.36552Q748.94935,333.7358,748.62445,333.56709Z"/><path class="cls-1" d="M749.2772,313.20281a2.742,2.742,0,0,1-.695-2.80721c.2319-.08385.46353-.17129.695-.25876ZM185.44374,180.0195c-.2416.43147-.46741.87274-.72756,1.2927-1.06231,1.715-1.05048,1.89449.27761,3.18594,1.19134,1.15854,1.54052,1.1756,2.84977.14121q.57483-.45413,1.15039-.90445c1.0502,1.98254,2.88107,3.19011,4.57907,4.49468a51.3592,51.3592,0,0,0,17.79668,8.40831,89.09956,89.09956,0,0,0,19.16509,2.91776,120.76975,120.76975,0,0,0,18.65119-.27694q-.0425.56324-.08163,1.12538a165.70333,165.70333,0,0,0-28.29588,9.33784,96.31033,96.31033,0,0,0-24.9576,15.46243c-8.83718,7.75224-15.31729,17.05507-18.34241,28.55128a59.64512,59.64512,0,0,0-1.63488,21.62638,96.93206,96.93206,0,0,0,6.15085,24.80755c.50438,1.30865.95587,2.63772,1.43183,3.95736l-.28291-.08585-.05668.29029c-1.24777-.9691-1.84462-2.41657-2.67221-3.6872a153.29,153.29,0,0,0-22.21617-27.24167,101.58878,101.58878,0,0,0-28.51454-19.71365,74.95843,74.95843,0,0,0-38.8354-6.27565,88.75436,88.75436,0,0,0-26.48955,7.15646c-1.40118.6045-2.83084,1.1429-4.24775,1.71q-.39288-.50862-.7849-1.01352c3.24107-3.07018,6.57343-6.05038,9.70435-9.22909a84.191,84.191,0,0,0,16.39891-22.95119,54.776,54.776,0,0,0,5.47521-22.1412,52.93284,52.93284,0,0,0-4.30491-22.00552,84.65059,84.65059,0,0,0-14.89329-23.05681c-1.24376-1.42283-2.83711-2.57332-3.59169-4.39939l.17918-.16629c1.27038-.10164,2.10782.802,3.083,1.35857a96.91041,96.91041,0,0,0,24.277,10.17839c21.58473,5.45107,40.92283.79751,58.16574-13.0748,9.65613-7.76861,17.31758-17.29121,23.98114-27.659,2-3.11186,3.82855-6.33412,5.73515-9.5061a9.98527,9.98527,0,0,1,1.8668-2.85429c.03239.31529.06515.62738.09792.93947-1.40485,4.50239-2.89091,8.98133-4.19672,13.51231a100.34594,100.34594,0,0,0-3.98225,24.49361,62.38987,62.38987,0,0,0,1.27255,15.60546,42.89293,42.89293,0,0,0,6.81946,15.68924ZM79.72745,243.51781c1.34923.1775,2.47841-.54775,3.65938-.96726a95.47431,95.47431,0,0,1,15.12186-4.10718,57.6421,57.6421,0,0,1,17.14417-.76708,51.01284,51.01284,0,0,1,24.49969,10.061,111.47982,111.47982,0,0,1,16.52781,15.35751c4.09777,4.55576,8.05441,9.2384,12.10929,13.83324.51143.57953.81559,1.61437,1.95649,1.34909a5.91476,5.91476,0,0,0-.2553-2.67225c-1.44961-7.54943-2.25854-15.10773-1.35461-22.82988a45.95858,45.95858,0,0,1,16.826-31.17836,77.94142,77.94142,0,0,1,20.49431-11.79289c4.12616-1.698,8.349-3.1599,12.51171-4.771.60318-.23345,1.56237-.19917,1.49094-1.36844a79.94377,79.94377,0,0,1-11.45243-.82734,60.093,60.093,0,0,1-20.75179-6.31984c-10.41743-5.64414-16.72956-14.34391-18.96952-25.96875a59.5343,59.5343,0,0,1,.43275-23.20562c.16823-.83652.61511-1.66347.13514-2.54318-.94534.03687-1.20776.85984-1.65051,1.4388-1.78335,2.332-3.46336,4.7471-5.3193,7.01886A71.48055,71.48055,0,0,1,144.739,169.56157a46.41089,46.41089,0,0,1-26.62335,7.00414,55.04578,55.04578,0,0,1-19.97975-4.81561c-3.2598-1.448-6.441-3.07307-9.65941-4.61356-.28221-.22709-.63856-.53725-.93-.1943-.31308.36833.05578.61712.38582.78717.74768,1.01862,1.46124,2.06456,2.24915,3.051a56.50781,56.50781,0,0,1,7.605,12.2964,41.55593,41.55593,0,0,1,3.78839,20.03467A47.82027,47.82027,0,0,1,95.85793,222.345a74.86273,74.86273,0,0,1-12.47928,16.78078c-1.30853,1.35529-2.97774,2.3855-3.85241,4.14794a7.10907,7.10907,0,0,0-.69.25477c-.10075.04827-.16477.173-.24544.26315.09339.0824.17866.22251.28159.237.40719.05731.75163-.03733.85506-.5107Z"/><path class="cls-1" d="M381.60817,18.74q4.13112.03058,8.2609.061c1.48795.348,2.99026.64827,4.46435,1.05164a33.58395,33.58395,0,1,1-42.19,36.99024c-2.20261-16.03067,7.97915-33.242,25.72979-37.28772,1.24241-.28321,2.48987-.544,3.735-.81519Zm28.46664,33.66127a27.04767,27.04767,0,1,0-27.1374,26.95764l.04992.00012a26.96437,26.96437,0,0,0,27.08723-26.84092l.00027-.11684Z"/><path class="cls-1" d="M304.14918,331.90938l-.04779.18912c-.08172-.96931-.80519-1.5508-1.37-2.22238-11.897-14.14484-26.78635-23.36314-44.93815-27.07523a74.25343,74.25343,0,0,0-26.23767-.59859,3.53086,3.53086,0,0,1-2.1703.06173c-.24058-.6306.21119-.95741.56739-1.28128a43.1816,43.1816,0,0,1,26.82521-11.59123c20.366-1.35558,39.4371,10.47763,48.0535,30.562a51.04859,51.04859,0,0,1,4.01306,15.47482,2.049,2.049,0,0,1-.89342,2.27783l.08194.07657c.01279-.59943.18165-1.35982-.87855-.85244l.07307.09858c.51379-.75621.316-1.1649-.80109-1.65572l.06877.09178c.18556-.89985-.42056-1.38242-1.02006-1.83272-.08661-.065-.39057.1598-.5939.2505l.0439.06527c.11881-.253.71312-.30868.33285-.76624-.35949-.43251-.73838-.84886-1.10872-1.27233Z"/><path class="cls-1" d="M333.103,192.63652c-.23926-15.36569,12.94132-28.42836,28.61627-28.31951a28.45913,28.45913,0,0,1-.16784,56.917q-.06052.00014-.12105,0c-16.40341-.0265-28.72172-13.75859-28.32735-28.59748Zm49.29721-.88075a22.92724,22.92724,0,0,0-45.85292-.37827q-.00093.11292-.00075.22586c.05734,14.38293,11.97781,22.93089,22.86658,22.94535,12.50555.0166,23.1035-10.40129,22.98712-22.79294Z"/><path class="cls-1" d="M415.93556,198.78021c12.201-.12439,21.86539,10.32037,21.81482,21.98852a21.924,21.924,0,0,1-43.84776-.17078l.00019-.03725a21.82107,21.82107,0,0,1,21.86057-21.78149Q415.84947,198.77938,415.93556,198.78021ZM415.85788,201.1c-9.64547-.26432-17.56057,8.08484-17.6667,17.37559A17.65209,17.65209,0,1,0,415.933,201.1q-.03759-.00012-.07512-.00007Zm-6.31116-81.29929a20.704,20.704,0,0,1,41.4073-.24372q.00069.11295.00011.22594a20.70387,20.70387,0,0,1-41.40741.01778Zm36.21613,1.16062a16.6992,16.6992,0,0,0-33.39576-.34793q-.00048.09558.00016.19119a16.698,16.698,0,0,0,33.3956.15674ZM371.35642,274.75193c-.23192-8.58063,7.08432-15.387,15.20194-15.41477a15.29121,15.29121,0,0,1,.23977,30.58059A15.10881,15.10881,0,0,1,371.36,275.14562Q371.35562,274.94881,371.35642,274.75193Zm14.46121,10.93549A12.03855,12.03855,0,0,0,398.0375,273.833q.00178-.11739.00127-.23488a12.1693,12.1693,0,0,0-11.8689-12.46251q-.20187-.00493-.40381-.00315a12.27753,12.27753,0,0,0,.05154,24.555h0Zm-52.772-178.885a15.20382,15.20382,0,1,1-.00216.22584Q333.04368,106.91532,333.0456,106.8024ZM349.062,120.80787a12.2627,12.2627,0,1,0,.15333-24.52492q-.066-.00042-.13192-.00011a12.26253,12.26253,0,0,0-.02141,24.525Z"/><path class="cls-1" d="M61.99742,146.161c-.49074-.08229-1.08873-.01207-1.45568-.27037A99.89346,99.89346,0,0,1,49.56649,136.954a1.51657,1.51657,0,0,1-.42848-.61711.5201.5201,0,0,1,.7717-.65965c4.20738,3.29038,8.67874,6.27556,12.14945,10.42482Z"/><path class="cls-3" d="M254.32965,198.93607c.3099-.208.60658-.57225.93169-.59974a66.26463,66.26463,0,0,0,9.296-1.53627,11.60352,11.60352,0,0,1,2.64933-.11029,4.02233,4.02233,0,0,1,1.69822.36986,23.782,23.782,0,0,1-5.45144,1.251c-3.12037.23244-6.21073.86829-9.31268,1.33466q.11118-.34977.18893-.70927Z"/><path class="cls-1" d="M185.53069,110.71889c-.03276-.31209-.06553-.62419-.09792-.93947-.1631-1.56982,1.01058-2.50339,1.75-3.65684A7.32875,7.32875,0,0,1,185.53069,110.71889Z"/><path class="cls-1" d="M254.32965,198.93606q-.07827.35915-.18893.70929-2.52144.37908-5.03859.75917c.02883-.37538.05545-.75033.08379-1.12581C250.86466,198.60743,252.62515,199.1922,254.32965,198.93606Z"/><path class="cls-1" d="M183.45619,304.1469c1.059.94163,1.30069,2.25652,1.95148,3.93859-1.61233-1.14891-2.25781-2.26629-2.29106-3.73809,0,.00391.05667-.28635.05667-.28635Z"/><path class="cls-1" d="M59.00536,256.91194a6.727,6.727,0,0,1-1.12667.86161,1.12836,1.12836,0,0,1-.97932.02562c-.54922-.485.022-.88755.32115-1.15575a9.82616,9.82616,0,0,1,1.50027-.94533Q58.865,256.30388,59.00536,256.91194Z"/><path class="cls-1" d="M46.01107,264.96656a2.55941,2.55941,0,0,1-1.40828,1.21172c-.16369.07822-.43257-.06389-.65322-.105.0448-.2142.0221-.48593.14658-.63223a2.17115,2.17115,0,0,1,1.71969-.65954Z"/><path class="cls-1" d="M45.81584,264.78154a2.12852,2.12852,0,0,1,2.42966-1.41711l.027.0266a2.82969,2.82969,0,0,1-2.26152,1.57542Z"/><path class="cls-1" d="M196.9274,675.72005q-.75021-.01376-1.49993-.02848.02031-1.13464.03966-2.26712a2.98879,2.98879,0,0,1,1.41229,2.33439Z"/><path class="cls-1" d="M55.78991,258.46037a.79154.79154,0,0,1-.73619.65172c-.07552.0103-.26-.1827-.24646-.21083a1.72112,1.72112,0,0,1,.36988-.57888C55.40157,258.13167,55.63541,258.21277,55.78991,258.46037Z"/><path class="cls-1" d="M42.2836,266.7335c.12563.13108.3846.30256.35881.39162a.759.759,0,0,1-.804.57211c-.09691-.00383-.2781-.16326-.26758-.22515a.87583.87583,0,0,1,.71273-.7386Z"/><path class="cls-1" d="M278.85365,749.90208q-.03434-.61956-.06864-1.239l.12822-.15141q.36528.422.73062.84419C279.60366,749.86108,279.29679,749.98024,278.85365,749.90208Z"/><path class="cls-1" d="M50.54045,261.8389a1.56189,1.56189,0,0,1-1.52207.76649l.015.01465c.33156-.622.93151-.69326,1.53832-.75033Z"/><path class="cls-1" d="M62.82736,146.85867c-.45618-.01952-.78457-.19061-.82921-.69839l.061-.05822a.90957.90957,0,0,1,.74725.77676Z"/><path class="cls-1" d="M59.00536,256.91194q-.14132-.60746-.28458-1.21383a1.679,1.679,0,0,1,.63591-.41154q.3913.50509.78427,1.013Q59.5736,256.60759,59.00536,256.91194Z"/><path class="cls-1" d="M49.01842,262.60539c.00932.50711-.29472.71635-.746.78561l-.02693-.02651c.02251-.50258.33779-.69488.78781-.74445Z"/><path class="cls-1" d="M68.14467,151.50288l-.54741-.31958.35626-.34213c.12151.16686.243.33371.36744.498Z"/><path class="cls-1" d="M50.57167,261.86968l.15377-.30226-.185.27135Z"/><path class="cls-1" d="M47.52521,134.57591l.63532.26759c-.45112.58869-.51751.04344-.67623-.22966Z"/><path class="cls-1" d="M47.48429,134.61384l-.49418-.361c.46956-.37351.499-.01987.53474.32346Zm15.32213,12.265.33194.34454c-.07407-.022-.1802-.0214-.21494-.071a1.01432,1.01432,0,0,1-.09607-.29371Z"/><path class="cls-3" d="M246.0216,534.61026a61.52793,61.52793,0,0,1,12.7,3.43749c-2.68228,1.04081-4.7461,1.905-6.8552,2.63868-1.5154.52706-2.0142.33508-2.91648-.94053-.8779-1.24115-1.682-2.5357-2.4856-3.82739a7.19257,7.19257,0,0,1-.44267-1.30825Z"/><path class="cls-1" d="M626.61389,584.51113a3.29639,3.29639,0,0,1,.153-.74224c1.49015-3.23624,3.10295-6.421,4.4631-9.7106,1.30549-3.15749,2.35234-6.42205,3.55-9.7426a6.907,6.907,0,0,1-.24285,3.5189,65.68018,65.68018,0,0,1-6.3127,16.70982q-.80525-.01659-1.61054-.03323Zm-90.26682-80.5553c2.67416,4.4653,4.34242,9.35885,6.05081,14.23492.2504.71467.47539,1.43819.71187,2.15691q-.703-.05371-1.40551-.10572a85.88783,85.88783,0,0,0-5.14982-12.05432c-.56305-1.10889-1.057-2.25294-1.58271-3.38081a1.4294,1.4294,0,0,0,1.3753-.85093ZM499.291,704.21471a7.18012,7.18012,0,0,1,3.29773-2.37916l-.053-.08992c.27246.2785.4119.5734.127.93a12.02751,12.02751,0,0,1-3.09648,3.17615q-.13755-.81828-.27526-1.63708Z"/><path class="cls-2" d="M211.35439,534.78643q.048.42892.095.85784c-.57254.25007-1.133.53332-1.7226.72913a.68069.68069,0,0,1-.61317-.23254.6379.6379,0,0,1,.14734-.6158,3.23148,3.23148,0,0,1,2.09337-.73857Z"/><path class="cls-1" d="M204.5412,687.23291q-.60453.04248-1.20842.08393-.14223-1.19208-.2857-2.38218l-.04281.04461a3.34736,3.34736,0,0,1,1.53694,2.25364Zm-3.06059-4.56019a4.21839,4.21839,0,0,1,1.52347,2.30661l.04294-.04461c-1.30981-.23918-1.59843-1.15382-1.525-2.3078Zm-4.60117-6.91394a3.95225,3.95225,0,0,1,1.5423,2.29032l.04535-.03555c-1.38454-.1786-1.63662-1.11865-1.53994-2.29323Z"/><path class="cls-4" d="M304.88112,333.8827c.20339-.0907.50735-.3155.5939-.2505.59953.45028,1.20562.93287,1.02,1.8327-.09607.0794-.18958.22448-.28856.22828-.91723.03557-1.50533-.7787-1.32541-1.81045Z"/><path class="cls-1" d="M210.77305,654.78183q-.65271.10042-1.30622.2a1.09188,1.09188,0,0,1-.29555-1.47164l-.02616.02907A2.024,2.024,0,0,1,210.77305,654.78183Z"/><path class="cls-1" d="M272.68341,745.58635c-.84-.05566-1.73212.04035-2.30526-.79208l.12062-.12282c.83852.04914,1.72155-.03722,2.31362.76128Z"/><path class="cls-4" d="M304.14918,331.90938c.37031.42349.74923.83984,1.1087,1.2724.38026.45751-.214.51318-.33285.76625a1.27612,1.27612,0,0,1-1.48119-1.031l-.00731-.0456C303.30378,332.23,303.80808,332.15079,304.14918,331.90938Z"/><path class="cls-1" d="M278.785,748.663a1.92853,1.92853,0,0,1-1.53233-.7664l.12795-.15109a1.80886,1.80886,0,0,1,1.53233.76662Z"/><path class="cls-1" d="M275.84963,746.97735a1.81133,1.81133,0,0,1,1.53071.76873l-.12765.15055a1.9387,1.9387,0,0,1-1.53678-.76107Z"/><path class="cls-1" d="M274.31779,746.21a1.81887,1.81887,0,0,1,1.5316.7678l-.13345.15778a1.95487,1.95487,0,0,1-1.53475-.764Z"/><path class="cls-1" d="M198.42173,678.0491a1.86828,1.86828,0,0,1,.75289,1.54575l.04794-.0411c-.81316-.23707-.80936-.87612-.756-1.53971Z"/><path class="cls-1" d="M199.96894,681.10091a1.5834,1.5834,0,0,1-.74655-1.54694l-.04778.04083c.74116.27893.7869.89576.75315,1.5512Z"/><path class="cls-1" d="M274.18113,746.37158a1.86378,1.86378,0,0,1-1.4974-.78587l.12863-.153a1.887,1.887,0,0,1,1.50514.77774Zm-4.57095-2.31707a1.90448,1.90448,0,0,1-1.56811-.73776l.15648-.18658a1.83649,1.83649,0,0,1,1.54668.78744Z"/><path class="cls-4" d="M306.42631,335.37314c1.11711.49082,1.31488.89951.80109,1.65572C306.0502,336.52111,305.87127,336.15117,306.42631,335.37314Z"/><path class="cls-1" d="M268.042,743.31675a6.34547,6.34547,0,0,1-.70855-.187c-.10257-.03884-.25741-.1901-.24109-.25019a.358.358,0,0,1,.5768-.24133,3.3935,3.3935,0,0,1,.529.49254Zm-5.204-3.25566a1.88612,1.88612,0,0,1,1.54962.7882l-.14783.15093a1.94409,1.94409,0,0,1-1.56747-.7396Z"/><path class="cls-1" d="M262.67235,740.26062a2.14637,2.14637,0,0,1-1.53195-.76759l.17084-.2053a1.85815,1.85815,0,0,1,1.52652.7739Z"/><path class="cls-1" d="M259.78056,738.53174a1.80118,1.80118,0,0,1,1.53046.75642l-.17062.20482a1.9637,1.9637,0,0,1-1.497-.82234Zm-.90067-.60561a1.78748,1.78748,0,0,1-1.54144-.783l.14572-.14688a1.79384,1.79384,0,0,1,1.54163.7828Zm-3.69407-2.47571a1.8489,1.8489,0,0,1,1.53858.79812l-.1437.14516a1.9617,1.9617,0,0,1-1.57675-.72363Z"/><path class="cls-1" d="M253.655,734.69577a1.785,1.785,0,0,1,1.53057.755l-.18165.21928a1.99355,1.99355,0,0,1-1.48946-.83216Zm-.90614-.59994a1.81271,1.81271,0,0,1-1.53261-.79133l.13972-.14138a1.76735,1.76735,0,0,1,1.54751.7772Zm-4.44939-3.2419a1.8431,1.8431,0,0,1,1.54357.78463l-.169.1703a1.83515,1.83515,0,0,1-1.53633-.792Z"/><path class="cls-1" d="M247.53628,730.07641q.381.38959.76263.77827l-.16114.1621q-.39465-.37617-.78773-.75335Zm2.9137,2.48731q-.38747-.37818-.7754-.75562l.16849-.16959q.383.383.76371.76765Z"/><path class="cls-1" d="M251.21624,733.3045q-.38253-.37115-.76569-.74148l.15626-.1567q.3747.37867.74848.75772Zm-3.86618-3.041-.26743-.447q.22654.13035.45338.26038Zm5.5534,3.67684q.375.37875.75087.75653l-.13984.14122q-.383-.37139-.765-.743Zm-7.53748-4.4946q.08884-.40545.17827-.81053a3.14266,3.14266,0,0,1,.09151.61311C245.63384,729.31659,245.46082,729.38007,245.366,729.44572Zm-.19548-1.24433q-.41935.078-.451-.352A1.01216,1.01216,0,0,1,245.1705,728.20139Zm11.5539,8.0472q.37925.37462.75918.7485l-.14511.14608q-.37906-.375-.7571-.75034Zm2.3014,1.5305q.37669.3773.75408.75362l-.13647.138q-.38195-.3726-.7629-.74542Zm5.36185,3.07026.27612.41912q-.21155-.13471-.42352-.26884Z"/><path class="cls-4" d="M307.15439,336.93028c1.06023-.50738.89133.253.87855.85244C307.21731,338.038,307.13475,337.53686,307.15439,336.93028Z"/><path class="cls-1" d="M269.7452,743.91756q.3762.37778.753.75464l-.12.122q-.38413-.37018-.76746-.74051Z"/><path class="cls-1" d="M200.70361,681.91532a.934.934,0,0,1,.7767.75762l.0417-.046c-.54073.03819-.70856-.30639-.77434-.75567Zm.04406-.04412a.87549.87549,0,0,1-.77861-.7704l-.04133.0452c.53526-.023.70078.32738.77578.76932Zm8.42366-28.361c-.10468-.03048-.30068-.064-.29981-.09106.00815-.2463.114-.20573.27348.12018Z"/><path class="cls-3" d="M207.222,536.50847c.39716-.19673.76326-.68835,1.25276-.24765.49386.4447.18862.81145-.20184,1.13273q-.52535-.44252-1.05092-.885Z"/><path class="cls-1" d="M79.72745,243.51781c-.10341.47339-.44788.568-.85519.51069-.10292-.01445-.18819-.15457-.28158-.237.08067-.09011.14473-.21488.24543-.26316.22014-.10551.4589-.17221.68813-.25735ZM87.9322,167.7294c-.33-.17005-.6989-.41885-.38582-.78718.29147-.3429.64781-.03278.93088.192C88.29614,167.33106,88.11418,167.53022,87.9322,167.7294Z"/><path class="cls-1" d="M628.24278,495.37665c0-1.01777.07622-2.0424-.01327-3.05219a12.39263,12.39263,0,0,0-5.87815-9.79314,21.85412,21.85412,0,0,0-8.59309-3.02581,47.19262,47.19262,0,0,0-13.72626-.25261c-.62933.08431-1.2707.07973-1.967.11975.00966-.81473.75341-.89662,1.1604-1.07069,11.4143-4.88152,21.18139-12.21011,30.31276-20.45581a272.61629,272.61629,0,0,0,27.20847-29.02048c10.73318-12.99257,20.69046-26.58035,30.7703-40.07494,5.34547-7.15641,10.67919-14.3245,16.61748-21.01288a49.65115,49.65115,0,0,1,6.54546-6.42951,27.29137,27.29137,0,0,1,3.84168-2.48337,5.0536,5.0536,0,0,1,4.43914-.21267,1.3297,1.3297,0,0,1,.56121,2.35062c-.08711.09311-.18.18106-.2731.26828-5.8063,5.43642-10.5822,11.74956-15.30324,18.10018-11.34866,15.26578-21.7932,31.151-32.09295,47.13217q-20.94232,32.49378-40.75747,65.68846c-.70437,1.173-1.47515,2.30612-2.215,3.45778Z"/><path class="cls-1" d="M616.78812,664.81615c.40413-.85849,1.165-1.01589,1.81919-1.34121,1.94061-.96486,3.94158-1.83332,5.79233-2.94965a284.54493,284.54493,0,0,0,27.06174-18.03421,77.58618,77.58618,0,0,0,11.725-10.97122c5.203-6.09144,9.27756-12.796,11.223-20.662a9.36993,9.36993,0,0,1,.62875-1.44111c.91464.26981.52863,1.03546.54918,1.5088a114.10075,114.10075,0,0,1-.51358,19.88048,21.89855,21.89855,0,0,1-6.21248,12.84559,41.05287,41.05287,0,0,1-6.17164,5.13586,90.10582,90.10582,0,0,1-40.66194,15.63525,18.15943,18.15943,0,0,1-5.23947.39334Z"/><path class="cls-1" d="M594.42212,480.061c-3.71406,1.46252-7.41824,2.82968-11.95771,2.52631A25.23825,25.23825,0,0,1,594.42212,480.061Zm-52.71788,40.181q.70257.05242,1.40551.10572c1.11913,1.692.98719,3.52241.863,6.127a14.61485,14.61485,0,0,1-2.26841-6.23277Z"/><path class="cls-1" d="M502.58877,701.83555q.23214-.216.46417-.4318c.00933.16139.0869.37171.01365.474-.15.20962-.365.13869-.53074-.13156Zm2.31836-1.54845-.10691.09542.08043-.09542h.02648Zm-.02654,0,.09634-.10341-.07244.10341h-.0239Z"/><path class="cls-1" d="M406.391,399.74593c2.89735-.44777,5.79249-.91051,8.69321-1.33557,1.079-.15813,1.57124.1779,1.59093,1.07948a19.25532,19.25532,0,0,1-3.62451,12.23376,9.82465,9.82465,0,0,1-.73892.87761c-3.836,4.09707-8.8993,4.10918-12.709-.0014a15.81242,15.81242,0,0,1-3.64226-7.06236,21.7753,21.7753,0,0,1,.88869-13.87743,13.565,13.565,0,0,1,3.6951-5.28236,8.02087,8.02087,0,0,1,10.80991-.03306,12.97712,12.97712,0,0,1,3.70127,5.27882c1.27648,3.34014,1.47787,3.05133-1.83777,4.32163-2.25994.86582-4.5446,1.66713-6.81288,2.4956a6.15755,6.15755,0,0,0-4.04658,2.11651Z"/><path class="cls-1" d="M406.391,399.74593l-4.0328.8112a6.1577,6.1577,0,0,1,4.04658-2.11651C406.39668,398.87685,406.39384,399.31137,406.391,399.74593Z"/><path class="cls-1" d="M227.96975,362.70991c3.40239-.50724,6.80241-1.03148,10.2087-1.51094.96232-.13542,1.42988.30459,1.40551,1.28619a21.04639,21.04639,0,0,1-2.73973,10.61723c-4.2184,6.98836-11.7879,7.19654-15.88579.2007-4.05416-6.92114-3.88273-14.11083-.071-21.1535a11.377,11.377,0,0,1,2.43817-2.91809c3.4255-3.07682,7.58388-3.02784,11.05272.03134a12.19658,12.19658,0,0,1,2.97242,3.95051c.59536,1.25733,1.03443,2.58874,1.56546,3.94549-1.65,1.52237-3.75409,1.7739-5.596,2.559-1.75519.748-3.58433,1.32252-5.37595,1.97171a4.14915,4.14915,0,0,0-2.43207,1.06686c.94588.26043,1.68774.49252,2.4576-.04647Z"/><path class="cls-1" d="M227.96975,362.70991c-.76986.539-1.51172.3069-2.45761.04647a4.14918,4.14918,0,0,1,2.43208-1.06686c.00516.34124.01534.6808.02553,1.02036Z"/></g></svg>