<?xml version="1.0" encoding="UTF-8"?><svg id="Layer_1" xmlns="http://www.w3.org/2000/svg" viewBox="0 0 1400 1400"><g id="docarray-logo_text-dark"><g id="docarray"><path id="_形状" d="M1225.73999,991.93998l41.46997,112.22998,42.05005-112.22998h43.20996l-99.46997,236.64001h-43.20996l34.79993-80.04004-64.38-156.59998h45.53003Zm-1016.49998-53.94v214.59998h-26.68001v-29.87l-.34399,.61542c-5.21342,9.1955-12.83209,16.77197-22.856,22.72961-10.24667,6.08997-22.23334,9.13501-35.96,9.13501-14.11333,0-26.92167-3.48004-38.425-10.44-11.50333-6.96002-20.54167-16.72333-27.115-29.29004-6.57333-12.56665-9.86-26.87329-9.86-42.91998,0-16.23999,3.28667-30.49835,9.86-42.77502,6.57333-12.27661,15.61167-21.79828,27.115-28.565,11.50333-6.76666,24.40834-10.14996,38.715-10.14996,12.37333,0,23.87666,2.85168,34.50999,8.55499,10.40218,5.57935,18.39911,12.87012,23.99078,21.87231l.36922,.60266v-84.09998h26.68001Zm109.12999,53.07001c15.08002,0,28.70999,3.33502,40.89001,10.005,12.17999,6.66998,21.79831,16.19165,28.85498,28.565,7.05667,12.37329,10.58502,26.77667,10.58502,43.20996s-3.625,30.88501-10.875,43.35504c-7.25,12.46997-17.06168,22.08832-29.435,28.85498-12.37335,6.76666-26.10001,10.15002-41.18002,10.15002-14.88666,0-28.37166-3.38336-40.45499-10.15002-12.08334-6.76666-21.55667-16.38501-28.42-28.85498-6.86334-12.47003-10.29501-26.92169-10.29501-43.35504,0-16.23999,3.52834-30.59497,10.58501-43.065,7.05667-12.46997,16.675-22.03998,28.855-28.70996,12.18001-6.66998,25.81-10.005,40.89-10.005Zm176.70001,0c19.52667,0,35.62167,4.73663,48.285,14.21002,12.46851,9.32758,20.76669,22.21631,24.89456,38.66626l.19043,.77368h-28.42001l-.17249-.6015c-2.75479-9.38245-7.96564-16.8186-15.63251-22.30847-7.82999-5.60669-17.54498-8.40997-29.14499-8.40997-15.08002,0-27.26001,5.17163-36.54001,15.51495-9.28,10.34338-13.92001,24.98834-13.92001,43.935,0,19.14001,4.64001,33.93005,13.92001,44.37,9.28,10.44,21.45999,15.66003,36.54001,15.66003,11.60001,0,21.26666-2.70667,29-8.12,7.5755-5.30286,12.83197-12.83197,15.76941-22.5874l.18057-.61261h28.42001l-.20251,.75885c-4.31769,15.88666-12.75687,28.63538-25.31747,38.24615-12.76001,9.76331-28.71002,14.64502-47.85001,14.64502-15.08002,0-28.46835-3.38336-40.16501-10.15002s-20.83167-16.33667-27.405-28.71002c-6.57333-12.37329-9.85999-26.87329-9.85999-43.5,0-16.43329,3.28665-30.78833,9.85999-43.065,6.57333-12.27661,15.70834-21.79828,27.405-28.565,11.69666-6.76666,25.08499-10.14996,40.16501-10.14996Zm163.07001-1.73999c11.98663,0,22.47498,2.41663,31.46497,7.25,8.7403,4.69904,15.79022,10.58594,21.14978,17.66064l.45526,.60931v-22.90997h40.88995v160.65997h-40.88995v-23.48999l-.41626,.59259c-5.18414,7.27466-12.24707,13.31213-21.18878,18.11243-9.18329,4.92999-19.76831,7.39502-31.755,7.39502-13.53333,0-25.85834-3.48004-36.97498-10.44-11.11664-6.96002-19.91333-16.77167-26.39001-29.435-6.47662-12.66333-9.71497-27.21167-9.71497-43.64502,0-16.23999,3.23834-30.64331,9.71497-43.21002,6.47668-12.56665,15.27338-22.23334,26.39001-29s23.53833-10.14996,37.26501-10.14996Zm412.94,0c11.98663,0,22.47504,2.41663,31.46503,7.25,8.74023,4.69904,15.79016,10.58594,21.14966,17.66064l.45532,.60931v-22.90997h40.89001v160.65997h-40.89001v-23.48999l-.41626,.59259c-5.1842,7.27466-12.24707,13.31213-21.18872,18.11243-9.18335,4.92999-19.76843,7.39502-31.75507,7.39502-13.53333,0-25.85834-3.48004-36.97498-10.44-11.1167-6.96002-19.91333-16.77167-26.39001-29.435s-9.71497-27.21167-9.71497-43.64502c0-16.23999,3.23828-30.64331,9.71497-43.21002,6.47668-12.56665,15.27332-22.23334,26.39001-29,11.11664-6.76666,23.53833-10.14996,37.26501-10.14996Zm-195.35004,.28998v42.63h-10.72998l-.6687,.00275c-12.4278,.10333-21.82324,3.09906-28.18628,8.98724-6.37708,5.90112-9.61462,16.11316-9.71271,30.63611l-.00232,.6839v80.03998h-40.59998v-160.65997h40.59998v24.94l.40466-.65076c5.16589-8.19678,11.84601-14.64984,20.04034-19.35925,8.21442-4.72095,17.5816-7.13629,28.10162-7.24609l.75336-.00391Zm111.16003,0v42.63h-10.73004l-.66864,.00275c-12.42786,.10333-21.8233,3.09906-28.18634,8.98724-6.37701,5.90112-9.61456,16.11316-9.71271,30.63611l-.00226,.6839v80.03998h-40.60004v-160.65997h40.60004v24.94l.40466-.65076c5.16583-8.19678,11.84595-14.64984,20.04028-19.35925,8.21442-4.72095,17.58167-7.13629,28.10162-7.24609l.75342-.00391Zm-858.27001,24.35999c-9.86,0-18.85,2.32001-26.97,6.96002-8.12,4.64001-14.59667,11.40668-19.43,20.29999-4.83333,8.89337-7.25,19.33331-7.25,31.32001,0,12.17999,2.41667,22.76501,7.25,31.755,4.83333,8.98999,11.31,15.85333,19.43,20.59003,8.12,4.73663,17.11,7.10498,26.97,7.10498s18.89833-2.36835,27.115-7.10498c8.21667-4.73669,14.74167-11.60004,19.575-20.59003s7.25-19.47833,7.25-31.46503-2.41667-22.42664-7.25-31.31995c-4.83333-8.89337-11.35833-15.70837-19.575-20.44501-8.21667-4.73669-17.255-7.10504-27.115-7.10504Zm189.45998,0c-9.66666,0-18.51166,2.17505-26.53499,6.52502s-14.45166,10.97168-19.285,19.86499c-4.83333,8.89331-7.25,19.72003-7.25,32.47998,0,12.95337,2.36833,23.87671,7.10501,32.77002,4.73666,8.89331,11.06833,15.51501,18.995,19.86499,7.92667,4.35004,16.62666,6.52502,26.09999,6.52502s18.36667-2.22333,26.68002-6.66998c8.31332-4.44672,15.03165-11.1167,20.155-20.01001,5.12332-8.89337,7.685-19.72003,7.685-32.48004s-2.51334-23.58667-7.54001-32.47998-11.60001-15.51501-19.72-19.86499-16.91666-6.52502-26.39001-6.52502Zm350.50003,11.02002c-7.54004,0-14.5,1.83667-20.88,5.51001s-11.5517,9.03833-15.51501,16.09497c-3.96332,7.0567-5.94501,15.41833-5.94501,25.08502s1.98169,18.125,5.94501,25.375,9.18335,12.80835,15.65997,16.67499c6.47668,3.8667,13.38837,5.79999,20.73505,5.79999,7.53998,0,14.59668-1.88495,21.16998-5.65497s11.79333-9.18335,15.65997-16.23999c3.8667-7.0567,5.80005-15.51501,5.80005-25.375s-1.93335-18.31836-5.80005-25.375c-3.86664-7.0567-9.08667-12.47003-15.65997-16.23999-6.5733-3.77002-13.63-5.65503-21.16998-5.65503Zm412.94,0c-7.54004,0-14.5,1.83667-20.88,5.51001s-11.5517,9.03833-15.51501,16.09497c-3.96332,7.0567-5.94501,15.41833-5.94501,25.08502s1.98169,18.125,5.94501,25.375,9.18335,12.80835,15.65997,16.67499c6.47668,3.8667,13.38837,5.79999,20.73505,5.79999,7.54004,0,14.59668-1.88495,21.16992-5.65497,6.57336-3.77002,11.79333-9.18335,15.66003-16.23999,3.8667-7.0567,5.80005-15.51501,5.80005-25.375s-1.93335-18.31836-5.80005-25.375c-3.8667-7.0567-9.08667-12.47003-15.66003-16.23999-6.57324-3.77002-13.62988-5.65503-21.16992-5.65503ZM645.37982,245.0095l59.10168,.02679c146.1261,2.36921,264.13727,120.39506,266.48291,266.52696l.03558,4.43674-.03632,4.48148c-2.3692,146.12616-120.39502,264.1373-266.52692,266.48294l-4.43677,.03558h-54.62018c-11.60223,0-21.00775-9.40552-21.00775-21.00775,0-11.48636,9.21515-20.82111,20.65686-21.01285l.35089-.00302,58.40686-.02255c123.47095-2.00189,223.18579-101.72916,225.16772-225.20496l.03009-3.74887-.0307-3.78668-.09045-3.73419c-3.92896-121.75363-102.90613-219.49157-225.15186-221.43415l-3.71149-.02947h-54.62018c-11.48505,0-20.8175-9.21644-21.00775-20.65685v-.3509c.00525-11.48928,9.22174-20.81342,20.65704-20.99823h.35071Zm-102.93796-.00952c11.60226,0,21.00772,9.40549,21.00772,21.00775,0,11.48507-9.2164,20.81752-20.65683,21.00488l-.35089,.00287h-71.42636v457.96899h71.42636c11.60226,0,21.00772,9.40549,21.00772,21.00775,0,11.48505-9.2164,20.8175-20.65683,21.00775h-92.785l-.58801-.00806c-11.21356-.30817-20.23209-9.40363-20.41684-20.64764l-.0029-.35205V282.81393l.00626-.69465c.36676-20.35791,16.82162-36.78778,37.1893-37.1193h76.24631Zm110.29068,264.69766c12.3338,0,24.00562,2.83441,34.3996,7.88736l.70673,.34796-4.73016,8.03036-.26093,.45108c-8.4743,14.92764-3.43365,33.9483,11.40985,42.69595,4.6806,2.75842,9.99188,4.25815,15.41736,4.35828l.58167,.00537,19.82819,.00015,.18134,.97345c.8183,4.55258,1.24548,9.24097,1.24548,14.02911,0,43.50848-35.27063,78.77908-78.77911,78.77908s-78.77905-35.2706-78.77905-78.77908,35.27057-78.77908,78.77905-78.77908Zm115.42261-83.8356c4.98047-2.77786,11.24774-1.0696,14.14325,3.80222l.14673,.25481,59.638,106.92683,.18054,.33817c.75494,1.47778,1.14984,3.11523,1.14984,4.77832,0,5.70602-4.54987,10.3494-10.21948,10.50012l-.28442,.00375h-122.65295l-.37457-.00668c-1.74561-.06229-3.45026-.55905-4.95844-1.44785-4.91162-2.89456-6.60327-9.16354-3.86456-14.12259l.14825-.25977,63.01495-106.92685,.19476-.31754c.9342-1.46393,2.21802-2.67516,3.7381-3.52295Zm-94.01923-44.31168l.3703,.0107,.22968,.0175c3.12305,.29494,5.58276,2.8689,5.69812,6.04099l.00421,.23314,.00146,104.73415-1.69244-.3573h0l-.81354-.16852-2.38538-.48093-1.16156-.22659-2.26093-.42543-1.0993-.19885-2.13641-.36995-2.05347-.33295-.99561-.1526-1.92902-.27745-1.84595-.24046-.71521-.08583-1.29944-.14436c-2.55267-.26813-4.82776-.41251-6.82532-.43312l-.49359-.00258-1.2594,.00783-.77936,.01271c-25.44403,.51286-49.24146,10.61072-67.15833,27.86754l-.54114,.52512-1.00537,.99554-31.79889,.00211-.23102-.00415c-3.29691-.1188-5.94824-2.77014-6.06705-6.06714l-.00415-.23102v-123.94576l.00415-.23103c.1188-3.29698,2.77017-5.94832,6.06714-6.06712l.23105-.00417h123.94574Z"/></g></g></svg>