<?xml version="1.0" encoding="UTF-8"?><svg id="Layer_1" xmlns="http://www.w3.org/2000/svg" viewBox="0 0 320 320"><g id="docarray-dark-2"><g id="_编组"><g id="_编组-57"><path id="_形状" d="M134,31.00451c-5.42677,0-9.84543,4.32025-9.99603,9.71116l-.00397,.28431c0,5.52285,4.47716,10,10,10h26c59.00108,0,107.05321,46.87801,108.94232,105.41995l.04308,1.77753,.0146,1.80251c0,59.59705-47.82983,108.02284-107.19749,108.9854l-27.80251,.01074c-5.52347,.00214-10,4.48039-10,10.00386,0,5.52284,4.47716,10,10,10h26c70.53228,0,127.84355-56.60594,128.98272-126.86674l.01728-2.13326c0-70.53228-56.60594-127.84355-126.86675-128.98272l-28.13325-.01275Zm-85-.00453c-9.83067,0-17.82068,7.88078-17.99701,17.66933l-.00299,.33067v230c0,5.42924,4.32668,9.84793,9.72009,9.99615l.27991,.00385h44c5.52284,0,10-4.47716,10-10s-4.47716-10-10-10H51V50.99998h34c5.52284,0,10-4.47715,10-10s-4.47716-10-10-10H49Zm88.5,126c-20.71068,0-37.5,16.78932-37.5,37.5s16.78932,37.5,37.5,37.5,37.5-16.78932,37.5-37.5c0-2.1707-.18443-4.29831-.53849-6.36804l-.14069-.77341-9.43849-.00006c-2.67852,0-5.30817-.71722-7.61579-2.07716-7.03932-4.14845-9.44714-13.15054-5.4762-20.24417l.16914-.29445,2.25163-3.82259c-5.03171-2.50888-10.7066-3.92012-16.71112-3.92012Zm61.74509-37.97579c-1.3451-2.41167-4.39056-3.2763-6.80224-1.9312-.6891,.38435-1.27621,.92561-1.71471,1.57825l-.15738,.24987-29.99603,50.89877c-1.40204,2.37903-.61002,5.44417,1.76901,6.84621,.68374,.40294,1.45229,.63661,2.24171,.68356l.29688,.00882h58.38461c2.76143,0,5-2.23857,5-5,0-.75783-.17225-1.50446-.50219-2.18396l-.13109-.25156-28.38857-50.89877Zm-110.55678-23.02421c-1.59767,0-2.90366,1.24892-2.9949,2.82373l-.0051,.17627v59c0,1.59769,1.24892,2.90366,2.82368,2.9949l.17627,.0051,15.13673-.00101,.47859-.47389c8.50223-8.31287,19.84428-13.20527,31.98901-13.50996l.60789-.01141,.5995-.00373c1.11957,0,2.43111,.08559,3.93462,.25675l.50827,.06023,.87872,.11446,.91823,.13207,.47392,.07264,.97748,.15849,1.01697,.17609,.5233,.09465,1.07622,.20251,.55292,.10786,1.13547,.22893,1.19289,.25031-.00069-49.855c0-1.53851-1.15811-2.80652-2.65013-2.97982l-.1736-.01508-.17627-.0051h-59Z"/></g></g></g></svg>