<svg id="Layer_1" data-name="Layer 1" xmlns="http://www.w3.org/2000/svg" viewBox="0 0 324.83655 330.2579"><defs><style>.cls-1{fill:#fff;}</style></defs><title>onnx-icon-white</title><path class="cls-1" d="M258.58876,101.82361a2.08736,2.08736,0,0,1-2.07716-1.29641q-16.87807-31.31773-33.845-62.58594a2.6278,2.6278,0,0,1-.21268-2.33791,8.51842,8.51842,0,0,0-13.07478-9.7216,3.47265,3.47265,0,0,1-3.09682.62926q-33.25361-6.67578-66.513-13.31077a2.3044,2.3044,0,0,1-2.10193-1.831,8.53153,8.53153,0,1,0-16.36687,4.82429q.03342.11342.07.22588a2.87684,2.87684,0,0,1-.44718,2.85355Q94.4853,57.11645,68.12741,95.01528c-.71375,1.02548-1.41585,1.47121-2.46463,1.08957a8.51551,8.51551,0,0,0-9.16954,7.33272,8.37859,8.37859,0,0,0,6.96363,9.58693q.15934.02524.31956.04436a2.28255,2.28255,0,0,1,2.15583,1.78q14.16581,35.00884,28.41465,69.98421a3.53964,3.53964,0,0,1,.169,2.40345,8.54319,8.54319,0,0,0,13.45061,9.21615,2.99922,2.99922,0,0,1,2.29421-.67442c5.52357.57391,11.053,1.07354,16.57946,1.61249q18.15264,1.76688,36.30235,3.54546,16.3668,1.60376,32.73505,3.20025a2.2272,2.2272,0,0,1,2.17038,1.49305,8.54319,8.54319,0,1,0,15.13448-7.84982,2.1267,2.1267,0,0,1-.02913-2.4559q21.63255-37.48224,43.19517-75.00379a2.31169,2.31169,0,0,1,2.26215-1.40273,8.54756,8.54756,0,0,0,.20022-17.094Q258.69977,101.822,258.58876,101.82361ZM126.37985,34.21372q1.21775-5.22789,2.42093-10.45867c.201-.88273.469-1.40711,1.60959-1.477a7.34143,7.34143,0,0,0,5.44491-2.84191,2.01162,2.01162,0,0,1,2.36413-.71229q33.43713,6.70782,66.883,13.36757c.18353.03642.35688.12819,1.03858.38164-7.324,3.20315-14.18184,6.21111-21.04843,9.203Q153.3641,55.501,121.63121,69.31725c-.32046.13984-.64529.2724-.97012.40495-.68025.27676-1.32263.92059-2.10922.25054-.73268-.622-.19373-1.29786-.04369-1.93879q3.9271-16.91157,7.87167-33.81878Zm-4.80254-5.85715.3496.23306q-4.501,19.2524-8.9962,38.50771A2.19515,2.19515,0,0,1,111.26,68.93562,8.05519,8.05519,0,0,0,105.378,76.1518a2.37435,2.37435,0,0,1-1.16386,2.07135q-14.275,8.35381-28.50642,16.779a3.94019,3.94019,0,0,1-.71667.16023Zm-22.5138,150.264a16.20139,16.20139,0,0,1-.41078,1.579L89.036,156.51893q-8.82869-21.74325-17.68651-43.47484a2.91327,2.91327,0,0,1,.44865-3.54982,6.38009,6.38009,0,0,0,1.58774-4.88994,2.44423,2.44423,0,0,1,1.52073-2.61758c10.42662-6.10041,20.80954-12.27219,31.22014-18.3988.587-.34522,1.17259-1.14054,2.02036-.33065.76765.73268,1.82808,1.07208,1.63289,2.60738-1.01237,8.01588-1.882,16.04925-2.804,24.07678L102.95856,144.911Q101.01831,161.76577,99.06351,178.62052Zm9.76239,5.30216a6.47775,6.47775,0,0,0-3.28909-2.185c-.772-.23889-1.29641-.555-1.03421-1.2833.83028-7.24532,1.63581-14.29546,2.44715-21.34413q2.44716-21.25234,4.90159-42.50472c1.14347-9.90951,2.34956-19.81319,3.38086-29.73437.20393-1.96646,1.74068-1.90819,2.81131-2.62632,1.08812-.73123,1.54113.35979,2.083.83028q35.44,30.73653,70.832,61.52551a3.29348,3.29348,0,0,1-.874,5.21477l-78.94837,32.569c-.941.38892-1.58337.49963-2.31169-.46029Zm92.42082,11.20009a3.60518,3.60518,0,0,0-1.57026,1.362c-1.0983,2.29567-2.99194,2.01452-4.973,1.81788q-23.3703-2.32624-46.74644-4.603-17.60639-1.7334-35.21279-3.47845l-.12964-.38163c4.24173-1.76255,8.47764-3.53671,12.72229-5.28761q33.25506-13.71281,66.50429-27.44307c1.25271-.52,2.02473-.06409,3.18567.34086,3.30656,1.15656,3.38231,3.73628,3.678,6.44708q1.60594,14.65668,3.3328,29.29883C202.13527,194.03612,202.11342,194.661,201.24672,195.12277Zm-2.8215-53.94953c-.134,1.04878-.62053,1.34594-1.45227,1.72466a1.96649,1.96649,0,0,1-2.418-.53313q-8.482-7.43323-17.01354-14.80528Q150.57173,104.11782,123.605,80.67321a5.898,5.898,0,0,1-1.44208-5.18127c.36416-.75745,1.27165-.82591,1.95481-1.12452q34.49757-15.05728,69.01118-30.07522c4.24319-1.84848,8.50239-3.65908,12.71937-5.56436,1.19153-.539,2.11941-.82592,3.04.44573a3.981,3.981,0,0,0,1.71447,1.18425c.80407.32483,1.13909.76473.95555,1.29786-.81571,6.22713-1.59065,12.14837-2.36995,18.06524q-2.67147,20.26183-5.35169,40.52078c-1.80769,13.64433-3.64743,27.28284-5.41141,40.933Zm9.30355,52.12144c-.48943-4.016-.9206-7.41428-1.31534-10.817-.80116-6.90739-1.563-13.81913-2.38743-20.725-.22869-1.91694-.38892-3.48137,1.62851-4.88848a7.30651,7.30651,0,0,0,2.72247-7.15356c-.0874-.78659-.06846-1.28184.64238-1.76545q20.03316-13.67054,40.03717-27.38043a4.17077,4.17077,0,0,1,.62343-.14857l-41.9512,72.87856Zm43.51563-86.97882a6.214,6.214,0,0,0-1.01529,4.83022,2.236,2.236,0,0,1-1.17258,2.571q-21.49708,14.66835-42.94171,29.41537c-.47194.32337-.85941.92788-1.65328.47778-.874-.49525-.55936-1.209-.47341-1.85285q4.3-32.47285,8.62767-64.94278c1.48577-11.20884,2.93221-22.422,4.40488-33.63379.09614-.72832.26219-1.44645.488-2.65692,2.74286,5.03269,5.26429,9.62839,7.75514,14.2372q12.96406,23.98064,25.93253,47.95691A2.87248,2.87248,0,0,1,251.2444,106.31586Z"/><path class="cls-1" d="M235.67433,238.74981l-.04729-.00645v-.00089a6.6713,6.6713,0,0,0-2.833-.15546c-2.20766.40287-2.82612,1.09437-2.82612,3.30806l-.00089,64.47209v1.74209c-.40628-.58155-.5944-.841-.77308-1.10643q-19.64216-29.32488-39.29284-58.64373a67.21543,67.21543,0,0,0-5.21676-7.40807,6.19594,6.19594,0,0,0-4.0683-2.413c-1.97314-.16751-4.21257.41231-4.20911,2.64744q.06951,38.95611.02574,77.91395a2.38019,2.38019,0,0,0,.40544,1.52471c.88051,1.164,3.32269,1.65191,5.2099,1.03428,1.58747-.51884,2.023-1.2138,2.023-3.23932V252.20576c.36077.51627.49819.71037.6322.908q20.79665,30.79459,41.60017,61.5841a35.27627,35.27627,0,0,0,4.22458,5.67118,4.77363,4.77363,0,0,0,5.12659,1.27137,2.35028,2.35028,0,0,0,1.94478-2.63633q.00345-38.8324,0-77.6648A2.28152,2.28152,0,0,0,235.67433,238.74981Z"/><path class="cls-1" d="M150.77757,238.76407q-.03861-.00591-.07744-.01044a6.598,6.598,0,0,0-2.9541-.14858c-2.11921.42347-2.72221,1.10637-2.72221,3.26422v66.25885c-.39773-.56692-.60389-.85041-.79887-1.1416l-41.02119-61.23713a38.20877,38.20877,0,0,0-3.49618-4.82763,6.82567,6.82567,0,0,0-3.84064-2.36138c-2.88883-.50684-4.37322.68033-4.37322,3.54252v48.17156q0,14.31546-.00341,28.63082a2.564,2.564,0,0,0,.42264,1.76185c.92429,1.13815,3.36474,1.60462,5.23307.97666,1.55827-.524,1.93623-1.1631,1.93623-3.28483q0-32.23866.00687-64.479a2.67075,2.67075,0,0,1,.10481-1.33319c.41745.146.51968.53688.71467.82467q21.65136,32.02129,43.28809,64.05376a16.67457,16.67457,0,0,0,2.79436,3.32011,4.68,4.68,0,0,0,4.77095.88135,2.40443,2.40443,0,0,0,1.86577-2.57189q-.031-38.89854-.0172-77.798A2.18785,2.18785,0,0,0,150.77757,238.76407Z"/><path class="cls-1" d="M68.70678,279.91738c0-6.26217.09448-12.52606-.02233-18.78566-.17779-9.53158-5.1377-16.627-14.11007-19.929-9.62522-3.54258-19.52014-3.61388-29.34978-1.09526-11.66107,2.98766-17.346,10.65862-17.346,22.67789V299.374c.00168,9.93875,5.06986,17.42332,14.43566,20.71329a49.1869,49.1869,0,0,0,29.36525.79887c9.95763-2.6217,16.85461-9.48948,17.02386-21.43488.09191-6.50958.0163-13.02256.0163-19.53387Zm-7.58848.695v17.42762c0,10.17065-4.527,16.005-14.43308,18.16635a36.96108,36.96108,0,0,1-19.64388-.75683c-7.38746-2.41895-11.466-7.98794-11.50813-15.76454q-.10571-19.10783-.00173-38.21561c.0421-8.06953,4.5141-13.9177,12.31046-16.0463a36.90552,36.90552,0,0,1,22.26385.49221c7.09024,2.46965,10.96952,8.13653,11.00565,15.65114C61.14237,267.9153,61.1183,274.26424,61.1183,280.61233Z"/><path class="cls-1" d="M314.60263,316.83934h.00094q-12.4239-17.85621-24.86835-35.69783a1.40712,1.40712,0,0,1-.02836-1.92764q12.19189-17.56159,24.31259-35.173a16.64654,16.64654,0,0,0,1.32118-2.096,2.03591,2.03591,0,0,0-.97241-2.92926,4.73836,4.73836,0,0,0-6.07751,1.05662,30.395,30.395,0,0,0-2.09856,2.77459q-7.68555,11.23243-15.34536,22.482c-2.08739,3.05635-4.18,6.10755-6.32057,9.23693-.23452-.3075-.39254-.49478-.52918-.6958l-17.09-25.20248c-1.86146-2.74024-3.72812-5.47965-5.64884-8.18036a4.55878,4.55878,0,0,0-5.22625-1.907c-2.6002.65627-3.17835,2.14753-1.65185,4.37233q12.48311,18.18958,24.98689,36.36621a1.23867,1.23867,0,0,1-.0258,1.70685q-7.07133,10.14406-14.08,20.33275L254.23144,317.305c-1.35809,1.97571-.93719,3.32777,1.26277,4.28388,2.39662,1.0411,4.1138.41571,5.873-2.15869q9.048-13.23741,18.09075-26.47727c1.65274-2.41811,3.31749-4.82763,5.01145-7.2913.19671.22508.31442.33675.4046.4673q11.34661,16.48354,22.68475,32.97227a10.37663,10.37663,0,0,0,1.74806,2.09336,4.44964,4.44964,0,0,0,5.60417-.33759C316.1265,319.75139,316.07239,318.95168,314.60263,316.83934Z"/></svg>