<svg id="Layer_1" data-name="Layer 1" xmlns="http://www.w3.org/2000/svg" viewBox="0 0 1978 1124"><defs><style>.cls-1{fill:#fff;}</style></defs><path class="cls-1" d="M384.84078,990.88137H320.18527l-16.333,46.52051H282.5632l59.9248-162.54h20.05005l59.9248,162.54H401.17379ZM326.15524,973.647h52.71557l-26.02-74.11718H352.175Z"/><path class="cls-1" d="M441.04879,1037.40188v-162.54h20.27539v162.54Z"/><path class="cls-1" d="M540.17282,1037.40188v-162.54h98.67285V893.1094H560.44821V948.979h71.977v18.02247h-71.977v70.40039Z"/><path class="cls-1" d="M646.28073,1004.28566c0-20.0498,15.43164-32.666,42.46533-34.24218l33.56689-1.916v-9.79883c0-14.30566-9.46191-22.86621-25.68213-22.86621-15.09375,0-24.55566,7.09619-27.03369,18.585H650.67379c1.35156-20.27441,18.69824-35.81884,46.40772-35.81884,27.48437,0,44.83056,14.86816,44.83056,38.18505v80.98829H723.32662v-20.16309h-.45068c-6.9834,13.4043-21.852,22.19043-37.62158,22.19043C661.93746,1039.42922,646.28073,1025.34914,646.28073,1004.28566ZM722.313,992.90871v-9.57422l-31.314,1.915c-15.76953,1.01367-24.78125,7.99707-24.78125,19.03613,0,11.15137,9.34961,18.47266,23.42968,18.47266C708.12008,1022.75832,722.313,1009.8052,722.313,992.90871Z"/><path class="cls-1" d="M765.34225,887.13967a12.27783,12.27783,0,1,1,12.27783,12.27783A12.23437,12.23437,0,0,1,765.34225,887.13967Zm2.478,33.11621h19.59961v117.146H767.82028Z"/><path class="cls-1" d="M813.89059,920.25588h18.47265v19.14893h.45069c3.83008-12.95362,14.64355-21.17627,28.38525-21.17627a50.53642,50.53642,0,0,1,7.88526.78808v19.03662a39.44028,39.44028,0,0,0-10.47559-1.12646c-15.20654,0-25.11914,10.92578-25.11914,27.48388v72.99122H813.89059Z"/><path class="cls-1" d="M884.96725,920.25588H903.4399v18.69824h.45069c6.5332-12.61572,19.03613-20.72558,37.17139-20.72558,25.68212,0,40.55078,16.5581,40.55078,43.14111v76.03223H962.01315v-72.54c0-18.92383-8.89844-29.28711-26.9209-29.28711-18.47315,0-30.52588,13.0664-30.52588,32.89062v68.93653H884.96725Z"/><path class="cls-1" d="M1103.4902,1003.83449c-3.3794,20.501-23.2041,35.59473-48.77344,35.59473-33.56689,0-53.95459-23.31641-53.95459-60.14941,0-36.38331,20.72559-61.05127,53.05322-61.05127,31.65235,0,51.13916,22.97851,51.13916,58.45947v7.43555h-84.02978v1.126c0,22.415,13.17871,37.1709,34.24267,37.1709,14.86817,0,25.79444-7.54687,29.061-18.58594Zm-82.45313-35.03125h63.64209c-.45068-19.59863-12.72851-33.5664-31.20166-33.5664C1035.11715,935.23684,1022.27633,949.31691,1021.03707,968.80324Z"/><path class="cls-1" d="M1165.66793,918.22854c25.68213,0,42.80322,15.09375,43.5918,35.81884h-18.69824c-1.46436-12.27734-10.47559-19.82422-24.89356-19.82422-14.30517,0-23.76709,7.09668-23.76709,17.34668,0,8.11036,5.96973,13.62989,19.03614,16.78418l18.58544,4.50489c23.65479,5.74511,32.21534,14.98144,32.21534,31.76465,0,20.38769-19.26123,34.80566-45.394,34.80566-27.48437,0-44.60547-13.85449-46.85839-35.81934h19.5996c2.36524,13.4043,11.37647,19.82422,27.25879,19.82422s25.68213-6.75781,25.68213-17.3457c0-8.44922-4.61816-13.292-18.02246-16.55859l-18.58594-4.50586c-22.07714-5.29395-32.77832-15.54493-32.77832-32.44043C1122.63912,932.53371,1140.32369,918.22854,1165.66793,918.22854Z"/><path class="cls-1" d="M1273.01461,918.22854c25.68213,0,42.80322,15.09375,43.5918,35.81884h-18.69824c-1.46436-12.27734-10.47559-19.82422-24.89356-19.82422-14.30517,0-23.76709,7.09668-23.76709,17.34668,0,8.11036,5.96973,13.62989,19.03613,16.78418l18.58545,4.50489c23.65479,5.74511,32.21534,14.98144,32.21534,31.76465,0,20.38769-19.26123,34.80566-45.39405,34.80566-27.48437,0-44.60547-13.85449-46.8584-35.81934h19.59961c2.36524,13.4043,11.37647,19.82422,27.25879,19.82422s25.68213-6.75781,25.68213-17.3457c0-8.44922-4.61816-13.292-18.02246-16.55859l-18.58594-4.50586C1240.687,979.73,1229.9858,969.479,1229.9858,952.58352,1229.9858,932.53371,1247.67037,918.22854,1273.01461,918.22854Z"/><path class="cls-1" d="M1420.23678,944.92434h19.48682c19.374,0,32.89062-11.93994,32.89062-28.16016,0-16.10791-10.13769-27.03369-30.97607-27.03369-19.14893,0-33.34131,10.13769-34.58057,27.70947h-19.48682c2.25293-27.59717,23.65479-45.28174,54.06739-45.28174,32.55322,0,51.36425,18.69873,51.36425,41.90235,0,20.16259-14.08007,34.01758-34.46826,38.29785v.45068c23.65479,2.02735,39.76221,16.78321,39.76221,39.875,0,27.93457-24.55566,47.4209-56.43262,47.4209-33.67968,0-56.09521-18.81055-57.55957-45.73144H1403.791c1.23926,17.23437,16.4458,28.16015,38.07275,28.16015,21.40137,0,35.70655-12.166,35.81934-29.17383.11279-20.05078-14.19238-31.31445-37.05859-31.31445h-20.3877Z"/><path class="cls-1" d="M1520.71237,958.89113c0-54.74267,23.3164-86.84521,63.07861-86.84521,27.59668,0,48.88574,16.10742,53.95459,41.001h-20.61328c-4.731-14.64307-16.896-23.09131-33.5669-23.09131-27.14648,0-42.57812,24.105-43.2539,67.35937h.33789c6.646-14.64355,23.31689-26.3584,45.394-26.3584,30.97607,0,53.95508,22.86621,53.95508,53.7295,0,32.10253-24.21777,55.53125-57.55957,55.53125C1552.47653,1040.21731,1520.71237,1019.37941,1520.71237,958.89113Zm98.67285,26.47071c0-21.28907-15.31934-36.60791-36.8335-36.60791s-37.39648,15.31884-37.39648,36.04541c0,20.83789,16.22021,37.39648,37.05859,37.39648A36.77926,36.77926,0,0,0,1619.38522,985.36184Z"/><path class="cls-1" d="M1658.69723,956.0757c0-50.91357,22.18994-83.91748,59.9248-83.91748,37.73438,0,59.69922,32.77881,59.69922,83.80518,0,51.36328-21.852,84.1416-59.69922,84.1416C1680.66207,1040.105,1658.69723,1007.44,1658.69723,956.0757Zm99.23633,0c0-39.9873-14.19287-66.12011-39.31153-66.12011-25.11914,0-39.53711,26.35791-39.53711,66.00781,0,40.5498,14.08008,66.457,39.53711,66.457C1743.96578,1022.42043,1757.93356,996.62551,1757.93356,956.0757Z"/><path class="cls-1" d="M1079.16064,407.81445c13.28687-.09033,26.57715-.14648,39.8628.02784,3.38916.04443,4.05371-.748,3.26465-4.083-5.64307-23.855-11.09522-47.75586-16.60913-71.6416q-2.95642-12.81079-5.91749-25.62207-.4281.041-.85644.07959-11.2566,48.88549-22.573,97.75634C1075.6543,407.2373,1076.44946,407.833,1079.16064,407.81445Z"/><path class="cls-1" d="M888.68066,308.61719q-11.06652,47.97876-22.167,95.95019c-.627,2.689.08911,3.25489,2.65308,3.2378q20.36644-.134,40.7334.021c2.97534.02686,3.3164-.94238,2.69067-3.602-4.40771-18.74707-8.66577-37.5293-12.99194-56.29687q-4.7798-20.73414-9.62525-41.53223C888.89648,306.9751,888.8584,307.84473,888.68066,308.61719Z"/><path class="cls-1" d="M716.40234,418.55127c0,155.1333,125.7605,280.894,280.8938,280.894,155.13355,0,280.8938-125.76074,280.8938-280.894s-125.76025-280.89356-280.8938-280.89356C842.16284,137.65771,716.40234,263.418,716.40234,418.55127Zm302.19507-134.08643c1.06177,2.1128,2.20606,2.90772,4.58008,2.90186q46.85046-.11719,93.70068-.01514a5.79421,5.79421,0,0,0,5.11744-2.42724,18.88878,18.88878,0,0,1,27.46972-1.82715c6.94776,6.6416,6.73438,18.76025-.45141,25.62256-7.91651,7.55957-20.12232,6.96191-26.95313-1.76856-2.38061-3.043-5.09546-2.51416-7.96216-2.53174-8.76635-.05517-8.73291-.02881-6.73657,8.61133,6.9624,30.12549,13.96362,60.2417,20.76025,90.4043.78785,3.49853,2.21,4.478,5.66651,4.415,11.53882-.21192,23.084-.07959,34.62671-.08106,6.03369-.001,6.06665.01367,3.31689,5.65625-8.00171,16.41846-20.70361,27.87061-37.78222,33.94776-26.49781,9.43017-52.81543,8.82666-78.20752-3.9292-13.64551-6.85449-23.49463-17.70313-29.98-31.58643-1.36719-2.92724-1.51954-4.23828,2.50244-4.167,12.35376.21777,24.71533-.02588,37.07055.15381,2.94751.04248,3.95093-1.02051,4.56836-3.71924q10.89807-47.59863,22.02222-95.14551c.66333-2.83594.55811-4.04736-2.96289-4.02295-21.99658.15137-43.99561.09229-65.99268.03858-1.93921-.00489-3.26391.32519-4.16479,2.30127a25.86106,25.86106,0,0,1-10.86963,12.30468c-2.15064,1.20215-1.39893,3.0586-1.40088,4.66748q-.07068,53.36867-.03613,106.7378h-.01685q0,53.165-.06445,106.32959c-.00855,3.04785.78711,4.43164,3.85986,5.43506,25.27222,8.25537,50.45313,16.78906,75.71021,25.09179,2.86889.94287,4.31933,2.0708,4.00537,5.31592L899.0293,576.90039c.00317-7.6709.00195-7.67432,7.37378-10.14453,24.05395-8.061,48.09253-16.16748,72.18408-24.11279,2.66406-.87842,3.52222-2.04151,3.519-4.853q-.1278-106.738-.03418-213.4751c.00073-2.2583-.51855-3.72363-2.63306-4.92529a23.24172,23.24172,0,0,1-9.70141-11.209c-.88672-2.01367-1.93286-2.855-4.221-2.84765q-33.20214.12012-66.40478-.01026c-2.84034-.01074-3.35889.69678-2.7002,3.51221q11.25293,48.14063,22.19165,96.353c.65747,2.89746,1.8999,3.59717,4.67944,3.56347,12.08448-.144,24.17164-.0708,36.25806-.06,4.887.00439,4.96826.082,2.88672,4.68164-6.84692,15.12549-17.94067,26.40869-33.04419,32.81836-29.12646,12.35937-58.20019,11.94677-86.20166-3.65528-12.29565-6.85107-21.05225-17.33252-26.91748-30.19922-1.32007-2.89648-.76221-3.72558,2.416-3.6958,12.49267.1167,24.98779-.02636,37.47924.105,2.63746.02784,3.79346-.71386,4.40064-3.38086q11.02881-48.405,22.31274-96.752c.58448-2.50781.23658-3.53906-2.489-3.27295a23.47339,23.47339,0,0,1-4.47608.00537c-4.25-.40429-7.37011.68457-10.5144,4.18946-6.83594,7.61963-19.08838,7.06494-26.1582-.42969a18.77094,18.77094,0,0,1,1.19018-26.36475c7.72657-6.90967,19.68579-6.24951,26.15039,1.7417a6.95679,6.95679,0,0,0,6.14112,2.87842q46.23816-.1062,92.478.00635c2.5918.00683,4.04151-.60889,5.30225-3.10694,4.94629-9.80224,13.01367-15.16894,24.105-15.11377C1005.6875,269.20117,1013.66724,274.6582,1018.59741,284.46484Z"/><path class="cls-1" d="M1161.44946,107.07861c-8.11548-4.16455-16.73925-7.34033-25.12622-10.97607l-1.05029,2.3291c12.58008,6.76953,25.62085,12.80957,37.66894,20.4209,122.04786,77.104,181.86011,188.13769,167.8584,331.812-19.13134,196.30615-193.874,321.02393-369.95923,304.1665-170.928-16.36425-301.7727-158.41845-306.30419-326.77392C659.72266,249.19336,797.89258,96.40234,975.71313,84.7583c11.30005-.74023,18.44141.60645,16.22876,14.51563-1.2666,7.96093,3.439,8.76709,9.5647,5.898q26.0548-12.20436,52.06568-24.50342c6.481-3.06983,7.35571-7.08936,1.23364-11.415Q1031.31641,52.656,1007.635,36.33057c-5.68872-3.9375-10.51074-3.15674-10.54907,4.4292-.07447,14.70849-9.51026,15.30419-20.66651,16.46044C834.59961,71.91553,731.2439,142.91406,672.76587,273.04785c-85.15308,189.49463,15.78393,414.54981,212.887,480.35889C1067.90674,814.25781,1266,718.93506,1331.30762,538.95752,1391.35571,373.47461,1318.2876,187.56982,1161.44946,107.07861Z"/></svg>