<svg id="Layer_1" data-name="Layer 1" xmlns="http://www.w3.org/2000/svg" viewBox="0 0 403.7409 360"><defs><style>.cls-1{stroke:#000;stroke-miterlimit:10;stroke-width:0.5px;}</style></defs><path d="M308.71223,192.09692h-144.111c-.23687,0-.47575-.02017-.71029.0031-1.44245.14331-1.43462-.37844-.80523-1.47058,2.89155-5.01746,5.72436-10.06867,8.57939-15.10713,4.13693-7.30071,8.29722-14.5884,12.38918-21.91417a2.7231,2.7231,0,0,1,2.7375-1.66211q48.76621.07251,97.53258.01689a2.44787,2.44787,0,0,1,2.52411,1.37857q10.59273,18.85658,21.30238,37.64769C308.29522,191.24391,308.41664,191.51156,308.71223,192.09692Z"/><path d="M92.5438,192.10812,164.84672,67.54993c4.45,7.58429,8.78131,14.967,13.11332,22.34931,3.2,5.45313,6.37742,10.91969,9.62377,16.34518a2.161,2.161,0,0,1,.0363,2.55087q-24.02658,41.29065-47.98238,82.62235c-.46561.80278-.87414,1.38565-1.99772,1.36951q-22.11816-.31769-44.23767-.54319a7.34015,7.34015,0,0,1-.85854-.13582Z"/><path d="M273.89924,129.55675c-5.34292,0-10.18686-.03865-15.03.00808q-15.01619.14481-30.03121.38856a2.19991,2.19991,0,0,1-2.22751-1.273Q202.56492,87.38886,178.46314,46.13c-.43047-.73728-.77142-1.32215-.23016-2.24333q11.22778-19.10816,22.37966-38.26081a7.44879,7.44879,0,0,1,.55194-.69383Z"/><path d="M339.34664,292.89217v16.48894H326.81309a6.297,6.297,0,0,1-.12673-.89172c.05617-12.12817-.16355-24.266.252-36.38207a32.119,32.119,0,0,1,28.84548-30.75463c4.57417-.489,9.22079-.35732,13.83517-.40118,6.27927-.05968,12.55959-.02842,18.83941-.00987,4.33734.01281,6.88038,2.3202,6.89133,6.58141.05224,20.35475.02193,40.7097.01623,61.06459a6.22252,6.22252,0,0,1-.11434.79662h-12.3979V292.89217ZM382.69319,253.575c-.50584-.03312-.85086-.07522-1.19587-.0754-6.69507-.00349-13.39186-.09338-20.08477.02661a23.50268,23.50268,0,0,0-15.13868,5.24231c-6.699,5.60908-7.32964,13.19653-6.81751,21.18648h43.23688ZM6.5402,275.04082q-.00156-13.395.00129-26.78989c.0047-5.08893,2.2504-7.311,7.37686-7.31291,10.77644-.00407,21.553-.02742,32.3293.0077,9.78256.03187,17.85865,3.6292,23.69676,11.65327,2.581,3.54747,4.50431,7.55267,4.69025,11.89739.31247,7.30118.78023,14.72691-.1693,21.92227-1.73573,13.15327-12.78545,22.63053-26.08122,22.96673-11.89393.30077-23.801.12968-35.70187.084-3.75263-.01442-6.11489-2.61484-6.12981-6.57427C6.51743,293.61043,6.54124,284.3256,6.5402,275.04082Zm12.62809,21.64949a4.76926,4.76926,0,0,0,.836.17542c9.4137-.02932,18.833.11964,28.23918-.1649a14.00049,14.00049,0,0,0,13.752-12.3058,117.52687,117.52687,0,0,0-.0427-18.72991c-.11416-2.02305-1.36121-4.1653-2.58372-5.90745C56.14821,255.168,51.3621,253.5281,45.94,253.506c-8.40812-.03424-16.81647-.0124-25.22475-.00451-.50732.00048-1.01455.08752-1.5469.1366Zm135.85454-55.68344V253.422H105.49691c-.05369.76658-.12726,1.33026-.12757,1.894q-.00981,17.83849-.00132,35.677c.00383,4.53951,1.35916,5.88183,5.9857,5.88645q20.7038.02061,41.40763.00527h2.21349v12.47794a13.40193,13.40193,0,0,1-1.34323.13185c-14.39492.00676-28.79066.09537-43.18448-.03178-7.54591-.06669-13.47151-3.20687-16.42985-10.45925a20.026,20.026,0,0,1-1.27593-7.26286c-.11366-14.61307-.06728-29.22746-.05034-43.84142.00518-4.49908,2.44089-6.95307,6.89567-6.95649q26.92387-.02065,53.84773-.00338c.46939,0,.93883.03887,1.58847.06756Zm130.63137,68.398H272.91658V253.5191H245.65613V241.0683h67.17878v12.37919H285.6542Zm-49.697-12.51048v12.60608h-1.96043q-26.83161,0-53.66322-.00129c-5.07309-.00091-7.33878-2.28119-7.33964-7.38819q-.00482-29.63833-.0014-59.27669v-1.8092h12.60369v55.86929Z"/><path d="M110.17962,281.3724V268.96318H149.3973V281.3724Z"/><path class="cls-1" d="M6.26321,343.83879a4.133,4.133,0,0,1,.34049-1.78168A3.11546,3.11546,0,0,1,7.52277,340.9a3.65006,3.65006,0,0,1,1.36195-.63538,6.943,6.943,0,0,1,1.6681-.19322,7.76356,7.76356,0,0,1,2.2698.2721,3.10252,3.10252,0,0,1,1.33916.77217,2.59175,2.59175,0,0,1,.64692,1.19117,6.30919,6.30919,0,0,1,.17006,1.50958v6.42336a8.61552,8.61552,0,0,0,.07961,1.33952,4.65125,4.65125,0,0,0,.30647,1.0211h-2.996a2.56913,2.56913,0,0,1-.23845-.62453q-.07975-.32782-.14763-.64624h-.04521a2.6598,2.6598,0,0,1-1.25992,1.23676,5.087,5.087,0,0,1-1.84971.28368,3.07383,3.07383,0,0,1-1.38439-.28368,2.34491,2.34491,0,0,1-.90821-.783,3.51429,3.51429,0,0,1-.49933-1.12387,4.98663,4.98663,0,0,1-.15885-1.23676,5.35616,5.35616,0,0,1,.18164-1.48643,2.86,2.86,0,0,1,.55615-1.06669,3.03163,3.03163,0,0,1,.95344-.73815,7.56221,7.56221,0,0,1,1.3956-.52177l1.77047-.4769a1.88838,1.88838,0,0,0,.97588-.49933,1.39226,1.39226,0,0,0,.27246-.93064,1.679,1.679,0,0,0-.32891-1.10071,1.38972,1.38972,0,0,0-1.1235-.3973,1.34387,1.34387,0,0,0-1.0895.43129,1.739,1.739,0,0,0-.36328,1.15788v.34014H6.26319ZM11.3018,346.892a4.42994,4.42994,0,0,1-.65819.21564,2.4058,2.4058,0,0,0-1.36159.681,1.92166,1.92166,0,0,0-.40888,1.29393,2.47788,2.47788,0,0,0,.27247,1.20274.95187.95187,0,0,0,.90785.49934,2.289,2.289,0,0,0,.65818-.102,1.83448,1.83448,0,0,0,.62417-.32927,1.73415,1.73415,0,0,0,.46532-.59052,1.90242,1.90242,0,0,0,.18164-.86189v-2.40623a2.81753,2.81753,0,0,1-.681.3973Zm16.43247,4.41441a3.142,3.142,0,0,1-1.1691,1.20345,3.41019,3.41019,0,0,1-1.6.34014A3.09024,3.09024,0,0,1,22.128,351.3744a9.75276,9.75276,0,0,1-.90784-4.87977,9.96545,9.96545,0,0,1,.90784-4.91373,3.07277,3.07277,0,0,1,2.83717-1.50959,2.95887,2.95887,0,0,1,1.50958.36329,3.56735,3.56735,0,0,1,1.12351,1.08913h.04521v-5.12941h3.13249v16.206h-2.9964v-1.29393Zm-3.07562-1.80412a1.28041,1.28041,0,0,0,1.32795,1.01025,1.29373,1.29373,0,0,0,1.35037-1.01025,14.91084,14.91084,0,0,0,0-6.01518,1.29312,1.29312,0,0,0-1.35037-1.00953,1.27979,1.27979,0,0,0-1.32795,1.00953A14.91119,14.91119,0,0,0,24.65865,349.50227Zm10.316-1.55518a6.83788,6.83788,0,0,0,.0796,1.05584,3.43733,3.43733,0,0,0,.26088.90749,1.7219,1.7219,0,0,0,.47691.63611,1.11978,1.11978,0,0,0,.72623.23809,1.27242,1.27242,0,0,0,1.15751-.56736,4.19687,4.19687,0,0,0,.49934-1.72524H40.9895a4.89242,4.89242,0,0,1-1.13472,3.24568A4.32436,4.32436,0,0,1,36.56351,352.85a5.21382,5.21382,0,0,1-2.65553-.56736,3.52546,3.52546,0,0,1-1.40718-1.498,5.89792,5.89792,0,0,1-.55615-2.08852q-.102-1.15715-.102-2.315a15.938,15.938,0,0,1,.17006-2.36063,5.69266,5.69266,0,0,1,.681-2.01977,3.7059,3.7059,0,0,1,1.464-1.40755,5.30586,5.30586,0,0,1,2.54227-.52177,4.937,4.937,0,0,1,2.23543.44289,3.37006,3.37006,0,0,1,1.37315,1.24834,5.22233,5.22233,0,0,1,.681,1.95175,16.3786,16.3786,0,0,1,.18164,2.55312v.70414h-6.1965Zm3.10962-4.07356a3.15821,3.15821,0,0,0-.23845-.90821,1.26639,1.26639,0,0,0-.47654-.56736,1.44487,1.44487,0,0,0-.783-.19322,1.33322,1.33322,0,0,0-.783.21564,1.55221,1.55221,0,0,0-.48812.56736,2.805,2.805,0,0,0-.26088.783,4.73824,4.73824,0,0,0-.0796.86262v.4769h3.20045q-.02283-.7034-.09085-1.23674Zm6.83183,4.07356a6.84036,6.84036,0,0,0,.0796,1.05584,3.43725,3.43725,0,0,0,.26084.90749,1.72188,1.72188,0,0,0,.4769.63611,1.11978,1.11978,0,0,0,.72623.23809,1.27243,1.27243,0,0,0,1.15752-.56736,4.19687,4.19687,0,0,0,.49934-1.72524h2.81437a4.89264,4.89264,0,0,1-1.13472,3.24568A4.32437,4.32437,0,0,1,46.50491,352.85a5.2138,5.2138,0,0,1-2.65552-.56736,3.5254,3.5254,0,0,1-1.40718-1.498,5.89792,5.89792,0,0,1-.55615-2.08852q-.102-1.15715-.102-2.315a15.938,15.938,0,0,1,.17007-2.36063,5.69272,5.69272,0,0,1,.681-2.01977,3.70583,3.70583,0,0,1,1.464-1.40755,5.30586,5.30586,0,0,1,2.54227-.52177,4.93685,4.93685,0,0,1,2.23543.44289,3.37006,3.37006,0,0,1,1.37315,1.24834,5.22249,5.22249,0,0,1,.681,1.95175,16.37861,16.37861,0,0,1,.18165,2.55312v.70414h-6.1964Zm3.10963-4.07356a3.15854,3.15854,0,0,0-.23845-.90821,1.26651,1.26651,0,0,0-.47654-.56736,1.4449,1.4449,0,0,0-.783-.19322,1.33328,1.33328,0,0,0-.783.21564,1.55213,1.55213,0,0,0-.48812.56736,2.8046,2.8046,0,0,0-.26084.783,4.73736,4.73736,0,0,0-.07961.86262v.4769H48.1166q-.02286-.7034-.09086-1.23674Zm7.14954-3.48449V341.683h.04521a3.43587,3.43587,0,0,1,1.16909-1.23676,3.14785,3.14785,0,0,1,1.6-.37486,3.07348,3.07348,0,0,1,2.83716,1.50958,9.97212,9.97212,0,0,1,.90785,4.91374,9.75668,9.75668,0,0,1-.90785,4.87977A3.09093,3.09093,0,0,1,57.98963,352.85a2.89662,2.89662,0,0,1-2.63309-1.38439h-.04521V356.527H52.179V340.389Zm.44253,9.11323a1.29346,1.29346,0,0,0,1.35037,1.01025,1.28041,1.28041,0,0,0,1.328-1.01025,14.91012,14.91012,0,0,0,0-6.01518,1.27979,1.27979,0,0,0-1.328-1.00953,1.2929,1.2929,0,0,0-1.35037,1.00953A14.91084,14.91084,0,0,0,55.61781,349.50227ZM71.086,336.39436v16.206H67.95356v-16.206Zm4.312,11.55273a6.84036,6.84036,0,0,0,.0796,1.05584,3.437,3.437,0,0,0,.26089.90749,1.72177,1.72177,0,0,0,.4769.63611,1.11982,1.11982,0,0,0,.72623.23809,1.27244,1.27244,0,0,0,1.15752-.56736,4.19686,4.19686,0,0,0,.49933-1.72524h2.81437a4.89259,4.89259,0,0,1-1.13472,3.24568A4.32436,4.32436,0,0,1,76.98685,352.85a5.21376,5.21376,0,0,1-2.65552-.56736,3.52542,3.52542,0,0,1-1.40719-1.498,5.89769,5.89769,0,0,1-.55614-2.08852q-.10207-1.15715-.102-2.315a15.938,15.938,0,0,1,.17006-2.36063,5.69272,5.69272,0,0,1,.681-2.01977,3.706,3.706,0,0,1,1.464-1.40755,5.30589,5.30589,0,0,1,2.54227-.52177,4.93682,4.93682,0,0,1,2.23543.44289,3.37,3.37,0,0,1,1.37315,1.24834,5.22268,5.22268,0,0,1,.681,1.95175,16.3786,16.3786,0,0,1,.18164,2.55312v.70414H75.398Zm3.10963-4.07356a3.15854,3.15854,0,0,0-.23845-.90821,1.26651,1.26651,0,0,0-.47654-.56736,1.4449,1.4449,0,0,0-.783-.19322,1.33328,1.33328,0,0,0-.783.21564,1.55185,1.55185,0,0,0-.48812.56736,2.80471,2.80471,0,0,0-.26089.783,4.73735,4.73735,0,0,0-.0796.86262v.4769h3.20045q-.0228-.7034-.09082-1.23674Zm4.13109-.03474a4.13314,4.13314,0,0,1,.34049-1.78168A3.11546,3.11546,0,0,1,83.89828,340.9a3.65006,3.65006,0,0,1,1.362-.63538,6.943,6.943,0,0,1,1.6681-.19322,7.76424,7.76424,0,0,1,2.2698.2721,3.10252,3.10252,0,0,1,1.33916.77217,2.59188,2.59188,0,0,1,.647,1.19117,6.30919,6.30919,0,0,1,.17006,1.50958v6.42336a8.61183,8.61183,0,0,0,.0796,1.33952,4.65128,4.65128,0,0,0,.30648,1.0211h-2.996a2.57,2.57,0,0,1-.23845-.62453q-.07979-.32782-.14763-.64624h-.0452a2.65971,2.65971,0,0,1-1.25992,1.23676,5.087,5.087,0,0,1-1.84971.28368,3.0738,3.0738,0,0,1-1.38439-.28368,2.34483,2.34483,0,0,1-.90821-.783,3.51431,3.51431,0,0,1-.49934-1.12387,4.98662,4.98662,0,0,1-.15884-1.23676,5.35541,5.35541,0,0,1,.18164-1.48643,2.85992,2.85992,0,0,1,.55614-1.06669,3.03163,3.03163,0,0,1,.95344-.73815,7.5623,7.5623,0,0,1,1.39561-.52177l1.77047-.4769a1.88835,1.88835,0,0,0,.97587-.49933,1.39222,1.39222,0,0,0,.27247-.93064,1.67906,1.67906,0,0,0-.32891-1.10071,1.38974,1.38974,0,0,0-1.12351-.3973,1.34383,1.34383,0,0,0-1.08949.43129,1.739,1.739,0,0,0-.36328,1.15788v.34014H82.63875Zm5.03859,3.05319a4.42994,4.42994,0,0,1-.65819.21564,2.4058,2.4058,0,0,0-1.36159.681,1.92165,1.92165,0,0,0-.40887,1.29393,2.47787,2.47787,0,0,0,.27246,1.20274.95187.95187,0,0,0,.90785.49934,2.289,2.289,0,0,0,.65818-.102,1.83448,1.83448,0,0,0,.62417-.32927,1.734,1.734,0,0,0,.46532-.59052,1.90229,1.90229,0,0,0,.18164-.86189v-2.40623a2.81734,2.81734,0,0,1-.681.3973Zm8.32985-6.50294v1.63405h.04521a4.45363,4.45363,0,0,1,1.15751-1.4184,2.60656,2.60656,0,0,1,1.65686-.53334c.09082,0,.18526.00361.28368.01157s.19322.01882.284.034v2.996c-.16681-.0152-.32927-.026-.48812-.034-.15885-.00724-.32167-.01158-.48812-.01158a3.05613,3.05613,0,0,0-.817.11363,2.18818,2.18818,0,0,0-.749.37414,1.88169,1.88169,0,0,0-.54456.681,2.34829,2.34829,0,0,0-.20444,1.03268v7.33154H93.01081v-12.2113Zm6.99033,0v1.43h.04521a3.17651,3.17651,0,0,1,1.29393-1.328,3.83252,3.83252,0,0,1,1.8157-.41973,3.0913,3.0913,0,0,1,2.30382.817,3.68193,3.68193,0,0,1,.80581,2.6559v9.05606h-3.1324v-8.42069a2.094,2.094,0,0,0-.3177-1.32795,1.26981,1.26981,0,0,0-1.02146-.37414q-1.657,0-1.65686,2.01978v8.103h-3.1324V340.389Zm11.031-4.17633V338.891H110.896v-2.67832Zm0,4.17633v12.21128H110.896V340.389Zm4.63007,0v1.43h.04559a3.17487,3.17487,0,0,1,1.29321-1.328,3.83376,3.83376,0,0,1,1.8157-.41973,3.09276,3.09276,0,0,1,2.3042.817,3.68191,3.68191,0,0,1,.80545,2.6559v9.05606h-3.13206v-8.42069a2.09156,2.09156,0,0,0-.3177-1.32795,1.27,1.27,0,0,0-1.0211-.37414q-1.6576,0-1.65722,2.01978v8.103h-3.13206V340.389Zm16.93179,11.59833a4.83676,4.83676,0,0,1-1.16874,3.54094,5.3744,5.3744,0,0,1-3.91507,1.18031,4.86412,4.86412,0,0,1-3.07562-.851,2.90215,2.90215,0,0,1-1.07828-2.4178h2.99606a1.08275,1.08275,0,0,0,.4769.93064,1.97938,1.97938,0,0,0,.48776.24966,1.67478,1.67478,0,0,0,.55651.09119,1.45616,1.45616,0,0,0,1.33879-.613,2.79855,2.79855,0,0,0,.38572-1.52044v-1.61162h-.04487a3.727,3.727,0,0,1-1.16945,1.08913,2.79167,2.79167,0,0,1-1.44084.40888,3.14421,3.14421,0,0,1-2.80351-1.4184,8.95013,8.95013,0,0,1-.9415-4.75528,19.52811,19.52811,0,0,1,.12451-2.179,6.812,6.812,0,0,1,.5225-2.00892,3.61341,3.61341,0,0,1,1.15715-1.464,3.32052,3.32052,0,0,1,2.03135-.56736,2.96986,2.96986,0,0,1,1.362.36329,2.72414,2.72414,0,0,1,1.15788,1.31636h.04487V340.389h2.996Zm-6.20768-3.90349a3.8707,3.8707,0,0,0,.22723,1.00953,1.70687,1.70687,0,0,0,.4769.70413,1.20007,1.20007,0,0,0,.80545.26052,1.29364,1.29364,0,0,0,.82861-.26052,1.78257,1.78257,0,0,0,.52177-.715,4.12457,4.12457,0,0,0,.27283-1.10143,11.70412,11.70412,0,0,0,.07888-1.4184,9.89238,9.89238,0,0,0-.35171-3.1545,1.284,1.284,0,0,0-1.28235-.93065,1.41829,1.41829,0,0,0-.83946.22651,1.4831,1.4831,0,0,0-.49934.73815,5.17757,5.17757,0,0,0-.23881,1.36123q-.05645.85214-.05645,2.077Q129.32619,347.51652,129.38264,348.08388Zm15.96788-11.68951v16.206h-3.13207v-16.206Zm1.61089,7.44444a4.1326,4.1326,0,0,1,.3409-1.78169,3.11219,3.11219,0,0,1,.91907-1.15716,3.65006,3.65006,0,0,1,1.36195-.63538,6.94312,6.94312,0,0,1,1.66807-.19322,7.768,7.768,0,0,1,2.27017.2721,3.10321,3.10321,0,0,1,1.3388.77217,2.59216,2.59216,0,0,1,.64692,1.19117,6.31021,6.31021,0,0,1,.17006,1.50958v6.42336a8.57135,8.57135,0,0,0,.0796,1.33952,4.67108,4.67108,0,0,0,.30612,1.02111H153.067a2.58523,2.58523,0,0,1-.23809-.62454c-.05355-.21855-.102-.4342-.14763-.64624h-.04559a2.65863,2.65863,0,0,1-1.25919,1.23676,5.08985,5.08985,0,0,1-1.84972.28368,3.07825,3.07825,0,0,1-1.38511-.28368,2.33762,2.33762,0,0,1-.90749-.783,3.499,3.499,0,0,1-.49933-1.12387,4.9697,4.9697,0,0,1-.15921-1.23676,5.36989,5.36989,0,0,1,.18164-1.48643,2.86049,2.86049,0,0,1,.55651-1.06669,3.03422,3.03422,0,0,1,.95308-.73815,7.5563,7.5563,0,0,1,1.396-.52177l1.7701-.4769a1.89147,1.89147,0,0,0,.97624-.49932,1.39222,1.39222,0,0,0,.2721-.93065,1.67721,1.67721,0,0,0-.32927-1.10071,1.38883,1.38883,0,0,0-1.12314-.3973,1.34517,1.34517,0,0,0-1.08986.43129,1.74274,1.74274,0,0,0-.36256,1.15788v.34014h-2.81509Zm5.039,3.05318a4.45381,4.45381,0,0,1-.65782.21564,2.40456,2.40456,0,0,0-1.362.681,1.91986,1.91986,0,0,0-.40887,1.29393,2.47751,2.47751,0,0,0,.27282,1.20275.95168.95168,0,0,0,.90749.49933,2.291,2.291,0,0,0,.65854-.102,1.83619,1.83619,0,0,0,.62381-.32927,1.73379,1.73379,0,0,0,.46532-.59052,1.9071,1.9071,0,0,0,.18165-.86189v-2.40623a2.824,2.824,0,0,1-.681.39731Zm8.32949-6.50294v1.43h.04559a3.17479,3.17479,0,0,1,1.29321-1.32795,3.83346,3.83346,0,0,1,1.8157-.41973,3.09269,3.09269,0,0,1,2.30418.817,3.68191,3.68191,0,0,1,.80545,2.6559v9.05606h-3.13207v-8.42069a2.09149,2.09149,0,0,0-.31769-1.32795,1.27,1.27,0,0,0-1.0211-.37414q-1.65758,0-1.65722,2.01978v8.103h-3.13206V340.389Zm16.93181,11.59832a4.83675,4.83675,0,0,1-1.16873,3.54094,5.37444,5.37444,0,0,1-3.91508,1.18031,4.86414,4.86414,0,0,1-3.07562-.851,2.90214,2.90214,0,0,1-1.07827-2.4178H171.02a1.08278,1.08278,0,0,0,.47691.93064,1.97931,1.97931,0,0,0,.48775.24966,1.67482,1.67482,0,0,0,.55651.09119,1.45619,1.45619,0,0,0,1.3388-.613,2.79854,2.79854,0,0,0,.38571-1.52044v-1.61162h-.04486a3.72713,3.72713,0,0,1-1.16946,1.08913,2.79164,2.79164,0,0,1-1.44084.40888,3.14421,3.14421,0,0,1-2.80351-1.4184,8.95013,8.95013,0,0,1-.9415-4.75528,19.52812,19.52812,0,0,1,.12452-2.179,6.81167,6.81167,0,0,1,.52249-2.00892,3.61349,3.61349,0,0,1,1.15715-1.464,3.32048,3.32048,0,0,1,2.03136-.56736,2.96981,2.96981,0,0,1,1.362.36329,2.72409,2.72409,0,0,1,1.15788,1.31636h.04487V340.389h2.99606Zm-6.20768-3.90349a3.87071,3.87071,0,0,0,.22724,1.00953,1.70667,1.70667,0,0,0,.4769.70413,1.2,1.2,0,0,0,.80545.26052,1.29361,1.29361,0,0,0,.8286-.26052,1.78257,1.78257,0,0,0,.52177-.715,4.12419,4.12419,0,0,0,.27283-1.10143,11.70412,11.70412,0,0,0,.07888-1.4184,9.8921,9.8921,0,0,0-.35171-3.1545,1.284,1.284,0,0,0-1.28235-.93065,1.41818,1.41818,0,0,0-.83946.22651,1.48316,1.48316,0,0,0-.49934.73815,5.17757,5.17757,0,0,0-.23881,1.36123q-.05645.85214-.05644,2.077Q170.99754,347.51652,171.054,348.08388Zm14.061,3.08647a2.96233,2.96233,0,0,1-1.29321,1.29393,4.10953,4.10953,0,0,1-1.8157.38572,3.17315,3.17315,0,0,1-2.30418-.783,3.55356,3.55356,0,0,1-.80545-2.62187v-9.05606h3.13206v8.42067a2.09159,2.09159,0,0,0,.3177,1.328,1.26926,1.26926,0,0,0,1.0211.37486q1.65758,0,1.65722-2.0205v-8.103h3.13206v12.21128h-2.99606v-1.43Zm4.53961-7.33154a4.13259,4.13259,0,0,1,.34089-1.78169,3.11219,3.11219,0,0,1,.91907-1.15716,3.65006,3.65006,0,0,1,1.362-.63538,6.94318,6.94318,0,0,1,1.66807-.19322,7.768,7.768,0,0,1,2.27017.2721,3.10321,3.10321,0,0,1,1.3388.77217,2.59216,2.59216,0,0,1,.64692,1.19117,6.31021,6.31021,0,0,1,.17006,1.50958v6.42336a8.57135,8.57135,0,0,0,.0796,1.33952,4.67108,4.67108,0,0,0,.30612,1.02111h-2.99606a2.58523,2.58523,0,0,1-.23809-.62454c-.05355-.21855-.102-.4342-.14763-.64624h-.04559a2.65863,2.65863,0,0,1-1.25919,1.23676A5.08983,5.08983,0,0,1,192.22,352.85a3.0784,3.0784,0,0,1-1.38512-.28368,2.33752,2.33752,0,0,1-.90748-.783,3.49885,3.49885,0,0,1-.49934-1.12387,4.9697,4.9697,0,0,1-.15921-1.23676,5.36989,5.36989,0,0,1,.18164-1.48643,2.86049,2.86049,0,0,1,.55651-1.06669,3.03434,3.03434,0,0,1,.95308-.73815,7.5563,7.5563,0,0,1,1.396-.52177l1.7701-.4769a1.89143,1.89143,0,0,0,.97624-.49932,1.39222,1.39222,0,0,0,.2721-.93065,1.67722,1.67722,0,0,0-.32927-1.10071,1.38888,1.38888,0,0,0-1.12314-.3973,1.34517,1.34517,0,0,0-1.08986.43129,1.74274,1.74274,0,0,0-.36256,1.15788v.34014h-2.81509Zm5.03894,3.05318a4.45381,4.45381,0,0,1-.65782.21564,2.40462,2.40462,0,0,0-1.362.681,1.91982,1.91982,0,0,0-.40888,1.29393,2.47762,2.47762,0,0,0,.27282,1.20275.95168.95168,0,0,0,.90749.49933,2.29114,2.29114,0,0,0,.65855-.102,1.83614,1.83614,0,0,0,.6238-.32927,1.73381,1.73381,0,0,0,.46533-.59052,1.90709,1.90709,0,0,0,.18164-.86189v-2.40623a2.824,2.824,0,0,1-.681.39731Zm14.48073,5.09539a4.83676,4.83676,0,0,1-1.16874,3.54094,5.37444,5.37444,0,0,1-3.91508,1.18031,4.86417,4.86417,0,0,1-3.07561-.851,2.90212,2.90212,0,0,1-1.07828-2.4178h2.99606a1.08275,1.08275,0,0,0,.4769.93064,1.97975,1.97975,0,0,0,.48776.24967,1.67475,1.67475,0,0,0,.5565.09118,1.4562,1.4562,0,0,0,1.3388-.613,2.79868,2.79868,0,0,0,.38572-1.52044v-1.61163h-.04487a3.727,3.727,0,0,1-1.16946,1.08913,2.79163,2.79163,0,0,1-1.44083.40888,3.14424,3.14424,0,0,1-2.80352-1.4184,8.95009,8.95009,0,0,1-.9415-4.75527,19.53065,19.53065,0,0,1,.12452-2.179,6.812,6.812,0,0,1,.52249-2.00892,3.61349,3.61349,0,0,1,1.15716-1.464,3.3205,3.3205,0,0,1,2.03135-.56736,2.96984,2.96984,0,0,1,1.362.36328,2.72428,2.72428,0,0,1,1.15788,1.31636h.04486V340.389h2.99606Zm-6.20768-3.90349a3.8707,3.8707,0,0,0,.22723,1.00953,1.70687,1.70687,0,0,0,.4769.70413,1.20006,1.20006,0,0,0,.80545.26052,1.2936,1.2936,0,0,0,.82861-.26052,1.7825,1.7825,0,0,0,.52177-.715,4.12408,4.12408,0,0,0,.27282-1.10143,11.702,11.702,0,0,0,.07888-1.4184,9.89209,9.89209,0,0,0-.3517-3.1545,1.28394,1.28394,0,0,0-1.28235-.93064,1.41819,1.41819,0,0,0-.83947.22651,1.483,1.483,0,0,0-.49933.73814,5.17675,5.17675,0,0,0-.23881,1.36123q-.05645.85215-.05645,2.077Q202.91013,347.51654,202.96658,348.08389Zm10.52077-.13677a6.88169,6.88169,0,0,0,.07889,1.05584,3.45046,3.45046,0,0,0,.26124.90748,1.71794,1.71794,0,0,0,.4769.63611,1.11879,1.11879,0,0,0,.72585.23809,1.273,1.273,0,0,0,1.15788-.56736,4.19092,4.19092,0,0,0,.49933-1.72524h2.81437a4.89618,4.89618,0,0,1-1.13472,3.24568,4.32439,4.32439,0,0,1-3.29127,1.11231,5.21134,5.21134,0,0,1-2.65516-.56736,3.52191,3.52191,0,0,1-1.40755-1.498,5.9045,5.9045,0,0,1-.55578-2.08853q-.102-1.15716-.10276-2.315a15.88162,15.88162,0,0,1,.17079-2.36063,5.68586,5.68586,0,0,1,.681-2.01977,3.69868,3.69868,0,0,1,1.464-1.40755,5.30369,5.30369,0,0,1,2.54154-.52177,4.9391,4.9391,0,0,1,2.23615.44289,3.3738,3.3738,0,0,1,1.37281,1.24834,5.2164,5.2164,0,0,1,.681,1.95175,16.42167,16.42167,0,0,1,.18164,2.55312v.70414h-6.1961Zm3.10963-4.07357a3.16929,3.16929,0,0,0-.23881-.90821,1.27043,1.27043,0,0,0-.47618-.56736,1.44656,1.44656,0,0,0-.783-.19322,1.33491,1.33491,0,0,0-.78374.21564,1.55114,1.55114,0,0,0-.48776.56736,2.81693,2.81693,0,0,0-.26124.783,4.76866,4.76866,0,0,0-.07889.86262v.4769h3.20009q-.02279-.70338-.09046-1.23674Zm12.84595-6.97984v3.49535h1.8157v2.13339h-1.8157v6.605a1.85276,1.85276,0,0,0,.21565,1.03268,1.042,1.042,0,0,0,.89668.30684c.12085,0,.24171-.00362.36329-.01158.12085-.00724.23374-.01881.34012-.034v2.179q-.52213,0-1.01025.034-.48847.03366-1.03268.034a7.31411,7.31411,0,0,1-1.48643-.1245,1.509,1.509,0,0,1-.88505-.49933,2.14863,2.14863,0,0,1-.42046-.98781,8.747,8.747,0,0,1-.11289-1.54358v-6.9907h-1.58919v-2.13339h1.58919v-3.49535Zm5.01578,11.05341a6.88169,6.88169,0,0,0,.07889,1.05584,3.45046,3.45046,0,0,0,.26124.90748,1.71794,1.71794,0,0,0,.4769.63611,1.11874,1.11874,0,0,0,.72585.23809,1.273,1.273,0,0,0,1.15788-.56736,4.19092,4.19092,0,0,0,.49933-1.72524h2.81433a4.89623,4.89623,0,0,1-1.13472,3.24568,4.3244,4.3244,0,0,1-3.29127,1.11231,5.21135,5.21135,0,0,1-2.65517-.56736,3.52189,3.52189,0,0,1-1.40754-1.498,5.90525,5.90525,0,0,1-.55578-2.08853q-.102-1.15716-.10277-2.315a15.88431,15.88431,0,0,1,.17079-2.36063,5.68568,5.68568,0,0,1,.681-2.01977,3.69872,3.69872,0,0,1,1.464-1.40755,5.30361,5.30361,0,0,1,2.54155-.52177,4.93912,4.93912,0,0,1,2.23615.44289,3.37373,3.37373,0,0,1,1.37281,1.24834,5.2164,5.2164,0,0,1,.681,1.95175,16.42289,16.42289,0,0,1,.18164,2.55312v.70414h-6.1961Zm3.10963-4.07357a3.16929,3.16929,0,0,0-.23881-.90821,1.27043,1.27043,0,0,0-.47618-.56736,1.44656,1.44656,0,0,0-.783-.19322,1.33491,1.33491,0,0,0-.78374.21564,1.55114,1.55114,0,0,0-.48776.56736,2.81726,2.81726,0,0,0-.26124.783,4.76956,4.76956,0,0,0-.07889.86262v.4769h3.20009q-.02279-.70338-.09046-1.23674Zm9.97586.034a3.0643,3.0643,0,0,0-.2048-.783,1.39985,1.39985,0,0,0-.41974-.56809,1.14125,1.14125,0,0,0-.72656-.21564,1.42784,1.42784,0,0,0-1.47485,1.03341,5.2771,5.2771,0,0,0-.24967,1.2932q-.06839.78377-.068,1.84972,0,1.13546.068,1.94089a5.51656,5.51656,0,0,0,.24967,1.32795,1.52072,1.52072,0,0,0,.51019.76059,1.41912,1.41912,0,0,0,.85176.23808,1.22079,1.22079,0,0,0,1.15716-.681,4.88192,4.88192,0,0,0,.36328-2.179h2.99606a5.49,5.49,0,0,1-1.07828,3.66541,4.47573,4.47573,0,0,1-3.575,1.25992,6.67681,6.67681,0,0,1-2.05379-.28368,2.98084,2.98084,0,0,1-1.45245-1.0211,5.08325,5.08325,0,0,1-.8742-1.97488,13.5099,13.5099,0,0,1-.29526-3.07562,11.29808,11.29808,0,0,1,.36328-3.12048,5.06606,5.06606,0,0,1,1.02183-1.97487,3.53426,3.53426,0,0,1,1.566-1.03268,6.427,6.427,0,0,1,1.99734-.29526,4.10686,4.10686,0,0,1,3.2797,1.27077,5.09263,5.09263,0,0,1,1.1007,3.45048H247.6006a6.81459,6.81459,0,0,0-.0564-.88512Zm7.25121-7.51318v5.243h.04559a3.16745,3.16745,0,0,1,2.97286-1.566,3.09269,3.09269,0,0,1,2.30418.817,3.68191,3.68191,0,0,1,.80545,2.6559v9.05606h-3.13207v-8.42068a2.09152,2.09152,0,0,0-.31769-1.328,1.27,1.27,0,0,0-1.0211-.37414q-1.65765,0-1.65722,2.01978v8.103h-3.13206v-16.206Zm10.64525,3.99468v1.43h.04559a3.17485,3.17485,0,0,1,1.29321-1.32795,3.83346,3.83346,0,0,1,1.8157-.41973,3.09265,3.09265,0,0,1,2.30418.817,3.68191,3.68191,0,0,1,.80545,2.6559v9.05606h-3.132v-8.42069a2.09149,2.09149,0,0,0-.31769-1.32795,1.27,1.27,0,0,0-1.02111-.37414q-1.65758,0-1.65721,2.01978v8.103H262.4447V340.389Zm7.62608,3.33686a5.33164,5.33164,0,0,1,.817-2.00892,3.62949,3.62949,0,0,1,1.48715-1.2259,5.426,5.426,0,0,1,2.25787-.41973,5.73964,5.73964,0,0,1,2.33819.37486,3.27857,3.27857,0,0,1,1.47557,1.21433,5.42276,5.42276,0,0,1,.77144,2.01977,15.35064,15.35064,0,0,1,.22723,2.81437,13.77345,13.77345,0,0,1-.24967,2.76878,5.33893,5.33893,0,0,1-.81775,2.00892,3.37315,3.37315,0,0,1-1.48642,1.19189,5.84915,5.84915,0,0,1-2.25859.38572,6.03714,6.03714,0,0,1-2.33747-.35171,3.16112,3.16112,0,0,1-1.47557-1.18031,5.31507,5.31507,0,0,1-.77144-2.01978,15.398,15.398,0,0,1-.22723-2.80351,13.7214,13.7214,0,0,1,.24966-2.76877Zm2.928,4.494a5.9758,5.9758,0,0,0,.21566,1.362,1.94718,1.94718,0,0,0,.51091.88505,1.2741,1.2741,0,0,0,.90749.31769,1.32641,1.32641,0,0,0,1.31636-.99867,15.091,15.091,0,0,0,0-6.58254,1.32641,1.32641,0,0,0-1.31636-.99867,1.27735,1.27735,0,0,0-.90749.31769,1.94571,1.94571,0,0,0-.51091.88578,5.9694,5.9694,0,0,0-.21566,1.36123q-.04566.79567-.04559,1.72524Q275.94907,347.42605,275.99473,348.21993Zm10.80374-11.82556v16.206H283.6664v-16.206Zm1.47484,7.33154a5.33171,5.33171,0,0,1,.817-2.00892,3.62949,3.62949,0,0,1,1.48715-1.2259,5.426,5.426,0,0,1,2.25787-.41973,5.73964,5.73964,0,0,1,2.33819.37486,3.27857,3.27857,0,0,1,1.47557,1.21433,5.42276,5.42276,0,0,1,.77144,2.01977,15.35064,15.35064,0,0,1,.22723,2.81437,13.77345,13.77345,0,0,1-.24967,2.76878,5.33893,5.33893,0,0,1-.81775,2.00892,3.37315,3.37315,0,0,1-1.48642,1.19189,5.84915,5.84915,0,0,1-2.25859.38572,6.03714,6.03714,0,0,1-2.33747-.35171,3.16112,3.16112,0,0,1-1.47557-1.18031,5.31425,5.31425,0,0,1-.77144-2.01978,15.398,15.398,0,0,1-.22723-2.80351,13.7214,13.7214,0,0,1,.24966-2.76877Zm2.928,4.494a5.9758,5.9758,0,0,0,.21566,1.362,1.94727,1.94727,0,0,0,.51091.88505,1.27412,1.27412,0,0,0,.90749.31769,1.3264,1.3264,0,0,0,1.31636-.99867,15.091,15.091,0,0,0,0-6.58254,1.3264,1.3264,0,0,0-1.31636-.99867,1.27731,1.27731,0,0,0-.90749.31769,1.94571,1.94571,0,0,0-.51091.88578,5.9694,5.9694,0,0,0-.21566,1.36123q-.04566.79567-.04559,1.72524Q291.15564,347.42605,291.2013,348.21993Zm16.7053,3.76745a4.83675,4.83675,0,0,1-1.16873,3.54094,5.3746,5.3746,0,0,1-3.91508,1.18031,4.86418,4.86418,0,0,1-3.07562-.851,2.90214,2.90214,0,0,1-1.07827-2.4178h2.996a1.08278,1.08278,0,0,0,.47691.93064,1.97969,1.97969,0,0,0,.48775.24967,1.67481,1.67481,0,0,0,.55651.09118,1.4562,1.4562,0,0,0,1.3388-.613,2.79859,2.79859,0,0,0,.38571-1.52044v-1.61163h-.04486a3.72713,3.72713,0,0,1-1.16946,1.08913,2.79167,2.79167,0,0,1-1.44084.40888,3.14421,3.14421,0,0,1-2.80351-1.4184,8.95009,8.95009,0,0,1-.9415-4.75527,19.53064,19.53064,0,0,1,.12451-2.179,6.812,6.812,0,0,1,.5225-2.00892,3.6134,3.6134,0,0,1,1.15715-1.464,3.32042,3.32042,0,0,1,2.03136-.56736,2.9698,2.9698,0,0,1,1.36195.36328,2.72418,2.72418,0,0,1,1.15788,1.31636h.04487V340.389h2.99606Zm-6.20772-3.90349a3.8707,3.8707,0,0,0,.22723,1.00953,1.70687,1.70687,0,0,0,.4769.70413,1.20006,1.20006,0,0,0,.80545.26052,1.2936,1.2936,0,0,0,.82861-.26052,1.7825,1.7825,0,0,0,.52177-.715,4.12408,4.12408,0,0,0,.27282-1.10143,11.702,11.702,0,0,0,.07888-1.4184,9.89209,9.89209,0,0,0-.3517-3.1545,1.284,1.284,0,0,0-1.28235-.93064,1.41812,1.41812,0,0,0-.83947.22651,1.48275,1.48275,0,0,0-.49933.73814,5.17716,5.17716,0,0,0-.23881,1.36123q-.05644.85215-.05645,2.077,0,.63612.05649,1.20347Zm8.886,6.17367a1.51842,1.51842,0,0,0,1.23676-.45447,2.14957,2.14957,0,0,0,.44289-1.20271l-3.42732-12.21129h3.26811l1.8157,8.44384h.04559l1.58919-8.44384h3.13206l-2.95114,11.39428a23.09949,23.09949,0,0,1-.783,2.46268,4.25175,4.25175,0,0,1-.885,1.45244,2.4429,2.4429,0,0,1-1.22518.6694,8.54259,8.54259,0,0,1-1.80485.15921h-1.27077v-2.33819a4.93465,4.93465,0,0,0,.817.06866Zm16.56853-13.8685V341.683h.04559a3.4291,3.4291,0,0,1,1.16873-1.23676,3.14989,3.14989,0,0,1,1.6-.37486,3.07254,3.07254,0,0,1,2.83681,1.50958,9.97484,9.97484,0,0,1,.90821,4.91374,9.75435,9.75435,0,0,1-.90821,4.87977,3.09,3.09,0,0,1-2.83681,1.47557,2.89551,2.89551,0,0,1-2.63272-1.38439h-.04559V356.527h-3.13207v-16.138Zm.44216,9.11323a1.29477,1.29477,0,0,0,1.3511,1.01025,1.27989,1.27989,0,0,0,1.32722-1.01025,14.89406,14.89406,0,0,0,0-6.01518,1.27929,1.27929,0,0,0-1.32722-1.00952,1.29416,1.29416,0,0,0-1.3511,1.00952A14.928,14.928,0,0,0,327.59561,349.50229Zm10.5888-13.10791v16.206h-3.13206v-16.206Zm1.6109,7.44444a4.13245,4.13245,0,0,1,.3409-1.78169,3.11219,3.11219,0,0,1,.91907-1.15716,3.65006,3.65006,0,0,1,1.362-.63538,6.94312,6.94312,0,0,1,1.66807-.19322,7.768,7.768,0,0,1,2.27017.2721,3.10312,3.10312,0,0,1,1.33879.77217,2.59161,2.59161,0,0,1,.647,1.19117,6.31027,6.31027,0,0,1,.17006,1.50958v6.42336a8.57007,8.57007,0,0,0,.07961,1.33952,4.67105,4.67105,0,0,0,.30611,1.02111H345.901a2.58487,2.58487,0,0,1-.23808-.62453c-.05356-.21855-.102-.43421-.14763-.64625h-.0456a2.65863,2.65863,0,0,1-1.25919,1.23676,5.08983,5.08983,0,0,1-1.84971.28368,3.07806,3.07806,0,0,1-1.38511-.28368,2.33755,2.33755,0,0,1-.90749-.783,3.49875,3.49875,0,0,1-.49934-1.12387,4.97017,4.97017,0,0,1-.15921-1.23676,5.36953,5.36953,0,0,1,.18165-1.48643,2.8604,2.8604,0,0,1,.5565-1.06669,3.03448,3.03448,0,0,1,.95308-.73815,7.55657,7.55657,0,0,1,1.396-.52177l1.77011-.4769a1.89144,1.89144,0,0,0,.97623-.49932,1.39223,1.39223,0,0,0,.27211-.93065,1.67727,1.67727,0,0,0-.32928-1.10071,1.38884,1.38884,0,0,0-1.12314-.39729,1.3451,1.3451,0,0,0-1.08985.43128,1.74265,1.74265,0,0,0-.36256,1.15788v.34014h-2.81514Zm5.039,3.05318a4.45381,4.45381,0,0,1-.65782.21564,2.40465,2.40465,0,0,0-1.362.681,1.91986,1.91986,0,0,0-.40887,1.29393,2.47751,2.47751,0,0,0,.27282,1.20275.95168.95168,0,0,0,.90749.49933,2.291,2.291,0,0,0,.65854-.102,1.836,1.836,0,0,0,.62381-.32927,1.73379,1.73379,0,0,0,.46532-.59052,1.9071,1.9071,0,0,0,.18165-.86189v-2.40623a2.82419,2.82419,0,0,1-.681.39731Zm9.14652-9.99829v3.49535h1.8157v2.13339h-1.8157v6.605a1.85276,1.85276,0,0,0,.21565,1.03268,1.042,1.042,0,0,0,.89668.30684c.12086,0,.24171-.00362.36329-.01158.12085-.00724.23374-.01881.34012-.034v2.179q-.52212,0-1.01025.034-.48847.03366-1.03268.034a7.31411,7.31411,0,0,1-1.48643-.1245,1.509,1.509,0,0,1-.885-.49933,2.14873,2.14873,0,0,1-.42046-.98781,8.747,8.747,0,0,1-.11289-1.54358v-6.9907h-1.58919v-2.13339h1.58919v-3.49535Z"/><path class="cls-1" d="M355.41076,342.52243V340.389H357v-1.38439a3.73612,3.73612,0,0,1,.22651-1.38439,2.1852,2.1852,0,0,1,.647-.90821,2.578,2.578,0,0,1,1.03269-.48776,5.82383,5.82383,0,0,1,1.36195-.14763q.839,0,1.67965.068v2.22457a1.70218,1.70218,0,0,0-.31769-.02315h-.29526a1.47011,1.47011,0,0,0-.93065.22723.92353.92353,0,0,0-.2721.749v1.0667h1.8157v2.13339H360.132v10.07789H357V342.52243Zm6.89951,1.20347a5.33164,5.33164,0,0,1,.817-2.00892,3.62935,3.62935,0,0,1,1.48715-1.2259,5.426,5.426,0,0,1,2.25786-.41973,5.73966,5.73966,0,0,1,2.3382.37486,3.27867,3.27867,0,0,1,1.47557,1.21432,5.423,5.423,0,0,1,.77144,2.01978,15.35239,15.35239,0,0,1,.22723,2.81437,13.77345,13.77345,0,0,1-.24967,2.76878,5.33893,5.33893,0,0,1-.81775,2.00892,3.37323,3.37323,0,0,1-1.48643,1.19189,5.84912,5.84912,0,0,1-2.25859.38572,6.03728,6.03728,0,0,1-2.33746-.35171,3.16114,3.16114,0,0,1-1.47558-1.18031,5.31423,5.31423,0,0,1-.77143-2.01978,15.398,15.398,0,0,1-.22724-2.80351,13.72062,13.72062,0,0,1,.24967-2.76877Zm2.928,4.494a5.97506,5.97506,0,0,0,.21565,1.36195,1.94727,1.94727,0,0,0,.51092.88506,1.27408,1.27408,0,0,0,.90748.31769,1.32641,1.32641,0,0,0,1.31637-.99867,15.09129,15.09129,0,0,0,0-6.58254,1.32641,1.32641,0,0,0-1.31637-.99867,1.27728,1.27728,0,0,0-.90748.31769,1.94582,1.94582,0,0,0-.51092.88578,5.96883,5.96883,0,0,0-.21565,1.36123q-.04566.79568-.04559,1.72524Q365.1926,347.426,365.23826,348.21992Zm10.55479-7.83088v1.63405h.04559a4.4526,4.4526,0,0,1,1.15716-1.4184,2.60543,2.60543,0,0,1,1.65721-.53334c.09046,0,.18454.00361.28368.01157.0977.008.1925.01882.28368.034v2.996c-.16717-.0152-.32927-.026-.48848-.034-.15848-.00724-.32131-.01158-.48776-.01158a3.056,3.056,0,0,0-.817.11363,2.19439,2.19439,0,0,0-.749.37414,1.8788,1.8788,0,0,0-.54492.681,2.35388,2.35388,0,0,0-.20408,1.03268v7.33154H372.797v-12.2113Zm6.99,0v1.24837h.04559a3.59739,3.59739,0,0,1,1.32722-1.20271,3.952,3.952,0,0,1,1.75925-.36329,3.1865,3.1865,0,0,1,1.82728.49933,2.42311,2.42311,0,0,1,.987,1.45245h.04559a2.78051,2.78051,0,0,1,1.16873-1.464,3.63545,3.63545,0,0,1,1.91774-.48775,2.74582,2.74582,0,0,1,2.30418.94222,4.32353,4.32353,0,0,1,.73742,2.71233v8.87433h-3.132V344.066a2.065,2.065,0,0,0-.28368-1.18032,1.06665,1.06665,0,0,0-.94222-.40815,1.51072,1.51072,0,0,0-1.19117.49933,2.35609,2.35609,0,0,0-.44289,1.58846v8.035H385.779V344.066a2.065,2.065,0,0,0-.28368-1.18032,1.06665,1.06665,0,0,0-.94222-.40815,1.51072,1.51072,0,0,0-1.19117.49933,2.35609,2.35609,0,0,0-.44289,1.58846v8.035h-3.132V340.389Z"/></svg>