<svg id="Layer_1" data-name="Layer 1" xmlns="http://www.w3.org/2000/svg" viewBox="0 0 360 360"><defs><style>.cls-1{fill:#fff;}</style></defs><title>onnx-icon-white</title><path class="cls-1" d="M342.00232,170.46506a3.48654,3.48654,0,0,1-3.46951-2.16541q-28.19175-52.31057-56.5319-104.53839a4.38923,4.38923,0,0,1-.35523-3.905A14.22847,14.22847,0,0,0,259.80663,43.618a5.80036,5.80036,0,0,1-5.17266,1.05107q-55.5441-11.15066-111.0979-22.2332a3.8491,3.8491,0,0,1-3.51089-3.05835,14.25037,14.25037,0,0,0-27.33787,8.0581q.05585.18945.11692.37729a4.80525,4.80525,0,0,1-.74695,4.76634Q67.89745,95.78992,23.87142,159.093c-1.19219,1.71287-2.36493,2.45739-4.11672,1.81993a14.22359,14.22359,0,0,0-15.316,12.248A13.99489,13.99489,0,0,0,16.07013,189.1741q.26615.04219.53377.07411a3.81256,3.81256,0,0,1,3.60091,2.97318Q43.86622,250.69727,67.6663,309.11724a5.91235,5.91235,0,0,1,.28224,4.01451,14.26984,14.26984,0,0,0,22.46678,15.39389,5.00968,5.00968,0,0,1,3.83205-1.12649c9.22613.95861,18.462,1.79315,27.693,2.69337q30.32067,2.95125,60.63645,5.92206,27.33776,2.67876,54.67792,5.34542a3.72013,3.72013,0,0,1,3.62523,2.49386,14.26983,14.26983,0,1,0,25.27938-13.11168,3.55225,3.55225,0,0,1-.04865-4.10213q36.13321-62.60724,72.14964-125.28013a3.86126,3.86126,0,0,1,3.77851-2.343,14.27714,14.27714,0,0,0,.33442-28.55232Q342.18775,170.46241,342.00232,170.46506Zm-220.83084-112.93q2.034-8.7322,4.04373-17.46929c.33576-1.47443.78343-2.35032,2.68851-2.46711a12.26259,12.26259,0,0,0,9.09474-4.74688A3.36,3.36,0,0,1,140.9473,31.662q55.85062,11.20419,111.71589,22.32809c.30656.06083.5961.21411,1.73476.63746-12.23338,5.35028-23.68817,10.37452-35.15756,15.372q-52.99667,23.09205-106.00064,46.16953c-.53528.23358-1.07785.455-1.62042.67639-1.13623.46228-2.20921,1.53769-3.52306.41849-1.22382-1.03891-.32359-2.16785-.073-3.23839q6.5595-28.2477,13.14819-56.4881Zm-8.02176-9.78329.58393.38929q-7.51812,32.15762-15.02651,64.32009a3.66661,3.66661,0,0,1-2.7907,3.07051A13.45475,13.45475,0,0,0,86.09178,127.585a3.96584,3.96584,0,0,1-1.944,3.4598Q60.30389,144.99833,36.533,159.0711a6.58125,6.58125,0,0,1-1.19706.26763ZM75.54451,298.74028a27.05834,27.05834,0,0,1-.68612,2.63743l-16.063-39.55409q-14.74671-36.31815-29.54209-72.61679a4.86611,4.86611,0,0,1,.74938-5.92933,10.65674,10.65674,0,0,0,2.652-8.16775,4.08268,4.08268,0,0,1,2.5401-4.37219c17.41577-10.18961,34.75855-20.49844,52.14755-30.73183.98052-.57663,1.9586-1.90507,3.37464-.5523,1.28222,1.22382,3.05348,1.79073,2.72744,4.35516-1.691,13.38907-3.1435,26.80733-4.68361,40.21587l-6.71035,58.4102Q78.80967,270.58749,75.54451,298.74028Zm16.3063,8.8563A10.81988,10.81988,0,0,0,86.357,303.947c-1.28952-.399-2.16542-.927-1.72747-2.14351,1.38684-12.102,2.73232-23.87795,4.08753-35.65147q4.08751-35.49818,8.18721-70.99638c1.90994-16.552,3.92451-33.09433,5.64711-49.66583.34062-3.28462,2.90749-3.18729,4.69578-4.3868,1.81749-1.22138,2.57416.601,3.47926,1.38684Q169.92249,193.82963,229.03828,245.257a5.50112,5.50112,0,0,1-1.45982,8.71032L95.70962,308.36786c-1.57175.64962-2.64473.83454-3.86125-.76883Zm154.37211,18.7077a6.02187,6.02187,0,0,0-2.62284,2.2749c-1.83451,3.83449-4.99748,3.36489-8.30643,3.03645q-39.03584-3.88558-78.0814-7.68845-29.40827-2.89533-58.81653-5.81012l-.21655-.63744c7.085-2.944,14.16035-5.90743,21.25026-8.832q55.54652-22.90473,111.08329-45.83864c2.09242-.8686,3.38193-.10705,5.32107.56934,5.523,1.93183,5.64953,6.24077,6.14345,10.76868q2.68244,24.48131,5.56682,48.93834C247.70708,324.48922,247.67058,325.533,246.22292,326.30428Zm-4.71281-90.11284c-.22385,1.75179-1.03649,2.24814-2.42575,2.88072a3.28462,3.28462,0,0,1-4.03887-.89049q-14.16763-12.41584-28.418-24.72951-45.04789-39.155-90.09094-78.315a9.85143,9.85143,0,0,1-2.40873-8.65435c.60827-1.26519,2.12406-1.37955,3.26515-1.87832q57.6219-25.15043,115.27057-50.23516c7.08748-3.08754,14.2017-6.11182,21.24539-9.29425,1.99024-.90022,3.54009-1.37954,5.07777.74451a6.64954,6.64954,0,0,0,2.8637,1.97807c1.34305.54257,1.90264,1.27736,1.59608,2.16785-1.3625,10.40129-2.6569,20.29163-3.95857,30.17467q-4.4622,33.84371-8.939,67.68258c-3.01941,22.79036-6.09235,45.571-9.03877,68.37111ZM257.05,323.25079c-.8175-6.70792-1.5377-12.38421-2.19705-18.06781-1.33818-11.53753-2.61065-23.08233-3.98776-34.61741-.382-3.2019-.64962-5.815,2.72014-8.16532a12.20414,12.20414,0,0,0,4.54737-11.94871c-.146-1.31385-.11434-2.14108,1.073-2.94885q33.46175-22.83415,66.87479-45.734a6.96859,6.96859,0,0,1,1.04133-.24817L257.05,323.25083Zm72.68491-145.28224a10.37932,10.37932,0,0,0-1.69585,8.068,3.73476,3.73476,0,0,1-1.95859,4.29433q-35.90694,24.50079-71.72628,49.133c-.7883.54014-1.43549,1.54986-2.76151.79805-1.45983-.82723-.9343-2.01944-.79074-3.09485q7.18238-54.24,14.411-108.47506c2.4817-18.72231,4.89772-37.45192,7.35754-56.17911.16059-1.21652.438-2.416.81507-4.43788,4.58144,8.40619,8.793,16.08245,12.95355,23.78063q21.65409,40.05528,43.31556,80.10326A4.798,4.798,0,0,1,329.73491,177.96855Z"/></svg>