<svg id="Layer_1" data-name="Layer 1" xmlns="http://www.w3.org/2000/svg" viewBox="0 0 592.28003 163.78"><defs><style>.cls-1{fill:#fff;}</style></defs><title>onnx-horizontal-white</title><path class="cls-1" d="M151.64344,77.64211a1.433,1.433,0,0,1-1.426-.89q-11.587-21.5-23.235-42.966a1.804,1.804,0,0,1-.146-1.605,5.848,5.848,0,0,0-8.976-6.674,2.384,2.384,0,0,1-2.126.432q-22.829-4.583-45.662-9.138a1.582,1.582,0,0,1-1.443-1.257,5.857,5.857,0,0,0-11.236,3.31193q.023.07786.04805.15507a1.975,1.975,0,0,1-.307,1.959q-18.15,25.98-36.245,51.998c-.49.704-.972,1.01-1.692.748a5.846,5.846,0,0,0-6.295,5.034,5.752,5.752,0,0,0,4.78062,6.58155h0q.10938.01732.21938.03045a1.567,1.567,0,0,1,1.48,1.222q9.725,24.034,19.507,48.045a2.43,2.43,0,0,1,.116,1.65,5.865,5.865,0,0,0,9.234,6.327,2.059,2.059,0,0,1,1.575-.463c3.792.394,7.588.737,11.382,1.107q12.462,1.213,24.922,2.434,11.236,1.101,22.473,2.197a1.529,1.529,0,0,1,1.49,1.025,5.865,5.865,0,1,0,10.39-5.389,1.46,1.46,0,0,1-.02-1.686q14.851-25.732,29.654-51.491a1.587,1.587,0,0,1,1.553-.963,5.868,5.868,0,1,0,.13745-11.7352Q151.71965,77.641,151.64344,77.64211Zm-90.763-46.415q.836-3.589,1.662-7.18c.138-.606.322-.966,1.105-1.014a5.04,5.04,0,0,0,3.738-1.951,1.381,1.381,0,0,1,1.623-.489q22.955,4.605,45.916,9.177c.126.025.245.088.713.262-5.028,2.199-9.736,4.264-14.45,6.318q-21.782,9.491-43.567,18.976c-.22.096-.443.187-.666.278-.467.19-.908.632-1.448.172-.503-.427-.133-.891-.03-1.331q2.696-11.61,5.404-23.217Zm-3.297-4.021.24.16q-3.09,13.217-6.176,26.436a1.507,1.507,0,0,1-1.147,1.262,5.53,5.53,0,0,0-4.038,4.954,1.63,1.63,0,0,1-.799,1.422q-9.8,5.735-19.57,11.519a2.70535,2.70535,0,0,1-.492.11Zm-15.456,103.158a11.12289,11.12289,0,0,1-.282,1.084l-6.602-16.257q-6.061-14.927-12.142-29.846a2,2,0,0,1,.308-2.437,4.38,4.38,0,0,0,1.09-3.357,1.678,1.678,0,0,1,1.044-1.797c7.158-4.188,14.286-8.425,21.433-12.631.403-.237.805-.783,1.387-.227.527.503,1.255.736,1.121,1.79-.695,5.503-1.292,11.018-1.925,16.529l-2.758,24.007Q43.46944,118.79311,42.12744,130.36412Zm6.702,3.64a4.44708,4.44708,0,0,0-2.258-1.5c-.53-.164-.89-.381-.71-.881.57-4.974,1.123-9.814,1.68-14.653q1.68-14.59,3.365-29.18c.785-6.803,1.613-13.602,2.321-20.413.14-1.35,1.195-1.31,1.93-1.803.747-.502,1.058.247,1.43.57q24.33,21.101,48.627,42.238a2.261,2.261,0,0,1-.6,3.58l-54.199,22.359c-.646.267-1.087.343-1.587-.316Zm63.448,7.689a2.475,2.475,0,0,0-1.078.935c-.754,1.576-2.054,1.383-3.414,1.248q-16.044-1.597-32.092-3.16-12.087-1.19-24.174-2.388l-.089-.262c2.912-1.21,5.82-2.428,8.734-3.63q22.83-9.414,45.656-18.84c.86-.357,1.39-.044,2.187.234,2.27.794,2.322,2.565,2.525,4.426q1.1025,10.062,2.288,20.114c.067.57694.052,1.00594-.543,1.32294Zm-1.937-37.037c-.092.72-.426.924-.997,1.184a1.35,1.35,0,0,1-1.66-.366q-5.823-5.103-11.68-10.164-18.515-16.093-37.028-32.18806a4.049,4.049,0,0,1-.99-3.557c.25-.52.873-.567,1.342-.772q23.683-10.337,47.377-20.647c2.913-1.269,5.837-2.512,8.732-3.82.818-.37,1.455-.567,2.087.306a2.7329,2.7329,0,0,0,1.177.813c.552.223.782.525.656.891-.56,4.275-1.092,8.34-1.627,12.402q-1.834,13.91-3.674,27.818c-1.241,9.367-2.504,18.73-3.715,28.101Zm6.387,35.782c-.336-2.757-.632-5.09-.903-7.426-.55-4.742-1.073-9.487-1.639-14.228-.157-1.316-.267-2.39,1.118-3.356a5.016,5.016,0,0,0,1.869-4.911c-.06-.54-.047-.88.441-1.212q13.753-9.385,27.486-18.797a2.86356,2.86356,0,0,1,.428-.102l-28.8,50.032Zm29.874-59.712a4.266,4.266,0,0,0-.697,3.316,1.535,1.535,0,0,1-.805,1.765q-14.758,10.07-29.48,20.194c-.324.222-.59.637-1.135.328-.6-.34-.384-.83-.325-1.272q2.952-22.293,5.923-44.584c1.02-7.695,2.013-15.393,3.024-23.09.066-.5.18-.993.335-1.824,1.883,3.455,3.614,6.61,5.324,9.774q8.9,16.463,17.803,32.923a1.972,1.972,0,0,1,.033,2.46994Zm342.215-45.41a7.766,7.766,0,0,0-3.298-.181c-2.57.469-3.29,1.274-3.29,3.851l-.001,75.054v2.028c-.473-.677-.692-.979-.9-1.288q-22.866-34.138-45.742-68.269a78.24684,78.24684,0,0,0-6.073-8.624,7.213,7.213,0,0,0-4.736-2.809c-2.297-.195-4.904.48-4.9,3.082q.081,45.35.03,90.702a2.7709,2.7709,0,0,0,.472,1.775c1.025,1.355,3.868,1.923,6.065,1.204,1.848-.604,2.355-1.413,2.355-3.771v-77.081c.42.601.58.827.736,1.057q24.21,35.849,48.428,71.692a41.06757,41.06757,0,0,0,4.918,6.602,5.557,5.557,0,0,0,5.968,1.48,2.736,2.736,0,0,0,2.264-3.069q.004-45.206,0-90.412a2.656,2.656,0,0,0-2.24091-3.01448h0l-.05508-.00752Zm-98.866.013a7.68092,7.68092,0,0,0-3.439-.173c-2.467.493-3.169,1.288-3.169,3.8v77.134c-.463-.66-.703-.99-.93-1.329l-47.754-71.288a44.47791,44.47791,0,0,0-4.07-5.62,7.946,7.946,0,0,0-4.471-2.749c-3.363-.59-5.091.792-5.091,4.124v56.078q0,16.665-.004,33.33a2.98513,2.98513,0,0,0,.492,2.051c1.076,1.325,3.917,1.868,6.092,1.137,1.814-.61,2.254-1.354,2.254-3.824q0-37.53.008-75.062a3.109,3.109,0,0,1,.122-1.552c.486.17.605.625.832.96q25.205,37.277,50.393,74.567a19.40874,19.40874,0,0,0,3.253,3.865,5.448,5.448,0,0,0,5.554,1.026,2.799,2.799,0,0,0,2.172-2.994q-.036-45.283-.02-90.567a2.547,2.547,0,0,0-2.13388-2.90189q-.045-.00688-.09012-.01213Zm-95.451,47.92c0-7.29.11-14.582-.026-21.869-.207-11.096-5.981-19.356-16.426-23.2-11.205-4.124-22.724-4.207-34.167-1.275-13.575,3.478-20.193,12.408-20.193,26.4v42.594c.002,11.57,5.902,20.283,16.805,24.113,11.244,3.95,22.74,3.944,34.185.93,11.592-3.052,19.621-11.047,19.818-24.953.107-7.578.019-15.16.019-22.74Zm-8.834.81v20.287c0,11.84-5.27,18.632-16.802,21.148a43.02717,43.02717,0,0,1-22.868-.881c-8.6-2.816-13.348-9.299-13.397-18.352q-.123-22.244-.002-44.488c.049-9.394,5.255-16.202,14.331-18.68a42.963,42.963,0,0,1,25.918.573c8.254,2.875,12.77,9.472,12.812,18.22.036,7.391.008,14.782.008,22.172Zm295.09,42.172q-14.463-20.787-28.95-41.557a1.638,1.638,0,0,1-.033-2.244q14.193-20.444,28.303-40.946a19.38033,19.38033,0,0,0,1.538-2.44,2.37012,2.37012,0,0,0-1.132-3.41,5.516,5.516,0,0,0-7.075,1.23,35.3926,35.3926,0,0,0-2.443,3.23q-8.94708,13.076-17.864,26.172c-2.43,3.558-4.866,7.11-7.358,10.753-.273-.358-.457-.576-.616-.81l-19.895-29.339c-2.167-3.19-4.34-6.379-6.576-9.523a5.307,5.307,0,0,0-6.084-2.22c-3.027.764-3.7,2.5-1.923,5.09q14.532,21.175,29.088,42.335a1.442,1.442,0,0,1-.03,1.987q-8.232,11.809-16.391,23.67l-12.84,18.564c-1.581,2.3-1.091,3.874,1.47,4.987,2.79,1.212,4.789.484,6.837-2.513q10.53313-15.41,21.06-30.823c1.924-2.815,3.862-5.62,5.834-8.488.229.262.366.392.471.544q13.209,19.189,26.408,38.384a12.08051,12.08051,0,0,0,2.035,2.437,5.18,5.18,0,0,0,6.524-.393c1.415-1.287,1.352-2.218-.359-4.677Z"/></svg>