<svg id="Layer_1" data-name="Layer 1" xmlns="http://www.w3.org/2000/svg" viewBox="0 0 709.9819 232.69192"><defs><style>.cls-1{fill:#ab1a2f;}.cls-2{fill:#fcfafb;}.cls-3{fill:#020101;}.cls-4{fill:#a8182e;}.cls-5{fill:#3bcccc;}</style></defs><path d="M308.21991,103.77938l24.75683,37.06445h-13.21l-19.48242-29.79394-7.27051,8.07812v21.71582H282.22772V75.981h10.78613v30.0791h.47559L319.71893,75.981H331.8371Z"/><path d="M373.31952,92.46981a19.31037,19.31037,0,0,1,7.86426,7.79346,24.56426,24.56426,0,0,1,2.82714,12.11719v6.50976a25.21832,25.21832,0,0,1-2.82714,12.37842,18.963,18.963,0,0,1-7.86426,7.76953,26.74329,26.74329,0,0,1-23.25977,0,19.1759,19.1759,0,0,1-7.86426-7.74561,24.9043,24.9043,0,0,1-2.85156-12.355v-6.50976a24.08585,24.08585,0,0,1,2.85156-11.97461,20.05611,20.05611,0,0,1,7.91114-7.88818,23.58123,23.58123,0,0,1,11.61816-2.80372A24.10332,24.10332,0,0,1,373.31952,92.46981ZM355.3576,100.192a12.10741,12.10741,0,0,0-3.99121,5.22705,19.40717,19.40717,0,0,0-1.37793,7.53125v5.60742a20.32722,20.32722,0,0,0,1.30664,7.53174,11.39883,11.39883,0,0,0,3.94434,5.20312,10.87714,10.87714,0,0,0,6.5332,1.90088,10.56234,10.56234,0,0,0,6.46289-1.90088,11.60772,11.60772,0,0,0,3.87207-5.20312,20.34668,20.34668,0,0,0,1.30762-7.53174v-5.60742a19.722,19.722,0,0,0-1.35449-7.53125,12.02465,12.02465,0,0,0-3.94434-5.22705,10.33751,10.33751,0,0,0-6.34375-1.92481A10.51743,10.51743,0,0,0,355.3576,100.192Z"/><path d="M397.55389,90.61678h10.35938v8.17334h.52246a15.41331,15.41331,0,0,1,2.06738-3.92041,11.745,11.745,0,0,1,4.22852-3.54,15.83091,15.83091,0,0,1,7.38965-1.47314,16.45741,16.45741,0,0,1,6.6289,1.23535,12.51043,12.51043,0,0,1,4.63281,3.374,13.41431,13.41431,0,0,1,2.61329,4.79932h.42773a15.27687,15.27687,0,0,1,2.89844-4.53809,14.53836,14.53836,0,0,1,5.01367-3.51611,18.07349,18.07349,0,0,1,7.3418-1.35449q7.69775,0,12.02148,4.18164,4.32421,4.18214,4.32422,11.59424v35.21142h-10.501V108.76864a11.95809,11.95809,0,0,0-1.14062-5.44043,7.97448,7.97448,0,0,0-3.25489-3.44531,10.392,10.392,0,0,0-5.15625-1.188,9.7685,9.7685,0,0,0-5.084,1.35449,9.66655,9.66655,0,0,0-3.61133,3.8252,12.04335,12.04335,0,0,0-1.33105,5.79736v31.17187H427.68085v-31.79a11.68216,11.68216,0,0,0-1.23536-5.583,8.73207,8.73207,0,0,0-3.39746-3.54053,10.03422,10.03422,0,0,0-5.06152-1.23535,9.74251,9.74251,0,0,0-5.084,1.33056,9.35955,9.35955,0,0,0-3.51661,3.75391,12.2363,12.2363,0,0,0-1.2832,5.79736v31.26709H397.55389Z"/><path d="M502.85467,140.5826a14.03941,14.03941,0,0,1-4.89453-2.80371,12.58724,12.58724,0,0,1-3.18359-4.49072h-.52246V157.523H483.70526V90.61678h10.26367v7.98291h.52246a11.72517,11.72517,0,0,1,2.18653-3.61132,13.83992,13.83992,0,0,1,3.34961-2.75586,15.51072,15.51072,0,0,1,4.27636-1.71094,21.45608,21.45608,0,0,1,5.06153-.56983A18.74721,18.74721,0,0,1,519.48651,92.589a17.13316,17.13316,0,0,1,6.50977,7.55518,27.64521,27.64521,0,0,1,2.28125,11.71338v7.7456a27.39939,27.39939,0,0,1-2.30469,11.71338,17.28539,17.28539,0,0,1-6.60547,7.5791,19.06987,19.06987,0,0,1-10.24024,2.66113A19.31489,19.31489,0,0,1,502.85467,140.5826Zm9.48047-9.40869a10.91762,10.91762,0,0,0,3.89649-5.01318,20.78588,20.78588,0,0,0,1.35449-7.93555V113.378a21.11622,21.11622,0,0,0-1.35449-8.00683,10.73691,10.73691,0,0,0-3.96778-5.03662,11.17419,11.17419,0,0,0-6.32031-1.73487,11.47,11.47,0,0,0-6.22461,1.63965,10.69808,10.69808,0,0,0-4.03906,4.728,17.46012,17.46012,0,0,0-1.42578,7.36523V119.983a14.68967,14.68967,0,0,0,1.49707,6.748,11.0037,11.0037,0,0,0,4.18164,4.56152,11.78714,11.78714,0,0,0,6.20117,1.61573A10.741,10.741,0,0,0,512.33514,131.17391Z"/><path d="M584.34881,140.84383H573.99042v-8.36328h-.57032a12.06965,12.06965,0,0,1-2.49511,4.13428,14.84186,14.84186,0,0,1-4.87012,3.54,17.27109,17.27109,0,0,1-7.46094,1.44922,21.79847,21.79847,0,0,1-8.8623-1.687,12.847,12.847,0,0,1-5.98731-5.32178,18.48878,18.48878,0,0,1-2.16211-9.52783V90.61678H552.132v31.69483a11.81767,11.81767,0,0,0,1.40136,6.24853,7.70369,7.70369,0,0,0,3.65918,3.18408,12.82179,12.82179,0,0,0,4.918.92627,12.01921,12.01921,0,0,0,5.96387-1.47314,11.24892,11.24892,0,0,0,4.18164-3.99121A10.602,10.602,0,0,0,573.8,121.55135V90.61678h10.54882Z"/><path d="M603.54608,78.40438H613.8576V90.9493h11.21485v8.26856H613.8576v26.65771q0,4.08691,1.73438,5.53565,1.73438,1.45019,5.96387,1.4497,1.09277,0,2.30468-.07129,1.21143-.07177,1.8291-.11914v8.07813q-.61815.09594-2.77929.26172-2.16357.16552-3.96778.166a23.78629,23.78629,0,0,1-9.48046-1.5205,8.74667,8.74667,0,0,1-4.72754-4.728,21.567,21.567,0,0,1-1.33106-8.19678V99.21786h-7.65039V90.9493h7.793Z"/><path d="M646.217,139.01424a18.51355,18.51355,0,0,1-7.69727-7.7456,25.40042,25.40042,0,0,1-2.709-12.14063V112.3326a24.325,24.325,0,0,1,2.85156-12.16455,19.66863,19.66863,0,0,1,7.72168-7.72168,22.40465,22.40465,0,0,1,11-2.68506,21.91957,21.91957,0,0,1,11.14356,2.77979,19.79409,19.79409,0,0,1,7.5791,7.81689,24.59534,24.59534,0,0,1,2.75586,11.97461v5.89258H646.26483v2.4707a13.30361,13.30361,0,0,0,3.06543,8.95752q3.06446,3.58813,8.624,3.58741a14.16316,14.16316,0,0,0,4.89453-.78418,9.31968,9.31968,0,0,0,3.44532-2.09082,6.07292,6.07292,0,0,0,1.68652-2.87451h10.31152a13.08864,13.08864,0,0,1-1.54394,4.65673,16.57945,16.57945,0,0,1-3.75391,4.63282,19.3418,19.3418,0,0,1-6.17773,3.54052,25.45359,25.45359,0,0,1-8.81446,1.37793A24.51807,24.51807,0,0,1,646.217,139.01424Zm22.334-27.67919v-.66553a14.98109,14.98109,0,0,0-1.37793-6.62891A10.4853,10.4853,0,0,0,663.3,99.6451a10.79453,10.79453,0,0,0-5.86817-1.56787,10.91488,10.91488,0,0,0-5.89258,1.56787,10.42519,10.42519,0,0,0-3.89648,4.39551,14.96755,14.96755,0,0,0-1.37793,6.62891v.66553Z"/><path class="cls-1" d="M35.394,9.59721c1.50811-.03326,3.01621-.09536,4.52432-.09556Q99.6745,9.4937,159.43068,9.48244a72.71668,72.71668,0,0,1,8.061.35931,13.04514,13.04514,0,0,1,7.89959,4.076,3.87534,3.87534,0,0,0,3.12748,1.27435c2.42978-.07908,4.8639-.02686,7.29621-.02339.74825.00107,1.39164.01081,1.56592-1.02274.52919-3.13835,3.08293-4.62339,6.1932-4.6151q8.874.02367,17.74808.04105c2.68968.43149,4.20778,2.15266,5.17192,4.57758q8.52926,21.452,17.1083,42.88412a14.615,14.615,0,0,1,1.05449,5.562q-.05121,48.98612-.02374,97.9723c-.00012,5.02695-1.70089,6.72006-6.75709,6.72108q-17.25345.00345-34.50689-.00581c-3.35239-.00281-4.73445-.95105-5.83571-4.16489a1.57772,1.57772,0,0,0-1.81777-1.30381,34.23475,34.23475,0,0,1-4.33564-.002c-3.04788-.23087-5.6083.22563-7.92223,2.72251-1.86625,2.01381-4.76929,2.74052-7.61021,2.74176q-64.873.0284-129.74592.002c-7.63878-.00459-13.90447-6.75767-13.95229-14.98781-.057-9.81008-.01512-19.62073-.01512-29.43114q0-48.98616.00583-97.97234c.00271-7.32773,4.18726-12.94838,10.96365-14.81225C33.85424,9.86875,34.63,9.75431,35.394,9.59721Zm65.57185,146.87256q31.84055,0,63.68111-.00446c3.01849-.0012,4.19536-1.1582,4.23349-4.136.03119-2.4354.00664-4.87152.00666-7.30732q.00069-59.94055-.00049-119.88113c-.00021-3.473-1.17411-4.83079-4.20931-4.83119q-63.58256-.00822-127.16508.00011c-3.24824.00049-4.53325,1.29411-4.53354,4.523q-.00588,63.59411.00085,127.18819c.00041,3.37555,1.09132,4.44329,4.50236,4.444Q69.22387,156.47115,100.96584,156.46977Z"/><path class="cls-1" d="M103.83339,211.77652q34.02035-.00141,68.0407-.00109c2.729,0,2.72944-.00106,2.72936-2.82413-.00027-8.69276.05712-17.3862-.04589-26.07775-.02311-1.95074.60187-2.37812,2.452-2.36872,14.79112.07512,29.58283.0282,44.37423.06874,1.58494.00434,2.63635-.08655,3.06186-2.05912.50416-2.33716,3.2444-3.824,5.52374-3.47362a5.046,5.046,0,0,1,4.65083,5.22842c.03289,9.68045.07524,19.36181-.036,29.04108-.02352,2.046.568,2.602,2.55164,2.5115,3.477-.15847,6.96992-.13934,10.44956-.01237,3.044.11108,4.36339.904,3.98823,3.91432a24.6,24.6,0,0,0-.01972,2.96107c-.00672,2.76714-.79318,3.58408-3.6454,3.60969-4.20705.03775-8.4146.02065-12.62194.0207q-102.04087.00111-204.08176-.029c-1.50121-.00074-2.97264.43857-4.49834.1006a5.35132,5.35132,0,0,1-4.56072-5.37251q-.03847-18.07689.00862-36.15387a5.56237,5.56237,0,0,1,5.175-5.8659c3.07994-.12425,5.34991,2.1163,5.61774,5.63123.09481,1.24432.02952,2.50124.02952,3.75241q0,12.34767-.00388,24.69533c-.00069,2.70448-.00192,2.704,2.62248,2.704Q69.71432,211.77735,103.83339,211.77652Z"/><path class="cls-2" d="M100.96584,156.46839q-31.742-.00207-63.48395-.00348c-3.411-.00066-4.502-1.0684-4.50236-4.444q-.00768-63.59411-.00085-127.18819c.00029-3.22885,1.2853-4.52247,4.53354-4.523q63.58254-.00945,127.16508-.00011c3.0352.0004,4.2091,1.3582,4.20931,4.83119q.00363,59.94057.00049,119.88113c0,2.4358.02453,4.87192-.00666,7.30732-.03813,2.97777-1.215,4.13477-4.23349,4.136Q132.80639,156.47792,100.96584,156.46839ZM159.45437,132.634c.0468-.71883.13383-1.43764.13442-2.15651q.01479-17.97393.01018-35.94784.00091-25.88107-.00654-51.76216c-.00034-.71842-.092-1.43679-.14105-2.15519.03578-2.76081-.03446-5.52854.14423-8.28.121-1.86364-.40549-2.451-2.35206-2.448q-56.10828.08769-112.2168.0456c-2.66636.00012-2.66953.00487-2.66958,2.65129q-.00111,54.13155-.00006,108.26311c0,2.55655.00324,2.5589,2.557,2.559q55.02373.00207,110.04748.003c1.05182,0,2.10515-.03419,3.155.01119.95553.04133,1.47686-.23032,1.4527-1.31471C159.499,138.94722,159.4884,135.79037,159.45437,132.634Z"/><path class="cls-3" d="M159.59241,42.76754c-.00033-.71842-.09194-1.4368-.141-2.15521q-48.4121-.00381-96.82419-.0072a9.28261,9.28261,0,0,0-9.43176,9.3216q-.05622,36.64409.017,73.28826c.01131,5.59513,4.16245,9.35718,10.20935,9.39123,8.21639.04629,16.43328.01364,24.64992.015q35.69148.006,71.38279.01245c.04672-.71846.13375-1.43726.13434-2.15614q.01474-17.97394.01017-35.94784Q159.59987,68.64859,159.59241,42.76754Z"/><path class="cls-4" d="M159.45138,40.61233q-48.4121-.00381-96.82421-.00722a9.28262,9.28262,0,0,0-9.43173,9.32163q-.05625,36.64406.017,73.28824c.01133,5.59516,4.16245,9.35719,10.20935,9.39124,8.21642.04629,16.43328.01362,24.65.015q35.69142.006,71.38277.01246c.03393,3.1567.04456,6.31355.11488,9.46909.02416,1.08439-.49717,1.356-1.4527,1.31471-1.04987-.04538-2.1032-.01116-3.155-.01119q-55.02374-.00135-110.04748-.003c-2.5538-.0001-2.557-.00245-2.557-2.559q-.001-54.13155.00006-108.26311c0-2.64642.00322-2.65117,2.66958-2.65129q56.10844-.00267,112.2168-.0456c1.94657-.003,2.47308.58434,2.35206,2.448C159.41692,35.08379,159.48716,37.85152,159.45138,40.61233Z"/><rect class="cls-5" x="137.35348" y="51.64754" width="11.34794" height="11.34794"/><rect class="cls-5" x="89.80994" y="51.64754" width="36.72255" height="11.34794"/><rect class="cls-5" x="89.80994" y="69.91588" width="11.34794" height="11.34794"/><rect class="cls-5" x="111.97887" y="69.91588" width="36.72255" height="11.34794"/><rect class="cls-3" x="135.72532" y="191.22355" width="11.34794" height="11.34794"/><rect class="cls-3" x="46.05266" y="191.22355" width="78.8578" height="11.34794"/></svg>