<svg id="Layer_1" data-name="Layer 1" xmlns="http://www.w3.org/2000/svg" viewBox="0 0 1000 1000"><defs><style>.cls-1{fill:#fff;}</style></defs><path class="cls-1" d="M353.99805,375.38965Q339.313,439.05322,324.584,502.70557c-.832,3.56836.11914,4.31933,3.52051,4.29687q27.0249-.17871,54.04981.02735c3.94726.03613,4.40039-1.25,3.56933-4.77881-5.84863-24.876-11.498-49.79834-17.23828-74.70069q-6.34276-27.51269-12.77246-55.10937C354.28418,373.21045,354.2334,374.36475,353.99805,375.38965Z"/><path class="cls-1" d="M606.74609,507.01465c17.62989-.12012,35.26465-.19483,52.89356.03662,4.49707.05908,5.3789-.99219,4.332-5.41748-7.48828-31.65332-14.72266-63.36768-22.03906-95.061q-3.92286-16.9995-7.85157-33.998-.56835.0542-1.13671.10547-14.93556,64.86621-29.95215,129.71289C602.09375,506.24854,603.14844,507.03906,606.74609,507.01465Z"/><path class="cls-1" d="M125.40137,521.26123c0,205.84668,166.87207,372.71826,372.71875,372.71826S870.83789,727.10791,870.83789,521.26123c0-205.84619-166.87109-372.71826-372.71777-372.71826S125.40137,315.415,125.40137,521.26123Zm400.9834-177.91894c1.4082,2.80273,2.92675,3.85791,6.07714,3.85009q62.165-.15527,124.33106-.01953a7.68763,7.68763,0,0,0,6.79-3.22168,25.06444,25.06444,0,0,1,36.45019-2.42383c9.21875,8.8125,8.93555,24.89258-.59961,33.99854-10.5039,10.03027-26.70019,9.23779-35.76367-2.34717-3.1582-4.0376-6.76172-3.33594-10.56543-3.35889-11.63183-.07324-11.58691-.03857-8.93847,11.42627,9.23828,39.97315,18.52832,79.93457,27.54687,119.95752,1.0459,4.64209,2.93262,5.9419,7.51856,5.85791,15.31152-.28125,30.63085-.10547,45.94628-.10693,8.00684-.002,8.04981.01807,4.40137,7.50488-10.61719,21.78565-27.47168,36.98194-50.13281,45.04541-35.16016,12.51319-70.08106,11.71192-103.77344-5.21338-18.10644-9.0957-31.17578-23.49023-39.78125-41.91259-1.81348-3.88379-2.01562-5.62305,3.32129-5.52881,16.3916.28857,32.79492-.03467,49.18848.20361,3.91113.05664,5.24218-1.354,6.06152-4.93506q14.46095-63.15747,29.22168-126.248c.87988-3.76319.74023-5.37061-3.93164-5.3379-29.18652.2002-58.37793.12256-87.56543.0503-2.57324-.00586-4.33105.43213-5.52637,3.0542-3.13183,6.86767-7.748,12.59619-14.42285,16.32715-2.85351,1.59472-1.85644,4.05859-1.85937,6.19287q-.09375,70.81567-.04786,141.63037h-.02246q0,70.5454-.085,141.08886c-.01172,4.04444,1.04395,5.88038,5.12207,7.21192,33.53321,10.9541,66.94532,22.27783,100.459,33.29443,3.80664,1.251,5.73144,2.74707,5.31543,7.05323l-253.39063,4.93847c.00391-10.17822.002-10.18262,9.78418-13.46045,31.917-10.69629,63.81445-21.45263,95.78125-31.99511,3.53516-1.16553,4.67383-2.709,4.66895-6.43995q-.16846-141.63062-.04492-283.25976c.001-2.99658-.68848-4.94092-3.49415-6.53613a30.83928,30.83928,0,0,1-12.873-14.87256c-1.17578-2.67188-2.56446-3.78858-5.60059-3.77832q-44.05518.15966-88.1123-.01368c-3.76856-.01464-4.457.92481-3.583,4.66016Q379.187,439.55615,393.70215,503.5293c.87207,3.84521,2.52051,4.773,6.209,4.72851,16.03516-.19092,32.07325-.09424,48.11133-.07959,6.48438.00586,6.5918.10889,3.83008,6.21192-9.085,20.07031-23.80566,35.0415-43.84668,43.54638-38.64746,16.40039-77.22559,15.85254-114.38086-4.85009-16.31445-9.09034-27.93359-22.998-35.7168-40.07081-1.752-3.84326-1.01074-4.94384,3.20606-4.90429,16.57617.15527,33.15625-.03516,49.73144.13965,3.499.03711,5.03321-.94776,5.83887-4.48584q14.63379-64.229,29.60645-128.38037c.77636-3.32764.31445-4.69629-3.30274-4.34327a31.09469,31.09469,0,0,1-5.93848.00684c-5.63964-.53613-9.77929.90869-13.95214,5.55908-9.07032,10.11084-25.32813,9.375-34.709-.56982-9.16211-9.71338-8.42578-26.03565,1.5791-34.9834,10.252-9.16846,26.1211-8.29248,34.69922,2.311a9.22955,9.22955,0,0,0,8.14844,3.81934q61.35351-.14136,122.709.00879c3.43946.0083,5.36231-.80811,7.03516-4.123,6.56348-13.00635,17.26855-20.12744,31.98535-20.05469C509.25391,323.08838,519.84277,330.32959,526.38477,343.34229Z"/><path class="cls-1" d="M715.93457,107.96826c-10.76855-5.52637-22.21094-9.73974-33.33984-14.56494q-.69728,1.54541-1.39356,3.09082c16.69238,8.98242,33.9961,16.99707,49.98242,27.09668C893.12891,225.90039,972.49414,373.23047,953.915,563.87207c-25.38477,260.47852-257.251,425.9668-490.89844,403.59863C236.21191,945.75732,62.59375,757.26562,56.58105,533.87451,50.19336,296.54,233.53125,93.80225,469.48145,78.35107c14.99316-.98193,24.46972.80469,21.5332,19.26075-1.68067,10.56347,4.56347,11.6333,12.6914,7.82617Q538.27929,89.24414,572.792,72.92432c8.59961-4.07325,9.76074-9.40674,1.6377-15.14649q-31.169-22.02319-62.59082-43.68506c-7.54883-5.22509-13.94727-4.189-13.998,5.877-.09863,19.5166-12.61914,20.30713-27.42187,21.84082C282.2373,61.31006,145.09473,155.51807,67.5,328.19238-45.48926,579.6333,88.44434,878.25879,349.98047,965.58057c241.832,80.74365,504.68262-45.73975,591.33887-284.55274C1020.99805,461.44873,924.043,214.77148,715.93457,107.96826Z"/></svg>