<?xml version="1.0" encoding="UTF-8"?><svg id="Layer_1" xmlns="http://www.w3.org/2000/svg" viewBox="0 0 1440 1440"><defs><style>.cls-1,.cls-2{fill:none;}.cls-3{fill:#fed45e;}.cls-2{stroke:#020101;stroke-linecap:round;stroke-linejoin:round;}.cls-4{fill:#020101;}</style></defs><path class="cls-1" d="M908.41883,1207.52713c9.28417-5.13544,18.46763-10.4323,27.53622-15.90301-9.51975,4.55784-18.51799,10.24451-27.53622,15.90301Z"/><path class="cls-1" d="M938.74728,1190.63984c.01316-.11158.02944-.22315.04242-.33473-.23961.10759-.47547.22329-.71435.33239.25878-.03123.47615-.02431.67193.00234Z"/><path class="cls-1" d="M918.74969,1263.62603c1.98657-4.38468,3.83464-8.83636,5.54354-13.34499-1.99423,4.71739-4.05408,9.24207-6.0977,13.45166.18472-.03554.36944-.07113.55416-.10667Z"/><path class="cls-1" d="M1175.70874,1132.94036c.28955-.4269.58796-.84991.88215-1.27479l-1.01995,1.25892c.04673.00321.08906.01825.13781.01587Z"/><path class="cls-1" d="M664.26276,1319.48377c.01568.2685.05471.56558.12708.90416,13.03595.30767,26.06382.7475,39.0861,1.3278-4.44792-.41351-8.86869-.75126-13.24901-.97886-8.32572-.43254-17.37917-.89526-25.96417-1.2531Z"/><path class="cls-1" d="M1175.14151,1132.80806c-.23283-1.9336-.85559-3.46438-1.73109-4.74339.22544,1.92888.6423,4.20014,1.73109,4.74339Z"/><path class="cls-1" d="M870.11839,1149.56767c-29.90851-1.47299-60.39815,2.61443-89.87691,6.67511-2.17056,11.31848-2.59691,22.78994-5.16607,34.07077-5.58068,24.50388-18.93553,46.32675-35.47929,64.86092.58741-.14835,1.17679-.31409,1.76493-.46882,16.17546-18.33992,29.19458-39.85158,34.68533-63.96112,2.5693-11.28078,2.99561-22.75229,5.16607-34.07068,29.47899-4.06082,59.96845-8.14815,89.87691-6.6752,9.91317.48822,34.21179,2.36449,43.00839,5.15066-.34032-.18559-.63868-.3261-.8693-.4003-8.7135-2.80323-33.16038-4.69134-43.11006-5.18134Z"/><path class="cls-1" d="M254.53034,1120.51255c-3.58572-4.07839-7.07899-8.24743-10.42166-12.55553-8.72322-11.24226-16.71279-23.14306-24.45353-35.06128-1.93544-2.97956-3.85519-5.95985-5.76696-8.9317v-.00018c-51.46407-79.99346-85.59349-173.36639-95.07376-268.62102-.05503-.55233-.23315-1.1296-.49601-1.72393,11.51127,110.84708,52.49856,218.44495,121.165,308.99407,2.08108,2.7443,23.07354,30.06911,24.7252,28.82642.03265-.15211.06861-.30354.10135-.45566-.9679-.98762-1.91801-1.99368-2.87903-2.98859-2.3556-2.43869-4.65736-4.93077-6.9006-7.4826Z"/><path class="cls-1" d="M276.16078,904.98484c11.62197,10.98958,23.90881,21.20863,36.76064,30.53646-12.98949-9.4987-25.24542-19.70574-36.76064-30.53646Z"/><path class="cls-1" d="M339.88307,1320.51248c1.31836-3.02532,24.90496-24.75936,29.48262-29.38838,27.82802-28.14,54.06116-54.46981,77.51652-86.97633,33.12089-45.90177,87.85545-133.23819,83.64843-199.71752-.32088-.09511-.63983-.19343-.96047-.289,4.127,66.45732-50.54478,153.68285-83.65907,199.57554-23.45527,32.50647-49.68831,58.83633-77.51643,86.97637-4.57756,4.62892-28.16426,26.36292-29.48271,29.38829-.80382,1.84436.60094,1.94213,1.50069,2.96947.12932-.03361.25956-.06379.38898-.09727-.79345-.60837-1.56077-.9679-.91856-2.44117Z"/><path class="cls-1" d="M1230.67489,1056.99732c1.01381-1.62745,2.01532-3.25975,3.01262-4.8939-.87568,1.42851-1.7592,2.86381-2.66047,4.31516-.119.19169-.23351.38678-.35215.57874Z"/><path class="cls-1" d="M1280.54801,596.9351c-.21187,2.24022-.44447,4.47557-.69353,6.70689-.04054,3.94599-.12304,7.89088-.25599,11.83329.53545-3.22527.89324-6.45035.93085-9.67461.03439-2.95635.03522-5.91142.01866-8.86557Z"/><path class="cls-1" d="M1269.13034,702.04438c-1.74141,8.2018-3.6895,16.3007-5.83942,24.27257,2.44654-6.91518,4.54074-13.8798,6.06592-20.88523.24558-1.12804.10607-2.25718-.2265-3.38733Z"/><path class="cls-1" d="M1211.36542,981.05982c-3.55371,4.1807-7.0661,8.39496-10.48609,12.68435,3.42022-4.28938,6.93238-8.50365,10.48609-12.68435Z"/><path class="cls-1" d="M1262.71832,914.56232c3.44007-4.96746,7.05799-9.80559,10.61193-14.69774-3.55394,4.89215-7.17208,9.73029-10.61193,14.69774Z"/><path class="cls-4" d="M1132.21058,647.47254c-9.68333,2.90682-19.99433,9.78926-30.93475,9.80348,8.14003-12.70572,15.34752-29.72402,18.07733-44.53531,5.8191-31.57352,1.7525-61.75704-12.07286-90.54646-41.71704-86.86993-157.63159-106.75636-224.85715-36.21877-17.20816,18.05619-31.38095,44.89604-36.21854,69.41918-4.39922,22.29999-4.41128,52.29081,3.01822,73.9462,6.13526,17.88284,23.73978,43.8721,37.72767,57.34632,55.03516,53.01346,139.80282,47.69885,200.71143,7.54556,17.47887-11.52292,32.83794-29.02017,46.76975-44.53907.46148-2.06476-.11038-2.85473-2.22109-2.22114ZM934.87186,492.40951c59.02582-7.6958,66.51428,84.775,8.63962,88.64165-55.45238,3.70468-63.35592-81.50772-8.63962-88.64165ZM892.98716,670.10207c11.40804,3.339,20.69895,11.23318,31.74384,15.77772,71.32903,29.34669,151.90595-8.75055,168.55036-84.87415l3.41797-19.94705c20.06119,118.37365-128.1221,172.30613-203.71217,89.04347Z"/><path class="cls-3" d="M1192.54485,469.37533v1.50904c.98001-.50298.98001-1.00596,0-1.50904Z"/><path class="cls-4" d="M823.17488,1052.27457c-2.39178-2.54151-13.6567-4.60609-17.6955-5.68616-20.98511-5.61242-42.11629-10.7468-63.31323-15.66656-55.84439-12.96124-112.15989-24.38364-167.5732-38.76725-12.764-.98065-14.8848,16.4557-3.40815,20.10746l51.70331,12.29225,189.79064,45.12194c10.47646,3.37229,16.76218-10.74221,10.49613-17.40169Z"/><path class="cls-4" d="M670.85294,965.48498c-25.65114-5.81667-63.50886-18.51551-88.17261-20.55569-4.0218-.33294-12.58203-.05118-14.15161,4.34249-1.6662,4.66442,1.02229,14.12038,7.18217,14.70013l242.78814,56.15362c13.61198.88728,15.63198-15.77846,3.59035-20.32915-48.59136-9.97637-96.58848-22.95256-144.90496-33.92444-1.63942-.37228-4.0971.11951-6.33149-.38696Z"/><path class="cls-4" d="M536.83208,1141.68862l170.01474,39.88658c13.00761.99624,15.79543-16.49725,3.24412-19.97993l-168.36592-39.90451c-2.77016-.62428-5.54643-.68967-8.32764-.06815-11.39992,2.5494-8.45421,19.67043,3.43471,20.06601Z"/><path class="cls-4" d="M726.19274,1112.29309l-167.87371-38.90923c-2.26122-.51857-4.54353-.76099-6.81457-.08511-9.39368,2.79594-9.47802,17.58659.69256,19.82442l166.65574,38.59926c15.37334,3.60214,22.69217-13.19269,7.33997-19.42934Z"/><path class="cls-4" d="M719.81214,925.51521c-13.52935-1.64533-18.99809,9.43257-9.01186,18.05839l81.07624,19.28017c14.01765-.12896,34.67405,9.76431,45.96309,8.99361,7.1802-.49005,11.5558-8.31508,9.8741-15.03013-1.90471-.43364-9.10995-5.20785-15.0753-6.80668-31.26076-8.37873-81.47654-20.68272-112.82626-24.49535Z"/><path class="cls-4" d="M516.40383,1189.28081c33.01936,12.91369,77.73251,16.23742,111.94779,28.53769,9.95156,2.12117,14.98633-11.51196,9.20291-17.65125-1.25026-1.32707-5.94746-2.61488-8.00456-3.30795-33.63011-11.33109-73.03604-16.25365-107.23655-27.12941-14.6805-2.54935-20.64392,13.78836-5.90958,19.55092Z"/><path class="cls-4" d="M331.59872,514.64878c-11.76964,20.56523-18.76352,50.38317-18.1092,73.9462.56122,20.2156,4.76036,38.75367,12.87943,57.29367.96231,2.19702,7.3425,13.02361,6.72982,13.62822l-33.15951-9.81935,12.03837,16.61942,21.13021,20.37024c5.59068.99468,18.23467,11.69471,24.6421,15.34922,27.18976,15.50615,71.57887,27.1738,102.86118,25.38144,8.09229-.46373,24.60349-5.55308,30.95323-4.51217,16.94631-7.88969,34.43595-15.14065,49.00093-27.20883,9.17805-7.60481,24.94032-24.61211,30.98166-34.66442,11.31632-18.8302,18.77237-46.10085,19.61838-67.91014.96478-24.8703-3.56132-51.72482-15.09103-73.9462-49.84432-96.06459-190.57868-98.70185-244.47557-4.5273ZM405.15576,493.88517c67.34167-10.75166,70.07093,96.73248-.2326,87.03273-44.31821-6.11457-45.80717-79.68217.2326-87.03273ZM541.22244,672.20828c-6.26531,6.12402-15.24672,13.33417-22.62178,18.12406-81.80728,53.12948-192.81633-2.65533-180.95057-103.23933,2.17299-.35357,2.10512,2.65781,2.54279,4.21115,2.01459,7.15365,2.80768,14.96914,5.08045,22.09866,22.07876,69.26078,101.24098,100.70599,166.92429,72.03562,4.93095.09667,30.86362-19.66786,32.17753-18.36234,1.64088,1.63057-2.19899,4.19996-3.15272,5.13218Z"/><path class="cls-4" d="M791.1862,748.11588c-.37728.17848-.75493.37247-1.13263.58232-.37774.20985-.75553.43557-1.13332.67761-.55742.35706-1.09342.79914-1.60507,1.31139-.17055.17069-.33839.34917-.50344.53499-.22003.24764-.43511.50812-.64492.78015-.3671.47602-.71632.99019-1.04994,1.52977-.25764.41668-.50491.84977-.74113,1.29699-.15716.29735-.3112.59855-.45841.90709-.10914.22884-.21549.46043-.31904.69449-.41406.93598-.7824,1.91031-1.10007,2.89811-.07943.24691-.15569.49464-.22875.74292-.21907.74457-.40902,1.49317-.56778,2.23535-.05292.24736-.10236.49399-.14831.73962-.27552,1.47318-.42365,2.90618-.42809,4.21491-.00083.24223.00445.47886.01357.71201.01633.41713.05453.81253.10323,1.19637.02215.17426.04146.35183.07071.51821.0022.01238.01.03522.01394.0509.00738.02944.01298.05567.02628.09594.00514.01559.0144.0388.02036.05595.02518.07209.05787.15821.09718.25635.06237.15555.13781.33532.23136.54774.04347.09869.08988.20261.1395.31239.19729.43639.43873.95194.71568,1.52848.22443.46721.47038.9712.73031,1.49712.34115.69018.70632,1.41796,1.07856,2.14969,1.61291,3.17051,3.35757,6.41293,3.84675,6.97755,2.04178,2.35642,5.06046,4.32396,8.4311,5.62526.48152.18582.97024.35807,1.46428.51601,2.37146.75787,4.86643,1.18371,7.28329,1.18812.00637,0,.01257-.00037.01889-.00037,1.16945.00101,2.31951-.09942,3.4293-.30597.11419-.02128.22751-.04458.34082-.06815.48941-.1019.97029-.22517,1.44062-.371,1.41099-.4375,2.72687-1.07732,3.89206-1.9469.82221-.61369,1.55852-1.28323,2.21431-2.0001.28185-.30817.54448-.62744.79666-.95258.4175-.5382.79373-1.09915,1.13217-1.67945.20884-.35816.40333-.7232.58291-1.09557.08654-.1794.17009-.36009.24998-.5426.21623-.49409.41342-.99679.58181-1.51142.39563-1.2093.66124-2.47125.80657-3.76677.04086-.3644.07218-.73136.09424-1.10062.04407-.73851.05095-1.48593.02238-2.23884-.01431-.37641-.03747-.75429-.06929-1.13299-.04242-.505-.1002-1.01174-.17289-1.51913-.2907-2.02954-.81927-4.0699-1.55297-6.05633-.27511-.74493-.57911-1.48217-.91017-2.20857-.33106-.72632-.68926-1.44163-1.07283-2.14263s-.79249-1.38751-1.22508-2.05623c-.43259-.66881-.88884-1.31964-1.36697-1.94938-.42502-.55966-.86733-1.10273-1.32579-1.62653-.45841-.5238-.93296-1.02844-1.42237-1.51152s-.99372-.94461-1.5117-1.38219c-1.29492-1.09383-2.67528-2.03807-4.12204-2.79511-.5787-.30276-1.16808-.57571-1.76681-.8162-.89815-.36082-1.81744-.64881-2.75384-.85601-.58356-.12905-1.17427-.22361-1.77011-.2879-.06223-.00679-.12428-.01449-.18665-.02054-1.89522-.18215-3.84588-.0277-5.82085.52921-.66551.18766-1.33377.42089-2.00354.70201-.25117.10548-.50257.21756-.75406.33661Z"/><path class="cls-4" d="M785.11689,753.53211c.33362-.53958.68284-1.05375,1.04994-1.52977-.3671.47602-.71636.99019-1.04994,1.52977Z"/><path class="cls-2" d="M815.99092,757.79343c.43259.66872.84151,1.35523,1.22508,2.05623"/><path class="cls-2" d="M814.62395,755.84405c.47813.62974.93438,1.28057,1.36697,1.94938"/><path class="cls-2" d="M820.92485,771.77632c.03183.3787.05499.75658.06929,1.13299"/><path class="cls-4" d="M619.83834,778.74268c.17156.50766.36724.99725.57516,1.47703.18917.4363.38756.86518.60465,1.27809.15193.28891.31042.57195.47515.84922.21962.36972.45034.72888.69123,1.0775.4657.67395.9674,1.31001,1.51005,1.89682.04618.04989.08741.10566.13409.155,1.08195,1.14152,2.30442,2.10603,3.63713,2.86766.7996.45694,1.63896.84069,2.51138,1.14593.93062.3256,1.89893.5615,2.89706.70128.49904.06989,1.00555.11566,1.51853.13657.76942.03128,1.55334.00651,2.34849-.07713.7951-.08374,1.60144-.22645,2.41554-.43089,1.19243-.29937,10.42826-4.62957,10.86369-5.04065.17399-.16427.35394-.36009.53811-.58149.03224-.03871.06507-.08108.09759-.12143.30313-.37659.61722-.82345.93727-1.32624.12657-.19884.25383-.40558.38178-.62112.05925-.0997.1185-.20031.17798-.3034.16385-.28396.32821-.57902.49257-.88545.29088-.54205.58113-1.11667.86747-1.71311.07255-.15124.14478-.30359.21673-.45749.22604-.48317.4485-.97808.66587-1.48079.09465-.21893.18811-.43887.28061-.6601.24691-.59066.48551-1.18812.7127-1.78429.38086-.99936.7188-1.98606,1.02032-2.9403.23796-.75319.45735-1.4895.62932-2.17225.07484-.29717.14271-.58571.20311-.86454.05288-.24415.09805-.47785.139-.70559.09928-.55242.16422-1.05632.18509-1.4917.1789-3.72348-.45602-6.99984-1.68041-9.77064-.24489-.55416-.51335-1.08805-.80359-1.60131-.29024-.51316-.60227-1.00578-.93429-1.47712-.33202-.47143-.68399-.92168-1.05421-1.35027-.78979-.91443-1.66235-1.73035-2.6003-2.44319-.70343-.53472-1.44369-1.01156-2.21339-1.42851-.51312-.278-1.03935-.52931-1.57641-.75346-.80565-.33642-1.63579-.61158-2.48318-.82372-1.41223-.35357-2.8722-.53206-4.34584-.52655-.50248.00183-1.00647.03063-1.51078.07558-.84793.07576-1.69665.20737-2.53954.40769-.89613.21288-1.78575.4972-2.6612.8549-.8755.3577-1.73678.78878-2.57613,1.29524-.4197.25314-.8339.52527-1.24168.81648-.61167.43676-1.20885.91645-1.78832,1.43998-.57948.52362-1.1412,1.0909-1.68197,1.70302-.45281.51243-.88315,1.06393-1.30244,1.63194-1.86821,2.5306-3.39261,5.56482-4.39972,8.78678-.21512.68816-.39824,1.38595-.56521,2.08723-.22136.92975-.40053,1.86683-.53086,2.80621-.09332.67284-.16959,1.34578-.21302,2.01679-.03747.57856-.05586,1.15537-.0543,1.7287.00335,1.25883.11313,2.49721.31757,3.7033.16798.99111.39659,1.96167.71155,2.8938Z"/><path class="cls-2" d="M629.34506,749.94493c-.61167.43676-1.20885.91645-1.78832,1.43998"/><path class="cls-2" d="M655.082,755.29787c.29024.51325.5587,1.04715.80359,1.60131"/><path class="cls-2" d="M654.14772,753.82075c-.33202-.47143-.68399-.92168-1.05421-1.35027"/><path class="cls-2" d="M650.49321,750.02729c-.70343-.53472-1.44369-1.01156-2.21339-1.42851"/><path class="cls-2" d="M644.22024,747.02159c.84738.21214,1.67753.4873,2.48318.82372"/><path class="cls-2" d="M648.27982,748.59878c-.51312-.278-1.03935-.52931-1.57641-.75346"/><path class="cls-4" d="M555.11582,820.56323c.21852.19068.51802.39228.88742.60286.12313.07026.25406.14143.39228.21352.2076.10832.43195.21866.67156.33092.27859.13033.57746.26314.89535.39806.27465.11648.56283.23443.86385.35376.20219.08007.40975.16078.62281.24186.13129.05008.26447.10034.39966.15069.29217.10887.59071.21829.89948.32844.23819.08511.48248.1705.72953.25608.29322.10162.59222.20361.8965.30579.32188.10814.64946.21645.98198.32487.28575.09309.57494.18628.86733.27937.28465.09071.57108.18133.86091.27176.65904.20563,1.33019.41044,2.00739.61323.45144.13519.90563.26947,1.36055.40255.45497.13299.91076.2647,1.36559.39494.79593.22783,1.58888.4507,2.36903.66679,1.56026.43208,3.06939.83693,4.44906,1.19931.34491.09062.68174.17858,1.00927.2636.36848.09575.72512.18775,1.06829.2758,2.40196.61625,4.14121,1.03687,4.62044,1.14602,6.60559,1.50445,13.05842,2.68257,19.46342,3.64415,3.52276.52885,7.03102.99221,10.54231,1.40842,3.95016.46813,7.90413.87637,11.88672,1.25085,6.63769.62414,13.3549,1.15436,20.26664,1.711,9.56029.76988,19.15745,1.44456,28.77465,1.98882,3.20573.18142,6.41371.34835,9.6233.4995,4.27943.2015,8.56175.37494,12.84545.5172,2.1418.07108,4.28406.13446,6.42637.18958,2.17166.05586,4.34345.103,6.51525.1417,4.25728.07585,8.51452.11786,12.77015.12299,2.12782.00257,4.25522-.00413,6.38207-.02036s4.25315-.0421,6.37868-.07796c.07259-.00119.14514-.00266.21769-.00394,4.10228-.07044,8.20158-.1794,12.29693-.32707.12955-.00468.25924-.00752.38879-.01229,2.81607-.10327,5.67708-.22553,8.57028-.36522.14712-.00715.29428-.01431.44153-.02146,2.80644-.13703,5.64365-.29111,8.50269-.46171,1.59796-.0953,3.20174-.19508,4.81163-.30065,1.52289-.09997,3.05041-.20435,4.58114-.31331,3.06155-.21801,6.13604-.4541,9.21258-.70779,2.94814-.24314,5.8978-.50344,8.84007-.7786,1.6634-.15555,3.32469-.31533,4.98144-.48097,3.82268-.38228,7.62288-.79107,11.37933-1.22581,3.75641-.43465,7.46911-.89526,11.11661-1.38082,2.45598-.32707,4.93159-.67486,7.41734-1.04421,5.41476-.80446,10.88002-1.72072,16.31661-2.79328,1.34775-.26589,2.69413-.53857,4.03693-.82445.37114-.07897.74172-.15913,1.11236-.23966,2.9957-.65175,5.97475-1.35477,8.9223-2.11979.98253-.25498,1.96158-.51692,2.93659-.78602,2.0427-.56388,4.06798-1.15877,6.07105-1.78759,1.00152-.31432,1.99748-.63717,2.98731-.96882.23975-.08025.50573-.16005.79176-.24076.28598-.0809.59204-.1628.91182-.24764.42635-.11318.87719-.2315,1.33766-.35926s.93053-.26488,1.39545-.41567c.23246-.07539.46364-.15418.69165-.23691,1.82409-.66184,3.44668-1.57553,3.91921-3.01129h-.00005l-18.48896,1.53298-17.72247,1.46951c-.12744.00284-.25502.00514-.38246.00789-12.25208.27103-24.51695.49785-36.78182.73118-12.26492.23324-24.52984.47308-36.78214.76997-3.05321.07402-6.09816.13914-9.13627.196-3.03812.05696-6.06936.10548-9.09514.14638-6.05156.08163-12.0813.13226-18.10039.15601-4.01276.01587-8.02075.01981-12.02732.01312s-8.01181-.02403-12.01888-.05081c-8.01419-.05356-16.03596-.14464-24.09193-.26323-4.02799-.05943-8.0645-.12565-12.1129-.19747-4.70762-.08356-9.40029-.13969-14.08108-.18353-9.36158-.08768-18.67565-.12639-27.96647-.23801-23.22712-.27891-46.30914-1.01312-69.62632-4.10576-1.2044-.15977-2.49661-.05778-3.77434.00605-.76663.03834-1.52802.06292-2.26209.00899-.07585.05503-.13382.11281-.17459.17298-.04081.06035-.06443.12309-.07168.18821-.01165.10493.01931.2159.08965.33257.0703.11667.18.23883.32565.36586Z"/><path class="cls-4" d="M643.94283,715.55905c1.60291-2.32634,3.31025-4.53565,5.11219-6.62865,1.02972-1.196,2.0903-2.35395,3.18001-3.4741,1.0897-1.12006,2.20853-2.20234,3.35455-3.24701,2.86514-2.6114,5.90064-4.98708,9.07817-7.12925,2.90522-1.95855,5.92903-3.72192,9.04988-5.29168,1.56045-.78492,3.14515-1.52151,4.75132-2.20977,6.2715-2.6878,12.87251-4.63571,19.63878-5.86721.28644-.0521.57278-.10419.85986-.15372,1.51211-.26103,3.03188-.48675,4.55807-.67615.98028-.12162,1.96245-.23223,2.94732-.3245,2.61759-.24507,5.24986-.38522,7.88767-.42319.02431-.00037.04856-.00165.07287-.00193,2.66129-.03641,5.32827.03238,7.99172.20536,2.66395.17298,5.32438.45043,7.97214.83152,4.41293.63506,8.79073,1.55811,13.09084,2.76585,7.74028,2.1739,15.22902,5.26994,22.21886,9.26931,1.94163,1.11089,3.84473,2.29158,5.70404,3.54142,3.71867,2.49978,7.26206,5.27664,10.58785,8.32737.83147.76273,1.64928,1.54252,2.45286,2.33936s1.59292,1.61075,2.36729,2.44172c4.23536,4.54473,5.6298,6.78393,5.31919,7.61114-.04439.11813-.12354.20747-.2342.27066-.12648.07218-.29405.11006-.49785.11767s-.44373-.01504-.71494-.06439c-1.26562-.22957-3.2116-1.0355-5.33561-2.0222-.9103-.42291-1.8533-.87903-2.78942-1.33725-.31207-.1528-.62336-.30579-.93241-.45786s-.61589-.30322-.91906-.45235c-.30313-.14904-.60259-.29607-.89691-.43988-.29428-.14381-.58347-.28433-.866-.42062-.28254-.1362-.55847-.268-.82629-.39439-.26786-.1262-.52761-.24709-.77782-.36119s-.49088-.2215-.72049-.32111c-.34449-.14941-.66418-.28112-.95414-.39145-1.58576-.60314-3.16588-1.18216-4.74068-1.73705-4.72449-1.66459-9.40143-3.11163-14.04136-4.33799-1.23732-.32707-2.47199-.63845-3.70422-.93397-2.46447-.59122-4.91921-1.11951-7.36579-1.58425s-4.885-.86609-7.31682-1.20362c-2.43182-.33743-4.85703-.61103-7.27729-.82014-2.36642-.20453-4.72798-.34541-7.08628-.42649-1.25966-.04329-2.51844-.07099-3.7764-.07888-1.2044-.00752-2.4082.00128-3.61145.02632-2.40659.05017-4.81126.16555-7.21579.3466-2.40448.18124-4.80869.42814-7.21428.74117-2.40554.31313-4.81245.69238-7.22225,1.13831s-4.82259.95864-7.23977,1.5383c-2.41723.57984-4.83891,1.22664-7.26669,1.94112s-4.8617,1.49647-7.3032,2.34661c-2.44154.85014-4.89073,1.76823-7.34915,2.75485-2.45846.98661-4.92609,2.04174-7.40459,3.16593-.14615.06631-.31501.15014-.49358.24149-.17417.08906-.3627.18912-.56489.29955-.14111.07704-.28873.15876-.4424.24507-.24227.1362-.49409.27947-.76442.43603-.37568.21756-.77672.45327-1.19807.70256-.63203.37393-1.30983.77841-2.01656,1.19821-.70678.41979-1.4425.855-2.19041,1.29011-.24934.1451-.49996.2902-.75136.43474-1.00555.57819-2.02284,1.14739-3.01198,1.67166-.49459.26213-.98216.51307-1.45768.74824-.23778.11749-.47253.23113-.70371.34027-.69344.32734-1.35431.61414-1.96575.84527s-1.17349.40631-1.66936.51069c-.3306.06952-.63175.10749-.89852.10933-.00885.00009-.01596-.00165-.02476-.00165-.38792-.00073-.70316-.07759-.92667-.24846l-.00005-.00009c1.38439-2.56141,2.88293-5.00488,4.48584-7.3314Z"/><path class="cls-4" d="M870.90877,66.74665c-14.58901-3.37376-41.41377-5.5185-53.19162-9.82668-1.77195-.64826-2.07925-3.66029-4.21881-5.16813-39.13669-27.57983-91.09897-37.01323-136.17275-18.5821-10.6034,4.33607-19.51707,11.37415-29.77763,16.2354-.65322-44.66986-45.84803-51.67548-74.69985-24.12976-13.38338,12.77744-19.88688,30.1938-27.29578,46.65042C286.51172,140.94297,90.28935,363.52533,50.18504,628.4069c-37.96765,250.76982,59.86077,491.30527,255.60566,647.84707,3.01102,2.40797,21.71785,14.69297,21.9288,16.03481.29753,1.8927-.58874,3.03468-1.54518,4.4813-8.11788,12.27799-29.98707,27.12785-40.08349,39.89327-3.92884,4.9675-8.33947,9.74758-6.12283,16.68959,1.26617,3.96566,6.39569,8.65118,10.6228,9.09606,8.67158.91269,44.69499-11.64119,56.6167-14.46936,11.22924-2.66382,42.28326-10.87236,51.93586-9.76597,7.8774.90297,52.35905,25.33223,64.76329,30.4363,371.66238,152.93026,788.79398-55.46266,902.36747-435.25644,112.58578-376.49092-112.00053-777.99192-495.36536-866.64687ZM1121.54679,1188.03312c-19.92526,17.49409-50.33694,40.08244-58.52673,45.83927-2.02408-1.51188-4.04023-3.04532-6.05285-4.58797-22.95096-17.59173-45.18403-37.07014-67.28316-55.96105-3.11782-20.60421,13.99243-35.92224,25.74625-50.50956.11011-.13666.22306-.27373.3322-.41026-10.76679.43855-21.3258,2.71738-31.4485,6.31544-.5421.1927-1.0826.39031-1.62217.59048-9.70832,3.602-18.99983,8.40271-27.66779,13.94552-.05494.03513-.11061.06948-.16551.1047-.33528-.39586-.72242-.8095-1.14327-1.23576-.75305-.76277-1.62722-1.57145-2.57421-2.41714-5.83149-5.20794-14.36283-11.81298-13.59891-17.66625,2.26984-17.39251,24.0252-36.56454,36.97296-47.50487.16642-.1407.33775-.28589.50124-.42374-16.91425-1.7254-31.19197,2.81511-45.72306,10.85292-5.70767,3.15712-14.01064,11.64665-20.18859,10.95133-2.28071-.25672-4.27416-1.75484-5.73715-5.24986-8.25716-19.72555,20.08678-58.33165,35.40041-70.15779-.28171.01743-.56012.04513-.84064.0664-21.83424,1.64873-40.05575,14.60612-55.79729,28.77932-.21976.19774-.44089.39494-.65968.59323-4.42187-13.32757-4.29654-26.46913-.76479-38.43798,8.27683-28.04998,35.27788-49.65383,66.41399-52.07812,12.67036-.98643,30.46405,3.79658,48.66964,10.95555,5.64718,2.22068,11.33292,4.67066,16.91874,7.24739,18.97424,8.75285,36.78435,18.97465,47.91696,26.70007,31.68156,21.98493,55.92083,51.70749,68.44078,87.93552,1.48941,4.30974,2.82313,8.70589,3.97328,13.19788.39567,1.54527.81313,3.3578,1.23865,5.35689,3.45961,16.25255,7.48315,45.6124,5.1984,57.55782-.32422,1.695-2.24521,4.34478-5.27572,7.6243-3.17455,3.43535-7.57078,7.56381-12.65348,12.02631ZM417.67749,217.19947c54.38997-39.19777,115.40653-72.67765,183.07306-80.26659,1.90655-1.639-9.59977-11.62583-11.17989-13.70508-22.20217-29.21535-9.02342-64.77943,23.26023-78.34271v23.39106c0,5.5849,10.17475,24.57881,13.8383,29.92598,1.41558,2.06604,16.17684,19.8368,20.08765,20.77471.34087.08181.6085.04989.76832-.14583,2.53775-29.80822,26.9146-49.82057,54.61064-56.32357,17.75324-4.16859,38.22285-4.906,55.5375,1.27341.29419.10493.77149.30964,1.38715.59543,5.83158,2.70587,24.28224,12.79945,21.27549,16.71141-19.95127,5.07953-41.78743,14.16532-57.3582,27.91644-1.52945,1.35083-10.7379,9.81238-9.02906,11.32848.25631-.01211.51307-.01743.76942-.02898,80.66649-3.64506,162.95551,17.47231,235.6643,51.08059,5.28021,2.4408,10.5043,4.97626,15.68197,7.58583.24328.12254.48707.24434.73012.36724,1.64519.83005,3.27984,1.67496,4.91362,2.52097.90241.46886,1.80767.93332,2.70679,1.40732.51816.27222,1.03188.55049,1.54884.82436,119.80625,63.68505,210.04829,172.76509,242.21582,306.54024,42.47752,176.65155-18.51459,385.44555-203.55327,447.40759-11.32073-2.16785-22.22904-7.79329-33.5859-11.06616-1.82414-.52573-4.29044-.83785-6.7655-1.2238-2.21536-.3455-4.43604-.75099-6.2112-1.42154-.77107-.29111-1.45451-.63414-2.01959-1.04265-.84917-.61369-1.42856-1.37623-1.60213-2.35019l-2.92998-47.47882c41.32251-2.91737,67.66007-50.5954,29.97482-79.16717-1.91402-1.45116-3.75242-2.6756-5.53712-3.7133-6.2871-3.65561-11.90786-4.99139-17.81832-5.74055-5.63393-.71403-11.53558-.8992-18.525-2.04678-.27089-.04448-.53884-.0864-.81304-.13382-35.13122-6.08137-59.46996-23.17232-80.29879-43.46973-26.00104-25.33751-46.53367-55.67063-75.75424-75.83074-23.76009-16.39269-53.26468-26.05924-96.1309-20.83763-30.46166,3.71064-52.8779,17.62117-72.18943,35.33561-24.16329,22.16488-43.46757,50.28255-67.55258,71.87246-14.03577,12.58171-29.69384,22.94862-48.89486,28.61331-10.01801,2.95553-22.20212,4.13438-34.09586,6.13374-5.51942.92782-10.97536,2.03321-16.12405,3.57462-5.32534,1.59443-10.31884,3.65818-14.71288,6.4742-.46107.29552-.9148.6002-1.3622.9126-8.43037,5.88555-14.40342,14.83229-15.81249,29.07007-1.49079,15.06379,4.54638,26.48353,14.17926,34.77742,6.32241,5.44356,14.19238,9.54089,22.50534,12.43405,5.95187,2.07145,12.12844,3.52574,18.12424,4.41742.55416.08236,1.10722.1617,1.6579.23452.01513.06429.02697.12905.04201.19343,4.85666,20.72317,3.56187,42.11001,3.67707,63.22719-19.25834-8.15209-40.38305-9.05368-60.96047-5.89188-3.9005.59938-11.79615,4.44806-14.87265,4.04541-.05476-.00715-.11951-.0055-.17105-.01541-1.22976-.2359-6.96746-5.48539-9.54474-6.89189-3.95397-2.15794-7.8419-4.3224-11.67022-6.49649-30.58984-17.37206-57.19443-35.38835-80.26366-56.02393-38.5596-34.49199-67.2428-76.30565-88.13179-134.69206-72.24419-201.9288,34.53152-399.358,197.24118-516.61985ZM453.27413,823.24901c1.64001-3.93012,4.17162-6.68277,7.25729-8.64297,2.60837-1.65698,5.61453-2.74421,8.82393-3.48291,8.61261-1.98221,18.67317-1.47061,26.36255-2.78649,101.2551-17.32822,123.30043-131.01196,204.33173-139.7449,109.42792-11.7934,119.48853,90.89774,201.50089,128.10376.0371.01678.07571.03247.11286.04934,6.45118,2.91627,13.68903,5.28718,21.03519,7.22739,6.76839,1.78759,13.6273,3.21114,20.04743,4.34652,4.76178.84216,12.06511.95552,19.1314,2.01798.40296.06063.80414.1262,1.20499.19334,8.81402,1.47483,17.00716,4.59141,19.09943,12.67068,6.06229,23.4095-29.00628,25.61174-44.5797,28.61561-151.47652,29.21764-309.75959,32.906-460.64242-3.27975-5.19666-1.24627-11.59483-3.31185-16.61878-6.5196-1.99065-1.27112-3.75668-2.72614-5.15548-4.37615-3.14722-3.71248-4.39917-8.43018-1.91131-14.39186ZM296.21972,1166.59226c-1.95231-6.43999,5.51116-36.2178,7.67259-44.5299,13.18889-50.71794,43.17064-107.7637,88.73585-136.1213,2.70348-1.68248,5.54124-3.30717,8.48466-4.8451,7.77256-4.0611,16.28658-7.51364,25.04447-9.80357,4.00652-1.04751,8.06377-1.84922,12.12431-2.35734,14.99252-1.876,30.02816.28332,42.70342,9.15035.80253.5615,1.5515,1.16702,2.26526,1.80006,3.48089,3.0876,5.9327,6.98617,7.5917,11.33563,4.2526,11.14926,3.31763,25.23588,1.24296,36.08779-5.12228-2.93067-10.3082-5.56674-15.582-7.83952-5.5307-2.38348-11.15916-4.36285-16.91301-5.85896-10.33159-2.68642-21.06821-3.81153-32.37889-2.88105.32028.28112.64771.55068.97496.82051,1.74411,1.43832,3.58141,2.7266,5.47172,3.93728,4.71092,3.01734,9.73616,5.57848,14.41222,8.87043.70293.495,1.40072,1.00092,2.08549,1.53334,5.9659,4.63929,14.1257,12.52384,20.28686,21.36556,7.6525,10.98206,12.22044,23.44133,5.65929,32.999-6.71414-2.54536-13.75937-5.19363-20.95705-7.35442-5.86373-1.76025-11.82816-3.19042-17.80048-3.97534-11.1023-1.45914-22.22716-.68202-32.76264,4.42412.33495.10172.68293.21416,1.03642.33147,6.01213,1.99459,14.63354,6.21776,23.05152,11.68086,2.14767,1.39384,4.28214,2.86729,6.35607,4.40587,4.31066,3.19775,8.35956,6.67268,11.72855,10.27638,6.09632,6.52107,9.96371,13.46423,9.10761,19.95287-.45263,3.4303-7.68589,15.73599-11.2241,15.90159-2.72825.12772-12.91914-4.33873-17.41049-5.22697-4.12383-.81556-8.14017-1.49459-12.10643-2.02986-3.43008-.46295-6.82291-.81441-10.21107-1.04715-8.97141-.61621-17.91962-.39686-27.49903.84486,1.07585.86444,2.21243,1.74705,3.39192,2.64786,2.80988,2.14611,5.87051,4.39958,8.9837,6.77944,4.43457,3.38995,8.9727,7.03602,13.03563,10.99494,3.27911,3.19528,6.24582,6.59481,8.60041,10.22616,3.8695,5.96796,6.08146,12.56328,5.27655,19.91788-.72421,6.61779-10.73488,18.33194-15.18467,24.0778-4.85629,6.27086-19.20321,24.31503-24.82664,28.08616-.71448.47918-1.26131.93699-1.87967,1.12731-.54315.1672-1.14079.13015-1.96414-.30845-1.33111-.9751-2.67193-1.95502-4.01148-2.93438-1.99771-1.4607-4.00001-2.92728-6.00791-4.40013-12.02168-8.81893-24.1304-17.88215-35.23628-27.5437-4.43622-3.85932-30.51041-27.68884-31.36816-30.51839ZM922.73393,1168.95373c-37.51905,19.89807-74.59089,41.0165-113.17787,58.85871-21.63842,10.0054-45.18,20.83855-68.19502,26.89323-.58814.15473-1.17752.32046-1.76493.46882,16.54375-18.53418,29.89861-40.35704,35.47929-64.86092,2.56916-11.28083,2.99551-22.75229,5.16607-34.07077,29.47877-4.06068,59.9684-8.1481,89.87691-6.67511,9.94968.49,34.39656,2.37811,43.11006,5.18134.23063.0742.52898.21471.8693.4003,4.05582,2.21183,14.89324,11.71117,8.63618,13.80441ZM264.20862,1131.4394c-1.65166,1.24269-22.64411-26.08212-24.7252-28.82642-68.66645-90.54912-109.65373-198.14699-121.165-308.99407-10.18548-98.08028,2.71156-198.70078,39.98343-292.31549,1.04788-2.63176,2.10805-5.25994,3.19436-7.88042.04439-.10694.08603-.21462.13042-.32156.67633-.08998,1.10053.06897,1.35303.38265.76126.9458-.04256,3.30121-.23425,4.50501-1.7531,11.00856-4.94636,22.44692-7.1775,33.76476-.49748,2.52353-.94837,5.0412-1.32331,7.54666-20.10022,134.294,23.02438,271.04696,119.49197,363.3667.23324.22453.46006.45621.69385.68.57379.54939,1.15336,1.092,1.73035,1.63763,11.51521,10.83072,23.77114,21.03776,36.76064,30.53646.16445.12024.32578.24351.49051.36348.49253.35898.98716.71559,1.48088,1.07319,14.11726,10.22593,28.72521,19.88184,44.40048,27.72108-51.47975,41.60418-81.21579,102.36177-94.98332,166.30469-.03274.15211-.0687.30354-.10135.45566ZM340.41265,1323.05091c-.89976-1.02734-2.30451-1.12511-1.50069-2.96947,1.31845-3.02537,24.90515-24.75936,29.48271-29.38829,27.82811-28.14005,54.06116-54.4699,77.51643-86.97637,33.11429-45.89269,87.78606-133.11822,83.65907-199.57554-.77208-12.43221-3.59728-24.13921-9.01113-34.7111-2.03981-3.98314-8.23702-10.96225-8.79779-13.8255-1.34092-6.84603,1.60268-24.71502,1.4685-33.92774-.19215-13.18889-2.50968-27.46188-3.01047-40.74249,29.01614,3.84464,57.92167,9.79201,86.98023,13.36425,72.40942,8.90152,153.42008,9.61867,225.96428,1.53573,37.69048-4.1995,74.93176-12.28216,112.62297-16.41957l.03618.54215,2.98547,44.74369c-8.52277.17757-19.12929,2.98112-27.17412,6.03084-13.14083,4.98167-25.56304,12.94171-36.10641,22.88313-12.5675,11.85017-22.46288,26.51838-27.68682,42.35251-2.66432,8.0756-4.29631,16.03224-5.0218,23.85241-3.53757,38.1321,14.52972,73.01242,40.14155,102.55365-36.40789-.83289-71.7629-.01587-107.65015,6.30218-8.81719,1.55228-22.33851,1.86321-24.83375,12.89392-1.92925,8.5286.45355,21.66727-.50069,31.19064-5.80553,57.94093-72.07171,105.08397-124.79223,116.66504-49.92201,10.96633-101.30458,10.15471-151.93016,14.07172-44.50568,3.44356-89.25883,8.27784-132.45221,19.45695-.12941.03348-.25965.06365-.38898.09727ZM918.74969,1263.62603c-12.85664,28.37709-31.54508,53.87878-56.4893,72.78079-24.62518-1.90682-49.05335-6.41472-73.62519-8.77307-28.38007-2.72389-56.75694-4.65245-85.15925-5.91802-13.02228-.5803-26.05016-1.02014-39.0861-1.3278-27.20007-.64194-54.43555-.72329-81.73353-.32184-.37907-2.247,2.8279-1.86945,4.50011-2.25159,14.61795-3.34056,30.48615-4.60778,45.32427-7.51085,90.51523-17.70913,178.58424-47.59443,259.04037-92.58182,5.72702-3.20225,11.31642-6.69263,16.89779-10.1947,9.01823-5.65851,18.01647-11.34517,27.53622-15.90301.70316-.3367,1.41118-.66276,2.12029-.98661.23888-.1091.47473-.2248.71435-.33239-.01298.11158-.02926.22315-.04242.33473-2.37788,20.17657-7.16406,40.40795-14.45405,59.6412-1.70889,4.50864-3.55697,8.96031-5.54354,13.34499ZM1230.67489,1056.99732c-7.85511,12.60877-16.19564,25.01695-25.04396,37.193-9.26463,12.74901-20.16988,24.66595-29.04003,37.47526-.29419.42488-.59259.84789-.88215,1.27479-.04875.00238-.09108-.01266-.13781-.01587-.15377-.01055-.29662-.05017-.42942-.11644-1.08879-.54325-1.50565-2.81451-1.73109-4.74339-.11139-.95295-.17812-1.82056-.25736-2.34496-8.5396-56.52076-29.243-100.82476-73.68036-137.59649l-29.37091-21.15406c95.91683-42.62996,162.05002-133.16623,190.88777-232.42491.79199-2.72596,1.55765-5.4697,2.30135-8.2273,2.14992-7.97187,4.09801-16.07076,5.83942-24.27257,5.94664-28.0077,9.47792-57.20562,10.46816-86.5691.13295-3.94241.21545-7.8873.25599-11.83329.4851-47.18954-5.64475-94.45117-19.0411-137.54367-.60309-1.94002-1.09039-4.54491,1.66831-3.17785.02586.01284.05544.03742.08259.0543,2.03908,1.26443,7.60178,13.76194,13.39814,28.02944,7.21932,17.76984,14.79657,38.2705,16.36481,43.1888,30.87141,96.8175,38.76853,196.59677,23.90019,292.64796-6.69547,43.25337-18.0134,85.74785-33.92875,126.8773-13.09258,33.83464-29.30042,66.74165-48.61117,98.38515-.9973,1.63414-1.99881,3.26645-3.01262,4.8939Z"/></svg>