<?xml version="1.0" encoding="UTF-8"?><svg id="Layer_1" xmlns="http://www.w3.org/2000/svg" viewBox="0 0 1440 1440"><defs><style>.cls-1{fill:none;}.cls-2{fill:#fed45e;}.cls-3{fill:#fff;}</style></defs><path class="cls-1" d="M982.96388,830.3375c-2.08847-8.06456-10.26655-11.17547-19.06463-12.64762-.40026-.06702-.80052-.13247-1.20298-.19299-7.05311-1.06053-14.34315-1.17369-19.09649-2.01431-6.40822-1.13331-13.25479-2.55428-20.0109-4.33861-7.33289-1.93667-14.55738-4.30327-20.99672-7.21424-.03735-.01685-.0758-.0325-.11279-.04925-81.86327-37.1383-91.90534-139.64253-201.13401-127.8706-80.88404,8.71705-102.88929,122.19387-203.96001,139.49056-7.67529,1.31349-17.71773.80281-26.31438,2.78142-3.20356.73735-6.20424,1.8226-8.80796,3.47657-3.08015,1.95663-5.60696,4.70427-7.24427,8.62724-2.48324,5.95083-1.23338,10.65995,1.90793,14.36567,1.39634,1.64701,3.15925,3.09938,5.14628,4.36818,5.01481,3.20191,11.40106,5.26374,16.58835,6.50774,150.60835,36.11989,308.60306,32.43825,459.80393,3.27378,15.54503-2.99839,50.54982-5.19663,44.49865-28.56352ZM800.87875,753.82429c.06225.00604.12414.01373.1864.02051.59472.06418,1.18431.15857,1.76694.28738.93455.20681,1.85226.49429,2.74873.85445.59765.24005,1.18577.5125,1.76364.81471,1.44395.75566,2.82197,1.69818,4.11431,2.79002.51708.43679,1.02061.89748,1.50913,1.37968s.96202.98592,1.41978,1.50876c.45739.52285.89903,1.06492,1.32346,1.62357.47716.62859.93236,1.27824,1.36448,1.94583.43176.6675.83971,1.35276,1.22276,2.05249.38268.69973.74047,1.41373,1.07078,2.13873.33032.72509.6339,1.46097.90855,2.20455.73241,1.98282,1.26011,4.01946,1.55015,6.04531.07251.50646.13037,1.01228.17248,1.51636.03186.37801.05493.75521.06921,1.13093.02856.75154.02161,1.49759-.02234,2.23477-.02197.36859-.0531.73488-.09411,1.09861-.14502,1.29316-.41015,2.55281-.80492,3.75992-.16809.51369-.36511,1.01549-.5808,1.50867-.07983.18219-.16333.36254-.24975.54162-.17907.3717-.37316.73607-.58153,1.09358-.33801.57924-.71337,1.13917-1.13011,1.67639-.25195.32455-.51415.64324-.7954.95085-.65441.71556-1.38938,1.38389-2.21041,1.99646-1.16307.868-2.47628,1.50666-3.8847,1.94336-.46947.14557-.94957.26861-1.43809.37032-.11316.02353-.22631.04678-.3402.06802-1.10777.20617-2.25582.30642-3.42292.30541-.00659,0-.01282.00037-.01904.00037-2.41256-.00439-4.90275-.42947-7.2699-1.18595-.49328-.15765-.98106-.32958-1.46189-.51507-3.36432-1.29893-6.37746-3.26289-8.41575-5.61502-.48815-.56359-2.22946-3.80011-3.83966-6.96485-.37133-.7304-.73607-1.45685-1.07664-2.14578-.25927-.52495-.505-1.02803-.72875-1.49439-.27648-.57549-.51745-1.0901-.71447-1.5257-.04944-.10959-.09595-.21331-.13916-.31182-.09338-.21203-.16882-.39147-.23108-.54674-.03918-.09796-.07178-.18393-.09704-.25589-.00586-.01712-.01501-.04028-.02014-.05585-.01355-.04019-.01904-.06637-.02637-.09576-.00403-.01566-.01172-.03845-.01392-.05081-.0293-.16607-.04834-.34332-.07068-.51726-.04834-.38314-.08679-.77782-.1029-1.19419-.00916-.23272-.01428-.46893-.01355-.71071.00439-1.30634.15234-2.73674.42736-4.20724.04578-.24517.09521-.49136.14795-.73827.15857-.74083.34826-1.48807.56689-2.23129.07287-.24783.14905-.49511.22815-.74156.31713-.98601.6848-1.95856,1.09825-2.89284.10327-.23364.20947-.46481.31823-.69323.14721-.30798.30065-.60863.45776-.90544.23584-.4464.48266-.87871.73973-1.29463.33288-.5386.68151-1.05183,1.04808-1.52698.20947-.27154.42407-.53155.64379-.77873.16479-.18548.33215-.36364.50243-.53402.51086-.51131,1.04588-.95259,1.60215-1.309.37719-.2416.75402-.46691,1.13121-.67638s.75402-.4031,1.13047-.58126c.25122-.11883.50207-.23071.75292-.33599.66832-.2806,1.33555-.51342,1.99984-.70073,1.97128-.5559,3.91839-.71007,5.81021-.52825ZM640.86296,730.20975c1.38169-2.55675,2.87764-4.99577,4.47759-7.31806,1.59995-2.32211,3.30427-4.52739,5.1027-6.61659,1.02794-1.19383,2.08664-2.34966,3.17426-3.46778,1.08799-1.11802,2.20455-2.19833,3.34858-3.2411,2.86006-2.60665,5.89004-4.97801,9.06174-7.11628,2.89998-1.95498,5.91824-3.71515,9.03318-5.28205,1.55784-.7835,3.13947-1.51874,4.74272-2.20574,6.26027-2.68291,12.84903-4.62727,19.60295-5.85653.28601-.052.57201-.104.85838-.15344,1.5095-.26055,3.02632-.48586,4.54973-.67492.9785-.1214,1.95883-.23181,2.94209-.32391,2.61287-.24462,5.24039-.38452,7.87341-.42242.02417-.00037.04834-.00165.07251-.00192,2.65645-.03635,5.31876.03232,7.97741.20498,2.65901.17267,5.31473.44961,7.95763.83,4.40471.6339,8.77464,1.55527,13.06692,2.76082,7.72619,2.16995,15.20117,5.26035,22.17847,9.25244,1.93796,1.10887,3.83783,2.28741,5.69375,3.53498,3.71185,2.49523,7.24866,5.26703,10.56831,8.31221.83019.76134,1.64646,1.53971,2.44845,2.33511.80235.7954,1.59006,1.60782,2.36312,2.43728,4.22747,4.53645,5.61941,6.77159,5.3096,7.59729-.04431.11792-.12341.20709-.234.27017-.12634.07205-.29333.10986-.49694.11746-.20324.0076-.44274-.01501-.71373-.06427-1.26304-.22915-3.20576-1.03361-5.32572-2.01852-.90855-.42214-1.85007-.87743-2.78426-1.33482-.31164-.15252-.62218-.30523-.93089-.45702-.30834-.15179-.61486-.30267-.91734-.45153-.30249-.14877-.60131-.29553-.89537-.43908-.2937-.14355-.58227-.28381-.86424-.41985-.28198-.13595-.55736-.26751-.82469-.39367-.2677-.12597-.52697-.24664-.77672-.36053s-.48998-.2211-.71886-.32052c-.34387-.14914-.6632-.2806-.9525-.39074-1.5831-.60204-3.16035-1.18-4.7321-1.73389-4.71599-1.66156-9.38437-3.10597-14.01576-4.3301-1.23521-.32647-2.46749-.63729-3.69757-.93227-2.4598-.59014-4.91008-1.11747-7.3523-1.58136-2.44222-.46389-4.87602-.86452-7.30359-1.20143-2.42721-.33682-4.84819-.60991-7.26404-.81865-2.36202-.20416-4.71928-.34478-7.07325-.42571-1.25755-.04321-2.514-.07086-3.76971-.07873-1.20225-.00751-2.40377.00128-3.60492.02628-2.40194.05008-4.80241.16525-7.20252.34597-2.40011.18091-4.79985.42736-7.20105.73983-2.40121.31256-4.80388.69112-7.20911,1.13624-2.4056.44512-4.81376.95689-7.22669,1.5355-2.41292.57879-4.83024,1.22441-7.25342,1.93759-2.42354.71318-4.85295,1.49375-7.29004,2.34234s-4.88188,1.76502-7.33582,2.74983c-2.45394.98482-4.91703,2.03802-7.39111,3.16017-.14575.06619-.3142.14987-.49255.24105-.17395.0889-.36218.18878-.56396.29901-.14062.0769-.2882.15848-.44164.24462-.2417.13595-.49291.27896-.7628.43523-.37499.21716-.77526.45245-1.19603.70128-.63097.37325-1.30735.777-2.01303,1.19603-.70531.41903-1.43955.85344-2.18624,1.28776-.24902.14483-.49914.28967-.74999.43395-1.00377.57714-2.01925,1.14531-3.00654,1.66861-.49364.26165-.98033.51214-1.45493.74687-.2373.11728-.47167.23071-.70238.33966-.69213.32675-1.35203.61303-1.96213.84374-.61046.23071-1.17149.40557-1.6666.50976-.32995.0694-.6306.1073-.89684.10913-.00879.00009-.01575-.00165-.02454-.00165-.38744-.00073-.70201-.07745-.92503-.24801v-.00009ZM620.30679,777.64967c.04358-.66979.11938-1.3415.21277-2.01312.13-.93767.30871-1.87305.5299-2.8011.16662-.7.34936-1.39652.56396-2.08343,1.0056-3.2161,2.52718-6.2448,4.3919-8.77079.41857-.56698.84813-1.11747,1.30003-1.62897.53979-.61101,1.10045-1.17726,1.67905-1.69992.57824-.52257,1.17442-1.00139,1.78488-1.43735.40722-.29068.82067-.56231,1.2396-.81499.83788-.50555,1.69736-.93584,2.57149-1.29289.87376-.35705,1.76181-.64086,2.65608-.85335.84154-.19995,1.68857-.33132,2.53487-.40695.50353-.04486,1.0067-.07361,1.50803-.07544,1.47105-.00549,2.92854.17267,4.33806.5256.84593.21176,1.67465.48641,2.47884.82222.53576.22375,1.06126.4746,1.57322.75209.7683.41619,1.5073.89217,2.20968,1.42591.93602.71154,1.80722,1.52598,2.59529,2.43874.3695.42782.72106.87724,1.05247,1.34782.33142.47048.64269.9622.93236,1.47443.29003.51232.55773,1.04524.80235,1.59839,1.22203,2.76576,1.85593,6.03616,1.67722,9.75286-.02087.43459-.08569.93758-.18457,1.48899-.04101.22732-.08606.46059-.13879.7043-.06042.27832-.12817.56634-.20288.86296-.17175.68151-.39074,1.41648-.62804,2.1683-.30102.9525-.6383,1.93741-1.01842,2.93495-.22705.59508-.46508,1.19145-.71154,1.78104-.09228.22082-.18567.44036-.28015.65889-.21679.50179-.43908.9958-.66466,1.47809-.07178.15362-.14392.30569-.21643.45666-.28564.59536-.57531,1.16893-.86571,1.70999-.16406.30587-.32812.60039-.49181.88384-.05933.1029-.11828.20334-.17761.30285-.12781.21515-.25451.4215-.38085.61998-.3197.50188-.63317.94792-.93565,1.32383-.03259.04028-.06518.08258-.09741.12121-.18383.221-.36364.41647-.53722.58043-.43469.41033-9.65353,4.73265-10.84406,5.03147-.81261.20407-1.61716.34652-2.41109.43011-.79357.08349-1.57615.10821-2.34408.07699-.51195-.02087-1.01768-.06656-1.51572-.13632-.99644-.13952-1.96286-.37499-2.89192-.7-.87084-.30468-1.70871-.68773-2.50667-1.14384-1.33042-.76024-2.55062-1.72299-3.63056-2.86244-.04651-.04925-.08789-.10492-.13403-.15472-.54162-.58574-1.04222-1.22065-1.5073-1.89337-.24023-.34799-.47057-.7065-.68993-1.07554-.16443-.27676-.32263-.55929-.47424-.84767-.21679-.41216-.41454-.84026-.60351-1.27577-.20764-.4789-.40283-.9676-.57421-1.47434-.3142-.93044-.54235-1.89923-.71007-2.88853-.20398-1.2039-.31384-2.44002-.31713-3.69656-.00146-.57229.01685-1.14805.0542-1.72556ZM876.45502,829.65361c-.22778.08258-.45849.16122-.69066.23648-.46398.15051-.93309.28738-1.39268.41491s-.90965.24563-1.33518.35861c-.31933.08468-.62475.16644-.91039.24719-.28527.08057-.55077.16021-.79027.24032-.98802.33105-1.98227.65331-2.98164.96706-1.99948.62768-4.0213,1.22148-6.06032,1.78433-.97301.26861-1.95041.53008-2.9311.78459-2.94209.76363-5.91567,1.46537-8.9061,2.11593-.36987.08038-.73973.1604-1.11033.23922-1.34031.28537-2.68428.55755-4.02935.82295-5.42679,1.0706-10.88214,1.9852-16.28696,2.78819-2.4814.36868-4.95255.71584-7.40393,1.04231-3.64081.48467-7.3468.94444-11.09637,1.3783-3.74957.43395-7.54309.842-11.35858,1.22358-1.65378.16534-3.31196.32482-4.97233.48009-2.93696.27465-5.88125.53448-8.82407.77718-3.07099.25323-6.13979.48888-9.19577.7065-1.52817.10876-3.05268.21295-4.5728.31274-1.60691.10538-3.20795.20498-4.80278.3001-2.85383.17029-5.68606.32409-8.48753.46087l-.44054.02142c-2.88789.13943-5.74392.26147-8.55455.36456-.12964.00476-.25891.0076-.38818.01227-4.08795.1474-8.17992.25616-12.27446.32647-.07251.00128-.14502.00275-.21753.00394-2.12142.0358-4.24395.06161-6.36684.07782-2.12326.0162-4.24651.02289-6.3705.02032-4.24798-.00513-8.49742-.04706-12.74686-.12277-2.16793-.03863-4.33587-.08569-6.50343-.14145-2.13864-.05502-4.27691-.11828-6.41481-.18924-4.27581-.142-8.55052-.31512-12.82193-.51626-3.20393-.15088-6.40602-.3175-9.60592-.49859-9.59969-.54326-19.17925-1.21672-28.72218-1.9852-6.8993-.55562-13.60415-1.08488-20.22989-1.70789-3.97515-.3738-7.92211-.7813-11.86504-1.24858-3.50495-.41546-7.0066-.87798-10.52326-1.40586-6.3932-.95982-12.83438-2.1358-19.4279-3.63751-.47826-.10895-2.21444-.5288-4.61198-1.14393-.3424-.08789-.69835-.17972-1.06639-.27529-.32702-.08487-.6632-.17267-1.00743-.26312-1.37693-.36172-2.8835-.76583-4.44097-1.19712-.77855-.21569-1.57029-.43816-2.36458-.66558-.45409-.13-.90892-.26147-1.36301-.39422-.45409-.13284-.90746-.26687-1.35825-.40182-.67601-.20242-1.3458-.40685-2.00387-.61211-.2893-.09027-.57494-.18072-.85912-.27127-.29187-.09292-.58043-.18594-.86571-.27887-.33215-.10821-.65917-.21634-.98033-.32427-.30358-.10199-.60204-.20379-.895-.30523-.24646-.08542-.49035-.17065-.72802-.25561-.30834-.10995-.60607-.21917-.89793-.32784-.13476-.05026-.2677-.10043-.3988-.15042-.21277-.08093-.42004-.1615-.62182-.24142-.30029-.11911-.58813-.23684-.86205-.35311-.3175-.13467-.61596-.26724-.89391-.39733-.23913-.11206-.46325-.22219-.67015-.33032-.13806-.07196-.26879-.143-.39184-.21313-.36877-.2102-.66759-.41143-.88585-.60177-.14538-.1268-.25488-.24874-.32482-.3652-.07031-.11645-.10107-.22723-.08972-.33196.00732-.065.03113-.12762.07178-.18786.04065-.06006.09851-.11773.17431-.17267.73278.05383,1.49265.0293,2.25802-.00897,1.27513-.06372,2.56527-.16552,3.76715-.00604,23.27488,3.08702,46.31503,3.81988,69.49983,4.09829,9.27377.11142,18.57098.15005,27.91543.23758,4.67241.04376,9.35653.09979,14.05568.18319,4.0407.07168,8.07006.13778,12.09062.19711,8.04149.11838,16.04856.20929,24.04831.26275,3.99969.02673,7.99755.04404,11.99687.05072s8.00011.00275,12.00529-.01309c6.00832-.02371,12.0269-.07425,18.06745-.15573,3.02046-.04083,6.04604-.08926,9.07859-.14612,3.03254-.05676,6.07204-.12176,9.1196-.19564,12.23014-.29635,24.47274-.53576,36.71534-.76857,12.2426-.23291,24.48519-.45931,36.71497-.72985.12707-.00275.25451-.00504.38159-.00787l17.69026-1.46683,18.45526-1.53019c-.47167,1.43314-2.09103,2.34518-3.9118,3.00581Z"/><path class="cls-1" d="M341.83433,1326.74406c1.31577-3.01982,24.85945-24.7143,29.42896-29.33489,27.77737-28.08878,53.96249-54.37067,77.37543-86.81802,33.06061-45.81823,87.69545-132.99568,83.49618-199.35402-.78221-12.35768-3.60199-23.99429-8.98447-34.5063-2.03683-3.9779-8.22057-10.93909-8.78159-13.80043-1.26341-6.44218,1.36192-13.66768,1.46592-20.30862l54.22908,13.55727c1.56662-4.38567,10.11128-4.66692,14.12562-4.33458,24.61886,2.03647,62.40791,14.71219,88.01222,20.51828,2.23019.50555,4.68339.01465,6.31996.38625,4.63542-4.39885,14.50464,0,18.82989,0h72.30496c5.62417,0,17.80195-2.96168,23.34849-3.01268l-80.92872-19.24507c-9.9681-8.61012-4.50908-19.66786,8.99546-18.02552,31.29257,3.80569,81.41723,16.08729,112.62082,24.45077,5.95449,1.59592,13.14676,6.36144,15.04809,6.79429,6.63966,1.51279,19.59196-4.65758,27.76346-3.19679,10.524-9.92333,22.92369-17.86888,36.04079-22.84148,8.03014-3.04417,18.61712-5.84262,27.12443-6.01986l-2.97981-44.66226-.03625-.54116c-37.62243,4.12988-74.79625,12.19783-112.41794,16.38968-72.41226,8.06823-153.27542,7.35239-225.55292-1.53293-29.00562-3.56574-57.85854-9.50228-86.82205-13.33993.49987,13.25643,2.81319,27.50345,3.00508,40.66833.13403,9.19595-2.8044,27.03242-1.46592,33.86599.55993,2.85805,6.74586,9.82445,8.78196,13.80034,5.40372,10.55265,8.22386,22.23834,8.99472,34.64793,4.11944,66.33637-50.45278,153.40314-83.5068,199.2123-23.41258,32.44731-49.59806,58.72924-77.37543,86.81807-4.56914,4.6205-28.11318,26.31493-29.42896,29.3348-.80235,1.841.59984,1.9386,1.49778,2.96406.12927-.03355.25927-.06367.38818-.09709-.79173-.60726-1.55784-.96614-.91661-2.43673Z"/><path class="cls-1" d="M370.73046,1235.45252c1.33701.97758,2.67549,1.95572,4.00408,2.92904.82213.4378,1.41868.47478,1.96066.30789.61742-.18997,1.16307-.64695,1.87643-1.12526,5.61319-3.76427,19.934-21.7756,24.78145-28.03504,4.4417-5.73541,14.43397-17.42824,15.15685-24.03398.80345-7.34122-1.4044-13.92453-5.26676-19.88163-2.3503-3.62474-5.3118-7.01809-8.58494-10.20755-4.05535-3.95172-8.58531-7.59115-13.01199-10.97493-3.10725-2.37553-6.1625-4.62489-8.96726-6.7671-1.17735-.89917-2.31185-1.78017-3.38556-2.64304,9.56198-1.23947,18.49371-1.45841,27.44889-.84332,3.3819.23231,6.76856.58314,10.19258,1.04524,3.95904.53429,7.96789,1.21209,12.0844,2.02617,4.48308.88663,14.65552,5.34494,17.37862,5.21746,3.53168-.1653,10.75178-12.44859,11.20367-15.87265.85472-6.47684-3.00581-13.40736-9.09104-19.91656-3.36286-3.59714-7.4043-7.06574-11.7072-10.25767-2.07016-1.53577-4.20074-3.00654-6.3445-4.39785-8.40257-5.45316-17.00839-9.66863-23.00939-11.6596-.35302-.11709-.70018-.22934-1.03453-.33087,10.51631-5.09684,21.62074-5.87255,32.70283-4.41606,5.96145.7835,11.91521,2.21105,17.76826,3.9681,7.18457,2.15686,14.21681,4.80031,20.91872,7.34103,6.54921-9.54028,1.98959-21.97687-5.64908-32.93894-6.14968-8.82563-14.29481-16.69583-20.24967-21.32667-.6837-.53145-1.38023-1.03645-2.08187-1.53055-4.66765-3.28596-9.68356-5.84243-14.38599-8.85428-1.88669-1.20848-3.72064-2.4944-5.46158-3.93011-.32665-.26934-.65368-.53841-.97337-.81902,11.2901-.92879,22.00708.19427,32.32015,2.87581,5.74319,1.49338,11.36151,3.46915,16.88205,5.84829,5.2642,2.26864,10.44087,4.89991,15.55382,7.82525,2.07089-10.83216,3.00398-24.89314-1.2407-36.02211-1.65598-4.34154-4.10333-8.23302-7.57788-11.315-.71263-.63189-1.46006-1.23631-2.26132-1.79678-12.65201-8.8509-27.66055-11.00629-42.62552-9.1337-4.05316.50719-8.10302,1.30744-12.10234,2.35305-8.74204,2.28576-17.24056,5.73202-24.99898,9.78573-2.93806,1.53513-5.77066,3.15687-8.46922,4.83628-45.48228,28.30599-75.40928,85.24792-88.57434,135.87355-2.15731,8.29697-9.60739,38.02058-7.65844,44.44885.85619,2.8244,26.88273,26.61055,31.31088,30.46285,11.08575,9.64396,23.17235,18.69069,35.17215,27.49356,2.00424,1.47018,4.00299,2.93408,5.99697,4.39212Z"/><path class="cls-1" d="M310.57618,875.56563c23.02733,20.59802,49.58341,38.58152,80.11757,55.92196,3.82135,2.17013,7.70239,4.33065,11.64898,6.48466,2.57259,1.40394,8.30003,6.64387,9.52755,6.87934.05127.00989.11609.00824.17065.01538,3.07099.40191,10.95209-3.43976,14.84558-4.03805,20.54007-3.15605,41.62614-2.2561,60.84934,5.88116-.11499-21.07875,1.17771-42.42667-3.67011-63.11212-.01501-.06427-.0271-.1289-.04211-.19308-.54967-.07269-1.10154-.15188-1.65488-.2341-5.98489-.89006-12.15031-2.3417-18.09125-4.40938-8.29784-2.88789-16.1533-6.97776-22.46447-12.41142-9.61508-8.27879-15.64134-19.67775-14.15345-34.71412,1.40659-14.21186,7.36877-23.14232,15.7838-29.01716.44677-.31182.8994-.61596,1.35972-.91093,4.38604-2.8109,9.37045-4.87089,14.68628-6.46242,5.13932-1.53861,10.58515-2.64199,16.0947-3.56812,11.872-1.99573,24.03403-3.17243,34.03362-6.12258,19.16607-5.65439,34.79569-16.00242,48.80596-28.56123,24.04098-21.55061,43.31032-49.6171,67.42967-71.74164,19.27629-17.6822,41.65178-31.56741,72.05777-35.2713,42.78848-5.2121,72.23941,4.43685,95.95594,20.79971,29.16749,20.12342,49.66288,50.40133,75.61655,75.69272,20.79092,20.26047,45.08532,37.32031,80.15273,43.39061.27356.04733.54088.08917.81151.13357,6.97657,1.14549,12.86771,1.33033,18.49115,2.04306,5.89993.74779,11.51019,2.08114,17.78584,5.7301,1.78159,1.03581,3.61664,2.25802,5.52713,3.70654,37.61657,28.51976,11.32708,76.11102-29.9204,79.02308l2.92488,47.39241c.17321.97218.75145,1.73334,1.59922,2.34591.56396.40777,1.2462.75017,2.01596,1.04075,1.7717.66933,3.98834,1.07408,6.19985,1.41895,2.47042.38525,4.93241.6968,6.75318,1.22157,11.33624,3.26691,22.22461,8.88212,33.52459,11.04602,184.70203-61.84926,245.58322-270.26324,203.18292-446.59327-32.10884-133.53167-122.18683-242.41317-241.77506-305.98231-.51598-.27337-1.02867-.55114-1.54612-.82286-.8972-.47314-1.801-.93675-2.70186-1.40476-1.63071-.84447-3.26215-1.68784-4.90458-2.51638-.24243-.12268-.48595-.24426-.72875-.36657-5.16825-2.60482-10.38264-5.13566-15.65343-7.57202-72.57632-33.54711-154.71571-54.62605-235.23537-50.98762-.25598.01154-.51232.01685-.76793.02893-1.70578-1.51334,7.48596-9.95949,9.01267-11.30786,15.54247-13.72609,37.33862-22.79534,57.25357-27.86563,3.00142-3.90484-15.41576-13.98005-21.23659-16.681-.61449-.28527-1.09092-.48962-1.38462-.59435-17.28304-6.16817-37.71544-5.4321-55.43646-1.2711-27.64554,6.49116-51.97802,26.46709-54.51143,56.22106-.1593.19537-.42663.22723-.76683.14557-3.90374-.9362-18.638-18.67462-20.05118-20.7369-3.65656-5.33744-13.81288-24.29678-13.81288-29.87152v-23.34849c-32.22493,13.53859-45.37974,49.03795-23.21812,78.20012,1.57724,2.07547,13.06289,12.04411,11.15973,13.68013-67.54356,7.57513-128.44893,40.99407-182.7399,80.1205-162.41333,117.04842-268.9947,314.11829-196.882,515.67956,20.85097,58.28014,49.48197,100.0177,87.9712,134.44691ZM1192.94394,477.15604c.9785.50216.9785,1.00423,0,1.50629v-1.50629ZM847.23407,563.01882c4.82878-24.47851,18.97601-51.26951,36.15285-69.29283,67.10302-70.40921,182.80655-50.55898,224.44771,36.15285,13.80043,28.73701,17.85945,58.86561,12.05107,90.38166-2.72493,14.78433-9.91939,31.77166-18.04438,44.45425,10.92023-.01419,21.21242-6.8841,30.8784-9.78564,2.10678-.63244,2.67769.15609,2.217,2.2171-13.90663,15.49065-29.2378,32.95606-46.68453,44.45801-60.79807,40.08021-145.41117,45.38515-200.3463-7.53183-13.96229-13.4497-31.535-39.39165-37.65905-57.24194-7.41602-21.61598-7.40393-51.55222-3.01277-73.81162ZM328.34481,653.34811c-8.10448-18.50626-12.29606-37.01059-12.85599-57.18939-.65331-23.52015,6.32802-53.28382,18.07624-73.81162,53.79879-94.00315,194.27682-91.37068,244.03052,4.51906,11.50872,22.18094,16.02659,48.98659,15.06347,73.81162-.84447,21.7696-8.28685,48.99062-19.58281,67.78654-6.0303,10.03401-21.76392,27.01036-30.92527,34.60133-14.53833,12.04622-31.99605,19.28398-48.91142,27.15931-6.33827-1.03901-22.81933,4.04107-30.89707,4.50395-31.22519,1.78909-75.53379-9.85732-102.67396-25.33524-6.39577-3.64786-19.01665-14.32841-24.59725-15.32128l-21.09157-20.33316-12.01665-16.58917,33.09906,9.80147c.61156-.60351-5.75674-11.4104-6.7173-13.60341Z"/><path class="cls-1" d="M361.20913,971.55828c-15.64684-7.82497-30.22802-17.4633-44.31958-27.67062-.49291-.35696-.98656-.71291-1.47837-1.07124-.16443-.11975-.32556-.24279-.48962-.36282-12.96585-9.48141-25.19929-19.66987-36.69373-30.48088-.57604-.54464-1.15428-1.08626-1.72702-1.63465-.23364-.22338-.45995-.45464-.69286-.67876-96.29174-92.15171-139.33803-228.65577-119.2744-362.70534.37426-2.5009.82433-5.01399,1.3209-7.53293,2.22726-11.29724,5.41471-22.71477,7.16443-33.7033.19153-1.20161.99388-3.55274.234-4.49681-.25232-.31311-.67565-.47176-1.35056-.38195-.04431.10675-.08606.21423-.13037.32098-1.08433,2.61571-2.14266,5.23911-3.18855,7.86608-37.20385,93.44432-50.07742,193.88169-39.91047,291.78345,11.49004,110.64533,52.40282,218.04736,120.94429,308.43167,2.07748,2.7393,23.03172,30.01438,24.68038,28.77395.03259-.15184.06848-.30299.10107-.45483,13.74257-63.82654,43.42421-124.47355,94.81045-166.002Z"/><path class="cls-1" d="M1276.20977,498.74556c-5.78567-14.24153-11.33844-26.71629-13.3738-27.97842-.0271-.01685-.0564-.04138-.0824-.0542-2.75349-1.36457-2.26717,1.23558-1.66513,3.17207,13.37197,43.01406,19.49052,90.18967,19.0064,137.29333-.04065,3.93881-.12304,7.87652-.25561,11.81176-.98839,29.31003-4.51311,58.45481-10.44892,86.41154-1.73837,8.18688-3.68292,16.27103-5.82888,24.22839-.7423,2.75258-1.50657,5.49133-2.2972,8.21233-28.78517,99.07801-94.798,189.44951-190.54043,232.00188l29.31763,21.11556c44.3562,36.70481,65.02224,80.92817,73.54603,137.34606.0791.52344.14575,1.38947.25708,2.34069.22485,1.92537.64122,4.1925,1.72775,4.73475.13257.06615.27539.1057.42883.11622.04651.0032.08899.01822.13733.01584.2893-.42613.58703-.84836.88072-1.27247,8.8541-12.786,19.73954-24.68125,28.98731-37.40705,8.83213-12.15388,17.15743-24.53948,24.99824-37.1253,1.01182-1.62448,2.01156-3.25382,3.00727-4.88499,19.27556-31.5859,35.45376-64.43302,48.52251-98.20608,15.88633-41.05459,27.18376-83.47174,33.86699-126.64638,14.84119-95.87638,6.95863-195.47404-23.85678-292.11532-1.56516-4.90934-9.12876-25.37269-16.33494-43.11019Z"/><path class="cls-1" d="M936.82133,1198.09029c-9.50265,4.54955-18.48419,10.22586-27.48624,15.87407-5.57107,3.4957-11.15021,6.97973-16.86703,10.17615-80.30946,44.90551-168.21841,74.73642-258.56885,92.41331-14.81116,2.89778-30.65025,4.1627-45.24168,7.49718-1.66916.38145-4.87053.00458-4.49187,2.24749,27.24821-.40072,54.43416-.31951,81.58459.32125,13.01236.30711,26.01629.74614,39.0151,1.32539,28.35048,1.26327,56.6757,3.18832,85.00421,5.90725,24.52694,2.35406,48.91069,6.85375,73.4911,8.7571,24.899-18.86761,43.55348-44.32288,56.3864-72.64832,1.983-4.3767,3.82794-8.82027,5.53372-13.3207,7.27649-19.19825,12.054-39.3928,14.42774-59.53265.01318-.11137.0293-.22274.04211-.33412-.23913.10739-.4746.22288-.713.33178-.70787.32327-1.41465.64873-2.1163.98482Z"/><path class="cls-1" d="M781.39116,1162.77335c-2.16683,11.29788-2.59236,22.74846-5.1569,34.00876-5.57034,24.45928-18.90093,46.24243-35.41458,64.74287.58629-.14808,1.17479-.31352,1.76181-.46796,16.14597-18.30654,29.14149-39.77905,34.62211-63.84471,2.56453-11.26025,2.99006-22.71088,5.15653-34.00867,29.42566-4.05343,59.85949-8.13332,89.71361-6.66305,9.89486.48733,34.14934,2.36019,42.92983,5.14129-.33947-.18525-.6372-.32551-.86754-.39958-8.69773-2.79813-33.10016-4.6828-43.03164-5.17191-29.85412-1.47031-60.28831,2.60967-89.71324,6.66296Z"/><path class="cls-1" d="M1133.5466,1112.09078c-1.14805-4.48381-2.47957-8.87195-3.96637-13.17385-12.49711-36.16209-36.69227-65.83055-68.31589-87.77547-11.11249-7.71136-28.89027-17.91456-47.83002-26.65148-5.57547-2.57204-11.25091-5.01756-16.8879-7.23419-18.17255-7.14594-35.93385-11.92024-48.58111-10.93561-31.07944,2.41988-58.03139,23.98441-66.29297,51.98333-3.52545,11.94707-3.65033,25.06471.76354,38.36802.21826-.19793.43908-.39477.65844-.59215,15.71275-14.14741,33.90105-27.08122,55.69574-28.72694.27978-.02124.55773-.04889.83898-.06628-15.28576,11.80461-43.57802,50.34045-35.33584,70.03009,1.46006,3.48865,3.45002,4.98405,5.72671,5.2403,6.16652.69405,14.45447-7.78002,20.15189-10.9314,14.50464-8.02318,28.75624-12.55543,45.63975-10.83316-.16333.1376-.33435.28253-.50024.42297-12.92447,10.92041-34.64005,30.05755-36.90576,47.41841-.76244,5.84262,7.75329,12.43563,13.57412,17.63409.94517.84415,1.81784,1.65136,2.56966,2.41274.42004.42548.80638.83838,1.14109,1.23352.05456-.03516.11023-.06944.16516-.10451,8.65232-5.53272,17.92683-10.32469,27.61734-13.92013.53869-.19981,1.07811-.39706,1.61936-.58941,10.10433-3.59151,20.64407-5.86619,31.39108-6.30394-.10876.13627-.22155.2731-.33142.40951-11.73247,14.56076-28.81154,29.85092-25.69953,50.41762,22.05908,18.85653,44.25147,38.29949,67.16088,55.8592,2.009,1.53985,4.0213,3.07049,6.04165,4.57962,8.17479-5.74635,38.53135-28.29358,58.4203-45.75584,5.0734-4.45438,9.46164-8.57533,12.63041-12.00443,3.02485-3.27355,4.94267-5.91851,5.26603-7.61042,2.28072-11.92368-1.73544-41.23009-5.18876-57.45306-.4248-1.99545-.84154-3.80469-1.23631-5.34714Z"/><path class="cls-3" d="M887.90588,694.07238c54.93513,52.91697,139.54823,47.61204,200.3463,7.53183,17.44673-11.50195,32.7779-28.96736,46.68453-44.45801.46069-2.061-.11023-2.84953-2.217-2.2171-9.66598,2.90153-19.95817,9.77145-30.8784,9.78564,8.12499-12.68259,15.31945-29.66992,18.04438-44.45425,5.80838-31.51605,1.74936-61.64464-12.05107-90.38166-41.64116-86.71182-157.34469-106.56205-224.44771-36.15285-17.17684,18.02332-31.32407,44.81432-36.15285,69.29283-4.39116,22.2594-4.40325,52.19564,3.01277,73.81162,6.12404,17.85029,23.69675,43.79225,37.65905,57.24194ZM935.73993,500.14831c58.91834-7.68179,66.39331,84.6207,8.62413,88.48032-55.3515,3.69794-63.24065-81.35937-8.62413-88.48032ZM925.61766,693.26646c71.19902,29.29328,151.62933-8.73463,168.24368-84.71967l3.41156-19.91074c20.02482,118.15821-127.889,171.99252-203.34149,88.88141,11.38751,3.33292,20.66128,11.21274,31.68624,15.74901Z"/><path class="cls-2" d="M1192.94394,477.15604v1.50629c.9785-.50207.9785-1.00413,0-1.50629Z"/><path class="cls-3" d="M572.7148,1019.05469l51.60926,12.26988,189.44511,45.03981c10.45771,3.36616,16.7319-10.72266,10.47712-17.37001-2.38729-2.53688-13.63161-4.5977-17.66316-5.67581-20.94692-5.6022-42.03959-10.72724-63.19818-15.63805-55.74261-12.93765-111.95579-24.33926-167.26811-38.69669-12.74063-.97887-14.85766,16.42575-3.40204,20.07087Z"/><path class="cls-3" d="M672.20168,972.36274c-25.60431-5.80609-63.39336-18.48181-88.01222-20.51828-4.01434-.33233-12.559-.05109-14.12562,4.33458-1.6633,4.65593,1.02025,14.09468,7.16883,14.67337l242.34634,56.05141c13.5873.88567,15.60362-15.74974,3.58368-20.29215-48.50274-9.95821-96.41259-22.91079-144.64104-33.86269-1.63657-.37161-4.08978.11929-6.31996-.38625Z"/><path class="cls-3" d="M538.42484,1148.24568l169.70521,39.81398c12.98379.99443,15.76659-16.46723,3.23835-19.94356l-168.05948-39.83188c-2.76521-.62314-5.53665-.68842-8.31248-.06802-11.37945,2.54476-8.43883,19.63462,3.42841,20.02948Z"/><path class="cls-3" d="M553.76186,1099.76862l166.35223,38.52901c15.34545,3.59558,22.65087-13.16868,7.32666-19.39398l-167.56803-38.83841c-2.25729-.51763-4.53545-.7596-6.80226-.08496-9.37668,2.79085-9.4609,17.55458.69139,19.78834Z"/><path class="cls-3" d="M721.07172,932.46572c-13.50454-1.64234-18.96355,9.4154-8.99546,18.02552l80.92872,19.24507c13.99196-.12872,34.61076,9.74654,45.87925,8.97724,7.16736-.48916,11.53509-8.29994,9.8564-15.00277-1.90134-.43285-9.0936-5.19837-15.04809-6.79429-31.20359-8.36348-81.32825-20.64508-112.62082-24.45077Z"/><path class="cls-3" d="M638.96383,1206.61787c-1.24803-1.32465-5.93655-2.61013-7.98986-3.30193-33.5689-11.31047-72.90334-16.22407-107.04132-27.08003-14.65405-2.54471-20.60635,13.76326-5.89883,19.51533,32.95917,12.89018,77.59076,16.20786,111.74376,28.48575,9.93367,2.11731,14.9591-11.49101,9.18625-17.61912Z"/><path class="cls-3" d="M301.96304,657.15005l12.01665,16.58917,21.09157,20.33316c5.5806.99287,18.20148,11.67342,24.59725,15.32128,27.14018,15.47792,71.44877,27.12434,102.67396,25.33524,8.07775-.46288,24.5588-5.54297,30.89707-4.50395,16.91537-7.87533,34.37309-15.11309,48.91142-27.15931,9.16135-7.59097,24.89497-24.56731,30.92527-34.60133,11.29596-18.79592,18.73834-46.01694,19.58281-67.78654.96312-24.82503-3.55475-51.63068-15.06347-73.81162-49.7537-95.88974-190.23172-98.52221-244.03052-4.51906-11.74822,20.5278-18.72955,50.29147-18.07624,73.81162.55993,20.1788,4.75151,38.68314,12.85599,57.18939.96056,2.19302,7.32886,12.99991,6.7173,13.60341l-33.09906-9.80147ZM406.98804,501.62127c67.2191-10.73209,69.9433,96.55642-.23217,86.87433-44.23755-6.10345-45.72361-79.53714.23217-86.87433ZM339.60524,594.65947c2.16903-.35293,2.10128,2.65297,2.53817,4.20348,2.01083,7.14063,2.80257,14.94189,5.07121,22.05844,22.03858,69.13472,101.0568,100.52269,166.62066,71.90451,4.92179.09649,30.80735-19.63206,32.11873-18.32892,1.63803,1.6276-2.19503,4.19231-3.1468,5.12284-6.25405,6.11288-15.21911,13.3099-22.58056,18.09107-81.65856,53.03279-192.46557-2.6505-180.62141-103.05143Z"/><path class="cls-3" d="M792.31579,755.38927c-.37646.17816-.75328.37179-1.13047.58126s-.75402.43478-1.13121.67638c-.55627.35641-1.09129.79769-1.60215,1.309-.17029.17038-.33764.34854-.50243.53402-.21972.24719-.43432.50719-.64379.77873-.36657.47515-.7152.98839-1.04808,1.52698-.25708.41592-.5039.84822-.73973,1.29463-.1571.29681-.31054.59746-.45776.90544-.10876.22842-.21496.45959-.31823.69323-.41345.93428-.78112,1.90683-1.09825,2.89284-.0791.24646-.15527.49374-.22815.74156-.21862.74321-.40832,1.49045-.56689,2.23129-.05273.24691-.10217.49309-.14795.73827-.27502,1.4705-.42297,2.90089-.42736,4.20724-.00073.24179.00439.47799.01355.71071.01611.41637.05456.81105.1029,1.19419.02234.17395.04138.35119.07068.51726.0022.01236.00989.03516.01392.05081.00732.02939.01282.05557.02637.09576.00513.01556.01428.03873.02014.05585.02527.07196.05786.15793.09704.25589.06225.15527.13769.33471.23108.54674.04321.09851.08972.20224.13916.31182.19702.4356.43798.95021.71447,1.5257.22375.46636.46947.96944.72875,1.49439.34057.68892.70531,1.41538,1.07664,2.14578,1.6102,3.16474,3.35151,6.40126,3.83966,6.96485,2.0383,2.35213,5.05143,4.31609,8.41575,5.61502.48083.18548.96861.35742,1.46189.51507,2.36715.75649,4.85734,1.18156,7.2699,1.18595.00623,0,.01245-.00037.01904-.00037,1.16709.00101,2.31515-.09924,3.42292-.30541.11389-.02124.22705-.04449.3402-.06802.48852-.10171.96861-.22476,1.43809-.37032,1.40842-.4367,2.72163-1.07536,3.8847-1.94336.82103-.61257,1.556-1.28089,2.21041-1.99646.28125-.30761.54345-.6263.7954-.95085.41674-.53722.7921-1.09715,1.13011-1.67639.20837-.35751.40246-.72188.58153-1.09358.08642-.17907.16992-.35943.24975-.54162.21569-.49319.41271-.99498.5808-1.50867.39477-1.2071.6599-2.46676.80492-3.75992.04101-.36373.07214-.73003.09411-1.09861.04394-.73717.0509-1.48322.02234-2.23477-.01428-.37573-.03735-.75292-.06921-1.13093-.04211-.50408-.09997-1.0099-.17248-1.51636-.29003-2.02585-.81774-4.06249-1.55015-6.04531-.27465-.74358-.57824-1.47947-.90855-2.20455-.33032-.72499-.6881-1.439-1.07078-2.13873-.38305-.69973-.791-1.38499-1.22276-2.05249-.43212-.66759-.88731-1.31724-1.36448-1.94583-.42443-.55865-.86607-1.10072-1.32346-1.62357-.45776-.52285-.93126-1.02656-1.41978-1.50876s-.99205-.94289-1.50913-1.37968c-1.29234-1.09184-2.67037-2.03436-4.11431-2.79002-.57787-.30221-1.166-.57467-1.76364-.81471-.89647-.36016-1.81418-.64763-2.74873-.85445-.58263-.12881-1.17222-.2232-1.76694-.28738-.06225-.00677-.12414-.01447-.1864-.02051-1.89181-.18182-3.83893-.02765-5.81021.52825-.6643.18731-1.33152.42013-1.99984.70073-.25085.10528-.5017.21716-.75292.33599Z"/><path class="cls-3" d="M621.27979,785.96033c.17138.50674.36657.99544.57421,1.47434.18896.43551.38671.8636.60351,1.27577.15161.28839.30981.57091.47424.84767.21936.36904.4497.72756.68993,1.07554.46508.67272.96568,1.30763,1.5073,1.89337.04614.0498.08752.10547.13403.15472,1.07994,1.13945,2.30013,2.1022,3.63056,2.86244.79796.45611,1.63584.83916,2.50667,1.14384.92906.32501,1.89548.56048,2.89192.7.49804.06976,1.00377.11545,1.51572.13632.76793.03122,1.55051.0065,2.34408-.07699.79393-.08359,1.59848-.22604,2.41109-.43011,1.19053-.29882,10.40937-4.62114,10.84406-5.03147.17358-.16397.35339-.35943.53722-.58043.03223-.03863.06482-.08093.09741-.12121.30249-.37591.61596-.82195.93565-1.32383.12634-.19848.25305-.40484.38085-.61998.05933-.09952.11828-.19995.17761-.30285.16369-.28344.32775-.57796.49181-.88384.2904-.54107.58007-1.11464.86571-1.70999.07251-.15097.14465-.30303.21643-.45666.22558-.48229.44787-.9763.66466-1.47809.09448-.21853.18786-.43807.28015-.65889.24646-.58959.48449-1.18595.71154-1.78104.38012-.99754.7174-1.98245,1.01842-2.93495.2373-.75182.45629-1.48679.62804-2.1683.07471-.29663.14245-.58465.20288-.86296.05273-.24371.09778-.47698.13879-.7043.09888-.55141.16369-1.0544.18457-1.48899.17871-3.7167-.45519-6.9871-1.67722-9.75286-.24462-.55315-.51232-1.08607-.80235-1.59839-.28967-.51223-.60094-1.00395-.93236-1.47443-.33142-.47057-.68297-.92-1.05247-1.34782-.78807-.91277-1.65927-1.72721-2.59529-2.43874-.70238-.53374-1.44138-1.00972-2.20968-1.42591-.51195-.27749-1.03746-.52834-1.57322-.75209-.80419-.33581-1.63291-.61046-2.47884-.82222-1.40952-.35293-2.86702-.53109-4.33806-.5256-.50133.00183-1.0045.03058-1.50803.07544-.8463.07562-1.69333.207-2.53487.40695-.89427.21249-1.78232.4963-2.65608.85335-.87413.35705-1.73361.78734-2.57149,1.29289-.41894.25268-.83238.52431-1.2396.81499-.61046.43597-1.20665.91478-1.78488,1.43735-.5786.52267-1.13926,1.08891-1.67905,1.69992-.4519.5115-.88146,1.06199-1.30003,1.62897-1.86472,2.52599-3.3863,5.55469-4.3919,8.77079-.2146.68691-.39733,1.38343-.56396,2.08343-.22119.92805-.3999,1.86343-.5299,2.8011-.09338.67162-.16919,1.34333-.21277,2.01312-.03735.57751-.05566,1.15327-.0542,1.72556.0033,1.25654.11316,2.49267.31713,3.69656.16772.9893.39587,1.9581.71007,2.88853Z"/><path class="cls-3" d="M844.2213,829.64482c-.12707.00284-.25451.00513-.38159.00787-12.22978.27053-24.47237.49694-36.71497.72985-12.2426.23281-24.48519.47222-36.71534.76857-3.04756.07388-6.08706.13888-9.1196.19564-3.03254.05685-6.05813.10528-9.07859.14612-6.04055.08148-12.05913.13202-18.06745.15573-4.00518.01584-8.00597.01978-12.00529.01309s-7.99718-.02399-11.99687-.05072c-7.99975-.05347-16.00682-.14438-24.04831-.26275-4.02056-.05933-8.04992-.12543-12.09062-.19711-4.69914-.0834-9.38327-.13943-14.05568-.18319-9.34445-.08752-18.64166-.12616-27.91543-.23758-23.1848-.27841-46.22494-1.01127-69.49983-4.09829-1.20188-.15948-2.49202-.05768-3.76715.00604-.76537.03827-1.52524.0628-2.25802.00897-.0758.05493-.13366.11261-.17431.17267-.04065.06024-.06445.12286-.07178.18786-.01135.10473.01941.21551.08972.33196.06995.11645.17944.2384.32482.3652.21826.19033.51708.39156.88585.60177.12304.07013.25378.14117.39184.21313.20691.10812.43102.21826.67015.33032.27795.13009.57641.26266.89391.39733.27392.11627.56176.234.86205.35311.20178.07992.40905.16049.62182.24142.1311.04999.26403.10016.3988.15042.29187.10867.58959.21789.89793.32784.23767.08496.48156.17019.72802.25561.29296.10144.59142.20324.895.30523.32116.10794.64818.21606.98033.32427.28527.09292.57384.18594.86571.27887.28417.09054.56981.181.85912.27127.65807.20526,1.32786.40969,2.00387.61211.4508.13495.90416.26898,1.35825.40182.45409.13275.90892.26422,1.36301.39422.7943.22741,1.58603.44988,2.36458.66558,1.55747.4313,3.06404.8354,4.44097,1.19712.34423.09045.68041.17825,1.00743.26312.36804.09558.72399.18741,1.06639.27529,2.39754.61513,4.13372,1.03499,4.61198,1.14393,6.59352,1.50171,13.0347,2.67769,19.4279,3.63751,3.51667.52788,7.01832.9904,10.52326,1.40586,3.94293.46728,7.88988.87477,11.86504,1.24858,6.62575.62301,13.33059,1.15226,20.22989,1.70789,9.54293.76848,19.12249,1.44193,28.72218,1.9852,3.1999.18109,6.40199.34771,9.60592.49859,4.27141.20114,8.54612.37426,12.82193.51626,2.1379.07095,4.27617.13421,6.41481.18924,2.16757.05575,4.3355.10281,6.50343.14145,4.24944.07571,8.49888.11764,12.74686.12277,2.12399.00256,4.24724-.00412,6.3705-.02032,2.12289-.0162,4.24541-.04202,6.36684-.07782.07251-.00119.14502-.00265.21753-.00394,4.09454-.07031,8.18651-.17907,12.27446-.32647.12927-.00467.25854-.00751.38818-.01227,2.81062-.10309,5.66665-.22512,8.55455-.36456l.44054-.02142c2.80147-.13678,5.6337-.29058,8.48753-.46087,1.59482-.09512,3.19587-.19473,4.80278-.3001,1.52012-.09979,3.04463-.20398,4.5728-.31274,3.05598-.21762,6.12478-.45327,9.19577-.7065,2.94282-.2427,5.88711-.50252,8.82407-.77718,1.66037-.15527,3.31855-.31475,4.97233-.48009,3.81549-.38159,7.60901-.78963,11.35858-1.22358,3.74957-.43386,7.45557-.89363,11.09637-1.3783,2.45138-.32647,4.92253-.67363,7.40393-1.04231,5.40482-.803,10.86017-1.71759,16.28696-2.78819,1.34507-.26541,2.68904-.53759,4.02935-.82295.3706-.07883.74047-.15884,1.11033-.23922,2.99043-.65056,5.96401-1.3523,8.9061-2.11593.9807-.25451,1.9581-.51598,2.9311-.78459,2.03903-.56286,4.06085-1.15666,6.06032-1.78433.99937-.31375,1.99362-.63601,2.98164-.96706.2395-.08011.505-.15976.79027-.24032.28564-.08075.59105-.1625.91039-.24719.42553-.11297.8756-.23108,1.33518-.35861s.9287-.2644,1.39268-.41491c.23217-.07526.46288-.1539.69066-.23648,1.82077-.66063,3.44013-1.57267,3.9118-3.00581l-18.45526,1.53019-17.69026,1.46683Z"/><path class="cls-3" d="M641.81253,730.45951c.26623-.00183.56689-.03973.89684-.10913.49511-.10419,1.05613-.27905,1.6666-.50976.6101-.23071,1.27-.51699,1.96213-.84374.23071-.10895.46508-.22238.70238-.33966.4746-.23474.96129-.48522,1.45493-.74687.98729-.52331,2.00277-1.09147,3.00654-1.66861.25085-.14428.50097-.28912.74999-.43395.74669-.43432,1.48093-.86873,2.18624-1.28776.70568-.41903,1.38206-.82277,2.01303-1.19603.42077-.24884.82103-.48412,1.19603-.70128.26989-.15628.52111-.29928.7628-.43523.15344-.08615.30102-.16772.44164-.24462.20178-.11023.39001-.21011.56396-.29901.17834-.09119.3468-.17486.49255-.24105,2.47408-1.12214,4.93717-2.17535,7.39111-3.16017,2.45394-.98482,4.89872-1.90124,7.33582-2.74983s4.8665-1.62915,7.29004-2.34234c2.42318-.71318,4.8405-1.3588,7.25342-1.93759,2.41292-.5786,4.82109-1.09038,7.22669-1.5355,2.40523-.44512,4.8079-.82369,7.20911-1.13624,2.40121-.31246,4.80095-.55892,7.20105-.73983,2.40011-.18072,4.80058-.29589,7.20252-.34597,1.20115-.02499,2.40267-.03378,3.60492-.02628,1.25572.00787,2.51217.03552,3.76971.07873,2.35397.08093,4.71123.22155,7.07325.42571,2.41585.20874,4.83683.48183,7.26404.81865,2.42757.33691,4.86137.73754,7.30359,1.20143,2.44222.46389,4.8925.99123,7.3523,1.58136,1.23008.29498,2.46236.60579,3.69757.93227,4.63139,1.22413,9.29977,2.66854,14.01576,4.3301,1.57175.55388,3.149,1.13185,4.7321,1.73389.2893.11014.60863.2416.9525.39074.22888.09942.46911.20663.71886.32052s.50902.23455.77672.36053c.26733.12616.54272.25772.82469.39367.28198.13605.57055.2763.86424.41985.29406.14355.59289.29031.89537.43908.30249.14886.609.29974.91734.45153.30871.15179.61925.3045.93089.45702.93419.45739,1.8757.91267,2.78426,1.33482,2.11996.98491,4.06268,1.78937,5.32572,2.01852.27099.04925.51049.07187.71373.06427.20361-.0076.3706-.04541.49694-.11746.11059-.06308.18969-.15225.234-.27017.30981-.8257-1.08214-3.06083-5.3096-7.59729-.77306-.82945-1.56077-1.64188-2.36312-2.43728-.80199-.7954-1.61826-1.57377-2.44845-2.33511-3.31965-3.04518-6.85645-5.81698-10.56831-8.31221-1.85593-1.24757-3.7558-2.42611-5.69375-3.53498-6.9773-3.99209-14.45228-7.08249-22.17847-9.25244-4.29229-1.20555-8.66221-2.12692-13.06692-2.76082-2.6429-.3804-5.29862-.65734-7.95763-.83-2.65865-.17267-5.32096-.24133-7.97741-.20498-.02417.00027-.04834.00156-.07251.00192-2.63301.0379-5.26053.17779-7.87341.42242-.98326.0921-1.96359.20251-2.94209.32391-1.52341.18905-3.04023.41436-4.54973.67492-.28637.04944-.57238.10144-.85838.15344-6.75392,1.22926-13.34268,3.17362-19.60295,5.85653-1.60325.687-3.18488,1.42225-4.74272,2.20574-3.11494,1.5669-6.1332,3.32706-9.03318,5.28205-3.1717,2.13827-6.20168,4.50963-9.06174,7.11628-1.14402,1.04277-2.26058,2.12307-3.34858,3.2411-1.08763,1.11812-2.14633,2.27395-3.17426,3.46778-1.79843,2.0892-3.50275,4.29448-5.1027,6.61659-1.59995,2.32229-3.0959,4.7613-4.47759,7.31806v.00009c.22302.17056.53759.24728.92503.24801.00879,0,.01575.00174.02454.00165Z"/><path class="cls-3" d="M871.89321,75.26018c-14.56214-3.36762-41.33831-5.50845-53.09458-9.8088-1.76877-.64708-2.07565-3.65363-4.21136-5.15873-39.06527-27.52964-90.93307-36.94586-135.92464-18.54828-10.58405,4.32818-19.48173,11.35345-29.72339,16.20585-.65221-44.58856-45.76463-51.58142-74.56408-24.08584-13.35915,12.75418-19.8505,30.13885-27.24601,46.56552C288.55994,149.32146,92.69489,371.4987,52.66357,635.89817c-37.89854,250.3134,59.75182,490.41106,255.14044,646.66794,3.00544,2.40359,21.67823,14.66623,21.8888,16.00563.29699,1.88925-.58776,3.02916-1.54245,4.47315-8.10302,12.25564-29.93249,27.07847-40.01045,39.82066-3.92169,4.95846-8.3242,9.72984-6.11159,16.65921,1.26377,3.95845,6.38405,8.63543,10.60346,9.0795,8.65562.91103,44.61364-11.62,56.51347-14.44303,11.2088-2.65897,42.20621-10.85257,51.84143-9.74819,7.86315.90132,52.26366,25.28613,64.64542,30.38091,370.9857,152.65191,787.35809-55.36171,900.72487-434.46425,112.38096-375.80568-111.79649-776.57592-494.46376-865.06952ZM419.48698,225.43916c54.29097-39.12643,115.19634-72.54537,182.7399-80.1205,1.90317-1.63602-9.58248-11.60467-11.15973-13.68013-22.16162-29.16218-9.00681-64.66153,23.21812-78.20012v23.34849c0,5.57474,10.15633,24.53408,13.81288,29.87152,1.41318,2.06228,16.14744,19.8007,20.05118,20.7369.3402.08166.60753.0498.76683-.14557,2.53341-29.75396,26.86589-49.72989,54.51143-56.22106,17.72102-4.161,38.15342-4.89707,55.43646,1.2711.2937.10473.77013.30908,1.38462.59435,5.82083,2.70094,24.238,12.77616,21.23659,16.681-19.91495,5.07029-41.7111,14.13954-57.25357,27.86563-1.52671,1.34837-10.71845,9.79452-9.01267,11.30786.25561-.01208.51195-.01739.76793-.02893,80.51967-3.63843,162.65906,17.44051,235.23537,50.98762,5.27079,2.43636,10.48518,4.9672,15.65343,7.57202.24279.12231.48632.24389.72875.36657,1.64243.82854,3.27387,1.67191,4.90458,2.51638.90086.46801,1.80466.93163,2.70186,1.40476.51745.27172,1.03013.54949,1.54612.82286,119.58824,63.56914,209.66622,172.45064,241.77506,305.98231,42.4003,176.33004-18.4809,384.74401-203.18292,446.59327-11.29998-2.1639-22.18835-7.77911-33.52459-11.04602-1.82077-.52477-4.28277-.83632-6.75318-1.22157-2.21151-.34487-4.42815-.74962-6.19985-1.41895-.76976-.29058-1.452-.63299-2.01596-1.04075-.84776-.61257-1.426-1.37373-1.59922-2.34591l-2.92488-47.39241c41.24749-2.91206,67.53697-50.50332,29.9204-79.02308-1.91049-1.44852-3.74554-2.67073-5.52713-3.70654-6.27565-3.64896-11.88591-4.98231-17.78584-5.7301-5.62344-.71273-11.51458-.89757-18.49115-2.04306-.27063-.0444-.53795-.08624-.81151-.13357-35.06741-6.0703-59.36181-23.13014-80.15273-43.39061-25.95367-25.29139-46.44906-55.5693-75.61655-75.69272-23.71653-16.36286-53.16746-26.01181-95.95594-20.79971-30.40599,3.70389-52.78148,17.5891-72.05777,35.2713-24.11935,22.12454-43.38869,50.19104-67.42967,71.74164-14.01027,12.55881-29.63989,22.90685-48.80596,28.56123-9.99959,2.95015-22.16162,4.12685-34.03362,6.12258-5.50955.92613-10.95539,2.02951-16.0947,3.56812-5.31583,1.59153-10.30024,3.65152-14.68628,6.46242-.46032.29498-.91295.59911-1.35972.91093-8.41502,5.87484-14.3772,14.8053-15.7838,29.01716-1.48789,15.03637,4.53838,26.43532,14.15345,34.71412,6.31118,5.43366,14.16664,9.52352,22.46447,12.41142,5.94094,2.06768,12.10637,3.51932,18.09125,4.40938.55334.08221,1.10521.1614,1.65488.2341.01501.06418.0271.12881.04211.19308,4.84782,20.68545,3.55512,42.03336,3.67011,63.11212-19.22319-8.13726-40.30927-9.0372-60.84934-5.88116-3.89349.59829-11.77459,4.43996-14.84558,4.03805-.05456-.00714-.11938-.00549-.17065-.01538-1.22752-.23547-6.95496-5.4754-9.52755-6.87934-3.94659-2.15402-7.82763-4.31453-11.64898-6.48466-30.53416-17.34044-57.09024-35.32394-80.11757-55.92196-38.48923-34.42921-67.12023-76.16677-87.9712-134.44691-72.1127-201.56128,34.46867-398.63114,196.882-515.67956ZM938.46523,858.90102c-151.20087,29.16447-309.19558,32.84611-459.80393-3.27378-5.18729-1.244-11.57354-3.30582-16.58835-6.50774-1.98703-1.26881-3.74994-2.72118-5.14628-4.36818-3.14131-3.70572-4.39116-8.41484-1.90793-14.36567,1.6373-3.92297,4.16412-6.67061,7.24427-8.62724,2.60372-1.65396,5.6044-2.73921,8.80796-3.47657,8.59666-1.97861,18.6391-1.46793,26.31438-2.78142,101.07072-17.29668,123.07597-130.77351,203.96001-139.49056,109.22867-11.77193,119.27074,90.7323,201.13401,127.8706.03699.01675.07544.03241.11279.04925,6.43935,2.91096,13.66384,5.27756,20.99672,7.21424,6.75611,1.78433,13.60268,3.2053,20.0109,4.33861,4.75334.84062,12.04338.95378,19.09649,2.01431.40246.06052.80272.12597,1.20298.19299,8.79807,1.47214,16.97616,4.58305,19.06463,12.64762,6.05117,23.36689-28.95362,25.56513-44.49865,28.56352ZM266.29762,1138.01511c-1.64865,1.24043-22.6029-26.03465-24.68038-28.77395-68.54147-90.38431-109.45425-197.78635-120.94429-308.43167-10.16695-97.90176,2.70662-198.33913,39.91047-291.78345,1.04588-2.62697,2.10421-5.25037,3.18855-7.86608.04431-.10675.08606-.21423.13037-.32098.67492-.08981,1.09825.06885,1.35056.38195.75988.94408-.04248,3.2952-.234,4.49681-1.74973,10.98853-4.93717,22.40606-7.16443,33.7033-.49657,2.51894-.94664,5.03202-1.3209,7.53293-20.06363,134.04957,22.98265,270.55364,119.2744,362.70534.23291.22412.45922.45538.69286.67876.57274.54839,1.15098,1.09001,1.72702,1.63465,11.49444,10.81101,23.72788,20.99947,36.69373,30.48088.16406.12002.32519.24307.48962.36282.49181.35833.98546.71428,1.47837,1.07124,14.09156,10.20732,28.67274,19.84565,44.31958,27.67062-51.38624,41.52846-81.06788,102.17547-94.81045,166.002-.03259.15184-.06848.30299-.10107.45483ZM329.56134,1203.56684c-4.42815-3.85229-30.4547-27.63844-31.31088-30.46285-1.94894-6.42827,5.50113-36.15188,7.65844-44.44885,13.16507-50.62563,43.09206-107.56756,88.57434-135.87355,2.69856-1.67942,5.53116-3.30115,8.46922-4.83628,7.75842-4.05371,16.25693-7.49997,24.99898-9.78573,3.99932-1.04561,8.04918-1.84586,12.10234-2.35305,14.96496-1.87259,29.9735.2828,42.62552,9.1337.80126.56048,1.54868,1.1649,2.26132,1.79678,3.47455,3.08198,5.9219,6.97346,7.57788,11.315,4.24468,11.12897,3.31159,25.18995,1.2407,36.02211-5.11295-2.92534-10.28963-5.55661-15.55382-7.82525-5.52054-2.37914-11.13885-4.35491-16.88205-5.84829-10.31306-2.68154-21.03005-3.80459-32.32015-2.87581.3197.2806.64672.54967.97337.81902,1.74094,1.43571,3.57489,2.72163,5.46158,3.93011,4.70244,3.01185,9.71835,5.56833,14.38599,8.85428.70165.4941,1.39817.9991,2.08187,1.53055,5.95486,4.63084,14.09999,12.50104,20.24967,21.32667,7.63867,10.96207,12.19828,23.39866,5.64908,32.93894-6.70192-2.54073-13.73415-5.18418-20.91872-7.34103-5.85305-1.75705-11.80681-3.18461-17.76826-3.9681-11.08209-1.45649-22.18652-.68077-32.70283,4.41606.33435.10153.68151.21377,1.03453.33087,6.001,1.99096,14.60681,6.20644,23.00939,11.6596,2.14376,1.3913,4.27434,2.86207,6.3445,4.39785,4.30291,3.19193,8.34434,6.66053,11.7072,10.25767,6.08523,6.5092,9.94576,13.43972,9.09104,19.91656-.4519,3.42406-7.67199,15.70735-11.20367,15.87265-2.7231.12749-12.89554-4.33083-17.37862-5.21746-4.11651-.81407-8.12535-1.49187-12.0844-2.02617-3.42402-.4621-6.81068-.81293-10.19258-1.04524-8.95517-.61509-17.88691-.39614-27.44889.84332,1.07371.86287,2.20822,1.74387,3.38556,2.64304,2.80476,2.14221,5.86001,4.39157,8.96726,6.7671,4.42668,3.38378,8.95664,7.02321,13.01199,10.97493,3.27314,3.18946,6.23464,6.58281,8.58494,10.20755,3.86236,5.9571,6.07021,12.54041,5.26676,19.88163-.72289,6.60574-10.71516,18.29857-15.15685,24.03398-4.84745,6.25945-19.16826,24.27078-24.78145,28.03504-.71337.47831-1.25901.93529-1.87643,1.12526-.54198.1669-1.13853.12991-1.96066-.30789-1.32859-.97333-2.66707-1.95146-4.00408-2.92904-1.99399-1.45804-3.99273-2.92195-5.99697-4.39212-11.9998-8.80288-24.08639-17.8496-35.17215-27.49356ZM342.75094,1329.18079c-.1289.03342-.25891.06354-.38818.09709-.89793-1.02547-2.30013-1.12306-1.49778-2.96406,1.31577-3.01986,24.85982-24.7143,29.42896-29.3348,27.77737-28.08883,53.96285-54.37076,77.37543-86.81807,33.05402-45.80916,87.62624-132.87593,83.5068-199.2123-.77086-12.40959-3.59101-24.09527-8.99472-34.64793-2.0361-3.97589-8.22203-10.94229-8.78196-13.80034-1.33848-6.83357,1.59995-24.67003,1.46592-33.86599-.19189-13.16488-2.50521-27.4119-3.00508-40.66833,28.96351,3.83764,57.81643,9.77419,86.82205,13.33993,72.27749,8.88532,153.14066,9.60116,225.55292,1.53293,37.62169-4.19186,74.79552-12.25981,112.41794-16.38968l.03625.54116,2.97981,44.66226c-8.50731.17724-19.09429,2.97569-27.12443,6.01986-13.11709,4.9726-25.51679,12.91815-36.04079,22.84148-12.54471,11.8286-22.42199,26.47011-27.63638,42.27542-2.65938,8.0609-4.28863,16.00306-5.01261,23.80899-3.53131,38.0627,14.50318,72.87953,40.06831,102.36699-36.34144-.83138-71.63224-.01584-107.45404,6.29071-8.80137,1.54946-22.29785,1.85982-24.78878,12.87045-1.92551,8.51307.453,21.62783-.4995,31.13387-5.79519,57.83547-71.94058,104.89271-124.56533,116.4527-49.83096,10.94637-101.12016,10.13623-151.6535,14.04611-44.42468,3.43729-89.09655,8.26277-132.21132,19.42154ZM914.13604,1161.2823c.23034.07406.52807.21432.86754.39958,4.04876,2.2078,14.86645,11.68986,8.62046,13.77928-37.45068,19.86185-74.45495,40.94184-112.97165,58.75158-21.59913,9.98719-45.09777,20.80062-68.0709,26.84428-.58703.15445-1.17552.31988-1.76181.46796,16.51364-18.50044,29.84423-40.28359,35.41458-64.74287,2.56453-11.2603,2.99006-22.71088,5.1569-34.00876,29.42493-4.05329,59.85912-8.13327,89.71324-6.66296,9.93148.48911,34.33391,2.37379,43.03164,5.17191ZM939.60852,1197.10781c-2.37374,20.13985-7.15125,40.3344-14.42774,59.53265-1.70578,4.50043-3.55072,8.94401-5.53372,13.3207-12.83292,28.32544-31.4874,53.78071-56.3864,72.64832-24.5804-1.90335-48.96416-6.40305-73.4911-8.7571-28.32851-2.71893-56.65373-4.64398-85.00421-5.90725-12.99881-.57924-26.00274-1.01828-39.0151-1.32539-27.15043-.64077-54.33638-.72197-81.58459-.32125-.37866-2.24291,2.82271-1.86604,4.49187-2.24749,14.59143-3.33448,30.43053-4.5994,45.24168-7.49718,90.35044-17.67689,178.25939-47.50781,258.56885-92.41331,5.71682-3.19642,11.29596-6.68045,16.86703-10.17615,9.00205-5.64821,17.98359-11.32452,27.48624-15.87407.70165-.33608,1.40842-.66155,2.1163-.98482.2384-.1089.47387-.22439.713-.33178-.01282.11137-.02893.22274-.04211.33412ZM1139.97167,1174.89098c-.32336,1.69191-2.24117,4.33687-5.26603,7.61042-3.16877,3.4291-7.557,7.55005-12.63041,12.00443-19.88895,17.46225-50.24551,40.00949-58.4203,45.75584-2.02035-1.50913-4.03265-3.03978-6.04165-4.57962-22.90941-17.55971-45.10179-37.00267-67.16088-55.8592-3.11201-20.56671,13.96705-35.85686,25.69953-50.41762.10986-.13641.22265-.27323.33142-.40951-10.74701.43775-21.28676,2.71243-31.39108,6.30394-.54125.19235-1.08067.3896-1.61936.58941-9.69051,3.59545-18.96502,8.38742-27.61734,13.92013-.05493.03506-.11059.06935-.16516.10451-.33471-.39514-.72106-.80803-1.14109-1.23352-.75182-.76139-1.62448-1.56859-2.56966-2.41274-5.82083-5.19846-14.33656-11.79148-13.57412-17.63409,2.26571-17.36086,23.98129-36.49799,36.90576-47.41841.16589-.14044.33691-.28537.50024-.42297-16.88351-1.72226-31.13511,2.80998-45.63975,10.83316-5.69742,3.15138-13.98536,11.62545-20.15189,10.9314-2.2767-.25625-4.26665-1.75165-5.72671-5.2403-8.24217-19.68965,20.05008-58.22548,35.33584-70.03009-.28125.01739-.55919.04504-.83898.06628-21.79468,1.64572-39.98298,14.57953-55.69574,28.72694-.21936.19738-.44018.39422-.65844.59215-4.41387-13.30331-4.28899-26.42095-.76354-38.36802,8.26158-27.99893,35.21353-49.56345,66.29297-51.98333,12.64725-.98463,30.40856,3.78967,48.58111,10.93561,5.63699,2.21664,11.31244,4.66215,16.8879,7.23419,18.93975,8.73692,36.71753,18.94012,47.83002,26.65148,31.62362,21.94492,55.81878,51.61338,68.31589,87.77547,1.48679,4.3019,2.81831,8.69004,3.96637,13.17385.39477,1.54245.81151,3.35169,1.23631,5.34714,3.45331,16.22297,7.46948,45.52938,5.18876,57.45306ZM1316.40149,833.97107c-6.68324,43.17464-17.98066,85.59179-33.86699,126.64638-13.06875,33.77306-29.24695,66.62018-48.52251,98.20608-.99571,1.63117-1.99545,3.26051-3.00727,4.88499-7.84081,12.58582-16.16611,24.97142-24.99824,37.1253-9.24777,12.7258-20.13321,24.62105-28.98731,37.40705-.2937.42411-.59142.84635-.88072,1.27247-.04834.00238-.09082-.01263-.13733-.01584-.15344-.01053-.29626-.05008-.42883-.11622-1.08653-.54226-1.5029-2.80939-1.72775-4.73475-.11133-.95122-.17798-1.81725-.25708-2.34069-8.52379-56.41789-29.18983-100.64125-73.54603-137.34606l-29.31763-21.11556c95.74244-42.55237,161.75526-132.92386,190.54043-232.00188.79064-2.72099,1.55491-5.45975,2.2972-8.21233,2.14596-7.95736,4.09051-16.04151,5.82888-24.22839,5.93582-27.95672,9.46054-57.1015,10.44892-86.41154.13257-3.93524.21496-7.87295.25561-11.81176.48412-47.10365-5.63443-94.27927-19.0064-137.29333-.60204-1.93649-1.08836-4.53664,1.66513-3.17207.026.01282.0553.03735.0824.0542,2.03537,1.26213,7.58813,13.73689,13.3738,27.97842,7.20618,17.7375,14.76978,38.20085,16.33494,43.11019,30.81541,96.64129,38.69797,196.23895,23.85678,292.11532Z"/></svg>