<?xml version="1.0" encoding="UTF-8"?><svg id="Layer_1" xmlns="http://www.w3.org/2000/svg" viewBox="0 0 5210.44299 2085.09942"><defs><style>.cls-1{stroke:#020101;stroke-linecap:round;stroke-linejoin:round;}.cls-1,.cls-2{fill:#fdfefe;}</style></defs><path class="cls-2" d="M2577.56174,607.96201v571.6611c0,42.02082.97706,89.90212,3.90822,122.15052h-77.19854l-3.90915-82.08567h-1.95411c-26.38422,52.77029-84.03885,92.83514-161.23832,92.83514-114.33222,0-202.28023-96.74336-202.28023-240.39097-.97706-157.3301,96.74243-254.07346,212.05264-254.07346,72.31233,0,121.17254,34.20252,142.67148,72.31326h1.95411v-282.40993h85.99389ZM2491.56785,1021.31782c0-10.74947-.97706-25.40716-3.90915-36.15663-12.70358-54.7244-59.60875-99.67453-124.10463-99.67453-88.92506,0-141.69349,78.17559-141.69349,182.7354,0,95.76631,46.90517,174.91895,139.73938,174.91895,57.65464,0,110.424-38.11074,126.05875-102.6057,2.9321-11.72652,3.90915-23.45305,3.90915-37.13368v-82.08381Z"/><path class="cls-2" d="M3148.24022,1061.38267c0,174.91895-121.17347,251.14044-235.50569,251.14044-128.01286,0-226.71033-93.8122-226.71033-243.32399,0-158.30529,103.58368-251.14044,234.5277-251.14044,135.83116,0,227.68831,98.69747,227.68831,243.32399ZM2772.99515,1066.26795c0,103.58275,59.60875,181.7602,143.64853,181.7602,82.08474,0,143.64853-77.19854,143.64853-183.71431,0-80.1297-40.06578-181.7602-141.69442-181.7602s-145.60264,93.8122-145.60264,183.71431Z"/><path class="cls-2" d="M3593.83794,1284.18478c-22.47506,11.72652-72.31233,27.36127-135.83023,27.36127-142.67148,0-235.50569-96.74336-235.50569-241.36988,0-145.60171,99.67453-251.14044,254.07253-251.14044,50.81432,0,95.76538,12.70358,119.21843,24.4301l-19.5439,66.45092c-20.52188-11.72652-52.76936-22.47599-99.67453-22.47599-108.46989,0-167.10158,80.1297-167.10158,178.82718,0,109.44694,70.35822,176.87307,164.16949,176.87307,48.86021,0,81.10769-12.70358,105.53779-23.45305l14.65769,64.49681Z"/><path class="cls-2" d="M3694.48581,607.96201h85.99389v693.81163h-85.99389v-693.81163Z"/><path class="cls-2" d="M4020.86138,695.91001c.97706,29.31538-20.52002,52.76843-54.72254,52.76843-30.29244,0-51.79138-23.45305-51.79138-52.76843,0-30.2943,22.47599-53.74734,53.74549-53.74734,32.24841,0,52.76843,23.45305,52.76843,53.74734ZM3925.09693,1301.77364v-472.96549h85.99389v472.96549h-85.99389Z"/><path class="cls-2" d="M4153.7558,956.821c0-48.85835-.97706-88.92506-3.91008-128.01286h76.22148l4.88714,78.17559h1.95411c23.45305-44.95013,78.17559-88.92506,156.35304-88.92506,65.47201,0,167.10065,39.0878,167.10065,201.30317v282.41179h-85.99389v-272.63937c0-76.22148-28.33833-139.73938-109.44694-139.73938-56.67665,0-100.65159,40.06485-115.30928,87.94801-3.90822,10.74947-5.86233,25.40716-5.86233,40.06485v284.3659h-85.99389v-344.95263Z"/><path class="cls-2" d="M5103.58385,828.80815c-1.95411,34.20252-3.90822,72.31326-3.90822,129.96883v274.59348c0,108.46803-21.49894,174.91895-67.42612,215.96086-45.92904,42.99602-112.37811,56.67665-171.98779,56.67665-56.67851,0-119.21936-13.68064-157.3301-39.0878l21.49894-65.47201c31.26949,19.54483,80.1297,37.13368,138.76233,37.13368,87.94801,0,152.44296-45.92904,152.44296-165.14654v-52.76843h-1.95411c-26.38422,43.97307-77.19854,79.15265-150.48885,79.15265-117.26339,0-201.30317-99.67453-201.30317-230.62041,0-160.25941,104.55981-251.14044,213.02969-251.14044,82.08567,0,127.0358,42.99788,147.55768,82.08567h1.95411l3.90822-71.3362h75.24442ZM5014.65879,1015.45363c0-14.65769-.97706-27.36127-4.88528-39.0878-15.63475-49.83726-57.65557-90.87917-120.19641-90.87917-82.08381,0-140.71644,69.38023-140.71644,178.82718,0,92.83328,46.9061,170.03368,139.73938,170.03368,52.76843,0,100.65159-33.22546,119.21936-87.94801,4.88528-14.65955,6.83939-31.27135,6.83939-45.92904v-85.01684Z"/><path class="cls-2" d="M1233.42208,1683.26087c12.35657-6.8349,24.5791-13.88464,36.64874-21.16577-12.6701,6.06616-24.64612,13.6347-36.64874,21.16577Z"/><path class="cls-2" d="M1273.78707,1660.78511c.01752-.1485.03918-.297.05646-.4455-.31891.14319-.63281.29718-.95074.44238.34442-.04156.63373-.03235.89429.00311Z"/><path class="cls-2" d="M1247.17171,1757.92451c2.64398-5.83569,5.10364-11.76056,7.37805-17.76123-2.65417,6.2785-5.39569,12.30054-8.1156,17.9032.24585-.0473.4917-.09467.73755-.14197Z"/><path class="cls-2" d="M1589.16585,1583.99122c.38538-.56818.78253-1.13116,1.17407-1.69666l-1.35748,1.67554c.06219.00427.11853.02429.18341.02112Z"/><path class="cls-2" d="M908.4678,1832.26716c.02087.35736.07281.75275.16913,1.20337,17.34991.40948,34.68909.99487,52.02081,1.76721-5.91986-.55035-11.80359-.99988-17.63348-1.3028-11.08093-.57568-23.13043-1.19153-34.55646-1.66779Z"/><path class="cls-2" d="M1588.41091,1583.81514c-.30988-2.57349-1.13873-4.61084-2.30396-6.31311.30005,2.5672.85486,5.59009,2.30396,6.31311Z"/><path class="cls-2" d="M1182.44692,1606.12098c-39.80609-1.96045-80.38562,3.47961-119.61975,8.88409-2.88885,15.06409-3.4563,30.33179-6.87567,45.34576-7.42749,32.61292-25.20184,61.65759-47.2204,86.32526.7818-.19745,1.56622-.41803,2.349-.62396,21.52838-24.40912,38.8559-53.03961,46.1637-85.12769,3.41956-15.01392,3.98694-30.28168,6.87567-45.34564,39.23444-5.40466,79.81372-10.8446,119.61975-8.88422,13.19373.64978,45.53345,3.14697,57.24109,6.85516-.45294-.24701-.85004-.43402-1.15698-.53278-11.59705-3.7309-44.13409-6.24384-57.3764-6.896Z"/><path class="cls-2" d="M363.14321,1567.45069c-4.77234-5.42804-9.42163-10.97675-13.87048-16.71051-11.60999-14.96265-22.24353-30.80176-32.5459-46.66406-2.57593-3.96558-5.13098-7.93213-7.67542-11.88745v-.00024c-68.495-106.46558-113.91882-230.73828-126.53638-357.51538-.07324-.73511-.3103-1.50342-.66016-2.29443,15.32068,147.52954,69.87183,290.73462,161.26196,411.24902,2.76978,3.65247,30.70923,40.01984,32.90747,38.36591.04346-.20245.09131-.40399.13489-.60645-1.28821-1.31445-2.55273-2.65344-3.83179-3.9776-3.13513-3.24573-6.19861-6.5625-9.1842-9.9588Z"/><path class="cls-2" d="M391.93178,1280.5987c15.46802,14.62634,31.82092,28.22717,48.92578,40.64185-17.28809-12.64209-33.59985-26.22693-48.92578-40.64185Z"/><path class="cls-2" d="M476.7416,1833.6363c1.75464-4.02649,33.14673-32.95294,39.23926-39.11383,37.03711-37.45233,71.95154-72.49542,103.16895-115.75928,44.08154-61.09198,116.92932-177.33051,111.33008-265.80975-.42706-.12659-.85156-.25745-1.27832-.38464,5.49274,88.44995-67.27148,204.54089-111.34424,265.62079-31.21729,43.26379-66.13159,78.30695-103.16882,115.75934-6.09241,6.16077-37.48462,35.08716-39.23938,39.11371-1.06982,2.45471.7998,2.58484,1.99731,3.95215.17212-.04474.34546-.0849.5177-.12946-1.05603-.80969-2.07727-1.28821-1.22253-3.24902Z"/><path class="cls-2" d="M1662.32186,1482.91645c1.3493-2.16602,2.68225-4.3385,4.00958-6.51343-1.16547,1.90125-2.34137,3.81152-3.54089,5.74316-.15839.25513-.31079.51477-.46869.77026Z"/><path class="cls-2" d="M1728.69942,870.60652c-.28198,2.98157-.59155,5.95667-.92303,8.92639-.05396,5.25183-.16376,10.5022-.3407,15.74927.71265-4.2926,1.18884-8.58496,1.23889-12.87622.04578-3.93469.04688-7.86768.02484-11.79944Z"/><path class="cls-2" d="M1713.50332,1010.49946c-2.31769,10.91602-4.91046,21.69507-7.77185,32.30505,3.25616-9.20361,6.0434-18.47302,8.0733-27.79675.32684-1.50134.14117-3.00415-.30145-4.5083Z"/><path class="cls-2" d="M1636.62234,1381.84907c-4.72974,5.56421-9.40448,11.1731-13.95624,16.88196,4.55206-5.70886,9.2265-11.31775,13.95624-16.88196Z"/><path class="cls-2" d="M1704.96938,1293.34565c4.57849-6.61133,9.39368-13.05054,14.12372-19.56165-4.73004,6.51111-9.54553,12.95032-14.12372,19.56165Z"/><path class="cls-2" d="M1531.27291,937.86824c-12.88782,3.86877-26.61102,13.02881-41.17194,13.04773,10.8338-16.9104,20.42645-39.56055,24.05963-59.27332,7.74481-42.02209,2.33246-82.19421-16.06812-120.51086-55.5224-115.61768-209.79639-142.08508-299.2688-48.20459-22.90283,24.03149-41.76581,59.75342-48.20428,92.39197-5.85504,29.67969-5.87109,69.59534,4.01703,98.41711,8.16559,23.80078,31.59595,58.39062,50.21283,76.32385,73.24786,70.55713,186.06757,63.48376,267.13257,10.0426,23.26312-15.33618,43.70496-38.62378,62.24719-59.27832.6142-2.74805-.14691-3.79944-2.95612-2.95618ZM1268.62917,731.49043c78.55914-10.24255,88.52576,112.82947,11.49872,117.97571-73.80316,4.93066-84.3222-108.48096-11.49872-117.97571ZM1212.88363,967.98652c15.18329,4.44397,27.54883,14.95056,42.24878,20.99902,94.93384,39.05835,202.17596-11.64636,224.32849-112.96143l4.54907-26.5481c26.70001,157.54688-170.52136,229.32715-271.12634,118.5105Z"/><path class="cls-2" d="M1611.57351,700.83357v2.00842c1.30432-.66943,1.30432-1.33887,0-2.00842Z"/><path class="cls-2" d="M1119.96847,1476.63081c-3.18329-3.38257-18.17609-6.13037-23.55145-7.56787-27.92969-7.46973-56.05377-14.30322-84.26538-20.85107-74.32489-17.25049-149.27679-32.45288-223.02795-51.59644-16.98798-1.30518-19.81061,21.90137-4.53601,26.7616l68.81342,16.36011,252.59778,60.05408c13.94342,4.48828,22.30927-14.29712,13.9696-23.1604Z"/><path class="cls-2" d="M917.23885,1361.12007c-34.13983-7.74158-84.52576-24.64282-117.35144-27.35815-5.35272-.44312-16.74579-.06812-18.83478,5.77954-2.21759,6.20801,1.3606,18.79321,9.55896,19.56482l323.13367,74.73645c18.11658,1.18091,20.80505-21,4.7785-27.05664-64.67163-13.27783-128.55237-30.54822-192.85815-45.151-2.18195-.49548-5.45294.15906-8.42676-.51501Z"/><path class="cls-2" d="M738.86666,1595.63453l226.27747,53.08618c17.31219,1.32593,21.02258-21.95667,4.31769-26.59186l-224.08301-53.11005c-3.68689-.83087-7.3819-.91791-11.0835-.0907-15.17249,3.39307-11.25195,26.17993,4.57135,26.70642Z"/><path class="cls-2" d="M990.89217,1556.51118l-223.42792-51.7854c-3.00952-.69019-6.04712-1.01282-9.0697-.11328-12.50232,3.72119-12.61456,23.40649.92175,26.38489l221.80688,51.37286c20.46082,4.79419,30.20166-17.55853,9.76898-25.85907Z"/><path class="cls-2" d="M982.40005,1307.92317c-18.00659-2.18982-25.2851,12.55408-11.99414,24.03442l107.90668,25.66052c18.65649-.17163,46.14868,12.99561,61.17358,11.96985,9.55634-.65222,15.37994-11.06677,13.14172-20.00403-2.53503-.57715-12.12469-6.93127-20.06415-9.0592-41.60583-11.15149-108.43945-27.52722-150.1637-32.60156Z"/><path class="cls-2" d="M711.67812,1658.97633c43.94641,17.18719,103.45642,21.61084,148.99451,37.98163,13.24481,2.82312,19.94574-15.32159,12.24841-23.49255-1.664-1.76624-7.91565-3.48022-10.6535-4.40265-44.75928-15.08087-97.20575-21.63245-142.72418-36.1073-19.5387-3.39301-27.47559,18.35132-7.86523,26.02087Z"/><path class="cls-2" d="M465.71572,761.08931c-15.66455,27.37085-24.9729,67.0564-24.10205,98.41711.74695,26.90552,6.33569,51.57837,17.1416,76.25378,1.28076,2.92407,9.77234,17.3335,8.95691,18.13818l-44.13293-13.06885,16.02222,22.11926,28.1228,27.11133c7.4408,1.32385,24.26904,15.56482,32.79688,20.42871,36.18762,20.63757,95.26636,36.16638,136.90088,33.78088,10.77026-.61719,32.74548-7.39075,41.19653-6.00537,22.55432-10.50061,45.83179-20.15112,65.21674-36.21301,12.21533-10.12146,33.19379-32.75696,41.23438-46.13586,15.06122-25.06165,24.98468-61.35693,26.11066-90.38354,1.28406-33.10059-4.73987-68.84204-20.08508-98.41711-66.33923-127.8551-253.64661-131.36511-325.37952-6.02551ZM563.61489,733.45442c89.62695-14.30969,93.2594,128.74402-.30957,115.83435-58.98438-8.13806-60.96606-106.05127.30957-115.83435ZM744.70992,970.78974c-8.33868,8.15063-20.2923,17.74683-30.10797,24.12183-108.87964,70.71155-256.62476-3.53406-240.83228-137.40417,2.89209-.47058,2.80176,3.53735,3.38428,5.60474,2.68127,9.521,3.73682,19.92285,6.76172,29.41174,29.38525,92.18115,134.74451,134.03247,222.16431,95.87427,6.56274.12866,41.07727-26.17651,42.82599-24.43896,2.1839,2.17017-2.9267,5.58984-4.19604,6.83057Z"/><path class="cls-2" d="M1077.39382,1071.81733c-.50214.23755-1.00476.49573-1.50745.77502-.50275.2793-1.00555.57971-1.50836.90186-.74188.47522-1.45526,1.0636-2.13623,1.74536-.22699.22717-.45038.46472-.67004.71204-.29285.32959-.5791.67627-.85834,1.03833-.48859.63354-.95337,1.31787-1.3974,2.03601-.3429.55457-.672,1.13098-.98639,1.7262-.20917.39575-.41418.79663-.61011,1.20728-.14526.30457-.2868.61279-.42462.92432-.55109,1.24573-1.04132,2.54248-1.46411,3.85718-.10571.32861-.20721.65833-.30444.98877-.29156.99097-.54437,1.9873-.75568,2.9751-.07043.32922-.13623.65747-.19739.98438-.3667,1.96069-.56384,3.86792-.56976,5.60974-.0011.32239.00592.63733.01807.94763.02173.55518.07257,1.08142.13739,1.59229.02948.23193.05518.46826.09412.6897.00293.01648.01331.04688.01855.06775.00983.03918.01727.0741.03497.12769.00684.02075.01917.05164.0271.07446.03351.09595.07703.21057.12933.34119.08301.20703.18341.44629.30792.729.05786.13135.11963.26965.18567.41577.26257.58081.58392,1.26697.95251,2.0343.29871.62183.62604,1.2926.97198,1.99255.45404.91858.94006,1.88721,1.43549,2.86108,2.14667,4.21973,4.46869,8.53516,5.11975,9.28662,2.71747,3.13623,6.73511,5.75488,11.22119,7.48682.64087.24731,1.29132.47656,1.94885.68677,3.15625,1.00867,6.47687,1.57544,9.69354,1.5813.00848,0,.01672-.00049.02515-.00049,1.55646.00134,3.0871-.13232,4.56415-.40723.15198-.02832.3028-.05933.45361-.0907.65137-.13562,1.29138-.29968,1.91736-.49377,1.87793-.58228,3.62927-1.43384,5.18005-2.59119,1.0943-.81677,2.07428-1.70789,2.94708-2.66199.37512-.41016.72467-.83508,1.0603-1.26782.55566-.71631,1.0564-1.46289,1.50684-2.23523.27795-.47668.5368-.96252.77582-1.45813.11517-.23877.22638-.47925.3327-.72217.28778-.65759.55023-1.32666.77435-2.0116.52655-1.6095.88007-3.28906,1.07349-5.01331.05438-.48499.09607-.97339.12543-1.46484.05865-.98291.06781-1.97766.02979-2.97974-.01904-.50098-.04987-1.00391-.09222-1.50793-.05646-.67212-.13336-1.34656-.2301-2.02185-.3869-2.70117-1.09039-5.41675-2.06689-8.06055-.36615-.99146-.77075-1.97266-1.21136-2.93945-.44061-.96667-.91736-1.9187-1.42786-2.85168s-1.05475-1.84668-1.63049-2.73669c-.57574-.89014-1.18298-1.75635-1.81934-2.59448-.56567-.74487-1.15436-1.46765-1.76453-2.16479-.61011-.69714-1.2417-1.36877-1.89307-2.01172s-1.32257-1.2572-2.01196-1.8396c-1.72345-1.45581-3.56061-2.71252-5.48615-3.72009-.7702-.40295-1.55463-.76624-2.3515-1.0863-1.19537-.48022-2.41888-.86353-3.66516-1.13928-.77667-.17175-1.56287-.29761-2.3559-.38318-.08282-.00903-.16541-.01929-.24841-.02734-2.5224-.24243-5.11859-.03687-7.74713.70435-.88574.24976-1.77515.56018-2.66656.93433-.33429.14038-.66888.28955-1.0036.448Z"/><path class="cls-2" d="M1069.316,1079.02595c.44403-.71814.90881-1.40247,1.3974-2.03601-.48859.63354-.95343,1.31787-1.3974,2.03601Z"/><path class="cls-1" d="M1110.40713,1084.69746c.57574.89001,1.12,1.80371,1.63049,2.73669"/><path class="cls-1" d="M1108.58779,1082.10298c.63635.83813,1.24359,1.70435,1.81934,2.59448"/><path class="cls-1" d="M1116.97384,1103.30769c.04236.50403.07318,1.00696.09222,1.50793"/><path class="cls-2" d="M849.34206,1112.57942c.22833.67566.48877,1.32727.7655,1.96582.25177.58069.51581,1.15149.80475,1.70105.20221.38452.41315.76123.63239,1.13025.2923.49207.59937.97009.91998,1.43408.61981.89697,1.28754,1.74353,2.00977,2.52454.06146.06641.11633.14062.17847.2063,1.44,1.51929,3.06702,2.80298,4.84076,3.81665,1.06421.60815,2.18134,1.1189,3.34247,1.52515,1.23859.43335,2.52734.74731,3.85577.93335.66418.09302,1.33832.15393,2.02106.18176,1.02405.04163,2.06738.00867,3.12567-.10266,1.05823-.11145,2.13141-.30139,3.2149-.57349,1.58704-.39844,13.87927-6.16162,14.4588-6.70874.23157-.21863.47107-.47925.71619-.77393.04291-.05151.08661-.10791.12988-.16162.40344-.50122.82147-1.09595,1.24744-1.76514.16846-.26465.33783-.53979.50812-.82666.07886-.13269.15771-.2666.23688-.40381.21808-.37793.43683-.77063.65558-1.17847.38715-.72144.77344-1.48621,1.15454-2.28003.09656-.20129.19269-.40405.28845-.60889.30084-.64307.59692-1.30176.88623-1.97083.12598-.29138.25037-.58411.37347-.87854.32861-.78613.64618-1.5813.94855-2.37476.5069-1.33008.95667-2.64331,1.35797-3.91333.31671-1.00244.6087-1.98242.83759-2.89111.09961-.39551.18994-.77954.27032-1.15063.07037-.32495.13049-.63599.185-.93909.13214-.73523.21857-1.40588.24634-1.98535.2381-4.95569-.60693-9.31628-2.23651-13.00403-.32593-.73755-.68323-1.44812-1.06952-2.13123-.38629-.68298-.80157-1.33862-1.24347-1.96594-.44189-.62744-.91034-1.22668-1.40308-1.79712-1.05115-1.21704-2.21246-2.30298-3.46082-3.25171-.93622-.71167-1.92145-1.34631-2.94586-1.90125-.68292-.37-1.3833-.70447-2.09808-1.00281-1.07227-.44775-2.17712-.81396-3.30493-1.09631-1.87958-.47058-3.82269-.70813-5.784-.70081-.66876.00244-1.33954.04077-2.01074.10059-1.12854.10083-2.25812.276-3.37994.5426-1.19269.28333-2.37671.66174-3.54187,1.13782-1.16522.47607-2.31152,1.0498-3.42865,1.72388-.55859.33691-1.10986.6991-1.65259,1.08667-.81409.5813-1.60889,1.21973-2.38013,1.9165-.77124.6969-1.51886,1.4519-2.23859,2.2666-.60266.68201-1.17542,1.41602-1.73346,2.172-2.48645,3.36804-4.51532,7.40637-5.85571,11.69458-.28632.91589-.53003,1.8446-.75226,2.77795-.29462,1.23743-.53308,2.48462-.70654,3.73486-.12421.89551-.22571,1.79114-.28351,2.6842-.04987.77002-.07434,1.53772-.07227,2.30078.00446,1.67542.15057,3.32361.42267,4.92883.22357,1.31909.52783,2.61084.94702,3.85144Z"/><path class="cls-1" d="M861.99483,1074.25166c-.81409.5813-1.60889,1.21973-2.38013,1.9165"/><path class="cls-1" d="M896.24886,1081.37605c.38629.68311.74359,1.39368,1.06952,2.13123"/><path class="cls-1" d="M895.00539,1079.41011c-.44189-.62744-.91034-1.22668-1.40308-1.79712"/><path class="cls-1" d="M890.1415,1074.36128c-.93622-.71167-1.92145-1.34631-2.94586-1.90125"/><path class="cls-1" d="M881.79262,1070.36091c1.12781.28235,2.23267.64856,3.30493,1.09631"/><path class="cls-1" d="M887.19564,1072.46003c-.68292-.37-1.3833-.70447-2.09808-1.00281"/><path class="cls-2" d="M763.20101,1168.23957c.29083.25378.68945.52209,1.18109.80237.16388.09351.33813.18823.52209.28418.27631.14417.57489.29102.8938.44043.37079.17346.76855.35022,1.19165.52979.36554.15503.74908.31201,1.14972.47083.2691.10657.54535.21399.82892.3219.17474.06665.35199.13354.53192.20056.38885.1449.78619.29053,1.19714.43713.31702.11328.64215.22693.97095.34082.39026.13525.78821.271,1.19318.40698.42841.14392.86438.28809,1.30695.43237.38031.1239.7652.24792,1.15436.37183.37885.12073.76007.24133,1.14581.36169.87714.27368,1.77039.54626,2.67169.81616.60083.17993,1.20532.35864,1.81079.53577.60553.177,1.21216.35229,1.8175.52563,1.05933.30322,2.11469.59985,3.15302.88745,2.0766.57507,4.08514,1.11389,5.92139,1.59619.45905.12061.90735.23767,1.34326.35083.49042.12744.96509.24988,1.42181.36707,3.19684.82019,5.51166,1.38,6.14948,1.52527,8.79156,2.00232,17.37982,3.57031,25.90442,4.8501,4.68854.70386,9.35779,1.32056,14.03107,1.87451,5.25739.62305,10.51984,1.16638,15.82037,1.66479,8.83429.83069,17.77441,1.53638,26.97345,2.27722,12.72406,1.02466,25.49719,1.92261,38.297,2.64697,4.2666.24146,8.53619.46362,12.80792.66479,5.69562.26819,11.39508.49902,17.09637.68835,2.85059.0946,5.70178.17896,8.55304.25232,2.89032.07434,5.78082.13708,8.67133.1886,5.66614.10095,11.33221.15686,16.99615.1637,2.83197.00342,5.66339-.00549,8.49408-.0271s5.66064-.05603,8.48956-.10376c.09662-.00159.19318-.00354.28973-.00525,5.45984-.09375,10.91571-.23877,16.36633-.4353.17242-.00623.34503-.01001.51746-.01636,3.74799-.13745,7.55579-.30017,11.40643-.48608.1958-.00952.39166-.01904.58765-.02856,3.73517-.18237,7.51129-.38745,11.31647-.6145,2.12677-.12683,4.26129-.25964,6.40393-.40015,2.02686-.13306,4.05988-.27197,6.09717-.41699,4.07471-.29016,8.16663-.60437,12.26129-.94202,3.92377-.32361,7.84955-.67004,11.7655-1.03625,2.21387-.20703,4.42493-.41968,6.62994-.64014,5.08771-.50879,10.14551-1.05286,15.14508-1.63147,4.99951-.57849,9.94086-1.19153,14.79541-1.83777,3.26874-.4353,6.5636-.89819,9.87195-1.38977,7.20667-1.07068,14.48053-2.29016,21.71625-3.71765,1.79376-.35388,3.58569-.7168,5.37286-1.09729.49396-.1051.98718-.21179,1.48047-.31897,3.98706-.86743,7.95197-1.8031,11.87494-2.82129,1.30768-.33936,2.61072-.68799,3.90839-1.04614,2.71869-.75049,5.41418-1.54224,8.08014-2.37915,1.33295-.41833,2.65851-.84802,3.97589-1.28943.31909-.10681.6731-.21301,1.05377-.32043.38062-.10767.78796-.21667,1.21356-.32959.56744-.15063,1.16748-.30811,1.78033-.47815s1.23846-.35254,1.85724-.55322c.30939-.10034.61707-.2052.92053-.31531,2.42773-.88086,4.58728-2.09692,5.21619-4.00781h-.00006l-24.60748,2.04028-23.58734,1.95581c-.16962.00378-.33942.00684-.50903.0105-16.30664.36072-32.63031.6626-48.95398.97314-16.32373.31042-32.64746.62964-48.95441,1.02478-4.0636.09851-8.11621.18518-12.15973.26086-4.04352.07581-8.07788.14038-12.10498.19482-8.0542.10864-16.07935.17603-24.09033.20764-5.3407.02112-10.67505.02637-16.00751.01746s-10.66315-.03198-15.99628-.06763c-10.66632-.07129-21.34271-.1925-32.06464-.35034-5.36096-.0791-10.73328-.16724-16.1214-.26282-6.2655-.11121-12.51111-.18591-18.74091-.24426-12.45959-.1167-24.85596-.16821-37.22137-.31677-30.91364-.37122-61.63416-1.34839-92.66766-5.46448-1.60297-.21265-3.32281-.0769-5.02338.00806-1.02032.05103-2.03369.08374-3.01068.01196-.10095.07324-.1781.15015-.23236.23022-.05432.08032-.08575.16382-.0954.25049-.0155.13965.0257.28735.11932.44263.09357.15527.23956.31787.43341.48694Z"/><path class="cls-2" d="M881.42342,1028.48652c2.13336-3.09619,4.4057-6.03662,6.80396-8.82227,1.37048-1.5918,2.78204-3.13293,4.23236-4.62378,1.45032-1.49072,2.93939-2.93115,4.46466-4.32153,3.81329-3.47559,7.85333-6.63745,12.0824-9.48853,3.86664-2.60669,7.89111-4.95361,12.04474-7.04285,2.07684-1.04468,4.18597-2.02502,6.32367-2.94104,8.34692-3.57727,17.13239-6.1698,26.13782-7.80884.38123-.06934.76233-.13867,1.14441-.20459,2.01251-.34741,4.03522-.64783,6.06647-.8999,1.30469-.16187,2.61188-.30908,3.92267-.43188,3.48383-.32617,6.98718-.5127,10.49792-.56323.03235-.00049.06464-.0022.09698-.00256,3.54199-.04846,7.09155.04309,10.63641.27332,3.54553.23022,7.08636.59949,10.61035,1.10669,5.87329.84521,11.69983,2.07373,17.42297,3.68115,10.30176,2.89331,20.26874,7.01392,29.57172,12.33679,2.58417,1.47852,5.11707,3.04993,7.59167,4.71338,4.94928,3.32703,9.66528,7.02283,14.09167,11.08313,1.10663,1.01514,2.19507,2.05298,3.26459,3.11353s2.12006,2.1438,3.1507,3.24976c5.63696,6.04871,7.49286,9.02893,7.07947,10.12988-.05908.15723-.16443.27612-.31171.36023-.16833.09607-.39136.14648-.6626.15662s-.59058-.02002-.95154-.08569c-1.68445-.30554-4.27441-1.37817-7.10132-2.69141-1.21155-.56287-2.46661-1.16992-3.71252-1.77979-.41534-.20337-.82965-.40698-1.24097-.60938s-.8197-.40356-1.22321-.60205c-.40344-.19836-.802-.39404-1.19373-.58545-.39166-.19141-.77655-.37842-1.15259-.55981-.37604-.18127-.74329-.35669-1.09973-.5249-.35651-.16797-.70221-.32886-1.03522-.48071s-.65332-.2948-.95892-.42737c-.4585-.19885-.88397-.37415-1.2699-.521-2.11053-.80273-4.21356-1.57336-6.30951-2.31189-6.28796-2.21545-12.51263-4.14136-18.68805-5.77356-1.64679-.4353-3.29004-.84973-4.93005-1.24304-3.28003-.78687-6.54712-1.48999-9.80334-2.10852s-6.50159-1.15271-9.73816-1.60193c-3.23657-.4491-6.46436-.81323-9.68555-1.09155-3.14954-.27222-6.2926-.45972-9.43134-.56763-1.67651-.05762-3.35187-.09448-5.02612-.10498-1.60297-.01001-3.20514.00171-4.80658.03503-3.203.06677-6.40344.22034-9.6037.4613-3.2002.24121-6.40002.56982-9.60168.98645-3.2016.41675-6.40503.92151-9.6123,1.51501s-6.41852,1.27588-9.63562,2.04736c-3.21716.77173-6.44025,1.63257-9.67145,2.5835s-6.47058,1.9917-9.72003,3.12317c-3.24951,1.13147-6.50922,2.35339-9.78119,3.6665-3.27203,1.31311-6.55627,2.71741-9.85498,4.21362-.19452.08826-.41925.19983-.65692.32141-.23181.11853-.48273.25171-.75183.39868-.18781.10254-.38428.2113-.58881.32617-.32245.18127-.65759.37195-1.0174.58032-.5.28955-1.03375.60327-1.59454.93506-.84119.49768-1.74329,1.03601-2.6839,1.59473-.94067.55872-1.91986,1.13794-2.91528,1.71704-.33185.19312-.66541.38623-1,.57861-1.33832.76953-2.69226,1.5271-4.00873,2.22485-.65826.34888-1.30719.68286-1.94006.99585-.31647.15637-.62891.30762-.93658.45288-.92291.43567-1.80249.81738-2.61627,1.125s-1.56183.54077-2.2218.67969c-.44.09253-.84082.14307-1.19586.14551-.01178.00012-.02124-.0022-.03296-.0022-.5163-.00098-.93585-.10327-1.23334-.33069l-.00006-.00012c1.84253-3.40906,3.83698-6.66113,5.97034-9.75757Z"/><path class="cls-2" d="M1183.49886,164.96357c-19.41693-4.49023-55.11877-7.34473-70.79425-13.07861-2.35834-.86279-2.76733-4.87158-5.61493-6.87842-52.08813-36.70679-121.24622-49.26196-181.23621-24.73145-14.11237,5.771-25.97583,15.13818-39.6319,21.60815-.86938-59.45239-61.02045-68.77637-99.42017-32.11499-17.81232,17.00586-26.46802,40.18579-36.32874,62.08838C405.70815,263.71357,144.55019,559.95478,91.17422,912.49324c-50.53223,333.75671,79.67041,653.89221,340.19287,862.23816,4.00745,3.20483,28.90491,19.5553,29.18567,21.34119.396,2.51904-.78357,4.03894-2.05652,5.96429-10.80432,16.34113-39.91064,36.10522-53.34827,53.09509-5.229,6.61139-11.09924,12.97333-8.14905,22.21265,1.68518,5.27802,8.51221,11.5141,14.13818,12.1062,11.54126,1.21472,59.48584-15.49359,75.35278-19.25769,14.94531-3.54535,56.276-14.47034,69.12292-12.9978,10.48425,1.20178,69.68616,33.71539,86.19531,40.50854,494.65607,203.53925,1049.82843-73.81683,1200.98663-579.29523,149.84363-501.08252-149.0647-1035.45166-659.2959-1153.44507ZM1517.08016,1657.31575c-26.5191,23.28339-66.99487,53.34686-77.8949,61.00879-2.69391-2.01221-5.37726-4.0531-8.05591-6.10626-30.54608-23.41333-60.13672-49.33771-89.54907-74.48016-4.1496-27.42273,18.62292-47.80994,34.26642-67.22461.14655-.18188.29688-.36432.44214-.54602-14.32983.58368-28.38312,3.61664-41.85571,8.4054-.7215.25647-1.44086.51947-2.159.78589-12.92108,4.79401-25.28741,11.18341-36.82385,18.56049-.07312.04675-.14722.09247-.22028.13934-.44623-.52686-.96149-1.07739-1.52161-1.64471-1.00226-1.0152-2.16571-2.09149-3.42609-3.21704-7.76129-6.9314-19.11591-15.72223-18.09918-23.51251,3.021-23.14819,31.97583-48.66479,49.20837-63.22559.2215-.18726.44952-.38049.66711-.56396-22.51166-2.29639-41.51428,3.7467-60.85413,14.44446-7.5965,4.2019-18.64716,15.50085-26.86957,14.57544-3.03546-.34167-5.6886-2.33557-7.63574-6.98718-10.98969-26.2533,26.73407-77.63525,47.11542-93.375-.37494.02319-.74548.06006-1.11884.08838-29.05981,2.19434-53.31134,19.4397-74.26221,38.30322-.29248.26318-.58679.52563-.87799.78955-5.88519-17.73804-5.71838-35.22852-1.01788-51.1582,11.01587-37.33252,46.95233-66.08569,88.39227-69.31226,16.86334-1.31287,40.54547,5.05298,64.77582,14.58105,7.51599,2.95557,15.08331,6.21631,22.51764,9.64575,25.25336,11.64941,48.95734,25.25391,63.77405,35.53589,42.16589,29.26038,74.42664,68.81897,91.08978,117.03589,1.9823,5.73596,3.75739,11.58691,5.28815,17.56543.52661,2.05664,1.08221,4.46899,1.64856,7.12964,4.60449,21.63098,9.95953,60.70685,6.9187,76.60535-.43152,2.25592-2.98822,5.78259-7.02161,10.1474-4.2251,4.5722-10.07617,10.06689-16.84088,16.00616ZM580.28042,365.20552c72.38916-52.16943,153.59784-96.72876,243.65717-106.8291,2.53748-2.1814-12.77661-15.47314-14.87964-18.24048-29.5495-38.88354-12.00952-86.2168,30.9577-104.26855v31.13184c0,7.43311,13.54187,32.71265,18.41779,39.82935,1.88403,2.74976,21.53021,26.40137,26.73523,27.64966.45367.10889.80988.06641,1.02258-.19409,3.37756-39.67261,35.82141-66.30762,72.68286-74.96265,23.6283-5.5481,50.87189-6.52954,73.91644,1.69482.39154.13965,1.02679.41211,1.84619.79248,7.76141,3.60132,32.31793,17.03516,28.31616,22.2417-26.55371,6.7605-55.61609,18.85303-76.33966,37.15479-2.03558,1.79785-14.29138,13.05957-12.01703,15.07739.34113-.01611.68286-.02319,1.02405-.03857,107.36133-4.85132,216.88214,23.25439,313.65234,67.98462,7.02759,3.24854,13.98047,6.62305,20.87158,10.09619.32379.16309.64825.3252.97174.48877,2.18964,1.10474,4.36523,2.22925,6.53967,3.35522,1.20105.62402,2.40588,1.24219,3.60254,1.87305.68964.3623,1.37335.73267,2.0614,1.09717,159.45355,84.76025,279.55927,229.93799,322.37195,407.98315,56.53455,235.1106-24.6416,513.00049-270.91486,595.46753-15.06708-2.88525-29.58527-10.37231-44.70044-14.72827-2.4278-.69971-5.71027-1.11511-9.00439-1.62878-2.94849-.45984-5.90405-.99951-8.26666-1.89197-1.02625-.38745-1.93585-.84399-2.68793-1.3877-1.13019-.81677-1.90131-1.83167-2.13232-3.12793l-3.8996-63.19092c54.99731-3.88281,90.05072-67.33887,39.89435-105.36584-2.54742-1.9314-4.9942-3.56104-7.36951-4.94214-8.36768-4.86536-15.84851-6.64319-23.7149-7.64026-7.49835-.95032-15.35303-1.19678-24.65546-2.72412-.36053-.0592-.71716-.11499-1.08209-.1781-46.75714-8.09387-79.15027-30.8407-106.87195-57.8551-34.60553-33.72241-61.93298-74.09363-100.82349-100.92529-31.62299-21.8175-70.89148-34.68298-127.94336-27.7334-40.5423,4.9386-70.37671,23.45251-96.07898,47.02917-32.15961,29.49988-57.85223,66.92249-89.90765,95.6571-18.6806,16.74536-39.52039,30.54297-65.07556,38.08228-13.33325,3.93359-29.54944,5.50256-45.37915,8.16357-7.34595,1.23486-14.60742,2.70605-21.45996,4.75757-7.08765,2.12207-13.73364,4.86877-19.58179,8.6167-.61365.39331-1.21753.79883-1.81299,1.2146-11.22021,7.83325-19.16992,19.74072-21.04529,38.69019-1.98413,20.04883,6.0509,35.24768,18.87158,46.28625,8.41467,7.245,18.88904,12.69824,29.953,16.54883,7.92151,2.75696,16.14209,4.6925,24.12207,5.87927.73755.10962,1.47363.21521,2.20654.31213.02014.08557.03589.17175.05591.25745,6.46387,27.58105,4.7406,56.04541,4.89392,84.15088-25.63147-10.84985-53.74695-12.0498-81.13403-7.84167-5.19128.79773-15.69983,5.92004-19.79443,5.38416-.07288-.00952-.15906-.00732-.22766-.02051-1.63672-.31396-9.27319-7.30066-12.70337-9.17261-5.26245-2.87207-10.43701-5.75281-15.53223-8.64636-40.71289-23.12097-76.1217-47.09937-106.8252-74.56384-51.32007-45.90637-89.49536-101.55737-117.29712-179.2655-96.15186-268.75281,45.95898-531.51697,262.51392-687.58411ZM627.657,1171.81416c2.18274-5.23071,5.55212-8.89429,9.65894-11.50317,3.47156-2.20532,7.47253-3.65234,11.74402-4.6355,11.46277-2.63818,24.85266-1.95728,35.08667-3.70862,134.76331-23.06262,164.10406-174.36755,271.95093-185.99048,145.64075-15.69617,159.0307,120.97839,268.18329,170.49695.04938.02234.10077.04321.15021.06567,8.58606,3.88135,18.21912,7.03687,27.99634,9.61914,9.00824,2.37915,18.13696,4.2738,26.6817,5.78491,6.33759,1.12085,16.0578,1.27173,25.46252,2.68579.53632.08069,1.07025.16797,1.60376.25732,11.73083,1.96289,22.63531,6.11084,25.41998,16.86377,8.06848,31.15637-38.60529,34.0874-59.3324,38.08533-201.60443,38.8866-412.26788,43.79553-613.08215-4.36511-6.91638-1.65869-15.43188-4.40784-22.11841-8.67712-2.64941-1.69177-4.99988-3.6283-6.86157-5.82434-4.18872-4.94104-5.85498-11.21997-2.54382-19.15454ZM418.62881,1628.77949c-2.59839-8.57117,7.33496-48.20331,10.21167-59.26611,17.55347-67.50195,57.45703-143.42578,118.10107-181.16772,3.59814-2.23926,7.375-4.40161,11.29248-6.44849,10.34473-5.40503,21.67627-10.00012,33.3324-13.04785,5.3324-1.39417,10.7323-2.46118,16.1366-3.13745,19.95398-2.49683,39.96533.37708,56.83521,12.17847,1.06812.74731,2.06494,1.55322,3.01489,2.39575,4.63281,4.10938,7.896,9.2981,10.104,15.08691,5.65991,14.83887,4.41553,33.58716,1.6543,48.03027-6.81738-3.90051-13.71948-7.40894-20.73853-10.43384-7.36096-3.17224-14.85205-5.80664-22.51001-7.79785-13.75061-3.57544-28.04028-5.07288-43.09399-3.83447.42627.37415.86206.73291,1.29761,1.09204,2.32129,1.91431,4.7666,3.62891,7.28247,5.24023,6.2699,4.01587,12.95813,7.42456,19.18164,11.80591.93555.65881,1.86426,1.33215,2.77563,2.04077,7.94019,6.17456,18.80029,16.66833,27.00037,28.43604,10.18494,14.61633,16.26453,31.19873,7.5321,43.91931-8.93604-3.3877-18.31274-6.91235-27.89233-9.78821-7.8042-2.34277-15.74243-4.24622-23.69116-5.29089-14.77637-1.94202-29.58276-.90771-43.60474,5.88818.4458.13538.90894.28503,1.37939.44116,8.00171,2.65466,19.4762,8.27539,30.67993,15.54639,2.8584,1.8551,5.69922,3.81616,8.45947,5.86389,5.73718,4.25598,11.12598,8.88086,15.60986,13.67712,8.11377,8.67908,13.26099,17.91992,12.12158,26.55585-.60242,4.56549-10.22937,20.94348-14.93848,21.16388-3.6311.16998-17.19446-5.77454-23.17212-6.95673-5.48853-1.08545-10.83398-1.9892-16.11279-2.7016-4.56519-.61615-9.08081-1.08392-13.59021-1.39368-11.94031-.82013-23.84973-.5282-36.59924,1.12445,1.43188,1.15051,2.94458,2.3252,4.5144,3.52411,3.73975,2.85632,7.81323,5.85553,11.95667,9.02295,5.9021,4.51178,11.94202,9.36444,17.34949,14.63348,4.36426,4.25269,8.31274,8.77722,11.44653,13.61029,5.15002,7.94293,8.09399,16.72083,7.02271,26.50928-.96387,8.8078-14.28735,24.3985-20.20972,32.04584-6.46338,8.34607-25.55811,32.36157-33.04248,37.38068-.95093.63776-1.67871,1.24707-2.50171,1.50037-.7229.22253-1.51831.17322-2.61414-.41052-1.77161-1.29779-3.55615-2.60199-5.33899-3.90546-2.65881-1.94409-5.32373-3.896-7.99609-5.85626-16-11.73737-32.11584-23.79987-46.89697-36.65869-5.9043-5.13647-40.60718-36.85187-41.74878-40.6178ZM1252.47445,1631.92244c-49.93518,26.48291-99.27515,54.59003-150.63165,78.33673-28.79919,13.31647-60.13135,27.73462-90.7627,35.79297-.78278.20593-1.5672.42651-2.349.62396,22.01855-24.66766,39.79291-53.71234,47.2204-86.32526,3.41937-15.01398,3.98682-30.28168,6.87567-45.34576,39.23413-5.40448,79.81366-10.84454,119.61975-8.88409,13.24231.65216,45.77936,3.1651,57.3764,6.896.30695.09875.70404.28577,1.15698.53278,5.39801,2.94379,19.82184,15.58673,11.49414,18.37268ZM376.02431,1581.99354c-2.19824,1.65393-30.1377-34.71344-32.90747-38.36591-91.39014-120.5144-145.94128-263.71948-161.26196-411.24902-13.55615-130.53784,3.60889-264.45654,53.21509-389.05103,1.39465-3.50269,2.80566-7.00061,4.25146-10.48828.05908-.14233.1145-.28564.17358-.42798.90015-.11975,1.46472.0918,1.80078.50928,1.01318,1.25879-.05664,4.39368-.31177,5.99585-2.33325,14.65161-6.58325,29.87524-9.55273,44.93848-.66211,3.35864-1.26221,6.70947-1.76123,10.04407-26.75195,178.73572,30.6438,360.74414,159.03528,483.61511.31042.29883.6123.60718.92346.90503.76367.7312,1.53503,1.45337,2.30298,2.17957,15.32593,14.41492,31.6377,27.99976,48.92578,40.64185.21887.16003.43359.3241.65283.48376.65552.47778,1.31384.95239,1.97095,1.42834,18.78906,13.60999,38.2312,26.4613,59.09387,36.89478-68.51587,55.37219-108.09241,136.23621-126.41602,221.33966-.04358.20245-.09143.40399-.13489.60645ZM477.44643,1837.01478c-1.19751-1.36731-3.06714-1.49744-1.99731-3.95215,1.75476-4.02655,33.14697-32.95294,39.23938-39.11371,37.03723-37.45239,71.95154-72.49554,103.16882-115.75934,44.07275-61.0799,116.83698-177.17084,111.34424-265.62079-1.02759-16.54639-4.78772-32.12756-11.99316-46.198-2.71484-5.30127-10.96289-14.58997-11.70923-18.40076-1.78467-9.11157,2.13306-32.89392,1.95447-45.1554-.25574-17.55347-3.34021-36.5498-4.00671-54.22534,38.61841,5.11694,77.0896,13.03247,115.76447,17.78687,96.37177,11.84729,204.19116,12.80176,300.74231,2.04395,50.16333-5.58923,99.72882-16.34668,149.89313-21.85327l.04816.72156,3.97345,59.55066c-11.3432.23633-25.45972,3.96765-36.16681,8.02661-17.4895,6.63025-34.02258,17.22449-48.05505,30.45581-16.72644,15.77173-29.89648,35.29407-36.84918,56.36816-3.54602,10.74805-5.71808,21.33777-6.68365,31.74585-4.70825,50.7511,19.33801,97.17432,53.42554,136.49158-48.4563-1.10852-95.51129-.02112-143.27466,8.38776-11.73505,2.06598-29.73096,2.4798-33.05194,17.16089-2.56769,11.35095.60364,28.83759-.66638,41.51251-7.72675,77.11523-95.9223,139.85925-166.08954,155.27283-66.44263,14.5954-134.82916,13.5152-202.20819,18.72845-59.23389,4.58313-118.79712,11.01721-176.28442,25.89581-.17224.04456-.34558.08472-.5177.12946ZM1247.17171,1757.92451c-17.11127,37.76788-41.98425,71.7088-75.18323,96.86603-32.77435-2.53784-65.2865-8.53754-97.98987-11.67633-37.77185-3.62531-75.53943-6.19208-113.34088-7.87646-17.33173-.77234-34.6709-1.35773-52.02081-1.76721-36.20135-.85437-72.44983-.96265-108.78149-.42834-.50452-2.9906,3.76373-2.4881,5.98932-2.9967,19.45544-4.44604,40.57489-6.13263,60.32336-9.9964,120.4693-23.56958,237.68286-63.34479,344.76422-123.21979,7.62225-4.26196,15.06134-8.90741,22.48975-13.56842,12.00262-7.53107,23.97864-15.09961,36.64874-21.16577.93585-.44812,1.87817-.88208,2.82196-1.31311.31793-.1452.63184-.29919.95074-.44238-.01727.1485-.03894.297-.05646.4455-3.16479,26.85358-9.53485,53.78009-19.2373,79.37817-2.27441,6.00067-4.73407,11.92554-7.37805,17.76123ZM1662.32186,1482.91645c-10.45459,16.78137-21.55524,33.29578-33.33173,49.50122-12.33057,16.96802-26.84467,32.82861-38.65021,49.87689-.39154.56549-.7887,1.12848-1.17407,1.69666-.06488.00317-.12122-.01685-.18341-.02112-.20465-.01404-.39478-.06677-.57153-.15497-1.4491-.72302-2.00391-3.74591-2.30396-6.31311-.14825-1.26831-.23706-2.42303-.34253-3.12097-11.3656-75.2251-38.92035-134.19055-98.06329-183.1311l-39.09058-28.15454c127.65845-56.73743,215.677-177.23474,254.05798-309.34094,1.05408-3.62805,2.07312-7.27979,3.06293-10.94995,2.86139-10.60999,5.45416-21.38904,7.77185-32.30505,7.91455-37.27625,12.61444-76.1366,13.93237-115.21729.17694-5.24707.28674-10.49744.3407-15.74927.64563-62.80591-7.51276-125.70776-25.34235-183.06079-.80267-2.58203-1.45123-6.04895,2.2204-4.22949.03442.01709.07379.0498.10992.07227,2.71387,1.68286,10.11743,18.31616,17.83197,37.30518,9.6084,23.65039,19.69318,50.9353,21.7804,57.4812,41.08765,128.85718,51.59814,261.65625,31.80945,389.49353-8.91119,57.56714-23.97455,114.12427-45.15674,168.86462-17.42529,45.03149-38.99677,88.82837-64.698,130.9436-1.32733,2.17493-2.66028,4.34741-4.00958,6.51343Z"/></svg>