<?xml version="1.0" encoding="UTF-8"?><svg id="Layer_1" xmlns="http://www.w3.org/2000/svg" xmlns:xlink="http://www.w3.org/1999/xlink" viewBox="0 0 1904.1844 2574"><defs><style>.cls-1,.cls-2,.cls-3{fill:none;}.cls-4{fill:#fed45e;}.cls-5{fill:gray;}.cls-6{fill:url(#linear-gradient-4);}.cls-7{fill:url(#linear-gradient-3);}.cls-8{fill:url(#linear-gradient-2);}.cls-9{fill:#fd5b0a;}.cls-10{fill:url(#linear-gradient);}.cls-11{fill:#c64707;}.cls-12{fill:#020101;}.cls-2{stroke:#c64707;}.cls-2,.cls-3{stroke-linecap:round;stroke-linejoin:round;}.cls-13{fill:#fd6b10;}.cls-14{fill:#9b9b9b;}.cls-3{stroke:#c74d0a;}.cls-15{fill:#b3b3b3;}.cls-16{fill:#fcfcfc;}.cls-17{fill:#c74d0a;}</style><linearGradient id="linear-gradient" x1="959.1274" y1="-23.59344" x2="959.1274" y2="1411.21312" gradientUnits="userSpaceOnUse"><stop offset=".42728" stop-color="#ffb02c"/><stop offset=".72332" stop-color="#ff690f"/></linearGradient><linearGradient id="linear-gradient-2" x1="620.85374" y1="1066.96062" x2="1283.66387" y2="1066.96062" xlink:href="#linear-gradient"/><linearGradient id="linear-gradient-3" x1="999.75521" y1="323.43939" x2="999.75521" y2="856.51953" gradientTransform="translate(-48.96335 2162.04354) rotate(-71.58008) scale(.76716 .53473)" xlink:href="#linear-gradient"/><linearGradient id="linear-gradient-4" x1="1809.2155" y1="1443.1853" x2="1809.2155" y2="1976.26544" gradientTransform="translate(1036.47366 -316.65401) rotate(45.11358) scale(.83553 .606)" xlink:href="#linear-gradient"/></defs><path class="cls-10" d="M1709.46855,804.21792c0,347.0932-335.93904,628.46796-750.34099,628.46796S208.78624,1151.31112,208.78624,804.21792c0-248.7813,139.83369-439.75468,387.06598-551.88939,53.76717-24.38665,142.44966-103.3896,201.51431-134.06348,30.69494-15.94072,29.86225,14.38811,58.03514,21.28507,16.12284,3.94701,53.69757-19.07545,81.86097-13.9913,407.81016,73.61929,772.2059,331.5659,772.2059,678.6591Z"/><path class="cls-1" d="M355.70515,1566.49088c.91361-4.1026,1.87042-8.19668,2.87304-12.27981-1.00262,4.08313-1.95943,8.17705-2.87304,12.27965v.00016Z"/><path class="cls-1" d="M503.06614,1700.75793c3.64988-.71662,31.04393-33.31046,35.38295-38.91339,14.413-18.61147,29.50073-33.26334,14.18263-57.84063-1.15576-1.85472-3.96271-1.17769-4.08476-1.35504-10.20749-14.86964-11.20585-17.01379-26.11067-28.11935-.32297-.24067-2.02324.30727-3.35701-.62991-3.25917-2.29042-9.31645-8.45176-12.71044-11.40104l42.17812-2.02864,45.71838,11.73187c5.41624,1.76751,14.44408-13.73613,15.63813-17.66382,4.8652-16.00201-10.67215-28.99517-21.18592-38.25534-15.4984-13.64958-20.26183-14.2916-38.16208-22.09364-2.24183-.97742-5.13516-4.22678-8.02391-5.01147.95419-2.12239,9.31547-4.43195,12.04094-5.0311,11.67837-2.56774,30.38261-2.18652,42.1791,0,6.3652,1.17965,40.18532,15.20848,42.00044,13.90285,7.70977-12.31482,1.53763-27.90452-5.4578-39.41961-2.36683-3.89628-5.1381-4.89137-6.41494-6.61945-8.59786-11.63517-10.76966-11.75298-20.08513-20.08513-2.19372-1.96172-7.39334-9.08707-11.54846-11.98596-5.2631-3.67213-12.8662-6.85211-18.57956-10.10801-.25556-.71401-4.36618-1.70354-4.01637-3.99674,5.3328.09293,10.73661-.20353,16.06778-.02029,13.63616.46957,29.43725,3.26048,42.17878,8.03405,4.61945,1.73103,26.57893,15.12962,28.09366,14.05665,3.44569-13.04094,2.88352-27.2288.02552-40.16732-4.11912-18.64599-9.21403-23.03246-26.11067-30.1277-15.08741-6.3351-25.46898-9.13746-42.17878-8.03405-81.68804,5.39465-139.99775,91.97734-166.70692,160.68138-9.36554,24.09071-14.85148,40.47753-20.08546,66.28093-1.82854,9.01639-7.56677,26.60658-6.03012,35.06145,1.08115,5.9475,9.92575,11.06613,14.0645,15.15155,10.5442,10.40824,21.46373,18.93379,32.13621,28.11918,9.35245,8.04894,18.09952,16.37701,28.11918,24.10216,9.76606,7.52963,19.29979,17.35165,30.84269,21.78556Z"/><path class="cls-1" d="M420.37352,1411.20742c-4.88221,6.99544-9.44931,14.17379-13.78341,21.47846,4.33444-7.30499,8.9012-14.48302,13.78341-21.47846Z"/><path class="cls-1" d="M203.31339,886.13012c.26963,5.59884.62893,11.38681,1.07167,17.30273-.44274-5.91592-.80203-11.70422-1.07167-17.30273Z"/><path class="cls-1" d="M205.71653,918.97543c.85406,8.87666,1.87762,17.91137,3.06971,26.92514-1.19208-9.01409-2.21565-18.04848-3.06971-26.92514Z"/><path class="cls-1" d="M156.88656,1004.11145c.65412-20.05699,2.12861-40.08486,4.36192-60.03354-2.23332,19.94868-3.70812,39.97655-4.36192,60.03354Z"/><path class="cls-1" d="M1516.65129,1560.46992c-2.0697-13.99578-4.29419-23.01773-8.03405-36.15324-4.50819-15.83348-8.53471-27.51676-16.06811-42.17878-27.75727-54.02174-77.9256-90.48355-131.84132-116.21071-61.08-29.14537-125.54713-49.95105-171.4445,15.78473-8.64956,12.38812-11.30599,16.36326-14.05959,32.13621-2.7523,15.76542-2.99837,28.5328,2.03273,44.18271,12.26279-9.21796,26.30864-23.68036,40.14605-30.12312,10.16429-4.73202,24.41859-6.51376,35.1732-9.99741-2.16231,4.78274-7.41167,10.06154-11.07104,14.01476-10.02031,10.82464-14.53374,14.79127-22.09364,28.11918-6.78569,11.96273-6.81972,12.94735-10.04257,26.11067-2.11944,8.65676-8.1188,16.56091-2.10995,27.21571,8.96239,15.8914,25.35969-5.27586,36.25468-11.14761,14.40612-7.76409,27.69543-11.61718,44.18762-12.05108,4.67606-.12304,9.38157.08508,14.05959,0-7.69047,7.75035-16.55567,14.15972-24.10216,22.09364-10.54911,11.09034-14.18525,16.37112-20.08546,30.1277-2.04353,4.76441-7.63844,9.57987-5.73136,16.62406.48135,1.77815,21.47224,23.05798,23.08972,23.33858l36.87183-19.87751c14.80894-2.35177,28.86493-8.67836,44.18664-8.01376-5.01965,4.51408-8.27293,11.37716-12.05042,16.04782-1.36322,1.68554-4.60603,3.06169-6.86193,6.16968-9.39531,12.94522-19.20391,29.13064-15.79585,45.55313l96.26596,80.61376c7.66363,1.36159,83.73419-65.53355,93.09841-76.09804,2.45485-2.7698,8.33543-5.03404,9.63026-9.45634,1.47252-5.03045.58246-16.67216.4123-22.68003-.32657-11.51917-2.33934-22.79996-4.01703-34.14472Z"/><path class="cls-1" d="M1683.35788,1277.26924c4.57855-6.61127,9.39368-13.05043,14.12373-19.56157-4.73005,6.51114-9.54551,12.9503-14.12373,19.56157Z"/><path class="cls-1" d="M1560.38831,1526.65341c-1.28862-5.48889-2.74215-10.93393-4.35669-16.32727,1.61453,5.39334,3.06807,10.83871,4.35669,16.32727Z"/><path class="cls-1" d="M1601.05465,1382.65466c4.55204-5.70878,9.22646-11.31777,13.95619-16.88192-4.72972,5.56415-9.40448,11.17313-13.95619,16.88192Z"/><path class="cls-1" d="M315.5591,1078.42644c20.48304,43.9026,40.50469,74.10818,72.30647,110.46822,47.6212,54.44615,85.53818,76.27147,147.96505,110.12987,3.55433,1.92802,12.52654,9.63321,13.97451,9.91069,3.9326.7536,14.73793-4.55171,20.0223-5.36356,27.38685-4.20845,55.50211-3.00819,81.13405,7.84164-.1538-28.19281,1.58476-56.74688-4.94995-84.4086-15.27327-4.03404-31.33745-6.00591-45.24292-14.00789-25.42939-14.63322-37.2056-44.78939-25.11067-72.3104,1.08181-2.46205,13.74905-20.90712,15.0681-22.08972,2.59032-2.32265,24.31453-11.2605,28.81847-12.35605,12.43426-3.02357,25.76152-2.24837,37.91928-4.25983,49.45694-8.1813,71.55844-28.05734,103.98588-61.71613,25.96047-26.94673,52.46087-63.1075,82.34904-86.36607,78.45374-61.05186,178.30021-50.68665,249.05563,16.06811,25.46996,24.02919,45.07734,53.95695,70.29829,78.33201,27.1951,26.28279,51.67062,44.26059,89.96981,51.63037,25.08744,4.82789,47.26125,1.01506,69.36144,17.00463,16.43722,11.89205,29.1434,35.20166,25.45229,55.89282-.37925,2.12501-6.76507,16.22845-8.35997,18.75463-10.7245,16.9863-35.87117,30.33123-55.81003,31.55048l4.78143,66.32609c7.44995,2.49412,15.13649,3.13024,22.75431,5.36454,9.14269,2.68194,33.83975,14.15907,39.80148,14.56254,3.88974.26342,41.2079-15.34068,47.76616-18.33938,47.989-21.94181,86.43609-51.33652,121.79875-90.09971,28.504-31.24485,44.98114-56.82214,64.27242-94.40012,18.11785-35.29132,25.70949-56.45467,36.15324-94.40012,11.86587-43.1117,17.32858-71.31432,20.08513-116.49409,2.46859-40.44939,1.47644-78.00773-4.01703-118.50228-30.69413-226.26205-178.95106-407.13818-386.28604-496.45648-92.66942-39.92092-194.95634-64.91902-296.59895-59.91279-2.27422-2.01768,9.98137-13.27981,12.01705-15.07727,20.72355-18.30175,49.78613-30.39439,76.33953-37.15488,4.42442-5.75591-26.06159-21.57074-30.16238-23.03409-23.04456-8.2245-50.28809-7.24282-73.91643-1.69503-36.86135,8.65513-69.30516,35.29001-72.68278,74.96289-2.65315,3.25034-25.70949-24.46603-27.75793-27.45557-4.87567-7.11684-18.41759-32.39603-18.41759-39.82929v-31.13195c-42.96739,18.05175-60.50703,65.38532-30.95754,104.26827,2.10275,2.76768,17.41693,16.0596,14.87962,18.24089-98.65013,11.54192-189.43048,64.0823-266.9513,123.70517-78.30584,60.22693-144.46602,133.56711-192.98906,219.76105-25.90321,46.01452-40.2609,81.65467-54.22986,132.56187-9.41691,34.32012-17.07727,66.3346-20.08513,102.4345-3.62926,43.55803-1.1394,87.56011,6.02554,130.55368,7.7029,46.21838,20.58841,84.56469,40.17026,126.53633ZM1512.61757,924.74802c-18.54226,20.6545-38.98407,43.9422-62.24722,59.2783-81.06501,53.44124-193.88468,60.51456-267.13258-10.04257-18.61687-17.93329-42.04723-52.52304-50.21283-76.32383-9.88812-28.82174-9.87208-68.73742-4.01703-98.41715,6.4385-32.6385,25.30144-68.36046,48.20432-92.39193,89.47242-93.88048,243.74639-67.41314,299.26879,48.20464,18.40057,38.31653,23.81289,78.48875,16.06811,120.51079-3.63319,19.71275-13.22582,42.363-24.05962,59.27339,14.5609-.01898,28.28411-9.17902,41.1719-13.04781,2.80924-.84326,3.57036.20812,2.95616,2.95616ZM1589.96202,684.7572c1.30432.6695,1.30432,1.33901,0,2.00851v-2.00851ZM906.10975,175.64591c24.95033-31.4811,67.19651-24.34856,102.39621-19.11523.47906,5.31513.10569,3.25983-3.01375,3.97285-38.94055,8.89858-68.77538,19.70391-96.44561,50.21545l-23.04882,32.15486c4.00656-23.03442,5.02063-48.18599,20.11196-67.22793ZM795.61993,150.50742c2.72448-.50622,3.06349,3.6057,3.45682,5.52194,1.97252,9.59819,2.15871,18.78997,5.59884,28.56487,8.33968,23.69574,26.72651,40.45004,45.14835,56.26127-51.70727-9.15055-80.59413-37.50795-54.204-90.34808ZM788.30708,272.75415c325.13437-84.58203,676.37875,101.61545,800.60683,409.01417-2.00655,1.44896-4.72318-2.75328-5.92279-4.09981-54.5813-61.28125-88.88342-114.16228-172.37153-142.96537-5.33902-1.84196-27.44412-5.65447-28.54458-6.62175-3.26342-2.86814,1.32527-3.61716,2.54713-4.58247,5.16494-4.07985,37.00632-23.77264,37.61463-26.57468.7356-3.38941-13.93132-11.10409-17.30175-12.77425-40.00141-19.82401-85.10036-16.20161-127.28895-6.28208,3.57723-22.86066,13.81221-36.49813,33.51514-47.80968l16.67478-8.39138c-37.273-14.68328-74.47271-25.61067-115.21627-21.86001-19.1401,1.76178-36.92647,9.80893-55.48182,13.79127.15314-16.63028,11.57267-31.4065,24.26512-40.99095,7.79452-5.88614,14.05174-6.77816,21.36131-10.74872,2.34359-1.27291,3.39268.07853,2.55956-4.47907-41.65063-5.10538-83.62195-7.67476-124.0913,5.44046-13.44179,4.35603-25.31028,12.06809-38.58322,16.63028,1.72186-12.36129,4.99674-23.56682,10.32234-34.84859l23.80209-35.42876c-52.95629,10.16331-120.8354,20.19344-161.66306,58.24917-3.30596,3.08116-8.04747,15.19081-11.24316,7.26114-10.82987-26.87376-7.10309-52.75636,10.22908-75.54012-55.06886,7.87568-116.46857,20.69803-158.46933,59.43406-3.7451,3.4542-7.32757,14.23826-11.81384,5.38123-6.00165-11.85016-1.70877-36.06489,1.55825-48.75667-37.43138.81054-70.28749,13.83282-105.06441,24.46342-1.9915.60897-6.0046,3.40871-7.39302.64169,47.61433-30.11592,100.675-53.31755,155.39275-67.55253ZM437.14385,919.68387c-10.80598-24.67546-16.39468-49.3483-17.14173-76.2538-.87075-31.36069,8.43752-71.04633,24.10216-98.41715,71.73285-125.33966,259.04028-121.82951,325.37946,6.02554,15.34526,29.57501,21.36917,65.3166,20.08513,98.41715-1.12598,29.02658-11.04944,65.32184-26.11067,90.38342-8.0406,13.37896-29.01906,36.01449-41.2344,46.13592-19.38487,16.06189-42.66242,25.71244-65.2168,36.21312-8.45094-1.38547-30.42613,5.3881-41.19644,6.00525-41.6346,2.38548-100.71329-13.14336-136.90089-33.78085-8.52784-4.86389-25.35609-19.10476-32.79688-20.42872l-28.12278-27.11133-16.02229-22.11917,44.13297,13.06875c.81545-.80465-7.67607-15.21405-8.95683-18.13814Z"/><path class="cls-1" d="M1681.27999,677.14265c.00785-.18063.02225-.34653.07919-.40838-.05726.06185-.07134.22775-.07919.40838Z"/><path class="cls-16" d="M1002.22715,1621.48547c1.27029-12.67494-1.90118-30.1614.66623-41.51238,3.32134-14.68116,21.31746-15.0951,33.05212-17.16104,47.76354-8.40889,94.81864-9.49626,143.27492-8.38762-59.48576-65.32642-79.47861-158.30965-10.04224-224.93384-10.79322-2.79647-28.99288,6.10604-38.16175,4.01703,2.23823,8.9372-3.58542,19.35182-13.14172,20.00398-15.02491,1.02585-42.51713-12.14139-61.17359-11.96993-7.39531.06806-23.63259,4.01703-31.13163,4.01703h-96.40863c-5.76703,0-18.9261-5.8652-25.10674,0,64.3058,14.60279,128.18653,31.87312,192.85817,45.15097,16.02655,6.05663,13.33806,28.23764-4.77848,27.05668l-323.13371-74.73645c-8.19832-.7716-11.77654-13.35671-9.55893-19.56484l-72.30647-18.07662c-.13874,8.85474-3.63941,18.48892-1.95485,27.07861.74837,3.81513,8.99348,13.09689,11.70946,18.4009,45.71347,89.28067-47.06033,239.34995-99.35105,311.81889-31.21736,43.26386-66.13172,78.30698-103.16879,115.75931-6.09262,6.16085-37.48472,35.0873-39.23931,39.11381-1.07003,2.45469.79974,2.58476,1.99739,3.95207,57.64675-14.97403,117.39069-21.42839,176.80217-26.02527,67.37845-5.2132,135.76541-4.13303,202.208-18.72845,70.16707-15.41349,158.36298-78.1576,166.08944-155.27283ZM767.5122,1380.53915c101.74503,26.40976,205.78163,45.29822,307.29335,72.44751,5.37534,1.4375,20.36818,4.18522,23.55144,7.56776,8.33968,8.86324-.02618,27.64863-13.96961,23.1604l-321.41119-76.41414c-15.27458-4.86029-12.45193-28.06683,4.53601-26.76152ZM736.78306,1488.53616c3.02259-.89954,6.06023-.5769,9.06972.11322l223.42795,51.78548c20.43265,8.30041,10.69178,30.65322-9.769,25.85903l-221.80687-51.37285c-13.53636-2.97841-13.42412-22.66367-.9218-26.38489ZM712.68384,1552.85178c3.70158-.82723,7.39662-.74019,11.08347.09064l224.08305,53.11009c16.70489,4.63516,12.99447,27.91778-4.31775,26.59186l-226.27743-53.0862c-15.82334-.52651-19.74383-23.31338-4.57135-26.70639ZM697.93184,1616.8791c45.51845,14.47484,97.96492,21.0264,142.7242,36.10726,2.7379.92245,8.98955,2.63646,10.6535,4.40266,7.69734,8.171.9964,26.31568-12.2484,23.49254-45.53808-16.37079-105.04805-20.79439-148.9945-37.98161-19.61033-7.66952-11.67346-29.41385,7.8652-26.02085Z"/><path class="cls-15" d="M778.27597,1317.68558c32.82568,2.71532,83.21161,19.61654,117.35142,27.35806,2.97383.67409,6.24478.01963,8.42672.51505,6.18064-5.8652,19.33971,0,25.10674,0h96.40863c7.49904,0,23.73632-3.94896,31.13163-4.01703l-107.9067-25.66041c-13.29094-11.4804-6.01245-26.22422,11.99414-24.03442,41.72426,5.07429,108.55788,21.44999,150.16368,32.60153,7.93948,2.12795,17.52917,8.48203,20.06419,9.05925,9.16887,2.08901,27.36853-6.8135,38.16175-4.01703,21.28572-20.42348,54.56395-36.28773,84.35199-38.17124l-4.00263-60.25507c-56.7279,6.37731-112.8537,18.73303-169.73932,24.10052-79.83333,7.53307-165.16143,7.75493-245.01897.00196-50.78875-4.93097-101.14294-15.23139-151.64144-22.08023,1.60897,24.06584,4.3845,48.16505,4.00688,72.30189l72.30647,18.07662c2.08901-5.84753,13.48204-6.22253,18.8348-5.77947Z"/><path class="cls-11" d="M1755.2455,900.20967c-2.82461-18.97878-6.27947-37.82929-10.37994-56.43241-1.09326-4.96075-2.23266-9.90415-3.41853-14.82792-1.43914-5.97809-2.97056-11.91561-4.54681-17.83153-2.31807-8.70061-4.76114-17.34069-7.37764-25.88456-4.39563-14.35344-9.21436-28.46801-14.46437-42.28349-3.50001-9.2101-7.19177-18.28735-11.07725-27.2131-3.88548-8.92607-7.96468-17.70096-12.23989-26.30701-.27258-.54876-1.31512-2.99641-2.6934-5.64498-.45975-.88286-.95681-1.78796-1.47481-2.65282-.22677-.37827-.45779-.74837-.6911-1.10602-1.16754-1.78698-2.40347-3.24772-3.5396-3.72416-.45484-.19045-.89333-.22382-1.30498-.05694-.2356.09555-.46204.25589-.67801.48953-.05694.06185-.07134.22775-.07919.40838-.00164.04319-.01963.0481-.01865.09784.00425.2572.04352.59915.11355,1.01473.14038.83115.40412,1.95747.75589,3.29091.2199.83344.47448,1.74739.75491,2.72088.56054,1.94634,1.22481,4.13025,1.92409,6.37894.34948,1.12435.70779,2.26506,1.06643,3.40021.28665.90805.57395,1.81316.85668,2.70321.56512,1.78076,1.11322,3.50394,1.6093,5.08117.99215,3.15413,1.77487,5.72482,2.06807,7.00656,8.16691,35.71999,13.39336,72.66904,15.55763,110.05461.3089,5.34098.55563,10.6908.73953,16.04716.13024,3.79778.22906,7.59917.29614,11.40284.11747,6.65643.13711,13.32072.05956,19.98795-.23331,20.00267-9.3874,40.03414-11.40573,59.9766-1.85341,18.31157-4.46696,36.54787-7.85571,54.61598-1.12958,6.02292,5.694,12.02686,4.39164,18.00921-7.81448,35.89277-26.78797,70.99233-40.96307,104.56147-4.72449,11.18949-9.80958,22.20916-15.2592,33.03183-13.62373,27.05603-29.52495,52.87874-47.77369,77.04176-10.94964,14.49775-14.70429,9.32381-27.35877,22.53457-6.73006,7.0262-12.08713,1.40855-19.76876,8.02768-3.84065,3.30956-11.13243,10.37732-15.13768,13.5789-6.00852,4.80302-6.87362,15.01215-13.11578,19.56157-2.0805,1.51669-10.0191-1.48724-12.11367,0-4.18915,2.97481-7.90234,8.18719-12.11014,11.04224-6.31186,4.28306-12.95775-.68546-19.17439,3.31716-2.07232,1.33443-7.03319,17.90856-9.08261,19.21092l-22.20192,11.75904-40.53163,14.92085c19.9045,10.90546,56.15557,42.53517,72.3369,58.04274,12.1355,11.63059,3.02421,20.95201,12.79714,34.62089,3.25786,4.55629,12.23992,10.19696,15.218,14.94435,1.48921,2.37402,9.35751,13.74405,10.77505,16.16258,6.67017,11.37961,6.47215,14.46626,11.49245,26.69568,1.38122,3.36454,10.76772,18.92223,12.01871,22.34044,1.9326,5.28012-1.61519,4.82283,0,10.21584,1.61453,5.39334,12.91291,16.07206,14.20153,21.56095,3.22121,13.72157,19.35558,12.26423,20.44328,26.39058l41.78611-51.57834c1.56283-1.99248,3.07789-4.01539,4.55302-6.06317,2.95027-4.09523,5.74183-8.2906,8.44014-12.54159,6.74576-10.62699,12.90874-21.60215,19.51478-32.2406l-40.12445-83.41514c4.55171-5.70878,9.22646-11.31777,13.95619-16.88192,4.72972-5.56415,9.51475-11.08314,14.28734-16.61228,4.77292-5.52914,9.53307-11.06776,14.21372-16.67118,4.68064-5.60309,9.28177-11.27097,13.73531-17.05829,9.43589-12.2605,17.48107-25.69968,26.11067-38.16175,4.57822-6.61127,9.39368-13.05043,14.12373-19.56157,2.00982-2.76637,3.99608-5.55303,5.95028-8.3639.72317-1.04025,1.43718-2.0877,2.14791-3.13744,1.47644-2.17998,2.91886-4.38581,4.32527-6.61978.39333-.62435.79974-1.2392,1.18652-1.86911,1.97841-3.22121,3.90577-6.47188,5.79583-9.74414,5.66984-9.81711,11.00199-19.82859,16.35934-29.82272,5.35702-9.99446,10.7389-19.97126,16.50724-29.71932,1.92278-3.24935,3.8881-6.47384,5.91036-9.66429,10.63223-70.63435,12.28177-147.91924,3.9879-224.28201-1.24379-11.45422-2.71172-22.88815-4.40675-34.27529Z"/><path class="cls-2" d="M1707.06311,866.32967c.07755-6.66723.05792-13.33151-.05956-19.98795"/><path class="cls-2" d="M1684.80978,690.64596c-.69928-2.2487-1.36355-4.4326-1.92409-6.37894"/><path class="cls-2" d="M1687.57288,681.13186c-.22677-.37827-.45779-.74837-.6911-1.10602"/><path class="cls-2" d="M1682.0372,676.24474c.41165-.16689.85013-.13351,1.30498.05694"/><path class="cls-11" d="M1283.66376,1138.68183c-11.93655,10.50068-27.54916,14.97713-42.1791,20.08513-19.58022,6.83641-34.20886,9.77228-54.22986,14.05959-25.44019,5.44766-46.20791,9.08543-72.30647,12.05108-33.33222,3.78764-66.84474,7.01573-100.42599,8.03405-42.76451,1.2968-85.97241.01113-128.54484-2.00851-80.73058-3.83018-182.72823-12.25396-257.64859-42.62708-3.06447-1.24215-6.16821-2.072-7.47515-5.57724-31.44313,7.9205-20.93723,28.2828-2.68849,39.84566,16.23434,10.28635,95.59336,29.41263,119.42915,33.07429,160.89244,24.71571,295.46036,14.67485,456.1064-11.23981,22.63128-3.65086,93.46033-13.04912,108.70644-23.85543,23.76544-16.84461,16.50909-37.45679-18.74351-41.84173Z"/><path class="cls-9" d="M308.68474,1346.74848c-24.28279-28.84759-47.29136-59.15821-68.48677-90.68218-7.06514-10.50788-13.92903-21.15123-20.57172-31.91959-3.32102-5.38418-6.58706-10.79977-9.79518-16.24546-2.40609-4.08443-4.77946-8.18589-7.11978-12.3037-7.01965-12.35409-13.7376-24.85674-20.12505-37.49486-5.67737-11.23367-11.09362-22.57467-16.2291-34.01383-1.17343-2.61421-.5072-5.68653-3.78862-5.68915-.46859-.00065-1.01833.06152-1.66493.19699,12.61751,126.77717,58.04138,251.04975,126.53633,357.51534l45.93206-101.0127c-8.35735-9.28144-16.5933-18.735-24.68724-28.35086Z"/><path class="cls-5" d="M1250.36194,1644.88474c-148.96333,90.2684-320.64464,146.45703-496.94632,168.67813l20.37865,4.08018c37.69625.67179,75.61094-1.18898,113.26154-.08312-1.22463-5.32675,2.84646-4.0059,6.4329-4.95126,9.10763-2.40069,18.71537-4.36061,27.97894-6.16903,99.80571-19.48336,199.78317-38.34352,299.71531-57.16933,13.96014-27.05145,29.89016-67.71255,32.05424-97.68449.20721-2.86895,2.15636-8.03618-2.87526-6.7011Z"/><path class="cls-16" d="M1042.50802,1599.50242c-2.88875,15.06401-3.45616,30.33172-6.87567,45.34567-7.42738,32.61298-25.20164,61.65756-47.22035,86.32533,31.37508-7.92492,63.57641-22.7602,93.11183-36.41698,51.35616-23.74679,100.69627-51.85387,150.63162-78.33676,9.02653-3.01964-8.68621-17.62979-12.65121-18.90548-11.59722-3.73087-44.13395-6.2438-57.37646-6.89596-39.80606-1.96041-80.38536,3.47956-119.61975,8.88419Z"/><path class="cls-14" d="M878.99684,1810.27768c-3.81339,1.02671-8.1421-.4078-6.83998,5.37734,15.24161.4572,33.25925,1.3725,49.25592,2.20357,74.28568,3.86002,156.51761,29.3139,230.26369,37.91565,37.48639-24.25827,56.33956-75.86444,75.75118-114.28553-106.25587,20.44587-212.55992,40.92905-318.68136,62.08907-9.84976,1.96404-20.06548,4.09262-29.74945,6.69991Z"/><path class="cls-17" d="M406.5901,1432.68588c4.33411-7.30467,8.9012-14.48302,13.78341-21.47846,2.24673-3.21925,4.53993-6.35964,6.87829-9.43196,4.67671-6.144,9.53242-12.01574,14.55109-17.70162,2.50982-2.84261,5.0599-5.63876,7.64891-8.39924,2.58934-2.76015,5.21729-5.48496,7.88189-8.18458,7.99479-8.0995,16.32171-15.97386,24.92742-23.91531-13.85475-6.92574-27.37115-14.62602-40.50109-23.02657-26.25956-16.80076-50.97101-36.40193-73.74267-58.20532-5.69242-5.4506-11.26443-11.03962-16.70849-16.75626-2.72219-2.85832-5.41199-5.74871-8.06972-8.67018-5.31546-5.84262-10.50003-11.80893-15.54847-17.88945-5.04812-6.08051-9.95978-12.27556-14.72844-18.57531-2.3845-3.14988-4.73332-6.32593-7.04583-9.52718-4.62436-6.40218-9.10343-12.90481-13.43001-19.49842-21.63487-32.96802-39.47131-68.2083-52.7436-104.55361-.79581-2.179-1.61093-4.39006-2.43718-6.62567-4.13188-11.17771-8.54256-22.97094-12.19473-34.48144-1.30301-4.10734-2.48724-8.16691-3.55007-12.16168-.12893-.48331-.27749-.9771-.40183-1.45812-2.55302-9.87895-4.87501-20.60837-6.94439-31.78412-2.06938-11.17542-3.88614-22.79751-5.42835-34.46082-1.19208-9.01377-2.21565-18.04848-3.06971-26.92514-.50524-5.251-.95026-10.44374-1.33148-15.54258-.44274-5.91592-.80203-11.70389-1.07167-17.30273-.12173-2.52815-.22775-5.02259-.31348-7.46795-.23887-6.82397-.30236-13.63485-.20975-20.43428.0926-6.79943.34195-13.58675.72775-20.3636.38613-6.7762.90936-13.54192,1.55007-20.29717.35471-3.73888.75327-7.47384,1.17736-11.20618,1.10766-9.75592,2.4326-19.4922,3.93162-29.2095,1.03632-6.71795,2.15217-13.42674,3.32887-20.12833,1.76473-10.05173,3.66591-20.08579,5.63876-30.10512.6574-3.34,1.32297-6.6777,1.99412-10.01442,0,.00033-.00033.00033-.00033.00065l-38.55213-1.58892-4.57626,16.50361c-2.4038,6.79387-9.5983,9.30523-11.85256,16.16258-2.32658,7.07823,6.47168,18.06817,4.31002,25.20857-.93783,3.0985-8.31319,13.70451-9.21895,16.81414-6.8724,23.58416-10.64841,52.39549-15.56367,76.50288-.40314,1.97612.38489,17.64398-.00451,19.62305-1.03273,5.25427,11.00393,3.37844,10.07035,8.65136-1.86781,10.54584-8.72742,18.35707-10.18423,28.96508-.91067,6.63025.70944,18.25667-.03467,24.90591-2.23332,19.94868-8.89037,35.40199-9.54449,55.45898-.2945,9.0406-.04433,18.71787-.0031,28.33145.08213,19.22649-1.41192,34.79959-.13835,53.99303.63678,9.59656,24.16118,23.15355,25.05778,32.16077.6466-.13547,1.19634-.19764,1.66493-.19699,3.28142.00262,2.61519,3.07494,3.78862,5.68915,5.13548,11.43917,10.55173,22.78016,16.2291,34.01383,6.38745,12.63812,13.1054,25.14077,20.12505,37.49486,2.34032,4.11781,4.71369,8.21926,7.11978,12.3037,3.20812,5.4457,6.47417,10.86129,9.79518,16.24546,6.64269,10.76835,13.50658,21.41171,20.57172,31.91959,21.19541,31.52397,44.20398,61.83459,68.48677,90.68218,8.09394,9.61586,16.32989,19.06942,24.68724,28.35086l-45.93206,101.0127v.00033c2.54451,3.95518,5.09949,7.92181,7.67541,11.88747,10.30238,15.86228,20.93592,31.70133,32.5459,46.66406,4.44896,5.73365,9.09819,11.28243,13.87046,16.71045,2.98561,3.39628,6.0491,6.71304,9.18425,9.9588,1.66198,1.72055,3.28142,3.48447,4.98921,5.15774v-.00016c.91361-4.1026,1.87042-8.19652,2.87304-12.27965,1.00197-4.08313,2.04974-8.15578,3.14366-12.21535,2.18783-8.11913,4.56186-16.18656,7.13222-24.1856.62533-1.94536,1.26735-3.8845,1.91656-5.82135,1.86257-5.55662,3.80106-11.08576,5.8688-16.56287,4.13974-10.96502,8.72941-21.74384,13.7556-32.31193,3.50655-7.3724,7.24217-14.63355,11.21502-21.77035,1.61879-2.90773,3.28044-5.79288,4.98005-8.65775Z"/><path class="cls-3" d="M202.71129,1195.59756c-7.01965-12.35409-13.7376-24.85674-20.12505-37.49486"/><path class="cls-9" d="M1702.32979,1323.57172c-13.90056-3.47187-31.48045-.57494-45.08258-8.14073-4.45355,5.78732-9.05467,11.4552-13.73531,17.05829-4.68064,5.60342-9.4408,11.14205-14.21372,16.67118-4.77259,5.52914-9.55762,11.04813-14.28734,16.61228-4.72972,5.56415-9.40415,11.17313-13.95619,16.88192l40.12445,83.41514c29.22455-47.06328,48.11204-84.60101,68.28945-136.57922-1.56381-3.66886-3.25263-4.94831-7.13876-5.91886Z"/><path class="cls-13" d="M1733.24675,1198.15058c-5.35734,9.99414-10.68949,20.00562-16.35934,29.82272-1.89006,3.27226-3.81742,6.52292-5.79583,9.74414-.38678.62991-.7932,1.24477-1.18652,1.86911-1.40642,2.23397-2.84883,4.4398-4.32527,6.61978-.71073,1.04974-1.42474,2.09719-2.14791,3.13744-1.95419,2.81087-3.94046,5.59753-5.95028,8.3639-4.73005,6.51114-9.54518,12.9503-14.12373,19.56157-8.6296,12.46207-16.67478,25.90125-26.11067,38.16175,13.60213,7.56579,31.18202,4.66886,45.08258,8.14073,3.88614.97055,5.57495,2.25001,7.13876,5.91886,22.65582-58.36108,36.80245-108.31802,46.1958-170.72362-2.02226,3.19045-3.98758,6.41494-5.91036,9.66429-5.76834,9.74806-11.15023,19.72486-16.50724,29.71932Z"/><path class="cls-12" d="M1509.66141,921.79186c-12.8878,3.86879-26.611,13.02883-41.1719,13.04781,10.8338-16.91039,20.42643-39.56064,24.05962-59.27339,7.74478-42.02204,2.33247-82.19426-16.06811-120.51079-55.5224-115.61778-209.79637-142.08513-299.26879-48.20464-22.90287,24.03148-41.76582,59.75343-48.20432,92.39193-5.85505,29.67973-5.87109,69.59541,4.01703,98.41715,8.1656,23.80078,31.59596,58.39053,50.21283,76.32383,73.2479,70.55712,186.06757,63.48381,267.13258,10.04257,23.26315-15.3361,43.70496-38.62379,62.24722-59.2783.6142-2.74804-.14692-3.79942-2.95616-2.95616ZM1247.01772,715.41402c78.55911-10.2425,88.52576,112.82949,11.49872,117.97577-73.80321,4.93064-84.32221-108.48098-11.49872-117.97577ZM1191.27215,951.91007c15.18329,4.44406,27.54883,14.95063,42.2488,20.99907,94.93382,39.05835,202.17593-11.6463,224.32847-112.96136l4.5491-26.54817c26.70001,157.54688-170.52139,229.32718-271.12637,118.51046Z"/><path class="cls-4" d="M1005.49221,160.50352c3.11945-.71303,3.49281,1.34228,3.01375-3.97285-35.1997-5.23333-77.44589-12.36587-102.39621,19.11523-15.09134,19.04194-16.10541,44.19351-20.11196,67.22793l23.04882-32.15486c27.67023-30.51153,57.50506-41.31686,96.44561-50.21545Z"/><path class="cls-4" d="M804.67558,184.59423c-3.44013-9.77489-3.62632-18.96667-5.59884-28.56487-.39333-1.91624-.73233-6.02816-3.45682-5.52194-26.39012,52.84013,2.49673,81.19753,54.204,90.34808-18.42184-15.81123-36.80867-32.56553-45.14835-56.26127Z"/><path class="cls-4" d="M1589.96202,684.7572v2.00851c1.30432-.6695,1.30432-1.33901,0-2.00851Z"/><path class="cls-4" d="M640.30734,339.66499c34.77692-10.63059,67.63303-23.65288,105.06441-24.46342-3.26702,12.69179-7.5599,36.90651-1.55825,48.75667,4.48627,8.85703,8.06874-1.92703,11.81384-5.38123,42.00077-38.73603,103.40047-51.55838,158.46933-59.43406-17.33218,22.78376-21.05896,48.66636-10.22908,75.54012,3.19569,7.92967,7.93719-4.17998,11.24316-7.26114,40.82766-38.05573,108.70677-48.08586,161.66306-58.24917l-23.80209,35.42876c-5.3256,11.28177-8.60048,22.4873-10.32234,34.84859,13.27294-4.56218,25.14143-12.27425,38.58322-16.63028,40.46935-13.11522,82.44066-10.54584,124.0913-5.44046.83312,4.5576-.21597,3.20616-2.55956,4.47907-7.30957,3.97056-13.56679,4.86258-21.36131,10.74872-12.69244,9.58445-24.11197,24.36067-24.26512,40.99095,18.55535-3.98234,36.34172-12.02948,55.48182-13.79127,40.74356-3.75066,77.94327,7.17672,115.21627,21.86001l-16.67478,8.39138c-19.70293,11.31155-29.93791,24.94902-33.51514,47.80968,42.18859-9.91953,87.28753-13.54192,127.28895,6.28208,3.37043,1.67016,18.03735,9.38484,17.30175,12.77425-.60831,2.80204-32.44969,22.49482-37.61463,26.57468-1.22186.96532-5.81055,1.71434-2.54713,4.58247,1.10046.96728,23.20556,4.77979,28.54458,6.62175,83.48811,28.80309,117.79023,81.68412,172.37153,142.96537,1.19961,1.34653,3.91624,5.54877,5.92279,4.09981-124.22808-307.39872-475.47246-493.5962-800.60683-409.01417-54.71775,14.23499-107.77843,37.43662-155.39275,67.55253,1.38842,2.76702,5.40152-.03272,7.39302-.64169Z"/><path class="cls-12" d="M762.97619,1407.30067l321.41119,76.41414c13.94343,4.48823,22.30929-14.29716,13.96961-23.1604-3.18325-3.38254-18.1761-6.13025-23.55144-7.56776-101.51172-27.14929-205.54832-46.03775-307.29335-72.44751-16.98794-1.3053-19.81059,21.90124-4.53601,26.76152Z"/><path class="cls-12" d="M895.62739,1345.04363c-34.13982-7.74151-84.52575-24.64274-117.35142-27.35806-5.35276-.44306-16.74579-.06806-18.8348,5.77947-2.21761,6.20813,1.36061,18.79324,9.55893,19.56484l323.13371,74.73645c18.11654,1.18096,20.80503-21.00006,4.77848-27.05668-64.67164-13.27785-128.55237-30.54818-192.85817-45.15097-2.18194-.49542-5.45289.15903-8.42672-.51505Z"/><path class="cls-12" d="M717.25519,1579.55816l226.27743,53.0862c17.31222,1.32592,21.02263-21.9567,4.31775-26.59186l-224.08305-53.11009c-3.68686-.83083-7.38189-.91787-11.08347-.09064-15.17249,3.39301-11.25199,26.17988,4.57135,26.70639Z"/><path class="cls-12" d="M737.70485,1514.92105l221.80687,51.37285c20.46079,4.79419,30.20165-17.55862,9.769-25.85903l-223.42795-51.78548c-3.0095-.69012-6.04714-1.01276-9.06972-.11322-12.50232,3.72121-12.61456,23.40648.9218,26.38489Z"/><path class="cls-12" d="M960.78856,1291.84683c-18.00659-2.1898-25.28508,12.55403-11.99414,24.03442l107.9067,25.66041c18.65646-.17147,46.14868,12.99578,61.17359,11.96993,9.55631-.65216,15.37995-11.06678,13.14172-20.00398-2.53502-.57723-12.1247-6.9313-20.06419-9.05925-41.6058-11.15153-108.43942-27.52723-150.16368-32.60153Z"/><path class="cls-12" d="M851.30954,1657.38903c-1.66394-1.7662-7.9156-3.48021-10.6535-4.40266-44.75928-15.08086-97.20575-21.63242-142.7242-36.10726-19.53866-3.39301-27.47553,18.35132-7.8652,26.02085,43.94645,17.18722,103.45643,21.61082,148.9945,37.98161,13.2448,2.82314,19.94573-15.32154,12.2484-23.49254Z"/><path class="cls-16" d="M879.23599,1010.42495c52.77926-23.93789,101.87003-24.37768,155.89963-3.82887,8.23333,3.13123,34.46802,19.28834,14.83446-1.77913-52.76912-56.62286-157.62411-53.89183-196.12846,17.35083,3.2451,2.48037,20.75169-9.63681,25.39437-11.74283Z"/><path class="cls-12" d="M1052.76655,1057.41787c-7.03405,4.50623-11.50461,19.18788-10.12503,27.0341.23593,1.33966,7.90905,16.46012,9.18327,17.93068,7.57201,8.7389,25.23894,13.45946,35.00402,6.17148,23.56682-17.5884-5.46075-69.46026-34.06226-51.13626Z"/><path class="cls-12" d="M401.96771,924.75326l16.02229,22.11917,28.12278,27.11133c7.44079,1.32396,24.26904,15.56483,32.79688,20.42872,36.1876,20.63749,95.26629,36.16633,136.90089,33.78085,10.77032-.61715,32.74551-7.39073,41.19644-6.00525,22.55438-10.50068,45.83193-20.15123,65.2168-36.21312,12.21535-10.12143,33.19381-32.75696,41.2344-46.13592,15.06123-25.06158,24.98469-61.35684,26.11067-90.38342,1.28403-33.10055-4.73987-68.84213-20.08513-98.41715-66.33918-127.85505-253.64661-131.3652-325.37946-6.02554-15.66464,27.37082-24.97291,67.05646-24.10216,98.41715.74706,26.9055,6.33575,51.57834,17.14173,76.2538,1.28076,2.92409,9.77228,17.33349,8.95683,18.13814l-44.13297-13.06875ZM542.00342,717.37803c89.62687-14.30959,93.25941,128.74412-.30956,115.8344-58.98445-8.13811-60.96613-106.05133.30956-115.8344ZM452.15829,841.43105c2.89202-.47055,2.80171,3.53731,3.38417,5.60473,2.68129,9.52097,3.73692,19.92283,6.7618,29.41173,29.38522,92.1812,134.74447,134.03242,222.1642,95.87427,6.56284.1286,41.07733-26.17644,42.82603-24.43887,2.18391,2.17016-2.92671,5.58967-4.19602,6.83052-8.3387,8.15055-20.29227,17.74677-30.10806,24.12179-108.87954,70.71157-256.6247-3.53404-240.83212-137.40416Z"/><path class="cls-1" d="M879.23592,1010.42493c52.77936-23.93788,101.87019-24.37763,155.89971-3.82891,8.23328,3.13139,34.46791,19.28832,14.83441-1.77905-52.76911-56.62286-157.6241-53.89179-196.12838,17.35088,3.24505,2.48029,20.75168-9.63686,25.39426-11.74293Z"/><path class="cls-1" d="M1042.64158,1084.45209c.23587,1.33945,7.90905,16.46004,9.18329,17.93054,7.57194,8.73887,25.23897,13.4594,35.00394,6.17147,23.56691-17.58831-5.46075-69.46021-34.06232-51.13634-7.03389,4.50624-11.50457,19.18801-10.12491,27.03433Z"/><path class="cls-1" d="M853.44197,1111.24589c1.58712-.3986,13.87928-6.16168,14.45894-6.70889,3.83807-3.62269,9.7631-18.2821,10.04245-24.10201,1.23852-25.77562-26.82532-35.45425-42.17868-18.07666-7.5148,8.50518-11.75147,23.14347-8.03406,34.14477,3.78077,11.18889,14.15381,17.64529,25.71134,14.74279Z"/><path class="cls-1" d="M1175.34301,1166.24125c-1.98604-.516-3.97549-1.0278-5.94134-1.60808,1.96585.58028,3.95546,1.09224,5.94134,1.60808Z"/><path class="cls-1" d="M861.87525,1174.8351c.09907,1.06988.38013,1.98216.80917,2.76601-.42904-.78386-.70994-1.69613-.80917-2.76601Z"/><path class="cls-1" d="M1173.1857,1150.75374l-48.19486,3.9963c-32.78219.72764-65.63394,1.21398-98.41737,2.0084-43.3453,1.05032-85.43997.76507-128.54489,0-50.12391-.88976-98.97638.56025-148.62995-6.0255-2.56477-.34037-5.42876.21134-8.03406.01988-4.30872,3.12673,34.81947,12.74123,37.7816,13.41561,28.13278,6.40749,54.18418,8.36791,82.72908,10.66668,45.24096,3.64335,91.10304,5.68451,136.5791,4.01695,30.71851-1.12625,65.33969-3.89785,96.40882-8.0339,22.03041-2.93325,45.20261-6.99756,66.281-14.05971,3.40344-1.14038,10.78361-2.18262,12.04153-6.0047Z"/><path class="cls-8" d="M1203.94071,1120.99144c-108.63545-49.16831-102.78145-178.88121-246.83106-180.49567-68.02903-.76245-110.22051,48.51824-140.09368,82.00509-9.144,10.24991-21.96992,21.63328-30.57463,31.08272-7.85657,8.62754-21.54432,21.34769-30.17015,29.17786l-10.05672,3.67448c-8.63748,7.84042-4.69308,11.32074-14.36674,17.84066-13.24791,8.92909-25.07444,13.01772-40.22687,18.03871-8.51651,2.82191-22.61644,4.12665-31.58451,5.66641-13.9004,2.38697-26.43331,8.76232-39.18261,14.71717,1.307,3.50515,4.41074,4.33496,7.4752,5.57721,74.92034,30.37317,176.91801,38.79682,257.64863,42.62713,42.57231,2.01958,85.78034,3.3053,128.54473,2.00855,33.58126-1.01833,67.09373-4.24645,100.42593-8.03421,26.09861-2.96555,46.86644-6.6033,72.30666-12.05101,20.02093-4.28729,34.64959-7.22318,54.22984-14.05956,14.6299-5.10795,30.24242-9.58438,42.17914-20.08506-28.94847-5.4696-51.25218-4.80438-79.72316-17.69048ZM1086.82881,1108.5541c-9.76497,7.28793-27.432,2.56741-35.00394-6.17147-1.27423-1.47051-8.94742-16.5911-9.18329-17.93054-1.37967-7.84632,3.09101-22.52809,10.12491-27.03433,28.60157-18.32387,57.62924,33.54803,34.06232,51.13634ZM1049.97004,1004.81697c19.63351,21.06737-6.60113,4.91043-14.83441,1.77905-54.02952-20.54873-103.12035-20.10897-155.89971,3.82891-4.64258,2.10607-22.1492,14.22322-25.39426,11.74293,38.50427-71.24267,143.35927-73.97375,196.12838-17.35088ZM835.76469,1062.35832c15.35336-17.37759,43.41719-7.69896,42.17868,18.07666-.27935,5.81991-6.20439,20.47932-10.04245,24.10201-.57966.54721-12.87182,6.31029-14.45894,6.70889-11.55752,2.9025-21.93057-3.5539-25.71134-14.74279-3.71741-11.00131.51926-25.6396,8.03406-34.14477ZM1094.86317,1170.81815c-31.06913,4.13605-65.69031,6.90765-96.40882,8.0339-45.47606,1.66756-91.33814-.3736-136.5791-4.01695.09922,1.06988.38013,1.98216.80917,2.76601-.42904-.78386-.7101-1.69613-.80917-2.76601-28.5449-2.29877-54.5963-4.25919-82.72908-10.66668-2.96213-.67438-42.09032-10.28888-37.7816-13.41561,2.6053.19146,5.46929-.36025,8.03406-.01988,49.65357,6.58575,98.50604,5.13575,148.62995,6.0255,43.10492.76507,85.19959,1.05032,128.54489,0,32.78343-.79441,65.63519-1.28075,98.41737-2.0084l48.19486-3.9963c-1.25793,3.82207-8.6381,4.86432-12.04153,6.0047-21.07839,7.06216-44.25058,11.12647-66.281,14.05971ZM1169.40167,1164.63317c1.96585.58028,3.9553,1.09209,5.94134,1.60808-1.98588-.51584-3.97549-1.0278-5.94134-1.60808Z"/><path class="cls-16" d="M998.45423,1178.8521c30.71867-1.12631,65.33983-3.89792,96.40896-8.03405,22.03049-2.93325,45.20267-6.9974,66.28093-14.05959,3.40348-1.14038,10.78373-2.1826,12.04159-6.0046l-48.19483,3.99608c-32.78215.72775-65.63401,1.21401-98.41747,2.00851-43.34534,1.0504-85.44002.76505-128.54484,0-50.12382-.88973-98.97637.56021-148.62997-6.02554-2.5648-.34032-5.42868.21139-8.03405.01996-4.30858,3.12664,34.81946,12.7412,37.78151,13.41561,28.13293,6.40741,54.18437,8.36782,82.72928,10.66659,45.24096,3.64333,91.10299,5.68457,136.5789,4.01703Z"/><path class="cls-12" d="M835.76467,1062.35833c-7.51475,8.50526-11.75134,23.14339-8.03405,34.14472,3.78077,11.18884,14.15383,17.64533,25.71146,14.74284,1.58705-.39856,13.87929-6.16167,14.45881-6.70879,3.83803-3.62272,9.76311-18.28212,10.04257-24.10216,1.23855-25.77559-26.82533-35.45428-42.17878-18.07662Z"/><path class="cls-16" d="M1258.51644,833.38979c77.02704-5.14628,67.06039-128.21827-11.49872-117.97577-72.82349,9.49479-62.30448,122.90641,11.49872,117.97577Z"/><path class="cls-16" d="M1457.84943,859.94778c-22.15255,101.31506-129.39465,152.01971-224.32847,112.96136-14.69997-6.04845-27.06552-16.55502-42.2488-20.99907,100.60498,110.81672,297.82638,39.03643,271.12637-118.51046l-4.5491,26.54817Z"/><path class="cls-16" d="M541.69386,833.21244c93.56896,12.90972,89.93643-130.144.30956-115.8344-61.27569,9.78308-59.29401,107.69629-.30956,115.8344Z"/><path class="cls-16" d="M692.9904,978.8352c9.8158-6.37502,21.76936-15.97125,30.10806-24.12179,1.26931-1.24084,6.37993-4.66035,4.19602-6.83052-1.7487-1.73757-36.26318,24.56747-42.82603,24.43887-87.41973,38.15815-192.77898-3.69307-222.1642-95.87427-3.02488-9.4889-4.08051-19.89076-6.7618-29.41173-.58246-2.06741-.49215-6.07528-3.38417-5.60473-15.79258,133.87012,131.95257,208.11573,240.83212,137.40416Z"/><path class="cls-7" d="M577.33404,1342.97159c91.12391,5.83014,138.73248,24.71079,50.61758,241.09336-44.31363,108.82036-119.98294,184.27629-185.06481,162.60128-46.64785-15.5357-69.9286-65.07776-68.80475-138.58758.44412-29.04917-14.42343-55.40932,6.8172-99.75835,50.34003-105.10663,127.97843-169.72858,196.43479-165.34872Z"/><path class="cls-6" d="M1513.0752,1662.00095c-53.01849,88.56702-96.28291,127.24842-263.24625-64.8329-83.96707-96.59909-118.86741-208.64054-63.78872-263.50127,39.478-39.32178,100.25587-38.91238,171.92793-2.54419,28.32293,14.37176,61.94858,12.1027,94.51811,54.66024,77.18938,100.86084,100.41879,209.6826,60.58894,276.21811Z"/><path class="cls-12" d="M864.61012,125.80695c13.65603-6.47011,25.51949-15.83736,39.63187-21.60811,59.98997-24.53071,129.14806-11.97551,181.23623,24.73141,2.84759,2.00672,3.2566,6.01561,5.6149,6.87826,15.67551,5.73398,51.37735,8.58853,70.79428,13.07879,510.2312,117.99336,809.13949,652.36254,659.29588,1153.44496-151.15818,505.47839-706.33058,782.83447-1200.98663,579.29523-16.50918-6.79314-75.71105-39.30678-86.1953-40.5085-12.84697-1.47254-54.17768,9.45242-69.12287,12.9978-15.8671,3.76408-63.81164,20.47241-75.35288,19.25768-5.62591-.59213-12.453-6.82821-14.13823-12.10618-2.95007-9.23934,2.92011-15.60127,8.14913-22.21265,13.43753-16.98992,42.54396-36.754,53.34828-53.0951,1.27299-1.92534,2.45252-3.44528,2.0565-5.96432-.28076-1.78586-25.17821-18.13635-29.18565-21.34119C149.23316,1550.3091,19.03046,1230.17352,69.56279,896.41686,122.93879,543.87834,384.0967,247.63719,728.86119,155.78024c9.86072-21.90253,18.51642-45.08256,36.32874-62.0885,38.39971-36.6613,98.55078-27.33737,99.42019,32.1152ZM818.40415,119.79101c-42.96722,18.05164-60.50715,65.38509-30.95769,104.2685,2.10304,2.76734,17.41716,16.05921,14.87968,18.24056-90.05937,10.10032-171.26807,54.65961-243.65721,106.82914-216.5549,156.06717-358.6658,418.83125-262.51383,687.58406,46.51638,130.01716,122.05838,198.29769,239.65446,262.47562,3.43019,1.87202,11.06662,8.85875,12.70335,9.17271,3.9309.75403,14.73848-4.55185,20.02216-5.36371,27.38698-4.20812,55.50259-3.00815,81.13398,7.84167-.15381-28.19271,1.58502-56.74696-4.94989-84.40831-36.61764-4.8423-79.45803-25.52705-75.15314-69.02647,5.81743-58.78312,70.0372-49.86524,109.27923-61.44255,104.45404-30.81635,130.22966-166.04966,251.06216-180.76858,183.42177-22.34308,183.05326,160.10038,335.63882,186.51376,22.46483,3.88878,36.41491.01272,56.82192,15.48463,50.15638,38.02688,15.10296,101.48309-39.89432,105.36583l3.89957,63.19091c1.13398,6.3634,15.12817,6.0297,22.09135,8.03638,15.11517,4.35595,29.63337,11.84306,44.70042,14.72821,246.27324-82.46704,327.44943-360.35682,270.91483-595.46745-45.80965-190.50873-180.10672-343.39633-356.41888-424.89349-97.07771-44.87244-206.98784-73.0234-314.67637-67.94622-2.27433-2.01772,9.98144-13.27956,12.01705-15.07728,20.72355-18.30167,49.78593-30.39432,76.33966-37.15494,4.42425-5.75589-26.06177-21.57058-30.16236-23.03404-23.04459-8.22438-50.28817-7.24287-73.91643-1.6949-36.86148,8.65516-69.3053,35.28995-72.6829,74.96268-2.65321,3.25035-25.70951-24.46597-27.75783-27.45559-4.87586-7.11657-18.41778-32.39606-18.41778-39.82915v-31.13198ZM1567.5544,1567.91484c12.00516-17.69803,27.08469-34.04271,39.82428-51.57349,157.95489-217.35976,197.0738-489.13302,115.38656-745.3165-3.78533-11.87135-33.87595-91.96154-39.72225-94.8586-3.67166-1.81945-3.02311,1.6475-2.22044,4.22947,34.80115,111.94614,32.8464,245.03325.23451,357.28237-38.38099,132.10619-126.39952,252.60353-254.05797,309.34088l39.09059,28.15455c59.14291,48.94064,86.6977,107.9061,98.06326,183.13117.35283,2.33525.50548,9.75227,3.40145,9.61016ZM419.89894,1305.648c-165.13519-120.35527-242.02032-326.18554-211.84043-527.82534,2.7375-18.28997,8.46063-37.06413,11.31402-54.98254.33976-2.13356,2.12537-6.98621-1.48905-6.50508-111.22219,267.8499-70.99852,580.94761,103.62195,811.21629,2.76973,3.65239,30.70924,40.01978,32.90748,38.36585,18.26572-85.32604,57.87199-166.44223,126.55082-221.94611-21.59218-10.79836-41.66521-24.18409-61.06479-38.32306ZM934.48607,949.90005c-107.84685,11.62298-137.18759,162.92781-271.95097,185.99047-18.55867,3.17603-47.50979-1.67109-56.48959,19.84723-8.49649,20.36017,15.70017,29.86115,31.52375,33.65607,200.81432,48.16066,411.47781,43.25165,613.08221,4.36509,20.72713-3.99796,67.40087-6.92896,59.33239-38.08524-5.13245-19.81886-37.8415-17.21704-52.48623-19.80697-17.87228-3.16073-38.30524-7.97387-54.82826-15.46977-109.1526-49.5186-122.54253-186.19303-268.18331-170.49688ZM1216.09013,1298.78936c10.70712-4.059,24.82362-7.79029,36.1668-8.02669l-4.02158-60.27222c-50.16432,5.50667-99.72981,16.26406-149.89314,21.85327-96.55111,10.75776-204.37056,9.80339-300.74232-2.04389-38.67485-4.75442-77.14602-12.66996-115.76449-17.78697.66649,17.67554,3.75099,36.67202,4.00674,54.2254.17865,12.2614-3.73917,36.04383-1.95452,45.15541.7464,3.81078,8.99444,13.0994,11.70923,18.40068,45.72304,89.2853-47.03342,239.31269-99.35098,311.81888-31.2174,43.26377-66.13164,78.30695-103.16885,115.75929-6.0925,6.16079-37.48461,35.0872-39.23946,39.11371-1.06982,2.4547.79982,2.58483,1.99737,3.95214,57.647-14.974,117.39081-21.4284,176.80215-26.02522,67.37898-5.2133,135.76555-4.13307,202.20818-18.72848,70.16726-15.4136,158.36279-78.15757,166.08958-155.27284,1.27-12.67494-1.90135-30.16154.66634-41.51248,3.321-14.68111,21.31692-15.09493,33.05196-17.16092,47.76337-8.40888,94.81833-9.49628,143.27468-8.38777-41.07821-47.38043-67.5787-105.07967-46.74188-168.23748,12.78555-38.75384,46.56748-72.29064,84.9042-86.82384ZM1354.67738,1553.8911c-15.65214,19.57874-38.89708,40.09105-34.70859,67.77064,31.99158,27.34721,64.19092,55.62802,97.60501,80.58643,16.33481-11.48223,99.102-73.2794,101.75736-87.16233,3.4149-17.85399-3.75932-64.95761-8.56725-83.73503-14.39868-56.23416-49.19591-101.86001-96.37791-134.60132-33.24076-23.06698-111.20505-62.86625-151.06749-59.76258-59.12248,4.60324-107.05182,61.16232-87.37443,120.47045,21.41821-19.41248,46.29295-37.32754,76.25901-39.18115-20.3813,15.7397-58.1051,67.12161-47.11536,93.37501,7.22159,17.25167,24.10445-1.8352,34.50527-7.58835,19.33987-10.69773,38.34246-16.74091,60.85415-14.44453-17.14237,14.46036-46.81567,40.34398-49.87553,63.78961-1.27408,9.76242,16.88593,21.09941,23.04691,28.37431,24.201-15.51594,52.06601-26.7102,81.05884-27.89114ZM642.92668,1361.81396c-35.20839-24.63037-84.10138-10.39053-117.59663,10.45531-60.6441,37.742-100.54764,113.6657-118.10101,181.16774-2.87679,11.0628-12.81015,50.69494-10.21174,59.26613,1.14167,3.76594,35.84447,35.48128,41.74884,40.61779,18.90499,16.44641,39.99713,31.59773,60.23202,46.4204,2.34319,1.24829,3.32963.10806,5.11592-1.08985,7.48435-5.0191,26.57901-29.03461,33.04244-37.38066,5.92231-7.64732,19.24589-23.23805,20.20974-32.04584,3.33539-30.47914-32.22052-51.17416-52.28987-67.30012,23.13234-2.99849,43.49925-1.5389,66.30225,2.9708,5.97768,1.18219,19.54107,7.12671,23.17212,6.95676,4.70914-.22041,14.33606-16.59837,14.93841-21.16388,3.32916-25.23317-46.9983-55.63303-68.25019-62.08443,30.82349-14.93897,65.43924-2.087,95.1882,9.19093,15.76301-22.96196-16.73004-58.51159-34.53242-72.3553-9.86132-7.66849-21.32669-12.09316-30.53738-20.17903,31.43156-2.58558,59.53799,6.72987,86.34255,22.06627,4.05929-21.23296,4.85733-51.78025-14.77325-65.51302ZM987.11962,1730.59976c31.37509-7.92488,63.57654-22.76017,93.11172-36.41695,51.35647-23.74673,100.69643-51.85384,150.63164-78.33674,9.0265-3.0197-8.6861-17.62987-12.6511-18.90545-11.5971-3.73089-44.1341-6.24385-57.37645-6.89603-39.80608-1.96043-80.38561,3.47964-119.61974,8.88415-2.88886,15.06408-3.45627,30.33175-6.87566,45.34574-7.42748,32.61289-25.20183,61.6576-47.22042,86.32528ZM1252.23207,1644.26326c-22.01108,9.8826-41.757,24.66122-62.91118,36.48968-107.08137,59.87502-224.29492,99.65018-344.76422,123.21979-19.74853,3.86377-40.86797,5.55035-60.32337,9.9964-2.22563.50861-6.49389.00611-5.98936,2.99671,91.72148-1.34883,182.91825,1.31639,274.14322,10.07199,32.70334,3.1388,65.21549,9.13853,97.98985,11.67633,60.33264-45.71829,93.22695-120.41626,101.85506-194.45089Z"/><path d="M411.71691,2078.07813v300.54199c0,22.0918.51367,47.26465,2.05469,64.21875h-40.58594l-2.05518-43.15527h-1.02734c-13.87109,27.74316-44.18213,48.80664-84.76855,48.80664-60.1084,0-106.3457-50.86133-106.3457-126.38184-.51367-82.71387,50.86084-133.5752,111.4834-133.5752,38.01709,0,63.70459,17.98145,75.00732,38.01758h1.02734v-148.47266h45.20996ZM366.50695,2295.39355c0-5.65137-.51367-13.35742-2.05518-19.00879-6.67871-28.77051-31.33838-52.40234-65.24609-52.40234-46.75098,0-74.49316,41.09961-74.49316,96.07031,0,50.34766,24.65967,91.96094,73.46582,91.96094,30.31104,0,58.05371-20.03613,66.27344-53.94336,1.5415-6.16504,2.05518-12.33008,2.05518-19.52246v-43.1543Z"/><path d="M711.7423,2316.45703c0,91.96094-63.70508,132.0332-123.81348,132.0332-67.30078,0-119.18945-49.32031-119.18945-127.92383,0-83.22656,54.45752-132.0332,123.29932-132.0332,71.41113,0,119.70361,51.88867,119.70361,127.92383ZM514.463,2319.02539c0,54.45703,31.33838,95.55762,75.521,95.55762,43.15479,0,75.521-40.58594,75.521-96.58496,0-42.12695-21.06396-95.55762-74.49365-95.55762s-76.54834,49.32031-76.54834,96.58496Z"/><path d="M946.00841,2433.5918c-11.81592,6.16504-38.01709,14.38477-71.41064,14.38477-75.00732,0-123.81348-50.86133-123.81348-126.89648,0-76.54785,52.40234-132.0332,133.57471-132.0332,26.71484,0,50.34717,6.67871,62.67725,12.84375l-10.2749,34.93555c-10.78906-6.16504-27.74268-11.81641-52.40234-11.81641-57.02637,0-87.85107,42.12695-87.85107,94.01562,0,57.54004,36.98975,92.98828,86.30957,92.98828,25.6875,0,42.64111-6.67871,55.48486-12.33008l7.70605,33.9082Z"/><path d="M998.92247,2078.07813h45.20996v364.76074h-45.20996v-364.76074Z"/><path d="M1170.50939,2124.31543c.51367,15.41211-10.78809,27.74219-28.76953,27.74219-15.92578,0-27.22852-12.33008-27.22852-27.74219,0-15.92676,11.81641-28.25684,28.25586-28.25684,16.9541,0,27.74219,12.33008,27.74219,28.25684ZM1120.16271,2442.83887v-248.6543h45.20996v248.6543h-45.20996Z"/><path d="M1240.37658,2261.48535c0-25.68652-.51367-46.75098-2.05566-67.30078h40.07227l2.56934,41.09961h1.02734c12.33008-23.63184,41.09961-46.75098,82.2002-46.75098,34.4209,0,87.85059,20.5498,87.85059,105.83203v148.47363h-45.20996v-143.33594c0-40.07227-14.89844-73.46582-57.54004-73.46582-29.79688,0-52.91602,21.06348-60.62207,46.2373-2.05469,5.65137-3.08203,13.35742-3.08203,21.06348v149.50098h-45.20996v-181.35352Z"/><path d="M1739.734,2194.18457c-1.02734,17.98145-2.05469,38.01758-2.05469,68.3291v144.36328c0,57.02539-11.30273,91.96094-35.44824,113.53809-24.14648,22.60449-59.08105,29.79688-90.41992,29.79688-29.79785,0-62.67773-7.19238-82.71387-20.5498l11.30273-34.4209c16.43945,10.27539,42.12695,19.52246,72.95215,19.52246,46.2373,0,80.14453-24.14648,80.14453-86.82324v-27.74219h-1.02734c-13.87109,23.11816-40.58594,41.61328-79.11719,41.61328-61.64941,0-105.83203-52.40234-105.83203-121.24512,0-84.25391,54.9707-132.0332,111.99707-132.0332,43.15527,0,66.78711,22.60547,77.57617,43.15527h1.02734l2.05469-37.50391h39.55859ZM1692.98302,2292.31055c0-7.70605-.51367-14.38477-2.56836-20.5498-8.21973-26.20117-30.31152-47.77832-63.19141-47.77832-43.1543,0-73.97949,36.47559-73.97949,94.01562,0,48.80566,24.66016,89.39258,73.46582,89.39258,27.74219,0,52.91602-17.46777,62.67773-46.2373,2.56836-7.70703,3.5957-16.44043,3.5957-24.14648v-44.69629Z"/></svg>