<?xml version="1.0" encoding="UTF-8"?><svg id="Layer_1" xmlns="http://www.w3.org/2000/svg" xmlns:xlink="http://www.w3.org/1999/xlink" viewBox="0 0 1440 1440"><defs><style>.cls-1,.cls-2,.cls-3{fill:none;}.cls-4{fill:#fed45e;}.cls-5{fill:gray;}.cls-6{fill:url(#linear-gradient-4);}.cls-7{fill:url(#linear-gradient-3);}.cls-8{fill:url(#linear-gradient-2);}.cls-9{fill:#fd5b0a;}.cls-10{fill:url(#linear-gradient);}.cls-11{fill:#c64707;}.cls-12{fill:#020101;}.cls-2{stroke:#c64707;}.cls-2,.cls-3{stroke-linecap:round;stroke-linejoin:round;}.cls-13{fill:#fd6b10;}.cls-14{fill:#9b9b9b;}.cls-3{stroke:#c74d0a;}.cls-15{fill:#b3b3b3;}.cls-16{fill:#fcfcfc;}.cls-17{fill:#c74d0a;}</style><linearGradient id="linear-gradient" x1="713.74596" y1="-46.66349" x2="713.74596" y2="1019.19152" gradientUnits="userSpaceOnUse"><stop offset=".42728" stop-color="#ffb02c"/><stop offset=".72332" stop-color="#ff690f"/></linearGradient><linearGradient id="linear-gradient-2" x1="462.45726" y1="763.4614" x2="954.8299" y2="763.4614" xlink:href="#linear-gradient"/><linearGradient id="linear-gradient-3" x1="-420.80309" y1="-8441.85718" x2="-420.80309" y2="-8045.85527" gradientTransform="translate(4651.63739 2197.07056) rotate(-71.58008) scale(.76716 .53473)" xlink:href="#linear-gradient"/><linearGradient id="linear-gradient-4" x1="4656.72889" y1="6595.50632" x2="4656.72889" y2="6991.50822" gradientTransform="translate(1189.39968 -4587.56269) rotate(45.11358) scale(.83553 .606)" xlink:href="#linear-gradient"/></defs><path class="cls-10" d="M1271.14157,568.28135c0,257.84035-249.55442,466.86135-557.39549,466.86135S156.35035,826.1217,156.35035,568.28135c0-184.80874,103.87633-326.67451,287.53438-409.97448,39.94128-18.11577,105.81962-76.80361,149.69616-99.58989,22.80193-11.84166,22.18336,10.6883,43.11177,15.81175,11.97696,2.93206,39.88958-14.17032,60.81093-10.39352,302.94432,54.68855,573.63798,246.3058,573.63798,504.14615Z"/><path class="cls-1" d="M265.48998,1134.54057c.67868-3.04764,1.38946-6.08896,2.13426-9.12213-.7448,3.03318-1.45557,6.07437-2.13426,9.12201v.00012Z"/><path class="cls-1" d="M374.95801,1234.28169c2.71134-.53235,23.06118-24.74488,26.28444-28.90705,10.70678-13.82565,21.9148-24.70988,10.53565-42.96727-.85857-1.37779-2.94372-.87485-3.03439-1.0066-7.5827-11.046-8.32434-12.6388-19.39648-20.88863-.23992-.17879-1.50298.22825-2.49378-.46793-2.4211-1.70145-6.92078-6.27844-9.44203-8.46934l31.33228-1.50699,33.96218,8.71509c4.02349,1.31301,10.72988-10.20397,11.61688-13.12168,3.61414-11.88719-7.92787-21.53924-15.73809-28.41822-11.51309-10.13967-15.05163-10.6166-28.34894-16.4124-1.66535-.72609-3.81468-3.13989-5.96061-3.7228.70883-1.57663,6.92005-3.2923,8.94468-3.73738,8.67535-1.90746,22.56991-1.62427,31.33301,0,4.72843.87631,29.85191,11.29772,31.20029,10.32782,5.72725-9.14814,1.14224-20.72905-4.05436-29.2831-1.75821-2.89438-3.81687-3.63359-4.76538-4.9173-6.38698-8.64326-8.00031-8.73077-14.92037-14.92037-1.62962-1.45728-5.49219-6.75038-8.57885-8.90385-3.90973-2.72786-9.55774-5.09013-13.80195-7.5088-.18985-.5304-3.24344-1.26548-2.98359-2.969,3.96151.06904,7.97576-.1512,11.93605-.01507,10.12971.34882,21.86765,2.42207,31.33277,5.96815,3.43159,1.2859,19.74433,11.23913,20.86955,10.44207,2.55965-9.68754,2.14204-20.22709.01896-29.83854-3.05991-13.85129-6.8447-17.1098-19.39648-22.38055-11.20778-4.70607-18.91979-6.78782-31.33277-5.96815-60.68247,4.00745-103.9982,68.32594-123.83928,119.36317-6.95725,17.89593-11.03251,30.06898-14.92061,49.23721-1.35834,6.69788-5.62103,19.76487-4.47951,26.04562.80314,4.41813,7.3734,8.22054,10.4479,11.25542,7.83283,7.73183,15.94447,14.06508,23.87258,20.88851,6.94752,5.97921,13.44534,12.16576,20.88851,17.90444,7.25478,5.59344,14.33697,12.88978,22.91168,16.18354Z"/><path class="cls-1" d="M313.52928,1019.18729c-3.62678,5.1966-7.01948,10.52909-10.23909,15.95541,3.21986-5.42656,6.61231-10.7588,10.23909-15.95541Z"/><path class="cls-1" d="M152.2848,629.13033c.2003,4.15913.4672,8.45876.79609,12.85344-.32889-4.39468-.59579-8.69455-.79609-12.85344Z"/><path class="cls-1" d="M154.07,653.52968c.63444,6.59408,1.3948,13.30557,2.28035,20.00151-.88555-6.69618-1.64591-13.40742-2.28035-20.00151Z"/><path class="cls-1" d="M117.79635,716.7735c.48592-14.89946,1.58125-29.77729,3.24028-44.59629-1.65903,14.819-2.7546,29.69683-3.24028,44.59629Z"/><path class="cls-1" d="M1127.90606,1130.06787c-1.53749-10.39685-3.18996-17.09887-5.96815-26.85666-3.34894-11.762-6.34006-20.441-11.93629-31.33277-20.61966-40.13039-57.88752-67.21627-97.93915-86.32785-45.37366-21.65082-93.26347-37.10645-127.35862,11.72578-6.42538,9.20259-8.39872,12.15555-10.44426,23.87258-2.04456,11.71144-2.22736,21.19577,1.51002,32.8214,9.10949-6.84762,19.54354-17.59111,29.82274-22.37715,7.55061-3.51521,18.1395-4.83879,26.12863-7.42664-1.60629,3.55288-5.5058,7.47428-8.22419,10.41095-7.44365,8.04115-10.79648,10.98779-16.4124,20.88851-5.04079,8.88659-5.06607,9.61802-7.46018,19.39648-1.57444,6.43073-6.0311,12.30237-1.56739,20.21736,6.65777,11.80503,18.8386-3.91921,26.93201-8.28107,10.70168-5.7676,20.57372-8.62989,32.82505-8.95222,3.47364-.0914,6.96916.0632,10.44426,0-5.71291,5.75739-12.29848,10.51864-17.90444,16.4124-7.83647,8.23853-10.5376,12.16139-14.92061,22.38055-1.51805,3.53927-5.67426,7.11646-4.25758,12.34929.35757,1.32091,15.95079,17.12876,17.15234,17.33721l27.39047-14.76613c11.00091-1.74703,21.4425-6.44677,32.82432-5.95308-3.72888,3.35331-6.1456,8.45159-8.95173,11.92122-1.01268,1.25211-3.42162,2.2744-5.09743,4.58319-6.97937,9.61644-14.26575,21.63988-11.73405,33.83943l71.51177,59.88444c5.69298,1.01146,62.20246-48.68201,69.15874-56.52991,1.8236-2.05757,6.19202-3.73957,7.1539-7.0247,1.09387-3.7369.43269-12.38502.30628-16.848-.2426-8.55709-1.73779-16.93709-2.98407-25.36462Z"/><path class="cls-1" d="M1251.74509,919.69047c3.4012-4.91123,6.97815-9.69459,10.4919-14.53143-3.51375,4.83684-7.09094,9.62021-10.4919,14.53143Z"/><path class="cls-1" d="M1160.39638,1104.94706c-.95726-4.07746-2.03703-8.12234-3.23639-12.12881,1.19937,4.00648,2.27914,8.0516,3.23639,12.12881Z"/><path class="cls-1" d="M1190.60563,997.97669c3.38151-4.24081,6.85394-8.40747,10.36744-12.54084-3.51351,4.13336-6.98617,8.30003-10.36744,12.54084Z"/><path class="cls-1" d="M235.66723,771.97885c15.21595,32.61332,30.08916,55.05172,53.71332,82.06201,35.37571,40.44566,63.54257,56.65874,109.91676,81.81066,2.64036,1.43224,9.30542,7.15609,10.38105,7.36222,2.92136.55982,10.94816-3.38127,14.87369-3.98435,20.34449-3.12628,41.23009-2.23465,60.27094,5.82521-.11425-20.94321,1.17725-42.15477-3.6771-62.70346-11.34585-2.99671-23.27922-4.46152-33.60899-10.40585-18.89038-10.87038-27.63841-33.27207-18.65362-53.71623.80363-1.82895,10.21357-15.53099,11.19343-16.40948,1.92424-1.7254,18.0622-8.36493,21.40798-9.17877,9.23687-2.24608,19.13711-1.67022,28.16857-3.16444,36.73939-6.07753,53.15763-20.84257,77.24656-45.84621,19.2849-20.01755,38.97089-46.8798,61.1735-64.15757,58.27985-45.35276,132.45142-37.6529,185.01253,11.93629,18.92052,17.85023,33.48599,40.08226,52.22152,58.18943,20.20205,19.52434,38.38384,32.87925,66.83463,38.35394,18.63636,3.58643,35.10832.75404,51.52558,12.63199,12.21049,8.83408,21.64936,26.14978,18.90739,41.52033-.28173,1.57857-5.02547,12.0554-6.21026,13.93199-7.96677,12.61838-26.64712,22.53175-41.45883,23.43747l3.55191,49.27075c5.53425,1.85277,11.24424,2.32532,16.90318,3.98508,6.79171,1.9923,25.13807,10.51815,29.56678,10.81787,2.88951.19568,30.61154-11.39592,35.48339-13.62352,35.64893-16.29961,64.20959-38.13566,90.47896-66.93114,21.17438-23.21043,33.41452-42.21068,47.74517-70.12572,13.45896-26.21638,19.09846-41.9377,26.85666-70.12572,8.81463-32.02579,12.87264-52.97629,14.92037-86.53836,1.83381-30.04808,1.09679-57.94853-2.98407-88.03016-22.80132-168.08018-132.93491-302.44514-286.95499-368.7958-68.84006-29.6555-144.82453-48.2255-220.33038-44.50659-1.68942-1.49884,7.41473-9.86499,8.92694-11.20024,15.39462-13.59557,36.98393-22.57866,56.7093-27.60073,3.28671-4.27581-19.36001-16.02396-22.40631-17.11102-17.1188-6.10962-37.35682-5.38037-54.90928-1.25916-27.38269,6.42952-51.48377,26.21541-53.99286,55.68665-1.97091,2.41453-19.09846-18.17475-20.62015-20.39554-3.62192-5.28679-13.68162-24.06559-13.68162-29.58744v-23.12657c-31.91859,13.40985-44.94803,48.57189-22.997,77.45634,1.56204,2.05599,12.93828,11.92997,11.05342,13.55036-73.28286,8.57398-140.71961,47.60394-198.30644,91.89516-58.16998,44.73995-107.31749,99.22116-143.36313,163.25087-19.24236,34.18217-29.90806,60.65768-40.28499,98.47441-6.99541,25.49491-12.68596,49.27707-14.92037,76.09411-2.69602,32.35736-.84641,65.04458,4.47611,96.98262,5.72215,34.33361,15.29423,62.81941,29.84073,93.9983ZM1124.90959,657.81788c-13.77423,15.34333-28.95956,32.64274-46.24074,44.03525-60.21965,39.69916-144.02844,44.95362-198.4411-7.46018-13.82966-13.32186-31.23505-39.01707-37.30091-56.69763-7.34545-21.41041-7.33354-51.06202-2.98407-73.10979,4.78288-24.24572,18.79533-50.78199,35.80888-68.63392,66.46515-69.7397,181.06853-50.07827,222.31369,35.80912,13.66898,28.46367,17.68955,58.30586,11.93629,89.52219-2.69894,14.64374-9.82488,31.46962-17.87284,44.03161,10.81666-.0141,21.01102-6.81869,30.5848-9.69265,2.08686-.62642,2.65227.1546,2.196,2.196ZM1182.36539,479.53921c.96892.49735.96892.99469,0,1.49204v-1.49204ZM674.36147,101.3427c18.53451-23.38593,49.91735-18.08748,76.06567-14.19987.35587,3.94838.07852,2.42158-2.23878,2.95126-28.92723,6.61037-51.09022,14.63718-71.64522,37.30286l-17.12196,23.88644c2.97629-17.11126,3.72961-35.79526,14.9403-49.94068ZM592.28341,82.66842c2.0239-.37605,2.27573,2.67852,2.56792,4.10201,1.4653,7.13008,1.60361,13.95825,4.15913,21.21959,6.19518,17.60253,19.85396,30.04857,33.53874,41.79404-38.41107-6.79754-59.86985-27.86302-40.26578-67.11563ZM586.85102,173.48017c241.52809-62.83229,502.45218,75.48567,594.73578,303.83873-1.49058,1.07637-3.50864-2.04529-4.39978-3.04557-40.54606-45.52316-66.0276-84.80616-128.04727-106.20271-3.96612-1.36831-20.38703-4.20045-21.20452-4.919-2.42426-2.13061.98448-2.68703,1.89215-3.40412,3.8368-3.03074,27.49037-17.65966,27.94226-19.74117.54645-2.51784-10.34897-8.24874-12.85271-9.48943-29.7153-14.72639-63.21733-12.03547-94.55739-4.66669,2.65737-16.98219,10.26049-27.11287,24.89693-35.51572l12.38697-6.23359c-27.68848-10.90757-55.32252-19.02505-85.58913-16.23884-14.21834,1.30875-27.43106,7.28662-41.21502,10.24493.11376-12.35391,8.59683-23.33051,18.02549-30.45038,5.79021-4.37256,10.43842-5.0352,15.86838-7.98475,1.74095-.94559,2.52027.05834,1.90139-3.3273-30.94043-3.79256-62.11909-5.70124-92.18199,4.04148-9.98532,3.23591-18.8019,8.96486-28.66178,12.35391,1.2791-9.18266,3.71186-17.50676,7.66802-25.88749l17.68153-26.31847c-39.33891,7.54988-89.76333,15.00083-120.09241,43.27076-2.45586,2.28886-5.97811,11.28459-8.35205,5.39399-8.04504-19.96334-5.27658-39.19039,7.59874-56.11545-40.90825,5.85049-86.5194,15.37566-117.71993,44.15096-2.78207,2.56597-5.44333,10.57698-8.77598,3.99748-4.45836-8.80297-1.26937-26.79103,1.15756-36.2192-27.80614.60211-52.2135,10.2758-78.04776,18.1728-1.4794.45238-4.46055,2.53218-5.49195.47668,35.3706-22.3718,74.78706-39.60727,115.43448-50.18182ZM325.98722,654.05595c-8.02729-18.33032-12.17889-36.65869-12.73384-56.64561-.64684-23.29648,6.26787-52.77721,17.90444-73.10979,53.28719-93.10935,192.42969-90.50181,241.71016,4.47611,11.39932,21.96998,15.87422,48.52084,14.92037,73.10979-.83644,21.56258-8.20815,48.52473-19.39648,67.14189-5.97301,9.93865-21.55699,26.75359-30.63123,34.27236-14.40017,11.93167-31.69204,19.10064-48.4467,26.90114-6.27783-1.02921-22.60224,4.00259-30.60304,4.46104-30.92852,1.77207-74.8155-9.76363-101.69768-25.09431-6.33496-3.61317-18.83593-14.19209-24.36337-15.1756l-20.89119-20.13982-11.90226-16.43136,32.78445,9.7082c.60576-.59774-5.70221-11.30185-6.65364-13.47403Z"/><path class="cls-1" d="M1250.20152,473.88269c.00583-.13418.01653-.25742.05883-.30337-.04254.04594-.05299.16918-.05883.30337Z"/><path class="cls-16" d="M745.76288,1175.39364c.94364-9.41565-1.41231-22.40559.49491-30.83773,2.46728-10.90599,15.83581-11.21349,24.55297-12.74819,35.48145-6.2466,70.43662-7.05436,106.43267-6.2308-44.18937-48.52814-59.04118-117.60131-7.45994-167.09351-8.01781-2.07738-21.53754,4.53591-28.34869,2.98407,1.66268,6.63905-2.66345,14.37562-9.76241,14.86008-11.16135.76206-31.58411-9.01931-45.44318-8.89193-5.49365.05056-17.55562,2.98407-23.12632,2.98407h-71.61775c-4.28407,0-14.05937-4.357-18.6507,0,47.76996,10.84777,95.22416,23.67715,143.26589,33.54068,11.90542,4.4992,9.90826,20.97651-3.54972,20.09922l-240.04189-55.51844c-6.09017-.57319-8.74827-9.92212-7.10091-14.53387l-53.71332-13.42833c-.10307,6.5778-2.70356,13.73461-1.45217,20.11551.55593,2.83409,6.68086,9.72911,8.69844,13.66922,33.95854,66.3227-34.95906,177.8026-73.80355,231.63661-23.19001,32.13883-49.12636,58.17083-76.63958,85.99252-4.52594,4.57662-27.84576,26.06482-29.14916,29.05594-.79488,1.82348.59409,1.9201,1.48377,2.93582,42.82325-11.12355,87.20441-15.91822,131.3386-19.33303,50.0525-3.87266,100.85418-3.07025,150.21147-13.91255,52.12405-11.45001,117.64093-58.05986,123.38058-115.34539ZM571.40341,996.40517c75.58193,19.61865,152.86617,33.65007,228.27478,53.81808,3.99311,1.06786,15.13063,3.10902,17.49533,5.62175,6.19518,6.58412-.01945,20.53896-10.37741,17.20485l-238.76231-56.76472c-11.34682-3.6105-9.24999-20.84962,3.3696-19.87996ZM548.57608,1076.63142c2.24535-.66823,4.50188-.42855,6.7375.08411l165.97485,38.46917c15.17852,6.16601,7.94246,22.77094-7.25697,19.20955l-164.77062-38.16264c-10.05557-2.21253-9.97219-16.83585-.68476-19.60018ZM530.67383,1124.40868c2.74974-.61451,5.49462-.54985,8.23343.06733l166.4615,39.45316c12.40933,3.44325,9.65302,20.73889-3.20747,19.75393l-168.0916-39.43542c-11.75447-.39112-14.66683-17.31849-3.39585-19.83901ZM519.71521,1171.97178c33.81366,10.75273,72.77385,15.61959,106.02356,26.8225,2.03387.68525,6.67795,1.95851,7.91402,3.27055,5.71801,6.06988.74018,19.54877-9.0988,17.45158-33.82825-12.16114-78.0356-15.44725-110.6815-28.21488-14.56765-5.69735-8.6717-21.85027,5.84272-19.32975Z"/><path class="cls-15" d="M579.39935,949.714c24.38476,2.01709,61.81426,14.57227,87.17524,20.3231,2.20913.50075,4.63897.01458,6.25984.38261,4.59133-4.357,14.36662,0,18.6507,0h71.61775c5.57071,0,17.63267-2.93351,23.12632-2.98407l-80.15916-19.06199c-9.87326-8.52828-4.46639-19.48082,8.90992-17.85412,30.99513,3.76947,80.6429,15.93426,111.55003,24.21825,5.8979,1.58076,13.02165,6.30093,14.90481,6.72972,6.81115,1.55183,20.33088-5.06145,28.34869-2.98407,15.81223-15.17171,40.53317-26.95656,62.6614-28.35574l-2.97338-44.76085c-42.14067,4.73742-83.83408,13.91595-126.09192,17.90322-59.30468,5.59599-122.6912,5.7608-182.01387.00146-37.72874-3.663-75.13466-11.31473-112.64779-16.40244,1.19523,17.87746,3.25705,35.77971,2.97654,53.70991l53.71332,13.42833c1.55183-4.34387,10.01522-4.62244,13.99155-4.29331Z"/><path class="cls-11" d="M1305.14726,639.58942c-2.09828-14.09851-4.66474-28.10172-7.7108-41.92117-.81214-3.68512-1.65855-7.35736-2.53948-11.01501-1.06907-4.44086-2.2067-8.85158-3.37762-13.24626-1.72199-6.4633-3.53684-12.88164-5.48052-19.22851-3.26532-10.66254-6.84494-21.14764-10.74495-31.41055-2.6-6.84178-5.34245-13.58487-8.22881-20.21542-2.88635-6.63079-5.91661-13.14927-9.09248-19.54232-.20249-.40765-.97695-2.2259-2.00081-4.19341-.34153-.65583-.71077-1.3282-1.09557-1.97066-.16846-.281-.34007-.55593-.51339-.82162-.86732-1.32747-1.78544-2.41259-2.62942-2.76651-.33788-.14147-.66361-.16627-.96941-.0423-.17502.07098-.34323.19009-.50367.36365-.0423.04594-.05299.16918-.05883.30337-.00122.03209-.01458.03573-.01386.07268.00316.19106.03233.44508.08435.7538.10428.61743.30021,1.45412.56152,2.44467.16335.61913.35247,1.29806.56079,2.02123.4164,1.44585.90986,3.06818,1.42932,4.73864.25961.83523.52579,1.68261.7922,2.52586.21294.67455.42637,1.34692.63639,2.0081.4198,1.32285.82696,2.60292,1.19548,3.77458.73702,2.34307,1.31848,4.25272,1.53628,5.20487,6.06684,26.53482,9.94934,53.98265,11.55708,81.75475.22947,3.96758.41275,7.94173.54937,11.92074.09675,2.82121.17016,5.64509.21999,8.47067.08727,4.94477.10185,9.89538.04424,14.84817-.17332,14.85911-6.97349,29.73961-8.47282,44.55399-1.37682,13.60286-3.31831,27.14981-5.83567,40.57182-.83912,4.47416,4.22982,8.93423,3.26236,13.37825-5.80504,26.66316-19.89961,52.7371-30.42967,77.67414-3.50962,8.31218-7.28711,16.49821-11.33539,24.5379-10.12047,20.09874-21.93279,39.2813-35.48898,57.23095-8.13401,10.76974-10.92317,6.92625-20.32364,16.73995-4.99946,5.21945-8.979,1.04635-14.68535,5.96341-2.85305,2.45853-8.26979,7.70886-11.24512,10.08717-4.46347,3.56796-5.10611,11.15187-9.74314,14.53143-1.54551,1.12668-7.44275-1.10481-8.99872,0-3.11193,2.20986-5.8703,6.08191-8.99609,8.2028-4.68881,3.1817-9.62574-.5092-14.24381,2.46418-1.53944.99129-5.22465,13.30348-6.74707,14.27095l-16.49284,8.73528-30.10917,11.08405c14.78618,8.10119,41.71552,31.59752,53.73592,43.11741,9.01493,8.63986,2.24655,15.56433,9.50643,25.71835,2.42012,3.38467,9.0925,7.57488,11.30479,11.10151,1.10627,1.76356,6.95129,10.20986,8.00432,12.00647,4.95498,8.45342,4.80788,10.74635,8.53724,19.83105,1.02605,2.49937,7.99887,14.0565,8.92817,16.59573,1.43564,3.92237-1.19985,3.58267,0,7.5889,1.19937,4.00648,9.59244,11.93923,10.54969,16.01668,2.3929,10.19315,14.37842,9.11056,15.18642,19.60441l31.04107-38.31529c1.16096-1.48013,2.28643-2.98286,3.38224-4.50406,2.19163-3.04217,4.26536-6.15872,6.26981-9.3166,5.01113-7.89433,9.58934-16.04729,14.49667-23.95013l-29.8067-61.96546c3.38127-4.24081,6.85394-8.40747,10.36744-12.54084,3.51351-4.13336,7.06809-8.23318,10.61344-12.34054,3.54559-4.10735,7.0817-8.22176,10.55875-12.38429,3.47704-4.16229,6.89502-8.37271,10.20336-12.67186,7.00951-9.10779,12.98592-19.09116,19.39648-28.34869,3.40096-4.91123,6.97815-9.69459,10.4919-14.53143,1.49301-2.05501,2.96852-4.1251,4.4202-6.21317.53721-.77276,1.06762-1.55086,1.59559-2.33067,1.09679-1.61941,2.16829-3.25803,3.21306-4.91755.29218-.4638.59409-.92055.88141-1.38848,1.46967-2.3929,2.90143-4.80767,4.30547-7.23849,4.21188-7.2927,8.1729-14.72979,12.15264-22.154,3.97949-7.42445,7.97746-14.83577,12.26251-22.07718,1.42835-2.4138,2.8883-4.80913,4.39054-7.17918,7.89822-52.47117,9.12359-109.88273,2.96244-166.60929-.92395-8.50884-2.01442-17.0026-3.27358-25.46161Z"/><path class="cls-2" d="M1269.35467,614.42145c.05761-4.95279.04303-9.9034-.04424-14.84817"/><path class="cls-2" d="M1252.82365,483.91371c-.51947-1.67046-1.01292-3.29279-1.42932-4.73864"/><path class="cls-2" d="M1254.87623,476.8461c-.16846-.281-.34007-.55593-.51339-.82162"/><path class="cls-2" d="M1250.76401,473.21567c.3058-.12397.63153-.09918.96941.0423"/><path class="cls-11" d="M954.82982,816.73995c-8.86714,7.8005-20.46506,11.12586-31.33301,14.92037-14.54529,5.07847-25.41227,7.2594-40.28499,10.44426-18.8984,4.04683-34.32583,6.74917-53.71332,8.95222-24.76105,2.81367-49.65604,5.21168-74.60207,5.96815-31.76788.96333-63.86514.00826-95.49034-1.49204-59.97122-2.84527-135.74081-9.10293-191.39586-31.66579-2.27646-.92274-4.58209-1.53919-5.55296-4.14309-23.35772,5.88379-15.55335,21.01005-1.99716,29.59959,12.05978,7.64128,71.01212,21.84936,88.71869,24.56944,119.51995,18.36022,219.48457,10.90131,338.82149-8.34956,16.81179-2.71206,69.42759-9.69362,80.75326-17.72115,17.65431-12.51313,12.26388-27.82501-13.92373-31.08239Z"/><path class="cls-9" d="M230.56057,971.30356c-18.03862-21.42961-35.13068-43.94604-50.87582-67.36382-5.24838-7.80585-10.34727-15.71233-15.28183-23.71166-2.46704-3.99967-4.89324-8.02267-7.27641-12.06804-1.78738-3.03415-3.55045-6.08094-5.28898-9.13988-5.21459-9.17731-10.20506-18.46499-14.95002-27.85329-4.21747-8.345-8.24096-16.76973-12.05589-25.26739-.87169-1.94198-.37678-4.22428-2.8144-4.22622-.34809-.00049-.75647.0457-1.2368.14634,9.37299,94.17721,43.1164,186.49387,93.9983,265.5825l34.12092-75.03792c-6.20831-6.89477-12.32644-13.91741-18.33907-21.06061Z"/><path class="cls-5" d="M930.09136,1192.77594c-110.65834,67.05644-238.19287,108.79652-369.15967,125.3036l15.13841,3.03099c28.00289.49905,56.16806-.88324,84.13704-.06174-.90972-3.95701,2.11451-2.97581,4.77872-3.67807,6.76566-1.78337,13.90283-3.23931,20.78433-4.5827,74.1413-14.47334,148.41017-28.48373,222.64539-42.46859,10.37038-20.09534,22.20409-50.30069,23.8117-72.56553.15393-2.13122,1.60186-5.96973-2.13591-4.97795Z"/><path class="cls-16" d="M775.68577,1159.0634c-2.14593,11.1904-2.56743,22.53211-5.10764,33.68531-5.51747,24.22675-18.72119,45.8027-35.07793,64.12731,23.30718-5.88708,47.22813-16.90756,69.1687-27.05258,38.15024-17.64045,74.80286-38.51997,111.89764-58.19295,6.70541-2.24316-6.45261-13.0964-9.39803-14.04406-8.61506-2.7715-32.78518-4.63825-42.62246-5.12271-29.57018-1.4563-59.71476,2.58481-88.86028,6.59967Z"/><path class="cls-14" d="M654.22047,1315.63912c-2.8328.7627-6.04841-.30294-5.08112,3.99459,11.32233.33964,24.70684,1.01957,36.59007,1.63693,55.18358,2.86744,116.27008,21.77601,171.05282,28.16588,27.847-18.0204,41.85219-56.35637,56.27224-84.89772-78.93284,15.18834-157.90146,30.4044-236.73444,46.12325-7.31696,1.459-14.90577,3.04023-22.09956,4.97707Z"/><path class="cls-17" d="M303.29018,1035.14269c3.21962-5.42632,6.61231-10.7588,10.23909-15.95541,1.669-2.39144,3.37252-4.7243,5.10958-7.00659,3.47413-4.56411,7.08122-8.92597,10.80936-13.14976,1.86444-2.11165,3.75878-4.18879,5.68204-6.23943,1.92351-2.0504,3.8757-4.07454,5.85511-6.07996,5.93898-6.01676,12.12468-11.86628,18.51749-17.76564-10.29209-5.14483-20.33283-10.86503-30.08649-17.10543-19.50708-12.48055-37.86413-27.0414-54.7802-43.23819-4.22865-4.04901-8.36785-8.20085-12.412-12.44749-2.0222-2.12332-4.02033-4.27046-5.99464-6.4407-3.94862-4.34023-7.80001-8.77234-11.55028-13.28929-3.75002-4.51695-7.39868-9.11897-10.94112-13.79879-1.77134-2.33991-3.51618-4.69926-5.23404-7.07733-3.43523-4.7559-6.76254-9.58642-9.97657-14.48452-16.0716-24.4905-29.32151-50.66896-39.18091-77.66831-.59118-1.61868-1.19669-3.26119-1.81047-4.92192-3.06939-8.30343-6.3459-17.0641-9.05893-25.61475-.96795-3.05116-1.84767-6.06684-2.6372-9.03438-.09577-.35903-.20613-.72584-.2985-1.08317-1.89652-7.33864-3.62143-15.30905-5.15868-23.61103-1.53725-8.30173-2.88684-16.93527-4.03249-25.59944-.88555-6.69593-1.64591-13.40742-2.28035-20.00151-.37532-3.90073-.70591-7.7582-.9891-11.5459-.32889-4.39468-.59579-8.69431-.79609-12.85344-.09043-1.87805-.16918-3.73106-.23287-5.54761-.17745-5.06923-.22461-10.12874-.15582-15.17973s.25402-10.093.54061-15.12723c.28684-5.03374.67552-10.0597,1.15148-15.07788.2635-2.77745.55957-5.55199.87461-8.32458.82283-7.24724,1.80707-14.4799,2.92063-21.69846.76984-4.99047,1.59875-9.97414,2.47287-14.95245,1.31094-7.46699,2.72325-14.92085,4.18879-22.36378.48835-2.48114.98278-4.96057,1.48134-7.43928,0,.00024-.00024.00024-.00024.00049l-28.63869-1.18034-3.39951,12.25981c-1.78568,5.04687-7.13016,6.91245-8.80475,12.00647-1.72831,5.2581,4.80753,13.42205,3.20173,18.72634-.69667,2.30174-6.1755,10.18048-6.84836,12.49049-5.10521,17.51964-7.91024,38.92231-11.56157,56.83064-.29948,1.46797.28592,13.10694-.00335,14.5771-.76717,3.90317,8.17434,2.5097,7.48083,6.42672-1.38751,7.83404-6.48322,13.63667-7.56542,21.51689-.6765,4.92532.52701,13.56208-.02576,18.50151-1.65903,14.819-6.60427,26.29859-7.09019,41.19805-.21877,6.71587-.03293,13.90469-.0023,21.04619.06101,14.28252-1.04885,25.85109-.10278,40.10906.47304,7.12886,17.94828,17.19976,18.61433,23.89083.48033-.10064.88871-.14682,1.2368-.14634,2.43763.00194,1.94271,2.28424,2.8144,4.22622,3.81493,8.49766,7.83842,16.92239,12.05589,25.26739,4.74496,9.38831,9.73543,18.67598,14.95002,27.85329,1.73852,3.05894,3.50159,6.10573,5.28898,9.13988,2.38317,4.04537,4.80937,8.06837,7.27641,12.06804,4.93456,7.99934,10.03345,15.90582,15.28183,23.71166,15.74514,23.41778,32.8372,45.93421,50.87582,67.36382,6.01263,7.1432,12.13076,14.16584,18.33907,21.06061l-34.12092,75.03792v.00024c1.8902,2.93813,3.78819,5.88477,5.70173,8.83068,7.65319,11.78339,15.55238,23.54953,24.17692,34.66469,3.30494,4.25928,6.75865,8.38122,10.30375,12.41346,2.21788,2.52295,4.49361,4.98682,6.82258,7.39795,1.23461,1.27812,2.43763,2.58846,3.70627,3.83146v-.00012c.67868-3.04764,1.38946-6.08884,2.13426-9.12201.74432-3.03318,1.52266-6.05857,2.33529-9.07425,1.62525-6.03135,3.3888-12.02429,5.29821-17.96642.46453-1.44512.94146-2.88562,1.42373-4.32443,1.38362-4.12777,2.82364-8.23513,4.35967-12.30383,3.07523-8.14543,6.4847-16.15255,10.21843-24.00312,2.60487-5.47663,5.37989-10.87062,8.33115-16.17224,1.20253-2.16003,2.4369-4.30328,3.69946-6.43146Z"/><path class="cls-3" d="M151.83753,859.02015c-5.21459-9.17731-10.20506-18.46499-14.95002-27.85329"/><path class="cls-9" d="M1265.83849,954.08656c-10.32612-2.5791-23.38545-.42709-33.48988-6.04739-3.30834,4.29915-6.72632,8.50957-10.20336,12.67186-3.47704,4.16253-7.01316,8.27694-10.55875,12.38429-3.54535,4.10735-7.09994,8.20717-10.61344,12.34054-3.51351,4.13336-6.98593,8.30003-10.36744,12.54084l29.8067,61.96546c21.70964-34.96125,35.74033-62.84639,50.72924-101.45873-1.16169-2.72543-2.41623-3.67588-5.30307-4.39686Z"/><path class="cls-13" d="M1288.80536,860.91668c-3.97974,7.42421-7.94076,14.8613-12.15264,22.154-1.40404,2.43082-2.83579,4.84559-4.30547,7.23849-.28732.46793-.58923.92468-.88141,1.38848-1.04477,1.65952-2.11627,3.29813-3.21306,4.91755-.52797.77981-1.05838,1.55791-1.59559,2.33067-1.45168,2.08807-2.92719,4.15816-4.4202,6.21317-3.51375,4.83684-7.0907,9.62021-10.4919,14.53143-6.41056,9.25753-12.38697,19.2409-19.39648,28.34869,10.10443,5.6203,23.16376,3.46829,33.48988,6.04739,2.88684.72098,4.14139,1.67143,5.30307,4.39686,16.83002-43.3539,27.33893-80.46472,34.31684-126.82311-1.50225,2.37005-2.9622,4.76538-4.39054,7.17918-4.28505,7.24141-8.28301,14.65273-12.26251,22.07718Z"/><path class="cls-12" d="M1122.71359,655.62188c-9.57378,2.87396-19.76815,9.67855-30.5848,9.69265,8.04795-12.56199,15.1739-29.38787,17.87284-44.03161,5.75326-31.21633,1.73269-61.05852-11.93629-89.52219-41.24516-85.88739-155.84854-105.54882-222.31369-35.80912-17.01354,17.85193-31.026,44.38821-35.80888,68.63392-4.34946,22.04777-4.36137,51.69938,2.98407,73.10979,6.06587,17.68056,23.47126,43.37577,37.30091,56.69763,54.41266,52.4138,138.22146,47.15934,198.4411,7.46018,17.28118-11.39252,32.4665-28.69193,46.24074-44.03525.45626-2.0414-.10914-2.82242-2.196-2.196ZM927.60708,502.31282c58.35812-7.60871,65.76191,83.81609,8.5419,87.63904-54.82517,3.66276-62.63928-80.58577-8.5419-87.63904ZM886.19614,677.99538c11.279,3.30129,20.46482,11.10617,31.38479,15.59929,70.52218,29.01474,150.18765-8.65153,166.64381-83.91405l3.37932-19.72148c19.83427,117.03469-126.67288,170.35713-201.40792,88.03623Z"/><path class="cls-4" d="M748.18835,90.09409c2.3173-.52968,2.59466.99712,2.23878-2.95126-26.14832-3.88761-57.53116-9.18606-76.06567,14.19987-11.21069,14.14542-11.964,32.82942-14.9403,49.94068l17.12196-23.88644c20.555-22.66568,42.71799-30.69249,71.64522-37.30286Z"/><path class="cls-4" d="M599.01046,107.99002c-2.55552-7.26134-2.69383-14.08951-4.15913-21.21959-.29218-1.42349-.54402-4.47805-2.56792-4.10201-19.60407,39.25262,1.85471,60.31809,40.26578,67.11563-13.68478-11.74547-27.34355-24.19151-33.53874-41.79404Z"/><path class="cls-4" d="M1182.36539,479.53921v1.49204c.96892-.49735.96892-.99469,0-1.49204Z"/><path class="cls-4" d="M476.90849,223.1853c25.83426-7.897,50.24162-17.57069,78.04776-18.1728-2.42693,9.42817-5.61592,27.41623-1.15756,36.2192,3.33265,6.5795,5.99391-1.43151,8.77598-3.99748,31.20053-28.7753,76.81168-38.30047,117.71993-44.15096-12.87532,16.92506-15.64378,36.15211-7.59874,56.11545,2.37394,5.8906,5.89619-3.10513,8.35205-5.39399,30.32908-28.26994,80.7535-35.72088,120.09241-43.27076l-17.68153,26.31847c-3.95616,8.38073-6.38892,16.70483-7.66802,25.88749,9.85989-3.38905,18.67647-9.118,28.66178-12.35391,30.06291-9.74272,61.24156-7.83404,92.18199-4.04148.61889,3.38564-.16043,2.38172-1.90139,3.3273-5.42996,2.94956-10.07817,3.6122-15.86838,7.98475-9.42866,7.11987-17.91173,18.09647-18.02549,30.45038,13.78396-2.95831,26.99667-8.93618,41.21502-10.24493,30.26661-2.7862,57.90064,5.33127,85.58913,16.23884l-12.38697,6.23359c-14.63645,8.40285-22.23956,18.53353-24.89693,35.51572,31.34006-7.36878,64.84209-10.0597,94.55739,4.66669,2.50374,1.24069,13.39916,6.97159,12.85271,9.48943-.45189,2.08151-24.10546,16.71042-27.94226,19.74117-.90767.71709-4.3164,1.27351-1.89215,3.40412.81748.71855,17.23839,3.5507,21.20452,4.919,62.01967,21.39655,87.50121,60.67956,128.04727,106.20271.89114,1.00028,2.9092,4.12194,4.39978,3.04557-92.2836-228.35306-353.20769-366.67102-594.73578-303.83873-40.64742,10.57455-80.06388,27.81002-115.43448,50.18182,1.0314,2.0555,4.01255-.02431,5.49195-.47668Z"/><path class="cls-12" d="M568.03381,1016.28513l238.76231,56.76472c10.35796,3.33411,16.57259-10.62073,10.37741-17.20485-2.3647-2.51274-13.50223-4.5539-17.49533-5.62175-75.40862-20.16802-152.69285-34.19943-228.27478-53.81808-12.6196-.96965-14.71642,16.26947-3.3696,19.87996Z"/><path class="cls-12" d="M666.57458,970.0371c-25.36098-5.75083-62.79048-18.30601-87.17524-20.3231-3.97633-.32913-12.43971-.05056-13.99155,4.29331-1.64737,4.61175,1.01073,13.96068,7.10091,14.53387l240.04189,55.51844c13.45798.87728,15.45515-15.60002,3.54972-20.09922-48.04173-9.86353-95.49593-22.69291-143.26589-33.54068-1.62087-.36803-4.05072.11814-6.25984-.38261Z"/><path class="cls-12" d="M534.06968,1144.24768l168.0916,39.43542c12.86049.98497,15.6168-16.31067,3.20747-19.75393l-166.4615-39.45316c-2.7388-.61718-5.48368-.68184-8.23343-.06733-11.27098,2.52052-8.35861,19.44789,3.39585,19.83901Z"/><path class="cls-12" d="M549.26084,1096.2316l164.77062,38.16264c15.19942,3.56139,22.43548-13.04353,7.25697-19.20955l-165.97485-38.46917c-2.23562-.51266-4.49215-.75234-6.7375-.08411-9.28743,2.76433-9.37081,17.38765.68476,19.60018Z"/><path class="cls-12" d="M714.97996,930.51953c-13.37631-1.6267-18.78318,9.32584-8.90992,17.85412l80.15916,19.06199c13.85907-.12737,34.28184,9.654,45.44318,8.89193,7.09896-.48446,11.42509-8.22103,9.76241-14.86008-1.88316-.4288-9.00691-5.14896-14.90481-6.72972-30.90713-8.28399-80.5549-20.44878-111.55003-24.21825Z"/><path class="cls-12" d="M633.65279,1202.06483c-1.23607-1.31203-5.88015-2.5853-7.91402-3.27055-33.24971-11.20291-72.2099-16.06978-106.02356-26.8225-14.51442-2.52052-20.41037,13.6324-5.84272,19.32975,32.6459,12.76763,76.85325,16.05373,110.6815,28.21488,9.83898,2.09719,14.81681-11.3817,9.0988-17.45158Z"/><path class="cls-16" d="M654.39813,721.46352c39.2074-17.78241,75.67479-18.10911,115.81101-2.8443,6.11618,2.32605,25.60479,14.32846,11.01987-1.32164-39.19987-42.06264-117.09205-40.03388-145.69525,12.88917,2.41064,1.84256,15.41552-7.15876,18.86437-8.72324Z"/><path class="cls-12" d="M783.30639,756.37251c-5.22529,3.34748-8.54627,14.25383-7.52144,20.08245.17526.99518,5.87529,12.2275,6.82185,13.31991,5.62491,6.49174,18.7489,9.99844,26.00295,4.58452,17.50676-13.06565-4.05655-51.59899-25.30336-37.98689Z"/><path class="cls-12" d="M299.85641,657.82177l11.90226,16.43136,20.89119,20.13982c5.52744.98351,18.02841,11.56243,24.36337,15.1756,26.88218,15.33069,70.76916,26.86638,101.69768,25.09431,8.0008-.45845,24.3252-5.49025,30.60304-4.46104,16.75466-7.8005,34.04653-14.96947,48.4467-26.90114,9.07425-7.51877,24.65823-24.33371,30.63123-34.27236,11.18833-18.61715,18.56003-45.57931,19.39648-67.14189.95385-24.58895-3.52104-51.13981-14.92037-73.10979-49.28047-94.97792-188.42297-97.58546-241.71016-4.47611-11.63657,20.33258-18.55128,49.81331-17.90444,73.10979.55496,19.98692,4.70655,38.31529,12.73384,56.64561.95142,2.17218,7.2594,12.87629,6.65364,13.47403l-32.78445-9.7082ZM403.88281,503.77179c66.57988-10.62997,69.27833,95.63838-.22996,86.04831-43.81697-6.04545-45.28907-78.78089.22996-86.04831ZM337.14079,595.92535c2.14836-.34955,2.08127,2.62772,2.51395,4.16351,1.99181,7.07271,2.776,14.7998,5.02304,21.84869,21.829,68.47738,100.09577,99.56682,165.03606,71.2208,4.87525.09553,30.51455-19.44533,31.81358-18.15457,1.62233,1.61212-2.17412,4.15232-3.11704,5.07409-6.19446,6.05468-15.07424,13.1833-22.36596,17.91902-80.88185,52.52853-190.63526-2.62528-178.90364-102.07154Z"/><path class="cls-1" d="M654.39807,721.46351c39.20748-17.7824,75.67491-18.10908,115.81108-2.84433,6.11614,2.32617,25.6047,14.32845,11.01983-1.32158-39.19986-42.06265-117.09205-40.03385-145.69519,12.88921,2.41061,1.8425,15.41552-7.1588,18.86428-8.72331Z"/><path class="cls-1" d="M775.78499,776.45505c.17522.99502,5.87529,12.22744,6.82186,13.31982,5.62486,6.49173,18.74893,9.9984,26.0029,4.58451,17.50683-13.06558-4.05655-51.59895-25.30341-37.98695-5.22517,3.34749-8.54624,14.25393-7.52135,20.08262Z"/><path class="cls-1" d="M635.23688,796.35899c1.179-.29611,10.31031-4.57725,10.74091-4.98374,2.85113-2.69114,7.25258-13.58097,7.4601-17.90433.92004-19.14758-19.92736-26.33741-31.33269-13.42836-5.58241,6.31812-8.72965,17.19227-5.96815,25.36466,2.80857,8.31174,10.51425,13.10792,19.09983,10.95178Z"/><path class="cls-1" d="M874.36308,837.21264c-1.47534-.38331-2.95322-.76351-4.41356-1.19458,1.46034.43107,2.93834.81138,4.41356,1.19458Z"/><path class="cls-1" d="M641.5016,843.59663c.07359.79477.28238,1.47246.60109,2.05475-.31871-.58229-.52739-1.25998-.60109-2.05475Z"/><path class="cls-1" d="M872.76051,825.70764l-35.80185,2.96867c-24.35245.54054-48.75658.90181-73.10996,1.49195-32.19932.78023-63.46961.56833-95.49037,0-37.23486-.66096-73.52522.41619-110.41069-4.47608-1.90525-.25285-4.03279.15699-5.96815.01476-3.20076,2.32271,25.86586,9.4649,28.0663,9.96587,20.89861,4.75985,40.25106,6.21615,61.45581,7.92381,33.60753,2.70648,67.67646,4.22277,101.45864,2.98402,22.81944-.83664,48.53799-2.89554,71.61789-5.96803,16.36543-2.17898,33.57904-5.19818,49.23725-10.44435,2.52826-.84714,8.01067-1.62137,8.94513-4.46063Z"/><path class="cls-8" d="M895.60705,803.59853c-80.70052-36.52499-76.35184-132.88302-183.36-134.08234-50.53579-.56639-81.878,36.04208-104.06946,60.918-6.79268,7.61421-16.32049,16.07042-22.71256,23.08999-5.8363,6.40902-16.00433,15.85827-22.41208,21.67496l-7.47069,2.72961c-6.4164,5.82431-3.48628,8.40968-10.67242,13.25304-9.84129,6.63303-18.62671,9.67029-29.88278,13.40017-6.32654,2.09627-16.80076,3.06551-23.46275,4.20933-10.326,1.77318-19.63615,6.50914-29.10705,10.93274.97091,2.60382,3.27655,3.22026,5.553,4.14306,55.65504,22.5629,131.42465,28.82046,191.39589,31.66583,31.62511,1.50026,63.72246,2.45536,95.49026,1.49207,24.94605-.75647,49.841-3.15451,74.60203-5.96826,19.38751-2.20297,34.81503-4.9053,53.71345-8.95216,14.87267-3.18484,25.73967-5.36579,40.28497-10.44423,10.86792-3.79447,22.46577-7.11981,31.33304-14.92031-21.50455-4.06313-38.073-3.56896-59.22285-13.14148ZM808.60975,794.35938c-7.25397,5.41389-20.37803,1.90721-26.0029-4.58451-.94657-1.09237-6.64664-12.3248-6.82186-13.31982-1.02489-5.82869,2.29618-16.73513,7.52135-20.08262,21.24686-13.612,42.81024,24.92136,25.30341,37.98695ZM781.22898,717.2976c14.58487,15.65002-4.90369,3.64775-11.01983,1.32158-40.13617-15.26475-76.6036-14.93808-115.81108,2.84433-3.44877,1.56451-16.45367,10.56581-18.86428,8.72331,28.60314-52.92306,106.49532-54.95186,145.69519-12.88921ZM622.1052,760.04255c11.40534-12.90905,32.25273-5.71922,31.33269,13.42836-.20752,4.32336-4.60897,15.21319-7.4601,17.90433-.43061.4065-9.56191,4.68764-10.74091,4.98374-8.58558,2.15614-16.29126-2.64004-19.09983-10.95178-2.7615-8.17239.38573-19.04654,5.96815-25.36466ZM814.57813,840.61261c-23.0799,3.07249-48.79846,5.13139-71.61789,5.96803-33.78217,1.23875-67.85111-.27753-101.45864-2.98402.07371.79477.28238,1.47246.60109,2.05475-.31871-.58229-.5275-1.25998-.60109-2.05475-21.20475-1.70766-40.5572-3.16396-61.45581-7.92381-2.20044-.50097-31.26706-7.64316-28.0663-9.96587,1.93536.14223,4.06289-.26761,5.96815-.01476,36.88546,4.89227,73.17583,3.81512,110.41069,4.47608,32.02076.56833,63.29105.78023,95.49037,0,24.35338-.59014,48.75751-.95142,73.10996-1.49195l35.80185-2.96867c-.93446,2.83925-6.41686,3.61349-8.94513,4.46063-15.65821,5.24617-32.87182,8.26536-49.23725,10.44435ZM869.94952,836.01806c1.46034.43107,2.93822.81126,4.41356,1.19458-1.47522-.3832-2.95322-.76351-4.41356-1.19458Z"/><path class="cls-16" d="M742.96015,846.58068c22.81955-.83669,48.5381-2.89559,71.618-5.96815,16.36549-2.17899,33.57909-5.19806,49.23721-10.44426,2.52829-.84714,8.01076-1.62136,8.94517-4.46055l-35.80183,2.96852c-24.35243.54061-48.75663.90183-73.11003,1.49204-32.19935.78029-63.46965.56833-95.49034,0-37.2348-.66094-73.52522.41616-110.4107-4.47611-1.90528-.25281-4.03273.15703-5.96815.01483-3.20066,2.32265,25.86586,9.46488,28.06623,9.96587,20.89872,4.75979,40.2512,6.21609,61.45596,7.92374,33.60753,2.70647,67.67642,4.22282,101.45848,2.98407Z"/><path class="cls-12" d="M622.10519,760.04256c-5.58238,6.31818-8.72956,17.19221-5.96815,25.36462,2.80857,8.3117,10.51426,13.10795,19.09992,10.95181,1.17895-.29607,10.31032-4.57723,10.74082-4.98366,2.85111-2.69116,7.25259-13.58098,7.46018-17.90444.92006-19.14756-19.92737-26.33743-31.33277-13.42833Z"/><path class="cls-16" d="M936.14898,589.95185c57.22001-3.82295,49.81623-95.24774-8.5419-87.63904-54.09738,7.05326-46.28328,91.3018,8.5419,87.63904Z"/><path class="cls-16" d="M1084.22473,609.68062c-16.45616,75.26252-96.12162,112.92879-166.64381,83.91405-10.91997-4.49313-20.10579-12.298-31.38479-15.59929,74.73504,82.32089,221.24218,28.99845,201.40792-88.03623l-3.37932,19.72148Z"/><path class="cls-16" d="M403.65285,589.8201c69.50829,9.59007,66.80984-96.67828.22996-86.04831-45.51903,7.26742-44.04692,80.00286-.22996,86.04831Z"/><path class="cls-16" d="M516.04443,697.99689c7.29173-4.73572,16.17151-11.86434,22.36596-17.91902.94291-.92177,4.73937-3.46197,3.11704-5.07409-1.29903-1.29076-26.93833,18.2501-31.81358,18.15457-64.9403,28.34602-143.20707-2.74342-165.03606-71.2208-2.24705-7.04889-3.03123-14.77597-5.02304-21.84869-.43269-1.53579-.3656-4.51306-2.51395-4.16351-11.73162,99.44625,98.02179,154.60007,178.90364,102.07154Z"/><path class="cls-7" d="M430.12838,968.49787c67.69197,4.33096,103.05829,18.35657,37.60158,179.09771-32.91865,80.83789-89.13008,136.89079-137.47655,120.78938-34.65265-11.54079-51.9469-48.34342-51.11204-102.95065.32992-21.57935-10.71454-41.16116,5.0642-74.10611,37.39541-78.07912,95.06958-126.08394,145.92281-122.83033Z"/><path class="cls-6" d="M1125.24954,1205.49082c-39.38511,65.79257-71.52436,94.52729-195.55412-48.16152-62.37547-71.75924-88.30139-154.98993-47.38585-195.74356,29.32648-29.21043,74.4757-28.9063,127.71773-1.88997,21.03987,10.67615,46.01889,8.99057,70.21337,40.6047,57.34061,74.92511,74.59673,155.76403,45.00887,205.19035Z"/><path class="cls-12" d="M643.53321,64.31952c10.14447-4.80636,18.95731-11.76489,29.44078-16.05172,44.56393-18.22279,95.93845-8.89608,134.63247,18.37188,2.11535,1.49071,2.41918,4.46873,4.17107,5.10956,11.64465,4.25952,38.16599,6.38005,52.58998,9.71566,379.02843,87.6521,601.07432,484.61158,489.76206,856.84379-112.2888,375.49778-524.70208,581.53347-892.16042,430.33308-12.26395-5.04632-56.24243-29.19929-64.03072-30.092-9.54345-1.09389-40.24623,7.02179-51.34835,9.6555-11.78698,2.79617-47.40288,15.20806-55.97636,14.30569-4.17924-.43987-9.25079-5.07238-10.50267-8.99315-2.19148-6.8635,2.16923-11.5895,6.05363-16.5008,9.98216-12.62107,31.60405-27.30294,39.6301-39.44203.94565-1.43025,1.82187-2.55935,1.52768-4.43064-.20856-1.32664-18.70379-13.4727-21.68074-15.85344C112.11097,1122.51984,15.38908,884.70512,52.92734,636.7719,92.57803,374.88646,286.58081,154.82188,542.69127,86.58537c7.32509-16.27043,13.75504-33.48986,26.98703-46.12283,28.52546-27.23408,73.20907-20.30773,73.85491,23.85698ZM609.20881,59.85054c-31.91847,13.40977-44.94811,48.57172-22.99712,77.4565,1.56226,2.05574,12.93845,11.92968,11.05346,13.55011-66.90116,7.50308-127.22755,40.60423-181.00228,79.3587-160.86916,115.93547-266.43713,311.1314-195.01003,510.77611,34.55498,96.58406,90.67183,147.30668,178.02881,194.98166,2.54814,1.39064,8.22091,6.58078,9.43676,6.814,2.9201.56014,10.94857-3.38137,14.87358-3.98446,20.34459-3.12602,41.23044-2.23463,60.27089,5.82523-.11426-20.94313,1.17744-42.15484-3.67705-62.70324-27.20164-3.59713-59.02589-18.96293-55.82798-51.27675,4.32151-43.66741,52.02757-37.04271,81.17875-45.64298,77.59434-22.89212,96.74192-123.35103,186.50309-134.28507,136.25601-16.59769,135.98226,118.93157,249.33139,138.55291,16.68814,2.88881,27.05104.00945,42.21051,11.50285,37.25898,28.24851,11.21933,75.38734-29.63575,78.27167l2.89682,46.94176c.84238,4.72709,11.23806,4.4792,16.4107,5.96987,11.22839,3.23585,22.01334,8.79769,33.20599,10.94094,182.94561-61.26115,243.24785-267.69331,201.25077-442.34671-34.02998-141.5206-133.7934-255.09411-264.76799-315.63478-72.11478-33.33377-153.76221-54.24589-233.75931-50.47428-1.6895-1.49888,7.41478-9.86481,8.92694-11.20025,15.39462-13.59551,36.98379-22.57861,56.70939-27.60078,3.28658-4.2758-19.36015-16.02384-22.4063-17.11098-17.11882-6.10954-37.35688-5.38041-54.90928-1.25907-27.38278,6.42954-51.48388,26.21536-53.99294,55.6865-1.97095,2.41454-19.09847-18.1747-20.62007-20.39556-3.62206-5.28659-13.68177-24.06561-13.68177-29.58734v-23.12659ZM1165.71976,1135.59837c8.91811-13.14709,20.12003-25.28884,29.58371-38.31169,117.33777-161.46706,146.3975-363.35552,85.71563-553.66302-2.81195-8.81871-25.16496-68.3142-29.50792-70.4663-2.72751-1.35159-2.24574,1.22386-1.64947,3.14189,25.85225,83.15989,24.40016,182.02448.17421,265.40944-28.51156,98.13591-93.89667,187.64811-188.72855,229.7958l29.03869,20.91478c43.93468,36.35586,64.40392,80.15872,72.84691,136.04013.2621,1.73476.3755,7.24453,2.52679,7.13897ZM313.17674,940.77181c-122.67171-89.40666-179.7863-242.30897-157.36699-392.09835,2.03357-13.58682,6.28503-27.53332,8.40469-40.84413.25239-1.58493,1.57885-5.18975-1.10615-4.83234-82.6221,198.97397-52.7417,431.56056,76.97621,602.61708,2.05751,2.7132,22.81255,29.72894,24.44553,28.50031,13.5688-63.38498,42.99057-123.64265,94.00906-164.87405-16.03989-8.02163-30.95126-17.9653-45.36236-28.46852ZM695.44099,676.50222c-80.11471,8.63421-101.91066,121.03194-202.02048,138.16418-13.78642,2.35933-35.29295-1.24138-41.96364,14.74364-6.31167,15.12468,11.66297,22.18254,23.41762,25.00162,149.17617,35.77645,305.66886,32.12975,455.43194,3.24263,15.39728-2.96991,50.06916-5.14722,44.07544-28.29186-3.81267-14.72256-28.1108-12.78978-38.98972-14.71373-13.27653-2.34797-28.45529-5.92344-40.72951-11.49181-81.08469-36.7852-91.03148-138.31466-199.22164-126.65467ZM904.63233,935.67683c7.95385-3.01525,18.44038-5.78707,26.86673-5.96268l-2.98745-44.77359c-37.26488,4.09067-74.08491,12.08186-111.34906,16.23384-71.72359,7.99147-151.81795,7.28251-223.40831-1.51831-28.72986-3.53185-57.3084-9.41196-85.99637-13.21316.49511,13.13038,2.78645,27.24204,2.97643,40.28168.13271,9.10846-2.77766,26.77538-1.45193,33.54398.55447,2.83086,6.68158,9.73097,8.69828,13.66906,33.96565,66.32614-34.93907,177.77493-73.80349,231.6366-23.19004,32.13876-49.1263,58.1708-76.63963,85.99251-4.52585,4.57658-27.84568,26.06475-29.14928,29.05587-.79472,1.82349.59415,1.92015,1.48376,2.93587,42.82343-11.12353,87.20449-15.91822,131.33858-19.33299,50.0529-3.87273,100.85428-3.07028,150.21161-13.91257,52.12419-11.45009,117.64079-58.05984,123.38068-115.3454.94343-9.41566-1.41243-22.40569.495-30.8378,2.46703-10.90596,15.83541-11.21337,24.55285-12.7481,35.48132-6.24659,70.43639-7.05437,106.43249-6.23091-30.5152-35.19685-50.20126-78.05909-34.72249-124.97626,9.49782-28.78853,34.59295-53.70155,63.07161-64.49763ZM1007.58273,1125.18075c-11.62729,14.54419-28.89494,29.78188-25.7835,50.34384,23.76515,20.31505,47.68463,41.32362,72.50649,59.86413,12.13442-8.52965,73.61854-54.43606,75.59109-64.74908,2.53678-13.26295-2.79263-48.25417-6.36423-62.20309-10.69615-41.7739-36.54549-75.66734-71.59493-99.98943-24.69311-17.13545-82.60936-46.70058-112.22143-44.39501-43.9195,3.41954-79.52411,45.43481-64.90664,89.49223,15.91065-14.42068,34.38901-27.72899,56.64948-29.10597-15.14038,11.69233-43.16373,49.86171-34.99994,69.36421,5.3646,12.81551,17.90614-1.36329,25.63245-5.63706,14.36674-7.94688,28.48294-12.43609,45.20589-10.73021-12.73431,10.74197-34.77731,29.96978-37.05035,47.38651-.94646,7.25208,12.54381,15.67383,17.12054,21.07803,17.97786-11.52611,38.67756-19.84184,60.21507-20.71911ZM478.85429,982.49504c-26.15477-18.29682-62.47524-7.71867-87.35739,7.7668-45.04985,28.03688-74.69244,84.43728-87.73207,134.58159-2.13704,8.21807-9.5161,37.65905-7.58586,44.02622.84809,2.79755,26.62729,26.35749,31.01338,30.17318,14.04369,12.21732,29.71212,23.47257,44.74373,34.48369,1.74066.9273,2.47344.08027,3.8004-.80961,5.55979-3.72847,19.74438-21.56854,24.54578-27.76846,4.39942-5.68086,14.29693-17.26253,15.01293-23.80545,2.47772-22.64162-23.93521-38.01504-38.84385-49.99432,17.18401-2.22745,32.31369-1.14318,49.25304,2.20688,4.44056.8782,14.5162,5.29412,17.21356,5.16787,3.49821-.16373,10.64963-12.3302,11.09709-15.72172,2.47309-18.74462-34.91298-41.32734-50.70008-46.11981,22.89742-11.09751,48.61195-1.55034,70.71115,6.82754,11.70965-17.05743-12.42802-43.4657-25.65262-53.74959-7.32554-5.69658-15.84266-8.98348-22.68489-14.99012,23.34913-1.92071,44.22817,4.99932,64.1401,16.39207,3.01547-15.77303,3.6083-38.46528-10.9744-48.66675ZM734.54015,1256.44988c23.30718-5.88705,47.22823-16.90753,69.16862-27.05256,38.15047-17.6404,74.80297-38.51995,111.89765-58.19293,6.70539-2.24321-6.45252-13.09646-9.39795-14.04403-8.61498-2.77152-32.78529-4.63829-42.62245-5.12276-29.57019-1.45632-59.71496,2.58487-88.86027,6.59964-2.14601,11.19045-2.56751,22.53213-5.10762,33.68536-5.51755,24.22669-18.72134,45.80274-35.07798,64.12727ZM931.48059,1192.31427c-16.35106,7.34135-31.01945,18.31974-46.73396,27.10658-79.54607,44.47853-166.61888,74.02576-256.11025,91.53459-14.67032,2.87022-30.35903,4.12311-44.81159,7.42589-1.65332.37783-4.82402.00454-4.44923,2.22613,68.13588-1.00198,135.88196.97789,203.649,7.48204,24.29388,2.33168,48.44574,6.78861,72.79237,8.67383,44.81848-33.96212,69.25422-89.45197,75.66367-144.44906Z"/></svg>