<?xml version="1.0" encoding="UTF-8"?><svg id="Layer_1" xmlns="http://www.w3.org/2000/svg" viewBox="0 0 1904.1844 2574"><defs><style>.cls-1{fill:none;}.cls-2{fill:#fed45e;}.cls-3{fill:#fff;}</style></defs><path class="cls-1" d="M1289.09379,1146.67658c-2.78467-10.75293-13.68896-14.90088-25.41992-16.86377-.53369-.08936-1.06738-.17664-1.604-.25732-9.4043-1.41406-19.12451-1.56494-25.4624-2.68579-8.54443-1.51111-17.67334-3.40576-26.68164-5.78491-9.77734-2.58228-19.41016-5.73779-27.99609-9.61914-.0498-.02246-.10107-.04333-.15039-.06567-109.15283-49.51855-122.54248-186.19312-268.18311-170.49695-107.84717,11.62292-137.18799,162.92786-271.95117,185.99048-10.23389,1.75134-23.62402,1.07043-35.08643,3.70862-4.27148.98315-8.27246,2.43018-11.74414,4.6355-4.10693,2.60889-7.47607,6.27246-9.65918,11.50317-3.31104,7.93457-1.64453,14.2135,2.54395,19.15454,1.86182,2.19604,4.2124,4.13257,6.86182,5.82434,6.68652,4.26929,15.20166,7.01843,22.11816,8.67712,200.81445,48.16064,411.47754,43.25171,613.08203,4.36511,20.72705-3.99792,67.40088-6.92896,59.33252-38.08533ZM1046.30961,1044.6573c.08301.00806.16553.01831.24854.02734.79297.08557,1.5791.21143,2.35596.38318,1.24609.27576,2.46973.65906,3.66504,1.13928.79688.32007,1.58105.68335,2.35156,1.0863,1.92529,1.00757,3.7627,2.26428,5.48584,3.72009.68945.5824,1.36084,1.19666,2.01221,1.8396s1.28271,1.31458,1.89307,2.01172c.60986.69714,1.19873,1.41992,1.76465,2.16479.63623.83813,1.24316,1.70435,1.81934,2.59448.57568.89001,1.11963,1.80371,1.63037,2.73669.51025.93298.9873,1.88501,1.42773,2.85168.44043.9668.84521,1.948,1.21143,2.93945.97656,2.6438,1.68018,5.35938,2.06689,8.06055.09668.67529.17383,1.34973.22998,2.02185.04248.50403.07324,1.00696.09229,1.50793.03809,1.00208.02881,1.99683-.02979,2.97974-.0293.49146-.0708.97986-.12549,1.46484-.19336,1.72424-.54688,3.40381-1.07324,5.01331-.22412.68494-.48682,1.354-.77441,2.0116-.10645.24292-.21777.4834-.33301.72217-.23877.49561-.49756.98145-.77539,1.45813-.45068.77234-.95117,1.51892-1.50684,2.23523-.33594.43274-.68555.85767-1.06055,1.26782-.87256.9541-1.85254,1.84521-2.94727,2.66199-1.55078,1.15735-3.30176,2.00891-5.17969,2.59119-.62598.19409-1.26611.35815-1.91748.49377-.15088.03137-.30176.06238-.45361.0907-1.47705.2749-3.00781.40857-4.56396.40723-.00879,0-.01709.00049-.02539.00049-3.2168-.00586-6.53711-.57263-9.69336-1.5813-.65771-.21021-1.30811-.43945-1.94922-.68677-4.48584-1.73193-8.50342-4.35059-11.22119-7.48682-.65088-.75146-2.97266-5.06689-5.11963-9.28662-.49512-.97388-.98145-1.9425-1.43555-2.86108-.3457-.69995-.67334-1.37073-.97168-1.99255-.36865-.76733-.68994-1.45349-.95264-2.0343-.06592-.14612-.12793-.28442-.18555-.41577-.12451-.28271-.2251-.52197-.30811-.729-.05225-.13062-.0957-.24524-.12939-.34119-.00781-.02283-.02002-.05371-.02686-.07446-.01807-.05359-.02539-.0885-.03516-.12769-.00537-.02087-.01562-.05127-.01855-.06775-.03906-.22144-.06445-.45776-.09424-.6897-.06445-.51086-.11572-1.03711-.13721-1.59229-.01221-.3103-.01904-.62524-.01807-.94763.00586-1.74182.20312-3.64905.56982-5.60974.06104-.3269.12695-.65515.19727-.98438.21143-.98779.46436-1.98413.75586-2.9751.09717-.33044.19873-.66016.3042-.98877.42285-1.3147.91309-2.61145,1.46436-3.85718.1377-.31152.2793-.61975.42432-.92432.19629-.41064.40088-.81152.61035-1.20728.31445-.59521.64355-1.17163.98633-1.7262.44385-.71814.90869-1.40247,1.39746-2.03601.2793-.36206.56543-.70874.8584-1.03833.21973-.24731.44287-.48486.66992-.71204.68115-.68176,1.39453-1.27014,2.13623-1.74536.50293-.32214,1.00537-.62256,1.5083-.90186s1.00537-.53748,1.50732-.77502c.33496-.15845.66943-.30762,1.00391-.448.89111-.37415,1.78076-.68457,2.6665-.93433,2.62842-.74121,5.22461-.94678,7.74707-.70435ZM832.9517,1013.17072c1.84229-3.40906,3.83691-6.66113,5.97021-9.75757,2.1333-3.09619,4.40576-6.03662,6.80371-8.82227,1.37061-1.5918,2.78223-3.13293,4.23242-4.62378,1.45068-1.49072,2.93945-2.93115,4.46484-4.32153,3.81348-3.47559,7.85352-6.63745,12.08252-9.48853,3.8667-2.60669,7.89111-4.95361,12.04443-7.04285,2.07715-1.04468,4.18604-2.02502,6.32373-2.94104,8.34717-3.57727,17.13232-6.1698,26.1377-7.80884.38135-.06934.7627-.13867,1.14453-.20459,2.0127-.34741,4.03516-.64783,6.06641-.8999,1.30469-.16187,2.61182-.30908,3.92285-.43188,3.48389-.32617,6.9873-.5127,10.49805-.56323.03223-.00049.06445-.0022.09668-.00256,3.54199-.04846,7.0918.04309,10.63672.27332,3.54541.23022,7.08643.59949,10.61035,1.10669,5.87305.84521,11.69971,2.07373,17.42285,3.68115,10.30176,2.89331,20.26855,7.01392,29.57178,12.33679,2.58398,1.47852,5.11719,3.04993,7.5918,4.71338,4.94922,3.32703,9.66504,7.02283,14.09131,11.08313,1.10693,1.01514,2.19531,2.05298,3.26465,3.11353,1.06982,1.06055,2.12012,2.1438,3.15088,3.24976,5.63672,6.04871,7.49268,9.02893,7.07959,10.12988-.05908.15723-.16455.27612-.31201.36023-.16846.09607-.39111.14648-.6626.15662-.271.01013-.59033-.02002-.95166-.08569-1.68408-.30554-4.27441-1.37817-7.10107-2.69141-1.21143-.56287-2.4668-1.16992-3.7124-1.77979-.41553-.20337-.82959-.40698-1.24121-.60938-.41113-.20239-.81982-.40356-1.22314-.60205-.40332-.19836-.80176-.39404-1.19385-.58545-.3916-.19141-.77637-.37842-1.15234-.55981-.37598-.18127-.74316-.35669-1.09961-.5249-.35693-.16797-.70264-.32886-1.03564-.48071s-.65332-.2948-.9585-.42737c-.4585-.19885-.88428-.37415-1.27002-.521-2.11084-.80273-4.21387-1.57336-6.30957-2.31189-6.28809-2.21545-12.5127-4.14136-18.68799-5.77356-1.64697-.4353-3.29004-.84973-4.93018-1.24304-3.27979-.78687-6.54688-1.48999-9.80322-2.10852s-6.50146-1.15271-9.73828-1.60193c-3.23633-.4491-6.46436-.81323-9.68555-1.09155-3.14941-.27222-6.29248-.45972-9.43115-.56763-1.67676-.05762-3.35205-.09448-5.02637-.10498-1.60303-.01001-3.20508.00171-4.80664.03503-3.20264.06677-6.40332.22034-9.60352.4613-3.2002.24121-6.3999.56982-9.60156.98645-3.20166.41675-6.40527.92151-9.6123,1.51501-3.20752.59351-6.41846,1.27588-9.63574,2.04736-3.21729.77173-6.44043,1.63257-9.67139,2.5835-3.23145.95093-6.4707,1.9917-9.72021,3.12317s-6.50928,2.35339-9.78125,3.6665-6.55615,2.71741-9.85498,4.21362c-.19434.08826-.41895.19983-.65674.32141-.23193.11853-.48291.25171-.75195.39868-.1875.10254-.38428.2113-.58887.32617-.32227.18127-.65723.37195-1.01709.58032-.5.28955-1.03369.60327-1.59473.93506-.84131.49768-1.74316,1.03601-2.68408,1.59473-.94043.55872-1.91943,1.13794-2.91504,1.71704-.33203.19312-.66553.38623-1,.57861-1.33838.76953-2.69238,1.5271-4.00879,2.22485-.6582.34888-1.30713.68286-1.93994.99585-.31641.15637-.62891.30762-.93652.45288-.92285.43567-1.80273.81738-2.61621,1.125-.81396.30762-1.56201.54077-2.22217.67969-.43994.09253-.84082.14307-1.1958.14551-.01172.00012-.021-.0022-.03271-.0022-.5166-.00098-.93604-.10327-1.2334-.33069v-.00012ZM805.543,1076.425c.05811-.89307.15918-1.7887.28369-2.6842.17334-1.25024.41162-2.49744.70654-3.73486.22217-.93335.46582-1.86206.75195-2.77795,1.34082-4.28821,3.36963-8.32654,5.85596-11.69458.55811-.75598,1.13086-1.48999,1.7334-2.172.71973-.8147,1.46729-1.5697,2.23877-2.2666.771-.69678,1.56592-1.33521,2.37988-1.9165.54297-.38757,1.09424-.74976,1.65283-1.08667,1.11719-.67407,2.26318-1.2478,3.42871-1.72388,1.16504-.47607,2.34912-.85449,3.5415-1.13782,1.12207-.2666,2.25146-.44177,3.37988-.5426.67139-.05981,1.34229-.09814,2.01074-.10059,1.96143-.00732,3.90479.23022,5.78418.70081,1.12793.28235,2.23291.64856,3.30518,1.09631.71436.29834,1.41504.63281,2.09766,1.00281,1.02441.55493,2.00977,1.18958,2.94629,1.90125,1.24805.94873,2.40967,2.03467,3.46045,3.25171.49268.57043.96143,1.16968,1.40332,1.79712.44189.62732.85693,1.28296,1.24316,1.96594.38672.68311.74365,1.39368,1.06982,2.13123,1.62939,3.68774,2.47461,8.04834,2.23633,13.00403-.02783.57947-.11426,1.25012-.24609,1.98535-.05469.3031-.11475.61414-.18506.93909-.08057.37109-.1709.75513-.27051,1.15063-.229.90869-.521,1.88867-.8374,2.89111-.40137,1.27002-.85107,2.58325-1.35791,3.91333-.30273.79346-.62012,1.58862-.94873,2.37476-.12305.29443-.24756.58716-.37354.87854-.28906.66907-.58545,1.32776-.88623,1.97083-.0957.20483-.19189.40759-.28857.60889-.38086.79382-.76709,1.55859-1.1543,2.28003-.21875.40784-.4375.80054-.65576,1.17847-.0791.13721-.15771.27112-.23682.40381-.17041.28687-.33936.56201-.50781.82666-.42627.66919-.84424,1.26392-1.24756,1.76514-.04346.05371-.08691.11011-.12988.16162-.24512.29468-.48486.5553-.71631.77393-.57959.54712-12.87158,6.3103-14.45898,6.70874-1.0835.27209-2.15625.46204-3.21484.57349-1.05811.11133-2.10156.14429-3.12549.10266-.68262-.02783-1.35693-.08875-2.021-.18176-1.32861-.18604-2.61719-.5-3.85596-.93335-1.16113-.40625-2.27832-.91699-3.34229-1.52515-1.77393-1.01367-3.40088-2.29736-4.84082-3.81665-.06201-.06567-.11719-.13989-.17871-.2063-.72217-.78101-1.38965-1.62756-2.00977-2.52454-.32031-.46399-.62744-.94202-.91992-1.43408-.21924-.36902-.43018-.74573-.63232-1.13025-.28906-.54956-.55273-1.12036-.80469-1.70105-.27686-.63855-.53711-1.29016-.76562-1.96582-.41895-1.2406-.72314-2.53235-.94678-3.85144-.27197-1.60522-.41846-3.25342-.42285-4.92883-.00195-.76306.02246-1.53076.07227-2.30078ZM1147.07963,1145.76472c-.30371.11011-.61133.21497-.9209.31531-.61865.20068-1.24414.38318-1.85693.55322s-1.21289.32751-1.78027.47815c-.42578.11292-.83301.22192-1.21387.32959-.38037.10742-.73438.21362-1.05371.32043-1.31738.44141-2.64307.87109-3.97559,1.28943-2.66602.83691-5.36182,1.62866-8.08057,2.37915-1.29736.35815-2.60059.70679-3.9082,1.04614-3.92285,1.01819-7.8877,1.95386-11.875,2.82129-.49316.10718-.98633.21387-1.48047.31897-1.78711.38049-3.5791.74341-5.37256,1.09729-7.23584,1.42749-14.50977,2.64697-21.71631,3.71765-3.30859.49158-6.60352.95447-9.87207,1.38977-4.85449.64624-9.7959,1.25928-14.79541,1.83777-4.99951.57861-10.05762,1.12268-15.14502,1.63147-2.20508.22046-4.41602.43311-6.62988.64014-3.91602.36621-7.8418.71265-11.76562,1.03625-4.09473.33765-8.18652.65186-12.26123.94202-2.0376.14502-4.07031.28394-6.09717.41699-2.14258.1405-4.27734.27332-6.40381.40015-3.80518.22705-7.58154.43213-11.31689.6145l-.5874.02856c-3.85059.18591-7.65869.34863-11.40625.48608-.17285.00635-.34521.01013-.51758.01636-5.45068.19653-10.90674.34155-16.36621.4353-.09668.00171-.19336.00366-.29004.00525-2.82861.04773-5.65869.08215-8.48926.10376-2.83105.02161-5.66211.03052-8.49414.0271-5.66406-.00684-11.33008-.06274-16.99609-.1637-2.89062-.05151-5.78125-.11426-8.67139-.1886-2.85156-.07336-5.70264-.15771-8.55322-.25232-5.70117-.18933-11.40088-.42017-17.09619-.68835-4.27197-.20117-8.5415-.42334-12.80811-.66479-12.7998-.72437-25.57275-1.62231-38.29688-2.64697-9.19922-.74084-18.13916-1.44653-26.97363-2.27722-5.30029-.49841-10.56299-1.04175-15.82031-1.66479-4.67334-.55396-9.34229-1.17065-14.03125-1.87451-8.52441-1.27979-17.11279-2.84778-25.9043-4.8501-.6377-.14526-2.95264-.70508-6.14941-1.52527-.45654-.11719-.93115-.23962-1.42188-.36707-.43604-.11316-.88428-.23022-1.34326-.35083-1.83594-.4823-3.84473-1.02112-5.92139-1.59619-1.03809-.2876-2.09375-.58423-3.15283-.88745-.60547-.17334-1.21191-.34863-1.81738-.52563-.60547-.17712-1.20996-.35583-1.81104-.53577-.90137-.2699-1.79443-.54248-2.67188-.81616-.38574-.12036-.7666-.24097-1.14551-.36169-.38916-.1239-.77393-.24792-1.1543-.37183-.44287-.14429-.87891-.28845-1.30713-.43237-.40479-.13599-.80273-.27173-1.19336-.40698-.32861-.11389-.65381-.22754-.9707-.34082-.41113-.14661-.80811-.29224-1.19727-.43713-.17969-.06702-.35693-.13391-.53174-.20056-.28369-.10791-.56006-.21533-.8291-.3219-.40039-.15881-.78418-.3158-1.14941-.47083-.42334-.17957-.82129-.35632-1.19189-.52979-.31885-.14941-.61768-.29626-.89355-.44043-.18408-.09595-.3584-.19067-.52246-.28418-.4917-.28027-.89014-.54858-1.18115-.80237-.19385-.16907-.33984-.33167-.43311-.48694-.09375-.15527-.13477-.30298-.11963-.44263.00977-.08667.0415-.17017.0957-.25049.0542-.08008.13135-.15698.23242-.23022.97705.07178,1.99023.03906,3.01074-.01196,1.7002-.08496,3.42041-.2207,5.02295-.00806,31.03369,4.11609,61.75439,5.09326,92.66797,5.46448,12.36523.14856,24.76172.20007,37.22119.31677,6.22998.05835,12.47559.13306,18.74121.24426,5.3877.09558,10.76025.18372,16.12109.26282,10.72217.15784,21.39844.27905,32.06494.35034,5.33301.03564,10.66357.05872,15.99609.06763s10.66699.00366,16.00732-.01746c8.01123-.03162,16.03613-.099,24.09033-.20764,4.02734-.05444,8.06152-.11902,12.10498-.19482,4.04346-.07568,8.09619-.16235,12.15967-.26086,16.30713-.39514,32.63086-.71436,48.95459-1.02478,16.32373-.31055,32.64746-.61243,48.9541-.97314.16943-.00366.33936-.00671.50879-.0105l23.5874-1.95581,24.60742-2.04028c-.62891,1.91089-2.78809,3.12695-5.21582,4.00781Z"/><path class="cls-1" d="M434.24027,1808.56294c1.75439-4.02649,33.14648-32.95294,39.23926-39.11383,37.03711-37.45233,71.95117-72.49542,103.16895-115.75928,44.08154-61.09198,116.9292-177.33051,111.33008-265.80975-1.04297-16.47717-4.80273-31.99292-11.97949-46.00916-2.71582-5.30396-10.96094-14.58569-11.70898-18.40088-1.68457-8.58972,1.81592-18.22388,1.95459-27.07861l72.30664,18.07666c2.08887-5.84766,13.48193-6.22266,18.83447-5.77954,32.82568,2.71533,83.21191,19.61658,117.35156,27.35815,2.97363.67407,6.24463.01953,8.42676.51501,6.18066-5.86523,19.33984,0,25.10693,0h96.4082c7.49902,0,23.73633-3.94897,31.13184-4.01697l-107.90674-25.66052c-13.29102-11.48035-6.01221-26.22424,11.99414-24.03442,41.72412,5.07434,108.55811,21.45007,150.16357,32.60156,7.93945,2.12793,17.5293,8.48206,20.06445,9.0592,8.85303,2.01709,26.12305-6.21021,37.01855-4.26245,14.03223-13.23132,30.56543-23.82556,48.05518-30.45581,10.70703-4.05896,24.82324-7.79028,36.1665-8.02661l-3.97314-59.55066-.04834-.72156c-50.16406,5.50659-99.72998,16.26404-149.89307,21.85327-96.55127,10.75781-204.37061,9.80334-300.74219-2.04395-38.6748-4.75439-77.146-12.66992-115.76465-17.78687.6665,17.67554,3.75098,36.67188,4.00684,54.22534.17871,12.26147-3.73926,36.04382-1.95459,45.1554.74658,3.81079,8.99463,13.09949,11.70947,18.40076,7.20508,14.07043,10.96533,29.65161,11.99316,46.198,5.49268,88.44995-67.27148,204.54089-111.34424,265.62079-31.21729,43.26379-66.13184,78.30695-103.16895,115.75934-6.09229,6.16077-37.48486,35.08716-39.23926,39.11371-1.06982,2.45471.7998,2.58484,1.99707,3.95215.17236-.04474.3457-.0849.51758-.12946-1.05566-.80969-2.07715-1.28821-1.22217-3.24902Z"/><path class="cls-1" d="M472.76908,1686.83888c1.78271,1.30347,3.56738,2.60767,5.33887,3.90546,1.09619.58374,1.8916.63306,2.61426.41052.82324-.2533,1.55078-.86261,2.50195-1.50037,7.48438-5.0191,26.5791-29.03461,33.04248-37.38068,5.92236-7.64734,19.24561-23.23804,20.20947-32.04584,1.07129-9.78845-1.87256-18.56635-7.02246-26.50928-3.13379-4.83307-7.08252-9.3576-11.44678-13.61029-5.40723-5.26904-11.44727-10.1217-17.34961-14.63348-4.14307-3.16742-8.2168-6.16663-11.95654-9.02295-1.56982-1.19891-3.08252-2.3736-4.51416-3.52411,12.74951-1.65265,24.65869-1.94458,36.59912-1.12445,4.50928.30975,9.0249.77753,13.59033,1.39368,5.27881.7124,10.62402,1.61615,16.11279,2.7016,5.97754,1.18219,19.54102,7.12671,23.17188,6.95673,4.70898-.2204,14.33594-16.59839,14.93848-21.16388,1.13965-8.63593-4.00781-17.87677-12.12158-26.55585-4.48389-4.79626-9.87256-9.42114-15.60986-13.67712-2.76025-2.04773-5.60107-4.00879-8.45947-5.86389-11.20361-7.271-22.67822-12.89172-30.67969-15.54639-.4707-.15613-.93359-.30579-1.37939-.44116,14.02197-6.7959,28.82812-7.8302,43.60449-5.88818,7.94873,1.04468,15.88721,2.94812,23.69141,5.29089,9.57959,2.87585,18.95605,6.40051,27.89209,9.78821,8.73242-12.72058,2.65283-29.30298-7.53223-43.91931-8.19971-11.7677-19.06006-22.26147-27-28.43604-.91162-.70862-1.84033-1.38196-2.77588-2.04077-6.22363-4.38135-12.91162-7.79004-19.18164-11.80591-2.51562-1.61133-4.96094-3.32593-7.28223-5.24023-.43555-.35913-.87158-.7179-1.29785-1.09204,15.05371-1.2384,29.34326.25903,43.09424,3.83447,7.65771,1.99121,15.14893,4.62561,22.50977,7.79785,7.01904,3.0249,13.92139,6.53333,20.73877,10.43384,2.76123-14.44312,4.00537-33.19141-1.6543-48.03027-2.20801-5.78882-5.47119-10.97754-10.104-15.08691-.9502-.84253-1.94678-1.64844-3.01514-2.39575-16.86963-11.80139-36.88135-14.67529-56.83496-12.17847-5.4043.67627-10.8042,1.74329-16.13672,3.13745-11.65625,3.04773-22.98779,7.64282-33.33252,13.04785-3.91748,2.04688-7.69434,4.20923-11.29248,6.44849-60.64404,37.74194-100.54736,113.66577-118.10107,181.16772-2.87646,11.06281-12.81006,50.69495-10.21143,59.26611,1.1416,3.76593,35.84424,35.48132,41.74854,40.6178,14.78125,12.85883,30.89697,24.92133,46.89697,36.65869,2.67236,1.96027,5.3374,3.91217,7.99609,5.85626Z"/><path class="cls-1" d="M392.56205,1206.98176c30.70361,27.46448,66.1123,51.44287,106.8252,74.56384,5.09521,2.89355,10.27002,5.77429,15.53223,8.64636,3.43018,1.87195,11.06689,8.85864,12.70361,9.17261.06836.01318.15479.01099.22754.02051,4.09473.53589,14.60303-4.58643,19.79443-5.38416,27.38721-4.20813,55.50244-3.00818,81.13379,7.84167-.15332-28.10547,1.57031-56.56982-4.89355-84.15088-.02002-.08569-.03613-.17188-.05615-.25745-.73291-.09692-1.46875-.20251-2.20654-.31213-7.97998-1.18677-16.20068-3.12231-24.12207-5.87927-11.06396-3.85059-21.53809-9.30383-29.95312-16.54883-12.82031-11.03857-20.85547-26.23743-18.87158-46.28625,1.87549-18.94946,9.8252-30.85693,21.04541-38.69019.5957-.41577,1.19922-.82129,1.81299-1.2146,5.84814-3.74792,12.49414-6.49463,19.58203-8.6167,6.85254-2.05151,14.11377-3.52271,21.45996-4.75757,15.82959-2.66101,32.0459-4.22998,45.37891-8.16357,25.55518-7.53931,46.39502-21.33691,65.07568-38.08228,32.05518-28.73462,57.74805-66.15723,89.90771-95.6571,25.70215-23.57666,55.53662-42.09058,96.07861-47.02917,57.05225-6.94958,96.3208,5.91589,127.94336,27.7334,38.89062,26.83167,66.21826,67.20288,100.82373,100.92529,27.72168,27.0144,60.11475,49.76123,106.87207,57.8551.36475.06311.72119.1189,1.08203.1781,9.30225,1.52734,17.15723,1.7738,24.65527,2.72412,7.8667.99707,15.34717,2.7749,23.71484,7.64026,2.37549,1.3811,4.82227,3.01074,7.36963,4.94214,50.15625,38.02698,15.10303,101.48303-39.89453,105.36584l3.8999,63.19092c.23096,1.29626,1.00195,2.31116,2.13232,3.12793.75195.5437,1.66162,1.00024,2.68799,1.3877,2.3623.89246,5.31787,1.43213,8.2666,1.89197,3.29395.51367,6.57666.92908,9.00439,1.62878,15.11523,4.35596,29.6333,11.84302,44.7002,14.72827,246.27344-82.46704,327.44971-360.35693,270.91504-595.46753-42.8125-178.04517-162.91846-323.2229-322.37207-407.98315-.68799-.3645-1.37158-.73486-2.06152-1.09717-1.19629-.63086-2.40137-1.24902-3.60254-1.87305-2.17432-1.12598-4.34961-2.25049-6.53955-3.35522-.32324-.16357-.64795-.32568-.97168-.48877-6.89111-3.47314-13.84375-6.84766-20.87158-10.09619-96.77002-44.73022-206.29102-72.83594-313.65234-67.98462-.34131.01538-.68311.02246-1.02393.03857-2.27441-2.01782,9.98145-13.27954,12.01709-15.07739,20.72363-18.30176,49.78564-30.39429,76.33936-37.15479,4.00195-5.20654-20.55469-18.64038-28.31592-22.2417-.81934-.38037-1.45459-.65283-1.84619-.79248-23.04443-8.22437-50.28809-7.24292-73.9165-1.69482-36.86133,8.65503-69.30518,35.29004-72.68311,74.96265-.2124.2605-.56885.30298-1.02246.19409-5.20508-1.24829-24.85107-24.8999-26.73535-27.64966-4.87549-7.1167-18.41748-32.39624-18.41748-39.82935v-31.13184c-42.96729,18.05176-60.50732,65.38501-30.95801,104.26855,2.10303,2.76733,17.41748,16.05908,14.87988,18.24048-90.05957,10.10034-171.26807,54.65967-243.65723,106.8291-216.55469,156.06714-358.66553,418.8313-262.51367,687.58411,27.80176,77.70813,65.97705,133.35913,117.29688,179.2655ZM1569.07181,675.7602c1.30469.66956,1.30469,1.33899,0,2.00842v-2.00842ZM1108.11771,790.2458c6.43848-32.63855,25.30176-68.36047,48.20459-92.39197,89.47217-93.88049,243.74609-67.41309,299.26855,48.20459,18.40088,38.31665,23.81299,78.48877,16.06836,120.51086-3.6333,19.71277-13.22607,42.36292-24.05957,59.27332,14.56055-.01892,28.28369-9.17896,41.17188-13.04773,2.80908-.84326,3.57031.20813,2.95605,2.95618-18.54248,20.65454-38.98438,43.94214-62.24707,59.27832-81.06543,53.44116-193.88477,60.51453-267.13281-10.0426-18.6167-17.93323-42.04736-52.52307-50.21289-76.32385-9.88818-28.82178-9.87207-68.73743-4.01709-98.41711ZM416.25394,910.68684c-10.80615-24.67542-16.39502-49.34827-17.1416-76.25378-.87109-31.36072,8.4375-71.04626,24.10205-98.41711,71.73291-125.3396,259.04004-121.82959,325.37939,6.02551,15.34521,29.57507,21.36914,65.31653,20.08496,98.41711-1.12598,29.02661-11.04932,65.3219-26.11084,90.38354-8.04053,13.37891-29.01904,36.0144-41.23438,46.13586-19.38477,16.06189-42.66211,25.7124-65.21631,36.21301-8.45117-1.38538-30.42627,5.38818-41.19678,6.00537-41.63428,2.3855-100.71338-13.14331-136.90088-33.78088-8.52783-4.86389-25.35596-19.10486-32.79688-20.42871l-28.12256-27.11133-16.02246-22.11926,44.13281,13.06885c.81543-.80469-7.67578-15.21411-8.95654-18.13818Z"/><path class="cls-1" d="M460.07377,1334.97407c-20.86279-10.43347-40.30469-23.28479-59.09375-36.89478-.65723-.47595-1.31543-.95056-1.97119-1.42834-.21924-.15967-.43408-.32373-.65283-.48376-17.28809-12.64209-33.59961-26.22693-48.92578-40.64185-.76807-.7262-1.53906-1.44836-2.30273-2.17957-.31152-.29785-.61328-.6062-.92383-.90503-128.39111-122.87097-185.78711-304.87939-159.03516-483.61511.49902-3.33459,1.09912-6.68542,1.76123-10.04407,2.96973-15.06323,7.21973-30.28687,9.55273-44.93848.25537-1.60217,1.3252-4.73706.31201-5.99585-.33643-.41748-.90088-.62903-1.80078-.50928-.05908.14233-.11475.28564-.17383.42798-1.4458,3.48767-2.85693,6.9856-4.25146,10.48828-49.60596,124.59448-66.771,258.51318-53.21484,389.05103,15.32031,147.52954,69.87158,290.73462,161.26172,411.24902,2.77002,3.65247,30.70947,40.01984,32.90771,38.36591.04346-.20245.09131-.40399.13477-.60645,18.32373-85.10345,57.8999-165.96747,126.41602-221.33966Z"/><path class="cls-1" d="M278.31547,2214.98542c-46.75098,0-74.49316,41.09961-74.49316,96.07031,0,50.34766,24.65967,91.96094,73.46582,91.96094,30.31104,0,58.05371-20.03613,66.27344-53.94336,1.5415-6.16504,2.05518-12.33008,2.05518-19.52246v-43.1543c0-5.65137-.51367-13.35742-2.05518-19.00879-6.67871-28.77051-31.33838-52.40234-65.24609-52.40234Z"/><path class="cls-1" d="M1606.33304,2214.98542c-43.1543,0-73.97949,36.47559-73.97949,94.01562,0,48.80566,24.66016,89.39258,73.46582,89.39258,27.74219,0,52.91602-17.46777,62.67773-46.2373,2.56836-7.70703,3.5957-16.44043,3.5957-24.14648v-44.69629c0-7.70605-.51367-14.38477-2.56836-20.5498-8.21973-26.20117-30.31152-47.77832-63.19141-47.77832Z"/><path class="cls-1" d="M570.12113,2213.44343c-53.42969,0-76.54834,49.32031-76.54834,96.58496,0,54.45703,31.33838,95.55762,75.521,95.55762,43.15479,0,75.521-40.58594,75.521-96.58496,0-42.12695-21.06396-95.55762-74.49365-95.55762Z"/><path class="cls-1" d="M1680.09476,704.5467c-7.71436-18.98901-15.11816-35.62231-17.83203-37.30518-.03613-.02246-.0752-.05518-.10986-.07227-3.67139-1.81946-3.02295,1.64746-2.22021,4.22949,17.82959,57.35303,25.98779,120.25488,25.34229,183.06079-.0542,5.25183-.16406,10.5022-.34082,15.74927-1.31787,39.08069-6.01758,77.94104-13.93213,115.21729-2.31787,10.91602-4.91064,21.69507-7.77197,32.30505-.98975,3.67017-2.00879,7.3219-3.06299,10.94995-38.38086,132.1062-126.39941,252.60352-254.05811,309.34094l39.09082,28.15454c59.14258,48.94055,86.69775,107.90601,98.06299,183.1311.10547.69794.19434,1.85266.34277,3.12097.2998,2.5672.85498,5.59009,2.30371,6.31311.17676.0882.36719.14093.57178.15497.06201.00427.11865.02429.18311.02112.38574-.56818.78271-1.13116,1.17432-1.69666,11.80566-17.04828,26.31982-32.90887,38.65039-49.87689,11.77637-16.20544,22.87695-32.71985,33.33154-49.50122,1.34912-2.16602,2.68213-4.3385,4.00977-6.51343,25.70117-42.11523,47.27246-85.91211,64.69775-130.9436,21.18213-54.74036,36.24561-111.29749,45.15674-168.86462,19.78857-127.83728,9.27832-260.63635-31.80957-389.49353-2.08691-6.5459-12.17188-33.83081-21.78027-57.4812Z"/><path class="cls-1" d="M1227.56937,1637.02174c-12.67041,6.06616-24.646,13.6347-36.64893,21.16577-7.42822,4.66101-14.86719,9.30646-22.48975,13.56842-107.08105,59.875-224.29492,99.65021-344.76416,123.21979-19.74854,3.86377-40.86768,5.55035-60.32324,9.9964-2.22559.50861-6.49414.0061-5.98926,2.9967,36.33154-.5343,72.58008-.42603,108.78125.42834,17.3501.40948,34.68896.99487,52.021,1.76721,37.80127,1.68439,75.56885,4.25116,113.34082,7.87646,32.70312,3.13879,65.21533,9.13849,97.98975,11.67633,33.19922-25.15723,58.07227-59.09814,75.18311-96.86603,2.64404-5.83569,5.104-11.76056,7.37842-17.76123,9.70215-25.59808,16.07227-52.5246,19.2373-79.37817.01758-.1485.03906-.297.05615-.4455-.31885.14319-.63281.29718-.95068.44238-.94385.43103-1.88623.86499-2.82178,1.31311Z"/><path class="cls-1" d="M1020.32572,1589.93171c-2.88916,15.06409-3.45654,30.33179-6.87598,45.34576-7.42725,32.61292-25.20166,61.65759-47.22021,86.32526.78174-.19745,1.56641-.41803,2.34912-.62396,21.52832-24.40912,38.85596-53.03961,46.16357-85.12769,3.41943-15.01392,3.98682-30.28168,6.87549-45.34564,39.23486-5.40466,79.81396-10.8446,119.62012-8.88422,13.19336.64978,45.5332,3.14697,57.24072,6.85516-.45264-.24701-.84961-.43402-1.15674-.53278-11.59717-3.7309-44.13428-6.24384-57.37646-6.896-39.80615-1.96045-80.38574,3.47961-119.61963,8.88409Z"/><path class="cls-1" d="M1489.87406,1522.35383c-1.53076-5.97852-3.30615-11.82947-5.28857-17.56543-16.66309-48.21692-48.92383-87.77551-91.08936-117.03589-14.81689-10.28198-38.521-23.88647-63.77441-35.53589-7.43408-3.42944-15.00146-6.69019-22.51758-9.64575-24.23047-9.52808-47.9126-15.89392-64.77588-14.58105-41.43994,3.22656-77.37646,31.97974-88.39209,69.31226-4.70068,15.92969-4.86719,33.42017,1.01807,51.1582.29102-.26392.58545-.52637.87793-.78955,20.95068-18.86353,45.20215-36.10889,74.26221-38.30322.37305-.02832.74365-.06519,1.11865-.08838-20.38135,15.73975-58.10498,67.1217-47.11523,93.375,1.94678,4.65161,4.6001,6.64551,7.63574,6.98718,8.22217.92542,19.27295-10.37354,26.86963-14.57544,19.33984-10.69775,38.34229-16.74084,60.854-14.44446-.21777.18347-.4458.37671-.66699.56396-17.23291,14.56079-46.1875,40.07739-49.2085,63.22559-1.0166,7.79028,10.33789,16.58112,18.09912,23.51251,1.26025,1.12555,2.42383,2.20184,3.42627,3.21704.56006.56732,1.0752,1.11786,1.52148,1.64471.07275-.04688.14697-.09259.22021-.13934,11.53662-7.37708,23.90283-13.76648,36.82373-18.56049.71826-.26642,1.4375-.52942,2.15918-.78589,13.47266-4.78876,27.52588-7.82172,41.85547-8.4054-.14502.1817-.29541.36414-.44189.54602-15.64355,19.41467-38.41602,39.80188-34.2666,67.22461,29.4126,25.14246,59.00293,51.06683,89.54932,74.48016,2.67871,2.05316,5.36182,4.09406,8.05566,6.10626,10.8999-7.66193,51.37598-37.7254,77.89502-61.00879,6.76465-5.93927,12.61572-11.43396,16.84082-16.00616,4.0332-4.36481,6.59033-7.89148,7.02148-10.1474,3.04102-15.8985-2.31396-54.97437-6.91846-76.60535-.56641-2.66064-1.12207-5.073-1.64844-7.12964Z"/><path class="cls-3" d="M1162.34769,964.98676c73.24805,70.55713,186.06738,63.48376,267.13281,10.0426,23.2627-15.33618,43.70459-38.62378,62.24707-59.27832.61426-2.74805-.14697-3.79944-2.95605-2.95618-12.88818,3.86877-26.61133,13.02881-41.17188,13.04773,10.8335-16.9104,20.42627-39.56055,24.05957-59.27332,7.74463-42.02209,2.33252-82.19421-16.06836-120.51086-55.52246-115.61768-209.79639-142.08508-299.26855-48.20459-22.90283,24.03149-41.76611,59.75342-48.20459,92.39197-5.85498,29.67969-5.87109,69.59534,4.01709,98.41711,8.16553,23.80078,31.59619,58.39062,50.21289,76.32385ZM1226.12748,706.41706c78.55908-10.24255,88.52588,112.82947,11.49902,117.97571-73.80322,4.93066-84.32227-108.48096-11.49902-117.97571ZM1212.6309,963.91218c94.93359,39.05835,202.17578-11.64636,224.32861-112.96143l4.54883-26.5481c26.7002,157.54688-170.52148,229.32715-271.12646,118.5105,15.18359,4.44397,27.54883,14.95056,42.24902,20.99902Z"/><path class="cls-2" d="M1569.07181,675.7602v2.00842c1.30469-.66943,1.30469-1.33887,0-2.00842Z"/><path class="cls-3" d="M742.08597,1398.30366l68.81348,16.36011,252.59766,60.05408c13.94385,4.48828,22.30957-14.29712,13.96973-23.1604-3.18311-3.38257-18.17578-6.13037-23.55127-7.56787-27.92969-7.46973-56.05371-14.30322-84.26562-20.85107-74.32471-17.25049-149.27686-32.45288-223.02783-51.59644-16.98779-1.30518-19.81055,21.90137-4.53613,26.7616Z"/><path class="cls-3" d="M874.73734,1336.0467c-34.13965-7.74158-84.52588-24.64282-117.35156-27.35815-5.35254-.44312-16.74561-.06812-18.83447,5.77954-2.21777,6.20801,1.36035,18.79321,9.55859,19.56482l323.13379,74.73645c18.1167,1.18091,20.80518-21,4.77832-27.05664-64.67139-13.27783-128.55225-30.54822-192.85791-45.151-2.18213-.49548-5.45312.15906-8.42676-.51501Z"/><path class="cls-3" d="M696.36527,1570.56117l226.27734,53.08618c17.31201,1.32593,21.02246-21.95667,4.31787-26.59186l-224.08301-53.11005c-3.68701-.83087-7.38232-.91791-11.0835-.0907-15.17285,3.39307-11.25195,26.17993,4.57129,26.70642Z"/><path class="cls-3" d="M716.81498,1505.92402l221.80664,51.37286c20.46094,4.79419,30.20166-17.55853,9.76904-25.85907l-223.42773-51.7854c-3.00977-.69019-6.04736-1.01282-9.06982-.11328-12.50244,3.72119-12.61475,23.40649.92188,26.38489Z"/><path class="cls-3" d="M939.89847,1282.8498c-18.00635-2.18982-25.28516,12.55408-11.99414,24.03442l107.90674,25.66052c18.65625-.17163,46.14844,12.99561,61.17334,11.96985,9.55664-.65222,15.38037-11.06677,13.14209-20.00403-2.53516-.57715-12.125-6.93127-20.06445-9.0592-41.60547-11.15149-108.43945-27.52722-150.16357-32.60156Z"/><path class="cls-3" d="M830.41947,1648.39204c-1.66406-1.76624-7.91553-3.48022-10.65332-4.40265-44.75928-15.08087-97.20605-21.63245-142.72412-36.1073-19.53906-3.39301-27.47559,18.35132-7.86523,26.02087,43.94629,17.18719,103.45605,21.61084,148.99414,37.98163,13.24512,2.82312,19.9458-15.32159,12.24854-23.49255Z"/><path class="cls-3" d="M381.07767,915.75617l16.02246,22.11926,28.12256,27.11133c7.44092,1.32385,24.26904,15.56482,32.79688,20.42871,36.1875,20.63757,95.2666,36.16638,136.90088,33.78088,10.77051-.61719,32.74561-7.39075,41.19678-6.00537,22.5542-10.50061,45.83154-20.15112,65.21631-36.21301,12.21533-10.12146,33.19385-32.75696,41.23438-46.13586,15.06152-25.06165,24.98486-61.35693,26.11084-90.38354,1.28418-33.10059-4.73975-68.84204-20.08496-98.41711-66.33936-127.8551-253.64648-131.36511-325.37939-6.02551-15.66455,27.37085-24.97314,67.0564-24.10205,98.41711.74658,26.90552,6.33545,51.57837,17.1416,76.25378,1.28076,2.92407,9.77197,17.3335,8.95654,18.13818l-44.13281-13.06885ZM521.11332,708.38105c89.62695-14.30969,93.25928,128.74402-.30957,115.83435-58.98438-8.13806-60.96582-106.05127.30957-115.83435ZM431.2681,832.43403c2.89209-.47058,2.80176,3.53735,3.38428,5.60474,2.68115,9.521,3.73682,19.92285,6.76172,29.41174,29.38525,92.18115,134.74463,134.03247,222.16455,95.87427,6.5625.12866,41.07715-26.17651,42.82568-24.43896,2.18408,2.17017-2.92676,5.58984-4.1958,6.83057-8.33887,8.15063-20.29248,17.74683-30.10791,24.12183-108.87988,70.71155-256.625-3.53406-240.83252-137.40417Z"/><path class="cls-3" d="M1034.89213,1046.74397c-.50195.23755-1.00439.49573-1.50732.77502s-1.00537.57971-1.5083.90186c-.7417.47522-1.45508,1.0636-2.13623,1.74536-.22705.22717-.4502.46472-.66992.71204-.29297.32959-.5791.67627-.8584,1.03833-.48877.63354-.95361,1.31787-1.39746,2.03601-.34277.55457-.67188,1.13098-.98633,1.7262-.20947.39575-.41406.79663-.61035,1.20728-.14502.30457-.28662.61279-.42432.92432-.55127,1.24573-1.0415,2.54248-1.46436,3.85718-.10547.32861-.20703.65833-.3042.98877-.2915.99097-.54443,1.9873-.75586,2.9751-.07031.32922-.13623.65747-.19727.98438-.3667,1.96069-.56396,3.86792-.56982,5.60974-.00098.32239.00586.63733.01807.94763.02148.55518.07275,1.08142.13721,1.59229.02979.23193.05518.46826.09424.6897.00293.01648.01318.04688.01855.06775.00977.03918.01709.0741.03516.12769.00684.02075.01904.05164.02686.07446.03369.09595.07715.21057.12939.34119.08301.20703.18359.44629.30811.729.05762.13135.11963.26965.18555.41577.2627.58081.58398,1.26697.95264,2.0343.29834.62183.62598,1.2926.97168,1.99255.4541.91858.94043,1.88721,1.43555,2.86108,2.14697,4.21973,4.46875,8.53516,5.11963,9.28662,2.71777,3.13623,6.73535,5.75488,11.22119,7.48682.64111.24731,1.2915.47656,1.94922.68677,3.15625,1.00867,6.47656,1.57544,9.69336,1.5813.0083,0,.0166-.00049.02539-.00049,1.55615.00134,3.08691-.13232,4.56396-.40723.15186-.02832.30273-.05933.45361-.0907.65137-.13562,1.2915-.29968,1.91748-.49377,1.87793-.58228,3.62891-1.43384,5.17969-2.59119,1.09473-.81677,2.07471-1.70789,2.94727-2.66199.375-.41016.72461-.83508,1.06055-1.26782.55566-.71631,1.05615-1.46289,1.50684-2.23523.27783-.47668.53662-.96252.77539-1.45813.11523-.23877.22656-.47925.33301-.72217.2876-.65759.55029-1.32666.77441-2.0116.52637-1.6095.87988-3.28906,1.07324-5.01331.05469-.48499.09619-.97339.12549-1.46484.05859-.98291.06787-1.97766.02979-2.97974-.01904-.50098-.0498-1.00391-.09229-1.50793-.05615-.67212-.1333-1.34656-.22998-2.02185-.38672-2.70117-1.09033-5.41675-2.06689-8.06055-.36621-.99146-.771-1.97266-1.21143-2.93945-.44043-.96667-.91748-1.9187-1.42773-2.85168-.51074-.93298-1.05469-1.84668-1.63037-2.73669-.57617-.89014-1.18311-1.75635-1.81934-2.59448-.56592-.74487-1.15479-1.46765-1.76465-2.16479-.61035-.69714-1.2417-1.36877-1.89307-2.01172s-1.32275-1.2572-2.01221-1.8396c-1.72314-1.45581-3.56055-2.71252-5.48584-3.72009-.77051-.40295-1.55469-.76624-2.35156-1.0863-1.19531-.48022-2.41895-.86353-3.66504-1.13928-.77686-.17175-1.56299-.29761-2.35596-.38318-.08301-.00903-.16553-.01929-.24854-.02734-2.52246-.24243-5.11865-.03687-7.74707.70435-.88574.24976-1.77539.56018-2.6665.93433-.33447.14038-.66895.28955-1.00391.448Z"/><path class="cls-3" d="M806.84037,1087.50605c.22852.67566.48877,1.32727.76562,1.96582.25195.58069.51562,1.15149.80469,1.70105.20215.38452.41309.76123.63232,1.13025.29248.49207.59961.97009.91992,1.43408.62012.89697,1.2876,1.74353,2.00977,2.52454.06152.06641.1167.14062.17871.2063,1.43994,1.51929,3.06689,2.80298,4.84082,3.81665,1.06396.60815,2.18115,1.1189,3.34229,1.52515,1.23877.43335,2.52734.74731,3.85596.93335.66406.09302,1.33838.15393,2.021.18176,1.02393.04163,2.06738.00867,3.12549-.10266,1.05859-.11145,2.13135-.30139,3.21484-.57349,1.5874-.39844,13.87939-6.16162,14.45898-6.70874.23145-.21863.47119-.47925.71631-.77393.04297-.05151.08643-.10791.12988-.16162.40332-.50122.82129-1.09595,1.24756-1.76514.16846-.26465.3374-.53979.50781-.82666.0791-.13269.15771-.2666.23682-.40381.21826-.37793.43701-.77063.65576-1.17847.38721-.72144.77344-1.48621,1.1543-2.28003.09668-.20129.19287-.40405.28857-.60889.30078-.64307.59717-1.30176.88623-1.97083.12598-.29138.25049-.58411.37354-.87854.32861-.78613.646-1.5813.94873-2.37476.50684-1.33008.95654-2.64331,1.35791-3.91333.31641-1.00244.6084-1.98242.8374-2.89111.09961-.39551.18994-.77954.27051-1.15063.07031-.32495.13037-.63599.18506-.93909.13184-.73523.21826-1.40588.24609-1.98535.23828-4.95569-.60693-9.31628-2.23633-13.00403-.32617-.73755-.68311-1.44812-1.06982-2.13123-.38623-.68298-.80127-1.33862-1.24316-1.96594-.44189-.62744-.91064-1.22668-1.40332-1.79712-1.05078-1.21704-2.2124-2.30298-3.46045-3.25171-.93652-.71167-1.92188-1.34631-2.94629-1.90125-.68262-.37-1.3833-.70447-2.09766-1.00281-1.07227-.44775-2.17725-.81396-3.30518-1.09631-1.87939-.47058-3.82275-.70813-5.78418-.70081-.66846.00244-1.33936.04077-2.01074.10059-1.12842.10083-2.25781.276-3.37988.5426-1.19238.28333-2.37646.66174-3.5415,1.13782-1.16553.47607-2.31152,1.0498-3.42871,1.72388-.55859.33691-1.10986.6991-1.65283,1.08667-.81396.5813-1.60889,1.21973-2.37988,1.9165-.77148.6969-1.51904,1.4519-2.23877,2.2666-.60254.68201-1.17529,1.41602-1.7334,2.172-2.48633,3.36804-4.51514,7.40637-5.85596,11.69458-.28613.91589-.52979,1.8446-.75195,2.77795-.29492,1.23743-.5332,2.48462-.70654,3.73486-.12451.89551-.22559,1.79114-.28369,2.6842-.0498.77002-.07422,1.53772-.07227,2.30078.00439,1.67542.15088,3.32361.42285,4.92883.22363,1.31909.52783,2.61084.94678,3.85144Z"/><path class="cls-3" d="M390.8267,2069.08113h-45.20996v148.47266h-1.02734c-11.30273-20.03613-36.99023-38.01758-75.00732-38.01758-60.62256,0-111.99707,50.86133-111.4834,133.5752,0,75.52051,46.2373,126.38184,106.3457,126.38184,40.58643,0,70.89746-21.06348,84.76855-48.80664h1.02734l2.05518,43.15527h40.58594c-1.54102-16.9541-2.05469-42.12695-2.05469-64.21875v-300.54199ZM345.61673,2329.55085c0,7.19238-.51367,13.35742-2.05518,19.52246-8.21973,33.90723-35.9624,53.94336-66.27344,53.94336-48.80615,0-73.46582-41.61328-73.46582-91.96094,0-54.9707,27.74219-96.07031,74.49316-96.07031,33.90771,0,58.56738,23.63184,65.24609,52.40234,1.5415,5.65137,2.05518,13.35742,2.05518,19.00879v43.1543Z"/><path class="cls-3" d="M571.14847,2179.5362c-68.8418,0-123.29932,48.80664-123.29932,132.0332,0,78.60352,51.88867,127.92383,119.18945,127.92383,60.1084,0,123.81348-40.07227,123.81348-132.0332,0-76.03516-48.29248-127.92383-119.70361-127.92383ZM569.09379,2405.58601c-44.18262,0-75.521-41.10059-75.521-95.55762,0-47.26465,23.11865-96.58496,76.54834-96.58496s74.49365,53.43066,74.49365,95.55762c0,55.99902-32.36621,96.58496-75.521,96.58496Z"/><path class="cls-3" d="M863.46879,2216.01277c24.65967,0,41.61328,5.65137,52.40234,11.81641l10.2749-34.93555c-12.33008-6.16504-35.9624-12.84375-62.67725-12.84375-81.17236,0-133.57471,55.48535-133.57471,132.0332,0,76.03516,48.80615,126.89648,123.81348,126.89648,33.39355,0,59.59473-8.21973,71.41064-14.38477l-7.70605-33.9082c-12.84375,5.65137-29.79736,12.33008-55.48486,12.33008-49.31982,0-86.30957-35.44824-86.30957-92.98828,0-51.88867,30.82471-94.01562,87.85107-94.01562Z"/><rect class="cls-3" x="978.03226" y="2069.08113" width="45.20996" height="364.76074"/><rect class="cls-3" x="1099.2725" y="2185.18757" width="45.20996" height="248.6543"/><path class="cls-3" d="M1121.87699,2087.06159c-16.43945,0-28.25586,12.33008-28.25586,28.25684,0,15.41211,11.30273,27.74219,27.22852,27.74219,17.98145,0,29.2832-12.33008,28.76953-27.74219,0-15.92676-10.78809-28.25684-27.74219-28.25684Z"/><path class="cls-3" d="M1343.29984,2179.5362c-41.10059,0-69.87012,23.11914-82.2002,46.75098h-1.02734l-2.56934-41.09961h-40.07227c1.54199,20.5498,2.05566,41.61426,2.05566,67.30078v181.35352h45.20996v-149.50098c0-7.70605,1.02734-15.41211,3.08203-21.06348,7.70605-25.17383,30.8252-46.2373,60.62207-46.2373,42.6416,0,57.54004,33.39355,57.54004,73.46582v143.33594h45.20996v-148.47363c0-85.28223-53.42969-105.83203-87.85059-105.83203Z"/><path class="cls-3" d="M1677.2305,2222.69148h-1.02734c-10.78906-20.5498-34.4209-43.15527-77.57617-43.15527-57.02637,0-111.99707,47.7793-111.99707,132.0332,0,68.84277,44.18262,121.24512,105.83203,121.24512,38.53125,0,65.24609-18.49512,79.11719-41.61328h1.02734v27.74219c0,62.67676-33.90723,86.82324-80.14453,86.82324-30.8252,0-56.5127-9.24707-72.95215-19.52246l-11.30273,34.4209c20.03613,13.35742,52.91602,20.5498,82.71387,20.5498,31.33887,0,66.27344-7.19238,90.41992-29.79688,24.14551-21.57715,35.44824-56.5127,35.44824-113.53809v-144.36328c0-30.31152,1.02734-50.34766,2.05469-68.3291h-39.55859l-2.05469,37.50391ZM1672.09281,2328.00984c0,7.70605-1.02734,16.43945-3.5957,24.14648-9.76172,28.76953-34.93555,46.2373-62.67773,46.2373-48.80566,0-73.46582-40.58691-73.46582-89.39258,0-57.54004,30.8252-94.01562,73.97949-94.01562,32.87988,0,54.97168,21.57715,63.19141,47.77832,2.05469,6.16504,2.56836,12.84375,2.56836,20.5498v44.69629Z"/><path class="cls-3" d="M1104.10062,1145.753c-.16943.00378-.33936.00684-.50879.0105-16.30664.36072-32.63037.6626-48.9541.97314-16.32373.31042-32.64746.62964-48.95459,1.02478-4.06348.09851-8.11621.18518-12.15967.26086-4.04346.07581-8.07764.14038-12.10498.19482-8.0542.10864-16.0791.17603-24.09033.20764-5.34033.02112-10.6748.02637-16.00732.01746s-10.66309-.03198-15.99609-.06763c-10.6665-.07129-21.34277-.1925-32.06494-.35034-5.36084-.0791-10.7334-.16724-16.12109-.26282-6.26562-.11121-12.51123-.18591-18.74121-.24426-12.45947-.1167-24.85596-.16821-37.22119-.31677-30.91357-.37122-61.63428-1.34839-92.66797-5.46448-1.60254-.21265-3.32275-.0769-5.02295.00806-1.02051.05103-2.03369.08374-3.01074.01196-.10107.07324-.17822.15015-.23242.23022-.0542.08032-.08594.16382-.0957.25049-.01514.13965.02588.28735.11963.44263.09326.15527.23926.31787.43311.48694.29102.25378.68945.52209,1.18115.80237.16406.09351.33838.18823.52246.28418.27588.14417.57471.29102.89355.44043.37061.17346.76855.35022,1.19189.52979.36523.15503.74902.31201,1.14941.47083.26904.10657.54541.21399.8291.3219.1748.06665.35205.13354.53174.20056.38916.1449.78613.29053,1.19727.43713.31689.11328.64209.22693.9707.34082.39062.13525.78857.271,1.19336.40698.42822.14392.86426.28809,1.30713.43237.38037.1239.76514.24792,1.1543.37183.37891.12073.75977.24133,1.14551.36169.87744.27368,1.77051.54626,2.67188.81616.60107.17993,1.20557.35864,1.81104.53577.60547.177,1.21191.35229,1.81738.52563,1.05908.30322,2.11475.59985,3.15283.88745,2.07666.57507,4.08545,1.11389,5.92139,1.59619.45898.12061.90723.23767,1.34326.35083.49072.12744.96533.24988,1.42188.36707,3.19678.82019,5.51172,1.38,6.14941,1.52527,8.7915,2.00232,17.37988,3.57031,25.9043,4.8501,4.68896.70386,9.35791,1.32056,14.03125,1.87451,5.25732.62305,10.52002,1.16638,15.82031,1.66479,8.83447.83069,17.77441,1.53638,26.97363,2.27722,12.72412,1.02466,25.49707,1.92261,38.29688,2.64697,4.2666.24146,8.53613.46362,12.80811.66479,5.69531.26819,11.39502.49902,17.09619.68835,2.85059.0946,5.70166.17896,8.55322.25232,2.89014.07434,5.78076.13708,8.67139.1886,5.66602.10095,11.33203.15686,16.99609.1637,2.83203.00342,5.66309-.00549,8.49414-.0271,2.83057-.02161,5.66064-.05603,8.48926-.10376.09668-.00159.19336-.00354.29004-.00525,5.45947-.09375,10.91553-.23877,16.36621-.4353.17236-.00623.34473-.01001.51758-.01636,3.74756-.13745,7.55566-.30017,11.40625-.48608l.5874-.02856c3.73535-.18237,7.51172-.38745,11.31689-.6145,2.12646-.12683,4.26123-.25964,6.40381-.40015,2.02686-.13306,4.05957-.27197,6.09717-.41699,4.07471-.29016,8.1665-.60437,12.26123-.94202,3.92383-.32361,7.84961-.67004,11.76562-1.03625,2.21387-.20703,4.4248-.41968,6.62988-.64014,5.0874-.50879,10.14551-1.05286,15.14502-1.63147,4.99951-.57849,9.94092-1.19153,14.79541-1.83777,3.26855-.4353,6.56348-.89819,9.87207-1.38977,7.20654-1.07068,14.48047-2.29016,21.71631-3.71765,1.79346-.35388,3.58545-.7168,5.37256-1.09729.49414-.1051.9873-.21179,1.48047-.31897,3.9873-.86743,7.95215-1.8031,11.875-2.82129,1.30762-.33936,2.61084-.68799,3.9082-1.04614,2.71875-.75049,5.41455-1.54224,8.08057-2.37915,1.33252-.41833,2.6582-.84802,3.97559-1.28943.31934-.10681.67334-.21301,1.05371-.32043.38086-.10767.78809-.21667,1.21387-.32959.56738-.15063,1.16748-.30811,1.78027-.47815s1.23828-.35254,1.85693-.55322c.30957-.10034.61719-.2052.9209-.31531,2.42773-.88086,4.58691-2.09692,5.21582-4.00781l-24.60742,2.04028-23.5874,1.95581Z"/><path class="cls-3" d="M834.21781,1013.50373c.35498-.00244.75586-.05298,1.1958-.14551.66016-.13892,1.4082-.37207,2.22217-.67969.81348-.30762,1.69336-.68933,2.61621-1.125.30762-.14526.62012-.29651.93652-.45288.63281-.31299,1.28174-.64697,1.93994-.99585,1.31641-.69775,2.67041-1.45532,4.00879-2.22485.33447-.19238.66797-.3855,1-.57861.99561-.5791,1.97461-1.15833,2.91504-1.71704.94092-.55872,1.84277-1.09705,2.68408-1.59473.56104-.33179,1.09473-.64551,1.59473-.93506.35986-.20837.69482-.39905,1.01709-.58032.20459-.11487.40137-.22363.58887-.32617.26904-.14697.52002-.28015.75195-.39868.23779-.12158.4624-.23315.65674-.32141,3.29883-1.49622,6.58301-2.90051,9.85498-4.21362s6.53174-2.53503,9.78125-3.6665,6.48877-2.17224,9.72021-3.12317c3.23096-.95093,6.4541-1.81177,9.67139-2.5835,3.21729-.77148,6.42822-1.45386,9.63574-2.04736,3.20703-.59351,6.41064-1.09827,9.6123-1.51501,3.20166-.41663,6.40137-.74524,9.60156-.98645,3.2002-.24097,6.40088-.39453,9.60352-.4613,1.60156-.03333,3.20361-.04504,4.80664-.03503,1.67432.0105,3.34961.04736,5.02637.10498,3.13867.10791,6.28174.29541,9.43115.56763,3.22119.27832,6.44922.64246,9.68555,1.09155,3.23682.44922,6.48193.9834,9.73828,1.60193s6.52344,1.32166,9.80322,2.10852c1.64014.39331,3.2832.80774,4.93018,1.24304,6.17529,1.6322,12.3999,3.55811,18.68799,5.77356,2.0957.73853,4.19873,1.50916,6.30957,2.31189.38574.14685.81152.32214,1.27002.521.30518.13257.62549.27551.9585.42737s.67871.31274,1.03564.48071c.35645.16821.72363.34363,1.09961.5249.37598.1814.76074.36841,1.15234.55981.39209.19141.79053.38708,1.19385.58545.40332.19849.81201.39966,1.22314.60205.41162.20239.82568.40601,1.24121.60938,1.24561.60986,2.50098,1.21692,3.7124,1.77979,2.82666,1.31323,5.41699,2.38586,7.10107,2.69141.36133.06567.68066.09583.95166.08569.27148-.01013.49414-.06055.6626-.15662.14746-.08411.25293-.203.31201-.36023.41309-1.10095-1.44287-4.08118-7.07959-10.12988-1.03076-1.10596-2.08105-2.18921-3.15088-3.24976-1.06934-1.06055-2.15771-2.09839-3.26465-3.11353-4.42627-4.0603-9.14209-7.7561-14.09131-11.08313-2.47461-1.66345-5.00781-3.23486-7.5918-4.71338-9.30322-5.32288-19.27002-9.44348-29.57178-12.33679-5.72314-1.60742-11.5498-2.83594-17.42285-3.68115-3.52393-.5072-7.06494-.87646-10.61035-1.10669-3.54492-.23022-7.09473-.32178-10.63672-.27332-.03223.00037-.06445.00208-.09668.00256-3.51074.05054-7.01416.23706-10.49805.56323-1.31104.1228-2.61816.27002-3.92285.43188-2.03125.25208-4.05371.55249-6.06641.8999-.38184.06592-.76318.13525-1.14453.20459-9.00537,1.63904-17.79053,4.23157-26.1377,7.80884-2.1377.91602-4.24658,1.89636-6.32373,2.94104-4.15332,2.08923-8.17773,4.43616-12.04443,7.04285-4.229,2.85107-8.26904,6.01294-12.08252,9.48853-1.52539,1.39038-3.01416,2.83081-4.46484,4.32153-1.4502,1.49084-2.86182,3.03198-4.23242,4.62378-2.39795,2.78564-4.67041,5.72607-6.80371,8.82227-2.1333,3.09644-4.12793,6.34851-5.97021,9.75757v.00012c.29736.22742.7168.32971,1.2334.33069.01172,0,.021.00232.03271.0022Z"/><path class="cls-3" d="M1140.99711,139.89021c-19.4165-4.49023-55.11865-7.34473-70.79395-13.07861-2.3584-.86279-2.76758-4.87158-5.61523-6.87842-52.08789-36.70679-121.24609-49.26196-181.23584-24.73145-14.1123,5.771-25.97607,15.13818-39.63184,21.60815-.86963-59.45239-61.02051-68.77637-99.42041-32.11499-17.8125,17.00586-26.46777,40.18579-36.32861,62.08838C363.20658,238.64021,102.04886,534.88142,48.67289,887.41987c-50.53223,333.75671,79.67041,653.89221,340.19287,862.23816,4.00732,3.20483,28.90479,19.5553,29.18555,21.34119.396,2.51904-.78369,4.03894-2.05664,5.96429-10.8042,16.34113-39.91064,36.10522-53.34814,53.09509-5.229,6.61139-11.09912,12.97333-8.14893,22.21265,1.68506,5.27802,8.51221,11.5141,14.13818,12.1062,11.54102,1.21472,59.48584-15.49359,75.35254-19.25769,14.94531-3.54535,56.27588-14.47034,69.12305-12.9978,10.48438,1.20178,69.68604,33.71539,86.19531,40.50854,494.65576,203.53925,1049.82812-73.81683,1200.98633-579.29523,149.84375-501.08252-149.06445-1035.45166-659.2959-1153.44507ZM537.77884,340.13215c72.38916-52.16943,153.59766-96.72876,243.65723-106.8291,2.5376-2.1814-12.77686-15.47314-14.87988-18.24048-29.54932-38.88354-12.00928-86.2168,30.95801-104.26855v31.13184c0,7.43311,13.54199,32.71265,18.41748,39.82935,1.88428,2.74976,21.53027,26.40137,26.73535,27.64966.45361.10889.81006.06641,1.02246-.19409,3.37793-39.67261,35.82178-66.30762,72.68311-74.96265,23.62842-5.5481,50.87207-6.52954,73.9165,1.69482.3916.13965,1.02686.41211,1.84619.79248,7.76123,3.60132,32.31787,17.03516,28.31592,22.2417-26.55371,6.7605-55.61572,18.85303-76.33936,37.15479-2.03564,1.79785-14.2915,13.05957-12.01709,15.07739.34082-.01611.68262-.02319,1.02393-.03857,107.36133-4.85132,216.88232,23.25439,313.65234,67.98462,7.02783,3.24854,13.98047,6.62305,20.87158,10.09619.32373.16309.64844.3252.97168.48877,2.18994,1.10474,4.36523,2.22925,6.53955,3.35522,1.20117.62402,2.40625,1.24219,3.60254,1.87305.68994.3623,1.37354.73267,2.06152,1.09717,159.45361,84.76025,279.55957,229.93799,322.37207,407.98315,56.53467,235.1106-24.6416,513.00049-270.91504,595.46753-15.06689-2.88525-29.58496-10.37231-44.7002-14.72827-2.42773-.69971-5.71045-1.11511-9.00439-1.62878-2.94873-.45984-5.9043-.99951-8.2666-1.89197-1.02637-.38745-1.93604-.84399-2.68799-1.3877-1.13037-.81677-1.90137-1.83167-2.13232-3.12793l-3.8999-63.19092c54.99756-3.88281,90.05078-67.33887,39.89453-105.36584-2.54736-1.9314-4.99414-3.56104-7.36963-4.94214-8.36768-4.86536-15.84814-6.64319-23.71484-7.64026-7.49805-.95032-15.35303-1.19678-24.65527-2.72412-.36084-.0592-.71729-.11499-1.08203-.1781-46.75732-8.09387-79.15039-30.8407-106.87207-57.8551-34.60547-33.72241-61.93311-74.09363-100.82373-100.92529-31.62256-21.8175-70.89111-34.68298-127.94336-27.7334-40.54199,4.9386-70.37646,23.45251-96.07861,47.02917-32.15967,29.49988-57.85254,66.92249-89.90771,95.6571-18.68066,16.74536-39.52051,30.54297-65.07568,38.08228-13.33301,3.93359-29.54932,5.50256-45.37891,8.16357-7.34619,1.23486-14.60742,2.70605-21.45996,4.75757-7.08789,2.12207-13.73389,4.86877-19.58203,8.6167-.61377.39331-1.21729.79883-1.81299,1.2146-11.22021,7.83325-19.16992,19.74072-21.04541,38.69019-1.98389,20.04883,6.05127,35.24768,18.87158,46.28625,8.41504,7.245,18.88916,12.69824,29.95312,16.54883,7.92139,2.75696,16.14209,4.6925,24.12207,5.87927.73779.10962,1.47363.21521,2.20654.31213.02002.08557.03613.17175.05615.25745,6.46387,27.58105,4.74023,56.04541,4.89355,84.15088-25.63135-10.84985-53.74658-12.0498-81.13379-7.84167-5.19141.79773-15.69971,5.92004-19.79443,5.38416-.07275-.00952-.15918-.00732-.22754-.02051-1.63672-.31396-9.27344-7.30066-12.70361-9.17261-5.26221-2.87207-10.43701-5.75281-15.53223-8.64636-40.71289-23.12097-76.12158-47.09937-106.8252-74.56384-51.31982-45.90637-89.49512-101.55737-117.29688-179.2655-96.15186-268.75281,45.95898-531.51697,262.51367-687.58411ZM1229.76127,1184.76191c-201.60449,38.8866-412.26758,43.79553-613.08203-4.36511-6.9165-1.65869-15.43164-4.40784-22.11816-8.67712-2.64941-1.69177-5-3.6283-6.86182-5.82434-4.18848-4.94104-5.85498-11.21997-2.54395-19.15454,2.18311-5.23071,5.55225-8.89429,9.65918-11.50317,3.47168-2.20532,7.47266-3.65234,11.74414-4.6355,11.4624-2.63818,24.85254-1.95728,35.08643-3.70862,134.76318-23.06262,164.104-174.36755,271.95117-185.99048,145.64062-15.69617,159.03027,120.97839,268.18311,170.49695.04932.02234.10059.04321.15039.06567,8.58594,3.88135,18.21875,7.03687,27.99609,9.61914,9.0083,2.37915,18.13721,4.2738,26.68164,5.78491,6.33789,1.12085,16.05811,1.27173,25.4624,2.68579.53662.08069,1.07031.16797,1.604.25732,11.73096,1.96289,22.63525,6.11084,25.41992,16.86377,8.06836,31.15637-38.60547,34.0874-59.33252,38.08533ZM333.52298,1556.92018c-2.19824,1.65393-30.1377-34.71344-32.90771-38.36591-91.39014-120.5144-145.94141-263.71948-161.26172-411.24902-13.55615-130.53784,3.60889-264.45654,53.21484-389.05103,1.39453-3.50269,2.80566-7.00061,4.25146-10.48828.05908-.14233.11475-.28564.17383-.42798.8999-.11975,1.46436.0918,1.80078.50928,1.01318,1.25879-.05664,4.39368-.31201,5.99585-2.33301,14.65161-6.58301,29.87524-9.55273,44.93848-.66211,3.35864-1.26221,6.70947-1.76123,10.04407-26.75195,178.73572,30.64404,360.74414,159.03516,483.61511.31055.29883.6123.60718.92383.90503.76367.7312,1.53467,1.45337,2.30273,2.17957,15.32617,14.41492,31.6377,27.99976,48.92578,40.64185.21875.16003.43359.3241.65283.48376.65576.47778,1.31396.95239,1.97119,1.42834,18.78906,13.60999,38.23096,26.4613,59.09375,36.89478-68.51611,55.37219-108.09229,136.23621-126.41602,221.33966-.04346.20245-.09131.40399-.13477.60645ZM417.87601,1644.32392c-5.9043-5.13647-40.60693-36.85187-41.74854-40.6178-2.59863-8.57117,7.33496-48.20331,10.21143-59.26611,17.55371-67.50195,57.45703-143.42578,118.10107-181.16772,3.59814-2.23926,7.375-4.40161,11.29248-6.44849,10.34473-5.40503,21.67627-10.00012,33.33252-13.04785,5.33252-1.39417,10.73242-2.46118,16.13672-3.13745,19.95361-2.49683,39.96533.37708,56.83496,12.17847,1.06836.74731,2.06494,1.55322,3.01514,2.39575,4.63281,4.10938,7.896,9.2981,10.104,15.08691,5.65967,14.83887,4.41553,33.58716,1.6543,48.03027-6.81738-3.90051-13.71973-7.40894-20.73877-10.43384-7.36084-3.17224-14.85205-5.80664-22.50977-7.79785-13.75098-3.57544-28.04053-5.07288-43.09424-3.83447.42627.37415.8623.73291,1.29785,1.09204,2.32129,1.91431,4.7666,3.62891,7.28223,5.24023,6.27002,4.01587,12.95801,7.42456,19.18164,11.80591.93555.65881,1.86426,1.33215,2.77588,2.04077,7.93994,6.17456,18.80029,16.66833,27,28.43604,10.18506,14.61633,16.26465,31.19873,7.53223,43.91931-8.93604-3.3877-18.3125-6.91235-27.89209-9.78821-7.8042-2.34277-15.74268-4.24622-23.69141-5.29089-14.77637-1.94202-29.58252-.90771-43.60449,5.88818.4458.13538.90869.28503,1.37939.44116,8.00146,2.65466,19.47607,8.27539,30.67969,15.54639,2.8584,1.8551,5.69922,3.81616,8.45947,5.86389,5.7373,4.25598,11.12598,8.88086,15.60986,13.67712,8.11377,8.67908,13.26123,17.91992,12.12158,26.55585-.60254,4.56549-10.22949,20.94348-14.93848,21.16388-3.63086.16998-17.19434-5.77454-23.17188-6.95673-5.48877-1.08545-10.83398-1.9892-16.11279-2.7016-4.56543-.61615-9.08105-1.08392-13.59033-1.39368-11.94043-.82013-23.84961-.5282-36.59912,1.12445,1.43164,1.15051,2.94434,2.3252,4.51416,3.52411,3.73975,2.85632,7.81348,5.85553,11.95654,9.02295,5.90234,4.51178,11.94238,9.36444,17.34961,14.63348,4.36426,4.25269,8.31299,8.77722,11.44678,13.61029,5.1499,7.94293,8.09375,16.72083,7.02246,26.50928-.96387,8.8078-14.28711,24.3985-20.20947,32.04584-6.46338,8.34607-25.55811,32.36157-33.04248,37.38068-.95117.63776-1.67871,1.24707-2.50195,1.50037-.72266.22253-1.51807.17322-2.61426-.41052-1.77148-1.29779-3.55615-2.60199-5.33887-3.90546-2.65869-1.94409-5.32373-3.896-7.99609-5.85626-16-11.73737-32.11572-23.79987-46.89697-36.65869ZM435.46244,1811.81196c-.17188.04456-.34521.08472-.51758.12946-1.19727-1.36731-3.06689-1.49744-1.99707-3.95215,1.75439-4.02655,33.14697-32.95294,39.23926-39.11371,37.03711-37.45239,71.95166-72.49554,103.16895-115.75934,44.07275-61.0799,116.83691-177.17084,111.34424-265.62079-1.02783-16.54639-4.78809-32.12756-11.99316-46.198-2.71484-5.30127-10.96289-14.58997-11.70947-18.40076-1.78467-9.11157,2.1333-32.89392,1.95459-45.1554-.25586-17.55347-3.34033-36.5498-4.00684-54.22534,38.61865,5.11694,77.08984,13.03247,115.76465,17.78687,96.37158,11.84729,204.19092,12.80176,300.74219,2.04395,50.16309-5.58923,99.729-16.34668,149.89307-21.85327l.04834.72156,3.97314,59.55066c-11.34326.23633-25.45947,3.96765-36.1665,8.02661-17.48975,6.63025-34.02295,17.22449-48.05518,30.45581-16.72656,15.77173-29.89648,35.29407-36.84912,56.36816-3.5459,10.74805-5.71826,21.33777-6.68359,31.74585-4.7085,50.7511,19.33789,97.17432,53.42529,136.49158-48.45605-1.10852-95.51123-.02112-143.27441,8.38776-11.73535,2.06598-29.73096,2.4798-33.05225,17.16089-2.56738,11.35095.604,28.83759-.66602,41.51251-7.72705,77.11523-95.92236,139.85925-166.08984,155.27283-66.44238,14.5954-134.8291,13.5152-202.20801,18.72845-59.23389,4.58313-118.79736,11.01721-176.28467,25.89581ZM1197.32181,1587.94361c.30713.09875.7041.28577,1.15674.53278,5.39844,2.94379,19.82227,15.58673,11.49414,18.37268-49.93506,26.48291-99.2749,54.59003-150.63135,78.33673-28.79932,13.31647-60.13135,27.73462-90.7627,35.79297-.78271.20593-1.56738.42651-2.34912.62396,22.01855-24.66766,39.79297-53.71234,47.22021-86.32526,3.41943-15.01398,3.98682-30.28168,6.87598-45.34576,39.23389-5.40448,79.81348-10.84454,119.61963-8.88409,13.24219.65216,45.7793,3.1651,57.37646,6.896ZM1231.28568,1635.71174c-3.16504,26.85358-9.53516,53.78009-19.2373,79.37817-2.27441,6.00067-4.73438,11.92554-7.37842,17.76123-17.11084,37.76788-41.98389,71.7088-75.18311,96.86603-32.77441-2.53784-65.28662-8.53754-97.98975-11.67633-37.77197-3.62531-75.53955-6.19208-113.34082-7.87646-17.33203-.77234-34.6709-1.35773-52.021-1.76721-36.20117-.85437-72.44971-.96265-108.78125-.42834-.50488-2.9906,3.76367-2.4881,5.98926-2.9967,19.45557-4.44604,40.57471-6.13263,60.32324-9.9964,120.46924-23.56958,237.68311-63.34479,344.76416-123.21979,7.62256-4.26196,15.06152-8.90741,22.48975-13.56842,12.00293-7.53107,23.97852-15.09961,36.64893-21.16577.93555-.44812,1.87793-.88208,2.82178-1.31311.31787-.1452.63184-.29919.95068-.44238-.01709.1485-.03857.297-.05615.4455ZM1498.44095,1606.08882c-.43115,2.25592-2.98828,5.78259-7.02148,10.1474-4.2251,4.5722-10.07617,10.06689-16.84082,16.00616-26.51904,23.28339-66.99512,53.34686-77.89502,61.00879-2.69385-2.01221-5.37695-4.0531-8.05566-6.10626-30.54639-23.41333-60.13672-49.33771-89.54932-74.48016-4.14941-27.42273,18.62305-47.80994,34.2666-67.22461.14648-.18188.29688-.36432.44189-.54602-14.32959.58368-28.38281,3.61664-41.85547,8.4054-.72168.25647-1.44092.51947-2.15918.78589-12.9209,4.79401-25.28711,11.18341-36.82373,18.56049-.07324.04675-.14746.09247-.22021.13934-.44629-.52686-.96143-1.07739-1.52148-1.64471-1.00244-1.0152-2.16602-2.09149-3.42627-3.21704-7.76123-6.9314-19.11572-15.72223-18.09912-23.51251,3.021-23.14819,31.97559-48.66479,49.2085-63.22559.22119-.18726.44922-.38049.66699-.56396-22.51172-2.29639-41.51416,3.7467-60.854,14.44446-7.59668,4.2019-18.64746,15.50085-26.86963,14.57544-3.03564-.34167-5.68896-2.33557-7.63574-6.98718-10.98975-26.2533,26.73389-77.63525,47.11523-93.375-.375.02319-.74561.06006-1.11865.08838-29.06006,2.19434-53.31152,19.4397-74.26221,38.30322-.29248.26318-.58691.52563-.87793.78955-5.88525-17.73804-5.71875-35.22852-1.01807-51.1582,11.01562-37.33252,46.95215-66.08569,88.39209-69.31226,16.86328-1.31287,40.54541,5.05298,64.77588,14.58105,7.51611,2.95557,15.0835,6.21631,22.51758,9.64575,25.25342,11.64941,48.95752,25.25391,63.77441,35.53589,42.16553,29.26038,74.42627,68.81897,91.08936,117.03589,1.98242,5.73596,3.75781,11.58691,5.28857,17.56543.52637,2.05664,1.08203,4.46899,1.64844,7.12964,4.60449,21.63098,9.95947,60.70685,6.91846,76.60535ZM1733.68461,1151.52143c-8.91113,57.56714-23.97461,114.12427-45.15674,168.86462-17.42529,45.03149-38.99658,88.82837-64.69775,130.9436-1.32764,2.17493-2.66064,4.34741-4.00977,6.51343-10.45459,16.78137-21.55518,33.29578-33.33154,49.50122-12.33057,16.96802-26.84473,32.82861-38.65039,49.87689-.3916.56549-.78857,1.12848-1.17432,1.69666-.06445.00317-.12109-.01685-.18311-.02112-.20459-.01404-.39502-.06677-.57178-.15497-1.44873-.72302-2.00391-3.74591-2.30371-6.31311-.14844-1.26831-.2373-2.42303-.34277-3.12097-11.36523-75.2251-38.92041-134.19055-98.06299-183.1311l-39.09082-28.15454c127.65869-56.73743,215.67725-177.23474,254.05811-309.34094,1.0542-3.62805,2.07324-7.27979,3.06299-10.94995,2.86133-10.60999,5.4541-21.38904,7.77197-32.30505,7.91455-37.27625,12.61426-76.1366,13.93213-115.21729.17676-5.24707.28662-10.49744.34082-15.74927.64551-62.80591-7.5127-125.70776-25.34229-183.06079-.80273-2.58203-1.45117-6.04895,2.22021-4.22949.03467.01709.07373.0498.10986.07227,2.71387,1.68286,10.11768,18.31616,17.83203,37.30518,9.6084,23.65039,19.69336,50.9353,21.78027,57.4812,41.08789,128.85718,51.59814,261.65625,31.80957,389.49353Z"/></svg>