<?xml version="1.0" encoding="UTF-8"?><svg id="Layer_2" xmlns="http://www.w3.org/2000/svg" viewBox="0 0 312.60999 188"><g id="Layer_1-2"><path d="M164.08566,103.0311h0c-5.2009,0-10.42967-2.00785-14.4035-5.96777-7.93379-7.93379-7.93379-20.85931,0-28.7931l34.77481-34.77481v49.16439c0,5.61918-2.28674,10.70852-5.96777,14.40352h0c-1.96602,1.96602-4.21089,3.44402-6.60915,4.42005-2.38431.98998-5.01963,1.54772-7.79435,1.54772h-.00004Z"/><path d="M128.19539,67.12688c-5.20088,0-10.42965-2.00785-14.40352-5.96777-3.97387-3.95992-5.96777-9.16081-5.96777-14.40352h0c0-2.66319.52986-5.22877,1.478-7.5852.98999-2.49587,2.49586-4.81047,4.48977-6.81832h0c3.68105-3.68105,8.78434-5.96777,14.40352-5.96777h49.1644l-34.77481,34.77481c-3.97387,3.97386-9.16082,5.96777-14.4035,5.96777h.01391Z"/><path d="M193.54804,34.68062c-2.73289-2.7329-2.73289-7.19479,0-9.94164s7.19479-2.7329,9.94164,0,2.73289,7.19479,0,9.94164-7.19479,2.7329-9.94164,0Z"/><path d="M176.16064,17.29321c-2.73289-2.7329-2.73289-7.19479,0-9.94164,2.73289-2.7329,7.19479-2.7329,9.94164,0,2.73289,2.7329,2.73289,7.19479,0,9.94164-2.73289,2.7329-7.19479,2.7329-9.94164,0Z"/></g><path d="M9.76984,106.15707h34.64932c12.3399,0,19.84144,7.61309,19.84144,19.20005s-6.53945,15.65843-13.41354,16.09067v.64139c6.53945.11155,16.20222,4.71287,16.20222,17.48501,0,12.0192-8.26843,21.45887-19.31159,21.45887H9.76984v-74.87599ZM23.93633,137.37631h17.48501c5.14511,0,8.15688-2.99783,8.15688-7.93379v-3.33247c0-5.0475-2.99783-7.93379-8.15688-7.93379h-17.48501s0,19.20004,0,19.20004ZM23.93633,169.0278h19.74384c5.3682,0,8.57518-2.90022,8.57518-8.15688v-3.65317c0-5.25666-3.22092-8.25448-8.57518-8.25448h-19.74384s0,20.06453,0,20.06453Z"/><path d="M76.27981,152.92319c0-17.69416,9.55122-29.18351,25.96259-29.18351,17.48501,0,25.53034,12.86975,25.53034,28.20747v4.50371h-37.22885v1.39434c0,8.04534,4.61526,13.51114,13.62269,13.51114,6.76254,0,10.83401-3.22092,14.26408-7.61309l7.40394,8.25448c-4.61526,6.3303-12.77215,10.30416-23.17391,10.30416-16.52291,0-26.39483-11.47541-26.39483-29.39266l.01396.01395ZM90.54389,147.13668v.85055h22.95082v-.96209c0-7.72464-3.97386-12.9813-11.04316-12.9813s-11.90765,5.3682-11.90765,13.09284Z"/><path d="M136.13877,152.92319c0-17.69416,9.55122-29.18351,25.96259-29.18351,17.48501,0,25.53034,12.86975,25.53034,28.20747v4.50371h-37.22884v1.39434c0,8.04534,4.61526,13.51114,13.6227,13.51114,6.76254,0,10.83401-3.22092,14.26408-7.61309l7.40394,8.25448c-4.61526,6.3303-12.7582,10.30416-23.17391,10.30416-16.52291,0-26.39483-11.47541-26.39483-29.39266l.01395.01395ZM150.40286,147.13668v.85055h22.95082v-.96209c0-7.72464-3.97386-12.9813-11.04316-12.9813s-11.90765,5.3682-11.90765,13.09284Z"/><path d="M246.94688,181.03306l-6.0096-19.0885h-26.60399l-5.89805,19.0885h-14.37563l25.0981-74.87599h17.59655l24.88896,74.87599h-14.69634ZM227.85838,119.02681h-.52986l-9.55123,30.787h19.74384l-9.64882-30.787h-.01394Z"/><path d="M269.59093,181.03306v-11.36386h9.87192v-52.14827h-9.87192v-11.36386h34.00792v11.36386h-9.98347v52.13433h9.98347v11.36386h-34.00792v.01395Z"/></svg>