<?xml version="1.0" encoding="UTF-8"?><svg id="Layer_2" xmlns="http://www.w3.org/2000/svg" viewBox="0 0 144 144"><defs><style>.cls-1{fill:#fff;}</style></defs><g id="Layer_1-2"><path class="cls-1" d="M82.36585,139.1926h0c-7.22824,0-14.49522-2.79053-20.01808-8.29404-11.02644-11.02643-11.02644-28.99041,0-40.01684l48.33027-48.33026v68.32899c0,7.80958-3.17812,14.88278-8.29404,20.01811h0c-2.73239,2.73239-5.85232,4.78652-9.18544,6.14302-3.31373,1.37588-6.97631,2.15103-10.83264,2.15103h-.00006Z"/><path class="cls-1" d="M32.48531,89.29268c-7.22821,0-14.4952-2.79052-20.01811-8.29404-5.52292-5.50353-8.29404-12.73175-8.29404-20.01811h0c0-3.70132.7364-7.26698,2.05413-10.54197,1.37589-3.46877,3.46876-6.68562,6.23992-9.47614h0c5.11595-5.11595,12.20853-8.29405,20.01811-8.29405h68.32901l-48.33027,48.33026c-5.52292,5.5229-12.73176,8.29404-20.01808,8.29404h.01934Z"/><path class="cls-1" d="M123.31287,44.19864c-3.79819-3.79821-3.79819-9.99936,0-13.81695,3.79819-3.81759,9.99937-3.79821,13.81696,0s3.79819,9.99936,0,13.81695-9.99937,3.79821-13.81696,0Z"/><path class="cls-1" d="M99.14774,20.03351c-3.79819-3.79821-3.79819-9.99936,0-13.81695,3.79819-3.79821,9.99937-3.79821,13.81696,0,3.79819,3.79821,3.79819,9.99936,0,13.81695-3.79819,3.79821-9.99937,3.79821-13.81696,0Z"/></g></svg>