<svg id="Layer_1" data-name="Layer 1" xmlns="http://www.w3.org/2000/svg" viewBox="0 0 561.78398 782.51517"><defs><style>.cls-1,.cls-2,.cls-3,.cls-4{fill:#fff;}.cls-2{opacity:0.6;}.cls-2,.cls-3,.cls-4{isolation:isolate;}.cls-3{opacity:0.4;}.cls-4{opacity:0.9;}</style></defs><title>LFAI-stacked-white</title><path class="cls-1" d="M24.19605,671.85121H13.6209v79.77871H62.00373v-8.60173H24.196v-71.177Zm93.36811,38.62961q-.21969-8.98584-6.02771-14.10982-5.808-5.12239-16.05356-5.12319a28.75927,28.75927,0,0,0-11.86378,2.41044,21.51124,21.51124,0,0,0-8.548,6.54812,13.98719,13.98719,0,0,0-3.15056,8.57527H82.11239a8.07443,8.07443,0,0,1,3.6718-6.62992,14.781,14.781,0,0,1,9.09489-2.74q6.1921,0,9.36993,3.15137a11.38946,11.38946,0,0,1,3.17785,8.46461v4.65811H97.56379q-12.76748,0-19.80715,5.1232-7.04129,5.124-7.04048,14.38326a16.04074,16.04074,0,0,0,5.61554,12.575q5.61635,4.9588,14.38327,4.958a22.61372,22.61372,0,0,0,16.87629-7.342,21.26015,21.26015,0,0,0,1.42494,6.24661h10.62969v-.87725q-2.08246-4.82007-2.08168-12.98559Zm-10.13732,24.54705a14.91887,14.91887,0,0,1-6.19049,6.41021,17.81768,17.81768,0,0,1-9.042,2.46657,12.2077,12.2077,0,0,1-8.1639-2.68629,9.22559,9.22559,0,0,1-3.17785-7.451q0-10.90313,18.63-10.90392h7.94421Zm53.69767-43.78006a21.60257,21.60257,0,0,0-17.75356,8.548l-.32878-7.45184H133.455v59.28594H143.5907V709.38545a17.8579,17.8579,0,0,1,5.80878-6.90416,14.63119,14.63119,0,0,1,8.65706-2.63016q6.08223,0,8.95937,3.06878,2.87636,3.06959,2.93166,9.479v39.23182h10.13574V712.45423q-.16358-21.20562-18.958-21.20563Zm71.66935,7.12306q-6.08224-7.12306-16.49219-7.12307a20.44467,20.44467,0,0,0-16.93162,8.301q-6.4663,8.301-6.46552,21.945v.76659q0,13.591,6.49359,22.02755a20.24663,20.24663,0,0,0,16.7937,8.43735q10.84938,0,16.93083-7.45184l.49315,6.35648h9.3154V667.46735H232.79386Zm0,37.09482q-4.43756,8.65945-14.081,8.65786a13.45866,13.45866,0,0,1-11.50693-5.69814q-4.16493-5.69814-4.16414-15.78093,0-11.28721,4.16414-17.04069a13.5228,13.5228,0,0,1,11.616-5.75346q9.42283,0,13.97191,8.38362Zm61.25938-14.02643a54.712,54.712,0,0,0-12.30081-4.0551q-7.59057-1.69676-10.49335-3.56113a6.14715,6.14715,0,0,1-2.90358-5.53455,7.58891,7.58891,0,0,1,3.1225-6.30115q3.12331-2.41043,8.65786-2.41124a13.24544,13.24544,0,0,1,8.904,3.01425,9.15111,9.15111,0,0,1,3.53386,7.17761h10.19187a16.53469,16.53469,0,0,0-6.27387-13.31437q-6.27543-5.205-16.35585-5.20578-9.58964,0-15.75289,5.0414-6.16487,5.04139-6.16482,12.32885a13.10275,13.10275,0,0,0,2.16508,7.56169,17.37952,17.37952,0,0,0,6.68444,5.47842,51.05129,51.05129,0,0,0,12.219,3.94524q7.69723,1.64385,10.79406,3.918a7.46553,7.46553,0,0,1,3.09524,6.38294,7.15592,7.15592,0,0,1-3.47856,6.21936q-3.48018,2.32944-9.23279,2.32865-6.24657,0-10.05473-2.98619a10.491,10.491,0,0,1-4.08157-8.08211H256.19021a16.96616,16.96616,0,0,0,3.09607,9.7805,20.48473,20.48473,0,0,0,8.57524,7.04047,29.86167,29.86167,0,0,0,12.6023,2.5211q10.13569,0,16.493-4.79442a15.17159,15.17159,0,0,0,6.35569-12.73941,13.9494,13.9494,0,0,0-2.27334-8.08211,17.94689,17.94689,0,0,0-6.98676-5.67088Zm34.21769-16.30135q4.24509-5.561,11.97279-5.56182a13.55171,13.55171,0,0,1,9.67063,3.69906,13.97362,13.97362,0,0,1,4.3558,9.45172H363.859a21.35013,21.35013,0,0,0-7.0405-15.50589q-6.60343-5.97237-16.57478-5.97317a25.9142,25.9142,0,0,0-14.05447,3.72632,24.20073,24.20073,0,0,0-9.123,10.46449,35.69044,35.69044,0,0,0-3.17863,15.39764v1.69837q0,14.02724,7.15116,22.10935,7.14957,8.08291,19.25948,8.08132a24.91052,24.91052,0,0,0,11.42513-2.73921,23.10446,23.10446,0,0,0,8.629-7.342,18.39039,18.39039,0,0,0,3.50659-9.6979h-9.58885a11.56878,11.56878,0,0,1-4.4921,8.21843,14.60218,14.60218,0,0,1-9.47981,3.2877q-7.83672,0-12.05462-5.53375-4.22028-5.53374-4.21867-15.78093v-1.91808q0-10.51983,4.24593-16.08164Zm92.13565,5.3429q-.21966-8.98582-6.02773-14.10982-5.808-5.12239-16.05359-5.1232a28.75952,28.75952,0,0,0-11.863,2.41044,21.50387,21.50387,0,0,0-8.548,6.54813,13.98809,13.98809,0,0,0-3.15137,8.57527h10.19187a8.07452,8.07452,0,0,1,3.67178-6.62992,14.78187,14.78187,0,0,1,9.0957-2.74q6.19137,0,9.36914,3.15137a11.38778,11.38778,0,0,1,3.17863,8.46461v4.65811H400.407q-12.7675,0-19.808,5.12318-7.04048,5.124-7.0405,14.38326a16.04081,16.04081,0,0,0,5.61637,12.575q5.61551,4.95882,14.38244,4.958a22.6153,22.6153,0,0,0,16.87709-7.342,21.19164,21.19164,0,0,0,1.42492,6.24662H422.489v-.87725q-2.08333-4.82008-2.08246-12.98559Zm-10.13573,24.54705a14.92455,14.92455,0,0,1-6.19208,6.4102,17.81764,17.81764,0,0,1-9.04118,2.46658,12.20865,12.20865,0,0,1-8.16472-2.68629,9.2256,9.2256,0,0,1-3.177-7.451q0-10.90313,18.62919-10.90392h7.945Zm52.984-43.78007q-11.013,0-17.20506,7.67156l-.49315-6.57539h-9.26v82.08011H446.434V745.87725q6.19049,6.84962,16.98536,6.848a19.84755,19.84755,0,0,0,16.76722-8.273q6.19041-8.273,6.1913-21.80784v-.931q0-14.35521-6.21934-22.41165-6.21942-8.05405-16.90358-8.054Zm8.68434,47.4238a13.70169,13.70169,0,0,1-11.58874,5.78154A14.92962,14.92962,0,0,1,446.4339,736.343v-28.3287q4.60276-8.16391,13.80751-8.16472a13.76822,13.76822,0,0,1,11.72584,5.808q4.274,5.80881,4.274,15.83546,0,11.39789-4.30206,17.1778Zm50.65694-47.42379a23.69311,23.69311,0,0,0-13.12271,3.918,26.2777,26.2777,0,0,0-9.42445,10.8494,35.57935,35.57935,0,0,0-3.37029,15.75287v1.86276q0,13.26064,7.5617,21.17757,7.56163,7.91854,19.61632,7.91693,14.9037,0,22.35471-11.4508l-6.19047-4.82169a22.84137,22.84137,0,0,1-6.52087,5.808,17.65654,17.65654,0,0,1-9.09571,2.19153,16.10332,16.10332,0,0,1-12.466-5.39662q-4.90347-5.39664-5.12239-14.16436h40.16358v-4.21947q0-14.19081-6.41178-21.80783-6.40941-7.61624-17.97165-7.61623Zm14.24613,25.31445H507.14479q.98633-8.05485,5.15043-12.5197a13.5228,13.5228,0,0,1,10.30092-4.46646,12.7318,12.7318,0,0,1,10.082,4.24674q3.72547,4.24755,4.16414,11.972Z"/><path class="cls-1" d="M174.83746,632.425h36.93318v8.40386H164.50688V562.89514h10.33058Z"/><path class="cls-1" d="M266.47385,606.412H233.76934v34.41687H223.49225V562.89514h48.28039V571.299h-38.0033v26.70915h32.70451Z"/><path class="cls-1" d="M351.21882,622.6832h-30.189l-6.31543,18.14568h-14.077l29.43982-77.93374h12.14949l29.49373,77.93374H357.58856Zm-26.38825-10.91849H347.4197l-11.2954-32.33012Z"/><path class="cls-1" d="M396.09359,640.82888H382.6053V562.89514h13.48829Z"/><path class="cls-2" d="M382.24883,450.09935H459.2082V382.89556c-27.26185-19.53113-54.2775-39.08511-81.03048-59.14983-8.15688-6.188-14.34493-6.46925-22.5018.28126-15.18871,12.65729-31.22126,24.18945-46.69126,36.56547-6.46925,5.06293-11.2509,5.06293-17.15761-1.12508-28.12725-28.40856-57.09843-56.25451-84.94433-84.94431C199.85091,267.21,194.788,267.21,187.19365,273.398c-28.44707,23.38112-57.03255,46.49185-85.65593,69.61355V450.09935H331.29589v70.16926h50.953V450.09935Z"/><path class="cls-3" d="M349.76905,248.646a56.81877,56.81877,0,1,0-57.37955-56.817A56.81874,56.81874,0,0,0,349.76905,248.646Z"/><polygon class="cls-4" points="331.295 450.099 101.538 450.099 101.538 343.013 101.538 234.295 101.538 220.285 49.508 220.285 26.795 220.285 26.795 291.239 26.795 484.915 26.795 520.268 331.295 520.268 331.295 484.915 331.295 450.099"/><polygon class="cls-1" points="26.795 37.667 26.795 130.987 26.795 169.24 49.457 169.24 66.688 169.24 101.394 169.24 101.394 92.638 459.209 92.638 459.209 382.895 459.209 450.099 382.247 450.099 382.247 484.915 382.247 520.268 486.757 520.268 501.78 520.268 534.959 520.268 534.959 16.402 486.757 16.402 26.795 16.402 26.795 33.191 26.795 37.667"/></svg>