<?xml version="1.0" encoding="UTF-8"?>
<svg id="AW" xmlns="http://www.w3.org/2000/svg" viewBox="0 0 158.9875008 134.0489743">
  <defs>
    <style>
      .cls-1 {
        fill: #2e3192;
      }
    </style>
  </defs>
  <g id="DEEP_LEARNING_icon" data-name="DEEP LEARNING icon">
    <g>
      <g>
        <ellipse class="cls-1" cx="44.3111465" cy="43.0515079" rx="4.7918548" ry="4.7621102"/>
        <ellipse class="cls-1" cx="86.4794213" cy="27.8128198" rx="4.7918548" ry="4.7620744"/>
        <ellipse class="cls-1" cx="58.2075065" cy="71.1478351" rx="4.7918597" ry="4.7620744"/>
        <ellipse class="cls-1" cx="96.5422926" cy="78.7671732" rx="4.7918548" ry="4.7620744"/>
        <ellipse class="cls-1" cx="112.834599" cy="51.1470487" rx="4.7918548" ry="4.7621102"/>
        <ellipse class="cls-1" cx="73.5414371" cy="47.3373796" rx="4.7918548" ry="4.7621102"/>
        <g>
          <path class="cls-1" d="M18.4335555,48.7695074c-.6823281,0-1.2865776-.4898521-1.4087065-1.1847319-.136542-.7788286,.3840452-1.5212427,1.1630646-1.6578324l21.7157096-3.8082373-13.3730954-13.2903401c-.560915-.5574311-.5636831-1.4639247-.0062997-2.0246011,.557431-.5616309,1.463686-.564399,2.0248396-.0065384l14.2735279,14.1852365c.5870207,.5830118,.7976893,1.4359577,.5495179,2.2259062-.2481714,.7899963-.9088414,1.368856-1.7242275,1.5114591l-22.9654433,4.0277735c-.0836624,.0144608-.1668475,.0214286-.2488872,.0219059Zm22.3707389-5.7554757h0Z"/>
          <path class="cls-1" d="M45.7481064,86.8658162c-.3246272,0-.6511157-.1095295-.9193317-.3346495-.6058722-.5079877-.6850961-1.411236-.1771084-2.0171082l9.4891182-11.3161369c.0242444-.0288738,.0433823-.0517342,.0118836-.109959-.0360803-.0666722-.0796535-.0615656-.1169746-.0577953l-32.0768161,3.8249889c-.7797353,.095546-1.4974755-.4665144-1.5911602-1.2518336-.093676-.7853192,.4669917-1.4979528,1.2521199-1.5911602l32.0763388-3.8250366c1.2231984-.1458484,2.3902242,.4576853,2.9749064,1.538042,.5816278,1.0752024,.4497629,2.3750477-.3360336,3.3128014l-9.4891182,11.3160892c-.283154,.3374653-.689105,.511758-1.0978242,.511758Z"/>
          <path class="cls-1" d="M57.7840354,71.7913626c-.0262966,0-.052641-.0004773-.0789853-.0014318-.7902349-.0283965-1.5107431-.4800207-1.8800889-1.1791481l-12.8063579-24.2214774c-.5234029-.9903946-.4476629-2.1742198,.1975826-3.0900198,.6490158-.9209544,1.7463628-1.3902846,2.8635157-1.2318367l24.37205,3.5155383c1.0008942,.1449416,1.8516924,.7773968,2.2762563,1.6918128,.4225117,.9102639,.3575099,1.9621764-.174054,2.8141201l-12.8883976,20.658882c-.4052255,.6487772-1.1203982,1.0435606-1.8815207,1.0435606Zm.5723213-2.5191302h0Zm-12.7131028-24.3729573c-.0256285,0-.0573658,.0083996-.0862395,.0493956-.034744,.0493956-.0200446,.0773627-.006777,.1020843l12.2806642,23.2278374,12.2936932-19.7057608c.0106905-.0167993,.0281579-.0447663,.0060134-.0923007-.0251512-.0540727-.067579-.0601338-.0880531-.0633791l-24.3715727-3.515061c-.0079224-.0014318-.0172765-.0028158-.0277284-.0028158Z"/>
          <path class="cls-1" d="M96.4580575,79.5802685c-.6892959,0-1.3399344-.3201888-1.7612425-.872036l-22.9097585-30.0538385c-.587498-.7699517-.6047268-1.8181416-.0426664-2.6076606l13.0605904-18.3504588c.3644778-.5121875,.9316925-.8468371,1.5561776-.9181386,.6252486-.0713015,1.2530267,.1272355,1.7235501,.5433998l25.2260935,22.3348977c.7862737,.6967411,.9694432,1.8581831,.436029,2.7623859l-15.3786174,26.0708313c-.3754069,.6361777-1.0397903,1.0426061-1.7773364,1.0864179-.0444799,.0027681-.088769,.0041998-.1328194,.0041998Zm-22.0967004-32.27187l22.0291214,28.8979804,14.6111951-24.7700315-24.2790444-21.4959354-12.3612721,17.3679865Zm12.7767683-17.9520006l-.0011931,.0018613c.0002386-.0004773,.0007159-.001384,.0011931-.0018613Zm-1.1665963-.8300378h0Z"/>
          <path class="cls-1" d="M102.2915639,101.152612c-.6286849,0-1.205206-.417596-1.379785-1.0532965l-5.1952287-18.9311798-15.0374184,11.2079915c-.8675975,.6483-2.0674583,.5765212-2.8539706-.1696633l-21.0827772-20.0203657c-.5732758-.5448316-.5968044-1.450848-.0522114-2.0241238,.5444021-.5732758,1.4504184-.597043,2.0241238-.0526887l20.6885189,19.6466292,15.3664364-11.4531562c.5872593-.4376407,1.3501954-.5559993,2.0420685-.3183275,.6918731,.2381491,1.220669,.801164,1.4143011,1.5063525l5.447637,19.8507024c.2092384,.7625065-.2393422,1.5501642-1.0018487,1.7593918-.1267583,.0349826-.2542325,.0517342-.3798454,.0517342Z"/>
          <path class="cls-1" d="M122.8961817,96.8662153c-.2617253,0-.5264096-.0713015-.7638905-.221827l-26.3551777-16.6675229c-.6682968-.4222254-.8673112-1.3068609-.4448472-1.9751577,.4227504-.667915,1.3073381-.8678362,1.975444-.4446563l26.35513,16.6674751c.6683446,.4222731,.8673589,1.3068609,.4448949,1.9752054-.2724158,.4306728-.736878,.6664833-1.2115535,.6664833Z"/>
          <path class="cls-1" d="M127.2112612,81.1518137c-.5238802,0-1.0286226-.2889287-1.2800392-.7885645l-14.1344455-28.0931415c-.4136459-.8230699-.2672615-1.8255867,.3639896-2.4953153l14.0078891-14.848904c.5427431-.5755667,1.4489867-.6016724,2.0238851-.0591793,.5751371,.5429703,.6017201,1.4489867,.0589884,2.0241238l-13.6872231,14.5091479,13.9246562,27.675975c.3556486,.7065725,.0711106,1.5673931-.6354619,1.9225167-.2062094,.1039456-.4259957,.1533413-.6422388,.1533413Z"/>
          <path class="cls-1" d="M62.0396969,37.7852519c-.6678673,0-1.2651489-.4698075-1.4021682-1.1493675l-4.7389656-23.5153821c-.1176524-.5872594,.1151515-1.1973314,.5924041-1.5557481,.4776821-.3579395,1.1283206-.4115349,1.657546-.136542l28.0819254,14.640106,12.6756384-12.1466519c.5714146-.5476474,1.477203-.5276028,2.0243624,.0433345,.5471809,.5704601,.5277937,1.4769537-.0430959,2.0241238l-13.0095721,12.4668407c-.6883892,.6585609-1.7174412,.8053638-2.5612716,.3653846l-26.0717851-13.5923456,4.1999661,20.841097c.1561093,.7750583-.3456263,1.5301196-1.1206846,1.686229-.095546,.0195674-.1906049,.0289215-.2842994,.0289215Z"/>
          <path class="cls-1" d="M136.7924414,65.9133284c-.2356196,0-.4744845-.0582725-.6949159-.1813083l-23.69694-13.1878263-39.9524387-3.7817021c-.7871805-.0745469-1.3648947-.7727197-1.2905388-1.5599002,.0746046-.7871805,.77649-1.3660402,1.5603774-1.2905388l40.0869285,3.7942538c.3078279,.0288738,.6009565,.1202199,.8712834,.2707454l23.8139514,13.2531144c.6909069,.3844747,.9393169,1.2560335,.5548422,1.9472384-.2619162,.470237-.7496684,.7359235-1.2525495,.7359235Z"/>
          <path class="cls-1" d="M42.8736139,44.4835402c-.5916501,0-1.1453585-.3695844-1.3515794-.9600891-.2607708-.7461845,.1328194-1.562716,.8792425-1.8237254l43.6057223-15.2385331c.7470809-.260055,1.5631828,.1328194,1.8239059,.8794811,.2607708,.7461845-.1328194,1.562716-.8791948,1.8237254l-43.6057119,15.2385331c-.156348,.0545022-.3157503,.080608-.4723846,.080608Z"/>
          <path class="cls-1" d="M103.7300987,116.8670137c-.360278,0-.7207946-.1351579-.999213-.4064283l-24.4384943-23.8104197c-.5662602-.5517995-.5781337-1.4583408-.0263443-2.0246011,.5518472-.5667375,1.4583408-.5779052,2.0248396-.0261057l24.4384835,23.8104674c.5662711,.5517995,.5781438,1.4582931,.0262966,2.0245533-.2805768,.2880697-.6529293,.4325341-1.0255681,.4325341Z"/>
        </g>
      </g>
      <g>
        <path class="cls-1" d="M111.472186,25.2675838c-.3041054,0-.6105493-.0964528-.8704133-.2954671l-3.0301136-2.3247452c-.6275504-.4809752-.7459458-1.3795464-.2647429-2.0073723,.4816911-.6268236,1.3807395-.74523,2.0073722-.2642548l3.0301245,2.3238385c.6275395,.4814524,.7459458,1.3805009,.264732,2.0078018-.2819608,.3672459-.707002,.5601991-1.1369589,.5601991Z"/>
        <path class="cls-1" d="M93.9366365,126.2801535c-.1416963,0-.2842994-.0135062-.4262343-.0414733-.7223696-.1412191-1.3254737-.6301166-1.613257-1.3072904l-13.4698345-31.6799813-20.5171852,3.9895456c-.6834735,.1337262-1.4010228-.067579-1.9171715-.5378637l-11.024583-10.0432565-23.3112518-9.7300833c-.7338324-.3062053-1.248597-.9871493-1.3432362-1.7771456l-3.2745733-27.4294263c-.0487275-.404567,.0169902-.816102,.1898988-1.1875477l8.9000453-19.0854278c.2059822-.442795,.5592923-.8095636,.9943558-1.0332997l29.2815953-15.0189968c.3493012-.179447,.7377848-.2623935,1.1339045-.2418716l42.1949532,2.3559576c.4499538,.026583,.8719882,.1831696,1.2254893,.4539627l3.8098599,2.9231723c.6273486,.4809752,.7457072,1.3800237,.2644934,2.0073245-.4814524,.6273486-1.3795356,.7461845-2.0075631,.2642548l-3.6509347-2.8010434-41.8183532-2.3345289-28.9271398,14.8376886-8.7247504,18.70983,3.2069944,26.8613048,23.0628599,9.6266149c.2341785,.0974073,.4499921,.2349037,.6389842,.4073351l10.8677578,9.9001761,20.717154-4.0286803c1.0211297-.1948145,2.0527589,.3523556,2.4575748,1.3068609l13.3010677,31.2833367,8.0853274-8.0349774-1.3133992-14.3595292c-.1020366-1.1152917,.6478812-2.1285467,1.7442628-2.3564348l19.0747369-3.9676397,4.0508247-14.7608032c.0575567-.208798,.1444644-.4064283,.2586709-.5881661l9.1626297-14.5692817-9.2290633-27.5147114-10.845136-8.3197541c-.6273486-.4809752-.7457072-1.3800237-.2644934-2.0073723,.4814524-.6273008,1.3800348-.7457072,2.0075631-.2642548l11.0043475,8.441883c.3497784,.2675001,.6091175,.6310711,.7494298,1.0505285l9.3924268,28.0022249c.2106593,.6277781,.1290968,1.3091994-.2234974,1.8698758l-9.2773135,14.7510195-4.1300373,15.0493024c-.2215997,.8067478-.8673702,1.41262-1.6855244,1.5822833l-18.8845994,3.9284572,1.2880093,14.0812909c.0600861,.6562224-.1733859,1.2989385-.6410934,1.7631621l-8.9848531,8.9293488c-.4192187,.4166893-.9808018,.6441001-1.5601388,.6441001Z"/>
      </g>
    </g>
  </g>
</svg>